<?xml version="1.0" encoding="UTF-8" standalone="no"?>
<!DOCTYPE svg PUBLIC "-//W3C//DTD SVG 1.1//EN"
 "http://www.w3.org/Graphics/SVG/1.1/DTD/svg11.dtd">
<!-- Generated by graphviz version 2.43.0 (0)
 -->
<!-- Title: com.teragrep.pth_06.planner.LogfileTable.insertResults Pages: 1 -->
<svg width="388pt" height="86pt"
 viewBox="0.00 0.00 388.00 86.00" xmlns="http://www.w3.org/2000/svg" xmlns:xlink="http://www.w3.org/1999/xlink">
<g id="graph0" class="graph" transform="scale(1 1) rotate(0) translate(4 82)">
<title>com.teragrep.pth_06.planner.LogfileTable.insertResults</title>
<!-- Node1 -->
<g id="Node000001" class="node">
<title>Node1</title>
<g id="a_Node000001"><a xlink:title=" ">
<polygon fill="#999999" stroke="#666666" points="380,-54 220,-54 220,-24 380,-24 380,-54"/>
<text text-anchor="start" x="228" y="-42" font-family="Helvetica,sans-Serif" font-size="10.00">com.teragrep.pth_06.planner.</text>
<text text-anchor="middle" x="300" y="-31" font-family="Helvetica,sans-Serif" font-size="10.00">LogfileTable.insertResults</text>
</a>
</g>
</g>
<!-- Node2 -->
<g id="Node000002" class="node">
<title>Node2</title>
<g id="a_Node000002"><a xlink:href="classcom_1_1teragrep_1_1pth__06_1_1planner_1_1HBaseQueryImplTest.html#a805c338639cb8d3850b7007c6513db90" target="_top" xlink:title=" ">
<polygon fill="white" stroke="#666666" points="180,-78 4,-78 4,-48 180,-48 180,-78"/>
<text text-anchor="start" x="12" y="-66" font-family="Helvetica,sans-Serif" font-size="10.00">com.teragrep.pth_06.planner.</text>
<text text-anchor="middle" x="92" y="-55" font-family="Helvetica,sans-Serif" font-size="10.00">HBaseQueryImplTest.beforeEach</text>
</a>
</g>
</g>
<!-- Node1&#45;&gt;Node2 -->
<g id="edge1_Node000001_Node000002" class="edge">
<title>Node1&#45;&gt;Node2</title>
<g id="a_edge1_Node000001_Node000002"><a xlink:title=" ">
<path fill="none" stroke="#63b8ff" d="M209.76,-49.4C199.91,-50.54 189.89,-51.71 180.07,-52.86"/>
<polygon fill="#63b8ff" stroke="#63b8ff" points="210.42,-52.84 219.94,-48.21 209.61,-45.89 210.42,-52.84"/>
</a>
</g>
</g>
<!-- Node3 -->
<g id="Node000003" class="node">
<title>Node3</title>
<g id="a_Node000003"><a xlink:href="classcom_1_1teragrep_1_1pth__06_1_1planner_1_1HourlyViewsSlicesTest.html#abf7f8a1e5c773e0ed50d55b28f007789" target="_top" xlink:title=" ">
<polygon fill="white" stroke="#666666" points="184,-30 0,-30 0,0 184,0 184,-30"/>
<text text-anchor="start" x="8" y="-18" font-family="Helvetica,sans-Serif" font-size="10.00">com.teragrep.pth_06.planner.</text>
<text text-anchor="middle" x="92" y="-7" font-family="Helvetica,sans-Serif" font-size="10.00">HourlyViewsSlicesTest.beforeEach</text>
</a>
</g>
</g>
<!-- Node1&#45;&gt;Node3 -->
<g id="edge2_Node000001_Node000003" class="edge">
<title>Node1&#45;&gt;Node3</title>
<g id="a_edge2_Node000001_Node000003"><a xlink:title=" ">
<path fill="none" stroke="#63b8ff" d="M209.99,-28.63C201.46,-27.64 192.79,-26.63 184.23,-25.63"/>
<polygon fill="#63b8ff" stroke="#63b8ff" points="209.61,-32.11 219.94,-29.79 210.42,-25.16 209.61,-32.11"/>
</a>
</g>
</g>
</g>
</svg>
