<?xml version="1.0" encoding="UTF-8" standalone="no"?>
<!DOCTYPE svg PUBLIC "-//W3C//DTD SVG 1.1//EN"
 "http://www.w3.org/Graphics/SVG/1.1/DTD/svg11.dtd">
<!-- Generated by graphviz version 2.43.0 (0)
 -->
<!-- Title: com.teragrep.pth_06.ast.analyze.FilterGroupTest.testSourceTypeFilterList Pages: 1 -->
<svg width="433pt" height="56pt"
 viewBox="0.00 0.00 433.00 56.00" xmlns="http://www.w3.org/2000/svg" xmlns:xlink="http://www.w3.org/1999/xlink">
<g id="graph0" class="graph" transform="scale(1 1) rotate(0) translate(4 52)">
<title>com.teragrep.pth_06.ast.analyze.FilterGroupTest.testSourceTypeFilterList</title>
<!-- Node1 -->
<g id="Node000001" class="node">
<title>Node1</title>
<g id="a_Node000001"><a xlink:title=" ">
<polygon fill="#999999" stroke="#666666" points="209,-30 0,-30 0,0 209,0 209,-30"/>
<text text-anchor="start" x="8" y="-18" font-family="Helvetica,sans-Serif" font-size="10.00">com.teragrep.pth_06.ast.analyze.</text>
<text text-anchor="middle" x="104.5" y="-7" font-family="Helvetica,sans-Serif" font-size="10.00">FilterGroupTest.testSourceTypeFilterList</text>
</a>
</g>
</g>
<!-- Node2 -->
<g id="Node000002" class="node">
<title>Node2</title>
<g id="a_Node000002"><a xlink:href="classcom_1_1teragrep_1_1pth__06_1_1ast_1_1analyze_1_1FilterGroup.html#abca0dfe17ffff99e035f7136c075c661" target="_top" xlink:title=" ">
<polygon fill="white" stroke="#666666" points="425,-30 245,-30 245,0 425,0 425,-30"/>
<text text-anchor="start" x="253" y="-18" font-family="Helvetica,sans-Serif" font-size="10.00">com.teragrep.pth_06.ast.analyze.</text>
<text text-anchor="middle" x="335" y="-7" font-family="Helvetica,sans-Serif" font-size="10.00">FilterGroup.filterList</text>
</a>
</g>
</g>
<!-- Node1&#45;&gt;Node2 -->
<g id="edge1_Node000001_Node000002" class="edge">
<title>Node1&#45;&gt;Node2</title>
<g id="a_edge1_Node000001_Node000002"><a xlink:title=" ">
<path fill="none" stroke="#63b8ff" d="M209.05,-15C217.53,-15 226.09,-15 234.54,-15"/>
<polygon fill="#63b8ff" stroke="#63b8ff" points="234.78,-18.5 244.78,-15 234.78,-11.5 234.78,-18.5"/>
</a>
</g>
</g>
<!-- Node2&#45;&gt;Node2 -->
<g id="edge2_Node000002_Node000002" class="edge">
<title>Node2&#45;&gt;Node2</title>
<g id="a_edge2_Node000002_Node000002"><a xlink:title=" ">
<path fill="none" stroke="#63b8ff" d="M294.57,-30.28C285.59,-39.41 299.06,-48 335,-48 356.34,-48 369.76,-44.97 375.26,-40.6"/>
<polygon fill="#63b8ff" stroke="#63b8ff" points="378.76,-40.33 375.43,-30.28 371.76,-40.22 378.76,-40.33"/>
</a>
</g>
</g>
</g>
</svg>
