<?xml version="1.0" encoding="UTF-8" standalone="no"?>
<!DOCTYPE svg PUBLIC "-//W3C//DTD SVG 1.1//EN"
 "http://www.w3.org/Graphics/SVG/1.1/DTD/svg11.dtd">
<!-- Generated by graphviz version 2.43.0 (0)
 -->
<!-- Title: com.teragrep.pth_06.planner.StubHBaseQuery Pages: 1 -->
<svg width="284pt" height="159pt"
 viewBox="0.00 0.00 283.50 159.00" xmlns="http://www.w3.org/2000/svg" xmlns:xlink="http://www.w3.org/1999/xlink">
<g id="graph0" class="graph" transform="scale(1 1) rotate(0) translate(4 155)">
<title>com.teragrep.pth_06.planner.StubHBaseQuery</title>
<!-- Node1 -->
<g id="Node000001" class="node">
<title>Node1</title>
<g id="a_Node000001"><a xlink:title=" ">
<polygon fill="#999999" stroke="#666666" points="238,-30 78,-30 78,0 238,0 238,-30"/>
<text text-anchor="start" x="86" y="-18" font-family="Helvetica,sans-Serif" font-size="10.00">com.teragrep.pth_06.planner.</text>
<text text-anchor="middle" x="158" y="-7" font-family="Helvetica,sans-Serif" font-size="10.00">StubHBaseQuery</text>
</a>
</g>
</g>
<!-- Node2 -->
<g id="Node000002" class="node">
<title>Node2</title>
<g id="a_Node000002"><a xlink:href="interfacecom_1_1teragrep_1_1pth__06_1_1planner_1_1HBaseQuery.html" target="_top" xlink:title=" ">
<polygon fill="white" stroke="#666666" points="238,-96 78,-96 78,-66 238,-66 238,-96"/>
<text text-anchor="start" x="86" y="-84" font-family="Helvetica,sans-Serif" font-size="10.00">com.teragrep.pth_06.planner.</text>
<text text-anchor="middle" x="158" y="-73" font-family="Helvetica,sans-Serif" font-size="10.00">HBaseQuery</text>
</a>
</g>
</g>
<!-- Node2&#45;&gt;Node1 -->
<g id="edge1_Node000001_Node000002" class="edge">
<title>Node2&#45;&gt;Node1</title>
<g id="a_edge1_Node000001_Node000002"><a xlink:title=" ">
<path fill="none" stroke="#63b8ff" d="M158,-55.54C158,-46.96 158,-37.61 158,-30.16"/>
<polygon fill="#63b8ff" stroke="#63b8ff" points="154.5,-55.8 158,-65.8 161.5,-55.8 154.5,-55.8"/>
</a>
</g>
</g>
<!-- Node3 -->
<g id="Node000003" class="node">
<title>Node3</title>
<g id="a_Node000003"><a xlink:href="interfacecom_1_1teragrep_1_1pth__06_1_1Stubbable.html" target="_top" xlink:title=" ">
<polygon fill="white" stroke="#666666" points="170,-151 0,-151 0,-132 170,-132 170,-151"/>
<text text-anchor="middle" x="85" y="-139" font-family="Helvetica,sans-Serif" font-size="10.00">com.teragrep.pth_06.Stubbable</text>
</a>
</g>
</g>
<!-- Node3&#45;&gt;Node2 -->
<g id="edge2_Node000002_Node000003" class="edge">
<title>Node3&#45;&gt;Node2</title>
<g id="a_edge2_Node000002_Node000003"><a xlink:title=" ">
<path fill="none" stroke="#63b8ff" d="M103.72,-125.5C115.01,-116.45 129.3,-105 140.39,-96.11"/>
<polygon fill="#63b8ff" stroke="#63b8ff" points="101.39,-122.88 95.77,-131.87 105.76,-128.35 101.39,-122.88"/>
</a>
</g>
</g>
<!-- Node4 -->
<g id="Node000004" class="node">
<title>Node4</title>
<g id="a_Node000004"><a xlink:title=" ">
<polygon fill="white" stroke="#666666" points="275.5,-151 188.5,-151 188.5,-132 275.5,-132 275.5,-151"/>
<text text-anchor="middle" x="232" y="-139" font-family="Helvetica,sans-Serif" font-size="10.00">AutoCloseable</text>
</a>
</g>
</g>
<!-- Node4&#45;&gt;Node2 -->
<g id="edge3_Node000002_Node000004" class="edge">
<title>Node4&#45;&gt;Node2</title>
<g id="a_edge3_Node000002_Node000004"><a xlink:title=" ">
<path fill="none" stroke="#63b8ff" d="M213.03,-125.5C201.58,-116.45 187.09,-105 175.85,-96.11"/>
<polygon fill="#63b8ff" stroke="#63b8ff" points="211.07,-128.41 221.08,-131.87 215.41,-122.92 211.07,-128.41"/>
</a>
</g>
</g>
</g>
</svg>
