<?xml version="1.0" encoding="UTF-8" standalone="no"?>
<!DOCTYPE svg PUBLIC "-//W3C//DTD SVG 1.1//EN"
 "http://www.w3.org/Graphics/SVG/1.1/DTD/svg11.dtd">
<!-- Generated by graphviz version 2.43.0 (0)
 -->
<!-- Title: com.teragrep.pth_06.ast.meta.StreamIDs.streamIdList Pages: 1 -->
<svg width="387pt" height="182pt"
 viewBox="0.00 0.00 387.00 182.00" xmlns="http://www.w3.org/2000/svg" xmlns:xlink="http://www.w3.org/1999/xlink">
<g id="graph0" class="graph" transform="scale(1 1) rotate(0) translate(4 178)">
<title>com.teragrep.pth_06.ast.meta.StreamIDs.streamIdList</title>
<!-- Node1 -->
<g id="Node000001" class="node">
<title>Node1</title>
<g id="a_Node000001"><a xlink:title=" ">
<polygon fill="#999999" stroke="#666666" points="379,-102 212,-102 212,-72 379,-72 379,-102"/>
<text text-anchor="start" x="220" y="-90" font-family="Helvetica,sans-Serif" font-size="10.00">com.teragrep.pth_06.ast.meta.</text>
<text text-anchor="middle" x="295.5" y="-79" font-family="Helvetica,sans-Serif" font-size="10.00">StreamIDs.streamIdList</text>
</a>
</g>
</g>
<!-- Node1&#45;&gt;Node1 -->
<g id="edge1_Node000001_Node000001" class="edge">
<title>Node1&#45;&gt;Node1</title>
<g id="a_edge1_Node000001_Node000001"><a xlink:title=" ">
<path fill="none" stroke="#63b8ff" d="M331.56,-112.6C326.63,-116.97 314.61,-120 295.5,-120 263.31,-120 251.24,-111.41 259.29,-102.28"/>
<polygon fill="#63b8ff" stroke="#63b8ff" points="335.06,-112.33 331.71,-102.28 328.06,-112.22 335.06,-112.33"/>
</a>
</g>
</g>
<!-- Node2 -->
<g id="Node000002" class="node">
<title>Node2</title>
<g id="a_Node000002"><a xlink:href="classcom_1_1teragrep_1_1pth__06_1_1ast_1_1meta_1_1StreamIDsTest.html#a3e58a5f3605e8aaad84691533257d73c" target="_top" xlink:title=" ">
<polygon fill="white" stroke="#666666" points="176,-174 0,-174 0,-144 176,-144 176,-174"/>
<text text-anchor="start" x="8" y="-162" font-family="Helvetica,sans-Serif" font-size="10.00">com.teragrep.pth_06.ast.meta.</text>
<text text-anchor="middle" x="88" y="-151" font-family="Helvetica,sans-Serif" font-size="10.00">StreamIDsTest.testMultipleHosts</text>
</a>
</g>
</g>
<!-- Node1&#45;&gt;Node2 -->
<g id="edge2_Node000001_Node000002" class="edge">
<title>Node1&#45;&gt;Node2</title>
<g id="a_edge2_Node000001_Node000002"><a xlink:title=" ">
<path fill="none" stroke="#63b8ff" d="M250.93,-106.06C228.74,-115.4 201.18,-126.46 176,-135 166.8,-138.12 156.95,-141.14 147.31,-143.92"/>
<polygon fill="#63b8ff" stroke="#63b8ff" points="252.58,-109.16 260.41,-102.03 249.84,-102.72 252.58,-109.16"/>
</a>
</g>
</g>
<!-- Node3 -->
<g id="Node000003" class="node">
<title>Node3</title>
<g id="a_Node000003"><a xlink:href="classcom_1_1teragrep_1_1pth__06_1_1ast_1_1meta_1_1StreamIDsTest.html#a0d4004b66d36725ecc6561478e1de00b" target="_top" xlink:title=" ">
<polygon fill="white" stroke="#666666" points="176,-126 0,-126 0,-96 176,-96 176,-126"/>
<text text-anchor="start" x="8" y="-114" font-family="Helvetica,sans-Serif" font-size="10.00">com.teragrep.pth_06.ast.meta.</text>
<text text-anchor="middle" x="88" y="-103" font-family="Helvetica,sans-Serif" font-size="10.00">StreamIDsTest.testMultipleIndex</text>
</a>
</g>
</g>
<!-- Node1&#45;&gt;Node3 -->
<g id="edge3_Node000001_Node000003" class="edge">
<title>Node1&#45;&gt;Node3</title>
<g id="a_edge3_Node000001_Node000003"><a xlink:title=" ">
<path fill="none" stroke="#63b8ff" d="M201.85,-97.82C193.32,-98.82 184.7,-99.82 176.23,-100.81"/>
<polygon fill="#63b8ff" stroke="#63b8ff" points="202.28,-101.29 211.8,-96.66 201.47,-94.34 202.28,-101.29"/>
</a>
</g>
</g>
<!-- Node4 -->
<g id="Node000004" class="node">
<title>Node4</title>
<g id="a_Node000004"><a xlink:href="classcom_1_1teragrep_1_1pth__06_1_1ast_1_1meta_1_1StreamIDsTest.html#afe30676e16fb9b5f0faf1369e24620ad" target="_top" xlink:title=" ">
<polygon fill="white" stroke="#666666" points="171.5,-78 4.5,-78 4.5,-48 171.5,-48 171.5,-78"/>
<text text-anchor="start" x="12.5" y="-66" font-family="Helvetica,sans-Serif" font-size="10.00">com.teragrep.pth_06.ast.meta.</text>
<text text-anchor="middle" x="88" y="-55" font-family="Helvetica,sans-Serif" font-size="10.00">StreamIDsTest.testSingleHost</text>
</a>
</g>
</g>
<!-- Node1&#45;&gt;Node4 -->
<g id="edge4_Node000001_Node000004" class="edge">
<title>Node1&#45;&gt;Node4</title>
<g id="a_edge4_Node000001_Node000004"><a xlink:title=" ">
<path fill="none" stroke="#63b8ff" d="M201.78,-76.17C191.69,-74.99 181.48,-73.8 171.53,-72.64"/>
<polygon fill="#63b8ff" stroke="#63b8ff" points="201.47,-79.66 211.8,-77.34 202.28,-72.71 201.47,-79.66"/>
</a>
</g>
</g>
<!-- Node5 -->
<g id="Node000005" class="node">
<title>Node5</title>
<g id="a_Node000005"><a xlink:href="classcom_1_1teragrep_1_1pth__06_1_1ast_1_1meta_1_1StreamIDsTest.html#ad652d049581506648821e447996b7816" target="_top" xlink:title=" ">
<polygon fill="white" stroke="#666666" points="171.5,-30 4.5,-30 4.5,0 171.5,0 171.5,-30"/>
<text text-anchor="start" x="12.5" y="-18" font-family="Helvetica,sans-Serif" font-size="10.00">com.teragrep.pth_06.ast.meta.</text>
<text text-anchor="middle" x="88" y="-7" font-family="Helvetica,sans-Serif" font-size="10.00">StreamIDsTest.testSingleIndex</text>
</a>
</g>
</g>
<!-- Node1&#45;&gt;Node5 -->
<g id="edge5_Node000001_Node000005" class="edge">
<title>Node1&#45;&gt;Node5</title>
<g id="a_edge5_Node000001_Node000005"><a xlink:title=" ">
<path fill="none" stroke="#63b8ff" d="M250.93,-67.94C228.74,-58.6 201.18,-47.54 176,-39 166.8,-35.88 156.95,-32.86 147.31,-30.08"/>
<polygon fill="#63b8ff" stroke="#63b8ff" points="249.84,-71.28 260.41,-71.97 252.58,-64.84 249.84,-71.28"/>
</a>
</g>
</g>
</g>
</svg>
