<?xml version="1.0" encoding="UTF-8" standalone="no"?>
<!DOCTYPE svg PUBLIC "-//W3C//DTD SVG 1.1//EN"
 "http://www.w3.org/Graphics/SVG/1.1/DTD/svg11.dtd">
<!-- Generated by graphviz version 2.43.0 (0)
 -->
<!-- Title: com.teragrep.pth_06.planner.HourlyViewsSlicesTest.testHasNextReturnsFalseAfterAllViewsFinished Pages: 1 -->
<svg width="394pt" height="86pt"
 viewBox="0.00 0.00 394.00 86.00" xmlns="http://www.w3.org/2000/svg" xmlns:xlink="http://www.w3.org/1999/xlink">
<g id="graph0" class="graph" transform="scale(1 1) rotate(0) translate(4 82)">
<title>com.teragrep.pth_06.planner.HourlyViewsSlicesTest.testHasNextReturnsFalseAfterAllViewsFinished</title>
<!-- Node1 -->
<g id="Node000001" class="node">
<title>Node1</title>
<g id="a_Node000001"><a xlink:title=" ">
<polygon fill="#999999" stroke="#666666" points="190,-59.5 0,-59.5 0,-18.5 190,-18.5 190,-59.5"/>
<text text-anchor="start" x="8" y="-47.5" font-family="Helvetica,sans-Serif" font-size="10.00">com.teragrep.pth_06.planner.</text>
<text text-anchor="start" x="8" y="-36.5" font-family="Helvetica,sans-Serif" font-size="10.00">HourlyViewsSlicesTest.testHasNext</text>
<text text-anchor="middle" x="95" y="-25.5" font-family="Helvetica,sans-Serif" font-size="10.00">ReturnsFalseAfterAllViewsFinished</text>
</a>
</g>
</g>
<!-- Node2 -->
<g id="Node000002" class="node">
<title>Node2</title>
<g id="a_Node000002"><a xlink:href="classcom_1_1teragrep_1_1pth__06_1_1planner_1_1HourlyViewsSlices.html#ad84a70723540aea7662caba5ddf4d588" target="_top" xlink:title=" ">
<polygon fill="white" stroke="#666666" points="386,-78 226,-78 226,-48 386,-48 386,-78"/>
<text text-anchor="start" x="234" y="-66" font-family="Helvetica,sans-Serif" font-size="10.00">com.teragrep.pth_06.planner.</text>
<text text-anchor="middle" x="306" y="-55" font-family="Helvetica,sans-Serif" font-size="10.00">HourlyViewsSlices.hasNext</text>
</a>
</g>
</g>
<!-- Node1&#45;&gt;Node2 -->
<g id="edge1_Node000001_Node000002" class="edge">
<title>Node1&#45;&gt;Node2</title>
<g id="a_edge1_Node000001_Node000002"><a xlink:title=" ">
<path fill="none" stroke="#63b8ff" d="M190.11,-49.81C198.58,-50.78 207.14,-51.76 215.58,-52.73"/>
<polygon fill="#63b8ff" stroke="#63b8ff" points="215.44,-56.24 225.78,-53.9 216.24,-49.28 215.44,-56.24"/>
</a>
</g>
</g>
<!-- Node3 -->
<g id="Node000003" class="node">
<title>Node3</title>
<g id="a_Node000003"><a xlink:href="classcom_1_1teragrep_1_1pth__06_1_1planner_1_1HourlyViewsSlices.html#a484f5561b9ae906e8f44b4c2cfa69133" target="_top" xlink:title=" ">
<polygon fill="white" stroke="#666666" points="386,-30 226,-30 226,0 386,0 386,-30"/>
<text text-anchor="start" x="234" y="-18" font-family="Helvetica,sans-Serif" font-size="10.00">com.teragrep.pth_06.planner.</text>
<text text-anchor="middle" x="306" y="-7" font-family="Helvetica,sans-Serif" font-size="10.00">HourlyViewsSlices.nextHour</text>
</a>
</g>
</g>
<!-- Node1&#45;&gt;Node3 -->
<g id="edge2_Node000001_Node000003" class="edge">
<title>Node1&#45;&gt;Node3</title>
<g id="a_edge2_Node000001_Node000003"><a xlink:title=" ">
<path fill="none" stroke="#63b8ff" d="M190.11,-28.19C198.58,-27.22 207.14,-26.24 215.58,-25.27"/>
<polygon fill="#63b8ff" stroke="#63b8ff" points="216.24,-28.72 225.78,-24.1 215.44,-21.76 216.24,-28.72"/>
</a>
</g>
</g>
</g>
</svg>
