<?xml version="1.0" encoding="UTF-8" standalone="no"?>
<!DOCTYPE svg PUBLIC "-//W3C//DTD SVG 1.1//EN"
 "http://www.w3.org/Graphics/SVG/1.1/DTD/svg11.dtd">
<!-- Generated by graphviz version 2.43.0 (0)
 -->
<!-- Title: com.teragrep.pth_06.planner.HBaseQueryImpl.earliest Pages: 1 -->
<svg width="394pt" height="86pt"
 viewBox="0.00 0.00 394.00 86.00" xmlns="http://www.w3.org/2000/svg" xmlns:xlink="http://www.w3.org/1999/xlink">
<g id="graph0" class="graph" transform="scale(1 1) rotate(0) translate(4 82)">
<title>com.teragrep.pth_06.planner.HBaseQueryImpl.earliest</title>
<!-- Node1 -->
<g id="Node000001" class="node">
<title>Node1</title>
<g id="a_Node000001"><a xlink:title="Finds the earliest offset available in the scan plan collection, formed from the query.">
<polygon fill="#999999" stroke="#666666" points="386,-54 226,-54 226,-24 386,-24 386,-54"/>
<text text-anchor="start" x="234" y="-42" font-family="Helvetica,sans-Serif" font-size="10.00">com.teragrep.pth_06.planner.</text>
<text text-anchor="middle" x="306" y="-31" font-family="Helvetica,sans-Serif" font-size="10.00">HBaseQueryImpl.earliest</text>
</a>
</g>
</g>
<!-- Node1&#45;&gt;Node1 -->
<g id="edge1_Node000001_Node000001" class="edge">
<title>Node1&#45;&gt;Node1</title>
<g id="a_edge1_Node000001_Node000001"><a xlink:title=" ">
<path fill="none" stroke="#63b8ff" d="M342.76,-64.6C337.74,-68.97 325.48,-72 306,-72 273.19,-72 260.88,-63.41 269.09,-54.28"/>
<polygon fill="#63b8ff" stroke="#63b8ff" points="346.26,-64.33 342.91,-54.28 339.26,-64.22 346.26,-64.33"/>
</a>
</g>
</g>
<!-- Node2 -->
<g id="Node000002" class="node">
<title>Node2</title>
<g id="a_Node000002"><a xlink:href="classcom_1_1teragrep_1_1pth__06_1_1planner_1_1HBaseQueryImpl.html#a5cc16609895c644b18d504dc49cbcd64" target="_top" xlink:title="Queries results form hbase until the batch limit is reached and updates latest.">
<polygon fill="white" stroke="#666666" points="175,-78 15,-78 15,-48 175,-48 175,-78"/>
<text text-anchor="start" x="23" y="-66" font-family="Helvetica,sans-Serif" font-size="10.00">com.teragrep.pth_06.planner.</text>
<text text-anchor="middle" x="95" y="-55" font-family="Helvetica,sans-Serif" font-size="10.00">HBaseQueryImpl.latest</text>
</a>
</g>
</g>
<!-- Node1&#45;&gt;Node2 -->
<g id="edge2_Node000001_Node000002" class="edge">
<title>Node1&#45;&gt;Node2</title>
<g id="a_edge2_Node000001_Node000002"><a xlink:title=" ">
<path fill="none" stroke="#63b8ff" d="M215.74,-49.25C202.24,-50.8 188.39,-52.39 175.13,-53.91"/>
<polygon fill="#63b8ff" stroke="#63b8ff" points="216.45,-52.69 225.99,-48.07 215.65,-45.74 216.45,-52.69"/>
</a>
</g>
</g>
<!-- Node3 -->
<g id="Node000003" class="node">
<title>Node3</title>
<g id="a_Node000003"><a xlink:href="classcom_1_1teragrep_1_1pth__06_1_1planner_1_1HBaseQueryImpl.html#a3e76b78ec59462795de6428b6e549cab" target="_top" xlink:title=" ">
<polygon fill="white" stroke="#666666" points="190,-30 0,-30 0,0 190,0 190,-30"/>
<text text-anchor="start" x="8" y="-18" font-family="Helvetica,sans-Serif" font-size="10.00">com.teragrep.pth_06.planner.</text>
<text text-anchor="middle" x="95" y="-7" font-family="Helvetica,sans-Serif" font-size="10.00">HBaseQueryImpl.mostRecentOffset</text>
</a>
</g>
</g>
<!-- Node1&#45;&gt;Node3 -->
<g id="edge3_Node000001_Node000003" class="edge">
<title>Node1&#45;&gt;Node3</title>
<g id="a_edge3_Node000001_Node000003"><a xlink:title=" ">
<path fill="none" stroke="#63b8ff" d="M216.04,-28.78C207.5,-27.8 198.82,-26.81 190.24,-25.82"/>
<polygon fill="#63b8ff" stroke="#63b8ff" points="215.65,-32.26 225.99,-29.93 216.45,-25.31 215.65,-32.26"/>
</a>
</g>
</g>
</g>
</svg>
