<?xml version="1.0" encoding="UTF-8" standalone="no"?>
<!DOCTYPE svg PUBLIC "-//W3C//DTD SVG 1.1//EN"
 "http://www.w3.org/Graphics/SVG/1.1/DTD/svg11.dtd">
<!-- Generated by graphviz version 2.43.0 (0)
 -->
<!-- Title: com.teragrep.pth_06.ast.meta.StreamDBCondition.hostCondition Pages: 1 -->
<svg width="647pt" height="56pt"
 viewBox="0.00 0.00 647.00 56.00" xmlns="http://www.w3.org/2000/svg" xmlns:xlink="http://www.w3.org/1999/xlink">
<g id="graph0" class="graph" transform="scale(1 1) rotate(0) translate(4 52)">
<title>com.teragrep.pth_06.ast.meta.StreamDBCondition.hostCondition</title>
<!-- Node1 -->
<g id="Node000001" class="node">
<title>Node1</title>
<g id="a_Node000001"><a xlink:title=" ">
<polygon fill="#999999" stroke="#666666" points="183,-30 0,-30 0,0 183,0 183,-30"/>
<text text-anchor="start" x="8" y="-18" font-family="Helvetica,sans-Serif" font-size="10.00">com.teragrep.pth_06.ast.meta.</text>
<text text-anchor="middle" x="91.5" y="-7" font-family="Helvetica,sans-Serif" font-size="10.00">StreamDBCondition.hostCondition</text>
</a>
</g>
</g>
<!-- Node1&#45;&gt;Node1 -->
<g id="edge6_Node000001_Node000001" class="edge">
<title>Node1&#45;&gt;Node1</title>
<g id="a_edge6_Node000001_Node000001"><a xlink:title=" ">
<path fill="none" stroke="#63b8ff" d="M54.59,-30.28C46.38,-39.41 58.69,-48 91.5,-48 110.98,-48 123.24,-44.97 128.26,-40.6"/>
<polygon fill="#63b8ff" stroke="#63b8ff" points="131.76,-40.33 128.41,-30.28 124.76,-40.22 131.76,-40.33"/>
</a>
</g>
</g>
<!-- Node2 -->
<g id="Node000002" class="node">
<title>Node2</title>
<g id="a_Node000002"><a xlink:href="classcom_1_1teragrep_1_1pth__06_1_1ast_1_1meta_1_1StreamDBCondition.html#a529cd38cec60771ddde6da97da36dd10" target="_top" xlink:title=" ">
<polygon fill="white" stroke="#666666" points="386,-30 219,-30 219,0 386,0 386,-30"/>
<text text-anchor="start" x="227" y="-18" font-family="Helvetica,sans-Serif" font-size="10.00">com.teragrep.pth_06.ast.meta.</text>
<text text-anchor="middle" x="302.5" y="-7" font-family="Helvetica,sans-Serif" font-size="10.00">StreamDBCondition.condition</text>
</a>
</g>
</g>
<!-- Node1&#45;&gt;Node2 -->
<g id="edge1_Node000001_Node000002" class="edge">
<title>Node1&#45;&gt;Node2</title>
<g id="a_edge1_Node000001_Node000002"><a xlink:title=" ">
<path fill="none" stroke="#63b8ff" d="M183.26,-8.3C191.64,-8.24 200.14,-8.23 208.54,-8.29"/>
<polygon fill="#63b8ff" stroke="#63b8ff" points="208.69,-11.79 218.72,-8.38 208.75,-4.79 208.69,-11.79"/>
</a>
</g>
</g>
<!-- Node2&#45;&gt;Node1 -->
<g id="edge2_Node000002_Node000001" class="edge">
<title>Node2&#45;&gt;Node1</title>
<g id="a_edge2_Node000002_Node000001"><a xlink:title=" ">
<path fill="none" stroke="#63b8ff" d="M218.72,-21.62C210.44,-21.72 201.97,-21.76 193.53,-21.75"/>
<polygon fill="#63b8ff" stroke="#63b8ff" points="193.28,-18.25 183.26,-21.7 193.24,-25.25 193.28,-18.25"/>
</a>
</g>
</g>
<!-- Node3 -->
<g id="Node000003" class="node">
<title>Node3</title>
<g id="a_Node000003"><a xlink:href="classcom_1_1teragrep_1_1pth__06_1_1ast_1_1meta_1_1StreamDBCondition.html#a2bedf2bbbbc73178de7e2c8872f8d486" target="_top" xlink:title=" ">
<polygon fill="white" stroke="#666666" points="639,-30 422,-30 422,0 639,0 639,-30"/>
<text text-anchor="start" x="430" y="-18" font-family="Helvetica,sans-Serif" font-size="10.00">com.teragrep.pth_06.ast.meta.</text>
<text text-anchor="middle" x="530.5" y="-7" font-family="Helvetica,sans-Serif" font-size="10.00">StreamDBCondition.sourceTypeCondition</text>
</a>
</g>
</g>
<!-- Node2&#45;&gt;Node3 -->
<g id="edge3_Node000002_Node000003" class="edge">
<title>Node2&#45;&gt;Node3</title>
<g id="a_edge3_Node000002_Node000003"><a xlink:title=" ">
<path fill="none" stroke="#63b8ff" d="M386.05,-8.47C394.39,-8.35 402.97,-8.28 411.58,-8.26"/>
<polygon fill="#63b8ff" stroke="#63b8ff" points="411.7,-11.76 421.7,-8.26 411.7,-4.76 411.7,-11.76"/>
</a>
</g>
</g>
<!-- Node3&#45;&gt;Node2 -->
<g id="edge4_Node000003_Node000002" class="edge">
<title>Node3&#45;&gt;Node2</title>
<g id="a_edge4_Node000003_Node000002"><a xlink:title=" ">
<path fill="none" stroke="#63b8ff" d="M421.7,-21.74C413.18,-21.76 404.62,-21.73 396.21,-21.65"/>
<polygon fill="#63b8ff" stroke="#63b8ff" points="396.09,-18.15 386.05,-21.53 396.01,-25.15 396.09,-18.15"/>
</a>
</g>
</g>
<!-- Node3&#45;&gt;Node3 -->
<g id="edge5_Node000003_Node000003" class="edge">
<title>Node3&#45;&gt;Node3</title>
<g id="a_edge5_Node000003_Node000003"><a xlink:title=" ">
<path fill="none" stroke="#63b8ff" d="M490.42,-30.28C481.52,-39.41 494.88,-48 530.5,-48 551.65,-48 564.96,-44.97 570.41,-40.6"/>
<polygon fill="#63b8ff" stroke="#63b8ff" points="573.91,-40.33 570.58,-30.28 566.91,-40.22 573.91,-40.33"/>
</a>
</g>
</g>
</g>
</svg>
