<?xml version="1.0" encoding="UTF-8" standalone="no"?>
<!DOCTYPE svg PUBLIC "-//W3C//DTD SVG 1.1//EN"
 "http://www.w3.org/Graphics/SVG/1.1/DTD/svg11.dtd">
<!-- Generated by graphviz version 2.43.0 (0)
 -->
<!-- Title: com.teragrep.pth_06.ast.transform.WithDefaultValuesTest.testDefaultEarliest Pages: 1 -->
<svg width="1346pt" height="446pt"
 viewBox="0.00 0.00 1346.00 445.66" xmlns="http://www.w3.org/2000/svg" xmlns:xlink="http://www.w3.org/1999/xlink">
<g id="graph0" class="graph" transform="scale(1 1) rotate(0) translate(4 441.66)">
<title>com.teragrep.pth_06.ast.transform.WithDefaultValuesTest.testDefaultEarliest</title>
<!-- Node1 -->
<g id="Node000001" class="node">
<title>Node1</title>
<g id="a_Node000001"><a xlink:title=" ">
<polygon fill="#999999" stroke="#666666" points="221,-406.35 0,-406.35 0,-376.35 221,-376.35 221,-406.35"/>
<text text-anchor="start" x="8" y="-394.35" font-family="Helvetica,sans-Serif" font-size="10.00">com.teragrep.pth_06.ast.transform.</text>
<text text-anchor="middle" x="110.5" y="-383.35" font-family="Helvetica,sans-Serif" font-size="10.00">WithDefaultValuesTest.testDefaultEarliest</text>
</a>
</g>
</g>
<!-- Node2 -->
<g id="Node000002" class="node">
<title>Node2</title>
<g id="a_Node000002"><a xlink:href="interfacecom_1_1teragrep_1_1pth__06_1_1ast_1_1Expression.html#a17e7d33905be57c6e22e1717da6ddef6" target="_top" xlink:title=" ">
<polygon fill="white" stroke="#666666" points="1334.5,-330.35 1195.5,-330.35 1195.5,-300.35 1334.5,-300.35 1334.5,-330.35"/>
<text text-anchor="start" x="1203.5" y="-318.35" font-family="Helvetica,sans-Serif" font-size="10.00">com.teragrep.pth_06.ast.</text>
<text text-anchor="middle" x="1265" y="-307.35" font-family="Helvetica,sans-Serif" font-size="10.00">Expression.asLogical</text>
</a>
</g>
</g>
<!-- Node1&#45;&gt;Node2 -->
<g id="edge1_Node000001_Node000002" class="edge">
<title>Node1&#45;&gt;Node2</title>
<g id="a_edge1_Node000001_Node000002"><a xlink:title=" ">
<path fill="none" stroke="#63b8ff" d="M221.4,-405.01C318.56,-415.91 464.23,-429.35 591.5,-429.35 591.5,-429.35 591.5,-429.35 835,-429.35 978.06,-429.35 1023.39,-459.03 1156,-405.35 1192.07,-390.75 1225.1,-359.43 1244.88,-337.88"/>
<polygon fill="#63b8ff" stroke="#63b8ff" points="1247.49,-340.21 1251.56,-330.43 1242.28,-335.54 1247.49,-340.21"/>
</a>
</g>
</g>
<!-- Node3 -->
<g id="Node000003" class="node">
<title>Node3</title>
<g id="a_Node000003"><a xlink:href="interfacecom_1_1teragrep_1_1pth__06_1_1ast_1_1LogicalExpression.html#aeaf8fe296c6899792f345659a9a6c0c4" target="_top" xlink:title=" ">
<polygon fill="white" stroke="#666666" points="1338,-223.35 1192,-223.35 1192,-193.35 1338,-193.35 1338,-223.35"/>
<text text-anchor="start" x="1200" y="-211.35" font-family="Helvetica,sans-Serif" font-size="10.00">com.teragrep.pth_06.ast.</text>
<text text-anchor="middle" x="1265" y="-200.35" font-family="Helvetica,sans-Serif" font-size="10.00">LogicalExpression.children</text>
</a>
</g>
</g>
<!-- Node1&#45;&gt;Node3 -->
<g id="edge2_Node000001_Node000003" class="edge">
<title>Node1&#45;&gt;Node3</title>
<g id="a_edge2_Node000001_Node000003"><a xlink:title=" ">
<path fill="none" stroke="#63b8ff" d="M221.12,-391.35C318.41,-391.35 464.42,-391.35 591.5,-391.35 591.5,-391.35 591.5,-391.35 835,-391.35 998.12,-391.35 1170.18,-278.02 1236.09,-229.73"/>
<polygon fill="#63b8ff" stroke="#63b8ff" points="1238.36,-232.4 1244.31,-223.63 1234.2,-226.78 1238.36,-232.4"/>
</a>
</g>
</g>
<!-- Node4 -->
<g id="Node000004" class="node">
<title>Node4</title>
<g id="a_Node000004"><a xlink:href="classcom_1_1teragrep_1_1pth__06_1_1ast_1_1transform_1_1WithDefaultValues.html#a3cd2907c54910cabd6d8cb52ff49215f" target="_top" xlink:title=" ">
<polygon fill="white" stroke="#666666" points="447,-248.35 257,-248.35 257,-218.35 447,-218.35 447,-248.35"/>
<text text-anchor="start" x="265" y="-236.35" font-family="Helvetica,sans-Serif" font-size="10.00">com.teragrep.pth_06.ast.transform.</text>
<text text-anchor="middle" x="352" y="-225.35" font-family="Helvetica,sans-Serif" font-size="10.00">WithDefaultValues.transformed</text>
</a>
</g>
</g>
<!-- Node1&#45;&gt;Node4 -->
<g id="edge3_Node000001_Node000004" class="edge">
<title>Node1&#45;&gt;Node4</title>
<g id="a_edge3_Node000001_Node000004"><a xlink:title=" ">
<path fill="none" stroke="#63b8ff" d="M134.46,-376.2C177.56,-347.77 270.61,-286.38 319.51,-254.12"/>
<polygon fill="#63b8ff" stroke="#63b8ff" points="321.69,-256.88 328.11,-248.45 317.83,-251.04 321.69,-256.88"/>
</a>
</g>
</g>
<!-- Node4&#45;&gt;Node2 -->
<g id="edge4_Node000004_Node000002" class="edge">
<title>Node4&#45;&gt;Node2</title>
<g id="a_edge4_Node000004_Node000002"><a xlink:title=" ">
<path fill="none" stroke="#63b8ff" d="M432.94,-248.37C549.6,-269.45 773.53,-306.76 966,-320.35 1040.16,-325.58 1124.95,-323.37 1185.08,-320.41"/>
<polygon fill="#63b8ff" stroke="#63b8ff" points="1185.45,-323.9 1195.26,-319.9 1185.09,-316.91 1185.45,-323.9"/>
</a>
</g>
</g>
<!-- Node4&#45;&gt;Node4 -->
<g id="edge26_Node000004_Node000004" class="edge">
<title>Node4&#45;&gt;Node4</title>
<g id="a_edge26_Node000004_Node000004"><a xlink:title=" ">
<path fill="none" stroke="#63b8ff" d="M309.81,-248.62C300.44,-257.75 314.5,-266.35 352,-266.35 374.27,-266.35 388.27,-263.32 394.01,-258.94"/>
<polygon fill="#63b8ff" stroke="#63b8ff" points="397.51,-258.68 394.19,-248.62 390.51,-258.56 397.51,-258.68"/>
</a>
</g>
</g>
<!-- Node5 -->
<g id="Node000005" class="node">
<title>Node5</title>
<g id="a_Node000005"><a xlink:href="interfacecom_1_1teragrep_1_1pth__06_1_1ast_1_1Expression.html#a65ee7f5fb98e4129018f467a53586842" target="_top" xlink:title=" ">
<polygon fill="white" stroke="#666666" points="1334.5,-31.35 1195.5,-31.35 1195.5,-1.35 1334.5,-1.35 1334.5,-31.35"/>
<text text-anchor="start" x="1203.5" y="-19.35" font-family="Helvetica,sans-Serif" font-size="10.00">com.teragrep.pth_06.ast.</text>
<text text-anchor="middle" x="1265" y="-8.35" font-family="Helvetica,sans-Serif" font-size="10.00">Expression.isLogical</text>
</a>
</g>
</g>
<!-- Node4&#45;&gt;Node5 -->
<g id="edge5_Node000004_Node000005" class="edge">
<title>Node4&#45;&gt;Node5</title>
<g id="a_edge5_Node000004_Node000005"><a xlink:title=" ">
<path fill="none" stroke="#63b8ff" d="M363.51,-218.18C383.38,-190.78 429.34,-133.28 483,-105.35 715.14,15.49 1037.75,5.23 1185.02,-7.52"/>
<polygon fill="#63b8ff" stroke="#63b8ff" points="1185.05,-11.04 1195.32,-8.44 1185.67,-4.07 1185.05,-11.04"/>
</a>
</g>
</g>
<!-- Node6 -->
<g id="Node000006" class="node">
<title>Node6</title>
<g id="a_Node000006"><a xlink:href="classcom_1_1teragrep_1_1pth__06_1_1ast_1_1transform_1_1WithDefaultValues.html#a371bd3fba44c9f320d2b39f5e60cb82c" target="_top" xlink:title=" ">
<polygon fill="white" stroke="#666666" points="702,-155.85 483,-155.85 483,-114.85 702,-114.85 702,-155.85"/>
<text text-anchor="start" x="491" y="-143.85" font-family="Helvetica,sans-Serif" font-size="10.00">com.teragrep.pth_06.ast.transform.</text>
<text text-anchor="start" x="491" y="-132.85" font-family="Helvetica,sans-Serif" font-size="10.00">WithDefaultValues.recursiveWithDefaults</text>
<text text-anchor="middle" x="592.5" y="-121.85" font-family="Helvetica,sans-Serif" font-size="10.00">Expression</text>
</a>
</g>
</g>
<!-- Node4&#45;&gt;Node6 -->
<g id="edge6_Node000004_Node000006" class="edge">
<title>Node4&#45;&gt;Node6</title>
<g id="a_edge6_Node000004_Node000006"><a xlink:title=" ">
<path fill="none" stroke="#63b8ff" d="M389.74,-218.25C427.68,-202.66 487.47,-178.09 532.13,-159.74"/>
<polygon fill="#63b8ff" stroke="#63b8ff" points="533.5,-162.96 541.42,-155.93 530.84,-156.49 533.5,-162.96"/>
</a>
</g>
</g>
<!-- Node6&#45;&gt;Node5 -->
<g id="edge17_Node000006_Node000005" class="edge">
<title>Node6&#45;&gt;Node5</title>
<g id="a_edge17_Node000006_Node000005"><a xlink:title=" ">
<path fill="none" stroke="#63b8ff" d="M661.08,-114.82C685.2,-107.98 712.67,-100.74 738,-95.35 895.34,-61.88 1082.11,-37.38 1185.4,-25.14"/>
<polygon fill="#63b8ff" stroke="#63b8ff" points="1185.91,-28.6 1195.44,-23.96 1185.1,-21.65 1185.91,-28.6"/>
</a>
</g>
</g>
<!-- Node7 -->
<g id="Node000007" class="node">
<title>Node7</title>
<g id="a_Node000007"><a xlink:href="classcom_1_1teragrep_1_1pth__06_1_1ast_1_1transform_1_1WithDefaultValues.html#ac53e9da4d27289a430152a8b67aa7e6b" target="_top" xlink:title=" ">
<polygon fill="white" stroke="#666666" points="930,-198.35 738,-198.35 738,-168.35 930,-168.35 930,-198.35"/>
<text text-anchor="start" x="746" y="-186.35" font-family="Helvetica,sans-Serif" font-size="10.00">com.teragrep.pth_06.ast.transform.</text>
<text text-anchor="middle" x="834" y="-175.35" font-family="Helvetica,sans-Serif" font-size="10.00">WithDefaultValues.andWithDefaults</text>
</a>
</g>
</g>
<!-- Node6&#45;&gt;Node7 -->
<g id="edge7_Node000006_Node000007" class="edge">
<title>Node6&#45;&gt;Node7</title>
<g id="a_edge7_Node000006_Node000007"><a xlink:title=" ">
<path fill="none" stroke="#63b8ff" d="M702.04,-150.38C727.37,-155.33 753.37,-160.83 775.47,-165.95"/>
<polygon fill="#63b8ff" stroke="#63b8ff" points="774.79,-169.39 785.32,-168.27 776.39,-162.57 774.79,-169.39"/>
</a>
</g>
</g>
<!-- Node9 -->
<g id="Node000009" class="node">
<title>Node9</title>
<g id="a_Node000009"><a xlink:href="interfacecom_1_1teragrep_1_1pth__06_1_1ast_1_1Expression.html#a8b9661253a3610b9eb148ee29ca8b7e1" target="_top" xlink:title=" ">
<polygon fill="white" stroke="#666666" points="1334.5,-112.35 1195.5,-112.35 1195.5,-82.35 1334.5,-82.35 1334.5,-112.35"/>
<text text-anchor="start" x="1203.5" y="-100.35" font-family="Helvetica,sans-Serif" font-size="10.00">com.teragrep.pth_06.ast.</text>
<text text-anchor="middle" x="1265" y="-89.35" font-family="Helvetica,sans-Serif" font-size="10.00">Expression.tag</text>
</a>
</g>
</g>
<!-- Node6&#45;&gt;Node9 -->
<g id="edge25_Node000006_Node000009" class="edge">
<title>Node6&#45;&gt;Node9</title>
<g id="a_edge25_Node000006_Node000009"><a xlink:title=" ">
<path fill="none" stroke="#63b8ff" d="M702.19,-115.8C714.24,-114.08 726.36,-112.54 738,-111.35 896.09,-95.16 1082.21,-94.51 1185.27,-95.75"/>
<polygon fill="#63b8ff" stroke="#63b8ff" points="1185.24,-99.25 1195.28,-95.88 1185.33,-92.25 1185.24,-99.25"/>
</a>
</g>
</g>
<!-- Node10 -->
<g id="Node000010" class="node">
<title>Node10</title>
<g id="a_Node000010"><a xlink:href="classcom_1_1teragrep_1_1pth__06_1_1ast_1_1transform_1_1WithDefaultValues.html#af8c587422cbf070fc6fea9aba68705d9" target="_top" xlink:title=" ">
<polygon fill="white" stroke="#666666" points="929,-150.35 739,-150.35 739,-120.35 929,-120.35 929,-150.35"/>
<text text-anchor="start" x="747" y="-138.35" font-family="Helvetica,sans-Serif" font-size="10.00">com.teragrep.pth_06.ast.transform.</text>
<text text-anchor="middle" x="834" y="-127.35" font-family="Helvetica,sans-Serif" font-size="10.00">WithDefaultValues.orWithDefaults</text>
</a>
</g>
</g>
<!-- Node6&#45;&gt;Node10 -->
<g id="edge18_Node000006_Node000010" class="edge">
<title>Node6&#45;&gt;Node10</title>
<g id="a_edge18_Node000006_Node000010"><a xlink:title=" ">
<path fill="none" stroke="#63b8ff" d="M702.04,-128.62C710.84,-128.58 719.73,-128.59 728.51,-128.65"/>
<polygon fill="#63b8ff" stroke="#63b8ff" points="728.72,-132.15 738.75,-128.74 728.78,-125.15 728.72,-132.15"/>
</a>
</g>
</g>
<!-- Node7&#45;&gt;Node2 -->
<g id="edge8_Node000007_Node000002" class="edge">
<title>Node7&#45;&gt;Node2</title>
<g id="a_edge8_Node000007_Node000002"><a xlink:title=" ">
<path fill="none" stroke="#63b8ff" d="M847.63,-198.54C869.06,-223.08 915.19,-270.76 966,-291.35 1036.29,-319.82 1123.42,-323.61 1185.27,-321.62"/>
<polygon fill="#63b8ff" stroke="#63b8ff" points="1185.5,-325.11 1195.36,-321.23 1185.23,-318.12 1185.5,-325.11"/>
</a>
</g>
</g>
<!-- Node7&#45;&gt;Node3 -->
<g id="edge9_Node000007_Node000003" class="edge">
<title>Node7&#45;&gt;Node3</title>
<g id="a_edge9_Node000007_Node000003"><a xlink:title=" ">
<path fill="none" stroke="#63b8ff" d="M876.85,-198.35C902.26,-206.66 935.57,-216.13 966,-220.35 1038.48,-230.39 1121.76,-225.68 1181.81,-219.46"/>
<polygon fill="#63b8ff" stroke="#63b8ff" points="1182.43,-222.91 1192,-218.36 1181.68,-215.95 1182.43,-222.91"/>
</a>
</g>
</g>
<!-- Node7&#45;&gt;Node6 -->
<g id="edge16_Node000007_Node000006" class="edge">
<title>Node7&#45;&gt;Node6</title>
<g id="a_edge16_Node000007_Node000006"><a xlink:title=" ">
<path fill="none" stroke="#63b8ff" d="M737.67,-170.86C716.76,-166.89 694.81,-162.43 674.52,-158.01"/>
<polygon fill="#63b8ff" stroke="#63b8ff" points="675.23,-154.58 664.71,-155.85 673.72,-161.42 675.23,-154.58"/>
</a>
</g>
</g>
<!-- Node8 -->
<g id="Node000008" class="node">
<title>Node8</title>
<g id="a_Node000008"><a xlink:href="classcom_1_1teragrep_1_1pth__06_1_1ast_1_1transform_1_1WithDefaultValues.html#a42a39b9992cc004453cd026fbc106b36" target="_top" xlink:title=" ">
<polygon fill="white" stroke="#666666" points="1156,-193.35 966,-193.35 966,-163.35 1156,-163.35 1156,-193.35"/>
<text text-anchor="start" x="974" y="-181.35" font-family="Helvetica,sans-Serif" font-size="10.00">com.teragrep.pth_06.ast.transform.</text>
<text text-anchor="middle" x="1061" y="-170.35" font-family="Helvetica,sans-Serif" font-size="10.00">WithDefaultValues.expressionTags</text>
</a>
</g>
</g>
<!-- Node7&#45;&gt;Node8 -->
<g id="edge10_Node000007_Node000008" class="edge">
<title>Node7&#45;&gt;Node8</title>
<g id="a_edge10_Node000007_Node000008"><a xlink:title=" ">
<path fill="none" stroke="#63b8ff" d="M930.09,-181.23C938.63,-181.04 947.3,-180.85 955.9,-180.66"/>
<polygon fill="#63b8ff" stroke="#63b8ff" points="956.04,-184.16 965.96,-180.44 955.89,-177.16 956.04,-184.16"/>
</a>
</g>
</g>
<!-- Node8&#45;&gt;Node2 -->
<g id="edge11_Node000008_Node000002" class="edge">
<title>Node8&#45;&gt;Node2</title>
<g id="a_edge11_Node000008_Node000002"><a xlink:title=" ">
<path fill="none" stroke="#63b8ff" d="M1084.39,-193.53C1120.66,-218.13 1192.32,-266.74 1233.32,-294.54"/>
<polygon fill="#63b8ff" stroke="#63b8ff" points="1231.58,-297.59 1241.82,-300.3 1235.51,-291.79 1231.58,-297.59"/>
</a>
</g>
</g>
<!-- Node8&#45;&gt;Node3 -->
<g id="edge12_Node000008_Node000003" class="edge">
<title>Node8&#45;&gt;Node3</title>
<g id="a_edge12_Node000008_Node000003"><a xlink:title=" ">
<path fill="none" stroke="#63b8ff" d="M1156.2,-192.34C1164.68,-193.6 1173.23,-194.87 1181.6,-196.11"/>
<polygon fill="#63b8ff" stroke="#63b8ff" points="1181.3,-199.6 1191.7,-197.61 1182.33,-192.68 1181.3,-199.6"/>
</a>
</g>
</g>
<!-- Node8&#45;&gt;Node5 -->
<g id="edge14_Node000008_Node000005" class="edge">
<title>Node8&#45;&gt;Node5</title>
<g id="a_edge14_Node000008_Node000005"><a xlink:title=" ">
<path fill="none" stroke="#63b8ff" d="M1080.47,-163.34C1105.63,-142.91 1152.12,-105.24 1192,-73.35 1206.75,-61.56 1223.26,-48.48 1236.74,-37.82"/>
<polygon fill="#63b8ff" stroke="#63b8ff" points="1239.03,-40.48 1244.71,-31.54 1234.69,-34.99 1239.03,-40.48"/>
</a>
</g>
</g>
<!-- Node8&#45;&gt;Node8 -->
<g id="edge13_Node000008_Node000008" class="edge">
<title>Node8&#45;&gt;Node8</title>
<g id="a_edge13_Node000008_Node000008"><a xlink:title=" ">
<path fill="none" stroke="#63b8ff" d="M1025.14,-193.62C1017.17,-202.75 1029.12,-211.35 1061,-211.35 1079.93,-211.35 1091.83,-208.32 1096.71,-203.94"/>
<polygon fill="#63b8ff" stroke="#63b8ff" points="1100.21,-203.67 1096.86,-193.62 1093.21,-203.57 1100.21,-203.67"/>
</a>
</g>
</g>
<!-- Node8&#45;&gt;Node9 -->
<g id="edge15_Node000008_Node000009" class="edge">
<title>Node8&#45;&gt;Node9</title>
<g id="a_edge15_Node000008_Node000009"><a xlink:title=" ">
<path fill="none" stroke="#63b8ff" d="M1099.52,-163.3C1132.58,-150.04 1180.9,-130.67 1216.62,-116.35"/>
<polygon fill="#63b8ff" stroke="#63b8ff" points="1218.36,-119.42 1226.34,-112.45 1215.75,-112.92 1218.36,-119.42"/>
</a>
</g>
</g>
<!-- Node10&#45;&gt;Node2 -->
<g id="edge19_Node000010_Node000002" class="edge">
<title>Node10&#45;&gt;Node2</title>
<g id="a_edge19_Node000010_Node000002"><a xlink:title=" ">
<path fill="none" stroke="#63b8ff" d="M914.97,-150.37C920.29,-152.91 925.37,-155.88 930,-159.35 955.2,-178.21 941.39,-200.72 966,-220.35 1000.64,-247.97 1112.19,-278.97 1188.53,-297.83"/>
<polygon fill="#63b8ff" stroke="#63b8ff" points="1188.05,-301.31 1198.59,-300.29 1189.71,-294.51 1188.05,-301.31"/>
</a>
</g>
</g>
<!-- Node10&#45;&gt;Node3 -->
<g id="edge20_Node000010_Node000003" class="edge">
<title>Node10&#45;&gt;Node3</title>
<g id="a_edge20_Node000010_Node000003"><a xlink:title=" ">
<path fill="none" stroke="#63b8ff" d="M929.29,-131.05C994.11,-130.47 1081.58,-134.44 1156,-154.35 1182.99,-161.57 1211.15,-175.91 1231.95,-187.99"/>
<polygon fill="#63b8ff" stroke="#63b8ff" points="1230.28,-191.08 1240.67,-193.18 1233.86,-185.06 1230.28,-191.08"/>
</a>
</g>
</g>
<!-- Node10&#45;&gt;Node5 -->
<g id="edge22_Node000010_Node000005" class="edge">
<title>Node10&#45;&gt;Node5</title>
<g id="a_edge22_Node000010_Node000005"><a xlink:title=" ">
<path fill="none" stroke="#63b8ff" d="M889.33,-120.28C968.6,-98.29 1115.67,-57.49 1200.05,-34.09"/>
<polygon fill="#63b8ff" stroke="#63b8ff" points="1201.07,-37.44 1209.77,-31.39 1199.2,-30.69 1201.07,-37.44"/>
</a>
</g>
</g>
<!-- Node10&#45;&gt;Node6 -->
<g id="edge23_Node000010_Node000006" class="edge">
<title>Node10&#45;&gt;Node6</title>
<g id="a_edge23_Node000010_Node000006"><a xlink:title=" ">
<path fill="none" stroke="#63b8ff" d="M738.75,-141.96C730,-142.06 721.05,-142.1 712.11,-142.1"/>
<polygon fill="#63b8ff" stroke="#63b8ff" points="712.05,-138.6 702.04,-142.07 712.03,-145.6 712.05,-138.6"/>
</a>
</g>
</g>
<!-- Node10&#45;&gt;Node8 -->
<g id="edge21_Node000010_Node000008" class="edge">
<title>Node10&#45;&gt;Node8</title>
<g id="a_edge21_Node000010_Node000008"><a xlink:title=" ">
<path fill="none" stroke="#63b8ff" d="M913.69,-150.39C932.36,-153.95 952.4,-157.78 971.48,-161.43"/>
<polygon fill="#63b8ff" stroke="#63b8ff" points="970.87,-164.88 981.35,-163.32 972.19,-158 970.87,-164.88"/>
</a>
</g>
</g>
<!-- Node10&#45;&gt;Node9 -->
<g id="edge24_Node000010_Node000009" class="edge">
<title>Node10&#45;&gt;Node9</title>
<g id="a_edge24_Node000010_Node000009"><a xlink:title=" ">
<path fill="none" stroke="#63b8ff" d="M929.07,-125C941.48,-123.72 954.04,-122.47 966,-121.35 1040.25,-114.39 1125.03,-107.68 1185.13,-103.14"/>
<polygon fill="#63b8ff" stroke="#63b8ff" points="1185.6,-106.61 1195.31,-102.37 1185.07,-99.63 1185.6,-106.61"/>
</a>
</g>
</g>
</g>
</svg>
