<?xml version="1.0" encoding="UTF-8" standalone="no"?>
<!DOCTYPE svg PUBLIC "-//W3C//DTD SVG 1.1//EN"
 "http://www.w3.org/Graphics/SVG/1.1/DTD/svg11.dtd">
<!-- Generated by graphviz version 2.43.0 (0)
 -->
<!-- Title: com.teragrep.pth_06.ast.transform.OptimizedAST.walkAndApply Pages: 1 -->
<svg width="1121pt" height="427pt"
 viewBox="0.00 0.00 1121.00 427.42" xmlns="http://www.w3.org/2000/svg" xmlns:xlink="http://www.w3.org/1999/xlink">
<g id="graph0" class="graph" transform="scale(1 1) rotate(0) translate(4 423.42)">
<title>com.teragrep.pth_06.ast.transform.OptimizedAST.walkAndApply</title>
<!-- Node1 -->
<g id="Node000001" class="node">
<title>Node1</title>
<g id="a_Node000001"><a xlink:title=" ">
<polygon fill="#999999" stroke="#666666" points="190,-223.84 0,-223.84 0,-193.84 190,-193.84 190,-223.84"/>
<text text-anchor="start" x="8" y="-211.84" font-family="Helvetica,sans-Serif" font-size="10.00">com.teragrep.pth_06.ast.transform.</text>
<text text-anchor="middle" x="95" y="-200.84" font-family="Helvetica,sans-Serif" font-size="10.00">OptimizedAST.walkAndApply</text>
</a>
</g>
</g>
<!-- Node1&#45;&gt;Node1 -->
<g id="edge38_Node000001_Node000001" class="edge">
<title>Node1&#45;&gt;Node1</title>
<g id="a_edge38_Node000001_Node000001"><a xlink:title=" ">
<path fill="none" stroke="#63b8ff" d="M51.76,-224.11C42.15,-233.24 56.56,-241.84 95,-241.84 117.82,-241.84 132.18,-238.81 138.06,-234.43"/>
<polygon fill="#63b8ff" stroke="#63b8ff" points="141.56,-234.17 138.24,-224.11 134.57,-234.05 141.56,-234.17"/>
</a>
</g>
</g>
<!-- Node2 -->
<g id="Node000002" class="node">
<title>Node2</title>
<g id="a_Node000002"><a xlink:href="interfacecom_1_1teragrep_1_1pth__06_1_1ast_1_1Expression.html#a17e7d33905be57c6e22e1717da6ddef6" target="_top" xlink:title=" ">
<polygon fill="white" stroke="#666666" points="1109.5,-271.84 970.5,-271.84 970.5,-241.84 1109.5,-241.84 1109.5,-271.84"/>
<text text-anchor="start" x="978.5" y="-259.84" font-family="Helvetica,sans-Serif" font-size="10.00">com.teragrep.pth_06.ast.</text>
<text text-anchor="middle" x="1040" y="-248.84" font-family="Helvetica,sans-Serif" font-size="10.00">Expression.asLogical</text>
</a>
</g>
</g>
<!-- Node1&#45;&gt;Node2 -->
<g id="edge1_Node000001_Node000002" class="edge">
<title>Node1&#45;&gt;Node2</title>
<g id="a_edge1_Node000001_Node000002"><a xlink:title=" ">
<path fill="none" stroke="#63b8ff" d="M131.4,-223.88C199.92,-252.38 355.98,-314.28 493,-346.84 591.58,-370.26 617.89,-370.16 719,-376.84 813.02,-383.05 853.56,-430.51 931,-376.84 968.45,-350.88 934.19,-312.46 967,-280.84 968.13,-279.75 969.3,-278.71 970.52,-277.72"/>
<polygon fill="#63b8ff" stroke="#63b8ff" points="972.85,-280.38 979.13,-271.85 968.9,-274.6 972.85,-280.38"/>
</a>
</g>
</g>
<!-- Node3 -->
<g id="Node000003" class="node">
<title>Node3</title>
<g id="a_Node000003"><a xlink:href="interfacecom_1_1teragrep_1_1pth__06_1_1ast_1_1LogicalExpression.html#aeaf8fe296c6899792f345659a9a6c0c4" target="_top" xlink:title=" ">
<polygon fill="white" stroke="#666666" points="1113,-223.84 967,-223.84 967,-193.84 1113,-193.84 1113,-223.84"/>
<text text-anchor="start" x="975" y="-211.84" font-family="Helvetica,sans-Serif" font-size="10.00">com.teragrep.pth_06.ast.</text>
<text text-anchor="middle" x="1040" y="-200.84" font-family="Helvetica,sans-Serif" font-size="10.00">LogicalExpression.children</text>
</a>
</g>
</g>
<!-- Node1&#45;&gt;Node3 -->
<g id="edge2_Node000001_Node000003" class="edge">
<title>Node1&#45;&gt;Node3</title>
<g id="a_edge2_Node000001_Node000003"><a xlink:title=" ">
<path fill="none" stroke="#63b8ff" d="M120.35,-193.65C226.57,-129.52 656.26,107.71 931,-70.84 964.03,-92.3 942.86,-120.71 967,-151.84 977.66,-165.58 992.31,-177.96 1005.62,-187.65"/>
<polygon fill="#63b8ff" stroke="#63b8ff" points="1003.91,-190.73 1014.11,-193.61 1007.93,-185 1003.91,-190.73"/>
</a>
</g>
</g>
<!-- Node4 -->
<g id="Node000004" class="node">
<title>Node4</title>
<g id="a_Node000004"><a xlink:href="interfacecom_1_1teragrep_1_1pth__06_1_1ast_1_1Expression.html#a65ee7f5fb98e4129018f467a53586842" target="_top" xlink:title=" ">
<polygon fill="white" stroke="#666666" points="1109.5,-142.84 970.5,-142.84 970.5,-112.84 1109.5,-112.84 1109.5,-142.84"/>
<text text-anchor="start" x="978.5" y="-130.84" font-family="Helvetica,sans-Serif" font-size="10.00">com.teragrep.pth_06.ast.</text>
<text text-anchor="middle" x="1040" y="-119.84" font-family="Helvetica,sans-Serif" font-size="10.00">Expression.isLogical</text>
</a>
</g>
</g>
<!-- Node1&#45;&gt;Node4 -->
<g id="edge3_Node000001_Node000004" class="edge">
<title>Node1&#45;&gt;Node4</title>
<g id="a_edge3_Node000001_Node000004"><a xlink:title=" ">
<path fill="none" stroke="#63b8ff" d="M102.8,-193.58C118.79,-159.65 162.31,-78.04 226,-40.84 329.56,19.65 373.39,-10.53 493,-1.84 534.73,1.19 926.04,-0.55 931,-2.84 976.14,-23.6 1009.65,-73.51 1026.59,-103.61"/>
<polygon fill="#63b8ff" stroke="#63b8ff" points="1023.65,-105.51 1031.5,-112.62 1029.79,-102.16 1023.65,-105.51"/>
</a>
</g>
</g>
<!-- Node5 -->
<g id="Node000005" class="node">
<title>Node5</title>
<g id="a_Node000005"><a xlink:href="interfacecom_1_1teragrep_1_1pth__06_1_1ast_1_1Expression.html#a8b9661253a3610b9eb148ee29ca8b7e1" target="_top" xlink:title=" ">
<polygon fill="white" stroke="#666666" points="1109.5,-319.84 970.5,-319.84 970.5,-289.84 1109.5,-289.84 1109.5,-319.84"/>
<text text-anchor="start" x="978.5" y="-307.84" font-family="Helvetica,sans-Serif" font-size="10.00">com.teragrep.pth_06.ast.</text>
<text text-anchor="middle" x="1040" y="-296.84" font-family="Helvetica,sans-Serif" font-size="10.00">Expression.tag</text>
</a>
</g>
</g>
<!-- Node1&#45;&gt;Node5 -->
<g id="edge4_Node000001_Node000005" class="edge">
<title>Node1&#45;&gt;Node5</title>
<g id="a_edge4_Node000001_Node000005"><a xlink:title=" ">
<path fill="none" stroke="#63b8ff" d="M110.43,-224.15C132.91,-247.05 178.63,-289.97 226,-312.84 426.59,-409.65 496.72,-388.63 719,-402.84 813.03,-408.84 843.1,-436.77 931,-402.84 969.66,-387.91 1003.04,-352 1022.08,-328.05"/>
<polygon fill="#63b8ff" stroke="#63b8ff" points="1024.86,-330.18 1028.21,-320.13 1019.32,-325.9 1024.86,-330.18"/>
</a>
</g>
</g>
<!-- Node6 -->
<g id="Node000006" class="node">
<title>Node6</title>
<g id="a_Node000006"><a xlink:href="classcom_1_1teragrep_1_1pth__06_1_1ast_1_1transform_1_1OptimizedAST.html#a77542c0b232d1e10e50a9846e1845b10" target="_top" xlink:title=" ">
<polygon fill="white" stroke="#666666" points="457,-223.84 226,-223.84 226,-193.84 457,-193.84 457,-223.84"/>
<text text-anchor="start" x="234" y="-211.84" font-family="Helvetica,sans-Serif" font-size="10.00">com.teragrep.pth_06.ast.transform.</text>
<text text-anchor="middle" x="341.5" y="-200.84" font-family="Helvetica,sans-Serif" font-size="10.00">OptimizedAST.transformedSingleExpression</text>
</a>
</g>
</g>
<!-- Node1&#45;&gt;Node6 -->
<g id="edge5_Node000001_Node000006" class="edge">
<title>Node1&#45;&gt;Node6</title>
<g id="a_edge5_Node000001_Node000006"><a xlink:title=" ">
<path fill="none" stroke="#63b8ff" d="M190.18,-208.84C198.59,-208.84 207.19,-208.84 215.81,-208.84"/>
<polygon fill="#63b8ff" stroke="#63b8ff" points="215.92,-212.34 225.92,-208.84 215.92,-205.34 215.92,-212.34"/>
</a>
</g>
</g>
<!-- Node7 -->
<g id="Node000007" class="node">
<title>Node7</title>
<g id="a_Node000007"><a xlink:href="classcom_1_1teragrep_1_1pth__06_1_1ast_1_1transform_1_1EmptyPruned.html#a8cfebc9854b0ad9a7cbe81918392e036" target="_top" xlink:title=" ">
<polygon fill="white" stroke="#666666" points="920,-175.84 730,-175.84 730,-145.84 920,-145.84 920,-175.84"/>
<text text-anchor="start" x="738" y="-163.84" font-family="Helvetica,sans-Serif" font-size="10.00">com.teragrep.pth_06.ast.transform.</text>
<text text-anchor="middle" x="825" y="-152.84" font-family="Helvetica,sans-Serif" font-size="10.00">EmptyPruned.transformed</text>
</a>
</g>
</g>
<!-- Node6&#45;&gt;Node7 -->
<g id="edge6_Node000006_Node000007" class="edge">
<title>Node6&#45;&gt;Node7</title>
<g id="a_edge6_Node000006_Node000007"><a xlink:title=" ">
<path fill="none" stroke="#63b8ff" d="M457.22,-197.4C536.95,-189.45 642.36,-178.94 719.71,-171.23"/>
<polygon fill="#63b8ff" stroke="#63b8ff" points="720.35,-174.69 729.95,-170.21 719.66,-167.72 720.35,-174.69"/>
</a>
</g>
</g>
<!-- Node8 -->
<g id="Node000008" class="node">
<title>Node8</title>
<g id="a_Node000008"><a xlink:href="classcom_1_1teragrep_1_1pth__06_1_1ast_1_1transform_1_1FlattenLogical.html#a2e1717ad6884eea7a2415aa7763eaed5" target="_top" xlink:title=" ">
<polygon fill="white" stroke="#666666" points="683,-319.84 493,-319.84 493,-289.84 683,-289.84 683,-319.84"/>
<text text-anchor="start" x="501" y="-307.84" font-family="Helvetica,sans-Serif" font-size="10.00">com.teragrep.pth_06.ast.transform.</text>
<text text-anchor="middle" x="588" y="-296.84" font-family="Helvetica,sans-Serif" font-size="10.00">FlattenLogical.transformed</text>
</a>
</g>
</g>
<!-- Node6&#45;&gt;Node8 -->
<g id="edge11_Node000006_Node000008" class="edge">
<title>Node6&#45;&gt;Node8</title>
<g id="a_edge11_Node000006_Node000008"><a xlink:title=" ">
<path fill="none" stroke="#63b8ff" d="M380.7,-223.84C423.46,-240.62 492.8,-267.85 539.14,-286.05"/>
<polygon fill="#63b8ff" stroke="#63b8ff" points="538.08,-289.39 548.66,-289.78 540.63,-282.87 538.08,-289.39"/>
</a>
</g>
</g>
<!-- Node11 -->
<g id="Node000011" class="node">
<title>Node11</title>
<g id="a_Node000011"><a xlink:href="classcom_1_1teragrep_1_1pth__06_1_1ast_1_1transform_1_1IdentitySimplification.html#a2e7ebae3195ee7794364c646e783c6d3" target="_top" xlink:title=" ">
<polygon fill="white" stroke="#666666" points="920,-109.84 730,-109.84 730,-79.84 920,-79.84 920,-109.84"/>
<text text-anchor="start" x="738" y="-97.84" font-family="Helvetica,sans-Serif" font-size="10.00">com.teragrep.pth_06.ast.transform.</text>
<text text-anchor="middle" x="825" y="-86.84" font-family="Helvetica,sans-Serif" font-size="10.00">IdentitySimplification.transformed</text>
</a>
</g>
</g>
<!-- Node6&#45;&gt;Node11 -->
<g id="edge23_Node000006_Node000011" class="edge">
<title>Node6&#45;&gt;Node11</title>
<g id="a_edge23_Node000006_Node000011"><a xlink:title=" ">
<path fill="none" stroke="#63b8ff" d="M400.68,-193.84C428.57,-186.72 462.48,-178.19 493,-170.84 579.69,-149.94 679.47,-127.21 746.62,-112.11"/>
<polygon fill="#63b8ff" stroke="#63b8ff" points="747.71,-115.45 756.7,-109.84 746.18,-108.62 747.71,-115.45"/>
</a>
</g>
</g>
<!-- Node12 -->
<g id="Node000012" class="node">
<title>Node12</title>
<g id="a_Node000012"><a xlink:href="classcom_1_1teragrep_1_1pth__06_1_1ast_1_1transform_1_1PrunedInvalidTimeQualifier.html#a390e2447fa0ee0e2964ba44d68710b37" target="_top" xlink:title=" ">
<polygon fill="white" stroke="#666666" points="931,-271.84 719,-271.84 719,-241.84 931,-241.84 931,-271.84"/>
<text text-anchor="start" x="727" y="-259.84" font-family="Helvetica,sans-Serif" font-size="10.00">com.teragrep.pth_06.ast.transform.</text>
<text text-anchor="middle" x="825" y="-248.84" font-family="Helvetica,sans-Serif" font-size="10.00">PrunedInvalidTimeQualifier.transformed</text>
</a>
</g>
</g>
<!-- Node6&#45;&gt;Node12 -->
<g id="edge28_Node000006_Node000012" class="edge">
<title>Node6&#45;&gt;Node12</title>
<g id="a_edge28_Node000006_Node000012"><a xlink:title=" ">
<path fill="none" stroke="#63b8ff" d="M457.22,-220.27C533.22,-227.85 632.56,-237.75 708.68,-245.34"/>
<polygon fill="#63b8ff" stroke="#63b8ff" points="708.5,-248.84 718.79,-246.35 709.19,-241.87 708.5,-248.84"/>
</a>
</g>
</g>
<!-- Node13 -->
<g id="Node000013" class="node">
<title>Node13</title>
<g id="a_Node000013"><a xlink:href="classcom_1_1teragrep_1_1pth__06_1_1ast_1_1transform_1_1UniqueChildren.html#a39304f06c8b7ac1e1a23463fe502028e" target="_top" xlink:title=" ">
<polygon fill="white" stroke="#666666" points="920,-223.84 730,-223.84 730,-193.84 920,-193.84 920,-223.84"/>
<text text-anchor="start" x="738" y="-211.84" font-family="Helvetica,sans-Serif" font-size="10.00">com.teragrep.pth_06.ast.transform.</text>
<text text-anchor="middle" x="825" y="-200.84" font-family="Helvetica,sans-Serif" font-size="10.00">UniqueChildren.transformed</text>
</a>
</g>
</g>
<!-- Node6&#45;&gt;Node13 -->
<g id="edge33_Node000006_Node000013" class="edge">
<title>Node6&#45;&gt;Node13</title>
<g id="a_edge33_Node000006_Node000013"><a xlink:title=" ">
<path fill="none" stroke="#63b8ff" d="M457.22,-208.84C536.95,-208.84 642.36,-208.84 719.71,-208.84"/>
<polygon fill="#63b8ff" stroke="#63b8ff" points="719.95,-212.34 729.95,-208.84 719.95,-205.34 719.95,-212.34"/>
</a>
</g>
</g>
<!-- Node7&#45;&gt;Node2 -->
<g id="edge7_Node000007_Node000002" class="edge">
<title>Node7&#45;&gt;Node2</title>
<g id="a_edge7_Node000007_Node000002"><a xlink:title=" ">
<path fill="none" stroke="#63b8ff" d="M913.91,-175.87C919.9,-178.41 925.67,-181.37 931,-184.84 953.36,-199.36 945.37,-217.24 967,-232.84 969.06,-234.32 971.21,-235.72 973.44,-237.03"/>
<polygon fill="#63b8ff" stroke="#63b8ff" points="971.85,-240.14 982.33,-241.69 975.1,-233.95 971.85,-240.14"/>
</a>
</g>
</g>
<!-- Node7&#45;&gt;Node3 -->
<g id="edge8_Node000007_Node000003" class="edge">
<title>Node7&#45;&gt;Node3</title>
<g id="a_edge8_Node000007_Node000003"><a xlink:title=" ">
<path fill="none" stroke="#63b8ff" d="M892.81,-175.89C914.92,-180.87 939.68,-186.46 962.46,-191.59"/>
<polygon fill="#63b8ff" stroke="#63b8ff" points="961.9,-195.05 972.43,-193.83 963.44,-188.22 961.9,-195.05"/>
</a>
</g>
</g>
<!-- Node7&#45;&gt;Node4 -->
<g id="edge9_Node000007_Node000004" class="edge">
<title>Node7&#45;&gt;Node4</title>
<g id="a_edge9_Node000007_Node000004"><a xlink:title=" ">
<path fill="none" stroke="#63b8ff" d="M920.04,-146.27C933.54,-144.17 947.31,-142.04 960.47,-140"/>
<polygon fill="#63b8ff" stroke="#63b8ff" points="961.05,-143.46 970.4,-138.47 959.98,-136.54 961.05,-143.46"/>
</a>
</g>
</g>
<!-- Node7&#45;&gt;Node5 -->
<g id="edge10_Node000007_Node000005" class="edge">
<title>Node7&#45;&gt;Node5</title>
<g id="a_edge10_Node000007_Node000005"><a xlink:title=" ">
<path fill="none" stroke="#63b8ff" d="M918.13,-175.84C922.72,-178.41 927.06,-181.39 931,-184.84 965.31,-214.83 934.19,-249.22 967,-280.84 968.13,-281.92 969.3,-282.96 970.52,-283.95"/>
<polygon fill="#63b8ff" stroke="#63b8ff" points="968.9,-287.08 979.13,-289.82 972.85,-281.3 968.9,-287.08"/>
</a>
</g>
</g>
<!-- Node8&#45;&gt;Node4 -->
<g id="edge20_Node000008_Node000004" class="edge">
<title>Node8&#45;&gt;Node4</title>
<g id="a_edge20_Node000008_Node000004"><a xlink:title=" ">
<path fill="none" stroke="#63b8ff" d="M591.94,-289.68C601.29,-246.08 634.89,-120.33 719,-70.84 800.21,-23.05 839.54,-48.18 931,-70.84 959.45,-77.88 988.67,-93.94 1009.53,-107.23"/>
<polygon fill="#63b8ff" stroke="#63b8ff" points="1007.65,-110.17 1017.93,-112.71 1011.47,-104.31 1007.65,-110.17"/>
</a>
</g>
</g>
<!-- Node8&#45;&gt;Node5 -->
<g id="edge21_Node000008_Node000005" class="edge">
<title>Node8&#45;&gt;Node5</title>
<g id="a_edge21_Node000008_Node000005"><a xlink:title=" ">
<path fill="none" stroke="#63b8ff" d="M608.78,-320.04C633.14,-337.71 676.54,-365.86 719,-376.84 810.23,-400.41 840.82,-404.14 931,-376.84 963.37,-367.04 994.9,-343.98 1015.46,-326.58"/>
<polygon fill="#63b8ff" stroke="#63b8ff" points="1017.78,-329.2 1023.04,-320 1013.19,-323.91 1017.78,-329.2"/>
</a>
</g>
</g>
<!-- Node8&#45;&gt;Node8 -->
<g id="edge22_Node000008_Node000008" class="edge">
<title>Node8&#45;&gt;Node8</title>
<g id="a_edge22_Node000008_Node000008"><a xlink:title=" ">
<path fill="none" stroke="#63b8ff" d="M546.52,-320.11C537.3,-329.24 551.12,-337.84 588,-337.84 609.89,-337.84 623.66,-334.81 629.31,-330.43"/>
<polygon fill="#63b8ff" stroke="#63b8ff" points="632.81,-330.17 629.48,-320.11 625.81,-330.05 632.81,-330.17"/>
</a>
</g>
</g>
<!-- Node9 -->
<g id="Node000009" class="node">
<title>Node9</title>
<g id="a_Node000009"><a xlink:href="classcom_1_1teragrep_1_1pth__06_1_1ast_1_1transform_1_1FlattenLogical.html#a3b9085857dc57e88c58a6fa5a057f103" target="_top" xlink:title=" ">
<polygon fill="white" stroke="#666666" points="920.5,-319.84 729.5,-319.84 729.5,-289.84 920.5,-289.84 920.5,-319.84"/>
<text text-anchor="start" x="737.5" y="-307.84" font-family="Helvetica,sans-Serif" font-size="10.00">com.teragrep.pth_06.ast.transform.</text>
<text text-anchor="middle" x="825" y="-296.84" font-family="Helvetica,sans-Serif" font-size="10.00">FlattenLogical.flattenedAndChildren</text>
</a>
</g>
</g>
<!-- Node8&#45;&gt;Node9 -->
<g id="edge12_Node000008_Node000009" class="edge">
<title>Node8&#45;&gt;Node9</title>
<g id="a_edge12_Node000008_Node000009"><a xlink:title=" ">
<path fill="none" stroke="#63b8ff" d="M683.23,-304.84C695.1,-304.84 707.3,-304.84 719.32,-304.84"/>
<polygon fill="#63b8ff" stroke="#63b8ff" points="719.37,-308.34 729.37,-304.84 719.37,-301.34 719.37,-308.34"/>
</a>
</g>
</g>
<!-- Node10 -->
<g id="Node000010" class="node">
<title>Node10</title>
<g id="a_Node000010"><a xlink:href="classcom_1_1teragrep_1_1pth__06_1_1ast_1_1transform_1_1FlattenLogical.html#ae0b8acc47ab74872494d07da365e303b" target="_top" xlink:title=" ">
<polygon fill="white" stroke="#666666" points="920,-367.84 730,-367.84 730,-337.84 920,-337.84 920,-367.84"/>
<text text-anchor="start" x="738" y="-355.84" font-family="Helvetica,sans-Serif" font-size="10.00">com.teragrep.pth_06.ast.transform.</text>
<text text-anchor="middle" x="825" y="-344.84" font-family="Helvetica,sans-Serif" font-size="10.00">FlattenLogical.flattenedOrChildren</text>
</a>
</g>
</g>
<!-- Node8&#45;&gt;Node10 -->
<g id="edge16_Node000008_Node000010" class="edge">
<title>Node8&#45;&gt;Node10</title>
<g id="a_edge16_Node000008_Node000010"><a xlink:title=" ">
<path fill="none" stroke="#63b8ff" d="M662.71,-319.89C687.43,-324.94 715.16,-330.61 740.57,-335.8"/>
<polygon fill="#63b8ff" stroke="#63b8ff" points="740.05,-339.26 750.55,-337.83 741.45,-332.4 740.05,-339.26"/>
</a>
</g>
</g>
<!-- Node9&#45;&gt;Node2 -->
<g id="edge13_Node000009_Node000002" class="edge">
<title>Node9&#45;&gt;Node2</title>
<g id="a_edge13_Node000009_Node000002"><a xlink:title=" ">
<path fill="none" stroke="#63b8ff" d="M892.81,-289.78C914.92,-284.8 939.68,-279.22 962.46,-274.08"/>
<polygon fill="#63b8ff" stroke="#63b8ff" points="963.44,-277.45 972.43,-271.84 961.9,-270.62 963.44,-277.45"/>
</a>
</g>
</g>
<!-- Node9&#45;&gt;Node3 -->
<g id="edge14_Node000009_Node000003" class="edge">
<title>Node9&#45;&gt;Node3</title>
<g id="a_edge14_Node000009_Node000003"><a xlink:title=" ">
<path fill="none" stroke="#63b8ff" d="M913.91,-289.81C919.9,-287.27 925.67,-284.3 931,-280.84 953.36,-266.31 945.37,-248.43 967,-232.84 969.06,-231.35 971.21,-229.96 973.44,-228.64"/>
<polygon fill="#63b8ff" stroke="#63b8ff" points="975.1,-231.73 982.33,-223.98 971.85,-225.53 975.1,-231.73"/>
</a>
</g>
</g>
<!-- Node9&#45;&gt;Node5 -->
<g id="edge15_Node000009_Node000005" class="edge">
<title>Node9&#45;&gt;Node5</title>
<g id="a_edge15_Node000009_Node000005"><a xlink:title=" ">
<path fill="none" stroke="#63b8ff" d="M920.67,-304.84C933.9,-304.84 947.39,-304.84 960.29,-304.84"/>
<polygon fill="#63b8ff" stroke="#63b8ff" points="960.49,-308.34 970.49,-304.84 960.49,-301.34 960.49,-308.34"/>
</a>
</g>
</g>
<!-- Node10&#45;&gt;Node2 -->
<g id="edge17_Node000010_Node000002" class="edge">
<title>Node10&#45;&gt;Node2</title>
<g id="a_edge17_Node000010_Node000002"><a xlink:title=" ">
<path fill="none" stroke="#63b8ff" d="M913.91,-337.81C919.9,-335.27 925.67,-332.3 931,-328.84 953.36,-314.31 945.37,-296.43 967,-280.84 969.06,-279.35 971.21,-277.96 973.44,-276.64"/>
<polygon fill="#63b8ff" stroke="#63b8ff" points="975.1,-279.73 982.33,-271.98 971.85,-273.53 975.1,-279.73"/>
</a>
</g>
</g>
<!-- Node10&#45;&gt;Node3 -->
<g id="edge18_Node000010_Node000003" class="edge">
<title>Node10&#45;&gt;Node3</title>
<g id="a_edge18_Node000010_Node000003"><a xlink:title=" ">
<path fill="none" stroke="#63b8ff" d="M918.13,-337.84C922.72,-335.26 927.06,-332.28 931,-328.84 965.31,-298.85 934.19,-264.46 967,-232.84 968.13,-231.75 969.3,-230.71 970.52,-229.72"/>
<polygon fill="#63b8ff" stroke="#63b8ff" points="972.85,-232.38 979.13,-223.85 968.9,-226.6 972.85,-232.38"/>
</a>
</g>
</g>
<!-- Node10&#45;&gt;Node5 -->
<g id="edge19_Node000010_Node000005" class="edge">
<title>Node10&#45;&gt;Node5</title>
<g id="a_edge19_Node000010_Node000005"><a xlink:title=" ">
<path fill="none" stroke="#63b8ff" d="M892.81,-337.78C914.92,-332.8 939.68,-327.22 962.46,-322.08"/>
<polygon fill="#63b8ff" stroke="#63b8ff" points="963.44,-325.45 972.43,-319.84 961.9,-318.62 963.44,-325.45"/>
</a>
</g>
</g>
<!-- Node11&#45;&gt;Node2 -->
<g id="edge24_Node000011_Node000002" class="edge">
<title>Node11&#45;&gt;Node2</title>
<g id="a_edge24_Node000011_Node000002"><a xlink:title=" ">
<path fill="none" stroke="#63b8ff" d="M888.06,-109.94C903.65,-116.17 919.26,-124.84 931,-136.84 962.87,-169.41 934.19,-201.22 967,-232.84 968.13,-233.92 969.3,-234.96 970.52,-235.95"/>
<polygon fill="#63b8ff" stroke="#63b8ff" points="968.9,-239.08 979.13,-241.82 972.85,-233.3 968.9,-239.08"/>
</a>
</g>
</g>
<!-- Node11&#45;&gt;Node3 -->
<g id="edge25_Node000011_Node000003" class="edge">
<title>Node11&#45;&gt;Node3</title>
<g id="a_edge25_Node000011_Node000003"><a xlink:title=" ">
<path fill="none" stroke="#63b8ff" d="M869.31,-109.84C888.61,-117.11 911.37,-126.51 931,-136.84 959.4,-151.77 989.61,-172.37 1010.84,-187.71"/>
<polygon fill="#63b8ff" stroke="#63b8ff" points="1008.94,-190.65 1019.08,-193.72 1013.06,-184.99 1008.94,-190.65"/>
</a>
</g>
</g>
<!-- Node11&#45;&gt;Node4 -->
<g id="edge26_Node000011_Node000004" class="edge">
<title>Node11&#45;&gt;Node4</title>
<g id="a_edge26_Node000011_Node000004"><a xlink:title=" ">
<path fill="none" stroke="#63b8ff" d="M920.04,-109.41C933.54,-111.5 947.31,-113.63 960.47,-115.67"/>
<polygon fill="#63b8ff" stroke="#63b8ff" points="959.98,-119.14 970.4,-117.21 961.05,-112.22 959.98,-119.14"/>
</a>
</g>
</g>
<!-- Node11&#45;&gt;Node11 -->
<g id="edge27_Node000011_Node000011" class="edge">
<title>Node11&#45;&gt;Node11</title>
<g id="a_edge27_Node000011_Node000011"><a xlink:title=" ">
<path fill="none" stroke="#63b8ff" d="M787.38,-110.11C779.02,-119.24 791.56,-127.84 825,-127.84 844.85,-127.84 857.34,-124.81 862.46,-120.43"/>
<polygon fill="#63b8ff" stroke="#63b8ff" points="865.96,-120.16 862.62,-110.11 858.96,-120.06 865.96,-120.16"/>
</a>
</g>
</g>
<!-- Node12&#45;&gt;Node2 -->
<g id="edge29_Node000012_Node000002" class="edge">
<title>Node12&#45;&gt;Node2</title>
<g id="a_edge29_Node000012_Node000002"><a xlink:title=" ">
<path fill="none" stroke="#63b8ff" d="M931.25,-256.84C941.03,-256.84 950.82,-256.84 960.29,-256.84"/>
<polygon fill="#63b8ff" stroke="#63b8ff" points="960.43,-260.34 970.43,-256.84 960.43,-253.34 960.43,-260.34"/>
</a>
</g>
</g>
<!-- Node12&#45;&gt;Node3 -->
<g id="edge30_Node000012_Node000003" class="edge">
<title>Node12&#45;&gt;Node3</title>
<g id="a_edge30_Node000012_Node000003"><a xlink:title=" ">
<path fill="none" stroke="#63b8ff" d="M892.81,-241.78C914.92,-236.8 939.68,-231.22 962.46,-226.08"/>
<polygon fill="#63b8ff" stroke="#63b8ff" points="963.44,-229.45 972.43,-223.84 961.9,-222.62 963.44,-229.45"/>
</a>
</g>
</g>
<!-- Node12&#45;&gt;Node4 -->
<g id="edge31_Node000012_Node000004" class="edge">
<title>Node12&#45;&gt;Node4</title>
<g id="a_edge31_Node000012_Node000004"><a xlink:title=" ">
<path fill="none" stroke="#63b8ff" d="M913.91,-241.81C919.9,-239.27 925.67,-236.3 931,-232.84 953.36,-218.31 948.39,-203.94 967,-184.84 979.71,-171.79 995.42,-159.03 1008.92,-148.9"/>
<polygon fill="#63b8ff" stroke="#63b8ff" points="1011.02,-151.71 1017,-142.96 1006.87,-146.07 1011.02,-151.71"/>
</a>
</g>
</g>
<!-- Node12&#45;&gt;Node5 -->
<g id="edge32_Node000012_Node000005" class="edge">
<title>Node12&#45;&gt;Node5</title>
<g id="a_edge32_Node000012_Node000005"><a xlink:title=" ">
<path fill="none" stroke="#63b8ff" d="M892.81,-271.89C914.92,-276.87 939.68,-282.46 962.46,-287.59"/>
<polygon fill="#63b8ff" stroke="#63b8ff" points="961.9,-291.05 972.43,-289.83 963.44,-284.22 961.9,-291.05"/>
</a>
</g>
</g>
<!-- Node13&#45;&gt;Node2 -->
<g id="edge34_Node000013_Node000002" class="edge">
<title>Node13&#45;&gt;Node2</title>
<g id="a_edge34_Node000013_Node000002"><a xlink:title=" ">
<path fill="none" stroke="#63b8ff" d="M892.81,-223.89C914.92,-228.87 939.68,-234.46 962.46,-239.59"/>
<polygon fill="#63b8ff" stroke="#63b8ff" points="961.9,-243.05 972.43,-241.83 963.44,-236.22 961.9,-243.05"/>
</a>
</g>
</g>
<!-- Node13&#45;&gt;Node3 -->
<g id="edge35_Node000013_Node000003" class="edge">
<title>Node13&#45;&gt;Node3</title>
<g id="a_edge35_Node000013_Node000003"><a xlink:title=" ">
<path fill="none" stroke="#63b8ff" d="M920.04,-208.84C932.32,-208.84 944.82,-208.84 956.88,-208.84"/>
<polygon fill="#63b8ff" stroke="#63b8ff" points="956.89,-212.34 966.89,-208.84 956.89,-205.34 956.89,-212.34"/>
</a>
</g>
</g>
<!-- Node13&#45;&gt;Node4 -->
<g id="edge36_Node000013_Node000004" class="edge">
<title>Node13&#45;&gt;Node4</title>
<g id="a_edge36_Node000013_Node000004"><a xlink:title=" ">
<path fill="none" stroke="#63b8ff" d="M902.68,-193.77C912.33,-191.16 921.97,-188.19 931,-184.84 957.32,-175.07 985.3,-160.16 1006.19,-148.04"/>
<polygon fill="#63b8ff" stroke="#63b8ff" points="1008.13,-150.96 1014.97,-142.87 1004.58,-144.93 1008.13,-150.96"/>
</a>
</g>
</g>
<!-- Node13&#45;&gt;Node5 -->
<g id="edge37_Node000013_Node000005" class="edge">
<title>Node13&#45;&gt;Node5</title>
<g id="a_edge37_Node000013_Node000005"><a xlink:title=" ">
<path fill="none" stroke="#63b8ff" d="M913.91,-223.87C919.9,-226.41 925.67,-229.37 931,-232.84 953.36,-247.36 945.37,-265.24 967,-280.84 969.06,-282.32 971.21,-283.72 973.44,-285.03"/>
<polygon fill="#63b8ff" stroke="#63b8ff" points="971.85,-288.14 982.33,-289.69 975.1,-281.95 971.85,-288.14"/>
</a>
</g>
</g>
</g>
</svg>
