<?xml version="1.0" encoding="UTF-8" standalone="no"?>
<!DOCTYPE svg PUBLIC "-//W3C//DTD SVG 1.1//EN"
 "http://www.w3.org/Graphics/SVG/1.1/DTD/svg11.dtd">
<!-- Generated by graphviz version 2.43.0 (0)
 -->
<!-- Title: com.teragrep.pth_06.ast.analyze.ScanPlan.merge Pages: 1 -->
<svg width="449pt" height="86pt"
 viewBox="0.00 0.00 449.00 86.00" xmlns="http://www.w3.org/2000/svg" xmlns:xlink="http://www.w3.org/1999/xlink">
<g id="graph0" class="graph" transform="scale(1 1) rotate(0) translate(4 82)">
<title>com.teragrep.pth_06.ast.analyze.ScanPlan.merge</title>
<!-- Node1 -->
<g id="Node000001" class="node">
<title>Node1</title>
<g id="a_Node000001"><a xlink:title="Merge two ScanRanges with the smaller earliest and larger latest values.">
<polygon fill="#999999" stroke="#666666" points="441,-54 261,-54 261,-24 441,-24 441,-54"/>
<text text-anchor="start" x="269" y="-42" font-family="Helvetica,sans-Serif" font-size="10.00">com.teragrep.pth_06.ast.analyze.</text>
<text text-anchor="middle" x="351" y="-31" font-family="Helvetica,sans-Serif" font-size="10.00">ScanPlan.merge</text>
</a>
</g>
</g>
<!-- Node2 -->
<g id="Node000002" class="node">
<title>Node2</title>
<g id="a_Node000002"><a xlink:href="classcom_1_1teragrep_1_1pth__06_1_1ast_1_1analyze_1_1ScanPlanImplTest.html#afebcae0dc902eb1b895ea89cd1148ef1" target="_top" xlink:title=" ">
<polygon fill="white" stroke="#666666" points="225,-78 0,-78 0,-48 225,-48 225,-78"/>
<text text-anchor="start" x="8" y="-66" font-family="Helvetica,sans-Serif" font-size="10.00">com.teragrep.pth_06.ast.analyze.</text>
<text text-anchor="middle" x="112.5" y="-55" font-family="Helvetica,sans-Serif" font-size="10.00">ScanPlanImplTest.testEncompassingMerge</text>
</a>
</g>
</g>
<!-- Node1&#45;&gt;Node2 -->
<g id="edge1_Node000001_Node000002" class="edge">
<title>Node1&#45;&gt;Node2</title>
<g id="a_edge1_Node000001_Node000002"><a xlink:title=" ">
<path fill="none" stroke="#63b8ff" d="M250.73,-49.07C242.31,-49.93 233.76,-50.8 225.25,-51.66"/>
<polygon fill="#63b8ff" stroke="#63b8ff" points="251.33,-52.53 260.93,-48.04 250.62,-45.57 251.33,-52.53"/>
</a>
</g>
</g>
<!-- Node3 -->
<g id="Node000003" class="node">
<title>Node3</title>
<g id="a_Node000003"><a xlink:href="classcom_1_1teragrep_1_1pth__06_1_1ast_1_1analyze_1_1ScanPlanImplTest.html#a91339ecd3cac59ba2cf7bd37a4458c82" target="_top" xlink:title=" ">
<polygon fill="white" stroke="#666666" points="218.5,-30 6.5,-30 6.5,0 218.5,0 218.5,-30"/>
<text text-anchor="start" x="14.5" y="-18" font-family="Helvetica,sans-Serif" font-size="10.00">com.teragrep.pth_06.ast.analyze.</text>
<text text-anchor="middle" x="112.5" y="-7" font-family="Helvetica,sans-Serif" font-size="10.00">ScanPlanImplTest.testIntersectingMerge</text>
</a>
</g>
</g>
<!-- Node1&#45;&gt;Node3 -->
<g id="edge2_Node000001_Node000003" class="edge">
<title>Node1&#45;&gt;Node3</title>
<g id="a_edge2_Node000001_Node000003"><a xlink:title=" ">
<path fill="none" stroke="#63b8ff" d="M250.85,-28.94C240.26,-27.86 229.46,-26.77 218.81,-25.69"/>
<polygon fill="#63b8ff" stroke="#63b8ff" points="250.62,-32.43 260.93,-29.96 251.33,-25.47 250.62,-32.43"/>
</a>
</g>
</g>
</g>
</svg>
