<?xml version="1.0" encoding="UTF-8" standalone="no"?>
<!DOCTYPE svg PUBLIC "-//W3C//DTD SVG 1.1//EN"
 "http://www.w3.org/Graphics/SVG/1.1/DTD/svg11.dtd">
<!-- Generated by graphviz version 2.43.0 (0)
 -->
<!-- Title: com.teragrep.pth_06.ast.xml.OrExpressionTest.testAsLogical Pages: 1 -->
<svg width="374pt" height="86pt"
 viewBox="0.00 0.00 374.00 86.00" xmlns="http://www.w3.org/2000/svg" xmlns:xlink="http://www.w3.org/1999/xlink">
<g id="graph0" class="graph" transform="scale(1 1) rotate(0) translate(4 82)">
<title>com.teragrep.pth_06.ast.xml.OrExpressionTest.testAsLogical</title>
<!-- Node1 -->
<g id="Node000001" class="node">
<title>Node1</title>
<g id="a_Node000001"><a xlink:title=" ">
<polygon fill="#999999" stroke="#666666" points="169,-54 0,-54 0,-24 169,-24 169,-54"/>
<text text-anchor="start" x="8" y="-42" font-family="Helvetica,sans-Serif" font-size="10.00">com.teragrep.pth_06.ast.xml.</text>
<text text-anchor="middle" x="84.5" y="-31" font-family="Helvetica,sans-Serif" font-size="10.00">OrExpressionTest.testAsLogical</text>
</a>
</g>
</g>
<!-- Node2 -->
<g id="Node000002" class="node">
<title>Node2</title>
<g id="a_Node000002"><a xlink:href="classcom_1_1teragrep_1_1pth__06_1_1ast_1_1xml_1_1OrExpression.html#a436349497d710516448f6c4d8b4874cf" target="_top" xlink:title=" ">
<polygon fill="white" stroke="#666666" points="366,-78 205,-78 205,-48 366,-48 366,-78"/>
<text text-anchor="start" x="213" y="-66" font-family="Helvetica,sans-Serif" font-size="10.00">com.teragrep.pth_06.ast.xml.</text>
<text text-anchor="middle" x="285.5" y="-55" font-family="Helvetica,sans-Serif" font-size="10.00">OrExpression.asLogical</text>
</a>
</g>
</g>
<!-- Node1&#45;&gt;Node2 -->
<g id="edge1_Node000001_Node000002" class="edge">
<title>Node1&#45;&gt;Node2</title>
<g id="a_edge1_Node000001_Node000002"><a xlink:title=" ">
<path fill="none" stroke="#63b8ff" d="M169.03,-49.07C177.51,-50.1 186.16,-51.14 194.71,-52.17"/>
<polygon fill="#63b8ff" stroke="#63b8ff" points="194.34,-55.65 204.68,-53.37 195.17,-48.7 194.34,-55.65"/>
</a>
</g>
</g>
<!-- Node3 -->
<g id="Node000003" class="node">
<title>Node3</title>
<g id="a_Node000003"><a xlink:href="interfacecom_1_1teragrep_1_1pth__06_1_1ast_1_1LogicalExpression.html#aeaf8fe296c6899792f345659a9a6c0c4" target="_top" xlink:title=" ">
<polygon fill="white" stroke="#666666" points="358.5,-30 212.5,-30 212.5,0 358.5,0 358.5,-30"/>
<text text-anchor="start" x="220.5" y="-18" font-family="Helvetica,sans-Serif" font-size="10.00">com.teragrep.pth_06.ast.</text>
<text text-anchor="middle" x="285.5" y="-7" font-family="Helvetica,sans-Serif" font-size="10.00">LogicalExpression.children</text>
</a>
</g>
</g>
<!-- Node1&#45;&gt;Node3 -->
<g id="edge2_Node000001_Node000003" class="edge">
<title>Node1&#45;&gt;Node3</title>
<g id="a_edge2_Node000001_Node000003"><a xlink:title=" ">
<path fill="none" stroke="#63b8ff" d="M169.03,-28.93C180.02,-27.6 191.28,-26.24 202.26,-24.92"/>
<polygon fill="#63b8ff" stroke="#63b8ff" points="202.73,-28.39 212.23,-23.72 201.89,-21.44 202.73,-28.39"/>
</a>
</g>
</g>
</g>
</svg>
