<?xml version="1.0" encoding="UTF-8" standalone="no"?>
<!DOCTYPE svg PUBLIC "-//W3C//DTD SVG 1.1//EN"
 "http://www.w3.org/Graphics/SVG/1.1/DTD/svg11.dtd">
<!-- Generated by graphviz version 2.43.0 (0)
 -->
<!-- Title: com.teragrep.pth_06.ast.transform.WithDefaultValuesTest.testLatest Pages: 1 -->
<svg width="1315pt" height="446pt"
 viewBox="0.00 0.00 1315.00 445.66" xmlns="http://www.w3.org/2000/svg" xmlns:xlink="http://www.w3.org/1999/xlink">
<g id="graph0" class="graph" transform="scale(1 1) rotate(0) translate(4 441.66)">
<title>com.teragrep.pth_06.ast.transform.WithDefaultValuesTest.testLatest</title>
<!-- Node1 -->
<g id="Node000001" class="node">
<title>Node1</title>
<g id="a_Node000001"><a xlink:title=" ">
<polygon fill="#999999" stroke="#666666" points="190,-406.35 0,-406.35 0,-376.35 190,-376.35 190,-406.35"/>
<text text-anchor="start" x="8" y="-394.35" font-family="Helvetica,sans-Serif" font-size="10.00">com.teragrep.pth_06.ast.transform.</text>
<text text-anchor="middle" x="95" y="-383.35" font-family="Helvetica,sans-Serif" font-size="10.00">WithDefaultValuesTest.testLatest</text>
</a>
</g>
</g>
<!-- Node2 -->
<g id="Node000002" class="node">
<title>Node2</title>
<g id="a_Node000002"><a xlink:href="interfacecom_1_1teragrep_1_1pth__06_1_1ast_1_1Expression.html#a17e7d33905be57c6e22e1717da6ddef6" target="_top" xlink:title=" ">
<polygon fill="white" stroke="#666666" points="1303.5,-330.35 1164.5,-330.35 1164.5,-300.35 1303.5,-300.35 1303.5,-330.35"/>
<text text-anchor="start" x="1172.5" y="-318.35" font-family="Helvetica,sans-Serif" font-size="10.00">com.teragrep.pth_06.ast.</text>
<text text-anchor="middle" x="1234" y="-307.35" font-family="Helvetica,sans-Serif" font-size="10.00">Expression.asLogical</text>
</a>
</g>
</g>
<!-- Node1&#45;&gt;Node2 -->
<g id="edge1_Node000001_Node000002" class="edge">
<title>Node1&#45;&gt;Node2</title>
<g id="a_edge1_Node000001_Node000002"><a xlink:title=" ">
<path fill="none" stroke="#63b8ff" d="M190.12,-403.58C283.82,-414.69 431.85,-429.35 560.5,-429.35 560.5,-429.35 560.5,-429.35 804,-429.35 947.06,-429.35 992.39,-459.03 1125,-405.35 1161.07,-390.75 1194.1,-359.43 1213.88,-337.88"/>
<polygon fill="#63b8ff" stroke="#63b8ff" points="1216.49,-340.21 1220.56,-330.43 1211.28,-335.54 1216.49,-340.21"/>
</a>
</g>
</g>
<!-- Node3 -->
<g id="Node000003" class="node">
<title>Node3</title>
<g id="a_Node000003"><a xlink:href="interfacecom_1_1teragrep_1_1pth__06_1_1ast_1_1LogicalExpression.html#aeaf8fe296c6899792f345659a9a6c0c4" target="_top" xlink:title=" ">
<polygon fill="white" stroke="#666666" points="1307,-223.35 1161,-223.35 1161,-193.35 1307,-193.35 1307,-223.35"/>
<text text-anchor="start" x="1169" y="-211.35" font-family="Helvetica,sans-Serif" font-size="10.00">com.teragrep.pth_06.ast.</text>
<text text-anchor="middle" x="1234" y="-200.35" font-family="Helvetica,sans-Serif" font-size="10.00">LogicalExpression.children</text>
</a>
</g>
</g>
<!-- Node1&#45;&gt;Node3 -->
<g id="edge2_Node000001_Node000003" class="edge">
<title>Node1&#45;&gt;Node3</title>
<g id="a_edge2_Node000001_Node000003"><a xlink:title=" ">
<path fill="none" stroke="#63b8ff" d="M190.3,-391.35C284.15,-391.35 432.28,-391.35 560.5,-391.35 560.5,-391.35 560.5,-391.35 804,-391.35 967.12,-391.35 1139.18,-278.02 1205.09,-229.73"/>
<polygon fill="#63b8ff" stroke="#63b8ff" points="1207.36,-232.4 1213.31,-223.63 1203.2,-226.78 1207.36,-232.4"/>
</a>
</g>
</g>
<!-- Node4 -->
<g id="Node000004" class="node">
<title>Node4</title>
<g id="a_Node000004"><a xlink:href="classcom_1_1teragrep_1_1pth__06_1_1ast_1_1transform_1_1WithDefaultValues.html#a3cd2907c54910cabd6d8cb52ff49215f" target="_top" xlink:title=" ">
<polygon fill="white" stroke="#666666" points="416,-248.35 226,-248.35 226,-218.35 416,-218.35 416,-248.35"/>
<text text-anchor="start" x="234" y="-236.35" font-family="Helvetica,sans-Serif" font-size="10.00">com.teragrep.pth_06.ast.transform.</text>
<text text-anchor="middle" x="321" y="-225.35" font-family="Helvetica,sans-Serif" font-size="10.00">WithDefaultValues.transformed</text>
</a>
</g>
</g>
<!-- Node1&#45;&gt;Node4 -->
<g id="edge3_Node000001_Node000004" class="edge">
<title>Node1&#45;&gt;Node4</title>
<g id="a_edge3_Node000001_Node000004"><a xlink:title=" ">
<path fill="none" stroke="#63b8ff" d="M117.48,-376.2C157.7,-347.83 244.45,-286.64 290.26,-254.32"/>
<polygon fill="#63b8ff" stroke="#63b8ff" points="292.43,-257.08 298.59,-248.45 288.4,-251.35 292.43,-257.08"/>
</a>
</g>
</g>
<!-- Node4&#45;&gt;Node2 -->
<g id="edge4_Node000004_Node000002" class="edge">
<title>Node4&#45;&gt;Node2</title>
<g id="a_edge4_Node000004_Node000002"><a xlink:title=" ">
<path fill="none" stroke="#63b8ff" d="M401.94,-248.37C518.6,-269.45 742.53,-306.76 935,-320.35 1009.16,-325.58 1093.95,-323.37 1154.08,-320.41"/>
<polygon fill="#63b8ff" stroke="#63b8ff" points="1154.45,-323.9 1164.26,-319.9 1154.09,-316.91 1154.45,-323.9"/>
</a>
</g>
</g>
<!-- Node4&#45;&gt;Node4 -->
<g id="edge26_Node000004_Node000004" class="edge">
<title>Node4&#45;&gt;Node4</title>
<g id="a_edge26_Node000004_Node000004"><a xlink:title=" ">
<path fill="none" stroke="#63b8ff" d="M281.27,-248.62C272.45,-257.75 285.69,-266.35 321,-266.35 341.97,-266.35 355.15,-263.32 360.56,-258.94"/>
<polygon fill="#63b8ff" stroke="#63b8ff" points="364.06,-258.68 360.73,-248.62 357.06,-258.56 364.06,-258.68"/>
</a>
</g>
</g>
<!-- Node5 -->
<g id="Node000005" class="node">
<title>Node5</title>
<g id="a_Node000005"><a xlink:href="interfacecom_1_1teragrep_1_1pth__06_1_1ast_1_1Expression.html#a65ee7f5fb98e4129018f467a53586842" target="_top" xlink:title=" ">
<polygon fill="white" stroke="#666666" points="1303.5,-31.35 1164.5,-31.35 1164.5,-1.35 1303.5,-1.35 1303.5,-31.35"/>
<text text-anchor="start" x="1172.5" y="-19.35" font-family="Helvetica,sans-Serif" font-size="10.00">com.teragrep.pth_06.ast.</text>
<text text-anchor="middle" x="1234" y="-8.35" font-family="Helvetica,sans-Serif" font-size="10.00">Expression.isLogical</text>
</a>
</g>
</g>
<!-- Node4&#45;&gt;Node5 -->
<g id="edge5_Node000004_Node000005" class="edge">
<title>Node4&#45;&gt;Node5</title>
<g id="a_edge5_Node000004_Node000005"><a xlink:title=" ">
<path fill="none" stroke="#63b8ff" d="M332.51,-218.18C352.38,-190.78 398.34,-133.28 452,-105.35 684.14,15.49 1006.75,5.23 1154.02,-7.52"/>
<polygon fill="#63b8ff" stroke="#63b8ff" points="1154.05,-11.04 1164.32,-8.44 1154.67,-4.07 1154.05,-11.04"/>
</a>
</g>
</g>
<!-- Node6 -->
<g id="Node000006" class="node">
<title>Node6</title>
<g id="a_Node000006"><a xlink:href="classcom_1_1teragrep_1_1pth__06_1_1ast_1_1transform_1_1WithDefaultValues.html#a371bd3fba44c9f320d2b39f5e60cb82c" target="_top" xlink:title=" ">
<polygon fill="white" stroke="#666666" points="671,-155.85 452,-155.85 452,-114.85 671,-114.85 671,-155.85"/>
<text text-anchor="start" x="460" y="-143.85" font-family="Helvetica,sans-Serif" font-size="10.00">com.teragrep.pth_06.ast.transform.</text>
<text text-anchor="start" x="460" y="-132.85" font-family="Helvetica,sans-Serif" font-size="10.00">WithDefaultValues.recursiveWithDefaults</text>
<text text-anchor="middle" x="561.5" y="-121.85" font-family="Helvetica,sans-Serif" font-size="10.00">Expression</text>
</a>
</g>
</g>
<!-- Node4&#45;&gt;Node6 -->
<g id="edge6_Node000004_Node000006" class="edge">
<title>Node4&#45;&gt;Node6</title>
<g id="a_edge6_Node000004_Node000006"><a xlink:title=" ">
<path fill="none" stroke="#63b8ff" d="M358.74,-218.25C396.68,-202.66 456.47,-178.09 501.13,-159.74"/>
<polygon fill="#63b8ff" stroke="#63b8ff" points="502.5,-162.96 510.42,-155.93 499.84,-156.49 502.5,-162.96"/>
</a>
</g>
</g>
<!-- Node6&#45;&gt;Node5 -->
<g id="edge17_Node000006_Node000005" class="edge">
<title>Node6&#45;&gt;Node5</title>
<g id="a_edge17_Node000006_Node000005"><a xlink:title=" ">
<path fill="none" stroke="#63b8ff" d="M630.08,-114.82C654.2,-107.98 681.67,-100.74 707,-95.35 864.34,-61.88 1051.11,-37.38 1154.4,-25.14"/>
<polygon fill="#63b8ff" stroke="#63b8ff" points="1154.91,-28.6 1164.44,-23.96 1154.1,-21.65 1154.91,-28.6"/>
</a>
</g>
</g>
<!-- Node7 -->
<g id="Node000007" class="node">
<title>Node7</title>
<g id="a_Node000007"><a xlink:href="classcom_1_1teragrep_1_1pth__06_1_1ast_1_1transform_1_1WithDefaultValues.html#ac53e9da4d27289a430152a8b67aa7e6b" target="_top" xlink:title=" ">
<polygon fill="white" stroke="#666666" points="899,-198.35 707,-198.35 707,-168.35 899,-168.35 899,-198.35"/>
<text text-anchor="start" x="715" y="-186.35" font-family="Helvetica,sans-Serif" font-size="10.00">com.teragrep.pth_06.ast.transform.</text>
<text text-anchor="middle" x="803" y="-175.35" font-family="Helvetica,sans-Serif" font-size="10.00">WithDefaultValues.andWithDefaults</text>
</a>
</g>
</g>
<!-- Node6&#45;&gt;Node7 -->
<g id="edge7_Node000006_Node000007" class="edge">
<title>Node6&#45;&gt;Node7</title>
<g id="a_edge7_Node000006_Node000007"><a xlink:title=" ">
<path fill="none" stroke="#63b8ff" d="M671.04,-150.38C696.37,-155.33 722.37,-160.83 744.47,-165.95"/>
<polygon fill="#63b8ff" stroke="#63b8ff" points="743.79,-169.39 754.32,-168.27 745.39,-162.57 743.79,-169.39"/>
</a>
</g>
</g>
<!-- Node9 -->
<g id="Node000009" class="node">
<title>Node9</title>
<g id="a_Node000009"><a xlink:href="interfacecom_1_1teragrep_1_1pth__06_1_1ast_1_1Expression.html#a8b9661253a3610b9eb148ee29ca8b7e1" target="_top" xlink:title=" ">
<polygon fill="white" stroke="#666666" points="1303.5,-112.35 1164.5,-112.35 1164.5,-82.35 1303.5,-82.35 1303.5,-112.35"/>
<text text-anchor="start" x="1172.5" y="-100.35" font-family="Helvetica,sans-Serif" font-size="10.00">com.teragrep.pth_06.ast.</text>
<text text-anchor="middle" x="1234" y="-89.35" font-family="Helvetica,sans-Serif" font-size="10.00">Expression.tag</text>
</a>
</g>
</g>
<!-- Node6&#45;&gt;Node9 -->
<g id="edge25_Node000006_Node000009" class="edge">
<title>Node6&#45;&gt;Node9</title>
<g id="a_edge25_Node000006_Node000009"><a xlink:title=" ">
<path fill="none" stroke="#63b8ff" d="M671.19,-115.8C683.24,-114.08 695.36,-112.54 707,-111.35 865.09,-95.16 1051.21,-94.51 1154.27,-95.75"/>
<polygon fill="#63b8ff" stroke="#63b8ff" points="1154.24,-99.25 1164.28,-95.88 1154.33,-92.25 1154.24,-99.25"/>
</a>
</g>
</g>
<!-- Node10 -->
<g id="Node000010" class="node">
<title>Node10</title>
<g id="a_Node000010"><a xlink:href="classcom_1_1teragrep_1_1pth__06_1_1ast_1_1transform_1_1WithDefaultValues.html#af8c587422cbf070fc6fea9aba68705d9" target="_top" xlink:title=" ">
<polygon fill="white" stroke="#666666" points="898,-150.35 708,-150.35 708,-120.35 898,-120.35 898,-150.35"/>
<text text-anchor="start" x="716" y="-138.35" font-family="Helvetica,sans-Serif" font-size="10.00">com.teragrep.pth_06.ast.transform.</text>
<text text-anchor="middle" x="803" y="-127.35" font-family="Helvetica,sans-Serif" font-size="10.00">WithDefaultValues.orWithDefaults</text>
</a>
</g>
</g>
<!-- Node6&#45;&gt;Node10 -->
<g id="edge18_Node000006_Node000010" class="edge">
<title>Node6&#45;&gt;Node10</title>
<g id="a_edge18_Node000006_Node000010"><a xlink:title=" ">
<path fill="none" stroke="#63b8ff" d="M671.04,-128.62C679.84,-128.58 688.73,-128.59 697.51,-128.65"/>
<polygon fill="#63b8ff" stroke="#63b8ff" points="697.72,-132.15 707.75,-128.74 697.78,-125.15 697.72,-132.15"/>
</a>
</g>
</g>
<!-- Node7&#45;&gt;Node2 -->
<g id="edge8_Node000007_Node000002" class="edge">
<title>Node7&#45;&gt;Node2</title>
<g id="a_edge8_Node000007_Node000002"><a xlink:title=" ">
<path fill="none" stroke="#63b8ff" d="M816.63,-198.54C838.06,-223.08 884.19,-270.76 935,-291.35 1005.29,-319.82 1092.42,-323.61 1154.27,-321.62"/>
<polygon fill="#63b8ff" stroke="#63b8ff" points="1154.5,-325.11 1164.36,-321.23 1154.23,-318.12 1154.5,-325.11"/>
</a>
</g>
</g>
<!-- Node7&#45;&gt;Node3 -->
<g id="edge9_Node000007_Node000003" class="edge">
<title>Node7&#45;&gt;Node3</title>
<g id="a_edge9_Node000007_Node000003"><a xlink:title=" ">
<path fill="none" stroke="#63b8ff" d="M845.85,-198.35C871.26,-206.66 904.57,-216.13 935,-220.35 1007.48,-230.39 1090.76,-225.68 1150.81,-219.46"/>
<polygon fill="#63b8ff" stroke="#63b8ff" points="1151.43,-222.91 1161,-218.36 1150.68,-215.95 1151.43,-222.91"/>
</a>
</g>
</g>
<!-- Node7&#45;&gt;Node6 -->
<g id="edge16_Node000007_Node000006" class="edge">
<title>Node7&#45;&gt;Node6</title>
<g id="a_edge16_Node000007_Node000006"><a xlink:title=" ">
<path fill="none" stroke="#63b8ff" d="M706.67,-170.86C685.76,-166.89 663.81,-162.43 643.52,-158.01"/>
<polygon fill="#63b8ff" stroke="#63b8ff" points="644.23,-154.58 633.71,-155.85 642.72,-161.42 644.23,-154.58"/>
</a>
</g>
</g>
<!-- Node8 -->
<g id="Node000008" class="node">
<title>Node8</title>
<g id="a_Node000008"><a xlink:href="classcom_1_1teragrep_1_1pth__06_1_1ast_1_1transform_1_1WithDefaultValues.html#a42a39b9992cc004453cd026fbc106b36" target="_top" xlink:title=" ">
<polygon fill="white" stroke="#666666" points="1125,-193.35 935,-193.35 935,-163.35 1125,-163.35 1125,-193.35"/>
<text text-anchor="start" x="943" y="-181.35" font-family="Helvetica,sans-Serif" font-size="10.00">com.teragrep.pth_06.ast.transform.</text>
<text text-anchor="middle" x="1030" y="-170.35" font-family="Helvetica,sans-Serif" font-size="10.00">WithDefaultValues.expressionTags</text>
</a>
</g>
</g>
<!-- Node7&#45;&gt;Node8 -->
<g id="edge10_Node000007_Node000008" class="edge">
<title>Node7&#45;&gt;Node8</title>
<g id="a_edge10_Node000007_Node000008"><a xlink:title=" ">
<path fill="none" stroke="#63b8ff" d="M899.09,-181.23C907.63,-181.04 916.3,-180.85 924.9,-180.66"/>
<polygon fill="#63b8ff" stroke="#63b8ff" points="925.04,-184.16 934.96,-180.44 924.89,-177.16 925.04,-184.16"/>
</a>
</g>
</g>
<!-- Node8&#45;&gt;Node2 -->
<g id="edge11_Node000008_Node000002" class="edge">
<title>Node8&#45;&gt;Node2</title>
<g id="a_edge11_Node000008_Node000002"><a xlink:title=" ">
<path fill="none" stroke="#63b8ff" d="M1053.39,-193.53C1089.66,-218.13 1161.32,-266.74 1202.32,-294.54"/>
<polygon fill="#63b8ff" stroke="#63b8ff" points="1200.58,-297.59 1210.82,-300.3 1204.51,-291.79 1200.58,-297.59"/>
</a>
</g>
</g>
<!-- Node8&#45;&gt;Node3 -->
<g id="edge12_Node000008_Node000003" class="edge">
<title>Node8&#45;&gt;Node3</title>
<g id="a_edge12_Node000008_Node000003"><a xlink:title=" ">
<path fill="none" stroke="#63b8ff" d="M1125.2,-192.34C1133.68,-193.6 1142.23,-194.87 1150.6,-196.11"/>
<polygon fill="#63b8ff" stroke="#63b8ff" points="1150.3,-199.6 1160.7,-197.61 1151.33,-192.68 1150.3,-199.6"/>
</a>
</g>
</g>
<!-- Node8&#45;&gt;Node5 -->
<g id="edge14_Node000008_Node000005" class="edge">
<title>Node8&#45;&gt;Node5</title>
<g id="a_edge14_Node000008_Node000005"><a xlink:title=" ">
<path fill="none" stroke="#63b8ff" d="M1049.47,-163.34C1074.63,-142.91 1121.12,-105.24 1161,-73.35 1175.75,-61.56 1192.26,-48.48 1205.74,-37.82"/>
<polygon fill="#63b8ff" stroke="#63b8ff" points="1208.03,-40.48 1213.71,-31.54 1203.69,-34.99 1208.03,-40.48"/>
</a>
</g>
</g>
<!-- Node8&#45;&gt;Node8 -->
<g id="edge13_Node000008_Node000008" class="edge">
<title>Node8&#45;&gt;Node8</title>
<g id="a_edge13_Node000008_Node000008"><a xlink:title=" ">
<path fill="none" stroke="#63b8ff" d="M994.14,-193.62C986.17,-202.75 998.12,-211.35 1030,-211.35 1048.93,-211.35 1060.83,-208.32 1065.71,-203.94"/>
<polygon fill="#63b8ff" stroke="#63b8ff" points="1069.21,-203.67 1065.86,-193.62 1062.21,-203.57 1069.21,-203.67"/>
</a>
</g>
</g>
<!-- Node8&#45;&gt;Node9 -->
<g id="edge15_Node000008_Node000009" class="edge">
<title>Node8&#45;&gt;Node9</title>
<g id="a_edge15_Node000008_Node000009"><a xlink:title=" ">
<path fill="none" stroke="#63b8ff" d="M1068.52,-163.3C1101.58,-150.04 1149.9,-130.67 1185.62,-116.35"/>
<polygon fill="#63b8ff" stroke="#63b8ff" points="1187.36,-119.42 1195.34,-112.45 1184.75,-112.92 1187.36,-119.42"/>
</a>
</g>
</g>
<!-- Node10&#45;&gt;Node2 -->
<g id="edge19_Node000010_Node000002" class="edge">
<title>Node10&#45;&gt;Node2</title>
<g id="a_edge19_Node000010_Node000002"><a xlink:title=" ">
<path fill="none" stroke="#63b8ff" d="M883.97,-150.37C889.29,-152.91 894.37,-155.88 899,-159.35 924.2,-178.21 910.39,-200.72 935,-220.35 969.64,-247.97 1081.19,-278.97 1157.53,-297.83"/>
<polygon fill="#63b8ff" stroke="#63b8ff" points="1157.05,-301.31 1167.59,-300.29 1158.71,-294.51 1157.05,-301.31"/>
</a>
</g>
</g>
<!-- Node10&#45;&gt;Node3 -->
<g id="edge20_Node000010_Node000003" class="edge">
<title>Node10&#45;&gt;Node3</title>
<g id="a_edge20_Node000010_Node000003"><a xlink:title=" ">
<path fill="none" stroke="#63b8ff" d="M898.29,-131.05C963.11,-130.47 1050.58,-134.44 1125,-154.35 1151.99,-161.57 1180.15,-175.91 1200.95,-187.99"/>
<polygon fill="#63b8ff" stroke="#63b8ff" points="1199.28,-191.08 1209.67,-193.18 1202.86,-185.06 1199.28,-191.08"/>
</a>
</g>
</g>
<!-- Node10&#45;&gt;Node5 -->
<g id="edge22_Node000010_Node000005" class="edge">
<title>Node10&#45;&gt;Node5</title>
<g id="a_edge22_Node000010_Node000005"><a xlink:title=" ">
<path fill="none" stroke="#63b8ff" d="M858.33,-120.28C937.6,-98.29 1084.67,-57.49 1169.05,-34.09"/>
<polygon fill="#63b8ff" stroke="#63b8ff" points="1170.07,-37.44 1178.77,-31.39 1168.2,-30.69 1170.07,-37.44"/>
</a>
</g>
</g>
<!-- Node10&#45;&gt;Node6 -->
<g id="edge23_Node000010_Node000006" class="edge">
<title>Node10&#45;&gt;Node6</title>
<g id="a_edge23_Node000010_Node000006"><a xlink:title=" ">
<path fill="none" stroke="#63b8ff" d="M707.75,-141.96C699,-142.06 690.05,-142.1 681.11,-142.1"/>
<polygon fill="#63b8ff" stroke="#63b8ff" points="681.05,-138.6 671.04,-142.07 681.03,-145.6 681.05,-138.6"/>
</a>
</g>
</g>
<!-- Node10&#45;&gt;Node8 -->
<g id="edge21_Node000010_Node000008" class="edge">
<title>Node10&#45;&gt;Node8</title>
<g id="a_edge21_Node000010_Node000008"><a xlink:title=" ">
<path fill="none" stroke="#63b8ff" d="M882.69,-150.39C901.36,-153.95 921.4,-157.78 940.48,-161.43"/>
<polygon fill="#63b8ff" stroke="#63b8ff" points="939.87,-164.88 950.35,-163.32 941.19,-158 939.87,-164.88"/>
</a>
</g>
</g>
<!-- Node10&#45;&gt;Node9 -->
<g id="edge24_Node000010_Node000009" class="edge">
<title>Node10&#45;&gt;Node9</title>
<g id="a_edge24_Node000010_Node000009"><a xlink:title=" ">
<path fill="none" stroke="#63b8ff" d="M898.07,-125C910.48,-123.72 923.04,-122.47 935,-121.35 1009.25,-114.39 1094.03,-107.68 1154.13,-103.14"/>
<polygon fill="#63b8ff" stroke="#63b8ff" points="1154.6,-106.61 1164.31,-102.37 1154.07,-99.63 1154.6,-106.61"/>
</a>
</g>
</g>
</g>
</svg>
