<?xml version="1.0" encoding="UTF-8" standalone="no"?>
<!DOCTYPE svg PUBLIC "-//W3C//DTD SVG 1.1//EN"
 "http://www.w3.org/Graphics/SVG/1.1/DTD/svg11.dtd">
<!-- Generated by graphviz version 2.43.0 (0)
 -->
<!-- Title: com.teragrep.pth_06.ast.transform.FlattenLogical.transformed Pages: 1 -->
<svg width="607pt" height="177pt"
 viewBox="0.00 0.00 607.00 177.00" xmlns="http://www.w3.org/2000/svg" xmlns:xlink="http://www.w3.org/1999/xlink">
<g id="graph0" class="graph" transform="scale(1 1) rotate(0) translate(4 173)">
<title>com.teragrep.pth_06.ast.transform.FlattenLogical.transformed</title>
<!-- Node1 -->
<g id="Node000001" class="node">
<title>Node1</title>
<g id="a_Node000001"><a xlink:title=" ">
<polygon fill="#999999" stroke="#666666" points="190,-94 0,-94 0,-64 190,-64 190,-94"/>
<text text-anchor="start" x="8" y="-82" font-family="Helvetica,sans-Serif" font-size="10.00">com.teragrep.pth_06.ast.transform.</text>
<text text-anchor="middle" x="95" y="-71" font-family="Helvetica,sans-Serif" font-size="10.00">FlattenLogical.transformed</text>
</a>
</g>
</g>
<!-- Node1&#45;&gt;Node1 -->
<g id="edge11_Node000001_Node000001" class="edge">
<title>Node1&#45;&gt;Node1</title>
<g id="a_edge11_Node000001_Node000001"><a xlink:title=" ">
<path fill="none" stroke="#63b8ff" d="M55.27,-94.28C46.45,-103.41 59.69,-112 95,-112 115.97,-112 129.15,-108.97 134.56,-104.6"/>
<polygon fill="#63b8ff" stroke="#63b8ff" points="138.06,-104.33 134.73,-94.28 131.06,-104.22 138.06,-104.33"/>
</a>
</g>
</g>
<!-- Node2 -->
<g id="Node000002" class="node">
<title>Node2</title>
<g id="a_Node000002"><a xlink:href="classcom_1_1teragrep_1_1pth__06_1_1ast_1_1transform_1_1FlattenLogical.html#a3b9085857dc57e88c58a6fa5a057f103" target="_top" xlink:title=" ">
<polygon fill="white" stroke="#666666" points="417,-164 226,-164 226,-134 417,-134 417,-164"/>
<text text-anchor="start" x="234" y="-152" font-family="Helvetica,sans-Serif" font-size="10.00">com.teragrep.pth_06.ast.transform.</text>
<text text-anchor="middle" x="321.5" y="-141" font-family="Helvetica,sans-Serif" font-size="10.00">FlattenLogical.flattenedAndChildren</text>
</a>
</g>
</g>
<!-- Node1&#45;&gt;Node2 -->
<g id="edge1_Node000001_Node000002" class="edge">
<title>Node1&#45;&gt;Node2</title>
<g id="a_edge1_Node000001_Node000002"><a xlink:title=" ">
<path fill="none" stroke="#63b8ff" d="M135.52,-94.04C161.12,-103.52 195.3,-115.69 226,-125 233.15,-127.17 240.65,-129.3 248.16,-131.35"/>
<polygon fill="#63b8ff" stroke="#63b8ff" points="247.44,-134.78 258.01,-133.99 249.25,-128.02 247.44,-134.78"/>
</a>
</g>
</g>
<!-- Node5 -->
<g id="Node000005" class="node">
<title>Node5</title>
<g id="a_Node000005"><a xlink:href="interfacecom_1_1teragrep_1_1pth__06_1_1ast_1_1Expression.html#a8b9661253a3610b9eb148ee29ca8b7e1" target="_top" xlink:title=" ">
<polygon fill="white" stroke="#666666" points="595.5,-73 456.5,-73 456.5,-43 595.5,-43 595.5,-73"/>
<text text-anchor="start" x="464.5" y="-61" font-family="Helvetica,sans-Serif" font-size="10.00">com.teragrep.pth_06.ast.</text>
<text text-anchor="middle" x="526" y="-50" font-family="Helvetica,sans-Serif" font-size="10.00">Expression.tag</text>
</a>
</g>
</g>
<!-- Node1&#45;&gt;Node5 -->
<g id="edge10_Node000001_Node000005" class="edge">
<title>Node1&#45;&gt;Node5</title>
<g id="a_edge10_Node000001_Node000005"><a xlink:title=" ">
<path fill="none" stroke="#63b8ff" d="M190.15,-74.39C266.78,-70.64 373.73,-65.4 445.97,-61.87"/>
<polygon fill="#63b8ff" stroke="#63b8ff" points="446.55,-65.34 456.37,-61.36 446.21,-58.35 446.55,-65.34"/>
</a>
</g>
</g>
<!-- Node6 -->
<g id="Node000006" class="node">
<title>Node6</title>
<g id="a_Node000006"><a xlink:href="classcom_1_1teragrep_1_1pth__06_1_1ast_1_1transform_1_1FlattenLogical.html#ae0b8acc47ab74872494d07da365e303b" target="_top" xlink:title=" ">
<polygon fill="white" stroke="#666666" points="416.5,-116 226.5,-116 226.5,-86 416.5,-86 416.5,-116"/>
<text text-anchor="start" x="234.5" y="-104" font-family="Helvetica,sans-Serif" font-size="10.00">com.teragrep.pth_06.ast.transform.</text>
<text text-anchor="middle" x="321.5" y="-93" font-family="Helvetica,sans-Serif" font-size="10.00">FlattenLogical.flattenedOrChildren</text>
</a>
</g>
</g>
<!-- Node1&#45;&gt;Node6 -->
<g id="edge5_Node000001_Node000006" class="edge">
<title>Node1&#45;&gt;Node6</title>
<g id="a_edge5_Node000001_Node000006"><a xlink:title=" ">
<path fill="none" stroke="#63b8ff" d="M190.23,-88.23C198.77,-89.07 207.45,-89.92 216.07,-90.77"/>
<polygon fill="#63b8ff" stroke="#63b8ff" points="215.86,-94.26 226.15,-91.75 216.54,-87.3 215.86,-94.26"/>
</a>
</g>
</g>
<!-- Node7 -->
<g id="Node000007" class="node">
<title>Node7</title>
<g id="a_Node000007"><a xlink:href="interfacecom_1_1teragrep_1_1pth__06_1_1ast_1_1Expression.html#a65ee7f5fb98e4129018f467a53586842" target="_top" xlink:title=" ">
<polygon fill="white" stroke="#666666" points="391,-30 252,-30 252,0 391,0 391,-30"/>
<text text-anchor="start" x="260" y="-18" font-family="Helvetica,sans-Serif" font-size="10.00">com.teragrep.pth_06.ast.</text>
<text text-anchor="middle" x="321.5" y="-7" font-family="Helvetica,sans-Serif" font-size="10.00">Expression.isLogical</text>
</a>
</g>
</g>
<!-- Node1&#45;&gt;Node7 -->
<g id="edge9_Node000001_Node000007" class="edge">
<title>Node1&#45;&gt;Node7</title>
<g id="a_edge9_Node000001_Node000007"><a xlink:title=" ">
<path fill="none" stroke="#63b8ff" d="M148.64,-63.99C181.31,-54.68 223.48,-42.66 257.87,-32.86"/>
<polygon fill="#63b8ff" stroke="#63b8ff" points="259.15,-36.13 267.81,-30.02 257.23,-29.4 259.15,-36.13"/>
</a>
</g>
</g>
<!-- Node3 -->
<g id="Node000003" class="node">
<title>Node3</title>
<g id="a_Node000003"><a xlink:href="interfacecom_1_1teragrep_1_1pth__06_1_1ast_1_1Expression.html#a17e7d33905be57c6e22e1717da6ddef6" target="_top" xlink:title=" ">
<polygon fill="white" stroke="#666666" points="595.5,-121 456.5,-121 456.5,-91 595.5,-91 595.5,-121"/>
<text text-anchor="start" x="464.5" y="-109" font-family="Helvetica,sans-Serif" font-size="10.00">com.teragrep.pth_06.ast.</text>
<text text-anchor="middle" x="526" y="-98" font-family="Helvetica,sans-Serif" font-size="10.00">Expression.asLogical</text>
</a>
</g>
</g>
<!-- Node2&#45;&gt;Node3 -->
<g id="edge2_Node000002_Node000003" class="edge">
<title>Node2&#45;&gt;Node3</title>
<g id="a_edge2_Node000002_Node000003"><a xlink:title=" ">
<path fill="none" stroke="#63b8ff" d="M393.32,-133.96C410.39,-130.34 428.73,-126.44 446.14,-122.75"/>
<polygon fill="#63b8ff" stroke="#63b8ff" points="447.21,-126.1 456.26,-120.6 445.75,-119.25 447.21,-126.1"/>
</a>
</g>
</g>
<!-- Node4 -->
<g id="Node000004" class="node">
<title>Node4</title>
<g id="a_Node000004"><a xlink:href="interfacecom_1_1teragrep_1_1pth__06_1_1ast_1_1LogicalExpression.html#aeaf8fe296c6899792f345659a9a6c0c4" target="_top" xlink:title=" ">
<polygon fill="white" stroke="#666666" points="599,-169 453,-169 453,-139 599,-139 599,-169"/>
<text text-anchor="start" x="461" y="-157" font-family="Helvetica,sans-Serif" font-size="10.00">com.teragrep.pth_06.ast.</text>
<text text-anchor="middle" x="526" y="-146" font-family="Helvetica,sans-Serif" font-size="10.00">LogicalExpression.children</text>
</a>
</g>
</g>
<!-- Node2&#45;&gt;Node4 -->
<g id="edge3_Node000002_Node000004" class="edge">
<title>Node2&#45;&gt;Node4</title>
<g id="a_edge3_Node000002_Node000004"><a xlink:title=" ">
<path fill="none" stroke="#63b8ff" d="M417.23,-151.34C425.72,-151.55 434.27,-151.76 442.64,-151.97"/>
<polygon fill="#63b8ff" stroke="#63b8ff" points="442.66,-155.47 452.75,-152.22 442.84,-148.47 442.66,-155.47"/>
</a>
</g>
</g>
<!-- Node2&#45;&gt;Node5 -->
<g id="edge4_Node000002_Node000005" class="edge">
<title>Node2&#45;&gt;Node5</title>
<g id="a_edge4_Node000002_Node000005"><a xlink:title=" ">
<path fill="none" stroke="#63b8ff" d="M399.52,-133.88C405.64,-131.36 411.55,-128.42 417,-125 438.1,-111.73 432.4,-96.03 453,-82 455.27,-80.45 457.65,-79 460.1,-77.64"/>
<polygon fill="#63b8ff" stroke="#63b8ff" points="461.87,-80.67 469.25,-73.07 458.74,-74.4 461.87,-80.67"/>
</a>
</g>
</g>
<!-- Node6&#45;&gt;Node3 -->
<g id="edge6_Node000006_Node000003" class="edge">
<title>Node6&#45;&gt;Node3</title>
<g id="a_edge6_Node000006_Node000003"><a xlink:title=" ">
<path fill="none" stroke="#63b8ff" d="M416.64,-103.32C426.6,-103.57 436.66,-103.82 446.42,-104.06"/>
<polygon fill="#63b8ff" stroke="#63b8ff" points="446.39,-107.56 456.47,-104.31 446.56,-100.56 446.39,-107.56"/>
</a>
</g>
</g>
<!-- Node6&#45;&gt;Node4 -->
<g id="edge7_Node000006_Node000004" class="edge">
<title>Node6&#45;&gt;Node4</title>
<g id="a_edge7_Node000006_Node000004"><a xlink:title=" ">
<path fill="none" stroke="#63b8ff" d="M382.27,-116.05C393.8,-118.99 405.78,-122.07 417,-125 430.75,-128.59 445.48,-132.5 459.49,-136.26"/>
<polygon fill="#63b8ff" stroke="#63b8ff" points="458.98,-139.74 469.54,-138.95 460.79,-132.98 458.98,-139.74"/>
</a>
</g>
</g>
<!-- Node6&#45;&gt;Node5 -->
<g id="edge8_Node000006_Node000005" class="edge">
<title>Node6&#45;&gt;Node5</title>
<g id="a_edge8_Node000006_Node000005"><a xlink:title=" ">
<path fill="none" stroke="#63b8ff" d="M393.32,-85.96C410.39,-82.34 428.73,-78.44 446.14,-74.75"/>
<polygon fill="#63b8ff" stroke="#63b8ff" points="447.21,-78.1 456.26,-72.6 445.75,-71.25 447.21,-78.1"/>
</a>
</g>
</g>
</g>
</svg>
