<?xml version="1.0" encoding="UTF-8" standalone="no"?>
<!DOCTYPE svg PUBLIC "-//W3C//DTD SVG 1.1//EN"
 "http://www.w3.org/Graphics/SVG/1.1/DTD/svg11.dtd">
<!-- Generated by graphviz version 2.43.0 (0)
 -->
<!-- Title: com.teragrep.pth_06.ast.transform.FlattenLogicalTest.testOrFlattening Pages: 1 -->
<svg width="833pt" height="177pt"
 viewBox="0.00 0.00 833.00 177.00" xmlns="http://www.w3.org/2000/svg" xmlns:xlink="http://www.w3.org/1999/xlink">
<g id="graph0" class="graph" transform="scale(1 1) rotate(0) translate(4 173)">
<title>com.teragrep.pth_06.ast.transform.FlattenLogicalTest.testOrFlattening</title>
<!-- Node1 -->
<g id="Node000001" class="node">
<title>Node1</title>
<g id="a_Node000001"><a xlink:title=" ">
<polygon fill="#999999" stroke="#666666" points="190,-94 0,-94 0,-64 190,-64 190,-94"/>
<text text-anchor="start" x="8" y="-82" font-family="Helvetica,sans-Serif" font-size="10.00">com.teragrep.pth_06.ast.transform.</text>
<text text-anchor="middle" x="95" y="-71" font-family="Helvetica,sans-Serif" font-size="10.00">FlattenLogicalTest.testOrFlattening</text>
</a>
</g>
</g>
<!-- Node2 -->
<g id="Node000002" class="node">
<title>Node2</title>
<g id="a_Node000002"><a xlink:href="classcom_1_1teragrep_1_1pth__06_1_1ast_1_1transform_1_1FlattenLogical.html#a2e1717ad6884eea7a2415aa7763eaed5" target="_top" xlink:title=" ">
<polygon fill="white" stroke="#666666" points="416,-94 226,-94 226,-64 416,-64 416,-94"/>
<text text-anchor="start" x="234" y="-82" font-family="Helvetica,sans-Serif" font-size="10.00">com.teragrep.pth_06.ast.transform.</text>
<text text-anchor="middle" x="321" y="-71" font-family="Helvetica,sans-Serif" font-size="10.00">FlattenLogical.transformed</text>
</a>
</g>
</g>
<!-- Node1&#45;&gt;Node2 -->
<g id="edge1_Node000001_Node000002" class="edge">
<title>Node1&#45;&gt;Node2</title>
<g id="a_edge1_Node000001_Node000002"><a xlink:title=" ">
<path fill="none" stroke="#63b8ff" d="M190.02,-79C198.54,-79 207.2,-79 215.8,-79"/>
<polygon fill="#63b8ff" stroke="#63b8ff" points="215.86,-82.5 225.86,-79 215.86,-75.5 215.86,-82.5"/>
</a>
</g>
</g>
<!-- Node2&#45;&gt;Node2 -->
<g id="edge12_Node000002_Node000002" class="edge">
<title>Node2&#45;&gt;Node2</title>
<g id="a_edge12_Node000002_Node000002"><a xlink:title=" ">
<path fill="none" stroke="#63b8ff" d="M281.27,-94.28C272.45,-103.41 285.69,-112 321,-112 341.97,-112 355.15,-108.97 360.56,-104.6"/>
<polygon fill="#63b8ff" stroke="#63b8ff" points="364.06,-104.33 360.73,-94.28 357.06,-104.22 364.06,-104.33"/>
</a>
</g>
</g>
<!-- Node3 -->
<g id="Node000003" class="node">
<title>Node3</title>
<g id="a_Node000003"><a xlink:href="classcom_1_1teragrep_1_1pth__06_1_1ast_1_1transform_1_1FlattenLogical.html#a3b9085857dc57e88c58a6fa5a057f103" target="_top" xlink:title=" ">
<polygon fill="white" stroke="#666666" points="643,-164 452,-164 452,-134 643,-134 643,-164"/>
<text text-anchor="start" x="460" y="-152" font-family="Helvetica,sans-Serif" font-size="10.00">com.teragrep.pth_06.ast.transform.</text>
<text text-anchor="middle" x="547.5" y="-141" font-family="Helvetica,sans-Serif" font-size="10.00">FlattenLogical.flattenedAndChildren</text>
</a>
</g>
</g>
<!-- Node2&#45;&gt;Node3 -->
<g id="edge2_Node000002_Node000003" class="edge">
<title>Node2&#45;&gt;Node3</title>
<g id="a_edge2_Node000002_Node000003"><a xlink:title=" ">
<path fill="none" stroke="#63b8ff" d="M361.52,-94.04C387.12,-103.52 421.3,-115.69 452,-125 459.15,-127.17 466.65,-129.3 474.16,-131.35"/>
<polygon fill="#63b8ff" stroke="#63b8ff" points="473.44,-134.78 484.01,-133.99 475.25,-128.02 473.44,-134.78"/>
</a>
</g>
</g>
<!-- Node6 -->
<g id="Node000006" class="node">
<title>Node6</title>
<g id="a_Node000006"><a xlink:href="interfacecom_1_1teragrep_1_1pth__06_1_1ast_1_1Expression.html#a8b9661253a3610b9eb148ee29ca8b7e1" target="_top" xlink:title=" ">
<polygon fill="white" stroke="#666666" points="821.5,-73 682.5,-73 682.5,-43 821.5,-43 821.5,-73"/>
<text text-anchor="start" x="690.5" y="-61" font-family="Helvetica,sans-Serif" font-size="10.00">com.teragrep.pth_06.ast.</text>
<text text-anchor="middle" x="752" y="-50" font-family="Helvetica,sans-Serif" font-size="10.00">Expression.tag</text>
</a>
</g>
</g>
<!-- Node2&#45;&gt;Node6 -->
<g id="edge11_Node000002_Node000006" class="edge">
<title>Node2&#45;&gt;Node6</title>
<g id="a_edge11_Node000002_Node000006"><a xlink:title=" ">
<path fill="none" stroke="#63b8ff" d="M416.15,-74.39C492.78,-70.64 599.73,-65.4 671.97,-61.87"/>
<polygon fill="#63b8ff" stroke="#63b8ff" points="672.55,-65.34 682.37,-61.36 672.21,-58.35 672.55,-65.34"/>
</a>
</g>
</g>
<!-- Node7 -->
<g id="Node000007" class="node">
<title>Node7</title>
<g id="a_Node000007"><a xlink:href="classcom_1_1teragrep_1_1pth__06_1_1ast_1_1transform_1_1FlattenLogical.html#ae0b8acc47ab74872494d07da365e303b" target="_top" xlink:title=" ">
<polygon fill="white" stroke="#666666" points="642.5,-116 452.5,-116 452.5,-86 642.5,-86 642.5,-116"/>
<text text-anchor="start" x="460.5" y="-104" font-family="Helvetica,sans-Serif" font-size="10.00">com.teragrep.pth_06.ast.transform.</text>
<text text-anchor="middle" x="547.5" y="-93" font-family="Helvetica,sans-Serif" font-size="10.00">FlattenLogical.flattenedOrChildren</text>
</a>
</g>
</g>
<!-- Node2&#45;&gt;Node7 -->
<g id="edge6_Node000002_Node000007" class="edge">
<title>Node2&#45;&gt;Node7</title>
<g id="a_edge6_Node000002_Node000007"><a xlink:title=" ">
<path fill="none" stroke="#63b8ff" d="M416.23,-88.23C424.77,-89.07 433.45,-89.92 442.07,-90.77"/>
<polygon fill="#63b8ff" stroke="#63b8ff" points="441.86,-94.26 452.15,-91.75 442.54,-87.3 441.86,-94.26"/>
</a>
</g>
</g>
<!-- Node8 -->
<g id="Node000008" class="node">
<title>Node8</title>
<g id="a_Node000008"><a xlink:href="interfacecom_1_1teragrep_1_1pth__06_1_1ast_1_1Expression.html#a65ee7f5fb98e4129018f467a53586842" target="_top" xlink:title=" ">
<polygon fill="white" stroke="#666666" points="617,-30 478,-30 478,0 617,0 617,-30"/>
<text text-anchor="start" x="486" y="-18" font-family="Helvetica,sans-Serif" font-size="10.00">com.teragrep.pth_06.ast.</text>
<text text-anchor="middle" x="547.5" y="-7" font-family="Helvetica,sans-Serif" font-size="10.00">Expression.isLogical</text>
</a>
</g>
</g>
<!-- Node2&#45;&gt;Node8 -->
<g id="edge10_Node000002_Node000008" class="edge">
<title>Node2&#45;&gt;Node8</title>
<g id="a_edge10_Node000002_Node000008"><a xlink:title=" ">
<path fill="none" stroke="#63b8ff" d="M374.64,-63.99C407.31,-54.68 449.48,-42.66 483.87,-32.86"/>
<polygon fill="#63b8ff" stroke="#63b8ff" points="485.15,-36.13 493.81,-30.02 483.23,-29.4 485.15,-36.13"/>
</a>
</g>
</g>
<!-- Node4 -->
<g id="Node000004" class="node">
<title>Node4</title>
<g id="a_Node000004"><a xlink:href="interfacecom_1_1teragrep_1_1pth__06_1_1ast_1_1Expression.html#a17e7d33905be57c6e22e1717da6ddef6" target="_top" xlink:title=" ">
<polygon fill="white" stroke="#666666" points="821.5,-121 682.5,-121 682.5,-91 821.5,-91 821.5,-121"/>
<text text-anchor="start" x="690.5" y="-109" font-family="Helvetica,sans-Serif" font-size="10.00">com.teragrep.pth_06.ast.</text>
<text text-anchor="middle" x="752" y="-98" font-family="Helvetica,sans-Serif" font-size="10.00">Expression.asLogical</text>
</a>
</g>
</g>
<!-- Node3&#45;&gt;Node4 -->
<g id="edge3_Node000003_Node000004" class="edge">
<title>Node3&#45;&gt;Node4</title>
<g id="a_edge3_Node000003_Node000004"><a xlink:title=" ">
<path fill="none" stroke="#63b8ff" d="M619.32,-133.96C636.39,-130.34 654.73,-126.44 672.14,-122.75"/>
<polygon fill="#63b8ff" stroke="#63b8ff" points="673.21,-126.1 682.26,-120.6 671.75,-119.25 673.21,-126.1"/>
</a>
</g>
</g>
<!-- Node5 -->
<g id="Node000005" class="node">
<title>Node5</title>
<g id="a_Node000005"><a xlink:href="interfacecom_1_1teragrep_1_1pth__06_1_1ast_1_1LogicalExpression.html#aeaf8fe296c6899792f345659a9a6c0c4" target="_top" xlink:title=" ">
<polygon fill="white" stroke="#666666" points="825,-169 679,-169 679,-139 825,-139 825,-169"/>
<text text-anchor="start" x="687" y="-157" font-family="Helvetica,sans-Serif" font-size="10.00">com.teragrep.pth_06.ast.</text>
<text text-anchor="middle" x="752" y="-146" font-family="Helvetica,sans-Serif" font-size="10.00">LogicalExpression.children</text>
</a>
</g>
</g>
<!-- Node3&#45;&gt;Node5 -->
<g id="edge4_Node000003_Node000005" class="edge">
<title>Node3&#45;&gt;Node5</title>
<g id="a_edge4_Node000003_Node000005"><a xlink:title=" ">
<path fill="none" stroke="#63b8ff" d="M643.23,-151.34C651.72,-151.55 660.27,-151.76 668.64,-151.97"/>
<polygon fill="#63b8ff" stroke="#63b8ff" points="668.66,-155.47 678.75,-152.22 668.84,-148.47 668.66,-155.47"/>
</a>
</g>
</g>
<!-- Node3&#45;&gt;Node6 -->
<g id="edge5_Node000003_Node000006" class="edge">
<title>Node3&#45;&gt;Node6</title>
<g id="a_edge5_Node000003_Node000006"><a xlink:title=" ">
<path fill="none" stroke="#63b8ff" d="M625.52,-133.88C631.64,-131.36 637.55,-128.42 643,-125 664.1,-111.73 658.4,-96.03 679,-82 681.27,-80.45 683.65,-79 686.1,-77.64"/>
<polygon fill="#63b8ff" stroke="#63b8ff" points="687.87,-80.67 695.25,-73.07 684.74,-74.4 687.87,-80.67"/>
</a>
</g>
</g>
<!-- Node7&#45;&gt;Node4 -->
<g id="edge7_Node000007_Node000004" class="edge">
<title>Node7&#45;&gt;Node4</title>
<g id="a_edge7_Node000007_Node000004"><a xlink:title=" ">
<path fill="none" stroke="#63b8ff" d="M642.64,-103.32C652.6,-103.57 662.66,-103.82 672.42,-104.06"/>
<polygon fill="#63b8ff" stroke="#63b8ff" points="672.39,-107.56 682.47,-104.31 672.56,-100.56 672.39,-107.56"/>
</a>
</g>
</g>
<!-- Node7&#45;&gt;Node5 -->
<g id="edge8_Node000007_Node000005" class="edge">
<title>Node7&#45;&gt;Node5</title>
<g id="a_edge8_Node000007_Node000005"><a xlink:title=" ">
<path fill="none" stroke="#63b8ff" d="M608.27,-116.05C619.8,-118.99 631.78,-122.07 643,-125 656.75,-128.59 671.48,-132.5 685.49,-136.26"/>
<polygon fill="#63b8ff" stroke="#63b8ff" points="684.98,-139.74 695.54,-138.95 686.79,-132.98 684.98,-139.74"/>
</a>
</g>
</g>
<!-- Node7&#45;&gt;Node6 -->
<g id="edge9_Node000007_Node000006" class="edge">
<title>Node7&#45;&gt;Node6</title>
<g id="a_edge9_Node000007_Node000006"><a xlink:title=" ">
<path fill="none" stroke="#63b8ff" d="M619.32,-85.96C636.39,-82.34 654.73,-78.44 672.14,-74.75"/>
<polygon fill="#63b8ff" stroke="#63b8ff" points="673.21,-78.1 682.26,-72.6 671.75,-71.25 673.21,-78.1"/>
</a>
</g>
</g>
</g>
</svg>
