<?xml version="1.0" encoding="UTF-8" standalone="no"?>
<!DOCTYPE svg PUBLIC "-//W3C//DTD SVG 1.1//EN"
 "http://www.w3.org/Graphics/SVG/1.1/DTD/svg11.dtd">
<!-- Generated by graphviz version 2.43.0 (0)
 -->
<!-- Title: com.teragrep.pth_06.planner.BatchSizeLimitedResults.latest Pages: 1 -->
<svg width="391pt" height="62pt"
 viewBox="0.00 0.00 391.00 61.50" xmlns="http://www.w3.org/2000/svg" xmlns:xlink="http://www.w3.org/1999/xlink">
<g id="graph0" class="graph" transform="scale(1 1) rotate(0) translate(4 57.5)">
<title>com.teragrep.pth_06.planner.BatchSizeLimitedResults.latest</title>
<!-- Node1 -->
<g id="Node000001" class="node">
<title>Node1</title>
<g id="a_Node000001"><a xlink:title=" ">
<polygon fill="#999999" stroke="#666666" points="383,-35.5 215,-35.5 215,-5.5 383,-5.5 383,-35.5"/>
<text text-anchor="start" x="223" y="-23.5" font-family="Helvetica,sans-Serif" font-size="10.00">com.teragrep.pth_06.planner.</text>
<text text-anchor="middle" x="299" y="-12.5" font-family="Helvetica,sans-Serif" font-size="10.00">BatchSizeLimitedResults.latest</text>
</a>
</g>
</g>
<!-- Node1&#45;&gt;Node1 -->
<g id="edge1_Node000001_Node000001" class="edge">
<title>Node1&#45;&gt;Node1</title>
<g id="a_edge1_Node000001_Node000001"><a xlink:title=" ">
<path fill="none" stroke="#63b8ff" d="M335.41,-46.1C330.43,-50.47 318.3,-53.5 299,-53.5 266.5,-53.5 254.31,-44.91 262.44,-35.78"/>
<polygon fill="#63b8ff" stroke="#63b8ff" points="338.91,-45.83 335.56,-35.78 331.91,-45.72 338.91,-45.83"/>
</a>
</g>
</g>
<!-- Node2 -->
<g id="Node000002" class="node">
<title>Node2</title>
<g id="a_Node000002"><a xlink:href="classcom_1_1teragrep_1_1pth__06_1_1planner_1_1BatchSizeLimitedResultsTest.html#a408722815fff688649e9162d27412536" target="_top" xlink:title=" ">
<polygon fill="white" stroke="#666666" points="179,-41 0,-41 0,0 179,0 179,-41"/>
<text text-anchor="start" x="8" y="-29" font-family="Helvetica,sans-Serif" font-size="10.00">com.teragrep.pth_06.planner.</text>
<text text-anchor="start" x="8" y="-18" font-family="Helvetica,sans-Serif" font-size="10.00">BatchSizeLimitedResultsTest.test</text>
<text text-anchor="middle" x="89.5" y="-7" font-family="Helvetica,sans-Serif" font-size="10.00">StartingOffset</text>
</a>
</g>
</g>
<!-- Node1&#45;&gt;Node2 -->
<g id="edge2_Node000001_Node000002" class="edge">
<title>Node1&#45;&gt;Node2</title>
<g id="a_edge2_Node000001_Node000002"><a xlink:title=" ">
<path fill="none" stroke="#63b8ff" d="M204.55,-20.5C196.1,-20.5 187.56,-20.5 179.16,-20.5"/>
<polygon fill="#63b8ff" stroke="#63b8ff" points="204.8,-24 214.8,-20.5 204.8,-17 204.8,-24"/>
</a>
</g>
</g>
</g>
</svg>
