<?xml version="1.0" encoding="UTF-8" standalone="no"?>
<!DOCTYPE svg PUBLIC "-//W3C//DTD SVG 1.1//EN"
 "http://www.w3.org/Graphics/SVG/1.1/DTD/svg11.dtd">
<!-- Generated by graphviz version 2.43.0 (0)
 -->
<!-- Title: com.teragrep.pth_06.ast.meta.StreamIDsTest.testMultipleIndex Pages: 1 -->
<svg width="640pt" height="155pt"
 viewBox="0.00 0.00 640.00 155.00" xmlns="http://www.w3.org/2000/svg" xmlns:xlink="http://www.w3.org/1999/xlink">
<g id="graph0" class="graph" transform="scale(1 1) rotate(0) translate(4 151)">
<title>com.teragrep.pth_06.ast.meta.StreamIDsTest.testMultipleIndex</title>
<!-- Node1 -->
<g id="Node000001" class="node">
<title>Node1</title>
<g id="a_Node000001"><a xlink:title=" ">
<polygon fill="#999999" stroke="#666666" points="176,-63 0,-63 0,-33 176,-33 176,-63"/>
<text text-anchor="start" x="8" y="-51" font-family="Helvetica,sans-Serif" font-size="10.00">com.teragrep.pth_06.ast.meta.</text>
<text text-anchor="middle" x="88" y="-40" font-family="Helvetica,sans-Serif" font-size="10.00">StreamIDsTest.testMultipleIndex</text>
</a>
</g>
</g>
<!-- Node2 -->
<g id="Node000002" class="node">
<title>Node2</title>
<g id="a_Node000002"><a xlink:href="classcom_1_1teragrep_1_1pth__06_1_1ast_1_1meta_1_1StreamDBCondition.html#a529cd38cec60771ddde6da97da36dd10" target="_top" xlink:title=" ">
<polygon fill="white" stroke="#666666" points="379,-96 212,-96 212,-66 379,-66 379,-96"/>
<text text-anchor="start" x="220" y="-84" font-family="Helvetica,sans-Serif" font-size="10.00">com.teragrep.pth_06.ast.meta.</text>
<text text-anchor="middle" x="295.5" y="-73" font-family="Helvetica,sans-Serif" font-size="10.00">StreamDBCondition.condition</text>
</a>
</g>
</g>
<!-- Node1&#45;&gt;Node2 -->
<g id="edge1_Node000001_Node000002" class="edge">
<title>Node1&#45;&gt;Node2</title>
<g id="a_edge1_Node000001_Node000002"><a xlink:title=" ">
<path fill="none" stroke="#63b8ff" d="M176.15,-61.99C184.64,-63.36 193.28,-64.75 201.82,-66.12"/>
<polygon fill="#63b8ff" stroke="#63b8ff" points="201.37,-69.59 211.79,-67.72 202.48,-62.68 201.37,-69.59"/>
</a>
</g>
</g>
<!-- Node5 -->
<g id="Node000005" class="node">
<title>Node5</title>
<g id="a_Node000005"><a xlink:href="classcom_1_1teragrep_1_1pth__06_1_1ast_1_1meta_1_1StreamIDs.html#af153e0199d51eccaca5a5cea023e7989" target="_top" xlink:title=" ">
<polygon fill="white" stroke="#666666" points="379,-30 212,-30 212,0 379,0 379,-30"/>
<text text-anchor="start" x="220" y="-18" font-family="Helvetica,sans-Serif" font-size="10.00">com.teragrep.pth_06.ast.meta.</text>
<text text-anchor="middle" x="295.5" y="-7" font-family="Helvetica,sans-Serif" font-size="10.00">StreamIDs.streamIdList</text>
</a>
</g>
</g>
<!-- Node1&#45;&gt;Node5 -->
<g id="edge8_Node000001_Node000005" class="edge">
<title>Node1&#45;&gt;Node5</title>
<g id="a_edge8_Node000001_Node000005"><a xlink:title=" ">
<path fill="none" stroke="#63b8ff" d="M176.15,-34.01C184.64,-32.64 193.28,-31.25 201.82,-29.88"/>
<polygon fill="#63b8ff" stroke="#63b8ff" points="202.48,-33.32 211.79,-28.28 201.37,-26.41 202.48,-33.32"/>
</a>
</g>
</g>
<!-- Node3 -->
<g id="Node000003" class="node">
<title>Node3</title>
<g id="a_Node000003"><a xlink:href="classcom_1_1teragrep_1_1pth__06_1_1ast_1_1meta_1_1StreamDBCondition.html#a3e43c38cb0c9103e08f4b37e95e45b87" target="_top" xlink:title=" ">
<polygon fill="white" stroke="#666666" points="615,-129 432,-129 432,-99 615,-99 615,-129"/>
<text text-anchor="start" x="440" y="-117" font-family="Helvetica,sans-Serif" font-size="10.00">com.teragrep.pth_06.ast.meta.</text>
<text text-anchor="middle" x="523.5" y="-106" font-family="Helvetica,sans-Serif" font-size="10.00">StreamDBCondition.hostCondition</text>
</a>
</g>
</g>
<!-- Node2&#45;&gt;Node3 -->
<g id="edge2_Node000002_Node000003" class="edge">
<title>Node2&#45;&gt;Node3</title>
<g id="a_edge2_Node000002_Node000003"><a xlink:title=" ">
<path fill="none" stroke="#63b8ff" d="M379.05,-86.53C402.67,-89.62 428.2,-93.42 451.09,-97.25"/>
<polygon fill="#63b8ff" stroke="#63b8ff" points="450.61,-100.72 461.06,-98.95 451.79,-93.82 450.61,-100.72"/>
</a>
</g>
</g>
<!-- Node4 -->
<g id="Node000004" class="node">
<title>Node4</title>
<g id="a_Node000004"><a xlink:href="classcom_1_1teragrep_1_1pth__06_1_1ast_1_1meta_1_1StreamDBCondition.html#a2bedf2bbbbc73178de7e2c8872f8d486" target="_top" xlink:title=" ">
<polygon fill="white" stroke="#666666" points="632,-63 415,-63 415,-33 632,-33 632,-63"/>
<text text-anchor="start" x="423" y="-51" font-family="Helvetica,sans-Serif" font-size="10.00">com.teragrep.pth_06.ast.meta.</text>
<text text-anchor="middle" x="523.5" y="-40" font-family="Helvetica,sans-Serif" font-size="10.00">StreamDBCondition.sourceTypeCondition</text>
</a>
</g>
</g>
<!-- Node2&#45;&gt;Node4 -->
<g id="edge5_Node000002_Node000004" class="edge">
<title>Node2&#45;&gt;Node4</title>
<g id="a_edge5_Node000002_Node000004"><a xlink:title=" ">
<path fill="none" stroke="#63b8ff" d="M357.66,-66C372.27,-63.45 388.37,-60.88 404.59,-58.47"/>
<polygon fill="#63b8ff" stroke="#63b8ff" points="405.31,-61.9 414.7,-57 404.3,-54.98 405.31,-61.9"/>
</a>
</g>
</g>
<!-- Node3&#45;&gt;Node2 -->
<g id="edge3_Node000003_Node000002" class="edge">
<title>Node3&#45;&gt;Node2</title>
<g id="a_edge3_Node000003_Node000002"><a xlink:title=" ">
<path fill="none" stroke="#63b8ff" d="M431.57,-107.36C410.32,-104.48 387.98,-101.11 367.73,-97.72"/>
<polygon fill="#63b8ff" stroke="#63b8ff" points="368.11,-94.24 357.66,-96 366.93,-101.14 368.11,-94.24"/>
</a>
</g>
</g>
<!-- Node3&#45;&gt;Node3 -->
<g id="edge4_Node000003_Node000003" class="edge">
<title>Node3&#45;&gt;Node3</title>
<g id="a_edge4_Node000003_Node000003"><a xlink:title=" ">
<path fill="none" stroke="#63b8ff" d="M483.42,-129.28C474.52,-138.41 487.88,-147 523.5,-147 544.65,-147 557.96,-143.97 563.41,-139.6"/>
<polygon fill="#63b8ff" stroke="#63b8ff" points="566.91,-139.33 563.58,-129.28 559.91,-139.22 566.91,-139.33"/>
</a>
</g>
</g>
<!-- Node4&#45;&gt;Node2 -->
<g id="edge6_Node000004_Node000002" class="edge">
<title>Node4&#45;&gt;Node2</title>
<g id="a_edge6_Node000004_Node000002"><a xlink:title=" ">
<path fill="none" stroke="#63b8ff" d="M461.06,-63.05C438.86,-66.91 413.27,-70.84 389,-74.14"/>
<polygon fill="#63b8ff" stroke="#63b8ff" points="388.5,-70.68 379.05,-75.47 389.43,-77.62 388.5,-70.68"/>
</a>
</g>
</g>
<!-- Node4&#45;&gt;Node4 -->
<g id="edge7_Node000004_Node000004" class="edge">
<title>Node4&#45;&gt;Node4</title>
<g id="a_edge7_Node000004_Node000004"><a xlink:title=" ">
<path fill="none" stroke="#63b8ff" d="M483.42,-63.28C474.52,-72.41 487.88,-81 523.5,-81 544.65,-81 557.96,-77.97 563.41,-73.6"/>
<polygon fill="#63b8ff" stroke="#63b8ff" points="566.91,-73.33 563.58,-63.28 559.91,-73.22 566.91,-73.33"/>
</a>
</g>
</g>
<!-- Node5&#45;&gt;Node5 -->
<g id="edge9_Node000005_Node000005" class="edge">
<title>Node5&#45;&gt;Node5</title>
<g id="a_edge9_Node000005_Node000005"><a xlink:title=" ">
<path fill="none" stroke="#63b8ff" d="M259.29,-30.28C251.24,-39.41 263.31,-48 295.5,-48 314.61,-48 326.63,-44.97 331.56,-40.6"/>
<polygon fill="#63b8ff" stroke="#63b8ff" points="335.06,-40.33 331.71,-30.28 328.06,-40.22 335.06,-40.33"/>
</a>
</g>
</g>
</g>
</svg>
