<?xml version="1.0" encoding="UTF-8" standalone="no"?>
<!DOCTYPE svg PUBLIC "-//W3C//DTD SVG 1.1//EN"
 "http://www.w3.org/Graphics/SVG/1.1/DTD/svg11.dtd">
<!-- Generated by graphviz version 2.43.0 (0)
 -->
<!-- Title: com.teragrep.pth_06.ast.analyze.ClassifiedXMLValueExpressions.expressionListFilteredByTag Pages: 1 -->
<svg width="744pt" height="490pt"
 viewBox="0.00 0.00 744.00 490.00" xmlns="http://www.w3.org/2000/svg" xmlns:xlink="http://www.w3.org/1999/xlink">
<g id="graph0" class="graph" transform="scale(1 1) rotate(0) translate(4 486)">
<title>com.teragrep.pth_06.ast.analyze.ClassifiedXMLValueExpressions.expressionListFilteredByTag</title>
<!-- Node1 -->
<g id="Node000001" class="node">
<title>Node1</title>
<g id="a_Node000001"><a xlink:title=" ">
<polygon fill="#999999" stroke="#666666" points="736,-256 510,-256 510,-215 736,-215 736,-256"/>
<text text-anchor="start" x="518" y="-244" font-family="Helvetica,sans-Serif" font-size="10.00">com.teragrep.pth_06.ast.analyze.</text>
<text text-anchor="start" x="518" y="-233" font-family="Helvetica,sans-Serif" font-size="10.00">ClassifiedXMLValueExpressions.expression</text>
<text text-anchor="middle" x="623" y="-222" font-family="Helvetica,sans-Serif" font-size="10.00">ListFilteredByTag</text>
</a>
</g>
</g>
<!-- Node2 -->
<g id="Node000002" class="node">
<title>Node2</title>
<g id="a_Node000002"><a xlink:href="classcom_1_1teragrep_1_1pth__06_1_1ast_1_1analyze_1_1ClassifiedXMLValueExpressions.html#a3b1e321f8a8c9ec24e341536f857432d" target="_top" xlink:title=" ">
<polygon fill="white" stroke="#666666" points="474,-333.5 247,-333.5 247,-303.5 474,-303.5 474,-333.5"/>
<text text-anchor="start" x="255" y="-321.5" font-family="Helvetica,sans-Serif" font-size="10.00">com.teragrep.pth_06.ast.analyze.</text>
<text text-anchor="middle" x="360.5" y="-310.5" font-family="Helvetica,sans-Serif" font-size="10.00">ClassifiedXMLValueExpressions.earliestList</text>
</a>
</g>
</g>
<!-- Node1&#45;&gt;Node2 -->
<g id="edge1_Node000001_Node000002" class="edge">
<title>Node1&#45;&gt;Node2</title>
<g id="a_edge1_Node000001_Node000002"><a xlink:title=" ">
<path fill="none" stroke="#63b8ff" d="M547.95,-259.09C503.25,-273.34 447.61,-291.06 408.8,-303.43"/>
<polygon fill="#63b8ff" stroke="#63b8ff" points="549.14,-262.39 557.61,-256.02 547.02,-255.72 549.14,-262.39"/>
</a>
</g>
</g>
<!-- Node6 -->
<g id="Node000006" class="node">
<title>Node6</title>
<g id="a_Node000006"><a xlink:href="classcom_1_1teragrep_1_1pth__06_1_1ast_1_1analyze_1_1ClassifiedXMLValueExpressions.html#ab993cf439cb31a3e2c3fef27509c5e64" target="_top" xlink:title=" ">
<polygon fill="white" stroke="#666666" points="466,-250.5 255,-250.5 255,-220.5 466,-220.5 466,-250.5"/>
<text text-anchor="start" x="263" y="-238.5" font-family="Helvetica,sans-Serif" font-size="10.00">com.teragrep.pth_06.ast.analyze.</text>
<text text-anchor="middle" x="360.5" y="-227.5" font-family="Helvetica,sans-Serif" font-size="10.00">ClassifiedXMLValueExpressions.hostList</text>
</a>
</g>
</g>
<!-- Node1&#45;&gt;Node6 -->
<g id="edge5_Node000001_Node000006" class="edge">
<title>Node1&#45;&gt;Node6</title>
<g id="a_edge5_Node000001_Node000006"><a xlink:title=" ">
<path fill="none" stroke="#63b8ff" d="M499.43,-235.5C488.28,-235.5 477.06,-235.5 466.09,-235.5"/>
<polygon fill="#63b8ff" stroke="#63b8ff" points="499.63,-239 509.63,-235.5 499.63,-232 499.63,-239"/>
</a>
</g>
</g>
<!-- Node10 -->
<g id="Node000010" class="node">
<title>Node10</title>
<g id="a_Node000010"><a xlink:href="classcom_1_1teragrep_1_1pth__06_1_1ast_1_1analyze_1_1ClassifiedXMLValueExpressions.html#a366291cc5860533b064603f2d3d8e0e3" target="_top" xlink:title=" ">
<polygon fill="white" stroke="#666666" points="469,-142.5 252,-142.5 252,-112.5 469,-112.5 469,-142.5"/>
<text text-anchor="start" x="260" y="-130.5" font-family="Helvetica,sans-Serif" font-size="10.00">com.teragrep.pth_06.ast.analyze.</text>
<text text-anchor="middle" x="360.5" y="-119.5" font-family="Helvetica,sans-Serif" font-size="10.00">ClassifiedXMLValueExpressions.indexList</text>
</a>
</g>
</g>
<!-- Node1&#45;&gt;Node10 -->
<g id="edge10_Node000001_Node000010" class="edge">
<title>Node1&#45;&gt;Node10</title>
<g id="a_edge10_Node000001_Node000010"><a xlink:title=" ">
<path fill="none" stroke="#63b8ff" d="M582.96,-209.42C553.98,-191.12 512.91,-167.36 474,-152.5 464,-148.68 453.27,-145.37 442.54,-142.51"/>
<polygon fill="#63b8ff" stroke="#63b8ff" points="581.23,-212.47 591.55,-214.91 585,-206.57 581.23,-212.47"/>
</a>
</g>
</g>
<!-- Node12 -->
<g id="Node000012" class="node">
<title>Node12</title>
<g id="a_Node000012"><a xlink:href="classcom_1_1teragrep_1_1pth__06_1_1ast_1_1analyze_1_1ClassifiedXMLValueExpressions.html#a9e3e57e37a56a34116b8aa94d5c9f4e1" target="_top" xlink:title=" ">
<polygon fill="white" stroke="#666666" points="469.5,-401.5 251.5,-401.5 251.5,-371.5 469.5,-371.5 469.5,-401.5"/>
<text text-anchor="start" x="259.5" y="-389.5" font-family="Helvetica,sans-Serif" font-size="10.00">com.teragrep.pth_06.ast.analyze.</text>
<text text-anchor="middle" x="360.5" y="-378.5" font-family="Helvetica,sans-Serif" font-size="10.00">ClassifiedXMLValueExpressions.latestList</text>
</a>
</g>
</g>
<!-- Node1&#45;&gt;Node12 -->
<g id="edge14_Node000001_Node000012" class="edge">
<title>Node1&#45;&gt;Node12</title>
<g id="a_edge14_Node000001_Node000012"><a xlink:title=" ">
<path fill="none" stroke="#63b8ff" d="M589.51,-262.7C560.55,-286.03 516.31,-319.42 474,-342.5 453.01,-353.95 428.41,-363.93 407.57,-371.47"/>
<polygon fill="#63b8ff" stroke="#63b8ff" points="592.07,-265.13 597.63,-256.11 587.66,-259.7 592.07,-265.13"/>
</a>
</g>
</g>
<!-- Node14 -->
<g id="Node000014" class="node">
<title>Node14</title>
<g id="a_Node000014"><a xlink:href="classcom_1_1teragrep_1_1pth__06_1_1ast_1_1analyze_1_1ClassifiedXMLValueExpressions.html#ab8fbe6644542de1c19fa2c74340649e9" target="_top" xlink:title=" ">
<polygon fill="white" stroke="#666666" points="463,-202 258,-202 258,-161 463,-161 463,-202"/>
<text text-anchor="start" x="266" y="-190" font-family="Helvetica,sans-Serif" font-size="10.00">com.teragrep.pth_06.ast.analyze.</text>
<text text-anchor="start" x="266" y="-179" font-family="Helvetica,sans-Serif" font-size="10.00">ClassifiedXMLValueExpressions.source</text>
<text text-anchor="middle" x="360.5" y="-168" font-family="Helvetica,sans-Serif" font-size="10.00">TypeList</text>
</a>
</g>
</g>
<!-- Node1&#45;&gt;Node14 -->
<g id="edge18_Node000001_Node000014" class="edge">
<title>Node1&#45;&gt;Node14</title>
<g id="a_edge18_Node000001_Node000014"><a xlink:title=" ">
<path fill="none" stroke="#63b8ff" d="M512.65,-212.83C495.33,-209.24 477.51,-205.55 460.45,-202.01"/>
<polygon fill="#63b8ff" stroke="#63b8ff" points="512.27,-216.33 522.77,-214.93 513.69,-209.47 512.27,-216.33"/>
</a>
</g>
</g>
<!-- Node3 -->
<g id="Node000003" class="node">
<title>Node3</title>
<g id="a_Node000003"><a xlink:href="classcom_1_1teragrep_1_1pth__06_1_1ast_1_1analyze_1_1ScanTimeQualifiers.html#a56c583e4ce9e4f3d169f969e049221c4" target="_top" xlink:title=" ">
<polygon fill="white" stroke="#666666" points="210,-422.5 1,-422.5 1,-392.5 210,-392.5 210,-422.5"/>
<text text-anchor="start" x="9" y="-410.5" font-family="Helvetica,sans-Serif" font-size="10.00">com.teragrep.pth_06.ast.analyze.</text>
<text text-anchor="middle" x="105.5" y="-399.5" font-family="Helvetica,sans-Serif" font-size="10.00">ScanTimeQualifiers.ScanTimeQualifiers</text>
</a>
</g>
</g>
<!-- Node2&#45;&gt;Node3 -->
<g id="edge2_Node000002_Node000003" class="edge">
<title>Node2&#45;&gt;Node3</title>
<g id="a_edge2_Node000002_Node000003"><a xlink:title=" ">
<path fill="none" stroke="#63b8ff" d="M306.9,-337.14C287.76,-344.42 266.14,-353.24 247,-362.5 230.32,-370.56 228.22,-376.68 211,-383.5 202.43,-386.89 193.27,-389.87 184.07,-392.46"/>
<polygon fill="#63b8ff" stroke="#63b8ff" points="308.23,-340.37 316.36,-333.58 305.77,-333.82 308.23,-340.37"/>
</a>
</g>
</g>
<!-- Node4 -->
<g id="Node000004" class="node">
<title>Node4</title>
<g id="a_Node000004"><a xlink:href="classcom_1_1teragrep_1_1pth__06_1_1ast_1_1analyze_1_1ClassifiedXMLValueExpressionsTest.html#a4d8c2493b2094dc2edf3eb20d3913c15" target="_top" xlink:title=" ">
<polygon fill="white" stroke="#666666" points="211,-374 0,-374 0,-333 211,-333 211,-374"/>
<text text-anchor="start" x="8" y="-362" font-family="Helvetica,sans-Serif" font-size="10.00">com.teragrep.pth_06.ast.analyze.</text>
<text text-anchor="start" x="8" y="-351" font-family="Helvetica,sans-Serif" font-size="10.00">ClassifiedXMLValueExpressionsTest.test</text>
<text text-anchor="middle" x="105.5" y="-340" font-family="Helvetica,sans-Serif" font-size="10.00">EarliestList</text>
</a>
</g>
</g>
<!-- Node2&#45;&gt;Node4 -->
<g id="edge3_Node000002_Node000004" class="edge">
<title>Node2&#45;&gt;Node4</title>
<g id="a_edge3_Node000002_Node000004"><a xlink:title=" ">
<path fill="none" stroke="#63b8ff" d="M240.54,-334.96C230.73,-336.31 220.86,-337.68 211.16,-339.02"/>
<polygon fill="#63b8ff" stroke="#63b8ff" points="241.31,-338.38 250.74,-333.55 240.35,-331.45 241.31,-338.38"/>
</a>
</g>
</g>
<!-- Node5 -->
<g id="Node000005" class="node">
<title>Node5</title>
<g id="a_Node000005"><a xlink:href="classcom_1_1teragrep_1_1pth__06_1_1ast_1_1analyze_1_1ClassifiedXMLValueExpressionsTest.html#a80e05202d14981a3ca9ab9b0b734974f" target="_top" xlink:title=" ">
<polygon fill="white" stroke="#666666" points="211,-256 0,-256 0,-215 211,-215 211,-256"/>
<text text-anchor="start" x="8" y="-244" font-family="Helvetica,sans-Serif" font-size="10.00">com.teragrep.pth_06.ast.analyze.</text>
<text text-anchor="start" x="8" y="-233" font-family="Helvetica,sans-Serif" font-size="10.00">ClassifiedXMLValueExpressionsTest.test</text>
<text text-anchor="middle" x="105.5" y="-222" font-family="Helvetica,sans-Serif" font-size="10.00">EmptyList</text>
</a>
</g>
</g>
<!-- Node2&#45;&gt;Node5 -->
<g id="edge4_Node000002_Node000005" class="edge">
<title>Node2&#45;&gt;Node5</title>
<g id="a_edge4_Node000002_Node000005"><a xlink:title=" ">
<path fill="none" stroke="#63b8ff" d="M309.98,-299.94C281.24,-289.39 244.25,-276.19 211,-265.5 201.12,-262.32 190.66,-259.12 180.32,-256.06"/>
<polygon fill="#63b8ff" stroke="#63b8ff" points="308.8,-303.24 319.4,-303.41 311.22,-296.67 308.8,-303.24"/>
</a>
</g>
</g>
<!-- Node6&#45;&gt;Node5 -->
<g id="edge8_Node000006_Node000005" class="edge">
<title>Node6&#45;&gt;Node5</title>
<g id="a_edge8_Node000006_Node000005"><a xlink:title=" ">
<path fill="none" stroke="#63b8ff" d="M244.58,-235.5C233.44,-235.5 222.18,-235.5 211.15,-235.5"/>
<polygon fill="#63b8ff" stroke="#63b8ff" points="244.77,-239 254.77,-235.5 244.77,-232 244.77,-239"/>
</a>
</g>
</g>
<!-- Node7 -->
<g id="Node000007" class="node">
<title>Node7</title>
<g id="a_Node000007"><a xlink:href="classcom_1_1teragrep_1_1pth__06_1_1ast_1_1analyze_1_1FilterGroup.html#ae999688c94e8245d4594e861ab2a7696" target="_top" xlink:title=" ">
<polygon fill="white" stroke="#666666" points="195.5,-196.5 15.5,-196.5 15.5,-166.5 195.5,-166.5 195.5,-196.5"/>
<text text-anchor="start" x="23.5" y="-184.5" font-family="Helvetica,sans-Serif" font-size="10.00">com.teragrep.pth_06.ast.analyze.</text>
<text text-anchor="middle" x="105.5" y="-173.5" font-family="Helvetica,sans-Serif" font-size="10.00">FilterGroup.FilterGroup</text>
</a>
</g>
</g>
<!-- Node6&#45;&gt;Node7 -->
<g id="edge6_Node000006_Node000007" class="edge">
<title>Node6&#45;&gt;Node7</title>
<g id="a_edge6_Node000006_Node000007"><a xlink:title=" ">
<path fill="none" stroke="#63b8ff" d="M279.12,-218.36C268.33,-216.05 257.39,-213.72 247,-211.5 224.19,-206.63 199.3,-201.32 176.9,-196.53"/>
<polygon fill="#63b8ff" stroke="#63b8ff" points="278.48,-221.8 288.99,-220.46 279.94,-214.95 278.48,-221.8"/>
</a>
</g>
</g>
<!-- Node8 -->
<g id="Node000008" class="node">
<title>Node8</title>
<g id="a_Node000008"><a xlink:href="classcom_1_1teragrep_1_1pth__06_1_1ast_1_1analyze_1_1StreamIDGroup.html#aba8cdfb8f3c8e67484434e04d98d89d6" target="_top" xlink:title=" ">
<polygon fill="white" stroke="#666666" points="195.5,-148.5 15.5,-148.5 15.5,-118.5 195.5,-118.5 195.5,-148.5"/>
<text text-anchor="start" x="23.5" y="-136.5" font-family="Helvetica,sans-Serif" font-size="10.00">com.teragrep.pth_06.ast.analyze.</text>
<text text-anchor="middle" x="105.5" y="-125.5" font-family="Helvetica,sans-Serif" font-size="10.00">StreamIDGroup.StreamIDGroup</text>
</a>
</g>
</g>
<!-- Node6&#45;&gt;Node8 -->
<g id="edge7_Node000006_Node000008" class="edge">
<title>Node6&#45;&gt;Node8</title>
<g id="a_edge7_Node000006_Node000008"><a xlink:title=" ">
<path fill="none" stroke="#63b8ff" d="M254.08,-215.86C251.65,-214.5 249.28,-213.05 247,-211.5 223.14,-195.3 234.74,-173.89 211,-157.5 206.02,-154.06 200.62,-151.11 194.99,-148.58"/>
<polygon fill="#63b8ff" stroke="#63b8ff" points="252.63,-219.05 263.14,-220.41 255.77,-212.8 252.63,-219.05"/>
</a>
</g>
</g>
<!-- Node9 -->
<g id="Node000009" class="node">
<title>Node9</title>
<g id="a_Node000009"><a xlink:href="classcom_1_1teragrep_1_1pth__06_1_1ast_1_1analyze_1_1ClassifiedXMLValueExpressionsTest.html#a869b1f661cc0397927ebc4c3d6ccdf22" target="_top" xlink:title=" ">
<polygon fill="white" stroke="#666666" points="211,-315 0,-315 0,-274 211,-274 211,-315"/>
<text text-anchor="start" x="8" y="-303" font-family="Helvetica,sans-Serif" font-size="10.00">com.teragrep.pth_06.ast.analyze.</text>
<text text-anchor="start" x="8" y="-292" font-family="Helvetica,sans-Serif" font-size="10.00">ClassifiedXMLValueExpressionsTest.test</text>
<text text-anchor="middle" x="105.5" y="-281" font-family="Helvetica,sans-Serif" font-size="10.00">HostList</text>
</a>
</g>
</g>
<!-- Node6&#45;&gt;Node9 -->
<g id="edge9_Node000006_Node000009" class="edge">
<title>Node6&#45;&gt;Node9</title>
<g id="a_edge9_Node000006_Node000009"><a xlink:title=" ">
<path fill="none" stroke="#63b8ff" d="M285.17,-252.83C256.83,-259.44 224.25,-267.04 194.74,-273.92"/>
<polygon fill="#63b8ff" stroke="#63b8ff" points="286.06,-256.22 295,-250.54 284.47,-249.4 286.06,-256.22"/>
</a>
</g>
</g>
<!-- Node10&#45;&gt;Node5 -->
<g id="edge12_Node000010_Node000005" class="edge">
<title>Node10&#45;&gt;Node5</title>
<g id="a_edge12_Node000010_Node000005"><a xlink:title=" ">
<path fill="none" stroke="#63b8ff" d="M256.2,-146.96C253.02,-148.66 249.94,-150.5 247,-152.5 223.44,-168.49 234.06,-188.8 211,-205.5 206.11,-209.04 200.81,-212.17 195.27,-214.93"/>
<polygon fill="#63b8ff" stroke="#63b8ff" points="257.9,-150.03 265.41,-142.55 254.87,-143.72 257.9,-150.03"/>
</a>
</g>
</g>
<!-- Node10&#45;&gt;Node8 -->
<g id="edge11_Node000010_Node000008" class="edge">
<title>Node10&#45;&gt;Node8</title>
<g id="a_edge11_Node000010_Node000008"><a xlink:title=" ">
<path fill="none" stroke="#63b8ff" d="M241.72,-130.29C226.26,-130.66 210.63,-131.03 195.75,-131.38"/>
<polygon fill="#63b8ff" stroke="#63b8ff" points="241.92,-133.79 251.84,-130.05 241.76,-126.79 241.92,-133.79"/>
</a>
</g>
</g>
<!-- Node11 -->
<g id="Node000011" class="node">
<title>Node11</title>
<g id="a_Node000011"><a xlink:href="classcom_1_1teragrep_1_1pth__06_1_1ast_1_1analyze_1_1ClassifiedXMLValueExpressionsTest.html#ac2d91d072b1607adaf98b20a9e18295e" target="_top" xlink:title=" ">
<polygon fill="white" stroke="#666666" points="211,-41 0,-41 0,0 211,0 211,-41"/>
<text text-anchor="start" x="8" y="-29" font-family="Helvetica,sans-Serif" font-size="10.00">com.teragrep.pth_06.ast.analyze.</text>
<text text-anchor="start" x="8" y="-18" font-family="Helvetica,sans-Serif" font-size="10.00">ClassifiedXMLValueExpressionsTest.test</text>
<text text-anchor="middle" x="105.5" y="-7" font-family="Helvetica,sans-Serif" font-size="10.00">IndexList</text>
</a>
</g>
</g>
<!-- Node10&#45;&gt;Node11 -->
<g id="edge13_Node000010_Node000011" class="edge">
<title>Node10&#45;&gt;Node11</title>
<g id="a_edge13_Node000010_Node000011"><a xlink:title=" ">
<path fill="none" stroke="#63b8ff" d="M326.15,-107.34C296.67,-90.18 252.1,-65.78 211,-49.5 203.39,-46.48 195.34,-43.65 187.23,-41.04"/>
<polygon fill="#63b8ff" stroke="#63b8ff" points="324.39,-110.37 334.79,-112.42 327.94,-104.34 324.39,-110.37"/>
</a>
</g>
</g>
<!-- Node12&#45;&gt;Node3 -->
<g id="edge15_Node000012_Node000003" class="edge">
<title>Node12&#45;&gt;Node3</title>
<g id="a_edge15_Node000012_Node000003"><a xlink:title=" ">
<path fill="none" stroke="#63b8ff" d="M241.48,-396.3C231.02,-397.16 220.48,-398.04 210.15,-398.9"/>
<polygon fill="#63b8ff" stroke="#63b8ff" points="241.8,-399.78 251.47,-395.47 241.22,-392.81 241.8,-399.78"/>
</a>
</g>
</g>
<!-- Node12&#45;&gt;Node5 -->
<g id="edge16_Node000012_Node000005" class="edge">
<title>Node12&#45;&gt;Node5</title>
<g id="a_edge16_Node000012_Node000005"><a xlink:title=" ">
<path fill="none" stroke="#63b8ff" d="M287.31,-367.66C272.75,-361.41 258.42,-353.21 247,-342.5 219.44,-316.66 239.73,-290.02 211,-265.5 206.84,-261.95 202.28,-258.81 197.46,-256.05"/>
<polygon fill="#63b8ff" stroke="#63b8ff" points="286.31,-371.03 296.89,-371.49 288.91,-364.53 286.31,-371.03"/>
</a>
</g>
</g>
<!-- Node13 -->
<g id="Node000013" class="node">
<title>Node13</title>
<g id="a_Node000013"><a xlink:href="classcom_1_1teragrep_1_1pth__06_1_1ast_1_1analyze_1_1ClassifiedXMLValueExpressionsTest.html#a68063d423ac469001569849b4b5c83b8" target="_top" xlink:title=" ">
<polygon fill="white" stroke="#666666" points="211,-482 0,-482 0,-441 211,-441 211,-482"/>
<text text-anchor="start" x="8" y="-470" font-family="Helvetica,sans-Serif" font-size="10.00">com.teragrep.pth_06.ast.analyze.</text>
<text text-anchor="start" x="8" y="-459" font-family="Helvetica,sans-Serif" font-size="10.00">ClassifiedXMLValueExpressionsTest.test</text>
<text text-anchor="middle" x="105.5" y="-448" font-family="Helvetica,sans-Serif" font-size="10.00">LatestList</text>
</a>
</g>
</g>
<!-- Node12&#45;&gt;Node13 -->
<g id="edge17_Node000012_Node000013" class="edge">
<title>Node12&#45;&gt;Node13</title>
<g id="a_edge17_Node000012_Node000013"><a xlink:title=" ">
<path fill="none" stroke="#63b8ff" d="M300.62,-404.56C273.38,-412.86 240.57,-422.78 211,-431.5 200.5,-434.6 189.39,-437.83 178.49,-440.98"/>
<polygon fill="#63b8ff" stroke="#63b8ff" points="301.85,-407.84 310.39,-401.58 299.81,-401.15 301.85,-407.84"/>
</a>
</g>
</g>
<!-- Node14&#45;&gt;Node5 -->
<g id="edge21_Node000014_Node000005" class="edge">
<title>Node14&#45;&gt;Node5</title>
<g id="a_edge21_Node000014_Node000005"><a xlink:title=" ">
<path fill="none" stroke="#63b8ff" d="M253.29,-204.17C236.48,-207.76 219.17,-211.45 202.6,-214.99"/>
<polygon fill="#63b8ff" stroke="#63b8ff" points="254.08,-207.58 263.13,-202.07 252.62,-200.73 254.08,-207.58"/>
</a>
</g>
</g>
<!-- Node14&#45;&gt;Node7 -->
<g id="edge19_Node000014_Node000007" class="edge">
<title>Node14&#45;&gt;Node7</title>
<g id="a_edge19_Node000014_Node000007"><a xlink:title=" ">
<path fill="none" stroke="#63b8ff" d="M247.56,-181.5C230.26,-181.5 212.59,-181.5 195.88,-181.5"/>
<polygon fill="#63b8ff" stroke="#63b8ff" points="247.69,-185 257.69,-181.5 247.69,-178 247.69,-185"/>
</a>
</g>
</g>
<!-- Node14&#45;&gt;Node8 -->
<g id="edge20_Node000014_Node000008" class="edge">
<title>Node14&#45;&gt;Node8</title>
<g id="a_edge20_Node000014_Node000008"><a xlink:title=" ">
<path fill="none" stroke="#63b8ff" d="M247.83,-160.31C226.97,-156.36 205.57,-152.3 185.94,-148.57"/>
<polygon fill="#63b8ff" stroke="#63b8ff" points="247.21,-163.76 257.69,-162.18 248.52,-156.88 247.21,-163.76"/>
</a>
</g>
</g>
<!-- Node15 -->
<g id="Node000015" class="node">
<title>Node15</title>
<g id="a_Node000015"><a xlink:href="classcom_1_1teragrep_1_1pth__06_1_1ast_1_1analyze_1_1ClassifiedXMLValueExpressionsTest.html#a1d872ecc3fb6713a38c5d9493b79d2b4" target="_top" xlink:title=" ">
<polygon fill="white" stroke="#666666" points="211,-100 0,-100 0,-59 211,-59 211,-100"/>
<text text-anchor="start" x="8" y="-88" font-family="Helvetica,sans-Serif" font-size="10.00">com.teragrep.pth_06.ast.analyze.</text>
<text text-anchor="start" x="8" y="-77" font-family="Helvetica,sans-Serif" font-size="10.00">ClassifiedXMLValueExpressionsTest.test</text>
<text text-anchor="middle" x="105.5" y="-66" font-family="Helvetica,sans-Serif" font-size="10.00">SourceTypeList</text>
</a>
</g>
</g>
<!-- Node14&#45;&gt;Node15 -->
<g id="edge22_Node000014_Node000015" class="edge">
<title>Node14&#45;&gt;Node15</title>
<g id="a_edge22_Node000014_Node000015"><a xlink:title=" ">
<path fill="none" stroke="#63b8ff" d="M255.76,-156.52C252.75,-154.95 249.82,-153.28 247,-151.5 226.19,-138.41 231.69,-122.79 211,-109.5 205.52,-105.98 199.62,-102.87 193.51,-100.11"/>
<polygon fill="#63b8ff" stroke="#63b8ff" points="254.45,-159.78 264.98,-160.95 257.48,-153.47 254.45,-159.78"/>
</a>
</g>
</g>
</g>
</svg>
