<?xml version="1.0" encoding="UTF-8" standalone="no"?>
<!DOCTYPE svg PUBLIC "-//W3C//DTD SVG 1.1//EN"
 "http://www.w3.org/Graphics/SVG/1.1/DTD/svg11.dtd">
<!-- Generated by graphviz version 2.43.0 (0)
 -->
<!-- Title: com.teragrep.pth_06.ast.meta.StreamIDsTest.testSingleIndex Pages: 1 -->
<svg width="631pt" height="155pt"
 viewBox="0.00 0.00 631.00 155.00" xmlns="http://www.w3.org/2000/svg" xmlns:xlink="http://www.w3.org/1999/xlink">
<g id="graph0" class="graph" transform="scale(1 1) rotate(0) translate(4 151)">
<title>com.teragrep.pth_06.ast.meta.StreamIDsTest.testSingleIndex</title>
<!-- Node1 -->
<g id="Node000001" class="node">
<title>Node1</title>
<g id="a_Node000001"><a xlink:title=" ">
<polygon fill="#999999" stroke="#666666" points="167,-63 0,-63 0,-33 167,-33 167,-63"/>
<text text-anchor="start" x="8" y="-51" font-family="Helvetica,sans-Serif" font-size="10.00">com.teragrep.pth_06.ast.meta.</text>
<text text-anchor="middle" x="83.5" y="-40" font-family="Helvetica,sans-Serif" font-size="10.00">StreamIDsTest.testSingleIndex</text>
</a>
</g>
</g>
<!-- Node2 -->
<g id="Node000002" class="node">
<title>Node2</title>
<g id="a_Node000002"><a xlink:href="classcom_1_1teragrep_1_1pth__06_1_1ast_1_1meta_1_1StreamDBCondition.html#a529cd38cec60771ddde6da97da36dd10" target="_top" xlink:title=" ">
<polygon fill="white" stroke="#666666" points="370,-96 203,-96 203,-66 370,-66 370,-96"/>
<text text-anchor="start" x="211" y="-84" font-family="Helvetica,sans-Serif" font-size="10.00">com.teragrep.pth_06.ast.meta.</text>
<text text-anchor="middle" x="286.5" y="-73" font-family="Helvetica,sans-Serif" font-size="10.00">StreamDBCondition.condition</text>
</a>
</g>
</g>
<!-- Node1&#45;&gt;Node2 -->
<g id="edge1_Node000001_Node000002" class="edge">
<title>Node1&#45;&gt;Node2</title>
<g id="a_edge1_Node000001_Node000002"><a xlink:title=" ">
<path fill="none" stroke="#63b8ff" d="M167.12,-61.57C175.61,-62.96 184.27,-64.38 192.85,-65.79"/>
<polygon fill="#63b8ff" stroke="#63b8ff" points="192.44,-69.27 202.87,-67.43 193.57,-62.36 192.44,-69.27"/>
</a>
</g>
</g>
<!-- Node5 -->
<g id="Node000005" class="node">
<title>Node5</title>
<g id="a_Node000005"><a xlink:href="classcom_1_1teragrep_1_1pth__06_1_1ast_1_1meta_1_1StreamIDs.html#af153e0199d51eccaca5a5cea023e7989" target="_top" xlink:title=" ">
<polygon fill="white" stroke="#666666" points="370,-30 203,-30 203,0 370,0 370,-30"/>
<text text-anchor="start" x="211" y="-18" font-family="Helvetica,sans-Serif" font-size="10.00">com.teragrep.pth_06.ast.meta.</text>
<text text-anchor="middle" x="286.5" y="-7" font-family="Helvetica,sans-Serif" font-size="10.00">StreamIDs.streamIdList</text>
</a>
</g>
</g>
<!-- Node1&#45;&gt;Node5 -->
<g id="edge8_Node000001_Node000005" class="edge">
<title>Node1&#45;&gt;Node5</title>
<g id="a_edge8_Node000001_Node000005"><a xlink:title=" ">
<path fill="none" stroke="#63b8ff" d="M167.12,-34.43C175.61,-33.04 184.27,-31.62 192.85,-30.21"/>
<polygon fill="#63b8ff" stroke="#63b8ff" points="193.57,-33.64 202.87,-28.57 192.44,-26.73 193.57,-33.64"/>
</a>
</g>
</g>
<!-- Node3 -->
<g id="Node000003" class="node">
<title>Node3</title>
<g id="a_Node000003"><a xlink:href="classcom_1_1teragrep_1_1pth__06_1_1ast_1_1meta_1_1StreamDBCondition.html#a3e43c38cb0c9103e08f4b37e95e45b87" target="_top" xlink:title=" ">
<polygon fill="white" stroke="#666666" points="606,-129 423,-129 423,-99 606,-99 606,-129"/>
<text text-anchor="start" x="431" y="-117" font-family="Helvetica,sans-Serif" font-size="10.00">com.teragrep.pth_06.ast.meta.</text>
<text text-anchor="middle" x="514.5" y="-106" font-family="Helvetica,sans-Serif" font-size="10.00">StreamDBCondition.hostCondition</text>
</a>
</g>
</g>
<!-- Node2&#45;&gt;Node3 -->
<g id="edge2_Node000002_Node000003" class="edge">
<title>Node2&#45;&gt;Node3</title>
<g id="a_edge2_Node000002_Node000003"><a xlink:title=" ">
<path fill="none" stroke="#63b8ff" d="M370.05,-86.53C393.67,-89.62 419.2,-93.42 442.09,-97.25"/>
<polygon fill="#63b8ff" stroke="#63b8ff" points="441.61,-100.72 452.06,-98.95 442.79,-93.82 441.61,-100.72"/>
</a>
</g>
</g>
<!-- Node4 -->
<g id="Node000004" class="node">
<title>Node4</title>
<g id="a_Node000004"><a xlink:href="classcom_1_1teragrep_1_1pth__06_1_1ast_1_1meta_1_1StreamDBCondition.html#a2bedf2bbbbc73178de7e2c8872f8d486" target="_top" xlink:title=" ">
<polygon fill="white" stroke="#666666" points="623,-63 406,-63 406,-33 623,-33 623,-63"/>
<text text-anchor="start" x="414" y="-51" font-family="Helvetica,sans-Serif" font-size="10.00">com.teragrep.pth_06.ast.meta.</text>
<text text-anchor="middle" x="514.5" y="-40" font-family="Helvetica,sans-Serif" font-size="10.00">StreamDBCondition.sourceTypeCondition</text>
</a>
</g>
</g>
<!-- Node2&#45;&gt;Node4 -->
<g id="edge5_Node000002_Node000004" class="edge">
<title>Node2&#45;&gt;Node4</title>
<g id="a_edge5_Node000002_Node000004"><a xlink:title=" ">
<path fill="none" stroke="#63b8ff" d="M348.66,-66C363.27,-63.45 379.37,-60.88 395.59,-58.47"/>
<polygon fill="#63b8ff" stroke="#63b8ff" points="396.31,-61.9 405.7,-57 395.3,-54.98 396.31,-61.9"/>
</a>
</g>
</g>
<!-- Node3&#45;&gt;Node2 -->
<g id="edge3_Node000003_Node000002" class="edge">
<title>Node3&#45;&gt;Node2</title>
<g id="a_edge3_Node000003_Node000002"><a xlink:title=" ">
<path fill="none" stroke="#63b8ff" d="M422.57,-107.36C401.32,-104.48 378.98,-101.11 358.73,-97.72"/>
<polygon fill="#63b8ff" stroke="#63b8ff" points="359.11,-94.24 348.66,-96 357.93,-101.14 359.11,-94.24"/>
</a>
</g>
</g>
<!-- Node3&#45;&gt;Node3 -->
<g id="edge4_Node000003_Node000003" class="edge">
<title>Node3&#45;&gt;Node3</title>
<g id="a_edge4_Node000003_Node000003"><a xlink:title=" ">
<path fill="none" stroke="#63b8ff" d="M474.42,-129.28C465.52,-138.41 478.88,-147 514.5,-147 535.65,-147 548.96,-143.97 554.41,-139.6"/>
<polygon fill="#63b8ff" stroke="#63b8ff" points="557.91,-139.33 554.58,-129.28 550.91,-139.22 557.91,-139.33"/>
</a>
</g>
</g>
<!-- Node4&#45;&gt;Node2 -->
<g id="edge6_Node000004_Node000002" class="edge">
<title>Node4&#45;&gt;Node2</title>
<g id="a_edge6_Node000004_Node000002"><a xlink:title=" ">
<path fill="none" stroke="#63b8ff" d="M452.06,-63.05C429.86,-66.91 404.27,-70.84 380,-74.14"/>
<polygon fill="#63b8ff" stroke="#63b8ff" points="379.5,-70.68 370.05,-75.47 380.43,-77.62 379.5,-70.68"/>
</a>
</g>
</g>
<!-- Node4&#45;&gt;Node4 -->
<g id="edge7_Node000004_Node000004" class="edge">
<title>Node4&#45;&gt;Node4</title>
<g id="a_edge7_Node000004_Node000004"><a xlink:title=" ">
<path fill="none" stroke="#63b8ff" d="M474.42,-63.28C465.52,-72.41 478.88,-81 514.5,-81 535.65,-81 548.96,-77.97 554.41,-73.6"/>
<polygon fill="#63b8ff" stroke="#63b8ff" points="557.91,-73.33 554.58,-63.28 550.91,-73.22 557.91,-73.33"/>
</a>
</g>
</g>
<!-- Node5&#45;&gt;Node5 -->
<g id="edge9_Node000005_Node000005" class="edge">
<title>Node5&#45;&gt;Node5</title>
<g id="a_edge9_Node000005_Node000005"><a xlink:title=" ">
<path fill="none" stroke="#63b8ff" d="M250.99,-30.28C243.1,-39.41 254.94,-48 286.5,-48 305.24,-48 317.03,-44.97 321.86,-40.6"/>
<polygon fill="#63b8ff" stroke="#63b8ff" points="325.36,-40.33 322.01,-30.28 318.36,-40.22 325.36,-40.33"/>
</a>
</g>
</g>
</g>
</svg>
