<?xml version="1.0" encoding="UTF-8" standalone="no"?>
<!DOCTYPE svg PUBLIC "-//W3C//DTD SVG 1.1//EN"
 "http://www.w3.org/Graphics/SVG/1.1/DTD/svg11.dtd">
<!-- Generated by graphviz version 2.43.0 (0)
 -->
<!-- Title: com.teragrep.pth_06.ast.xml.XMLValueExpressionImplTest.testExpression Pages: 1 -->
<svg width="391pt" height="86pt"
 viewBox="0.00 0.00 391.00 86.00" xmlns="http://www.w3.org/2000/svg" xmlns:xlink="http://www.w3.org/1999/xlink">
<g id="graph0" class="graph" transform="scale(1 1) rotate(0) translate(4 82)">
<title>com.teragrep.pth_06.ast.xml.XMLValueExpressionImplTest.testExpression</title>
<!-- Node1 -->
<g id="Node000001" class="node">
<title>Node1</title>
<g id="a_Node000001"><a xlink:title=" ">
<polygon fill="#999999" stroke="#666666" points="180,-59.5 0,-59.5 0,-18.5 180,-18.5 180,-59.5"/>
<text text-anchor="start" x="8" y="-47.5" font-family="Helvetica,sans-Serif" font-size="10.00">com.teragrep.pth_06.ast.xml.</text>
<text text-anchor="start" x="8" y="-36.5" font-family="Helvetica,sans-Serif" font-size="10.00">XMLValueExpressionImplTest.test</text>
<text text-anchor="middle" x="90" y="-25.5" font-family="Helvetica,sans-Serif" font-size="10.00">Expression</text>
</a>
</g>
</g>
<!-- Node2 -->
<g id="Node000002" class="node">
<title>Node2</title>
<g id="a_Node000002"><a xlink:href="interfacecom_1_1teragrep_1_1pth__06_1_1ast_1_1xml_1_1XMLValueExpression.html#a67b83a8e8369c872d74281d3af43c64e" target="_top" xlink:title=" ">
<polygon fill="white" stroke="#666666" points="383,-78 216,-78 216,-48 383,-48 383,-78"/>
<text text-anchor="start" x="224" y="-66" font-family="Helvetica,sans-Serif" font-size="10.00">com.teragrep.pth_06.ast.xml.</text>
<text text-anchor="middle" x="299.5" y="-55" font-family="Helvetica,sans-Serif" font-size="10.00">XMLValueExpression.operation</text>
</a>
</g>
</g>
<!-- Node1&#45;&gt;Node2 -->
<g id="edge1_Node000001_Node000002" class="edge">
<title>Node1&#45;&gt;Node2</title>
<g id="a_edge1_Node000001_Node000002"><a xlink:title=" ">
<path fill="none" stroke="#63b8ff" d="M180.2,-49.32C188.73,-50.3 197.39,-51.31 205.95,-52.3"/>
<polygon fill="#63b8ff" stroke="#63b8ff" points="205.6,-55.78 215.93,-53.45 206.4,-48.82 205.6,-55.78"/>
</a>
</g>
</g>
<!-- Node3 -->
<g id="Node000003" class="node">
<title>Node3</title>
<g id="a_Node000003"><a xlink:href="interfacecom_1_1teragrep_1_1pth__06_1_1ast_1_1LeafExpression.html#a926680907d1b153a1e7c3e8c1361467c" target="_top" xlink:title=" ">
<polygon fill="white" stroke="#666666" points="369,-30 230,-30 230,0 369,0 369,-30"/>
<text text-anchor="start" x="238" y="-18" font-family="Helvetica,sans-Serif" font-size="10.00">com.teragrep.pth_06.ast.</text>
<text text-anchor="middle" x="299.5" y="-7" font-family="Helvetica,sans-Serif" font-size="10.00">LeafExpression.value</text>
</a>
</g>
</g>
<!-- Node1&#45;&gt;Node3 -->
<g id="edge2_Node000001_Node000003" class="edge">
<title>Node1&#45;&gt;Node3</title>
<g id="a_edge2_Node000001_Node000003"><a xlink:title=" ">
<path fill="none" stroke="#63b8ff" d="M180.2,-28.68C193.29,-27.17 206.69,-25.62 219.56,-24.13"/>
<polygon fill="#63b8ff" stroke="#63b8ff" points="220.21,-27.58 229.74,-22.95 219.4,-20.63 220.21,-27.58"/>
</a>
</g>
</g>
</g>
</svg>
