<?xml version="1.0" encoding="UTF-8" standalone="no"?>
<!DOCTYPE svg PUBLIC "-//W3C//DTD SVG 1.1//EN"
 "http://www.w3.org/Graphics/SVG/1.1/DTD/svg11.dtd">
<!-- Generated by graphviz version 2.43.0 (0)
 -->
<!-- Title: com.teragrep.pth_06.ast.analyze.FilterGroup.FilterGroup Pages: 1 -->
<svg width="697pt" height="98pt"
 viewBox="0.00 0.00 697.00 97.50" xmlns="http://www.w3.org/2000/svg" xmlns:xlink="http://www.w3.org/1999/xlink">
<g id="graph0" class="graph" transform="scale(1 1) rotate(0) translate(4 93.5)">
<title>com.teragrep.pth_06.ast.analyze.FilterGroup.FilterGroup</title>
<!-- Node1 -->
<g id="Node000001" class="node">
<title>Node1</title>
<g id="a_Node000001"><a xlink:title=" ">
<polygon fill="#999999" stroke="#666666" points="180,-62.5 0,-62.5 0,-32.5 180,-32.5 180,-62.5"/>
<text text-anchor="start" x="8" y="-50.5" font-family="Helvetica,sans-Serif" font-size="10.00">com.teragrep.pth_06.ast.analyze.</text>
<text text-anchor="middle" x="90" y="-39.5" font-family="Helvetica,sans-Serif" font-size="10.00">FilterGroup.FilterGroup</text>
</a>
</g>
</g>
<!-- Node2 -->
<g id="Node000002" class="node">
<title>Node2</title>
<g id="a_Node000002"><a xlink:href="classcom_1_1teragrep_1_1pth__06_1_1ast_1_1analyze_1_1ClassifiedXMLValueExpressions.html#ab993cf439cb31a3e2c3fef27509c5e64" target="_top" xlink:title=" ">
<polygon fill="white" stroke="#666666" points="427,-89.5 216,-89.5 216,-59.5 427,-59.5 427,-89.5"/>
<text text-anchor="start" x="224" y="-77.5" font-family="Helvetica,sans-Serif" font-size="10.00">com.teragrep.pth_06.ast.analyze.</text>
<text text-anchor="middle" x="321.5" y="-66.5" font-family="Helvetica,sans-Serif" font-size="10.00">ClassifiedXMLValueExpressions.hostList</text>
</a>
</g>
</g>
<!-- Node1&#45;&gt;Node2 -->
<g id="edge1_Node000001_Node000002" class="edge">
<title>Node1&#45;&gt;Node2</title>
<g id="a_edge1_Node000001_Node000002"><a xlink:title=" ">
<path fill="none" stroke="#63b8ff" d="M180.06,-57.98C188.48,-58.97 197.1,-59.98 205.72,-61"/>
<polygon fill="#63b8ff" stroke="#63b8ff" points="205.48,-64.49 215.82,-62.18 206.3,-57.54 205.48,-64.49"/>
</a>
</g>
</g>
<!-- Node4 -->
<g id="Node000004" class="node">
<title>Node4</title>
<g id="a_Node000004"><a xlink:href="classcom_1_1teragrep_1_1pth__06_1_1ast_1_1analyze_1_1ClassifiedXMLValueExpressions.html#ab8fbe6644542de1c19fa2c74340649e9" target="_top" xlink:title=" ">
<polygon fill="white" stroke="#666666" points="424,-41 219,-41 219,0 424,0 424,-41"/>
<text text-anchor="start" x="227" y="-29" font-family="Helvetica,sans-Serif" font-size="10.00">com.teragrep.pth_06.ast.analyze.</text>
<text text-anchor="start" x="227" y="-18" font-family="Helvetica,sans-Serif" font-size="10.00">ClassifiedXMLValueExpressions.source</text>
<text text-anchor="middle" x="321.5" y="-7" font-family="Helvetica,sans-Serif" font-size="10.00">TypeList</text>
</a>
</g>
</g>
<!-- Node1&#45;&gt;Node4 -->
<g id="edge3_Node000001_Node000004" class="edge">
<title>Node1&#45;&gt;Node4</title>
<g id="a_edge3_Node000001_Node000004"><a xlink:title=" ">
<path fill="none" stroke="#63b8ff" d="M180.06,-37.02C189.5,-35.91 199.19,-34.77 208.85,-33.63"/>
<polygon fill="#63b8ff" stroke="#63b8ff" points="209.38,-37.1 218.9,-32.45 208.56,-30.15 209.38,-37.1"/>
</a>
</g>
</g>
<!-- Node3 -->
<g id="Node000003" class="node">
<title>Node3</title>
<g id="a_Node000003"><a xlink:href="classcom_1_1teragrep_1_1pth__06_1_1ast_1_1analyze_1_1ClassifiedXMLValueExpressions.html#a233e7554e04af8008778c500093a1e3b" target="_top" xlink:title=" ">
<polygon fill="white" stroke="#666666" points="689,-68 463,-68 463,-27 689,-27 689,-68"/>
<text text-anchor="start" x="471" y="-56" font-family="Helvetica,sans-Serif" font-size="10.00">com.teragrep.pth_06.ast.analyze.</text>
<text text-anchor="start" x="471" y="-45" font-family="Helvetica,sans-Serif" font-size="10.00">ClassifiedXMLValueExpressions.expression</text>
<text text-anchor="middle" x="576" y="-34" font-family="Helvetica,sans-Serif" font-size="10.00">ListFilteredByTag</text>
</a>
</g>
</g>
<!-- Node2&#45;&gt;Node3 -->
<g id="edge2_Node000002_Node000003" class="edge">
<title>Node2&#45;&gt;Node3</title>
<g id="a_edge2_Node000002_Node000003"><a xlink:title=" ">
<path fill="none" stroke="#63b8ff" d="M427.02,-63.32C435.51,-62.42 444.13,-61.49 452.72,-60.58"/>
<polygon fill="#63b8ff" stroke="#63b8ff" points="453.22,-64.04 462.79,-59.5 452.47,-57.08 453.22,-64.04"/>
</a>
</g>
</g>
<!-- Node4&#45;&gt;Node3 -->
<g id="edge4_Node000004_Node000003" class="edge">
<title>Node4&#45;&gt;Node3</title>
<g id="a_edge4_Node000004_Node000003"><a xlink:title=" ">
<path fill="none" stroke="#63b8ff" d="M424.11,-31.37C433.57,-32.38 443.22,-33.41 452.84,-34.44"/>
<polygon fill="#63b8ff" stroke="#63b8ff" points="452.53,-37.92 462.84,-35.51 453.27,-30.96 452.53,-37.92"/>
</a>
</g>
</g>
</g>
</svg>
