<?xml version="1.0" encoding="UTF-8" standalone="no"?>
<!DOCTYPE svg PUBLIC "-//W3C//DTD SVG 1.1//EN"
 "http://www.w3.org/Graphics/SVG/1.1/DTD/svg11.dtd">
<!-- Generated by graphviz version 2.43.0 (0)
 -->
<!-- Title: com.teragrep.pth_06.ast.analyze.PlannedScans.PlannedScans Pages: 1 -->
<svg width="404pt" height="122pt"
 viewBox="0.00 0.00 404.00 122.00" xmlns="http://www.w3.org/2000/svg" xmlns:xlink="http://www.w3.org/1999/xlink">
<g id="graph0" class="graph" transform="scale(1 1) rotate(0) translate(4 118)">
<title>com.teragrep.pth_06.ast.analyze.PlannedScans.PlannedScans</title>
<!-- Node1 -->
<g id="Node000001" class="node">
<title>Node1</title>
<g id="a_Node000001"><a xlink:title=" ">
<polygon fill="#999999" stroke="#666666" points="180,-63 0,-63 0,-33 180,-33 180,-63"/>
<text text-anchor="start" x="8" y="-51" font-family="Helvetica,sans-Serif" font-size="10.00">com.teragrep.pth_06.ast.analyze.</text>
<text text-anchor="middle" x="90" y="-40" font-family="Helvetica,sans-Serif" font-size="10.00">PlannedScans.PlannedScans</text>
</a>
</g>
</g>
<!-- Node2 -->
<g id="Node000002" class="node">
<title>Node2</title>
<g id="a_Node000002"><a xlink:href="classcom_1_1teragrep_1_1pth__06_1_1ast_1_1analyze_1_1ScanTimeQualifiers.html#a82cd78430e3cda656d0cadbfaf5295a5" target="_top" xlink:title=" ">
<polygon fill="white" stroke="#666666" points="396,-96 216,-96 216,-66 396,-66 396,-96"/>
<text text-anchor="start" x="224" y="-84" font-family="Helvetica,sans-Serif" font-size="10.00">com.teragrep.pth_06.ast.analyze.</text>
<text text-anchor="middle" x="306" y="-73" font-family="Helvetica,sans-Serif" font-size="10.00">ScanTimeQualifiers.earliest</text>
</a>
</g>
</g>
<!-- Node1&#45;&gt;Node2 -->
<g id="edge1_Node000001_Node000002" class="edge">
<title>Node1&#45;&gt;Node2</title>
<g id="a_edge1_Node000001_Node000002"><a xlink:title=" ">
<path fill="none" stroke="#63b8ff" d="M180.21,-61.76C188.7,-63.07 197.34,-64.4 205.92,-65.72"/>
<polygon fill="#63b8ff" stroke="#63b8ff" points="205.52,-69.2 215.94,-67.27 206.59,-62.28 205.52,-69.2"/>
</a>
</g>
</g>
<!-- Node3 -->
<g id="Node000003" class="node">
<title>Node3</title>
<g id="a_Node000003"><a xlink:href="classcom_1_1teragrep_1_1pth__06_1_1ast_1_1analyze_1_1ScanTimeQualifiers.html#a99388aed3186adf2e10b2317b5565833" target="_top" xlink:title=" ">
<polygon fill="white" stroke="#666666" points="396,-30 216,-30 216,0 396,0 396,-30"/>
<text text-anchor="start" x="224" y="-18" font-family="Helvetica,sans-Serif" font-size="10.00">com.teragrep.pth_06.ast.analyze.</text>
<text text-anchor="middle" x="306" y="-7" font-family="Helvetica,sans-Serif" font-size="10.00">ScanTimeQualifiers.latest</text>
</a>
</g>
</g>
<!-- Node1&#45;&gt;Node3 -->
<g id="edge3_Node000001_Node000003" class="edge">
<title>Node1&#45;&gt;Node3</title>
<g id="a_edge3_Node000001_Node000003"><a xlink:title=" ">
<path fill="none" stroke="#63b8ff" d="M180.21,-34.24C188.7,-32.93 197.34,-31.6 205.92,-30.28"/>
<polygon fill="#63b8ff" stroke="#63b8ff" points="206.59,-33.72 215.94,-28.73 205.52,-26.8 206.59,-33.72"/>
</a>
</g>
</g>
<!-- Node2&#45;&gt;Node2 -->
<g id="edge2_Node000002_Node000002" class="edge">
<title>Node2&#45;&gt;Node2</title>
<g id="a_edge2_Node000002_Node000002"><a xlink:title=" ">
<path fill="none" stroke="#63b8ff" d="M268.03,-96.28C259.59,-105.41 272.25,-114 306,-114 326.04,-114 338.64,-110.97 343.81,-106.6"/>
<polygon fill="#63b8ff" stroke="#63b8ff" points="347.31,-106.33 343.97,-96.28 340.31,-106.22 347.31,-106.33"/>
</a>
</g>
</g>
<!-- Node3&#45;&gt;Node3 -->
<g id="edge4_Node000003_Node000003" class="edge">
<title>Node3&#45;&gt;Node3</title>
<g id="a_edge4_Node000003_Node000003"><a xlink:title=" ">
<path fill="none" stroke="#63b8ff" d="M268.03,-30.28C259.59,-39.41 272.25,-48 306,-48 326.04,-48 338.64,-44.97 343.81,-40.6"/>
<polygon fill="#63b8ff" stroke="#63b8ff" points="347.31,-40.33 343.97,-30.28 340.31,-40.22 347.31,-40.33"/>
</a>
</g>
</g>
</g>
</svg>
