<?xml version="1.0" encoding="UTF-8" standalone="no"?>
<!DOCTYPE svg PUBLIC "-//W3C//DTD SVG 1.1//EN"
 "http://www.w3.org/Graphics/SVG/1.1/DTD/svg11.dtd">
<!-- Generated by graphviz version 2.43.0 (0)
 -->
<!-- Title: com.teragrep.pth_06.ast.transform.PrunedInvalidTimeQualifierTest.testSupportedOperations Pages: 1 -->
<svg width="629pt" height="182pt"
 viewBox="0.00 0.00 629.00 182.00" xmlns="http://www.w3.org/2000/svg" xmlns:xlink="http://www.w3.org/1999/xlink">
<g id="graph0" class="graph" transform="scale(1 1) rotate(0) translate(4 178)">
<title>com.teragrep.pth_06.ast.transform.PrunedInvalidTimeQualifierTest.testSupportedOperations</title>
<!-- Node1 -->
<g id="Node000001" class="node">
<title>Node1</title>
<g id="a_Node000001"><a xlink:title=" ">
<polygon fill="#999999" stroke="#666666" points="191,-109.5 0,-109.5 0,-68.5 191,-68.5 191,-109.5"/>
<text text-anchor="start" x="8" y="-97.5" font-family="Helvetica,sans-Serif" font-size="10.00">com.teragrep.pth_06.ast.transform.</text>
<text text-anchor="start" x="8" y="-86.5" font-family="Helvetica,sans-Serif" font-size="10.00">PrunedInvalidTimeQualifierTest.test</text>
<text text-anchor="middle" x="95.5" y="-75.5" font-family="Helvetica,sans-Serif" font-size="10.00">SupportedOperations</text>
</a>
</g>
</g>
<!-- Node2 -->
<g id="Node000002" class="node">
<title>Node2</title>
<g id="a_Node000002"><a xlink:href="interfacecom_1_1teragrep_1_1pth__06_1_1ast_1_1Expression.html#a17e7d33905be57c6e22e1717da6ddef6" target="_top" xlink:title=" ">
<polygon fill="white" stroke="#666666" points="617.5,-174 478.5,-174 478.5,-144 617.5,-144 617.5,-174"/>
<text text-anchor="start" x="486.5" y="-162" font-family="Helvetica,sans-Serif" font-size="10.00">com.teragrep.pth_06.ast.</text>
<text text-anchor="middle" x="548" y="-151" font-family="Helvetica,sans-Serif" font-size="10.00">Expression.asLogical</text>
</a>
</g>
</g>
<!-- Node1&#45;&gt;Node2 -->
<g id="edge1_Node000001_Node000002" class="edge">
<title>Node1&#45;&gt;Node2</title>
<g id="a_edge1_Node000001_Node000002"><a xlink:title=" ">
<path fill="none" stroke="#63b8ff" d="M191.2,-107.71C203.23,-109.92 215.39,-112.07 227,-114 309.09,-127.63 403.47,-140.57 468.34,-149.04"/>
<polygon fill="#63b8ff" stroke="#63b8ff" points="468.13,-152.55 478.5,-150.37 469.03,-145.6 468.13,-152.55"/>
</a>
</g>
</g>
<!-- Node3 -->
<g id="Node000003" class="node">
<title>Node3</title>
<g id="a_Node000003"><a xlink:href="interfacecom_1_1teragrep_1_1pth__06_1_1ast_1_1LogicalExpression.html#aeaf8fe296c6899792f345659a9a6c0c4" target="_top" xlink:title=" ">
<polygon fill="white" stroke="#666666" points="621,-126 475,-126 475,-96 621,-96 621,-126"/>
<text text-anchor="start" x="483" y="-114" font-family="Helvetica,sans-Serif" font-size="10.00">com.teragrep.pth_06.ast.</text>
<text text-anchor="middle" x="548" y="-103" font-family="Helvetica,sans-Serif" font-size="10.00">LogicalExpression.children</text>
</a>
</g>
</g>
<!-- Node1&#45;&gt;Node3 -->
<g id="edge2_Node000001_Node000003" class="edge">
<title>Node1&#45;&gt;Node3</title>
<g id="a_edge2_Node000001_Node000003"><a xlink:title=" ">
<path fill="none" stroke="#63b8ff" d="M191.21,-93.63C272.23,-97.58 387.64,-103.22 464.82,-106.99"/>
<polygon fill="#63b8ff" stroke="#63b8ff" points="464.82,-110.49 474.97,-107.48 465.16,-103.5 464.82,-110.49"/>
</a>
</g>
</g>
<!-- Node4 -->
<g id="Node000004" class="node">
<title>Node4</title>
<g id="a_Node000004"><a xlink:href="interfacecom_1_1teragrep_1_1pth__06_1_1ast_1_1Expression.html#a65ee7f5fb98e4129018f467a53586842" target="_top" xlink:title=" ">
<polygon fill="white" stroke="#666666" points="617.5,-30 478.5,-30 478.5,0 617.5,0 617.5,-30"/>
<text text-anchor="start" x="486.5" y="-18" font-family="Helvetica,sans-Serif" font-size="10.00">com.teragrep.pth_06.ast.</text>
<text text-anchor="middle" x="548" y="-7" font-family="Helvetica,sans-Serif" font-size="10.00">Expression.isLogical</text>
</a>
</g>
</g>
<!-- Node1&#45;&gt;Node4 -->
<g id="edge3_Node000001_Node000004" class="edge">
<title>Node1&#45;&gt;Node4</title>
<g id="a_edge3_Node000001_Node000004"><a xlink:title=" ">
<path fill="none" stroke="#63b8ff" d="M146.82,-68.46C170.73,-59.53 199.94,-49.8 227,-44 308.03,-26.63 402.77,-19.65 468.03,-16.86"/>
<polygon fill="#63b8ff" stroke="#63b8ff" points="468.39,-20.34 478.24,-16.44 468.11,-13.35 468.39,-20.34"/>
</a>
</g>
</g>
<!-- Node5 -->
<g id="Node000005" class="node">
<title>Node5</title>
<g id="a_Node000005"><a xlink:href="classcom_1_1teragrep_1_1pth__06_1_1ast_1_1transform_1_1PrunedInvalidTimeQualifier.html#a390e2447fa0ee0e2964ba44d68710b37" target="_top" xlink:title=" ">
<polygon fill="white" stroke="#666666" points="439,-83 227,-83 227,-53 439,-53 439,-83"/>
<text text-anchor="start" x="235" y="-71" font-family="Helvetica,sans-Serif" font-size="10.00">com.teragrep.pth_06.ast.transform.</text>
<text text-anchor="middle" x="333" y="-60" font-family="Helvetica,sans-Serif" font-size="10.00">PrunedInvalidTimeQualifier.transformed</text>
</a>
</g>
</g>
<!-- Node1&#45;&gt;Node5 -->
<g id="edge4_Node000001_Node000005" class="edge">
<title>Node1&#45;&gt;Node5</title>
<g id="a_edge4_Node000001_Node000005"><a xlink:title=" ">
<path fill="none" stroke="#63b8ff" d="M191.27,-80.55C199.63,-79.8 208.15,-79.04 216.65,-78.29"/>
<polygon fill="#63b8ff" stroke="#63b8ff" points="216.97,-81.77 226.62,-77.4 216.35,-74.8 216.97,-81.77"/>
</a>
</g>
</g>
<!-- Node5&#45;&gt;Node2 -->
<g id="edge5_Node000005_Node000002" class="edge">
<title>Node5&#45;&gt;Node2</title>
<g id="a_edge5_Node000005_Node000002"><a xlink:title=" ">
<path fill="none" stroke="#63b8ff" d="M362.97,-83.04C391.16,-97.37 435.4,-119.06 475,-135 479.69,-136.89 484.6,-138.75 489.54,-140.55"/>
<polygon fill="#63b8ff" stroke="#63b8ff" points="488.47,-143.88 499.07,-143.93 490.81,-137.29 488.47,-143.88"/>
</a>
</g>
</g>
<!-- Node5&#45;&gt;Node3 -->
<g id="edge6_Node000005_Node000003" class="edge">
<title>Node5&#45;&gt;Node3</title>
<g id="a_edge6_Node000005_Node000003"><a xlink:title=" ">
<path fill="none" stroke="#63b8ff" d="M408.5,-83.04C426.7,-86.71 446.28,-90.67 464.82,-94.41"/>
<polygon fill="#63b8ff" stroke="#63b8ff" points="464.2,-97.86 474.7,-96.4 465.59,-90.99 464.2,-97.86"/>
</a>
</g>
</g>
<!-- Node5&#45;&gt;Node4 -->
<g id="edge7_Node000005_Node000004" class="edge">
<title>Node5&#45;&gt;Node4</title>
<g id="a_edge7_Node000005_Node000004"><a xlink:title=" ">
<path fill="none" stroke="#63b8ff" d="M394.47,-52.95C419.99,-46.6 449.87,-39.17 476.4,-32.57"/>
<polygon fill="#63b8ff" stroke="#63b8ff" points="477.52,-35.89 486.38,-30.08 475.83,-29.1 477.52,-35.89"/>
</a>
</g>
</g>
<!-- Node6 -->
<g id="Node000006" class="node">
<title>Node6</title>
<g id="a_Node000006"><a xlink:href="interfacecom_1_1teragrep_1_1pth__06_1_1ast_1_1Expression.html#a8b9661253a3610b9eb148ee29ca8b7e1" target="_top" xlink:title=" ">
<polygon fill="white" stroke="#666666" points="617.5,-78 478.5,-78 478.5,-48 617.5,-48 617.5,-78"/>
<text text-anchor="start" x="486.5" y="-66" font-family="Helvetica,sans-Serif" font-size="10.00">com.teragrep.pth_06.ast.</text>
<text text-anchor="middle" x="548" y="-55" font-family="Helvetica,sans-Serif" font-size="10.00">Expression.tag</text>
</a>
</g>
</g>
<!-- Node5&#45;&gt;Node6 -->
<g id="edge8_Node000005_Node000006" class="edge">
<title>Node5&#45;&gt;Node6</title>
<g id="a_edge8_Node000005_Node000006"><a xlink:title=" ">
<path fill="none" stroke="#63b8ff" d="M439.25,-65.53C449.03,-65.3 458.82,-65.07 468.29,-64.85"/>
<polygon fill="#63b8ff" stroke="#63b8ff" points="468.52,-68.34 478.43,-64.61 468.35,-61.35 468.52,-68.34"/>
</a>
</g>
</g>
</g>
</svg>
