<?xml version="1.0" encoding="UTF-8" standalone="no"?>
<!DOCTYPE svg PUBLIC "-//W3C//DTD SVG 1.1//EN"
 "http://www.w3.org/Graphics/SVG/1.1/DTD/svg11.dtd">
<!-- Generated by graphviz version 2.43.0 (0)
 -->
<!-- Title: com.teragrep.pth_06.ast.meta.StreamDBConditionTest.testSourcetype Pages: 1 -->
<svg width="673pt" height="122pt"
 viewBox="0.00 0.00 673.00 122.00" xmlns="http://www.w3.org/2000/svg" xmlns:xlink="http://www.w3.org/1999/xlink">
<g id="graph0" class="graph" transform="scale(1 1) rotate(0) translate(4 118)">
<title>com.teragrep.pth_06.ast.meta.StreamDBConditionTest.testSourcetype</title>
<!-- Node1 -->
<g id="Node000001" class="node">
<title>Node1</title>
<g id="a_Node000001"><a xlink:title=" ">
<polygon fill="#999999" stroke="#666666" points="209,-63 0,-63 0,-33 209,-33 209,-63"/>
<text text-anchor="start" x="8" y="-51" font-family="Helvetica,sans-Serif" font-size="10.00">com.teragrep.pth_06.ast.meta.</text>
<text text-anchor="middle" x="104.5" y="-40" font-family="Helvetica,sans-Serif" font-size="10.00">StreamDBConditionTest.testSourcetype</text>
</a>
</g>
</g>
<!-- Node2 -->
<g id="Node000002" class="node">
<title>Node2</title>
<g id="a_Node000002"><a xlink:href="classcom_1_1teragrep_1_1pth__06_1_1ast_1_1meta_1_1StreamDBCondition.html#a529cd38cec60771ddde6da97da36dd10" target="_top" xlink:title=" ">
<polygon fill="white" stroke="#666666" points="412,-63 245,-63 245,-33 412,-33 412,-63"/>
<text text-anchor="start" x="253" y="-51" font-family="Helvetica,sans-Serif" font-size="10.00">com.teragrep.pth_06.ast.meta.</text>
<text text-anchor="middle" x="328.5" y="-40" font-family="Helvetica,sans-Serif" font-size="10.00">StreamDBCondition.condition</text>
</a>
</g>
</g>
<!-- Node1&#45;&gt;Node2 -->
<g id="edge1_Node000001_Node000002" class="edge">
<title>Node1&#45;&gt;Node2</title>
<g id="a_edge1_Node000001_Node000002"><a xlink:title=" ">
<path fill="none" stroke="#63b8ff" d="M209.03,-48C217.54,-48 226.12,-48 234.56,-48"/>
<polygon fill="#63b8ff" stroke="#63b8ff" points="234.76,-51.5 244.76,-48 234.76,-44.5 234.76,-51.5"/>
</a>
</g>
</g>
<!-- Node3 -->
<g id="Node000003" class="node">
<title>Node3</title>
<g id="a_Node000003"><a xlink:href="classcom_1_1teragrep_1_1pth__06_1_1ast_1_1meta_1_1StreamDBCondition.html#a3e43c38cb0c9103e08f4b37e95e45b87" target="_top" xlink:title=" ">
<polygon fill="white" stroke="#666666" points="648,-96 465,-96 465,-66 648,-66 648,-96"/>
<text text-anchor="start" x="473" y="-84" font-family="Helvetica,sans-Serif" font-size="10.00">com.teragrep.pth_06.ast.meta.</text>
<text text-anchor="middle" x="556.5" y="-73" font-family="Helvetica,sans-Serif" font-size="10.00">StreamDBCondition.hostCondition</text>
</a>
</g>
</g>
<!-- Node2&#45;&gt;Node3 -->
<g id="edge2_Node000002_Node000003" class="edge">
<title>Node2&#45;&gt;Node3</title>
<g id="a_edge2_Node000002_Node000003"><a xlink:title=" ">
<path fill="none" stroke="#63b8ff" d="M412.05,-53.53C435.67,-56.62 461.2,-60.42 484.09,-64.25"/>
<polygon fill="#63b8ff" stroke="#63b8ff" points="483.61,-67.72 494.06,-65.95 484.79,-60.82 483.61,-67.72"/>
</a>
</g>
</g>
<!-- Node4 -->
<g id="Node000004" class="node">
<title>Node4</title>
<g id="a_Node000004"><a xlink:href="classcom_1_1teragrep_1_1pth__06_1_1ast_1_1meta_1_1StreamDBCondition.html#a2bedf2bbbbc73178de7e2c8872f8d486" target="_top" xlink:title=" ">
<polygon fill="white" stroke="#666666" points="665,-30 448,-30 448,0 665,0 665,-30"/>
<text text-anchor="start" x="456" y="-18" font-family="Helvetica,sans-Serif" font-size="10.00">com.teragrep.pth_06.ast.meta.</text>
<text text-anchor="middle" x="556.5" y="-7" font-family="Helvetica,sans-Serif" font-size="10.00">StreamDBCondition.sourceTypeCondition</text>
</a>
</g>
</g>
<!-- Node2&#45;&gt;Node4 -->
<g id="edge5_Node000002_Node000004" class="edge">
<title>Node2&#45;&gt;Node4</title>
<g id="a_edge5_Node000002_Node000004"><a xlink:title=" ">
<path fill="none" stroke="#63b8ff" d="M390.66,-33C405.27,-30.45 421.37,-27.88 437.59,-25.47"/>
<polygon fill="#63b8ff" stroke="#63b8ff" points="438.31,-28.9 447.7,-24 437.3,-21.98 438.31,-28.9"/>
</a>
</g>
</g>
<!-- Node3&#45;&gt;Node2 -->
<g id="edge3_Node000003_Node000002" class="edge">
<title>Node3&#45;&gt;Node2</title>
<g id="a_edge3_Node000003_Node000002"><a xlink:title=" ">
<path fill="none" stroke="#63b8ff" d="M464.57,-74.36C443.32,-71.48 420.98,-68.11 400.73,-64.72"/>
<polygon fill="#63b8ff" stroke="#63b8ff" points="401.11,-61.24 390.66,-63 399.93,-68.14 401.11,-61.24"/>
</a>
</g>
</g>
<!-- Node3&#45;&gt;Node3 -->
<g id="edge4_Node000003_Node000003" class="edge">
<title>Node3&#45;&gt;Node3</title>
<g id="a_edge4_Node000003_Node000003"><a xlink:title=" ">
<path fill="none" stroke="#63b8ff" d="M516.42,-96.28C507.52,-105.41 520.88,-114 556.5,-114 577.65,-114 590.96,-110.97 596.41,-106.6"/>
<polygon fill="#63b8ff" stroke="#63b8ff" points="599.91,-106.33 596.58,-96.28 592.91,-106.22 599.91,-106.33"/>
</a>
</g>
</g>
<!-- Node4&#45;&gt;Node2 -->
<g id="edge6_Node000004_Node000002" class="edge">
<title>Node4&#45;&gt;Node2</title>
<g id="a_edge6_Node000004_Node000002"><a xlink:title=" ">
<path fill="none" stroke="#63b8ff" d="M494.06,-30.05C471.86,-33.91 446.27,-37.84 422,-41.14"/>
<polygon fill="#63b8ff" stroke="#63b8ff" points="421.5,-37.68 412.05,-42.47 422.43,-44.62 421.5,-37.68"/>
</a>
</g>
</g>
<!-- Node4&#45;&gt;Node4 -->
<g id="edge7_Node000004_Node000004" class="edge">
<title>Node4&#45;&gt;Node4</title>
<g id="a_edge7_Node000004_Node000004"><a xlink:title=" ">
<path fill="none" stroke="#63b8ff" d="M516.42,-30.28C507.52,-39.41 520.88,-48 556.5,-48 577.65,-48 590.96,-44.97 596.41,-40.6"/>
<polygon fill="#63b8ff" stroke="#63b8ff" points="599.91,-40.33 596.58,-30.28 592.91,-40.22 599.91,-40.33"/>
</a>
</g>
</g>
</g>
</svg>
