<?xml version="1.0" encoding="UTF-8" standalone="no"?>
<!DOCTYPE svg PUBLIC "-//W3C//DTD SVG 1.1//EN"
 "http://www.w3.org/Graphics/SVG/1.1/DTD/svg11.dtd">
<!-- Generated by graphviz version 2.43.0 (0)
 -->
<!-- Title: com.teragrep.pth_06.ast.transform.OptimizedASTTest.testUnbalancedNestedEqualBinaryWithEmpty Pages: 1 -->
<svg width="1602pt" height="427pt"
 viewBox="0.00 0.00 1602.00 427.42" xmlns="http://www.w3.org/2000/svg" xmlns:xlink="http://www.w3.org/1999/xlink">
<g id="graph0" class="graph" transform="scale(1 1) rotate(0) translate(4 423.42)">
<title>com.teragrep.pth_06.ast.transform.OptimizedASTTest.testUnbalancedNestedEqualBinaryWithEmpty</title>
<!-- Node1 -->
<g id="Node000001" class="node">
<title>Node1</title>
<g id="a_Node000001"><a xlink:title=" ">
<polygon fill="#999999" stroke="#666666" points="219,-229.34 0,-229.34 0,-188.34 219,-188.34 219,-229.34"/>
<text text-anchor="start" x="8" y="-217.34" font-family="Helvetica,sans-Serif" font-size="10.00">com.teragrep.pth_06.ast.transform.</text>
<text text-anchor="start" x="8" y="-206.34" font-family="Helvetica,sans-Serif" font-size="10.00">OptimizedASTTest.testUnbalancedNested</text>
<text text-anchor="middle" x="109.5" y="-195.34" font-family="Helvetica,sans-Serif" font-size="10.00">EqualBinaryWithEmpty</text>
</a>
</g>
</g>
<!-- Node2 -->
<g id="Node000002" class="node">
<title>Node2</title>
<g id="a_Node000002"><a xlink:href="classcom_1_1teragrep_1_1pth__06_1_1ast_1_1transform_1_1OptimizedAST.html#a05726d2699d7ade747e74de2140c6a41" target="_top" xlink:title=" ">
<polygon fill="white" stroke="#666666" points="445,-223.84 255,-223.84 255,-193.84 445,-193.84 445,-223.84"/>
<text text-anchor="start" x="263" y="-211.84" font-family="Helvetica,sans-Serif" font-size="10.00">com.teragrep.pth_06.ast.transform.</text>
<text text-anchor="middle" x="350" y="-200.84" font-family="Helvetica,sans-Serif" font-size="10.00">OptimizedAST.transformed</text>
</a>
</g>
</g>
<!-- Node1&#45;&gt;Node2 -->
<g id="edge1_Node000001_Node000002" class="edge">
<title>Node1&#45;&gt;Node2</title>
<g id="a_edge1_Node000001_Node000002"><a xlink:title=" ">
<path fill="none" stroke="#63b8ff" d="M219.28,-208.84C227.75,-208.84 236.3,-208.84 244.74,-208.84"/>
<polygon fill="#63b8ff" stroke="#63b8ff" points="244.97,-212.34 254.97,-208.84 244.97,-205.34 244.97,-212.34"/>
</a>
</g>
</g>
<!-- Node3 -->
<g id="Node000003" class="node">
<title>Node3</title>
<g id="a_Node000003"><a xlink:href="classcom_1_1teragrep_1_1pth__06_1_1ast_1_1transform_1_1OptimizedAST.html#ac4ebcab5c55182e969cd03150e96e374" target="_top" xlink:title=" ">
<polygon fill="white" stroke="#666666" points="671,-223.84 481,-223.84 481,-193.84 671,-193.84 671,-223.84"/>
<text text-anchor="start" x="489" y="-211.84" font-family="Helvetica,sans-Serif" font-size="10.00">com.teragrep.pth_06.ast.transform.</text>
<text text-anchor="middle" x="576" y="-200.84" font-family="Helvetica,sans-Serif" font-size="10.00">OptimizedAST.walkAndApply</text>
</a>
</g>
</g>
<!-- Node2&#45;&gt;Node3 -->
<g id="edge2_Node000002_Node000003" class="edge">
<title>Node2&#45;&gt;Node3</title>
<g id="a_edge2_Node000002_Node000003"><a xlink:title=" ">
<path fill="none" stroke="#63b8ff" d="M445.02,-208.84C453.54,-208.84 462.2,-208.84 470.8,-208.84"/>
<polygon fill="#63b8ff" stroke="#63b8ff" points="470.86,-212.34 480.86,-208.84 470.86,-205.34 470.86,-212.34"/>
</a>
</g>
</g>
<!-- Node3&#45;&gt;Node3 -->
<g id="edge40_Node000003_Node000003" class="edge">
<title>Node3&#45;&gt;Node3</title>
<g id="a_edge40_Node000003_Node000003"><a xlink:title=" ">
<path fill="none" stroke="#63b8ff" d="M536.27,-224.11C527.45,-233.24 540.69,-241.84 576,-241.84 596.97,-241.84 610.15,-238.81 615.56,-234.43"/>
<polygon fill="#63b8ff" stroke="#63b8ff" points="619.06,-234.17 615.73,-224.11 612.06,-234.05 619.06,-234.17"/>
</a>
</g>
</g>
<!-- Node4 -->
<g id="Node000004" class="node">
<title>Node4</title>
<g id="a_Node000004"><a xlink:href="interfacecom_1_1teragrep_1_1pth__06_1_1ast_1_1Expression.html#a17e7d33905be57c6e22e1717da6ddef6" target="_top" xlink:title=" ">
<polygon fill="white" stroke="#666666" points="1590.5,-271.84 1451.5,-271.84 1451.5,-241.84 1590.5,-241.84 1590.5,-271.84"/>
<text text-anchor="start" x="1459.5" y="-259.84" font-family="Helvetica,sans-Serif" font-size="10.00">com.teragrep.pth_06.ast.</text>
<text text-anchor="middle" x="1521" y="-248.84" font-family="Helvetica,sans-Serif" font-size="10.00">Expression.asLogical</text>
</a>
</g>
</g>
<!-- Node3&#45;&gt;Node4 -->
<g id="edge3_Node000003_Node000004" class="edge">
<title>Node3&#45;&gt;Node4</title>
<g id="a_edge3_Node000003_Node000004"><a xlink:title=" ">
<path fill="none" stroke="#63b8ff" d="M612.4,-223.88C680.92,-252.38 836.98,-314.28 974,-346.84 1072.58,-370.26 1098.89,-370.16 1200,-376.84 1294.02,-383.05 1334.56,-430.51 1412,-376.84 1449.45,-350.88 1415.19,-312.46 1448,-280.84 1449.13,-279.75 1450.3,-278.71 1451.52,-277.72"/>
<polygon fill="#63b8ff" stroke="#63b8ff" points="1453.85,-280.38 1460.13,-271.85 1449.9,-274.6 1453.85,-280.38"/>
</a>
</g>
</g>
<!-- Node5 -->
<g id="Node000005" class="node">
<title>Node5</title>
<g id="a_Node000005"><a xlink:href="interfacecom_1_1teragrep_1_1pth__06_1_1ast_1_1LogicalExpression.html#aeaf8fe296c6899792f345659a9a6c0c4" target="_top" xlink:title=" ">
<polygon fill="white" stroke="#666666" points="1594,-223.84 1448,-223.84 1448,-193.84 1594,-193.84 1594,-223.84"/>
<text text-anchor="start" x="1456" y="-211.84" font-family="Helvetica,sans-Serif" font-size="10.00">com.teragrep.pth_06.ast.</text>
<text text-anchor="middle" x="1521" y="-200.84" font-family="Helvetica,sans-Serif" font-size="10.00">LogicalExpression.children</text>
</a>
</g>
</g>
<!-- Node3&#45;&gt;Node5 -->
<g id="edge4_Node000003_Node000005" class="edge">
<title>Node3&#45;&gt;Node5</title>
<g id="a_edge4_Node000003_Node000005"><a xlink:title=" ">
<path fill="none" stroke="#63b8ff" d="M601.35,-193.65C707.57,-129.52 1137.26,107.71 1412,-70.84 1445.03,-92.3 1423.86,-120.71 1448,-151.84 1458.66,-165.58 1473.31,-177.96 1486.62,-187.65"/>
<polygon fill="#63b8ff" stroke="#63b8ff" points="1484.91,-190.73 1495.11,-193.61 1488.93,-185 1484.91,-190.73"/>
</a>
</g>
</g>
<!-- Node6 -->
<g id="Node000006" class="node">
<title>Node6</title>
<g id="a_Node000006"><a xlink:href="interfacecom_1_1teragrep_1_1pth__06_1_1ast_1_1Expression.html#a65ee7f5fb98e4129018f467a53586842" target="_top" xlink:title=" ">
<polygon fill="white" stroke="#666666" points="1590.5,-142.84 1451.5,-142.84 1451.5,-112.84 1590.5,-112.84 1590.5,-142.84"/>
<text text-anchor="start" x="1459.5" y="-130.84" font-family="Helvetica,sans-Serif" font-size="10.00">com.teragrep.pth_06.ast.</text>
<text text-anchor="middle" x="1521" y="-119.84" font-family="Helvetica,sans-Serif" font-size="10.00">Expression.isLogical</text>
</a>
</g>
</g>
<!-- Node3&#45;&gt;Node6 -->
<g id="edge5_Node000003_Node000006" class="edge">
<title>Node3&#45;&gt;Node6</title>
<g id="a_edge5_Node000003_Node000006"><a xlink:title=" ">
<path fill="none" stroke="#63b8ff" d="M583.8,-193.58C599.79,-159.65 643.31,-78.04 707,-40.84 810.56,19.65 854.39,-10.53 974,-1.84 1015.73,1.19 1407.04,-0.55 1412,-2.84 1457.14,-23.6 1490.65,-73.51 1507.59,-103.61"/>
<polygon fill="#63b8ff" stroke="#63b8ff" points="1504.65,-105.51 1512.5,-112.62 1510.79,-102.16 1504.65,-105.51"/>
</a>
</g>
</g>
<!-- Node7 -->
<g id="Node000007" class="node">
<title>Node7</title>
<g id="a_Node000007"><a xlink:href="interfacecom_1_1teragrep_1_1pth__06_1_1ast_1_1Expression.html#a8b9661253a3610b9eb148ee29ca8b7e1" target="_top" xlink:title=" ">
<polygon fill="white" stroke="#666666" points="1590.5,-319.84 1451.5,-319.84 1451.5,-289.84 1590.5,-289.84 1590.5,-319.84"/>
<text text-anchor="start" x="1459.5" y="-307.84" font-family="Helvetica,sans-Serif" font-size="10.00">com.teragrep.pth_06.ast.</text>
<text text-anchor="middle" x="1521" y="-296.84" font-family="Helvetica,sans-Serif" font-size="10.00">Expression.tag</text>
</a>
</g>
</g>
<!-- Node3&#45;&gt;Node7 -->
<g id="edge6_Node000003_Node000007" class="edge">
<title>Node3&#45;&gt;Node7</title>
<g id="a_edge6_Node000003_Node000007"><a xlink:title=" ">
<path fill="none" stroke="#63b8ff" d="M591.43,-224.15C613.91,-247.05 659.63,-289.97 707,-312.84 907.59,-409.65 977.72,-388.63 1200,-402.84 1294.03,-408.84 1324.1,-436.77 1412,-402.84 1450.66,-387.91 1484.04,-352 1503.08,-328.05"/>
<polygon fill="#63b8ff" stroke="#63b8ff" points="1505.86,-330.18 1509.21,-320.13 1500.32,-325.9 1505.86,-330.18"/>
</a>
</g>
</g>
<!-- Node8 -->
<g id="Node000008" class="node">
<title>Node8</title>
<g id="a_Node000008"><a xlink:href="classcom_1_1teragrep_1_1pth__06_1_1ast_1_1transform_1_1OptimizedAST.html#a77542c0b232d1e10e50a9846e1845b10" target="_top" xlink:title=" ">
<polygon fill="white" stroke="#666666" points="938,-223.84 707,-223.84 707,-193.84 938,-193.84 938,-223.84"/>
<text text-anchor="start" x="715" y="-211.84" font-family="Helvetica,sans-Serif" font-size="10.00">com.teragrep.pth_06.ast.transform.</text>
<text text-anchor="middle" x="822.5" y="-200.84" font-family="Helvetica,sans-Serif" font-size="10.00">OptimizedAST.transformedSingleExpression</text>
</a>
</g>
</g>
<!-- Node3&#45;&gt;Node8 -->
<g id="edge7_Node000003_Node000008" class="edge">
<title>Node3&#45;&gt;Node8</title>
<g id="a_edge7_Node000003_Node000008"><a xlink:title=" ">
<path fill="none" stroke="#63b8ff" d="M671.18,-208.84C679.59,-208.84 688.19,-208.84 696.81,-208.84"/>
<polygon fill="#63b8ff" stroke="#63b8ff" points="696.92,-212.34 706.92,-208.84 696.92,-205.34 696.92,-212.34"/>
</a>
</g>
</g>
<!-- Node9 -->
<g id="Node000009" class="node">
<title>Node9</title>
<g id="a_Node000009"><a xlink:href="classcom_1_1teragrep_1_1pth__06_1_1ast_1_1transform_1_1EmptyPruned.html#a8cfebc9854b0ad9a7cbe81918392e036" target="_top" xlink:title=" ">
<polygon fill="white" stroke="#666666" points="1401,-175.84 1211,-175.84 1211,-145.84 1401,-145.84 1401,-175.84"/>
<text text-anchor="start" x="1219" y="-163.84" font-family="Helvetica,sans-Serif" font-size="10.00">com.teragrep.pth_06.ast.transform.</text>
<text text-anchor="middle" x="1306" y="-152.84" font-family="Helvetica,sans-Serif" font-size="10.00">EmptyPruned.transformed</text>
</a>
</g>
</g>
<!-- Node8&#45;&gt;Node9 -->
<g id="edge8_Node000008_Node000009" class="edge">
<title>Node8&#45;&gt;Node9</title>
<g id="a_edge8_Node000008_Node000009"><a xlink:title=" ">
<path fill="none" stroke="#63b8ff" d="M938.22,-197.4C1017.95,-189.45 1123.36,-178.94 1200.71,-171.23"/>
<polygon fill="#63b8ff" stroke="#63b8ff" points="1201.35,-174.69 1210.95,-170.21 1200.66,-167.72 1201.35,-174.69"/>
</a>
</g>
</g>
<!-- Node10 -->
<g id="Node000010" class="node">
<title>Node10</title>
<g id="a_Node000010"><a xlink:href="classcom_1_1teragrep_1_1pth__06_1_1ast_1_1transform_1_1FlattenLogical.html#a2e1717ad6884eea7a2415aa7763eaed5" target="_top" xlink:title=" ">
<polygon fill="white" stroke="#666666" points="1164,-319.84 974,-319.84 974,-289.84 1164,-289.84 1164,-319.84"/>
<text text-anchor="start" x="982" y="-307.84" font-family="Helvetica,sans-Serif" font-size="10.00">com.teragrep.pth_06.ast.transform.</text>
<text text-anchor="middle" x="1069" y="-296.84" font-family="Helvetica,sans-Serif" font-size="10.00">FlattenLogical.transformed</text>
</a>
</g>
</g>
<!-- Node8&#45;&gt;Node10 -->
<g id="edge13_Node000008_Node000010" class="edge">
<title>Node8&#45;&gt;Node10</title>
<g id="a_edge13_Node000008_Node000010"><a xlink:title=" ">
<path fill="none" stroke="#63b8ff" d="M861.7,-223.84C904.46,-240.62 973.8,-267.85 1020.14,-286.05"/>
<polygon fill="#63b8ff" stroke="#63b8ff" points="1019.08,-289.39 1029.66,-289.78 1021.63,-282.87 1019.08,-289.39"/>
</a>
</g>
</g>
<!-- Node13 -->
<g id="Node000013" class="node">
<title>Node13</title>
<g id="a_Node000013"><a xlink:href="classcom_1_1teragrep_1_1pth__06_1_1ast_1_1transform_1_1IdentitySimplification.html#a2e7ebae3195ee7794364c646e783c6d3" target="_top" xlink:title=" ">
<polygon fill="white" stroke="#666666" points="1401,-109.84 1211,-109.84 1211,-79.84 1401,-79.84 1401,-109.84"/>
<text text-anchor="start" x="1219" y="-97.84" font-family="Helvetica,sans-Serif" font-size="10.00">com.teragrep.pth_06.ast.transform.</text>
<text text-anchor="middle" x="1306" y="-86.84" font-family="Helvetica,sans-Serif" font-size="10.00">IdentitySimplification.transformed</text>
</a>
</g>
</g>
<!-- Node8&#45;&gt;Node13 -->
<g id="edge25_Node000008_Node000013" class="edge">
<title>Node8&#45;&gt;Node13</title>
<g id="a_edge25_Node000008_Node000013"><a xlink:title=" ">
<path fill="none" stroke="#63b8ff" d="M881.68,-193.84C909.57,-186.72 943.48,-178.19 974,-170.84 1060.69,-149.94 1160.47,-127.21 1227.62,-112.11"/>
<polygon fill="#63b8ff" stroke="#63b8ff" points="1228.71,-115.45 1237.7,-109.84 1227.18,-108.62 1228.71,-115.45"/>
</a>
</g>
</g>
<!-- Node14 -->
<g id="Node000014" class="node">
<title>Node14</title>
<g id="a_Node000014"><a xlink:href="classcom_1_1teragrep_1_1pth__06_1_1ast_1_1transform_1_1PrunedInvalidTimeQualifier.html#a390e2447fa0ee0e2964ba44d68710b37" target="_top" xlink:title=" ">
<polygon fill="white" stroke="#666666" points="1412,-271.84 1200,-271.84 1200,-241.84 1412,-241.84 1412,-271.84"/>
<text text-anchor="start" x="1208" y="-259.84" font-family="Helvetica,sans-Serif" font-size="10.00">com.teragrep.pth_06.ast.transform.</text>
<text text-anchor="middle" x="1306" y="-248.84" font-family="Helvetica,sans-Serif" font-size="10.00">PrunedInvalidTimeQualifier.transformed</text>
</a>
</g>
</g>
<!-- Node8&#45;&gt;Node14 -->
<g id="edge30_Node000008_Node000014" class="edge">
<title>Node8&#45;&gt;Node14</title>
<g id="a_edge30_Node000008_Node000014"><a xlink:title=" ">
<path fill="none" stroke="#63b8ff" d="M938.22,-220.27C1014.22,-227.85 1113.56,-237.75 1189.68,-245.34"/>
<polygon fill="#63b8ff" stroke="#63b8ff" points="1189.5,-248.84 1199.79,-246.35 1190.19,-241.87 1189.5,-248.84"/>
</a>
</g>
</g>
<!-- Node15 -->
<g id="Node000015" class="node">
<title>Node15</title>
<g id="a_Node000015"><a xlink:href="classcom_1_1teragrep_1_1pth__06_1_1ast_1_1transform_1_1UniqueChildren.html#a39304f06c8b7ac1e1a23463fe502028e" target="_top" xlink:title=" ">
<polygon fill="white" stroke="#666666" points="1401,-223.84 1211,-223.84 1211,-193.84 1401,-193.84 1401,-223.84"/>
<text text-anchor="start" x="1219" y="-211.84" font-family="Helvetica,sans-Serif" font-size="10.00">com.teragrep.pth_06.ast.transform.</text>
<text text-anchor="middle" x="1306" y="-200.84" font-family="Helvetica,sans-Serif" font-size="10.00">UniqueChildren.transformed</text>
</a>
</g>
</g>
<!-- Node8&#45;&gt;Node15 -->
<g id="edge35_Node000008_Node000015" class="edge">
<title>Node8&#45;&gt;Node15</title>
<g id="a_edge35_Node000008_Node000015"><a xlink:title=" ">
<path fill="none" stroke="#63b8ff" d="M938.22,-208.84C1017.95,-208.84 1123.36,-208.84 1200.71,-208.84"/>
<polygon fill="#63b8ff" stroke="#63b8ff" points="1200.95,-212.34 1210.95,-208.84 1200.95,-205.34 1200.95,-212.34"/>
</a>
</g>
</g>
<!-- Node9&#45;&gt;Node4 -->
<g id="edge9_Node000009_Node000004" class="edge">
<title>Node9&#45;&gt;Node4</title>
<g id="a_edge9_Node000009_Node000004"><a xlink:title=" ">
<path fill="none" stroke="#63b8ff" d="M1394.91,-175.87C1400.9,-178.41 1406.67,-181.37 1412,-184.84 1434.36,-199.36 1426.37,-217.24 1448,-232.84 1450.06,-234.32 1452.21,-235.72 1454.44,-237.03"/>
<polygon fill="#63b8ff" stroke="#63b8ff" points="1452.85,-240.14 1463.33,-241.69 1456.1,-233.95 1452.85,-240.14"/>
</a>
</g>
</g>
<!-- Node9&#45;&gt;Node5 -->
<g id="edge10_Node000009_Node000005" class="edge">
<title>Node9&#45;&gt;Node5</title>
<g id="a_edge10_Node000009_Node000005"><a xlink:title=" ">
<path fill="none" stroke="#63b8ff" d="M1373.81,-175.89C1395.92,-180.87 1420.68,-186.46 1443.46,-191.59"/>
<polygon fill="#63b8ff" stroke="#63b8ff" points="1442.9,-195.05 1453.43,-193.83 1444.44,-188.22 1442.9,-195.05"/>
</a>
</g>
</g>
<!-- Node9&#45;&gt;Node6 -->
<g id="edge11_Node000009_Node000006" class="edge">
<title>Node9&#45;&gt;Node6</title>
<g id="a_edge11_Node000009_Node000006"><a xlink:title=" ">
<path fill="none" stroke="#63b8ff" d="M1401.04,-146.27C1414.54,-144.17 1428.31,-142.04 1441.47,-140"/>
<polygon fill="#63b8ff" stroke="#63b8ff" points="1442.05,-143.46 1451.4,-138.47 1440.98,-136.54 1442.05,-143.46"/>
</a>
</g>
</g>
<!-- Node9&#45;&gt;Node7 -->
<g id="edge12_Node000009_Node000007" class="edge">
<title>Node9&#45;&gt;Node7</title>
<g id="a_edge12_Node000009_Node000007"><a xlink:title=" ">
<path fill="none" stroke="#63b8ff" d="M1399.13,-175.84C1403.72,-178.41 1408.06,-181.39 1412,-184.84 1446.31,-214.83 1415.19,-249.22 1448,-280.84 1449.13,-281.92 1450.3,-282.96 1451.52,-283.95"/>
<polygon fill="#63b8ff" stroke="#63b8ff" points="1449.9,-287.08 1460.13,-289.82 1453.85,-281.3 1449.9,-287.08"/>
</a>
</g>
</g>
<!-- Node10&#45;&gt;Node6 -->
<g id="edge22_Node000010_Node000006" class="edge">
<title>Node10&#45;&gt;Node6</title>
<g id="a_edge22_Node000010_Node000006"><a xlink:title=" ">
<path fill="none" stroke="#63b8ff" d="M1072.94,-289.68C1082.29,-246.08 1115.89,-120.33 1200,-70.84 1281.21,-23.05 1320.54,-48.18 1412,-70.84 1440.45,-77.88 1469.67,-93.94 1490.53,-107.23"/>
<polygon fill="#63b8ff" stroke="#63b8ff" points="1488.65,-110.17 1498.93,-112.71 1492.47,-104.31 1488.65,-110.17"/>
</a>
</g>
</g>
<!-- Node10&#45;&gt;Node7 -->
<g id="edge23_Node000010_Node000007" class="edge">
<title>Node10&#45;&gt;Node7</title>
<g id="a_edge23_Node000010_Node000007"><a xlink:title=" ">
<path fill="none" stroke="#63b8ff" d="M1089.78,-320.04C1114.14,-337.71 1157.54,-365.86 1200,-376.84 1291.23,-400.41 1321.82,-404.14 1412,-376.84 1444.37,-367.04 1475.9,-343.98 1496.46,-326.58"/>
<polygon fill="#63b8ff" stroke="#63b8ff" points="1498.78,-329.2 1504.04,-320 1494.19,-323.91 1498.78,-329.2"/>
</a>
</g>
</g>
<!-- Node10&#45;&gt;Node10 -->
<g id="edge24_Node000010_Node000010" class="edge">
<title>Node10&#45;&gt;Node10</title>
<g id="a_edge24_Node000010_Node000010"><a xlink:title=" ">
<path fill="none" stroke="#63b8ff" d="M1027.52,-320.11C1018.3,-329.24 1032.12,-337.84 1069,-337.84 1090.89,-337.84 1104.66,-334.81 1110.31,-330.43"/>
<polygon fill="#63b8ff" stroke="#63b8ff" points="1113.81,-330.17 1110.48,-320.11 1106.81,-330.05 1113.81,-330.17"/>
</a>
</g>
</g>
<!-- Node11 -->
<g id="Node000011" class="node">
<title>Node11</title>
<g id="a_Node000011"><a xlink:href="classcom_1_1teragrep_1_1pth__06_1_1ast_1_1transform_1_1FlattenLogical.html#a3b9085857dc57e88c58a6fa5a057f103" target="_top" xlink:title=" ">
<polygon fill="white" stroke="#666666" points="1401.5,-319.84 1210.5,-319.84 1210.5,-289.84 1401.5,-289.84 1401.5,-319.84"/>
<text text-anchor="start" x="1218.5" y="-307.84" font-family="Helvetica,sans-Serif" font-size="10.00">com.teragrep.pth_06.ast.transform.</text>
<text text-anchor="middle" x="1306" y="-296.84" font-family="Helvetica,sans-Serif" font-size="10.00">FlattenLogical.flattenedAndChildren</text>
</a>
</g>
</g>
<!-- Node10&#45;&gt;Node11 -->
<g id="edge14_Node000010_Node000011" class="edge">
<title>Node10&#45;&gt;Node11</title>
<g id="a_edge14_Node000010_Node000011"><a xlink:title=" ">
<path fill="none" stroke="#63b8ff" d="M1164.23,-304.84C1176.1,-304.84 1188.3,-304.84 1200.32,-304.84"/>
<polygon fill="#63b8ff" stroke="#63b8ff" points="1200.37,-308.34 1210.37,-304.84 1200.37,-301.34 1200.37,-308.34"/>
</a>
</g>
</g>
<!-- Node12 -->
<g id="Node000012" class="node">
<title>Node12</title>
<g id="a_Node000012"><a xlink:href="classcom_1_1teragrep_1_1pth__06_1_1ast_1_1transform_1_1FlattenLogical.html#ae0b8acc47ab74872494d07da365e303b" target="_top" xlink:title=" ">
<polygon fill="white" stroke="#666666" points="1401,-367.84 1211,-367.84 1211,-337.84 1401,-337.84 1401,-367.84"/>
<text text-anchor="start" x="1219" y="-355.84" font-family="Helvetica,sans-Serif" font-size="10.00">com.teragrep.pth_06.ast.transform.</text>
<text text-anchor="middle" x="1306" y="-344.84" font-family="Helvetica,sans-Serif" font-size="10.00">FlattenLogical.flattenedOrChildren</text>
</a>
</g>
</g>
<!-- Node10&#45;&gt;Node12 -->
<g id="edge18_Node000010_Node000012" class="edge">
<title>Node10&#45;&gt;Node12</title>
<g id="a_edge18_Node000010_Node000012"><a xlink:title=" ">
<path fill="none" stroke="#63b8ff" d="M1143.71,-319.89C1168.43,-324.94 1196.16,-330.61 1221.57,-335.8"/>
<polygon fill="#63b8ff" stroke="#63b8ff" points="1221.05,-339.26 1231.55,-337.83 1222.45,-332.4 1221.05,-339.26"/>
</a>
</g>
</g>
<!-- Node11&#45;&gt;Node4 -->
<g id="edge15_Node000011_Node000004" class="edge">
<title>Node11&#45;&gt;Node4</title>
<g id="a_edge15_Node000011_Node000004"><a xlink:title=" ">
<path fill="none" stroke="#63b8ff" d="M1373.81,-289.78C1395.92,-284.8 1420.68,-279.22 1443.46,-274.08"/>
<polygon fill="#63b8ff" stroke="#63b8ff" points="1444.44,-277.45 1453.43,-271.84 1442.9,-270.62 1444.44,-277.45"/>
</a>
</g>
</g>
<!-- Node11&#45;&gt;Node5 -->
<g id="edge16_Node000011_Node000005" class="edge">
<title>Node11&#45;&gt;Node5</title>
<g id="a_edge16_Node000011_Node000005"><a xlink:title=" ">
<path fill="none" stroke="#63b8ff" d="M1394.91,-289.81C1400.9,-287.27 1406.67,-284.3 1412,-280.84 1434.36,-266.31 1426.37,-248.43 1448,-232.84 1450.06,-231.35 1452.21,-229.96 1454.44,-228.64"/>
<polygon fill="#63b8ff" stroke="#63b8ff" points="1456.1,-231.73 1463.33,-223.98 1452.85,-225.53 1456.1,-231.73"/>
</a>
</g>
</g>
<!-- Node11&#45;&gt;Node7 -->
<g id="edge17_Node000011_Node000007" class="edge">
<title>Node11&#45;&gt;Node7</title>
<g id="a_edge17_Node000011_Node000007"><a xlink:title=" ">
<path fill="none" stroke="#63b8ff" d="M1401.67,-304.84C1414.9,-304.84 1428.39,-304.84 1441.29,-304.84"/>
<polygon fill="#63b8ff" stroke="#63b8ff" points="1441.49,-308.34 1451.49,-304.84 1441.49,-301.34 1441.49,-308.34"/>
</a>
</g>
</g>
<!-- Node12&#45;&gt;Node4 -->
<g id="edge19_Node000012_Node000004" class="edge">
<title>Node12&#45;&gt;Node4</title>
<g id="a_edge19_Node000012_Node000004"><a xlink:title=" ">
<path fill="none" stroke="#63b8ff" d="M1394.91,-337.81C1400.9,-335.27 1406.67,-332.3 1412,-328.84 1434.36,-314.31 1426.37,-296.43 1448,-280.84 1450.06,-279.35 1452.21,-277.96 1454.44,-276.64"/>
<polygon fill="#63b8ff" stroke="#63b8ff" points="1456.1,-279.73 1463.33,-271.98 1452.85,-273.53 1456.1,-279.73"/>
</a>
</g>
</g>
<!-- Node12&#45;&gt;Node5 -->
<g id="edge20_Node000012_Node000005" class="edge">
<title>Node12&#45;&gt;Node5</title>
<g id="a_edge20_Node000012_Node000005"><a xlink:title=" ">
<path fill="none" stroke="#63b8ff" d="M1399.13,-337.84C1403.72,-335.26 1408.06,-332.28 1412,-328.84 1446.31,-298.85 1415.19,-264.46 1448,-232.84 1449.13,-231.75 1450.3,-230.71 1451.52,-229.72"/>
<polygon fill="#63b8ff" stroke="#63b8ff" points="1453.85,-232.38 1460.13,-223.85 1449.9,-226.6 1453.85,-232.38"/>
</a>
</g>
</g>
<!-- Node12&#45;&gt;Node7 -->
<g id="edge21_Node000012_Node000007" class="edge">
<title>Node12&#45;&gt;Node7</title>
<g id="a_edge21_Node000012_Node000007"><a xlink:title=" ">
<path fill="none" stroke="#63b8ff" d="M1373.81,-337.78C1395.92,-332.8 1420.68,-327.22 1443.46,-322.08"/>
<polygon fill="#63b8ff" stroke="#63b8ff" points="1444.44,-325.45 1453.43,-319.84 1442.9,-318.62 1444.44,-325.45"/>
</a>
</g>
</g>
<!-- Node13&#45;&gt;Node4 -->
<g id="edge26_Node000013_Node000004" class="edge">
<title>Node13&#45;&gt;Node4</title>
<g id="a_edge26_Node000013_Node000004"><a xlink:title=" ">
<path fill="none" stroke="#63b8ff" d="M1369.06,-109.94C1384.65,-116.17 1400.26,-124.84 1412,-136.84 1443.87,-169.41 1415.19,-201.22 1448,-232.84 1449.13,-233.92 1450.3,-234.96 1451.52,-235.95"/>
<polygon fill="#63b8ff" stroke="#63b8ff" points="1449.9,-239.08 1460.13,-241.82 1453.85,-233.3 1449.9,-239.08"/>
</a>
</g>
</g>
<!-- Node13&#45;&gt;Node5 -->
<g id="edge27_Node000013_Node000005" class="edge">
<title>Node13&#45;&gt;Node5</title>
<g id="a_edge27_Node000013_Node000005"><a xlink:title=" ">
<path fill="none" stroke="#63b8ff" d="M1350.31,-109.84C1369.61,-117.11 1392.37,-126.51 1412,-136.84 1440.4,-151.77 1470.61,-172.37 1491.84,-187.71"/>
<polygon fill="#63b8ff" stroke="#63b8ff" points="1489.94,-190.65 1500.08,-193.72 1494.06,-184.99 1489.94,-190.65"/>
</a>
</g>
</g>
<!-- Node13&#45;&gt;Node6 -->
<g id="edge28_Node000013_Node000006" class="edge">
<title>Node13&#45;&gt;Node6</title>
<g id="a_edge28_Node000013_Node000006"><a xlink:title=" ">
<path fill="none" stroke="#63b8ff" d="M1401.04,-109.41C1414.54,-111.5 1428.31,-113.63 1441.47,-115.67"/>
<polygon fill="#63b8ff" stroke="#63b8ff" points="1440.98,-119.14 1451.4,-117.21 1442.05,-112.22 1440.98,-119.14"/>
</a>
</g>
</g>
<!-- Node13&#45;&gt;Node13 -->
<g id="edge29_Node000013_Node000013" class="edge">
<title>Node13&#45;&gt;Node13</title>
<g id="a_edge29_Node000013_Node000013"><a xlink:title=" ">
<path fill="none" stroke="#63b8ff" d="M1268.38,-110.11C1260.02,-119.24 1272.56,-127.84 1306,-127.84 1325.85,-127.84 1338.34,-124.81 1343.46,-120.43"/>
<polygon fill="#63b8ff" stroke="#63b8ff" points="1346.96,-120.16 1343.62,-110.11 1339.96,-120.06 1346.96,-120.16"/>
</a>
</g>
</g>
<!-- Node14&#45;&gt;Node4 -->
<g id="edge31_Node000014_Node000004" class="edge">
<title>Node14&#45;&gt;Node4</title>
<g id="a_edge31_Node000014_Node000004"><a xlink:title=" ">
<path fill="none" stroke="#63b8ff" d="M1412.25,-256.84C1422.03,-256.84 1431.82,-256.84 1441.29,-256.84"/>
<polygon fill="#63b8ff" stroke="#63b8ff" points="1441.43,-260.34 1451.43,-256.84 1441.43,-253.34 1441.43,-260.34"/>
</a>
</g>
</g>
<!-- Node14&#45;&gt;Node5 -->
<g id="edge32_Node000014_Node000005" class="edge">
<title>Node14&#45;&gt;Node5</title>
<g id="a_edge32_Node000014_Node000005"><a xlink:title=" ">
<path fill="none" stroke="#63b8ff" d="M1373.81,-241.78C1395.92,-236.8 1420.68,-231.22 1443.46,-226.08"/>
<polygon fill="#63b8ff" stroke="#63b8ff" points="1444.44,-229.45 1453.43,-223.84 1442.9,-222.62 1444.44,-229.45"/>
</a>
</g>
</g>
<!-- Node14&#45;&gt;Node6 -->
<g id="edge33_Node000014_Node000006" class="edge">
<title>Node14&#45;&gt;Node6</title>
<g id="a_edge33_Node000014_Node000006"><a xlink:title=" ">
<path fill="none" stroke="#63b8ff" d="M1394.91,-241.81C1400.9,-239.27 1406.67,-236.3 1412,-232.84 1434.36,-218.31 1429.39,-203.94 1448,-184.84 1460.71,-171.79 1476.42,-159.03 1489.92,-148.9"/>
<polygon fill="#63b8ff" stroke="#63b8ff" points="1492.02,-151.71 1498,-142.96 1487.87,-146.07 1492.02,-151.71"/>
</a>
</g>
</g>
<!-- Node14&#45;&gt;Node7 -->
<g id="edge34_Node000014_Node000007" class="edge">
<title>Node14&#45;&gt;Node7</title>
<g id="a_edge34_Node000014_Node000007"><a xlink:title=" ">
<path fill="none" stroke="#63b8ff" d="M1373.81,-271.89C1395.92,-276.87 1420.68,-282.46 1443.46,-287.59"/>
<polygon fill="#63b8ff" stroke="#63b8ff" points="1442.9,-291.05 1453.43,-289.83 1444.44,-284.22 1442.9,-291.05"/>
</a>
</g>
</g>
<!-- Node15&#45;&gt;Node4 -->
<g id="edge36_Node000015_Node000004" class="edge">
<title>Node15&#45;&gt;Node4</title>
<g id="a_edge36_Node000015_Node000004"><a xlink:title=" ">
<path fill="none" stroke="#63b8ff" d="M1373.81,-223.89C1395.92,-228.87 1420.68,-234.46 1443.46,-239.59"/>
<polygon fill="#63b8ff" stroke="#63b8ff" points="1442.9,-243.05 1453.43,-241.83 1444.44,-236.22 1442.9,-243.05"/>
</a>
</g>
</g>
<!-- Node15&#45;&gt;Node5 -->
<g id="edge37_Node000015_Node000005" class="edge">
<title>Node15&#45;&gt;Node5</title>
<g id="a_edge37_Node000015_Node000005"><a xlink:title=" ">
<path fill="none" stroke="#63b8ff" d="M1401.04,-208.84C1413.32,-208.84 1425.82,-208.84 1437.88,-208.84"/>
<polygon fill="#63b8ff" stroke="#63b8ff" points="1437.89,-212.34 1447.89,-208.84 1437.89,-205.34 1437.89,-212.34"/>
</a>
</g>
</g>
<!-- Node15&#45;&gt;Node6 -->
<g id="edge38_Node000015_Node000006" class="edge">
<title>Node15&#45;&gt;Node6</title>
<g id="a_edge38_Node000015_Node000006"><a xlink:title=" ">
<path fill="none" stroke="#63b8ff" d="M1383.68,-193.77C1393.33,-191.16 1402.97,-188.19 1412,-184.84 1438.32,-175.07 1466.3,-160.16 1487.19,-148.04"/>
<polygon fill="#63b8ff" stroke="#63b8ff" points="1489.13,-150.96 1495.97,-142.87 1485.58,-144.93 1489.13,-150.96"/>
</a>
</g>
</g>
<!-- Node15&#45;&gt;Node7 -->
<g id="edge39_Node000015_Node000007" class="edge">
<title>Node15&#45;&gt;Node7</title>
<g id="a_edge39_Node000015_Node000007"><a xlink:title=" ">
<path fill="none" stroke="#63b8ff" d="M1394.91,-223.87C1400.9,-226.41 1406.67,-229.37 1412,-232.84 1434.36,-247.36 1426.37,-265.24 1448,-280.84 1450.06,-282.32 1452.21,-283.72 1454.44,-285.03"/>
<polygon fill="#63b8ff" stroke="#63b8ff" points="1452.85,-288.14 1463.33,-289.69 1456.1,-281.95 1452.85,-288.14"/>
</a>
</g>
</g>
</g>
</svg>
