<?xml version="1.0" encoding="UTF-8" standalone="no"?>
<!DOCTYPE svg PUBLIC "-//W3C//DTD SVG 1.1//EN"
 "http://www.w3.org/Graphics/SVG/1.1/DTD/svg11.dtd">
<!-- Generated by graphviz version 2.43.0 (0)
 -->
<!-- Title: com.teragrep.pth_06.ast.transform.FlattenLogicalTest.testAndFlattening Pages: 1 -->
<svg width="838pt" height="177pt"
 viewBox="0.00 0.00 838.00 177.00" xmlns="http://www.w3.org/2000/svg" xmlns:xlink="http://www.w3.org/1999/xlink">
<g id="graph0" class="graph" transform="scale(1 1) rotate(0) translate(4 173)">
<title>com.teragrep.pth_06.ast.transform.FlattenLogicalTest.testAndFlattening</title>
<!-- Node1 -->
<g id="Node000001" class="node">
<title>Node1</title>
<g id="a_Node000001"><a xlink:title=" ">
<polygon fill="#999999" stroke="#666666" points="195,-94 0,-94 0,-64 195,-64 195,-94"/>
<text text-anchor="start" x="8" y="-82" font-family="Helvetica,sans-Serif" font-size="10.00">com.teragrep.pth_06.ast.transform.</text>
<text text-anchor="middle" x="97.5" y="-71" font-family="Helvetica,sans-Serif" font-size="10.00">FlattenLogicalTest.testAndFlattening</text>
</a>
</g>
</g>
<!-- Node2 -->
<g id="Node000002" class="node">
<title>Node2</title>
<g id="a_Node000002"><a xlink:href="classcom_1_1teragrep_1_1pth__06_1_1ast_1_1transform_1_1FlattenLogical.html#a2e1717ad6884eea7a2415aa7763eaed5" target="_top" xlink:title=" ">
<polygon fill="white" stroke="#666666" points="421,-94 231,-94 231,-64 421,-64 421,-94"/>
<text text-anchor="start" x="239" y="-82" font-family="Helvetica,sans-Serif" font-size="10.00">com.teragrep.pth_06.ast.transform.</text>
<text text-anchor="middle" x="326" y="-71" font-family="Helvetica,sans-Serif" font-size="10.00">FlattenLogical.transformed</text>
</a>
</g>
</g>
<!-- Node1&#45;&gt;Node2 -->
<g id="edge1_Node000001_Node000002" class="edge">
<title>Node1&#45;&gt;Node2</title>
<g id="a_edge1_Node000001_Node000002"><a xlink:title=" ">
<path fill="none" stroke="#63b8ff" d="M195.21,-79C203.59,-79 212.09,-79 220.53,-79"/>
<polygon fill="#63b8ff" stroke="#63b8ff" points="220.77,-82.5 230.77,-79 220.77,-75.5 220.77,-82.5"/>
</a>
</g>
</g>
<!-- Node2&#45;&gt;Node2 -->
<g id="edge12_Node000002_Node000002" class="edge">
<title>Node2&#45;&gt;Node2</title>
<g id="a_edge12_Node000002_Node000002"><a xlink:title=" ">
<path fill="none" stroke="#63b8ff" d="M286.27,-94.28C277.45,-103.41 290.69,-112 326,-112 346.97,-112 360.15,-108.97 365.56,-104.6"/>
<polygon fill="#63b8ff" stroke="#63b8ff" points="369.06,-104.33 365.73,-94.28 362.06,-104.22 369.06,-104.33"/>
</a>
</g>
</g>
<!-- Node3 -->
<g id="Node000003" class="node">
<title>Node3</title>
<g id="a_Node000003"><a xlink:href="classcom_1_1teragrep_1_1pth__06_1_1ast_1_1transform_1_1FlattenLogical.html#a3b9085857dc57e88c58a6fa5a057f103" target="_top" xlink:title=" ">
<polygon fill="white" stroke="#666666" points="648,-164 457,-164 457,-134 648,-134 648,-164"/>
<text text-anchor="start" x="465" y="-152" font-family="Helvetica,sans-Serif" font-size="10.00">com.teragrep.pth_06.ast.transform.</text>
<text text-anchor="middle" x="552.5" y="-141" font-family="Helvetica,sans-Serif" font-size="10.00">FlattenLogical.flattenedAndChildren</text>
</a>
</g>
</g>
<!-- Node2&#45;&gt;Node3 -->
<g id="edge2_Node000002_Node000003" class="edge">
<title>Node2&#45;&gt;Node3</title>
<g id="a_edge2_Node000002_Node000003"><a xlink:title=" ">
<path fill="none" stroke="#63b8ff" d="M366.52,-94.04C392.12,-103.52 426.3,-115.69 457,-125 464.15,-127.17 471.65,-129.3 479.16,-131.35"/>
<polygon fill="#63b8ff" stroke="#63b8ff" points="478.44,-134.78 489.01,-133.99 480.25,-128.02 478.44,-134.78"/>
</a>
</g>
</g>
<!-- Node6 -->
<g id="Node000006" class="node">
<title>Node6</title>
<g id="a_Node000006"><a xlink:href="interfacecom_1_1teragrep_1_1pth__06_1_1ast_1_1Expression.html#a8b9661253a3610b9eb148ee29ca8b7e1" target="_top" xlink:title=" ">
<polygon fill="white" stroke="#666666" points="826.5,-73 687.5,-73 687.5,-43 826.5,-43 826.5,-73"/>
<text text-anchor="start" x="695.5" y="-61" font-family="Helvetica,sans-Serif" font-size="10.00">com.teragrep.pth_06.ast.</text>
<text text-anchor="middle" x="757" y="-50" font-family="Helvetica,sans-Serif" font-size="10.00">Expression.tag</text>
</a>
</g>
</g>
<!-- Node2&#45;&gt;Node6 -->
<g id="edge11_Node000002_Node000006" class="edge">
<title>Node2&#45;&gt;Node6</title>
<g id="a_edge11_Node000002_Node000006"><a xlink:title=" ">
<path fill="none" stroke="#63b8ff" d="M421.15,-74.39C497.78,-70.64 604.73,-65.4 676.97,-61.87"/>
<polygon fill="#63b8ff" stroke="#63b8ff" points="677.55,-65.34 687.37,-61.36 677.21,-58.35 677.55,-65.34"/>
</a>
</g>
</g>
<!-- Node7 -->
<g id="Node000007" class="node">
<title>Node7</title>
<g id="a_Node000007"><a xlink:href="classcom_1_1teragrep_1_1pth__06_1_1ast_1_1transform_1_1FlattenLogical.html#ae0b8acc47ab74872494d07da365e303b" target="_top" xlink:title=" ">
<polygon fill="white" stroke="#666666" points="647.5,-116 457.5,-116 457.5,-86 647.5,-86 647.5,-116"/>
<text text-anchor="start" x="465.5" y="-104" font-family="Helvetica,sans-Serif" font-size="10.00">com.teragrep.pth_06.ast.transform.</text>
<text text-anchor="middle" x="552.5" y="-93" font-family="Helvetica,sans-Serif" font-size="10.00">FlattenLogical.flattenedOrChildren</text>
</a>
</g>
</g>
<!-- Node2&#45;&gt;Node7 -->
<g id="edge6_Node000002_Node000007" class="edge">
<title>Node2&#45;&gt;Node7</title>
<g id="a_edge6_Node000002_Node000007"><a xlink:title=" ">
<path fill="none" stroke="#63b8ff" d="M421.23,-88.23C429.77,-89.07 438.45,-89.92 447.07,-90.77"/>
<polygon fill="#63b8ff" stroke="#63b8ff" points="446.86,-94.26 457.15,-91.75 447.54,-87.3 446.86,-94.26"/>
</a>
</g>
</g>
<!-- Node8 -->
<g id="Node000008" class="node">
<title>Node8</title>
<g id="a_Node000008"><a xlink:href="interfacecom_1_1teragrep_1_1pth__06_1_1ast_1_1Expression.html#a65ee7f5fb98e4129018f467a53586842" target="_top" xlink:title=" ">
<polygon fill="white" stroke="#666666" points="622,-30 483,-30 483,0 622,0 622,-30"/>
<text text-anchor="start" x="491" y="-18" font-family="Helvetica,sans-Serif" font-size="10.00">com.teragrep.pth_06.ast.</text>
<text text-anchor="middle" x="552.5" y="-7" font-family="Helvetica,sans-Serif" font-size="10.00">Expression.isLogical</text>
</a>
</g>
</g>
<!-- Node2&#45;&gt;Node8 -->
<g id="edge10_Node000002_Node000008" class="edge">
<title>Node2&#45;&gt;Node8</title>
<g id="a_edge10_Node000002_Node000008"><a xlink:title=" ">
<path fill="none" stroke="#63b8ff" d="M379.64,-63.99C412.31,-54.68 454.48,-42.66 488.87,-32.86"/>
<polygon fill="#63b8ff" stroke="#63b8ff" points="490.15,-36.13 498.81,-30.02 488.23,-29.4 490.15,-36.13"/>
</a>
</g>
</g>
<!-- Node4 -->
<g id="Node000004" class="node">
<title>Node4</title>
<g id="a_Node000004"><a xlink:href="interfacecom_1_1teragrep_1_1pth__06_1_1ast_1_1Expression.html#a17e7d33905be57c6e22e1717da6ddef6" target="_top" xlink:title=" ">
<polygon fill="white" stroke="#666666" points="826.5,-121 687.5,-121 687.5,-91 826.5,-91 826.5,-121"/>
<text text-anchor="start" x="695.5" y="-109" font-family="Helvetica,sans-Serif" font-size="10.00">com.teragrep.pth_06.ast.</text>
<text text-anchor="middle" x="757" y="-98" font-family="Helvetica,sans-Serif" font-size="10.00">Expression.asLogical</text>
</a>
</g>
</g>
<!-- Node3&#45;&gt;Node4 -->
<g id="edge3_Node000003_Node000004" class="edge">
<title>Node3&#45;&gt;Node4</title>
<g id="a_edge3_Node000003_Node000004"><a xlink:title=" ">
<path fill="none" stroke="#63b8ff" d="M624.32,-133.96C641.39,-130.34 659.73,-126.44 677.14,-122.75"/>
<polygon fill="#63b8ff" stroke="#63b8ff" points="678.21,-126.1 687.26,-120.6 676.75,-119.25 678.21,-126.1"/>
</a>
</g>
</g>
<!-- Node5 -->
<g id="Node000005" class="node">
<title>Node5</title>
<g id="a_Node000005"><a xlink:href="interfacecom_1_1teragrep_1_1pth__06_1_1ast_1_1LogicalExpression.html#aeaf8fe296c6899792f345659a9a6c0c4" target="_top" xlink:title=" ">
<polygon fill="white" stroke="#666666" points="830,-169 684,-169 684,-139 830,-139 830,-169"/>
<text text-anchor="start" x="692" y="-157" font-family="Helvetica,sans-Serif" font-size="10.00">com.teragrep.pth_06.ast.</text>
<text text-anchor="middle" x="757" y="-146" font-family="Helvetica,sans-Serif" font-size="10.00">LogicalExpression.children</text>
</a>
</g>
</g>
<!-- Node3&#45;&gt;Node5 -->
<g id="edge4_Node000003_Node000005" class="edge">
<title>Node3&#45;&gt;Node5</title>
<g id="a_edge4_Node000003_Node000005"><a xlink:title=" ">
<path fill="none" stroke="#63b8ff" d="M648.23,-151.34C656.72,-151.55 665.27,-151.76 673.64,-151.97"/>
<polygon fill="#63b8ff" stroke="#63b8ff" points="673.66,-155.47 683.75,-152.22 673.84,-148.47 673.66,-155.47"/>
</a>
</g>
</g>
<!-- Node3&#45;&gt;Node6 -->
<g id="edge5_Node000003_Node000006" class="edge">
<title>Node3&#45;&gt;Node6</title>
<g id="a_edge5_Node000003_Node000006"><a xlink:title=" ">
<path fill="none" stroke="#63b8ff" d="M630.52,-133.88C636.64,-131.36 642.55,-128.42 648,-125 669.1,-111.73 663.4,-96.03 684,-82 686.27,-80.45 688.65,-79 691.1,-77.64"/>
<polygon fill="#63b8ff" stroke="#63b8ff" points="692.87,-80.67 700.25,-73.07 689.74,-74.4 692.87,-80.67"/>
</a>
</g>
</g>
<!-- Node7&#45;&gt;Node4 -->
<g id="edge7_Node000007_Node000004" class="edge">
<title>Node7&#45;&gt;Node4</title>
<g id="a_edge7_Node000007_Node000004"><a xlink:title=" ">
<path fill="none" stroke="#63b8ff" d="M647.64,-103.32C657.6,-103.57 667.66,-103.82 677.42,-104.06"/>
<polygon fill="#63b8ff" stroke="#63b8ff" points="677.39,-107.56 687.47,-104.31 677.56,-100.56 677.39,-107.56"/>
</a>
</g>
</g>
<!-- Node7&#45;&gt;Node5 -->
<g id="edge8_Node000007_Node000005" class="edge">
<title>Node7&#45;&gt;Node5</title>
<g id="a_edge8_Node000007_Node000005"><a xlink:title=" ">
<path fill="none" stroke="#63b8ff" d="M613.27,-116.05C624.8,-118.99 636.78,-122.07 648,-125 661.75,-128.59 676.48,-132.5 690.49,-136.26"/>
<polygon fill="#63b8ff" stroke="#63b8ff" points="689.98,-139.74 700.54,-138.95 691.79,-132.98 689.98,-139.74"/>
</a>
</g>
</g>
<!-- Node7&#45;&gt;Node6 -->
<g id="edge9_Node000007_Node000006" class="edge">
<title>Node7&#45;&gt;Node6</title>
<g id="a_edge9_Node000007_Node000006"><a xlink:title=" ">
<path fill="none" stroke="#63b8ff" d="M624.32,-85.96C641.39,-82.34 659.73,-78.44 677.14,-74.75"/>
<polygon fill="#63b8ff" stroke="#63b8ff" points="678.21,-78.1 687.26,-72.6 676.75,-71.25 678.21,-78.1"/>
</a>
</g>
</g>
</g>
</svg>
