<?xml version="1.0" encoding="UTF-8" standalone="no"?>
<!DOCTYPE svg PUBLIC "-//W3C//DTD SVG 1.1//EN"
 "http://www.w3.org/Graphics/SVG/1.1/DTD/svg11.dtd">
<!-- Generated by graphviz version 2.43.0 (0)
 -->
<!-- Title: com.teragrep.pth_06.ast.EmptyExpression.equals Pages: 1 -->
<svg width="372pt" height="86pt"
 viewBox="0.00 0.00 372.00 86.00" xmlns="http://www.w3.org/2000/svg" xmlns:xlink="http://www.w3.org/1999/xlink">
<g id="graph0" class="graph" transform="scale(1 1) rotate(0) translate(4 82)">
<title>com.teragrep.pth_06.ast.EmptyExpression.equals</title>
<!-- Node1 -->
<g id="Node000001" class="node">
<title>Node1</title>
<g id="a_Node000001"><a xlink:title=" ">
<polygon fill="#999999" stroke="#666666" points="139,-54 0,-54 0,-24 139,-24 139,-54"/>
<text text-anchor="start" x="8" y="-42" font-family="Helvetica,sans-Serif" font-size="10.00">com.teragrep.pth_06.ast.</text>
<text text-anchor="middle" x="69.5" y="-31" font-family="Helvetica,sans-Serif" font-size="10.00">EmptyExpression.equals</text>
</a>
</g>
</g>
<!-- Node2 -->
<g id="Node000002" class="node">
<title>Node2</title>
<g id="a_Node000002"><a xlink:href="classcom_1_1teragrep_1_1pth__06_1_1ast_1_1EmptyExpression.html#a0c247f77f14c96c8bd02369676765eca" target="_top" xlink:title=" ">
<polygon fill="white" stroke="#666666" points="364,-78 175,-78 175,-48 364,-48 364,-78"/>
<text text-anchor="start" x="183" y="-66" font-family="Helvetica,sans-Serif" font-size="10.00">com.teragrep.pth_06.ast.</text>
<text text-anchor="middle" x="269.5" y="-55" font-family="Helvetica,sans-Serif" font-size="10.00">EmptyExpression.EmptyExpression</text>
</a>
</g>
</g>
<!-- Node1&#45;&gt;Node2 -->
<g id="edge1_Node000001_Node000002" class="edge">
<title>Node1&#45;&gt;Node2</title>
<g id="a_edge1_Node000001_Node000002"><a xlink:title=" ">
<path fill="none" stroke="#63b8ff" d="M139.2,-47.33C147.46,-48.33 156.04,-49.37 164.67,-50.42"/>
<polygon fill="#63b8ff" stroke="#63b8ff" points="164.46,-53.92 174.81,-51.64 165.31,-46.97 164.46,-53.92"/>
</a>
</g>
</g>
<!-- Node3 -->
<g id="Node000003" class="node">
<title>Node3</title>
<g id="a_Node000003"><a xlink:href="classcom_1_1teragrep_1_1pth__06_1_1ast_1_1EmptyExpression.html#a4afa3fa53ffc900ad78a6e679de57141" target="_top" xlink:title=" ">
<polygon fill="white" stroke="#666666" points="339,-30 200,-30 200,0 339,0 339,-30"/>
<text text-anchor="start" x="208" y="-18" font-family="Helvetica,sans-Serif" font-size="10.00">com.teragrep.pth_06.ast.</text>
<text text-anchor="middle" x="269.5" y="-7" font-family="Helvetica,sans-Serif" font-size="10.00">EmptyExpression.tag</text>
</a>
</g>
</g>
<!-- Node1&#45;&gt;Node3 -->
<g id="edge2_Node000001_Node000003" class="edge">
<title>Node1&#45;&gt;Node3</title>
<g id="a_edge2_Node000001_Node000003"><a xlink:title=" ">
<path fill="none" stroke="#63b8ff" d="M139.2,-30.67C155.47,-28.7 172.96,-26.58 189.65,-24.56"/>
<polygon fill="#63b8ff" stroke="#63b8ff" points="190.42,-27.99 199.93,-23.31 189.58,-21.04 190.42,-27.99"/>
</a>
</g>
</g>
</g>
</svg>
