<?xml version="1.0" encoding="UTF-8" standalone="no"?>
<!DOCTYPE svg PUBLIC "-//W3C//DTD SVG 1.1//EN"
 "http://www.w3.org/Graphics/SVG/1.1/DTD/svg11.dtd">
<!-- Generated by graphviz version 2.43.0 (0)
 -->
<!-- Title: com.teragrep.pth_06.ast.transform.OptimizedASTTest.testFlattenedLogical Pages: 1 -->
<svg width="1591pt" height="427pt"
 viewBox="0.00 0.00 1591.00 427.42" xmlns="http://www.w3.org/2000/svg" xmlns:xlink="http://www.w3.org/1999/xlink">
<g id="graph0" class="graph" transform="scale(1 1) rotate(0) translate(4 423.42)">
<title>com.teragrep.pth_06.ast.transform.OptimizedASTTest.testFlattenedLogical</title>
<!-- Node1 -->
<g id="Node000001" class="node">
<title>Node1</title>
<g id="a_Node000001"><a xlink:title=" ">
<polygon fill="#999999" stroke="#666666" points="208,-223.84 0,-223.84 0,-193.84 208,-193.84 208,-223.84"/>
<text text-anchor="start" x="8" y="-211.84" font-family="Helvetica,sans-Serif" font-size="10.00">com.teragrep.pth_06.ast.transform.</text>
<text text-anchor="middle" x="104" y="-200.84" font-family="Helvetica,sans-Serif" font-size="10.00">OptimizedASTTest.testFlattenedLogical</text>
</a>
</g>
</g>
<!-- Node2 -->
<g id="Node000002" class="node">
<title>Node2</title>
<g id="a_Node000002"><a xlink:href="classcom_1_1teragrep_1_1pth__06_1_1ast_1_1transform_1_1OptimizedAST.html#a05726d2699d7ade747e74de2140c6a41" target="_top" xlink:title=" ">
<polygon fill="white" stroke="#666666" points="434,-223.84 244,-223.84 244,-193.84 434,-193.84 434,-223.84"/>
<text text-anchor="start" x="252" y="-211.84" font-family="Helvetica,sans-Serif" font-size="10.00">com.teragrep.pth_06.ast.transform.</text>
<text text-anchor="middle" x="339" y="-200.84" font-family="Helvetica,sans-Serif" font-size="10.00">OptimizedAST.transformed</text>
</a>
</g>
</g>
<!-- Node1&#45;&gt;Node2 -->
<g id="edge1_Node000001_Node000002" class="edge">
<title>Node1&#45;&gt;Node2</title>
<g id="a_edge1_Node000001_Node000002"><a xlink:title=" ">
<path fill="none" stroke="#63b8ff" d="M208.21,-208.84C216.61,-208.84 225.1,-208.84 233.5,-208.84"/>
<polygon fill="#63b8ff" stroke="#63b8ff" points="233.7,-212.34 243.7,-208.84 233.7,-205.34 233.7,-212.34"/>
</a>
</g>
</g>
<!-- Node3 -->
<g id="Node000003" class="node">
<title>Node3</title>
<g id="a_Node000003"><a xlink:href="classcom_1_1teragrep_1_1pth__06_1_1ast_1_1transform_1_1OptimizedAST.html#ac4ebcab5c55182e969cd03150e96e374" target="_top" xlink:title=" ">
<polygon fill="white" stroke="#666666" points="660,-223.84 470,-223.84 470,-193.84 660,-193.84 660,-223.84"/>
<text text-anchor="start" x="478" y="-211.84" font-family="Helvetica,sans-Serif" font-size="10.00">com.teragrep.pth_06.ast.transform.</text>
<text text-anchor="middle" x="565" y="-200.84" font-family="Helvetica,sans-Serif" font-size="10.00">OptimizedAST.walkAndApply</text>
</a>
</g>
</g>
<!-- Node2&#45;&gt;Node3 -->
<g id="edge2_Node000002_Node000003" class="edge">
<title>Node2&#45;&gt;Node3</title>
<g id="a_edge2_Node000002_Node000003"><a xlink:title=" ">
<path fill="none" stroke="#63b8ff" d="M434.02,-208.84C442.54,-208.84 451.2,-208.84 459.8,-208.84"/>
<polygon fill="#63b8ff" stroke="#63b8ff" points="459.86,-212.34 469.86,-208.84 459.86,-205.34 459.86,-212.34"/>
</a>
</g>
</g>
<!-- Node3&#45;&gt;Node3 -->
<g id="edge40_Node000003_Node000003" class="edge">
<title>Node3&#45;&gt;Node3</title>
<g id="a_edge40_Node000003_Node000003"><a xlink:title=" ">
<path fill="none" stroke="#63b8ff" d="M525.27,-224.11C516.45,-233.24 529.69,-241.84 565,-241.84 585.97,-241.84 599.15,-238.81 604.56,-234.43"/>
<polygon fill="#63b8ff" stroke="#63b8ff" points="608.06,-234.17 604.73,-224.11 601.06,-234.05 608.06,-234.17"/>
</a>
</g>
</g>
<!-- Node4 -->
<g id="Node000004" class="node">
<title>Node4</title>
<g id="a_Node000004"><a xlink:href="interfacecom_1_1teragrep_1_1pth__06_1_1ast_1_1Expression.html#a17e7d33905be57c6e22e1717da6ddef6" target="_top" xlink:title=" ">
<polygon fill="white" stroke="#666666" points="1579.5,-271.84 1440.5,-271.84 1440.5,-241.84 1579.5,-241.84 1579.5,-271.84"/>
<text text-anchor="start" x="1448.5" y="-259.84" font-family="Helvetica,sans-Serif" font-size="10.00">com.teragrep.pth_06.ast.</text>
<text text-anchor="middle" x="1510" y="-248.84" font-family="Helvetica,sans-Serif" font-size="10.00">Expression.asLogical</text>
</a>
</g>
</g>
<!-- Node3&#45;&gt;Node4 -->
<g id="edge3_Node000003_Node000004" class="edge">
<title>Node3&#45;&gt;Node4</title>
<g id="a_edge3_Node000003_Node000004"><a xlink:title=" ">
<path fill="none" stroke="#63b8ff" d="M601.4,-223.88C669.92,-252.38 825.98,-314.28 963,-346.84 1061.58,-370.26 1087.89,-370.16 1189,-376.84 1283.02,-383.05 1323.56,-430.51 1401,-376.84 1438.45,-350.88 1404.19,-312.46 1437,-280.84 1438.13,-279.75 1439.3,-278.71 1440.52,-277.72"/>
<polygon fill="#63b8ff" stroke="#63b8ff" points="1442.85,-280.38 1449.13,-271.85 1438.9,-274.6 1442.85,-280.38"/>
</a>
</g>
</g>
<!-- Node5 -->
<g id="Node000005" class="node">
<title>Node5</title>
<g id="a_Node000005"><a xlink:href="interfacecom_1_1teragrep_1_1pth__06_1_1ast_1_1LogicalExpression.html#aeaf8fe296c6899792f345659a9a6c0c4" target="_top" xlink:title=" ">
<polygon fill="white" stroke="#666666" points="1583,-223.84 1437,-223.84 1437,-193.84 1583,-193.84 1583,-223.84"/>
<text text-anchor="start" x="1445" y="-211.84" font-family="Helvetica,sans-Serif" font-size="10.00">com.teragrep.pth_06.ast.</text>
<text text-anchor="middle" x="1510" y="-200.84" font-family="Helvetica,sans-Serif" font-size="10.00">LogicalExpression.children</text>
</a>
</g>
</g>
<!-- Node3&#45;&gt;Node5 -->
<g id="edge4_Node000003_Node000005" class="edge">
<title>Node3&#45;&gt;Node5</title>
<g id="a_edge4_Node000003_Node000005"><a xlink:title=" ">
<path fill="none" stroke="#63b8ff" d="M590.35,-193.65C696.57,-129.52 1126.26,107.71 1401,-70.84 1434.03,-92.3 1412.86,-120.71 1437,-151.84 1447.66,-165.58 1462.31,-177.96 1475.62,-187.65"/>
<polygon fill="#63b8ff" stroke="#63b8ff" points="1473.91,-190.73 1484.11,-193.61 1477.93,-185 1473.91,-190.73"/>
</a>
</g>
</g>
<!-- Node6 -->
<g id="Node000006" class="node">
<title>Node6</title>
<g id="a_Node000006"><a xlink:href="interfacecom_1_1teragrep_1_1pth__06_1_1ast_1_1Expression.html#a65ee7f5fb98e4129018f467a53586842" target="_top" xlink:title=" ">
<polygon fill="white" stroke="#666666" points="1579.5,-142.84 1440.5,-142.84 1440.5,-112.84 1579.5,-112.84 1579.5,-142.84"/>
<text text-anchor="start" x="1448.5" y="-130.84" font-family="Helvetica,sans-Serif" font-size="10.00">com.teragrep.pth_06.ast.</text>
<text text-anchor="middle" x="1510" y="-119.84" font-family="Helvetica,sans-Serif" font-size="10.00">Expression.isLogical</text>
</a>
</g>
</g>
<!-- Node3&#45;&gt;Node6 -->
<g id="edge5_Node000003_Node000006" class="edge">
<title>Node3&#45;&gt;Node6</title>
<g id="a_edge5_Node000003_Node000006"><a xlink:title=" ">
<path fill="none" stroke="#63b8ff" d="M572.8,-193.58C588.79,-159.65 632.31,-78.04 696,-40.84 799.56,19.65 843.39,-10.53 963,-1.84 1004.73,1.19 1396.04,-0.55 1401,-2.84 1446.14,-23.6 1479.65,-73.51 1496.59,-103.61"/>
<polygon fill="#63b8ff" stroke="#63b8ff" points="1493.65,-105.51 1501.5,-112.62 1499.79,-102.16 1493.65,-105.51"/>
</a>
</g>
</g>
<!-- Node7 -->
<g id="Node000007" class="node">
<title>Node7</title>
<g id="a_Node000007"><a xlink:href="interfacecom_1_1teragrep_1_1pth__06_1_1ast_1_1Expression.html#a8b9661253a3610b9eb148ee29ca8b7e1" target="_top" xlink:title=" ">
<polygon fill="white" stroke="#666666" points="1579.5,-319.84 1440.5,-319.84 1440.5,-289.84 1579.5,-289.84 1579.5,-319.84"/>
<text text-anchor="start" x="1448.5" y="-307.84" font-family="Helvetica,sans-Serif" font-size="10.00">com.teragrep.pth_06.ast.</text>
<text text-anchor="middle" x="1510" y="-296.84" font-family="Helvetica,sans-Serif" font-size="10.00">Expression.tag</text>
</a>
</g>
</g>
<!-- Node3&#45;&gt;Node7 -->
<g id="edge6_Node000003_Node000007" class="edge">
<title>Node3&#45;&gt;Node7</title>
<g id="a_edge6_Node000003_Node000007"><a xlink:title=" ">
<path fill="none" stroke="#63b8ff" d="M580.43,-224.15C602.91,-247.05 648.63,-289.97 696,-312.84 896.59,-409.65 966.72,-388.63 1189,-402.84 1283.03,-408.84 1313.1,-436.77 1401,-402.84 1439.66,-387.91 1473.04,-352 1492.08,-328.05"/>
<polygon fill="#63b8ff" stroke="#63b8ff" points="1494.86,-330.18 1498.21,-320.13 1489.32,-325.9 1494.86,-330.18"/>
</a>
</g>
</g>
<!-- Node8 -->
<g id="Node000008" class="node">
<title>Node8</title>
<g id="a_Node000008"><a xlink:href="classcom_1_1teragrep_1_1pth__06_1_1ast_1_1transform_1_1OptimizedAST.html#a77542c0b232d1e10e50a9846e1845b10" target="_top" xlink:title=" ">
<polygon fill="white" stroke="#666666" points="927,-223.84 696,-223.84 696,-193.84 927,-193.84 927,-223.84"/>
<text text-anchor="start" x="704" y="-211.84" font-family="Helvetica,sans-Serif" font-size="10.00">com.teragrep.pth_06.ast.transform.</text>
<text text-anchor="middle" x="811.5" y="-200.84" font-family="Helvetica,sans-Serif" font-size="10.00">OptimizedAST.transformedSingleExpression</text>
</a>
</g>
</g>
<!-- Node3&#45;&gt;Node8 -->
<g id="edge7_Node000003_Node000008" class="edge">
<title>Node3&#45;&gt;Node8</title>
<g id="a_edge7_Node000003_Node000008"><a xlink:title=" ">
<path fill="none" stroke="#63b8ff" d="M660.18,-208.84C668.59,-208.84 677.19,-208.84 685.81,-208.84"/>
<polygon fill="#63b8ff" stroke="#63b8ff" points="685.92,-212.34 695.92,-208.84 685.92,-205.34 685.92,-212.34"/>
</a>
</g>
</g>
<!-- Node9 -->
<g id="Node000009" class="node">
<title>Node9</title>
<g id="a_Node000009"><a xlink:href="classcom_1_1teragrep_1_1pth__06_1_1ast_1_1transform_1_1EmptyPruned.html#a8cfebc9854b0ad9a7cbe81918392e036" target="_top" xlink:title=" ">
<polygon fill="white" stroke="#666666" points="1390,-175.84 1200,-175.84 1200,-145.84 1390,-145.84 1390,-175.84"/>
<text text-anchor="start" x="1208" y="-163.84" font-family="Helvetica,sans-Serif" font-size="10.00">com.teragrep.pth_06.ast.transform.</text>
<text text-anchor="middle" x="1295" y="-152.84" font-family="Helvetica,sans-Serif" font-size="10.00">EmptyPruned.transformed</text>
</a>
</g>
</g>
<!-- Node8&#45;&gt;Node9 -->
<g id="edge8_Node000008_Node000009" class="edge">
<title>Node8&#45;&gt;Node9</title>
<g id="a_edge8_Node000008_Node000009"><a xlink:title=" ">
<path fill="none" stroke="#63b8ff" d="M927.22,-197.4C1006.95,-189.45 1112.36,-178.94 1189.71,-171.23"/>
<polygon fill="#63b8ff" stroke="#63b8ff" points="1190.35,-174.69 1199.95,-170.21 1189.66,-167.72 1190.35,-174.69"/>
</a>
</g>
</g>
<!-- Node10 -->
<g id="Node000010" class="node">
<title>Node10</title>
<g id="a_Node000010"><a xlink:href="classcom_1_1teragrep_1_1pth__06_1_1ast_1_1transform_1_1FlattenLogical.html#a2e1717ad6884eea7a2415aa7763eaed5" target="_top" xlink:title=" ">
<polygon fill="white" stroke="#666666" points="1153,-319.84 963,-319.84 963,-289.84 1153,-289.84 1153,-319.84"/>
<text text-anchor="start" x="971" y="-307.84" font-family="Helvetica,sans-Serif" font-size="10.00">com.teragrep.pth_06.ast.transform.</text>
<text text-anchor="middle" x="1058" y="-296.84" font-family="Helvetica,sans-Serif" font-size="10.00">FlattenLogical.transformed</text>
</a>
</g>
</g>
<!-- Node8&#45;&gt;Node10 -->
<g id="edge13_Node000008_Node000010" class="edge">
<title>Node8&#45;&gt;Node10</title>
<g id="a_edge13_Node000008_Node000010"><a xlink:title=" ">
<path fill="none" stroke="#63b8ff" d="M850.7,-223.84C893.46,-240.62 962.8,-267.85 1009.14,-286.05"/>
<polygon fill="#63b8ff" stroke="#63b8ff" points="1008.08,-289.39 1018.66,-289.78 1010.63,-282.87 1008.08,-289.39"/>
</a>
</g>
</g>
<!-- Node13 -->
<g id="Node000013" class="node">
<title>Node13</title>
<g id="a_Node000013"><a xlink:href="classcom_1_1teragrep_1_1pth__06_1_1ast_1_1transform_1_1IdentitySimplification.html#a2e7ebae3195ee7794364c646e783c6d3" target="_top" xlink:title=" ">
<polygon fill="white" stroke="#666666" points="1390,-109.84 1200,-109.84 1200,-79.84 1390,-79.84 1390,-109.84"/>
<text text-anchor="start" x="1208" y="-97.84" font-family="Helvetica,sans-Serif" font-size="10.00">com.teragrep.pth_06.ast.transform.</text>
<text text-anchor="middle" x="1295" y="-86.84" font-family="Helvetica,sans-Serif" font-size="10.00">IdentitySimplification.transformed</text>
</a>
</g>
</g>
<!-- Node8&#45;&gt;Node13 -->
<g id="edge25_Node000008_Node000013" class="edge">
<title>Node8&#45;&gt;Node13</title>
<g id="a_edge25_Node000008_Node000013"><a xlink:title=" ">
<path fill="none" stroke="#63b8ff" d="M870.68,-193.84C898.57,-186.72 932.48,-178.19 963,-170.84 1049.69,-149.94 1149.47,-127.21 1216.62,-112.11"/>
<polygon fill="#63b8ff" stroke="#63b8ff" points="1217.71,-115.45 1226.7,-109.84 1216.18,-108.62 1217.71,-115.45"/>
</a>
</g>
</g>
<!-- Node14 -->
<g id="Node000014" class="node">
<title>Node14</title>
<g id="a_Node000014"><a xlink:href="classcom_1_1teragrep_1_1pth__06_1_1ast_1_1transform_1_1PrunedInvalidTimeQualifier.html#a390e2447fa0ee0e2964ba44d68710b37" target="_top" xlink:title=" ">
<polygon fill="white" stroke="#666666" points="1401,-271.84 1189,-271.84 1189,-241.84 1401,-241.84 1401,-271.84"/>
<text text-anchor="start" x="1197" y="-259.84" font-family="Helvetica,sans-Serif" font-size="10.00">com.teragrep.pth_06.ast.transform.</text>
<text text-anchor="middle" x="1295" y="-248.84" font-family="Helvetica,sans-Serif" font-size="10.00">PrunedInvalidTimeQualifier.transformed</text>
</a>
</g>
</g>
<!-- Node8&#45;&gt;Node14 -->
<g id="edge30_Node000008_Node000014" class="edge">
<title>Node8&#45;&gt;Node14</title>
<g id="a_edge30_Node000008_Node000014"><a xlink:title=" ">
<path fill="none" stroke="#63b8ff" d="M927.22,-220.27C1003.22,-227.85 1102.56,-237.75 1178.68,-245.34"/>
<polygon fill="#63b8ff" stroke="#63b8ff" points="1178.5,-248.84 1188.79,-246.35 1179.19,-241.87 1178.5,-248.84"/>
</a>
</g>
</g>
<!-- Node15 -->
<g id="Node000015" class="node">
<title>Node15</title>
<g id="a_Node000015"><a xlink:href="classcom_1_1teragrep_1_1pth__06_1_1ast_1_1transform_1_1UniqueChildren.html#a39304f06c8b7ac1e1a23463fe502028e" target="_top" xlink:title=" ">
<polygon fill="white" stroke="#666666" points="1390,-223.84 1200,-223.84 1200,-193.84 1390,-193.84 1390,-223.84"/>
<text text-anchor="start" x="1208" y="-211.84" font-family="Helvetica,sans-Serif" font-size="10.00">com.teragrep.pth_06.ast.transform.</text>
<text text-anchor="middle" x="1295" y="-200.84" font-family="Helvetica,sans-Serif" font-size="10.00">UniqueChildren.transformed</text>
</a>
</g>
</g>
<!-- Node8&#45;&gt;Node15 -->
<g id="edge35_Node000008_Node000015" class="edge">
<title>Node8&#45;&gt;Node15</title>
<g id="a_edge35_Node000008_Node000015"><a xlink:title=" ">
<path fill="none" stroke="#63b8ff" d="M927.22,-208.84C1006.95,-208.84 1112.36,-208.84 1189.71,-208.84"/>
<polygon fill="#63b8ff" stroke="#63b8ff" points="1189.95,-212.34 1199.95,-208.84 1189.95,-205.34 1189.95,-212.34"/>
</a>
</g>
</g>
<!-- Node9&#45;&gt;Node4 -->
<g id="edge9_Node000009_Node000004" class="edge">
<title>Node9&#45;&gt;Node4</title>
<g id="a_edge9_Node000009_Node000004"><a xlink:title=" ">
<path fill="none" stroke="#63b8ff" d="M1383.91,-175.87C1389.9,-178.41 1395.67,-181.37 1401,-184.84 1423.36,-199.36 1415.37,-217.24 1437,-232.84 1439.06,-234.32 1441.21,-235.72 1443.44,-237.03"/>
<polygon fill="#63b8ff" stroke="#63b8ff" points="1441.85,-240.14 1452.33,-241.69 1445.1,-233.95 1441.85,-240.14"/>
</a>
</g>
</g>
<!-- Node9&#45;&gt;Node5 -->
<g id="edge10_Node000009_Node000005" class="edge">
<title>Node9&#45;&gt;Node5</title>
<g id="a_edge10_Node000009_Node000005"><a xlink:title=" ">
<path fill="none" stroke="#63b8ff" d="M1362.81,-175.89C1384.92,-180.87 1409.68,-186.46 1432.46,-191.59"/>
<polygon fill="#63b8ff" stroke="#63b8ff" points="1431.9,-195.05 1442.43,-193.83 1433.44,-188.22 1431.9,-195.05"/>
</a>
</g>
</g>
<!-- Node9&#45;&gt;Node6 -->
<g id="edge11_Node000009_Node000006" class="edge">
<title>Node9&#45;&gt;Node6</title>
<g id="a_edge11_Node000009_Node000006"><a xlink:title=" ">
<path fill="none" stroke="#63b8ff" d="M1390.04,-146.27C1403.54,-144.17 1417.31,-142.04 1430.47,-140"/>
<polygon fill="#63b8ff" stroke="#63b8ff" points="1431.05,-143.46 1440.4,-138.47 1429.98,-136.54 1431.05,-143.46"/>
</a>
</g>
</g>
<!-- Node9&#45;&gt;Node7 -->
<g id="edge12_Node000009_Node000007" class="edge">
<title>Node9&#45;&gt;Node7</title>
<g id="a_edge12_Node000009_Node000007"><a xlink:title=" ">
<path fill="none" stroke="#63b8ff" d="M1388.13,-175.84C1392.72,-178.41 1397.06,-181.39 1401,-184.84 1435.31,-214.83 1404.19,-249.22 1437,-280.84 1438.13,-281.92 1439.3,-282.96 1440.52,-283.95"/>
<polygon fill="#63b8ff" stroke="#63b8ff" points="1438.9,-287.08 1449.13,-289.82 1442.85,-281.3 1438.9,-287.08"/>
</a>
</g>
</g>
<!-- Node10&#45;&gt;Node6 -->
<g id="edge22_Node000010_Node000006" class="edge">
<title>Node10&#45;&gt;Node6</title>
<g id="a_edge22_Node000010_Node000006"><a xlink:title=" ">
<path fill="none" stroke="#63b8ff" d="M1061.94,-289.68C1071.29,-246.08 1104.89,-120.33 1189,-70.84 1270.21,-23.05 1309.54,-48.18 1401,-70.84 1429.45,-77.88 1458.67,-93.94 1479.53,-107.23"/>
<polygon fill="#63b8ff" stroke="#63b8ff" points="1477.65,-110.17 1487.93,-112.71 1481.47,-104.31 1477.65,-110.17"/>
</a>
</g>
</g>
<!-- Node10&#45;&gt;Node7 -->
<g id="edge23_Node000010_Node000007" class="edge">
<title>Node10&#45;&gt;Node7</title>
<g id="a_edge23_Node000010_Node000007"><a xlink:title=" ">
<path fill="none" stroke="#63b8ff" d="M1078.78,-320.04C1103.14,-337.71 1146.54,-365.86 1189,-376.84 1280.23,-400.41 1310.82,-404.14 1401,-376.84 1433.37,-367.04 1464.9,-343.98 1485.46,-326.58"/>
<polygon fill="#63b8ff" stroke="#63b8ff" points="1487.78,-329.2 1493.04,-320 1483.19,-323.91 1487.78,-329.2"/>
</a>
</g>
</g>
<!-- Node10&#45;&gt;Node10 -->
<g id="edge24_Node000010_Node000010" class="edge">
<title>Node10&#45;&gt;Node10</title>
<g id="a_edge24_Node000010_Node000010"><a xlink:title=" ">
<path fill="none" stroke="#63b8ff" d="M1016.52,-320.11C1007.3,-329.24 1021.12,-337.84 1058,-337.84 1079.89,-337.84 1093.66,-334.81 1099.31,-330.43"/>
<polygon fill="#63b8ff" stroke="#63b8ff" points="1102.81,-330.17 1099.48,-320.11 1095.81,-330.05 1102.81,-330.17"/>
</a>
</g>
</g>
<!-- Node11 -->
<g id="Node000011" class="node">
<title>Node11</title>
<g id="a_Node000011"><a xlink:href="classcom_1_1teragrep_1_1pth__06_1_1ast_1_1transform_1_1FlattenLogical.html#a3b9085857dc57e88c58a6fa5a057f103" target="_top" xlink:title=" ">
<polygon fill="white" stroke="#666666" points="1390.5,-319.84 1199.5,-319.84 1199.5,-289.84 1390.5,-289.84 1390.5,-319.84"/>
<text text-anchor="start" x="1207.5" y="-307.84" font-family="Helvetica,sans-Serif" font-size="10.00">com.teragrep.pth_06.ast.transform.</text>
<text text-anchor="middle" x="1295" y="-296.84" font-family="Helvetica,sans-Serif" font-size="10.00">FlattenLogical.flattenedAndChildren</text>
</a>
</g>
</g>
<!-- Node10&#45;&gt;Node11 -->
<g id="edge14_Node000010_Node000011" class="edge">
<title>Node10&#45;&gt;Node11</title>
<g id="a_edge14_Node000010_Node000011"><a xlink:title=" ">
<path fill="none" stroke="#63b8ff" d="M1153.23,-304.84C1165.1,-304.84 1177.3,-304.84 1189.32,-304.84"/>
<polygon fill="#63b8ff" stroke="#63b8ff" points="1189.37,-308.34 1199.37,-304.84 1189.37,-301.34 1189.37,-308.34"/>
</a>
</g>
</g>
<!-- Node12 -->
<g id="Node000012" class="node">
<title>Node12</title>
<g id="a_Node000012"><a xlink:href="classcom_1_1teragrep_1_1pth__06_1_1ast_1_1transform_1_1FlattenLogical.html#ae0b8acc47ab74872494d07da365e303b" target="_top" xlink:title=" ">
<polygon fill="white" stroke="#666666" points="1390,-367.84 1200,-367.84 1200,-337.84 1390,-337.84 1390,-367.84"/>
<text text-anchor="start" x="1208" y="-355.84" font-family="Helvetica,sans-Serif" font-size="10.00">com.teragrep.pth_06.ast.transform.</text>
<text text-anchor="middle" x="1295" y="-344.84" font-family="Helvetica,sans-Serif" font-size="10.00">FlattenLogical.flattenedOrChildren</text>
</a>
</g>
</g>
<!-- Node10&#45;&gt;Node12 -->
<g id="edge18_Node000010_Node000012" class="edge">
<title>Node10&#45;&gt;Node12</title>
<g id="a_edge18_Node000010_Node000012"><a xlink:title=" ">
<path fill="none" stroke="#63b8ff" d="M1132.71,-319.89C1157.43,-324.94 1185.16,-330.61 1210.57,-335.8"/>
<polygon fill="#63b8ff" stroke="#63b8ff" points="1210.05,-339.26 1220.55,-337.83 1211.45,-332.4 1210.05,-339.26"/>
</a>
</g>
</g>
<!-- Node11&#45;&gt;Node4 -->
<g id="edge15_Node000011_Node000004" class="edge">
<title>Node11&#45;&gt;Node4</title>
<g id="a_edge15_Node000011_Node000004"><a xlink:title=" ">
<path fill="none" stroke="#63b8ff" d="M1362.81,-289.78C1384.92,-284.8 1409.68,-279.22 1432.46,-274.08"/>
<polygon fill="#63b8ff" stroke="#63b8ff" points="1433.44,-277.45 1442.43,-271.84 1431.9,-270.62 1433.44,-277.45"/>
</a>
</g>
</g>
<!-- Node11&#45;&gt;Node5 -->
<g id="edge16_Node000011_Node000005" class="edge">
<title>Node11&#45;&gt;Node5</title>
<g id="a_edge16_Node000011_Node000005"><a xlink:title=" ">
<path fill="none" stroke="#63b8ff" d="M1383.91,-289.81C1389.9,-287.27 1395.67,-284.3 1401,-280.84 1423.36,-266.31 1415.37,-248.43 1437,-232.84 1439.06,-231.35 1441.21,-229.96 1443.44,-228.64"/>
<polygon fill="#63b8ff" stroke="#63b8ff" points="1445.1,-231.73 1452.33,-223.98 1441.85,-225.53 1445.1,-231.73"/>
</a>
</g>
</g>
<!-- Node11&#45;&gt;Node7 -->
<g id="edge17_Node000011_Node000007" class="edge">
<title>Node11&#45;&gt;Node7</title>
<g id="a_edge17_Node000011_Node000007"><a xlink:title=" ">
<path fill="none" stroke="#63b8ff" d="M1390.67,-304.84C1403.9,-304.84 1417.39,-304.84 1430.29,-304.84"/>
<polygon fill="#63b8ff" stroke="#63b8ff" points="1430.49,-308.34 1440.49,-304.84 1430.49,-301.34 1430.49,-308.34"/>
</a>
</g>
</g>
<!-- Node12&#45;&gt;Node4 -->
<g id="edge19_Node000012_Node000004" class="edge">
<title>Node12&#45;&gt;Node4</title>
<g id="a_edge19_Node000012_Node000004"><a xlink:title=" ">
<path fill="none" stroke="#63b8ff" d="M1383.91,-337.81C1389.9,-335.27 1395.67,-332.3 1401,-328.84 1423.36,-314.31 1415.37,-296.43 1437,-280.84 1439.06,-279.35 1441.21,-277.96 1443.44,-276.64"/>
<polygon fill="#63b8ff" stroke="#63b8ff" points="1445.1,-279.73 1452.33,-271.98 1441.85,-273.53 1445.1,-279.73"/>
</a>
</g>
</g>
<!-- Node12&#45;&gt;Node5 -->
<g id="edge20_Node000012_Node000005" class="edge">
<title>Node12&#45;&gt;Node5</title>
<g id="a_edge20_Node000012_Node000005"><a xlink:title=" ">
<path fill="none" stroke="#63b8ff" d="M1388.13,-337.84C1392.72,-335.26 1397.06,-332.28 1401,-328.84 1435.31,-298.85 1404.19,-264.46 1437,-232.84 1438.13,-231.75 1439.3,-230.71 1440.52,-229.72"/>
<polygon fill="#63b8ff" stroke="#63b8ff" points="1442.85,-232.38 1449.13,-223.85 1438.9,-226.6 1442.85,-232.38"/>
</a>
</g>
</g>
<!-- Node12&#45;&gt;Node7 -->
<g id="edge21_Node000012_Node000007" class="edge">
<title>Node12&#45;&gt;Node7</title>
<g id="a_edge21_Node000012_Node000007"><a xlink:title=" ">
<path fill="none" stroke="#63b8ff" d="M1362.81,-337.78C1384.92,-332.8 1409.68,-327.22 1432.46,-322.08"/>
<polygon fill="#63b8ff" stroke="#63b8ff" points="1433.44,-325.45 1442.43,-319.84 1431.9,-318.62 1433.44,-325.45"/>
</a>
</g>
</g>
<!-- Node13&#45;&gt;Node4 -->
<g id="edge26_Node000013_Node000004" class="edge">
<title>Node13&#45;&gt;Node4</title>
<g id="a_edge26_Node000013_Node000004"><a xlink:title=" ">
<path fill="none" stroke="#63b8ff" d="M1358.06,-109.94C1373.65,-116.17 1389.26,-124.84 1401,-136.84 1432.87,-169.41 1404.19,-201.22 1437,-232.84 1438.13,-233.92 1439.3,-234.96 1440.52,-235.95"/>
<polygon fill="#63b8ff" stroke="#63b8ff" points="1438.9,-239.08 1449.13,-241.82 1442.85,-233.3 1438.9,-239.08"/>
</a>
</g>
</g>
<!-- Node13&#45;&gt;Node5 -->
<g id="edge27_Node000013_Node000005" class="edge">
<title>Node13&#45;&gt;Node5</title>
<g id="a_edge27_Node000013_Node000005"><a xlink:title=" ">
<path fill="none" stroke="#63b8ff" d="M1339.31,-109.84C1358.61,-117.11 1381.37,-126.51 1401,-136.84 1429.4,-151.77 1459.61,-172.37 1480.84,-187.71"/>
<polygon fill="#63b8ff" stroke="#63b8ff" points="1478.94,-190.65 1489.08,-193.72 1483.06,-184.99 1478.94,-190.65"/>
</a>
</g>
</g>
<!-- Node13&#45;&gt;Node6 -->
<g id="edge28_Node000013_Node000006" class="edge">
<title>Node13&#45;&gt;Node6</title>
<g id="a_edge28_Node000013_Node000006"><a xlink:title=" ">
<path fill="none" stroke="#63b8ff" d="M1390.04,-109.41C1403.54,-111.5 1417.31,-113.63 1430.47,-115.67"/>
<polygon fill="#63b8ff" stroke="#63b8ff" points="1429.98,-119.14 1440.4,-117.21 1431.05,-112.22 1429.98,-119.14"/>
</a>
</g>
</g>
<!-- Node13&#45;&gt;Node13 -->
<g id="edge29_Node000013_Node000013" class="edge">
<title>Node13&#45;&gt;Node13</title>
<g id="a_edge29_Node000013_Node000013"><a xlink:title=" ">
<path fill="none" stroke="#63b8ff" d="M1257.38,-110.11C1249.02,-119.24 1261.56,-127.84 1295,-127.84 1314.85,-127.84 1327.34,-124.81 1332.46,-120.43"/>
<polygon fill="#63b8ff" stroke="#63b8ff" points="1335.96,-120.16 1332.62,-110.11 1328.96,-120.06 1335.96,-120.16"/>
</a>
</g>
</g>
<!-- Node14&#45;&gt;Node4 -->
<g id="edge31_Node000014_Node000004" class="edge">
<title>Node14&#45;&gt;Node4</title>
<g id="a_edge31_Node000014_Node000004"><a xlink:title=" ">
<path fill="none" stroke="#63b8ff" d="M1401.25,-256.84C1411.03,-256.84 1420.82,-256.84 1430.29,-256.84"/>
<polygon fill="#63b8ff" stroke="#63b8ff" points="1430.43,-260.34 1440.43,-256.84 1430.43,-253.34 1430.43,-260.34"/>
</a>
</g>
</g>
<!-- Node14&#45;&gt;Node5 -->
<g id="edge32_Node000014_Node000005" class="edge">
<title>Node14&#45;&gt;Node5</title>
<g id="a_edge32_Node000014_Node000005"><a xlink:title=" ">
<path fill="none" stroke="#63b8ff" d="M1362.81,-241.78C1384.92,-236.8 1409.68,-231.22 1432.46,-226.08"/>
<polygon fill="#63b8ff" stroke="#63b8ff" points="1433.44,-229.45 1442.43,-223.84 1431.9,-222.62 1433.44,-229.45"/>
</a>
</g>
</g>
<!-- Node14&#45;&gt;Node6 -->
<g id="edge33_Node000014_Node000006" class="edge">
<title>Node14&#45;&gt;Node6</title>
<g id="a_edge33_Node000014_Node000006"><a xlink:title=" ">
<path fill="none" stroke="#63b8ff" d="M1383.91,-241.81C1389.9,-239.27 1395.67,-236.3 1401,-232.84 1423.36,-218.31 1418.39,-203.94 1437,-184.84 1449.71,-171.79 1465.42,-159.03 1478.92,-148.9"/>
<polygon fill="#63b8ff" stroke="#63b8ff" points="1481.02,-151.71 1487,-142.96 1476.87,-146.07 1481.02,-151.71"/>
</a>
</g>
</g>
<!-- Node14&#45;&gt;Node7 -->
<g id="edge34_Node000014_Node000007" class="edge">
<title>Node14&#45;&gt;Node7</title>
<g id="a_edge34_Node000014_Node000007"><a xlink:title=" ">
<path fill="none" stroke="#63b8ff" d="M1362.81,-271.89C1384.92,-276.87 1409.68,-282.46 1432.46,-287.59"/>
<polygon fill="#63b8ff" stroke="#63b8ff" points="1431.9,-291.05 1442.43,-289.83 1433.44,-284.22 1431.9,-291.05"/>
</a>
</g>
</g>
<!-- Node15&#45;&gt;Node4 -->
<g id="edge36_Node000015_Node000004" class="edge">
<title>Node15&#45;&gt;Node4</title>
<g id="a_edge36_Node000015_Node000004"><a xlink:title=" ">
<path fill="none" stroke="#63b8ff" d="M1362.81,-223.89C1384.92,-228.87 1409.68,-234.46 1432.46,-239.59"/>
<polygon fill="#63b8ff" stroke="#63b8ff" points="1431.9,-243.05 1442.43,-241.83 1433.44,-236.22 1431.9,-243.05"/>
</a>
</g>
</g>
<!-- Node15&#45;&gt;Node5 -->
<g id="edge37_Node000015_Node000005" class="edge">
<title>Node15&#45;&gt;Node5</title>
<g id="a_edge37_Node000015_Node000005"><a xlink:title=" ">
<path fill="none" stroke="#63b8ff" d="M1390.04,-208.84C1402.32,-208.84 1414.82,-208.84 1426.88,-208.84"/>
<polygon fill="#63b8ff" stroke="#63b8ff" points="1426.89,-212.34 1436.89,-208.84 1426.89,-205.34 1426.89,-212.34"/>
</a>
</g>
</g>
<!-- Node15&#45;&gt;Node6 -->
<g id="edge38_Node000015_Node000006" class="edge">
<title>Node15&#45;&gt;Node6</title>
<g id="a_edge38_Node000015_Node000006"><a xlink:title=" ">
<path fill="none" stroke="#63b8ff" d="M1372.68,-193.77C1382.33,-191.16 1391.97,-188.19 1401,-184.84 1427.32,-175.07 1455.3,-160.16 1476.19,-148.04"/>
<polygon fill="#63b8ff" stroke="#63b8ff" points="1478.13,-150.96 1484.97,-142.87 1474.58,-144.93 1478.13,-150.96"/>
</a>
</g>
</g>
<!-- Node15&#45;&gt;Node7 -->
<g id="edge39_Node000015_Node000007" class="edge">
<title>Node15&#45;&gt;Node7</title>
<g id="a_edge39_Node000015_Node000007"><a xlink:title=" ">
<path fill="none" stroke="#63b8ff" d="M1383.91,-223.87C1389.9,-226.41 1395.67,-229.37 1401,-232.84 1423.36,-247.36 1415.37,-265.24 1437,-280.84 1439.06,-282.32 1441.21,-283.72 1443.44,-285.03"/>
<polygon fill="#63b8ff" stroke="#63b8ff" points="1441.85,-288.14 1452.33,-289.69 1445.1,-281.95 1441.85,-288.14"/>
</a>
</g>
</g>
</g>
</svg>
