<?xml version="1.0" encoding="UTF-8" standalone="no"?>
<!DOCTYPE svg PUBLIC "-//W3C//DTD SVG 1.1//EN"
 "http://www.w3.org/Graphics/SVG/1.1/DTD/svg11.dtd">
<!-- Generated by graphviz version 2.43.0 (0)
 -->
<!-- Title: com.teragrep.pth_06.planner.HourlyViewsSlicesTest.beforeEach Pages: 1 -->
<svg width="623pt" height="108pt"
 viewBox="0.00 0.00 623.00 108.00" xmlns="http://www.w3.org/2000/svg" xmlns:xlink="http://www.w3.org/1999/xlink">
<g id="graph0" class="graph" transform="scale(1 1) rotate(0) translate(4 104)">
<title>com.teragrep.pth_06.planner.HourlyViewsSlicesTest.beforeEach</title>
<!-- Node1 -->
<g id="Node000001" class="node">
<title>Node1</title>
<g id="a_Node000001"><a xlink:title=" ">
<polygon fill="#999999" stroke="#666666" points="184,-52 0,-52 0,-22 184,-22 184,-52"/>
<text text-anchor="start" x="8" y="-40" font-family="Helvetica,sans-Serif" font-size="10.00">com.teragrep.pth_06.planner.</text>
<text text-anchor="middle" x="92" y="-29" font-family="Helvetica,sans-Serif" font-size="10.00">HourlyViewsSlicesTest.beforeEach</text>
</a>
</g>
</g>
<!-- Node2 -->
<g id="Node000002" class="node">
<title>Node2</title>
<g id="a_Node000002"><a xlink:href="classcom_1_1teragrep_1_1pth__06_1_1planner_1_1MockDBData.html#ac40d15664c87654e25524e6a19c25156" target="_top" xlink:title=" ">
<polygon fill="white" stroke="#666666" points="419,-100 220,-100 220,-70 419,-70 419,-100"/>
<text text-anchor="start" x="228" y="-88" font-family="Helvetica,sans-Serif" font-size="10.00">com.teragrep.pth_06.planner.</text>
<text text-anchor="middle" x="319.5" y="-77" font-family="Helvetica,sans-Serif" font-size="10.00">MockDBData.getVirtualDatabaseMap</text>
</a>
</g>
</g>
<!-- Node1&#45;&gt;Node2 -->
<g id="edge1_Node000001_Node000002" class="edge">
<title>Node1&#45;&gt;Node2</title>
<g id="a_edge1_Node000001_Node000002"><a xlink:title=" ">
<path fill="none" stroke="#63b8ff" d="M163.73,-52.06C187.34,-57.08 213.83,-62.72 238.12,-67.89"/>
<polygon fill="#63b8ff" stroke="#63b8ff" points="237.51,-71.34 248.02,-70 238.97,-64.49 237.51,-71.34"/>
</a>
</g>
</g>
<!-- Node3 -->
<g id="Node000003" class="node">
<title>Node3</title>
<g id="a_Node000003"><a xlink:href="classcom_1_1teragrep_1_1pth__06_1_1planner_1_1LogfileTable.html#a4ad5834e4a68cef4b34efad12e727e60" target="_top" xlink:title=" ">
<polygon fill="white" stroke="#666666" points="399.5,-52 239.5,-52 239.5,-22 399.5,-22 399.5,-52"/>
<text text-anchor="start" x="247.5" y="-40" font-family="Helvetica,sans-Serif" font-size="10.00">com.teragrep.pth_06.planner.</text>
<text text-anchor="middle" x="319.5" y="-29" font-family="Helvetica,sans-Serif" font-size="10.00">LogfileTable.insertResults</text>
</a>
</g>
</g>
<!-- Node1&#45;&gt;Node3 -->
<g id="edge2_Node000001_Node000003" class="edge">
<title>Node1&#45;&gt;Node3</title>
<g id="a_edge2_Node000001_Node000003"><a xlink:title=" ">
<path fill="none" stroke="#63b8ff" d="M184.07,-37C198.97,-37 214.39,-37 229.24,-37"/>
<polygon fill="#63b8ff" stroke="#63b8ff" points="229.42,-40.5 239.42,-37 229.42,-33.5 229.42,-40.5"/>
</a>
</g>
</g>
<!-- Node4 -->
<g id="Node000004" class="node">
<title>Node4</title>
<g id="a_Node000004"><a xlink:href="classcom_1_1teragrep_1_1pth__06_1_1planner_1_1LogfileTable.html#a525b18f872aafe7488e39c6b2c156b5a" target="_top" xlink:title=" ">
<polygon fill="white" stroke="#666666" points="615,-30 455,-30 455,0 615,0 615,-30"/>
<text text-anchor="start" x="463" y="-18" font-family="Helvetica,sans-Serif" font-size="10.00">com.teragrep.pth_06.planner.</text>
<text text-anchor="middle" x="535" y="-7" font-family="Helvetica,sans-Serif" font-size="10.00">LogfileTable.table</text>
</a>
</g>
</g>
<!-- Node1&#45;&gt;Node4 -->
<g id="edge4_Node000001_Node000004" class="edge">
<title>Node1&#45;&gt;Node4</title>
<g id="a_edge4_Node000001_Node000004"><a xlink:title=" ">
<path fill="none" stroke="#63b8ff" d="M159.57,-22C178.95,-18.29 200.23,-14.85 220,-13 308.06,-4.75 330.56,-12.23 419,-13 427.32,-13.07 435.99,-13.17 444.66,-13.29"/>
<polygon fill="#63b8ff" stroke="#63b8ff" points="444.77,-16.8 454.82,-13.44 444.87,-9.8 444.77,-16.8"/>
</a>
</g>
</g>
<!-- Node3&#45;&gt;Node4 -->
<g id="edge3_Node000003_Node000004" class="edge">
<title>Node3&#45;&gt;Node4</title>
<g id="a_edge3_Node000003_Node000004"><a xlink:title=" ">
<path fill="none" stroke="#63b8ff" d="M399.7,-28.84C414.35,-27.33 429.75,-25.74 444.68,-24.2"/>
<polygon fill="#63b8ff" stroke="#63b8ff" points="445.34,-27.65 454.93,-23.15 444.63,-20.69 445.34,-27.65"/>
</a>
</g>
</g>
</g>
</svg>
