<?xml version="1.0" encoding="UTF-8" standalone="no"?>
<!DOCTYPE svg PUBLIC "-//W3C//DTD SVG 1.1//EN"
 "http://www.w3.org/Graphics/SVG/1.1/DTD/svg11.dtd">
<!-- Generated by graphviz version 2.43.0 (0)
 -->
<!-- Title: com.teragrep.pth_06.ast.analyze.ScanTimeQualifiers.ScanTimeQualifiers Pages: 1 -->
<svg width="742pt" height="86pt"
 viewBox="0.00 0.00 742.00 86.00" xmlns="http://www.w3.org/2000/svg" xmlns:xlink="http://www.w3.org/1999/xlink">
<g id="graph0" class="graph" transform="scale(1 1) rotate(0) translate(4 82)">
<title>com.teragrep.pth_06.ast.analyze.ScanTimeQualifiers.ScanTimeQualifiers</title>
<!-- Node1 -->
<g id="Node000001" class="node">
<title>Node1</title>
<g id="a_Node000001"><a xlink:title=" ">
<polygon fill="#999999" stroke="#666666" points="209,-54 0,-54 0,-24 209,-24 209,-54"/>
<text text-anchor="start" x="8" y="-42" font-family="Helvetica,sans-Serif" font-size="10.00">com.teragrep.pth_06.ast.analyze.</text>
<text text-anchor="middle" x="104.5" y="-31" font-family="Helvetica,sans-Serif" font-size="10.00">ScanTimeQualifiers.ScanTimeQualifiers</text>
</a>
</g>
</g>
<!-- Node2 -->
<g id="Node000002" class="node">
<title>Node2</title>
<g id="a_Node000002"><a xlink:href="classcom_1_1teragrep_1_1pth__06_1_1ast_1_1analyze_1_1ClassifiedXMLValueExpressions.html#a3b1e321f8a8c9ec24e341536f857432d" target="_top" xlink:title=" ">
<polygon fill="white" stroke="#666666" points="472,-78 245,-78 245,-48 472,-48 472,-78"/>
<text text-anchor="start" x="253" y="-66" font-family="Helvetica,sans-Serif" font-size="10.00">com.teragrep.pth_06.ast.analyze.</text>
<text text-anchor="middle" x="358.5" y="-55" font-family="Helvetica,sans-Serif" font-size="10.00">ClassifiedXMLValueExpressions.earliestList</text>
</a>
</g>
</g>
<!-- Node1&#45;&gt;Node2 -->
<g id="edge1_Node000001_Node000002" class="edge">
<title>Node1&#45;&gt;Node2</title>
<g id="a_edge1_Node000001_Node000002"><a xlink:title=" ">
<path fill="none" stroke="#63b8ff" d="M209.09,-48.87C217.58,-49.67 226.21,-50.5 234.82,-51.32"/>
<polygon fill="#63b8ff" stroke="#63b8ff" points="234.61,-54.81 244.9,-52.28 235.28,-47.84 234.61,-54.81"/>
</a>
</g>
</g>
<!-- Node4 -->
<g id="Node000004" class="node">
<title>Node4</title>
<g id="a_Node000004"><a xlink:href="classcom_1_1teragrep_1_1pth__06_1_1ast_1_1analyze_1_1ClassifiedXMLValueExpressions.html#a9e3e57e37a56a34116b8aa94d5c9f4e1" target="_top" xlink:title=" ">
<polygon fill="white" stroke="#666666" points="467.5,-30 249.5,-30 249.5,0 467.5,0 467.5,-30"/>
<text text-anchor="start" x="257.5" y="-18" font-family="Helvetica,sans-Serif" font-size="10.00">com.teragrep.pth_06.ast.analyze.</text>
<text text-anchor="middle" x="358.5" y="-7" font-family="Helvetica,sans-Serif" font-size="10.00">ClassifiedXMLValueExpressions.latestList</text>
</a>
</g>
</g>
<!-- Node1&#45;&gt;Node4 -->
<g id="edge3_Node000001_Node000004" class="edge">
<title>Node1&#45;&gt;Node4</title>
<g id="a_edge3_Node000001_Node000004"><a xlink:title=" ">
<path fill="none" stroke="#63b8ff" d="M209.09,-29.13C219.07,-28.18 229.24,-27.22 239.34,-26.25"/>
<polygon fill="#63b8ff" stroke="#63b8ff" points="239.79,-29.73 249.41,-25.29 239.13,-22.76 239.79,-29.73"/>
</a>
</g>
</g>
<!-- Node3 -->
<g id="Node000003" class="node">
<title>Node3</title>
<g id="a_Node000003"><a xlink:href="classcom_1_1teragrep_1_1pth__06_1_1ast_1_1analyze_1_1ClassifiedXMLValueExpressions.html#a233e7554e04af8008778c500093a1e3b" target="_top" xlink:title=" ">
<polygon fill="white" stroke="#666666" points="734,-59.5 508,-59.5 508,-18.5 734,-18.5 734,-59.5"/>
<text text-anchor="start" x="516" y="-47.5" font-family="Helvetica,sans-Serif" font-size="10.00">com.teragrep.pth_06.ast.analyze.</text>
<text text-anchor="start" x="516" y="-36.5" font-family="Helvetica,sans-Serif" font-size="10.00">ClassifiedXMLValueExpressions.expression</text>
<text text-anchor="middle" x="621" y="-25.5" font-family="Helvetica,sans-Serif" font-size="10.00">ListFilteredByTag</text>
</a>
</g>
</g>
<!-- Node2&#45;&gt;Node3 -->
<g id="edge2_Node000002_Node000003" class="edge">
<title>Node2&#45;&gt;Node3</title>
<g id="a_edge2_Node000002_Node000003"><a xlink:title=" ">
<path fill="none" stroke="#63b8ff" d="M472.24,-52.61C480.74,-51.83 489.34,-51.04 497.9,-50.25"/>
<polygon fill="#63b8ff" stroke="#63b8ff" points="498.27,-53.73 507.91,-49.33 497.63,-46.76 498.27,-53.73"/>
</a>
</g>
</g>
<!-- Node4&#45;&gt;Node3 -->
<g id="edge4_Node000004_Node000003" class="edge">
<title>Node4&#45;&gt;Node3</title>
<g id="a_edge4_Node000004_Node000003"><a xlink:title=" ">
<path fill="none" stroke="#63b8ff" d="M467.71,-24.97C477.67,-25.89 487.81,-26.82 497.88,-27.75"/>
<polygon fill="#63b8ff" stroke="#63b8ff" points="497.64,-31.24 507.92,-28.67 498.29,-24.27 497.64,-31.24"/>
</a>
</g>
</g>
</g>
</svg>
