<?xml version="1.0" encoding="UTF-8" standalone="no"?>
<!DOCTYPE svg PUBLIC "-//W3C//DTD SVG 1.1//EN"
 "http://www.w3.org/Graphics/SVG/1.1/DTD/svg11.dtd">
<!-- Generated by graphviz version 2.43.0 (0)
 -->
<!-- Title: com.teragrep.pth_06.ast.transform.OptimizedASTTest.testSingleDepthNestedBinary Pages: 1 -->
<svg width="1635pt" height="427pt"
 viewBox="0.00 0.00 1635.00 427.42" xmlns="http://www.w3.org/2000/svg" xmlns:xlink="http://www.w3.org/1999/xlink">
<g id="graph0" class="graph" transform="scale(1 1) rotate(0) translate(4 423.42)">
<title>com.teragrep.pth_06.ast.transform.OptimizedASTTest.testSingleDepthNestedBinary</title>
<!-- Node1 -->
<g id="Node000001" class="node">
<title>Node1</title>
<g id="a_Node000001"><a xlink:title=" ">
<polygon fill="#999999" stroke="#666666" points="252,-223.84 0,-223.84 0,-193.84 252,-193.84 252,-223.84"/>
<text text-anchor="start" x="8" y="-211.84" font-family="Helvetica,sans-Serif" font-size="10.00">com.teragrep.pth_06.ast.transform.</text>
<text text-anchor="middle" x="126" y="-200.84" font-family="Helvetica,sans-Serif" font-size="10.00">OptimizedASTTest.testSingleDepthNestedBinary</text>
</a>
</g>
</g>
<!-- Node2 -->
<g id="Node000002" class="node">
<title>Node2</title>
<g id="a_Node000002"><a xlink:href="classcom_1_1teragrep_1_1pth__06_1_1ast_1_1transform_1_1OptimizedAST.html#a05726d2699d7ade747e74de2140c6a41" target="_top" xlink:title=" ">
<polygon fill="white" stroke="#666666" points="478,-223.84 288,-223.84 288,-193.84 478,-193.84 478,-223.84"/>
<text text-anchor="start" x="296" y="-211.84" font-family="Helvetica,sans-Serif" font-size="10.00">com.teragrep.pth_06.ast.transform.</text>
<text text-anchor="middle" x="383" y="-200.84" font-family="Helvetica,sans-Serif" font-size="10.00">OptimizedAST.transformed</text>
</a>
</g>
</g>
<!-- Node1&#45;&gt;Node2 -->
<g id="edge1_Node000001_Node000002" class="edge">
<title>Node1&#45;&gt;Node2</title>
<g id="a_edge1_Node000001_Node000002"><a xlink:title=" ">
<path fill="none" stroke="#63b8ff" d="M252.26,-208.84C260.77,-208.84 269.29,-208.84 277.67,-208.84"/>
<polygon fill="#63b8ff" stroke="#63b8ff" points="277.81,-212.34 287.81,-208.84 277.81,-205.34 277.81,-212.34"/>
</a>
</g>
</g>
<!-- Node3 -->
<g id="Node000003" class="node">
<title>Node3</title>
<g id="a_Node000003"><a xlink:href="classcom_1_1teragrep_1_1pth__06_1_1ast_1_1transform_1_1OptimizedAST.html#ac4ebcab5c55182e969cd03150e96e374" target="_top" xlink:title=" ">
<polygon fill="white" stroke="#666666" points="704,-223.84 514,-223.84 514,-193.84 704,-193.84 704,-223.84"/>
<text text-anchor="start" x="522" y="-211.84" font-family="Helvetica,sans-Serif" font-size="10.00">com.teragrep.pth_06.ast.transform.</text>
<text text-anchor="middle" x="609" y="-200.84" font-family="Helvetica,sans-Serif" font-size="10.00">OptimizedAST.walkAndApply</text>
</a>
</g>
</g>
<!-- Node2&#45;&gt;Node3 -->
<g id="edge2_Node000002_Node000003" class="edge">
<title>Node2&#45;&gt;Node3</title>
<g id="a_edge2_Node000002_Node000003"><a xlink:title=" ">
<path fill="none" stroke="#63b8ff" d="M478.02,-208.84C486.54,-208.84 495.2,-208.84 503.8,-208.84"/>
<polygon fill="#63b8ff" stroke="#63b8ff" points="503.86,-212.34 513.86,-208.84 503.86,-205.34 503.86,-212.34"/>
</a>
</g>
</g>
<!-- Node3&#45;&gt;Node3 -->
<g id="edge40_Node000003_Node000003" class="edge">
<title>Node3&#45;&gt;Node3</title>
<g id="a_edge40_Node000003_Node000003"><a xlink:title=" ">
<path fill="none" stroke="#63b8ff" d="M569.27,-224.11C560.45,-233.24 573.69,-241.84 609,-241.84 629.97,-241.84 643.15,-238.81 648.56,-234.43"/>
<polygon fill="#63b8ff" stroke="#63b8ff" points="652.06,-234.17 648.73,-224.11 645.06,-234.05 652.06,-234.17"/>
</a>
</g>
</g>
<!-- Node4 -->
<g id="Node000004" class="node">
<title>Node4</title>
<g id="a_Node000004"><a xlink:href="interfacecom_1_1teragrep_1_1pth__06_1_1ast_1_1Expression.html#a17e7d33905be57c6e22e1717da6ddef6" target="_top" xlink:title=" ">
<polygon fill="white" stroke="#666666" points="1623.5,-271.84 1484.5,-271.84 1484.5,-241.84 1623.5,-241.84 1623.5,-271.84"/>
<text text-anchor="start" x="1492.5" y="-259.84" font-family="Helvetica,sans-Serif" font-size="10.00">com.teragrep.pth_06.ast.</text>
<text text-anchor="middle" x="1554" y="-248.84" font-family="Helvetica,sans-Serif" font-size="10.00">Expression.asLogical</text>
</a>
</g>
</g>
<!-- Node3&#45;&gt;Node4 -->
<g id="edge3_Node000003_Node000004" class="edge">
<title>Node3&#45;&gt;Node4</title>
<g id="a_edge3_Node000003_Node000004"><a xlink:title=" ">
<path fill="none" stroke="#63b8ff" d="M645.4,-223.88C713.92,-252.38 869.98,-314.28 1007,-346.84 1105.58,-370.26 1131.89,-370.16 1233,-376.84 1327.02,-383.05 1367.56,-430.51 1445,-376.84 1482.45,-350.88 1448.19,-312.46 1481,-280.84 1482.13,-279.75 1483.3,-278.71 1484.52,-277.72"/>
<polygon fill="#63b8ff" stroke="#63b8ff" points="1486.85,-280.38 1493.13,-271.85 1482.9,-274.6 1486.85,-280.38"/>
</a>
</g>
</g>
<!-- Node5 -->
<g id="Node000005" class="node">
<title>Node5</title>
<g id="a_Node000005"><a xlink:href="interfacecom_1_1teragrep_1_1pth__06_1_1ast_1_1LogicalExpression.html#aeaf8fe296c6899792f345659a9a6c0c4" target="_top" xlink:title=" ">
<polygon fill="white" stroke="#666666" points="1627,-223.84 1481,-223.84 1481,-193.84 1627,-193.84 1627,-223.84"/>
<text text-anchor="start" x="1489" y="-211.84" font-family="Helvetica,sans-Serif" font-size="10.00">com.teragrep.pth_06.ast.</text>
<text text-anchor="middle" x="1554" y="-200.84" font-family="Helvetica,sans-Serif" font-size="10.00">LogicalExpression.children</text>
</a>
</g>
</g>
<!-- Node3&#45;&gt;Node5 -->
<g id="edge4_Node000003_Node000005" class="edge">
<title>Node3&#45;&gt;Node5</title>
<g id="a_edge4_Node000003_Node000005"><a xlink:title=" ">
<path fill="none" stroke="#63b8ff" d="M634.35,-193.65C740.57,-129.52 1170.26,107.71 1445,-70.84 1478.03,-92.3 1456.86,-120.71 1481,-151.84 1491.66,-165.58 1506.31,-177.96 1519.62,-187.65"/>
<polygon fill="#63b8ff" stroke="#63b8ff" points="1517.91,-190.73 1528.11,-193.61 1521.93,-185 1517.91,-190.73"/>
</a>
</g>
</g>
<!-- Node6 -->
<g id="Node000006" class="node">
<title>Node6</title>
<g id="a_Node000006"><a xlink:href="interfacecom_1_1teragrep_1_1pth__06_1_1ast_1_1Expression.html#a65ee7f5fb98e4129018f467a53586842" target="_top" xlink:title=" ">
<polygon fill="white" stroke="#666666" points="1623.5,-142.84 1484.5,-142.84 1484.5,-112.84 1623.5,-112.84 1623.5,-142.84"/>
<text text-anchor="start" x="1492.5" y="-130.84" font-family="Helvetica,sans-Serif" font-size="10.00">com.teragrep.pth_06.ast.</text>
<text text-anchor="middle" x="1554" y="-119.84" font-family="Helvetica,sans-Serif" font-size="10.00">Expression.isLogical</text>
</a>
</g>
</g>
<!-- Node3&#45;&gt;Node6 -->
<g id="edge5_Node000003_Node000006" class="edge">
<title>Node3&#45;&gt;Node6</title>
<g id="a_edge5_Node000003_Node000006"><a xlink:title=" ">
<path fill="none" stroke="#63b8ff" d="M616.8,-193.58C632.79,-159.65 676.31,-78.04 740,-40.84 843.56,19.65 887.39,-10.53 1007,-1.84 1048.73,1.19 1440.04,-0.55 1445,-2.84 1490.14,-23.6 1523.65,-73.51 1540.59,-103.61"/>
<polygon fill="#63b8ff" stroke="#63b8ff" points="1537.65,-105.51 1545.5,-112.62 1543.79,-102.16 1537.65,-105.51"/>
</a>
</g>
</g>
<!-- Node7 -->
<g id="Node000007" class="node">
<title>Node7</title>
<g id="a_Node000007"><a xlink:href="interfacecom_1_1teragrep_1_1pth__06_1_1ast_1_1Expression.html#a8b9661253a3610b9eb148ee29ca8b7e1" target="_top" xlink:title=" ">
<polygon fill="white" stroke="#666666" points="1623.5,-319.84 1484.5,-319.84 1484.5,-289.84 1623.5,-289.84 1623.5,-319.84"/>
<text text-anchor="start" x="1492.5" y="-307.84" font-family="Helvetica,sans-Serif" font-size="10.00">com.teragrep.pth_06.ast.</text>
<text text-anchor="middle" x="1554" y="-296.84" font-family="Helvetica,sans-Serif" font-size="10.00">Expression.tag</text>
</a>
</g>
</g>
<!-- Node3&#45;&gt;Node7 -->
<g id="edge6_Node000003_Node000007" class="edge">
<title>Node3&#45;&gt;Node7</title>
<g id="a_edge6_Node000003_Node000007"><a xlink:title=" ">
<path fill="none" stroke="#63b8ff" d="M624.43,-224.15C646.91,-247.05 692.63,-289.97 740,-312.84 940.59,-409.65 1010.72,-388.63 1233,-402.84 1327.03,-408.84 1357.1,-436.77 1445,-402.84 1483.66,-387.91 1517.04,-352 1536.08,-328.05"/>
<polygon fill="#63b8ff" stroke="#63b8ff" points="1538.86,-330.18 1542.21,-320.13 1533.32,-325.9 1538.86,-330.18"/>
</a>
</g>
</g>
<!-- Node8 -->
<g id="Node000008" class="node">
<title>Node8</title>
<g id="a_Node000008"><a xlink:href="classcom_1_1teragrep_1_1pth__06_1_1ast_1_1transform_1_1OptimizedAST.html#a77542c0b232d1e10e50a9846e1845b10" target="_top" xlink:title=" ">
<polygon fill="white" stroke="#666666" points="971,-223.84 740,-223.84 740,-193.84 971,-193.84 971,-223.84"/>
<text text-anchor="start" x="748" y="-211.84" font-family="Helvetica,sans-Serif" font-size="10.00">com.teragrep.pth_06.ast.transform.</text>
<text text-anchor="middle" x="855.5" y="-200.84" font-family="Helvetica,sans-Serif" font-size="10.00">OptimizedAST.transformedSingleExpression</text>
</a>
</g>
</g>
<!-- Node3&#45;&gt;Node8 -->
<g id="edge7_Node000003_Node000008" class="edge">
<title>Node3&#45;&gt;Node8</title>
<g id="a_edge7_Node000003_Node000008"><a xlink:title=" ">
<path fill="none" stroke="#63b8ff" d="M704.18,-208.84C712.59,-208.84 721.19,-208.84 729.81,-208.84"/>
<polygon fill="#63b8ff" stroke="#63b8ff" points="729.92,-212.34 739.92,-208.84 729.92,-205.34 729.92,-212.34"/>
</a>
</g>
</g>
<!-- Node9 -->
<g id="Node000009" class="node">
<title>Node9</title>
<g id="a_Node000009"><a xlink:href="classcom_1_1teragrep_1_1pth__06_1_1ast_1_1transform_1_1EmptyPruned.html#a8cfebc9854b0ad9a7cbe81918392e036" target="_top" xlink:title=" ">
<polygon fill="white" stroke="#666666" points="1434,-175.84 1244,-175.84 1244,-145.84 1434,-145.84 1434,-175.84"/>
<text text-anchor="start" x="1252" y="-163.84" font-family="Helvetica,sans-Serif" font-size="10.00">com.teragrep.pth_06.ast.transform.</text>
<text text-anchor="middle" x="1339" y="-152.84" font-family="Helvetica,sans-Serif" font-size="10.00">EmptyPruned.transformed</text>
</a>
</g>
</g>
<!-- Node8&#45;&gt;Node9 -->
<g id="edge8_Node000008_Node000009" class="edge">
<title>Node8&#45;&gt;Node9</title>
<g id="a_edge8_Node000008_Node000009"><a xlink:title=" ">
<path fill="none" stroke="#63b8ff" d="M971.22,-197.4C1050.95,-189.45 1156.36,-178.94 1233.71,-171.23"/>
<polygon fill="#63b8ff" stroke="#63b8ff" points="1234.35,-174.69 1243.95,-170.21 1233.66,-167.72 1234.35,-174.69"/>
</a>
</g>
</g>
<!-- Node10 -->
<g id="Node000010" class="node">
<title>Node10</title>
<g id="a_Node000010"><a xlink:href="classcom_1_1teragrep_1_1pth__06_1_1ast_1_1transform_1_1FlattenLogical.html#a2e1717ad6884eea7a2415aa7763eaed5" target="_top" xlink:title=" ">
<polygon fill="white" stroke="#666666" points="1197,-319.84 1007,-319.84 1007,-289.84 1197,-289.84 1197,-319.84"/>
<text text-anchor="start" x="1015" y="-307.84" font-family="Helvetica,sans-Serif" font-size="10.00">com.teragrep.pth_06.ast.transform.</text>
<text text-anchor="middle" x="1102" y="-296.84" font-family="Helvetica,sans-Serif" font-size="10.00">FlattenLogical.transformed</text>
</a>
</g>
</g>
<!-- Node8&#45;&gt;Node10 -->
<g id="edge13_Node000008_Node000010" class="edge">
<title>Node8&#45;&gt;Node10</title>
<g id="a_edge13_Node000008_Node000010"><a xlink:title=" ">
<path fill="none" stroke="#63b8ff" d="M894.7,-223.84C937.46,-240.62 1006.8,-267.85 1053.14,-286.05"/>
<polygon fill="#63b8ff" stroke="#63b8ff" points="1052.08,-289.39 1062.66,-289.78 1054.63,-282.87 1052.08,-289.39"/>
</a>
</g>
</g>
<!-- Node13 -->
<g id="Node000013" class="node">
<title>Node13</title>
<g id="a_Node000013"><a xlink:href="classcom_1_1teragrep_1_1pth__06_1_1ast_1_1transform_1_1IdentitySimplification.html#a2e7ebae3195ee7794364c646e783c6d3" target="_top" xlink:title=" ">
<polygon fill="white" stroke="#666666" points="1434,-109.84 1244,-109.84 1244,-79.84 1434,-79.84 1434,-109.84"/>
<text text-anchor="start" x="1252" y="-97.84" font-family="Helvetica,sans-Serif" font-size="10.00">com.teragrep.pth_06.ast.transform.</text>
<text text-anchor="middle" x="1339" y="-86.84" font-family="Helvetica,sans-Serif" font-size="10.00">IdentitySimplification.transformed</text>
</a>
</g>
</g>
<!-- Node8&#45;&gt;Node13 -->
<g id="edge25_Node000008_Node000013" class="edge">
<title>Node8&#45;&gt;Node13</title>
<g id="a_edge25_Node000008_Node000013"><a xlink:title=" ">
<path fill="none" stroke="#63b8ff" d="M914.68,-193.84C942.57,-186.72 976.48,-178.19 1007,-170.84 1093.69,-149.94 1193.47,-127.21 1260.62,-112.11"/>
<polygon fill="#63b8ff" stroke="#63b8ff" points="1261.71,-115.45 1270.7,-109.84 1260.18,-108.62 1261.71,-115.45"/>
</a>
</g>
</g>
<!-- Node14 -->
<g id="Node000014" class="node">
<title>Node14</title>
<g id="a_Node000014"><a xlink:href="classcom_1_1teragrep_1_1pth__06_1_1ast_1_1transform_1_1PrunedInvalidTimeQualifier.html#a390e2447fa0ee0e2964ba44d68710b37" target="_top" xlink:title=" ">
<polygon fill="white" stroke="#666666" points="1445,-271.84 1233,-271.84 1233,-241.84 1445,-241.84 1445,-271.84"/>
<text text-anchor="start" x="1241" y="-259.84" font-family="Helvetica,sans-Serif" font-size="10.00">com.teragrep.pth_06.ast.transform.</text>
<text text-anchor="middle" x="1339" y="-248.84" font-family="Helvetica,sans-Serif" font-size="10.00">PrunedInvalidTimeQualifier.transformed</text>
</a>
</g>
</g>
<!-- Node8&#45;&gt;Node14 -->
<g id="edge30_Node000008_Node000014" class="edge">
<title>Node8&#45;&gt;Node14</title>
<g id="a_edge30_Node000008_Node000014"><a xlink:title=" ">
<path fill="none" stroke="#63b8ff" d="M971.22,-220.27C1047.22,-227.85 1146.56,-237.75 1222.68,-245.34"/>
<polygon fill="#63b8ff" stroke="#63b8ff" points="1222.5,-248.84 1232.79,-246.35 1223.19,-241.87 1222.5,-248.84"/>
</a>
</g>
</g>
<!-- Node15 -->
<g id="Node000015" class="node">
<title>Node15</title>
<g id="a_Node000015"><a xlink:href="classcom_1_1teragrep_1_1pth__06_1_1ast_1_1transform_1_1UniqueChildren.html#a39304f06c8b7ac1e1a23463fe502028e" target="_top" xlink:title=" ">
<polygon fill="white" stroke="#666666" points="1434,-223.84 1244,-223.84 1244,-193.84 1434,-193.84 1434,-223.84"/>
<text text-anchor="start" x="1252" y="-211.84" font-family="Helvetica,sans-Serif" font-size="10.00">com.teragrep.pth_06.ast.transform.</text>
<text text-anchor="middle" x="1339" y="-200.84" font-family="Helvetica,sans-Serif" font-size="10.00">UniqueChildren.transformed</text>
</a>
</g>
</g>
<!-- Node8&#45;&gt;Node15 -->
<g id="edge35_Node000008_Node000015" class="edge">
<title>Node8&#45;&gt;Node15</title>
<g id="a_edge35_Node000008_Node000015"><a xlink:title=" ">
<path fill="none" stroke="#63b8ff" d="M971.22,-208.84C1050.95,-208.84 1156.36,-208.84 1233.71,-208.84"/>
<polygon fill="#63b8ff" stroke="#63b8ff" points="1233.95,-212.34 1243.95,-208.84 1233.95,-205.34 1233.95,-212.34"/>
</a>
</g>
</g>
<!-- Node9&#45;&gt;Node4 -->
<g id="edge9_Node000009_Node000004" class="edge">
<title>Node9&#45;&gt;Node4</title>
<g id="a_edge9_Node000009_Node000004"><a xlink:title=" ">
<path fill="none" stroke="#63b8ff" d="M1427.91,-175.87C1433.9,-178.41 1439.67,-181.37 1445,-184.84 1467.36,-199.36 1459.37,-217.24 1481,-232.84 1483.06,-234.32 1485.21,-235.72 1487.44,-237.03"/>
<polygon fill="#63b8ff" stroke="#63b8ff" points="1485.85,-240.14 1496.33,-241.69 1489.1,-233.95 1485.85,-240.14"/>
</a>
</g>
</g>
<!-- Node9&#45;&gt;Node5 -->
<g id="edge10_Node000009_Node000005" class="edge">
<title>Node9&#45;&gt;Node5</title>
<g id="a_edge10_Node000009_Node000005"><a xlink:title=" ">
<path fill="none" stroke="#63b8ff" d="M1406.81,-175.89C1428.92,-180.87 1453.68,-186.46 1476.46,-191.59"/>
<polygon fill="#63b8ff" stroke="#63b8ff" points="1475.9,-195.05 1486.43,-193.83 1477.44,-188.22 1475.9,-195.05"/>
</a>
</g>
</g>
<!-- Node9&#45;&gt;Node6 -->
<g id="edge11_Node000009_Node000006" class="edge">
<title>Node9&#45;&gt;Node6</title>
<g id="a_edge11_Node000009_Node000006"><a xlink:title=" ">
<path fill="none" stroke="#63b8ff" d="M1434.04,-146.27C1447.54,-144.17 1461.31,-142.04 1474.47,-140"/>
<polygon fill="#63b8ff" stroke="#63b8ff" points="1475.05,-143.46 1484.4,-138.47 1473.98,-136.54 1475.05,-143.46"/>
</a>
</g>
</g>
<!-- Node9&#45;&gt;Node7 -->
<g id="edge12_Node000009_Node000007" class="edge">
<title>Node9&#45;&gt;Node7</title>
<g id="a_edge12_Node000009_Node000007"><a xlink:title=" ">
<path fill="none" stroke="#63b8ff" d="M1432.13,-175.84C1436.72,-178.41 1441.06,-181.39 1445,-184.84 1479.31,-214.83 1448.19,-249.22 1481,-280.84 1482.13,-281.92 1483.3,-282.96 1484.52,-283.95"/>
<polygon fill="#63b8ff" stroke="#63b8ff" points="1482.9,-287.08 1493.13,-289.82 1486.85,-281.3 1482.9,-287.08"/>
</a>
</g>
</g>
<!-- Node10&#45;&gt;Node6 -->
<g id="edge22_Node000010_Node000006" class="edge">
<title>Node10&#45;&gt;Node6</title>
<g id="a_edge22_Node000010_Node000006"><a xlink:title=" ">
<path fill="none" stroke="#63b8ff" d="M1105.94,-289.68C1115.29,-246.08 1148.89,-120.33 1233,-70.84 1314.21,-23.05 1353.54,-48.18 1445,-70.84 1473.45,-77.88 1502.67,-93.94 1523.53,-107.23"/>
<polygon fill="#63b8ff" stroke="#63b8ff" points="1521.65,-110.17 1531.93,-112.71 1525.47,-104.31 1521.65,-110.17"/>
</a>
</g>
</g>
<!-- Node10&#45;&gt;Node7 -->
<g id="edge23_Node000010_Node000007" class="edge">
<title>Node10&#45;&gt;Node7</title>
<g id="a_edge23_Node000010_Node000007"><a xlink:title=" ">
<path fill="none" stroke="#63b8ff" d="M1122.78,-320.04C1147.14,-337.71 1190.54,-365.86 1233,-376.84 1324.23,-400.41 1354.82,-404.14 1445,-376.84 1477.37,-367.04 1508.9,-343.98 1529.46,-326.58"/>
<polygon fill="#63b8ff" stroke="#63b8ff" points="1531.78,-329.2 1537.04,-320 1527.19,-323.91 1531.78,-329.2"/>
</a>
</g>
</g>
<!-- Node10&#45;&gt;Node10 -->
<g id="edge24_Node000010_Node000010" class="edge">
<title>Node10&#45;&gt;Node10</title>
<g id="a_edge24_Node000010_Node000010"><a xlink:title=" ">
<path fill="none" stroke="#63b8ff" d="M1060.52,-320.11C1051.3,-329.24 1065.12,-337.84 1102,-337.84 1123.89,-337.84 1137.66,-334.81 1143.31,-330.43"/>
<polygon fill="#63b8ff" stroke="#63b8ff" points="1146.81,-330.17 1143.48,-320.11 1139.81,-330.05 1146.81,-330.17"/>
</a>
</g>
</g>
<!-- Node11 -->
<g id="Node000011" class="node">
<title>Node11</title>
<g id="a_Node000011"><a xlink:href="classcom_1_1teragrep_1_1pth__06_1_1ast_1_1transform_1_1FlattenLogical.html#a3b9085857dc57e88c58a6fa5a057f103" target="_top" xlink:title=" ">
<polygon fill="white" stroke="#666666" points="1434.5,-319.84 1243.5,-319.84 1243.5,-289.84 1434.5,-289.84 1434.5,-319.84"/>
<text text-anchor="start" x="1251.5" y="-307.84" font-family="Helvetica,sans-Serif" font-size="10.00">com.teragrep.pth_06.ast.transform.</text>
<text text-anchor="middle" x="1339" y="-296.84" font-family="Helvetica,sans-Serif" font-size="10.00">FlattenLogical.flattenedAndChildren</text>
</a>
</g>
</g>
<!-- Node10&#45;&gt;Node11 -->
<g id="edge14_Node000010_Node000011" class="edge">
<title>Node10&#45;&gt;Node11</title>
<g id="a_edge14_Node000010_Node000011"><a xlink:title=" ">
<path fill="none" stroke="#63b8ff" d="M1197.23,-304.84C1209.1,-304.84 1221.3,-304.84 1233.32,-304.84"/>
<polygon fill="#63b8ff" stroke="#63b8ff" points="1233.37,-308.34 1243.37,-304.84 1233.37,-301.34 1233.37,-308.34"/>
</a>
</g>
</g>
<!-- Node12 -->
<g id="Node000012" class="node">
<title>Node12</title>
<g id="a_Node000012"><a xlink:href="classcom_1_1teragrep_1_1pth__06_1_1ast_1_1transform_1_1FlattenLogical.html#ae0b8acc47ab74872494d07da365e303b" target="_top" xlink:title=" ">
<polygon fill="white" stroke="#666666" points="1434,-367.84 1244,-367.84 1244,-337.84 1434,-337.84 1434,-367.84"/>
<text text-anchor="start" x="1252" y="-355.84" font-family="Helvetica,sans-Serif" font-size="10.00">com.teragrep.pth_06.ast.transform.</text>
<text text-anchor="middle" x="1339" y="-344.84" font-family="Helvetica,sans-Serif" font-size="10.00">FlattenLogical.flattenedOrChildren</text>
</a>
</g>
</g>
<!-- Node10&#45;&gt;Node12 -->
<g id="edge18_Node000010_Node000012" class="edge">
<title>Node10&#45;&gt;Node12</title>
<g id="a_edge18_Node000010_Node000012"><a xlink:title=" ">
<path fill="none" stroke="#63b8ff" d="M1176.71,-319.89C1201.43,-324.94 1229.16,-330.61 1254.57,-335.8"/>
<polygon fill="#63b8ff" stroke="#63b8ff" points="1254.05,-339.26 1264.55,-337.83 1255.45,-332.4 1254.05,-339.26"/>
</a>
</g>
</g>
<!-- Node11&#45;&gt;Node4 -->
<g id="edge15_Node000011_Node000004" class="edge">
<title>Node11&#45;&gt;Node4</title>
<g id="a_edge15_Node000011_Node000004"><a xlink:title=" ">
<path fill="none" stroke="#63b8ff" d="M1406.81,-289.78C1428.92,-284.8 1453.68,-279.22 1476.46,-274.08"/>
<polygon fill="#63b8ff" stroke="#63b8ff" points="1477.44,-277.45 1486.43,-271.84 1475.9,-270.62 1477.44,-277.45"/>
</a>
</g>
</g>
<!-- Node11&#45;&gt;Node5 -->
<g id="edge16_Node000011_Node000005" class="edge">
<title>Node11&#45;&gt;Node5</title>
<g id="a_edge16_Node000011_Node000005"><a xlink:title=" ">
<path fill="none" stroke="#63b8ff" d="M1427.91,-289.81C1433.9,-287.27 1439.67,-284.3 1445,-280.84 1467.36,-266.31 1459.37,-248.43 1481,-232.84 1483.06,-231.35 1485.21,-229.96 1487.44,-228.64"/>
<polygon fill="#63b8ff" stroke="#63b8ff" points="1489.1,-231.73 1496.33,-223.98 1485.85,-225.53 1489.1,-231.73"/>
</a>
</g>
</g>
<!-- Node11&#45;&gt;Node7 -->
<g id="edge17_Node000011_Node000007" class="edge">
<title>Node11&#45;&gt;Node7</title>
<g id="a_edge17_Node000011_Node000007"><a xlink:title=" ">
<path fill="none" stroke="#63b8ff" d="M1434.67,-304.84C1447.9,-304.84 1461.39,-304.84 1474.29,-304.84"/>
<polygon fill="#63b8ff" stroke="#63b8ff" points="1474.49,-308.34 1484.49,-304.84 1474.49,-301.34 1474.49,-308.34"/>
</a>
</g>
</g>
<!-- Node12&#45;&gt;Node4 -->
<g id="edge19_Node000012_Node000004" class="edge">
<title>Node12&#45;&gt;Node4</title>
<g id="a_edge19_Node000012_Node000004"><a xlink:title=" ">
<path fill="none" stroke="#63b8ff" d="M1427.91,-337.81C1433.9,-335.27 1439.67,-332.3 1445,-328.84 1467.36,-314.31 1459.37,-296.43 1481,-280.84 1483.06,-279.35 1485.21,-277.96 1487.44,-276.64"/>
<polygon fill="#63b8ff" stroke="#63b8ff" points="1489.1,-279.73 1496.33,-271.98 1485.85,-273.53 1489.1,-279.73"/>
</a>
</g>
</g>
<!-- Node12&#45;&gt;Node5 -->
<g id="edge20_Node000012_Node000005" class="edge">
<title>Node12&#45;&gt;Node5</title>
<g id="a_edge20_Node000012_Node000005"><a xlink:title=" ">
<path fill="none" stroke="#63b8ff" d="M1432.13,-337.84C1436.72,-335.26 1441.06,-332.28 1445,-328.84 1479.31,-298.85 1448.19,-264.46 1481,-232.84 1482.13,-231.75 1483.3,-230.71 1484.52,-229.72"/>
<polygon fill="#63b8ff" stroke="#63b8ff" points="1486.85,-232.38 1493.13,-223.85 1482.9,-226.6 1486.85,-232.38"/>
</a>
</g>
</g>
<!-- Node12&#45;&gt;Node7 -->
<g id="edge21_Node000012_Node000007" class="edge">
<title>Node12&#45;&gt;Node7</title>
<g id="a_edge21_Node000012_Node000007"><a xlink:title=" ">
<path fill="none" stroke="#63b8ff" d="M1406.81,-337.78C1428.92,-332.8 1453.68,-327.22 1476.46,-322.08"/>
<polygon fill="#63b8ff" stroke="#63b8ff" points="1477.44,-325.45 1486.43,-319.84 1475.9,-318.62 1477.44,-325.45"/>
</a>
</g>
</g>
<!-- Node13&#45;&gt;Node4 -->
<g id="edge26_Node000013_Node000004" class="edge">
<title>Node13&#45;&gt;Node4</title>
<g id="a_edge26_Node000013_Node000004"><a xlink:title=" ">
<path fill="none" stroke="#63b8ff" d="M1402.06,-109.94C1417.65,-116.17 1433.26,-124.84 1445,-136.84 1476.87,-169.41 1448.19,-201.22 1481,-232.84 1482.13,-233.92 1483.3,-234.96 1484.52,-235.95"/>
<polygon fill="#63b8ff" stroke="#63b8ff" points="1482.9,-239.08 1493.13,-241.82 1486.85,-233.3 1482.9,-239.08"/>
</a>
</g>
</g>
<!-- Node13&#45;&gt;Node5 -->
<g id="edge27_Node000013_Node000005" class="edge">
<title>Node13&#45;&gt;Node5</title>
<g id="a_edge27_Node000013_Node000005"><a xlink:title=" ">
<path fill="none" stroke="#63b8ff" d="M1383.31,-109.84C1402.61,-117.11 1425.37,-126.51 1445,-136.84 1473.4,-151.77 1503.61,-172.37 1524.84,-187.71"/>
<polygon fill="#63b8ff" stroke="#63b8ff" points="1522.94,-190.65 1533.08,-193.72 1527.06,-184.99 1522.94,-190.65"/>
</a>
</g>
</g>
<!-- Node13&#45;&gt;Node6 -->
<g id="edge28_Node000013_Node000006" class="edge">
<title>Node13&#45;&gt;Node6</title>
<g id="a_edge28_Node000013_Node000006"><a xlink:title=" ">
<path fill="none" stroke="#63b8ff" d="M1434.04,-109.41C1447.54,-111.5 1461.31,-113.63 1474.47,-115.67"/>
<polygon fill="#63b8ff" stroke="#63b8ff" points="1473.98,-119.14 1484.4,-117.21 1475.05,-112.22 1473.98,-119.14"/>
</a>
</g>
</g>
<!-- Node13&#45;&gt;Node13 -->
<g id="edge29_Node000013_Node000013" class="edge">
<title>Node13&#45;&gt;Node13</title>
<g id="a_edge29_Node000013_Node000013"><a xlink:title=" ">
<path fill="none" stroke="#63b8ff" d="M1301.38,-110.11C1293.02,-119.24 1305.56,-127.84 1339,-127.84 1358.85,-127.84 1371.34,-124.81 1376.46,-120.43"/>
<polygon fill="#63b8ff" stroke="#63b8ff" points="1379.96,-120.16 1376.62,-110.11 1372.96,-120.06 1379.96,-120.16"/>
</a>
</g>
</g>
<!-- Node14&#45;&gt;Node4 -->
<g id="edge31_Node000014_Node000004" class="edge">
<title>Node14&#45;&gt;Node4</title>
<g id="a_edge31_Node000014_Node000004"><a xlink:title=" ">
<path fill="none" stroke="#63b8ff" d="M1445.25,-256.84C1455.03,-256.84 1464.82,-256.84 1474.29,-256.84"/>
<polygon fill="#63b8ff" stroke="#63b8ff" points="1474.43,-260.34 1484.43,-256.84 1474.43,-253.34 1474.43,-260.34"/>
</a>
</g>
</g>
<!-- Node14&#45;&gt;Node5 -->
<g id="edge32_Node000014_Node000005" class="edge">
<title>Node14&#45;&gt;Node5</title>
<g id="a_edge32_Node000014_Node000005"><a xlink:title=" ">
<path fill="none" stroke="#63b8ff" d="M1406.81,-241.78C1428.92,-236.8 1453.68,-231.22 1476.46,-226.08"/>
<polygon fill="#63b8ff" stroke="#63b8ff" points="1477.44,-229.45 1486.43,-223.84 1475.9,-222.62 1477.44,-229.45"/>
</a>
</g>
</g>
<!-- Node14&#45;&gt;Node6 -->
<g id="edge33_Node000014_Node000006" class="edge">
<title>Node14&#45;&gt;Node6</title>
<g id="a_edge33_Node000014_Node000006"><a xlink:title=" ">
<path fill="none" stroke="#63b8ff" d="M1427.91,-241.81C1433.9,-239.27 1439.67,-236.3 1445,-232.84 1467.36,-218.31 1462.39,-203.94 1481,-184.84 1493.71,-171.79 1509.42,-159.03 1522.92,-148.9"/>
<polygon fill="#63b8ff" stroke="#63b8ff" points="1525.02,-151.71 1531,-142.96 1520.87,-146.07 1525.02,-151.71"/>
</a>
</g>
</g>
<!-- Node14&#45;&gt;Node7 -->
<g id="edge34_Node000014_Node000007" class="edge">
<title>Node14&#45;&gt;Node7</title>
<g id="a_edge34_Node000014_Node000007"><a xlink:title=" ">
<path fill="none" stroke="#63b8ff" d="M1406.81,-271.89C1428.92,-276.87 1453.68,-282.46 1476.46,-287.59"/>
<polygon fill="#63b8ff" stroke="#63b8ff" points="1475.9,-291.05 1486.43,-289.83 1477.44,-284.22 1475.9,-291.05"/>
</a>
</g>
</g>
<!-- Node15&#45;&gt;Node4 -->
<g id="edge36_Node000015_Node000004" class="edge">
<title>Node15&#45;&gt;Node4</title>
<g id="a_edge36_Node000015_Node000004"><a xlink:title=" ">
<path fill="none" stroke="#63b8ff" d="M1406.81,-223.89C1428.92,-228.87 1453.68,-234.46 1476.46,-239.59"/>
<polygon fill="#63b8ff" stroke="#63b8ff" points="1475.9,-243.05 1486.43,-241.83 1477.44,-236.22 1475.9,-243.05"/>
</a>
</g>
</g>
<!-- Node15&#45;&gt;Node5 -->
<g id="edge37_Node000015_Node000005" class="edge">
<title>Node15&#45;&gt;Node5</title>
<g id="a_edge37_Node000015_Node000005"><a xlink:title=" ">
<path fill="none" stroke="#63b8ff" d="M1434.04,-208.84C1446.32,-208.84 1458.82,-208.84 1470.88,-208.84"/>
<polygon fill="#63b8ff" stroke="#63b8ff" points="1470.89,-212.34 1480.89,-208.84 1470.89,-205.34 1470.89,-212.34"/>
</a>
</g>
</g>
<!-- Node15&#45;&gt;Node6 -->
<g id="edge38_Node000015_Node000006" class="edge">
<title>Node15&#45;&gt;Node6</title>
<g id="a_edge38_Node000015_Node000006"><a xlink:title=" ">
<path fill="none" stroke="#63b8ff" d="M1416.68,-193.77C1426.33,-191.16 1435.97,-188.19 1445,-184.84 1471.32,-175.07 1499.3,-160.16 1520.19,-148.04"/>
<polygon fill="#63b8ff" stroke="#63b8ff" points="1522.13,-150.96 1528.97,-142.87 1518.58,-144.93 1522.13,-150.96"/>
</a>
</g>
</g>
<!-- Node15&#45;&gt;Node7 -->
<g id="edge39_Node000015_Node000007" class="edge">
<title>Node15&#45;&gt;Node7</title>
<g id="a_edge39_Node000015_Node000007"><a xlink:title=" ">
<path fill="none" stroke="#63b8ff" d="M1427.91,-223.87C1433.9,-226.41 1439.67,-229.37 1445,-232.84 1467.36,-247.36 1459.37,-265.24 1481,-280.84 1483.06,-282.32 1485.21,-283.72 1487.44,-285.03"/>
<polygon fill="#63b8ff" stroke="#63b8ff" points="1485.85,-288.14 1496.33,-289.69 1489.1,-281.95 1485.85,-288.14"/>
</a>
</g>
</g>
</g>
</svg>
