<?xml version="1.0" encoding="UTF-8" standalone="no"?>
<!DOCTYPE svg PUBLIC "-//W3C//DTD SVG 1.1//EN"
 "http://www.w3.org/Graphics/SVG/1.1/DTD/svg11.dtd">
<!-- Generated by graphviz version 2.43.0 (0)
 -->
<!-- Title: com.teragrep.pth_06.ast.meta.StreamDBConditionTest.testHost Pages: 1 -->
<svg width="640pt" height="122pt"
 viewBox="0.00 0.00 640.00 122.00" xmlns="http://www.w3.org/2000/svg" xmlns:xlink="http://www.w3.org/1999/xlink">
<g id="graph0" class="graph" transform="scale(1 1) rotate(0) translate(4 118)">
<title>com.teragrep.pth_06.ast.meta.StreamDBConditionTest.testHost</title>
<!-- Node1 -->
<g id="Node000001" class="node">
<title>Node1</title>
<g id="a_Node000001"><a xlink:title=" ">
<polygon fill="#999999" stroke="#666666" points="176,-63 0,-63 0,-33 176,-33 176,-63"/>
<text text-anchor="start" x="8" y="-51" font-family="Helvetica,sans-Serif" font-size="10.00">com.teragrep.pth_06.ast.meta.</text>
<text text-anchor="middle" x="88" y="-40" font-family="Helvetica,sans-Serif" font-size="10.00">StreamDBConditionTest.testHost</text>
</a>
</g>
</g>
<!-- Node2 -->
<g id="Node000002" class="node">
<title>Node2</title>
<g id="a_Node000002"><a xlink:href="classcom_1_1teragrep_1_1pth__06_1_1ast_1_1meta_1_1StreamDBCondition.html#a529cd38cec60771ddde6da97da36dd10" target="_top" xlink:title=" ">
<polygon fill="white" stroke="#666666" points="379,-63 212,-63 212,-33 379,-33 379,-63"/>
<text text-anchor="start" x="220" y="-51" font-family="Helvetica,sans-Serif" font-size="10.00">com.teragrep.pth_06.ast.meta.</text>
<text text-anchor="middle" x="295.5" y="-40" font-family="Helvetica,sans-Serif" font-size="10.00">StreamDBCondition.condition</text>
</a>
</g>
</g>
<!-- Node1&#45;&gt;Node2 -->
<g id="edge1_Node000001_Node000002" class="edge">
<title>Node1&#45;&gt;Node2</title>
<g id="a_edge1_Node000001_Node000002"><a xlink:title=" ">
<path fill="none" stroke="#63b8ff" d="M176.15,-48C184.55,-48 193.09,-48 201.54,-48"/>
<polygon fill="#63b8ff" stroke="#63b8ff" points="201.79,-51.5 211.79,-48 201.79,-44.5 201.79,-51.5"/>
</a>
</g>
</g>
<!-- Node3 -->
<g id="Node000003" class="node">
<title>Node3</title>
<g id="a_Node000003"><a xlink:href="classcom_1_1teragrep_1_1pth__06_1_1ast_1_1meta_1_1StreamDBCondition.html#a3e43c38cb0c9103e08f4b37e95e45b87" target="_top" xlink:title=" ">
<polygon fill="white" stroke="#666666" points="615,-96 432,-96 432,-66 615,-66 615,-96"/>
<text text-anchor="start" x="440" y="-84" font-family="Helvetica,sans-Serif" font-size="10.00">com.teragrep.pth_06.ast.meta.</text>
<text text-anchor="middle" x="523.5" y="-73" font-family="Helvetica,sans-Serif" font-size="10.00">StreamDBCondition.hostCondition</text>
</a>
</g>
</g>
<!-- Node2&#45;&gt;Node3 -->
<g id="edge2_Node000002_Node000003" class="edge">
<title>Node2&#45;&gt;Node3</title>
<g id="a_edge2_Node000002_Node000003"><a xlink:title=" ">
<path fill="none" stroke="#63b8ff" d="M379.05,-53.53C402.67,-56.62 428.2,-60.42 451.09,-64.25"/>
<polygon fill="#63b8ff" stroke="#63b8ff" points="450.61,-67.72 461.06,-65.95 451.79,-60.82 450.61,-67.72"/>
</a>
</g>
</g>
<!-- Node4 -->
<g id="Node000004" class="node">
<title>Node4</title>
<g id="a_Node000004"><a xlink:href="classcom_1_1teragrep_1_1pth__06_1_1ast_1_1meta_1_1StreamDBCondition.html#a2bedf2bbbbc73178de7e2c8872f8d486" target="_top" xlink:title=" ">
<polygon fill="white" stroke="#666666" points="632,-30 415,-30 415,0 632,0 632,-30"/>
<text text-anchor="start" x="423" y="-18" font-family="Helvetica,sans-Serif" font-size="10.00">com.teragrep.pth_06.ast.meta.</text>
<text text-anchor="middle" x="523.5" y="-7" font-family="Helvetica,sans-Serif" font-size="10.00">StreamDBCondition.sourceTypeCondition</text>
</a>
</g>
</g>
<!-- Node2&#45;&gt;Node4 -->
<g id="edge5_Node000002_Node000004" class="edge">
<title>Node2&#45;&gt;Node4</title>
<g id="a_edge5_Node000002_Node000004"><a xlink:title=" ">
<path fill="none" stroke="#63b8ff" d="M357.66,-33C372.27,-30.45 388.37,-27.88 404.59,-25.47"/>
<polygon fill="#63b8ff" stroke="#63b8ff" points="405.31,-28.9 414.7,-24 404.3,-21.98 405.31,-28.9"/>
</a>
</g>
</g>
<!-- Node3&#45;&gt;Node2 -->
<g id="edge3_Node000003_Node000002" class="edge">
<title>Node3&#45;&gt;Node2</title>
<g id="a_edge3_Node000003_Node000002"><a xlink:title=" ">
<path fill="none" stroke="#63b8ff" d="M431.57,-74.36C410.32,-71.48 387.98,-68.11 367.73,-64.72"/>
<polygon fill="#63b8ff" stroke="#63b8ff" points="368.11,-61.24 357.66,-63 366.93,-68.14 368.11,-61.24"/>
</a>
</g>
</g>
<!-- Node3&#45;&gt;Node3 -->
<g id="edge4_Node000003_Node000003" class="edge">
<title>Node3&#45;&gt;Node3</title>
<g id="a_edge4_Node000003_Node000003"><a xlink:title=" ">
<path fill="none" stroke="#63b8ff" d="M483.42,-96.28C474.52,-105.41 487.88,-114 523.5,-114 544.65,-114 557.96,-110.97 563.41,-106.6"/>
<polygon fill="#63b8ff" stroke="#63b8ff" points="566.91,-106.33 563.58,-96.28 559.91,-106.22 566.91,-106.33"/>
</a>
</g>
</g>
<!-- Node4&#45;&gt;Node2 -->
<g id="edge6_Node000004_Node000002" class="edge">
<title>Node4&#45;&gt;Node2</title>
<g id="a_edge6_Node000004_Node000002"><a xlink:title=" ">
<path fill="none" stroke="#63b8ff" d="M461.06,-30.05C438.86,-33.91 413.27,-37.84 389,-41.14"/>
<polygon fill="#63b8ff" stroke="#63b8ff" points="388.5,-37.68 379.05,-42.47 389.43,-44.62 388.5,-37.68"/>
</a>
</g>
</g>
<!-- Node4&#45;&gt;Node4 -->
<g id="edge7_Node000004_Node000004" class="edge">
<title>Node4&#45;&gt;Node4</title>
<g id="a_edge7_Node000004_Node000004"><a xlink:title=" ">
<path fill="none" stroke="#63b8ff" d="M483.42,-30.28C474.52,-39.41 487.88,-48 523.5,-48 544.65,-48 557.96,-44.97 563.41,-40.6"/>
<polygon fill="#63b8ff" stroke="#63b8ff" points="566.91,-40.33 563.58,-30.28 559.91,-40.22 566.91,-40.33"/>
</a>
</g>
</g>
</g>
</svg>
