<?xml version="1.0" encoding="UTF-8" standalone="no"?>
<!DOCTYPE svg PUBLIC "-//W3C//DTD SVG 1.1//EN"
 "http://www.w3.org/Graphics/SVG/1.1/DTD/svg11.dtd">
<!-- Generated by graphviz version 2.43.0 (0)
 -->
<!-- Title: com.teragrep.pth_06.ast.transform.WithDefaultValues.recursiveWithDefaultsExpression Pages: 1 -->
<svg width="712pt" height="373pt"
 viewBox="0.00 0.00 712.00 372.50" xmlns="http://www.w3.org/2000/svg" xmlns:xlink="http://www.w3.org/1999/xlink">
<g id="graph0" class="graph" transform="scale(1 1) rotate(0) translate(4 368.5)">
<title>com.teragrep.pth_06.ast.transform.WithDefaultValues.recursiveWithDefaultsExpression</title>
<!-- Node1 -->
<g id="Node000001" class="node">
<title>Node1</title>
<g id="a_Node000001"><a xlink:title=" ">
<polygon fill="#999999" stroke="#666666" points="704,-263.5 485,-263.5 485,-222.5 704,-222.5 704,-263.5"/>
<text text-anchor="start" x="493" y="-251.5" font-family="Helvetica,sans-Serif" font-size="10.00">com.teragrep.pth_06.ast.transform.</text>
<text text-anchor="start" x="493" y="-240.5" font-family="Helvetica,sans-Serif" font-size="10.00">WithDefaultValues.recursiveWithDefaults</text>
<text text-anchor="middle" x="594.5" y="-229.5" font-family="Helvetica,sans-Serif" font-size="10.00">Expression</text>
</a>
</g>
</g>
<!-- Node2 -->
<g id="Node000002" class="node">
<title>Node2</title>
<g id="a_Node000002"><a xlink:href="classcom_1_1teragrep_1_1pth__06_1_1ast_1_1transform_1_1WithDefaultValues.html#ac53e9da4d27289a430152a8b67aa7e6b" target="_top" xlink:title=" ">
<polygon fill="white" stroke="#666666" points="449,-306 257,-306 257,-276 449,-276 449,-306"/>
<text text-anchor="start" x="265" y="-294" font-family="Helvetica,sans-Serif" font-size="10.00">com.teragrep.pth_06.ast.transform.</text>
<text text-anchor="middle" x="353" y="-283" font-family="Helvetica,sans-Serif" font-size="10.00">WithDefaultValues.andWithDefaults</text>
</a>
</g>
</g>
<!-- Node1&#45;&gt;Node2 -->
<g id="edge1_Node000001_Node000002" class="edge">
<title>Node1&#45;&gt;Node2</title>
<g id="a_edge1_Node000001_Node000002"><a xlink:title=" ">
<path fill="none" stroke="#63b8ff" d="M475.01,-260C449.01,-265.19 422.93,-270.83 401.68,-275.93"/>
<polygon fill="#63b8ff" stroke="#63b8ff" points="475.83,-263.4 484.96,-258.03 474.47,-256.54 475.83,-263.4"/>
</a>
</g>
</g>
<!-- Node3 -->
<g id="Node000003" class="node">
<title>Node3</title>
<g id="a_Node000003"><a xlink:href="classcom_1_1teragrep_1_1pth__06_1_1ast_1_1transform_1_1WithDefaultValues.html#af8c587422cbf070fc6fea9aba68705d9" target="_top" xlink:title=" ">
<polygon fill="white" stroke="#666666" points="448,-258 258,-258 258,-228 448,-228 448,-258"/>
<text text-anchor="start" x="266" y="-246" font-family="Helvetica,sans-Serif" font-size="10.00">com.teragrep.pth_06.ast.transform.</text>
<text text-anchor="middle" x="353" y="-235" font-family="Helvetica,sans-Serif" font-size="10.00">WithDefaultValues.orWithDefaults</text>
</a>
</g>
</g>
<!-- Node1&#45;&gt;Node3 -->
<g id="edge3_Node000001_Node000003" class="edge">
<title>Node1&#45;&gt;Node3</title>
<g id="a_edge3_Node000001_Node000003"><a xlink:title=" ">
<path fill="none" stroke="#63b8ff" d="M474.89,-236.25C465.95,-236.25 457,-236.29 448.25,-236.39"/>
<polygon fill="#63b8ff" stroke="#63b8ff" points="474.95,-239.75 484.96,-236.28 474.97,-232.75 474.95,-239.75"/>
</a>
</g>
</g>
<!-- Node4 -->
<g id="Node000004" class="node">
<title>Node4</title>
<g id="a_Node000004"><a xlink:href="classcom_1_1teragrep_1_1pth__06_1_1ast_1_1transform_1_1WithDefaultValues.html#a3cd2907c54910cabd6d8cb52ff49215f" target="_top" xlink:title=" ">
<polygon fill="white" stroke="#666666" points="448,-192 258,-192 258,-162 448,-162 448,-192"/>
<text text-anchor="start" x="266" y="-180" font-family="Helvetica,sans-Serif" font-size="10.00">com.teragrep.pth_06.ast.transform.</text>
<text text-anchor="middle" x="353" y="-169" font-family="Helvetica,sans-Serif" font-size="10.00">WithDefaultValues.transformed</text>
</a>
</g>
</g>
<!-- Node1&#45;&gt;Node4 -->
<g id="edge5_Node000001_Node000004" class="edge">
<title>Node1&#45;&gt;Node4</title>
<g id="a_edge5_Node000001_Node000004"><a xlink:title=" ">
<path fill="none" stroke="#63b8ff" d="M509.27,-219.79C475.86,-210.58 438.39,-200.26 408.64,-192.06"/>
<polygon fill="#63b8ff" stroke="#63b8ff" points="508.46,-223.2 519.03,-222.48 510.32,-216.45 508.46,-223.2"/>
</a>
</g>
</g>
<!-- Node2&#45;&gt;Node1 -->
<g id="edge2_Node000002_Node000001" class="edge">
<title>Node2&#45;&gt;Node1</title>
<g id="a_edge2_Node000002_Node000001"><a xlink:title=" ">
<path fill="none" stroke="#63b8ff" d="M459.38,-276.59C480.65,-272.45 502.53,-267.91 522.29,-263.5"/>
<polygon fill="#63b8ff" stroke="#63b8ff" points="458.49,-273.19 449.33,-278.52 459.81,-280.07 458.49,-273.19"/>
</a>
</g>
</g>
<!-- Node3&#45;&gt;Node1 -->
<g id="edge4_Node000003_Node000001" class="edge">
<title>Node3&#45;&gt;Node1</title>
<g id="a_edge4_Node000003_Node000001"><a xlink:title=" ">
<path fill="none" stroke="#63b8ff" d="M458.49,-249.7C467.27,-249.76 476.16,-249.77 484.96,-249.72"/>
<polygon fill="#63b8ff" stroke="#63b8ff" points="458.28,-246.2 448.25,-249.61 458.22,-253.2 458.28,-246.2"/>
</a>
</g>
</g>
<!-- Node4&#45;&gt;Node4 -->
<g id="edge13_Node000004_Node000004" class="edge">
<title>Node4&#45;&gt;Node4</title>
<g id="a_edge13_Node000004_Node000004"><a xlink:title=" ">
<path fill="none" stroke="#63b8ff" d="M395.01,-202.6C389.27,-206.97 375.27,-210 353,-210 315.5,-210 301.44,-201.41 310.81,-192.28"/>
<polygon fill="#63b8ff" stroke="#63b8ff" points="398.51,-202.33 395.19,-192.28 391.51,-202.21 398.51,-202.33"/>
</a>
</g>
</g>
<!-- Node5 -->
<g id="Node000005" class="node">
<title>Node5</title>
<g id="a_Node000005"><a xlink:href="classcom_1_1teragrep_1_1pth__06_1_1ast_1_1transform_1_1WithDefaultValuesTest.html#a233224ccea116a4325d533bb23639f57" target="_top" xlink:title=" ">
<polygon fill="white" stroke="#666666" points="221,-364.5 0,-364.5 0,-323.5 221,-323.5 221,-364.5"/>
<text text-anchor="start" x="8" y="-352.5" font-family="Helvetica,sans-Serif" font-size="10.00">com.teragrep.pth_06.ast.transform.</text>
<text text-anchor="start" x="8" y="-341.5" font-family="Helvetica,sans-Serif" font-size="10.00">WithDefaultValuesTest.testAndExpression</text>
<text text-anchor="middle" x="110.5" y="-330.5" font-family="Helvetica,sans-Serif" font-size="10.00">Children</text>
</a>
</g>
</g>
<!-- Node4&#45;&gt;Node5 -->
<g id="edge6_Node000004_Node000005" class="edge">
<title>Node4&#45;&gt;Node5</title>
<g id="a_edge6_Node000004_Node000005"><a xlink:title=" ">
<path fill="none" stroke="#63b8ff" d="M289.41,-196.17C277.51,-202.02 265.99,-209.51 257,-219 225.95,-251.78 254.4,-283.62 221,-314 217.14,-317.51 212.9,-320.62 208.41,-323.37"/>
<polygon fill="#63b8ff" stroke="#63b8ff" points="290.9,-199.34 298.54,-192.01 287.99,-192.97 290.9,-199.34"/>
</a>
</g>
</g>
<!-- Node6 -->
<g id="Node000006" class="node">
<title>Node6</title>
<g id="a_Node000006"><a xlink:href="classcom_1_1teragrep_1_1pth__06_1_1ast_1_1transform_1_1WithDefaultValuesTest.html#ac16dde1dbe11d8ceb7d2f66f569fa095" target="_top" xlink:title=" ">
<polygon fill="white" stroke="#666666" points="221,-305 0,-305 0,-275 221,-275 221,-305"/>
<text text-anchor="start" x="8" y="-293" font-family="Helvetica,sans-Serif" font-size="10.00">com.teragrep.pth_06.ast.transform.</text>
<text text-anchor="middle" x="110.5" y="-282" font-family="Helvetica,sans-Serif" font-size="10.00">WithDefaultValuesTest.testDefaultEarliest</text>
</a>
</g>
</g>
<!-- Node4&#45;&gt;Node6 -->
<g id="edge7_Node000004_Node000006" class="edge">
<title>Node4&#45;&gt;Node6</title>
<g id="a_edge7_Node000004_Node000006"><a xlink:title=" ">
<path fill="none" stroke="#63b8ff" d="M296.13,-196.15C282.56,-202.25 268.63,-209.85 257,-219 236.32,-235.27 243.2,-251.88 221,-266 215.58,-269.45 209.74,-272.4 203.67,-274.94"/>
<polygon fill="#63b8ff" stroke="#63b8ff" points="297.62,-199.32 305.43,-192.16 294.86,-192.88 297.62,-199.32"/>
</a>
</g>
</g>
<!-- Node7 -->
<g id="Node000007" class="node">
<title>Node7</title>
<g id="a_Node000007"><a xlink:href="classcom_1_1teragrep_1_1pth__06_1_1ast_1_1transform_1_1WithDefaultValuesTest.html#ab174088e0621303a1257586f63107e8b" target="_top" xlink:title=" ">
<polygon fill="white" stroke="#666666" points="216.5,-256.5 4.5,-256.5 4.5,-215.5 216.5,-215.5 216.5,-256.5"/>
<text text-anchor="start" x="12.5" y="-244.5" font-family="Helvetica,sans-Serif" font-size="10.00">com.teragrep.pth_06.ast.transform.</text>
<text text-anchor="start" x="12.5" y="-233.5" font-family="Helvetica,sans-Serif" font-size="10.00">WithDefaultValuesTest.testDefaultIndex</text>
<text text-anchor="middle" x="110.5" y="-222.5" font-family="Helvetica,sans-Serif" font-size="10.00">Expression</text>
</a>
</g>
</g>
<!-- Node4&#45;&gt;Node7 -->
<g id="edge8_Node000004_Node000007" class="edge">
<title>Node4&#45;&gt;Node7</title>
<g id="a_edge8_Node000004_Node000007"><a xlink:title=" ">
<path fill="none" stroke="#63b8ff" d="M280.63,-194.51C253.86,-201.08 223.19,-208.6 195.38,-215.42"/>
<polygon fill="#63b8ff" stroke="#63b8ff" points="281.81,-197.82 290.69,-192.04 280.14,-191.02 281.81,-197.82"/>
</a>
</g>
</g>
<!-- Node8 -->
<g id="Node000008" class="node">
<title>Node8</title>
<g id="a_Node000008"><a xlink:href="classcom_1_1teragrep_1_1pth__06_1_1ast_1_1transform_1_1WithDefaultValuesTest.html#acb45ad457a3b9de406a5227c5f544a6f" target="_top" xlink:title=" ">
<polygon fill="white" stroke="#666666" points="212,-197.5 9,-197.5 9,-156.5 212,-156.5 212,-197.5"/>
<text text-anchor="start" x="17" y="-185.5" font-family="Helvetica,sans-Serif" font-size="10.00">com.teragrep.pth_06.ast.transform.</text>
<text text-anchor="start" x="17" y="-174.5" font-family="Helvetica,sans-Serif" font-size="10.00">WithDefaultValuesTest.testDefaultsDo</text>
<text text-anchor="middle" x="110.5" y="-163.5" font-family="Helvetica,sans-Serif" font-size="10.00">NotOverwriteExisting</text>
</a>
</g>
</g>
<!-- Node4&#45;&gt;Node8 -->
<g id="edge9_Node000004_Node000008" class="edge">
<title>Node4&#45;&gt;Node8</title>
<g id="a_edge9_Node000004_Node000008"><a xlink:title=" ">
<path fill="none" stroke="#63b8ff" d="M247.7,-177C235.92,-177 223.94,-177 212.2,-177"/>
<polygon fill="#63b8ff" stroke="#63b8ff" points="247.98,-180.5 257.98,-177 247.98,-173.5 247.98,-180.5"/>
</a>
</g>
</g>
<!-- Node9 -->
<g id="Node000009" class="node">
<title>Node9</title>
<g id="a_Node000009"><a xlink:href="classcom_1_1teragrep_1_1pth__06_1_1ast_1_1transform_1_1WithDefaultValuesTest.html#a820fe25e5b150406466c6ab722ee3916" target="_top" xlink:title=" ">
<polygon fill="white" stroke="#666666" points="205.5,-138 15.5,-138 15.5,-108 205.5,-108 205.5,-138"/>
<text text-anchor="start" x="23.5" y="-126" font-family="Helvetica,sans-Serif" font-size="10.00">com.teragrep.pth_06.ast.transform.</text>
<text text-anchor="middle" x="110.5" y="-115" font-family="Helvetica,sans-Serif" font-size="10.00">WithDefaultValuesTest.testLatest</text>
</a>
</g>
</g>
<!-- Node4&#45;&gt;Node9 -->
<g id="edge10_Node000004_Node000009" class="edge">
<title>Node4&#45;&gt;Node9</title>
<g id="a_edge10_Node000004_Node000009"><a xlink:title=" ">
<path fill="none" stroke="#63b8ff" d="M275.09,-159.73C244.04,-152.76 208.53,-144.79 178.55,-138.05"/>
<polygon fill="#63b8ff" stroke="#63b8ff" points="274.48,-163.18 285.01,-161.96 276.02,-156.35 274.48,-163.18"/>
</a>
</g>
</g>
<!-- Node10 -->
<g id="Node000010" class="node">
<title>Node10</title>
<g id="a_Node000010"><a xlink:href="classcom_1_1teragrep_1_1pth__06_1_1ast_1_1transform_1_1WithDefaultValuesTest.html#a4dced6e16be7521206c7dabadc0b977a" target="_top" xlink:title=" ">
<polygon fill="white" stroke="#666666" points="217,-89.5 4,-89.5 4,-48.5 217,-48.5 217,-89.5"/>
<text text-anchor="start" x="12" y="-77.5" font-family="Helvetica,sans-Serif" font-size="10.00">com.teragrep.pth_06.ast.transform.</text>
<text text-anchor="start" x="12" y="-66.5" font-family="Helvetica,sans-Serif" font-size="10.00">WithDefaultValuesTest.testOrExpression</text>
<text text-anchor="middle" x="110.5" y="-55.5" font-family="Helvetica,sans-Serif" font-size="10.00">Children</text>
</a>
</g>
</g>
<!-- Node4&#45;&gt;Node10 -->
<g id="edge11_Node000004_Node000010" class="edge">
<title>Node4&#45;&gt;Node10</title>
<g id="a_edge11_Node000004_Node000010"><a xlink:title=" ">
<path fill="none" stroke="#63b8ff" d="M322.16,-156.05C296.38,-138.74 257.6,-114.57 221,-99 212.93,-95.57 204.35,-92.42 195.7,-89.56"/>
<polygon fill="#63b8ff" stroke="#63b8ff" points="320.47,-159.13 330.71,-161.86 324.4,-153.34 320.47,-159.13"/>
</a>
</g>
</g>
<!-- Node11 -->
<g id="Node000011" class="node">
<title>Node11</title>
<g id="a_Node000011"><a xlink:href="classcom_1_1teragrep_1_1pth__06_1_1ast_1_1transform_1_1WithDefaultValues.html#a2d35e1274d6d71f04699951bbee270e2" target="_top" xlink:title=" ">
<polygon fill="white" stroke="#666666" points="205.5,-30 15.5,-30 15.5,0 205.5,0 205.5,-30"/>
<text text-anchor="start" x="23.5" y="-18" font-family="Helvetica,sans-Serif" font-size="10.00">com.teragrep.pth_06.ast.transform.</text>
<text text-anchor="middle" x="110.5" y="-7" font-family="Helvetica,sans-Serif" font-size="10.00">WithDefaultValues.toString</text>
</a>
</g>
</g>
<!-- Node4&#45;&gt;Node11 -->
<g id="edge12_Node000004_Node000011" class="edge">
<title>Node4&#45;&gt;Node11</title>
<g id="a_edge12_Node000004_Node000011"><a xlink:title=" ">
<path fill="none" stroke="#63b8ff" d="M336.25,-153.42C314.24,-122.41 271.28,-68.53 221,-40 214.13,-36.1 206.7,-32.81 199.04,-30.04"/>
<polygon fill="#63b8ff" stroke="#63b8ff" points="333.56,-155.68 342.14,-161.89 339.3,-151.68 333.56,-155.68"/>
</a>
</g>
</g>
</g>
</svg>
