<?xml version="1.0" encoding="UTF-8" standalone="no"?>
<!DOCTYPE svg PUBLIC "-//W3C//DTD SVG 1.1//EN"
 "http://www.w3.org/Graphics/SVG/1.1/DTD/svg11.dtd">
<!-- Generated by graphviz version 2.43.0 (0)
 -->
<!-- Title: com.teragrep.pth_06.planner.HBaseQueryImpl Pages: 1 -->
<svg width="645pt" height="220pt"
 viewBox="0.00 0.00 645.00 220.00" xmlns="http://www.w3.org/2000/svg" xmlns:xlink="http://www.w3.org/1999/xlink">
<g id="graph0" class="graph" transform="scale(1 1) rotate(0) translate(4 216)">
<title>com.teragrep.pth_06.planner.HBaseQueryImpl</title>
<!-- Node1 -->
<g id="Node000001" class="node">
<title>Node1</title>
<g id="a_Node000001"><a xlink:title="Responsible for splitting results from scanPlanCollection into batches.">
<polygon fill="#999999" stroke="#666666" points="637,-116 477,-116 477,-86 637,-86 637,-116"/>
<text text-anchor="start" x="485" y="-104" font-family="Helvetica,sans-Serif" font-size="10.00">com.teragrep.pth_06.planner.</text>
<text text-anchor="middle" x="557" y="-93" font-family="Helvetica,sans-Serif" font-size="10.00">HBaseQueryImpl</text>
</a>
</g>
</g>
<!-- Node2 -->
<g id="Node000002" class="node">
<title>Node2</title>
<g id="a_Node000002"><a xlink:href="interfacecom_1_1teragrep_1_1pth__06_1_1planner_1_1HBaseQuery.html" target="_top" xlink:title=" ">
<polygon fill="white" stroke="#666666" points="367,-116 207,-116 207,-86 367,-86 367,-116"/>
<text text-anchor="start" x="215" y="-104" font-family="Helvetica,sans-Serif" font-size="10.00">com.teragrep.pth_06.planner.</text>
<text text-anchor="middle" x="287" y="-93" font-family="Helvetica,sans-Serif" font-size="10.00">HBaseQuery</text>
</a>
</g>
</g>
<!-- Node2&#45;&gt;Node1 -->
<g id="edge1_Node000001_Node000002" class="edge">
<title>Node2&#45;&gt;Node1</title>
<g id="a_edge1_Node000001_Node000002"><a xlink:title=" ">
<path fill="none" stroke="#63b8ff" d="M377.61,-101C409.74,-101 445.71,-101 476.88,-101"/>
<polygon fill="#63b8ff" stroke="#63b8ff" points="377.32,-97.5 367.32,-101 377.32,-104.5 377.32,-97.5"/>
</a>
</g>
</g>
<!-- Node3 -->
<g id="Node000003" class="node">
<title>Node3</title>
<g id="a_Node000003"><a xlink:href="interfacecom_1_1teragrep_1_1pth__06_1_1Stubbable.html" target="_top" xlink:title=" ">
<polygon fill="white" stroke="#666666" points="170,-167.5 0,-167.5 0,-148.5 170,-148.5 170,-167.5"/>
<text text-anchor="middle" x="85" y="-155.5" font-family="Helvetica,sans-Serif" font-size="10.00">com.teragrep.pth_06.Stubbable</text>
</a>
</g>
</g>
<!-- Node3&#45;&gt;Node2 -->
<g id="edge2_Node000002_Node000003" class="edge">
<title>Node3&#45;&gt;Node2</title>
<g id="a_edge2_Node000002_Node000003"><a xlink:title=" ">
<path fill="none" stroke="#63b8ff" d="M129.38,-145.64C159.87,-136.95 200.82,-125.28 233.2,-116.05"/>
<polygon fill="#63b8ff" stroke="#63b8ff" points="128.13,-142.35 119.48,-148.46 130.05,-149.08 128.13,-142.35"/>
</a>
</g>
</g>
<!-- Node7 -->
<g id="Node000007" class="node">
<title>Node7</title>
<g id="a_Node000007"><a xlink:href="interfacecom_1_1teragrep_1_1pth__06_1_1planner_1_1LimitedResults.html" target="_top" xlink:title=" ">
<polygon fill="white" stroke="#666666" points="367,-212 207,-212 207,-182 367,-182 367,-212"/>
<text text-anchor="start" x="215" y="-200" font-family="Helvetica,sans-Serif" font-size="10.00">com.teragrep.pth_06.planner.</text>
<text text-anchor="middle" x="287" y="-189" font-family="Helvetica,sans-Serif" font-size="10.00">LimitedResults</text>
</a>
</g>
</g>
<!-- Node3&#45;&gt;Node7 -->
<g id="edge8_Node000007_Node000003" class="edge">
<title>Node3&#45;&gt;Node7</title>
<g id="a_edge8_Node000007_Node000003"><a xlink:title=" ">
<path fill="none" stroke="#63b8ff" d="M144.82,-169.47C164.83,-173.37 187.51,-177.79 208.75,-181.94"/>
<polygon fill="#63b8ff" stroke="#63b8ff" points="145.41,-166.02 134.93,-167.54 144.07,-172.89 145.41,-166.02"/>
</a>
</g>
</g>
<!-- Node8 -->
<g id="Node000008" class="node">
<title>Node8</title>
<g id="a_Node000008"><a xlink:href="interfacecom_1_1teragrep_1_1pth__06_1_1planner_1_1HourlySlices.html" target="_top" xlink:title=" ">
<polygon fill="white" stroke="#666666" points="367,-164 207,-164 207,-134 367,-134 367,-164"/>
<text text-anchor="start" x="215" y="-152" font-family="Helvetica,sans-Serif" font-size="10.00">com.teragrep.pth_06.planner.</text>
<text text-anchor="middle" x="287" y="-141" font-family="Helvetica,sans-Serif" font-size="10.00">HourlySlices</text>
</a>
</g>
</g>
<!-- Node3&#45;&gt;Node8 -->
<g id="edge10_Node000008_Node000003" class="edge">
<title>Node3&#45;&gt;Node8</title>
<g id="a_edge10_Node000008_Node000003"><a xlink:title=" ">
<path fill="none" stroke="#63b8ff" d="M180.28,-153.76C189.21,-153.36 198.2,-152.95 206.96,-152.56"/>
<polygon fill="#63b8ff" stroke="#63b8ff" points="180.07,-150.26 170.24,-154.21 180.39,-157.26 180.07,-150.26"/>
</a>
</g>
</g>
<!-- Node4 -->
<g id="Node000004" class="node">
<title>Node4</title>
<g id="a_Node000004"><a xlink:title=" ">
<polygon fill="white" stroke="#666666" points="128.5,-117.5 41.5,-117.5 41.5,-98.5 128.5,-98.5 128.5,-117.5"/>
<text text-anchor="middle" x="85" y="-105.5" font-family="Helvetica,sans-Serif" font-size="10.00">AutoCloseable</text>
</a>
</g>
</g>
<!-- Node4&#45;&gt;Node2 -->
<g id="edge3_Node000002_Node000004" class="edge">
<title>Node4&#45;&gt;Node2</title>
<g id="a_edge3_Node000002_Node000004"><a xlink:title=" ">
<path fill="none" stroke="#63b8ff" d="M139.11,-106.14C159.87,-105.41 184.12,-104.57 206.86,-103.77"/>
<polygon fill="#63b8ff" stroke="#63b8ff" points="138.78,-102.65 128.91,-106.5 139.02,-109.65 138.78,-102.65"/>
</a>
</g>
</g>
<!-- Node5 -->
<g id="Node000005" class="node">
<title>Node5</title>
<g id="a_Node000005"><a xlink:href="interfacecom_1_1teragrep_1_1pth__06_1_1planner_1_1QueryMetrics.html" target="_top" xlink:title=" ">
<polygon fill="white" stroke="#666666" points="165,-77 5,-77 5,-47 165,-47 165,-77"/>
<text text-anchor="start" x="13" y="-65" font-family="Helvetica,sans-Serif" font-size="10.00">com.teragrep.pth_06.planner.</text>
<text text-anchor="middle" x="85" y="-54" font-family="Helvetica,sans-Serif" font-size="10.00">QueryMetrics</text>
</a>
</g>
</g>
<!-- Node5&#45;&gt;Node1 -->
<g id="edge5_Node000001_Node000005" class="edge">
<title>Node5&#45;&gt;Node1</title>
<g id="a_edge5_Node000001_Node000005"><a xlink:title=" ">
<path fill="none" stroke="#63b8ff" d="M175.26,-65.1C230.55,-67.43 302.99,-71.23 367,-77 403.07,-80.25 442.86,-85.11 476.59,-89.61"/>
<polygon fill="#63b8ff" stroke="#63b8ff" points="175.28,-61.6 165.14,-64.68 174.99,-68.59 175.28,-61.6"/>
</a>
</g>
</g>
<!-- Node5&#45;&gt;Node2 -->
<g id="edge4_Node000002_Node000005" class="edge">
<title>Node5&#45;&gt;Node2</title>
<g id="a_edge4_Node000002_Node000005"><a xlink:title=" ">
<path fill="none" stroke="#63b8ff" d="M173.02,-78.97C185,-81.3 197.22,-83.69 209,-85.99"/>
<polygon fill="#63b8ff" stroke="#63b8ff" points="173.52,-75.5 163.04,-77.02 172.18,-82.37 173.52,-75.5"/>
</a>
</g>
</g>
<!-- Node6 -->
<g id="Node000006" class="node">
<title>Node6</title>
<g id="a_Node000006"><a xlink:href="classcom_1_1teragrep_1_1pth__06_1_1planner_1_1LogfileTable.html" target="_top" xlink:title="Provides access to hbase logfile table.">
<polygon fill="white" stroke="#666666" points="367,-30 207,-30 207,0 367,0 367,-30"/>
<text text-anchor="start" x="215" y="-18" font-family="Helvetica,sans-Serif" font-size="10.00">com.teragrep.pth_06.planner.</text>
<text text-anchor="middle" x="287" y="-7" font-family="Helvetica,sans-Serif" font-size="10.00">LogfileTable</text>
</a>
</g>
</g>
<!-- Node6&#45;&gt;Node1 -->
<g id="edge6_Node000001_Node000006" class="edge">
<title>Node6&#45;&gt;Node1</title>
<g id="a_edge6_Node000001_Node000006"><a xlink:title=" ">
<path fill="none" stroke="#9a32cd" stroke-dasharray="5,2" d="M377.54,-15.9C404.39,-18.41 433.47,-23.44 459,-33 490.78,-44.9 521.89,-69.71 539.99,-85.84"/>
<polygon fill="#9a32cd" stroke="#9a32cd" points="377.63,-12.39 367.37,-15.05 377.05,-19.37 377.63,-12.39"/>
</a>
</g>
<text text-anchor="middle" x="422" y="-36" font-family="Helvetica,sans-Serif" font-size="10.00" fill="grey"> table</text>
</g>
<!-- Node7&#45;&gt;Node1 -->
<g id="edge7_Node000001_Node000007" class="edge">
<title>Node7&#45;&gt;Node1</title>
<g id="a_edge7_Node000001_Node000007"><a xlink:title=" ">
<path fill="none" stroke="#9a32cd" stroke-dasharray="5,2" d="M347.38,-178.97C354,-176.95 360.64,-174.93 367,-173 407.89,-160.57 419.01,-160.08 459,-145 481.67,-136.45 506.53,-125.13 525.42,-116.11"/>
<polygon fill="#9a32cd" stroke="#9a32cd" points="346.28,-175.64 337.73,-181.9 348.31,-182.34 346.28,-175.64"/>
</a>
</g>
<text text-anchor="middle" x="422" y="-170" font-family="Helvetica,sans-Serif" font-size="10.00" fill="grey"> limitedResults</text>
</g>
<!-- Node8&#45;&gt;Node1 -->
<g id="edge9_Node000001_Node000008" class="edge">
<title>Node8&#45;&gt;Node1</title>
<g id="a_edge9_Node000001_Node000008"><a xlink:title=" ">
<path fill="none" stroke="#9a32cd" stroke-dasharray="5,2" d="M377.19,-133.03C409.43,-127.25 445.57,-120.78 476.88,-115.17"/>
<polygon fill="#9a32cd" stroke="#9a32cd" points="376.55,-129.58 367.32,-134.79 377.78,-136.48 376.55,-129.58"/>
</a>
</g>
<text text-anchor="middle" x="422" y="-133" font-family="Helvetica,sans-Serif" font-size="10.00" fill="grey"> hourlySlices</text>
</g>
</g>
</svg>
