<?xml version="1.0" encoding="UTF-8" standalone="no"?>
<!DOCTYPE svg PUBLIC "-//W3C//DTD SVG 1.1//EN"
 "http://www.w3.org/Graphics/SVG/1.1/DTD/svg11.dtd">
<!-- Generated by graphviz version 2.43.0 (0)
 -->
<!-- Title: com.teragrep.pth_06.ast.PrintASTTest.printSingleValue Pages: 1 -->
<svg width="700pt" height="182pt"
 viewBox="0.00 0.00 700.00 182.00" xmlns="http://www.w3.org/2000/svg" xmlns:xlink="http://www.w3.org/1999/xlink">
<g id="graph0" class="graph" transform="scale(1 1) rotate(0) translate(4 178)">
<title>com.teragrep.pth_06.ast.PrintASTTest.printSingleValue</title>
<!-- Node1 -->
<g id="Node000001" class="node">
<title>Node1</title>
<g id="a_Node000001"><a xlink:title=" ">
<polygon fill="#999999" stroke="#666666" points="160,-102 0,-102 0,-72 160,-72 160,-102"/>
<text text-anchor="start" x="8" y="-90" font-family="Helvetica,sans-Serif" font-size="10.00">com.teragrep.pth_06.ast.</text>
<text text-anchor="middle" x="80" y="-79" font-family="Helvetica,sans-Serif" font-size="10.00">PrintASTTest.printSingleValue</text>
</a>
</g>
</g>
<!-- Node2 -->
<g id="Node000002" class="node">
<title>Node2</title>
<g id="a_Node000002"><a xlink:href="classcom_1_1teragrep_1_1pth__06_1_1ast_1_1PrintAST.html#acc3f4d80cb05a02753130a95b65cd32d" target="_top" xlink:title=" ">
<polygon fill="white" stroke="#666666" points="335,-102 196,-102 196,-72 335,-72 335,-102"/>
<text text-anchor="start" x="204" y="-90" font-family="Helvetica,sans-Serif" font-size="10.00">com.teragrep.pth_06.ast.</text>
<text text-anchor="middle" x="265.5" y="-79" font-family="Helvetica,sans-Serif" font-size="10.00">PrintAST.asString</text>
</a>
</g>
</g>
<!-- Node1&#45;&gt;Node2 -->
<g id="edge1_Node000001_Node000002" class="edge">
<title>Node1&#45;&gt;Node2</title>
<g id="a_edge1_Node000001_Node000002"><a xlink:title=" ">
<path fill="none" stroke="#63b8ff" d="M160.15,-87C168.63,-87 177.26,-87 185.74,-87"/>
<polygon fill="#63b8ff" stroke="#63b8ff" points="185.99,-90.5 195.99,-87 185.99,-83.5 185.99,-90.5"/>
</a>
</g>
</g>
<!-- Node3 -->
<g id="Node000003" class="node">
<title>Node3</title>
<g id="a_Node000003"><a xlink:href="classcom_1_1teragrep_1_1pth__06_1_1ast_1_1PrintAST.html#ab5fd085ad34f3b92b49c29a239d12de7" target="_top" xlink:title=" ">
<polygon fill="white" stroke="#666666" points="510,-102 371,-102 371,-72 510,-72 510,-102"/>
<text text-anchor="start" x="379" y="-90" font-family="Helvetica,sans-Serif" font-size="10.00">com.teragrep.pth_06.ast.</text>
<text text-anchor="middle" x="440.5" y="-79" font-family="Helvetica,sans-Serif" font-size="10.00">PrintAST.printWithIndent</text>
</a>
</g>
</g>
<!-- Node2&#45;&gt;Node3 -->
<g id="edge2_Node000002_Node000003" class="edge">
<title>Node2&#45;&gt;Node3</title>
<g id="a_edge2_Node000002_Node000003"><a xlink:title=" ">
<path fill="none" stroke="#63b8ff" d="M335.37,-87C343.68,-87 352.21,-87 360.65,-87"/>
<polygon fill="#63b8ff" stroke="#63b8ff" points="360.87,-90.5 370.87,-87 360.87,-83.5 360.87,-90.5"/>
</a>
</g>
</g>
<!-- Node3&#45;&gt;Node3 -->
<g id="edge6_Node000003_Node000003" class="edge">
<title>Node3&#45;&gt;Node3</title>
<g id="a_edge6_Node000003_Node000003"><a xlink:title=" ">
<path fill="none" stroke="#63b8ff" d="M409.91,-102.28C403.12,-111.41 413.31,-120 440.5,-120 456.64,-120 466.79,-116.97 470.96,-112.6"/>
<polygon fill="#63b8ff" stroke="#63b8ff" points="474.46,-112.32 471.09,-102.28 467.46,-112.23 474.46,-112.32"/>
</a>
</g>
</g>
<!-- Node4 -->
<g id="Node000004" class="node">
<title>Node4</title>
<g id="a_Node000004"><a xlink:href="interfacecom_1_1teragrep_1_1pth__06_1_1ast_1_1Expression.html#a17e7d33905be57c6e22e1717da6ddef6" target="_top" xlink:title=" ">
<polygon fill="white" stroke="#666666" points="688.5,-174 549.5,-174 549.5,-144 688.5,-144 688.5,-174"/>
<text text-anchor="start" x="557.5" y="-162" font-family="Helvetica,sans-Serif" font-size="10.00">com.teragrep.pth_06.ast.</text>
<text text-anchor="middle" x="619" y="-151" font-family="Helvetica,sans-Serif" font-size="10.00">Expression.asLogical</text>
</a>
</g>
</g>
<!-- Node3&#45;&gt;Node4 -->
<g id="edge3_Node000003_Node000004" class="edge">
<title>Node3&#45;&gt;Node4</title>
<g id="a_edge3_Node000003_Node000004"><a xlink:title=" ">
<path fill="none" stroke="#63b8ff" d="M472.21,-102.18C492.83,-112.1 520.75,-125.03 546,-135 550.78,-136.89 555.77,-138.76 560.81,-140.57"/>
<polygon fill="#63b8ff" stroke="#63b8ff" points="559.89,-143.96 570.49,-143.98 562.21,-137.36 559.89,-143.96"/>
</a>
</g>
</g>
<!-- Node5 -->
<g id="Node000005" class="node">
<title>Node5</title>
<g id="a_Node000005"><a xlink:href="interfacecom_1_1teragrep_1_1pth__06_1_1ast_1_1LogicalExpression.html#aeaf8fe296c6899792f345659a9a6c0c4" target="_top" xlink:title=" ">
<polygon fill="white" stroke="#666666" points="692,-126 546,-126 546,-96 692,-96 692,-126"/>
<text text-anchor="start" x="554" y="-114" font-family="Helvetica,sans-Serif" font-size="10.00">com.teragrep.pth_06.ast.</text>
<text text-anchor="middle" x="619" y="-103" font-family="Helvetica,sans-Serif" font-size="10.00">LogicalExpression.children</text>
</a>
</g>
</g>
<!-- Node3&#45;&gt;Node5 -->
<g id="edge4_Node000003_Node000005" class="edge">
<title>Node3&#45;&gt;Node5</title>
<g id="a_edge4_Node000003_Node000005"><a xlink:title=" ">
<path fill="none" stroke="#63b8ff" d="M510.24,-96.35C518.66,-97.49 527.33,-98.67 535.92,-99.84"/>
<polygon fill="#63b8ff" stroke="#63b8ff" points="535.57,-103.32 545.95,-101.2 536.51,-96.39 535.57,-103.32"/>
</a>
</g>
</g>
<!-- Node6 -->
<g id="Node000006" class="node">
<title>Node6</title>
<g id="a_Node000006"><a xlink:href="interfacecom_1_1teragrep_1_1pth__06_1_1ast_1_1Expression.html#a65ee7f5fb98e4129018f467a53586842" target="_top" xlink:title=" ">
<polygon fill="white" stroke="#666666" points="688.5,-78 549.5,-78 549.5,-48 688.5,-48 688.5,-78"/>
<text text-anchor="start" x="557.5" y="-66" font-family="Helvetica,sans-Serif" font-size="10.00">com.teragrep.pth_06.ast.</text>
<text text-anchor="middle" x="619" y="-55" font-family="Helvetica,sans-Serif" font-size="10.00">Expression.isLogical</text>
</a>
</g>
</g>
<!-- Node3&#45;&gt;Node6 -->
<g id="edge5_Node000003_Node000006" class="edge">
<title>Node3&#45;&gt;Node6</title>
<g id="a_edge5_Node000003_Node000006"><a xlink:title=" ">
<path fill="none" stroke="#63b8ff" d="M510.24,-77.65C519.8,-76.35 529.68,-75.01 539.39,-73.69"/>
<polygon fill="#63b8ff" stroke="#63b8ff" points="540.01,-77.14 549.44,-72.32 539.06,-70.2 540.01,-77.14"/>
</a>
</g>
</g>
<!-- Node7 -->
<g id="Node000007" class="node">
<title>Node7</title>
<g id="a_Node000007"><a xlink:href="interfacecom_1_1teragrep_1_1pth__06_1_1ast_1_1Expression.html#a8b9661253a3610b9eb148ee29ca8b7e1" target="_top" xlink:title=" ">
<polygon fill="white" stroke="#666666" points="688.5,-30 549.5,-30 549.5,0 688.5,0 688.5,-30"/>
<text text-anchor="start" x="557.5" y="-18" font-family="Helvetica,sans-Serif" font-size="10.00">com.teragrep.pth_06.ast.</text>
<text text-anchor="middle" x="619" y="-7" font-family="Helvetica,sans-Serif" font-size="10.00">Expression.tag</text>
</a>
</g>
</g>
<!-- Node3&#45;&gt;Node7 -->
<g id="edge7_Node000003_Node000007" class="edge">
<title>Node3&#45;&gt;Node7</title>
<g id="a_edge7_Node000003_Node000007"><a xlink:title=" ">
<path fill="none" stroke="#63b8ff" d="M472.21,-71.82C492.83,-61.9 520.75,-48.97 546,-39 550.78,-37.11 555.77,-35.24 560.81,-33.43"/>
<polygon fill="#63b8ff" stroke="#63b8ff" points="562.21,-36.64 570.49,-30.02 559.89,-30.04 562.21,-36.64"/>
</a>
</g>
</g>
</g>
</svg>
