<?xml version="1.0" encoding="UTF-8" standalone="no"?>
<!DOCTYPE svg PUBLIC "-//W3C//DTD SVG 1.1//EN"
 "http://www.w3.org/Graphics/SVG/1.1/DTD/svg11.dtd">
<!-- Generated by graphviz version 2.43.0 (0)
 -->
<!-- Title: com.teragrep.pth_06.ast.transform.UniqueChildrenTest.testListOfValues Pages: 1 -->
<svg width="610pt" height="182pt"
 viewBox="0.00 0.00 610.00 182.00" xmlns="http://www.w3.org/2000/svg" xmlns:xlink="http://www.w3.org/1999/xlink">
<g id="graph0" class="graph" transform="scale(1 1) rotate(0) translate(4 178)">
<title>com.teragrep.pth_06.ast.transform.UniqueChildrenTest.testListOfValues</title>
<!-- Node1 -->
<g id="Node000001" class="node">
<title>Node1</title>
<g id="a_Node000001"><a xlink:title=" ">
<polygon fill="#999999" stroke="#666666" points="194,-102 0,-102 0,-72 194,-72 194,-102"/>
<text text-anchor="start" x="8" y="-90" font-family="Helvetica,sans-Serif" font-size="10.00">com.teragrep.pth_06.ast.transform.</text>
<text text-anchor="middle" x="97" y="-79" font-family="Helvetica,sans-Serif" font-size="10.00">UniqueChildrenTest.testListOfValues</text>
</a>
</g>
</g>
<!-- Node2 -->
<g id="Node000002" class="node">
<title>Node2</title>
<g id="a_Node000002"><a xlink:href="classcom_1_1teragrep_1_1pth__06_1_1ast_1_1transform_1_1UniqueChildren.html#a39304f06c8b7ac1e1a23463fe502028e" target="_top" xlink:title=" ">
<polygon fill="white" stroke="#666666" points="420,-102 230,-102 230,-72 420,-72 420,-102"/>
<text text-anchor="start" x="238" y="-90" font-family="Helvetica,sans-Serif" font-size="10.00">com.teragrep.pth_06.ast.transform.</text>
<text text-anchor="middle" x="325" y="-79" font-family="Helvetica,sans-Serif" font-size="10.00">UniqueChildren.transformed</text>
</a>
</g>
</g>
<!-- Node1&#45;&gt;Node2 -->
<g id="edge1_Node000001_Node000002" class="edge">
<title>Node1&#45;&gt;Node2</title>
<g id="a_edge1_Node000001_Node000002"><a xlink:title=" ">
<path fill="none" stroke="#63b8ff" d="M194.17,-87C202.54,-87 211.04,-87 219.47,-87"/>
<polygon fill="#63b8ff" stroke="#63b8ff" points="219.71,-90.5 229.71,-87 219.71,-83.5 219.71,-90.5"/>
</a>
</g>
</g>
<!-- Node3 -->
<g id="Node000003" class="node">
<title>Node3</title>
<g id="a_Node000003"><a xlink:href="interfacecom_1_1teragrep_1_1pth__06_1_1ast_1_1Expression.html#a17e7d33905be57c6e22e1717da6ddef6" target="_top" xlink:title=" ">
<polygon fill="white" stroke="#666666" points="598.5,-174 459.5,-174 459.5,-144 598.5,-144 598.5,-174"/>
<text text-anchor="start" x="467.5" y="-162" font-family="Helvetica,sans-Serif" font-size="10.00">com.teragrep.pth_06.ast.</text>
<text text-anchor="middle" x="529" y="-151" font-family="Helvetica,sans-Serif" font-size="10.00">Expression.asLogical</text>
</a>
</g>
</g>
<!-- Node2&#45;&gt;Node3 -->
<g id="edge2_Node000002_Node000003" class="edge">
<title>Node2&#45;&gt;Node3</title>
<g id="a_edge2_Node000002_Node000003"><a xlink:title=" ">
<path fill="none" stroke="#63b8ff" d="M365.71,-102.04C391.39,-111.67 425.58,-124.32 456,-135 461.42,-136.9 467.07,-138.85 472.73,-140.78"/>
<polygon fill="#63b8ff" stroke="#63b8ff" points="471.62,-144.1 482.22,-143.98 473.87,-137.47 471.62,-144.1"/>
</a>
</g>
</g>
<!-- Node4 -->
<g id="Node000004" class="node">
<title>Node4</title>
<g id="a_Node000004"><a xlink:href="interfacecom_1_1teragrep_1_1pth__06_1_1ast_1_1LogicalExpression.html#aeaf8fe296c6899792f345659a9a6c0c4" target="_top" xlink:title=" ">
<polygon fill="white" stroke="#666666" points="602,-126 456,-126 456,-96 602,-96 602,-126"/>
<text text-anchor="start" x="464" y="-114" font-family="Helvetica,sans-Serif" font-size="10.00">com.teragrep.pth_06.ast.</text>
<text text-anchor="middle" x="529" y="-103" font-family="Helvetica,sans-Serif" font-size="10.00">LogicalExpression.children</text>
</a>
</g>
</g>
<!-- Node2&#45;&gt;Node4 -->
<g id="edge3_Node000002_Node000004" class="edge">
<title>Node2&#45;&gt;Node4</title>
<g id="a_edge3_Node000002_Node000004"><a xlink:title=" ">
<path fill="none" stroke="#63b8ff" d="M420.2,-98.19C428.68,-99.2 437.23,-100.22 445.6,-101.21"/>
<polygon fill="#63b8ff" stroke="#63b8ff" points="445.36,-104.71 455.7,-102.41 446.19,-97.75 445.36,-104.71"/>
</a>
</g>
</g>
<!-- Node5 -->
<g id="Node000005" class="node">
<title>Node5</title>
<g id="a_Node000005"><a xlink:href="interfacecom_1_1teragrep_1_1pth__06_1_1ast_1_1Expression.html#a65ee7f5fb98e4129018f467a53586842" target="_top" xlink:title=" ">
<polygon fill="white" stroke="#666666" points="598.5,-78 459.5,-78 459.5,-48 598.5,-48 598.5,-78"/>
<text text-anchor="start" x="467.5" y="-66" font-family="Helvetica,sans-Serif" font-size="10.00">com.teragrep.pth_06.ast.</text>
<text text-anchor="middle" x="529" y="-55" font-family="Helvetica,sans-Serif" font-size="10.00">Expression.isLogical</text>
</a>
</g>
</g>
<!-- Node2&#45;&gt;Node5 -->
<g id="edge4_Node000002_Node000005" class="edge">
<title>Node2&#45;&gt;Node5</title>
<g id="a_edge4_Node000002_Node000005"><a xlink:title=" ">
<path fill="none" stroke="#63b8ff" d="M420.2,-75.81C429.87,-74.66 439.62,-73.5 449.1,-72.37"/>
<polygon fill="#63b8ff" stroke="#63b8ff" points="449.74,-75.82 459.26,-71.17 448.92,-68.87 449.74,-75.82"/>
</a>
</g>
</g>
<!-- Node6 -->
<g id="Node000006" class="node">
<title>Node6</title>
<g id="a_Node000006"><a xlink:href="interfacecom_1_1teragrep_1_1pth__06_1_1ast_1_1Expression.html#a8b9661253a3610b9eb148ee29ca8b7e1" target="_top" xlink:title=" ">
<polygon fill="white" stroke="#666666" points="598.5,-30 459.5,-30 459.5,0 598.5,0 598.5,-30"/>
<text text-anchor="start" x="467.5" y="-18" font-family="Helvetica,sans-Serif" font-size="10.00">com.teragrep.pth_06.ast.</text>
<text text-anchor="middle" x="529" y="-7" font-family="Helvetica,sans-Serif" font-size="10.00">Expression.tag</text>
</a>
</g>
</g>
<!-- Node2&#45;&gt;Node6 -->
<g id="edge5_Node000002_Node000006" class="edge">
<title>Node2&#45;&gt;Node6</title>
<g id="a_edge5_Node000002_Node000006"><a xlink:title=" ">
<path fill="none" stroke="#63b8ff" d="M365.71,-71.96C391.39,-62.33 425.58,-49.68 456,-39 461.42,-37.1 467.07,-35.15 472.73,-33.22"/>
<polygon fill="#63b8ff" stroke="#63b8ff" points="473.87,-36.53 482.22,-30.02 471.62,-29.9 473.87,-36.53"/>
</a>
</g>
</g>
</g>
</svg>
