<?xml version="1.0" encoding="UTF-8" standalone="no"?>
<!DOCTYPE svg PUBLIC "-//W3C//DTD SVG 1.1//EN"
 "http://www.w3.org/Graphics/SVG/1.1/DTD/svg11.dtd">
<!-- Generated by graphviz version 2.43.0 (0)
 -->
<!-- Title: com.teragrep.pth_06.planner.BatchSizeLimit.add Pages: 1 -->
<svg width="386pt" height="98pt"
 viewBox="0.00 0.00 386.00 97.50" xmlns="http://www.w3.org/2000/svg" xmlns:xlink="http://www.w3.org/1999/xlink">
<g id="graph0" class="graph" transform="scale(1 1) rotate(0) translate(4 93.5)">
<title>com.teragrep.pth_06.planner.BatchSizeLimit.add</title>
<!-- Node1 -->
<g id="Node000001" class="node">
<title>Node1</title>
<g id="a_Node000001"><a xlink:title="Accumulate the given weight and count of objects.">
<polygon fill="#999999" stroke="#666666" points="378,-57 218,-57 218,-27 378,-27 378,-57"/>
<text text-anchor="start" x="226" y="-45" font-family="Helvetica,sans-Serif" font-size="10.00">com.teragrep.pth_06.planner.</text>
<text text-anchor="middle" x="298" y="-34" font-family="Helvetica,sans-Serif" font-size="10.00">BatchSizeLimit.add</text>
</a>
</g>
</g>
<!-- Node2 -->
<g id="Node000002" class="node">
<title>Node2</title>
<g id="a_Node000002"><a xlink:href="classcom_1_1teragrep_1_1pth__06_1_1planner_1_1ArchiveQueryProcessor.html#a646c09c6ba9331c48df86960f4fa8bcb" target="_top" xlink:title="Increments the latest offset value and returns that incremented offset.">
<polygon fill="white" stroke="#666666" points="182,-89.5 0,-89.5 0,-48.5 182,-48.5 182,-89.5"/>
<text text-anchor="start" x="8" y="-77.5" font-family="Helvetica,sans-Serif" font-size="10.00">com.teragrep.pth_06.planner.</text>
<text text-anchor="start" x="8" y="-66.5" font-family="Helvetica,sans-Serif" font-size="10.00">ArchiveQueryProcessor.increment</text>
<text text-anchor="middle" x="91" y="-55.5" font-family="Helvetica,sans-Serif" font-size="10.00">AndGetLatestOffset</text>
</a>
</g>
</g>
<!-- Node1&#45;&gt;Node2 -->
<g id="edge1_Node000001_Node000002" class="edge">
<title>Node1&#45;&gt;Node2</title>
<g id="a_edge1_Node000001_Node000002"><a xlink:title=" ">
<path fill="none" stroke="#63b8ff" d="M207.59,-53.78C199.2,-54.88 190.7,-56 182.31,-57.11"/>
<polygon fill="#63b8ff" stroke="#63b8ff" points="208.28,-57.21 217.74,-52.44 207.37,-50.27 208.28,-57.21"/>
</a>
</g>
</g>
<!-- Node3 -->
<g id="Node000003" class="node">
<title>Node3</title>
<g id="a_Node000003"><a xlink:href="classcom_1_1teragrep_1_1pth__06_1_1planner_1_1BatchSizeLimitedResults.html#ae00e5b05a1d9b84bd282a2ba0ae4fa4f" target="_top" xlink:title=" ">
<polygon fill="white" stroke="#666666" points="177.5,-30 4.5,-30 4.5,0 177.5,0 177.5,-30"/>
<text text-anchor="start" x="12.5" y="-18" font-family="Helvetica,sans-Serif" font-size="10.00">com.teragrep.pth_06.planner.</text>
<text text-anchor="middle" x="91" y="-7" font-family="Helvetica,sans-Serif" font-size="10.00">BatchSizeLimitedResults.results</text>
</a>
</g>
</g>
<!-- Node1&#45;&gt;Node3 -->
<g id="edge2_Node000001_Node000003" class="edge">
<title>Node1&#45;&gt;Node3</title>
<g id="a_edge2_Node000001_Node000003"><a xlink:title=" ">
<path fill="none" stroke="#63b8ff" d="M207.77,-30.25C197.72,-28.92 187.5,-27.58 177.51,-26.26"/>
<polygon fill="#63b8ff" stroke="#63b8ff" points="207.37,-33.73 217.74,-31.56 208.28,-26.79 207.37,-33.73"/>
</a>
</g>
</g>
</g>
</svg>
