<?xml version="1.0" encoding="UTF-8" standalone="no"?>
<!DOCTYPE svg PUBLIC "-//W3C//DTD SVG 1.1//EN"
 "http://www.w3.org/Graphics/SVG/1.1/DTD/svg11.dtd">
<!-- Generated by graphviz version 2.43.0 (0)
 -->
<!-- Title: com.teragrep.pth_06.ArchiveMicroStreamReader.currentDatabaseMetrics Pages: 1 -->
<svg width="411pt" height="86pt"
 viewBox="0.00 0.00 411.00 86.00" xmlns="http://www.w3.org/2000/svg" xmlns:xlink="http://www.w3.org/1999/xlink">
<g id="graph0" class="graph" transform="scale(1 1) rotate(0) translate(4 82)">
<title>com.teragrep.pth_06.ArchiveMicroStreamReader.currentDatabaseMetrics</title>
<!-- Node1 -->
<g id="Node000001" class="node">
<title>Node1</title>
<g id="a_Node000001"><a xlink:title=" ">
<polygon fill="#999999" stroke="#666666" points="197,-59.5 0,-59.5 0,-18.5 197,-18.5 197,-59.5"/>
<text text-anchor="start" x="8" y="-47.5" font-family="Helvetica,sans-Serif" font-size="10.00">com.teragrep.pth_06.Archive</text>
<text text-anchor="start" x="8" y="-36.5" font-family="Helvetica,sans-Serif" font-size="10.00">MicroStreamReader.currentDatabase</text>
<text text-anchor="middle" x="98.5" y="-25.5" font-family="Helvetica,sans-Serif" font-size="10.00">Metrics</text>
</a>
</g>
</g>
<!-- Node2 -->
<g id="Node000002" class="node">
<title>Node2</title>
<g id="a_Node000002"><a xlink:href="classcom_1_1teragrep_1_1pth__06_1_1ArchiveMicroStreamReader.html#a755d5e92276f9154edcea0fec4f59dec" target="_top" xlink:title=" ">
<polygon fill="white" stroke="#666666" points="403,-78 233,-78 233,-48 403,-48 403,-78"/>
<text text-anchor="start" x="241" y="-66" font-family="Helvetica,sans-Serif" font-size="10.00">com.teragrep.pth_06.Archive</text>
<text text-anchor="middle" x="318" y="-55" font-family="Helvetica,sans-Serif" font-size="10.00">MicroStreamReader.useArchive</text>
</a>
</g>
</g>
<!-- Node1&#45;&gt;Node2 -->
<g id="edge1_Node000001_Node000002" class="edge">
<title>Node1&#45;&gt;Node2</title>
<g id="a_edge1_Node000001_Node000002"><a xlink:title=" ">
<path fill="none" stroke="#63b8ff" d="M197.12,-49.77C205.72,-50.72 214.42,-51.68 222.99,-52.63"/>
<polygon fill="#63b8ff" stroke="#63b8ff" points="222.66,-56.11 232.99,-53.73 223.43,-49.15 222.66,-56.11"/>
</a>
</g>
</g>
<!-- Node3 -->
<g id="Node000003" class="node">
<title>Node3</title>
<g id="a_Node000003"><a xlink:href="classcom_1_1teragrep_1_1pth__06_1_1ArchiveMicroStreamReader.html#a00eed7fba1d800a7745cccf4d729836d" target="_top" xlink:title=" ">
<polygon fill="white" stroke="#666666" points="400,-30 236,-30 236,0 400,0 400,-30"/>
<text text-anchor="start" x="244" y="-18" font-family="Helvetica,sans-Serif" font-size="10.00">com.teragrep.pth_06.Archive</text>
<text text-anchor="middle" x="318" y="-7" font-family="Helvetica,sans-Serif" font-size="10.00">MicroStreamReader.useHBase</text>
</a>
</g>
</g>
<!-- Node1&#45;&gt;Node3 -->
<g id="edge2_Node000001_Node000003" class="edge">
<title>Node1&#45;&gt;Node3</title>
<g id="a_edge2_Node000001_Node000003"><a xlink:title=" ">
<path fill="none" stroke="#63b8ff" d="M197.12,-28.23C206.65,-27.18 216.31,-26.11 225.78,-25.07"/>
<polygon fill="#63b8ff" stroke="#63b8ff" points="226.41,-28.52 235.97,-23.94 225.64,-21.56 226.41,-28.52"/>
</a>
</g>
</g>
</g>
</svg>
