<?xml version="1.0" encoding="UTF-8" standalone="no"?>
<!DOCTYPE svg PUBLIC "-//W3C//DTD SVG 1.1//EN"
 "http://www.w3.org/Graphics/SVG/1.1/DTD/svg11.dtd">
<!-- Generated by graphviz version 2.43.0 (0)
 -->
<!-- Title: com.teragrep.pth_06.ast.analyze.FilterGroup.filterList Pages: 1 -->
<svg width="705pt" height="290pt"
 viewBox="0.00 0.00 705.00 290.00" xmlns="http://www.w3.org/2000/svg" xmlns:xlink="http://www.w3.org/1999/xlink">
<g id="graph0" class="graph" transform="scale(1 1) rotate(0) translate(4 286)">
<title>com.teragrep.pth_06.ast.analyze.FilterGroup.filterList</title>
<!-- Node1 -->
<g id="Node000001" class="node">
<title>Node1</title>
<g id="a_Node000001"><a xlink:title=" ">
<polygon fill="#999999" stroke="#666666" points="697,-102 517,-102 517,-72 697,-72 697,-102"/>
<text text-anchor="start" x="525" y="-90" font-family="Helvetica,sans-Serif" font-size="10.00">com.teragrep.pth_06.ast.analyze.</text>
<text text-anchor="middle" x="607" y="-79" font-family="Helvetica,sans-Serif" font-size="10.00">FilterGroup.filterList</text>
</a>
</g>
</g>
<!-- Node1&#45;&gt;Node1 -->
<g id="edge1_Node000001_Node000001" class="edge">
<title>Node1&#45;&gt;Node1</title>
<g id="a_edge1_Node000001_Node000001"><a xlink:title=" ">
<path fill="none" stroke="#63b8ff" d="M647.26,-112.6C641.76,-116.97 628.34,-120 607,-120 571.06,-120 557.59,-111.41 566.57,-102.28"/>
<polygon fill="#63b8ff" stroke="#63b8ff" points="650.76,-112.33 647.43,-102.28 643.76,-112.22 650.76,-112.33"/>
</a>
</g>
</g>
<!-- Node2 -->
<g id="Node000002" class="node">
<title>Node2</title>
<g id="a_Node000002"><a xlink:href="classcom_1_1teragrep_1_1pth__06_1_1ast_1_1analyze_1_1PlannedScans.html#ad6dfe7529bfdfc03de991c95e194e0fe" target="_top" xlink:title=" ">
<polygon fill="white" stroke="#666666" points="466.5,-174 286.5,-174 286.5,-144 466.5,-144 466.5,-174"/>
<text text-anchor="start" x="294.5" y="-162" font-family="Helvetica,sans-Serif" font-size="10.00">com.teragrep.pth_06.ast.analyze.</text>
<text text-anchor="middle" x="376.5" y="-151" font-family="Helvetica,sans-Serif" font-size="10.00">PlannedScans.planListForGroup</text>
</a>
</g>
</g>
<!-- Node1&#45;&gt;Node2 -->
<g id="edge2_Node000001_Node000002" class="edge">
<title>Node1&#45;&gt;Node2</title>
<g id="a_edge2_Node000001_Node000002"><a xlink:title=" ">
<path fill="none" stroke="#63b8ff" d="M561.24,-105.92C537.64,-115.45 508.06,-126.71 481,-135 470.51,-138.21 459.3,-141.23 448.28,-143.97"/>
<polygon fill="#63b8ff" stroke="#63b8ff" points="562.69,-109.11 570.63,-102.09 560.05,-102.63 562.69,-109.11"/>
</a>
</g>
</g>
<!-- Node8 -->
<g id="Node000008" class="node">
<title>Node8</title>
<g id="a_Node000008"><a xlink:href="classcom_1_1teragrep_1_1pth__06_1_1ast_1_1analyze_1_1FilterGroupTest.html#a47f3f8dc5274b61c843d551009f121d4" target="_top" xlink:title=" ">
<polygon fill="white" stroke="#666666" points="469,-126 284,-126 284,-96 469,-96 469,-126"/>
<text text-anchor="start" x="292" y="-114" font-family="Helvetica,sans-Serif" font-size="10.00">com.teragrep.pth_06.ast.analyze.</text>
<text text-anchor="middle" x="376.5" y="-103" font-family="Helvetica,sans-Serif" font-size="10.00">FilterGroupTest.testEmptyFilterList</text>
</a>
</g>
</g>
<!-- Node1&#45;&gt;Node8 -->
<g id="edge8_Node000001_Node000008" class="edge">
<title>Node1&#45;&gt;Node8</title>
<g id="a_edge8_Node000001_Node000008"><a xlink:title=" ">
<path fill="none" stroke="#63b8ff" d="M506.7,-97.43C494.18,-98.75 481.41,-100.09 469.02,-101.39"/>
<polygon fill="#63b8ff" stroke="#63b8ff" points="507.09,-100.91 516.67,-96.38 506.36,-93.95 507.09,-100.91"/>
</a>
</g>
</g>
<!-- Node9 -->
<g id="Node000009" class="node">
<title>Node9</title>
<g id="a_Node000009"><a xlink:href="classcom_1_1teragrep_1_1pth__06_1_1ast_1_1analyze_1_1FilterGroupTest.html#a36b8d42d1a4eef6a72aa653108fe6dc7" target="_top" xlink:title=" ">
<polygon fill="white" stroke="#666666" points="466.5,-78 286.5,-78 286.5,-48 466.5,-48 466.5,-78"/>
<text text-anchor="start" x="294.5" y="-66" font-family="Helvetica,sans-Serif" font-size="10.00">com.teragrep.pth_06.ast.analyze.</text>
<text text-anchor="middle" x="376.5" y="-55" font-family="Helvetica,sans-Serif" font-size="10.00">FilterGroupTest.testHostFilterList</text>
</a>
</g>
</g>
<!-- Node1&#45;&gt;Node9 -->
<g id="edge9_Node000001_Node000009" class="edge">
<title>Node1&#45;&gt;Node9</title>
<g id="a_edge9_Node000001_Node000009"><a xlink:title=" ">
<path fill="none" stroke="#63b8ff" d="M506.6,-76.56C493.35,-75.17 479.83,-73.75 466.76,-72.38"/>
<polygon fill="#63b8ff" stroke="#63b8ff" points="506.36,-80.05 516.67,-77.62 507.09,-73.09 506.36,-80.05"/>
</a>
</g>
</g>
<!-- Node10 -->
<g id="Node000010" class="node">
<title>Node10</title>
<g id="a_Node000010"><a xlink:href="classcom_1_1teragrep_1_1pth__06_1_1ast_1_1analyze_1_1FilterGroupTest.html#a2cb5e94e4528a57fc969211b80339a20" target="_top" xlink:title=" ">
<polygon fill="white" stroke="#666666" points="481,-30 272,-30 272,0 481,0 481,-30"/>
<text text-anchor="start" x="280" y="-18" font-family="Helvetica,sans-Serif" font-size="10.00">com.teragrep.pth_06.ast.analyze.</text>
<text text-anchor="middle" x="376.5" y="-7" font-family="Helvetica,sans-Serif" font-size="10.00">FilterGroupTest.testSourceTypeFilterList</text>
</a>
</g>
</g>
<!-- Node1&#45;&gt;Node10 -->
<g id="edge10_Node000001_Node000010" class="edge">
<title>Node1&#45;&gt;Node10</title>
<g id="a_edge10_Node000001_Node000010"><a xlink:title=" ">
<path fill="none" stroke="#63b8ff" d="M561.24,-68.08C537.64,-58.55 508.06,-47.29 481,-39 470.51,-35.79 459.3,-32.77 448.28,-30.03"/>
<polygon fill="#63b8ff" stroke="#63b8ff" points="560.05,-71.37 570.63,-71.91 562.69,-64.89 560.05,-71.37"/>
</a>
</g>
</g>
<!-- Node3 -->
<g id="Node000003" class="node">
<title>Node3</title>
<g id="a_Node000003"><a xlink:href="classcom_1_1teragrep_1_1pth__06_1_1ast_1_1analyze_1_1PlannedScansTest.html#adb4d98866e6154141722cef12eaf9f32" target="_top" xlink:title=" ">
<polygon fill="white" stroke="#666666" points="219.5,-282 16.5,-282 16.5,-252 219.5,-252 219.5,-282"/>
<text text-anchor="start" x="24.5" y="-270" font-family="Helvetica,sans-Serif" font-size="10.00">com.teragrep.pth_06.ast.analyze.</text>
<text text-anchor="middle" x="118" y="-259" font-family="Helvetica,sans-Serif" font-size="10.00">PlannedScansTest.testHostFilterMatch</text>
</a>
</g>
</g>
<!-- Node2&#45;&gt;Node3 -->
<g id="edge3_Node000002_Node000003" class="edge">
<title>Node2&#45;&gt;Node3</title>
<g id="a_edge3_Node000002_Node000003"><a xlink:title=" ">
<path fill="none" stroke="#63b8ff" d="M347.13,-180.06C319.96,-199.24 277.11,-226.95 236,-243 227.21,-246.43 217.85,-249.4 208.4,-251.96"/>
<polygon fill="#63b8ff" stroke="#63b8ff" points="349.29,-182.82 355.38,-174.16 345.21,-177.13 349.29,-182.82"/>
</a>
</g>
</g>
<!-- Node4 -->
<g id="Node000004" class="node">
<title>Node4</title>
<g id="a_Node000004"><a xlink:href="classcom_1_1teragrep_1_1pth__06_1_1ast_1_1analyze_1_1PlannedScansTest.html#ac86de63eee157a40fc018aa7e4759926" target="_top" xlink:title=" ">
<polygon fill="white" stroke="#666666" points="223,-233.5 13,-233.5 13,-192.5 223,-192.5 223,-233.5"/>
<text text-anchor="start" x="21" y="-221.5" font-family="Helvetica,sans-Serif" font-size="10.00">com.teragrep.pth_06.ast.analyze.</text>
<text text-anchor="start" x="21" y="-210.5" font-family="Helvetica,sans-Serif" font-size="10.00">PlannedScansTest.testMultipleDirectory</text>
<text text-anchor="middle" x="118" y="-199.5" font-family="Helvetica,sans-Serif" font-size="10.00">Matches</text>
</a>
</g>
</g>
<!-- Node2&#45;&gt;Node4 -->
<g id="edge4_Node000002_Node000004" class="edge">
<title>Node2&#45;&gt;Node4</title>
<g id="a_edge4_Node000002_Node000004"><a xlink:title=" ">
<path fill="none" stroke="#63b8ff" d="M294.02,-176.15C269.36,-181.35 242.02,-187.1 216.43,-192.49"/>
<polygon fill="#63b8ff" stroke="#63b8ff" points="294.99,-179.53 304.05,-174.04 293.54,-172.68 294.99,-179.53"/>
</a>
</g>
</g>
<!-- Node5 -->
<g id="Node000005" class="node">
<title>Node5</title>
<g id="a_Node000005"><a xlink:href="classcom_1_1teragrep_1_1pth__06_1_1ast_1_1analyze_1_1PlannedScansTest.html#ab953f2d7da712011a6de22709ef9f2b4" target="_top" xlink:title=" ">
<polygon fill="white" stroke="#666666" points="208,-174 28,-174 28,-144 208,-144 208,-174"/>
<text text-anchor="start" x="36" y="-162" font-family="Helvetica,sans-Serif" font-size="10.00">com.teragrep.pth_06.ast.analyze.</text>
<text text-anchor="middle" x="118" y="-151" font-family="Helvetica,sans-Serif" font-size="10.00">PlannedScansTest.testNoMatches</text>
</a>
</g>
</g>
<!-- Node2&#45;&gt;Node5 -->
<g id="edge5_Node000002_Node000005" class="edge">
<title>Node2&#45;&gt;Node5</title>
<g id="a_edge5_Node000002_Node000005"><a xlink:title=" ">
<path fill="none" stroke="#63b8ff" d="M275.96,-159C253.57,-159 229.96,-159 208.03,-159"/>
<polygon fill="#63b8ff" stroke="#63b8ff" points="276.15,-162.5 286.15,-159 276.15,-155.5 276.15,-162.5"/>
</a>
</g>
</g>
<!-- Node6 -->
<g id="Node000006" class="node">
<title>Node6</title>
<g id="a_Node000006"><a xlink:href="classcom_1_1teragrep_1_1pth__06_1_1ast_1_1analyze_1_1PlannedScansTest.html#a35e59be54b4f7a08041b99a19f4f39cd" target="_top" xlink:title=" ">
<polygon fill="white" stroke="#666666" points="233,-126 3,-126 3,-96 233,-96 233,-126"/>
<text text-anchor="start" x="11" y="-114" font-family="Helvetica,sans-Serif" font-size="10.00">com.teragrep.pth_06.ast.analyze.</text>
<text text-anchor="middle" x="118" y="-103" font-family="Helvetica,sans-Serif" font-size="10.00">PlannedScansTest.testSingleDirectoryMatch</text>
</a>
</g>
</g>
<!-- Node2&#45;&gt;Node6 -->
<g id="edge6_Node000002_Node000006" class="edge">
<title>Node2&#45;&gt;Node6</title>
<g id="a_edge6_Node000002_Node000006"><a xlink:title=" ">
<path fill="none" stroke="#63b8ff" d="M284.88,-142.04C256.93,-136.81 226.36,-131.09 199.17,-126"/>
<polygon fill="#63b8ff" stroke="#63b8ff" points="284.57,-145.54 295.05,-143.94 285.86,-138.66 284.57,-145.54"/>
</a>
</g>
</g>
<!-- Node7 -->
<g id="Node000007" class="node">
<title>Node7</title>
<g id="a_Node000007"><a xlink:href="classcom_1_1teragrep_1_1pth__06_1_1ast_1_1analyze_1_1PlannedScansTest.html#aa971026f3fd334d4addfbc9d9fbf496e" target="_top" xlink:title=" ">
<polygon fill="white" stroke="#666666" points="236,-78 0,-78 0,-48 236,-48 236,-78"/>
<text text-anchor="start" x="8" y="-66" font-family="Helvetica,sans-Serif" font-size="10.00">com.teragrep.pth_06.ast.analyze.</text>
<text text-anchor="middle" x="118" y="-55" font-family="Helvetica,sans-Serif" font-size="10.00">PlannedScansTest.testSourceTypeFilterMatch</text>
</a>
</g>
</g>
<!-- Node2&#45;&gt;Node7 -->
<g id="edge7_Node000002_Node000007" class="edge">
<title>Node2&#45;&gt;Node7</title>
<g id="a_edge7_Node000002_Node000007"><a xlink:title=" ">
<path fill="none" stroke="#63b8ff" d="M280.03,-139.7C277.27,-138.25 274.58,-136.68 272,-135 249.66,-120.44 258.53,-101.27 236,-87 230.57,-83.56 224.74,-80.6 218.69,-78.06"/>
<polygon fill="#63b8ff" stroke="#63b8ff" points="278.57,-142.88 289.11,-143.99 281.56,-136.56 278.57,-142.88"/>
</a>
</g>
</g>
</g>
</svg>
