<?xml version="1.0" encoding="UTF-8" standalone="no"?>
<!DOCTYPE svg PUBLIC "-//W3C//DTD SVG 1.1//EN"
 "http://www.w3.org/Graphics/SVG/1.1/DTD/svg11.dtd">
<!-- Generated by graphviz version 2.43.0 (0)
 -->
<!-- Title: com.teragrep.pth_06.ast.transform.WithDefaultValues.andWithDefaults Pages: 1 -->
<svg width="938pt" height="373pt"
 viewBox="0.00 0.00 938.00 372.50" xmlns="http://www.w3.org/2000/svg" xmlns:xlink="http://www.w3.org/1999/xlink">
<g id="graph0" class="graph" transform="scale(1 1) rotate(0) translate(4 368.5)">
<title>com.teragrep.pth_06.ast.transform.WithDefaultValues.andWithDefaults</title>
<!-- Node1 -->
<g id="Node000001" class="node">
<title>Node1</title>
<g id="a_Node000001"><a xlink:title=" ">
<polygon fill="#999999" stroke="#666666" points="930,-258 738,-258 738,-228 930,-228 930,-258"/>
<text text-anchor="start" x="746" y="-246" font-family="Helvetica,sans-Serif" font-size="10.00">com.teragrep.pth_06.ast.transform.</text>
<text text-anchor="middle" x="834" y="-235" font-family="Helvetica,sans-Serif" font-size="10.00">WithDefaultValues.andWithDefaults</text>
</a>
</g>
</g>
<!-- Node2 -->
<g id="Node000002" class="node">
<title>Node2</title>
<g id="a_Node000002"><a xlink:href="classcom_1_1teragrep_1_1pth__06_1_1ast_1_1transform_1_1WithDefaultValues.html#a371bd3fba44c9f320d2b39f5e60cb82c" target="_top" xlink:title=" ">
<polygon fill="white" stroke="#666666" points="702,-263.5 483,-263.5 483,-222.5 702,-222.5 702,-263.5"/>
<text text-anchor="start" x="491" y="-251.5" font-family="Helvetica,sans-Serif" font-size="10.00">com.teragrep.pth_06.ast.transform.</text>
<text text-anchor="start" x="491" y="-240.5" font-family="Helvetica,sans-Serif" font-size="10.00">WithDefaultValues.recursiveWithDefaults</text>
<text text-anchor="middle" x="592.5" y="-229.5" font-family="Helvetica,sans-Serif" font-size="10.00">Expression</text>
</a>
</g>
</g>
<!-- Node1&#45;&gt;Node2 -->
<g id="edge1_Node000001_Node000002" class="edge">
<title>Node1&#45;&gt;Node2</title>
<g id="a_edge1_Node000001_Node000002"><a xlink:title=" ">
<path fill="none" stroke="#63b8ff" d="M727.73,-236.29C719.27,-236.24 710.71,-236.24 702.22,-236.28"/>
<polygon fill="#63b8ff" stroke="#63b8ff" points="727.97,-239.8 738,-236.38 728.03,-232.8 727.97,-239.8"/>
</a>
</g>
</g>
<!-- Node2&#45;&gt;Node1 -->
<g id="edge2_Node000002_Node000001" class="edge">
<title>Node2&#45;&gt;Node1</title>
<g id="a_edge2_Node000002_Node000001"><a xlink:title=" ">
<path fill="none" stroke="#63b8ff" d="M712.32,-249.75C720.93,-249.75 729.55,-249.71 738,-249.62"/>
<polygon fill="#63b8ff" stroke="#63b8ff" points="712.23,-246.25 702.22,-249.72 712.21,-253.25 712.23,-246.25"/>
</a>
</g>
</g>
<!-- Node3 -->
<g id="Node000003" class="node">
<title>Node3</title>
<g id="a_Node000003"><a xlink:href="classcom_1_1teragrep_1_1pth__06_1_1ast_1_1transform_1_1WithDefaultValues.html#af8c587422cbf070fc6fea9aba68705d9" target="_top" xlink:title=" ">
<polygon fill="white" stroke="#666666" points="447,-258 257,-258 257,-228 447,-228 447,-258"/>
<text text-anchor="start" x="265" y="-246" font-family="Helvetica,sans-Serif" font-size="10.00">com.teragrep.pth_06.ast.transform.</text>
<text text-anchor="middle" x="352" y="-235" font-family="Helvetica,sans-Serif" font-size="10.00">WithDefaultValues.orWithDefaults</text>
</a>
</g>
</g>
<!-- Node2&#45;&gt;Node3 -->
<g id="edge3_Node000002_Node000003" class="edge">
<title>Node2&#45;&gt;Node3</title>
<g id="a_edge3_Node000002_Node000003"><a xlink:title=" ">
<path fill="none" stroke="#63b8ff" d="M472.64,-236.25C464.05,-236.25 455.45,-236.29 447.03,-236.39"/>
<polygon fill="#63b8ff" stroke="#63b8ff" points="472.71,-239.75 482.72,-236.27 472.73,-232.75 472.71,-239.75"/>
</a>
</g>
</g>
<!-- Node4 -->
<g id="Node000004" class="node">
<title>Node4</title>
<g id="a_Node000004"><a xlink:href="classcom_1_1teragrep_1_1pth__06_1_1ast_1_1transform_1_1WithDefaultValues.html#a3cd2907c54910cabd6d8cb52ff49215f" target="_top" xlink:title=" ">
<polygon fill="white" stroke="#666666" points="447,-192 257,-192 257,-162 447,-162 447,-192"/>
<text text-anchor="start" x="265" y="-180" font-family="Helvetica,sans-Serif" font-size="10.00">com.teragrep.pth_06.ast.transform.</text>
<text text-anchor="middle" x="352" y="-169" font-family="Helvetica,sans-Serif" font-size="10.00">WithDefaultValues.transformed</text>
</a>
</g>
</g>
<!-- Node2&#45;&gt;Node4 -->
<g id="edge5_Node000002_Node000004" class="edge">
<title>Node2&#45;&gt;Node4</title>
<g id="a_edge5_Node000002_Node000004"><a xlink:title=" ">
<path fill="none" stroke="#63b8ff" d="M507.62,-219.79C474.35,-210.58 437.04,-200.26 407.41,-192.06"/>
<polygon fill="#63b8ff" stroke="#63b8ff" points="506.77,-223.19 517.34,-222.48 508.64,-216.44 506.77,-223.19"/>
</a>
</g>
</g>
<!-- Node3&#45;&gt;Node2 -->
<g id="edge4_Node000003_Node000002" class="edge">
<title>Node3&#45;&gt;Node2</title>
<g id="a_edge4_Node000003_Node000002"><a xlink:title=" ">
<path fill="none" stroke="#63b8ff" d="M457.26,-249.7C465.7,-249.76 474.25,-249.76 482.72,-249.73"/>
<polygon fill="#63b8ff" stroke="#63b8ff" points="457.06,-246.2 447.03,-249.61 457,-253.2 457.06,-246.2"/>
</a>
</g>
</g>
<!-- Node4&#45;&gt;Node4 -->
<g id="edge13_Node000004_Node000004" class="edge">
<title>Node4&#45;&gt;Node4</title>
<g id="a_edge13_Node000004_Node000004"><a xlink:title=" ">
<path fill="none" stroke="#63b8ff" d="M394.01,-202.6C388.27,-206.97 374.27,-210 352,-210 314.5,-210 300.44,-201.41 309.81,-192.28"/>
<polygon fill="#63b8ff" stroke="#63b8ff" points="397.51,-202.33 394.19,-192.28 390.51,-202.21 397.51,-202.33"/>
</a>
</g>
</g>
<!-- Node5 -->
<g id="Node000005" class="node">
<title>Node5</title>
<g id="a_Node000005"><a xlink:href="classcom_1_1teragrep_1_1pth__06_1_1ast_1_1transform_1_1WithDefaultValuesTest.html#a233224ccea116a4325d533bb23639f57" target="_top" xlink:title=" ">
<polygon fill="white" stroke="#666666" points="221,-364.5 0,-364.5 0,-323.5 221,-323.5 221,-364.5"/>
<text text-anchor="start" x="8" y="-352.5" font-family="Helvetica,sans-Serif" font-size="10.00">com.teragrep.pth_06.ast.transform.</text>
<text text-anchor="start" x="8" y="-341.5" font-family="Helvetica,sans-Serif" font-size="10.00">WithDefaultValuesTest.testAndExpression</text>
<text text-anchor="middle" x="110.5" y="-330.5" font-family="Helvetica,sans-Serif" font-size="10.00">Children</text>
</a>
</g>
</g>
<!-- Node4&#45;&gt;Node5 -->
<g id="edge6_Node000004_Node000005" class="edge">
<title>Node4&#45;&gt;Node5</title>
<g id="a_edge6_Node000004_Node000005"><a xlink:title=" ">
<path fill="none" stroke="#63b8ff" d="M288.72,-196.44C277.07,-202.26 265.81,-209.67 257,-219 226.01,-251.84 254.4,-283.62 221,-314 217.14,-317.51 212.9,-320.62 208.41,-323.37"/>
<polygon fill="#63b8ff" stroke="#63b8ff" points="290.49,-199.48 298.1,-192.11 287.56,-193.12 290.49,-199.48"/>
</a>
</g>
</g>
<!-- Node6 -->
<g id="Node000006" class="node">
<title>Node6</title>
<g id="a_Node000006"><a xlink:href="classcom_1_1teragrep_1_1pth__06_1_1ast_1_1transform_1_1WithDefaultValuesTest.html#ac16dde1dbe11d8ceb7d2f66f569fa095" target="_top" xlink:title=" ">
<polygon fill="white" stroke="#666666" points="221,-305 0,-305 0,-275 221,-275 221,-305"/>
<text text-anchor="start" x="8" y="-293" font-family="Helvetica,sans-Serif" font-size="10.00">com.teragrep.pth_06.ast.transform.</text>
<text text-anchor="middle" x="110.5" y="-282" font-family="Helvetica,sans-Serif" font-size="10.00">WithDefaultValuesTest.testDefaultEarliest</text>
</a>
</g>
</g>
<!-- Node4&#45;&gt;Node6 -->
<g id="edge7_Node000004_Node000006" class="edge">
<title>Node4&#45;&gt;Node6</title>
<g id="a_edge7_Node000004_Node000006"><a xlink:title=" ">
<path fill="none" stroke="#63b8ff" d="M296.12,-196.04C282.57,-202.18 268.62,-209.82 257,-219 236.35,-235.31 243.2,-251.88 221,-266 215.58,-269.45 209.74,-272.4 203.67,-274.94"/>
<polygon fill="#63b8ff" stroke="#63b8ff" points="297.61,-199.21 305.41,-192.04 294.84,-192.79 297.61,-199.21"/>
</a>
</g>
</g>
<!-- Node7 -->
<g id="Node000007" class="node">
<title>Node7</title>
<g id="a_Node000007"><a xlink:href="classcom_1_1teragrep_1_1pth__06_1_1ast_1_1transform_1_1WithDefaultValuesTest.html#ab174088e0621303a1257586f63107e8b" target="_top" xlink:title=" ">
<polygon fill="white" stroke="#666666" points="216.5,-256.5 4.5,-256.5 4.5,-215.5 216.5,-215.5 216.5,-256.5"/>
<text text-anchor="start" x="12.5" y="-244.5" font-family="Helvetica,sans-Serif" font-size="10.00">com.teragrep.pth_06.ast.transform.</text>
<text text-anchor="start" x="12.5" y="-233.5" font-family="Helvetica,sans-Serif" font-size="10.00">WithDefaultValuesTest.testDefaultIndex</text>
<text text-anchor="middle" x="110.5" y="-222.5" font-family="Helvetica,sans-Serif" font-size="10.00">Expression</text>
</a>
</g>
</g>
<!-- Node4&#45;&gt;Node7 -->
<g id="edge8_Node000004_Node000007" class="edge">
<title>Node4&#45;&gt;Node7</title>
<g id="a_edge8_Node000004_Node000007"><a xlink:title=" ">
<path fill="none" stroke="#63b8ff" d="M279.93,-194.51C253.27,-201.08 222.72,-208.6 195.03,-215.42"/>
<polygon fill="#63b8ff" stroke="#63b8ff" points="281.07,-197.83 289.94,-192.04 279.4,-191.03 281.07,-197.83"/>
</a>
</g>
</g>
<!-- Node8 -->
<g id="Node000008" class="node">
<title>Node8</title>
<g id="a_Node000008"><a xlink:href="classcom_1_1teragrep_1_1pth__06_1_1ast_1_1transform_1_1WithDefaultValuesTest.html#acb45ad457a3b9de406a5227c5f544a6f" target="_top" xlink:title=" ">
<polygon fill="white" stroke="#666666" points="212,-197.5 9,-197.5 9,-156.5 212,-156.5 212,-197.5"/>
<text text-anchor="start" x="17" y="-185.5" font-family="Helvetica,sans-Serif" font-size="10.00">com.teragrep.pth_06.ast.transform.</text>
<text text-anchor="start" x="17" y="-174.5" font-family="Helvetica,sans-Serif" font-size="10.00">WithDefaultValuesTest.testDefaultsDo</text>
<text text-anchor="middle" x="110.5" y="-163.5" font-family="Helvetica,sans-Serif" font-size="10.00">NotOverwriteExisting</text>
</a>
</g>
</g>
<!-- Node4&#45;&gt;Node8 -->
<g id="edge9_Node000004_Node000008" class="edge">
<title>Node4&#45;&gt;Node8</title>
<g id="a_edge9_Node000004_Node000008"><a xlink:title=" ">
<path fill="none" stroke="#63b8ff" d="M246.65,-177C235.16,-177 223.48,-177 212.04,-177"/>
<polygon fill="#63b8ff" stroke="#63b8ff" points="246.69,-180.5 256.69,-177 246.69,-173.5 246.69,-180.5"/>
</a>
</g>
</g>
<!-- Node9 -->
<g id="Node000009" class="node">
<title>Node9</title>
<g id="a_Node000009"><a xlink:href="classcom_1_1teragrep_1_1pth__06_1_1ast_1_1transform_1_1WithDefaultValuesTest.html#a820fe25e5b150406466c6ab722ee3916" target="_top" xlink:title=" ">
<polygon fill="white" stroke="#666666" points="205.5,-138 15.5,-138 15.5,-108 205.5,-108 205.5,-138"/>
<text text-anchor="start" x="23.5" y="-126" font-family="Helvetica,sans-Serif" font-size="10.00">com.teragrep.pth_06.ast.transform.</text>
<text text-anchor="middle" x="110.5" y="-115" font-family="Helvetica,sans-Serif" font-size="10.00">WithDefaultValuesTest.testLatest</text>
</a>
</g>
</g>
<!-- Node4&#45;&gt;Node9 -->
<g id="edge10_Node000004_Node000009" class="edge">
<title>Node4&#45;&gt;Node9</title>
<g id="a_edge10_Node000004_Node000009"><a xlink:title=" ">
<path fill="none" stroke="#63b8ff" d="M274.41,-159.73C243.49,-152.76 208.13,-144.79 178.27,-138.05"/>
<polygon fill="#63b8ff" stroke="#63b8ff" points="273.76,-163.17 284.29,-161.96 275.3,-156.34 273.76,-163.17"/>
</a>
</g>
</g>
<!-- Node10 -->
<g id="Node000010" class="node">
<title>Node10</title>
<g id="a_Node000010"><a xlink:href="classcom_1_1teragrep_1_1pth__06_1_1ast_1_1transform_1_1WithDefaultValuesTest.html#a4dced6e16be7521206c7dabadc0b977a" target="_top" xlink:title=" ">
<polygon fill="white" stroke="#666666" points="217,-89.5 4,-89.5 4,-48.5 217,-48.5 217,-89.5"/>
<text text-anchor="start" x="12" y="-77.5" font-family="Helvetica,sans-Serif" font-size="10.00">com.teragrep.pth_06.ast.transform.</text>
<text text-anchor="start" x="12" y="-66.5" font-family="Helvetica,sans-Serif" font-size="10.00">WithDefaultValuesTest.testOrExpression</text>
<text text-anchor="middle" x="110.5" y="-55.5" font-family="Helvetica,sans-Serif" font-size="10.00">Children</text>
</a>
</g>
</g>
<!-- Node4&#45;&gt;Node10 -->
<g id="edge11_Node000004_Node000010" class="edge">
<title>Node4&#45;&gt;Node10</title>
<g id="a_edge11_Node000004_Node000010"><a xlink:title=" ">
<path fill="none" stroke="#63b8ff" d="M321.41,-156.03C295.84,-138.72 257.37,-114.55 221,-99 212.93,-95.55 204.36,-92.4 195.71,-89.54"/>
<polygon fill="#63b8ff" stroke="#63b8ff" points="319.66,-159.08 329.89,-161.85 323.62,-153.31 319.66,-159.08"/>
</a>
</g>
</g>
<!-- Node11 -->
<g id="Node000011" class="node">
<title>Node11</title>
<g id="a_Node000011"><a xlink:href="classcom_1_1teragrep_1_1pth__06_1_1ast_1_1transform_1_1WithDefaultValues.html#a2d35e1274d6d71f04699951bbee270e2" target="_top" xlink:title=" ">
<polygon fill="white" stroke="#666666" points="205.5,-30 15.5,-30 15.5,0 205.5,0 205.5,-30"/>
<text text-anchor="start" x="23.5" y="-18" font-family="Helvetica,sans-Serif" font-size="10.00">com.teragrep.pth_06.ast.transform.</text>
<text text-anchor="middle" x="110.5" y="-7" font-family="Helvetica,sans-Serif" font-size="10.00">WithDefaultValues.toString</text>
</a>
</g>
</g>
<!-- Node4&#45;&gt;Node11 -->
<g id="edge12_Node000004_Node000011" class="edge">
<title>Node4&#45;&gt;Node11</title>
<g id="a_edge12_Node000004_Node000011"><a xlink:title=" ">
<path fill="none" stroke="#63b8ff" d="M335.41,-153.42C313.62,-122.41 271.04,-68.52 221,-40 214.14,-36.09 206.71,-32.79 199.06,-30.01"/>
<polygon fill="#63b8ff" stroke="#63b8ff" points="332.69,-155.64 341.24,-161.89 338.45,-151.67 332.69,-155.64"/>
</a>
</g>
</g>
</g>
</svg>
