<?xml version="1.0" encoding="UTF-8" standalone="no"?>
<!DOCTYPE svg PUBLIC "-//W3C//DTD SVG 1.1//EN"
 "http://www.w3.org/Graphics/SVG/1.1/DTD/svg11.dtd">
<!-- Generated by graphviz version 2.43.0 (0)
 -->
<!-- Title: com.teragrep.pth_06.ast.transform.WithDefaultValuesTest.testDefaultsDoNotOverwriteExisting Pages: 1 -->
<svg width="1146pt" height="86pt"
 viewBox="0.00 0.00 1146.00 86.00" xmlns="http://www.w3.org/2000/svg" xmlns:xlink="http://www.w3.org/1999/xlink">
<g id="graph0" class="graph" transform="scale(1 1) rotate(0) translate(4 82)">
<title>com.teragrep.pth_06.ast.transform.WithDefaultValuesTest.testDefaultsDoNotOverwriteExisting</title>
<!-- Node1 -->
<g id="Node000001" class="node">
<title>Node1</title>
<g id="a_Node000001"><a xlink:title=" ">
<polygon fill="#999999" stroke="#666666" points="203,-59.5 0,-59.5 0,-18.5 203,-18.5 203,-59.5"/>
<text text-anchor="start" x="8" y="-47.5" font-family="Helvetica,sans-Serif" font-size="10.00">com.teragrep.pth_06.ast.transform.</text>
<text text-anchor="start" x="8" y="-36.5" font-family="Helvetica,sans-Serif" font-size="10.00">WithDefaultValuesTest.testDefaultsDo</text>
<text text-anchor="middle" x="101.5" y="-25.5" font-family="Helvetica,sans-Serif" font-size="10.00">NotOverwriteExisting</text>
</a>
</g>
</g>
<!-- Node2 -->
<g id="Node000002" class="node">
<title>Node2</title>
<g id="a_Node000002"><a xlink:href="classcom_1_1teragrep_1_1pth__06_1_1ast_1_1transform_1_1WithDefaultValues.html#a3cd2907c54910cabd6d8cb52ff49215f" target="_top" xlink:title=" ">
<polygon fill="white" stroke="#666666" points="429,-54 239,-54 239,-24 429,-24 429,-54"/>
<text text-anchor="start" x="247" y="-42" font-family="Helvetica,sans-Serif" font-size="10.00">com.teragrep.pth_06.ast.transform.</text>
<text text-anchor="middle" x="334" y="-31" font-family="Helvetica,sans-Serif" font-size="10.00">WithDefaultValues.transformed</text>
</a>
</g>
</g>
<!-- Node1&#45;&gt;Node2 -->
<g id="edge1_Node000001_Node000002" class="edge">
<title>Node1&#45;&gt;Node2</title>
<g id="a_edge1_Node000001_Node000002"><a xlink:title=" ">
<path fill="none" stroke="#63b8ff" d="M203.27,-39C211.71,-39 220.25,-39 228.72,-39"/>
<polygon fill="#63b8ff" stroke="#63b8ff" points="228.99,-42.5 238.99,-39 228.99,-35.5 228.99,-42.5"/>
</a>
</g>
</g>
<!-- Node2&#45;&gt;Node2 -->
<g id="edge10_Node000002_Node000002" class="edge">
<title>Node2&#45;&gt;Node2</title>
<g id="a_edge10_Node000002_Node000002"><a xlink:title=" ">
<path fill="none" stroke="#63b8ff" d="M293.22,-54.28C284.16,-63.41 297.75,-72 334,-72 355.52,-72 369.06,-68.97 374.61,-64.6"/>
<polygon fill="#63b8ff" stroke="#63b8ff" points="378.11,-64.33 374.78,-54.28 371.11,-64.22 378.11,-64.33"/>
</a>
</g>
</g>
<!-- Node3 -->
<g id="Node000003" class="node">
<title>Node3</title>
<g id="a_Node000003"><a xlink:href="classcom_1_1teragrep_1_1pth__06_1_1ast_1_1transform_1_1WithDefaultValues.html#a371bd3fba44c9f320d2b39f5e60cb82c" target="_top" xlink:title=" ">
<polygon fill="white" stroke="#666666" points="684,-59.5 465,-59.5 465,-18.5 684,-18.5 684,-59.5"/>
<text text-anchor="start" x="473" y="-47.5" font-family="Helvetica,sans-Serif" font-size="10.00">com.teragrep.pth_06.ast.transform.</text>
<text text-anchor="start" x="473" y="-36.5" font-family="Helvetica,sans-Serif" font-size="10.00">WithDefaultValues.recursiveWithDefaults</text>
<text text-anchor="middle" x="574.5" y="-25.5" font-family="Helvetica,sans-Serif" font-size="10.00">Expression</text>
</a>
</g>
</g>
<!-- Node2&#45;&gt;Node3 -->
<g id="edge2_Node000002_Node000003" class="edge">
<title>Node2&#45;&gt;Node3</title>
<g id="a_edge2_Node000002_Node000003"><a xlink:title=" ">
<path fill="none" stroke="#63b8ff" d="M429.26,-39C437.68,-39 446.28,-39 454.87,-39"/>
<polygon fill="#63b8ff" stroke="#63b8ff" points="454.95,-42.5 464.95,-39 454.95,-35.5 454.95,-42.5"/>
</a>
</g>
</g>
<!-- Node4 -->
<g id="Node000004" class="node">
<title>Node4</title>
<g id="a_Node000004"><a xlink:href="classcom_1_1teragrep_1_1pth__06_1_1ast_1_1transform_1_1WithDefaultValues.html#ac53e9da4d27289a430152a8b67aa7e6b" target="_top" xlink:title=" ">
<polygon fill="white" stroke="#666666" points="912,-78 720,-78 720,-48 912,-48 912,-78"/>
<text text-anchor="start" x="728" y="-66" font-family="Helvetica,sans-Serif" font-size="10.00">com.teragrep.pth_06.ast.transform.</text>
<text text-anchor="middle" x="816" y="-55" font-family="Helvetica,sans-Serif" font-size="10.00">WithDefaultValues.andWithDefaults</text>
</a>
</g>
</g>
<!-- Node3&#45;&gt;Node4 -->
<g id="edge3_Node000003_Node000004" class="edge">
<title>Node3&#45;&gt;Node4</title>
<g id="a_edge3_Node000003_Node000004"><a xlink:title=" ">
<path fill="none" stroke="#63b8ff" d="M684.04,-43.15C695.91,-44.29 707.93,-45.52 719.62,-46.82"/>
<polygon fill="#63b8ff" stroke="#63b8ff" points="719.47,-50.32 729.8,-47.97 720.26,-43.37 719.47,-50.32"/>
</a>
</g>
</g>
<!-- Node6 -->
<g id="Node000006" class="node">
<title>Node6</title>
<g id="a_Node000006"><a xlink:href="classcom_1_1teragrep_1_1pth__06_1_1ast_1_1transform_1_1WithDefaultValues.html#af8c587422cbf070fc6fea9aba68705d9" target="_top" xlink:title=" ">
<polygon fill="white" stroke="#666666" points="911,-30 721,-30 721,0 911,0 911,-30"/>
<text text-anchor="start" x="729" y="-18" font-family="Helvetica,sans-Serif" font-size="10.00">com.teragrep.pth_06.ast.transform.</text>
<text text-anchor="middle" x="816" y="-7" font-family="Helvetica,sans-Serif" font-size="10.00">WithDefaultValues.orWithDefaults</text>
</a>
</g>
</g>
<!-- Node3&#45;&gt;Node6 -->
<g id="edge7_Node000003_Node000006" class="edge">
<title>Node3&#45;&gt;Node6</title>
<g id="a_edge7_Node000003_Node000006"><a xlink:title=" ">
<path fill="none" stroke="#63b8ff" d="M684.04,-21.4C692.84,-20.48 701.73,-19.59 710.51,-18.77"/>
<polygon fill="#63b8ff" stroke="#63b8ff" points="711.11,-22.23 720.75,-17.83 710.47,-15.26 711.11,-22.23"/>
</a>
</g>
</g>
<!-- Node4&#45;&gt;Node3 -->
<g id="edge6_Node000004_Node000003" class="edge">
<title>Node4&#45;&gt;Node3</title>
<g id="a_edge6_Node000004_Node000003"><a xlink:title=" ">
<path fill="none" stroke="#63b8ff" d="M719.66,-60.07C711.24,-59.31 702.66,-58.5 694.09,-57.63"/>
<polygon fill="#63b8ff" stroke="#63b8ff" points="694.34,-54.14 684.04,-56.6 693.63,-61.1 694.34,-54.14"/>
</a>
</g>
</g>
<!-- Node5 -->
<g id="Node000005" class="node">
<title>Node5</title>
<g id="a_Node000005"><a xlink:href="classcom_1_1teragrep_1_1pth__06_1_1ast_1_1transform_1_1WithDefaultValues.html#a42a39b9992cc004453cd026fbc106b36" target="_top" xlink:title=" ">
<polygon fill="white" stroke="#666666" points="1138,-54 948,-54 948,-24 1138,-24 1138,-54"/>
<text text-anchor="start" x="956" y="-42" font-family="Helvetica,sans-Serif" font-size="10.00">com.teragrep.pth_06.ast.transform.</text>
<text text-anchor="middle" x="1043" y="-31" font-family="Helvetica,sans-Serif" font-size="10.00">WithDefaultValues.expressionTags</text>
</a>
</g>
</g>
<!-- Node4&#45;&gt;Node5 -->
<g id="edge4_Node000004_Node000005" class="edge">
<title>Node4&#45;&gt;Node5</title>
<g id="a_edge4_Node000004_Node000005"><a xlink:title=" ">
<path fill="none" stroke="#63b8ff" d="M912.09,-52.86C920.63,-51.95 929.3,-51.02 937.9,-50.1"/>
<polygon fill="#63b8ff" stroke="#63b8ff" points="938.39,-53.57 947.96,-49.03 937.65,-46.61 938.39,-53.57"/>
</a>
</g>
</g>
<!-- Node5&#45;&gt;Node5 -->
<g id="edge5_Node000005_Node000005" class="edge">
<title>Node5&#45;&gt;Node5</title>
<g id="a_edge5_Node000005_Node000005"><a xlink:title=" ">
<path fill="none" stroke="#63b8ff" d="M1003.27,-54.28C994.45,-63.41 1007.69,-72 1043,-72 1063.97,-72 1077.15,-68.97 1082.56,-64.6"/>
<polygon fill="#63b8ff" stroke="#63b8ff" points="1086.06,-64.33 1082.73,-54.28 1079.06,-64.22 1086.06,-64.33"/>
</a>
</g>
</g>
<!-- Node6&#45;&gt;Node3 -->
<g id="edge9_Node000006_Node000003" class="edge">
<title>Node6&#45;&gt;Node3</title>
<g id="a_edge9_Node000006_Node000003"><a xlink:title=" ">
<path fill="none" stroke="#63b8ff" d="M729.8,-30.03C718.22,-31.37 706.17,-32.66 694.13,-33.86"/>
<polygon fill="#63b8ff" stroke="#63b8ff" points="693.65,-30.39 684.04,-34.85 694.33,-37.36 693.65,-30.39"/>
</a>
</g>
</g>
<!-- Node6&#45;&gt;Node5 -->
<g id="edge8_Node000006_Node000005" class="edge">
<title>Node6&#45;&gt;Node5</title>
<g id="a_edge8_Node000006_Node000005"><a xlink:title=" ">
<path fill="none" stroke="#63b8ff" d="M911.12,-25.04C919.95,-25.98 928.95,-26.94 937.87,-27.89"/>
<polygon fill="#63b8ff" stroke="#63b8ff" points="937.58,-31.38 947.9,-28.96 938.33,-24.42 937.58,-31.38"/>
</a>
</g>
</g>
</g>
</svg>
