<?xml version="1.0" encoding="UTF-8" standalone="no"?>
<!DOCTYPE svg PUBLIC "-//W3C//DTD SVG 1.1//EN"
 "http://www.w3.org/Graphics/SVG/1.1/DTD/svg11.dtd">
<!-- Generated by graphviz version 2.43.0 (0)
 -->
<!-- Title: com.teragrep.pth_06.ast.XMLQueryTest.testIndexPlusTimeQualifier Pages: 1 -->
<svg width="719pt" height="49pt"
 viewBox="0.00 0.00 719.00 49.00" xmlns="http://www.w3.org/2000/svg" xmlns:xlink="http://www.w3.org/1999/xlink">
<g id="graph0" class="graph" transform="scale(1 1) rotate(0) translate(4 45)">
<title>com.teragrep.pth_06.ast.XMLQueryTest.testIndexPlusTimeQualifier</title>
<!-- Node1 -->
<g id="Node000001" class="node">
<title>Node1</title>
<g id="a_Node000001"><a xlink:title=" ">
<polygon fill="#999999" stroke="#666666" points="180,-41 0,-41 0,0 180,0 180,-41"/>
<text text-anchor="start" x="8" y="-29" font-family="Helvetica,sans-Serif" font-size="10.00">com.teragrep.pth_06.ast.</text>
<text text-anchor="start" x="8" y="-18" font-family="Helvetica,sans-Serif" font-size="10.00">XMLQueryTest.testIndexPlusTime</text>
<text text-anchor="middle" x="90" y="-7" font-family="Helvetica,sans-Serif" font-size="10.00">Qualifier</text>
</a>
</g>
</g>
<!-- Node2 -->
<g id="Node000002" class="node">
<title>Node2</title>
<g id="a_Node000002"><a xlink:href="classcom_1_1teragrep_1_1pth__06_1_1ast_1_1XMLQuery.html#a8c1c17cbc6a73a109ec4b6a53cb561f3" target="_top" xlink:title=" ">
<polygon fill="white" stroke="#666666" points="355,-35.5 216,-35.5 216,-5.5 355,-5.5 355,-35.5"/>
<text text-anchor="start" x="224" y="-23.5" font-family="Helvetica,sans-Serif" font-size="10.00">com.teragrep.pth_06.ast.</text>
<text text-anchor="middle" x="285.5" y="-12.5" font-family="Helvetica,sans-Serif" font-size="10.00">XMLQuery.asAST</text>
</a>
</g>
</g>
<!-- Node1&#45;&gt;Node2 -->
<g id="edge1_Node000001_Node000002" class="edge">
<title>Node1&#45;&gt;Node2</title>
<g id="a_edge1_Node000001_Node000002"><a xlink:title=" ">
<path fill="none" stroke="#63b8ff" d="M180.1,-20.5C188.64,-20.5 197.25,-20.5 205.67,-20.5"/>
<polygon fill="#63b8ff" stroke="#63b8ff" points="205.84,-24 215.84,-20.5 205.84,-17 205.84,-24"/>
</a>
</g>
</g>
<!-- Node3 -->
<g id="Node000003" class="node">
<title>Node3</title>
<g id="a_Node000003"><a xlink:href="classcom_1_1teragrep_1_1pth__06_1_1ast_1_1XMLQuery.html#aa7549f8a3b0cf690e42626cc06db8140" target="_top" xlink:title=" ">
<polygon fill="white" stroke="#666666" points="536,-35.5 391,-35.5 391,-5.5 536,-5.5 536,-35.5"/>
<text text-anchor="start" x="399" y="-23.5" font-family="Helvetica,sans-Serif" font-size="10.00">com.teragrep.pth_06.ast.</text>
<text text-anchor="middle" x="463.5" y="-12.5" font-family="Helvetica,sans-Serif" font-size="10.00">XMLQuery.elementToNode</text>
</a>
</g>
</g>
<!-- Node2&#45;&gt;Node3 -->
<g id="edge2_Node000002_Node000003" class="edge">
<title>Node2&#45;&gt;Node3</title>
<g id="a_edge2_Node000002_Node000003"><a xlink:title=" ">
<path fill="none" stroke="#63b8ff" d="M355.05,-20.5C363.51,-20.5 372.23,-20.5 380.86,-20.5"/>
<polygon fill="#63b8ff" stroke="#63b8ff" points="380.94,-24 390.94,-20.5 380.94,-17 380.94,-24"/>
</a>
</g>
</g>
<!-- Node4 -->
<g id="Node000004" class="node">
<title>Node4</title>
<g id="a_Node000004"><a xlink:href="classcom_1_1teragrep_1_1pth__06_1_1ast_1_1XMLQuery.html#aaead840df751050baf578b6e32c50f38" target="_top" xlink:title=" ">
<polygon fill="white" stroke="#666666" points="711,-35.5 572,-35.5 572,-5.5 711,-5.5 711,-35.5"/>
<text text-anchor="start" x="580" y="-23.5" font-family="Helvetica,sans-Serif" font-size="10.00">com.teragrep.pth_06.ast.</text>
<text text-anchor="middle" x="641.5" y="-12.5" font-family="Helvetica,sans-Serif" font-size="10.00">XMLQuery.visitLogical</text>
</a>
</g>
</g>
<!-- Node3&#45;&gt;Node4 -->
<g id="edge3_Node000003_Node000004" class="edge">
<title>Node3&#45;&gt;Node4</title>
<g id="a_edge3_Node000003_Node000004"><a xlink:title=" ">
<path fill="none" stroke="#63b8ff" d="M536.09,-13.86C544.48,-13.75 553.07,-13.72 561.55,-13.78"/>
<polygon fill="#63b8ff" stroke="#63b8ff" points="561.79,-17.28 571.82,-13.9 561.86,-10.29 561.79,-17.28"/>
</a>
</g>
</g>
<!-- Node4&#45;&gt;Node3 -->
<g id="edge4_Node000004_Node000003" class="edge">
<title>Node4&#45;&gt;Node3</title>
<g id="a_edge4_Node000004_Node000003"><a xlink:title=" ">
<path fill="none" stroke="#63b8ff" d="M571.82,-27.1C563.39,-27.23 554.72,-27.28 546.12,-27.23"/>
<polygon fill="#63b8ff" stroke="#63b8ff" points="546.12,-23.73 536.09,-27.14 546.05,-30.73 546.12,-23.73"/>
</a>
</g>
</g>
</g>
</svg>
