<?xml version="1.0" encoding="UTF-8" standalone="no"?>
<!DOCTYPE svg PUBLIC "-//W3C//DTD SVG 1.1//EN"
 "http://www.w3.org/Graphics/SVG/1.1/DTD/svg11.dtd">
<!-- Generated by graphviz version 2.43.0 (0)
 -->
<!-- Title: com.teragrep.pth_06.ast.analyze.ScanPlanImpl.merge Pages: 1 -->
<svg width="620pt" height="182pt"
 viewBox="0.00 0.00 620.00 182.00" xmlns="http://www.w3.org/2000/svg" xmlns:xlink="http://www.w3.org/1999/xlink">
<g id="graph0" class="graph" transform="scale(1 1) rotate(0) translate(4 178)">
<title>com.teragrep.pth_06.ast.analyze.ScanPlanImpl.merge</title>
<!-- Node1 -->
<g id="Node000001" class="node">
<title>Node1</title>
<g id="a_Node000001"><a xlink:title="Merge two ScanRanges with the smaller earliest and larger latest values.">
<polygon fill="#999999" stroke="#666666" points="180,-131 0,-131 0,-101 180,-101 180,-131"/>
<text text-anchor="start" x="8" y="-119" font-family="Helvetica,sans-Serif" font-size="10.00">com.teragrep.pth_06.ast.analyze.</text>
<text text-anchor="middle" x="90" y="-108" font-family="Helvetica,sans-Serif" font-size="10.00">ScanPlanImpl.merge</text>
</a>
</g>
</g>
<!-- Node2 -->
<g id="Node000002" class="node">
<title>Node2</title>
<g id="a_Node000002"><a xlink:href="interfacecom_1_1teragrep_1_1pth__06_1_1ast_1_1analyze_1_1ScanPlan.html#ac8cf71cc89d66b8a712bdb95f4766219" target="_top" xlink:title=" ">
<polygon fill="white" stroke="#666666" points="612,-174 432,-174 432,-144 612,-144 612,-174"/>
<text text-anchor="start" x="440" y="-162" font-family="Helvetica,sans-Serif" font-size="10.00">com.teragrep.pth_06.ast.analyze.</text>
<text text-anchor="middle" x="522" y="-151" font-family="Helvetica,sans-Serif" font-size="10.00">ScanPlan.earliest</text>
</a>
</g>
</g>
<!-- Node1&#45;&gt;Node2 -->
<g id="edge1_Node000001_Node000002" class="edge">
<title>Node1&#45;&gt;Node2</title>
<g id="a_edge1_Node000001_Node000002"><a xlink:title=" ">
<path fill="none" stroke="#63b8ff" d="M180.1,-124.91C250.46,-131.95 348.61,-141.76 421.53,-149.05"/>
<polygon fill="#63b8ff" stroke="#63b8ff" points="421.35,-152.55 431.65,-150.06 422.05,-145.59 421.35,-152.55"/>
</a>
</g>
</g>
<!-- Node3 -->
<g id="Node000003" class="node">
<title>Node3</title>
<g id="a_Node000003"><a xlink:href="interfacecom_1_1teragrep_1_1pth__06_1_1ast_1_1analyze_1_1ScanPlan.html#aec1f839cc717eaa9a7aae9776936abb0" target="_top" xlink:title=" ">
<polygon fill="white" stroke="#666666" points="612,-126 432,-126 432,-96 612,-96 612,-126"/>
<text text-anchor="start" x="440" y="-114" font-family="Helvetica,sans-Serif" font-size="10.00">com.teragrep.pth_06.ast.analyze.</text>
<text text-anchor="middle" x="522" y="-103" font-family="Helvetica,sans-Serif" font-size="10.00">ScanPlan.latest</text>
</a>
</g>
</g>
<!-- Node1&#45;&gt;Node3 -->
<g id="edge2_Node000001_Node000003" class="edge">
<title>Node1&#45;&gt;Node3</title>
<g id="a_edge2_Node000001_Node000003"><a xlink:title=" ">
<path fill="none" stroke="#63b8ff" d="M180.1,-114.96C250.46,-114.15 348.61,-113 421.53,-112.16"/>
<polygon fill="#63b8ff" stroke="#63b8ff" points="421.69,-115.66 431.65,-112.04 421.61,-108.66 421.69,-115.66"/>
</a>
</g>
</g>
<!-- Node4 -->
<g id="Node000004" class="node">
<title>Node4</title>
<g id="a_Node000004"><a xlink:href="classcom_1_1teragrep_1_1pth__06_1_1ast_1_1analyze_1_1ScanPlanImpl.html#af3961a10733d641e35fd2954f07212cd" target="_top" xlink:title="Returns true if the ranges overlap or touch.">
<polygon fill="white" stroke="#666666" points="396,-88 216,-88 216,-58 396,-58 396,-88"/>
<text text-anchor="start" x="224" y="-76" font-family="Helvetica,sans-Serif" font-size="10.00">com.teragrep.pth_06.ast.analyze.</text>
<text text-anchor="middle" x="306" y="-65" font-family="Helvetica,sans-Serif" font-size="10.00">ScanPlanImpl.mergeable</text>
</a>
</g>
</g>
<!-- Node1&#45;&gt;Node4 -->
<g id="edge3_Node000001_Node000004" class="edge">
<title>Node1&#45;&gt;Node4</title>
<g id="a_edge3_Node000001_Node000004"><a xlink:title=" ">
<path fill="none" stroke="#63b8ff" d="M165.85,-100.96C183.44,-97.43 202.31,-93.63 220.3,-90.02"/>
<polygon fill="#63b8ff" stroke="#63b8ff" points="221.08,-93.43 230.2,-88.03 219.7,-86.57 221.08,-93.43"/>
</a>
</g>
</g>
<!-- Node4&#45;&gt;Node2 -->
<g id="edge4_Node000004_Node000002" class="edge">
<title>Node4&#45;&gt;Node2</title>
<g id="a_edge4_Node000004_Node000002"><a xlink:title=" ">
<path fill="none" stroke="#63b8ff" d="M333.62,-88.13C358.47,-101.78 396.88,-121.71 432,-135 437.47,-137.07 443.18,-139.04 448.97,-140.89"/>
<polygon fill="#63b8ff" stroke="#63b8ff" points="448.15,-144.3 458.74,-143.89 450.21,-137.61 448.15,-144.3"/>
</a>
</g>
</g>
<!-- Node4&#45;&gt;Node3 -->
<g id="edge6_Node000004_Node000003" class="edge">
<title>Node4&#45;&gt;Node3</title>
<g id="a_edge6_Node000004_Node000003"><a xlink:title=" ">
<path fill="none" stroke="#63b8ff" d="M391.58,-88.02C402.96,-90.04 414.7,-92.12 426.25,-94.18"/>
<polygon fill="#63b8ff" stroke="#63b8ff" points="425.88,-97.66 436.34,-95.97 427.1,-90.77 425.88,-97.66"/>
</a>
</g>
</g>
<!-- Node5 -->
<g id="Node000005" class="node">
<title>Node5</title>
<g id="a_Node000005"><a xlink:href="interfacecom_1_1teragrep_1_1pth__06_1_1ast_1_1analyze_1_1ScanPlan.html#afa890c73d606f2b5250cd9a31b149801" target="_top" xlink:title=" ">
<polygon fill="white" stroke="#666666" points="612,-78 432,-78 432,-48 612,-48 612,-78"/>
<text text-anchor="start" x="440" y="-66" font-family="Helvetica,sans-Serif" font-size="10.00">com.teragrep.pth_06.ast.analyze.</text>
<text text-anchor="middle" x="522" y="-55" font-family="Helvetica,sans-Serif" font-size="10.00">ScanPlan.filterList</text>
</a>
</g>
</g>
<!-- Node4&#45;&gt;Node5 -->
<g id="edge5_Node000004_Node000005" class="edge">
<title>Node4&#45;&gt;Node5</title>
<g id="a_edge5_Node000004_Node000005"><a xlink:title=" ">
<path fill="none" stroke="#63b8ff" d="M396.21,-68.83C404.7,-68.43 413.34,-68.03 421.92,-67.63"/>
<polygon fill="#63b8ff" stroke="#63b8ff" points="422.11,-71.12 431.94,-67.16 421.79,-64.13 422.11,-71.12"/>
</a>
</g>
</g>
<!-- Node6 -->
<g id="Node000006" class="node">
<title>Node6</title>
<g id="a_Node000006"><a xlink:href="interfacecom_1_1teragrep_1_1pth__06_1_1ast_1_1analyze_1_1ScanPlan.html#a889d68df703b0c50a3397e53e3ecf0d2" target="_top" xlink:title=" ">
<polygon fill="white" stroke="#666666" points="612,-30 432,-30 432,0 612,0 612,-30"/>
<text text-anchor="start" x="440" y="-18" font-family="Helvetica,sans-Serif" font-size="10.00">com.teragrep.pth_06.ast.analyze.</text>
<text text-anchor="middle" x="522" y="-7" font-family="Helvetica,sans-Serif" font-size="10.00">ScanPlan.streamId</text>
</a>
</g>
</g>
<!-- Node4&#45;&gt;Node6 -->
<g id="edge7_Node000004_Node000006" class="edge">
<title>Node4&#45;&gt;Node6</title>
<g id="a_edge7_Node000004_Node000006"><a xlink:title=" ">
<path fill="none" stroke="#63b8ff" d="M362.06,-57.99C383.84,-52.07 409.1,-45.2 432,-39 439.49,-36.97 447.34,-34.85 455.15,-32.74"/>
<polygon fill="#63b8ff" stroke="#63b8ff" points="456.23,-36.07 464.97,-30.09 454.41,-29.32 456.23,-36.07"/>
</a>
</g>
</g>
</g>
</svg>
