<?xml version="1.0" encoding="UTF-8" standalone="no"?>
<!DOCTYPE svg PUBLIC "-//W3C//DTD SVG 1.1//EN"
 "http://www.w3.org/Graphics/SVG/1.1/DTD/svg11.dtd">
<!-- Generated by graphviz version 2.43.0 (0)
 -->
<!-- Title: com.teragrep.pth_06.ast.XMLQueryTest.testSingleElementQuery Pages: 1 -->
<svg width="747pt" height="38pt"
 viewBox="0.00 0.00 747.00 38.00" xmlns="http://www.w3.org/2000/svg" xmlns:xlink="http://www.w3.org/1999/xlink">
<g id="graph0" class="graph" transform="scale(1 1) rotate(0) translate(4 34)">
<title>com.teragrep.pth_06.ast.XMLQueryTest.testSingleElementQuery</title>
<!-- Node1 -->
<g id="Node000001" class="node">
<title>Node1</title>
<g id="a_Node000001"><a xlink:title=" ">
<polygon fill="#999999" stroke="#666666" points="208,-30 0,-30 0,0 208,0 208,-30"/>
<text text-anchor="start" x="8" y="-18" font-family="Helvetica,sans-Serif" font-size="10.00">com.teragrep.pth_06.ast.</text>
<text text-anchor="middle" x="104" y="-7" font-family="Helvetica,sans-Serif" font-size="10.00">XMLQueryTest.testSingleElementQuery</text>
</a>
</g>
</g>
<!-- Node2 -->
<g id="Node000002" class="node">
<title>Node2</title>
<g id="a_Node000002"><a xlink:href="classcom_1_1teragrep_1_1pth__06_1_1ast_1_1XMLQuery.html#a8c1c17cbc6a73a109ec4b6a53cb561f3" target="_top" xlink:title=" ">
<polygon fill="white" stroke="#666666" points="383,-30 244,-30 244,0 383,0 383,-30"/>
<text text-anchor="start" x="252" y="-18" font-family="Helvetica,sans-Serif" font-size="10.00">com.teragrep.pth_06.ast.</text>
<text text-anchor="middle" x="313.5" y="-7" font-family="Helvetica,sans-Serif" font-size="10.00">XMLQuery.asAST</text>
</a>
</g>
</g>
<!-- Node1&#45;&gt;Node2 -->
<g id="edge1_Node000001_Node000002" class="edge">
<title>Node1&#45;&gt;Node2</title>
<g id="a_edge1_Node000001_Node000002"><a xlink:title=" ">
<path fill="none" stroke="#63b8ff" d="M208.14,-15C216.75,-15 225.36,-15 233.74,-15"/>
<polygon fill="#63b8ff" stroke="#63b8ff" points="233.83,-18.5 243.83,-15 233.83,-11.5 233.83,-18.5"/>
</a>
</g>
</g>
<!-- Node3 -->
<g id="Node000003" class="node">
<title>Node3</title>
<g id="a_Node000003"><a xlink:href="classcom_1_1teragrep_1_1pth__06_1_1ast_1_1XMLQuery.html#aa7549f8a3b0cf690e42626cc06db8140" target="_top" xlink:title=" ">
<polygon fill="white" stroke="#666666" points="564,-30 419,-30 419,0 564,0 564,-30"/>
<text text-anchor="start" x="427" y="-18" font-family="Helvetica,sans-Serif" font-size="10.00">com.teragrep.pth_06.ast.</text>
<text text-anchor="middle" x="491.5" y="-7" font-family="Helvetica,sans-Serif" font-size="10.00">XMLQuery.elementToNode</text>
</a>
</g>
</g>
<!-- Node2&#45;&gt;Node3 -->
<g id="edge2_Node000002_Node000003" class="edge">
<title>Node2&#45;&gt;Node3</title>
<g id="a_edge2_Node000002_Node000003"><a xlink:title=" ">
<path fill="none" stroke="#63b8ff" d="M383.05,-15C391.51,-15 400.23,-15 408.86,-15"/>
<polygon fill="#63b8ff" stroke="#63b8ff" points="408.94,-18.5 418.94,-15 408.94,-11.5 408.94,-18.5"/>
</a>
</g>
</g>
<!-- Node4 -->
<g id="Node000004" class="node">
<title>Node4</title>
<g id="a_Node000004"><a xlink:href="classcom_1_1teragrep_1_1pth__06_1_1ast_1_1XMLQuery.html#aaead840df751050baf578b6e32c50f38" target="_top" xlink:title=" ">
<polygon fill="white" stroke="#666666" points="739,-30 600,-30 600,0 739,0 739,-30"/>
<text text-anchor="start" x="608" y="-18" font-family="Helvetica,sans-Serif" font-size="10.00">com.teragrep.pth_06.ast.</text>
<text text-anchor="middle" x="669.5" y="-7" font-family="Helvetica,sans-Serif" font-size="10.00">XMLQuery.visitLogical</text>
</a>
</g>
</g>
<!-- Node3&#45;&gt;Node4 -->
<g id="edge3_Node000003_Node000004" class="edge">
<title>Node3&#45;&gt;Node4</title>
<g id="a_edge3_Node000003_Node000004"><a xlink:title=" ">
<path fill="none" stroke="#63b8ff" d="M564.09,-8.36C572.48,-8.25 581.07,-8.22 589.55,-8.28"/>
<polygon fill="#63b8ff" stroke="#63b8ff" points="589.79,-11.78 599.82,-8.4 589.86,-4.79 589.79,-11.78"/>
</a>
</g>
</g>
<!-- Node4&#45;&gt;Node3 -->
<g id="edge4_Node000004_Node000003" class="edge">
<title>Node4&#45;&gt;Node3</title>
<g id="a_edge4_Node000004_Node000003"><a xlink:title=" ">
<path fill="none" stroke="#63b8ff" d="M599.82,-21.6C591.39,-21.73 582.72,-21.78 574.12,-21.73"/>
<polygon fill="#63b8ff" stroke="#63b8ff" points="574.12,-18.23 564.09,-21.64 574.05,-25.23 574.12,-18.23"/>
</a>
</g>
</g>
</g>
</svg>
