<?xml version="1.0" encoding="UTF-8" standalone="no"?>
<!DOCTYPE svg PUBLIC "-//W3C//DTD SVG 1.1//EN"
 "http://www.w3.org/Graphics/SVG/1.1/DTD/svg11.dtd">
<!-- Generated by graphviz version 2.43.0 (0)
 -->
<!-- Title: com.teragrep.pth_06.ast.transform.WithDefaultValues.expressionTags Pages: 1 -->
<svg width="1164pt" height="373pt"
 viewBox="0.00 0.00 1164.00 372.50" xmlns="http://www.w3.org/2000/svg" xmlns:xlink="http://www.w3.org/1999/xlink">
<g id="graph0" class="graph" transform="scale(1 1) rotate(0) translate(4 368.5)">
<title>com.teragrep.pth_06.ast.transform.WithDefaultValues.expressionTags</title>
<!-- Node1 -->
<g id="Node000001" class="node">
<title>Node1</title>
<g id="a_Node000001"><a xlink:title=" ">
<polygon fill="#999999" stroke="#666666" points="1156,-143 966,-143 966,-113 1156,-113 1156,-143"/>
<text text-anchor="start" x="974" y="-131" font-family="Helvetica,sans-Serif" font-size="10.00">com.teragrep.pth_06.ast.transform.</text>
<text text-anchor="middle" x="1061" y="-120" font-family="Helvetica,sans-Serif" font-size="10.00">WithDefaultValues.expressionTags</text>
</a>
</g>
</g>
<!-- Node1&#45;&gt;Node1 -->
<g id="edge15_Node000001_Node000001" class="edge">
<title>Node1&#45;&gt;Node1</title>
<g id="a_edge15_Node000001_Node000001"><a xlink:title=" ">
<path fill="none" stroke="#63b8ff" d="M1100.56,-153.6C1095.15,-157.97 1081.97,-161 1061,-161 1025.69,-161 1012.45,-152.41 1021.27,-143.28"/>
<polygon fill="#63b8ff" stroke="#63b8ff" points="1104.06,-153.33 1100.73,-143.28 1097.06,-153.22 1104.06,-153.33"/>
</a>
</g>
</g>
<!-- Node2 -->
<g id="Node000002" class="node">
<title>Node2</title>
<g id="a_Node000002"><a xlink:href="classcom_1_1teragrep_1_1pth__06_1_1ast_1_1transform_1_1WithDefaultValues.html#ac53e9da4d27289a430152a8b67aa7e6b" target="_top" xlink:title=" ">
<polygon fill="white" stroke="#666666" points="930,-168 738,-168 738,-138 930,-138 930,-168"/>
<text text-anchor="start" x="746" y="-156" font-family="Helvetica,sans-Serif" font-size="10.00">com.teragrep.pth_06.ast.transform.</text>
<text text-anchor="middle" x="834" y="-145" font-family="Helvetica,sans-Serif" font-size="10.00">WithDefaultValues.andWithDefaults</text>
</a>
</g>
</g>
<!-- Node1&#45;&gt;Node2 -->
<g id="edge1_Node000001_Node000002" class="edge">
<title>Node1&#45;&gt;Node2</title>
<g id="a_edge1_Node000001_Node000002"><a xlink:title=" ">
<path fill="none" stroke="#63b8ff" d="M955.87,-139.57C947.31,-140.52 938.68,-141.48 930.19,-142.42"/>
<polygon fill="#63b8ff" stroke="#63b8ff" points="956.33,-143.04 965.88,-138.46 955.56,-136.08 956.33,-143.04"/>
</a>
</g>
</g>
<!-- Node4 -->
<g id="Node000004" class="node">
<title>Node4</title>
<g id="a_Node000004"><a xlink:href="classcom_1_1teragrep_1_1pth__06_1_1ast_1_1transform_1_1WithDefaultValues.html#af8c587422cbf070fc6fea9aba68705d9" target="_top" xlink:title=" ">
<polygon fill="white" stroke="#666666" points="447,-144 257,-144 257,-114 447,-114 447,-144"/>
<text text-anchor="start" x="265" y="-132" font-family="Helvetica,sans-Serif" font-size="10.00">com.teragrep.pth_06.ast.transform.</text>
<text text-anchor="middle" x="352" y="-121" font-family="Helvetica,sans-Serif" font-size="10.00">WithDefaultValues.orWithDefaults</text>
</a>
</g>
</g>
<!-- Node1&#45;&gt;Node4 -->
<g id="edge16_Node000001_Node000004" class="edge">
<title>Node1&#45;&gt;Node4</title>
<g id="a_edge16_Node000001_Node000004"><a xlink:title=" ">
<path fill="none" stroke="#63b8ff" d="M955.54,-125.63C839.95,-123.4 648.16,-120.83 483,-124 471.37,-124.22 459.16,-124.56 447.07,-124.95"/>
<polygon fill="#63b8ff" stroke="#63b8ff" points="955.73,-129.14 965.79,-125.84 955.86,-122.14 955.73,-129.14"/>
</a>
</g>
</g>
<!-- Node3 -->
<g id="Node000003" class="node">
<title>Node3</title>
<g id="a_Node000003"><a xlink:href="classcom_1_1teragrep_1_1pth__06_1_1ast_1_1transform_1_1WithDefaultValues.html#a371bd3fba44c9f320d2b39f5e60cb82c" target="_top" xlink:title=" ">
<polygon fill="white" stroke="#666666" points="702,-173.5 483,-173.5 483,-132.5 702,-132.5 702,-173.5"/>
<text text-anchor="start" x="491" y="-161.5" font-family="Helvetica,sans-Serif" font-size="10.00">com.teragrep.pth_06.ast.transform.</text>
<text text-anchor="start" x="491" y="-150.5" font-family="Helvetica,sans-Serif" font-size="10.00">WithDefaultValues.recursiveWithDefaults</text>
<text text-anchor="middle" x="592.5" y="-139.5" font-family="Helvetica,sans-Serif" font-size="10.00">Expression</text>
</a>
</g>
</g>
<!-- Node2&#45;&gt;Node3 -->
<g id="edge2_Node000002_Node000003" class="edge">
<title>Node2&#45;&gt;Node3</title>
<g id="a_edge2_Node000002_Node000003"><a xlink:title=" ">
<path fill="none" stroke="#63b8ff" d="M727.73,-146.29C719.27,-146.24 710.71,-146.24 702.22,-146.28"/>
<polygon fill="#63b8ff" stroke="#63b8ff" points="727.97,-149.8 738,-146.38 728.03,-142.8 727.97,-149.8"/>
</a>
</g>
</g>
<!-- Node3&#45;&gt;Node2 -->
<g id="edge3_Node000003_Node000002" class="edge">
<title>Node3&#45;&gt;Node2</title>
<g id="a_edge3_Node000003_Node000002"><a xlink:title=" ">
<path fill="none" stroke="#63b8ff" d="M712.32,-159.75C720.93,-159.75 729.55,-159.71 738,-159.62"/>
<polygon fill="#63b8ff" stroke="#63b8ff" points="712.23,-156.25 702.22,-159.72 712.21,-163.25 712.23,-156.25"/>
</a>
</g>
</g>
<!-- Node3&#45;&gt;Node4 -->
<g id="edge4_Node000003_Node000004" class="edge">
<title>Node3&#45;&gt;Node4</title>
<g id="a_edge4_Node000003_Node000004"><a xlink:title=" ">
<path fill="none" stroke="#63b8ff" d="M472.64,-134.29C464.05,-133.42 455.45,-132.6 447.03,-131.85"/>
<polygon fill="#63b8ff" stroke="#63b8ff" points="472.41,-137.78 482.72,-135.33 473.13,-130.82 472.41,-137.78"/>
</a>
</g>
</g>
<!-- Node5 -->
<g id="Node000005" class="node">
<title>Node5</title>
<g id="a_Node000005"><a xlink:href="classcom_1_1teragrep_1_1pth__06_1_1ast_1_1transform_1_1WithDefaultValues.html#a3cd2907c54910cabd6d8cb52ff49215f" target="_top" xlink:title=" ">
<polygon fill="white" stroke="#666666" points="447,-192 257,-192 257,-162 447,-162 447,-192"/>
<text text-anchor="start" x="265" y="-180" font-family="Helvetica,sans-Serif" font-size="10.00">com.teragrep.pth_06.ast.transform.</text>
<text text-anchor="middle" x="352" y="-169" font-family="Helvetica,sans-Serif" font-size="10.00">WithDefaultValues.transformed</text>
</a>
</g>
</g>
<!-- Node3&#45;&gt;Node5 -->
<g id="edge6_Node000003_Node000005" class="edge">
<title>Node3&#45;&gt;Node5</title>
<g id="a_edge6_Node000003_Node000005"><a xlink:title=" ">
<path fill="none" stroke="#63b8ff" d="M472.64,-164.96C464.05,-165.83 455.45,-166.69 447.03,-167.54"/>
<polygon fill="#63b8ff" stroke="#63b8ff" points="473.12,-168.43 482.72,-163.95 472.42,-161.47 473.12,-168.43"/>
</a>
</g>
</g>
<!-- Node4&#45;&gt;Node3 -->
<g id="edge5_Node000004_Node000003" class="edge">
<title>Node4&#45;&gt;Node3</title>
<g id="a_edge5_Node000004_Node000003"><a xlink:title=" ">
<path fill="none" stroke="#63b8ff" d="M447.7,-145.15C459.21,-146.43 471.03,-147.66 482.72,-148.78"/>
<polygon fill="#63b8ff" stroke="#63b8ff" points="448.02,-141.66 437.69,-144.01 447.23,-148.62 448.02,-141.66"/>
</a>
</g>
</g>
<!-- Node5&#45;&gt;Node5 -->
<g id="edge14_Node000005_Node000005" class="edge">
<title>Node5&#45;&gt;Node5</title>
<g id="a_edge14_Node000005_Node000005"><a xlink:title=" ">
<path fill="none" stroke="#63b8ff" d="M394.01,-202.6C388.27,-206.97 374.27,-210 352,-210 314.5,-210 300.44,-201.41 309.81,-192.28"/>
<polygon fill="#63b8ff" stroke="#63b8ff" points="397.51,-202.33 394.19,-192.28 390.51,-202.21 397.51,-202.33"/>
</a>
</g>
</g>
<!-- Node6 -->
<g id="Node000006" class="node">
<title>Node6</title>
<g id="a_Node000006"><a xlink:href="classcom_1_1teragrep_1_1pth__06_1_1ast_1_1transform_1_1WithDefaultValuesTest.html#a233224ccea116a4325d533bb23639f57" target="_top" xlink:title=" ">
<polygon fill="white" stroke="#666666" points="221,-364.5 0,-364.5 0,-323.5 221,-323.5 221,-364.5"/>
<text text-anchor="start" x="8" y="-352.5" font-family="Helvetica,sans-Serif" font-size="10.00">com.teragrep.pth_06.ast.transform.</text>
<text text-anchor="start" x="8" y="-341.5" font-family="Helvetica,sans-Serif" font-size="10.00">WithDefaultValuesTest.testAndExpression</text>
<text text-anchor="middle" x="110.5" y="-330.5" font-family="Helvetica,sans-Serif" font-size="10.00">Children</text>
</a>
</g>
</g>
<!-- Node5&#45;&gt;Node6 -->
<g id="edge7_Node000005_Node000006" class="edge">
<title>Node5&#45;&gt;Node6</title>
<g id="a_edge7_Node000005_Node000006"><a xlink:title=" ">
<path fill="none" stroke="#63b8ff" d="M334.88,-200.75C312.78,-231.48 270.16,-284.57 221,-314 215.08,-317.54 208.73,-320.68 202.19,-323.45"/>
<polygon fill="#63b8ff" stroke="#63b8ff" points="337.91,-202.53 340.81,-192.34 332.19,-198.49 337.91,-202.53"/>
</a>
</g>
</g>
<!-- Node7 -->
<g id="Node000007" class="node">
<title>Node7</title>
<g id="a_Node000007"><a xlink:href="classcom_1_1teragrep_1_1pth__06_1_1ast_1_1transform_1_1WithDefaultValuesTest.html#ac16dde1dbe11d8ceb7d2f66f569fa095" target="_top" xlink:title=" ">
<polygon fill="white" stroke="#666666" points="221,-305 0,-305 0,-275 221,-275 221,-305"/>
<text text-anchor="start" x="8" y="-293" font-family="Helvetica,sans-Serif" font-size="10.00">com.teragrep.pth_06.ast.transform.</text>
<text text-anchor="middle" x="110.5" y="-282" font-family="Helvetica,sans-Serif" font-size="10.00">WithDefaultValuesTest.testDefaultEarliest</text>
</a>
</g>
</g>
<!-- Node5&#45;&gt;Node7 -->
<g id="edge8_Node000005_Node000007" class="edge">
<title>Node5&#45;&gt;Node7</title>
<g id="a_edge8_Node000005_Node000007"><a xlink:title=" ">
<path fill="none" stroke="#63b8ff" d="M325.93,-198.55C300.95,-218.92 260.7,-248.84 221,-266 213.05,-269.44 204.56,-272.4 195.95,-274.96"/>
<polygon fill="#63b8ff" stroke="#63b8ff" points="328.32,-201.12 333.79,-192.05 323.86,-195.73 328.32,-201.12"/>
</a>
</g>
</g>
<!-- Node8 -->
<g id="Node000008" class="node">
<title>Node8</title>
<g id="a_Node000008"><a xlink:href="classcom_1_1teragrep_1_1pth__06_1_1ast_1_1transform_1_1WithDefaultValuesTest.html#ab174088e0621303a1257586f63107e8b" target="_top" xlink:title=" ">
<polygon fill="white" stroke="#666666" points="216.5,-256.5 4.5,-256.5 4.5,-215.5 216.5,-215.5 216.5,-256.5"/>
<text text-anchor="start" x="12.5" y="-244.5" font-family="Helvetica,sans-Serif" font-size="10.00">com.teragrep.pth_06.ast.transform.</text>
<text text-anchor="start" x="12.5" y="-233.5" font-family="Helvetica,sans-Serif" font-size="10.00">WithDefaultValuesTest.testDefaultIndex</text>
<text text-anchor="middle" x="110.5" y="-222.5" font-family="Helvetica,sans-Serif" font-size="10.00">Expression</text>
</a>
</g>
</g>
<!-- Node5&#45;&gt;Node8 -->
<g id="edge9_Node000005_Node000008" class="edge">
<title>Node5&#45;&gt;Node8</title>
<g id="a_edge9_Node000005_Node000008"><a xlink:title=" ">
<path fill="none" stroke="#63b8ff" d="M279.93,-194.51C253.27,-201.08 222.72,-208.6 195.03,-215.42"/>
<polygon fill="#63b8ff" stroke="#63b8ff" points="281.07,-197.83 289.94,-192.04 279.4,-191.03 281.07,-197.83"/>
</a>
</g>
</g>
<!-- Node9 -->
<g id="Node000009" class="node">
<title>Node9</title>
<g id="a_Node000009"><a xlink:href="classcom_1_1teragrep_1_1pth__06_1_1ast_1_1transform_1_1WithDefaultValuesTest.html#acb45ad457a3b9de406a5227c5f544a6f" target="_top" xlink:title=" ">
<polygon fill="white" stroke="#666666" points="212,-197.5 9,-197.5 9,-156.5 212,-156.5 212,-197.5"/>
<text text-anchor="start" x="17" y="-185.5" font-family="Helvetica,sans-Serif" font-size="10.00">com.teragrep.pth_06.ast.transform.</text>
<text text-anchor="start" x="17" y="-174.5" font-family="Helvetica,sans-Serif" font-size="10.00">WithDefaultValuesTest.testDefaultsDo</text>
<text text-anchor="middle" x="110.5" y="-163.5" font-family="Helvetica,sans-Serif" font-size="10.00">NotOverwriteExisting</text>
</a>
</g>
</g>
<!-- Node5&#45;&gt;Node9 -->
<g id="edge10_Node000005_Node000009" class="edge">
<title>Node5&#45;&gt;Node9</title>
<g id="a_edge10_Node000005_Node000009"><a xlink:title=" ">
<path fill="none" stroke="#63b8ff" d="M246.65,-177C235.16,-177 223.48,-177 212.04,-177"/>
<polygon fill="#63b8ff" stroke="#63b8ff" points="246.69,-180.5 256.69,-177 246.69,-173.5 246.69,-180.5"/>
</a>
</g>
</g>
<!-- Node10 -->
<g id="Node000010" class="node">
<title>Node10</title>
<g id="a_Node000010"><a xlink:href="classcom_1_1teragrep_1_1pth__06_1_1ast_1_1transform_1_1WithDefaultValuesTest.html#a820fe25e5b150406466c6ab722ee3916" target="_top" xlink:title=" ">
<polygon fill="white" stroke="#666666" points="205.5,-138 15.5,-138 15.5,-108 205.5,-108 205.5,-138"/>
<text text-anchor="start" x="23.5" y="-126" font-family="Helvetica,sans-Serif" font-size="10.00">com.teragrep.pth_06.ast.transform.</text>
<text text-anchor="middle" x="110.5" y="-115" font-family="Helvetica,sans-Serif" font-size="10.00">WithDefaultValuesTest.testLatest</text>
</a>
</g>
</g>
<!-- Node5&#45;&gt;Node10 -->
<g id="edge11_Node000005_Node000010" class="edge">
<title>Node5&#45;&gt;Node10</title>
<g id="a_edge11_Node000005_Node000010"><a xlink:title=" ">
<path fill="none" stroke="#63b8ff" d="M274.41,-159.73C243.49,-152.76 208.13,-144.79 178.27,-138.05"/>
<polygon fill="#63b8ff" stroke="#63b8ff" points="273.76,-163.17 284.29,-161.96 275.3,-156.34 273.76,-163.17"/>
</a>
</g>
</g>
<!-- Node11 -->
<g id="Node000011" class="node">
<title>Node11</title>
<g id="a_Node000011"><a xlink:href="classcom_1_1teragrep_1_1pth__06_1_1ast_1_1transform_1_1WithDefaultValuesTest.html#a4dced6e16be7521206c7dabadc0b977a" target="_top" xlink:title=" ">
<polygon fill="white" stroke="#666666" points="217,-89.5 4,-89.5 4,-48.5 217,-48.5 217,-89.5"/>
<text text-anchor="start" x="12" y="-77.5" font-family="Helvetica,sans-Serif" font-size="10.00">com.teragrep.pth_06.ast.transform.</text>
<text text-anchor="start" x="12" y="-66.5" font-family="Helvetica,sans-Serif" font-size="10.00">WithDefaultValuesTest.testOrExpression</text>
<text text-anchor="middle" x="110.5" y="-55.5" font-family="Helvetica,sans-Serif" font-size="10.00">Children</text>
</a>
</g>
</g>
<!-- Node5&#45;&gt;Node11 -->
<g id="edge12_Node000005_Node000011" class="edge">
<title>Node5&#45;&gt;Node11</title>
<g id="a_edge12_Node000005_Node000011"><a xlink:title=" ">
<path fill="none" stroke="#63b8ff" d="M263.55,-157.2C261.29,-155.89 259.1,-154.49 257,-153 233.46,-136.33 244.39,-115.88 221,-99 216.05,-95.42 210.68,-92.27 205.09,-89.5"/>
<polygon fill="#63b8ff" stroke="#63b8ff" points="262.05,-160.37 272.55,-161.84 265.26,-154.15 262.05,-160.37"/>
</a>
</g>
</g>
<!-- Node12 -->
<g id="Node000012" class="node">
<title>Node12</title>
<g id="a_Node000012"><a xlink:href="classcom_1_1teragrep_1_1pth__06_1_1ast_1_1transform_1_1WithDefaultValues.html#a2d35e1274d6d71f04699951bbee270e2" target="_top" xlink:title=" ">
<polygon fill="white" stroke="#666666" points="205.5,-30 15.5,-30 15.5,0 205.5,0 205.5,-30"/>
<text text-anchor="start" x="23.5" y="-18" font-family="Helvetica,sans-Serif" font-size="10.00">com.teragrep.pth_06.ast.transform.</text>
<text text-anchor="middle" x="110.5" y="-7" font-family="Helvetica,sans-Serif" font-size="10.00">WithDefaultValues.toString</text>
</a>
</g>
</g>
<!-- Node5&#45;&gt;Node12 -->
<g id="edge13_Node000005_Node000012" class="edge">
<title>Node5&#45;&gt;Node12</title>
<g id="a_edge13_Node000005_Node000012"><a xlink:title=" ">
<path fill="none" stroke="#63b8ff" d="M260.44,-156.01C259.26,-155.05 258.11,-154.05 257,-153 218.66,-116.83 259.8,-75.67 221,-40 216.41,-35.78 211.25,-32.22 205.74,-29.23"/>
<polygon fill="#63b8ff" stroke="#63b8ff" points="258.52,-158.93 268.73,-161.76 262.51,-153.18 258.52,-158.93"/>
</a>
</g>
</g>
</g>
</svg>
