<?xml version="1.0" encoding="UTF-8" standalone="no"?>
<!DOCTYPE svg PUBLIC "-//W3C//DTD SVG 1.1//EN"
 "http://www.w3.org/Graphics/SVG/1.1/DTD/svg11.dtd">
<!-- Generated by graphviz version 2.43.0 (0)
 -->
<!-- Title: com.teragrep.pth_06.ast.expressions.EmptyExpressionTest.testValues Pages: 1 -->
<svg width="444pt" height="134pt"
 viewBox="0.00 0.00 444.00 134.00" xmlns="http://www.w3.org/2000/svg" xmlns:xlink="http://www.w3.org/1999/xlink">
<g id="graph0" class="graph" transform="scale(1 1) rotate(0) translate(4 130)">
<title>com.teragrep.pth_06.ast.expressions.EmptyExpressionTest.testValues</title>
<!-- Node1 -->
<g id="Node000001" class="node">
<title>Node1</title>
<g id="a_Node000001"><a xlink:title=" ">
<polygon fill="#999999" stroke="#666666" points="200,-78 0,-78 0,-48 200,-48 200,-78"/>
<text text-anchor="start" x="8" y="-66" font-family="Helvetica,sans-Serif" font-size="10.00">com.teragrep.pth_06.ast.expressions.</text>
<text text-anchor="middle" x="100" y="-55" font-family="Helvetica,sans-Serif" font-size="10.00">EmptyExpressionTest.testValues</text>
</a>
</g>
</g>
<!-- Node2 -->
<g id="Node000002" class="node">
<title>Node2</title>
<g id="a_Node000002"><a xlink:href="classcom_1_1teragrep_1_1pth__06_1_1ast_1_1expressions_1_1EmptyExpression.html#ac0f85c2b8db3a02557486a517ccd1fa3" target="_top" xlink:title=" ">
<polygon fill="white" stroke="#666666" points="436,-126 236,-126 236,-96 436,-96 436,-126"/>
<text text-anchor="start" x="244" y="-114" font-family="Helvetica,sans-Serif" font-size="10.00">com.teragrep.pth_06.ast.expressions.</text>
<text text-anchor="middle" x="336" y="-103" font-family="Helvetica,sans-Serif" font-size="10.00">EmptyExpression.isLogical</text>
</a>
</g>
</g>
<!-- Node1&#45;&gt;Node2 -->
<g id="edge1_Node000001_Node000002" class="edge">
<title>Node1&#45;&gt;Node2</title>
<g id="a_edge1_Node000001_Node000002"><a xlink:title=" ">
<path fill="none" stroke="#63b8ff" d="M174.4,-78.06C199.01,-83.1 226.62,-88.77 251.92,-93.96"/>
<polygon fill="#63b8ff" stroke="#63b8ff" points="251.36,-97.42 261.86,-96 252.77,-90.56 251.36,-97.42"/>
</a>
</g>
</g>
<!-- Node3 -->
<g id="Node000003" class="node">
<title>Node3</title>
<g id="a_Node000003"><a xlink:href="classcom_1_1teragrep_1_1pth__06_1_1ast_1_1expressions_1_1EmptyExpression.html#a078d63288f3ef83b6714a3612b1c80ba" target="_top" xlink:title=" ">
<polygon fill="white" stroke="#666666" points="436,-78 236,-78 236,-48 436,-48 436,-78"/>
<text text-anchor="start" x="244" y="-66" font-family="Helvetica,sans-Serif" font-size="10.00">com.teragrep.pth_06.ast.expressions.</text>
<text text-anchor="middle" x="336" y="-55" font-family="Helvetica,sans-Serif" font-size="10.00">EmptyExpression.isValue</text>
</a>
</g>
</g>
<!-- Node1&#45;&gt;Node3 -->
<g id="edge2_Node000001_Node000003" class="edge">
<title>Node1&#45;&gt;Node3</title>
<g id="a_edge2_Node000001_Node000003"><a xlink:title=" ">
<path fill="none" stroke="#63b8ff" d="M200.24,-63C208.74,-63 217.38,-63 225.95,-63"/>
<polygon fill="#63b8ff" stroke="#63b8ff" points="225.98,-66.5 235.98,-63 225.98,-59.5 225.98,-66.5"/>
</a>
</g>
</g>
<!-- Node4 -->
<g id="Node000004" class="node">
<title>Node4</title>
<g id="a_Node000004"><a xlink:href="classcom_1_1teragrep_1_1pth__06_1_1ast_1_1expressions_1_1EmptyExpression.html#a7b09c38a45dd80058824a93c78107d68" target="_top" xlink:title=" ">
<polygon fill="white" stroke="#666666" points="436,-30 236,-30 236,0 436,0 436,-30"/>
<text text-anchor="start" x="244" y="-18" font-family="Helvetica,sans-Serif" font-size="10.00">com.teragrep.pth_06.ast.expressions.</text>
<text text-anchor="middle" x="336" y="-7" font-family="Helvetica,sans-Serif" font-size="10.00">EmptyExpression.tag</text>
</a>
</g>
</g>
<!-- Node1&#45;&gt;Node4 -->
<g id="edge3_Node000001_Node000004" class="edge">
<title>Node1&#45;&gt;Node4</title>
<g id="a_edge3_Node000001_Node000004"><a xlink:title=" ">
<path fill="none" stroke="#63b8ff" d="M174.4,-47.94C199.01,-42.9 226.62,-37.23 251.92,-32.04"/>
<polygon fill="#63b8ff" stroke="#63b8ff" points="252.77,-35.44 261.86,-30 251.36,-28.58 252.77,-35.44"/>
</a>
</g>
</g>
</g>
</svg>
