<?xml version="1.0" encoding="UTF-8" standalone="no"?>
<!DOCTYPE svg PUBLIC "-//W3C//DTD SVG 1.1//EN"
 "http://www.w3.org/Graphics/SVG/1.1/DTD/svg11.dtd">
<!-- Generated by graphviz version 2.43.0 (0)
 -->
<!-- Title: com.teragrep.pth_06.TeragrepScan.reportDriverMetrics Pages: 1 -->
<svg width="616pt" height="140pt"
 viewBox="0.00 0.00 616.00 139.50" xmlns="http://www.w3.org/2000/svg" xmlns:xlink="http://www.w3.org/1999/xlink">
<g id="graph0" class="graph" transform="scale(1 1) rotate(0) translate(4 135.5)">
<title>com.teragrep.pth_06.TeragrepScan.reportDriverMetrics</title>
<!-- Node1 -->
<g id="Node000001" class="node">
<title>Node1</title>
<g id="a_Node000001"><a xlink:title=" ">
<polygon fill="#999999" stroke="#666666" points="163,-99 0,-99 0,-69 163,-69 163,-99"/>
<text text-anchor="start" x="8" y="-87" font-family="Helvetica,sans-Serif" font-size="10.00">com.teragrep.pth_06.Teragrep</text>
<text text-anchor="middle" x="81.5" y="-76" font-family="Helvetica,sans-Serif" font-size="10.00">Scan.reportDriverMetrics</text>
</a>
</g>
</g>
<!-- Node2 -->
<g id="Node000002" class="node">
<title>Node2</title>
<g id="a_Node000002"><a xlink:href="classcom_1_1teragrep_1_1pth__06_1_1ArchiveMicroStreamReader.html#a411ca28ffc87898fce4bc8e77cdc0ee3" target="_top" xlink:title=" ">
<polygon fill="white" stroke="#666666" points="399,-131.5 202,-131.5 202,-90.5 399,-90.5 399,-131.5"/>
<text text-anchor="start" x="210" y="-119.5" font-family="Helvetica,sans-Serif" font-size="10.00">com.teragrep.pth_06.Archive</text>
<text text-anchor="start" x="210" y="-108.5" font-family="Helvetica,sans-Serif" font-size="10.00">MicroStreamReader.currentDatabase</text>
<text text-anchor="middle" x="300.5" y="-97.5" font-family="Helvetica,sans-Serif" font-size="10.00">Metrics</text>
</a>
</g>
</g>
<!-- Node1&#45;&gt;Node2 -->
<g id="edge1_Node000001_Node000002" class="edge">
<title>Node1&#45;&gt;Node2</title>
<g id="a_edge1_Node000001_Node000002"><a xlink:title=" ">
<path fill="none" stroke="#63b8ff" d="M163.3,-94.05C172.6,-95.21 182.2,-96.4 191.78,-97.6"/>
<polygon fill="#63b8ff" stroke="#63b8ff" points="191.4,-101.08 201.75,-98.84 192.26,-94.13 191.4,-101.08"/>
</a>
</g>
</g>
<!-- Node5 -->
<g id="Node000005" class="node">
<title>Node5</title>
<g id="a_Node000005"><a xlink:href="classcom_1_1teragrep_1_1pth__06_1_1ArchiveMicroStreamReader.html#a36e4e32119c7727123f0afffcbb27780" target="_top" xlink:title=" ">
<polygon fill="white" stroke="#666666" points="402,-72 199,-72 199,-42 402,-42 402,-72"/>
<text text-anchor="start" x="207" y="-60" font-family="Helvetica,sans-Serif" font-size="10.00">com.teragrep.pth_06.Archive</text>
<text text-anchor="middle" x="300.5" y="-49" font-family="Helvetica,sans-Serif" font-size="10.00">MicroStreamReader.mostRecentOffset</text>
</a>
</g>
</g>
<!-- Node1&#45;&gt;Node5 -->
<g id="edge4_Node000001_Node000005" class="edge">
<title>Node1&#45;&gt;Node5</title>
<g id="a_edge4_Node000001_Node000005"><a xlink:title=" ">
<path fill="none" stroke="#63b8ff" d="M163.3,-73.95C171.62,-72.91 180.16,-71.85 188.73,-70.78"/>
<polygon fill="#63b8ff" stroke="#63b8ff" points="189.29,-74.24 198.78,-69.53 188.43,-67.29 189.29,-74.24"/>
</a>
</g>
</g>
<!-- Node3 -->
<g id="Node000003" class="node">
<title>Node3</title>
<g id="a_Node000003"><a xlink:href="classcom_1_1teragrep_1_1pth__06_1_1ArchiveMicroStreamReader.html#a755d5e92276f9154edcea0fec4f59dec" target="_top" xlink:title=" ">
<polygon fill="white" stroke="#666666" points="608,-78 438,-78 438,-48 608,-48 608,-78"/>
<text text-anchor="start" x="446" y="-66" font-family="Helvetica,sans-Serif" font-size="10.00">com.teragrep.pth_06.Archive</text>
<text text-anchor="middle" x="523" y="-55" font-family="Helvetica,sans-Serif" font-size="10.00">MicroStreamReader.useArchive</text>
</a>
</g>
</g>
<!-- Node2&#45;&gt;Node3 -->
<g id="edge2_Node000002_Node000003" class="edge">
<title>Node2&#45;&gt;Node3</title>
<g id="a_edge2_Node000002_Node000003"><a xlink:title=" ">
<path fill="none" stroke="#63b8ff" d="M395.97,-90.43C411.7,-87.01 427.86,-83.49 443.14,-80.17"/>
<polygon fill="#63b8ff" stroke="#63b8ff" points="444.02,-83.56 453.05,-78.01 442.53,-76.72 444.02,-83.56"/>
</a>
</g>
</g>
<!-- Node4 -->
<g id="Node000004" class="node">
<title>Node4</title>
<g id="a_Node000004"><a xlink:href="classcom_1_1teragrep_1_1pth__06_1_1ArchiveMicroStreamReader.html#a00eed7fba1d800a7745cccf4d729836d" target="_top" xlink:title=" ">
<polygon fill="white" stroke="#666666" points="605,-126 441,-126 441,-96 605,-96 605,-126"/>
<text text-anchor="start" x="449" y="-114" font-family="Helvetica,sans-Serif" font-size="10.00">com.teragrep.pth_06.Archive</text>
<text text-anchor="middle" x="523" y="-103" font-family="Helvetica,sans-Serif" font-size="10.00">MicroStreamReader.useHBase</text>
</a>
</g>
</g>
<!-- Node2&#45;&gt;Node4 -->
<g id="edge3_Node000002_Node000004" class="edge">
<title>Node2&#45;&gt;Node4</title>
<g id="a_edge3_Node000002_Node000004"><a xlink:title=" ">
<path fill="none" stroke="#63b8ff" d="M399.18,-111C409.63,-111 420.24,-111 430.61,-111"/>
<polygon fill="#63b8ff" stroke="#63b8ff" points="430.9,-114.5 440.9,-111 430.9,-107.5 430.9,-114.5"/>
</a>
</g>
</g>
<!-- Node5&#45;&gt;Node3 -->
<g id="edge5_Node000005_Node000003" class="edge">
<title>Node5&#45;&gt;Node3</title>
<g id="a_edge5_Node000005_Node000003"><a xlink:title=" ">
<path fill="none" stroke="#63b8ff" d="M402.07,-59.74C410.55,-59.97 419.11,-60.2 427.54,-60.43"/>
<polygon fill="#63b8ff" stroke="#63b8ff" points="427.65,-63.93 437.74,-60.71 427.84,-56.94 427.65,-63.93"/>
</a>
</g>
</g>
<!-- Node5&#45;&gt;Node4 -->
<g id="edge6_Node000005_Node000004" class="edge">
<title>Node5&#45;&gt;Node4</title>
<g id="a_edge6_Node000005_Node000004"><a xlink:title=" ">
<path fill="none" stroke="#63b8ff" d="M362.92,-72.04C390.17,-78.71 422.39,-86.61 450.69,-93.54"/>
<polygon fill="#63b8ff" stroke="#63b8ff" points="449.98,-96.97 460.53,-95.95 451.65,-90.17 449.98,-96.97"/>
</a>
</g>
</g>
<!-- Node6 -->
<g id="Node000006" class="node">
<title>Node6</title>
<g id="a_Node000006"><a xlink:href="classcom_1_1teragrep_1_1pth__06_1_1ArchiveMicroStreamReader.html#a2ae6ecb8b1cd94d98665cb042886cb0a" target="_top" xlink:title=" ">
<polygon fill="white" stroke="#666666" points="603.5,-30 442.5,-30 442.5,0 603.5,0 603.5,-30"/>
<text text-anchor="start" x="450.5" y="-18" font-family="Helvetica,sans-Serif" font-size="10.00">com.teragrep.pth_06.Archive</text>
<text text-anchor="middle" x="523" y="-7" font-family="Helvetica,sans-Serif" font-size="10.00">MicroStreamReader.useKafka</text>
</a>
</g>
</g>
<!-- Node5&#45;&gt;Node6 -->
<g id="edge7_Node000005_Node000006" class="edge">
<title>Node5&#45;&gt;Node6</title>
<g id="a_edge7_Node000005_Node000006"><a xlink:title=" ">
<path fill="none" stroke="#63b8ff" d="M380.48,-41.96C397.53,-38.71 415.66,-35.26 433.05,-31.94"/>
<polygon fill="#63b8ff" stroke="#63b8ff" points="434.03,-35.32 443.2,-30.01 432.72,-28.44 434.03,-35.32"/>
</a>
</g>
</g>
</g>
</svg>
