<?xml version="1.0" encoding="UTF-8" standalone="no"?>
<!DOCTYPE svg PUBLIC "-//W3C//DTD SVG 1.1//EN"
 "http://www.w3.org/Graphics/SVG/1.1/DTD/svg11.dtd">
<!-- Generated by graphviz version 2.43.0 (0)
 -->
<!-- Title: com.teragrep.pth_06.ast.transform.WithDefaultValuesTest.testDefaultIndexExpression Pages: 1 -->
<svg width="1155pt" height="86pt"
 viewBox="0.00 0.00 1155.00 86.00" xmlns="http://www.w3.org/2000/svg" xmlns:xlink="http://www.w3.org/1999/xlink">
<g id="graph0" class="graph" transform="scale(1 1) rotate(0) translate(4 82)">
<title>com.teragrep.pth_06.ast.transform.WithDefaultValuesTest.testDefaultIndexExpression</title>
<!-- Node1 -->
<g id="Node000001" class="node">
<title>Node1</title>
<g id="a_Node000001"><a xlink:title=" ">
<polygon fill="#999999" stroke="#666666" points="212,-59.5 0,-59.5 0,-18.5 212,-18.5 212,-59.5"/>
<text text-anchor="start" x="8" y="-47.5" font-family="Helvetica,sans-Serif" font-size="10.00">com.teragrep.pth_06.ast.transform.</text>
<text text-anchor="start" x="8" y="-36.5" font-family="Helvetica,sans-Serif" font-size="10.00">WithDefaultValuesTest.testDefaultIndex</text>
<text text-anchor="middle" x="106" y="-25.5" font-family="Helvetica,sans-Serif" font-size="10.00">Expression</text>
</a>
</g>
</g>
<!-- Node2 -->
<g id="Node000002" class="node">
<title>Node2</title>
<g id="a_Node000002"><a xlink:href="classcom_1_1teragrep_1_1pth__06_1_1ast_1_1transform_1_1WithDefaultValues.html#a3cd2907c54910cabd6d8cb52ff49215f" target="_top" xlink:title=" ">
<polygon fill="white" stroke="#666666" points="438,-54 248,-54 248,-24 438,-24 438,-54"/>
<text text-anchor="start" x="256" y="-42" font-family="Helvetica,sans-Serif" font-size="10.00">com.teragrep.pth_06.ast.transform.</text>
<text text-anchor="middle" x="343" y="-31" font-family="Helvetica,sans-Serif" font-size="10.00">WithDefaultValues.transformed</text>
</a>
</g>
</g>
<!-- Node1&#45;&gt;Node2 -->
<g id="edge1_Node000001_Node000002" class="edge">
<title>Node1&#45;&gt;Node2</title>
<g id="a_edge1_Node000001_Node000002"><a xlink:title=" ">
<path fill="none" stroke="#63b8ff" d="M212.13,-39C220.56,-39 229.07,-39 237.49,-39"/>
<polygon fill="#63b8ff" stroke="#63b8ff" points="237.71,-42.5 247.71,-39 237.71,-35.5 237.71,-42.5"/>
</a>
</g>
</g>
<!-- Node2&#45;&gt;Node2 -->
<g id="edge10_Node000002_Node000002" class="edge">
<title>Node2&#45;&gt;Node2</title>
<g id="a_edge10_Node000002_Node000002"><a xlink:title=" ">
<path fill="none" stroke="#63b8ff" d="M301.52,-54.28C292.3,-63.41 306.12,-72 343,-72 364.89,-72 378.66,-68.97 384.31,-64.6"/>
<polygon fill="#63b8ff" stroke="#63b8ff" points="387.81,-64.33 384.48,-54.28 380.81,-64.21 387.81,-64.33"/>
</a>
</g>
</g>
<!-- Node3 -->
<g id="Node000003" class="node">
<title>Node3</title>
<g id="a_Node000003"><a xlink:href="classcom_1_1teragrep_1_1pth__06_1_1ast_1_1transform_1_1WithDefaultValues.html#a371bd3fba44c9f320d2b39f5e60cb82c" target="_top" xlink:title=" ">
<polygon fill="white" stroke="#666666" points="693,-59.5 474,-59.5 474,-18.5 693,-18.5 693,-59.5"/>
<text text-anchor="start" x="482" y="-47.5" font-family="Helvetica,sans-Serif" font-size="10.00">com.teragrep.pth_06.ast.transform.</text>
<text text-anchor="start" x="482" y="-36.5" font-family="Helvetica,sans-Serif" font-size="10.00">WithDefaultValues.recursiveWithDefaults</text>
<text text-anchor="middle" x="583.5" y="-25.5" font-family="Helvetica,sans-Serif" font-size="10.00">Expression</text>
</a>
</g>
</g>
<!-- Node2&#45;&gt;Node3 -->
<g id="edge2_Node000002_Node000003" class="edge">
<title>Node2&#45;&gt;Node3</title>
<g id="a_edge2_Node000002_Node000003"><a xlink:title=" ">
<path fill="none" stroke="#63b8ff" d="M438.26,-39C446.68,-39 455.28,-39 463.87,-39"/>
<polygon fill="#63b8ff" stroke="#63b8ff" points="463.95,-42.5 473.95,-39 463.95,-35.5 463.95,-42.5"/>
</a>
</g>
</g>
<!-- Node4 -->
<g id="Node000004" class="node">
<title>Node4</title>
<g id="a_Node000004"><a xlink:href="classcom_1_1teragrep_1_1pth__06_1_1ast_1_1transform_1_1WithDefaultValues.html#ac53e9da4d27289a430152a8b67aa7e6b" target="_top" xlink:title=" ">
<polygon fill="white" stroke="#666666" points="921,-78 729,-78 729,-48 921,-48 921,-78"/>
<text text-anchor="start" x="737" y="-66" font-family="Helvetica,sans-Serif" font-size="10.00">com.teragrep.pth_06.ast.transform.</text>
<text text-anchor="middle" x="825" y="-55" font-family="Helvetica,sans-Serif" font-size="10.00">WithDefaultValues.andWithDefaults</text>
</a>
</g>
</g>
<!-- Node3&#45;&gt;Node4 -->
<g id="edge3_Node000003_Node000004" class="edge">
<title>Node3&#45;&gt;Node4</title>
<g id="a_edge3_Node000003_Node000004"><a xlink:title=" ">
<path fill="none" stroke="#63b8ff" d="M693.04,-43.15C704.91,-44.29 716.93,-45.52 728.62,-46.82"/>
<polygon fill="#63b8ff" stroke="#63b8ff" points="728.47,-50.32 738.8,-47.97 729.26,-43.37 728.47,-50.32"/>
</a>
</g>
</g>
<!-- Node6 -->
<g id="Node000006" class="node">
<title>Node6</title>
<g id="a_Node000006"><a xlink:href="classcom_1_1teragrep_1_1pth__06_1_1ast_1_1transform_1_1WithDefaultValues.html#af8c587422cbf070fc6fea9aba68705d9" target="_top" xlink:title=" ">
<polygon fill="white" stroke="#666666" points="920,-30 730,-30 730,0 920,0 920,-30"/>
<text text-anchor="start" x="738" y="-18" font-family="Helvetica,sans-Serif" font-size="10.00">com.teragrep.pth_06.ast.transform.</text>
<text text-anchor="middle" x="825" y="-7" font-family="Helvetica,sans-Serif" font-size="10.00">WithDefaultValues.orWithDefaults</text>
</a>
</g>
</g>
<!-- Node3&#45;&gt;Node6 -->
<g id="edge7_Node000003_Node000006" class="edge">
<title>Node3&#45;&gt;Node6</title>
<g id="a_edge7_Node000003_Node000006"><a xlink:title=" ">
<path fill="none" stroke="#63b8ff" d="M693.04,-21.4C701.84,-20.48 710.73,-19.59 719.51,-18.77"/>
<polygon fill="#63b8ff" stroke="#63b8ff" points="720.11,-22.23 729.75,-17.83 719.47,-15.26 720.11,-22.23"/>
</a>
</g>
</g>
<!-- Node4&#45;&gt;Node3 -->
<g id="edge6_Node000004_Node000003" class="edge">
<title>Node4&#45;&gt;Node3</title>
<g id="a_edge6_Node000004_Node000003"><a xlink:title=" ">
<path fill="none" stroke="#63b8ff" d="M728.66,-60.07C720.24,-59.31 711.66,-58.5 703.09,-57.63"/>
<polygon fill="#63b8ff" stroke="#63b8ff" points="703.34,-54.14 693.04,-56.6 702.63,-61.1 703.34,-54.14"/>
</a>
</g>
</g>
<!-- Node5 -->
<g id="Node000005" class="node">
<title>Node5</title>
<g id="a_Node000005"><a xlink:href="classcom_1_1teragrep_1_1pth__06_1_1ast_1_1transform_1_1WithDefaultValues.html#a42a39b9992cc004453cd026fbc106b36" target="_top" xlink:title=" ">
<polygon fill="white" stroke="#666666" points="1147,-54 957,-54 957,-24 1147,-24 1147,-54"/>
<text text-anchor="start" x="965" y="-42" font-family="Helvetica,sans-Serif" font-size="10.00">com.teragrep.pth_06.ast.transform.</text>
<text text-anchor="middle" x="1052" y="-31" font-family="Helvetica,sans-Serif" font-size="10.00">WithDefaultValues.expressionTags</text>
</a>
</g>
</g>
<!-- Node4&#45;&gt;Node5 -->
<g id="edge4_Node000004_Node000005" class="edge">
<title>Node4&#45;&gt;Node5</title>
<g id="a_edge4_Node000004_Node000005"><a xlink:title=" ">
<path fill="none" stroke="#63b8ff" d="M921.09,-52.86C929.63,-51.95 938.3,-51.02 946.9,-50.1"/>
<polygon fill="#63b8ff" stroke="#63b8ff" points="947.39,-53.57 956.96,-49.03 946.65,-46.61 947.39,-53.57"/>
</a>
</g>
</g>
<!-- Node5&#45;&gt;Node5 -->
<g id="edge5_Node000005_Node000005" class="edge">
<title>Node5&#45;&gt;Node5</title>
<g id="a_edge5_Node000005_Node000005"><a xlink:title=" ">
<path fill="none" stroke="#63b8ff" d="M1012.27,-54.28C1003.45,-63.41 1016.69,-72 1052,-72 1072.97,-72 1086.15,-68.97 1091.56,-64.6"/>
<polygon fill="#63b8ff" stroke="#63b8ff" points="1095.06,-64.33 1091.73,-54.28 1088.06,-64.22 1095.06,-64.33"/>
</a>
</g>
</g>
<!-- Node6&#45;&gt;Node3 -->
<g id="edge9_Node000006_Node000003" class="edge">
<title>Node6&#45;&gt;Node3</title>
<g id="a_edge9_Node000006_Node000003"><a xlink:title=" ">
<path fill="none" stroke="#63b8ff" d="M738.8,-30.03C727.22,-31.37 715.17,-32.66 703.13,-33.86"/>
<polygon fill="#63b8ff" stroke="#63b8ff" points="702.65,-30.39 693.04,-34.85 703.33,-37.36 702.65,-30.39"/>
</a>
</g>
</g>
<!-- Node6&#45;&gt;Node5 -->
<g id="edge8_Node000006_Node000005" class="edge">
<title>Node6&#45;&gt;Node5</title>
<g id="a_edge8_Node000006_Node000005"><a xlink:title=" ">
<path fill="none" stroke="#63b8ff" d="M920.12,-25.04C928.95,-25.98 937.95,-26.94 946.87,-27.89"/>
<polygon fill="#63b8ff" stroke="#63b8ff" points="946.58,-31.38 956.9,-28.96 947.33,-24.42 946.58,-31.38"/>
</a>
</g>
</g>
</g>
</svg>
