<?xml version="1.0" encoding="UTF-8" standalone="no"?>
<!DOCTYPE svg PUBLIC "-//W3C//DTD SVG 1.1//EN"
 "http://www.w3.org/Graphics/SVG/1.1/DTD/svg11.dtd">
<!-- Generated by graphviz version 2.43.0 (0)
 -->
<!-- Title: com.teragrep.pth_06.planner.HourlyViewsSlices.nextHour Pages: 1 -->
<svg width="406pt" height="216pt"
 viewBox="0.00 0.00 406.00 215.50" xmlns="http://www.w3.org/2000/svg" xmlns:xlink="http://www.w3.org/1999/xlink">
<g id="graph0" class="graph" transform="scale(1 1) rotate(0) translate(4 211.5)">
<title>com.teragrep.pth_06.planner.HourlyViewsSlices.nextHour</title>
<!-- Node1 -->
<g id="Node000001" class="node">
<title>Node1</title>
<g id="a_Node000001"><a xlink:title=" ">
<polygon fill="#999999" stroke="#666666" points="398,-113 238,-113 238,-83 398,-83 398,-113"/>
<text text-anchor="start" x="246" y="-101" font-family="Helvetica,sans-Serif" font-size="10.00">com.teragrep.pth_06.planner.</text>
<text text-anchor="middle" x="318" y="-90" font-family="Helvetica,sans-Serif" font-size="10.00">HourlyViewsSlices.nextHour</text>
</a>
</g>
</g>
<!-- Node2 -->
<g id="Node000002" class="node">
<title>Node2</title>
<g id="a_Node000002"><a xlink:href="classcom_1_1teragrep_1_1pth__06_1_1planner_1_1HourlyViewsSlicesTest.html#aefffea5cb893eddf94a204a1b30544fc" target="_top" xlink:title=" ">
<polygon fill="white" stroke="#666666" points="197.5,-207.5 4.5,-207.5 4.5,-166.5 197.5,-166.5 197.5,-207.5"/>
<text text-anchor="start" x="12.5" y="-195.5" font-family="Helvetica,sans-Serif" font-size="10.00">com.teragrep.pth_06.planner.</text>
<text text-anchor="start" x="12.5" y="-184.5" font-family="Helvetica,sans-Serif" font-size="10.00">HourlyViewsSlicesTest.multipleScan</text>
<text text-anchor="middle" x="101" y="-173.5" font-family="Helvetica,sans-Serif" font-size="10.00">RangeViewTest</text>
</a>
</g>
</g>
<!-- Node1&#45;&gt;Node2 -->
<g id="edge1_Node000001_Node000002" class="edge">
<title>Node1&#45;&gt;Node2</title>
<g id="a_edge1_Node000001_Node000002"><a xlink:title=" ">
<path fill="none" stroke="#63b8ff" d="M282.86,-118.1C260.41,-130.74 230.1,-146.72 202,-158 194.53,-161 186.64,-163.83 178.7,-166.46"/>
<polygon fill="#63b8ff" stroke="#63b8ff" points="284.7,-121.08 291.66,-113.09 281.24,-115 284.7,-121.08"/>
</a>
</g>
</g>
<!-- Node3 -->
<g id="Node000003" class="node">
<title>Node3</title>
<g id="a_Node000003"><a xlink:href="classcom_1_1teragrep_1_1pth__06_1_1planner_1_1HourlyViewsSlicesTest.html#aa2724cd1f2eb40f4409d244242486113" target="_top" xlink:title=" ">
<polygon fill="white" stroke="#666666" points="196,-148.5 6,-148.5 6,-107.5 196,-107.5 196,-148.5"/>
<text text-anchor="start" x="14" y="-136.5" font-family="Helvetica,sans-Serif" font-size="10.00">com.teragrep.pth_06.planner.</text>
<text text-anchor="start" x="14" y="-125.5" font-family="Helvetica,sans-Serif" font-size="10.00">HourlyViewsSlicesTest.testHasNext</text>
<text text-anchor="middle" x="101" y="-114.5" font-family="Helvetica,sans-Serif" font-size="10.00">ReturnsFalseAfterAllViewsFinished</text>
</a>
</g>
</g>
<!-- Node1&#45;&gt;Node3 -->
<g id="edge2_Node000001_Node000003" class="edge">
<title>Node1&#45;&gt;Node3</title>
<g id="a_edge2_Node000001_Node000003"><a xlink:title=" ">
<path fill="none" stroke="#63b8ff" d="M227.93,-110.43C217.48,-111.89 206.79,-113.38 196.28,-114.85"/>
<polygon fill="#63b8ff" stroke="#63b8ff" points="228.44,-113.89 237.86,-109.04 227.47,-106.96 228.44,-113.89"/>
</a>
</g>
</g>
<!-- Node4 -->
<g id="Node000004" class="node">
<title>Node4</title>
<g id="a_Node000004"><a xlink:href="classcom_1_1teragrep_1_1pth__06_1_1planner_1_1HourlyViewsSlicesTest.html#a795ceeda7a34922d3a8ce8bc70b40b63" target="_top" xlink:title=" ">
<polygon fill="white" stroke="#666666" points="195,-89.5 7,-89.5 7,-48.5 195,-48.5 195,-89.5"/>
<text text-anchor="start" x="15" y="-77.5" font-family="Helvetica,sans-Serif" font-size="10.00">com.teragrep.pth_06.planner.</text>
<text text-anchor="start" x="15" y="-66.5" font-family="Helvetica,sans-Serif" font-size="10.00">HourlyViewsSlicesTest.testMultiple</text>
<text text-anchor="middle" x="101" y="-55.5" font-family="Helvetica,sans-Serif" font-size="10.00">HourlyResults</text>
</a>
</g>
</g>
<!-- Node1&#45;&gt;Node4 -->
<g id="edge3_Node000001_Node000004" class="edge">
<title>Node1&#45;&gt;Node4</title>
<g id="a_edge3_Node000001_Node000004"><a xlink:title=" ">
<path fill="none" stroke="#63b8ff" d="M227.66,-85.95C216.93,-84.5 205.95,-83.02 195.17,-81.57"/>
<polygon fill="#63b8ff" stroke="#63b8ff" points="227.48,-89.46 237.86,-87.33 228.42,-82.52 227.48,-89.46"/>
</a>
</g>
</g>
<!-- Node5 -->
<g id="Node000005" class="node">
<title>Node5</title>
<g id="a_Node000005"><a xlink:href="classcom_1_1teragrep_1_1pth__06_1_1planner_1_1HourlyViewsSlicesTest.html#aa3d155cba70ddf9262c8288862c401c6" target="_top" xlink:title=" ">
<polygon fill="white" stroke="#666666" points="202,-30 0,-30 0,0 202,0 202,-30"/>
<text text-anchor="start" x="8" y="-18" font-family="Helvetica,sans-Serif" font-size="10.00">com.teragrep.pth_06.planner.</text>
<text text-anchor="middle" x="101" y="-7" font-family="Helvetica,sans-Serif" font-size="10.00">HourlyViewsSlicesTest.testSingleView</text>
</a>
</g>
</g>
<!-- Node1&#45;&gt;Node5 -->
<g id="edge4_Node000001_Node000005" class="edge">
<title>Node1&#45;&gt;Node5</title>
<g id="a_edge4_Node000001_Node000005"><a xlink:title=" ">
<path fill="none" stroke="#63b8ff" d="M282.47,-78.04C260.09,-65.75 230,-50.41 202,-40 192.02,-36.29 181.28,-32.95 170.67,-30.02"/>
<polygon fill="#63b8ff" stroke="#63b8ff" points="280.81,-81.13 291.26,-82.93 284.22,-75.01 280.81,-81.13"/>
</a>
</g>
</g>
</g>
</svg>
