<?xml version="1.0" encoding="UTF-8" standalone="no"?>
<!DOCTYPE svg PUBLIC "-//W3C//DTD SVG 1.1//EN"
 "http://www.w3.org/Graphics/SVG/1.1/DTD/svg11.dtd">
<!-- Generated by graphviz version 2.43.0 (0)
 -->
<!-- Title: com.teragrep.pth_06.ast.transform.OptimizedASTTest.testFlattenedLogical Pages: 1 -->
<svg width="1410pt" height="266pt"
 viewBox="0.00 0.00 1410.00 266.00" xmlns="http://www.w3.org/2000/svg" xmlns:xlink="http://www.w3.org/1999/xlink">
<g id="graph0" class="graph" transform="scale(1 1) rotate(0) translate(4 262)">
<title>com.teragrep.pth_06.ast.transform.OptimizedASTTest.testFlattenedLogical</title>
<!-- Node1 -->
<g id="Node000001" class="node">
<title>Node1</title>
<g id="a_Node000001"><a xlink:title=" ">
<polygon fill="#999999" stroke="#666666" points="208,-126 0,-126 0,-96 208,-96 208,-126"/>
<text text-anchor="start" x="8" y="-114" font-family="Helvetica,sans-Serif" font-size="10.00">com.teragrep.pth_06.ast.transform.</text>
<text text-anchor="middle" x="104" y="-103" font-family="Helvetica,sans-Serif" font-size="10.00">OptimizedASTTest.testFlattenedLogical</text>
</a>
</g>
</g>
<!-- Node2 -->
<g id="Node000002" class="node">
<title>Node2</title>
<g id="a_Node000002"><a xlink:href="classcom_1_1teragrep_1_1pth__06_1_1ast_1_1transform_1_1OptimizedAST.html#a05726d2699d7ade747e74de2140c6a41" target="_top" xlink:title=" ">
<polygon fill="white" stroke="#666666" points="434,-126 244,-126 244,-96 434,-96 434,-126"/>
<text text-anchor="start" x="252" y="-114" font-family="Helvetica,sans-Serif" font-size="10.00">com.teragrep.pth_06.ast.transform.</text>
<text text-anchor="middle" x="339" y="-103" font-family="Helvetica,sans-Serif" font-size="10.00">OptimizedAST.transformed</text>
</a>
</g>
</g>
<!-- Node1&#45;&gt;Node2 -->
<g id="edge1_Node000001_Node000002" class="edge">
<title>Node1&#45;&gt;Node2</title>
<g id="a_edge1_Node000001_Node000002"><a xlink:title=" ">
<path fill="none" stroke="#63b8ff" d="M208.21,-111C216.61,-111 225.1,-111 233.5,-111"/>
<polygon fill="#63b8ff" stroke="#63b8ff" points="233.7,-114.5 243.7,-111 233.7,-107.5 233.7,-114.5"/>
</a>
</g>
</g>
<!-- Node3 -->
<g id="Node000003" class="node">
<title>Node3</title>
<g id="a_Node000003"><a xlink:href="classcom_1_1teragrep_1_1pth__06_1_1ast_1_1transform_1_1OptimizedAST.html#ac4ebcab5c55182e969cd03150e96e374" target="_top" xlink:title=" ">
<polygon fill="white" stroke="#666666" points="660,-126 470,-126 470,-96 660,-96 660,-126"/>
<text text-anchor="start" x="478" y="-114" font-family="Helvetica,sans-Serif" font-size="10.00">com.teragrep.pth_06.ast.transform.</text>
<text text-anchor="middle" x="565" y="-103" font-family="Helvetica,sans-Serif" font-size="10.00">OptimizedAST.walkAndApply</text>
</a>
</g>
</g>
<!-- Node2&#45;&gt;Node3 -->
<g id="edge2_Node000002_Node000003" class="edge">
<title>Node2&#45;&gt;Node3</title>
<g id="a_edge2_Node000002_Node000003"><a xlink:title=" ">
<path fill="none" stroke="#63b8ff" d="M434.02,-111C442.54,-111 451.2,-111 459.8,-111"/>
<polygon fill="#63b8ff" stroke="#63b8ff" points="459.86,-114.5 469.86,-111 459.86,-107.5 459.86,-114.5"/>
</a>
</g>
</g>
<!-- Node3&#45;&gt;Node3 -->
<g id="edge13_Node000003_Node000003" class="edge">
<title>Node3&#45;&gt;Node3</title>
<g id="a_edge13_Node000003_Node000003"><a xlink:title=" ">
<path fill="none" stroke="#63b8ff" d="M525.27,-126.28C516.45,-135.41 529.69,-144 565,-144 585.97,-144 599.15,-140.97 604.56,-136.6"/>
<polygon fill="#63b8ff" stroke="#63b8ff" points="608.06,-136.33 604.73,-126.28 601.06,-136.22 608.06,-136.33"/>
</a>
</g>
</g>
<!-- Node4 -->
<g id="Node000004" class="node">
<title>Node4</title>
<g id="a_Node000004"><a xlink:href="classcom_1_1teragrep_1_1pth__06_1_1ast_1_1transform_1_1OptimizedAST.html#a77542c0b232d1e10e50a9846e1845b10" target="_top" xlink:title=" ">
<polygon fill="white" stroke="#666666" points="927,-126 696,-126 696,-96 927,-96 927,-126"/>
<text text-anchor="start" x="704" y="-114" font-family="Helvetica,sans-Serif" font-size="10.00">com.teragrep.pth_06.ast.transform.</text>
<text text-anchor="middle" x="811.5" y="-103" font-family="Helvetica,sans-Serif" font-size="10.00">OptimizedAST.transformedSingleExpression</text>
</a>
</g>
</g>
<!-- Node3&#45;&gt;Node4 -->
<g id="edge3_Node000003_Node000004" class="edge">
<title>Node3&#45;&gt;Node4</title>
<g id="a_edge3_Node000003_Node000004"><a xlink:title=" ">
<path fill="none" stroke="#63b8ff" d="M660.18,-111C668.59,-111 677.19,-111 685.81,-111"/>
<polygon fill="#63b8ff" stroke="#63b8ff" points="685.92,-114.5 695.92,-111 685.92,-107.5 685.92,-114.5"/>
</a>
</g>
</g>
<!-- Node5 -->
<g id="Node000005" class="node">
<title>Node5</title>
<g id="a_Node000005"><a xlink:href="classcom_1_1teragrep_1_1pth__06_1_1ast_1_1transform_1_1EmptyPruned.html#a8cfebc9854b0ad9a7cbe81918392e036" target="_top" xlink:title=" ">
<polygon fill="white" stroke="#666666" points="1164,-258 974,-258 974,-228 1164,-228 1164,-258"/>
<text text-anchor="start" x="982" y="-246" font-family="Helvetica,sans-Serif" font-size="10.00">com.teragrep.pth_06.ast.transform.</text>
<text text-anchor="middle" x="1069" y="-235" font-family="Helvetica,sans-Serif" font-size="10.00">EmptyPruned.transformed</text>
</a>
</g>
</g>
<!-- Node4&#45;&gt;Node5 -->
<g id="edge4_Node000004_Node000005" class="edge">
<title>Node4&#45;&gt;Node5</title>
<g id="a_edge4_Node000004_Node000005"><a xlink:title=" ">
<path fill="none" stroke="#63b8ff" d="M828.72,-126.05C854.91,-149.53 909.06,-194.68 963,-219 967.62,-221.08 972.44,-223 977.37,-224.75"/>
<polygon fill="#63b8ff" stroke="#63b8ff" points="976.35,-228.1 986.95,-227.93 978.56,-221.46 976.35,-228.1"/>
</a>
</g>
</g>
<!-- Node6 -->
<g id="Node000006" class="node">
<title>Node6</title>
<g id="a_Node000006"><a xlink:href="classcom_1_1teragrep_1_1pth__06_1_1ast_1_1transform_1_1FlattenLogical.html#a2e1717ad6884eea7a2415aa7763eaed5" target="_top" xlink:title=" ">
<polygon fill="white" stroke="#666666" points="1164,-192 974,-192 974,-162 1164,-162 1164,-192"/>
<text text-anchor="start" x="982" y="-180" font-family="Helvetica,sans-Serif" font-size="10.00">com.teragrep.pth_06.ast.transform.</text>
<text text-anchor="middle" x="1069" y="-169" font-family="Helvetica,sans-Serif" font-size="10.00">FlattenLogical.transformed</text>
</a>
</g>
</g>
<!-- Node4&#45;&gt;Node6 -->
<g id="edge5_Node000004_Node000006" class="edge">
<title>Node4&#45;&gt;Node6</title>
<g id="a_edge5_Node000004_Node000006"><a xlink:title=" ">
<path fill="none" stroke="#63b8ff" d="M864.23,-126.09C893.19,-134.37 930,-144.63 963,-153 971.79,-155.23 981.01,-157.47 990.19,-159.65"/>
<polygon fill="#63b8ff" stroke="#63b8ff" points="989.57,-163.1 1000.11,-161.98 991.17,-156.28 989.57,-163.1"/>
</a>
</g>
</g>
<!-- Node9 -->
<g id="Node000009" class="node">
<title>Node9</title>
<g id="a_Node000009"><a xlink:href="classcom_1_1teragrep_1_1pth__06_1_1ast_1_1transform_1_1IdentitySimplification.html#a2e7ebae3195ee7794364c646e783c6d3" target="_top" xlink:title=" ">
<polygon fill="white" stroke="#666666" points="1164,-126 974,-126 974,-96 1164,-96 1164,-126"/>
<text text-anchor="start" x="982" y="-114" font-family="Helvetica,sans-Serif" font-size="10.00">com.teragrep.pth_06.ast.transform.</text>
<text text-anchor="middle" x="1069" y="-103" font-family="Helvetica,sans-Serif" font-size="10.00">IdentitySimplification.transformed</text>
</a>
</g>
</g>
<!-- Node4&#45;&gt;Node9 -->
<g id="edge9_Node000004_Node000009" class="edge">
<title>Node4&#45;&gt;Node9</title>
<g id="a_edge9_Node000004_Node000009"><a xlink:title=" ">
<path fill="none" stroke="#63b8ff" d="M927.17,-111C939.4,-111 951.79,-111 963.89,-111"/>
<polygon fill="#63b8ff" stroke="#63b8ff" points="963.97,-114.5 973.97,-111 963.97,-107.5 963.97,-114.5"/>
</a>
</g>
</g>
<!-- Node10 -->
<g id="Node000010" class="node">
<title>Node10</title>
<g id="a_Node000010"><a xlink:href="classcom_1_1teragrep_1_1pth__06_1_1ast_1_1transform_1_1PrunedInvalidTimeQualifier.html#a390e2447fa0ee0e2964ba44d68710b37" target="_top" xlink:title=" ">
<polygon fill="white" stroke="#666666" points="1175,-78 963,-78 963,-48 1175,-48 1175,-78"/>
<text text-anchor="start" x="971" y="-66" font-family="Helvetica,sans-Serif" font-size="10.00">com.teragrep.pth_06.ast.transform.</text>
<text text-anchor="middle" x="1069" y="-55" font-family="Helvetica,sans-Serif" font-size="10.00">PrunedInvalidTimeQualifier.transformed</text>
</a>
</g>
</g>
<!-- Node4&#45;&gt;Node10 -->
<g id="edge11_Node000004_Node000010" class="edge">
<title>Node4&#45;&gt;Node10</title>
<g id="a_edge11_Node000004_Node000010"><a xlink:title=" ">
<path fill="none" stroke="#63b8ff" d="M892.64,-95.94C919.75,-90.85 950.2,-85.13 978.02,-79.9"/>
<polygon fill="#63b8ff" stroke="#63b8ff" points="978.96,-83.29 988.14,-78 977.67,-76.41 978.96,-83.29"/>
</a>
</g>
</g>
<!-- Node11 -->
<g id="Node000011" class="node">
<title>Node11</title>
<g id="a_Node000011"><a xlink:href="classcom_1_1teragrep_1_1pth__06_1_1ast_1_1transform_1_1UniqueChildren.html#a39304f06c8b7ac1e1a23463fe502028e" target="_top" xlink:title=" ">
<polygon fill="white" stroke="#666666" points="1164,-30 974,-30 974,0 1164,0 1164,-30"/>
<text text-anchor="start" x="982" y="-18" font-family="Helvetica,sans-Serif" font-size="10.00">com.teragrep.pth_06.ast.transform.</text>
<text text-anchor="middle" x="1069" y="-7" font-family="Helvetica,sans-Serif" font-size="10.00">UniqueChildren.transformed</text>
</a>
</g>
</g>
<!-- Node4&#45;&gt;Node11 -->
<g id="edge12_Node000004_Node000011" class="edge">
<title>Node4&#45;&gt;Node11</title>
<g id="a_edge12_Node000004_Node000011"><a xlink:title=" ">
<path fill="none" stroke="#63b8ff" d="M839.19,-95.99C868.7,-79.94 918.01,-54.69 963,-39 969.41,-36.77 976.11,-34.68 982.89,-32.75"/>
<polygon fill="#63b8ff" stroke="#63b8ff" points="984.13,-36.04 992.85,-30.04 982.29,-29.29 984.13,-36.04"/>
</a>
</g>
</g>
<!-- Node6&#45;&gt;Node6 -->
<g id="edge8_Node000006_Node000006" class="edge">
<title>Node6&#45;&gt;Node6</title>
<g id="a_edge8_Node000006_Node000006"><a xlink:title=" ">
<path fill="none" stroke="#63b8ff" d="M1027.52,-192.28C1018.3,-201.41 1032.12,-210 1069,-210 1090.89,-210 1104.66,-206.97 1110.31,-202.6"/>
<polygon fill="#63b8ff" stroke="#63b8ff" points="1113.81,-202.33 1110.48,-192.28 1106.81,-202.21 1113.81,-202.33"/>
</a>
</g>
</g>
<!-- Node7 -->
<g id="Node000007" class="node">
<title>Node7</title>
<g id="a_Node000007"><a xlink:href="classcom_1_1teragrep_1_1pth__06_1_1ast_1_1transform_1_1FlattenLogical.html#a3b9085857dc57e88c58a6fa5a057f103" target="_top" xlink:title=" ">
<polygon fill="white" stroke="#666666" points="1402,-216 1211,-216 1211,-186 1402,-186 1402,-216"/>
<text text-anchor="start" x="1219" y="-204" font-family="Helvetica,sans-Serif" font-size="10.00">com.teragrep.pth_06.ast.transform.</text>
<text text-anchor="middle" x="1306.5" y="-193" font-family="Helvetica,sans-Serif" font-size="10.00">FlattenLogical.flattenedAndChildren</text>
</a>
</g>
</g>
<!-- Node6&#45;&gt;Node7 -->
<g id="edge6_Node000006_Node000007" class="edge">
<title>Node6&#45;&gt;Node7</title>
<g id="a_edge6_Node000006_Node000007"><a xlink:title=" ">
<path fill="none" stroke="#63b8ff" d="M1164.09,-186.59C1176.1,-187.81 1188.46,-189.07 1200.62,-190.31"/>
<polygon fill="#63b8ff" stroke="#63b8ff" points="1200.49,-193.82 1210.79,-191.35 1201.2,-186.85 1200.49,-193.82"/>
</a>
</g>
</g>
<!-- Node8 -->
<g id="Node000008" class="node">
<title>Node8</title>
<g id="a_Node000008"><a xlink:href="classcom_1_1teragrep_1_1pth__06_1_1ast_1_1transform_1_1FlattenLogical.html#ae0b8acc47ab74872494d07da365e303b" target="_top" xlink:title=" ">
<polygon fill="white" stroke="#666666" points="1401.5,-168 1211.5,-168 1211.5,-138 1401.5,-138 1401.5,-168"/>
<text text-anchor="start" x="1219.5" y="-156" font-family="Helvetica,sans-Serif" font-size="10.00">com.teragrep.pth_06.ast.transform.</text>
<text text-anchor="middle" x="1306.5" y="-145" font-family="Helvetica,sans-Serif" font-size="10.00">FlattenLogical.flattenedOrChildren</text>
</a>
</g>
</g>
<!-- Node6&#45;&gt;Node8 -->
<g id="edge7_Node000006_Node000008" class="edge">
<title>Node6&#45;&gt;Node8</title>
<g id="a_edge7_Node000006_Node000008"><a xlink:title=" ">
<path fill="none" stroke="#63b8ff" d="M1164.09,-167.41C1176.2,-166.18 1188.66,-164.91 1200.93,-163.66"/>
<polygon fill="#63b8ff" stroke="#63b8ff" points="1201.58,-167.11 1211.17,-162.61 1200.87,-160.14 1201.58,-167.11"/>
</a>
</g>
</g>
<!-- Node9&#45;&gt;Node9 -->
<g id="edge10_Node000009_Node000009" class="edge">
<title>Node9&#45;&gt;Node9</title>
<g id="a_edge10_Node000009_Node000009"><a xlink:title=" ">
<path fill="none" stroke="#63b8ff" d="M1027.52,-126.28C1018.3,-135.41 1032.12,-144 1069,-144 1090.89,-144 1104.66,-140.97 1110.31,-136.6"/>
<polygon fill="#63b8ff" stroke="#63b8ff" points="1113.81,-136.33 1110.48,-126.28 1106.81,-136.21 1113.81,-136.33"/>
</a>
</g>
</g>
</g>
</svg>
