<?xml version="1.0" encoding="UTF-8" standalone="no"?>
<!DOCTYPE svg PUBLIC "-//W3C//DTD SVG 1.1//EN"
 "http://www.w3.org/Graphics/SVG/1.1/DTD/svg11.dtd">
<!-- Generated by graphviz version 2.43.0 (0)
 -->
<!-- Title: com.teragrep.pth_06.planner.HBaseQueryImpl.latest Pages: 1 -->
<svg width="1025pt" height="336pt"
 viewBox="0.00 0.00 1025.00 335.80" xmlns="http://www.w3.org/2000/svg" xmlns:xlink="http://www.w3.org/1999/xlink">
<g id="graph0" class="graph" transform="scale(1 1) rotate(0) translate(4 331.8)">
<title>com.teragrep.pth_06.planner.HBaseQueryImpl.latest</title>
<!-- Node1 -->
<g id="Node000001" class="node">
<title>Node1</title>
<g id="a_Node000001"><a xlink:title="Queries results form hbase until the batch limit is reached and updates latest.">
<polygon fill="#999999" stroke="#666666" points="160,-159 0,-159 0,-129 160,-129 160,-159"/>
<text text-anchor="start" x="8" y="-147" font-family="Helvetica,sans-Serif" font-size="10.00">com.teragrep.pth_06.planner.</text>
<text text-anchor="middle" x="80" y="-136" font-family="Helvetica,sans-Serif" font-size="10.00">HBaseQueryImpl.latest</text>
</a>
</g>
</g>
<!-- Node1&#45;&gt;Node1 -->
<g id="edge6_Node000001_Node000001" class="edge">
<title>Node1&#45;&gt;Node1</title>
<g id="a_edge6_Node000001_Node000001"><a xlink:title=" ">
<path fill="none" stroke="#63b8ff" d="M43.09,-159.28C34.88,-168.41 47.19,-177 80,-177 99.48,-177 111.74,-173.97 116.76,-169.6"/>
<polygon fill="#63b8ff" stroke="#63b8ff" points="120.26,-169.33 116.91,-159.28 113.26,-169.22 120.26,-169.33"/>
</a>
</g>
</g>
<!-- Node2 -->
<g id="Node000002" class="node">
<title>Node2</title>
<g id="a_Node000002"><a xlink:href="classcom_1_1teragrep_1_1pth__06_1_1planner_1_1HBaseQueryImpl.html#a3ddb5964124047be0b52937a19b6b7e9" target="_top" xlink:title="Finds the earliest offset available in the scan plan collection, formed from the query.">
<polygon fill="white" stroke="#666666" points="582,-202 422,-202 422,-172 582,-172 582,-202"/>
<text text-anchor="start" x="430" y="-190" font-family="Helvetica,sans-Serif" font-size="10.00">com.teragrep.pth_06.planner.</text>
<text text-anchor="middle" x="502" y="-179" font-family="Helvetica,sans-Serif" font-size="10.00">HBaseQueryImpl.earliest</text>
</a>
</g>
</g>
<!-- Node1&#45;&gt;Node2 -->
<g id="edge1_Node000001_Node000002" class="edge">
<title>Node1&#45;&gt;Node2</title>
<g id="a_edge1_Node000001_Node000002"><a xlink:title=" ">
<path fill="none" stroke="#63b8ff" d="M144.89,-159.03C161.45,-162.46 179.32,-165.75 196,-168 268.07,-177.71 350.4,-182.47 411.35,-184.8"/>
<polygon fill="#63b8ff" stroke="#63b8ff" points="411.58,-188.31 421.7,-185.18 411.84,-181.31 411.58,-188.31"/>
</a>
</g>
</g>
<!-- Node3 -->
<g id="Node000003" class="node">
<title>Node3</title>
<g id="a_Node000003"><a xlink:href="classcom_1_1teragrep_1_1pth__06_1_1planner_1_1HBaseQueryImpl.html#a5a99d0c15e25eab70b9ae20662d988c9" target="_top" xlink:title=" ">
<polygon fill="white" stroke="#666666" points="778,-311 618,-311 618,-281 778,-281 778,-311"/>
<text text-anchor="start" x="626" y="-299" font-family="Helvetica,sans-Serif" font-size="10.00">com.teragrep.pth_06.planner.</text>
<text text-anchor="middle" x="698" y="-288" font-family="Helvetica,sans-Serif" font-size="10.00">HBaseQueryImpl.isOpen</text>
</a>
</g>
</g>
<!-- Node1&#45;&gt;Node3 -->
<g id="edge3_Node000001_Node000003" class="edge">
<title>Node1&#45;&gt;Node3</title>
<g id="a_edge3_Node000001_Node000003"><a xlink:title=" ">
<path fill="none" stroke="#63b8ff" d="M88.94,-159.32C104.82,-188.2 143.56,-250.16 196,-277 330.41,-345.79 512.71,-330.08 616.28,-312.8"/>
<polygon fill="#63b8ff" stroke="#63b8ff" points="617.09,-316.21 626.36,-311.07 615.91,-309.31 617.09,-316.21"/>
</a>
</g>
</g>
<!-- Node4 -->
<g id="Node000004" class="node">
<title>Node4</title>
<g id="a_Node000004"><a xlink:href="interfacecom_1_1teragrep_1_1pth__06_1_1Stubbable.html#a0901c0a7cde13ff306d455e4009f01cb" target="_top" xlink:title=" ">
<polygon fill="white" stroke="#666666" points="1017,-153.5 814,-153.5 814,-134.5 1017,-134.5 1017,-153.5"/>
<text text-anchor="middle" x="915.5" y="-141.5" font-family="Helvetica,sans-Serif" font-size="10.00">com.teragrep.pth_06.Stubbable.isStub</text>
</a>
</g>
</g>
<!-- Node1&#45;&gt;Node4 -->
<g id="edge5_Node000001_Node000004" class="edge">
<title>Node1&#45;&gt;Node4</title>
<g id="a_edge5_Node000001_Node000004"><a xlink:title=" ">
<path fill="none" stroke="#63b8ff" d="M113.48,-128.92C136.12,-119.08 167.3,-106.82 196,-100 363.2,-60.25 410.99,-59.94 582,-77 686.01,-87.37 805.64,-115.57 869.22,-131.89"/>
<polygon fill="#63b8ff" stroke="#63b8ff" points="868.38,-135.29 878.94,-134.4 870.13,-128.51 868.38,-135.29"/>
</a>
</g>
</g>
<!-- Node5 -->
<g id="Node000005" class="node">
<title>Node5</title>
<g id="a_Node000005"><a xlink:href="interfacecom_1_1teragrep_1_1pth__06_1_1planner_1_1LimitedResults.html#ad79e3d027fabcd449d8631574c2e514a" target="_top" xlink:title=" ">
<polygon fill="white" stroke="#666666" points="582,-116 422,-116 422,-86 582,-86 582,-116"/>
<text text-anchor="start" x="430" y="-104" font-family="Helvetica,sans-Serif" font-size="10.00">com.teragrep.pth_06.planner.</text>
<text text-anchor="middle" x="502" y="-93" font-family="Helvetica,sans-Serif" font-size="10.00">LimitedResults.latest</text>
</a>
</g>
</g>
<!-- Node1&#45;&gt;Node5 -->
<g id="edge7_Node000001_Node000005" class="edge">
<title>Node1&#45;&gt;Node5</title>
<g id="a_edge7_Node000001_Node000005"><a xlink:title=" ">
<path fill="none" stroke="#63b8ff" d="M144.89,-128.97C161.45,-125.54 179.32,-122.25 196,-120 268.07,-110.29 350.4,-105.53 411.35,-103.2"/>
<polygon fill="#63b8ff" stroke="#63b8ff" points="411.84,-106.69 421.7,-102.82 411.58,-99.69 411.84,-106.69"/>
</a>
</g>
</g>
<!-- Node6 -->
<g id="Node000006" class="node">
<title>Node6</title>
<g id="a_Node000006"><a xlink:href="classcom_1_1teragrep_1_1pth__06_1_1planner_1_1HBaseQueryImpl.html#a3e76b78ec59462795de6428b6e549cab" target="_top" xlink:title=" ">
<polygon fill="white" stroke="#666666" points="386,-159 196,-159 196,-129 386,-129 386,-159"/>
<text text-anchor="start" x="204" y="-147" font-family="Helvetica,sans-Serif" font-size="10.00">com.teragrep.pth_06.planner.</text>
<text text-anchor="middle" x="291" y="-136" font-family="Helvetica,sans-Serif" font-size="10.00">HBaseQueryImpl.mostRecentOffset</text>
</a>
</g>
</g>
<!-- Node1&#45;&gt;Node6 -->
<g id="edge8_Node000001_Node000006" class="edge">
<title>Node1&#45;&gt;Node6</title>
<g id="a_edge8_Node000001_Node000006"><a xlink:title=" ">
<path fill="none" stroke="#63b8ff" d="M160.01,-144C168.41,-144 177.03,-144 185.65,-144"/>
<polygon fill="#63b8ff" stroke="#63b8ff" points="185.76,-147.5 195.76,-144 185.76,-140.5 185.76,-147.5"/>
</a>
</g>
</g>
<!-- Node7 -->
<g id="Node000007" class="node">
<title>Node7</title>
<g id="a_Node000007"><a xlink:href="classcom_1_1teragrep_1_1pth__06_1_1planner_1_1HBaseQueryImpl.html#aac2c757eda96e3154434977c46d2ac1d" target="_top" xlink:title="Creates open scans for the query, starting from the provided offset.">
<polygon fill="white" stroke="#666666" points="371,-268 211,-268 211,-238 371,-238 371,-268"/>
<text text-anchor="start" x="219" y="-256" font-family="Helvetica,sans-Serif" font-size="10.00">com.teragrep.pth_06.planner.</text>
<text text-anchor="middle" x="291" y="-245" font-family="Helvetica,sans-Serif" font-size="10.00">HBaseQueryImpl.open</text>
</a>
</g>
</g>
<!-- Node1&#45;&gt;Node7 -->
<g id="edge12_Node000001_Node000007" class="edge">
<title>Node1&#45;&gt;Node7</title>
<g id="a_edge12_Node000001_Node000007"><a xlink:title=" ">
<path fill="none" stroke="#63b8ff" d="M110.06,-159.16C147.11,-178.48 211.23,-211.92 252.09,-233.23"/>
<polygon fill="#63b8ff" stroke="#63b8ff" points="250.7,-236.45 261.19,-237.97 253.94,-230.25 250.7,-236.45"/>
</a>
</g>
</g>
<!-- Node10 -->
<g id="Node000010" class="node">
<title>Node10</title>
<g id="a_Node000010"><a xlink:href="interfacecom_1_1teragrep_1_1pth__06_1_1planner_1_1LimitedResults.html#aa0026f763a951e436b76183f663b7c91" target="_top" xlink:title=" ">
<polygon fill="white" stroke="#666666" points="371,-30 211,-30 211,0 371,0 371,-30"/>
<text text-anchor="start" x="219" y="-18" font-family="Helvetica,sans-Serif" font-size="10.00">com.teragrep.pth_06.planner.</text>
<text text-anchor="middle" x="291" y="-7" font-family="Helvetica,sans-Serif" font-size="10.00">LimitedResults.results</text>
</a>
</g>
</g>
<!-- Node1&#45;&gt;Node10 -->
<g id="edge17_Node000001_Node000010" class="edge">
<title>Node1&#45;&gt;Node10</title>
<g id="a_edge17_Node000001_Node000010"><a xlink:title=" ">
<path fill="none" stroke="#63b8ff" d="M94.38,-128.91C114.43,-107.18 154.38,-67.14 196,-44 203,-40.11 210.6,-36.66 218.33,-33.64"/>
<polygon fill="#63b8ff" stroke="#63b8ff" points="219.62,-36.89 227.8,-30.16 217.21,-30.33 219.62,-36.89"/>
</a>
</g>
</g>
<!-- Node2&#45;&gt;Node2 -->
<g id="edge2_Node000002_Node000002" class="edge">
<title>Node2&#45;&gt;Node2</title>
<g id="a_edge2_Node000002_Node000002"><a xlink:title=" ">
<path fill="none" stroke="#63b8ff" d="M467.55,-202.28C459.89,-211.41 471.38,-220 502,-220 520.18,-220 531.62,-216.97 536.31,-212.6"/>
<polygon fill="#63b8ff" stroke="#63b8ff" points="539.81,-212.32 536.45,-202.28 532.81,-212.22 539.81,-212.32"/>
</a>
</g>
</g>
<!-- Node3&#45;&gt;Node4 -->
<g id="edge4_Node000003_Node000004" class="edge">
<title>Node3&#45;&gt;Node4</title>
<g id="a_edge4_Node000003_Node000004"><a xlink:title=" ">
<path fill="none" stroke="#63b8ff" d="M759.33,-280.87C765.81,-278.31 772.17,-275.37 778,-272 829.77,-242.07 877.67,-189 900.49,-161.55"/>
<polygon fill="#63b8ff" stroke="#63b8ff" points="903.37,-163.55 906.99,-153.59 897.95,-159.12 903.37,-163.55"/>
</a>
</g>
</g>
<!-- Node6&#45;&gt;Node2 -->
<g id="edge9_Node000006_Node000002" class="edge">
<title>Node6&#45;&gt;Node2</title>
<g id="a_edge9_Node000006_Node000002"><a xlink:title=" ">
<path fill="none" stroke="#63b8ff" d="M365.1,-159.04C382.12,-162.54 400.37,-166.3 417.79,-169.88"/>
<polygon fill="#63b8ff" stroke="#63b8ff" points="417.44,-173.38 427.94,-171.97 418.85,-166.53 417.44,-173.38"/>
</a>
</g>
</g>
<!-- Node6&#45;&gt;Node4 -->
<g id="edge10_Node000006_Node000004" class="edge">
<title>Node6&#45;&gt;Node4</title>
<g id="a_edge10_Node000006_Node000004"><a xlink:title=" ">
<path fill="none" stroke="#63b8ff" d="M386.21,-144C498.16,-144 684.73,-144 803.56,-144"/>
<polygon fill="#63b8ff" stroke="#63b8ff" points="803.78,-147.5 813.78,-144 803.78,-140.5 803.78,-147.5"/>
</a>
</g>
</g>
<!-- Node6&#45;&gt;Node5 -->
<g id="edge11_Node000006_Node000005" class="edge">
<title>Node6&#45;&gt;Node5</title>
<g id="a_edge11_Node000006_Node000005"><a xlink:title=" ">
<path fill="none" stroke="#63b8ff" d="M365.1,-128.96C382.12,-125.46 400.37,-121.7 417.79,-118.12"/>
<polygon fill="#63b8ff" stroke="#63b8ff" points="418.85,-121.47 427.94,-116.03 417.44,-114.62 418.85,-121.47"/>
</a>
</g>
</g>
<!-- Node7&#45;&gt;Node3 -->
<g id="edge16_Node000007_Node000003" class="edge">
<title>Node7&#45;&gt;Node3</title>
<g id="a_edge16_Node000007_Node000003"><a xlink:title=" ">
<path fill="none" stroke="#63b8ff" d="M365.34,-268.04C383.77,-271.41 403.56,-274.67 422,-277 483.78,-284.81 553.8,-289.59 607.72,-292.4"/>
<polygon fill="#63b8ff" stroke="#63b8ff" points="607.78,-295.91 617.94,-292.92 608.13,-288.92 607.78,-295.91"/>
</a>
</g>
</g>
<!-- Node8 -->
<g id="Node000008" class="node">
<title>Node8</title>
<g id="a_Node000008"><a xlink:href="classcom_1_1teragrep_1_1pth__06_1_1planner_1_1HBaseQueryImpl.html#a5c2fd9106ed54b76d478cf6af5ac5233" target="_top" xlink:title="Closes all open scans in the hourly slices.">
<polygon fill="white" stroke="#666666" points="582,-268 422,-268 422,-238 582,-238 582,-268"/>
<text text-anchor="start" x="430" y="-256" font-family="Helvetica,sans-Serif" font-size="10.00">com.teragrep.pth_06.planner.</text>
<text text-anchor="middle" x="502" y="-245" font-family="Helvetica,sans-Serif" font-size="10.00">HBaseQueryImpl.close</text>
</a>
</g>
</g>
<!-- Node7&#45;&gt;Node8 -->
<g id="edge13_Node000007_Node000008" class="edge">
<title>Node7&#45;&gt;Node8</title>
<g id="a_edge13_Node000007_Node000008"><a xlink:title=" ">
<path fill="none" stroke="#63b8ff" d="M371.01,-253C384.28,-253 398.13,-253 411.63,-253"/>
<polygon fill="#63b8ff" stroke="#63b8ff" points="411.87,-256.5 421.87,-253 411.87,-249.5 411.87,-256.5"/>
</a>
</g>
</g>
<!-- Node8&#45;&gt;Node3 -->
<g id="edge15_Node000008_Node000003" class="edge">
<title>Node8&#45;&gt;Node3</title>
<g id="a_edge15_Node000008_Node000003"><a xlink:title=" ">
<path fill="none" stroke="#63b8ff" d="M570.85,-268.04C586.51,-271.51 603.28,-275.23 619.31,-278.78"/>
<polygon fill="#63b8ff" stroke="#63b8ff" points="618.67,-282.22 629.19,-280.97 620.18,-275.39 618.67,-282.22"/>
</a>
</g>
</g>
<!-- Node9 -->
<g id="Node000009" class="node">
<title>Node9</title>
<g id="a_Node000009"><a xlink:href="interfacecom_1_1teragrep_1_1pth__06_1_1planner_1_1HourlySlices.html#aa272aa7ce7a5abb0196768dfa472e1d1" target="_top" xlink:title=" ">
<polygon fill="white" stroke="#666666" points="778,-263 618,-263 618,-233 778,-233 778,-263"/>
<text text-anchor="start" x="626" y="-251" font-family="Helvetica,sans-Serif" font-size="10.00">com.teragrep.pth_06.planner.</text>
<text text-anchor="middle" x="698" y="-240" font-family="Helvetica,sans-Serif" font-size="10.00">HourlySlices.close</text>
</a>
</g>
</g>
<!-- Node8&#45;&gt;Node9 -->
<g id="edge14_Node000008_Node000009" class="edge">
<title>Node8&#45;&gt;Node9</title>
<g id="a_edge14_Node000008_Node000009"><a xlink:title=" ">
<path fill="none" stroke="#63b8ff" d="M582.19,-250.96C590.53,-250.74 599.05,-250.52 607.5,-250.31"/>
<polygon fill="#63b8ff" stroke="#63b8ff" points="607.85,-253.8 617.75,-250.04 607.66,-246.8 607.85,-253.8"/>
</a>
</g>
</g>
</g>
</svg>
