<?xml version="1.0" encoding="UTF-8" standalone="no"?>
<!DOCTYPE svg PUBLIC "-//W3C//DTD SVG 1.1//EN"
 "http://www.w3.org/Graphics/SVG/1.1/DTD/svg11.dtd">
<!-- Generated by graphviz version 2.43.0 (0)
 -->
<!-- Title: com.teragrep.pth_06.ast.transform.OptimizedAST.transformed Pages: 1 -->
<svg width="1166pt" height="266pt"
 viewBox="0.00 0.00 1166.00 266.00" xmlns="http://www.w3.org/2000/svg" xmlns:xlink="http://www.w3.org/1999/xlink">
<g id="graph0" class="graph" transform="scale(1 1) rotate(0) translate(4 262)">
<title>com.teragrep.pth_06.ast.transform.OptimizedAST.transformed</title>
<!-- Node1 -->
<g id="Node000001" class="node">
<title>Node1</title>
<g id="a_Node000001"><a xlink:title=" ">
<polygon fill="#999999" stroke="#666666" points="190,-126 0,-126 0,-96 190,-96 190,-126"/>
<text text-anchor="start" x="8" y="-114" font-family="Helvetica,sans-Serif" font-size="10.00">com.teragrep.pth_06.ast.transform.</text>
<text text-anchor="middle" x="95" y="-103" font-family="Helvetica,sans-Serif" font-size="10.00">OptimizedAST.transformed</text>
</a>
</g>
</g>
<!-- Node2 -->
<g id="Node000002" class="node">
<title>Node2</title>
<g id="a_Node000002"><a xlink:href="classcom_1_1teragrep_1_1pth__06_1_1ast_1_1transform_1_1OptimizedAST.html#ac4ebcab5c55182e969cd03150e96e374" target="_top" xlink:title=" ">
<polygon fill="white" stroke="#666666" points="416,-126 226,-126 226,-96 416,-96 416,-126"/>
<text text-anchor="start" x="234" y="-114" font-family="Helvetica,sans-Serif" font-size="10.00">com.teragrep.pth_06.ast.transform.</text>
<text text-anchor="middle" x="321" y="-103" font-family="Helvetica,sans-Serif" font-size="10.00">OptimizedAST.walkAndApply</text>
</a>
</g>
</g>
<!-- Node1&#45;&gt;Node2 -->
<g id="edge1_Node000001_Node000002" class="edge">
<title>Node1&#45;&gt;Node2</title>
<g id="a_edge1_Node000001_Node000002"><a xlink:title=" ">
<path fill="none" stroke="#63b8ff" d="M190.02,-111C198.54,-111 207.2,-111 215.8,-111"/>
<polygon fill="#63b8ff" stroke="#63b8ff" points="215.86,-114.5 225.86,-111 215.86,-107.5 215.86,-114.5"/>
</a>
</g>
</g>
<!-- Node2&#45;&gt;Node2 -->
<g id="edge12_Node000002_Node000002" class="edge">
<title>Node2&#45;&gt;Node2</title>
<g id="a_edge12_Node000002_Node000002"><a xlink:title=" ">
<path fill="none" stroke="#63b8ff" d="M281.27,-126.28C272.45,-135.41 285.69,-144 321,-144 341.97,-144 355.15,-140.97 360.56,-136.6"/>
<polygon fill="#63b8ff" stroke="#63b8ff" points="364.06,-136.33 360.73,-126.28 357.06,-136.22 364.06,-136.33"/>
</a>
</g>
</g>
<!-- Node3 -->
<g id="Node000003" class="node">
<title>Node3</title>
<g id="a_Node000003"><a xlink:href="classcom_1_1teragrep_1_1pth__06_1_1ast_1_1transform_1_1OptimizedAST.html#a77542c0b232d1e10e50a9846e1845b10" target="_top" xlink:title=" ">
<polygon fill="white" stroke="#666666" points="683,-126 452,-126 452,-96 683,-96 683,-126"/>
<text text-anchor="start" x="460" y="-114" font-family="Helvetica,sans-Serif" font-size="10.00">com.teragrep.pth_06.ast.transform.</text>
<text text-anchor="middle" x="567.5" y="-103" font-family="Helvetica,sans-Serif" font-size="10.00">OptimizedAST.transformedSingleExpression</text>
</a>
</g>
</g>
<!-- Node2&#45;&gt;Node3 -->
<g id="edge2_Node000002_Node000003" class="edge">
<title>Node2&#45;&gt;Node3</title>
<g id="a_edge2_Node000002_Node000003"><a xlink:title=" ">
<path fill="none" stroke="#63b8ff" d="M416.18,-111C424.59,-111 433.19,-111 441.81,-111"/>
<polygon fill="#63b8ff" stroke="#63b8ff" points="441.92,-114.5 451.92,-111 441.92,-107.5 441.92,-114.5"/>
</a>
</g>
</g>
<!-- Node4 -->
<g id="Node000004" class="node">
<title>Node4</title>
<g id="a_Node000004"><a xlink:href="classcom_1_1teragrep_1_1pth__06_1_1ast_1_1transform_1_1EmptyPruned.html#a8cfebc9854b0ad9a7cbe81918392e036" target="_top" xlink:title=" ">
<polygon fill="white" stroke="#666666" points="920,-258 730,-258 730,-228 920,-228 920,-258"/>
<text text-anchor="start" x="738" y="-246" font-family="Helvetica,sans-Serif" font-size="10.00">com.teragrep.pth_06.ast.transform.</text>
<text text-anchor="middle" x="825" y="-235" font-family="Helvetica,sans-Serif" font-size="10.00">EmptyPruned.transformed</text>
</a>
</g>
</g>
<!-- Node3&#45;&gt;Node4 -->
<g id="edge3_Node000003_Node000004" class="edge">
<title>Node3&#45;&gt;Node4</title>
<g id="a_edge3_Node000003_Node000004"><a xlink:title=" ">
<path fill="none" stroke="#63b8ff" d="M584.72,-126.05C610.91,-149.53 665.06,-194.68 719,-219 723.62,-221.08 728.44,-223 733.37,-224.75"/>
<polygon fill="#63b8ff" stroke="#63b8ff" points="732.35,-228.1 742.95,-227.93 734.56,-221.46 732.35,-228.1"/>
</a>
</g>
</g>
<!-- Node5 -->
<g id="Node000005" class="node">
<title>Node5</title>
<g id="a_Node000005"><a xlink:href="classcom_1_1teragrep_1_1pth__06_1_1ast_1_1transform_1_1FlattenLogical.html#a2e1717ad6884eea7a2415aa7763eaed5" target="_top" xlink:title=" ">
<polygon fill="white" stroke="#666666" points="920,-192 730,-192 730,-162 920,-162 920,-192"/>
<text text-anchor="start" x="738" y="-180" font-family="Helvetica,sans-Serif" font-size="10.00">com.teragrep.pth_06.ast.transform.</text>
<text text-anchor="middle" x="825" y="-169" font-family="Helvetica,sans-Serif" font-size="10.00">FlattenLogical.transformed</text>
</a>
</g>
</g>
<!-- Node3&#45;&gt;Node5 -->
<g id="edge4_Node000003_Node000005" class="edge">
<title>Node3&#45;&gt;Node5</title>
<g id="a_edge4_Node000003_Node000005"><a xlink:title=" ">
<path fill="none" stroke="#63b8ff" d="M620.23,-126.09C649.19,-134.37 686,-144.63 719,-153 727.79,-155.23 737.01,-157.47 746.19,-159.65"/>
<polygon fill="#63b8ff" stroke="#63b8ff" points="745.57,-163.1 756.11,-161.98 747.17,-156.28 745.57,-163.1"/>
</a>
</g>
</g>
<!-- Node8 -->
<g id="Node000008" class="node">
<title>Node8</title>
<g id="a_Node000008"><a xlink:href="classcom_1_1teragrep_1_1pth__06_1_1ast_1_1transform_1_1IdentitySimplification.html#a2e7ebae3195ee7794364c646e783c6d3" target="_top" xlink:title=" ">
<polygon fill="white" stroke="#666666" points="920,-126 730,-126 730,-96 920,-96 920,-126"/>
<text text-anchor="start" x="738" y="-114" font-family="Helvetica,sans-Serif" font-size="10.00">com.teragrep.pth_06.ast.transform.</text>
<text text-anchor="middle" x="825" y="-103" font-family="Helvetica,sans-Serif" font-size="10.00">IdentitySimplification.transformed</text>
</a>
</g>
</g>
<!-- Node3&#45;&gt;Node8 -->
<g id="edge8_Node000003_Node000008" class="edge">
<title>Node3&#45;&gt;Node8</title>
<g id="a_edge8_Node000003_Node000008"><a xlink:title=" ">
<path fill="none" stroke="#63b8ff" d="M683.17,-111C695.4,-111 707.79,-111 719.89,-111"/>
<polygon fill="#63b8ff" stroke="#63b8ff" points="719.97,-114.5 729.97,-111 719.97,-107.5 719.97,-114.5"/>
</a>
</g>
</g>
<!-- Node9 -->
<g id="Node000009" class="node">
<title>Node9</title>
<g id="a_Node000009"><a xlink:href="classcom_1_1teragrep_1_1pth__06_1_1ast_1_1transform_1_1PrunedInvalidTimeQualifier.html#a390e2447fa0ee0e2964ba44d68710b37" target="_top" xlink:title=" ">
<polygon fill="white" stroke="#666666" points="931,-78 719,-78 719,-48 931,-48 931,-78"/>
<text text-anchor="start" x="727" y="-66" font-family="Helvetica,sans-Serif" font-size="10.00">com.teragrep.pth_06.ast.transform.</text>
<text text-anchor="middle" x="825" y="-55" font-family="Helvetica,sans-Serif" font-size="10.00">PrunedInvalidTimeQualifier.transformed</text>
</a>
</g>
</g>
<!-- Node3&#45;&gt;Node9 -->
<g id="edge10_Node000003_Node000009" class="edge">
<title>Node3&#45;&gt;Node9</title>
<g id="a_edge10_Node000003_Node000009"><a xlink:title=" ">
<path fill="none" stroke="#63b8ff" d="M648.64,-95.94C675.75,-90.85 706.2,-85.13 734.02,-79.9"/>
<polygon fill="#63b8ff" stroke="#63b8ff" points="734.96,-83.29 744.14,-78 733.67,-76.41 734.96,-83.29"/>
</a>
</g>
</g>
<!-- Node10 -->
<g id="Node000010" class="node">
<title>Node10</title>
<g id="a_Node000010"><a xlink:href="classcom_1_1teragrep_1_1pth__06_1_1ast_1_1transform_1_1UniqueChildren.html#a39304f06c8b7ac1e1a23463fe502028e" target="_top" xlink:title=" ">
<polygon fill="white" stroke="#666666" points="920,-30 730,-30 730,0 920,0 920,-30"/>
<text text-anchor="start" x="738" y="-18" font-family="Helvetica,sans-Serif" font-size="10.00">com.teragrep.pth_06.ast.transform.</text>
<text text-anchor="middle" x="825" y="-7" font-family="Helvetica,sans-Serif" font-size="10.00">UniqueChildren.transformed</text>
</a>
</g>
</g>
<!-- Node3&#45;&gt;Node10 -->
<g id="edge11_Node000003_Node000010" class="edge">
<title>Node3&#45;&gt;Node10</title>
<g id="a_edge11_Node000003_Node000010"><a xlink:title=" ">
<path fill="none" stroke="#63b8ff" d="M595.19,-95.99C624.7,-79.94 674.01,-54.69 719,-39 725.41,-36.77 732.11,-34.68 738.89,-32.75"/>
<polygon fill="#63b8ff" stroke="#63b8ff" points="740.13,-36.04 748.85,-30.04 738.29,-29.29 740.13,-36.04"/>
</a>
</g>
</g>
<!-- Node5&#45;&gt;Node5 -->
<g id="edge7_Node000005_Node000005" class="edge">
<title>Node5&#45;&gt;Node5</title>
<g id="a_edge7_Node000005_Node000005"><a xlink:title=" ">
<path fill="none" stroke="#63b8ff" d="M783.52,-192.28C774.3,-201.41 788.12,-210 825,-210 846.89,-210 860.66,-206.97 866.31,-202.6"/>
<polygon fill="#63b8ff" stroke="#63b8ff" points="869.81,-202.33 866.48,-192.28 862.81,-202.21 869.81,-202.33"/>
</a>
</g>
</g>
<!-- Node6 -->
<g id="Node000006" class="node">
<title>Node6</title>
<g id="a_Node000006"><a xlink:href="classcom_1_1teragrep_1_1pth__06_1_1ast_1_1transform_1_1FlattenLogical.html#a3b9085857dc57e88c58a6fa5a057f103" target="_top" xlink:title=" ">
<polygon fill="white" stroke="#666666" points="1158,-216 967,-216 967,-186 1158,-186 1158,-216"/>
<text text-anchor="start" x="975" y="-204" font-family="Helvetica,sans-Serif" font-size="10.00">com.teragrep.pth_06.ast.transform.</text>
<text text-anchor="middle" x="1062.5" y="-193" font-family="Helvetica,sans-Serif" font-size="10.00">FlattenLogical.flattenedAndChildren</text>
</a>
</g>
</g>
<!-- Node5&#45;&gt;Node6 -->
<g id="edge5_Node000005_Node000006" class="edge">
<title>Node5&#45;&gt;Node6</title>
<g id="a_edge5_Node000005_Node000006"><a xlink:title=" ">
<path fill="none" stroke="#63b8ff" d="M920.09,-186.59C932.1,-187.81 944.46,-189.07 956.62,-190.31"/>
<polygon fill="#63b8ff" stroke="#63b8ff" points="956.49,-193.82 966.79,-191.35 957.2,-186.85 956.49,-193.82"/>
</a>
</g>
</g>
<!-- Node7 -->
<g id="Node000007" class="node">
<title>Node7</title>
<g id="a_Node000007"><a xlink:href="classcom_1_1teragrep_1_1pth__06_1_1ast_1_1transform_1_1FlattenLogical.html#ae0b8acc47ab74872494d07da365e303b" target="_top" xlink:title=" ">
<polygon fill="white" stroke="#666666" points="1157.5,-168 967.5,-168 967.5,-138 1157.5,-138 1157.5,-168"/>
<text text-anchor="start" x="975.5" y="-156" font-family="Helvetica,sans-Serif" font-size="10.00">com.teragrep.pth_06.ast.transform.</text>
<text text-anchor="middle" x="1062.5" y="-145" font-family="Helvetica,sans-Serif" font-size="10.00">FlattenLogical.flattenedOrChildren</text>
</a>
</g>
</g>
<!-- Node5&#45;&gt;Node7 -->
<g id="edge6_Node000005_Node000007" class="edge">
<title>Node5&#45;&gt;Node7</title>
<g id="a_edge6_Node000005_Node000007"><a xlink:title=" ">
<path fill="none" stroke="#63b8ff" d="M920.09,-167.41C932.2,-166.18 944.66,-164.91 956.93,-163.66"/>
<polygon fill="#63b8ff" stroke="#63b8ff" points="957.58,-167.11 967.17,-162.61 956.87,-160.14 957.58,-167.11"/>
</a>
</g>
</g>
<!-- Node8&#45;&gt;Node8 -->
<g id="edge9_Node000008_Node000008" class="edge">
<title>Node8&#45;&gt;Node8</title>
<g id="a_edge9_Node000008_Node000008"><a xlink:title=" ">
<path fill="none" stroke="#63b8ff" d="M783.52,-126.28C774.3,-135.41 788.12,-144 825,-144 846.89,-144 860.66,-140.97 866.31,-136.6"/>
<polygon fill="#63b8ff" stroke="#63b8ff" points="869.81,-136.33 866.48,-126.28 862.81,-136.21 869.81,-136.33"/>
</a>
</g>
</g>
</g>
</svg>
