<?xml version="1.0" encoding="UTF-8" standalone="no"?>
<!DOCTYPE svg PUBLIC "-//W3C//DTD SVG 1.1//EN"
 "http://www.w3.org/Graphics/SVG/1.1/DTD/svg11.dtd">
<!-- Generated by graphviz version 2.43.0 (0)
 -->
<!-- Title: com.teragrep.pth_06.ast.XMLQuery.elementToNode Pages: 1 -->
<svg width="572pt" height="242pt"
 viewBox="0.00 0.00 572.00 242.00" xmlns="http://www.w3.org/2000/svg" xmlns:xlink="http://www.w3.org/1999/xlink">
<g id="graph0" class="graph" transform="scale(1 1) rotate(0) translate(4 238)">
<title>com.teragrep.pth_06.ast.XMLQuery.elementToNode</title>
<!-- Node1 -->
<g id="Node000001" class="node">
<title>Node1</title>
<g id="a_Node000001"><a xlink:title=" ">
<polygon fill="#999999" stroke="#666666" points="564,-78 419,-78 419,-48 564,-48 564,-78"/>
<text text-anchor="start" x="427" y="-66" font-family="Helvetica,sans-Serif" font-size="10.00">com.teragrep.pth_06.ast.</text>
<text text-anchor="middle" x="491.5" y="-55" font-family="Helvetica,sans-Serif" font-size="10.00">XMLQuery.elementToNode</text>
</a>
</g>
</g>
<!-- Node2 -->
<g id="Node000002" class="node">
<title>Node2</title>
<g id="a_Node000002"><a xlink:href="classcom_1_1teragrep_1_1pth__06_1_1ast_1_1XMLQuery.html#a8c1c17cbc6a73a109ec4b6a53cb561f3" target="_top" xlink:title=" ">
<polygon fill="white" stroke="#666666" points="383,-126 244,-126 244,-96 383,-96 383,-126"/>
<text text-anchor="start" x="252" y="-114" font-family="Helvetica,sans-Serif" font-size="10.00">com.teragrep.pth_06.ast.</text>
<text text-anchor="middle" x="313.5" y="-103" font-family="Helvetica,sans-Serif" font-size="10.00">XMLQuery.asAST</text>
</a>
</g>
</g>
<!-- Node1&#45;&gt;Node2 -->
<g id="edge1_Node000001_Node000002" class="edge">
<title>Node1&#45;&gt;Node2</title>
<g id="a_edge1_Node000001_Node000002"><a xlink:title=" ">
<path fill="none" stroke="#63b8ff" d="M425.53,-80.72C407.12,-85.74 387.27,-91.15 369.51,-96"/>
<polygon fill="#63b8ff" stroke="#63b8ff" points="426.57,-84.06 435.3,-78.06 424.73,-77.31 426.57,-84.06"/>
</a>
</g>
</g>
<!-- Node8 -->
<g id="Node000008" class="node">
<title>Node8</title>
<g id="a_Node000008"><a xlink:href="classcom_1_1teragrep_1_1pth__06_1_1ast_1_1XMLQuery.html#aaead840df751050baf578b6e32c50f38" target="_top" xlink:title=" ">
<polygon fill="white" stroke="#666666" points="383,-78 244,-78 244,-48 383,-48 383,-78"/>
<text text-anchor="start" x="252" y="-66" font-family="Helvetica,sans-Serif" font-size="10.00">com.teragrep.pth_06.ast.</text>
<text text-anchor="middle" x="313.5" y="-55" font-family="Helvetica,sans-Serif" font-size="10.00">XMLQuery.visitLogical</text>
</a>
</g>
</g>
<!-- Node1&#45;&gt;Node8 -->
<g id="edge7_Node000001_Node000008" class="edge">
<title>Node1&#45;&gt;Node8</title>
<g id="a_edge7_Node000001_Node000008"><a xlink:title=" ">
<path fill="none" stroke="#63b8ff" d="M408.88,-56.27C400.28,-56.22 391.61,-56.27 383.18,-56.4"/>
<polygon fill="#63b8ff" stroke="#63b8ff" points="408.88,-59.77 418.91,-56.36 408.95,-52.77 408.88,-59.77"/>
</a>
</g>
</g>
<!-- Node3 -->
<g id="Node000003" class="node">
<title>Node3</title>
<g id="a_Node000003"><a xlink:href="classcom_1_1teragrep_1_1pth__06_1_1ast_1_1transform_1_1OptimizedAST.html#a051bf5a77cb7ce49914e2cf43a24b518" target="_top" xlink:title=" ">
<polygon fill="white" stroke="#666666" points="199,-234 9,-234 9,-204 199,-204 199,-234"/>
<text text-anchor="start" x="17" y="-222" font-family="Helvetica,sans-Serif" font-size="10.00">com.teragrep.pth_06.ast.transform.</text>
<text text-anchor="middle" x="104" y="-211" font-family="Helvetica,sans-Serif" font-size="10.00">OptimizedAST.OptimizedAST</text>
</a>
</g>
</g>
<!-- Node2&#45;&gt;Node3 -->
<g id="edge2_Node000002_Node000003" class="edge">
<title>Node2&#45;&gt;Node3</title>
<g id="a_edge2_Node000002_Node000003"><a xlink:title=" ">
<path fill="none" stroke="#63b8ff" d="M290.81,-133.39C270.98,-152.55 239.96,-179.44 208,-195 200.9,-198.46 193.28,-201.43 185.52,-203.98"/>
<polygon fill="#63b8ff" stroke="#63b8ff" points="293.42,-135.72 298.09,-126.21 288.51,-130.74 293.42,-135.72"/>
</a>
</g>
</g>
<!-- Node4 -->
<g id="Node000004" class="node">
<title>Node4</title>
<g id="a_Node000004"><a xlink:href="classcom_1_1teragrep_1_1pth__06_1_1ast_1_1XMLQueryTest.html#a07dcf3b87c6ca71ccd94e2f29bb8e7d5" target="_top" xlink:title=" ">
<polygon fill="white" stroke="#666666" points="194,-185.5 14,-185.5 14,-144.5 194,-144.5 194,-185.5"/>
<text text-anchor="start" x="22" y="-173.5" font-family="Helvetica,sans-Serif" font-size="10.00">com.teragrep.pth_06.ast.</text>
<text text-anchor="start" x="22" y="-162.5" font-family="Helvetica,sans-Serif" font-size="10.00">XMLQueryTest.testIndexPlusTime</text>
<text text-anchor="middle" x="104" y="-151.5" font-family="Helvetica,sans-Serif" font-size="10.00">Qualifier</text>
</a>
</g>
</g>
<!-- Node2&#45;&gt;Node4 -->
<g id="edge3_Node000002_Node000004" class="edge">
<title>Node2&#45;&gt;Node4</title>
<g id="a_edge3_Node000002_Node000004"><a xlink:title=" ">
<path fill="none" stroke="#63b8ff" d="M244.99,-128.57C225.46,-133.65 203.97,-139.24 183.81,-144.49"/>
<polygon fill="#63b8ff" stroke="#63b8ff" points="245.9,-131.95 254.7,-126.04 244.14,-125.17 245.9,-131.95"/>
</a>
</g>
</g>
<!-- Node5 -->
<g id="Node000005" class="node">
<title>Node5</title>
<g id="a_Node000005"><a xlink:href="classcom_1_1teragrep_1_1pth__06_1_1ast_1_1XMLQueryTest.html#a59c59e40633cfec64d705855753d5406" target="_top" xlink:title=" ">
<polygon fill="white" stroke="#666666" points="208,-126 0,-126 0,-96 208,-96 208,-126"/>
<text text-anchor="start" x="8" y="-114" font-family="Helvetica,sans-Serif" font-size="10.00">com.teragrep.pth_06.ast.</text>
<text text-anchor="middle" x="104" y="-103" font-family="Helvetica,sans-Serif" font-size="10.00">XMLQueryTest.testSingleElementQuery</text>
</a>
</g>
</g>
<!-- Node2&#45;&gt;Node5 -->
<g id="edge4_Node000002_Node000005" class="edge">
<title>Node2&#45;&gt;Node5</title>
<g id="a_edge4_Node000002_Node000005"><a xlink:title=" ">
<path fill="none" stroke="#63b8ff" d="M233.9,-111C225.54,-111 216.94,-111 208.34,-111"/>
<polygon fill="#63b8ff" stroke="#63b8ff" points="233.98,-114.5 243.98,-111 233.98,-107.5 233.98,-114.5"/>
</a>
</g>
</g>
<!-- Node6 -->
<g id="Node000006" class="node">
<title>Node6</title>
<g id="a_Node000006"><a xlink:href="classcom_1_1teragrep_1_1pth__06_1_1ast_1_1XMLQueryTest.html#a2ebd8e596562c64c7277addf44066e83" target="_top" xlink:title=" ">
<polygon fill="white" stroke="#666666" points="195.5,-78 12.5,-78 12.5,-48 195.5,-48 195.5,-78"/>
<text text-anchor="start" x="20.5" y="-66" font-family="Helvetica,sans-Serif" font-size="10.00">com.teragrep.pth_06.ast.</text>
<text text-anchor="middle" x="104" y="-55" font-family="Helvetica,sans-Serif" font-size="10.00">XMLQueryTest.testXMLFromQuery</text>
</a>
</g>
</g>
<!-- Node2&#45;&gt;Node6 -->
<g id="edge5_Node000002_Node000006" class="edge">
<title>Node2&#45;&gt;Node6</title>
<g id="a_edge5_Node000002_Node000006"><a xlink:title=" ">
<path fill="none" stroke="#63b8ff" d="M237.4,-93.63C215.28,-88.51 191.27,-82.96 169.85,-78"/>
<polygon fill="#63b8ff" stroke="#63b8ff" points="236.88,-97.1 247.42,-95.94 238.46,-90.28 236.88,-97.1"/>
</a>
</g>
</g>
<!-- Node7 -->
<g id="Node000007" class="node">
<title>Node7</title>
<g id="a_Node000007"><a xlink:href="classcom_1_1teragrep_1_1pth__06_1_1ast_1_1XMLQuery.html#a250ff5ec579a915f2015023a0525bfeb" target="_top" xlink:title=" ">
<polygon fill="white" stroke="#666666" points="173.5,-30 34.5,-30 34.5,0 173.5,0 173.5,-30"/>
<text text-anchor="start" x="42.5" y="-18" font-family="Helvetica,sans-Serif" font-size="10.00">com.teragrep.pth_06.ast.</text>
<text text-anchor="middle" x="104" y="-7" font-family="Helvetica,sans-Serif" font-size="10.00">XMLQuery.toString</text>
</a>
</g>
</g>
<!-- Node2&#45;&gt;Node7 -->
<g id="edge6_Node000002_Node000007" class="edge">
<title>Node2&#45;&gt;Node7</title>
<g id="a_edge6_Node000002_Node000007"><a xlink:title=" ">
<path fill="none" stroke="#63b8ff" d="M250.41,-91.24C248.19,-89.91 246.05,-88.5 244,-87 222.49,-71.24 230.33,-53.57 208,-39 197.7,-32.28 185.73,-27.43 173.68,-23.94"/>
<polygon fill="#63b8ff" stroke="#63b8ff" points="248.81,-94.35 259.28,-95.96 252.1,-88.17 248.81,-94.35"/>
</a>
</g>
</g>
<!-- Node8&#45;&gt;Node1 -->
<g id="edge8_Node000008_Node000001" class="edge">
<title>Node8&#45;&gt;Node1</title>
<g id="a_edge8_Node000008_Node000001"><a xlink:title=" ">
<path fill="none" stroke="#63b8ff" d="M393.45,-69.72C401.93,-69.78 410.52,-69.75 418.91,-69.64"/>
<polygon fill="#63b8ff" stroke="#63b8ff" points="393.21,-66.22 383.18,-69.6 393.14,-73.21 393.21,-66.22"/>
</a>
</g>
</g>
</g>
</svg>
