<?xml version="1.0" encoding="UTF-8" standalone="no"?>
<!DOCTYPE svg PUBLIC "-//W3C//DTD SVG 1.1//EN"
 "http://www.w3.org/Graphics/SVG/1.1/DTD/svg11.dtd">
<!-- Generated by graphviz version 2.43.0 (0)
 -->
<!-- Title: com.teragrep.pth_06.ast.analyze.ScanPlanImplTest.testFromLatest Pages: 1 -->
<svg width="404pt" height="134pt"
 viewBox="0.00 0.00 404.00 134.00" xmlns="http://www.w3.org/2000/svg" xmlns:xlink="http://www.w3.org/1999/xlink">
<g id="graph0" class="graph" transform="scale(1 1) rotate(0) translate(4 130)">
<title>com.teragrep.pth_06.ast.analyze.ScanPlanImplTest.testFromLatest</title>
<!-- Node1 -->
<g id="Node000001" class="node">
<title>Node1</title>
<g id="a_Node000001"><a xlink:title=" ">
<polygon fill="#999999" stroke="#666666" points="180,-78 0,-78 0,-48 180,-48 180,-78"/>
<text text-anchor="start" x="8" y="-66" font-family="Helvetica,sans-Serif" font-size="10.00">com.teragrep.pth_06.ast.analyze.</text>
<text text-anchor="middle" x="90" y="-55" font-family="Helvetica,sans-Serif" font-size="10.00">ScanPlanImplTest.testFromLatest</text>
</a>
</g>
</g>
<!-- Node2 -->
<g id="Node000002" class="node">
<title>Node2</title>
<g id="a_Node000002"><a xlink:href="interfacecom_1_1teragrep_1_1pth__06_1_1ast_1_1analyze_1_1ScanPlan.html#ac8cf71cc89d66b8a712bdb95f4766219" target="_top" xlink:title=" ">
<polygon fill="white" stroke="#666666" points="396,-126 216,-126 216,-96 396,-96 396,-126"/>
<text text-anchor="start" x="224" y="-114" font-family="Helvetica,sans-Serif" font-size="10.00">com.teragrep.pth_06.ast.analyze.</text>
<text text-anchor="middle" x="306" y="-103" font-family="Helvetica,sans-Serif" font-size="10.00">ScanPlan.earliest</text>
</a>
</g>
</g>
<!-- Node1&#45;&gt;Node2 -->
<g id="edge1_Node000001_Node000002" class="edge">
<title>Node1&#45;&gt;Node2</title>
<g id="a_edge1_Node000001_Node000002"><a xlink:title=" ">
<path fill="none" stroke="#63b8ff" d="M158.12,-78.06C180.33,-83.04 205.22,-88.62 228.1,-93.75"/>
<polygon fill="#63b8ff" stroke="#63b8ff" points="227.59,-97.22 238.11,-96 229.12,-90.39 227.59,-97.22"/>
</a>
</g>
</g>
<!-- Node3 -->
<g id="Node000003" class="node">
<title>Node3</title>
<g id="a_Node000003"><a xlink:href="interfacecom_1_1teragrep_1_1pth__06_1_1ast_1_1analyze_1_1ScanPlan.html#aec1f839cc717eaa9a7aae9776936abb0" target="_top" xlink:title=" ">
<polygon fill="white" stroke="#666666" points="396,-78 216,-78 216,-48 396,-48 396,-78"/>
<text text-anchor="start" x="224" y="-66" font-family="Helvetica,sans-Serif" font-size="10.00">com.teragrep.pth_06.ast.analyze.</text>
<text text-anchor="middle" x="306" y="-55" font-family="Helvetica,sans-Serif" font-size="10.00">ScanPlan.latest</text>
</a>
</g>
</g>
<!-- Node1&#45;&gt;Node3 -->
<g id="edge2_Node000001_Node000003" class="edge">
<title>Node1&#45;&gt;Node3</title>
<g id="a_edge2_Node000001_Node000003"><a xlink:title=" ">
<path fill="none" stroke="#63b8ff" d="M180.21,-63C188.7,-63 197.34,-63 205.92,-63"/>
<polygon fill="#63b8ff" stroke="#63b8ff" points="205.94,-66.5 215.94,-63 205.94,-59.5 205.94,-66.5"/>
</a>
</g>
</g>
<!-- Node4 -->
<g id="Node000004" class="node">
<title>Node4</title>
<g id="a_Node000004"><a xlink:href="interfacecom_1_1teragrep_1_1pth__06_1_1ast_1_1analyze_1_1ScanPlan.html#af227872887ccd4c41c0f6a0364e0a3b1" target="_top" xlink:title="new ScanRange with new latest value if inside the scope, otherwise no changes">
<polygon fill="white" stroke="#666666" points="396,-30 216,-30 216,0 396,0 396,-30"/>
<text text-anchor="start" x="224" y="-18" font-family="Helvetica,sans-Serif" font-size="10.00">com.teragrep.pth_06.ast.analyze.</text>
<text text-anchor="middle" x="306" y="-7" font-family="Helvetica,sans-Serif" font-size="10.00">ScanPlan.rangeUntilLatest</text>
</a>
</g>
</g>
<!-- Node1&#45;&gt;Node4 -->
<g id="edge3_Node000001_Node000004" class="edge">
<title>Node1&#45;&gt;Node4</title>
<g id="a_edge3_Node000001_Node000004"><a xlink:title=" ">
<path fill="none" stroke="#63b8ff" d="M158.12,-47.94C180.33,-42.96 205.22,-37.38 228.1,-32.25"/>
<polygon fill="#63b8ff" stroke="#63b8ff" points="229.12,-35.61 238.11,-30 227.59,-28.78 229.12,-35.61"/>
</a>
</g>
</g>
</g>
</svg>
