<?xml version="1.0" encoding="UTF-8" standalone="no"?>
<!DOCTYPE svg PUBLIC "-//W3C//DTD SVG 1.1//EN"
 "http://www.w3.org/Graphics/SVG/1.1/DTD/svg11.dtd">
<!-- Generated by graphviz version 2.43.0 (0)
 -->
<!-- Title: Graphical Class Hierarchy Pages: 1 -->
<svg width="453pt" height="326pt"
 viewBox="0.00 0.00 453.00 326.00" xmlns="http://www.w3.org/2000/svg" xmlns:xlink="http://www.w3.org/1999/xlink">
<g id="graph0" class="graph" transform="scale(1 1) rotate(0) translate(4 322)">
<title>Graphical Class Hierarchy</title>
<!-- Node0 -->
<g id="Node000000" class="node">
<title>Node0</title>
<g id="a_Node000000"><a xlink:href="interfacecom_1_1teragrep_1_1pth__06_1_1ast_1_1transform_1_1ExpressionTransformation.html" target="_top" xlink:title=" ">
<polygon fill="white" stroke="#666666" points="219,-174 0,-174 0,-144 219,-144 219,-174"/>
<text text-anchor="start" x="8" y="-162" font-family="Helvetica,sans-Serif" font-size="10.00">com.teragrep.pth_06.ast.transform.</text>
<text text-anchor="middle" x="109.5" y="-151" font-family="Helvetica,sans-Serif" font-size="10.00">ExpressionTransformation&lt; Expression &gt;</text>
</a>
</g>
</g>
<!-- Node1 -->
<g id="Node000001" class="node">
<title>Node1</title>
<g id="a_Node000001"><a xlink:href="classcom_1_1teragrep_1_1pth__06_1_1ast_1_1transform_1_1EmptyPruned.html" target="_top" xlink:title="Optimizes AND/OR expressions with empty values into value expressions.">
<polygon fill="white" stroke="#666666" points="445,-318 255,-318 255,-288 445,-288 445,-318"/>
<text text-anchor="start" x="263" y="-306" font-family="Helvetica,sans-Serif" font-size="10.00">com.teragrep.pth_06.ast.transform.</text>
<text text-anchor="middle" x="350" y="-295" font-family="Helvetica,sans-Serif" font-size="10.00">EmptyPruned</text>
</a>
</g>
</g>
<!-- Node0&#45;&gt;Node1 -->
<g id="edge38_Node000000_Node000001" class="edge">
<title>Node0&#45;&gt;Node1</title>
<g id="a_edge38_Node000000_Node000001"><a xlink:title=" ">
<path fill="none" stroke="#63b8ff" d="M131.23,-181.47C157.48,-208.58 205.29,-253.66 255,-279 261.75,-282.44 269.04,-285.42 276.45,-287.98"/>
<polygon fill="#63b8ff" stroke="#63b8ff" points="133.54,-178.83 124.11,-174.01 128.48,-183.66 133.54,-178.83"/>
</a>
</g>
</g>
<!-- Node2 -->
<g id="Node000002" class="node">
<title>Node2</title>
<g id="a_Node000002"><a xlink:href="classcom_1_1teragrep_1_1pth__06_1_1ast_1_1transform_1_1FlattenLogical.html" target="_top" xlink:title=" ">
<polygon fill="white" stroke="#666666" points="445,-270 255,-270 255,-240 445,-240 445,-270"/>
<text text-anchor="start" x="263" y="-258" font-family="Helvetica,sans-Serif" font-size="10.00">com.teragrep.pth_06.ast.transform.</text>
<text text-anchor="middle" x="350" y="-247" font-family="Helvetica,sans-Serif" font-size="10.00">FlattenLogical</text>
</a>
</g>
</g>
<!-- Node0&#45;&gt;Node2 -->
<g id="edge39_Node000000_Node000002" class="edge">
<title>Node0&#45;&gt;Node2</title>
<g id="a_edge39_Node000000_Node000002"><a xlink:title=" ">
<path fill="none" stroke="#63b8ff" d="M145.2,-178.91C173.91,-194.74 216.12,-216.54 255,-231 263.84,-234.29 273.31,-237.29 282.71,-239.96"/>
<polygon fill="#63b8ff" stroke="#63b8ff" points="146.82,-175.81 136.38,-174 143.42,-181.92 146.82,-175.81"/>
</a>
</g>
</g>
<!-- Node3 -->
<g id="Node000003" class="node">
<title>Node3</title>
<g id="a_Node000003"><a xlink:href="classcom_1_1teragrep_1_1pth__06_1_1ast_1_1transform_1_1IdentitySimplification.html" target="_top" xlink:title="Simplify logical to value expression: AND(value) &#45;&gt; value.">
<polygon fill="white" stroke="#666666" points="445,-222 255,-222 255,-192 445,-192 445,-222"/>
<text text-anchor="start" x="263" y="-210" font-family="Helvetica,sans-Serif" font-size="10.00">com.teragrep.pth_06.ast.transform.</text>
<text text-anchor="middle" x="350" y="-199" font-family="Helvetica,sans-Serif" font-size="10.00">IdentitySimplification</text>
</a>
</g>
</g>
<!-- Node0&#45;&gt;Node3 -->
<g id="edge40_Node000000_Node000003" class="edge">
<title>Node0&#45;&gt;Node3</title>
<g id="a_edge40_Node000000_Node000003"><a xlink:title=" ">
<path fill="none" stroke="#63b8ff" d="M195.45,-176.1C221.25,-181.29 249.39,-186.95 274.46,-192"/>
<polygon fill="#63b8ff" stroke="#63b8ff" points="195.8,-172.6 185.31,-174.06 194.42,-179.46 195.8,-172.6"/>
</a>
</g>
</g>
<!-- Node4 -->
<g id="Node000004" class="node">
<title>Node4</title>
<g id="a_Node000004"><a xlink:href="classcom_1_1teragrep_1_1pth__06_1_1ast_1_1transform_1_1OptimizedAST.html" target="_top" xlink:title=" ">
<polygon fill="white" stroke="#666666" points="445,-174 255,-174 255,-144 445,-144 445,-174"/>
<text text-anchor="start" x="263" y="-162" font-family="Helvetica,sans-Serif" font-size="10.00">com.teragrep.pth_06.ast.transform.</text>
<text text-anchor="middle" x="350" y="-151" font-family="Helvetica,sans-Serif" font-size="10.00">OptimizedAST</text>
</a>
</g>
</g>
<!-- Node0&#45;&gt;Node4 -->
<g id="edge41_Node000000_Node000004" class="edge">
<title>Node0&#45;&gt;Node4</title>
<g id="a_edge41_Node000000_Node000004"><a xlink:title=" ">
<path fill="none" stroke="#63b8ff" d="M229.36,-159C237.95,-159 246.55,-159 254.97,-159"/>
<polygon fill="#63b8ff" stroke="#63b8ff" points="229.28,-155.5 219.28,-159 229.28,-162.5 229.28,-155.5"/>
</a>
</g>
</g>
<!-- Node5 -->
<g id="Node000005" class="node">
<title>Node5</title>
<g id="a_Node000005"><a xlink:href="classcom_1_1teragrep_1_1pth__06_1_1ast_1_1transform_1_1PrunedInvalidTimeQualifier.html" target="_top" xlink:title=" ">
<polygon fill="white" stroke="#666666" points="445,-126 255,-126 255,-96 445,-96 445,-126"/>
<text text-anchor="start" x="263" y="-114" font-family="Helvetica,sans-Serif" font-size="10.00">com.teragrep.pth_06.ast.transform.</text>
<text text-anchor="middle" x="350" y="-103" font-family="Helvetica,sans-Serif" font-size="10.00">PrunedInvalidTimeQualifier</text>
</a>
</g>
</g>
<!-- Node0&#45;&gt;Node5 -->
<g id="edge42_Node000000_Node000005" class="edge">
<title>Node0&#45;&gt;Node5</title>
<g id="a_edge42_Node000000_Node000005"><a xlink:title=" ">
<path fill="none" stroke="#63b8ff" d="M195.45,-141.9C221.25,-136.71 249.39,-131.05 274.46,-126"/>
<polygon fill="#63b8ff" stroke="#63b8ff" points="194.42,-138.54 185.31,-143.94 195.8,-145.4 194.42,-138.54"/>
</a>
</g>
</g>
<!-- Node6 -->
<g id="Node000006" class="node">
<title>Node6</title>
<g id="a_Node000006"><a xlink:href="classcom_1_1teragrep_1_1pth__06_1_1ast_1_1transform_1_1UniqueChildren.html" target="_top" xlink:title="Prunes duplicate children from a AND/OR expression.">
<polygon fill="white" stroke="#666666" points="445,-78 255,-78 255,-48 445,-48 445,-78"/>
<text text-anchor="start" x="263" y="-66" font-family="Helvetica,sans-Serif" font-size="10.00">com.teragrep.pth_06.ast.transform.</text>
<text text-anchor="middle" x="350" y="-55" font-family="Helvetica,sans-Serif" font-size="10.00">UniqueChildren</text>
</a>
</g>
</g>
<!-- Node0&#45;&gt;Node6 -->
<g id="edge43_Node000000_Node000006" class="edge">
<title>Node0&#45;&gt;Node6</title>
<g id="a_edge43_Node000000_Node000006"><a xlink:title=" ">
<path fill="none" stroke="#63b8ff" d="M145.2,-139.09C173.91,-123.26 216.12,-101.46 255,-87 263.84,-83.71 273.31,-80.71 282.71,-78.04"/>
<polygon fill="#63b8ff" stroke="#63b8ff" points="143.42,-136.08 136.38,-144 146.82,-142.19 143.42,-136.08"/>
</a>
</g>
</g>
<!-- Node7 -->
<g id="Node000007" class="node">
<title>Node7</title>
<g id="a_Node000007"><a xlink:href="classcom_1_1teragrep_1_1pth__06_1_1ast_1_1transform_1_1WithDefaultValues.html" target="_top" xlink:title=" ">
<polygon fill="white" stroke="#666666" points="445,-30 255,-30 255,0 445,0 445,-30"/>
<text text-anchor="start" x="263" y="-18" font-family="Helvetica,sans-Serif" font-size="10.00">com.teragrep.pth_06.ast.transform.</text>
<text text-anchor="middle" x="350" y="-7" font-family="Helvetica,sans-Serif" font-size="10.00">WithDefaultValues</text>
</a>
</g>
</g>
<!-- Node0&#45;&gt;Node7 -->
<g id="edge44_Node000000_Node000007" class="edge">
<title>Node0&#45;&gt;Node7</title>
<g id="a_edge44_Node000000_Node000007"><a xlink:title=" ">
<path fill="none" stroke="#63b8ff" d="M131.23,-136.53C157.48,-109.42 205.29,-64.34 255,-39 261.75,-35.56 269.04,-32.58 276.45,-30.02"/>
<polygon fill="#63b8ff" stroke="#63b8ff" points="128.48,-134.34 124.11,-143.99 133.54,-139.17 128.48,-134.34"/>
</a>
</g>
</g>
</g>
</svg>
