<?xml version="1.0" encoding="UTF-8" standalone="no"?>
<!DOCTYPE svg PUBLIC "-//W3C//DTD SVG 1.1//EN"
 "http://www.w3.org/Graphics/SVG/1.1/DTD/svg11.dtd">
<!-- Generated by graphviz version 2.43.0 (0)
 -->
<!-- Title: com.teragrep.pth_06.ast.expressions.Expression.isValue Pages: 1 -->
<svg width="465pt" height="278pt"
 viewBox="0.00 0.00 465.00 278.00" xmlns="http://www.w3.org/2000/svg" xmlns:xlink="http://www.w3.org/1999/xlink">
<g id="graph0" class="graph" transform="scale(1 1) rotate(0) translate(4 274)">
<title>com.teragrep.pth_06.ast.expressions.Expression.isValue</title>
<!-- Node1 -->
<g id="Node000001" class="node">
<title>Node1</title>
<g id="a_Node000001"><a xlink:title=" ">
<polygon fill="#999999" stroke="#666666" points="457,-150 257,-150 257,-120 457,-120 457,-150"/>
<text text-anchor="start" x="265" y="-138" font-family="Helvetica,sans-Serif" font-size="10.00">com.teragrep.pth_06.ast.expressions.</text>
<text text-anchor="middle" x="357" y="-127" font-family="Helvetica,sans-Serif" font-size="10.00">Expression.isValue</text>
</a>
</g>
</g>
<!-- Node2 -->
<g id="Node000002" class="node">
<title>Node2</title>
<g id="a_Node000002"><a xlink:href="classcom_1_1teragrep_1_1pth__06_1_1ast_1_1expressions_1_1EarliestExpressionTest.html#ad761bbb7f6fb332fc606925e35d1ca48" target="_top" xlink:title=" ">
<polygon fill="white" stroke="#666666" points="210.5,-270 10.5,-270 10.5,-240 210.5,-240 210.5,-270"/>
<text text-anchor="start" x="18.5" y="-258" font-family="Helvetica,sans-Serif" font-size="10.00">com.teragrep.pth_06.ast.expressions.</text>
<text text-anchor="middle" x="110.5" y="-247" font-family="Helvetica,sans-Serif" font-size="10.00">EarliestExpressionTest.testValues</text>
</a>
</g>
</g>
<!-- Node1&#45;&gt;Node2 -->
<g id="edge1_Node000001_Node000002" class="edge">
<title>Node1&#45;&gt;Node2</title>
<g id="a_edge1_Node000001_Node000002"><a xlink:title=" ">
<path fill="none" stroke="#63b8ff" d="M331.76,-156.89C306.09,-178.9 263.47,-212.19 221,-231 213.26,-234.43 204.99,-237.38 196.59,-239.93"/>
<polygon fill="#63b8ff" stroke="#63b8ff" points="334.24,-159.38 339.48,-150.17 329.64,-154.1 334.24,-159.38"/>
</a>
</g>
</g>
<!-- Node3 -->
<g id="Node000003" class="node">
<title>Node3</title>
<g id="a_Node000003"><a xlink:href="classcom_1_1teragrep_1_1pth__06_1_1ast_1_1expressions_1_1HostExpressionTest.html#a326753161c991bc3580461df1f8da76f" target="_top" xlink:title=" ">
<polygon fill="white" stroke="#666666" points="210.5,-222 10.5,-222 10.5,-192 210.5,-192 210.5,-222"/>
<text text-anchor="start" x="18.5" y="-210" font-family="Helvetica,sans-Serif" font-size="10.00">com.teragrep.pth_06.ast.expressions.</text>
<text text-anchor="middle" x="110.5" y="-199" font-family="Helvetica,sans-Serif" font-size="10.00">HostExpressionTest.testValues</text>
</a>
</g>
</g>
<!-- Node1&#45;&gt;Node3 -->
<g id="edge2_Node000001_Node000003" class="edge">
<title>Node1&#45;&gt;Node3</title>
<g id="a_edge2_Node000001_Node000003"><a xlink:title=" ">
<path fill="none" stroke="#63b8ff" d="M308.25,-153.63C282.63,-163.21 250.37,-174.6 221,-183 209.77,-186.21 197.79,-189.24 186.03,-191.99"/>
<polygon fill="#63b8ff" stroke="#63b8ff" points="309.6,-156.87 317.72,-150.06 307.13,-150.32 309.6,-156.87"/>
</a>
</g>
</g>
<!-- Node4 -->
<g id="Node000004" class="node">
<title>Node4</title>
<g id="a_Node000004"><a xlink:href="classcom_1_1teragrep_1_1pth__06_1_1ast_1_1expressions_1_1IndexExpressionTest.html#ab8fa9de9c9d1bd14dd09bb661a53e6d7" target="_top" xlink:title=" ">
<polygon fill="white" stroke="#666666" points="210.5,-174 10.5,-174 10.5,-144 210.5,-144 210.5,-174"/>
<text text-anchor="start" x="18.5" y="-162" font-family="Helvetica,sans-Serif" font-size="10.00">com.teragrep.pth_06.ast.expressions.</text>
<text text-anchor="middle" x="110.5" y="-151" font-family="Helvetica,sans-Serif" font-size="10.00">IndexExpressionTest.testValues</text>
</a>
</g>
</g>
<!-- Node1&#45;&gt;Node4 -->
<g id="edge3_Node000001_Node000004" class="edge">
<title>Node1&#45;&gt;Node4</title>
<g id="a_edge3_Node000001_Node000004"><a xlink:title=" ">
<path fill="none" stroke="#63b8ff" d="M246.85,-145.71C234.83,-146.89 222.63,-148.09 210.74,-149.26"/>
<polygon fill="#63b8ff" stroke="#63b8ff" points="247.29,-149.19 256.9,-144.73 246.61,-142.22 247.29,-149.19"/>
</a>
</g>
</g>
<!-- Node5 -->
<g id="Node000005" class="node">
<title>Node5</title>
<g id="a_Node000005"><a xlink:href="classcom_1_1teragrep_1_1pth__06_1_1ast_1_1expressions_1_1IndexStatementExpressionTest.html#a285bea623c03ae6dd2e67cf7acc52aca" target="_top" xlink:title=" ">
<polygon fill="white" stroke="#666666" points="221,-126 0,-126 0,-96 221,-96 221,-126"/>
<text text-anchor="start" x="8" y="-114" font-family="Helvetica,sans-Serif" font-size="10.00">com.teragrep.pth_06.ast.expressions.</text>
<text text-anchor="middle" x="110.5" y="-103" font-family="Helvetica,sans-Serif" font-size="10.00">IndexStatementExpressionTest.testValues</text>
</a>
</g>
</g>
<!-- Node1&#45;&gt;Node5 -->
<g id="edge4_Node000001_Node000005" class="edge">
<title>Node1&#45;&gt;Node5</title>
<g id="a_edge4_Node000001_Node000005"><a xlink:title=" ">
<path fill="none" stroke="#63b8ff" d="M246.9,-124.29C238.34,-123.45 229.69,-122.6 221.13,-121.76"/>
<polygon fill="#63b8ff" stroke="#63b8ff" points="246.61,-127.78 256.9,-125.27 247.29,-120.81 246.61,-127.78"/>
</a>
</g>
</g>
<!-- Node6 -->
<g id="Node000006" class="node">
<title>Node6</title>
<g id="a_Node000006"><a xlink:href="classcom_1_1teragrep_1_1pth__06_1_1ast_1_1expressions_1_1LatestExpressionTest.html#aa5b934e07f3d3a20300aa41c9ec54313" target="_top" xlink:title=" ">
<polygon fill="white" stroke="#666666" points="210.5,-78 10.5,-78 10.5,-48 210.5,-48 210.5,-78"/>
<text text-anchor="start" x="18.5" y="-66" font-family="Helvetica,sans-Serif" font-size="10.00">com.teragrep.pth_06.ast.expressions.</text>
<text text-anchor="middle" x="110.5" y="-55" font-family="Helvetica,sans-Serif" font-size="10.00">LatestExpressionTest.testValues</text>
</a>
</g>
</g>
<!-- Node1&#45;&gt;Node6 -->
<g id="edge5_Node000001_Node000006" class="edge">
<title>Node1&#45;&gt;Node6</title>
<g id="a_edge5_Node000001_Node000006"><a xlink:title=" ">
<path fill="none" stroke="#63b8ff" d="M308.25,-116.37C282.63,-106.79 250.37,-95.4 221,-87 209.77,-83.79 197.79,-80.76 186.03,-78.01"/>
<polygon fill="#63b8ff" stroke="#63b8ff" points="307.13,-119.68 317.72,-119.94 309.6,-113.13 307.13,-119.68"/>
</a>
</g>
</g>
<!-- Node7 -->
<g id="Node000007" class="node">
<title>Node7</title>
<g id="a_Node000007"><a xlink:href="classcom_1_1teragrep_1_1pth__06_1_1ast_1_1expressions_1_1SourceTypeExpressionTest.html#a84597df445b5ce1bbc99112bdb4eeeab" target="_top" xlink:title=" ">
<polygon fill="white" stroke="#666666" points="210.5,-30 10.5,-30 10.5,0 210.5,0 210.5,-30"/>
<text text-anchor="start" x="18.5" y="-18" font-family="Helvetica,sans-Serif" font-size="10.00">com.teragrep.pth_06.ast.expressions.</text>
<text text-anchor="middle" x="110.5" y="-7" font-family="Helvetica,sans-Serif" font-size="10.00">SourceTypeExpressionTest.testValues</text>
</a>
</g>
</g>
<!-- Node1&#45;&gt;Node7 -->
<g id="edge6_Node000001_Node000007" class="edge">
<title>Node1&#45;&gt;Node7</title>
<g id="a_edge6_Node000001_Node000007"><a xlink:title=" ">
<path fill="none" stroke="#63b8ff" d="M331.76,-113.11C306.09,-91.1 263.47,-57.81 221,-39 213.26,-35.57 204.99,-32.62 196.59,-30.07"/>
<polygon fill="#63b8ff" stroke="#63b8ff" points="329.64,-115.9 339.48,-119.83 334.24,-110.62 329.64,-115.9"/>
</a>
</g>
</g>
</g>
</svg>
