<?xml version="1.0" encoding="UTF-8" standalone="no"?>
<!DOCTYPE svg PUBLIC "-//W3C//DTD SVG 1.1//EN"
 "http://www.w3.org/Graphics/SVG/1.1/DTD/svg11.dtd">
<!-- Generated by graphviz version 2.43.0 (0)
 -->
<!-- Title: com.teragrep.pth_06.ast.analyze.FilterGroup.filterList Pages: 1 -->
<svg width="1368pt" height="386pt"
 viewBox="0.00 0.00 1368.00 386.00" xmlns="http://www.w3.org/2000/svg" xmlns:xlink="http://www.w3.org/1999/xlink">
<g id="graph0" class="graph" transform="scale(1 1) rotate(0) translate(4 382)">
<title>com.teragrep.pth_06.ast.analyze.FilterGroup.filterList</title>
<!-- Node1 -->
<g id="Node000001" class="node">
<title>Node1</title>
<g id="a_Node000001"><a xlink:title=" ">
<polygon fill="#999999" stroke="#666666" points="1360,-174 1180,-174 1180,-144 1360,-144 1360,-174"/>
<text text-anchor="start" x="1188" y="-162" font-family="Helvetica,sans-Serif" font-size="10.00">com.teragrep.pth_06.ast.analyze.</text>
<text text-anchor="middle" x="1270" y="-151" font-family="Helvetica,sans-Serif" font-size="10.00">FilterGroup.filterList</text>
</a>
</g>
</g>
<!-- Node1&#45;&gt;Node1 -->
<g id="edge1_Node000001_Node000001" class="edge">
<title>Node1&#45;&gt;Node1</title>
<g id="a_edge1_Node000001_Node000001"><a xlink:title=" ">
<path fill="none" stroke="#63b8ff" d="M1310.26,-184.6C1304.76,-188.97 1291.34,-192 1270,-192 1234.06,-192 1220.59,-183.41 1229.57,-174.28"/>
<polygon fill="#63b8ff" stroke="#63b8ff" points="1313.76,-184.33 1310.43,-174.28 1306.76,-184.22 1313.76,-184.33"/>
</a>
</g>
</g>
<!-- Node2 -->
<g id="Node000002" class="node">
<title>Node2</title>
<g id="a_Node000002"><a xlink:href="classcom_1_1teragrep_1_1pth__06_1_1ast_1_1analyze_1_1PlannedScans.html#ad6dfe7529bfdfc03de991c95e194e0fe" target="_top" xlink:title=" ">
<polygon fill="white" stroke="#666666" points="1129.5,-246 949.5,-246 949.5,-216 1129.5,-216 1129.5,-246"/>
<text text-anchor="start" x="957.5" y="-234" font-family="Helvetica,sans-Serif" font-size="10.00">com.teragrep.pth_06.ast.analyze.</text>
<text text-anchor="middle" x="1039.5" y="-223" font-family="Helvetica,sans-Serif" font-size="10.00">PlannedScans.planListForGroup</text>
</a>
</g>
</g>
<!-- Node1&#45;&gt;Node2 -->
<g id="edge2_Node000001_Node000002" class="edge">
<title>Node1&#45;&gt;Node2</title>
<g id="a_edge2_Node000001_Node000002"><a xlink:title=" ">
<path fill="none" stroke="#63b8ff" d="M1224.24,-177.92C1200.64,-187.45 1171.06,-198.71 1144,-207 1133.51,-210.21 1122.3,-213.23 1111.28,-215.97"/>
<polygon fill="#63b8ff" stroke="#63b8ff" points="1225.69,-181.11 1233.63,-174.09 1223.05,-174.63 1225.69,-181.11"/>
</a>
</g>
</g>
<!-- Node16 -->
<g id="Node000016" class="node">
<title>Node16</title>
<g id="a_Node000016"><a xlink:href="classcom_1_1teragrep_1_1pth__06_1_1ast_1_1analyze_1_1FilterGroupTest.html#a47f3f8dc5274b61c843d551009f121d4" target="_top" xlink:title=" ">
<polygon fill="white" stroke="#666666" points="1132,-198 947,-198 947,-168 1132,-168 1132,-198"/>
<text text-anchor="start" x="955" y="-186" font-family="Helvetica,sans-Serif" font-size="10.00">com.teragrep.pth_06.ast.analyze.</text>
<text text-anchor="middle" x="1039.5" y="-175" font-family="Helvetica,sans-Serif" font-size="10.00">FilterGroupTest.testEmptyFilterList</text>
</a>
</g>
</g>
<!-- Node1&#45;&gt;Node16 -->
<g id="edge17_Node000001_Node000016" class="edge">
<title>Node1&#45;&gt;Node16</title>
<g id="a_edge17_Node000001_Node000016"><a xlink:title=" ">
<path fill="none" stroke="#63b8ff" d="M1169.7,-169.43C1157.18,-170.75 1144.41,-172.09 1132.02,-173.39"/>
<polygon fill="#63b8ff" stroke="#63b8ff" points="1170.09,-172.91 1179.67,-168.38 1169.36,-165.95 1170.09,-172.91"/>
</a>
</g>
</g>
<!-- Node17 -->
<g id="Node000017" class="node">
<title>Node17</title>
<g id="a_Node000017"><a xlink:href="classcom_1_1teragrep_1_1pth__06_1_1ast_1_1analyze_1_1FilterGroupTest.html#a36b8d42d1a4eef6a72aa653108fe6dc7" target="_top" xlink:title=" ">
<polygon fill="white" stroke="#666666" points="1129.5,-150 949.5,-150 949.5,-120 1129.5,-120 1129.5,-150"/>
<text text-anchor="start" x="957.5" y="-138" font-family="Helvetica,sans-Serif" font-size="10.00">com.teragrep.pth_06.ast.analyze.</text>
<text text-anchor="middle" x="1039.5" y="-127" font-family="Helvetica,sans-Serif" font-size="10.00">FilterGroupTest.testHostFilterList</text>
</a>
</g>
</g>
<!-- Node1&#45;&gt;Node17 -->
<g id="edge18_Node000001_Node000017" class="edge">
<title>Node1&#45;&gt;Node17</title>
<g id="a_edge18_Node000001_Node000017"><a xlink:title=" ">
<path fill="none" stroke="#63b8ff" d="M1169.6,-148.56C1156.35,-147.17 1142.83,-145.75 1129.76,-144.38"/>
<polygon fill="#63b8ff" stroke="#63b8ff" points="1169.36,-152.05 1179.67,-149.62 1170.09,-145.09 1169.36,-152.05"/>
</a>
</g>
</g>
<!-- Node18 -->
<g id="Node000018" class="node">
<title>Node18</title>
<g id="a_Node000018"><a xlink:href="classcom_1_1teragrep_1_1pth__06_1_1ast_1_1analyze_1_1FilterGroupTest.html#a2cb5e94e4528a57fc969211b80339a20" target="_top" xlink:title=" ">
<polygon fill="white" stroke="#666666" points="1144,-102 935,-102 935,-72 1144,-72 1144,-102"/>
<text text-anchor="start" x="943" y="-90" font-family="Helvetica,sans-Serif" font-size="10.00">com.teragrep.pth_06.ast.analyze.</text>
<text text-anchor="middle" x="1039.5" y="-79" font-family="Helvetica,sans-Serif" font-size="10.00">FilterGroupTest.testSourceTypeFilterList</text>
</a>
</g>
</g>
<!-- Node1&#45;&gt;Node18 -->
<g id="edge19_Node000001_Node000018" class="edge">
<title>Node1&#45;&gt;Node18</title>
<g id="a_edge19_Node000001_Node000018"><a xlink:title=" ">
<path fill="none" stroke="#63b8ff" d="M1224.24,-140.08C1200.64,-130.55 1171.06,-119.29 1144,-111 1133.51,-107.79 1122.3,-104.77 1111.28,-102.03"/>
<polygon fill="#63b8ff" stroke="#63b8ff" points="1223.05,-143.37 1233.63,-143.91 1225.69,-136.89 1223.05,-143.37"/>
</a>
</g>
</g>
<!-- Node3 -->
<g id="Node000003" class="node">
<title>Node3</title>
<g id="a_Node000003"><a xlink:href="classcom_1_1teragrep_1_1pth__06_1_1ast_1_1analyze_1_1PlannedScansTest.html#adb4d98866e6154141722cef12eaf9f32" target="_top" xlink:title=" ">
<polygon fill="white" stroke="#666666" points="882.5,-378 679.5,-378 679.5,-348 882.5,-348 882.5,-378"/>
<text text-anchor="start" x="687.5" y="-366" font-family="Helvetica,sans-Serif" font-size="10.00">com.teragrep.pth_06.ast.analyze.</text>
<text text-anchor="middle" x="781" y="-355" font-family="Helvetica,sans-Serif" font-size="10.00">PlannedScansTest.testHostFilterMatch</text>
</a>
</g>
</g>
<!-- Node2&#45;&gt;Node3 -->
<g id="edge3_Node000002_Node000003" class="edge">
<title>Node2&#45;&gt;Node3</title>
<g id="a_edge3_Node000002_Node000003"><a xlink:title=" ">
<path fill="none" stroke="#63b8ff" d="M1016.38,-253.45C990.55,-278.31 945.41,-317.68 899,-339 891.46,-342.46 883.42,-345.43 875.23,-347.97"/>
<polygon fill="#63b8ff" stroke="#63b8ff" points="1019.05,-255.74 1023.76,-246.24 1014.16,-250.73 1019.05,-255.74"/>
</a>
</g>
</g>
<!-- Node4 -->
<g id="Node000004" class="node">
<title>Node4</title>
<g id="a_Node000004"><a xlink:href="classcom_1_1teragrep_1_1pth__06_1_1ast_1_1analyze_1_1PlannedScansTest.html#ac86de63eee157a40fc018aa7e4759926" target="_top" xlink:title=" ">
<polygon fill="white" stroke="#666666" points="886,-329.5 676,-329.5 676,-288.5 886,-288.5 886,-329.5"/>
<text text-anchor="start" x="684" y="-317.5" font-family="Helvetica,sans-Serif" font-size="10.00">com.teragrep.pth_06.ast.analyze.</text>
<text text-anchor="start" x="684" y="-306.5" font-family="Helvetica,sans-Serif" font-size="10.00">PlannedScansTest.testMultipleDirectory</text>
<text text-anchor="middle" x="781" y="-295.5" font-family="Helvetica,sans-Serif" font-size="10.00">Matches</text>
</a>
</g>
</g>
<!-- Node2&#45;&gt;Node4 -->
<g id="edge4_Node000002_Node000004" class="edge">
<title>Node2&#45;&gt;Node4</title>
<g id="a_edge4_Node000002_Node000004"><a xlink:title=" ">
<path fill="none" stroke="#63b8ff" d="M987.82,-249.54C961.49,-258.89 928.7,-270.1 899,-279 888.25,-282.22 876.89,-285.41 865.63,-288.43"/>
<polygon fill="#63b8ff" stroke="#63b8ff" points="989.34,-252.71 997.58,-246.05 986.98,-246.12 989.34,-252.71"/>
</a>
</g>
</g>
<!-- Node5 -->
<g id="Node000005" class="node">
<title>Node5</title>
<g id="a_Node000005"><a xlink:href="classcom_1_1teragrep_1_1pth__06_1_1ast_1_1analyze_1_1PlannedScansTest.html#ab953f2d7da712011a6de22709ef9f2b4" target="_top" xlink:title=" ">
<polygon fill="white" stroke="#666666" points="871,-270 691,-270 691,-240 871,-240 871,-270"/>
<text text-anchor="start" x="699" y="-258" font-family="Helvetica,sans-Serif" font-size="10.00">com.teragrep.pth_06.ast.analyze.</text>
<text text-anchor="middle" x="781" y="-247" font-family="Helvetica,sans-Serif" font-size="10.00">PlannedScansTest.testNoMatches</text>
</a>
</g>
</g>
<!-- Node2&#45;&gt;Node5 -->
<g id="edge5_Node000002_Node000005" class="edge">
<title>Node2&#45;&gt;Node5</title>
<g id="a_edge5_Node000002_Node000005"><a xlink:title=" ">
<path fill="none" stroke="#63b8ff" d="M938.96,-240.31C916.57,-242.41 892.96,-244.62 871.03,-246.67"/>
<polygon fill="#63b8ff" stroke="#63b8ff" points="939.52,-243.78 949.15,-239.36 938.87,-236.81 939.52,-243.78"/>
</a>
</g>
</g>
<!-- Node6 -->
<g id="Node000006" class="node">
<title>Node6</title>
<g id="a_Node000006"><a xlink:href="classcom_1_1teragrep_1_1pth__06_1_1ast_1_1analyze_1_1PlannedScansTest.html#a35e59be54b4f7a08041b99a19f4f39cd" target="_top" xlink:title=" ">
<polygon fill="white" stroke="#666666" points="896,-222 666,-222 666,-192 896,-192 896,-222"/>
<text text-anchor="start" x="674" y="-210" font-family="Helvetica,sans-Serif" font-size="10.00">com.teragrep.pth_06.ast.analyze.</text>
<text text-anchor="middle" x="781" y="-199" font-family="Helvetica,sans-Serif" font-size="10.00">PlannedScansTest.testSingleDirectoryMatch</text>
</a>
</g>
</g>
<!-- Node2&#45;&gt;Node6 -->
<g id="edge6_Node000002_Node000006" class="edge">
<title>Node2&#45;&gt;Node6</title>
<g id="a_edge6_Node000002_Node000006"><a xlink:title=" ">
<path fill="none" stroke="#63b8ff" d="M939.05,-221.69C925.04,-220.38 910.55,-219.03 896.3,-217.69"/>
<polygon fill="#63b8ff" stroke="#63b8ff" points="938.87,-225.19 949.15,-222.64 939.52,-218.22 938.87,-225.19"/>
</a>
</g>
</g>
<!-- Node7 -->
<g id="Node000007" class="node">
<title>Node7</title>
<g id="a_Node000007"><a xlink:href="classcom_1_1teragrep_1_1pth__06_1_1ast_1_1analyze_1_1PlannedScansTest.html#aa971026f3fd334d4addfbc9d9fbf496e" target="_top" xlink:title=" ">
<polygon fill="white" stroke="#666666" points="899,-174 663,-174 663,-144 899,-144 899,-174"/>
<text text-anchor="start" x="671" y="-162" font-family="Helvetica,sans-Serif" font-size="10.00">com.teragrep.pth_06.ast.analyze.</text>
<text text-anchor="middle" x="781" y="-151" font-family="Helvetica,sans-Serif" font-size="10.00">PlannedScansTest.testSourceTypeFilterMatch</text>
</a>
</g>
</g>
<!-- Node2&#45;&gt;Node7 -->
<g id="edge7_Node000002_Node000007" class="edge">
<title>Node2&#45;&gt;Node7</title>
<g id="a_edge7_Node000002_Node000007"><a xlink:title=" ">
<path fill="none" stroke="#63b8ff" d="M950.3,-212.87C945.06,-211.08 939.92,-209.13 935,-207 917.35,-199.37 916.75,-190.4 899,-183 890.77,-179.57 882.01,-176.61 873.12,-174.07"/>
<polygon fill="#63b8ff" stroke="#63b8ff" points="949.23,-216.2 959.82,-215.92 951.37,-209.54 949.23,-216.2"/>
</a>
</g>
</g>
<!-- Node8 -->
<g id="Node000008" class="node">
<title>Node8</title>
<g id="a_Node000008"><a xlink:href="classcom_1_1teragrep_1_1pth__06_1_1ast_1_1analyze_1_1ScanGroupExpression.html#a0e5168dad0a59965e14bbc6417498fed" target="_top" xlink:title=" ">
<polygon fill="white" stroke="#666666" points="871,-126 691,-126 691,-96 871,-96 871,-126"/>
<text text-anchor="start" x="699" y="-114" font-family="Helvetica,sans-Serif" font-size="10.00">com.teragrep.pth_06.ast.analyze.</text>
<text text-anchor="middle" x="781" y="-103" font-family="Helvetica,sans-Serif" font-size="10.00">ScanGroupExpression.value</text>
</a>
</g>
</g>
<!-- Node2&#45;&gt;Node8 -->
<g id="edge8_Node000002_Node000008" class="edge">
<title>Node2&#45;&gt;Node8</title>
<g id="a_edge8_Node000002_Node000008"><a xlink:title=" ">
<path fill="none" stroke="#63b8ff" d="M940.58,-211.01C938.66,-209.75 936.79,-208.41 935,-207 906.9,-184.85 927.38,-156.79 899,-135 890.69,-128.62 881.11,-123.83 871.08,-120.24"/>
<polygon fill="#63b8ff" stroke="#63b8ff" points="938.93,-214.09 949.34,-216.05 942.42,-208.03 938.93,-214.09"/>
</a>
</g>
</g>
<!-- Node9 -->
<g id="Node000009" class="node">
<title>Node9</title>
<g id="a_Node000009"><a xlink:href="classcom_1_1teragrep_1_1pth__06_1_1ast_1_1analyze_1_1ScanPlanCollection.html#a47c5484d9f27fd8136265a9e35617535" target="_top" xlink:title=" ">
<polygon fill="white" stroke="#666666" points="626.5,-222 432.5,-222 432.5,-192 626.5,-192 626.5,-222"/>
<text text-anchor="start" x="440.5" y="-210" font-family="Helvetica,sans-Serif" font-size="10.00">com.teragrep.pth_06.ast.analyze.</text>
<text text-anchor="middle" x="529.5" y="-199" font-family="Helvetica,sans-Serif" font-size="10.00">ScanPlanCollection.collectScanPlans</text>
</a>
</g>
</g>
<!-- Node8&#45;&gt;Node9 -->
<g id="edge9_Node000008_Node000009" class="edge">
<title>Node8&#45;&gt;Node9</title>
<g id="a_edge9_Node000008_Node000009"><a xlink:title=" ">
<path fill="none" stroke="#63b8ff" d="M681.25,-125.67C674.86,-128.3 668.71,-131.38 663,-135 640.47,-149.27 649.22,-168.26 627,-183 621.82,-186.43 616.19,-189.38 610.34,-191.9"/>
<polygon fill="#63b8ff" stroke="#63b8ff" points="682.6,-128.9 690.75,-122.13 680.16,-122.34 682.6,-128.9"/>
</a>
</g>
</g>
<!-- Node12 -->
<g id="Node000012" class="node">
<title>Node12</title>
<g id="a_Node000012"><a xlink:href="classcom_1_1teragrep_1_1pth__06_1_1ast_1_1analyze_1_1ScanGroupExpressionTest.html#adf26305b6c1294c828bc17060a43a49d" target="_top" xlink:title=" ">
<polygon fill="white" stroke="#666666" points="627,-174 432,-174 432,-144 627,-144 627,-174"/>
<text text-anchor="start" x="440" y="-162" font-family="Helvetica,sans-Serif" font-size="10.00">com.teragrep.pth_06.ast.analyze.</text>
<text text-anchor="middle" x="529.5" y="-151" font-family="Helvetica,sans-Serif" font-size="10.00">ScanGroupExpressionTest.testEmpty</text>
</a>
</g>
</g>
<!-- Node8&#45;&gt;Node12 -->
<g id="edge13_Node000008_Node000012" class="edge">
<title>Node8&#45;&gt;Node12</title>
<g id="a_edge13_Node000008_Node000012"><a xlink:title=" ">
<path fill="none" stroke="#63b8ff" d="M691.85,-127.96C664.66,-133.19 634.93,-138.91 608.48,-144"/>
<polygon fill="#63b8ff" stroke="#63b8ff" points="692.58,-131.38 701.74,-126.06 691.26,-124.51 692.58,-131.38"/>
</a>
</g>
</g>
<!-- Node13 -->
<g id="Node000013" class="node">
<title>Node13</title>
<g id="a_Node000013"><a xlink:href="classcom_1_1teragrep_1_1pth__06_1_1ast_1_1analyze_1_1ScanPlanCollectionTest.html#a268359bc8ba40d91897fbe6213444601" target="_top" xlink:title=" ">
<polygon fill="white" stroke="#666666" points="620.5,-126 438.5,-126 438.5,-96 620.5,-96 620.5,-126"/>
<text text-anchor="start" x="446.5" y="-114" font-family="Helvetica,sans-Serif" font-size="10.00">com.teragrep.pth_06.ast.analyze.</text>
<text text-anchor="middle" x="529.5" y="-103" font-family="Helvetica,sans-Serif" font-size="10.00">ScanPlanCollectionTest.testEmpty</text>
</a>
</g>
</g>
<!-- Node8&#45;&gt;Node13 -->
<g id="edge14_Node000008_Node000013" class="edge">
<title>Node8&#45;&gt;Node13</title>
<g id="a_edge14_Node000008_Node000013"><a xlink:title=" ">
<path fill="none" stroke="#63b8ff" d="M680.72,-111C660.92,-111 640.22,-111 620.75,-111"/>
<polygon fill="#63b8ff" stroke="#63b8ff" points="680.98,-114.5 690.98,-111 680.98,-107.5 680.98,-114.5"/>
</a>
</g>
</g>
<!-- Node14 -->
<g id="Node000014" class="node">
<title>Node14</title>
<g id="a_Node000014"><a xlink:href="classcom_1_1teragrep_1_1pth__06_1_1ast_1_1analyze_1_1ScanGroupExpressionTest.html#a68727cd32a45086cd9515632edc2c2a8" target="_top" xlink:title=" ">
<polygon fill="white" stroke="#666666" points="622.5,-78 436.5,-78 436.5,-48 622.5,-48 622.5,-78"/>
<text text-anchor="start" x="444.5" y="-66" font-family="Helvetica,sans-Serif" font-size="10.00">com.teragrep.pth_06.ast.analyze.</text>
<text text-anchor="middle" x="529.5" y="-55" font-family="Helvetica,sans-Serif" font-size="10.00">ScanGroupExpressionTest.testHost</text>
</a>
</g>
</g>
<!-- Node8&#45;&gt;Node14 -->
<g id="edge15_Node000008_Node000014" class="edge">
<title>Node8&#45;&gt;Node14</title>
<g id="a_edge15_Node000008_Node000014"><a xlink:title=" ">
<path fill="none" stroke="#63b8ff" d="M691.85,-94.04C664.66,-88.81 634.93,-83.09 608.48,-78"/>
<polygon fill="#63b8ff" stroke="#63b8ff" points="691.26,-97.49 701.74,-95.94 692.58,-90.62 691.26,-97.49"/>
</a>
</g>
</g>
<!-- Node15 -->
<g id="Node000015" class="node">
<title>Node15</title>
<g id="a_Node000015"><a xlink:href="classcom_1_1teragrep_1_1pth__06_1_1ast_1_1analyze_1_1ScanPlanCollectionTest.html#a0d0ef932bb1fd4506e5111981517af9e" target="_top" xlink:title=" ">
<polygon fill="white" stroke="#666666" points="619.5,-30 439.5,-30 439.5,0 619.5,0 619.5,-30"/>
<text text-anchor="start" x="447.5" y="-18" font-family="Helvetica,sans-Serif" font-size="10.00">com.teragrep.pth_06.ast.analyze.</text>
<text text-anchor="middle" x="529.5" y="-7" font-family="Helvetica,sans-Serif" font-size="10.00">ScanPlanCollectionTest.testHost</text>
</a>
</g>
</g>
<!-- Node8&#45;&gt;Node15 -->
<g id="edge16_Node000008_Node000015" class="edge">
<title>Node8&#45;&gt;Node15</title>
<g id="a_edge16_Node000008_Node000015"><a xlink:title=" ">
<path fill="none" stroke="#63b8ff" d="M743.25,-91.2C712.78,-75.4 667.98,-53.58 627,-39 617.81,-35.73 607.98,-32.74 598.23,-30.05"/>
<polygon fill="#63b8ff" stroke="#63b8ff" points="741.74,-94.36 752.22,-95.89 744.98,-88.16 741.74,-94.36"/>
</a>
</g>
</g>
<!-- Node9&#45;&gt;Node9 -->
<g id="edge12_Node000009_Node000009" class="edge">
<title>Node9&#45;&gt;Node9</title>
<g id="a_edge12_Node000009_Node000009"><a xlink:title=" ">
<path fill="none" stroke="#63b8ff" d="M568.36,-232.6C563.05,-236.97 550.1,-240 529.5,-240 494.81,-240 481.8,-231.41 490.48,-222.28"/>
<polygon fill="#63b8ff" stroke="#63b8ff" points="571.86,-232.33 568.52,-222.28 564.86,-232.22 571.86,-232.33"/>
</a>
</g>
</g>
<!-- Node10 -->
<g id="Node000010" class="node">
<title>Node10</title>
<g id="a_Node000010"><a xlink:href="classcom_1_1teragrep_1_1pth__06_1_1ast_1_1analyze_1_1ScanPlanCollection.html#a230ff5415613f1607ab36336757e6dc6" target="_top" xlink:title=" ">
<polygon fill="white" stroke="#666666" points="396,-222 216,-222 216,-192 396,-192 396,-222"/>
<text text-anchor="start" x="224" y="-210" font-family="Helvetica,sans-Serif" font-size="10.00">com.teragrep.pth_06.ast.analyze.</text>
<text text-anchor="middle" x="306" y="-199" font-family="Helvetica,sans-Serif" font-size="10.00">ScanPlanCollection.asList</text>
</a>
</g>
</g>
<!-- Node9&#45;&gt;Node10 -->
<g id="edge10_Node000009_Node000010" class="edge">
<title>Node9&#45;&gt;Node10</title>
<g id="a_edge10_Node000009_Node000010"><a xlink:title=" ">
<path fill="none" stroke="#63b8ff" d="M422.12,-207C413.42,-207 404.68,-207 396.12,-207"/>
<polygon fill="#63b8ff" stroke="#63b8ff" points="422.31,-210.5 432.31,-207 422.31,-203.5 422.31,-210.5"/>
</a>
</g>
</g>
<!-- Node11 -->
<g id="Node000011" class="node">
<title>Node11</title>
<g id="a_Node000011"><a xlink:href="classcom_1_1teragrep_1_1pth__06_1_1ast_1_1analyze_1_1ScanPlanCollection.html#abd2e2939c8afa9c31fb37764c5bc7716" target="_top" xlink:title=" ">
<polygon fill="white" stroke="#666666" points="180,-222 0,-222 0,-192 180,-192 180,-222"/>
<text text-anchor="start" x="8" y="-210" font-family="Helvetica,sans-Serif" font-size="10.00">com.teragrep.pth_06.ast.analyze.</text>
<text text-anchor="middle" x="90" y="-199" font-family="Helvetica,sans-Serif" font-size="10.00">ScanPlanCollection.asViews</text>
</a>
</g>
</g>
<!-- Node10&#45;&gt;Node11 -->
<g id="edge11_Node000010_Node000011" class="edge">
<title>Node10&#45;&gt;Node11</title>
<g id="a_edge11_Node000010_Node000011"><a xlink:title=" ">
<path fill="none" stroke="#63b8ff" d="M205.77,-207C197.19,-207 188.55,-207 180.06,-207"/>
<polygon fill="#63b8ff" stroke="#63b8ff" points="205.79,-210.5 215.79,-207 205.79,-203.5 205.79,-210.5"/>
</a>
</g>
</g>
</g>
</svg>
