<?xml version="1.0" encoding="UTF-8" standalone="no"?>
<!DOCTYPE svg PUBLIC "-//W3C//DTD SVG 1.1//EN"
 "http://www.w3.org/Graphics/SVG/1.1/DTD/svg11.dtd">
<!-- Generated by graphviz version 2.43.0 (0)
 -->
<!-- Title: com.teragrep.pth_06.ast.transform.WithDefaultValues.andWithDefaults Pages: 1 -->
<svg width="1089pt" height="226pt"
 viewBox="0.00 0.00 1089.00 226.00" xmlns="http://www.w3.org/2000/svg" xmlns:xlink="http://www.w3.org/1999/xlink">
<g id="graph0" class="graph" transform="scale(1 1) rotate(0) translate(4 222)">
<title>com.teragrep.pth_06.ast.transform.WithDefaultValues.andWithDefaults</title>
<!-- Node1 -->
<g id="Node000001" class="node">
<title>Node1</title>
<g id="a_Node000001"><a xlink:title=" ">
<polygon fill="#999999" stroke="#666666" points="192,-106 0,-106 0,-76 192,-76 192,-106"/>
<text text-anchor="start" x="8" y="-94" font-family="Helvetica,sans-Serif" font-size="10.00">com.teragrep.pth_06.ast.transform.</text>
<text text-anchor="middle" x="96" y="-83" font-family="Helvetica,sans-Serif" font-size="10.00">WithDefaultValues.andWithDefaults</text>
</a>
</g>
</g>
<!-- Node2 -->
<g id="Node000002" class="node">
<title>Node2</title>
<g id="a_Node000002"><a xlink:href="interfacecom_1_1teragrep_1_1pth__06_1_1ast_1_1Expression.html#a17e7d33905be57c6e22e1717da6ddef6" target="_top" xlink:title=" ">
<polygon fill="white" stroke="#666666" points="1077.5,-218 938.5,-218 938.5,-188 1077.5,-188 1077.5,-218"/>
<text text-anchor="start" x="946.5" y="-206" font-family="Helvetica,sans-Serif" font-size="10.00">com.teragrep.pth_06.ast.</text>
<text text-anchor="middle" x="1008" y="-195" font-family="Helvetica,sans-Serif" font-size="10.00">Expression.asLogical</text>
</a>
</g>
</g>
<!-- Node1&#45;&gt;Node2 -->
<g id="edge1_Node000001_Node000002" class="edge">
<title>Node1&#45;&gt;Node2</title>
<g id="a_edge1_Node000001_Node000002"><a xlink:title=" ">
<path fill="none" stroke="#63b8ff" d="M155.72,-106.03C178.21,-111.37 204.18,-117.03 228,-121 482.21,-163.33 786.94,-187.92 928.09,-197.84"/>
<polygon fill="#63b8ff" stroke="#63b8ff" points="928.16,-201.36 938.38,-198.56 928.64,-194.37 928.16,-201.36"/>
</a>
</g>
</g>
<!-- Node3 -->
<g id="Node000003" class="node">
<title>Node3</title>
<g id="a_Node000003"><a xlink:href="interfacecom_1_1teragrep_1_1pth__06_1_1ast_1_1LogicalExpression.html#aeaf8fe296c6899792f345659a9a6c0c4" target="_top" xlink:title=" ">
<polygon fill="white" stroke="#666666" points="1081,-30 935,-30 935,0 1081,0 1081,-30"/>
<text text-anchor="start" x="943" y="-18" font-family="Helvetica,sans-Serif" font-size="10.00">com.teragrep.pth_06.ast.</text>
<text text-anchor="middle" x="1008" y="-7" font-family="Helvetica,sans-Serif" font-size="10.00">LogicalExpression.children</text>
</a>
</g>
</g>
<!-- Node1&#45;&gt;Node3 -->
<g id="edge2_Node000001_Node000003" class="edge">
<title>Node1&#45;&gt;Node3</title>
<g id="a_edge2_Node000001_Node000003"><a xlink:title=" ">
<path fill="none" stroke="#63b8ff" d="M130.98,-75.96C156.99,-65.22 194.04,-51.56 228,-45 478.14,3.28 781.59,-3.22 924.72,-10.04"/>
<polygon fill="#63b8ff" stroke="#63b8ff" points="924.59,-13.54 934.75,-10.54 924.93,-6.55 924.59,-13.54"/>
</a>
</g>
</g>
<!-- Node4 -->
<g id="Node000004" class="node">
<title>Node4</title>
<g id="a_Node000004"><a xlink:href="classcom_1_1teragrep_1_1pth__06_1_1ast_1_1transform_1_1WithDefaultValues.html#a42a39b9992cc004453cd026fbc106b36" target="_top" xlink:title=" ">
<polygon fill="white" stroke="#666666" points="899,-76 709,-76 709,-46 899,-46 899,-76"/>
<text text-anchor="start" x="717" y="-64" font-family="Helvetica,sans-Serif" font-size="10.00">com.teragrep.pth_06.ast.transform.</text>
<text text-anchor="middle" x="804" y="-53" font-family="Helvetica,sans-Serif" font-size="10.00">WithDefaultValues.expressionTags</text>
</a>
</g>
</g>
<!-- Node1&#45;&gt;Node4 -->
<g id="edge3_Node000001_Node000004" class="edge">
<title>Node1&#45;&gt;Node4</title>
<g id="a_edge3_Node000001_Node000004"><a xlink:title=" ">
<path fill="none" stroke="#63b8ff" d="M152.33,-75.97C175.52,-70.4 202.88,-64.77 228,-62 391.62,-43.96 583.03,-48.75 698.54,-54.44"/>
<polygon fill="#63b8ff" stroke="#63b8ff" points="698.62,-57.95 708.78,-54.95 698.97,-50.95 698.62,-57.95"/>
</a>
</g>
</g>
<!-- Node7 -->
<g id="Node000007" class="node">
<title>Node7</title>
<g id="a_Node000007"><a xlink:href="classcom_1_1teragrep_1_1pth__06_1_1ast_1_1transform_1_1WithDefaultValues.html#a371bd3fba44c9f320d2b39f5e60cb82c" target="_top" xlink:title=" ">
<polygon fill="white" stroke="#666666" points="447,-111.5 228,-111.5 228,-70.5 447,-70.5 447,-111.5"/>
<text text-anchor="start" x="236" y="-99.5" font-family="Helvetica,sans-Serif" font-size="10.00">com.teragrep.pth_06.ast.transform.</text>
<text text-anchor="start" x="236" y="-88.5" font-family="Helvetica,sans-Serif" font-size="10.00">WithDefaultValues.recursiveWithDefaults</text>
<text text-anchor="middle" x="337.5" y="-77.5" font-family="Helvetica,sans-Serif" font-size="10.00">Expression</text>
</a>
</g>
</g>
<!-- Node1&#45;&gt;Node7 -->
<g id="edge9_Node000001_Node000007" class="edge">
<title>Node1&#45;&gt;Node7</title>
<g id="a_edge9_Node000001_Node000007"><a xlink:title=" ">
<path fill="none" stroke="#63b8ff" d="M192,-84.38C200.45,-84.29 209.07,-84.25 217.68,-84.25"/>
<polygon fill="#63b8ff" stroke="#63b8ff" points="217.77,-87.75 227.78,-84.28 217.79,-80.75 217.77,-87.75"/>
</a>
</g>
</g>
<!-- Node4&#45;&gt;Node2 -->
<g id="edge4_Node000004_Node000002" class="edge">
<title>Node4&#45;&gt;Node2</title>
<g id="a_edge4_Node000004_Node000002"><a xlink:title=" ">
<path fill="none" stroke="#63b8ff" d="M817.87,-76.22C839.61,-101.05 886.07,-150.37 935,-179 937.84,-180.66 940.82,-182.23 943.87,-183.71"/>
<polygon fill="#63b8ff" stroke="#63b8ff" points="942.65,-186.99 953.21,-187.85 945.49,-180.6 942.65,-186.99"/>
</a>
</g>
</g>
<!-- Node4&#45;&gt;Node3 -->
<g id="edge5_Node000004_Node000003" class="edge">
<title>Node4&#45;&gt;Node3</title>
<g id="a_edge5_Node000004_Node000003"><a xlink:title=" ">
<path fill="none" stroke="#63b8ff" d="M871.14,-45.94C890.34,-41.57 911.45,-36.76 931.18,-32.27"/>
<polygon fill="#63b8ff" stroke="#63b8ff" points="932.08,-35.65 941.05,-30.02 930.53,-28.83 932.08,-35.65"/>
</a>
</g>
</g>
<!-- Node4&#45;&gt;Node4 -->
<g id="edge6_Node000004_Node000004" class="edge">
<title>Node4&#45;&gt;Node4</title>
<g id="a_edge6_Node000004_Node000004"><a xlink:title=" ">
<path fill="none" stroke="#63b8ff" d="M768.14,-76.28C760.17,-85.41 772.12,-94 804,-94 822.93,-94 834.83,-90.97 839.71,-86.6"/>
<polygon fill="#63b8ff" stroke="#63b8ff" points="843.21,-86.33 839.86,-76.28 836.21,-86.22 843.21,-86.33"/>
</a>
</g>
</g>
<!-- Node5 -->
<g id="Node000005" class="node">
<title>Node5</title>
<g id="a_Node000005"><a xlink:href="interfacecom_1_1teragrep_1_1pth__06_1_1ast_1_1Expression.html#a65ee7f5fb98e4129018f467a53586842" target="_top" xlink:title=" ">
<polygon fill="white" stroke="#666666" points="1077.5,-78 938.5,-78 938.5,-48 1077.5,-48 1077.5,-78"/>
<text text-anchor="start" x="946.5" y="-66" font-family="Helvetica,sans-Serif" font-size="10.00">com.teragrep.pth_06.ast.</text>
<text text-anchor="middle" x="1008" y="-55" font-family="Helvetica,sans-Serif" font-size="10.00">Expression.isLogical</text>
</a>
</g>
</g>
<!-- Node4&#45;&gt;Node5 -->
<g id="edge7_Node000004_Node000005" class="edge">
<title>Node4&#45;&gt;Node5</title>
<g id="a_edge7_Node000004_Node000005"><a xlink:title=" ">
<path fill="none" stroke="#63b8ff" d="M899.2,-61.93C908.87,-62.03 918.62,-62.12 928.1,-62.22"/>
<polygon fill="#63b8ff" stroke="#63b8ff" points="928.23,-65.72 938.26,-62.32 928.29,-58.72 928.23,-65.72"/>
</a>
</g>
</g>
<!-- Node6 -->
<g id="Node000006" class="node">
<title>Node6</title>
<g id="a_Node000006"><a xlink:href="interfacecom_1_1teragrep_1_1pth__06_1_1ast_1_1Expression.html#a8b9661253a3610b9eb148ee29ca8b7e1" target="_top" xlink:title=" ">
<polygon fill="white" stroke="#666666" points="1077.5,-170 938.5,-170 938.5,-140 1077.5,-140 1077.5,-170"/>
<text text-anchor="start" x="946.5" y="-158" font-family="Helvetica,sans-Serif" font-size="10.00">com.teragrep.pth_06.ast.</text>
<text text-anchor="middle" x="1008" y="-147" font-family="Helvetica,sans-Serif" font-size="10.00">Expression.tag</text>
</a>
</g>
</g>
<!-- Node4&#45;&gt;Node6 -->
<g id="edge8_Node000004_Node000006" class="edge">
<title>Node4&#45;&gt;Node6</title>
<g id="a_edge8_Node000004_Node000006"><a xlink:title=" ">
<path fill="none" stroke="#63b8ff" d="M837.45,-76.1C872.21,-92.27 927.45,-117.98 965.38,-135.63"/>
<polygon fill="#63b8ff" stroke="#63b8ff" points="964.08,-138.89 974.63,-139.93 967.04,-132.54 964.08,-138.89"/>
</a>
</g>
</g>
<!-- Node7&#45;&gt;Node1 -->
<g id="edge10_Node000007_Node000001" class="edge">
<title>Node7&#45;&gt;Node1</title>
<g id="a_edge10_Node000007_Node000001"><a xlink:title=" ">
<path fill="none" stroke="#63b8ff" d="M227.78,-97.72C219.29,-97.76 210.73,-97.76 202.27,-97.71"/>
<polygon fill="#63b8ff" stroke="#63b8ff" points="202.03,-94.2 192,-97.62 201.97,-101.2 202.03,-94.2"/>
</a>
</g>
</g>
<!-- Node7&#45;&gt;Node5 -->
<g id="edge11_Node000007_Node000005" class="edge">
<title>Node7&#45;&gt;Node5</title>
<g id="a_edge11_Node000007_Node000005"><a xlink:title=" ">
<path fill="none" stroke="#63b8ff" d="M447.32,-72.54C459.35,-70.61 471.43,-68.73 483,-67 666.33,-39.61 714.92,-15.15 899,-37 914.32,-38.82 930.61,-42.04 945.76,-45.61"/>
<polygon fill="#63b8ff" stroke="#63b8ff" points="944.99,-49.02 955.54,-47.99 946.65,-42.22 944.99,-49.02"/>
</a>
</g>
</g>
<!-- Node7&#45;&gt;Node6 -->
<g id="edge19_Node000007_Node000006" class="edge">
<title>Node7&#45;&gt;Node6</title>
<g id="a_edge19_Node000007_Node000006"><a xlink:title=" ">
<path fill="none" stroke="#63b8ff" d="M447.34,-109.36C459.37,-111.31 471.44,-113.22 483,-115 583.27,-130.42 607.91,-138.51 709,-147 783.1,-153.22 867.9,-154.98 928.04,-155.32"/>
<polygon fill="#63b8ff" stroke="#63b8ff" points="928.21,-158.82 938.23,-155.37 928.24,-151.82 928.21,-158.82"/>
</a>
</g>
</g>
<!-- Node8 -->
<g id="Node000008" class="node">
<title>Node8</title>
<g id="a_Node000008"><a xlink:href="classcom_1_1teragrep_1_1pth__06_1_1ast_1_1transform_1_1WithDefaultValues.html#af8c587422cbf070fc6fea9aba68705d9" target="_top" xlink:title=" ">
<polygon fill="white" stroke="#666666" points="673,-106 483,-106 483,-76 673,-76 673,-106"/>
<text text-anchor="start" x="491" y="-94" font-family="Helvetica,sans-Serif" font-size="10.00">com.teragrep.pth_06.ast.transform.</text>
<text text-anchor="middle" x="578" y="-83" font-family="Helvetica,sans-Serif" font-size="10.00">WithDefaultValues.orWithDefaults</text>
</a>
</g>
</g>
<!-- Node7&#45;&gt;Node8 -->
<g id="edge12_Node000007_Node000008" class="edge">
<title>Node7&#45;&gt;Node8</title>
<g id="a_edge12_Node000007_Node000008"><a xlink:title=" ">
<path fill="none" stroke="#63b8ff" d="M447.28,-84.27C455.75,-84.24 464.3,-84.24 472.74,-84.3"/>
<polygon fill="#63b8ff" stroke="#63b8ff" points="472.94,-87.8 482.97,-84.39 473,-80.8 472.94,-87.8"/>
</a>
</g>
</g>
<!-- Node8&#45;&gt;Node2 -->
<g id="edge13_Node000008_Node000002" class="edge">
<title>Node8&#45;&gt;Node2</title>
<g id="a_edge13_Node000008_Node000002"><a xlink:title=" ">
<path fill="none" stroke="#63b8ff" d="M608.76,-106.07C634.66,-118.63 673.51,-136.17 709,-147 781.85,-169.24 867.55,-184.23 928.3,-193.06"/>
<polygon fill="#63b8ff" stroke="#63b8ff" points="927.81,-196.52 938.21,-194.48 928.8,-189.59 927.81,-196.52"/>
</a>
</g>
</g>
<!-- Node8&#45;&gt;Node3 -->
<g id="edge14_Node000008_Node000003" class="edge">
<title>Node8&#45;&gt;Node3</title>
<g id="a_edge14_Node000008_Node000003"><a xlink:title=" ">
<path fill="none" stroke="#63b8ff" d="M607.79,-75.89C633.55,-63.14 672.74,-45.63 709,-37 780.56,-19.97 864.27,-15.05 924.72,-14.06"/>
<polygon fill="#63b8ff" stroke="#63b8ff" points="925.02,-17.55 934.97,-13.92 924.93,-10.56 925.02,-17.55"/>
</a>
</g>
</g>
<!-- Node8&#45;&gt;Node4 -->
<g id="edge15_Node000008_Node000004" class="edge">
<title>Node8&#45;&gt;Node4</title>
<g id="a_edge15_Node000008_Node000004"><a xlink:title=" ">
<path fill="none" stroke="#63b8ff" d="M673.02,-78.41C681.54,-77.27 690.2,-76.11 698.8,-74.95"/>
<polygon fill="#63b8ff" stroke="#63b8ff" points="699.41,-78.4 708.86,-73.61 698.48,-71.47 699.41,-78.4"/>
</a>
</g>
</g>
<!-- Node8&#45;&gt;Node5 -->
<g id="edge16_Node000008_Node000005" class="edge">
<title>Node8&#45;&gt;Node5</title>
<g id="a_edge16_Node000008_Node000005"><a xlink:title=" ">
<path fill="none" stroke="#63b8ff" d="M673.2,-105.04C737.34,-112.04 823.89,-116.46 899,-103 921.83,-98.91 946.15,-90.31 965.92,-82.13"/>
<polygon fill="#63b8ff" stroke="#63b8ff" points="967.4,-85.3 975.23,-78.17 964.66,-78.86 967.4,-85.3"/>
</a>
</g>
</g>
<!-- Node8&#45;&gt;Node6 -->
<g id="edge18_Node000008_Node000006" class="edge">
<title>Node8&#45;&gt;Node6</title>
<g id="a_edge18_Node000008_Node000006"><a xlink:title=" ">
<path fill="none" stroke="#63b8ff" d="M637.61,-106.01C659.85,-111.31 685.49,-116.96 709,-121 782.86,-133.69 867.86,-142.86 928.13,-148.45"/>
<polygon fill="#63b8ff" stroke="#63b8ff" points="928.06,-151.96 938.34,-149.39 928.7,-144.99 928.06,-151.96"/>
</a>
</g>
</g>
<!-- Node8&#45;&gt;Node7 -->
<g id="edge17_Node000008_Node000007" class="edge">
<title>Node8&#45;&gt;Node7</title>
<g id="a_edge17_Node000008_Node000007"><a xlink:title=" ">
<path fill="none" stroke="#63b8ff" d="M482.97,-97.61C474.55,-97.71 465.95,-97.75 457.36,-97.75"/>
<polygon fill="#63b8ff" stroke="#63b8ff" points="457.29,-94.25 447.28,-97.73 457.27,-101.25 457.29,-94.25"/>
</a>
</g>
</g>
</g>
</svg>
