<?xml version="1.0" encoding="UTF-8" standalone="no"?>
<!DOCTYPE svg PUBLIC "-//W3C//DTD SVG 1.1//EN"
 "http://www.w3.org/Graphics/SVG/1.1/DTD/svg11.dtd">
<!-- Generated by graphviz version 2.43.0 (0)
 -->
<!-- Title: com.teragrep.pth_06.ast.transform.WithDefaultValuesTest.testDefaultIndexExpression Pages: 1 -->
<svg width="1337pt" height="446pt"
 viewBox="0.00 0.00 1337.00 445.66" xmlns="http://www.w3.org/2000/svg" xmlns:xlink="http://www.w3.org/1999/xlink">
<g id="graph0" class="graph" transform="scale(1 1) rotate(0) translate(4 441.66)">
<title>com.teragrep.pth_06.ast.transform.WithDefaultValuesTest.testDefaultIndexExpression</title>
<!-- Node1 -->
<g id="Node000001" class="node">
<title>Node1</title>
<g id="a_Node000001"><a xlink:title=" ">
<polygon fill="#999999" stroke="#666666" points="212,-411.85 0,-411.85 0,-370.85 212,-370.85 212,-411.85"/>
<text text-anchor="start" x="8" y="-399.85" font-family="Helvetica,sans-Serif" font-size="10.00">com.teragrep.pth_06.ast.transform.</text>
<text text-anchor="start" x="8" y="-388.85" font-family="Helvetica,sans-Serif" font-size="10.00">WithDefaultValuesTest.testDefaultIndex</text>
<text text-anchor="middle" x="106" y="-377.85" font-family="Helvetica,sans-Serif" font-size="10.00">Expression</text>
</a>
</g>
</g>
<!-- Node2 -->
<g id="Node000002" class="node">
<title>Node2</title>
<g id="a_Node000002"><a xlink:href="interfacecom_1_1teragrep_1_1pth__06_1_1ast_1_1Expression.html#a17e7d33905be57c6e22e1717da6ddef6" target="_top" xlink:title=" ">
<polygon fill="white" stroke="#666666" points="1325.5,-330.35 1186.5,-330.35 1186.5,-300.35 1325.5,-300.35 1325.5,-330.35"/>
<text text-anchor="start" x="1194.5" y="-318.35" font-family="Helvetica,sans-Serif" font-size="10.00">com.teragrep.pth_06.ast.</text>
<text text-anchor="middle" x="1256" y="-307.35" font-family="Helvetica,sans-Serif" font-size="10.00">Expression.asLogical</text>
</a>
</g>
</g>
<!-- Node1&#45;&gt;Node2 -->
<g id="edge1_Node000001_Node000002" class="edge">
<title>Node1&#45;&gt;Node2</title>
<g id="a_edge1_Node000001_Node000002"><a xlink:title=" ">
<path fill="none" stroke="#63b8ff" d="M212.1,-404.58C308.32,-415.55 454.76,-429.35 582.5,-429.35 582.5,-429.35 582.5,-429.35 826,-429.35 969.06,-429.35 1014.39,-459.03 1147,-405.35 1183.07,-390.75 1216.1,-359.43 1235.88,-337.88"/>
<polygon fill="#63b8ff" stroke="#63b8ff" points="1238.49,-340.21 1242.56,-330.43 1233.28,-335.54 1238.49,-340.21"/>
</a>
</g>
</g>
<!-- Node3 -->
<g id="Node000003" class="node">
<title>Node3</title>
<g id="a_Node000003"><a xlink:href="interfacecom_1_1teragrep_1_1pth__06_1_1ast_1_1LogicalExpression.html#aeaf8fe296c6899792f345659a9a6c0c4" target="_top" xlink:title=" ">
<polygon fill="white" stroke="#666666" points="1329,-223.35 1183,-223.35 1183,-193.35 1329,-193.35 1329,-223.35"/>
<text text-anchor="start" x="1191" y="-211.35" font-family="Helvetica,sans-Serif" font-size="10.00">com.teragrep.pth_06.ast.</text>
<text text-anchor="middle" x="1256" y="-200.35" font-family="Helvetica,sans-Serif" font-size="10.00">LogicalExpression.children</text>
</a>
</g>
</g>
<!-- Node1&#45;&gt;Node3 -->
<g id="edge2_Node000001_Node000003" class="edge">
<title>Node1&#45;&gt;Node3</title>
<g id="a_edge2_Node000001_Node000003"><a xlink:title=" ">
<path fill="none" stroke="#63b8ff" d="M212.29,-391.35C308.65,-391.35 455.16,-391.35 582.5,-391.35 582.5,-391.35 582.5,-391.35 826,-391.35 989.12,-391.35 1161.18,-278.02 1227.09,-229.73"/>
<polygon fill="#63b8ff" stroke="#63b8ff" points="1229.36,-232.4 1235.31,-223.63 1225.2,-226.78 1229.36,-232.4"/>
</a>
</g>
</g>
<!-- Node4 -->
<g id="Node000004" class="node">
<title>Node4</title>
<g id="a_Node000004"><a xlink:href="classcom_1_1teragrep_1_1pth__06_1_1ast_1_1transform_1_1WithDefaultValues.html#a3cd2907c54910cabd6d8cb52ff49215f" target="_top" xlink:title=" ">
<polygon fill="white" stroke="#666666" points="438,-248.35 248,-248.35 248,-218.35 438,-218.35 438,-248.35"/>
<text text-anchor="start" x="256" y="-236.35" font-family="Helvetica,sans-Serif" font-size="10.00">com.teragrep.pth_06.ast.transform.</text>
<text text-anchor="middle" x="343" y="-225.35" font-family="Helvetica,sans-Serif" font-size="10.00">WithDefaultValues.transformed</text>
</a>
</g>
</g>
<!-- Node1&#45;&gt;Node4 -->
<g id="edge3_Node000001_Node000004" class="edge">
<title>Node1&#45;&gt;Node4</title>
<g id="a_edge3_Node000001_Node000004"><a xlink:title=" ">
<path fill="none" stroke="#63b8ff" d="M137.72,-370.69C182.63,-340.5 265.74,-284.62 310.87,-254.28"/>
<polygon fill="#63b8ff" stroke="#63b8ff" points="313.02,-257.05 319.37,-248.56 309.12,-251.24 313.02,-257.05"/>
</a>
</g>
</g>
<!-- Node4&#45;&gt;Node2 -->
<g id="edge4_Node000004_Node000002" class="edge">
<title>Node4&#45;&gt;Node2</title>
<g id="a_edge4_Node000004_Node000002"><a xlink:title=" ">
<path fill="none" stroke="#63b8ff" d="M423.94,-248.37C540.6,-269.45 764.53,-306.76 957,-320.35 1031.16,-325.58 1115.95,-323.37 1176.08,-320.41"/>
<polygon fill="#63b8ff" stroke="#63b8ff" points="1176.45,-323.9 1186.26,-319.9 1176.09,-316.91 1176.45,-323.9"/>
</a>
</g>
</g>
<!-- Node4&#45;&gt;Node4 -->
<g id="edge26_Node000004_Node000004" class="edge">
<title>Node4&#45;&gt;Node4</title>
<g id="a_edge26_Node000004_Node000004"><a xlink:title=" ">
<path fill="none" stroke="#63b8ff" d="M301.52,-248.62C292.3,-257.75 306.12,-266.35 343,-266.35 364.89,-266.35 378.66,-263.32 384.31,-258.94"/>
<polygon fill="#63b8ff" stroke="#63b8ff" points="387.81,-258.68 384.48,-248.62 380.81,-258.56 387.81,-258.68"/>
</a>
</g>
</g>
<!-- Node5 -->
<g id="Node000005" class="node">
<title>Node5</title>
<g id="a_Node000005"><a xlink:href="interfacecom_1_1teragrep_1_1pth__06_1_1ast_1_1Expression.html#a65ee7f5fb98e4129018f467a53586842" target="_top" xlink:title=" ">
<polygon fill="white" stroke="#666666" points="1325.5,-31.35 1186.5,-31.35 1186.5,-1.35 1325.5,-1.35 1325.5,-31.35"/>
<text text-anchor="start" x="1194.5" y="-19.35" font-family="Helvetica,sans-Serif" font-size="10.00">com.teragrep.pth_06.ast.</text>
<text text-anchor="middle" x="1256" y="-8.35" font-family="Helvetica,sans-Serif" font-size="10.00">Expression.isLogical</text>
</a>
</g>
</g>
<!-- Node4&#45;&gt;Node5 -->
<g id="edge5_Node000004_Node000005" class="edge">
<title>Node4&#45;&gt;Node5</title>
<g id="a_edge5_Node000004_Node000005"><a xlink:title=" ">
<path fill="none" stroke="#63b8ff" d="M354.51,-218.18C374.38,-190.78 420.34,-133.28 474,-105.35 706.14,15.49 1028.75,5.23 1176.02,-7.52"/>
<polygon fill="#63b8ff" stroke="#63b8ff" points="1176.05,-11.04 1186.32,-8.44 1176.67,-4.07 1176.05,-11.04"/>
</a>
</g>
</g>
<!-- Node6 -->
<g id="Node000006" class="node">
<title>Node6</title>
<g id="a_Node000006"><a xlink:href="classcom_1_1teragrep_1_1pth__06_1_1ast_1_1transform_1_1WithDefaultValues.html#a371bd3fba44c9f320d2b39f5e60cb82c" target="_top" xlink:title=" ">
<polygon fill="white" stroke="#666666" points="693,-155.85 474,-155.85 474,-114.85 693,-114.85 693,-155.85"/>
<text text-anchor="start" x="482" y="-143.85" font-family="Helvetica,sans-Serif" font-size="10.00">com.teragrep.pth_06.ast.transform.</text>
<text text-anchor="start" x="482" y="-132.85" font-family="Helvetica,sans-Serif" font-size="10.00">WithDefaultValues.recursiveWithDefaults</text>
<text text-anchor="middle" x="583.5" y="-121.85" font-family="Helvetica,sans-Serif" font-size="10.00">Expression</text>
</a>
</g>
</g>
<!-- Node4&#45;&gt;Node6 -->
<g id="edge6_Node000004_Node000006" class="edge">
<title>Node4&#45;&gt;Node6</title>
<g id="a_edge6_Node000004_Node000006"><a xlink:title=" ">
<path fill="none" stroke="#63b8ff" d="M380.74,-218.25C418.68,-202.66 478.47,-178.09 523.13,-159.74"/>
<polygon fill="#63b8ff" stroke="#63b8ff" points="524.5,-162.96 532.42,-155.93 521.84,-156.49 524.5,-162.96"/>
</a>
</g>
</g>
<!-- Node6&#45;&gt;Node5 -->
<g id="edge17_Node000006_Node000005" class="edge">
<title>Node6&#45;&gt;Node5</title>
<g id="a_edge17_Node000006_Node000005"><a xlink:title=" ">
<path fill="none" stroke="#63b8ff" d="M652.08,-114.82C676.2,-107.98 703.67,-100.74 729,-95.35 886.34,-61.88 1073.11,-37.38 1176.4,-25.14"/>
<polygon fill="#63b8ff" stroke="#63b8ff" points="1176.91,-28.6 1186.44,-23.96 1176.1,-21.65 1176.91,-28.6"/>
</a>
</g>
</g>
<!-- Node7 -->
<g id="Node000007" class="node">
<title>Node7</title>
<g id="a_Node000007"><a xlink:href="classcom_1_1teragrep_1_1pth__06_1_1ast_1_1transform_1_1WithDefaultValues.html#ac53e9da4d27289a430152a8b67aa7e6b" target="_top" xlink:title=" ">
<polygon fill="white" stroke="#666666" points="921,-198.35 729,-198.35 729,-168.35 921,-168.35 921,-198.35"/>
<text text-anchor="start" x="737" y="-186.35" font-family="Helvetica,sans-Serif" font-size="10.00">com.teragrep.pth_06.ast.transform.</text>
<text text-anchor="middle" x="825" y="-175.35" font-family="Helvetica,sans-Serif" font-size="10.00">WithDefaultValues.andWithDefaults</text>
</a>
</g>
</g>
<!-- Node6&#45;&gt;Node7 -->
<g id="edge7_Node000006_Node000007" class="edge">
<title>Node6&#45;&gt;Node7</title>
<g id="a_edge7_Node000006_Node000007"><a xlink:title=" ">
<path fill="none" stroke="#63b8ff" d="M693.04,-150.38C718.37,-155.33 744.37,-160.83 766.47,-165.95"/>
<polygon fill="#63b8ff" stroke="#63b8ff" points="765.79,-169.39 776.32,-168.27 767.39,-162.57 765.79,-169.39"/>
</a>
</g>
</g>
<!-- Node9 -->
<g id="Node000009" class="node">
<title>Node9</title>
<g id="a_Node000009"><a xlink:href="interfacecom_1_1teragrep_1_1pth__06_1_1ast_1_1Expression.html#a8b9661253a3610b9eb148ee29ca8b7e1" target="_top" xlink:title=" ">
<polygon fill="white" stroke="#666666" points="1325.5,-112.35 1186.5,-112.35 1186.5,-82.35 1325.5,-82.35 1325.5,-112.35"/>
<text text-anchor="start" x="1194.5" y="-100.35" font-family="Helvetica,sans-Serif" font-size="10.00">com.teragrep.pth_06.ast.</text>
<text text-anchor="middle" x="1256" y="-89.35" font-family="Helvetica,sans-Serif" font-size="10.00">Expression.tag</text>
</a>
</g>
</g>
<!-- Node6&#45;&gt;Node9 -->
<g id="edge25_Node000006_Node000009" class="edge">
<title>Node6&#45;&gt;Node9</title>
<g id="a_edge25_Node000006_Node000009"><a xlink:title=" ">
<path fill="none" stroke="#63b8ff" d="M693.19,-115.8C705.24,-114.08 717.36,-112.54 729,-111.35 887.09,-95.16 1073.21,-94.51 1176.27,-95.75"/>
<polygon fill="#63b8ff" stroke="#63b8ff" points="1176.24,-99.25 1186.28,-95.88 1176.33,-92.25 1176.24,-99.25"/>
</a>
</g>
</g>
<!-- Node10 -->
<g id="Node000010" class="node">
<title>Node10</title>
<g id="a_Node000010"><a xlink:href="classcom_1_1teragrep_1_1pth__06_1_1ast_1_1transform_1_1WithDefaultValues.html#af8c587422cbf070fc6fea9aba68705d9" target="_top" xlink:title=" ">
<polygon fill="white" stroke="#666666" points="920,-150.35 730,-150.35 730,-120.35 920,-120.35 920,-150.35"/>
<text text-anchor="start" x="738" y="-138.35" font-family="Helvetica,sans-Serif" font-size="10.00">com.teragrep.pth_06.ast.transform.</text>
<text text-anchor="middle" x="825" y="-127.35" font-family="Helvetica,sans-Serif" font-size="10.00">WithDefaultValues.orWithDefaults</text>
</a>
</g>
</g>
<!-- Node6&#45;&gt;Node10 -->
<g id="edge18_Node000006_Node000010" class="edge">
<title>Node6&#45;&gt;Node10</title>
<g id="a_edge18_Node000006_Node000010"><a xlink:title=" ">
<path fill="none" stroke="#63b8ff" d="M693.04,-128.62C701.84,-128.58 710.73,-128.59 719.51,-128.65"/>
<polygon fill="#63b8ff" stroke="#63b8ff" points="719.72,-132.15 729.75,-128.74 719.78,-125.15 719.72,-132.15"/>
</a>
</g>
</g>
<!-- Node7&#45;&gt;Node2 -->
<g id="edge8_Node000007_Node000002" class="edge">
<title>Node7&#45;&gt;Node2</title>
<g id="a_edge8_Node000007_Node000002"><a xlink:title=" ">
<path fill="none" stroke="#63b8ff" d="M838.63,-198.54C860.06,-223.08 906.19,-270.76 957,-291.35 1027.29,-319.82 1114.42,-323.61 1176.27,-321.62"/>
<polygon fill="#63b8ff" stroke="#63b8ff" points="1176.5,-325.11 1186.36,-321.23 1176.23,-318.12 1176.5,-325.11"/>
</a>
</g>
</g>
<!-- Node7&#45;&gt;Node3 -->
<g id="edge9_Node000007_Node000003" class="edge">
<title>Node7&#45;&gt;Node3</title>
<g id="a_edge9_Node000007_Node000003"><a xlink:title=" ">
<path fill="none" stroke="#63b8ff" d="M867.85,-198.35C893.26,-206.66 926.57,-216.13 957,-220.35 1029.48,-230.39 1112.76,-225.68 1172.81,-219.46"/>
<polygon fill="#63b8ff" stroke="#63b8ff" points="1173.43,-222.91 1183,-218.36 1172.68,-215.95 1173.43,-222.91"/>
</a>
</g>
</g>
<!-- Node7&#45;&gt;Node6 -->
<g id="edge16_Node000007_Node000006" class="edge">
<title>Node7&#45;&gt;Node6</title>
<g id="a_edge16_Node000007_Node000006"><a xlink:title=" ">
<path fill="none" stroke="#63b8ff" d="M728.67,-170.86C707.76,-166.89 685.81,-162.43 665.52,-158.01"/>
<polygon fill="#63b8ff" stroke="#63b8ff" points="666.23,-154.58 655.71,-155.85 664.72,-161.42 666.23,-154.58"/>
</a>
</g>
</g>
<!-- Node8 -->
<g id="Node000008" class="node">
<title>Node8</title>
<g id="a_Node000008"><a xlink:href="classcom_1_1teragrep_1_1pth__06_1_1ast_1_1transform_1_1WithDefaultValues.html#a42a39b9992cc004453cd026fbc106b36" target="_top" xlink:title=" ">
<polygon fill="white" stroke="#666666" points="1147,-193.35 957,-193.35 957,-163.35 1147,-163.35 1147,-193.35"/>
<text text-anchor="start" x="965" y="-181.35" font-family="Helvetica,sans-Serif" font-size="10.00">com.teragrep.pth_06.ast.transform.</text>
<text text-anchor="middle" x="1052" y="-170.35" font-family="Helvetica,sans-Serif" font-size="10.00">WithDefaultValues.expressionTags</text>
</a>
</g>
</g>
<!-- Node7&#45;&gt;Node8 -->
<g id="edge10_Node000007_Node000008" class="edge">
<title>Node7&#45;&gt;Node8</title>
<g id="a_edge10_Node000007_Node000008"><a xlink:title=" ">
<path fill="none" stroke="#63b8ff" d="M921.09,-181.23C929.63,-181.04 938.3,-180.85 946.9,-180.66"/>
<polygon fill="#63b8ff" stroke="#63b8ff" points="947.04,-184.16 956.96,-180.44 946.89,-177.16 947.04,-184.16"/>
</a>
</g>
</g>
<!-- Node8&#45;&gt;Node2 -->
<g id="edge11_Node000008_Node000002" class="edge">
<title>Node8&#45;&gt;Node2</title>
<g id="a_edge11_Node000008_Node000002"><a xlink:title=" ">
<path fill="none" stroke="#63b8ff" d="M1075.39,-193.53C1111.66,-218.13 1183.32,-266.74 1224.32,-294.54"/>
<polygon fill="#63b8ff" stroke="#63b8ff" points="1222.58,-297.59 1232.82,-300.3 1226.51,-291.79 1222.58,-297.59"/>
</a>
</g>
</g>
<!-- Node8&#45;&gt;Node3 -->
<g id="edge12_Node000008_Node000003" class="edge">
<title>Node8&#45;&gt;Node3</title>
<g id="a_edge12_Node000008_Node000003"><a xlink:title=" ">
<path fill="none" stroke="#63b8ff" d="M1147.2,-192.34C1155.68,-193.6 1164.23,-194.87 1172.6,-196.11"/>
<polygon fill="#63b8ff" stroke="#63b8ff" points="1172.3,-199.6 1182.7,-197.61 1173.33,-192.68 1172.3,-199.6"/>
</a>
</g>
</g>
<!-- Node8&#45;&gt;Node5 -->
<g id="edge14_Node000008_Node000005" class="edge">
<title>Node8&#45;&gt;Node5</title>
<g id="a_edge14_Node000008_Node000005"><a xlink:title=" ">
<path fill="none" stroke="#63b8ff" d="M1071.47,-163.34C1096.63,-142.91 1143.12,-105.24 1183,-73.35 1197.75,-61.56 1214.26,-48.48 1227.74,-37.82"/>
<polygon fill="#63b8ff" stroke="#63b8ff" points="1230.03,-40.48 1235.71,-31.54 1225.69,-34.99 1230.03,-40.48"/>
</a>
</g>
</g>
<!-- Node8&#45;&gt;Node8 -->
<g id="edge13_Node000008_Node000008" class="edge">
<title>Node8&#45;&gt;Node8</title>
<g id="a_edge13_Node000008_Node000008"><a xlink:title=" ">
<path fill="none" stroke="#63b8ff" d="M1016.14,-193.62C1008.17,-202.75 1020.12,-211.35 1052,-211.35 1070.93,-211.35 1082.83,-208.32 1087.71,-203.94"/>
<polygon fill="#63b8ff" stroke="#63b8ff" points="1091.21,-203.67 1087.86,-193.62 1084.21,-203.57 1091.21,-203.67"/>
</a>
</g>
</g>
<!-- Node8&#45;&gt;Node9 -->
<g id="edge15_Node000008_Node000009" class="edge">
<title>Node8&#45;&gt;Node9</title>
<g id="a_edge15_Node000008_Node000009"><a xlink:title=" ">
<path fill="none" stroke="#63b8ff" d="M1090.52,-163.3C1123.58,-150.04 1171.9,-130.67 1207.62,-116.35"/>
<polygon fill="#63b8ff" stroke="#63b8ff" points="1209.36,-119.42 1217.34,-112.45 1206.75,-112.92 1209.36,-119.42"/>
</a>
</g>
</g>
<!-- Node10&#45;&gt;Node2 -->
<g id="edge19_Node000010_Node000002" class="edge">
<title>Node10&#45;&gt;Node2</title>
<g id="a_edge19_Node000010_Node000002"><a xlink:title=" ">
<path fill="none" stroke="#63b8ff" d="M905.97,-150.37C911.29,-152.91 916.37,-155.88 921,-159.35 946.2,-178.21 932.39,-200.72 957,-220.35 991.64,-247.97 1103.19,-278.97 1179.53,-297.83"/>
<polygon fill="#63b8ff" stroke="#63b8ff" points="1179.05,-301.31 1189.59,-300.29 1180.71,-294.51 1179.05,-301.31"/>
</a>
</g>
</g>
<!-- Node10&#45;&gt;Node3 -->
<g id="edge20_Node000010_Node000003" class="edge">
<title>Node10&#45;&gt;Node3</title>
<g id="a_edge20_Node000010_Node000003"><a xlink:title=" ">
<path fill="none" stroke="#63b8ff" d="M920.29,-131.05C985.11,-130.47 1072.58,-134.44 1147,-154.35 1173.99,-161.57 1202.15,-175.91 1222.95,-187.99"/>
<polygon fill="#63b8ff" stroke="#63b8ff" points="1221.28,-191.08 1231.67,-193.18 1224.86,-185.06 1221.28,-191.08"/>
</a>
</g>
</g>
<!-- Node10&#45;&gt;Node5 -->
<g id="edge22_Node000010_Node000005" class="edge">
<title>Node10&#45;&gt;Node5</title>
<g id="a_edge22_Node000010_Node000005"><a xlink:title=" ">
<path fill="none" stroke="#63b8ff" d="M880.33,-120.28C959.6,-98.29 1106.67,-57.49 1191.05,-34.09"/>
<polygon fill="#63b8ff" stroke="#63b8ff" points="1192.07,-37.44 1200.77,-31.39 1190.2,-30.69 1192.07,-37.44"/>
</a>
</g>
</g>
<!-- Node10&#45;&gt;Node6 -->
<g id="edge23_Node000010_Node000006" class="edge">
<title>Node10&#45;&gt;Node6</title>
<g id="a_edge23_Node000010_Node000006"><a xlink:title=" ">
<path fill="none" stroke="#63b8ff" d="M729.75,-141.96C721,-142.06 712.05,-142.1 703.11,-142.1"/>
<polygon fill="#63b8ff" stroke="#63b8ff" points="703.05,-138.6 693.04,-142.07 703.03,-145.6 703.05,-138.6"/>
</a>
</g>
</g>
<!-- Node10&#45;&gt;Node8 -->
<g id="edge21_Node000010_Node000008" class="edge">
<title>Node10&#45;&gt;Node8</title>
<g id="a_edge21_Node000010_Node000008"><a xlink:title=" ">
<path fill="none" stroke="#63b8ff" d="M904.69,-150.39C923.36,-153.95 943.4,-157.78 962.48,-161.43"/>
<polygon fill="#63b8ff" stroke="#63b8ff" points="961.87,-164.88 972.35,-163.32 963.19,-158 961.87,-164.88"/>
</a>
</g>
</g>
<!-- Node10&#45;&gt;Node9 -->
<g id="edge24_Node000010_Node000009" class="edge">
<title>Node10&#45;&gt;Node9</title>
<g id="a_edge24_Node000010_Node000009"><a xlink:title=" ">
<path fill="none" stroke="#63b8ff" d="M920.07,-125C932.48,-123.72 945.04,-122.47 957,-121.35 1031.25,-114.39 1116.03,-107.68 1176.13,-103.14"/>
<polygon fill="#63b8ff" stroke="#63b8ff" points="1176.6,-106.61 1186.31,-102.37 1176.07,-99.63 1176.6,-106.61"/>
</a>
</g>
</g>
</g>
</svg>
