<?xml version="1.0" encoding="UTF-8" standalone="no"?>
<!DOCTYPE svg PUBLIC "-//W3C//DTD SVG 1.1//EN"
 "http://www.w3.org/Graphics/SVG/1.1/DTD/svg11.dtd">
<!-- Generated by graphviz version 2.43.0 (0)
 -->
<!-- Title: com.teragrep.pth_06.ast.transform.OptimizedASTTest.testMultipleDepthNestedBinaryExpressionsToValue Pages: 1 -->
<svg width="1613pt" height="427pt"
 viewBox="0.00 0.00 1613.00 427.42" xmlns="http://www.w3.org/2000/svg" xmlns:xlink="http://www.w3.org/1999/xlink">
<g id="graph0" class="graph" transform="scale(1 1) rotate(0) translate(4 423.42)">
<title>com.teragrep.pth_06.ast.transform.OptimizedASTTest.testMultipleDepthNestedBinaryExpressionsToValue</title>
<!-- Node1 -->
<g id="Node000001" class="node">
<title>Node1</title>
<g id="a_Node000001"><a xlink:title=" ">
<polygon fill="#999999" stroke="#666666" points="230,-229.34 0,-229.34 0,-188.34 230,-188.34 230,-229.34"/>
<text text-anchor="start" x="8" y="-217.34" font-family="Helvetica,sans-Serif" font-size="10.00">com.teragrep.pth_06.ast.transform.</text>
<text text-anchor="start" x="8" y="-206.34" font-family="Helvetica,sans-Serif" font-size="10.00">OptimizedASTTest.testMultipleDepthNested</text>
<text text-anchor="middle" x="115" y="-195.34" font-family="Helvetica,sans-Serif" font-size="10.00">BinaryExpressionsToValue</text>
</a>
</g>
</g>
<!-- Node2 -->
<g id="Node000002" class="node">
<title>Node2</title>
<g id="a_Node000002"><a xlink:href="classcom_1_1teragrep_1_1pth__06_1_1ast_1_1transform_1_1OptimizedAST.html#a05726d2699d7ade747e74de2140c6a41" target="_top" xlink:title=" ">
<polygon fill="white" stroke="#666666" points="456,-223.84 266,-223.84 266,-193.84 456,-193.84 456,-223.84"/>
<text text-anchor="start" x="274" y="-211.84" font-family="Helvetica,sans-Serif" font-size="10.00">com.teragrep.pth_06.ast.transform.</text>
<text text-anchor="middle" x="361" y="-200.84" font-family="Helvetica,sans-Serif" font-size="10.00">OptimizedAST.transformed</text>
</a>
</g>
</g>
<!-- Node1&#45;&gt;Node2 -->
<g id="edge1_Node000001_Node000002" class="edge">
<title>Node1&#45;&gt;Node2</title>
<g id="a_edge1_Node000001_Node000002"><a xlink:title=" ">
<path fill="none" stroke="#63b8ff" d="M230.14,-208.84C238.61,-208.84 247.12,-208.84 255.52,-208.84"/>
<polygon fill="#63b8ff" stroke="#63b8ff" points="255.71,-212.34 265.71,-208.84 255.71,-205.34 255.71,-212.34"/>
</a>
</g>
</g>
<!-- Node3 -->
<g id="Node000003" class="node">
<title>Node3</title>
<g id="a_Node000003"><a xlink:href="classcom_1_1teragrep_1_1pth__06_1_1ast_1_1transform_1_1OptimizedAST.html#ac4ebcab5c55182e969cd03150e96e374" target="_top" xlink:title=" ">
<polygon fill="white" stroke="#666666" points="682,-223.84 492,-223.84 492,-193.84 682,-193.84 682,-223.84"/>
<text text-anchor="start" x="500" y="-211.84" font-family="Helvetica,sans-Serif" font-size="10.00">com.teragrep.pth_06.ast.transform.</text>
<text text-anchor="middle" x="587" y="-200.84" font-family="Helvetica,sans-Serif" font-size="10.00">OptimizedAST.walkAndApply</text>
</a>
</g>
</g>
<!-- Node2&#45;&gt;Node3 -->
<g id="edge2_Node000002_Node000003" class="edge">
<title>Node2&#45;&gt;Node3</title>
<g id="a_edge2_Node000002_Node000003"><a xlink:title=" ">
<path fill="none" stroke="#63b8ff" d="M456.02,-208.84C464.54,-208.84 473.2,-208.84 481.8,-208.84"/>
<polygon fill="#63b8ff" stroke="#63b8ff" points="481.86,-212.34 491.86,-208.84 481.86,-205.34 481.86,-212.34"/>
</a>
</g>
</g>
<!-- Node3&#45;&gt;Node3 -->
<g id="edge40_Node000003_Node000003" class="edge">
<title>Node3&#45;&gt;Node3</title>
<g id="a_edge40_Node000003_Node000003"><a xlink:title=" ">
<path fill="none" stroke="#63b8ff" d="M547.27,-224.11C538.45,-233.24 551.69,-241.84 587,-241.84 607.97,-241.84 621.15,-238.81 626.56,-234.43"/>
<polygon fill="#63b8ff" stroke="#63b8ff" points="630.06,-234.17 626.73,-224.11 623.06,-234.05 630.06,-234.17"/>
</a>
</g>
</g>
<!-- Node4 -->
<g id="Node000004" class="node">
<title>Node4</title>
<g id="a_Node000004"><a xlink:href="interfacecom_1_1teragrep_1_1pth__06_1_1ast_1_1Expression.html#a17e7d33905be57c6e22e1717da6ddef6" target="_top" xlink:title=" ">
<polygon fill="white" stroke="#666666" points="1601.5,-271.84 1462.5,-271.84 1462.5,-241.84 1601.5,-241.84 1601.5,-271.84"/>
<text text-anchor="start" x="1470.5" y="-259.84" font-family="Helvetica,sans-Serif" font-size="10.00">com.teragrep.pth_06.ast.</text>
<text text-anchor="middle" x="1532" y="-248.84" font-family="Helvetica,sans-Serif" font-size="10.00">Expression.asLogical</text>
</a>
</g>
</g>
<!-- Node3&#45;&gt;Node4 -->
<g id="edge3_Node000003_Node000004" class="edge">
<title>Node3&#45;&gt;Node4</title>
<g id="a_edge3_Node000003_Node000004"><a xlink:title=" ">
<path fill="none" stroke="#63b8ff" d="M623.4,-223.88C691.92,-252.38 847.98,-314.28 985,-346.84 1083.58,-370.26 1109.89,-370.16 1211,-376.84 1305.02,-383.05 1345.56,-430.51 1423,-376.84 1460.45,-350.88 1426.19,-312.46 1459,-280.84 1460.13,-279.75 1461.3,-278.71 1462.52,-277.72"/>
<polygon fill="#63b8ff" stroke="#63b8ff" points="1464.85,-280.38 1471.13,-271.85 1460.9,-274.6 1464.85,-280.38"/>
</a>
</g>
</g>
<!-- Node5 -->
<g id="Node000005" class="node">
<title>Node5</title>
<g id="a_Node000005"><a xlink:href="interfacecom_1_1teragrep_1_1pth__06_1_1ast_1_1LogicalExpression.html#aeaf8fe296c6899792f345659a9a6c0c4" target="_top" xlink:title=" ">
<polygon fill="white" stroke="#666666" points="1605,-223.84 1459,-223.84 1459,-193.84 1605,-193.84 1605,-223.84"/>
<text text-anchor="start" x="1467" y="-211.84" font-family="Helvetica,sans-Serif" font-size="10.00">com.teragrep.pth_06.ast.</text>
<text text-anchor="middle" x="1532" y="-200.84" font-family="Helvetica,sans-Serif" font-size="10.00">LogicalExpression.children</text>
</a>
</g>
</g>
<!-- Node3&#45;&gt;Node5 -->
<g id="edge4_Node000003_Node000005" class="edge">
<title>Node3&#45;&gt;Node5</title>
<g id="a_edge4_Node000003_Node000005"><a xlink:title=" ">
<path fill="none" stroke="#63b8ff" d="M612.35,-193.65C718.57,-129.52 1148.26,107.71 1423,-70.84 1456.03,-92.3 1434.86,-120.71 1459,-151.84 1469.66,-165.58 1484.31,-177.96 1497.62,-187.65"/>
<polygon fill="#63b8ff" stroke="#63b8ff" points="1495.91,-190.73 1506.11,-193.61 1499.93,-185 1495.91,-190.73"/>
</a>
</g>
</g>
<!-- Node6 -->
<g id="Node000006" class="node">
<title>Node6</title>
<g id="a_Node000006"><a xlink:href="interfacecom_1_1teragrep_1_1pth__06_1_1ast_1_1Expression.html#a65ee7f5fb98e4129018f467a53586842" target="_top" xlink:title=" ">
<polygon fill="white" stroke="#666666" points="1601.5,-142.84 1462.5,-142.84 1462.5,-112.84 1601.5,-112.84 1601.5,-142.84"/>
<text text-anchor="start" x="1470.5" y="-130.84" font-family="Helvetica,sans-Serif" font-size="10.00">com.teragrep.pth_06.ast.</text>
<text text-anchor="middle" x="1532" y="-119.84" font-family="Helvetica,sans-Serif" font-size="10.00">Expression.isLogical</text>
</a>
</g>
</g>
<!-- Node3&#45;&gt;Node6 -->
<g id="edge5_Node000003_Node000006" class="edge">
<title>Node3&#45;&gt;Node6</title>
<g id="a_edge5_Node000003_Node000006"><a xlink:title=" ">
<path fill="none" stroke="#63b8ff" d="M594.8,-193.58C610.79,-159.65 654.31,-78.04 718,-40.84 821.56,19.65 865.39,-10.53 985,-1.84 1026.73,1.19 1418.04,-0.55 1423,-2.84 1468.14,-23.6 1501.65,-73.51 1518.59,-103.61"/>
<polygon fill="#63b8ff" stroke="#63b8ff" points="1515.65,-105.51 1523.5,-112.62 1521.79,-102.16 1515.65,-105.51"/>
</a>
</g>
</g>
<!-- Node7 -->
<g id="Node000007" class="node">
<title>Node7</title>
<g id="a_Node000007"><a xlink:href="interfacecom_1_1teragrep_1_1pth__06_1_1ast_1_1Expression.html#a8b9661253a3610b9eb148ee29ca8b7e1" target="_top" xlink:title=" ">
<polygon fill="white" stroke="#666666" points="1601.5,-319.84 1462.5,-319.84 1462.5,-289.84 1601.5,-289.84 1601.5,-319.84"/>
<text text-anchor="start" x="1470.5" y="-307.84" font-family="Helvetica,sans-Serif" font-size="10.00">com.teragrep.pth_06.ast.</text>
<text text-anchor="middle" x="1532" y="-296.84" font-family="Helvetica,sans-Serif" font-size="10.00">Expression.tag</text>
</a>
</g>
</g>
<!-- Node3&#45;&gt;Node7 -->
<g id="edge6_Node000003_Node000007" class="edge">
<title>Node3&#45;&gt;Node7</title>
<g id="a_edge6_Node000003_Node000007"><a xlink:title=" ">
<path fill="none" stroke="#63b8ff" d="M602.43,-224.15C624.91,-247.05 670.63,-289.97 718,-312.84 918.59,-409.65 988.72,-388.63 1211,-402.84 1305.03,-408.84 1335.1,-436.77 1423,-402.84 1461.66,-387.91 1495.04,-352 1514.08,-328.05"/>
<polygon fill="#63b8ff" stroke="#63b8ff" points="1516.86,-330.18 1520.21,-320.13 1511.32,-325.9 1516.86,-330.18"/>
</a>
</g>
</g>
<!-- Node8 -->
<g id="Node000008" class="node">
<title>Node8</title>
<g id="a_Node000008"><a xlink:href="classcom_1_1teragrep_1_1pth__06_1_1ast_1_1transform_1_1OptimizedAST.html#a77542c0b232d1e10e50a9846e1845b10" target="_top" xlink:title=" ">
<polygon fill="white" stroke="#666666" points="949,-223.84 718,-223.84 718,-193.84 949,-193.84 949,-223.84"/>
<text text-anchor="start" x="726" y="-211.84" font-family="Helvetica,sans-Serif" font-size="10.00">com.teragrep.pth_06.ast.transform.</text>
<text text-anchor="middle" x="833.5" y="-200.84" font-family="Helvetica,sans-Serif" font-size="10.00">OptimizedAST.transformedSingleExpression</text>
</a>
</g>
</g>
<!-- Node3&#45;&gt;Node8 -->
<g id="edge7_Node000003_Node000008" class="edge">
<title>Node3&#45;&gt;Node8</title>
<g id="a_edge7_Node000003_Node000008"><a xlink:title=" ">
<path fill="none" stroke="#63b8ff" d="M682.18,-208.84C690.59,-208.84 699.19,-208.84 707.81,-208.84"/>
<polygon fill="#63b8ff" stroke="#63b8ff" points="707.92,-212.34 717.92,-208.84 707.92,-205.34 707.92,-212.34"/>
</a>
</g>
</g>
<!-- Node9 -->
<g id="Node000009" class="node">
<title>Node9</title>
<g id="a_Node000009"><a xlink:href="classcom_1_1teragrep_1_1pth__06_1_1ast_1_1transform_1_1EmptyPruned.html#a8cfebc9854b0ad9a7cbe81918392e036" target="_top" xlink:title=" ">
<polygon fill="white" stroke="#666666" points="1412,-175.84 1222,-175.84 1222,-145.84 1412,-145.84 1412,-175.84"/>
<text text-anchor="start" x="1230" y="-163.84" font-family="Helvetica,sans-Serif" font-size="10.00">com.teragrep.pth_06.ast.transform.</text>
<text text-anchor="middle" x="1317" y="-152.84" font-family="Helvetica,sans-Serif" font-size="10.00">EmptyPruned.transformed</text>
</a>
</g>
</g>
<!-- Node8&#45;&gt;Node9 -->
<g id="edge8_Node000008_Node000009" class="edge">
<title>Node8&#45;&gt;Node9</title>
<g id="a_edge8_Node000008_Node000009"><a xlink:title=" ">
<path fill="none" stroke="#63b8ff" d="M949.22,-197.4C1028.95,-189.45 1134.36,-178.94 1211.71,-171.23"/>
<polygon fill="#63b8ff" stroke="#63b8ff" points="1212.35,-174.69 1221.95,-170.21 1211.66,-167.72 1212.35,-174.69"/>
</a>
</g>
</g>
<!-- Node10 -->
<g id="Node000010" class="node">
<title>Node10</title>
<g id="a_Node000010"><a xlink:href="classcom_1_1teragrep_1_1pth__06_1_1ast_1_1transform_1_1FlattenLogical.html#a2e1717ad6884eea7a2415aa7763eaed5" target="_top" xlink:title=" ">
<polygon fill="white" stroke="#666666" points="1175,-319.84 985,-319.84 985,-289.84 1175,-289.84 1175,-319.84"/>
<text text-anchor="start" x="993" y="-307.84" font-family="Helvetica,sans-Serif" font-size="10.00">com.teragrep.pth_06.ast.transform.</text>
<text text-anchor="middle" x="1080" y="-296.84" font-family="Helvetica,sans-Serif" font-size="10.00">FlattenLogical.transformed</text>
</a>
</g>
</g>
<!-- Node8&#45;&gt;Node10 -->
<g id="edge13_Node000008_Node000010" class="edge">
<title>Node8&#45;&gt;Node10</title>
<g id="a_edge13_Node000008_Node000010"><a xlink:title=" ">
<path fill="none" stroke="#63b8ff" d="M872.7,-223.84C915.46,-240.62 984.8,-267.85 1031.14,-286.05"/>
<polygon fill="#63b8ff" stroke="#63b8ff" points="1030.08,-289.39 1040.66,-289.78 1032.63,-282.87 1030.08,-289.39"/>
</a>
</g>
</g>
<!-- Node13 -->
<g id="Node000013" class="node">
<title>Node13</title>
<g id="a_Node000013"><a xlink:href="classcom_1_1teragrep_1_1pth__06_1_1ast_1_1transform_1_1IdentitySimplification.html#a2e7ebae3195ee7794364c646e783c6d3" target="_top" xlink:title=" ">
<polygon fill="white" stroke="#666666" points="1412,-109.84 1222,-109.84 1222,-79.84 1412,-79.84 1412,-109.84"/>
<text text-anchor="start" x="1230" y="-97.84" font-family="Helvetica,sans-Serif" font-size="10.00">com.teragrep.pth_06.ast.transform.</text>
<text text-anchor="middle" x="1317" y="-86.84" font-family="Helvetica,sans-Serif" font-size="10.00">IdentitySimplification.transformed</text>
</a>
</g>
</g>
<!-- Node8&#45;&gt;Node13 -->
<g id="edge25_Node000008_Node000013" class="edge">
<title>Node8&#45;&gt;Node13</title>
<g id="a_edge25_Node000008_Node000013"><a xlink:title=" ">
<path fill="none" stroke="#63b8ff" d="M892.68,-193.84C920.57,-186.72 954.48,-178.19 985,-170.84 1071.69,-149.94 1171.47,-127.21 1238.62,-112.11"/>
<polygon fill="#63b8ff" stroke="#63b8ff" points="1239.71,-115.45 1248.7,-109.84 1238.18,-108.62 1239.71,-115.45"/>
</a>
</g>
</g>
<!-- Node14 -->
<g id="Node000014" class="node">
<title>Node14</title>
<g id="a_Node000014"><a xlink:href="classcom_1_1teragrep_1_1pth__06_1_1ast_1_1transform_1_1PrunedInvalidTimeQualifier.html#a390e2447fa0ee0e2964ba44d68710b37" target="_top" xlink:title=" ">
<polygon fill="white" stroke="#666666" points="1423,-271.84 1211,-271.84 1211,-241.84 1423,-241.84 1423,-271.84"/>
<text text-anchor="start" x="1219" y="-259.84" font-family="Helvetica,sans-Serif" font-size="10.00">com.teragrep.pth_06.ast.transform.</text>
<text text-anchor="middle" x="1317" y="-248.84" font-family="Helvetica,sans-Serif" font-size="10.00">PrunedInvalidTimeQualifier.transformed</text>
</a>
</g>
</g>
<!-- Node8&#45;&gt;Node14 -->
<g id="edge30_Node000008_Node000014" class="edge">
<title>Node8&#45;&gt;Node14</title>
<g id="a_edge30_Node000008_Node000014"><a xlink:title=" ">
<path fill="none" stroke="#63b8ff" d="M949.22,-220.27C1025.22,-227.85 1124.56,-237.75 1200.68,-245.34"/>
<polygon fill="#63b8ff" stroke="#63b8ff" points="1200.5,-248.84 1210.79,-246.35 1201.19,-241.87 1200.5,-248.84"/>
</a>
</g>
</g>
<!-- Node15 -->
<g id="Node000015" class="node">
<title>Node15</title>
<g id="a_Node000015"><a xlink:href="classcom_1_1teragrep_1_1pth__06_1_1ast_1_1transform_1_1UniqueChildren.html#a39304f06c8b7ac1e1a23463fe502028e" target="_top" xlink:title=" ">
<polygon fill="white" stroke="#666666" points="1412,-223.84 1222,-223.84 1222,-193.84 1412,-193.84 1412,-223.84"/>
<text text-anchor="start" x="1230" y="-211.84" font-family="Helvetica,sans-Serif" font-size="10.00">com.teragrep.pth_06.ast.transform.</text>
<text text-anchor="middle" x="1317" y="-200.84" font-family="Helvetica,sans-Serif" font-size="10.00">UniqueChildren.transformed</text>
</a>
</g>
</g>
<!-- Node8&#45;&gt;Node15 -->
<g id="edge35_Node000008_Node000015" class="edge">
<title>Node8&#45;&gt;Node15</title>
<g id="a_edge35_Node000008_Node000015"><a xlink:title=" ">
<path fill="none" stroke="#63b8ff" d="M949.22,-208.84C1028.95,-208.84 1134.36,-208.84 1211.71,-208.84"/>
<polygon fill="#63b8ff" stroke="#63b8ff" points="1211.95,-212.34 1221.95,-208.84 1211.95,-205.34 1211.95,-212.34"/>
</a>
</g>
</g>
<!-- Node9&#45;&gt;Node4 -->
<g id="edge9_Node000009_Node000004" class="edge">
<title>Node9&#45;&gt;Node4</title>
<g id="a_edge9_Node000009_Node000004"><a xlink:title=" ">
<path fill="none" stroke="#63b8ff" d="M1405.91,-175.87C1411.9,-178.41 1417.67,-181.37 1423,-184.84 1445.36,-199.36 1437.37,-217.24 1459,-232.84 1461.06,-234.32 1463.21,-235.72 1465.44,-237.03"/>
<polygon fill="#63b8ff" stroke="#63b8ff" points="1463.85,-240.14 1474.33,-241.69 1467.1,-233.95 1463.85,-240.14"/>
</a>
</g>
</g>
<!-- Node9&#45;&gt;Node5 -->
<g id="edge10_Node000009_Node000005" class="edge">
<title>Node9&#45;&gt;Node5</title>
<g id="a_edge10_Node000009_Node000005"><a xlink:title=" ">
<path fill="none" stroke="#63b8ff" d="M1384.81,-175.89C1406.92,-180.87 1431.68,-186.46 1454.46,-191.59"/>
<polygon fill="#63b8ff" stroke="#63b8ff" points="1453.9,-195.05 1464.43,-193.83 1455.44,-188.22 1453.9,-195.05"/>
</a>
</g>
</g>
<!-- Node9&#45;&gt;Node6 -->
<g id="edge11_Node000009_Node000006" class="edge">
<title>Node9&#45;&gt;Node6</title>
<g id="a_edge11_Node000009_Node000006"><a xlink:title=" ">
<path fill="none" stroke="#63b8ff" d="M1412.04,-146.27C1425.54,-144.17 1439.31,-142.04 1452.47,-140"/>
<polygon fill="#63b8ff" stroke="#63b8ff" points="1453.05,-143.46 1462.4,-138.47 1451.98,-136.54 1453.05,-143.46"/>
</a>
</g>
</g>
<!-- Node9&#45;&gt;Node7 -->
<g id="edge12_Node000009_Node000007" class="edge">
<title>Node9&#45;&gt;Node7</title>
<g id="a_edge12_Node000009_Node000007"><a xlink:title=" ">
<path fill="none" stroke="#63b8ff" d="M1410.13,-175.84C1414.72,-178.41 1419.06,-181.39 1423,-184.84 1457.31,-214.83 1426.19,-249.22 1459,-280.84 1460.13,-281.92 1461.3,-282.96 1462.52,-283.95"/>
<polygon fill="#63b8ff" stroke="#63b8ff" points="1460.9,-287.08 1471.13,-289.82 1464.85,-281.3 1460.9,-287.08"/>
</a>
</g>
</g>
<!-- Node10&#45;&gt;Node6 -->
<g id="edge22_Node000010_Node000006" class="edge">
<title>Node10&#45;&gt;Node6</title>
<g id="a_edge22_Node000010_Node000006"><a xlink:title=" ">
<path fill="none" stroke="#63b8ff" d="M1083.94,-289.68C1093.29,-246.08 1126.89,-120.33 1211,-70.84 1292.21,-23.05 1331.54,-48.18 1423,-70.84 1451.45,-77.88 1480.67,-93.94 1501.53,-107.23"/>
<polygon fill="#63b8ff" stroke="#63b8ff" points="1499.65,-110.17 1509.93,-112.71 1503.47,-104.31 1499.65,-110.17"/>
</a>
</g>
</g>
<!-- Node10&#45;&gt;Node7 -->
<g id="edge23_Node000010_Node000007" class="edge">
<title>Node10&#45;&gt;Node7</title>
<g id="a_edge23_Node000010_Node000007"><a xlink:title=" ">
<path fill="none" stroke="#63b8ff" d="M1100.78,-320.04C1125.14,-337.71 1168.54,-365.86 1211,-376.84 1302.23,-400.41 1332.82,-404.14 1423,-376.84 1455.37,-367.04 1486.9,-343.98 1507.46,-326.58"/>
<polygon fill="#63b8ff" stroke="#63b8ff" points="1509.78,-329.2 1515.04,-320 1505.19,-323.91 1509.78,-329.2"/>
</a>
</g>
</g>
<!-- Node10&#45;&gt;Node10 -->
<g id="edge24_Node000010_Node000010" class="edge">
<title>Node10&#45;&gt;Node10</title>
<g id="a_edge24_Node000010_Node000010"><a xlink:title=" ">
<path fill="none" stroke="#63b8ff" d="M1038.52,-320.11C1029.3,-329.24 1043.12,-337.84 1080,-337.84 1101.89,-337.84 1115.66,-334.81 1121.31,-330.43"/>
<polygon fill="#63b8ff" stroke="#63b8ff" points="1124.81,-330.17 1121.48,-320.11 1117.81,-330.05 1124.81,-330.17"/>
</a>
</g>
</g>
<!-- Node11 -->
<g id="Node000011" class="node">
<title>Node11</title>
<g id="a_Node000011"><a xlink:href="classcom_1_1teragrep_1_1pth__06_1_1ast_1_1transform_1_1FlattenLogical.html#a3b9085857dc57e88c58a6fa5a057f103" target="_top" xlink:title=" ">
<polygon fill="white" stroke="#666666" points="1412.5,-319.84 1221.5,-319.84 1221.5,-289.84 1412.5,-289.84 1412.5,-319.84"/>
<text text-anchor="start" x="1229.5" y="-307.84" font-family="Helvetica,sans-Serif" font-size="10.00">com.teragrep.pth_06.ast.transform.</text>
<text text-anchor="middle" x="1317" y="-296.84" font-family="Helvetica,sans-Serif" font-size="10.00">FlattenLogical.flattenedAndChildren</text>
</a>
</g>
</g>
<!-- Node10&#45;&gt;Node11 -->
<g id="edge14_Node000010_Node000011" class="edge">
<title>Node10&#45;&gt;Node11</title>
<g id="a_edge14_Node000010_Node000011"><a xlink:title=" ">
<path fill="none" stroke="#63b8ff" d="M1175.23,-304.84C1187.1,-304.84 1199.3,-304.84 1211.32,-304.84"/>
<polygon fill="#63b8ff" stroke="#63b8ff" points="1211.37,-308.34 1221.37,-304.84 1211.37,-301.34 1211.37,-308.34"/>
</a>
</g>
</g>
<!-- Node12 -->
<g id="Node000012" class="node">
<title>Node12</title>
<g id="a_Node000012"><a xlink:href="classcom_1_1teragrep_1_1pth__06_1_1ast_1_1transform_1_1FlattenLogical.html#ae0b8acc47ab74872494d07da365e303b" target="_top" xlink:title=" ">
<polygon fill="white" stroke="#666666" points="1412,-367.84 1222,-367.84 1222,-337.84 1412,-337.84 1412,-367.84"/>
<text text-anchor="start" x="1230" y="-355.84" font-family="Helvetica,sans-Serif" font-size="10.00">com.teragrep.pth_06.ast.transform.</text>
<text text-anchor="middle" x="1317" y="-344.84" font-family="Helvetica,sans-Serif" font-size="10.00">FlattenLogical.flattenedOrChildren</text>
</a>
</g>
</g>
<!-- Node10&#45;&gt;Node12 -->
<g id="edge18_Node000010_Node000012" class="edge">
<title>Node10&#45;&gt;Node12</title>
<g id="a_edge18_Node000010_Node000012"><a xlink:title=" ">
<path fill="none" stroke="#63b8ff" d="M1154.71,-319.89C1179.43,-324.94 1207.16,-330.61 1232.57,-335.8"/>
<polygon fill="#63b8ff" stroke="#63b8ff" points="1232.05,-339.26 1242.55,-337.83 1233.45,-332.4 1232.05,-339.26"/>
</a>
</g>
</g>
<!-- Node11&#45;&gt;Node4 -->
<g id="edge15_Node000011_Node000004" class="edge">
<title>Node11&#45;&gt;Node4</title>
<g id="a_edge15_Node000011_Node000004"><a xlink:title=" ">
<path fill="none" stroke="#63b8ff" d="M1384.81,-289.78C1406.92,-284.8 1431.68,-279.22 1454.46,-274.08"/>
<polygon fill="#63b8ff" stroke="#63b8ff" points="1455.44,-277.45 1464.43,-271.84 1453.9,-270.62 1455.44,-277.45"/>
</a>
</g>
</g>
<!-- Node11&#45;&gt;Node5 -->
<g id="edge16_Node000011_Node000005" class="edge">
<title>Node11&#45;&gt;Node5</title>
<g id="a_edge16_Node000011_Node000005"><a xlink:title=" ">
<path fill="none" stroke="#63b8ff" d="M1405.91,-289.81C1411.9,-287.27 1417.67,-284.3 1423,-280.84 1445.36,-266.31 1437.37,-248.43 1459,-232.84 1461.06,-231.35 1463.21,-229.96 1465.44,-228.64"/>
<polygon fill="#63b8ff" stroke="#63b8ff" points="1467.1,-231.73 1474.33,-223.98 1463.85,-225.53 1467.1,-231.73"/>
</a>
</g>
</g>
<!-- Node11&#45;&gt;Node7 -->
<g id="edge17_Node000011_Node000007" class="edge">
<title>Node11&#45;&gt;Node7</title>
<g id="a_edge17_Node000011_Node000007"><a xlink:title=" ">
<path fill="none" stroke="#63b8ff" d="M1412.67,-304.84C1425.9,-304.84 1439.39,-304.84 1452.29,-304.84"/>
<polygon fill="#63b8ff" stroke="#63b8ff" points="1452.49,-308.34 1462.49,-304.84 1452.49,-301.34 1452.49,-308.34"/>
</a>
</g>
</g>
<!-- Node12&#45;&gt;Node4 -->
<g id="edge19_Node000012_Node000004" class="edge">
<title>Node12&#45;&gt;Node4</title>
<g id="a_edge19_Node000012_Node000004"><a xlink:title=" ">
<path fill="none" stroke="#63b8ff" d="M1405.91,-337.81C1411.9,-335.27 1417.67,-332.3 1423,-328.84 1445.36,-314.31 1437.37,-296.43 1459,-280.84 1461.06,-279.35 1463.21,-277.96 1465.44,-276.64"/>
<polygon fill="#63b8ff" stroke="#63b8ff" points="1467.1,-279.73 1474.33,-271.98 1463.85,-273.53 1467.1,-279.73"/>
</a>
</g>
</g>
<!-- Node12&#45;&gt;Node5 -->
<g id="edge20_Node000012_Node000005" class="edge">
<title>Node12&#45;&gt;Node5</title>
<g id="a_edge20_Node000012_Node000005"><a xlink:title=" ">
<path fill="none" stroke="#63b8ff" d="M1410.13,-337.84C1414.72,-335.26 1419.06,-332.28 1423,-328.84 1457.31,-298.85 1426.19,-264.46 1459,-232.84 1460.13,-231.75 1461.3,-230.71 1462.52,-229.72"/>
<polygon fill="#63b8ff" stroke="#63b8ff" points="1464.85,-232.38 1471.13,-223.85 1460.9,-226.6 1464.85,-232.38"/>
</a>
</g>
</g>
<!-- Node12&#45;&gt;Node7 -->
<g id="edge21_Node000012_Node000007" class="edge">
<title>Node12&#45;&gt;Node7</title>
<g id="a_edge21_Node000012_Node000007"><a xlink:title=" ">
<path fill="none" stroke="#63b8ff" d="M1384.81,-337.78C1406.92,-332.8 1431.68,-327.22 1454.46,-322.08"/>
<polygon fill="#63b8ff" stroke="#63b8ff" points="1455.44,-325.45 1464.43,-319.84 1453.9,-318.62 1455.44,-325.45"/>
</a>
</g>
</g>
<!-- Node13&#45;&gt;Node4 -->
<g id="edge26_Node000013_Node000004" class="edge">
<title>Node13&#45;&gt;Node4</title>
<g id="a_edge26_Node000013_Node000004"><a xlink:title=" ">
<path fill="none" stroke="#63b8ff" d="M1380.06,-109.94C1395.65,-116.17 1411.26,-124.84 1423,-136.84 1454.87,-169.41 1426.19,-201.22 1459,-232.84 1460.13,-233.92 1461.3,-234.96 1462.52,-235.95"/>
<polygon fill="#63b8ff" stroke="#63b8ff" points="1460.9,-239.08 1471.13,-241.82 1464.85,-233.3 1460.9,-239.08"/>
</a>
</g>
</g>
<!-- Node13&#45;&gt;Node5 -->
<g id="edge27_Node000013_Node000005" class="edge">
<title>Node13&#45;&gt;Node5</title>
<g id="a_edge27_Node000013_Node000005"><a xlink:title=" ">
<path fill="none" stroke="#63b8ff" d="M1361.31,-109.84C1380.61,-117.11 1403.37,-126.51 1423,-136.84 1451.4,-151.77 1481.61,-172.37 1502.84,-187.71"/>
<polygon fill="#63b8ff" stroke="#63b8ff" points="1500.94,-190.65 1511.08,-193.72 1505.06,-184.99 1500.94,-190.65"/>
</a>
</g>
</g>
<!-- Node13&#45;&gt;Node6 -->
<g id="edge28_Node000013_Node000006" class="edge">
<title>Node13&#45;&gt;Node6</title>
<g id="a_edge28_Node000013_Node000006"><a xlink:title=" ">
<path fill="none" stroke="#63b8ff" d="M1412.04,-109.41C1425.54,-111.5 1439.31,-113.63 1452.47,-115.67"/>
<polygon fill="#63b8ff" stroke="#63b8ff" points="1451.98,-119.14 1462.4,-117.21 1453.05,-112.22 1451.98,-119.14"/>
</a>
</g>
</g>
<!-- Node13&#45;&gt;Node13 -->
<g id="edge29_Node000013_Node000013" class="edge">
<title>Node13&#45;&gt;Node13</title>
<g id="a_edge29_Node000013_Node000013"><a xlink:title=" ">
<path fill="none" stroke="#63b8ff" d="M1279.38,-110.11C1271.02,-119.24 1283.56,-127.84 1317,-127.84 1336.85,-127.84 1349.34,-124.81 1354.46,-120.43"/>
<polygon fill="#63b8ff" stroke="#63b8ff" points="1357.96,-120.16 1354.62,-110.11 1350.96,-120.06 1357.96,-120.16"/>
</a>
</g>
</g>
<!-- Node14&#45;&gt;Node4 -->
<g id="edge31_Node000014_Node000004" class="edge">
<title>Node14&#45;&gt;Node4</title>
<g id="a_edge31_Node000014_Node000004"><a xlink:title=" ">
<path fill="none" stroke="#63b8ff" d="M1423.25,-256.84C1433.03,-256.84 1442.82,-256.84 1452.29,-256.84"/>
<polygon fill="#63b8ff" stroke="#63b8ff" points="1452.43,-260.34 1462.43,-256.84 1452.43,-253.34 1452.43,-260.34"/>
</a>
</g>
</g>
<!-- Node14&#45;&gt;Node5 -->
<g id="edge32_Node000014_Node000005" class="edge">
<title>Node14&#45;&gt;Node5</title>
<g id="a_edge32_Node000014_Node000005"><a xlink:title=" ">
<path fill="none" stroke="#63b8ff" d="M1384.81,-241.78C1406.92,-236.8 1431.68,-231.22 1454.46,-226.08"/>
<polygon fill="#63b8ff" stroke="#63b8ff" points="1455.44,-229.45 1464.43,-223.84 1453.9,-222.62 1455.44,-229.45"/>
</a>
</g>
</g>
<!-- Node14&#45;&gt;Node6 -->
<g id="edge33_Node000014_Node000006" class="edge">
<title>Node14&#45;&gt;Node6</title>
<g id="a_edge33_Node000014_Node000006"><a xlink:title=" ">
<path fill="none" stroke="#63b8ff" d="M1405.91,-241.81C1411.9,-239.27 1417.67,-236.3 1423,-232.84 1445.36,-218.31 1440.39,-203.94 1459,-184.84 1471.71,-171.79 1487.42,-159.03 1500.92,-148.9"/>
<polygon fill="#63b8ff" stroke="#63b8ff" points="1503.02,-151.71 1509,-142.96 1498.87,-146.07 1503.02,-151.71"/>
</a>
</g>
</g>
<!-- Node14&#45;&gt;Node7 -->
<g id="edge34_Node000014_Node000007" class="edge">
<title>Node14&#45;&gt;Node7</title>
<g id="a_edge34_Node000014_Node000007"><a xlink:title=" ">
<path fill="none" stroke="#63b8ff" d="M1384.81,-271.89C1406.92,-276.87 1431.68,-282.46 1454.46,-287.59"/>
<polygon fill="#63b8ff" stroke="#63b8ff" points="1453.9,-291.05 1464.43,-289.83 1455.44,-284.22 1453.9,-291.05"/>
</a>
</g>
</g>
<!-- Node15&#45;&gt;Node4 -->
<g id="edge36_Node000015_Node000004" class="edge">
<title>Node15&#45;&gt;Node4</title>
<g id="a_edge36_Node000015_Node000004"><a xlink:title=" ">
<path fill="none" stroke="#63b8ff" d="M1384.81,-223.89C1406.92,-228.87 1431.68,-234.46 1454.46,-239.59"/>
<polygon fill="#63b8ff" stroke="#63b8ff" points="1453.9,-243.05 1464.43,-241.83 1455.44,-236.22 1453.9,-243.05"/>
</a>
</g>
</g>
<!-- Node15&#45;&gt;Node5 -->
<g id="edge37_Node000015_Node000005" class="edge">
<title>Node15&#45;&gt;Node5</title>
<g id="a_edge37_Node000015_Node000005"><a xlink:title=" ">
<path fill="none" stroke="#63b8ff" d="M1412.04,-208.84C1424.32,-208.84 1436.82,-208.84 1448.88,-208.84"/>
<polygon fill="#63b8ff" stroke="#63b8ff" points="1448.89,-212.34 1458.89,-208.84 1448.89,-205.34 1448.89,-212.34"/>
</a>
</g>
</g>
<!-- Node15&#45;&gt;Node6 -->
<g id="edge38_Node000015_Node000006" class="edge">
<title>Node15&#45;&gt;Node6</title>
<g id="a_edge38_Node000015_Node000006"><a xlink:title=" ">
<path fill="none" stroke="#63b8ff" d="M1394.68,-193.77C1404.33,-191.16 1413.97,-188.19 1423,-184.84 1449.32,-175.07 1477.3,-160.16 1498.19,-148.04"/>
<polygon fill="#63b8ff" stroke="#63b8ff" points="1500.13,-150.96 1506.97,-142.87 1496.58,-144.93 1500.13,-150.96"/>
</a>
</g>
</g>
<!-- Node15&#45;&gt;Node7 -->
<g id="edge39_Node000015_Node000007" class="edge">
<title>Node15&#45;&gt;Node7</title>
<g id="a_edge39_Node000015_Node000007"><a xlink:title=" ">
<path fill="none" stroke="#63b8ff" d="M1405.91,-223.87C1411.9,-226.41 1417.67,-229.37 1423,-232.84 1445.36,-247.36 1437.37,-265.24 1459,-280.84 1461.06,-282.32 1463.21,-283.72 1465.44,-285.03"/>
<polygon fill="#63b8ff" stroke="#63b8ff" points="1463.85,-288.14 1474.33,-289.69 1467.1,-281.95 1463.85,-288.14"/>
</a>
</g>
</g>
</g>
</svg>
