<?xml version="1.0" encoding="UTF-8" standalone="no"?>
<!DOCTYPE svg PUBLIC "-//W3C//DTD SVG 1.1//EN"
 "http://www.w3.org/Graphics/SVG/1.1/DTD/svg11.dtd">
<!-- Generated by graphviz version 2.43.0 (0)
 -->
<!-- Title: com.teragrep.pth_06.ast.transform.WithDefaultValues.transformed Pages: 1 -->
<svg width="1089pt" height="301pt"
 viewBox="0.00 0.00 1089.00 301.00" xmlns="http://www.w3.org/2000/svg" xmlns:xlink="http://www.w3.org/1999/xlink">
<g id="graph0" class="graph" transform="scale(1 1) rotate(0) translate(4 297)">
<title>com.teragrep.pth_06.ast.transform.WithDefaultValues.transformed</title>
<!-- Node1 -->
<g id="Node000001" class="node">
<title>Node1</title>
<g id="a_Node000001"><a xlink:title=" ">
<polygon fill="#999999" stroke="#666666" points="190,-174 0,-174 0,-144 190,-144 190,-174"/>
<text text-anchor="start" x="8" y="-162" font-family="Helvetica,sans-Serif" font-size="10.00">com.teragrep.pth_06.ast.transform.</text>
<text text-anchor="middle" x="95" y="-151" font-family="Helvetica,sans-Serif" font-size="10.00">WithDefaultValues.transformed</text>
</a>
</g>
</g>
<!-- Node1&#45;&gt;Node1 -->
<g id="edge23_Node000001_Node000001" class="edge">
<title>Node1&#45;&gt;Node1</title>
<g id="a_edge23_Node000001_Node000001"><a xlink:title=" ">
<path fill="none" stroke="#63b8ff" d="M52.81,-174.28C43.44,-183.41 57.5,-192 95,-192 117.27,-192 131.27,-188.97 137.01,-184.6"/>
<polygon fill="#63b8ff" stroke="#63b8ff" points="140.51,-184.33 137.19,-174.28 133.51,-184.21 140.51,-184.33"/>
</a>
</g>
</g>
<!-- Node2 -->
<g id="Node000002" class="node">
<title>Node2</title>
<g id="a_Node000002"><a xlink:href="interfacecom_1_1teragrep_1_1pth__06_1_1ast_1_1Expression.html#a17e7d33905be57c6e22e1717da6ddef6" target="_top" xlink:title=" ">
<polygon fill="white" stroke="#666666" points="1077.5,-30 938.5,-30 938.5,0 1077.5,0 1077.5,-30"/>
<text text-anchor="start" x="946.5" y="-18" font-family="Helvetica,sans-Serif" font-size="10.00">com.teragrep.pth_06.ast.</text>
<text text-anchor="middle" x="1008" y="-7" font-family="Helvetica,sans-Serif" font-size="10.00">Expression.asLogical</text>
</a>
</g>
</g>
<!-- Node1&#45;&gt;Node2 -->
<g id="edge1_Node000001_Node000002" class="edge">
<title>Node1&#45;&gt;Node2</title>
<g id="a_edge1_Node000001_Node000002"><a xlink:title=" ">
<path fill="none" stroke="#63b8ff" d="M160.43,-143.94C181.33,-139.1 204.64,-133.77 226,-129 440.04,-81.22 491.3,-54.55 709,-28 782.98,-18.98 867.97,-15.99 928.2,-15.11"/>
<polygon fill="#63b8ff" stroke="#63b8ff" points="928.45,-18.6 938.4,-14.97 928.35,-11.6 928.45,-18.6"/>
</a>
</g>
</g>
<!-- Node3 -->
<g id="Node000003" class="node">
<title>Node3</title>
<g id="a_Node000003"><a xlink:href="interfacecom_1_1teragrep_1_1pth__06_1_1ast_1_1Expression.html#a65ee7f5fb98e4129018f467a53586842" target="_top" xlink:title=" ">
<polygon fill="white" stroke="#666666" points="1077.5,-293 938.5,-293 938.5,-263 1077.5,-263 1077.5,-293"/>
<text text-anchor="start" x="946.5" y="-281" font-family="Helvetica,sans-Serif" font-size="10.00">com.teragrep.pth_06.ast.</text>
<text text-anchor="middle" x="1008" y="-270" font-family="Helvetica,sans-Serif" font-size="10.00">Expression.isLogical</text>
</a>
</g>
</g>
<!-- Node1&#45;&gt;Node3 -->
<g id="edge2_Node000001_Node000003" class="edge">
<title>Node1&#45;&gt;Node3</title>
<g id="a_edge2_Node000001_Node000003"><a xlink:title=" ">
<path fill="none" stroke="#63b8ff" d="M161.03,-174.01C181.76,-178.65 204.81,-183.69 226,-188 439.36,-231.44 492.13,-250.52 709,-270 783.07,-276.65 867.87,-278.36 928.02,-278.57"/>
<polygon fill="#63b8ff" stroke="#63b8ff" points="928.2,-282.07 938.21,-278.6 928.22,-275.07 928.2,-282.07"/>
</a>
</g>
</g>
<!-- Node4 -->
<g id="Node000004" class="node">
<title>Node4</title>
<g id="a_Node000004"><a xlink:href="classcom_1_1teragrep_1_1pth__06_1_1ast_1_1transform_1_1WithDefaultValues.html#a371bd3fba44c9f320d2b39f5e60cb82c" target="_top" xlink:title=" ">
<polygon fill="white" stroke="#666666" points="445,-179.5 226,-179.5 226,-138.5 445,-138.5 445,-179.5"/>
<text text-anchor="start" x="234" y="-167.5" font-family="Helvetica,sans-Serif" font-size="10.00">com.teragrep.pth_06.ast.transform.</text>
<text text-anchor="start" x="234" y="-156.5" font-family="Helvetica,sans-Serif" font-size="10.00">WithDefaultValues.recursiveWithDefaults</text>
<text text-anchor="middle" x="335.5" y="-145.5" font-family="Helvetica,sans-Serif" font-size="10.00">Expression</text>
</a>
</g>
</g>
<!-- Node1&#45;&gt;Node4 -->
<g id="edge3_Node000001_Node000004" class="edge">
<title>Node1&#45;&gt;Node4</title>
<g id="a_edge3_Node000001_Node000004"><a xlink:title=" ">
<path fill="none" stroke="#63b8ff" d="M190.26,-159C198.68,-159 207.28,-159 215.87,-159"/>
<polygon fill="#63b8ff" stroke="#63b8ff" points="215.95,-162.5 225.95,-159 215.95,-155.5 215.95,-162.5"/>
</a>
</g>
</g>
<!-- Node4&#45;&gt;Node3 -->
<g id="edge14_Node000004_Node000003" class="edge">
<title>Node4&#45;&gt;Node3</title>
<g id="a_edge14_Node000004_Node000003"><a xlink:title=" ">
<path fill="none" stroke="#63b8ff" d="M394.97,-179.58C421.04,-188.13 452.29,-197.55 481,-204 637.74,-239.19 824.73,-260.75 928.22,-270.94"/>
<polygon fill="#63b8ff" stroke="#63b8ff" points="927.98,-274.43 938.27,-271.92 928.66,-267.47 927.98,-274.43"/>
</a>
</g>
</g>
<!-- Node5 -->
<g id="Node000005" class="node">
<title>Node5</title>
<g id="a_Node000005"><a xlink:href="classcom_1_1teragrep_1_1pth__06_1_1ast_1_1transform_1_1WithDefaultValues.html#ac53e9da4d27289a430152a8b67aa7e6b" target="_top" xlink:title=" ">
<polygon fill="white" stroke="#666666" points="673,-113 481,-113 481,-83 673,-83 673,-113"/>
<text text-anchor="start" x="489" y="-101" font-family="Helvetica,sans-Serif" font-size="10.00">com.teragrep.pth_06.ast.transform.</text>
<text text-anchor="middle" x="577" y="-90" font-family="Helvetica,sans-Serif" font-size="10.00">WithDefaultValues.andWithDefaults</text>
</a>
</g>
</g>
<!-- Node4&#45;&gt;Node5 -->
<g id="edge4_Node000004_Node000005" class="edge">
<title>Node4&#45;&gt;Node5</title>
<g id="a_edge4_Node000004_Node000005"><a xlink:title=" ">
<path fill="none" stroke="#63b8ff" d="M394.17,-138.44C420.41,-130.94 452.15,-122.61 481.71,-115.4"/>
<polygon fill="#63b8ff" stroke="#63b8ff" points="482.74,-118.75 491.64,-113 481.1,-111.95 482.74,-118.75"/>
</a>
</g>
</g>
<!-- Node8 -->
<g id="Node000008" class="node">
<title>Node8</title>
<g id="a_Node000008"><a xlink:href="interfacecom_1_1teragrep_1_1pth__06_1_1ast_1_1Expression.html#a8b9661253a3610b9eb148ee29ca8b7e1" target="_top" xlink:title=" ">
<polygon fill="white" stroke="#666666" points="1077.5,-212 938.5,-212 938.5,-182 1077.5,-182 1077.5,-212"/>
<text text-anchor="start" x="946.5" y="-200" font-family="Helvetica,sans-Serif" font-size="10.00">com.teragrep.pth_06.ast.</text>
<text text-anchor="middle" x="1008" y="-189" font-family="Helvetica,sans-Serif" font-size="10.00">Expression.tag</text>
</a>
</g>
</g>
<!-- Node4&#45;&gt;Node8 -->
<g id="edge22_Node000004_Node000008" class="edge">
<title>Node4&#45;&gt;Node8</title>
<g id="a_edge22_Node000004_Node000008"><a xlink:title=" ">
<path fill="none" stroke="#63b8ff" d="M445.2,-178.39C457.26,-180.15 469.37,-181.73 481,-183 638.98,-200.22 825.14,-200.5 928.23,-198.91"/>
<polygon fill="#63b8ff" stroke="#63b8ff" points="928.31,-202.41 938.25,-198.75 928.19,-195.41 928.31,-202.41"/>
</a>
</g>
</g>
<!-- Node9 -->
<g id="Node000009" class="node">
<title>Node9</title>
<g id="a_Node000009"><a xlink:href="classcom_1_1teragrep_1_1pth__06_1_1ast_1_1transform_1_1WithDefaultValues.html#af8c587422cbf070fc6fea9aba68705d9" target="_top" xlink:title=" ">
<polygon fill="white" stroke="#666666" points="672,-174 482,-174 482,-144 672,-144 672,-174"/>
<text text-anchor="start" x="490" y="-162" font-family="Helvetica,sans-Serif" font-size="10.00">com.teragrep.pth_06.ast.transform.</text>
<text text-anchor="middle" x="577" y="-151" font-family="Helvetica,sans-Serif" font-size="10.00">WithDefaultValues.orWithDefaults</text>
</a>
</g>
</g>
<!-- Node4&#45;&gt;Node9 -->
<g id="edge15_Node000004_Node000009" class="edge">
<title>Node4&#45;&gt;Node9</title>
<g id="a_edge15_Node000004_Node000009"><a xlink:title=" ">
<path fill="none" stroke="#63b8ff" d="M445.04,-152.28C453.84,-152.23 462.73,-152.24 471.51,-152.3"/>
<polygon fill="#63b8ff" stroke="#63b8ff" points="471.72,-155.8 481.75,-152.39 471.78,-148.8 471.72,-155.8"/>
</a>
</g>
</g>
<!-- Node5&#45;&gt;Node2 -->
<g id="edge5_Node000005_Node000002" class="edge">
<title>Node5&#45;&gt;Node2</title>
<g id="a_edge5_Node000005_Node000002"><a xlink:title=" ">
<path fill="none" stroke="#63b8ff" d="M631.28,-83C654.96,-76.63 683.25,-69.45 709,-64 782.83,-48.38 867.83,-34.84 928.11,-25.97"/>
<polygon fill="#63b8ff" stroke="#63b8ff" points="928.93,-29.39 938.32,-24.48 927.92,-22.46 928.93,-29.39"/>
</a>
</g>
</g>
<!-- Node5&#45;&gt;Node4 -->
<g id="edge13_Node000005_Node000004" class="edge">
<title>Node5&#45;&gt;Node4</title>
<g id="a_edge13_Node000005_Node000004"><a xlink:title=" ">
<path fill="none" stroke="#63b8ff" d="M537.21,-113.01C514.21,-119.98 483.71,-128.29 453.45,-135.96"/>
<polygon fill="#63b8ff" stroke="#63b8ff" points="452.49,-132.6 443.64,-138.43 454.19,-139.38 452.49,-132.6"/>
</a>
</g>
</g>
<!-- Node6 -->
<g id="Node000006" class="node">
<title>Node6</title>
<g id="a_Node000006"><a xlink:href="interfacecom_1_1teragrep_1_1pth__06_1_1ast_1_1LogicalExpression.html#aeaf8fe296c6899792f345659a9a6c0c4" target="_top" xlink:title=" ">
<polygon fill="white" stroke="#666666" points="1081,-113 935,-113 935,-83 1081,-83 1081,-113"/>
<text text-anchor="start" x="943" y="-101" font-family="Helvetica,sans-Serif" font-size="10.00">com.teragrep.pth_06.ast.</text>
<text text-anchor="middle" x="1008" y="-90" font-family="Helvetica,sans-Serif" font-size="10.00">LogicalExpression.children</text>
</a>
</g>
</g>
<!-- Node5&#45;&gt;Node6 -->
<g id="edge6_Node000005_Node000006" class="edge">
<title>Node5&#45;&gt;Node6</title>
<g id="a_edge6_Node000005_Node000006"><a xlink:title=" ">
<path fill="none" stroke="#63b8ff" d="M646.68,-83C666.68,-79.29 688.62,-75.85 709,-74 793.1,-66.36 815.06,-64.79 899,-74 912.52,-75.48 926.82,-77.98 940.44,-80.82"/>
<polygon fill="#63b8ff" stroke="#63b8ff" points="939.7,-84.24 950.22,-82.94 941.19,-77.4 939.7,-84.24"/>
</a>
</g>
</g>
<!-- Node7 -->
<g id="Node000007" class="node">
<title>Node7</title>
<g id="a_Node000007"><a xlink:href="classcom_1_1teragrep_1_1pth__06_1_1ast_1_1transform_1_1WithDefaultValues.html#a42a39b9992cc004453cd026fbc106b36" target="_top" xlink:title=" ">
<polygon fill="white" stroke="#666666" points="899,-113 709,-113 709,-83 899,-83 899,-113"/>
<text text-anchor="start" x="717" y="-101" font-family="Helvetica,sans-Serif" font-size="10.00">com.teragrep.pth_06.ast.transform.</text>
<text text-anchor="middle" x="804" y="-90" font-family="Helvetica,sans-Serif" font-size="10.00">WithDefaultValues.expressionTags</text>
</a>
</g>
</g>
<!-- Node5&#45;&gt;Node7 -->
<g id="edge7_Node000005_Node000007" class="edge">
<title>Node5&#45;&gt;Node7</title>
<g id="a_edge7_Node000005_Node000007"><a xlink:title=" ">
<path fill="none" stroke="#63b8ff" d="M673.09,-98C681.63,-98 690.3,-98 698.9,-98"/>
<polygon fill="#63b8ff" stroke="#63b8ff" points="698.96,-101.5 708.96,-98 698.96,-94.5 698.96,-101.5"/>
</a>
</g>
</g>
<!-- Node7&#45;&gt;Node2 -->
<g id="edge8_Node000007_Node000002" class="edge">
<title>Node7&#45;&gt;Node2</title>
<g id="a_edge8_Node000007_Node000002"><a xlink:title=" ">
<path fill="none" stroke="#63b8ff" d="M859.22,-82.94C872.38,-78.83 886.32,-74.09 899,-69 923.63,-59.12 950.32,-45.8 971,-34.87"/>
<polygon fill="#63b8ff" stroke="#63b8ff" points="972.88,-37.83 980.05,-30.03 969.58,-31.66 972.88,-37.83"/>
</a>
</g>
</g>
<!-- Node7&#45;&gt;Node3 -->
<g id="edge11_Node000007_Node000003" class="edge">
<title>Node7&#45;&gt;Node3</title>
<g id="a_edge11_Node000007_Node000003"><a xlink:title=" ">
<path fill="none" stroke="#63b8ff" d="M820.2,-113.22C844.06,-136.92 892.02,-183.78 935,-221 949.17,-233.27 965.52,-246.3 979.05,-256.79"/>
<polygon fill="#63b8ff" stroke="#63b8ff" points="977.01,-259.64 987.06,-262.97 981.28,-254.1 977.01,-259.64"/>
</a>
</g>
</g>
<!-- Node7&#45;&gt;Node6 -->
<g id="edge9_Node000007_Node000006" class="edge">
<title>Node7&#45;&gt;Node6</title>
<g id="a_edge9_Node000007_Node000006"><a xlink:title=" ">
<path fill="none" stroke="#63b8ff" d="M899.2,-98C907.68,-98 916.23,-98 924.6,-98"/>
<polygon fill="#63b8ff" stroke="#63b8ff" points="924.7,-101.5 934.7,-98 924.7,-94.5 924.7,-101.5"/>
</a>
</g>
</g>
<!-- Node7&#45;&gt;Node7 -->
<g id="edge10_Node000007_Node000007" class="edge">
<title>Node7&#45;&gt;Node7</title>
<g id="a_edge10_Node000007_Node000007"><a xlink:title=" ">
<path fill="none" stroke="#63b8ff" d="M768.14,-113.28C760.17,-122.41 772.12,-131 804,-131 822.93,-131 834.83,-127.97 839.71,-123.6"/>
<polygon fill="#63b8ff" stroke="#63b8ff" points="843.21,-123.33 839.86,-113.28 836.21,-123.22 843.21,-123.33"/>
</a>
</g>
</g>
<!-- Node7&#45;&gt;Node8 -->
<g id="edge12_Node000007_Node000008" class="edge">
<title>Node7&#45;&gt;Node8</title>
<g id="a_edge12_Node000007_Node000008"><a xlink:title=" ">
<path fill="none" stroke="#63b8ff" d="M835.68,-113.04C870.78,-130.24 928.38,-158.47 966.98,-177.39"/>
<polygon fill="#63b8ff" stroke="#63b8ff" points="965.84,-180.73 976.36,-181.99 968.92,-174.44 965.84,-180.73"/>
</a>
</g>
</g>
<!-- Node9&#45;&gt;Node2 -->
<g id="edge16_Node000009_Node000002" class="edge">
<title>Node9&#45;&gt;Node2</title>
<g id="a_edge16_Node000009_Node000002"><a xlink:title=" ">
<path fill="none" stroke="#63b8ff" d="M632,-143.9C646.18,-138.4 660.88,-131.2 673,-122 694.24,-105.88 686.26,-87.93 709,-74 782.09,-29.23 815.07,-58.37 899,-41 911.44,-38.42 924.63,-35.45 937.37,-32.46"/>
<polygon fill="#63b8ff" stroke="#63b8ff" points="938.54,-35.78 947.45,-30.06 936.92,-28.97 938.54,-35.78"/>
</a>
</g>
</g>
<!-- Node9&#45;&gt;Node3 -->
<g id="edge19_Node000009_Node000003" class="edge">
<title>Node9&#45;&gt;Node3</title>
<g id="a_edge19_Node000009_Node000003"><a xlink:title=" ">
<path fill="none" stroke="#63b8ff" d="M632.33,-174.07C711.6,-196.06 858.67,-236.86 943.05,-260.26"/>
<polygon fill="#63b8ff" stroke="#63b8ff" points="942.2,-263.66 952.77,-262.96 944.07,-256.91 942.2,-263.66"/>
</a>
</g>
</g>
<!-- Node9&#45;&gt;Node4 -->
<g id="edge20_Node000009_Node000004" class="edge">
<title>Node9&#45;&gt;Node4</title>
<g id="a_edge20_Node000009_Node000004"><a xlink:title=" ">
<path fill="none" stroke="#63b8ff" d="M481.75,-165.61C473,-165.71 464.05,-165.75 455.11,-165.75"/>
<polygon fill="#63b8ff" stroke="#63b8ff" points="455.05,-162.25 445.04,-165.72 455.03,-169.25 455.05,-162.25"/>
</a>
</g>
</g>
<!-- Node9&#45;&gt;Node6 -->
<g id="edge17_Node000009_Node000006" class="edge">
<title>Node9&#45;&gt;Node6</title>
<g id="a_edge17_Node000009_Node000006"><a xlink:title=" ">
<path fill="none" stroke="#63b8ff" d="M672.11,-161.09C736.65,-160.66 823.87,-156.41 899,-140 921.97,-134.98 946.48,-125.79 966.33,-117.29"/>
<polygon fill="#63b8ff" stroke="#63b8ff" points="967.93,-120.41 975.68,-113.19 965.11,-114 967.93,-120.41"/>
</a>
</g>
</g>
<!-- Node9&#45;&gt;Node7 -->
<g id="edge18_Node000009_Node000007" class="edge">
<title>Node9&#45;&gt;Node7</title>
<g id="a_edge18_Node000009_Node000007"><a xlink:title=" ">
<path fill="none" stroke="#63b8ff" d="M633.33,-144C664.81,-135.46 704.43,-124.72 737.47,-115.77"/>
<polygon fill="#63b8ff" stroke="#63b8ff" points="738.76,-119.04 747.49,-113.05 736.93,-112.29 738.76,-119.04"/>
</a>
</g>
</g>
<!-- Node9&#45;&gt;Node8 -->
<g id="edge21_Node000009_Node000008" class="edge">
<title>Node9&#45;&gt;Node8</title>
<g id="a_edge21_Node000009_Node000008"><a xlink:title=" ">
<path fill="none" stroke="#63b8ff" d="M672.07,-169.35C684.48,-170.63 697.04,-171.88 709,-173 783.25,-179.96 868.03,-186.66 928.13,-191.21"/>
<polygon fill="#63b8ff" stroke="#63b8ff" points="928.07,-194.72 938.31,-191.98 928.6,-187.74 928.07,-194.72"/>
</a>
</g>
</g>
</g>
</svg>
