<?xml version="1.0" encoding="UTF-8" standalone="no"?>
<!DOCTYPE svg PUBLIC "-//W3C//DTD SVG 1.1//EN"
 "http://www.w3.org/Graphics/SVG/1.1/DTD/svg11.dtd">
<!-- Generated by graphviz version 2.43.0 (0)
 -->
<!-- Title: com.teragrep.pth_06.ast.transform.WithDefaultValuesTest.testAndExpressionChildren Pages: 1 -->
<svg width="1346pt" height="469pt"
 viewBox="0.00 0.00 1346.00 468.73" xmlns="http://www.w3.org/2000/svg" xmlns:xlink="http://www.w3.org/1999/xlink">
<g id="graph0" class="graph" transform="scale(1 1) rotate(0) translate(4 464.73)">
<title>com.teragrep.pth_06.ast.transform.WithDefaultValuesTest.testAndExpressionChildren</title>
<!-- Node1 -->
<g id="Node000001" class="node">
<title>Node1</title>
<g id="a_Node000001"><a xlink:title=" ">
<polygon fill="#999999" stroke="#666666" points="221,-385.92 0,-385.92 0,-344.92 221,-344.92 221,-385.92"/>
<text text-anchor="start" x="8" y="-373.92" font-family="Helvetica,sans-Serif" font-size="10.00">com.teragrep.pth_06.ast.transform.</text>
<text text-anchor="start" x="8" y="-362.92" font-family="Helvetica,sans-Serif" font-size="10.00">WithDefaultValuesTest.testAndExpression</text>
<text text-anchor="middle" x="110.5" y="-351.92" font-family="Helvetica,sans-Serif" font-size="10.00">Children</text>
</a>
</g>
</g>
<!-- Node2 -->
<g id="Node000002" class="node">
<title>Node2</title>
<g id="a_Node000002"><a xlink:href="interfacecom_1_1teragrep_1_1pth__06_1_1ast_1_1Expression.html#a17e7d33905be57c6e22e1717da6ddef6" target="_top" xlink:title=" ">
<polygon fill="white" stroke="#666666" points="1334.5,-353.42 1195.5,-353.42 1195.5,-323.42 1334.5,-323.42 1334.5,-353.42"/>
<text text-anchor="start" x="1203.5" y="-341.42" font-family="Helvetica,sans-Serif" font-size="10.00">com.teragrep.pth_06.ast.</text>
<text text-anchor="middle" x="1265" y="-330.42" font-family="Helvetica,sans-Serif" font-size="10.00">Expression.asLogical</text>
</a>
</g>
</g>
<!-- Node1&#45;&gt;Node2 -->
<g id="edge1_Node000001_Node000002" class="edge">
<title>Node1&#45;&gt;Node2</title>
<g id="a_edge1_Node000001_Node000002"><a xlink:title=" ">
<path fill="none" stroke="#63b8ff" d="M149.17,-385.93C177.85,-400.49 218.77,-419.06 257,-428.42 401.77,-463.86 442.45,-452.42 591.5,-452.42 591.5,-452.42 591.5,-452.42 835,-452.42 978.06,-452.42 1023.39,-482.1 1156,-428.42 1192.07,-413.82 1225.1,-382.5 1244.88,-360.94"/>
<polygon fill="#63b8ff" stroke="#63b8ff" points="1247.49,-363.28 1251.56,-353.5 1242.28,-358.61 1247.49,-363.28"/>
</a>
</g>
</g>
<!-- Node3 -->
<g id="Node000003" class="node">
<title>Node3</title>
<g id="a_Node000003"><a xlink:href="interfacecom_1_1teragrep_1_1pth__06_1_1ast_1_1LogicalExpression.html#aeaf8fe296c6899792f345659a9a6c0c4" target="_top" xlink:title=" ">
<polygon fill="white" stroke="#666666" points="1338,-118.42 1192,-118.42 1192,-88.42 1338,-88.42 1338,-118.42"/>
<text text-anchor="start" x="1200" y="-106.42" font-family="Helvetica,sans-Serif" font-size="10.00">com.teragrep.pth_06.ast.</text>
<text text-anchor="middle" x="1265" y="-95.42" font-family="Helvetica,sans-Serif" font-size="10.00">LogicalExpression.children</text>
</a>
</g>
</g>
<!-- Node1&#45;&gt;Node3 -->
<g id="edge2_Node000001_Node000003" class="edge">
<title>Node1&#45;&gt;Node3</title>
<g id="a_edge2_Node000001_Node000003"><a xlink:title=" ">
<path fill="none" stroke="#63b8ff" d="M130.54,-344.47C156.47,-317.25 205.59,-270.15 257,-244.42 329.31,-208.22 768.59,-105.82 966,-84.42 1049.95,-75.31 1071.88,-77.07 1156,-84.42 1164.38,-85.15 1173.09,-86.19 1181.76,-87.42"/>
<polygon fill="#63b8ff" stroke="#63b8ff" points="1181.49,-90.92 1191.9,-88.94 1182.53,-84 1181.49,-90.92"/>
</a>
</g>
</g>
<!-- Node4 -->
<g id="Node000004" class="node">
<title>Node4</title>
<g id="a_Node000004"><a xlink:href="interfacecom_1_1teragrep_1_1pth__06_1_1ast_1_1Expression.html#a8b9661253a3610b9eb148ee29ca8b7e1" target="_top" xlink:title=" ">
<polygon fill="white" stroke="#666666" points="1334.5,-239.42 1195.5,-239.42 1195.5,-209.42 1334.5,-209.42 1334.5,-239.42"/>
<text text-anchor="start" x="1203.5" y="-227.42" font-family="Helvetica,sans-Serif" font-size="10.00">com.teragrep.pth_06.ast.</text>
<text text-anchor="middle" x="1265" y="-216.42" font-family="Helvetica,sans-Serif" font-size="10.00">Expression.tag</text>
</a>
</g>
</g>
<!-- Node1&#45;&gt;Node4 -->
<g id="edge3_Node000001_Node000004" class="edge">
<title>Node1&#45;&gt;Node4</title>
<g id="a_edge3_Node000001_Node000004"><a xlink:title=" ">
<path fill="none" stroke="#63b8ff" d="M221.27,-383.04C318.35,-397.09 463.97,-414.42 591.5,-414.42 591.5,-414.42 591.5,-414.42 835,-414.42 999.88,-414.42 1172.22,-295.64 1237.15,-245.91"/>
<polygon fill="#63b8ff" stroke="#63b8ff" points="1239.47,-248.53 1245.24,-239.64 1235.19,-243 1239.47,-248.53"/>
</a>
</g>
</g>
<!-- Node5 -->
<g id="Node000005" class="node">
<title>Node5</title>
<g id="a_Node000005"><a xlink:href="classcom_1_1teragrep_1_1pth__06_1_1ast_1_1transform_1_1WithDefaultValues.html#a3cd2907c54910cabd6d8cb52ff49215f" target="_top" xlink:title=" ">
<polygon fill="white" stroke="#666666" points="447,-283.42 257,-283.42 257,-253.42 447,-253.42 447,-283.42"/>
<text text-anchor="start" x="265" y="-271.42" font-family="Helvetica,sans-Serif" font-size="10.00">com.teragrep.pth_06.ast.transform.</text>
<text text-anchor="middle" x="352" y="-260.42" font-family="Helvetica,sans-Serif" font-size="10.00">WithDefaultValues.transformed</text>
</a>
</g>
</g>
<!-- Node1&#45;&gt;Node5 -->
<g id="edge4_Node000001_Node000005" class="edge">
<title>Node1&#45;&gt;Node5</title>
<g id="a_edge4_Node000001_Node000005"><a xlink:title=" ">
<path fill="none" stroke="#63b8ff" d="M162.29,-344.85C204.37,-327.8 263.68,-303.78 304.52,-287.24"/>
<polygon fill="#63b8ff" stroke="#63b8ff" points="306.01,-290.41 313.96,-283.42 303.38,-283.93 306.01,-290.41"/>
</a>
</g>
</g>
<!-- Node5&#45;&gt;Node2 -->
<g id="edge5_Node000005_Node000002" class="edge">
<title>Node5&#45;&gt;Node2</title>
<g id="a_edge5_Node000005_Node000002"><a xlink:title=" ">
<path fill="none" stroke="#63b8ff" d="M447.19,-283.36C567.26,-301.58 781.42,-331.32 966,-342.42 1040.21,-346.88 1125,-345.07 1185.11,-342.63"/>
<polygon fill="#63b8ff" stroke="#63b8ff" points="1185.44,-346.12 1195.28,-342.2 1185.15,-339.12 1185.44,-346.12"/>
</a>
</g>
</g>
<!-- Node5&#45;&gt;Node5 -->
<g id="edge27_Node000005_Node000005" class="edge">
<title>Node5&#45;&gt;Node5</title>
<g id="a_edge27_Node000005_Node000005"><a xlink:title=" ">
<path fill="none" stroke="#63b8ff" d="M309.81,-283.69C300.44,-292.82 314.5,-301.42 352,-301.42 374.27,-301.42 388.27,-298.39 394.01,-294.01"/>
<polygon fill="#63b8ff" stroke="#63b8ff" points="397.51,-293.75 394.19,-283.69 390.51,-293.63 397.51,-293.75"/>
</a>
</g>
</g>
<!-- Node6 -->
<g id="Node000006" class="node">
<title>Node6</title>
<g id="a_Node000006"><a xlink:href="interfacecom_1_1teragrep_1_1pth__06_1_1ast_1_1Expression.html#a65ee7f5fb98e4129018f467a53586842" target="_top" xlink:title=" ">
<polygon fill="white" stroke="#666666" points="1334.5,-37.42 1195.5,-37.42 1195.5,-7.42 1334.5,-7.42 1334.5,-37.42"/>
<text text-anchor="start" x="1203.5" y="-25.42" font-family="Helvetica,sans-Serif" font-size="10.00">com.teragrep.pth_06.ast.</text>
<text text-anchor="middle" x="1265" y="-14.42" font-family="Helvetica,sans-Serif" font-size="10.00">Expression.isLogical</text>
</a>
</g>
</g>
<!-- Node5&#45;&gt;Node6 -->
<g id="edge6_Node000005_Node000006" class="edge">
<title>Node5&#45;&gt;Node6</title>
<g id="a_edge6_Node000005_Node000006"><a xlink:title=" ">
<path fill="none" stroke="#63b8ff" d="M372,-253.13C425.7,-210.85 584.63,-92.05 738,-39.42 889.38,12.53 1079.87,1.35 1185.07,-10.89"/>
<polygon fill="#63b8ff" stroke="#63b8ff" points="1184.94,-14.4 1195.29,-12.12 1185.78,-7.45 1184.94,-14.4"/>
</a>
</g>
</g>
<!-- Node7 -->
<g id="Node000007" class="node">
<title>Node7</title>
<g id="a_Node000007"><a xlink:href="classcom_1_1teragrep_1_1pth__06_1_1ast_1_1transform_1_1WithDefaultValues.html#a371bd3fba44c9f320d2b39f5e60cb82c" target="_top" xlink:title=" ">
<polygon fill="white" stroke="#666666" points="702,-239.92 483,-239.92 483,-198.92 702,-198.92 702,-239.92"/>
<text text-anchor="start" x="491" y="-227.92" font-family="Helvetica,sans-Serif" font-size="10.00">com.teragrep.pth_06.ast.transform.</text>
<text text-anchor="start" x="491" y="-216.92" font-family="Helvetica,sans-Serif" font-size="10.00">WithDefaultValues.recursiveWithDefaults</text>
<text text-anchor="middle" x="592.5" y="-205.92" font-family="Helvetica,sans-Serif" font-size="10.00">Expression</text>
</a>
</g>
</g>
<!-- Node5&#45;&gt;Node7 -->
<g id="edge7_Node000005_Node000007" class="edge">
<title>Node5&#45;&gt;Node7</title>
<g id="a_edge7_Node000005_Node000007"><a xlink:title=" ">
<path fill="none" stroke="#63b8ff" d="M426.18,-253.38C443.79,-249.76 462.98,-245.82 481.84,-241.95"/>
<polygon fill="#63b8ff" stroke="#63b8ff" points="482.58,-245.37 491.67,-239.93 481.17,-238.51 482.58,-245.37"/>
</a>
</g>
</g>
<!-- Node7&#45;&gt;Node4 -->
<g id="edge26_Node000007_Node000004" class="edge">
<title>Node7&#45;&gt;Node4</title>
<g id="a_edge26_Node000007_Node000004"><a xlink:title=" ">
<path fill="none" stroke="#63b8ff" d="M702.14,-239.43C714.21,-241.06 726.34,-242.46 738,-243.42 896.42,-256.48 1082.42,-243.02 1185.37,-233.05"/>
<polygon fill="#63b8ff" stroke="#63b8ff" points="1185.76,-236.52 1195.37,-232.06 1185.08,-229.56 1185.76,-236.52"/>
</a>
</g>
</g>
<!-- Node7&#45;&gt;Node6 -->
<g id="edge18_Node000007_Node000006" class="edge">
<title>Node7&#45;&gt;Node6</title>
<g id="a_edge18_Node000007_Node000006"><a xlink:title=" ">
<path fill="none" stroke="#63b8ff" d="M623.08,-198.72C683.88,-157.54 828.74,-66.29 966,-31.42 1038.56,-12.98 1124.25,-12.51 1185.07,-15.58"/>
<polygon fill="#63b8ff" stroke="#63b8ff" points="1185.2,-19.09 1195.37,-16.15 1185.58,-12.1 1185.2,-19.09"/>
</a>
</g>
</g>
<!-- Node8 -->
<g id="Node000008" class="node">
<title>Node8</title>
<g id="a_Node000008"><a xlink:href="classcom_1_1teragrep_1_1pth__06_1_1ast_1_1transform_1_1WithDefaultValues.html#ac53e9da4d27289a430152a8b67aa7e6b" target="_top" xlink:title=" ">
<polygon fill="white" stroke="#666666" points="930,-234.42 738,-234.42 738,-204.42 930,-204.42 930,-234.42"/>
<text text-anchor="start" x="746" y="-222.42" font-family="Helvetica,sans-Serif" font-size="10.00">com.teragrep.pth_06.ast.transform.</text>
<text text-anchor="middle" x="834" y="-211.42" font-family="Helvetica,sans-Serif" font-size="10.00">WithDefaultValues.andWithDefaults</text>
</a>
</g>
</g>
<!-- Node7&#45;&gt;Node8 -->
<g id="edge8_Node000007_Node000008" class="edge">
<title>Node7&#45;&gt;Node8</title>
<g id="a_edge8_Node000007_Node000008"><a xlink:title=" ">
<path fill="none" stroke="#63b8ff" d="M702.04,-212.69C710.49,-212.65 719.01,-212.66 727.43,-212.71"/>
<polygon fill="#63b8ff" stroke="#63b8ff" points="727.63,-216.21 737.66,-212.79 727.68,-209.21 727.63,-216.21"/>
</a>
</g>
</g>
<!-- Node10 -->
<g id="Node000010" class="node">
<title>Node10</title>
<g id="a_Node000010"><a xlink:href="classcom_1_1teragrep_1_1pth__06_1_1ast_1_1transform_1_1WithDefaultValues.html#af8c587422cbf070fc6fea9aba68705d9" target="_top" xlink:title=" ">
<polygon fill="white" stroke="#666666" points="929,-186.42 739,-186.42 739,-156.42 929,-156.42 929,-186.42"/>
<text text-anchor="start" x="747" y="-174.42" font-family="Helvetica,sans-Serif" font-size="10.00">com.teragrep.pth_06.ast.transform.</text>
<text text-anchor="middle" x="834" y="-163.42" font-family="Helvetica,sans-Serif" font-size="10.00">WithDefaultValues.orWithDefaults</text>
</a>
</g>
</g>
<!-- Node7&#45;&gt;Node10 -->
<g id="edge19_Node000007_Node000010" class="edge">
<title>Node7&#45;&gt;Node10</title>
<g id="a_edge19_Node000007_Node000010"><a xlink:title=" ">
<path fill="none" stroke="#63b8ff" d="M664.71,-198.91C684.92,-194.41 707.35,-189.76 729.07,-185.55"/>
<polygon fill="#63b8ff" stroke="#63b8ff" points="729.82,-188.97 738.99,-183.65 728.51,-182.09 729.82,-188.97"/>
</a>
</g>
</g>
<!-- Node8&#45;&gt;Node2 -->
<g id="edge9_Node000008_Node000002" class="edge">
<title>Node8&#45;&gt;Node2</title>
<g id="a_edge9_Node000008_Node000002"><a xlink:title=" ">
<path fill="none" stroke="#63b8ff" d="M849.86,-234.56C872.57,-256.6 918.3,-296.79 966,-314.42 1037.02,-340.66 1123.87,-344.78 1185.44,-343.48"/>
<polygon fill="#63b8ff" stroke="#63b8ff" points="1185.58,-346.98 1195.48,-343.22 1185.39,-339.98 1185.58,-346.98"/>
</a>
</g>
</g>
<!-- Node8&#45;&gt;Node3 -->
<g id="edge10_Node000008_Node000003" class="edge">
<title>Node8&#45;&gt;Node3</title>
<g id="a_edge10_Node000008_Node000003"><a xlink:title=" ">
<path fill="none" stroke="#63b8ff" d="M930.04,-213.38C995.2,-207 1082.76,-193.97 1156,-167.42 1184.69,-157.02 1214.3,-138.85 1235.24,-124.52"/>
<polygon fill="#63b8ff" stroke="#63b8ff" points="1237.46,-127.24 1243.66,-118.65 1233.45,-121.5 1237.46,-127.24"/>
</a>
</g>
</g>
<!-- Node8&#45;&gt;Node7 -->
<g id="edge17_Node000008_Node000007" class="edge">
<title>Node8&#45;&gt;Node7</title>
<g id="a_edge17_Node000008_Node000007"><a xlink:title=" ">
<path fill="none" stroke="#63b8ff" d="M737.66,-226.04C729.24,-226.13 720.66,-226.17 712.09,-226.17"/>
<polygon fill="#63b8ff" stroke="#63b8ff" points="712.05,-222.67 702.04,-226.14 712.03,-229.67 712.05,-222.67"/>
</a>
</g>
</g>
<!-- Node9 -->
<g id="Node000009" class="node">
<title>Node9</title>
<g id="a_Node000009"><a xlink:href="classcom_1_1teragrep_1_1pth__06_1_1ast_1_1transform_1_1WithDefaultValues.html#a42a39b9992cc004453cd026fbc106b36" target="_top" xlink:title=" ">
<polygon fill="white" stroke="#666666" points="1156,-140.42 966,-140.42 966,-110.42 1156,-110.42 1156,-140.42"/>
<text text-anchor="start" x="974" y="-128.42" font-family="Helvetica,sans-Serif" font-size="10.00">com.teragrep.pth_06.ast.transform.</text>
<text text-anchor="middle" x="1061" y="-117.42" font-family="Helvetica,sans-Serif" font-size="10.00">WithDefaultValues.expressionTags</text>
</a>
</g>
</g>
<!-- Node8&#45;&gt;Node9 -->
<g id="edge11_Node000008_Node000009" class="edge">
<title>Node8&#45;&gt;Node9</title>
<g id="a_edge11_Node000008_Node000009"><a xlink:title=" ">
<path fill="none" stroke="#63b8ff" d="M903.11,-204.39C912.26,-201.74 921.44,-198.74 930,-195.42 964.84,-181.88 1002.16,-161.05 1027.84,-145.63"/>
<polygon fill="#63b8ff" stroke="#63b8ff" points="1029.68,-148.61 1036.41,-140.43 1026.05,-142.63 1029.68,-148.61"/>
</a>
</g>
</g>
<!-- Node9&#45;&gt;Node2 -->
<g id="edge12_Node000009_Node000002" class="edge">
<title>Node9&#45;&gt;Node2</title>
<g id="a_edge12_Node000009_Node000002"><a xlink:title=" ">
<path fill="none" stroke="#63b8ff" d="M1076.53,-140.74C1111.61,-177.73 1201.13,-272.12 1242.47,-315.71"/>
<polygon fill="#63b8ff" stroke="#63b8ff" points="1240.18,-318.39 1249.6,-323.24 1245.26,-313.57 1240.18,-318.39"/>
</a>
</g>
</g>
<!-- Node9&#45;&gt;Node3 -->
<g id="edge13_Node000009_Node000003" class="edge">
<title>Node9&#45;&gt;Node3</title>
<g id="a_edge13_Node000009_Node000003"><a xlink:title=" ">
<path fill="none" stroke="#63b8ff" d="M1156.2,-115.16C1164.68,-114.23 1173.23,-113.3 1181.6,-112.39"/>
<polygon fill="#63b8ff" stroke="#63b8ff" points="1182.14,-115.85 1191.7,-111.29 1181.38,-108.89 1182.14,-115.85"/>
</a>
</g>
</g>
<!-- Node9&#45;&gt;Node4 -->
<g id="edge16_Node000009_Node000004" class="edge">
<title>Node9&#45;&gt;Node4</title>
<g id="a_edge16_Node000009_Node000004"><a xlink:title=" ">
<path fill="none" stroke="#63b8ff" d="M1092.68,-140.45C1127.78,-157.66 1185.38,-185.89 1223.98,-204.8"/>
<polygon fill="#63b8ff" stroke="#63b8ff" points="1222.84,-208.14 1233.36,-209.4 1225.92,-201.86 1222.84,-208.14"/>
</a>
</g>
</g>
<!-- Node9&#45;&gt;Node6 -->
<g id="edge15_Node000009_Node000006" class="edge">
<title>Node9&#45;&gt;Node6</title>
<g id="a_edge15_Node000009_Node000006"><a xlink:title=" ">
<path fill="none" stroke="#63b8ff" d="M1091.81,-110.22C1127.26,-92.14 1186.54,-61.91 1225.46,-42.07"/>
<polygon fill="#63b8ff" stroke="#63b8ff" points="1227.08,-45.17 1234.4,-37.51 1223.9,-38.93 1227.08,-45.17"/>
</a>
</g>
</g>
<!-- Node9&#45;&gt;Node9 -->
<g id="edge14_Node000009_Node000009" class="edge">
<title>Node9&#45;&gt;Node9</title>
<g id="a_edge14_Node000009_Node000009"><a xlink:title=" ">
<path fill="none" stroke="#63b8ff" d="M1025.14,-140.69C1017.17,-149.82 1029.12,-158.42 1061,-158.42 1079.93,-158.42 1091.83,-155.39 1096.71,-151.01"/>
<polygon fill="#63b8ff" stroke="#63b8ff" points="1100.21,-150.74 1096.86,-140.69 1093.21,-150.64 1100.21,-150.74"/>
</a>
</g>
</g>
<!-- Node10&#45;&gt;Node2 -->
<g id="edge20_Node000010_Node000002" class="edge">
<title>Node10&#45;&gt;Node2</title>
<g id="a_edge20_Node000010_Node000002"><a xlink:title=" ">
<path fill="none" stroke="#63b8ff" d="M901.42,-186.44C911.1,-189.14 920.87,-192.14 930,-195.42 946.66,-201.39 949.85,-205.19 966,-212.42 1054.4,-251.96 1158.89,-295.39 1217.7,-319.53"/>
<polygon fill="#63b8ff" stroke="#63b8ff" points="1216.51,-322.83 1227.09,-323.38 1219.16,-316.35 1216.51,-322.83"/>
</a>
</g>
</g>
<!-- Node10&#45;&gt;Node3 -->
<g id="edge21_Node000010_Node000003" class="edge">
<title>Node10&#45;&gt;Node3</title>
<g id="a_edge21_Node000010_Node000003"><a xlink:title=" ">
<path fill="none" stroke="#63b8ff" d="M855.46,-156.33C880.18,-139.12 923.73,-112 966,-101.42 1037.16,-83.6 1120.92,-86.13 1181.48,-91.94"/>
<polygon fill="#63b8ff" stroke="#63b8ff" points="1181.46,-95.45 1191.76,-92.98 1182.16,-88.49 1181.46,-95.45"/>
</a>
</g>
</g>
<!-- Node10&#45;&gt;Node4 -->
<g id="edge25_Node000010_Node000004" class="edge">
<title>Node10&#45;&gt;Node4</title>
<g id="a_edge25_Node000010_Node000004"><a xlink:title=" ">
<path fill="none" stroke="#63b8ff" d="M929.15,-183.05C1005.94,-192.54 1113.17,-205.78 1185.41,-214.71"/>
<polygon fill="#63b8ff" stroke="#63b8ff" points="1185.01,-218.18 1195.37,-215.94 1185.87,-211.24 1185.01,-218.18"/>
</a>
</g>
</g>
<!-- Node10&#45;&gt;Node6 -->
<g id="edge23_Node000010_Node000006" class="edge">
<title>Node10&#45;&gt;Node6</title>
<g id="a_edge23_Node000010_Node000006"><a xlink:title=" ">
<path fill="none" stroke="#63b8ff" d="M852.8,-156.33C876.89,-136.73 921.91,-102.83 966,-84.42 1037.02,-54.75 1123.68,-38.77 1185.2,-30.51"/>
<polygon fill="#63b8ff" stroke="#63b8ff" points="1185.77,-33.97 1195.24,-29.2 1184.87,-27.02 1185.77,-33.97"/>
</a>
</g>
</g>
<!-- Node10&#45;&gt;Node7 -->
<g id="edge24_Node000010_Node000007" class="edge">
<title>Node10&#45;&gt;Node7</title>
<g id="a_edge24_Node000010_Node000007"><a xlink:title=" ">
<path fill="none" stroke="#63b8ff" d="M785.32,-186.49C764.07,-191.58 737.99,-197.22 711.99,-202.42"/>
<polygon fill="#63b8ff" stroke="#63b8ff" points="711.17,-199.01 702.04,-204.39 712.53,-205.88 711.17,-199.01"/>
</a>
</g>
</g>
<!-- Node10&#45;&gt;Node9 -->
<g id="edge22_Node000010_Node000009" class="edge">
<title>Node10&#45;&gt;Node9</title>
<g id="a_edge22_Node000010_Node000009"><a xlink:title=" ">
<path fill="none" stroke="#63b8ff" d="M908.67,-156.35C930.35,-151.92 954.21,-147.04 976.45,-142.5"/>
<polygon fill="#63b8ff" stroke="#63b8ff" points="977.45,-145.87 986.55,-140.43 976.05,-139.01 977.45,-145.87"/>
</a>
</g>
</g>
</g>
</svg>
