<?xml version="1.0" encoding="UTF-8" standalone="no"?>
<!DOCTYPE svg PUBLIC "-//W3C//DTD SVG 1.1//EN"
 "http://www.w3.org/Graphics/SVG/1.1/DTD/svg11.dtd">
<!-- Generated by graphviz version 2.43.0 (0)
 -->
<!-- Title: com.teragrep.pth_06.planner.factory.HBaseQueryFactoryTest.testHBaseEnabled Pages: 1 -->
<svg width="471pt" height="76pt"
 viewBox="0.00 0.00 471.00 75.50" xmlns="http://www.w3.org/2000/svg" xmlns:xlink="http://www.w3.org/1999/xlink">
<g id="graph0" class="graph" transform="scale(1 1) rotate(0) translate(4 71.5)">
<title>com.teragrep.pth_06.planner.factory.HBaseQueryFactoryTest.testHBaseEnabled</title>
<!-- Node1 -->
<g id="Node000001" class="node">
<title>Node1</title>
<g id="a_Node000001"><a xlink:title=" ">
<polygon fill="#999999" stroke="#666666" points="224,-51 0,-51 0,-21 224,-21 224,-51"/>
<text text-anchor="start" x="8" y="-39" font-family="Helvetica,sans-Serif" font-size="10.00">com.teragrep.pth_06.planner.factory.</text>
<text text-anchor="middle" x="112" y="-28" font-family="Helvetica,sans-Serif" font-size="10.00">HBaseQueryFactoryTest.testHBaseEnabled</text>
</a>
</g>
</g>
<!-- Node2 -->
<g id="Node000002" class="node">
<title>Node2</title>
<g id="a_Node000002"><a xlink:href="interfacecom_1_1teragrep_1_1pth__06_1_1Stubbable.html#a0901c0a7cde13ff306d455e4009f01cb" target="_top" xlink:title=" ">
<polygon fill="white" stroke="#666666" points="463,-67.5 260,-67.5 260,-48.5 463,-48.5 463,-67.5"/>
<text text-anchor="middle" x="361.5" y="-55.5" font-family="Helvetica,sans-Serif" font-size="10.00">com.teragrep.pth_06.Stubbable.isStub</text>
</a>
</g>
</g>
<!-- Node1&#45;&gt;Node2 -->
<g id="edge1_Node000001_Node000002" class="edge">
<title>Node1&#45;&gt;Node2</title>
<g id="a_edge1_Node000001_Node000002"><a xlink:title=" ">
<path fill="none" stroke="#63b8ff" d="M224.08,-45.87C232.67,-46.64 241.34,-47.41 249.93,-48.17"/>
<polygon fill="#63b8ff" stroke="#63b8ff" points="249.69,-51.66 259.96,-49.06 250.31,-44.69 249.69,-51.66"/>
</a>
</g>
</g>
<!-- Node3 -->
<g id="Node000003" class="node">
<title>Node3</title>
<g id="a_Node000003"><a xlink:href="interfacecom_1_1teragrep_1_1pth__06_1_1planner_1_1factory_1_1Factory.html#a051559ec0c4c2e5c76416f0eb8a8b8f8" target="_top" xlink:title=" ">
<polygon fill="white" stroke="#666666" points="459.5,-30 263.5,-30 263.5,0 459.5,0 459.5,-30"/>
<text text-anchor="start" x="271.5" y="-18" font-family="Helvetica,sans-Serif" font-size="10.00">com.teragrep.pth_06.planner.factory.</text>
<text text-anchor="middle" x="361.5" y="-7" font-family="Helvetica,sans-Serif" font-size="10.00">Factory.object</text>
</a>
</g>
</g>
<!-- Node1&#45;&gt;Node3 -->
<g id="edge2_Node000001_Node000003" class="edge">
<title>Node1&#45;&gt;Node3</title>
<g id="a_edge2_Node000001_Node000003"><a xlink:title=" ">
<path fill="none" stroke="#63b8ff" d="M224.08,-26.57C233.81,-25.75 243.64,-24.92 253.34,-24.09"/>
<polygon fill="#63b8ff" stroke="#63b8ff" points="253.71,-27.57 263.38,-23.24 253.12,-20.6 253.71,-27.57"/>
</a>
</g>
</g>
</g>
</svg>
