<?xml version="1.0" encoding="UTF-8" standalone="no"?>
<!DOCTYPE svg PUBLIC "-//W3C//DTD SVG 1.1//EN"
 "http://www.w3.org/Graphics/SVG/1.1/DTD/svg11.dtd">
<!-- Generated by graphviz version 2.43.0 (0)
 -->
<!-- Title: com.teragrep.pth_06.ast.transform.OptimizedAST.transformed Pages: 1 -->
<svg width="1347pt" height="427pt"
 viewBox="0.00 0.00 1347.00 427.42" xmlns="http://www.w3.org/2000/svg" xmlns:xlink="http://www.w3.org/1999/xlink">
<g id="graph0" class="graph" transform="scale(1 1) rotate(0) translate(4 423.42)">
<title>com.teragrep.pth_06.ast.transform.OptimizedAST.transformed</title>
<!-- Node1 -->
<g id="Node000001" class="node">
<title>Node1</title>
<g id="a_Node000001"><a xlink:title=" ">
<polygon fill="#999999" stroke="#666666" points="190,-223.84 0,-223.84 0,-193.84 190,-193.84 190,-223.84"/>
<text text-anchor="start" x="8" y="-211.84" font-family="Helvetica,sans-Serif" font-size="10.00">com.teragrep.pth_06.ast.transform.</text>
<text text-anchor="middle" x="95" y="-200.84" font-family="Helvetica,sans-Serif" font-size="10.00">OptimizedAST.transformed</text>
</a>
</g>
</g>
<!-- Node2 -->
<g id="Node000002" class="node">
<title>Node2</title>
<g id="a_Node000002"><a xlink:href="classcom_1_1teragrep_1_1pth__06_1_1ast_1_1transform_1_1OptimizedAST.html#ac4ebcab5c55182e969cd03150e96e374" target="_top" xlink:title=" ">
<polygon fill="white" stroke="#666666" points="416,-223.84 226,-223.84 226,-193.84 416,-193.84 416,-223.84"/>
<text text-anchor="start" x="234" y="-211.84" font-family="Helvetica,sans-Serif" font-size="10.00">com.teragrep.pth_06.ast.transform.</text>
<text text-anchor="middle" x="321" y="-200.84" font-family="Helvetica,sans-Serif" font-size="10.00">OptimizedAST.walkAndApply</text>
</a>
</g>
</g>
<!-- Node1&#45;&gt;Node2 -->
<g id="edge1_Node000001_Node000002" class="edge">
<title>Node1&#45;&gt;Node2</title>
<g id="a_edge1_Node000001_Node000002"><a xlink:title=" ">
<path fill="none" stroke="#63b8ff" d="M190.02,-208.84C198.54,-208.84 207.2,-208.84 215.8,-208.84"/>
<polygon fill="#63b8ff" stroke="#63b8ff" points="215.86,-212.34 225.86,-208.84 215.86,-205.34 215.86,-212.34"/>
</a>
</g>
</g>
<!-- Node2&#45;&gt;Node2 -->
<g id="edge39_Node000002_Node000002" class="edge">
<title>Node2&#45;&gt;Node2</title>
<g id="a_edge39_Node000002_Node000002"><a xlink:title=" ">
<path fill="none" stroke="#63b8ff" d="M281.27,-224.11C272.45,-233.24 285.69,-241.84 321,-241.84 341.97,-241.84 355.15,-238.81 360.56,-234.43"/>
<polygon fill="#63b8ff" stroke="#63b8ff" points="364.06,-234.17 360.73,-224.11 357.06,-234.05 364.06,-234.17"/>
</a>
</g>
</g>
<!-- Node3 -->
<g id="Node000003" class="node">
<title>Node3</title>
<g id="a_Node000003"><a xlink:href="interfacecom_1_1teragrep_1_1pth__06_1_1ast_1_1Expression.html#a17e7d33905be57c6e22e1717da6ddef6" target="_top" xlink:title=" ">
<polygon fill="white" stroke="#666666" points="1335.5,-271.84 1196.5,-271.84 1196.5,-241.84 1335.5,-241.84 1335.5,-271.84"/>
<text text-anchor="start" x="1204.5" y="-259.84" font-family="Helvetica,sans-Serif" font-size="10.00">com.teragrep.pth_06.ast.</text>
<text text-anchor="middle" x="1266" y="-248.84" font-family="Helvetica,sans-Serif" font-size="10.00">Expression.asLogical</text>
</a>
</g>
</g>
<!-- Node2&#45;&gt;Node3 -->
<g id="edge2_Node000002_Node000003" class="edge">
<title>Node2&#45;&gt;Node3</title>
<g id="a_edge2_Node000002_Node000003"><a xlink:title=" ">
<path fill="none" stroke="#63b8ff" d="M357.4,-223.88C425.92,-252.38 581.98,-314.28 719,-346.84 817.58,-370.26 843.89,-370.16 945,-376.84 1039.02,-383.05 1079.56,-430.51 1157,-376.84 1194.45,-350.88 1160.19,-312.46 1193,-280.84 1194.13,-279.75 1195.3,-278.71 1196.52,-277.72"/>
<polygon fill="#63b8ff" stroke="#63b8ff" points="1198.85,-280.38 1205.13,-271.85 1194.9,-274.6 1198.85,-280.38"/>
</a>
</g>
</g>
<!-- Node4 -->
<g id="Node000004" class="node">
<title>Node4</title>
<g id="a_Node000004"><a xlink:href="interfacecom_1_1teragrep_1_1pth__06_1_1ast_1_1LogicalExpression.html#aeaf8fe296c6899792f345659a9a6c0c4" target="_top" xlink:title=" ">
<polygon fill="white" stroke="#666666" points="1339,-223.84 1193,-223.84 1193,-193.84 1339,-193.84 1339,-223.84"/>
<text text-anchor="start" x="1201" y="-211.84" font-family="Helvetica,sans-Serif" font-size="10.00">com.teragrep.pth_06.ast.</text>
<text text-anchor="middle" x="1266" y="-200.84" font-family="Helvetica,sans-Serif" font-size="10.00">LogicalExpression.children</text>
</a>
</g>
</g>
<!-- Node2&#45;&gt;Node4 -->
<g id="edge3_Node000002_Node000004" class="edge">
<title>Node2&#45;&gt;Node4</title>
<g id="a_edge3_Node000002_Node000004"><a xlink:title=" ">
<path fill="none" stroke="#63b8ff" d="M346.35,-193.65C452.57,-129.52 882.26,107.71 1157,-70.84 1190.03,-92.3 1168.86,-120.71 1193,-151.84 1203.66,-165.58 1218.31,-177.96 1231.62,-187.65"/>
<polygon fill="#63b8ff" stroke="#63b8ff" points="1229.91,-190.73 1240.11,-193.61 1233.93,-185 1229.91,-190.73"/>
</a>
</g>
</g>
<!-- Node5 -->
<g id="Node000005" class="node">
<title>Node5</title>
<g id="a_Node000005"><a xlink:href="interfacecom_1_1teragrep_1_1pth__06_1_1ast_1_1Expression.html#a65ee7f5fb98e4129018f467a53586842" target="_top" xlink:title=" ">
<polygon fill="white" stroke="#666666" points="1335.5,-142.84 1196.5,-142.84 1196.5,-112.84 1335.5,-112.84 1335.5,-142.84"/>
<text text-anchor="start" x="1204.5" y="-130.84" font-family="Helvetica,sans-Serif" font-size="10.00">com.teragrep.pth_06.ast.</text>
<text text-anchor="middle" x="1266" y="-119.84" font-family="Helvetica,sans-Serif" font-size="10.00">Expression.isLogical</text>
</a>
</g>
</g>
<!-- Node2&#45;&gt;Node5 -->
<g id="edge4_Node000002_Node000005" class="edge">
<title>Node2&#45;&gt;Node5</title>
<g id="a_edge4_Node000002_Node000005"><a xlink:title=" ">
<path fill="none" stroke="#63b8ff" d="M328.8,-193.58C344.79,-159.65 388.31,-78.04 452,-40.84 555.56,19.65 599.39,-10.53 719,-1.84 760.73,1.19 1152.04,-0.55 1157,-2.84 1202.14,-23.6 1235.65,-73.51 1252.59,-103.61"/>
<polygon fill="#63b8ff" stroke="#63b8ff" points="1249.65,-105.51 1257.5,-112.62 1255.79,-102.16 1249.65,-105.51"/>
</a>
</g>
</g>
<!-- Node6 -->
<g id="Node000006" class="node">
<title>Node6</title>
<g id="a_Node000006"><a xlink:href="interfacecom_1_1teragrep_1_1pth__06_1_1ast_1_1Expression.html#a8b9661253a3610b9eb148ee29ca8b7e1" target="_top" xlink:title=" ">
<polygon fill="white" stroke="#666666" points="1335.5,-319.84 1196.5,-319.84 1196.5,-289.84 1335.5,-289.84 1335.5,-319.84"/>
<text text-anchor="start" x="1204.5" y="-307.84" font-family="Helvetica,sans-Serif" font-size="10.00">com.teragrep.pth_06.ast.</text>
<text text-anchor="middle" x="1266" y="-296.84" font-family="Helvetica,sans-Serif" font-size="10.00">Expression.tag</text>
</a>
</g>
</g>
<!-- Node2&#45;&gt;Node6 -->
<g id="edge5_Node000002_Node000006" class="edge">
<title>Node2&#45;&gt;Node6</title>
<g id="a_edge5_Node000002_Node000006"><a xlink:title=" ">
<path fill="none" stroke="#63b8ff" d="M336.43,-224.15C358.91,-247.05 404.63,-289.97 452,-312.84 652.59,-409.65 722.72,-388.63 945,-402.84 1039.03,-408.84 1069.1,-436.77 1157,-402.84 1195.66,-387.91 1229.04,-352 1248.08,-328.05"/>
<polygon fill="#63b8ff" stroke="#63b8ff" points="1250.86,-330.18 1254.21,-320.13 1245.32,-325.9 1250.86,-330.18"/>
</a>
</g>
</g>
<!-- Node7 -->
<g id="Node000007" class="node">
<title>Node7</title>
<g id="a_Node000007"><a xlink:href="classcom_1_1teragrep_1_1pth__06_1_1ast_1_1transform_1_1OptimizedAST.html#a77542c0b232d1e10e50a9846e1845b10" target="_top" xlink:title=" ">
<polygon fill="white" stroke="#666666" points="683,-223.84 452,-223.84 452,-193.84 683,-193.84 683,-223.84"/>
<text text-anchor="start" x="460" y="-211.84" font-family="Helvetica,sans-Serif" font-size="10.00">com.teragrep.pth_06.ast.transform.</text>
<text text-anchor="middle" x="567.5" y="-200.84" font-family="Helvetica,sans-Serif" font-size="10.00">OptimizedAST.transformedSingleExpression</text>
</a>
</g>
</g>
<!-- Node2&#45;&gt;Node7 -->
<g id="edge6_Node000002_Node000007" class="edge">
<title>Node2&#45;&gt;Node7</title>
<g id="a_edge6_Node000002_Node000007"><a xlink:title=" ">
<path fill="none" stroke="#63b8ff" d="M416.18,-208.84C424.59,-208.84 433.19,-208.84 441.81,-208.84"/>
<polygon fill="#63b8ff" stroke="#63b8ff" points="441.92,-212.34 451.92,-208.84 441.92,-205.34 441.92,-212.34"/>
</a>
</g>
</g>
<!-- Node8 -->
<g id="Node000008" class="node">
<title>Node8</title>
<g id="a_Node000008"><a xlink:href="classcom_1_1teragrep_1_1pth__06_1_1ast_1_1transform_1_1EmptyPruned.html#a8cfebc9854b0ad9a7cbe81918392e036" target="_top" xlink:title=" ">
<polygon fill="white" stroke="#666666" points="1146,-175.84 956,-175.84 956,-145.84 1146,-145.84 1146,-175.84"/>
<text text-anchor="start" x="964" y="-163.84" font-family="Helvetica,sans-Serif" font-size="10.00">com.teragrep.pth_06.ast.transform.</text>
<text text-anchor="middle" x="1051" y="-152.84" font-family="Helvetica,sans-Serif" font-size="10.00">EmptyPruned.transformed</text>
</a>
</g>
</g>
<!-- Node7&#45;&gt;Node8 -->
<g id="edge7_Node000007_Node000008" class="edge">
<title>Node7&#45;&gt;Node8</title>
<g id="a_edge7_Node000007_Node000008"><a xlink:title=" ">
<path fill="none" stroke="#63b8ff" d="M683.22,-197.4C762.95,-189.45 868.36,-178.94 945.71,-171.23"/>
<polygon fill="#63b8ff" stroke="#63b8ff" points="946.35,-174.69 955.95,-170.21 945.66,-167.72 946.35,-174.69"/>
</a>
</g>
</g>
<!-- Node9 -->
<g id="Node000009" class="node">
<title>Node9</title>
<g id="a_Node000009"><a xlink:href="classcom_1_1teragrep_1_1pth__06_1_1ast_1_1transform_1_1FlattenLogical.html#a2e1717ad6884eea7a2415aa7763eaed5" target="_top" xlink:title=" ">
<polygon fill="white" stroke="#666666" points="909,-319.84 719,-319.84 719,-289.84 909,-289.84 909,-319.84"/>
<text text-anchor="start" x="727" y="-307.84" font-family="Helvetica,sans-Serif" font-size="10.00">com.teragrep.pth_06.ast.transform.</text>
<text text-anchor="middle" x="814" y="-296.84" font-family="Helvetica,sans-Serif" font-size="10.00">FlattenLogical.transformed</text>
</a>
</g>
</g>
<!-- Node7&#45;&gt;Node9 -->
<g id="edge12_Node000007_Node000009" class="edge">
<title>Node7&#45;&gt;Node9</title>
<g id="a_edge12_Node000007_Node000009"><a xlink:title=" ">
<path fill="none" stroke="#63b8ff" d="M606.7,-223.84C649.46,-240.62 718.8,-267.85 765.14,-286.05"/>
<polygon fill="#63b8ff" stroke="#63b8ff" points="764.08,-289.39 774.66,-289.78 766.63,-282.87 764.08,-289.39"/>
</a>
</g>
</g>
<!-- Node12 -->
<g id="Node000012" class="node">
<title>Node12</title>
<g id="a_Node000012"><a xlink:href="classcom_1_1teragrep_1_1pth__06_1_1ast_1_1transform_1_1IdentitySimplification.html#a2e7ebae3195ee7794364c646e783c6d3" target="_top" xlink:title=" ">
<polygon fill="white" stroke="#666666" points="1146,-109.84 956,-109.84 956,-79.84 1146,-79.84 1146,-109.84"/>
<text text-anchor="start" x="964" y="-97.84" font-family="Helvetica,sans-Serif" font-size="10.00">com.teragrep.pth_06.ast.transform.</text>
<text text-anchor="middle" x="1051" y="-86.84" font-family="Helvetica,sans-Serif" font-size="10.00">IdentitySimplification.transformed</text>
</a>
</g>
</g>
<!-- Node7&#45;&gt;Node12 -->
<g id="edge24_Node000007_Node000012" class="edge">
<title>Node7&#45;&gt;Node12</title>
<g id="a_edge24_Node000007_Node000012"><a xlink:title=" ">
<path fill="none" stroke="#63b8ff" d="M626.68,-193.84C654.57,-186.72 688.48,-178.19 719,-170.84 805.69,-149.94 905.47,-127.21 972.62,-112.11"/>
<polygon fill="#63b8ff" stroke="#63b8ff" points="973.71,-115.45 982.7,-109.84 972.18,-108.62 973.71,-115.45"/>
</a>
</g>
</g>
<!-- Node13 -->
<g id="Node000013" class="node">
<title>Node13</title>
<g id="a_Node000013"><a xlink:href="classcom_1_1teragrep_1_1pth__06_1_1ast_1_1transform_1_1PrunedInvalidTimeQualifier.html#a390e2447fa0ee0e2964ba44d68710b37" target="_top" xlink:title=" ">
<polygon fill="white" stroke="#666666" points="1157,-271.84 945,-271.84 945,-241.84 1157,-241.84 1157,-271.84"/>
<text text-anchor="start" x="953" y="-259.84" font-family="Helvetica,sans-Serif" font-size="10.00">com.teragrep.pth_06.ast.transform.</text>
<text text-anchor="middle" x="1051" y="-248.84" font-family="Helvetica,sans-Serif" font-size="10.00">PrunedInvalidTimeQualifier.transformed</text>
</a>
</g>
</g>
<!-- Node7&#45;&gt;Node13 -->
<g id="edge29_Node000007_Node000013" class="edge">
<title>Node7&#45;&gt;Node13</title>
<g id="a_edge29_Node000007_Node000013"><a xlink:title=" ">
<path fill="none" stroke="#63b8ff" d="M683.22,-220.27C759.22,-227.85 858.56,-237.75 934.68,-245.34"/>
<polygon fill="#63b8ff" stroke="#63b8ff" points="934.5,-248.84 944.79,-246.35 935.19,-241.87 934.5,-248.84"/>
</a>
</g>
</g>
<!-- Node14 -->
<g id="Node000014" class="node">
<title>Node14</title>
<g id="a_Node000014"><a xlink:href="classcom_1_1teragrep_1_1pth__06_1_1ast_1_1transform_1_1UniqueChildren.html#a39304f06c8b7ac1e1a23463fe502028e" target="_top" xlink:title=" ">
<polygon fill="white" stroke="#666666" points="1146,-223.84 956,-223.84 956,-193.84 1146,-193.84 1146,-223.84"/>
<text text-anchor="start" x="964" y="-211.84" font-family="Helvetica,sans-Serif" font-size="10.00">com.teragrep.pth_06.ast.transform.</text>
<text text-anchor="middle" x="1051" y="-200.84" font-family="Helvetica,sans-Serif" font-size="10.00">UniqueChildren.transformed</text>
</a>
</g>
</g>
<!-- Node7&#45;&gt;Node14 -->
<g id="edge34_Node000007_Node000014" class="edge">
<title>Node7&#45;&gt;Node14</title>
<g id="a_edge34_Node000007_Node000014"><a xlink:title=" ">
<path fill="none" stroke="#63b8ff" d="M683.22,-208.84C762.95,-208.84 868.36,-208.84 945.71,-208.84"/>
<polygon fill="#63b8ff" stroke="#63b8ff" points="945.95,-212.34 955.95,-208.84 945.95,-205.34 945.95,-212.34"/>
</a>
</g>
</g>
<!-- Node8&#45;&gt;Node3 -->
<g id="edge8_Node000008_Node000003" class="edge">
<title>Node8&#45;&gt;Node3</title>
<g id="a_edge8_Node000008_Node000003"><a xlink:title=" ">
<path fill="none" stroke="#63b8ff" d="M1139.91,-175.87C1145.9,-178.41 1151.67,-181.37 1157,-184.84 1179.36,-199.36 1171.37,-217.24 1193,-232.84 1195.06,-234.32 1197.21,-235.72 1199.44,-237.03"/>
<polygon fill="#63b8ff" stroke="#63b8ff" points="1197.85,-240.14 1208.33,-241.69 1201.1,-233.95 1197.85,-240.14"/>
</a>
</g>
</g>
<!-- Node8&#45;&gt;Node4 -->
<g id="edge9_Node000008_Node000004" class="edge">
<title>Node8&#45;&gt;Node4</title>
<g id="a_edge9_Node000008_Node000004"><a xlink:title=" ">
<path fill="none" stroke="#63b8ff" d="M1118.81,-175.89C1140.92,-180.87 1165.68,-186.46 1188.46,-191.59"/>
<polygon fill="#63b8ff" stroke="#63b8ff" points="1187.9,-195.05 1198.43,-193.83 1189.44,-188.22 1187.9,-195.05"/>
</a>
</g>
</g>
<!-- Node8&#45;&gt;Node5 -->
<g id="edge10_Node000008_Node000005" class="edge">
<title>Node8&#45;&gt;Node5</title>
<g id="a_edge10_Node000008_Node000005"><a xlink:title=" ">
<path fill="none" stroke="#63b8ff" d="M1146.04,-146.27C1159.54,-144.17 1173.31,-142.04 1186.47,-140"/>
<polygon fill="#63b8ff" stroke="#63b8ff" points="1187.05,-143.46 1196.4,-138.47 1185.98,-136.54 1187.05,-143.46"/>
</a>
</g>
</g>
<!-- Node8&#45;&gt;Node6 -->
<g id="edge11_Node000008_Node000006" class="edge">
<title>Node8&#45;&gt;Node6</title>
<g id="a_edge11_Node000008_Node000006"><a xlink:title=" ">
<path fill="none" stroke="#63b8ff" d="M1144.13,-175.84C1148.72,-178.41 1153.06,-181.39 1157,-184.84 1191.31,-214.83 1160.19,-249.22 1193,-280.84 1194.13,-281.92 1195.3,-282.96 1196.52,-283.95"/>
<polygon fill="#63b8ff" stroke="#63b8ff" points="1194.9,-287.08 1205.13,-289.82 1198.85,-281.3 1194.9,-287.08"/>
</a>
</g>
</g>
<!-- Node9&#45;&gt;Node5 -->
<g id="edge21_Node000009_Node000005" class="edge">
<title>Node9&#45;&gt;Node5</title>
<g id="a_edge21_Node000009_Node000005"><a xlink:title=" ">
<path fill="none" stroke="#63b8ff" d="M817.94,-289.68C827.29,-246.08 860.89,-120.33 945,-70.84 1026.21,-23.05 1065.54,-48.18 1157,-70.84 1185.45,-77.88 1214.67,-93.94 1235.53,-107.23"/>
<polygon fill="#63b8ff" stroke="#63b8ff" points="1233.65,-110.17 1243.93,-112.71 1237.47,-104.31 1233.65,-110.17"/>
</a>
</g>
</g>
<!-- Node9&#45;&gt;Node6 -->
<g id="edge22_Node000009_Node000006" class="edge">
<title>Node9&#45;&gt;Node6</title>
<g id="a_edge22_Node000009_Node000006"><a xlink:title=" ">
<path fill="none" stroke="#63b8ff" d="M834.78,-320.04C859.14,-337.71 902.54,-365.86 945,-376.84 1036.23,-400.41 1066.82,-404.14 1157,-376.84 1189.37,-367.04 1220.9,-343.98 1241.46,-326.58"/>
<polygon fill="#63b8ff" stroke="#63b8ff" points="1243.78,-329.2 1249.04,-320 1239.19,-323.91 1243.78,-329.2"/>
</a>
</g>
</g>
<!-- Node9&#45;&gt;Node9 -->
<g id="edge23_Node000009_Node000009" class="edge">
<title>Node9&#45;&gt;Node9</title>
<g id="a_edge23_Node000009_Node000009"><a xlink:title=" ">
<path fill="none" stroke="#63b8ff" d="M772.52,-320.11C763.3,-329.24 777.12,-337.84 814,-337.84 835.89,-337.84 849.66,-334.81 855.31,-330.43"/>
<polygon fill="#63b8ff" stroke="#63b8ff" points="858.81,-330.17 855.48,-320.11 851.81,-330.05 858.81,-330.17"/>
</a>
</g>
</g>
<!-- Node10 -->
<g id="Node000010" class="node">
<title>Node10</title>
<g id="a_Node000010"><a xlink:href="classcom_1_1teragrep_1_1pth__06_1_1ast_1_1transform_1_1FlattenLogical.html#a3b9085857dc57e88c58a6fa5a057f103" target="_top" xlink:title=" ">
<polygon fill="white" stroke="#666666" points="1146.5,-319.84 955.5,-319.84 955.5,-289.84 1146.5,-289.84 1146.5,-319.84"/>
<text text-anchor="start" x="963.5" y="-307.84" font-family="Helvetica,sans-Serif" font-size="10.00">com.teragrep.pth_06.ast.transform.</text>
<text text-anchor="middle" x="1051" y="-296.84" font-family="Helvetica,sans-Serif" font-size="10.00">FlattenLogical.flattenedAndChildren</text>
</a>
</g>
</g>
<!-- Node9&#45;&gt;Node10 -->
<g id="edge13_Node000009_Node000010" class="edge">
<title>Node9&#45;&gt;Node10</title>
<g id="a_edge13_Node000009_Node000010"><a xlink:title=" ">
<path fill="none" stroke="#63b8ff" d="M909.23,-304.84C921.1,-304.84 933.3,-304.84 945.32,-304.84"/>
<polygon fill="#63b8ff" stroke="#63b8ff" points="945.37,-308.34 955.37,-304.84 945.37,-301.34 945.37,-308.34"/>
</a>
</g>
</g>
<!-- Node11 -->
<g id="Node000011" class="node">
<title>Node11</title>
<g id="a_Node000011"><a xlink:href="classcom_1_1teragrep_1_1pth__06_1_1ast_1_1transform_1_1FlattenLogical.html#ae0b8acc47ab74872494d07da365e303b" target="_top" xlink:title=" ">
<polygon fill="white" stroke="#666666" points="1146,-367.84 956,-367.84 956,-337.84 1146,-337.84 1146,-367.84"/>
<text text-anchor="start" x="964" y="-355.84" font-family="Helvetica,sans-Serif" font-size="10.00">com.teragrep.pth_06.ast.transform.</text>
<text text-anchor="middle" x="1051" y="-344.84" font-family="Helvetica,sans-Serif" font-size="10.00">FlattenLogical.flattenedOrChildren</text>
</a>
</g>
</g>
<!-- Node9&#45;&gt;Node11 -->
<g id="edge17_Node000009_Node000011" class="edge">
<title>Node9&#45;&gt;Node11</title>
<g id="a_edge17_Node000009_Node000011"><a xlink:title=" ">
<path fill="none" stroke="#63b8ff" d="M888.71,-319.89C913.43,-324.94 941.16,-330.61 966.57,-335.8"/>
<polygon fill="#63b8ff" stroke="#63b8ff" points="966.05,-339.26 976.55,-337.83 967.45,-332.4 966.05,-339.26"/>
</a>
</g>
</g>
<!-- Node10&#45;&gt;Node3 -->
<g id="edge14_Node000010_Node000003" class="edge">
<title>Node10&#45;&gt;Node3</title>
<g id="a_edge14_Node000010_Node000003"><a xlink:title=" ">
<path fill="none" stroke="#63b8ff" d="M1118.81,-289.78C1140.92,-284.8 1165.68,-279.22 1188.46,-274.08"/>
<polygon fill="#63b8ff" stroke="#63b8ff" points="1189.44,-277.45 1198.43,-271.84 1187.9,-270.62 1189.44,-277.45"/>
</a>
</g>
</g>
<!-- Node10&#45;&gt;Node4 -->
<g id="edge15_Node000010_Node000004" class="edge">
<title>Node10&#45;&gt;Node4</title>
<g id="a_edge15_Node000010_Node000004"><a xlink:title=" ">
<path fill="none" stroke="#63b8ff" d="M1139.91,-289.81C1145.9,-287.27 1151.67,-284.3 1157,-280.84 1179.36,-266.31 1171.37,-248.43 1193,-232.84 1195.06,-231.35 1197.21,-229.96 1199.44,-228.64"/>
<polygon fill="#63b8ff" stroke="#63b8ff" points="1201.1,-231.73 1208.33,-223.98 1197.85,-225.53 1201.1,-231.73"/>
</a>
</g>
</g>
<!-- Node10&#45;&gt;Node6 -->
<g id="edge16_Node000010_Node000006" class="edge">
<title>Node10&#45;&gt;Node6</title>
<g id="a_edge16_Node000010_Node000006"><a xlink:title=" ">
<path fill="none" stroke="#63b8ff" d="M1146.67,-304.84C1159.9,-304.84 1173.39,-304.84 1186.29,-304.84"/>
<polygon fill="#63b8ff" stroke="#63b8ff" points="1186.49,-308.34 1196.49,-304.84 1186.49,-301.34 1186.49,-308.34"/>
</a>
</g>
</g>
<!-- Node11&#45;&gt;Node3 -->
<g id="edge18_Node000011_Node000003" class="edge">
<title>Node11&#45;&gt;Node3</title>
<g id="a_edge18_Node000011_Node000003"><a xlink:title=" ">
<path fill="none" stroke="#63b8ff" d="M1139.91,-337.81C1145.9,-335.27 1151.67,-332.3 1157,-328.84 1179.36,-314.31 1171.37,-296.43 1193,-280.84 1195.06,-279.35 1197.21,-277.96 1199.44,-276.64"/>
<polygon fill="#63b8ff" stroke="#63b8ff" points="1201.1,-279.73 1208.33,-271.98 1197.85,-273.53 1201.1,-279.73"/>
</a>
</g>
</g>
<!-- Node11&#45;&gt;Node4 -->
<g id="edge19_Node000011_Node000004" class="edge">
<title>Node11&#45;&gt;Node4</title>
<g id="a_edge19_Node000011_Node000004"><a xlink:title=" ">
<path fill="none" stroke="#63b8ff" d="M1144.13,-337.84C1148.72,-335.26 1153.06,-332.28 1157,-328.84 1191.31,-298.85 1160.19,-264.46 1193,-232.84 1194.13,-231.75 1195.3,-230.71 1196.52,-229.72"/>
<polygon fill="#63b8ff" stroke="#63b8ff" points="1198.85,-232.38 1205.13,-223.85 1194.9,-226.6 1198.85,-232.38"/>
</a>
</g>
</g>
<!-- Node11&#45;&gt;Node6 -->
<g id="edge20_Node000011_Node000006" class="edge">
<title>Node11&#45;&gt;Node6</title>
<g id="a_edge20_Node000011_Node000006"><a xlink:title=" ">
<path fill="none" stroke="#63b8ff" d="M1118.81,-337.78C1140.92,-332.8 1165.68,-327.22 1188.46,-322.08"/>
<polygon fill="#63b8ff" stroke="#63b8ff" points="1189.44,-325.45 1198.43,-319.84 1187.9,-318.62 1189.44,-325.45"/>
</a>
</g>
</g>
<!-- Node12&#45;&gt;Node3 -->
<g id="edge25_Node000012_Node000003" class="edge">
<title>Node12&#45;&gt;Node3</title>
<g id="a_edge25_Node000012_Node000003"><a xlink:title=" ">
<path fill="none" stroke="#63b8ff" d="M1114.06,-109.94C1129.65,-116.17 1145.26,-124.84 1157,-136.84 1188.87,-169.41 1160.19,-201.22 1193,-232.84 1194.13,-233.92 1195.3,-234.96 1196.52,-235.95"/>
<polygon fill="#63b8ff" stroke="#63b8ff" points="1194.9,-239.08 1205.13,-241.82 1198.85,-233.3 1194.9,-239.08"/>
</a>
</g>
</g>
<!-- Node12&#45;&gt;Node4 -->
<g id="edge26_Node000012_Node000004" class="edge">
<title>Node12&#45;&gt;Node4</title>
<g id="a_edge26_Node000012_Node000004"><a xlink:title=" ">
<path fill="none" stroke="#63b8ff" d="M1095.31,-109.84C1114.61,-117.11 1137.37,-126.51 1157,-136.84 1185.4,-151.77 1215.61,-172.37 1236.84,-187.71"/>
<polygon fill="#63b8ff" stroke="#63b8ff" points="1234.94,-190.65 1245.08,-193.72 1239.06,-184.99 1234.94,-190.65"/>
</a>
</g>
</g>
<!-- Node12&#45;&gt;Node5 -->
<g id="edge27_Node000012_Node000005" class="edge">
<title>Node12&#45;&gt;Node5</title>
<g id="a_edge27_Node000012_Node000005"><a xlink:title=" ">
<path fill="none" stroke="#63b8ff" d="M1146.04,-109.41C1159.54,-111.5 1173.31,-113.63 1186.47,-115.67"/>
<polygon fill="#63b8ff" stroke="#63b8ff" points="1185.98,-119.14 1196.4,-117.21 1187.05,-112.22 1185.98,-119.14"/>
</a>
</g>
</g>
<!-- Node12&#45;&gt;Node12 -->
<g id="edge28_Node000012_Node000012" class="edge">
<title>Node12&#45;&gt;Node12</title>
<g id="a_edge28_Node000012_Node000012"><a xlink:title=" ">
<path fill="none" stroke="#63b8ff" d="M1013.38,-110.11C1005.02,-119.24 1017.56,-127.84 1051,-127.84 1070.85,-127.84 1083.34,-124.81 1088.46,-120.43"/>
<polygon fill="#63b8ff" stroke="#63b8ff" points="1091.96,-120.16 1088.62,-110.11 1084.96,-120.06 1091.96,-120.16"/>
</a>
</g>
</g>
<!-- Node13&#45;&gt;Node3 -->
<g id="edge30_Node000013_Node000003" class="edge">
<title>Node13&#45;&gt;Node3</title>
<g id="a_edge30_Node000013_Node000003"><a xlink:title=" ">
<path fill="none" stroke="#63b8ff" d="M1157.25,-256.84C1167.03,-256.84 1176.82,-256.84 1186.29,-256.84"/>
<polygon fill="#63b8ff" stroke="#63b8ff" points="1186.43,-260.34 1196.43,-256.84 1186.43,-253.34 1186.43,-260.34"/>
</a>
</g>
</g>
<!-- Node13&#45;&gt;Node4 -->
<g id="edge31_Node000013_Node000004" class="edge">
<title>Node13&#45;&gt;Node4</title>
<g id="a_edge31_Node000013_Node000004"><a xlink:title=" ">
<path fill="none" stroke="#63b8ff" d="M1118.81,-241.78C1140.92,-236.8 1165.68,-231.22 1188.46,-226.08"/>
<polygon fill="#63b8ff" stroke="#63b8ff" points="1189.44,-229.45 1198.43,-223.84 1187.9,-222.62 1189.44,-229.45"/>
</a>
</g>
</g>
<!-- Node13&#45;&gt;Node5 -->
<g id="edge32_Node000013_Node000005" class="edge">
<title>Node13&#45;&gt;Node5</title>
<g id="a_edge32_Node000013_Node000005"><a xlink:title=" ">
<path fill="none" stroke="#63b8ff" d="M1139.91,-241.81C1145.9,-239.27 1151.67,-236.3 1157,-232.84 1179.36,-218.31 1174.39,-203.94 1193,-184.84 1205.71,-171.79 1221.42,-159.03 1234.92,-148.9"/>
<polygon fill="#63b8ff" stroke="#63b8ff" points="1237.02,-151.71 1243,-142.96 1232.87,-146.07 1237.02,-151.71"/>
</a>
</g>
</g>
<!-- Node13&#45;&gt;Node6 -->
<g id="edge33_Node000013_Node000006" class="edge">
<title>Node13&#45;&gt;Node6</title>
<g id="a_edge33_Node000013_Node000006"><a xlink:title=" ">
<path fill="none" stroke="#63b8ff" d="M1118.81,-271.89C1140.92,-276.87 1165.68,-282.46 1188.46,-287.59"/>
<polygon fill="#63b8ff" stroke="#63b8ff" points="1187.9,-291.05 1198.43,-289.83 1189.44,-284.22 1187.9,-291.05"/>
</a>
</g>
</g>
<!-- Node14&#45;&gt;Node3 -->
<g id="edge35_Node000014_Node000003" class="edge">
<title>Node14&#45;&gt;Node3</title>
<g id="a_edge35_Node000014_Node000003"><a xlink:title=" ">
<path fill="none" stroke="#63b8ff" d="M1118.81,-223.89C1140.92,-228.87 1165.68,-234.46 1188.46,-239.59"/>
<polygon fill="#63b8ff" stroke="#63b8ff" points="1187.9,-243.05 1198.43,-241.83 1189.44,-236.22 1187.9,-243.05"/>
</a>
</g>
</g>
<!-- Node14&#45;&gt;Node4 -->
<g id="edge36_Node000014_Node000004" class="edge">
<title>Node14&#45;&gt;Node4</title>
<g id="a_edge36_Node000014_Node000004"><a xlink:title=" ">
<path fill="none" stroke="#63b8ff" d="M1146.04,-208.84C1158.32,-208.84 1170.82,-208.84 1182.88,-208.84"/>
<polygon fill="#63b8ff" stroke="#63b8ff" points="1182.89,-212.34 1192.89,-208.84 1182.89,-205.34 1182.89,-212.34"/>
</a>
</g>
</g>
<!-- Node14&#45;&gt;Node5 -->
<g id="edge37_Node000014_Node000005" class="edge">
<title>Node14&#45;&gt;Node5</title>
<g id="a_edge37_Node000014_Node000005"><a xlink:title=" ">
<path fill="none" stroke="#63b8ff" d="M1128.68,-193.77C1138.33,-191.16 1147.97,-188.19 1157,-184.84 1183.32,-175.07 1211.3,-160.16 1232.19,-148.04"/>
<polygon fill="#63b8ff" stroke="#63b8ff" points="1234.13,-150.96 1240.97,-142.87 1230.58,-144.93 1234.13,-150.96"/>
</a>
</g>
</g>
<!-- Node14&#45;&gt;Node6 -->
<g id="edge38_Node000014_Node000006" class="edge">
<title>Node14&#45;&gt;Node6</title>
<g id="a_edge38_Node000014_Node000006"><a xlink:title=" ">
<path fill="none" stroke="#63b8ff" d="M1139.91,-223.87C1145.9,-226.41 1151.67,-229.37 1157,-232.84 1179.36,-247.36 1171.37,-265.24 1193,-280.84 1195.06,-282.32 1197.21,-283.72 1199.44,-285.03"/>
<polygon fill="#63b8ff" stroke="#63b8ff" points="1197.85,-288.14 1208.33,-289.69 1201.1,-281.95 1197.85,-288.14"/>
</a>
</g>
</g>
</g>
</svg>
