<?xml version="1.0" encoding="UTF-8" standalone="no"?>
<!DOCTYPE svg PUBLIC "-//W3C//DTD SVG 1.1//EN"
 "http://www.w3.org/Graphics/SVG/1.1/DTD/svg11.dtd">
<!-- Generated by graphviz version 2.43.0 (0)
 -->
<!-- Title: com.teragrep.pth_06.ast.transform.OptimizedAST.transformedSingleExpression Pages: 1 -->
<svg width="895pt" height="364pt"
 viewBox="0.00 0.00 895.00 363.75" xmlns="http://www.w3.org/2000/svg" xmlns:xlink="http://www.w3.org/1999/xlink">
<g id="graph0" class="graph" transform="scale(1 1) rotate(0) translate(4 359.75)">
<title>com.teragrep.pth_06.ast.transform.OptimizedAST.transformedSingleExpression</title>
<!-- Node1 -->
<g id="Node000001" class="node">
<title>Node1</title>
<g id="a_Node000001"><a xlink:title=" ">
<polygon fill="#999999" stroke="#666666" points="231,-183.44 0,-183.44 0,-153.44 231,-153.44 231,-183.44"/>
<text text-anchor="start" x="8" y="-171.44" font-family="Helvetica,sans-Serif" font-size="10.00">com.teragrep.pth_06.ast.transform.</text>
<text text-anchor="middle" x="115.5" y="-160.44" font-family="Helvetica,sans-Serif" font-size="10.00">OptimizedAST.transformedSingleExpression</text>
</a>
</g>
</g>
<!-- Node2 -->
<g id="Node000002" class="node">
<title>Node2</title>
<g id="a_Node000002"><a xlink:href="classcom_1_1teragrep_1_1pth__06_1_1ast_1_1transform_1_1EmptyPruned.html#a8cfebc9854b0ad9a7cbe81918392e036" target="_top" xlink:title=" ">
<polygon fill="white" stroke="#666666" points="694,-231.44 504,-231.44 504,-201.44 694,-201.44 694,-231.44"/>
<text text-anchor="start" x="512" y="-219.44" font-family="Helvetica,sans-Serif" font-size="10.00">com.teragrep.pth_06.ast.transform.</text>
<text text-anchor="middle" x="599" y="-208.44" font-family="Helvetica,sans-Serif" font-size="10.00">EmptyPruned.transformed</text>
</a>
</g>
</g>
<!-- Node1&#45;&gt;Node2 -->
<g id="edge1_Node000001_Node000002" class="edge">
<title>Node1&#45;&gt;Node2</title>
<g id="a_edge1_Node000001_Node000002"><a xlink:title=" ">
<path fill="none" stroke="#63b8ff" d="M231.22,-179.87C310.95,-187.82 416.36,-198.33 493.71,-206.04"/>
<polygon fill="#63b8ff" stroke="#63b8ff" points="493.66,-209.55 503.95,-207.06 494.35,-202.59 493.66,-209.55"/>
</a>
</g>
</g>
<!-- Node7 -->
<g id="Node000007" class="node">
<title>Node7</title>
<g id="a_Node000007"><a xlink:href="classcom_1_1teragrep_1_1pth__06_1_1ast_1_1transform_1_1FlattenLogical.html#a2e1717ad6884eea7a2415aa7763eaed5" target="_top" xlink:title=" ">
<polygon fill="white" stroke="#666666" points="457,-279.44 267,-279.44 267,-249.44 457,-249.44 457,-279.44"/>
<text text-anchor="start" x="275" y="-267.44" font-family="Helvetica,sans-Serif" font-size="10.00">com.teragrep.pth_06.ast.transform.</text>
<text text-anchor="middle" x="362" y="-256.44" font-family="Helvetica,sans-Serif" font-size="10.00">FlattenLogical.transformed</text>
</a>
</g>
</g>
<!-- Node1&#45;&gt;Node7 -->
<g id="edge6_Node000001_Node000007" class="edge">
<title>Node1&#45;&gt;Node7</title>
<g id="a_edge6_Node000001_Node000007"><a xlink:title=" ">
<path fill="none" stroke="#63b8ff" d="M154.7,-183.44C197.46,-200.23 266.8,-227.45 313.14,-245.65"/>
<polygon fill="#63b8ff" stroke="#63b8ff" points="312.08,-248.99 322.66,-249.38 314.63,-242.47 312.08,-248.99"/>
</a>
</g>
</g>
<!-- Node10 -->
<g id="Node000010" class="node">
<title>Node10</title>
<g id="a_Node000010"><a xlink:href="classcom_1_1teragrep_1_1pth__06_1_1ast_1_1transform_1_1IdentitySimplification.html#a2e7ebae3195ee7794364c646e783c6d3" target="_top" xlink:title=" ">
<polygon fill="white" stroke="#666666" points="694,-69.44 504,-69.44 504,-39.44 694,-39.44 694,-69.44"/>
<text text-anchor="start" x="512" y="-57.44" font-family="Helvetica,sans-Serif" font-size="10.00">com.teragrep.pth_06.ast.transform.</text>
<text text-anchor="middle" x="599" y="-46.44" font-family="Helvetica,sans-Serif" font-size="10.00">IdentitySimplification.transformed</text>
</a>
</g>
</g>
<!-- Node1&#45;&gt;Node10 -->
<g id="edge18_Node000001_Node000010" class="edge">
<title>Node1&#45;&gt;Node10</title>
<g id="a_edge18_Node000001_Node000010"><a xlink:title=" ">
<path fill="none" stroke="#63b8ff" d="M174.68,-153.44C202.57,-146.32 236.48,-137.79 267,-130.44 353.69,-109.54 453.47,-86.81 520.62,-71.71"/>
<polygon fill="#63b8ff" stroke="#63b8ff" points="521.71,-75.05 530.7,-69.44 520.18,-68.22 521.71,-75.05"/>
</a>
</g>
</g>
<!-- Node11 -->
<g id="Node000011" class="node">
<title>Node11</title>
<g id="a_Node000011"><a xlink:href="classcom_1_1teragrep_1_1pth__06_1_1ast_1_1transform_1_1PrunedInvalidTimeQualifier.html#a390e2447fa0ee0e2964ba44d68710b37" target="_top" xlink:title=" ">
<polygon fill="white" stroke="#666666" points="705,-183.44 493,-183.44 493,-153.44 705,-153.44 705,-183.44"/>
<text text-anchor="start" x="501" y="-171.44" font-family="Helvetica,sans-Serif" font-size="10.00">com.teragrep.pth_06.ast.transform.</text>
<text text-anchor="middle" x="599" y="-160.44" font-family="Helvetica,sans-Serif" font-size="10.00">PrunedInvalidTimeQualifier.transformed</text>
</a>
</g>
</g>
<!-- Node1&#45;&gt;Node11 -->
<g id="edge23_Node000001_Node000011" class="edge">
<title>Node1&#45;&gt;Node11</title>
<g id="a_edge23_Node000001_Node000011"><a xlink:title=" ">
<path fill="none" stroke="#63b8ff" d="M231.22,-168.44C307.22,-168.44 406.56,-168.44 482.68,-168.44"/>
<polygon fill="#63b8ff" stroke="#63b8ff" points="482.79,-171.94 492.79,-168.44 482.79,-164.94 482.79,-171.94"/>
</a>
</g>
</g>
<!-- Node12 -->
<g id="Node000012" class="node">
<title>Node12</title>
<g id="a_Node000012"><a xlink:href="classcom_1_1teragrep_1_1pth__06_1_1ast_1_1transform_1_1UniqueChildren.html#a39304f06c8b7ac1e1a23463fe502028e" target="_top" xlink:title=" ">
<polygon fill="white" stroke="#666666" points="694,-135.44 504,-135.44 504,-105.44 694,-105.44 694,-135.44"/>
<text text-anchor="start" x="512" y="-123.44" font-family="Helvetica,sans-Serif" font-size="10.00">com.teragrep.pth_06.ast.transform.</text>
<text text-anchor="middle" x="599" y="-112.44" font-family="Helvetica,sans-Serif" font-size="10.00">UniqueChildren.transformed</text>
</a>
</g>
</g>
<!-- Node1&#45;&gt;Node12 -->
<g id="edge28_Node000001_Node000012" class="edge">
<title>Node1&#45;&gt;Node12</title>
<g id="a_edge28_Node000001_Node000012"><a xlink:title=" ">
<path fill="none" stroke="#63b8ff" d="M231.22,-157C310.95,-149.05 416.36,-138.55 493.71,-130.83"/>
<polygon fill="#63b8ff" stroke="#63b8ff" points="494.35,-134.29 503.95,-129.81 493.66,-127.32 494.35,-134.29"/>
</a>
</g>
</g>
<!-- Node3 -->
<g id="Node000003" class="node">
<title>Node3</title>
<g id="a_Node000003"><a xlink:href="interfacecom_1_1teragrep_1_1pth__06_1_1ast_1_1Expression.html#a17e7d33905be57c6e22e1717da6ddef6" target="_top" xlink:title=" ">
<polygon fill="white" stroke="#666666" points="883.5,-183.44 744.5,-183.44 744.5,-153.44 883.5,-153.44 883.5,-183.44"/>
<text text-anchor="start" x="752.5" y="-171.44" font-family="Helvetica,sans-Serif" font-size="10.00">com.teragrep.pth_06.ast.</text>
<text text-anchor="middle" x="814" y="-160.44" font-family="Helvetica,sans-Serif" font-size="10.00">Expression.asLogical</text>
</a>
</g>
</g>
<!-- Node2&#45;&gt;Node3 -->
<g id="edge2_Node000002_Node000003" class="edge">
<title>Node2&#45;&gt;Node3</title>
<g id="a_edge2_Node000002_Node000003"><a xlink:title=" ">
<path fill="none" stroke="#63b8ff" d="M666.81,-201.38C688.92,-196.4 713.68,-190.82 736.46,-185.69"/>
<polygon fill="#63b8ff" stroke="#63b8ff" points="737.44,-189.05 746.43,-183.44 735.9,-182.22 737.44,-189.05"/>
</a>
</g>
</g>
<!-- Node4 -->
<g id="Node000004" class="node">
<title>Node4</title>
<g id="a_Node000004"><a xlink:href="interfacecom_1_1teragrep_1_1pth__06_1_1ast_1_1LogicalExpression.html#aeaf8fe296c6899792f345659a9a6c0c4" target="_top" xlink:title=" ">
<polygon fill="white" stroke="#666666" points="887,-231.44 741,-231.44 741,-201.44 887,-201.44 887,-231.44"/>
<text text-anchor="start" x="749" y="-219.44" font-family="Helvetica,sans-Serif" font-size="10.00">com.teragrep.pth_06.ast.</text>
<text text-anchor="middle" x="814" y="-208.44" font-family="Helvetica,sans-Serif" font-size="10.00">LogicalExpression.children</text>
</a>
</g>
</g>
<!-- Node2&#45;&gt;Node4 -->
<g id="edge3_Node000002_Node000004" class="edge">
<title>Node2&#45;&gt;Node4</title>
<g id="a_edge3_Node000002_Node000004"><a xlink:title=" ">
<path fill="none" stroke="#63b8ff" d="M694.04,-216.44C706.32,-216.44 718.82,-216.44 730.88,-216.44"/>
<polygon fill="#63b8ff" stroke="#63b8ff" points="730.89,-219.94 740.89,-216.44 730.89,-212.94 730.89,-219.94"/>
</a>
</g>
</g>
<!-- Node5 -->
<g id="Node000005" class="node">
<title>Node5</title>
<g id="a_Node000005"><a xlink:href="interfacecom_1_1teragrep_1_1pth__06_1_1ast_1_1Expression.html#a65ee7f5fb98e4129018f467a53586842" target="_top" xlink:title=" ">
<polygon fill="white" stroke="#666666" points="883.5,-135.44 744.5,-135.44 744.5,-105.44 883.5,-105.44 883.5,-135.44"/>
<text text-anchor="start" x="752.5" y="-123.44" font-family="Helvetica,sans-Serif" font-size="10.00">com.teragrep.pth_06.ast.</text>
<text text-anchor="middle" x="814" y="-112.44" font-family="Helvetica,sans-Serif" font-size="10.00">Expression.isLogical</text>
</a>
</g>
</g>
<!-- Node2&#45;&gt;Node5 -->
<g id="edge4_Node000002_Node000005" class="edge">
<title>Node2&#45;&gt;Node5</title>
<g id="a_edge4_Node000002_Node000005"><a xlink:title=" ">
<path fill="none" stroke="#63b8ff" d="M687.91,-201.41C693.9,-198.87 699.67,-195.9 705,-192.44 727.36,-177.91 719.37,-160.03 741,-144.44 743.06,-142.95 745.21,-141.56 747.44,-140.25"/>
<polygon fill="#63b8ff" stroke="#63b8ff" points="749.1,-143.33 756.33,-135.58 745.85,-137.13 749.1,-143.33"/>
</a>
</g>
</g>
<!-- Node6 -->
<g id="Node000006" class="node">
<title>Node6</title>
<g id="a_Node000006"><a xlink:href="interfacecom_1_1teragrep_1_1pth__06_1_1ast_1_1Expression.html#a8b9661253a3610b9eb148ee29ca8b7e1" target="_top" xlink:title=" ">
<polygon fill="white" stroke="#666666" points="883.5,-279.44 744.5,-279.44 744.5,-249.44 883.5,-249.44 883.5,-279.44"/>
<text text-anchor="start" x="752.5" y="-267.44" font-family="Helvetica,sans-Serif" font-size="10.00">com.teragrep.pth_06.ast.</text>
<text text-anchor="middle" x="814" y="-256.44" font-family="Helvetica,sans-Serif" font-size="10.00">Expression.tag</text>
</a>
</g>
</g>
<!-- Node2&#45;&gt;Node6 -->
<g id="edge5_Node000002_Node000006" class="edge">
<title>Node2&#45;&gt;Node6</title>
<g id="a_edge5_Node000002_Node000006"><a xlink:title=" ">
<path fill="none" stroke="#63b8ff" d="M666.81,-231.49C688.92,-236.48 713.68,-242.06 736.46,-247.19"/>
<polygon fill="#63b8ff" stroke="#63b8ff" points="735.9,-250.65 746.43,-249.44 737.44,-243.82 735.9,-250.65"/>
</a>
</g>
</g>
<!-- Node7&#45;&gt;Node5 -->
<g id="edge15_Node000007_Node000005" class="edge">
<title>Node7&#45;&gt;Node5</title>
<g id="a_edge15_Node000007_Node000005"><a xlink:title=" ">
<path fill="none" stroke="#63b8ff" d="M365.94,-249.28C375.29,-205.69 408.89,-79.93 493,-30.44 574.21,17.34 616.41,1.64 705,-30.44 741.79,-43.76 774.86,-75.69 794.43,-97.7"/>
<polygon fill="#63b8ff" stroke="#63b8ff" points="791.83,-100.04 801.02,-105.31 797.12,-95.45 791.83,-100.04"/>
</a>
</g>
</g>
<!-- Node7&#45;&gt;Node6 -->
<g id="edge16_Node000007_Node000006" class="edge">
<title>Node7&#45;&gt;Node6</title>
<g id="a_edge16_Node000007_Node000006"><a xlink:title=" ">
<path fill="none" stroke="#63b8ff" d="M382.78,-279.64C407.14,-297.31 450.54,-325.46 493,-336.44 584.23,-360.01 614.82,-363.74 705,-336.44 737.37,-326.64 768.9,-303.58 789.46,-286.18"/>
<polygon fill="#63b8ff" stroke="#63b8ff" points="791.78,-288.8 797.04,-279.6 787.19,-283.51 791.78,-288.8"/>
</a>
</g>
</g>
<!-- Node7&#45;&gt;Node7 -->
<g id="edge17_Node000007_Node000007" class="edge">
<title>Node7&#45;&gt;Node7</title>
<g id="a_edge17_Node000007_Node000007"><a xlink:title=" ">
<path fill="none" stroke="#63b8ff" d="M320.52,-279.71C311.3,-288.84 325.12,-297.44 362,-297.44 383.89,-297.44 397.66,-294.41 403.31,-290.04"/>
<polygon fill="#63b8ff" stroke="#63b8ff" points="406.81,-289.77 403.48,-279.71 399.81,-289.65 406.81,-289.77"/>
</a>
</g>
</g>
<!-- Node8 -->
<g id="Node000008" class="node">
<title>Node8</title>
<g id="a_Node000008"><a xlink:href="classcom_1_1teragrep_1_1pth__06_1_1ast_1_1transform_1_1FlattenLogical.html#a3b9085857dc57e88c58a6fa5a057f103" target="_top" xlink:title=" ">
<polygon fill="white" stroke="#666666" points="694.5,-279.44 503.5,-279.44 503.5,-249.44 694.5,-249.44 694.5,-279.44"/>
<text text-anchor="start" x="511.5" y="-267.44" font-family="Helvetica,sans-Serif" font-size="10.00">com.teragrep.pth_06.ast.transform.</text>
<text text-anchor="middle" x="599" y="-256.44" font-family="Helvetica,sans-Serif" font-size="10.00">FlattenLogical.flattenedAndChildren</text>
</a>
</g>
</g>
<!-- Node7&#45;&gt;Node8 -->
<g id="edge7_Node000007_Node000008" class="edge">
<title>Node7&#45;&gt;Node8</title>
<g id="a_edge7_Node000007_Node000008"><a xlink:title=" ">
<path fill="none" stroke="#63b8ff" d="M457.23,-264.44C469.1,-264.44 481.3,-264.44 493.32,-264.44"/>
<polygon fill="#63b8ff" stroke="#63b8ff" points="493.37,-267.94 503.37,-264.44 493.37,-260.94 493.37,-267.94"/>
</a>
</g>
</g>
<!-- Node9 -->
<g id="Node000009" class="node">
<title>Node9</title>
<g id="a_Node000009"><a xlink:href="classcom_1_1teragrep_1_1pth__06_1_1ast_1_1transform_1_1FlattenLogical.html#ae0b8acc47ab74872494d07da365e303b" target="_top" xlink:title=" ">
<polygon fill="white" stroke="#666666" points="694,-327.44 504,-327.44 504,-297.44 694,-297.44 694,-327.44"/>
<text text-anchor="start" x="512" y="-315.44" font-family="Helvetica,sans-Serif" font-size="10.00">com.teragrep.pth_06.ast.transform.</text>
<text text-anchor="middle" x="599" y="-304.44" font-family="Helvetica,sans-Serif" font-size="10.00">FlattenLogical.flattenedOrChildren</text>
</a>
</g>
</g>
<!-- Node7&#45;&gt;Node9 -->
<g id="edge11_Node000007_Node000009" class="edge">
<title>Node7&#45;&gt;Node9</title>
<g id="a_edge11_Node000007_Node000009"><a xlink:title=" ">
<path fill="none" stroke="#63b8ff" d="M436.71,-279.49C461.43,-284.54 489.16,-290.21 514.57,-295.4"/>
<polygon fill="#63b8ff" stroke="#63b8ff" points="514.05,-298.86 524.55,-297.44 515.45,-292 514.05,-298.86"/>
</a>
</g>
</g>
<!-- Node8&#45;&gt;Node3 -->
<g id="edge8_Node000008_Node000003" class="edge">
<title>Node8&#45;&gt;Node3</title>
<g id="a_edge8_Node000008_Node000003"><a xlink:title=" ">
<path fill="none" stroke="#63b8ff" d="M687.91,-249.41C693.9,-246.87 699.67,-243.9 705,-240.44 727.36,-225.91 719.37,-208.03 741,-192.44 743.06,-190.95 745.21,-189.56 747.44,-188.25"/>
<polygon fill="#63b8ff" stroke="#63b8ff" points="749.1,-191.33 756.33,-183.58 745.85,-185.13 749.1,-191.33"/>
</a>
</g>
</g>
<!-- Node8&#45;&gt;Node4 -->
<g id="edge9_Node000008_Node000004" class="edge">
<title>Node8&#45;&gt;Node4</title>
<g id="a_edge9_Node000008_Node000004"><a xlink:title=" ">
<path fill="none" stroke="#63b8ff" d="M666.81,-249.38C688.92,-244.4 713.68,-238.82 736.46,-233.69"/>
<polygon fill="#63b8ff" stroke="#63b8ff" points="737.44,-237.05 746.43,-231.44 735.9,-230.22 737.44,-237.05"/>
</a>
</g>
</g>
<!-- Node8&#45;&gt;Node6 -->
<g id="edge10_Node000008_Node000006" class="edge">
<title>Node8&#45;&gt;Node6</title>
<g id="a_edge10_Node000008_Node000006"><a xlink:title=" ">
<path fill="none" stroke="#63b8ff" d="M694.67,-264.44C707.9,-264.44 721.39,-264.44 734.29,-264.44"/>
<polygon fill="#63b8ff" stroke="#63b8ff" points="734.49,-267.94 744.49,-264.44 734.49,-260.94 734.49,-267.94"/>
</a>
</g>
</g>
<!-- Node9&#45;&gt;Node3 -->
<g id="edge12_Node000009_Node000003" class="edge">
<title>Node9&#45;&gt;Node3</title>
<g id="a_edge12_Node000009_Node000003"><a xlink:title=" ">
<path fill="none" stroke="#63b8ff" d="M692.13,-297.44C696.72,-294.86 701.06,-291.88 705,-288.44 739.31,-258.45 708.19,-224.06 741,-192.44 742.13,-191.35 743.3,-190.32 744.52,-189.33"/>
<polygon fill="#63b8ff" stroke="#63b8ff" points="746.85,-191.98 753.13,-183.45 742.9,-186.2 746.85,-191.98"/>
</a>
</g>
</g>
<!-- Node9&#45;&gt;Node4 -->
<g id="edge13_Node000009_Node000004" class="edge">
<title>Node9&#45;&gt;Node4</title>
<g id="a_edge13_Node000009_Node000004"><a xlink:title=" ">
<path fill="none" stroke="#63b8ff" d="M687.91,-297.41C693.9,-294.87 699.67,-291.9 705,-288.44 727.36,-273.91 719.37,-256.03 741,-240.44 743.06,-238.95 745.21,-237.56 747.44,-236.25"/>
<polygon fill="#63b8ff" stroke="#63b8ff" points="749.1,-239.33 756.33,-231.58 745.85,-233.13 749.1,-239.33"/>
</a>
</g>
</g>
<!-- Node9&#45;&gt;Node6 -->
<g id="edge14_Node000009_Node000006" class="edge">
<title>Node9&#45;&gt;Node6</title>
<g id="a_edge14_Node000009_Node000006"><a xlink:title=" ">
<path fill="none" stroke="#63b8ff" d="M666.81,-297.38C688.92,-292.4 713.68,-286.82 736.46,-281.69"/>
<polygon fill="#63b8ff" stroke="#63b8ff" points="737.44,-285.05 746.43,-279.44 735.9,-278.22 737.44,-285.05"/>
</a>
</g>
</g>
<!-- Node10&#45;&gt;Node3 -->
<g id="edge19_Node000010_Node000003" class="edge">
<title>Node10&#45;&gt;Node3</title>
<g id="a_edge19_Node000010_Node000003"><a xlink:title=" ">
<path fill="none" stroke="#63b8ff" d="M653.71,-69.51C671.15,-76.02 689.88,-84.85 705,-96.44 726.17,-112.66 719.37,-128.85 741,-144.44 743.06,-145.92 745.21,-147.32 747.44,-148.63"/>
<polygon fill="#63b8ff" stroke="#63b8ff" points="745.85,-151.75 756.33,-153.3 749.1,-145.55 745.85,-151.75"/>
</a>
</g>
</g>
<!-- Node10&#45;&gt;Node4 -->
<g id="edge20_Node000010_Node000004" class="edge">
<title>Node10&#45;&gt;Node4</title>
<g id="a_edge20_Node000010_Node000004"><a xlink:title=" ">
<path fill="none" stroke="#63b8ff" d="M662.06,-69.55C677.65,-75.77 693.26,-84.44 705,-96.44 736.87,-129.01 708.19,-160.82 741,-192.44 742.13,-193.52 743.3,-194.56 744.52,-195.55"/>
<polygon fill="#63b8ff" stroke="#63b8ff" points="742.9,-198.68 753.13,-201.43 746.85,-192.9 742.9,-198.68"/>
</a>
</g>
</g>
<!-- Node10&#45;&gt;Node5 -->
<g id="edge21_Node000010_Node000005" class="edge">
<title>Node10&#45;&gt;Node5</title>
<g id="a_edge21_Node000010_Node000005"><a xlink:title=" ">
<path fill="none" stroke="#63b8ff" d="M648.6,-69.5C680.11,-79.26 721.35,-92.04 754.63,-102.35"/>
<polygon fill="#63b8ff" stroke="#63b8ff" points="753.65,-105.71 764.24,-105.33 755.72,-99.03 753.65,-105.71"/>
</a>
</g>
</g>
<!-- Node10&#45;&gt;Node10 -->
<g id="edge22_Node000010_Node000010" class="edge">
<title>Node10&#45;&gt;Node10</title>
<g id="a_edge22_Node000010_Node000010"><a xlink:title=" ">
<path fill="none" stroke="#63b8ff" d="M561.38,-69.71C553.02,-78.84 565.56,-87.44 599,-87.44 618.85,-87.44 631.34,-84.41 636.46,-80.04"/>
<polygon fill="#63b8ff" stroke="#63b8ff" points="639.96,-79.77 636.62,-69.71 632.96,-79.66 639.96,-79.77"/>
</a>
</g>
</g>
<!-- Node11&#45;&gt;Node3 -->
<g id="edge24_Node000011_Node000003" class="edge">
<title>Node11&#45;&gt;Node3</title>
<g id="a_edge24_Node000011_Node000003"><a xlink:title=" ">
<path fill="none" stroke="#63b8ff" d="M705.25,-168.44C715.03,-168.44 724.82,-168.44 734.29,-168.44"/>
<polygon fill="#63b8ff" stroke="#63b8ff" points="734.43,-171.94 744.43,-168.44 734.43,-164.94 734.43,-171.94"/>
</a>
</g>
</g>
<!-- Node11&#45;&gt;Node4 -->
<g id="edge25_Node000011_Node000004" class="edge">
<title>Node11&#45;&gt;Node4</title>
<g id="a_edge25_Node000011_Node000004"><a xlink:title=" ">
<path fill="none" stroke="#63b8ff" d="M666.81,-183.49C688.92,-188.48 713.68,-194.06 736.46,-199.19"/>
<polygon fill="#63b8ff" stroke="#63b8ff" points="735.9,-202.65 746.43,-201.44 737.44,-195.82 735.9,-202.65"/>
</a>
</g>
</g>
<!-- Node11&#45;&gt;Node5 -->
<g id="edge26_Node000011_Node000005" class="edge">
<title>Node11&#45;&gt;Node5</title>
<g id="a_edge26_Node000011_Node000005"><a xlink:title=" ">
<path fill="none" stroke="#63b8ff" d="M666.81,-153.38C688.92,-148.4 713.68,-142.82 736.46,-137.69"/>
<polygon fill="#63b8ff" stroke="#63b8ff" points="737.44,-141.05 746.43,-135.44 735.9,-134.22 737.44,-141.05"/>
</a>
</g>
</g>
<!-- Node11&#45;&gt;Node6 -->
<g id="edge27_Node000011_Node000006" class="edge">
<title>Node11&#45;&gt;Node6</title>
<g id="a_edge27_Node000011_Node000006"><a xlink:title=" ">
<path fill="none" stroke="#63b8ff" d="M687.91,-183.47C693.9,-186.01 699.67,-188.97 705,-192.44 727.36,-206.96 719.37,-224.85 741,-240.44 743.06,-241.92 745.21,-243.32 747.44,-244.63"/>
<polygon fill="#63b8ff" stroke="#63b8ff" points="745.85,-247.75 756.33,-249.3 749.1,-241.55 745.85,-247.75"/>
</a>
</g>
</g>
<!-- Node12&#45;&gt;Node3 -->
<g id="edge29_Node000012_Node000003" class="edge">
<title>Node12&#45;&gt;Node3</title>
<g id="a_edge29_Node000012_Node000003"><a xlink:title=" ">
<path fill="none" stroke="#63b8ff" d="M666.81,-135.49C688.92,-140.48 713.68,-146.06 736.46,-151.19"/>
<polygon fill="#63b8ff" stroke="#63b8ff" points="735.9,-154.65 746.43,-153.44 737.44,-147.82 735.9,-154.65"/>
</a>
</g>
</g>
<!-- Node12&#45;&gt;Node4 -->
<g id="edge30_Node000012_Node000004" class="edge">
<title>Node12&#45;&gt;Node4</title>
<g id="a_edge30_Node000012_Node000004"><a xlink:title=" ">
<path fill="none" stroke="#63b8ff" d="M687.91,-135.47C693.9,-138.01 699.67,-140.97 705,-144.44 727.36,-158.96 719.37,-176.85 741,-192.44 743.06,-193.92 745.21,-195.32 747.44,-196.63"/>
<polygon fill="#63b8ff" stroke="#63b8ff" points="745.85,-199.75 756.33,-201.3 749.1,-193.55 745.85,-199.75"/>
</a>
</g>
</g>
<!-- Node12&#45;&gt;Node5 -->
<g id="edge31_Node000012_Node000005" class="edge">
<title>Node12&#45;&gt;Node5</title>
<g id="a_edge31_Node000012_Node000005"><a xlink:title=" ">
<path fill="none" stroke="#63b8ff" d="M694.04,-120.44C707.41,-120.44 721.04,-120.44 734.08,-120.44"/>
<polygon fill="#63b8ff" stroke="#63b8ff" points="734.4,-123.94 744.4,-120.44 734.4,-116.94 734.4,-123.94"/>
</a>
</g>
</g>
<!-- Node12&#45;&gt;Node6 -->
<g id="edge32_Node000012_Node000006" class="edge">
<title>Node12&#45;&gt;Node6</title>
<g id="a_edge32_Node000012_Node000006"><a xlink:title=" ">
<path fill="none" stroke="#63b8ff" d="M692.13,-135.44C696.72,-138.01 701.06,-140.99 705,-144.44 739.31,-174.43 708.19,-208.82 741,-240.44 742.13,-241.52 743.3,-242.56 744.52,-243.55"/>
<polygon fill="#63b8ff" stroke="#63b8ff" points="742.9,-246.68 753.13,-249.43 746.85,-240.9 742.9,-246.68"/>
</a>
</g>
</g>
</g>
</svg>
