<?xml version="1.0" encoding="UTF-8" standalone="no"?>
<!DOCTYPE svg PUBLIC "-//W3C//DTD SVG 1.1//EN"
 "http://www.w3.org/Graphics/SVG/1.1/DTD/svg11.dtd">
<!-- Generated by graphviz version 2.43.0 (0)
 -->
<!-- Title: com.teragrep.pth_06.Stubbable Pages: 1 -->
<svg width="610pt" height="518pt"
 viewBox="0.00 0.00 610.00 518.00" xmlns="http://www.w3.org/2000/svg" xmlns:xlink="http://www.w3.org/1999/xlink">
<g id="graph0" class="graph" transform="scale(1 1) rotate(0) translate(4 514)">
<title>com.teragrep.pth_06.Stubbable</title>
<!-- Node1 -->
<g id="Node000001" class="node">
<title>Node1</title>
<g id="a_Node000001"><a xlink:title=" ">
<polygon fill="#999999" stroke="#666666" points="170,-240.5 0,-240.5 0,-221.5 170,-221.5 170,-240.5"/>
<text text-anchor="middle" x="85" y="-228.5" font-family="Helvetica,sans-Serif" font-size="10.00">com.teragrep.pth_06.Stubbable</text>
</a>
</g>
</g>
<!-- Node2 -->
<g id="Node000002" class="node">
<title>Node2</title>
<g id="a_Node000002"><a xlink:href="interfacecom_1_1teragrep_1_1pth__06_1_1ast_1_1analyze_1_1ScanPlan.html" target="_top" xlink:title="Logical plan for a row key range scan of HBase.">
<polygon fill="white" stroke="#666666" points="386,-462 206,-462 206,-432 386,-432 386,-462"/>
<text text-anchor="start" x="214" y="-450" font-family="Helvetica,sans-Serif" font-size="10.00">com.teragrep.pth_06.ast.analyze.</text>
<text text-anchor="middle" x="296" y="-439" font-family="Helvetica,sans-Serif" font-size="10.00">ScanPlan</text>
</a>
</g>
</g>
<!-- Node1&#45;&gt;Node2 -->
<g id="edge1_Node000001_Node000002" class="edge">
<title>Node1&#45;&gt;Node2</title>
<g id="a_edge1_Node000001_Node000002"><a xlink:title=" ">
<path fill="none" stroke="#63b8ff" d="M102.31,-247.86C141.89,-288.76 242.5,-392.74 280.32,-431.83"/>
<polygon fill="#63b8ff" stroke="#63b8ff" points="104.72,-245.31 95.25,-240.56 99.69,-250.18 104.72,-245.31"/>
</a>
</g>
</g>
<!-- Node5 -->
<g id="Node000005" class="node">
<title>Node5</title>
<g id="a_Node000005"><a xlink:href="interfacecom_1_1teragrep_1_1pth__06_1_1planner_1_1ArchiveQuery.html" target="_top" xlink:title=" ">
<polygon fill="white" stroke="#666666" points="376,-342 216,-342 216,-312 376,-312 376,-342"/>
<text text-anchor="start" x="224" y="-330" font-family="Helvetica,sans-Serif" font-size="10.00">com.teragrep.pth_06.planner.</text>
<text text-anchor="middle" x="296" y="-319" font-family="Helvetica,sans-Serif" font-size="10.00">ArchiveQuery</text>
</a>
</g>
</g>
<!-- Node1&#45;&gt;Node5 -->
<g id="edge4_Node000001_Node000005" class="edge">
<title>Node1&#45;&gt;Node5</title>
<g id="a_edge4_Node000001_Node000005"><a xlink:title=" ">
<path fill="none" stroke="#63b8ff" d="M116,-244.78C154.72,-262.57 221.87,-293.41 262,-311.84"/>
<polygon fill="#63b8ff" stroke="#63b8ff" points="117.35,-241.55 106.8,-240.56 114.43,-247.91 117.35,-241.55"/>
</a>
</g>
</g>
<!-- Node9 -->
<g id="Node000009" class="node">
<title>Node9</title>
<g id="a_Node000009"><a xlink:href="interfacecom_1_1teragrep_1_1pth__06_1_1planner_1_1HBaseQuery.html" target="_top" xlink:title=" ">
<polygon fill="white" stroke="#666666" points="376,-246 216,-246 216,-216 376,-216 376,-246"/>
<text text-anchor="start" x="224" y="-234" font-family="Helvetica,sans-Serif" font-size="10.00">com.teragrep.pth_06.planner.</text>
<text text-anchor="middle" x="296" y="-223" font-family="Helvetica,sans-Serif" font-size="10.00">HBaseQuery</text>
</a>
</g>
</g>
<!-- Node1&#45;&gt;Node9 -->
<g id="edge8_Node000001_Node000009" class="edge">
<title>Node1&#45;&gt;Node9</title>
<g id="a_edge8_Node000001_Node000009"><a xlink:title=" ">
<path fill="none" stroke="#63b8ff" d="M180.43,-231C192.26,-231 204.25,-231 215.81,-231"/>
<polygon fill="#63b8ff" stroke="#63b8ff" points="180.1,-227.5 170.1,-231 180.1,-234.5 180.1,-227.5"/>
</a>
</g>
</g>
<!-- Node12 -->
<g id="Node000012" class="node">
<title>Node12</title>
<g id="a_Node000012"><a xlink:href="interfacecom_1_1teragrep_1_1pth__06_1_1planner_1_1HourlySlices.html" target="_top" xlink:title=" ">
<polygon fill="white" stroke="#666666" points="376,-174 216,-174 216,-144 376,-144 376,-174"/>
<text text-anchor="start" x="224" y="-162" font-family="Helvetica,sans-Serif" font-size="10.00">com.teragrep.pth_06.planner.</text>
<text text-anchor="middle" x="296" y="-151" font-family="Helvetica,sans-Serif" font-size="10.00">HourlySlices</text>
</a>
</g>
</g>
<!-- Node1&#45;&gt;Node12 -->
<g id="edge11_Node000001_Node000012" class="edge">
<title>Node1&#45;&gt;Node12</title>
<g id="a_edge11_Node000001_Node000012"><a xlink:title=" ">
<path fill="none" stroke="#63b8ff" d="M123.34,-218.14C159.15,-205.8 213.22,-187.17 251.08,-174.13"/>
<polygon fill="#63b8ff" stroke="#63b8ff" points="122.07,-214.87 113.75,-221.44 124.35,-221.49 122.07,-214.87"/>
</a>
</g>
</g>
<!-- Node15 -->
<g id="Node000015" class="node">
<title>Node15</title>
<g id="a_Node000015"><a xlink:href="interfacecom_1_1teragrep_1_1pth__06_1_1planner_1_1KafkaQuery.html" target="_top" xlink:title=" ">
<polygon fill="white" stroke="#666666" points="376,-78 216,-78 216,-48 376,-48 376,-78"/>
<text text-anchor="start" x="224" y="-66" font-family="Helvetica,sans-Serif" font-size="10.00">com.teragrep.pth_06.planner.</text>
<text text-anchor="middle" x="296" y="-55" font-family="Helvetica,sans-Serif" font-size="10.00">KafkaQuery</text>
</a>
</g>
</g>
<!-- Node1&#45;&gt;Node15 -->
<g id="edge14_Node000001_Node000015" class="edge">
<title>Node1&#45;&gt;Node15</title>
<g id="a_edge14_Node000001_Node000015"><a xlink:title=" ">
<path fill="none" stroke="#63b8ff" d="M105.83,-215.06C146.04,-182.74 236.68,-109.88 276.1,-78.19"/>
<polygon fill="#63b8ff" stroke="#63b8ff" points="103.44,-212.49 97.84,-221.49 107.82,-217.95 103.44,-212.49"/>
</a>
</g>
</g>
<!-- Node3 -->
<g id="Node000003" class="node">
<title>Node3</title>
<g id="a_Node000003"><a xlink:href="classcom_1_1teragrep_1_1pth__06_1_1ast_1_1analyze_1_1ScanPlanImpl.html" target="_top" xlink:title=" ">
<polygon fill="white" stroke="#666666" points="602,-510 422,-510 422,-480 602,-480 602,-510"/>
<text text-anchor="start" x="430" y="-498" font-family="Helvetica,sans-Serif" font-size="10.00">com.teragrep.pth_06.ast.analyze.</text>
<text text-anchor="middle" x="512" y="-487" font-family="Helvetica,sans-Serif" font-size="10.00">ScanPlanImpl</text>
</a>
</g>
</g>
<!-- Node2&#45;&gt;Node3 -->
<g id="edge2_Node000002_Node000003" class="edge">
<title>Node2&#45;&gt;Node3</title>
<g id="a_edge2_Node000002_Node000003"><a xlink:title=" ">
<path fill="none" stroke="#63b8ff" d="M374.14,-464.3C397.04,-469.44 421.92,-475.02 444.11,-480"/>
<polygon fill="#63b8ff" stroke="#63b8ff" points="374.65,-460.83 364.12,-462.06 373.12,-467.66 374.65,-460.83"/>
</a>
</g>
</g>
<!-- Node4 -->
<g id="Node000004" class="node">
<title>Node4</title>
<g id="a_Node000004"><a xlink:href="classcom_1_1teragrep_1_1pth__06_1_1ast_1_1analyze_1_1StubScanPlan.html" target="_top" xlink:title=" ">
<polygon fill="white" stroke="#666666" points="602,-462 422,-462 422,-432 602,-432 602,-462"/>
<text text-anchor="start" x="430" y="-450" font-family="Helvetica,sans-Serif" font-size="10.00">com.teragrep.pth_06.ast.analyze.</text>
<text text-anchor="middle" x="512" y="-439" font-family="Helvetica,sans-Serif" font-size="10.00">StubScanPlan</text>
</a>
</g>
</g>
<!-- Node2&#45;&gt;Node4 -->
<g id="edge3_Node000002_Node000004" class="edge">
<title>Node2&#45;&gt;Node4</title>
<g id="a_edge3_Node000002_Node000004"><a xlink:title=" ">
<path fill="none" stroke="#63b8ff" d="M396.23,-447C404.81,-447 413.45,-447 421.94,-447"/>
<polygon fill="#63b8ff" stroke="#63b8ff" points="396.21,-443.5 386.21,-447 396.21,-450.5 396.21,-443.5"/>
</a>
</g>
</g>
<!-- Node6 -->
<g id="Node000006" class="node">
<title>Node6</title>
<g id="a_Node000006"><a xlink:href="classcom_1_1teragrep_1_1pth__06_1_1planner_1_1ArchiveQueryProcessor.html" target="_top" xlink:title=" ">
<polygon fill="white" stroke="#666666" points="592,-414 432,-414 432,-384 592,-384 592,-414"/>
<text text-anchor="start" x="440" y="-402" font-family="Helvetica,sans-Serif" font-size="10.00">com.teragrep.pth_06.planner.</text>
<text text-anchor="middle" x="512" y="-391" font-family="Helvetica,sans-Serif" font-size="10.00">ArchiveQueryProcessor</text>
</a>
</g>
</g>
<!-- Node5&#45;&gt;Node6 -->
<g id="edge5_Node000005_Node000006" class="edge">
<title>Node5&#45;&gt;Node6</title>
<g id="a_edge5_Node000005_Node000006"><a xlink:title=" ">
<path fill="none" stroke="#63b8ff" d="M342.65,-345.83C366.15,-355.19 395.39,-366.33 422,-375 431.59,-378.12 441.84,-381.16 451.86,-383.97"/>
<polygon fill="#63b8ff" stroke="#63b8ff" points="343.87,-342.55 333.29,-342.08 341.27,-349.05 343.87,-342.55"/>
</a>
</g>
</g>
<!-- Node7 -->
<g id="Node000007" class="node">
<title>Node7</title>
<g id="a_Node000007"><a xlink:href="classcom_1_1teragrep_1_1pth__06_1_1planner_1_1MockArchiveQueryProcessor.html" target="_top" xlink:title=" ">
<polygon fill="white" stroke="#666666" points="592,-366 432,-366 432,-336 592,-336 592,-366"/>
<text text-anchor="start" x="440" y="-354" font-family="Helvetica,sans-Serif" font-size="10.00">com.teragrep.pth_06.planner.</text>
<text text-anchor="middle" x="512" y="-343" font-family="Helvetica,sans-Serif" font-size="10.00">MockArchiveQueryProcessor</text>
</a>
</g>
</g>
<!-- Node5&#45;&gt;Node7 -->
<g id="edge6_Node000005_Node000007" class="edge">
<title>Node5&#45;&gt;Node7</title>
<g id="a_edge6_Node000005_Node000007"><a xlink:title=" ">
<path fill="none" stroke="#63b8ff" d="M386.43,-337.03C401.52,-338.72 417.09,-340.47 431.89,-342.13"/>
<polygon fill="#63b8ff" stroke="#63b8ff" points="386.41,-333.5 376.08,-335.87 385.63,-340.46 386.41,-333.5"/>
</a>
</g>
</g>
<!-- Node8 -->
<g id="Node000008" class="node">
<title>Node8</title>
<g id="a_Node000008"><a xlink:href="classcom_1_1teragrep_1_1pth__06_1_1planner_1_1StubArchiveQuery.html" target="_top" xlink:title=" ">
<polygon fill="white" stroke="#666666" points="592,-318 432,-318 432,-288 592,-288 592,-318"/>
<text text-anchor="start" x="440" y="-306" font-family="Helvetica,sans-Serif" font-size="10.00">com.teragrep.pth_06.planner.</text>
<text text-anchor="middle" x="512" y="-295" font-family="Helvetica,sans-Serif" font-size="10.00">StubArchiveQuery</text>
</a>
</g>
</g>
<!-- Node5&#45;&gt;Node8 -->
<g id="edge7_Node000005_Node000008" class="edge">
<title>Node5&#45;&gt;Node8</title>
<g id="a_edge7_Node000005_Node000008"><a xlink:title=" ">
<path fill="none" stroke="#63b8ff" d="M386.43,-316.97C401.52,-315.28 417.09,-313.53 431.89,-311.87"/>
<polygon fill="#63b8ff" stroke="#63b8ff" points="385.63,-313.54 376.08,-318.13 386.41,-320.5 385.63,-313.54"/>
</a>
</g>
</g>
<!-- Node10 -->
<g id="Node000010" class="node">
<title>Node10</title>
<g id="a_Node000010"><a xlink:href="classcom_1_1teragrep_1_1pth__06_1_1planner_1_1HBaseQueryImpl.html" target="_top" xlink:title="Responsible for splitting results from scanPlanCollection into batches.">
<polygon fill="white" stroke="#666666" points="592,-270 432,-270 432,-240 592,-240 592,-270"/>
<text text-anchor="start" x="440" y="-258" font-family="Helvetica,sans-Serif" font-size="10.00">com.teragrep.pth_06.planner.</text>
<text text-anchor="middle" x="512" y="-247" font-family="Helvetica,sans-Serif" font-size="10.00">HBaseQueryImpl</text>
</a>
</g>
</g>
<!-- Node9&#45;&gt;Node10 -->
<g id="edge9_Node000009_Node000010" class="edge">
<title>Node9&#45;&gt;Node10</title>
<g id="a_edge9_Node000009_Node000010"><a xlink:title=" ">
<path fill="none" stroke="#63b8ff" d="M386.43,-241.03C401.52,-242.72 417.09,-244.47 431.89,-246.13"/>
<polygon fill="#63b8ff" stroke="#63b8ff" points="386.41,-237.5 376.08,-239.87 385.63,-244.46 386.41,-237.5"/>
</a>
</g>
</g>
<!-- Node11 -->
<g id="Node000011" class="node">
<title>Node11</title>
<g id="a_Node000011"><a xlink:href="classcom_1_1teragrep_1_1pth__06_1_1planner_1_1StubHBaseQuery.html" target="_top" xlink:title=" ">
<polygon fill="white" stroke="#666666" points="592,-222 432,-222 432,-192 592,-192 592,-222"/>
<text text-anchor="start" x="440" y="-210" font-family="Helvetica,sans-Serif" font-size="10.00">com.teragrep.pth_06.planner.</text>
<text text-anchor="middle" x="512" y="-199" font-family="Helvetica,sans-Serif" font-size="10.00">StubHBaseQuery</text>
</a>
</g>
</g>
<!-- Node9&#45;&gt;Node11 -->
<g id="edge10_Node000009_Node000011" class="edge">
<title>Node9&#45;&gt;Node11</title>
<g id="a_edge10_Node000009_Node000011"><a xlink:title=" ">
<path fill="none" stroke="#63b8ff" d="M386.43,-220.97C401.52,-219.28 417.09,-217.53 431.89,-215.87"/>
<polygon fill="#63b8ff" stroke="#63b8ff" points="385.63,-217.54 376.08,-222.13 386.41,-224.5 385.63,-217.54"/>
</a>
</g>
</g>
<!-- Node13 -->
<g id="Node000013" class="node">
<title>Node13</title>
<g id="a_Node000013"><a xlink:href="classcom_1_1teragrep_1_1pth__06_1_1planner_1_1HourlyViewsSlices.html" target="_top" xlink:title=" ">
<polygon fill="white" stroke="#666666" points="592,-174 432,-174 432,-144 592,-144 592,-174"/>
<text text-anchor="start" x="440" y="-162" font-family="Helvetica,sans-Serif" font-size="10.00">com.teragrep.pth_06.planner.</text>
<text text-anchor="middle" x="512" y="-151" font-family="Helvetica,sans-Serif" font-size="10.00">HourlyViewsSlices</text>
</a>
</g>
</g>
<!-- Node12&#45;&gt;Node13 -->
<g id="edge12_Node000012_Node000013" class="edge">
<title>Node12&#45;&gt;Node13</title>
<g id="a_edge12_Node000012_Node000013"><a xlink:title=" ">
<path fill="none" stroke="#63b8ff" d="M386.43,-159C401.52,-159 417.09,-159 431.89,-159"/>
<polygon fill="#63b8ff" stroke="#63b8ff" points="386.08,-155.5 376.08,-159 386.08,-162.5 386.08,-155.5"/>
</a>
</g>
</g>
<!-- Node14 -->
<g id="Node000014" class="node">
<title>Node14</title>
<g id="a_Node000014"><a xlink:href="classcom_1_1teragrep_1_1pth__06_1_1planner_1_1StubHourlySlices.html" target="_top" xlink:title=" ">
<polygon fill="white" stroke="#666666" points="592,-126 432,-126 432,-96 592,-96 592,-126"/>
<text text-anchor="start" x="440" y="-114" font-family="Helvetica,sans-Serif" font-size="10.00">com.teragrep.pth_06.planner.</text>
<text text-anchor="middle" x="512" y="-103" font-family="Helvetica,sans-Serif" font-size="10.00">StubHourlySlices</text>
</a>
</g>
</g>
<!-- Node12&#45;&gt;Node14 -->
<g id="edge13_Node000012_Node000014" class="edge">
<title>Node12&#45;&gt;Node14</title>
<g id="a_edge13_Node000012_Node000014"><a xlink:title=" ">
<path fill="none" stroke="#63b8ff" d="M374.14,-141.7C397.04,-136.56 421.92,-130.98 444.11,-126"/>
<polygon fill="#63b8ff" stroke="#63b8ff" points="373.12,-138.34 364.12,-143.94 374.65,-145.17 373.12,-138.34"/>
</a>
</g>
</g>
<!-- Node16 -->
<g id="Node000016" class="node">
<title>Node16</title>
<g id="a_Node000016"><a xlink:href="classcom_1_1teragrep_1_1pth__06_1_1planner_1_1KafkaQueryProcessor.html" target="_top" xlink:title=" ">
<polygon fill="white" stroke="#666666" points="592,-78 432,-78 432,-48 592,-48 592,-78"/>
<text text-anchor="start" x="440" y="-66" font-family="Helvetica,sans-Serif" font-size="10.00">com.teragrep.pth_06.planner.</text>
<text text-anchor="middle" x="512" y="-55" font-family="Helvetica,sans-Serif" font-size="10.00">KafkaQueryProcessor</text>
</a>
</g>
</g>
<!-- Node15&#45;&gt;Node16 -->
<g id="edge15_Node000015_Node000016" class="edge">
<title>Node15&#45;&gt;Node16</title>
<g id="a_edge15_Node000015_Node000016"><a xlink:title=" ">
<path fill="none" stroke="#63b8ff" d="M386.43,-63C401.52,-63 417.09,-63 431.89,-63"/>
<polygon fill="#63b8ff" stroke="#63b8ff" points="386.08,-59.5 376.08,-63 386.08,-66.5 386.08,-59.5"/>
</a>
</g>
</g>
<!-- Node17 -->
<g id="Node000017" class="node">
<title>Node17</title>
<g id="a_Node000017"><a xlink:href="classcom_1_1teragrep_1_1pth__06_1_1planner_1_1StubKafkaQuery.html" target="_top" xlink:title=" ">
<polygon fill="white" stroke="#666666" points="592,-30 432,-30 432,0 592,0 592,-30"/>
<text text-anchor="start" x="440" y="-18" font-family="Helvetica,sans-Serif" font-size="10.00">com.teragrep.pth_06.planner.</text>
<text text-anchor="middle" x="512" y="-7" font-family="Helvetica,sans-Serif" font-size="10.00">StubKafkaQuery</text>
</a>
</g>
</g>
<!-- Node15&#45;&gt;Node17 -->
<g id="edge16_Node000015_Node000017" class="edge">
<title>Node15&#45;&gt;Node17</title>
<g id="a_edge16_Node000015_Node000017"><a xlink:title=" ">
<path fill="none" stroke="#63b8ff" d="M374.14,-45.7C397.04,-40.56 421.92,-34.98 444.11,-30"/>
<polygon fill="#63b8ff" stroke="#63b8ff" points="373.12,-42.34 364.12,-47.94 374.65,-49.17 373.12,-42.34"/>
</a>
</g>
</g>
</g>
</svg>
