<?xml version="1.0" encoding="UTF-8" standalone="no"?>
<!DOCTYPE svg PUBLIC "-//W3C//DTD SVG 1.1//EN"
 "http://www.w3.org/Graphics/SVG/1.1/DTD/svg11.dtd">
<!-- Generated by graphviz version 2.43.0 (0)
 -->
<!-- Title: com.teragrep.pth_06.Stubbable.isStub Pages: 1 -->
<svg width="1074pt" height="816pt"
 viewBox="0.00 0.00 1074.00 816.00" xmlns="http://www.w3.org/2000/svg" xmlns:xlink="http://www.w3.org/1999/xlink">
<g id="graph0" class="graph" transform="scale(1 1) rotate(0) translate(4 812)">
<title>com.teragrep.pth_06.Stubbable.isStub</title>
<!-- Node1 -->
<g id="Node000001" class="node">
<title>Node1</title>
<g id="a_Node000001"><a xlink:title=" ">
<polygon fill="#999999" stroke="#666666" points="1066,-427.5 863,-427.5 863,-408.5 1066,-408.5 1066,-427.5"/>
<text text-anchor="middle" x="964.5" y="-415.5" font-family="Helvetica,sans-Serif" font-size="10.00">com.teragrep.pth_06.Stubbable.isStub</text>
</a>
</g>
</g>
<!-- Node2 -->
<g id="Node000002" class="node">
<title>Node2</title>
<g id="a_Node000002"><a xlink:href="classcom_1_1teragrep_1_1pth__06_1_1planner_1_1HBaseQueryImpl.html#aa4666d71ea114d0c0074b9c30e800fb7" target="_top" xlink:title=" ">
<polygon fill="white" stroke="#666666" points="552,-808 392,-808 392,-778 552,-778 552,-808"/>
<text text-anchor="start" x="400" y="-796" font-family="Helvetica,sans-Serif" font-size="10.00">com.teragrep.pth_06.planner.</text>
<text text-anchor="middle" x="472" y="-785" font-family="Helvetica,sans-Serif" font-size="10.00">HBaseQueryImpl.hasNext</text>
</a>
</g>
</g>
<!-- Node1&#45;&gt;Node2 -->
<g id="edge1_Node000001_Node000002" class="edge">
<title>Node1&#45;&gt;Node2</title>
<g id="a_edge1_Node000001_Node000002"><a xlink:title=" ">
<path fill="none" stroke="#63b8ff" d="M961.69,-438.01C955.32,-495.77 928.47,-663.65 827,-742 748.49,-802.63 630.12,-807.45 552.2,-802.5"/>
<polygon fill="#63b8ff" stroke="#63b8ff" points="965.21,-438.01 962.73,-427.71 958.25,-437.3 965.21,-438.01"/>
</a>
</g>
</g>
<!-- Node4 -->
<g id="Node000004" class="node">
<title>Node4</title>
<g id="a_Node000004"><a xlink:href="classcom_1_1teragrep_1_1pth__06_1_1planner_1_1HBaseQueryImpl.html#a5a99d0c15e25eab70b9ae20662d988c9" target="_top" xlink:title=" ">
<polygon fill="white" stroke="#666666" points="787.5,-733 627.5,-733 627.5,-703 787.5,-703 787.5,-733"/>
<text text-anchor="start" x="635.5" y="-721" font-family="Helvetica,sans-Serif" font-size="10.00">com.teragrep.pth_06.planner.</text>
<text text-anchor="middle" x="707.5" y="-710" font-family="Helvetica,sans-Serif" font-size="10.00">HBaseQueryImpl.isOpen</text>
</a>
</g>
</g>
<!-- Node1&#45;&gt;Node4 -->
<g id="edge3_Node000001_Node000004" class="edge">
<title>Node1&#45;&gt;Node4</title>
<g id="a_edge3_Node000001_Node000004"><a xlink:title=" ">
<path fill="none" stroke="#63b8ff" d="M959.89,-437.84C949.46,-489.16 914.25,-626.89 827,-694 815.6,-702.77 801.82,-708.56 787.75,-712.34"/>
<polygon fill="#63b8ff" stroke="#63b8ff" points="963.38,-438.24 961.84,-427.75 956.51,-436.91 963.38,-438.24"/>
</a>
</g>
</g>
<!-- Node7 -->
<g id="Node000007" class="node">
<title>Node7</title>
<g id="a_Node000007"><a xlink:href="classcom_1_1teragrep_1_1pth__06_1_1ast_1_1analyze_1_1ScanPlanView.html#aef456f72ac3b4f691579562f88fd6a58" target="_top" xlink:title="Returns results for the next window spanning the given duration in seconds from the last processed ep...">
<polygon fill="white" stroke="#666666" points="797.5,-685 617.5,-685 617.5,-655 797.5,-655 797.5,-685"/>
<text text-anchor="start" x="625.5" y="-673" font-family="Helvetica,sans-Serif" font-size="10.00">com.teragrep.pth_06.ast.analyze.</text>
<text text-anchor="middle" x="707.5" y="-662" font-family="Helvetica,sans-Serif" font-size="10.00">ScanPlanView.nextWindow</text>
</a>
</g>
</g>
<!-- Node1&#45;&gt;Node7 -->
<g id="edge9_Node000001_Node000007" class="edge">
<title>Node1&#45;&gt;Node7</title>
<g id="a_edge9_Node000001_Node000007"><a xlink:title=" ">
<path fill="none" stroke="#63b8ff" d="M957.87,-437.37C943.84,-482 902.86,-592.35 827,-646 818.17,-652.24 808.1,-656.94 797.65,-660.47"/>
<polygon fill="#63b8ff" stroke="#63b8ff" points="961.24,-438.33 960.8,-427.74 954.54,-436.29 961.24,-438.33"/>
</a>
</g>
</g>
<!-- Node8 -->
<g id="Node000008" class="node">
<title>Node8</title>
<g id="a_Node000008"><a xlink:href="classcom_1_1teragrep_1_1pth__06_1_1ast_1_1analyze_1_1ScanPlanView.html#a25a3cb7ec9ecd5785c2d5d71fec42934" target="_top" xlink:title=" ">
<polygon fill="white" stroke="#666666" points="797.5,-637 617.5,-637 617.5,-607 797.5,-607 797.5,-637"/>
<text text-anchor="start" x="625.5" y="-625" font-family="Helvetica,sans-Serif" font-size="10.00">com.teragrep.pth_06.ast.analyze.</text>
<text text-anchor="middle" x="707.5" y="-614" font-family="Helvetica,sans-Serif" font-size="10.00">ScanPlanView.open</text>
</a>
</g>
</g>
<!-- Node1&#45;&gt;Node8 -->
<g id="edge10_Node000001_Node000008" class="edge">
<title>Node1&#45;&gt;Node8</title>
<g id="a_edge10_Node000001_Node000008"><a xlink:title=" ">
<path fill="none" stroke="#63b8ff" d="M954.89,-437.04C936.92,-474.43 891.66,-557.38 827,-598 818.02,-603.64 807.98,-607.99 797.63,-611.33"/>
<polygon fill="#63b8ff" stroke="#63b8ff" points="958.16,-438.31 959.23,-427.77 951.82,-435.34 958.16,-438.31"/>
</a>
</g>
</g>
<!-- Node9 -->
<g id="Node000009" class="node">
<title>Node9</title>
<g id="a_Node000009"><a xlink:href="classcom_1_1teragrep_1_1pth__06_1_1planner_1_1factory_1_1ArchiveQueryFactoryTest.html#af3e29e0f05440d8570c8173ce51eae85" target="_top" xlink:title=" ">
<polygon fill="white" stroke="#666666" points="827,-589 588,-589 588,-559 827,-559 827,-589"/>
<text text-anchor="start" x="596" y="-577" font-family="Helvetica,sans-Serif" font-size="10.00">com.teragrep.pth_06.planner.factory.</text>
<text text-anchor="middle" x="707.5" y="-566" font-family="Helvetica,sans-Serif" font-size="10.00">ArchiveQueryFactoryTest.testArchiveDisabled</text>
</a>
</g>
</g>
<!-- Node1&#45;&gt;Node9 -->
<g id="edge11_Node000001_Node000009" class="edge">
<title>Node1&#45;&gt;Node9</title>
<g id="a_edge11_Node000001_Node000009"><a xlink:title=" ">
<path fill="none" stroke="#63b8ff" d="M950.59,-435.86C928.68,-464.78 881.23,-521.47 827,-550 820.41,-553.47 813.36,-556.44 806.12,-558.98"/>
<polygon fill="#63b8ff" stroke="#63b8ff" points="953.64,-437.64 956.79,-427.52 948.02,-433.46 953.64,-437.64"/>
</a>
</g>
</g>
<!-- Node10 -->
<g id="Node000010" class="node">
<title>Node10</title>
<g id="a_Node000010"><a xlink:href="classcom_1_1teragrep_1_1pth__06_1_1planner_1_1factory_1_1HBaseQueryFactoryTest.html#accb981fefc6d7891c89815cd93dd6d41" target="_top" xlink:title=" ">
<polygon fill="white" stroke="#666666" points="824,-541 591,-541 591,-511 824,-511 824,-541"/>
<text text-anchor="start" x="599" y="-529" font-family="Helvetica,sans-Serif" font-size="10.00">com.teragrep.pth_06.planner.factory.</text>
<text text-anchor="middle" x="707.5" y="-518" font-family="Helvetica,sans-Serif" font-size="10.00">HBaseQueryFactoryTest.testArchiveDisabled</text>
</a>
</g>
</g>
<!-- Node1&#45;&gt;Node10 -->
<g id="edge12_Node000001_Node000010" class="edge">
<title>Node1&#45;&gt;Node10</title>
<g id="a_edge12_Node000001_Node000010"><a xlink:title=" ">
<path fill="none" stroke="#63b8ff" d="M942.87,-433.65C917.11,-452.42 871.06,-483.55 827,-501 817.32,-504.83 806.96,-508.12 796.53,-510.92"/>
<polygon fill="#63b8ff" stroke="#63b8ff" points="945.13,-436.32 951.09,-427.56 940.97,-430.69 945.13,-436.32"/>
</a>
</g>
</g>
<!-- Node11 -->
<g id="Node000011" class="node">
<title>Node11</title>
<g id="a_Node000011"><a xlink:href="classcom_1_1teragrep_1_1pth__06_1_1planner_1_1factory_1_1ArchiveQueryFactoryTest.html#ac8c44578cea9b7e3c2f3df29f1cbdea9" target="_top" xlink:title=" ">
<polygon fill="white" stroke="#666666" points="827,-492.5 588,-492.5 588,-451.5 827,-451.5 827,-492.5"/>
<text text-anchor="start" x="596" y="-480.5" font-family="Helvetica,sans-Serif" font-size="10.00">com.teragrep.pth_06.planner.factory.</text>
<text text-anchor="start" x="596" y="-469.5" font-family="Helvetica,sans-Serif" font-size="10.00">ArchiveQueryFactoryTest.testArchiveDisabled</text>
<text text-anchor="middle" x="707.5" y="-458.5" font-family="Helvetica,sans-Serif" font-size="10.00">WhenHbaseIsEnabled</text>
</a>
</g>
</g>
<!-- Node1&#45;&gt;Node11 -->
<g id="edge13_Node000001_Node000011" class="edge">
<title>Node1&#45;&gt;Node11</title>
<g id="a_edge13_Node000001_Node000011"><a xlink:title=" ">
<path fill="none" stroke="#63b8ff" d="M908.61,-429.62C878.5,-436 840.29,-444.09 805.34,-451.49"/>
<polygon fill="#63b8ff" stroke="#63b8ff" points="909.44,-433.03 918.5,-427.53 907.99,-426.18 909.44,-433.03"/>
</a>
</g>
</g>
<!-- Node12 -->
<g id="Node000012" class="node">
<title>Node12</title>
<g id="a_Node000012"><a xlink:href="classcom_1_1teragrep_1_1pth__06_1_1planner_1_1factory_1_1HBaseQueryFactoryTest.html#a157a28dda969a12f015a663d0783ad34" target="_top" xlink:title=" ">
<polygon fill="white" stroke="#666666" points="819.5,-433 595.5,-433 595.5,-403 819.5,-403 819.5,-433"/>
<text text-anchor="start" x="603.5" y="-421" font-family="Helvetica,sans-Serif" font-size="10.00">com.teragrep.pth_06.planner.factory.</text>
<text text-anchor="middle" x="707.5" y="-410" font-family="Helvetica,sans-Serif" font-size="10.00">HBaseQueryFactoryTest.testHBaseEnabled</text>
</a>
</g>
</g>
<!-- Node1&#45;&gt;Node12 -->
<g id="edge14_Node000001_Node000012" class="edge">
<title>Node1&#45;&gt;Node12</title>
<g id="a_edge14_Node000001_Node000012"><a xlink:title=" ">
<path fill="none" stroke="#63b8ff" d="M852.43,-418C841.64,-418 830.69,-418 819.9,-418"/>
<polygon fill="#63b8ff" stroke="#63b8ff" points="852.72,-421.5 862.72,-418 852.72,-414.5 852.72,-421.5"/>
</a>
</g>
</g>
<!-- Node13 -->
<g id="Node000013" class="node">
<title>Node13</title>
<g id="a_Node000013"><a xlink:href="classcom_1_1teragrep_1_1pth__06_1_1ast_1_1analyze_1_1ScanPlanImplTest.html#a2d60f7b657fa96db2c0f195f1cccdc66" target="_top" xlink:title=" ">
<polygon fill="white" stroke="#666666" points="827,-384.5 588,-384.5 588,-343.5 827,-343.5 827,-384.5"/>
<text text-anchor="start" x="596" y="-372.5" font-family="Helvetica,sans-Serif" font-size="10.00">com.teragrep.pth_06.ast.analyze.</text>
<text text-anchor="start" x="596" y="-361.5" font-family="Helvetica,sans-Serif" font-size="10.00">ScanPlanImplTest.testRangeBetweenUpdated</text>
<text text-anchor="middle" x="707.5" y="-350.5" font-family="Helvetica,sans-Serif" font-size="10.00">EarliestUpdated</text>
</a>
</g>
</g>
<!-- Node1&#45;&gt;Node13 -->
<g id="edge15_Node000001_Node000013" class="edge">
<title>Node1&#45;&gt;Node13</title>
<g id="a_edge15_Node000001_Node000013"><a xlink:title=" ">
<path fill="none" stroke="#63b8ff" d="M908.61,-406.38C878.5,-400 840.29,-391.91 805.34,-384.51"/>
<polygon fill="#63b8ff" stroke="#63b8ff" points="907.99,-409.82 918.5,-408.47 909.44,-402.97 907.99,-409.82"/>
</a>
</g>
</g>
<!-- Node14 -->
<g id="Node000014" class="node">
<title>Node14</title>
<g id="a_Node000014"><a xlink:href="classcom_1_1teragrep_1_1pth__06_1_1ast_1_1analyze_1_1ScanPlanImplTest.html#ab821bbe4d31ba06f4e8b537f7dc9b80d" target="_top" xlink:title=" ">
<polygon fill="white" stroke="#666666" points="827,-325.5 588,-325.5 588,-284.5 827,-284.5 827,-325.5"/>
<text text-anchor="start" x="596" y="-313.5" font-family="Helvetica,sans-Serif" font-size="10.00">com.teragrep.pth_06.ast.analyze.</text>
<text text-anchor="start" x="596" y="-302.5" font-family="Helvetica,sans-Serif" font-size="10.00">ScanPlanImplTest.testRangeBetweenUpdated</text>
<text text-anchor="middle" x="707.5" y="-291.5" font-family="Helvetica,sans-Serif" font-size="10.00">EarliestWithinBounds</text>
</a>
</g>
</g>
<!-- Node1&#45;&gt;Node14 -->
<g id="edge16_Node000001_Node000014" class="edge">
<title>Node1&#45;&gt;Node14</title>
<g id="a_edge16_Node000001_Node000014"><a xlink:title=" ">
<path fill="none" stroke="#63b8ff" d="M942.8,-402.39C916.98,-383.61 870.87,-352.33 827,-334 819.57,-330.9 811.74,-328.08 803.79,-325.52"/>
<polygon fill="#63b8ff" stroke="#63b8ff" points="940.93,-405.35 951.05,-408.47 945.08,-399.72 940.93,-405.35"/>
</a>
</g>
</g>
<!-- Node15 -->
<g id="Node000015" class="node">
<title>Node15</title>
<g id="a_Node000015"><a xlink:href="classcom_1_1teragrep_1_1pth__06_1_1ast_1_1analyze_1_1ScanPlanImplTest.html#a0c7d4fddf372b7a5f43b223b4f803bc6" target="_top" xlink:title=" ">
<polygon fill="white" stroke="#666666" points="827,-266.5 588,-266.5 588,-225.5 827,-225.5 827,-266.5"/>
<text text-anchor="start" x="596" y="-254.5" font-family="Helvetica,sans-Serif" font-size="10.00">com.teragrep.pth_06.ast.analyze.</text>
<text text-anchor="start" x="596" y="-243.5" font-family="Helvetica,sans-Serif" font-size="10.00">ScanPlanImplTest.testRangeBetweenUpdated</text>
<text text-anchor="middle" x="707.5" y="-232.5" font-family="Helvetica,sans-Serif" font-size="10.00">LatestToEarliest</text>
</a>
</g>
</g>
<!-- Node1&#45;&gt;Node15 -->
<g id="edge17_Node000001_Node000015" class="edge">
<title>Node1&#45;&gt;Node15</title>
<g id="a_edge17_Node000001_Node000015"><a xlink:title=" ">
<path fill="none" stroke="#63b8ff" d="M951.41,-399.73C930.08,-369.01 882.73,-307.23 827,-275 821.59,-271.87 815.86,-269.08 809.94,-266.59"/>
<polygon fill="#63b8ff" stroke="#63b8ff" points="948.65,-401.9 957.17,-408.2 954.44,-397.96 948.65,-401.9"/>
</a>
</g>
</g>
<!-- Node16 -->
<g id="Node000016" class="node">
<title>Node16</title>
<g id="a_Node000016"><a xlink:href="classcom_1_1teragrep_1_1pth__06_1_1ast_1_1analyze_1_1ScanPlanImplTest.html#a23bbbea8452c7f5fa341a94bd8aa12a2" target="_top" xlink:title=" ">
<polygon fill="white" stroke="#666666" points="827,-207.5 588,-207.5 588,-166.5 827,-166.5 827,-207.5"/>
<text text-anchor="start" x="596" y="-195.5" font-family="Helvetica,sans-Serif" font-size="10.00">com.teragrep.pth_06.ast.analyze.</text>
<text text-anchor="start" x="596" y="-184.5" font-family="Helvetica,sans-Serif" font-size="10.00">ScanPlanImplTest.testRangeBetweenUpdated</text>
<text text-anchor="middle" x="707.5" y="-173.5" font-family="Helvetica,sans-Serif" font-size="10.00">LatestUpdated</text>
</a>
</g>
</g>
<!-- Node1&#45;&gt;Node16 -->
<g id="edge18_Node000001_Node000016" class="edge">
<title>Node1&#45;&gt;Node16</title>
<g id="a_edge18_Node000001_Node000016"><a xlink:title=" ">
<path fill="none" stroke="#63b8ff" d="M956.09,-398.58C939.53,-357.93 895.55,-263.74 827,-216 822.48,-212.85 817.66,-210.05 812.64,-207.54"/>
<polygon fill="#63b8ff" stroke="#63b8ff" points="952.93,-400.11 959.86,-408.12 959.44,-397.53 952.93,-400.11"/>
</a>
</g>
</g>
<!-- Node17 -->
<g id="Node000017" class="node">
<title>Node17</title>
<g id="a_Node000017"><a xlink:href="classcom_1_1teragrep_1_1pth__06_1_1ast_1_1analyze_1_1ScanPlanImplTest.html#a36678e11f1eb9ba425e323be431443e3" target="_top" xlink:title=" ">
<polygon fill="white" stroke="#666666" points="827,-148.5 588,-148.5 588,-107.5 827,-107.5 827,-148.5"/>
<text text-anchor="start" x="596" y="-136.5" font-family="Helvetica,sans-Serif" font-size="10.00">com.teragrep.pth_06.ast.analyze.</text>
<text text-anchor="start" x="596" y="-125.5" font-family="Helvetica,sans-Serif" font-size="10.00">ScanPlanImplTest.testRangeBetweenUpdated</text>
<text text-anchor="middle" x="707.5" y="-114.5" font-family="Helvetica,sans-Serif" font-size="10.00">LatestWithinBounds</text>
</a>
</g>
</g>
<!-- Node1&#45;&gt;Node17 -->
<g id="edge19_Node000001_Node000017" class="edge">
<title>Node1&#45;&gt;Node17</title>
<g id="a_edge19_Node000001_Node000017"><a xlink:title=" ">
<path fill="none" stroke="#63b8ff" d="M959.16,-398.44C947.25,-349.58 909.35,-221.5 827,-157 823,-153.87 818.71,-151.06 814.21,-148.56"/>
<polygon fill="#63b8ff" stroke="#63b8ff" points="955.79,-399.41 961.47,-408.35 962.6,-397.81 955.79,-399.41"/>
</a>
</g>
</g>
<!-- Node18 -->
<g id="Node000018" class="node">
<title>Node18</title>
<g id="a_Node000018"><a xlink:href="classcom_1_1teragrep_1_1pth__06_1_1ast_1_1analyze_1_1ScanPlanImplTest.html#a6177b1f6c10fee4096f1870ff67f727d" target="_top" xlink:title=" ">
<polygon fill="white" stroke="#666666" points="809,-89.5 606,-89.5 606,-48.5 809,-48.5 809,-89.5"/>
<text text-anchor="start" x="614" y="-77.5" font-family="Helvetica,sans-Serif" font-size="10.00">com.teragrep.pth_06.ast.analyze.</text>
<text text-anchor="start" x="614" y="-66.5" font-family="Helvetica,sans-Serif" font-size="10.00">ScanPlanImplTest.testToRangeOutside</text>
<text text-anchor="middle" x="707.5" y="-55.5" font-family="Helvetica,sans-Serif" font-size="10.00">BoundsStub</text>
</a>
</g>
</g>
<!-- Node1&#45;&gt;Node18 -->
<g id="edge20_Node000001_Node000018" class="edge">
<title>Node1&#45;&gt;Node18</title>
<g id="a_edge20_Node000001_Node000018"><a xlink:title=" ">
<path fill="none" stroke="#63b8ff" d="M961.18,-398.32C953.48,-342.15 923.5,-179.91 827,-98 821.59,-93.41 815.57,-89.52 809.18,-86.23"/>
<polygon fill="#63b8ff" stroke="#63b8ff" points="957.72,-398.88 962.47,-408.35 964.67,-397.99 957.72,-398.88"/>
</a>
</g>
</g>
<!-- Node19 -->
<g id="Node000019" class="node">
<title>Node19</title>
<g id="a_Node000019"><a xlink:href="classcom_1_1teragrep_1_1pth__06_1_1ast_1_1analyze_1_1ScanPlanView.html#ae82b27c34e77ba1efd83f072c8cad179" target="_top" xlink:title="Returns a new ScanRangeView from an updated offset start point.">
<polygon fill="white" stroke="#666666" points="797.5,-30 617.5,-30 617.5,0 797.5,0 797.5,-30"/>
<text text-anchor="start" x="625.5" y="-18" font-family="Helvetica,sans-Serif" font-size="10.00">com.teragrep.pth_06.ast.analyze.</text>
<text text-anchor="middle" x="707.5" y="-7" font-family="Helvetica,sans-Serif" font-size="10.00">ScanPlanView.viewFromOffset</text>
</a>
</g>
</g>
<!-- Node1&#45;&gt;Node19 -->
<g id="edge21_Node000001_Node000019" class="edge">
<title>Node1&#45;&gt;Node19</title>
<g id="a_edge21_Node000001_Node000019"><a xlink:title=" ">
<path fill="none" stroke="#63b8ff" d="M962.79,-397.96C959.41,-334.51 939.85,-136.48 827,-39 818.5,-31.66 808.38,-26.34 797.68,-22.51"/>
<polygon fill="#63b8ff" stroke="#63b8ff" points="959.31,-398.36 963.26,-408.19 966.3,-398.04 959.31,-398.36"/>
</a>
</g>
</g>
<!-- Node3 -->
<g id="Node000003" class="node">
<title>Node3</title>
<g id="a_Node000003"><a xlink:href="classcom_1_1teragrep_1_1pth__06_1_1planner_1_1HBaseQueryImpl.html#a5cc16609895c644b18d504dc49cbcd64" target="_top" xlink:title="Queries results form hbase until the batch limit is reached and updates latest.">
<polygon fill="white" stroke="#666666" points="160,-765 0,-765 0,-735 160,-735 160,-765"/>
<text text-anchor="start" x="8" y="-753" font-family="Helvetica,sans-Serif" font-size="10.00">com.teragrep.pth_06.planner.</text>
<text text-anchor="middle" x="80" y="-742" font-family="Helvetica,sans-Serif" font-size="10.00">HBaseQueryImpl.latest</text>
</a>
</g>
</g>
<!-- Node2&#45;&gt;Node3 -->
<g id="edge2_Node000002_Node000003" class="edge">
<title>Node2&#45;&gt;Node3</title>
<g id="a_edge2_Node000002_Node000003"><a xlink:title=" ">
<path fill="none" stroke="#63b8ff" d="M381.64,-783.94C327.83,-778.4 257.95,-771.04 196,-764 184.41,-762.68 172.17,-761.24 160.16,-759.81"/>
<polygon fill="#63b8ff" stroke="#63b8ff" points="381.53,-787.45 391.84,-784.99 382.25,-780.49 381.53,-787.45"/>
</a>
</g>
</g>
<!-- Node4&#45;&gt;Node3 -->
<g id="edge7_Node000004_Node000003" class="edge">
<title>Node4&#45;&gt;Node3</title>
<g id="a_edge7_Node000004_Node000003"><a xlink:title=" ">
<path fill="none" stroke="#63b8ff" d="M617.14,-726.19C595.81,-727.96 573.11,-729.69 552,-731 414.37,-739.56 253.87,-745.08 160.22,-747.86"/>
<polygon fill="#63b8ff" stroke="#63b8ff" points="617.48,-729.67 627.16,-725.34 616.9,-722.69 617.48,-729.67"/>
</a>
</g>
</g>
<!-- Node5 -->
<g id="Node000005" class="node">
<title>Node5</title>
<g id="a_Node000005"><a xlink:href="classcom_1_1teragrep_1_1pth__06_1_1planner_1_1HBaseQueryImpl.html#a5c2fd9106ed54b76d478cf6af5ac5233" target="_top" xlink:title="Closes all open scans in the hourly slices.">
<polygon fill="white" stroke="#666666" points="552,-722 392,-722 392,-692 552,-692 552,-722"/>
<text text-anchor="start" x="400" y="-710" font-family="Helvetica,sans-Serif" font-size="10.00">com.teragrep.pth_06.planner.</text>
<text text-anchor="middle" x="472" y="-699" font-family="Helvetica,sans-Serif" font-size="10.00">HBaseQueryImpl.close</text>
</a>
</g>
</g>
<!-- Node4&#45;&gt;Node5 -->
<g id="edge4_Node000004_Node000005" class="edge">
<title>Node4&#45;&gt;Node5</title>
<g id="a_edge4_Node000004_Node000005"><a xlink:title=" ">
<path fill="none" stroke="#63b8ff" d="M617.39,-713.8C596,-712.79 573.29,-711.72 552.37,-710.74"/>
<polygon fill="#63b8ff" stroke="#63b8ff" points="617.29,-717.3 627.45,-714.28 617.62,-710.31 617.29,-717.3"/>
</a>
</g>
</g>
<!-- Node6 -->
<g id="Node000006" class="node">
<title>Node6</title>
<g id="a_Node000006"><a xlink:href="classcom_1_1teragrep_1_1pth__06_1_1planner_1_1HBaseQueryImpl.html#aac2c757eda96e3154434977c46d2ac1d" target="_top" xlink:title="Creates open scans for the query, starting from the provided offset.">
<polygon fill="white" stroke="#666666" points="356,-722 196,-722 196,-692 356,-692 356,-722"/>
<text text-anchor="start" x="204" y="-710" font-family="Helvetica,sans-Serif" font-size="10.00">com.teragrep.pth_06.planner.</text>
<text text-anchor="middle" x="276" y="-699" font-family="Helvetica,sans-Serif" font-size="10.00">HBaseQueryImpl.open</text>
</a>
</g>
</g>
<!-- Node4&#45;&gt;Node6 -->
<g id="edge8_Node000004_Node000006" class="edge">
<title>Node4&#45;&gt;Node6</title>
<g id="a_edge8_Node000004_Node000006"><a xlink:title=" ">
<path fill="none" stroke="#63b8ff" d="M617.32,-700.91C607.4,-698.72 597.46,-696.4 588,-694 571.78,-689.89 568.55,-685.47 552,-683 481.67,-672.49 462.74,-675.7 392,-683 374.15,-684.84 354.98,-688.25 337.51,-691.94"/>
<polygon fill="#63b8ff" stroke="#63b8ff" points="616.71,-704.35 627.22,-703.05 618.19,-697.51 616.71,-704.35"/>
</a>
</g>
</g>
<!-- Node5&#45;&gt;Node6 -->
<g id="edge5_Node000005_Node000006" class="edge">
<title>Node5&#45;&gt;Node6</title>
<g id="a_edge5_Node000005_Node000006"><a xlink:title=" ">
<path fill="none" stroke="#63b8ff" d="M381.56,-707C373.12,-707 364.59,-707 356.25,-707"/>
<polygon fill="#63b8ff" stroke="#63b8ff" points="381.81,-710.5 391.81,-707 381.81,-703.5 381.81,-710.5"/>
</a>
</g>
</g>
<!-- Node6&#45;&gt;Node3 -->
<g id="edge6_Node000006_Node000003" class="edge">
<title>Node6&#45;&gt;Node3</title>
<g id="a_edge6_Node000006_Node000003"><a xlink:title=" ">
<path fill="none" stroke="#63b8ff" d="M197.27,-724.23C181.24,-727.78 164.47,-731.5 148.81,-734.97"/>
<polygon fill="#63b8ff" stroke="#63b8ff" points="198.14,-727.62 207.15,-722.04 196.63,-720.79 198.14,-727.62"/>
</a>
</g>
</g>
</g>
</svg>
