<?xml version="1.0" encoding="UTF-8" standalone="no"?>
<!DOCTYPE svg PUBLIC "-//W3C//DTD SVG 1.1//EN"
 "http://www.w3.org/Graphics/SVG/1.1/DTD/svg11.dtd">
<!-- Generated by graphviz version 2.43.0 (0)
 -->
<!-- Title: com.teragrep.pth_06.ast.analyze.ScanPlanImplTest.testRangeBetweenUpdatedLatestUpdated Pages: 1 -->
<svg width="486pt" height="172pt"
 viewBox="0.00 0.00 486.00 172.00" xmlns="http://www.w3.org/2000/svg" xmlns:xlink="http://www.w3.org/1999/xlink">
<g id="graph0" class="graph" transform="scale(1 1) rotate(0) translate(4 168)">
<title>com.teragrep.pth_06.ast.analyze.ScanPlanImplTest.testRangeBetweenUpdatedLatestUpdated</title>
<!-- Node1 -->
<g id="Node000001" class="node">
<title>Node1</title>
<g id="a_Node000001"><a xlink:title=" ">
<polygon fill="#999999" stroke="#666666" points="239,-104.5 0,-104.5 0,-63.5 239,-63.5 239,-104.5"/>
<text text-anchor="start" x="8" y="-92.5" font-family="Helvetica,sans-Serif" font-size="10.00">com.teragrep.pth_06.ast.analyze.</text>
<text text-anchor="start" x="8" y="-81.5" font-family="Helvetica,sans-Serif" font-size="10.00">ScanPlanImplTest.testRangeBetweenUpdated</text>
<text text-anchor="middle" x="119.5" y="-70.5" font-family="Helvetica,sans-Serif" font-size="10.00">LatestUpdated</text>
</a>
</g>
</g>
<!-- Node2 -->
<g id="Node000002" class="node">
<title>Node2</title>
<g id="a_Node000002"><a xlink:href="interfacecom_1_1teragrep_1_1pth__06_1_1ast_1_1analyze_1_1ScanPlan.html#ac8cf71cc89d66b8a712bdb95f4766219" target="_top" xlink:title=" ">
<polygon fill="white" stroke="#666666" points="466.5,-164 286.5,-164 286.5,-134 466.5,-134 466.5,-164"/>
<text text-anchor="start" x="294.5" y="-152" font-family="Helvetica,sans-Serif" font-size="10.00">com.teragrep.pth_06.ast.analyze.</text>
<text text-anchor="middle" x="376.5" y="-141" font-family="Helvetica,sans-Serif" font-size="10.00">ScanPlan.earliest</text>
</a>
</g>
</g>
<!-- Node1&#45;&gt;Node2 -->
<g id="edge1_Node000001_Node000002" class="edge">
<title>Node1&#45;&gt;Node2</title>
<g id="a_edge1_Node000001_Node000002"><a xlink:title=" ">
<path fill="none" stroke="#63b8ff" d="M196.23,-104.5C221.28,-111.17 249.3,-118.52 275,-125 283.53,-127.15 292.48,-129.36 301.38,-131.52"/>
<polygon fill="#63b8ff" stroke="#63b8ff" points="300.83,-134.99 311.37,-133.94 302.48,-128.19 300.83,-134.99"/>
</a>
</g>
</g>
<!-- Node3 -->
<g id="Node000003" class="node">
<title>Node3</title>
<g id="a_Node000003"><a xlink:href="interfacecom_1_1teragrep_1_1pth__06_1_1Stubbable.html#a0901c0a7cde13ff306d455e4009f01cb" target="_top" xlink:title=" ">
<polygon fill="white" stroke="#666666" points="478,-115.5 275,-115.5 275,-96.5 478,-96.5 478,-115.5"/>
<text text-anchor="middle" x="376.5" y="-103.5" font-family="Helvetica,sans-Serif" font-size="10.00">com.teragrep.pth_06.Stubbable.isStub</text>
</a>
</g>
</g>
<!-- Node1&#45;&gt;Node3 -->
<g id="edge2_Node000001_Node000003" class="edge">
<title>Node1&#45;&gt;Node3</title>
<g id="a_edge2_Node000001_Node000003"><a xlink:title=" ">
<path fill="none" stroke="#63b8ff" d="M239.04,-94.23C247.64,-94.97 256.3,-95.72 264.85,-96.45"/>
<polygon fill="#63b8ff" stroke="#63b8ff" points="264.57,-99.94 274.83,-97.31 265.17,-92.97 264.57,-99.94"/>
</a>
</g>
</g>
<!-- Node4 -->
<g id="Node000004" class="node">
<title>Node4</title>
<g id="a_Node000004"><a xlink:href="interfacecom_1_1teragrep_1_1pth__06_1_1ast_1_1analyze_1_1ScanPlan.html#aec1f839cc717eaa9a7aae9776936abb0" target="_top" xlink:title=" ">
<polygon fill="white" stroke="#666666" points="466.5,-78 286.5,-78 286.5,-48 466.5,-48 466.5,-78"/>
<text text-anchor="start" x="294.5" y="-66" font-family="Helvetica,sans-Serif" font-size="10.00">com.teragrep.pth_06.ast.analyze.</text>
<text text-anchor="middle" x="376.5" y="-55" font-family="Helvetica,sans-Serif" font-size="10.00">ScanPlan.latest</text>
</a>
</g>
</g>
<!-- Node1&#45;&gt;Node4 -->
<g id="edge3_Node000001_Node000004" class="edge">
<title>Node1&#45;&gt;Node4</title>
<g id="a_edge3_Node000001_Node000004"><a xlink:title=" ">
<path fill="none" stroke="#63b8ff" d="M239.04,-74.24C251.44,-73.22 263.95,-72.19 276.1,-71.19"/>
<polygon fill="#63b8ff" stroke="#63b8ff" points="276.53,-74.66 286.21,-70.35 275.96,-67.69 276.53,-74.66"/>
</a>
</g>
</g>
<!-- Node5 -->
<g id="Node000005" class="node">
<title>Node5</title>
<g id="a_Node000005"><a xlink:href="interfacecom_1_1teragrep_1_1pth__06_1_1ast_1_1analyze_1_1ScanPlan.html#a4e9eb3e42bbde0815f073f107dc3b180" target="_top" xlink:title="Returns stub when new range is outside the original range.">
<polygon fill="white" stroke="#666666" points="466.5,-30 286.5,-30 286.5,0 466.5,0 466.5,-30"/>
<text text-anchor="start" x="294.5" y="-18" font-family="Helvetica,sans-Serif" font-size="10.00">com.teragrep.pth_06.ast.analyze.</text>
<text text-anchor="middle" x="376.5" y="-7" font-family="Helvetica,sans-Serif" font-size="10.00">ScanPlan.toRangeBetween</text>
</a>
</g>
</g>
<!-- Node1&#45;&gt;Node5 -->
<g id="edge4_Node000001_Node000005" class="edge">
<title>Node1&#45;&gt;Node5</title>
<g id="a_edge4_Node000001_Node000005"><a xlink:title=" ">
<path fill="none" stroke="#63b8ff" d="M188.37,-63.45C215.26,-55.52 246.51,-46.55 275,-39 283.32,-36.8 292.04,-34.58 300.73,-32.43"/>
<polygon fill="#63b8ff" stroke="#63b8ff" points="301.63,-35.81 310.51,-30.03 299.96,-29.01 301.63,-35.81"/>
</a>
</g>
</g>
</g>
</svg>
