<?xml version="1.0" encoding="UTF-8" standalone="no"?>
<!DOCTYPE svg PUBLIC "-//W3C//DTD SVG 1.1//EN"
 "http://www.w3.org/Graphics/SVG/1.1/DTD/svg11.dtd">
<!-- Generated by graphviz version 2.43.0 (0)
 -->
<!-- Title: com.teragrep.pth_06.ast.transform.OptimizedASTTest.testEqualBinaryMembersToValue Pages: 1 -->
<svg width="1614pt" height="427pt"
 viewBox="0.00 0.00 1614.00 427.42" xmlns="http://www.w3.org/2000/svg" xmlns:xlink="http://www.w3.org/1999/xlink">
<g id="graph0" class="graph" transform="scale(1 1) rotate(0) translate(4 423.42)">
<title>com.teragrep.pth_06.ast.transform.OptimizedASTTest.testEqualBinaryMembersToValue</title>
<!-- Node1 -->
<g id="Node000001" class="node">
<title>Node1</title>
<g id="a_Node000001"><a xlink:title=" ">
<polygon fill="#999999" stroke="#666666" points="231,-229.34 0,-229.34 0,-188.34 231,-188.34 231,-229.34"/>
<text text-anchor="start" x="8" y="-217.34" font-family="Helvetica,sans-Serif" font-size="10.00">com.teragrep.pth_06.ast.transform.</text>
<text text-anchor="start" x="8" y="-206.34" font-family="Helvetica,sans-Serif" font-size="10.00">OptimizedASTTest.testEqualBinaryMembers</text>
<text text-anchor="middle" x="115.5" y="-195.34" font-family="Helvetica,sans-Serif" font-size="10.00">ToValue</text>
</a>
</g>
</g>
<!-- Node2 -->
<g id="Node000002" class="node">
<title>Node2</title>
<g id="a_Node000002"><a xlink:href="classcom_1_1teragrep_1_1pth__06_1_1ast_1_1transform_1_1OptimizedAST.html#a05726d2699d7ade747e74de2140c6a41" target="_top" xlink:title=" ">
<polygon fill="white" stroke="#666666" points="457,-223.84 267,-223.84 267,-193.84 457,-193.84 457,-223.84"/>
<text text-anchor="start" x="275" y="-211.84" font-family="Helvetica,sans-Serif" font-size="10.00">com.teragrep.pth_06.ast.transform.</text>
<text text-anchor="middle" x="362" y="-200.84" font-family="Helvetica,sans-Serif" font-size="10.00">OptimizedAST.transformed</text>
</a>
</g>
</g>
<!-- Node1&#45;&gt;Node2 -->
<g id="edge1_Node000001_Node000002" class="edge">
<title>Node1&#45;&gt;Node2</title>
<g id="a_edge1_Node000001_Node000002"><a xlink:title=" ">
<path fill="none" stroke="#63b8ff" d="M231.23,-208.84C239.7,-208.84 248.22,-208.84 256.62,-208.84"/>
<polygon fill="#63b8ff" stroke="#63b8ff" points="256.8,-212.34 266.8,-208.84 256.8,-205.34 256.8,-212.34"/>
</a>
</g>
</g>
<!-- Node3 -->
<g id="Node000003" class="node">
<title>Node3</title>
<g id="a_Node000003"><a xlink:href="classcom_1_1teragrep_1_1pth__06_1_1ast_1_1transform_1_1OptimizedAST.html#ac4ebcab5c55182e969cd03150e96e374" target="_top" xlink:title=" ">
<polygon fill="white" stroke="#666666" points="683,-223.84 493,-223.84 493,-193.84 683,-193.84 683,-223.84"/>
<text text-anchor="start" x="501" y="-211.84" font-family="Helvetica,sans-Serif" font-size="10.00">com.teragrep.pth_06.ast.transform.</text>
<text text-anchor="middle" x="588" y="-200.84" font-family="Helvetica,sans-Serif" font-size="10.00">OptimizedAST.walkAndApply</text>
</a>
</g>
</g>
<!-- Node2&#45;&gt;Node3 -->
<g id="edge2_Node000002_Node000003" class="edge">
<title>Node2&#45;&gt;Node3</title>
<g id="a_edge2_Node000002_Node000003"><a xlink:title=" ">
<path fill="none" stroke="#63b8ff" d="M457.02,-208.84C465.54,-208.84 474.2,-208.84 482.8,-208.84"/>
<polygon fill="#63b8ff" stroke="#63b8ff" points="482.86,-212.34 492.86,-208.84 482.86,-205.34 482.86,-212.34"/>
</a>
</g>
</g>
<!-- Node3&#45;&gt;Node3 -->
<g id="edge40_Node000003_Node000003" class="edge">
<title>Node3&#45;&gt;Node3</title>
<g id="a_edge40_Node000003_Node000003"><a xlink:title=" ">
<path fill="none" stroke="#63b8ff" d="M548.27,-224.11C539.45,-233.24 552.69,-241.84 588,-241.84 608.97,-241.84 622.15,-238.81 627.56,-234.43"/>
<polygon fill="#63b8ff" stroke="#63b8ff" points="631.06,-234.17 627.73,-224.11 624.06,-234.05 631.06,-234.17"/>
</a>
</g>
</g>
<!-- Node4 -->
<g id="Node000004" class="node">
<title>Node4</title>
<g id="a_Node000004"><a xlink:href="interfacecom_1_1teragrep_1_1pth__06_1_1ast_1_1Expression.html#a17e7d33905be57c6e22e1717da6ddef6" target="_top" xlink:title=" ">
<polygon fill="white" stroke="#666666" points="1602.5,-271.84 1463.5,-271.84 1463.5,-241.84 1602.5,-241.84 1602.5,-271.84"/>
<text text-anchor="start" x="1471.5" y="-259.84" font-family="Helvetica,sans-Serif" font-size="10.00">com.teragrep.pth_06.ast.</text>
<text text-anchor="middle" x="1533" y="-248.84" font-family="Helvetica,sans-Serif" font-size="10.00">Expression.asLogical</text>
</a>
</g>
</g>
<!-- Node3&#45;&gt;Node4 -->
<g id="edge3_Node000003_Node000004" class="edge">
<title>Node3&#45;&gt;Node4</title>
<g id="a_edge3_Node000003_Node000004"><a xlink:title=" ">
<path fill="none" stroke="#63b8ff" d="M624.4,-223.88C692.92,-252.38 848.98,-314.28 986,-346.84 1084.58,-370.26 1110.89,-370.16 1212,-376.84 1306.02,-383.05 1346.56,-430.51 1424,-376.84 1461.45,-350.88 1427.19,-312.46 1460,-280.84 1461.13,-279.75 1462.3,-278.71 1463.52,-277.72"/>
<polygon fill="#63b8ff" stroke="#63b8ff" points="1465.85,-280.38 1472.13,-271.85 1461.9,-274.6 1465.85,-280.38"/>
</a>
</g>
</g>
<!-- Node5 -->
<g id="Node000005" class="node">
<title>Node5</title>
<g id="a_Node000005"><a xlink:href="interfacecom_1_1teragrep_1_1pth__06_1_1ast_1_1LogicalExpression.html#aeaf8fe296c6899792f345659a9a6c0c4" target="_top" xlink:title=" ">
<polygon fill="white" stroke="#666666" points="1606,-223.84 1460,-223.84 1460,-193.84 1606,-193.84 1606,-223.84"/>
<text text-anchor="start" x="1468" y="-211.84" font-family="Helvetica,sans-Serif" font-size="10.00">com.teragrep.pth_06.ast.</text>
<text text-anchor="middle" x="1533" y="-200.84" font-family="Helvetica,sans-Serif" font-size="10.00">LogicalExpression.children</text>
</a>
</g>
</g>
<!-- Node3&#45;&gt;Node5 -->
<g id="edge4_Node000003_Node000005" class="edge">
<title>Node3&#45;&gt;Node5</title>
<g id="a_edge4_Node000003_Node000005"><a xlink:title=" ">
<path fill="none" stroke="#63b8ff" d="M613.35,-193.65C719.57,-129.52 1149.26,107.71 1424,-70.84 1457.03,-92.3 1435.86,-120.71 1460,-151.84 1470.66,-165.58 1485.31,-177.96 1498.62,-187.65"/>
<polygon fill="#63b8ff" stroke="#63b8ff" points="1496.91,-190.73 1507.11,-193.61 1500.93,-185 1496.91,-190.73"/>
</a>
</g>
</g>
<!-- Node6 -->
<g id="Node000006" class="node">
<title>Node6</title>
<g id="a_Node000006"><a xlink:href="interfacecom_1_1teragrep_1_1pth__06_1_1ast_1_1Expression.html#a65ee7f5fb98e4129018f467a53586842" target="_top" xlink:title=" ">
<polygon fill="white" stroke="#666666" points="1602.5,-142.84 1463.5,-142.84 1463.5,-112.84 1602.5,-112.84 1602.5,-142.84"/>
<text text-anchor="start" x="1471.5" y="-130.84" font-family="Helvetica,sans-Serif" font-size="10.00">com.teragrep.pth_06.ast.</text>
<text text-anchor="middle" x="1533" y="-119.84" font-family="Helvetica,sans-Serif" font-size="10.00">Expression.isLogical</text>
</a>
</g>
</g>
<!-- Node3&#45;&gt;Node6 -->
<g id="edge5_Node000003_Node000006" class="edge">
<title>Node3&#45;&gt;Node6</title>
<g id="a_edge5_Node000003_Node000006"><a xlink:title=" ">
<path fill="none" stroke="#63b8ff" d="M595.8,-193.58C611.79,-159.65 655.31,-78.04 719,-40.84 822.56,19.65 866.39,-10.53 986,-1.84 1027.73,1.19 1419.04,-0.55 1424,-2.84 1469.14,-23.6 1502.65,-73.51 1519.59,-103.61"/>
<polygon fill="#63b8ff" stroke="#63b8ff" points="1516.65,-105.51 1524.5,-112.62 1522.79,-102.16 1516.65,-105.51"/>
</a>
</g>
</g>
<!-- Node7 -->
<g id="Node000007" class="node">
<title>Node7</title>
<g id="a_Node000007"><a xlink:href="interfacecom_1_1teragrep_1_1pth__06_1_1ast_1_1Expression.html#a8b9661253a3610b9eb148ee29ca8b7e1" target="_top" xlink:title=" ">
<polygon fill="white" stroke="#666666" points="1602.5,-319.84 1463.5,-319.84 1463.5,-289.84 1602.5,-289.84 1602.5,-319.84"/>
<text text-anchor="start" x="1471.5" y="-307.84" font-family="Helvetica,sans-Serif" font-size="10.00">com.teragrep.pth_06.ast.</text>
<text text-anchor="middle" x="1533" y="-296.84" font-family="Helvetica,sans-Serif" font-size="10.00">Expression.tag</text>
</a>
</g>
</g>
<!-- Node3&#45;&gt;Node7 -->
<g id="edge6_Node000003_Node000007" class="edge">
<title>Node3&#45;&gt;Node7</title>
<g id="a_edge6_Node000003_Node000007"><a xlink:title=" ">
<path fill="none" stroke="#63b8ff" d="M603.43,-224.15C625.91,-247.05 671.63,-289.97 719,-312.84 919.59,-409.65 989.72,-388.63 1212,-402.84 1306.03,-408.84 1336.1,-436.77 1424,-402.84 1462.66,-387.91 1496.04,-352 1515.08,-328.05"/>
<polygon fill="#63b8ff" stroke="#63b8ff" points="1517.86,-330.18 1521.21,-320.13 1512.32,-325.9 1517.86,-330.18"/>
</a>
</g>
</g>
<!-- Node8 -->
<g id="Node000008" class="node">
<title>Node8</title>
<g id="a_Node000008"><a xlink:href="classcom_1_1teragrep_1_1pth__06_1_1ast_1_1transform_1_1OptimizedAST.html#a77542c0b232d1e10e50a9846e1845b10" target="_top" xlink:title=" ">
<polygon fill="white" stroke="#666666" points="950,-223.84 719,-223.84 719,-193.84 950,-193.84 950,-223.84"/>
<text text-anchor="start" x="727" y="-211.84" font-family="Helvetica,sans-Serif" font-size="10.00">com.teragrep.pth_06.ast.transform.</text>
<text text-anchor="middle" x="834.5" y="-200.84" font-family="Helvetica,sans-Serif" font-size="10.00">OptimizedAST.transformedSingleExpression</text>
</a>
</g>
</g>
<!-- Node3&#45;&gt;Node8 -->
<g id="edge7_Node000003_Node000008" class="edge">
<title>Node3&#45;&gt;Node8</title>
<g id="a_edge7_Node000003_Node000008"><a xlink:title=" ">
<path fill="none" stroke="#63b8ff" d="M683.18,-208.84C691.59,-208.84 700.19,-208.84 708.81,-208.84"/>
<polygon fill="#63b8ff" stroke="#63b8ff" points="708.92,-212.34 718.92,-208.84 708.92,-205.34 708.92,-212.34"/>
</a>
</g>
</g>
<!-- Node9 -->
<g id="Node000009" class="node">
<title>Node9</title>
<g id="a_Node000009"><a xlink:href="classcom_1_1teragrep_1_1pth__06_1_1ast_1_1transform_1_1EmptyPruned.html#a8cfebc9854b0ad9a7cbe81918392e036" target="_top" xlink:title=" ">
<polygon fill="white" stroke="#666666" points="1413,-175.84 1223,-175.84 1223,-145.84 1413,-145.84 1413,-175.84"/>
<text text-anchor="start" x="1231" y="-163.84" font-family="Helvetica,sans-Serif" font-size="10.00">com.teragrep.pth_06.ast.transform.</text>
<text text-anchor="middle" x="1318" y="-152.84" font-family="Helvetica,sans-Serif" font-size="10.00">EmptyPruned.transformed</text>
</a>
</g>
</g>
<!-- Node8&#45;&gt;Node9 -->
<g id="edge8_Node000008_Node000009" class="edge">
<title>Node8&#45;&gt;Node9</title>
<g id="a_edge8_Node000008_Node000009"><a xlink:title=" ">
<path fill="none" stroke="#63b8ff" d="M950.22,-197.4C1029.95,-189.45 1135.36,-178.94 1212.71,-171.23"/>
<polygon fill="#63b8ff" stroke="#63b8ff" points="1213.35,-174.69 1222.95,-170.21 1212.66,-167.72 1213.35,-174.69"/>
</a>
</g>
</g>
<!-- Node10 -->
<g id="Node000010" class="node">
<title>Node10</title>
<g id="a_Node000010"><a xlink:href="classcom_1_1teragrep_1_1pth__06_1_1ast_1_1transform_1_1FlattenLogical.html#a2e1717ad6884eea7a2415aa7763eaed5" target="_top" xlink:title=" ">
<polygon fill="white" stroke="#666666" points="1176,-319.84 986,-319.84 986,-289.84 1176,-289.84 1176,-319.84"/>
<text text-anchor="start" x="994" y="-307.84" font-family="Helvetica,sans-Serif" font-size="10.00">com.teragrep.pth_06.ast.transform.</text>
<text text-anchor="middle" x="1081" y="-296.84" font-family="Helvetica,sans-Serif" font-size="10.00">FlattenLogical.transformed</text>
</a>
</g>
</g>
<!-- Node8&#45;&gt;Node10 -->
<g id="edge13_Node000008_Node000010" class="edge">
<title>Node8&#45;&gt;Node10</title>
<g id="a_edge13_Node000008_Node000010"><a xlink:title=" ">
<path fill="none" stroke="#63b8ff" d="M873.7,-223.84C916.46,-240.62 985.8,-267.85 1032.14,-286.05"/>
<polygon fill="#63b8ff" stroke="#63b8ff" points="1031.08,-289.39 1041.66,-289.78 1033.63,-282.87 1031.08,-289.39"/>
</a>
</g>
</g>
<!-- Node13 -->
<g id="Node000013" class="node">
<title>Node13</title>
<g id="a_Node000013"><a xlink:href="classcom_1_1teragrep_1_1pth__06_1_1ast_1_1transform_1_1IdentitySimplification.html#a2e7ebae3195ee7794364c646e783c6d3" target="_top" xlink:title=" ">
<polygon fill="white" stroke="#666666" points="1413,-109.84 1223,-109.84 1223,-79.84 1413,-79.84 1413,-109.84"/>
<text text-anchor="start" x="1231" y="-97.84" font-family="Helvetica,sans-Serif" font-size="10.00">com.teragrep.pth_06.ast.transform.</text>
<text text-anchor="middle" x="1318" y="-86.84" font-family="Helvetica,sans-Serif" font-size="10.00">IdentitySimplification.transformed</text>
</a>
</g>
</g>
<!-- Node8&#45;&gt;Node13 -->
<g id="edge25_Node000008_Node000013" class="edge">
<title>Node8&#45;&gt;Node13</title>
<g id="a_edge25_Node000008_Node000013"><a xlink:title=" ">
<path fill="none" stroke="#63b8ff" d="M893.68,-193.84C921.57,-186.72 955.48,-178.19 986,-170.84 1072.69,-149.94 1172.47,-127.21 1239.62,-112.11"/>
<polygon fill="#63b8ff" stroke="#63b8ff" points="1240.71,-115.45 1249.7,-109.84 1239.18,-108.62 1240.71,-115.45"/>
</a>
</g>
</g>
<!-- Node14 -->
<g id="Node000014" class="node">
<title>Node14</title>
<g id="a_Node000014"><a xlink:href="classcom_1_1teragrep_1_1pth__06_1_1ast_1_1transform_1_1PrunedInvalidTimeQualifier.html#a390e2447fa0ee0e2964ba44d68710b37" target="_top" xlink:title=" ">
<polygon fill="white" stroke="#666666" points="1424,-271.84 1212,-271.84 1212,-241.84 1424,-241.84 1424,-271.84"/>
<text text-anchor="start" x="1220" y="-259.84" font-family="Helvetica,sans-Serif" font-size="10.00">com.teragrep.pth_06.ast.transform.</text>
<text text-anchor="middle" x="1318" y="-248.84" font-family="Helvetica,sans-Serif" font-size="10.00">PrunedInvalidTimeQualifier.transformed</text>
</a>
</g>
</g>
<!-- Node8&#45;&gt;Node14 -->
<g id="edge30_Node000008_Node000014" class="edge">
<title>Node8&#45;&gt;Node14</title>
<g id="a_edge30_Node000008_Node000014"><a xlink:title=" ">
<path fill="none" stroke="#63b8ff" d="M950.22,-220.27C1026.22,-227.85 1125.56,-237.75 1201.68,-245.34"/>
<polygon fill="#63b8ff" stroke="#63b8ff" points="1201.5,-248.84 1211.79,-246.35 1202.19,-241.87 1201.5,-248.84"/>
</a>
</g>
</g>
<!-- Node15 -->
<g id="Node000015" class="node">
<title>Node15</title>
<g id="a_Node000015"><a xlink:href="classcom_1_1teragrep_1_1pth__06_1_1ast_1_1transform_1_1UniqueChildren.html#a39304f06c8b7ac1e1a23463fe502028e" target="_top" xlink:title=" ">
<polygon fill="white" stroke="#666666" points="1413,-223.84 1223,-223.84 1223,-193.84 1413,-193.84 1413,-223.84"/>
<text text-anchor="start" x="1231" y="-211.84" font-family="Helvetica,sans-Serif" font-size="10.00">com.teragrep.pth_06.ast.transform.</text>
<text text-anchor="middle" x="1318" y="-200.84" font-family="Helvetica,sans-Serif" font-size="10.00">UniqueChildren.transformed</text>
</a>
</g>
</g>
<!-- Node8&#45;&gt;Node15 -->
<g id="edge35_Node000008_Node000015" class="edge">
<title>Node8&#45;&gt;Node15</title>
<g id="a_edge35_Node000008_Node000015"><a xlink:title=" ">
<path fill="none" stroke="#63b8ff" d="M950.22,-208.84C1029.95,-208.84 1135.36,-208.84 1212.71,-208.84"/>
<polygon fill="#63b8ff" stroke="#63b8ff" points="1212.95,-212.34 1222.95,-208.84 1212.95,-205.34 1212.95,-212.34"/>
</a>
</g>
</g>
<!-- Node9&#45;&gt;Node4 -->
<g id="edge9_Node000009_Node000004" class="edge">
<title>Node9&#45;&gt;Node4</title>
<g id="a_edge9_Node000009_Node000004"><a xlink:title=" ">
<path fill="none" stroke="#63b8ff" d="M1406.91,-175.87C1412.9,-178.41 1418.67,-181.37 1424,-184.84 1446.36,-199.36 1438.37,-217.24 1460,-232.84 1462.06,-234.32 1464.21,-235.72 1466.44,-237.03"/>
<polygon fill="#63b8ff" stroke="#63b8ff" points="1464.85,-240.14 1475.33,-241.69 1468.1,-233.95 1464.85,-240.14"/>
</a>
</g>
</g>
<!-- Node9&#45;&gt;Node5 -->
<g id="edge10_Node000009_Node000005" class="edge">
<title>Node9&#45;&gt;Node5</title>
<g id="a_edge10_Node000009_Node000005"><a xlink:title=" ">
<path fill="none" stroke="#63b8ff" d="M1385.81,-175.89C1407.92,-180.87 1432.68,-186.46 1455.46,-191.59"/>
<polygon fill="#63b8ff" stroke="#63b8ff" points="1454.9,-195.05 1465.43,-193.83 1456.44,-188.22 1454.9,-195.05"/>
</a>
</g>
</g>
<!-- Node9&#45;&gt;Node6 -->
<g id="edge11_Node000009_Node000006" class="edge">
<title>Node9&#45;&gt;Node6</title>
<g id="a_edge11_Node000009_Node000006"><a xlink:title=" ">
<path fill="none" stroke="#63b8ff" d="M1413.04,-146.27C1426.54,-144.17 1440.31,-142.04 1453.47,-140"/>
<polygon fill="#63b8ff" stroke="#63b8ff" points="1454.05,-143.46 1463.4,-138.47 1452.98,-136.54 1454.05,-143.46"/>
</a>
</g>
</g>
<!-- Node9&#45;&gt;Node7 -->
<g id="edge12_Node000009_Node000007" class="edge">
<title>Node9&#45;&gt;Node7</title>
<g id="a_edge12_Node000009_Node000007"><a xlink:title=" ">
<path fill="none" stroke="#63b8ff" d="M1411.13,-175.84C1415.72,-178.41 1420.06,-181.39 1424,-184.84 1458.31,-214.83 1427.19,-249.22 1460,-280.84 1461.13,-281.92 1462.3,-282.96 1463.52,-283.95"/>
<polygon fill="#63b8ff" stroke="#63b8ff" points="1461.9,-287.08 1472.13,-289.82 1465.85,-281.3 1461.9,-287.08"/>
</a>
</g>
</g>
<!-- Node10&#45;&gt;Node6 -->
<g id="edge22_Node000010_Node000006" class="edge">
<title>Node10&#45;&gt;Node6</title>
<g id="a_edge22_Node000010_Node000006"><a xlink:title=" ">
<path fill="none" stroke="#63b8ff" d="M1084.94,-289.68C1094.29,-246.08 1127.89,-120.33 1212,-70.84 1293.21,-23.05 1332.54,-48.18 1424,-70.84 1452.45,-77.88 1481.67,-93.94 1502.53,-107.23"/>
<polygon fill="#63b8ff" stroke="#63b8ff" points="1500.65,-110.17 1510.93,-112.71 1504.47,-104.31 1500.65,-110.17"/>
</a>
</g>
</g>
<!-- Node10&#45;&gt;Node7 -->
<g id="edge23_Node000010_Node000007" class="edge">
<title>Node10&#45;&gt;Node7</title>
<g id="a_edge23_Node000010_Node000007"><a xlink:title=" ">
<path fill="none" stroke="#63b8ff" d="M1101.78,-320.04C1126.14,-337.71 1169.54,-365.86 1212,-376.84 1303.23,-400.41 1333.82,-404.14 1424,-376.84 1456.37,-367.04 1487.9,-343.98 1508.46,-326.58"/>
<polygon fill="#63b8ff" stroke="#63b8ff" points="1510.78,-329.2 1516.04,-320 1506.19,-323.91 1510.78,-329.2"/>
</a>
</g>
</g>
<!-- Node10&#45;&gt;Node10 -->
<g id="edge24_Node000010_Node000010" class="edge">
<title>Node10&#45;&gt;Node10</title>
<g id="a_edge24_Node000010_Node000010"><a xlink:title=" ">
<path fill="none" stroke="#63b8ff" d="M1039.52,-320.11C1030.3,-329.24 1044.12,-337.84 1081,-337.84 1102.89,-337.84 1116.66,-334.81 1122.31,-330.43"/>
<polygon fill="#63b8ff" stroke="#63b8ff" points="1125.81,-330.17 1122.48,-320.11 1118.81,-330.05 1125.81,-330.17"/>
</a>
</g>
</g>
<!-- Node11 -->
<g id="Node000011" class="node">
<title>Node11</title>
<g id="a_Node000011"><a xlink:href="classcom_1_1teragrep_1_1pth__06_1_1ast_1_1transform_1_1FlattenLogical.html#a3b9085857dc57e88c58a6fa5a057f103" target="_top" xlink:title=" ">
<polygon fill="white" stroke="#666666" points="1413.5,-319.84 1222.5,-319.84 1222.5,-289.84 1413.5,-289.84 1413.5,-319.84"/>
<text text-anchor="start" x="1230.5" y="-307.84" font-family="Helvetica,sans-Serif" font-size="10.00">com.teragrep.pth_06.ast.transform.</text>
<text text-anchor="middle" x="1318" y="-296.84" font-family="Helvetica,sans-Serif" font-size="10.00">FlattenLogical.flattenedAndChildren</text>
</a>
</g>
</g>
<!-- Node10&#45;&gt;Node11 -->
<g id="edge14_Node000010_Node000011" class="edge">
<title>Node10&#45;&gt;Node11</title>
<g id="a_edge14_Node000010_Node000011"><a xlink:title=" ">
<path fill="none" stroke="#63b8ff" d="M1176.23,-304.84C1188.1,-304.84 1200.3,-304.84 1212.32,-304.84"/>
<polygon fill="#63b8ff" stroke="#63b8ff" points="1212.37,-308.34 1222.37,-304.84 1212.37,-301.34 1212.37,-308.34"/>
</a>
</g>
</g>
<!-- Node12 -->
<g id="Node000012" class="node">
<title>Node12</title>
<g id="a_Node000012"><a xlink:href="classcom_1_1teragrep_1_1pth__06_1_1ast_1_1transform_1_1FlattenLogical.html#ae0b8acc47ab74872494d07da365e303b" target="_top" xlink:title=" ">
<polygon fill="white" stroke="#666666" points="1413,-367.84 1223,-367.84 1223,-337.84 1413,-337.84 1413,-367.84"/>
<text text-anchor="start" x="1231" y="-355.84" font-family="Helvetica,sans-Serif" font-size="10.00">com.teragrep.pth_06.ast.transform.</text>
<text text-anchor="middle" x="1318" y="-344.84" font-family="Helvetica,sans-Serif" font-size="10.00">FlattenLogical.flattenedOrChildren</text>
</a>
</g>
</g>
<!-- Node10&#45;&gt;Node12 -->
<g id="edge18_Node000010_Node000012" class="edge">
<title>Node10&#45;&gt;Node12</title>
<g id="a_edge18_Node000010_Node000012"><a xlink:title=" ">
<path fill="none" stroke="#63b8ff" d="M1155.71,-319.89C1180.43,-324.94 1208.16,-330.61 1233.57,-335.8"/>
<polygon fill="#63b8ff" stroke="#63b8ff" points="1233.05,-339.26 1243.55,-337.83 1234.45,-332.4 1233.05,-339.26"/>
</a>
</g>
</g>
<!-- Node11&#45;&gt;Node4 -->
<g id="edge15_Node000011_Node000004" class="edge">
<title>Node11&#45;&gt;Node4</title>
<g id="a_edge15_Node000011_Node000004"><a xlink:title=" ">
<path fill="none" stroke="#63b8ff" d="M1385.81,-289.78C1407.92,-284.8 1432.68,-279.22 1455.46,-274.08"/>
<polygon fill="#63b8ff" stroke="#63b8ff" points="1456.44,-277.45 1465.43,-271.84 1454.9,-270.62 1456.44,-277.45"/>
</a>
</g>
</g>
<!-- Node11&#45;&gt;Node5 -->
<g id="edge16_Node000011_Node000005" class="edge">
<title>Node11&#45;&gt;Node5</title>
<g id="a_edge16_Node000011_Node000005"><a xlink:title=" ">
<path fill="none" stroke="#63b8ff" d="M1406.91,-289.81C1412.9,-287.27 1418.67,-284.3 1424,-280.84 1446.36,-266.31 1438.37,-248.43 1460,-232.84 1462.06,-231.35 1464.21,-229.96 1466.44,-228.64"/>
<polygon fill="#63b8ff" stroke="#63b8ff" points="1468.1,-231.73 1475.33,-223.98 1464.85,-225.53 1468.1,-231.73"/>
</a>
</g>
</g>
<!-- Node11&#45;&gt;Node7 -->
<g id="edge17_Node000011_Node000007" class="edge">
<title>Node11&#45;&gt;Node7</title>
<g id="a_edge17_Node000011_Node000007"><a xlink:title=" ">
<path fill="none" stroke="#63b8ff" d="M1413.67,-304.84C1426.9,-304.84 1440.39,-304.84 1453.29,-304.84"/>
<polygon fill="#63b8ff" stroke="#63b8ff" points="1453.49,-308.34 1463.49,-304.84 1453.49,-301.34 1453.49,-308.34"/>
</a>
</g>
</g>
<!-- Node12&#45;&gt;Node4 -->
<g id="edge19_Node000012_Node000004" class="edge">
<title>Node12&#45;&gt;Node4</title>
<g id="a_edge19_Node000012_Node000004"><a xlink:title=" ">
<path fill="none" stroke="#63b8ff" d="M1406.91,-337.81C1412.9,-335.27 1418.67,-332.3 1424,-328.84 1446.36,-314.31 1438.37,-296.43 1460,-280.84 1462.06,-279.35 1464.21,-277.96 1466.44,-276.64"/>
<polygon fill="#63b8ff" stroke="#63b8ff" points="1468.1,-279.73 1475.33,-271.98 1464.85,-273.53 1468.1,-279.73"/>
</a>
</g>
</g>
<!-- Node12&#45;&gt;Node5 -->
<g id="edge20_Node000012_Node000005" class="edge">
<title>Node12&#45;&gt;Node5</title>
<g id="a_edge20_Node000012_Node000005"><a xlink:title=" ">
<path fill="none" stroke="#63b8ff" d="M1411.13,-337.84C1415.72,-335.26 1420.06,-332.28 1424,-328.84 1458.31,-298.85 1427.19,-264.46 1460,-232.84 1461.13,-231.75 1462.3,-230.71 1463.52,-229.72"/>
<polygon fill="#63b8ff" stroke="#63b8ff" points="1465.85,-232.38 1472.13,-223.85 1461.9,-226.6 1465.85,-232.38"/>
</a>
</g>
</g>
<!-- Node12&#45;&gt;Node7 -->
<g id="edge21_Node000012_Node000007" class="edge">
<title>Node12&#45;&gt;Node7</title>
<g id="a_edge21_Node000012_Node000007"><a xlink:title=" ">
<path fill="none" stroke="#63b8ff" d="M1385.81,-337.78C1407.92,-332.8 1432.68,-327.22 1455.46,-322.08"/>
<polygon fill="#63b8ff" stroke="#63b8ff" points="1456.44,-325.45 1465.43,-319.84 1454.9,-318.62 1456.44,-325.45"/>
</a>
</g>
</g>
<!-- Node13&#45;&gt;Node4 -->
<g id="edge26_Node000013_Node000004" class="edge">
<title>Node13&#45;&gt;Node4</title>
<g id="a_edge26_Node000013_Node000004"><a xlink:title=" ">
<path fill="none" stroke="#63b8ff" d="M1381.06,-109.94C1396.65,-116.17 1412.26,-124.84 1424,-136.84 1455.87,-169.41 1427.19,-201.22 1460,-232.84 1461.13,-233.92 1462.3,-234.96 1463.52,-235.95"/>
<polygon fill="#63b8ff" stroke="#63b8ff" points="1461.9,-239.08 1472.13,-241.82 1465.85,-233.3 1461.9,-239.08"/>
</a>
</g>
</g>
<!-- Node13&#45;&gt;Node5 -->
<g id="edge27_Node000013_Node000005" class="edge">
<title>Node13&#45;&gt;Node5</title>
<g id="a_edge27_Node000013_Node000005"><a xlink:title=" ">
<path fill="none" stroke="#63b8ff" d="M1362.31,-109.84C1381.61,-117.11 1404.37,-126.51 1424,-136.84 1452.4,-151.77 1482.61,-172.37 1503.84,-187.71"/>
<polygon fill="#63b8ff" stroke="#63b8ff" points="1501.94,-190.65 1512.08,-193.72 1506.06,-184.99 1501.94,-190.65"/>
</a>
</g>
</g>
<!-- Node13&#45;&gt;Node6 -->
<g id="edge28_Node000013_Node000006" class="edge">
<title>Node13&#45;&gt;Node6</title>
<g id="a_edge28_Node000013_Node000006"><a xlink:title=" ">
<path fill="none" stroke="#63b8ff" d="M1413.04,-109.41C1426.54,-111.5 1440.31,-113.63 1453.47,-115.67"/>
<polygon fill="#63b8ff" stroke="#63b8ff" points="1452.98,-119.14 1463.4,-117.21 1454.05,-112.22 1452.98,-119.14"/>
</a>
</g>
</g>
<!-- Node13&#45;&gt;Node13 -->
<g id="edge29_Node000013_Node000013" class="edge">
<title>Node13&#45;&gt;Node13</title>
<g id="a_edge29_Node000013_Node000013"><a xlink:title=" ">
<path fill="none" stroke="#63b8ff" d="M1280.38,-110.11C1272.02,-119.24 1284.56,-127.84 1318,-127.84 1337.85,-127.84 1350.34,-124.81 1355.46,-120.43"/>
<polygon fill="#63b8ff" stroke="#63b8ff" points="1358.96,-120.16 1355.62,-110.11 1351.96,-120.06 1358.96,-120.16"/>
</a>
</g>
</g>
<!-- Node14&#45;&gt;Node4 -->
<g id="edge31_Node000014_Node000004" class="edge">
<title>Node14&#45;&gt;Node4</title>
<g id="a_edge31_Node000014_Node000004"><a xlink:title=" ">
<path fill="none" stroke="#63b8ff" d="M1424.25,-256.84C1434.03,-256.84 1443.82,-256.84 1453.29,-256.84"/>
<polygon fill="#63b8ff" stroke="#63b8ff" points="1453.43,-260.34 1463.43,-256.84 1453.43,-253.34 1453.43,-260.34"/>
</a>
</g>
</g>
<!-- Node14&#45;&gt;Node5 -->
<g id="edge32_Node000014_Node000005" class="edge">
<title>Node14&#45;&gt;Node5</title>
<g id="a_edge32_Node000014_Node000005"><a xlink:title=" ">
<path fill="none" stroke="#63b8ff" d="M1385.81,-241.78C1407.92,-236.8 1432.68,-231.22 1455.46,-226.08"/>
<polygon fill="#63b8ff" stroke="#63b8ff" points="1456.44,-229.45 1465.43,-223.84 1454.9,-222.62 1456.44,-229.45"/>
</a>
</g>
</g>
<!-- Node14&#45;&gt;Node6 -->
<g id="edge33_Node000014_Node000006" class="edge">
<title>Node14&#45;&gt;Node6</title>
<g id="a_edge33_Node000014_Node000006"><a xlink:title=" ">
<path fill="none" stroke="#63b8ff" d="M1406.91,-241.81C1412.9,-239.27 1418.67,-236.3 1424,-232.84 1446.36,-218.31 1441.39,-203.94 1460,-184.84 1472.71,-171.79 1488.42,-159.03 1501.92,-148.9"/>
<polygon fill="#63b8ff" stroke="#63b8ff" points="1504.02,-151.71 1510,-142.96 1499.87,-146.07 1504.02,-151.71"/>
</a>
</g>
</g>
<!-- Node14&#45;&gt;Node7 -->
<g id="edge34_Node000014_Node000007" class="edge">
<title>Node14&#45;&gt;Node7</title>
<g id="a_edge34_Node000014_Node000007"><a xlink:title=" ">
<path fill="none" stroke="#63b8ff" d="M1385.81,-271.89C1407.92,-276.87 1432.68,-282.46 1455.46,-287.59"/>
<polygon fill="#63b8ff" stroke="#63b8ff" points="1454.9,-291.05 1465.43,-289.83 1456.44,-284.22 1454.9,-291.05"/>
</a>
</g>
</g>
<!-- Node15&#45;&gt;Node4 -->
<g id="edge36_Node000015_Node000004" class="edge">
<title>Node15&#45;&gt;Node4</title>
<g id="a_edge36_Node000015_Node000004"><a xlink:title=" ">
<path fill="none" stroke="#63b8ff" d="M1385.81,-223.89C1407.92,-228.87 1432.68,-234.46 1455.46,-239.59"/>
<polygon fill="#63b8ff" stroke="#63b8ff" points="1454.9,-243.05 1465.43,-241.83 1456.44,-236.22 1454.9,-243.05"/>
</a>
</g>
</g>
<!-- Node15&#45;&gt;Node5 -->
<g id="edge37_Node000015_Node000005" class="edge">
<title>Node15&#45;&gt;Node5</title>
<g id="a_edge37_Node000015_Node000005"><a xlink:title=" ">
<path fill="none" stroke="#63b8ff" d="M1413.04,-208.84C1425.32,-208.84 1437.82,-208.84 1449.88,-208.84"/>
<polygon fill="#63b8ff" stroke="#63b8ff" points="1449.89,-212.34 1459.89,-208.84 1449.89,-205.34 1449.89,-212.34"/>
</a>
</g>
</g>
<!-- Node15&#45;&gt;Node6 -->
<g id="edge38_Node000015_Node000006" class="edge">
<title>Node15&#45;&gt;Node6</title>
<g id="a_edge38_Node000015_Node000006"><a xlink:title=" ">
<path fill="none" stroke="#63b8ff" d="M1395.68,-193.77C1405.33,-191.16 1414.97,-188.19 1424,-184.84 1450.32,-175.07 1478.3,-160.16 1499.19,-148.04"/>
<polygon fill="#63b8ff" stroke="#63b8ff" points="1501.13,-150.96 1507.97,-142.87 1497.58,-144.93 1501.13,-150.96"/>
</a>
</g>
</g>
<!-- Node15&#45;&gt;Node7 -->
<g id="edge39_Node000015_Node000007" class="edge">
<title>Node15&#45;&gt;Node7</title>
<g id="a_edge39_Node000015_Node000007"><a xlink:title=" ">
<path fill="none" stroke="#63b8ff" d="M1406.91,-223.87C1412.9,-226.41 1418.67,-229.37 1424,-232.84 1446.36,-247.36 1438.37,-265.24 1460,-280.84 1462.06,-282.32 1464.21,-283.72 1466.44,-285.03"/>
<polygon fill="#63b8ff" stroke="#63b8ff" points="1464.85,-288.14 1475.33,-289.69 1468.1,-281.95 1464.85,-288.14"/>
</a>
</g>
</g>
</g>
</svg>
