<?xml version="1.0" encoding="UTF-8" standalone="no"?>
<!DOCTYPE svg PUBLIC "-//W3C//DTD SVG 1.1//EN"
 "http://www.w3.org/Graphics/SVG/1.1/DTD/svg11.dtd">
<!-- Generated by graphviz version 2.43.0 (0)
 -->
<!-- Title: com.teragrep.pth_06.ast.transform.WithDefaultValuesTest.testOrExpressionChildren Pages: 1 -->
<svg width="1338pt" height="530pt"
 viewBox="0.00 0.00 1338.00 530.00" xmlns="http://www.w3.org/2000/svg" xmlns:xlink="http://www.w3.org/1999/xlink">
<g id="graph0" class="graph" transform="scale(1 1) rotate(0) translate(4 526)">
<title>com.teragrep.pth_06.ast.transform.WithDefaultValuesTest.testOrExpressionChildren</title>
<!-- Node1 -->
<g id="Node000001" class="node">
<title>Node1</title>
<g id="a_Node000001"><a xlink:title=" ">
<polygon fill="#999999" stroke="#666666" points="213,-174.5 0,-174.5 0,-133.5 213,-133.5 213,-174.5"/>
<text text-anchor="start" x="8" y="-162.5" font-family="Helvetica,sans-Serif" font-size="10.00">com.teragrep.pth_06.ast.transform.</text>
<text text-anchor="start" x="8" y="-151.5" font-family="Helvetica,sans-Serif" font-size="10.00">WithDefaultValuesTest.testOrExpression</text>
<text text-anchor="middle" x="106.5" y="-140.5" font-family="Helvetica,sans-Serif" font-size="10.00">Children</text>
</a>
</g>
</g>
<!-- Node2 -->
<g id="Node000002" class="node">
<title>Node2</title>
<g id="a_Node000002"><a xlink:href="interfacecom_1_1teragrep_1_1pth__06_1_1ast_1_1Expression.html#a17e7d33905be57c6e22e1717da6ddef6" target="_top" xlink:title=" ">
<polygon fill="white" stroke="#666666" points="1326.5,-423 1187.5,-423 1187.5,-393 1326.5,-393 1326.5,-423"/>
<text text-anchor="start" x="1195.5" y="-411" font-family="Helvetica,sans-Serif" font-size="10.00">com.teragrep.pth_06.ast.</text>
<text text-anchor="middle" x="1257" y="-400" font-family="Helvetica,sans-Serif" font-size="10.00">Expression.asLogical</text>
</a>
</g>
</g>
<!-- Node1&#45;&gt;Node2 -->
<g id="edge1_Node000001_Node000002" class="edge">
<title>Node1&#45;&gt;Node2</title>
<g id="a_edge1_Node000001_Node000002"><a xlink:title=" ">
<path fill="none" stroke="#63b8ff" d="M119.95,-174.57C168.6,-252.07 354.48,-522 583.5,-522 583.5,-522 583.5,-522 827,-522 973.14,-522 1138.18,-459.44 1213.92,-427.01"/>
<polygon fill="#63b8ff" stroke="#63b8ff" points="1215.36,-430.2 1223.14,-423.02 1212.58,-423.78 1215.36,-430.2"/>
</a>
</g>
</g>
<!-- Node3 -->
<g id="Node000003" class="node">
<title>Node3</title>
<g id="a_Node000003"><a xlink:href="interfacecom_1_1teragrep_1_1pth__06_1_1ast_1_1LogicalExpression.html#aeaf8fe296c6899792f345659a9a6c0c4" target="_top" xlink:title=" ">
<polygon fill="white" stroke="#666666" points="1330,-226 1184,-226 1184,-196 1330,-196 1330,-226"/>
<text text-anchor="start" x="1192" y="-214" font-family="Helvetica,sans-Serif" font-size="10.00">com.teragrep.pth_06.ast.</text>
<text text-anchor="middle" x="1257" y="-203" font-family="Helvetica,sans-Serif" font-size="10.00">LogicalExpression.children</text>
</a>
</g>
</g>
<!-- Node1&#45;&gt;Node3 -->
<g id="edge2_Node000001_Node000003" class="edge">
<title>Node1&#45;&gt;Node3</title>
<g id="a_edge2_Node000001_Node000003"><a xlink:title=" ">
<path fill="none" stroke="#63b8ff" d="M213.2,-157.13C401.33,-163.06 806.59,-177.5 1148,-201 1156.3,-201.57 1164.96,-202.24 1173.6,-202.97"/>
<polygon fill="#63b8ff" stroke="#63b8ff" points="1173.45,-206.47 1183.71,-203.83 1174.05,-199.49 1173.45,-206.47"/>
</a>
</g>
</g>
<!-- Node4 -->
<g id="Node000004" class="node">
<title>Node4</title>
<g id="a_Node000004"><a xlink:href="interfacecom_1_1teragrep_1_1pth__06_1_1ast_1_1Expression.html#a65ee7f5fb98e4129018f467a53586842" target="_top" xlink:title=" ">
<polygon fill="white" stroke="#666666" points="1326.5,-91 1187.5,-91 1187.5,-61 1326.5,-61 1326.5,-91"/>
<text text-anchor="start" x="1195.5" y="-79" font-family="Helvetica,sans-Serif" font-size="10.00">com.teragrep.pth_06.ast.</text>
<text text-anchor="middle" x="1257" y="-68" font-family="Helvetica,sans-Serif" font-size="10.00">Expression.isLogical</text>
</a>
</g>
</g>
<!-- Node1&#45;&gt;Node4 -->
<g id="edge3_Node000001_Node000004" class="edge">
<title>Node1&#45;&gt;Node4</title>
<g id="a_edge3_Node000001_Node000004"><a xlink:title=" ">
<path fill="none" stroke="#63b8ff" d="M144.13,-133.39C222.27,-91.43 412.18,0 583.5,0 583.5,0 583.5,0 827,0 960.01,0 1112.71,-35.86 1195.29,-58.32"/>
<polygon fill="#63b8ff" stroke="#63b8ff" points="1194.44,-61.71 1205.01,-60.98 1196.29,-54.96 1194.44,-61.71"/>
</a>
</g>
</g>
<!-- Node5 -->
<g id="Node000005" class="node">
<title>Node5</title>
<g id="a_Node000005"><a xlink:href="classcom_1_1teragrep_1_1pth__06_1_1ast_1_1transform_1_1WithDefaultValues.html#a3cd2907c54910cabd6d8cb52ff49215f" target="_top" xlink:title=" ">
<polygon fill="white" stroke="#666666" points="439,-209 249,-209 249,-179 439,-179 439,-209"/>
<text text-anchor="start" x="257" y="-197" font-family="Helvetica,sans-Serif" font-size="10.00">com.teragrep.pth_06.ast.transform.</text>
<text text-anchor="middle" x="344" y="-186" font-family="Helvetica,sans-Serif" font-size="10.00">WithDefaultValues.transformed</text>
</a>
</g>
</g>
<!-- Node1&#45;&gt;Node5 -->
<g id="edge4_Node000001_Node000005" class="edge">
<title>Node1&#45;&gt;Node5</title>
<g id="a_edge4_Node000001_Node000005"><a xlink:title=" ">
<path fill="none" stroke="#63b8ff" d="M213.19,-171.95C223.67,-173.73 234.27,-175.53 244.66,-177.3"/>
<polygon fill="#63b8ff" stroke="#63b8ff" points="244.1,-180.75 254.55,-178.98 245.27,-173.85 244.1,-180.75"/>
</a>
</g>
</g>
<!-- Node5&#45;&gt;Node2 -->
<g id="edge5_Node000005_Node000002" class="edge">
<title>Node5&#45;&gt;Node2</title>
<g id="a_edge5_Node000005_Node000002"><a xlink:title=" ">
<path fill="none" stroke="#63b8ff" d="M369.1,-209.01C394.61,-224.36 436.42,-248.01 475,-263 720.1,-358.24 1033.35,-392.05 1177.27,-403.1"/>
<polygon fill="#63b8ff" stroke="#63b8ff" points="1177.1,-406.59 1187.33,-403.85 1177.62,-399.61 1177.1,-406.59"/>
</a>
</g>
</g>
<!-- Node5&#45;&gt;Node4 -->
<g id="edge6_Node000005_Node000004" class="edge">
<title>Node5&#45;&gt;Node4</title>
<g id="a_edge6_Node000005_Node000004"><a xlink:title=" ">
<path fill="none" stroke="#63b8ff" d="M406.71,-178.9C516.66,-152.86 754.1,-100.5 958,-82 1032.17,-75.27 1117.13,-74.21 1177.31,-74.57"/>
<polygon fill="#63b8ff" stroke="#63b8ff" points="1177.47,-78.07 1187.5,-74.65 1177.52,-71.07 1177.47,-78.07"/>
</a>
</g>
</g>
<!-- Node5&#45;&gt;Node5 -->
<g id="edge27_Node000005_Node000005" class="edge">
<title>Node5&#45;&gt;Node5</title>
<g id="a_edge27_Node000005_Node000005"><a xlink:title=" ">
<path fill="none" stroke="#63b8ff" d="M302.52,-209.28C293.3,-218.41 307.12,-227 344,-227 365.89,-227 379.66,-223.97 385.31,-219.6"/>
<polygon fill="#63b8ff" stroke="#63b8ff" points="388.81,-219.33 385.48,-209.28 381.81,-219.21 388.81,-219.33"/>
</a>
</g>
</g>
<!-- Node6 -->
<g id="Node000006" class="node">
<title>Node6</title>
<g id="a_Node000006"><a xlink:href="classcom_1_1teragrep_1_1pth__06_1_1ast_1_1transform_1_1WithDefaultValues.html#a371bd3fba44c9f320d2b39f5e60cb82c" target="_top" xlink:title=" ">
<polygon fill="white" stroke="#666666" points="694,-253.5 475,-253.5 475,-212.5 694,-212.5 694,-253.5"/>
<text text-anchor="start" x="483" y="-241.5" font-family="Helvetica,sans-Serif" font-size="10.00">com.teragrep.pth_06.ast.transform.</text>
<text text-anchor="start" x="483" y="-230.5" font-family="Helvetica,sans-Serif" font-size="10.00">WithDefaultValues.recursiveWithDefaults</text>
<text text-anchor="middle" x="584.5" y="-219.5" font-family="Helvetica,sans-Serif" font-size="10.00">Expression</text>
</a>
</g>
</g>
<!-- Node5&#45;&gt;Node6 -->
<g id="edge7_Node000005_Node000006" class="edge">
<title>Node5&#45;&gt;Node6</title>
<g id="a_edge7_Node000005_Node000006"><a xlink:title=" ">
<path fill="none" stroke="#63b8ff" d="M436.87,-209.02C446.02,-210.52 455.41,-212.05 464.78,-213.59"/>
<polygon fill="#63b8ff" stroke="#63b8ff" points="464.51,-217.09 474.95,-215.25 465.64,-210.18 464.51,-217.09"/>
</a>
</g>
</g>
<!-- Node6&#45;&gt;Node4 -->
<g id="edge18_Node000006_Node000004" class="edge">
<title>Node6&#45;&gt;Node4</title>
<g id="a_edge18_Node000006_Node000004"><a xlink:title=" ">
<path fill="none" stroke="#63b8ff" d="M639.89,-212.42C711.72,-186.03 842.6,-140.62 958,-115 1031.43,-98.7 1116.66,-88.39 1177.11,-82.49"/>
<polygon fill="#63b8ff" stroke="#63b8ff" points="1177.73,-85.95 1187.35,-81.51 1177.06,-78.98 1177.73,-85.95"/>
</a>
</g>
</g>
<!-- Node7 -->
<g id="Node000007" class="node">
<title>Node7</title>
<g id="a_Node000007"><a xlink:href="classcom_1_1teragrep_1_1pth__06_1_1ast_1_1transform_1_1WithDefaultValues.html#ac53e9da4d27289a430152a8b67aa7e6b" target="_top" xlink:title=" ">
<polygon fill="white" stroke="#666666" points="922,-296 730,-296 730,-266 922,-266 922,-296"/>
<text text-anchor="start" x="738" y="-284" font-family="Helvetica,sans-Serif" font-size="10.00">com.teragrep.pth_06.ast.transform.</text>
<text text-anchor="middle" x="826" y="-273" font-family="Helvetica,sans-Serif" font-size="10.00">WithDefaultValues.andWithDefaults</text>
</a>
</g>
</g>
<!-- Node6&#45;&gt;Node7 -->
<g id="edge8_Node000006_Node000007" class="edge">
<title>Node6&#45;&gt;Node7</title>
<g id="a_edge8_Node000006_Node000007"><a xlink:title=" ">
<path fill="none" stroke="#63b8ff" d="M694.04,-248.03C719.37,-252.99 745.37,-258.48 767.47,-263.6"/>
<polygon fill="#63b8ff" stroke="#63b8ff" points="766.79,-267.04 777.32,-265.93 768.39,-260.23 766.79,-267.04"/>
</a>
</g>
</g>
<!-- Node9 -->
<g id="Node000009" class="node">
<title>Node9</title>
<g id="a_Node000009"><a xlink:href="interfacecom_1_1teragrep_1_1pth__06_1_1ast_1_1Expression.html#a8b9661253a3610b9eb148ee29ca8b7e1" target="_top" xlink:title=" ">
<polygon fill="white" stroke="#666666" points="1326.5,-309 1187.5,-309 1187.5,-279 1326.5,-279 1326.5,-309"/>
<text text-anchor="start" x="1195.5" y="-297" font-family="Helvetica,sans-Serif" font-size="10.00">com.teragrep.pth_06.ast.</text>
<text text-anchor="middle" x="1257" y="-286" font-family="Helvetica,sans-Serif" font-size="10.00">Expression.tag</text>
</a>
</g>
</g>
<!-- Node6&#45;&gt;Node9 -->
<g id="edge26_Node000006_Node000009" class="edge">
<title>Node6&#45;&gt;Node9</title>
<g id="a_edge26_Node000006_Node000009"><a xlink:title=" ">
<path fill="none" stroke="#63b8ff" d="M616.3,-253.64C644.51,-271.22 688.12,-295.14 730,-305 885.1,-341.5 1073.06,-323.15 1177.08,-307.75"/>
<polygon fill="#63b8ff" stroke="#63b8ff" points="1177.82,-311.18 1187.19,-306.23 1176.78,-304.26 1177.82,-311.18"/>
</a>
</g>
</g>
<!-- Node10 -->
<g id="Node000010" class="node">
<title>Node10</title>
<g id="a_Node000010"><a xlink:href="classcom_1_1teragrep_1_1pth__06_1_1ast_1_1transform_1_1WithDefaultValues.html#af8c587422cbf070fc6fea9aba68705d9" target="_top" xlink:title=" ">
<polygon fill="white" stroke="#666666" points="921,-248 731,-248 731,-218 921,-218 921,-248"/>
<text text-anchor="start" x="739" y="-236" font-family="Helvetica,sans-Serif" font-size="10.00">com.teragrep.pth_06.ast.transform.</text>
<text text-anchor="middle" x="826" y="-225" font-family="Helvetica,sans-Serif" font-size="10.00">WithDefaultValues.orWithDefaults</text>
</a>
</g>
</g>
<!-- Node6&#45;&gt;Node10 -->
<g id="edge19_Node000006_Node000010" class="edge">
<title>Node6&#45;&gt;Node10</title>
<g id="a_edge19_Node000006_Node000010"><a xlink:title=" ">
<path fill="none" stroke="#63b8ff" d="M694.04,-226.28C702.84,-226.23 711.73,-226.24 720.51,-226.3"/>
<polygon fill="#63b8ff" stroke="#63b8ff" points="720.72,-229.8 730.75,-226.39 720.78,-222.8 720.72,-229.8"/>
</a>
</g>
</g>
<!-- Node7&#45;&gt;Node2 -->
<g id="edge9_Node000007_Node000002" class="edge">
<title>Node7&#45;&gt;Node2</title>
<g id="a_edge9_Node000007_Node000002"><a xlink:title=" ">
<path fill="none" stroke="#63b8ff" d="M840.5,-296.25C862.44,-319.87 908.43,-364.58 958,-384 1028.5,-411.62 1115.42,-415.55 1177.15,-413.83"/>
<polygon fill="#63b8ff" stroke="#63b8ff" points="1177.34,-417.32 1187.22,-413.49 1177.11,-410.33 1177.34,-417.32"/>
</a>
</g>
</g>
<!-- Node7&#45;&gt;Node3 -->
<g id="edge10_Node000007_Node000003" class="edge">
<title>Node7&#45;&gt;Node3</title>
<g id="a_edge10_Node000007_Node000003"><a xlink:title=" ">
<path fill="none" stroke="#63b8ff" d="M922.28,-291.8C987.14,-296.12 1074.28,-295.95 1148,-275 1178.22,-266.41 1208.65,-247.21 1229.47,-232.06"/>
<polygon fill="#63b8ff" stroke="#63b8ff" points="1231.58,-234.85 1237.5,-226.07 1227.39,-229.24 1231.58,-234.85"/>
</a>
</g>
</g>
<!-- Node7&#45;&gt;Node6 -->
<g id="edge17_Node000007_Node000006" class="edge">
<title>Node7&#45;&gt;Node6</title>
<g id="a_edge17_Node000007_Node000006"><a xlink:title=" ">
<path fill="none" stroke="#63b8ff" d="M729.67,-268.52C708.76,-264.55 686.81,-260.08 666.52,-255.66"/>
<polygon fill="#63b8ff" stroke="#63b8ff" points="667.23,-252.24 656.71,-253.5 665.72,-259.07 667.23,-252.24"/>
</a>
</g>
</g>
<!-- Node8 -->
<g id="Node000008" class="node">
<title>Node8</title>
<g id="a_Node000008"><a xlink:href="classcom_1_1teragrep_1_1pth__06_1_1ast_1_1transform_1_1WithDefaultValues.html#a42a39b9992cc004453cd026fbc106b36" target="_top" xlink:title=" ">
<polygon fill="white" stroke="#666666" points="1148,-248 958,-248 958,-218 1148,-218 1148,-248"/>
<text text-anchor="start" x="966" y="-236" font-family="Helvetica,sans-Serif" font-size="10.00">com.teragrep.pth_06.ast.transform.</text>
<text text-anchor="middle" x="1053" y="-225" font-family="Helvetica,sans-Serif" font-size="10.00">WithDefaultValues.expressionTags</text>
</a>
</g>
</g>
<!-- Node7&#45;&gt;Node8 -->
<g id="edge11_Node000007_Node000008" class="edge">
<title>Node7&#45;&gt;Node8</title>
<g id="a_edge11_Node000007_Node000008"><a xlink:title=" ">
<path fill="none" stroke="#63b8ff" d="M897.57,-265.94C921.13,-260.92 947.56,-255.28 971.8,-250.11"/>
<polygon fill="#63b8ff" stroke="#63b8ff" points="972.63,-253.51 981.68,-248 971.17,-246.67 972.63,-253.51"/>
</a>
</g>
</g>
<!-- Node8&#45;&gt;Node2 -->
<g id="edge12_Node000008_Node000002" class="edge">
<title>Node8&#45;&gt;Node2</title>
<g id="a_edge12_Node000008_Node000002"><a xlink:title=" ">
<path fill="none" stroke="#63b8ff" d="M1071.57,-248.22C1107.48,-279.33 1189.36,-350.27 1230.87,-386.23"/>
<polygon fill="#63b8ff" stroke="#63b8ff" points="1228.76,-389.03 1238.61,-392.94 1233.35,-383.74 1228.76,-389.03"/>
</a>
</g>
</g>
<!-- Node8&#45;&gt;Node3 -->
<g id="edge13_Node000008_Node000003" class="edge">
<title>Node8&#45;&gt;Node3</title>
<g id="a_edge13_Node000008_Node000003"><a xlink:title=" ">
<path fill="none" stroke="#63b8ff" d="M1148.2,-222.74C1156.68,-221.82 1165.23,-220.89 1173.6,-219.97"/>
<polygon fill="#63b8ff" stroke="#63b8ff" points="1174.14,-223.44 1183.7,-218.87 1173.38,-216.48 1174.14,-223.44"/>
</a>
</g>
</g>
<!-- Node8&#45;&gt;Node4 -->
<g id="edge15_Node000008_Node000004" class="edge">
<title>Node8&#45;&gt;Node4</title>
<g id="a_edge15_Node000008_Node000004"><a xlink:title=" ">
<path fill="none" stroke="#63b8ff" d="M1076.38,-217.76C1095.64,-204.47 1124.04,-184.48 1148,-166 1177.13,-143.53 1209.4,-116.32 1231.02,-97.74"/>
<polygon fill="#63b8ff" stroke="#63b8ff" points="1233.46,-100.25 1238.75,-91.07 1228.89,-94.95 1233.46,-100.25"/>
</a>
</g>
</g>
<!-- Node8&#45;&gt;Node8 -->
<g id="edge14_Node000008_Node000008" class="edge">
<title>Node8&#45;&gt;Node8</title>
<g id="a_edge14_Node000008_Node000008"><a xlink:title=" ">
<path fill="none" stroke="#63b8ff" d="M1017.14,-248.28C1009.17,-257.41 1021.12,-266 1053,-266 1071.93,-266 1083.83,-262.97 1088.71,-258.6"/>
<polygon fill="#63b8ff" stroke="#63b8ff" points="1092.21,-258.33 1088.86,-248.28 1085.21,-258.22 1092.21,-258.33"/>
</a>
</g>
</g>
<!-- Node8&#45;&gt;Node9 -->
<g id="edge16_Node000008_Node000009" class="edge">
<title>Node8&#45;&gt;Node9</title>
<g id="a_edge16_Node000008_Node000009"><a xlink:title=" ">
<path fill="none" stroke="#63b8ff" d="M1103.67,-248C1131.7,-256.46 1166.9,-267.09 1196.4,-276"/>
<polygon fill="#63b8ff" stroke="#63b8ff" points="1195.58,-279.41 1206.17,-278.95 1197.61,-272.71 1195.58,-279.41"/>
</a>
</g>
</g>
<!-- Node10&#45;&gt;Node2 -->
<g id="edge20_Node000010_Node000002" class="edge">
<title>Node10&#45;&gt;Node2</title>
<g id="a_edge20_Node000010_Node000002"><a xlink:title=" ">
<path fill="none" stroke="#63b8ff" d="M904.43,-248.09C910.58,-250.62 916.53,-253.56 922,-257 943.11,-270.25 937.58,-285.71 958,-300 1024.76,-346.73 1113.99,-375.53 1177.36,-391.52"/>
<polygon fill="#63b8ff" stroke="#63b8ff" points="1176.76,-394.97 1187.3,-393.97 1178.43,-388.18 1176.76,-394.97"/>
</a>
</g>
</g>
<!-- Node10&#45;&gt;Node3 -->
<g id="edge21_Node000010_Node000003" class="edge">
<title>Node10&#45;&gt;Node3</title>
<g id="a_edge21_Node000010_Node000003"><a xlink:title=" ">
<path fill="none" stroke="#63b8ff" d="M895.68,-218C915.68,-214.29 937.62,-210.85 958,-209 1042.1,-201.36 1063.56,-208.22 1148,-209 1156.36,-209.08 1165.08,-209.19 1173.78,-209.32"/>
<polygon fill="#63b8ff" stroke="#63b8ff" points="1173.91,-212.82 1183.97,-209.48 1174.02,-205.82 1173.91,-212.82"/>
</a>
</g>
</g>
<!-- Node10&#45;&gt;Node4 -->
<g id="edge23_Node000010_Node000004" class="edge">
<title>Node10&#45;&gt;Node4</title>
<g id="a_edge23_Node000010_Node000004"><a xlink:title=" ">
<path fill="none" stroke="#63b8ff" d="M868.13,-217.95C947.09,-189.05 1119.65,-125.9 1205.47,-94.49"/>
<polygon fill="#63b8ff" stroke="#63b8ff" points="1206.8,-97.73 1214.99,-91.01 1204.4,-91.16 1206.8,-97.73"/>
</a>
</g>
</g>
<!-- Node10&#45;&gt;Node6 -->
<g id="edge24_Node000010_Node000006" class="edge">
<title>Node10&#45;&gt;Node6</title>
<g id="a_edge24_Node000010_Node000006"><a xlink:title=" ">
<path fill="none" stroke="#63b8ff" d="M730.75,-239.61C722,-239.71 713.05,-239.75 704.11,-239.75"/>
<polygon fill="#63b8ff" stroke="#63b8ff" points="704.05,-236.25 694.04,-239.72 704.03,-243.25 704.05,-236.25"/>
</a>
</g>
</g>
<!-- Node10&#45;&gt;Node8 -->
<g id="edge22_Node000010_Node000008" class="edge">
<title>Node10&#45;&gt;Node8</title>
<g id="a_edge22_Node000010_Node000008"><a xlink:title=" ">
<path fill="none" stroke="#63b8ff" d="M921.12,-233C929.95,-233 938.95,-233 947.87,-233"/>
<polygon fill="#63b8ff" stroke="#63b8ff" points="947.9,-236.5 957.9,-233 947.9,-229.5 947.9,-236.5"/>
</a>
</g>
</g>
<!-- Node10&#45;&gt;Node9 -->
<g id="edge25_Node000010_Node000009" class="edge">
<title>Node10&#45;&gt;Node9</title>
<g id="a_edge25_Node000010_Node000009"><a xlink:title=" ">
<path fill="none" stroke="#63b8ff" d="M894.25,-248.06C903.67,-250.72 913.15,-253.71 922,-257 938.77,-263.23 940.73,-270.34 958,-275 1030.39,-294.54 1116.1,-298.07 1176.98,-297.44"/>
<polygon fill="#63b8ff" stroke="#63b8ff" points="1177.34,-300.93 1187.29,-297.29 1177.24,-293.93 1177.34,-300.93"/>
</a>
</g>
</g>
</g>
</svg>
