<?xml version="1.0" encoding="UTF-8" standalone="no"?>
<!DOCTYPE svg PUBLIC "-//W3C//DTD SVG 1.1//EN"
 "http://www.w3.org/Graphics/SVG/1.1/DTD/svg11.dtd">
<!-- Generated by graphviz version 2.43.0 (0)
 -->
<!-- Title: com.teragrep.pth_06.planner.BatchSizeLimitedResults.results Pages: 1 -->
<svg width="420pt" height="220pt"
 viewBox="0.00 0.00 420.00 220.00" xmlns="http://www.w3.org/2000/svg" xmlns:xlink="http://www.w3.org/1999/xlink">
<g id="graph0" class="graph" transform="scale(1 1) rotate(0) translate(4 216)">
<title>com.teragrep.pth_06.planner.BatchSizeLimitedResults.results</title>
<!-- Node1 -->
<g id="Node000001" class="node">
<title>Node1</title>
<g id="a_Node000001"><a xlink:title=" ">
<polygon fill="#999999" stroke="#666666" points="173,-116 0,-116 0,-86 173,-86 173,-116"/>
<text text-anchor="start" x="8" y="-104" font-family="Helvetica,sans-Serif" font-size="10.00">com.teragrep.pth_06.planner.</text>
<text text-anchor="middle" x="86.5" y="-93" font-family="Helvetica,sans-Serif" font-size="10.00">BatchSizeLimitedResults.results</text>
</a>
</g>
</g>
<!-- Node2 -->
<g id="Node000002" class="node">
<title>Node2</title>
<g id="a_Node000002"><a xlink:href="classcom_1_1teragrep_1_1pth__06_1_1planner_1_1BatchSizeLimit.html#a3c8b6b537a6e8ca4bc3a45f250bb9da1" target="_top" xlink:title="Accumulate the given weight and count of objects.">
<polygon fill="white" stroke="#666666" points="390.5,-212 230.5,-212 230.5,-182 390.5,-182 390.5,-212"/>
<text text-anchor="start" x="238.5" y="-200" font-family="Helvetica,sans-Serif" font-size="10.00">com.teragrep.pth_06.planner.</text>
<text text-anchor="middle" x="310.5" y="-189" font-family="Helvetica,sans-Serif" font-size="10.00">BatchSizeLimit.add</text>
</a>
</g>
</g>
<!-- Node1&#45;&gt;Node2 -->
<g id="edge1_Node000001_Node000002" class="edge">
<title>Node1&#45;&gt;Node2</title>
<g id="a_edge1_Node000001_Node000002"><a xlink:title=" ">
<path fill="none" stroke="#63b8ff" d="M108.43,-116.07C131.87,-132.3 171.5,-157.82 209,-173 214.33,-175.16 219.89,-177.15 225.56,-178.98"/>
<polygon fill="#63b8ff" stroke="#63b8ff" points="224.57,-182.34 235.15,-181.93 226.62,-175.65 224.57,-182.34"/>
</a>
</g>
</g>
<!-- Node3 -->
<g id="Node000003" class="node">
<title>Node3</title>
<g id="a_Node000003"><a xlink:href="interfacecom_1_1teragrep_1_1pth__06_1_1planner_1_1HourlySlices.html#a939046474a195cb2a911036e7ae19eac" target="_top" xlink:title=" ">
<polygon fill="white" stroke="#666666" points="390.5,-164 230.5,-164 230.5,-134 390.5,-134 390.5,-164"/>
<text text-anchor="start" x="238.5" y="-152" font-family="Helvetica,sans-Serif" font-size="10.00">com.teragrep.pth_06.planner.</text>
<text text-anchor="middle" x="310.5" y="-141" font-family="Helvetica,sans-Serif" font-size="10.00">HourlySlices.hasNext</text>
</a>
</g>
</g>
<!-- Node1&#45;&gt;Node3 -->
<g id="edge2_Node000001_Node000003" class="edge">
<title>Node1&#45;&gt;Node3</title>
<g id="a_edge2_Node000001_Node000003"><a xlink:title=" ">
<path fill="none" stroke="#63b8ff" d="M157.13,-116.06C180.28,-121.06 206.22,-126.67 230.05,-131.82"/>
<polygon fill="#63b8ff" stroke="#63b8ff" points="229.6,-135.31 240.11,-134 231.08,-128.46 229.6,-135.31"/>
</a>
</g>
</g>
<!-- Node4 -->
<g id="Node000004" class="node">
<title>Node4</title>
<g id="a_Node000004"><a xlink:href="classcom_1_1teragrep_1_1pth__06_1_1planner_1_1BatchSizeLimit.html#ac0ae9a8b12bb02236111c903eb42c2ea" target="_top" xlink:title="check if accumulated weight is over the maximum size limit OR if the accumulated count of objects is ...">
<polygon fill="white" stroke="#666666" points="390.5,-116 230.5,-116 230.5,-86 390.5,-86 390.5,-116"/>
<text text-anchor="start" x="238.5" y="-104" font-family="Helvetica,sans-Serif" font-size="10.00">com.teragrep.pth_06.planner.</text>
<text text-anchor="middle" x="310.5" y="-93" font-family="Helvetica,sans-Serif" font-size="10.00">BatchSizeLimit.isOverLimit</text>
</a>
</g>
</g>
<!-- Node1&#45;&gt;Node4 -->
<g id="edge3_Node000001_Node000004" class="edge">
<title>Node1&#45;&gt;Node4</title>
<g id="a_edge3_Node000001_Node000004"><a xlink:title=" ">
<path fill="none" stroke="#63b8ff" d="M173.01,-101C188.44,-101 204.57,-101 220.11,-101"/>
<polygon fill="#63b8ff" stroke="#63b8ff" points="220.22,-104.5 230.22,-101 220.22,-97.5 220.22,-104.5"/>
</a>
</g>
</g>
<!-- Node5 -->
<g id="Node000005" class="node">
<title>Node5</title>
<g id="a_Node000005"><a xlink:href="interfacecom_1_1teragrep_1_1pth__06_1_1Stubbable.html#a0901c0a7cde13ff306d455e4009f01cb" target="_top" xlink:title=" ">
<polygon fill="white" stroke="#666666" points="412,-67.5 209,-67.5 209,-48.5 412,-48.5 412,-67.5"/>
<text text-anchor="middle" x="310.5" y="-55.5" font-family="Helvetica,sans-Serif" font-size="10.00">com.teragrep.pth_06.Stubbable.isStub</text>
</a>
</g>
</g>
<!-- Node1&#45;&gt;Node5 -->
<g id="edge4_Node000001_Node000005" class="edge">
<title>Node1&#45;&gt;Node5</title>
<g id="a_edge4_Node000001_Node000005"><a xlink:title=" ">
<path fill="none" stroke="#63b8ff" d="M162.99,-85.99C178.22,-82.99 194.12,-79.88 209,-77 221.85,-74.52 235.63,-71.89 248.75,-69.4"/>
<polygon fill="#63b8ff" stroke="#63b8ff" points="249.44,-72.83 258.62,-67.54 248.14,-65.96 249.44,-72.83"/>
</a>
</g>
</g>
<!-- Node6 -->
<g id="Node000006" class="node">
<title>Node6</title>
<g id="a_Node000006"><a xlink:href="interfacecom_1_1teragrep_1_1pth__06_1_1planner_1_1HourlySlices.html#a78cb80b9e8a3d882a4c9c286d36ef6d5" target="_top" xlink:title=" ">
<polygon fill="white" stroke="#666666" points="390.5,-30 230.5,-30 230.5,0 390.5,0 390.5,-30"/>
<text text-anchor="start" x="238.5" y="-18" font-family="Helvetica,sans-Serif" font-size="10.00">com.teragrep.pth_06.planner.</text>
<text text-anchor="middle" x="310.5" y="-7" font-family="Helvetica,sans-Serif" font-size="10.00">HourlySlices.nextHour</text>
</a>
</g>
</g>
<!-- Node1&#45;&gt;Node6 -->
<g id="edge5_Node000001_Node000006" class="edge">
<title>Node1&#45;&gt;Node6</title>
<g id="a_edge5_Node000001_Node000006"><a xlink:title=" ">
<path fill="none" stroke="#63b8ff" d="M113.29,-85.94C137.39,-72.38 174.69,-52.7 209,-40 215.98,-37.42 223.32,-35.02 230.74,-32.81"/>
<polygon fill="#63b8ff" stroke="#63b8ff" points="231.85,-36.13 240.5,-30.01 229.92,-29.4 231.85,-36.13"/>
</a>
</g>
</g>
</g>
</svg>
