<?xml version="1.0" encoding="UTF-8" standalone="no"?>
<!DOCTYPE svg PUBLIC "-//W3C//DTD SVG 1.1//EN"
 "http://www.w3.org/Graphics/SVG/1.1/DTD/svg11.dtd">
<!-- Generated by graphviz version 2.43.0 (0)
 -->
<!-- Title: com.teragrep.pth_06.ast.xml.XMLQueryTest.testSingleElementQuery Pages: 1 -->
<svg width="807pt" height="278pt"
 viewBox="0.00 0.00 807.00 278.00" xmlns="http://www.w3.org/2000/svg" xmlns:xlink="http://www.w3.org/1999/xlink">
<g id="graph0" class="graph" transform="scale(1 1) rotate(0) translate(4 274)">
<title>com.teragrep.pth_06.ast.xml.XMLQueryTest.testSingleElementQuery</title>
<!-- Node1 -->
<g id="Node000001" class="node">
<title>Node1</title>
<g id="a_Node000001"><a xlink:title=" ">
<polygon fill="#999999" stroke="#666666" points="208,-174 0,-174 0,-144 208,-144 208,-174"/>
<text text-anchor="start" x="8" y="-162" font-family="Helvetica,sans-Serif" font-size="10.00">com.teragrep.pth_06.ast.xml.</text>
<text text-anchor="middle" x="104" y="-151" font-family="Helvetica,sans-Serif" font-size="10.00">XMLQueryTest.testSingleElementQuery</text>
</a>
</g>
</g>
<!-- Node2 -->
<g id="Node000002" class="node">
<title>Node2</title>
<g id="a_Node000002"><a xlink:href="classcom_1_1teragrep_1_1pth__06_1_1ast_1_1xml_1_1XMLQuery.html#a11ebce7d6afeda454c2b93a252196299" target="_top" xlink:title=" ">
<polygon fill="white" stroke="#666666" points="405,-210 244,-210 244,-180 405,-180 405,-210"/>
<text text-anchor="start" x="252" y="-198" font-family="Helvetica,sans-Serif" font-size="10.00">com.teragrep.pth_06.ast.xml.</text>
<text text-anchor="middle" x="324.5" y="-187" font-family="Helvetica,sans-Serif" font-size="10.00">XMLQuery.asAST</text>
</a>
</g>
</g>
<!-- Node1&#45;&gt;Node2 -->
<g id="edge1_Node000001_Node000002" class="edge">
<title>Node1&#45;&gt;Node2</title>
<g id="a_edge1_Node000001_Node000002"><a xlink:title=" ">
<path fill="none" stroke="#63b8ff" d="M196.08,-174.01C208.56,-176.06 221.35,-178.17 233.8,-180.22"/>
<polygon fill="#63b8ff" stroke="#63b8ff" points="233.26,-183.68 243.7,-181.85 234.4,-176.77 233.26,-183.68"/>
</a>
</g>
</g>
<!-- Node6 -->
<g id="Node000006" class="node">
<title>Node6</title>
<g id="a_Node000006"><a xlink:href="classcom_1_1teragrep_1_1pth__06_1_1ast_1_1PrintAST.html#acc3f4d80cb05a02753130a95b65cd32d" target="_top" xlink:title=" ">
<polygon fill="white" stroke="#666666" points="394,-150 255,-150 255,-120 394,-120 394,-150"/>
<text text-anchor="start" x="263" y="-138" font-family="Helvetica,sans-Serif" font-size="10.00">com.teragrep.pth_06.ast.</text>
<text text-anchor="middle" x="324.5" y="-127" font-family="Helvetica,sans-Serif" font-size="10.00">PrintAST.asString</text>
</a>
</g>
</g>
<!-- Node1&#45;&gt;Node6 -->
<g id="edge6_Node000001_Node000006" class="edge">
<title>Node1&#45;&gt;Node6</title>
<g id="a_edge6_Node000001_Node000006"><a xlink:title=" ">
<path fill="none" stroke="#63b8ff" d="M208.17,-147.67C220.39,-146.33 232.72,-144.97 244.53,-143.67"/>
<polygon fill="#63b8ff" stroke="#63b8ff" points="245.2,-147.12 254.76,-142.55 244.43,-140.16 245.2,-147.12"/>
</a>
</g>
</g>
<!-- Node3 -->
<g id="Node000003" class="node">
<title>Node3</title>
<g id="a_Node000003"><a xlink:href="classcom_1_1teragrep_1_1pth__06_1_1ast_1_1xml_1_1XMLQuery.html#a4e339d2fbd6fb0dd06d2eac96820b87f" target="_top" xlink:title=" ">
<polygon fill="white" stroke="#666666" points="602,-222 441,-222 441,-192 602,-192 602,-222"/>
<text text-anchor="start" x="449" y="-210" font-family="Helvetica,sans-Serif" font-size="10.00">com.teragrep.pth_06.ast.xml.</text>
<text text-anchor="middle" x="521.5" y="-199" font-family="Helvetica,sans-Serif" font-size="10.00">XMLQuery.elementToNode</text>
</a>
</g>
</g>
<!-- Node2&#45;&gt;Node3 -->
<g id="edge2_Node000002_Node000003" class="edge">
<title>Node2&#45;&gt;Node3</title>
<g id="a_edge2_Node000002_Node000003"><a xlink:title=" ">
<path fill="none" stroke="#63b8ff" d="M405.1,-199.9C413.57,-200.42 422.24,-200.95 430.82,-201.48"/>
<polygon fill="#63b8ff" stroke="#63b8ff" points="430.65,-204.98 440.84,-202.1 431.08,-197.99 430.65,-204.98"/>
</a>
</g>
</g>
<!-- Node4 -->
<g id="Node000004" class="node">
<title>Node4</title>
<g id="a_Node000004"><a xlink:href="classcom_1_1teragrep_1_1pth__06_1_1ast_1_1xml_1_1XMLQuery.html#aef324a993868f2b1fc8695f14dafefbe" target="_top" xlink:title=" ">
<polygon fill="white" stroke="#666666" points="799,-270 638,-270 638,-240 799,-240 799,-270"/>
<text text-anchor="start" x="646" y="-258" font-family="Helvetica,sans-Serif" font-size="10.00">com.teragrep.pth_06.ast.xml.</text>
<text text-anchor="middle" x="718.5" y="-247" font-family="Helvetica,sans-Serif" font-size="10.00">XMLQuery.visitLeaf</text>
</a>
</g>
</g>
<!-- Node3&#45;&gt;Node4 -->
<g id="edge3_Node000003_Node000004" class="edge">
<title>Node3&#45;&gt;Node4</title>
<g id="a_edge3_Node000003_Node000004"><a xlink:title=" ">
<path fill="none" stroke="#63b8ff" d="M583.66,-222.06C603.63,-226.97 625.97,-232.47 646.59,-237.54"/>
<polygon fill="#63b8ff" stroke="#63b8ff" points="646.01,-241.01 656.55,-240 647.68,-234.21 646.01,-241.01"/>
</a>
</g>
</g>
<!-- Node5 -->
<g id="Node000005" class="node">
<title>Node5</title>
<g id="a_Node000005"><a xlink:href="classcom_1_1teragrep_1_1pth__06_1_1ast_1_1xml_1_1XMLQuery.html#afb0ff16b91a35d2ef6c6c000761d0be6" target="_top" xlink:title=" ">
<polygon fill="white" stroke="#666666" points="799,-222 638,-222 638,-192 799,-192 799,-222"/>
<text text-anchor="start" x="646" y="-210" font-family="Helvetica,sans-Serif" font-size="10.00">com.teragrep.pth_06.ast.xml.</text>
<text text-anchor="middle" x="718.5" y="-199" font-family="Helvetica,sans-Serif" font-size="10.00">XMLQuery.visitLogical</text>
</a>
</g>
</g>
<!-- Node3&#45;&gt;Node5 -->
<g id="edge4_Node000003_Node000005" class="edge">
<title>Node3&#45;&gt;Node5</title>
<g id="a_edge4_Node000003_Node000005"><a xlink:title=" ">
<path fill="none" stroke="#63b8ff" d="M602.1,-200.35C610.57,-200.25 619.24,-200.23 627.82,-200.27"/>
<polygon fill="#63b8ff" stroke="#63b8ff" points="627.81,-203.77 637.84,-200.35 627.87,-196.77 627.81,-203.77"/>
</a>
</g>
</g>
<!-- Node5&#45;&gt;Node3 -->
<g id="edge5_Node000005_Node000003" class="edge">
<title>Node5&#45;&gt;Node3</title>
<g id="a_edge5_Node000005_Node000003"><a xlink:title=" ">
<path fill="none" stroke="#63b8ff" d="M637.84,-213.65C629.36,-213.75 620.7,-213.77 612.12,-213.73"/>
<polygon fill="#63b8ff" stroke="#63b8ff" points="612.12,-210.23 602.1,-213.65 612.07,-217.23 612.12,-210.23"/>
</a>
</g>
</g>
<!-- Node7 -->
<g id="Node000007" class="node">
<title>Node7</title>
<g id="a_Node000007"><a xlink:href="classcom_1_1teragrep_1_1pth__06_1_1ast_1_1PrintAST.html#ab5fd085ad34f3b92b49c29a239d12de7" target="_top" xlink:title=" ">
<polygon fill="white" stroke="#666666" points="591,-126 452,-126 452,-96 591,-96 591,-126"/>
<text text-anchor="start" x="460" y="-114" font-family="Helvetica,sans-Serif" font-size="10.00">com.teragrep.pth_06.ast.</text>
<text text-anchor="middle" x="521.5" y="-103" font-family="Helvetica,sans-Serif" font-size="10.00">PrintAST.printWithIndent</text>
</a>
</g>
</g>
<!-- Node6&#45;&gt;Node7 -->
<g id="edge7_Node000006_Node000007" class="edge">
<title>Node6&#45;&gt;Node7</title>
<g id="a_edge7_Node000006_Node000007"><a xlink:title=" ">
<path fill="none" stroke="#63b8ff" d="M394.25,-126.54C409.54,-124.66 425.87,-122.65 441.53,-120.72"/>
<polygon fill="#63b8ff" stroke="#63b8ff" points="442.22,-124.16 451.71,-119.47 441.36,-117.21 442.22,-124.16"/>
</a>
</g>
</g>
<!-- Node7&#45;&gt;Node7 -->
<g id="edge11_Node000007_Node000007" class="edge">
<title>Node7&#45;&gt;Node7</title>
<g id="a_edge11_Node000007_Node000007"><a xlink:title=" ">
<path fill="none" stroke="#63b8ff" d="M487.05,-126.28C479.39,-135.41 490.88,-144 521.5,-144 539.68,-144 551.12,-140.97 555.81,-136.6"/>
<polygon fill="#63b8ff" stroke="#63b8ff" points="559.31,-136.32 555.95,-126.28 552.31,-136.22 559.31,-136.32"/>
</a>
</g>
</g>
<!-- Node8 -->
<g id="Node000008" class="node">
<title>Node8</title>
<g id="a_Node000008"><a xlink:href="interfacecom_1_1teragrep_1_1pth__06_1_1ast_1_1Expression.html#a17e7d33905be57c6e22e1717da6ddef6" target="_top" xlink:title=" ">
<polygon fill="white" stroke="#666666" points="788,-174 649,-174 649,-144 788,-144 788,-174"/>
<text text-anchor="start" x="657" y="-162" font-family="Helvetica,sans-Serif" font-size="10.00">com.teragrep.pth_06.ast.</text>
<text text-anchor="middle" x="718.5" y="-151" font-family="Helvetica,sans-Serif" font-size="10.00">Expression.asLogical</text>
</a>
</g>
</g>
<!-- Node7&#45;&gt;Node8 -->
<g id="edge8_Node000007_Node000008" class="edge">
<title>Node7&#45;&gt;Node8</title>
<g id="a_edge8_Node000007_Node000008"><a xlink:title=" ">
<path fill="none" stroke="#63b8ff" d="M583.66,-126.06C603.63,-130.97 625.97,-136.47 646.59,-141.54"/>
<polygon fill="#63b8ff" stroke="#63b8ff" points="646.01,-145.01 656.55,-144 647.68,-138.21 646.01,-145.01"/>
</a>
</g>
</g>
<!-- Node9 -->
<g id="Node000009" class="node">
<title>Node9</title>
<g id="a_Node000009"><a xlink:href="interfacecom_1_1teragrep_1_1pth__06_1_1ast_1_1LogicalExpression.html#aeaf8fe296c6899792f345659a9a6c0c4" target="_top" xlink:title=" ">
<polygon fill="white" stroke="#666666" points="791.5,-126 645.5,-126 645.5,-96 791.5,-96 791.5,-126"/>
<text text-anchor="start" x="653.5" y="-114" font-family="Helvetica,sans-Serif" font-size="10.00">com.teragrep.pth_06.ast.</text>
<text text-anchor="middle" x="718.5" y="-103" font-family="Helvetica,sans-Serif" font-size="10.00">LogicalExpression.children</text>
</a>
</g>
</g>
<!-- Node7&#45;&gt;Node9 -->
<g id="edge9_Node000007_Node000009" class="edge">
<title>Node7&#45;&gt;Node9</title>
<g id="a_edge9_Node000007_Node000009"><a xlink:title=" ">
<path fill="none" stroke="#63b8ff" d="M591.25,-111C605.5,-111 620.66,-111 635.34,-111"/>
<polygon fill="#63b8ff" stroke="#63b8ff" points="635.41,-114.5 645.41,-111 635.41,-107.5 635.41,-114.5"/>
</a>
</g>
</g>
<!-- Node10 -->
<g id="Node000010" class="node">
<title>Node10</title>
<g id="a_Node000010"><a xlink:href="interfacecom_1_1teragrep_1_1pth__06_1_1ast_1_1Expression.html#a65ee7f5fb98e4129018f467a53586842" target="_top" xlink:title=" ">
<polygon fill="white" stroke="#666666" points="788,-78 649,-78 649,-48 788,-48 788,-78"/>
<text text-anchor="start" x="657" y="-66" font-family="Helvetica,sans-Serif" font-size="10.00">com.teragrep.pth_06.ast.</text>
<text text-anchor="middle" x="718.5" y="-55" font-family="Helvetica,sans-Serif" font-size="10.00">Expression.isLogical</text>
</a>
</g>
</g>
<!-- Node7&#45;&gt;Node10 -->
<g id="edge10_Node000007_Node000010" class="edge">
<title>Node7&#45;&gt;Node10</title>
<g id="a_edge10_Node000007_Node000010"><a xlink:title=" ">
<path fill="none" stroke="#63b8ff" d="M583.66,-95.94C603.63,-91.03 625.97,-85.53 646.59,-80.46"/>
<polygon fill="#63b8ff" stroke="#63b8ff" points="647.68,-83.79 656.55,-78 646.01,-76.99 647.68,-83.79"/>
</a>
</g>
</g>
<!-- Node11 -->
<g id="Node000011" class="node">
<title>Node11</title>
<g id="a_Node000011"><a xlink:href="interfacecom_1_1teragrep_1_1pth__06_1_1ast_1_1Expression.html#a8b9661253a3610b9eb148ee29ca8b7e1" target="_top" xlink:title=" ">
<polygon fill="white" stroke="#666666" points="788,-30 649,-30 649,0 788,0 788,-30"/>
<text text-anchor="start" x="657" y="-18" font-family="Helvetica,sans-Serif" font-size="10.00">com.teragrep.pth_06.ast.</text>
<text text-anchor="middle" x="718.5" y="-7" font-family="Helvetica,sans-Serif" font-size="10.00">Expression.tag</text>
</a>
</g>
</g>
<!-- Node7&#45;&gt;Node11 -->
<g id="edge12_Node000007_Node000011" class="edge">
<title>Node7&#45;&gt;Node11</title>
<g id="a_edge12_Node000007_Node000011"><a xlink:title=" ">
<path fill="none" stroke="#63b8ff" d="M542.85,-95.98C565.23,-80.04 602.7,-54.99 638,-39 642.29,-37.06 646.78,-35.22 651.34,-33.49"/>
<polygon fill="#63b8ff" stroke="#63b8ff" points="652.56,-36.77 660.79,-30.1 650.2,-30.19 652.56,-36.77"/>
</a>
</g>
</g>
</g>
</svg>
