<?xml version="1.0" encoding="UTF-8" standalone="no"?>
<!DOCTYPE svg PUBLIC "-//W3C//DTD SVG 1.1//EN"
 "http://www.w3.org/Graphics/SVG/1.1/DTD/svg11.dtd">
<!-- Generated by graphviz version 2.43.0 (0)
 -->
<!-- Title: com.teragrep.pth_06.ast.meta.StreamDBCondition.condition Pages: 1 -->
<svg width="435pt" height="566pt"
 viewBox="0.00 0.00 435.00 566.00" xmlns="http://www.w3.org/2000/svg" xmlns:xlink="http://www.w3.org/1999/xlink">
<g id="graph0" class="graph" transform="scale(1 1) rotate(0) translate(4 562)">
<title>com.teragrep.pth_06.ast.meta.StreamDBCondition.condition</title>
<!-- Node1 -->
<g id="Node000001" class="node">
<title>Node1</title>
<g id="a_Node000001"><a xlink:title=" ">
<polygon fill="#999999" stroke="#666666" points="427,-324 260,-324 260,-294 427,-294 427,-324"/>
<text text-anchor="start" x="268" y="-312" font-family="Helvetica,sans-Serif" font-size="10.00">com.teragrep.pth_06.ast.meta.</text>
<text text-anchor="middle" x="343.5" y="-301" font-family="Helvetica,sans-Serif" font-size="10.00">StreamDBCondition.condition</text>
</a>
</g>
</g>
<!-- Node2 -->
<g id="Node000002" class="node">
<title>Node2</title>
<g id="a_Node000002"><a xlink:href="classcom_1_1teragrep_1_1pth__06_1_1ast_1_1meta_1_1StreamDBCondition.html#a3e43c38cb0c9103e08f4b37e95e45b87" target="_top" xlink:title=" ">
<polygon fill="white" stroke="#666666" points="203.5,-540 20.5,-540 20.5,-510 203.5,-510 203.5,-540"/>
<text text-anchor="start" x="28.5" y="-528" font-family="Helvetica,sans-Serif" font-size="10.00">com.teragrep.pth_06.ast.meta.</text>
<text text-anchor="middle" x="112" y="-517" font-family="Helvetica,sans-Serif" font-size="10.00">StreamDBCondition.hostCondition</text>
</a>
</g>
</g>
<!-- Node1&#45;&gt;Node2 -->
<g id="edge1_Node000001_Node000002" class="edge">
<title>Node1&#45;&gt;Node2</title>
<g id="a_edge1_Node000001_Node000002"><a xlink:title=" ">
<path fill="none" stroke="#63b8ff" d="M332.31,-333.8C316.35,-373.85 281.23,-451.54 224,-492 212.01,-500.48 197.59,-506.06 183.18,-509.92"/>
<polygon fill="#63b8ff" stroke="#63b8ff" points="335.66,-334.84 336.04,-324.25 329.14,-332.29 335.66,-334.84"/>
</a>
</g>
</g>
<!-- Node3 -->
<g id="Node000003" class="node">
<title>Node3</title>
<g id="a_Node000003"><a xlink:href="classcom_1_1teragrep_1_1pth__06_1_1ast_1_1meta_1_1StreamDBCondition.html#a2bedf2bbbbc73178de7e2c8872f8d486" target="_top" xlink:title=" ">
<polygon fill="white" stroke="#666666" points="220.5,-474 3.5,-474 3.5,-444 220.5,-444 220.5,-474"/>
<text text-anchor="start" x="11.5" y="-462" font-family="Helvetica,sans-Serif" font-size="10.00">com.teragrep.pth_06.ast.meta.</text>
<text text-anchor="middle" x="112" y="-451" font-family="Helvetica,sans-Serif" font-size="10.00">StreamDBCondition.sourceTypeCondition</text>
</a>
</g>
</g>
<!-- Node1&#45;&gt;Node3 -->
<g id="edge4_Node000001_Node000003" class="edge">
<title>Node1&#45;&gt;Node3</title>
<g id="a_edge4_Node000001_Node000003"><a xlink:title=" ">
<path fill="none" stroke="#63b8ff" d="M322.54,-332.23C301.53,-359.2 265.75,-402.4 224,-426 208.9,-434.54 191.06,-440.04 174.15,-443.95"/>
<polygon fill="#63b8ff" stroke="#63b8ff" points="325.48,-334.15 328.83,-324.09 319.95,-329.87 325.48,-334.15"/>
</a>
</g>
</g>
<!-- Node4 -->
<g id="Node000004" class="node">
<title>Node4</title>
<g id="a_Node000004"><a xlink:href="classcom_1_1teragrep_1_1pth__06_1_1ast_1_1meta_1_1StreamDBConditionTest.html#a3c789f8664dba7a614dbbed433d5da9c" target="_top" xlink:title=" ">
<polygon fill="white" stroke="#666666" points="200,-426 24,-426 24,-396 200,-396 200,-426"/>
<text text-anchor="start" x="32" y="-414" font-family="Helvetica,sans-Serif" font-size="10.00">com.teragrep.pth_06.ast.meta.</text>
<text text-anchor="middle" x="112" y="-403" font-family="Helvetica,sans-Serif" font-size="10.00">StreamDBConditionTest.testHost</text>
</a>
</g>
</g>
<!-- Node1&#45;&gt;Node4 -->
<g id="edge7_Node000001_Node000004" class="edge">
<title>Node1&#45;&gt;Node4</title>
<g id="a_edge7_Node000001_Node000004"><a xlink:title=" ">
<path fill="none" stroke="#63b8ff" d="M316.54,-330.19C293.55,-347.92 258.38,-372.56 224,-387 215.82,-390.43 207.09,-393.4 198.24,-395.96"/>
<polygon fill="#63b8ff" stroke="#63b8ff" points="318.72,-332.93 324.44,-324.01 314.41,-327.42 318.72,-332.93"/>
</a>
</g>
</g>
<!-- Node5 -->
<g id="Node000005" class="node">
<title>Node5</title>
<g id="a_Node000005"><a xlink:href="classcom_1_1teragrep_1_1pth__06_1_1ast_1_1meta_1_1StreamDBConditionTest.html#a72a28c180a2daefcc1145228986029a9" target="_top" xlink:title=" ">
<polygon fill="white" stroke="#666666" points="218.5,-378 5.5,-378 5.5,-348 218.5,-348 218.5,-378"/>
<text text-anchor="start" x="13.5" y="-366" font-family="Helvetica,sans-Serif" font-size="10.00">com.teragrep.pth_06.ast.meta.</text>
<text text-anchor="middle" x="112" y="-355" font-family="Helvetica,sans-Serif" font-size="10.00">StreamDBConditionTest.testIndexEquals</text>
</a>
</g>
</g>
<!-- Node1&#45;&gt;Node5 -->
<g id="edge8_Node000001_Node000005" class="edge">
<title>Node1&#45;&gt;Node5</title>
<g id="a_edge8_Node000001_Node000005"><a xlink:title=" ">
<path fill="none" stroke="#63b8ff" d="M274.61,-326.62C258.08,-330.79 240.43,-335.15 224,-339 211.24,-341.99 197.61,-345.05 184.44,-347.94"/>
<polygon fill="#63b8ff" stroke="#63b8ff" points="275.9,-329.9 284.74,-324.05 274.18,-323.12 275.9,-329.9"/>
</a>
</g>
</g>
<!-- Node6 -->
<g id="Node000006" class="node">
<title>Node6</title>
<g id="a_Node000006"><a xlink:href="classcom_1_1teragrep_1_1pth__06_1_1ast_1_1meta_1_1StreamDBConditionTest.html#a4365d75b9f815ae2e2f4cc1393a69555" target="_top" xlink:title=" ">
<polygon fill="white" stroke="#666666" points="211,-329.5 13,-329.5 13,-288.5 211,-288.5 211,-329.5"/>
<text text-anchor="start" x="21" y="-317.5" font-family="Helvetica,sans-Serif" font-size="10.00">com.teragrep.pth_06.ast.meta.</text>
<text text-anchor="start" x="21" y="-306.5" font-family="Helvetica,sans-Serif" font-size="10.00">StreamDBConditionTest.testIndexNot</text>
<text text-anchor="middle" x="112" y="-295.5" font-family="Helvetica,sans-Serif" font-size="10.00">Equals</text>
</a>
</g>
</g>
<!-- Node1&#45;&gt;Node6 -->
<g id="edge9_Node000001_Node000006" class="edge">
<title>Node1&#45;&gt;Node6</title>
<g id="a_edge9_Node000001_Node000006"><a xlink:title=" ">
<path fill="none" stroke="#63b8ff" d="M249.86,-309C237.14,-309 224.04,-309 211.23,-309"/>
<polygon fill="#63b8ff" stroke="#63b8ff" points="249.97,-312.5 259.97,-309 249.97,-305.5 249.97,-312.5"/>
</a>
</g>
</g>
<!-- Node7 -->
<g id="Node000007" class="node">
<title>Node7</title>
<g id="a_Node000007"><a xlink:href="classcom_1_1teragrep_1_1pth__06_1_1ast_1_1meta_1_1StreamDBConditionTest.html#a7a14233dc0534410ee2f6824cf067cda" target="_top" xlink:title=" ">
<polygon fill="white" stroke="#666666" points="224,-270 0,-270 0,-240 224,-240 224,-270"/>
<text text-anchor="start" x="8" y="-258" font-family="Helvetica,sans-Serif" font-size="10.00">com.teragrep.pth_06.ast.meta.</text>
<text text-anchor="middle" x="112" y="-247" font-family="Helvetica,sans-Serif" font-size="10.00">StreamDBConditionTest.testIndexWildcard</text>
</a>
</g>
</g>
<!-- Node1&#45;&gt;Node7 -->
<g id="edge10_Node000001_Node000007" class="edge">
<title>Node1&#45;&gt;Node7</title>
<g id="a_edge10_Node000001_Node000007"><a xlink:title=" ">
<path fill="none" stroke="#63b8ff" d="M272.23,-291.58C256.38,-287.71 239.62,-283.67 224,-280 209.96,-276.7 194.9,-273.25 180.55,-270"/>
<polygon fill="#63b8ff" stroke="#63b8ff" points="271.42,-294.98 281.96,-293.96 273.08,-288.18 271.42,-294.98"/>
</a>
</g>
</g>
<!-- Node8 -->
<g id="Node000008" class="node">
<title>Node8</title>
<g id="a_Node000008"><a xlink:href="classcom_1_1teragrep_1_1pth__06_1_1ast_1_1meta_1_1StreamIDsTest.html#a3e58a5f3605e8aaad84691533257d73c" target="_top" xlink:title=" ">
<polygon fill="white" stroke="#666666" points="200,-222 24,-222 24,-192 200,-192 200,-222"/>
<text text-anchor="start" x="32" y="-210" font-family="Helvetica,sans-Serif" font-size="10.00">com.teragrep.pth_06.ast.meta.</text>
<text text-anchor="middle" x="112" y="-199" font-family="Helvetica,sans-Serif" font-size="10.00">StreamIDsTest.testMultipleHosts</text>
</a>
</g>
</g>
<!-- Node1&#45;&gt;Node8 -->
<g id="edge11_Node000001_Node000008" class="edge">
<title>Node1&#45;&gt;Node8</title>
<g id="a_edge11_Node000001_Node000008"><a xlink:title=" ">
<path fill="none" stroke="#63b8ff" d="M316.54,-287.81C293.55,-270.08 258.38,-245.44 224,-231 215.82,-227.57 207.09,-224.6 198.24,-222.04"/>
<polygon fill="#63b8ff" stroke="#63b8ff" points="314.41,-290.58 324.44,-293.99 318.72,-285.07 314.41,-290.58"/>
</a>
</g>
</g>
<!-- Node9 -->
<g id="Node000009" class="node">
<title>Node9</title>
<g id="a_Node000009"><a xlink:href="classcom_1_1teragrep_1_1pth__06_1_1ast_1_1meta_1_1StreamIDsTest.html#a0d4004b66d36725ecc6561478e1de00b" target="_top" xlink:title=" ">
<polygon fill="white" stroke="#666666" points="200,-174 24,-174 24,-144 200,-144 200,-174"/>
<text text-anchor="start" x="32" y="-162" font-family="Helvetica,sans-Serif" font-size="10.00">com.teragrep.pth_06.ast.meta.</text>
<text text-anchor="middle" x="112" y="-151" font-family="Helvetica,sans-Serif" font-size="10.00">StreamIDsTest.testMultipleIndex</text>
</a>
</g>
</g>
<!-- Node1&#45;&gt;Node9 -->
<g id="edge12_Node000001_Node000009" class="edge">
<title>Node1&#45;&gt;Node9</title>
<g id="a_edge12_Node000001_Node000009"><a xlink:title=" ">
<path fill="none" stroke="#63b8ff" d="M327.19,-285.51C307.08,-256.66 269.01,-208.44 224,-183 216.53,-178.78 208.4,-175.3 200.04,-172.43"/>
<polygon fill="#63b8ff" stroke="#63b8ff" points="324.31,-287.5 332.84,-293.79 330.09,-283.56 324.31,-287.5"/>
</a>
</g>
</g>
<!-- Node10 -->
<g id="Node000010" class="node">
<title>Node10</title>
<g id="a_Node000010"><a xlink:href="classcom_1_1teragrep_1_1pth__06_1_1ast_1_1meta_1_1StreamIDsTest.html#afe30676e16fb9b5f0faf1369e24620ad" target="_top" xlink:title=" ">
<polygon fill="white" stroke="#666666" points="195.5,-126 28.5,-126 28.5,-96 195.5,-96 195.5,-126"/>
<text text-anchor="start" x="36.5" y="-114" font-family="Helvetica,sans-Serif" font-size="10.00">com.teragrep.pth_06.ast.meta.</text>
<text text-anchor="middle" x="112" y="-103" font-family="Helvetica,sans-Serif" font-size="10.00">StreamIDsTest.testSingleHost</text>
</a>
</g>
</g>
<!-- Node1&#45;&gt;Node10 -->
<g id="edge13_Node000001_Node000010" class="edge">
<title>Node1&#45;&gt;Node10</title>
<g id="a_edge13_Node000001_Node000010"><a xlink:title=" ">
<path fill="none" stroke="#63b8ff" d="M332.9,-284.4C316.61,-246.07 279.79,-172.59 224,-135 215.42,-129.22 205.68,-124.79 195.64,-121.42"/>
<polygon fill="#63b8ff" stroke="#63b8ff" points="329.72,-285.88 336.78,-293.79 336.19,-283.21 329.72,-285.88"/>
</a>
</g>
</g>
<!-- Node11 -->
<g id="Node000011" class="node">
<title>Node11</title>
<g id="a_Node000011"><a xlink:href="classcom_1_1teragrep_1_1pth__06_1_1ast_1_1meta_1_1StreamIDsTest.html#ad652d049581506648821e447996b7816" target="_top" xlink:title=" ">
<polygon fill="white" stroke="#666666" points="195.5,-78 28.5,-78 28.5,-48 195.5,-48 195.5,-78"/>
<text text-anchor="start" x="36.5" y="-66" font-family="Helvetica,sans-Serif" font-size="10.00">com.teragrep.pth_06.ast.meta.</text>
<text text-anchor="middle" x="112" y="-55" font-family="Helvetica,sans-Serif" font-size="10.00">StreamIDsTest.testSingleIndex</text>
</a>
</g>
</g>
<!-- Node1&#45;&gt;Node11 -->
<g id="edge14_Node000001_Node000011" class="edge">
<title>Node1&#45;&gt;Node11</title>
<g id="a_edge14_Node000001_Node000011"><a xlink:title=" ">
<path fill="none" stroke="#63b8ff" d="M336.63,-284.16C324.3,-237.67 291.12,-137.68 224,-87 215.58,-80.64 205.83,-75.9 195.68,-72.36"/>
<polygon fill="#63b8ff" stroke="#63b8ff" points="333.28,-285.17 339.14,-294 340.06,-283.44 333.28,-285.17"/>
</a>
</g>
</g>
<!-- Node12 -->
<g id="Node000012" class="node">
<title>Node12</title>
<g id="a_Node000012"><a xlink:href="classcom_1_1teragrep_1_1pth__06_1_1ast_1_1meta_1_1StreamDBConditionTest.html#afebbd56bd5af6f1e7ac40903d2c8d2fa" target="_top" xlink:title=" ">
<polygon fill="white" stroke="#666666" points="216.5,-30 7.5,-30 7.5,0 216.5,0 216.5,-30"/>
<text text-anchor="start" x="15.5" y="-18" font-family="Helvetica,sans-Serif" font-size="10.00">com.teragrep.pth_06.ast.meta.</text>
<text text-anchor="middle" x="112" y="-7" font-family="Helvetica,sans-Serif" font-size="10.00">StreamDBConditionTest.testSourcetype</text>
</a>
</g>
</g>
<!-- Node1&#45;&gt;Node12 -->
<g id="edge15_Node000001_Node000012" class="edge">
<title>Node1&#45;&gt;Node12</title>
<g id="a_edge15_Node000001_Node000012"><a xlink:title=" ">
<path fill="none" stroke="#63b8ff" d="M339.14,-283.85C330.55,-230 302.62,-103.24 224,-39 219.8,-35.57 215.22,-32.6 210.4,-30.03"/>
<polygon fill="#63b8ff" stroke="#63b8ff" points="335.7,-284.53 340.65,-293.9 342.62,-283.49 335.7,-284.53"/>
</a>
</g>
</g>
<!-- Node2&#45;&gt;Node1 -->
<g id="edge2_Node000002_Node000001" class="edge">
<title>Node2&#45;&gt;Node1</title>
<g id="a_edge2_Node000002_Node000001"><a xlink:title=" ">
<path fill="none" stroke="#63b8ff" d="M212.84,-516.75C216.73,-514.74 220.47,-512.5 224,-510 291.49,-462.29 328.23,-362.79 339.06,-324.25"/>
<polygon fill="#63b8ff" stroke="#63b8ff" points="211.15,-513.68 203.52,-521.04 214.07,-520.04 211.15,-513.68"/>
</a>
</g>
</g>
<!-- Node2&#45;&gt;Node2 -->
<g id="edge3_Node000002_Node000002" class="edge">
<title>Node2&#45;&gt;Node2</title>
<g id="a_edge3_Node000002_Node000002"><a xlink:title=" ">
<path fill="none" stroke="#63b8ff" d="M152.26,-550.6C146.76,-554.97 133.34,-558 112,-558 76.06,-558 62.59,-549.41 71.57,-540.28"/>
<polygon fill="#63b8ff" stroke="#63b8ff" points="155.76,-550.33 152.43,-540.28 148.76,-550.22 155.76,-550.33"/>
</a>
</g>
</g>
<!-- Node3&#45;&gt;Node1 -->
<g id="edge5_Node000003_Node000001" class="edge">
<title>Node3&#45;&gt;Node1</title>
<g id="a_edge5_Node000003_Node000001"><a xlink:title=" ">
<path fill="none" stroke="#63b8ff" d="M229.39,-440.59C281.29,-407.79 320.9,-351.43 335.96,-324.05"/>
<polygon fill="#63b8ff" stroke="#63b8ff" points="227.4,-437.71 220.61,-445.84 230.99,-443.71 227.4,-437.71"/>
</a>
</g>
</g>
<!-- Node3&#45;&gt;Node3 -->
<g id="edge6_Node000003_Node000003" class="edge">
<title>Node3&#45;&gt;Node3</title>
<g id="a_edge6_Node000003_Node000003"><a xlink:title=" ">
<path fill="none" stroke="#63b8ff" d="M152.26,-484.6C146.76,-488.97 133.34,-492 112,-492 76.06,-492 62.59,-483.41 71.57,-474.28"/>
<polygon fill="#63b8ff" stroke="#63b8ff" points="155.76,-484.33 152.43,-474.28 148.76,-484.22 155.76,-484.33"/>
</a>
</g>
</g>
</g>
</svg>
