<?xml version="1.0" encoding="UTF-8" standalone="no"?>
<!DOCTYPE svg PUBLIC "-//W3C//DTD SVG 1.1//EN"
 "http://www.w3.org/Graphics/SVG/1.1/DTD/svg11.dtd">
<!-- Generated by graphviz version 2.43.0 (0)
 -->
<!-- Title: com.teragrep.pth_06.planner.StreamDBClient Pages: 1 -->
<svg width="1245pt" height="203pt"
 viewBox="0.00 0.00 1245.00 202.56" xmlns="http://www.w3.org/2000/svg" xmlns:xlink="http://www.w3.org/1999/xlink">
<g id="graph0" class="graph" transform="scale(1 1) rotate(0) translate(4 198.56)">
<title>com.teragrep.pth_06.planner.StreamDBClient</title>
<!-- Node1 -->
<g id="Node000001" class="node">
<title>Node1</title>
<g id="a_Node000001"><a xlink:title=" ">
<polygon fill="#999999" stroke="#666666" points="1237,-128.56 1077,-128.56 1077,-98.56 1237,-98.56 1237,-128.56"/>
<text text-anchor="start" x="1085" y="-116.56" font-family="Helvetica,sans-Serif" font-size="10.00">com.teragrep.pth_06.planner.</text>
<text text-anchor="middle" x="1157" y="-105.56" font-family="Helvetica,sans-Serif" font-size="10.00">StreamDBClient</text>
</a>
</g>
</g>
<!-- Node2 -->
<g id="Node000002" class="node">
<title>Node2</title>
<g id="a_Node000002"><a xlink:href="classcom_1_1teragrep_1_1pth__06_1_1ConfiguredLogger.html" target="_top" xlink:title=" ">
<polygon fill="white" stroke="#666666" points="173,-93.56 0,-93.56 0,-63.56 173,-63.56 173,-93.56"/>
<text text-anchor="start" x="8" y="-81.56" font-family="Helvetica,sans-Serif" font-size="10.00">com.teragrep.pth_06.Configured</text>
<text text-anchor="middle" x="86.5" y="-70.56" font-family="Helvetica,sans-Serif" font-size="10.00">Logger</text>
</a>
</g>
</g>
<!-- Node2&#45;&gt;Node1 -->
<g id="edge1_Node000001_Node000002" class="edge">
<title>Node2&#45;&gt;Node1</title>
<g id="a_edge1_Node000001_Node000002"><a xlink:title=" ">
<path fill="none" stroke="#9a32cd" stroke-dasharray="5,2" d="M115.57,-99.4C159.67,-130.01 248.96,-183.56 334,-183.56 334,-183.56 334,-183.56 872,-183.56 963.15,-183.56 1066.1,-149.15 1119.49,-128.58"/>
<polygon fill="#9a32cd" stroke="#9a32cd" points="117.55,-96.51 107.37,-93.6 113.52,-102.23 117.55,-96.51"/>
</a>
</g>
<text text-anchor="middle" x="585" y="-186.56" font-family="Helvetica,sans-Serif" font-size="10.00" fill="grey"> LOGGER</text>
</g>
<!-- Node3 -->
<g id="Node000003" class="node">
<title>Node3</title>
<g id="a_Node000003"><a xlink:href="classcom_1_1teragrep_1_1pth__06_1_1planner_1_1GetArchivedObjectsFilterTable.html" target="_top" xlink:title=" ">
<polygon fill="white" stroke="#666666" points="417,-137.56 253,-137.56 253,-107.56 417,-107.56 417,-137.56"/>
<text text-anchor="start" x="261" y="-125.56" font-family="Helvetica,sans-Serif" font-size="10.00">com.teragrep.pth_06.planner.</text>
<text text-anchor="middle" x="335" y="-114.56" font-family="Helvetica,sans-Serif" font-size="10.00">GetArchivedObjectsFilterTable</text>
</a>
</g>
</g>
<!-- Node2&#45;&gt;Node3 -->
<g id="edge3_Node000003_Node000002" class="edge">
<title>Node2&#45;&gt;Node3</title>
<g id="a_edge3_Node000003_Node000002"><a xlink:title=" ">
<path fill="none" stroke="#9a32cd" stroke-dasharray="5,2" d="M181.59,-95.35C205.03,-99.54 229.97,-103.99 252.74,-108.05"/>
<polygon fill="#9a32cd" stroke="#9a32cd" points="182.1,-91.89 171.64,-93.58 180.87,-98.78 182.1,-91.89"/>
</a>
</g>
<text text-anchor="middle" x="213" y="-106.56" font-family="Helvetica,sans-Serif" font-size="10.00" fill="grey"> logger</text>
</g>
<!-- Node4 -->
<g id="Node000004" class="node">
<title>Node4</title>
<g id="a_Node000004"><a xlink:href="classcom_1_1teragrep_1_1pth__06_1_1planner_1_1NestedTopNQuery.html" target="_top" xlink:title=" ">
<polygon fill="white" stroke="#666666" points="951,-84.56 791,-84.56 791,-54.56 951,-54.56 951,-84.56"/>
<text text-anchor="start" x="799" y="-72.56" font-family="Helvetica,sans-Serif" font-size="10.00">com.teragrep.pth_06.planner.</text>
<text text-anchor="middle" x="871" y="-61.56" font-family="Helvetica,sans-Serif" font-size="10.00">NestedTopNQuery</text>
</a>
</g>
</g>
<!-- Node2&#45;&gt;Node4 -->
<g id="edge5_Node000004_Node000002" class="edge">
<title>Node2&#45;&gt;Node4</title>
<g id="a_edge5_Node000004_Node000002"><a xlink:title=" ">
<path fill="none" stroke="#9a32cd" stroke-dasharray="5,2" d="M120.89,-58.28C153.31,-39.86 204.59,-14.02 253,-3.56 301.27,6.87 643.86,-8.8 665,-11.56 723.68,-19.22 789.09,-39.96 829.89,-54.44"/>
<polygon fill="#9a32cd" stroke="#9a32cd" points="118.77,-55.46 111.86,-63.49 122.27,-61.52 118.77,-55.46"/>
</a>
</g>
<text text-anchor="middle" x="461" y="-5.56" font-family="Helvetica,sans-Serif" font-size="10.00" fill="grey"> logger</text>
</g>
<!-- Node5 -->
<g id="Node000005" class="node">
<title>Node5</title>
<g id="a_Node000005"><a xlink:href="classcom_1_1teragrep_1_1pth__06_1_1planner_1_1StreamDBClient.html" target="_top" xlink:title=" ">
<polygon fill="white" stroke="#666666" points="665,-98.56 505,-98.56 505,-68.56 665,-68.56 665,-98.56"/>
<text text-anchor="start" x="513" y="-86.56" font-family="Helvetica,sans-Serif" font-size="10.00">com.teragrep.pth_06.planner.</text>
<text text-anchor="middle" x="585" y="-75.56" font-family="Helvetica,sans-Serif" font-size="10.00">StreamDBClient</text>
</a>
</g>
</g>
<!-- Node2&#45;&gt;Node5 -->
<g id="edge7_Node000005_Node000002" class="edge">
<title>Node2&#45;&gt;Node5</title>
<g id="a_edge7_Node000005_Node000002"><a xlink:title=" ">
<path fill="none" stroke="#9a32cd" stroke-dasharray="5,2" d="M183.16,-79.52C276.66,-80.47 417.35,-81.88 504.77,-82.76"/>
<polygon fill="#9a32cd" stroke="#9a32cd" points="183.17,-76.02 173.13,-79.42 183.1,-83.02 183.17,-76.02"/>
</a>
</g>
<text text-anchor="middle" x="335" y="-84.56" font-family="Helvetica,sans-Serif" font-size="10.00" fill="grey"> LOGGER</text>
</g>
<!-- Node6 -->
<g id="Node000006" class="node">
<title>Node6</title>
<g id="a_Node000006"><a xlink:href="classcom_1_1teragrep_1_1pth__06_1_1planner_1_1SliceTable.html" target="_top" xlink:title=" ">
<polygon fill="white" stroke="#666666" points="415,-42.56 255,-42.56 255,-12.56 415,-12.56 415,-42.56"/>
<text text-anchor="start" x="263" y="-30.56" font-family="Helvetica,sans-Serif" font-size="10.00">com.teragrep.pth_06.planner.</text>
<text text-anchor="middle" x="335" y="-19.56" font-family="Helvetica,sans-Serif" font-size="10.00">SliceTable</text>
</a>
</g>
</g>
<!-- Node2&#45;&gt;Node6 -->
<g id="edge11_Node000006_Node000002" class="edge">
<title>Node2&#45;&gt;Node6</title>
<g id="a_edge11_Node000006_Node000002"><a xlink:title=" ">
<path fill="none" stroke="#9a32cd" stroke-dasharray="5,2" d="M157.13,-61.17C168.43,-58.51 180.02,-55.88 191,-53.56 211.61,-49.2 233.99,-44.92 254.79,-41.13"/>
<polygon fill="#9a32cd" stroke="#9a32cd" points="156.22,-57.78 147.3,-63.5 157.84,-64.6 156.22,-57.78"/>
</a>
</g>
<text text-anchor="middle" x="213" y="-56.56" font-family="Helvetica,sans-Serif" font-size="10.00" fill="grey"> LOGGER</text>
</g>
<!-- Node3&#45;&gt;Node1 -->
<g id="edge2_Node000001_Node000003" class="edge">
<title>Node3&#45;&gt;Node1</title>
<g id="a_edge2_Node000001_Node000003"><a xlink:title=" ">
<path fill="none" stroke="#9a32cd" stroke-dasharray="5,2" d="M427.67,-121.55C589.7,-119.78 923.99,-116.11 1076.73,-114.43"/>
<polygon fill="#9a32cd" stroke="#9a32cd" points="427.21,-118.06 417.25,-121.67 427.28,-125.06 427.21,-118.06"/>
</a>
</g>
<text text-anchor="middle" x="728" y="-121.56" font-family="Helvetica,sans-Serif" font-size="10.00" fill="grey"> filterTable</text>
</g>
<!-- Node3&#45;&gt;Node5 -->
<g id="edge8_Node000005_Node000003" class="edge">
<title>Node3&#45;&gt;Node5</title>
<g id="a_edge8_Node000005_Node000003"><a xlink:title=" ">
<path fill="none" stroke="#9a32cd" stroke-dasharray="5,2" d="M427.21,-108.22C452.64,-104.22 480.05,-99.91 504.73,-96.03"/>
<polygon fill="#9a32cd" stroke="#9a32cd" points="426.54,-104.78 417.2,-109.79 427.63,-111.69 426.54,-104.78"/>
</a>
</g>
<text text-anchor="middle" x="461" y="-108.56" font-family="Helvetica,sans-Serif" font-size="10.00" fill="grey"> filterTable</text>
</g>
<!-- Node4&#45;&gt;Node1 -->
<g id="edge4_Node000001_Node000004" class="edge">
<title>Node4&#45;&gt;Node1</title>
<g id="a_edge4_Node000001_Node000004"><a xlink:title=" ">
<path fill="none" stroke="#9a32cd" stroke-dasharray="5,2" d="M961.39,-83.41C998.4,-89.14 1040.96,-95.74 1076.82,-101.29"/>
<polygon fill="#9a32cd" stroke="#9a32cd" points="961.53,-79.89 951.11,-81.82 960.46,-86.81 961.53,-79.89"/>
</a>
</g>
<text text-anchor="middle" x="1014" y="-100.56" font-family="Helvetica,sans-Serif" font-size="10.00" fill="grey"> nestedTopNQuery</text>
</g>
<!-- Node4&#45;&gt;Node5 -->
<g id="edge9_Node000005_Node000004" class="edge">
<title>Node4&#45;&gt;Node5</title>
<g id="a_edge9_Node000005_Node000004"><a xlink:title=" ">
<path fill="none" stroke="#9a32cd" stroke-dasharray="5,2" d="M780.42,-66.1C749.51,-65.7 714.7,-66.12 683,-68.56 677.14,-69.01 671.09,-69.61 665.03,-70.32"/>
<polygon fill="#9a32cd" stroke="#9a32cd" points="780.68,-69.6 790.74,-66.27 780.79,-62.61 780.68,-69.6"/>
</a>
</g>
<text text-anchor="middle" x="728" y="-71.56" font-family="Helvetica,sans-Serif" font-size="10.00" fill="grey"> nestedTopNQuery</text>
</g>
<!-- Node5&#45;&gt;Node4 -->
<g id="edge6_Node000004_Node000005" class="edge">
<title>Node5&#45;&gt;Node4</title>
<g id="a_edge6_Node000004_Node000005"><a xlink:title=" ">
<path fill="none" stroke="#9a32cd" stroke-dasharray="5,2" d="M675.56,-84.64C706.46,-84.48 741.28,-83.69 773,-81.56 778.84,-81.17 784.87,-80.67 790.93,-80.09"/>
<polygon fill="#9a32cd" stroke="#9a32cd" points="675.23,-81.15 665.24,-84.68 675.25,-88.15 675.23,-81.15"/>
</a>
</g>
<text text-anchor="middle" x="728" y="-87.56" font-family="Helvetica,sans-Serif" font-size="10.00" fill="grey"> streamDBClient</text>
</g>
<!-- Node6&#45;&gt;Node1 -->
<g id="edge13_Node000001_Node000006" class="edge">
<title>Node6&#45;&gt;Node1</title>
<g id="a_edge13_Node000001_Node000006"><a xlink:title=" ">
<path fill="none" stroke="#9a32cd" stroke-dasharray="5,2" d="M425.49,-17.5C451.13,-15.05 479.14,-12.78 505,-11.56 703.58,-2.18 756.82,-2.98 951,-45.56 1010.89,-58.69 1077.9,-82.79 1118.5,-98.49"/>
<polygon fill="#9a32cd" stroke="#9a32cd" points="425.03,-14.03 415.41,-18.48 425.71,-20.99 425.03,-14.03"/>
</a>
</g>
<text text-anchor="middle" x="728" y="-15.56" font-family="Helvetica,sans-Serif" font-size="10.00" fill="grey"> sliceTable</text>
</g>
<!-- Node6&#45;&gt;Node5 -->
<g id="edge10_Node000005_Node000006" class="edge">
<title>Node6&#45;&gt;Node5</title>
<g id="a_edge10_Node000005_Node000006"><a xlink:title=" ">
<path fill="none" stroke="#9a32cd" stroke-dasharray="5,2" d="M425.17,-40.61C445.61,-44.24 467.16,-48.57 487,-53.56 495.18,-55.61 496.96,-57 505,-59.56 514.29,-62.52 524.22,-65.6 533.79,-68.53"/>
<polygon fill="#9a32cd" stroke="#9a32cd" points="425.69,-37.15 415.23,-38.89 424.49,-44.05 425.69,-37.15"/>
</a>
</g>
<text text-anchor="middle" x="461" y="-56.56" font-family="Helvetica,sans-Serif" font-size="10.00" fill="grey"> sliceTable</text>
</g>
<!-- Node7 -->
<g id="Node000007" class="node">
<title>Node7</title>
<g id="a_Node000007"><a xlink:title=" ">
<polygon fill="white" stroke="#666666" points="665,-50.56 505,-50.56 505,-20.56 665,-20.56 665,-50.56"/>
<text text-anchor="start" x="513" y="-38.56" font-family="Helvetica,sans-Serif" font-size="10.00">com.teragrep.pth_06.planner.</text>
<text text-anchor="middle" x="585" y="-27.56" font-family="Helvetica,sans-Serif" font-size="10.00">SafeLogtimeFunction</text>
</a>
</g>
</g>
<!-- Node7&#45;&gt;Node4 -->
<g id="edge12_Node000004_Node000007" class="edge">
<title>Node7&#45;&gt;Node4</title>
<g id="a_edge12_Node000004_Node000007"><a xlink:title=" ">
<path fill="none" stroke="#9a32cd" stroke-dasharray="5,2" d="M675.7,-40.68C706.61,-43 741.4,-46.21 773,-50.56 781.16,-51.68 789.67,-53.05 798.11,-54.54"/>
<polygon fill="#9a32cd" stroke="#9a32cd" points="675.6,-37.17 665.38,-39.93 675.1,-44.15 675.6,-37.17"/>
</a>
</g>
<text text-anchor="middle" x="728" y="-53.56" font-family="Helvetica,sans-Serif" font-size="10.00" fill="grey"> logtimeFunction</text>
</g>
</g>
</svg>
