<?xml version="1.0" encoding="UTF-8" standalone="no"?>
<!DOCTYPE svg PUBLIC "-//W3C//DTD SVG 1.1//EN"
 "http://www.w3.org/Graphics/SVG/1.1/DTD/svg11.dtd">
<!-- Generated by graphviz version 2.43.0 (0)
 -->
<!-- Title: com.teragrep.pth_06.planner.ArchiveQueryProcessor Pages: 1 -->
<svg width="959pt" height="208pt"
 viewBox="0.00 0.00 959.00 208.00" xmlns="http://www.w3.org/2000/svg" xmlns:xlink="http://www.w3.org/1999/xlink">
<g id="graph0" class="graph" transform="scale(1 1) rotate(0) translate(4 204)">
<title>com.teragrep.pth_06.planner.ArchiveQueryProcessor</title>
<!-- Node1 -->
<g id="Node000001" class="node">
<title>Node1</title>
<g id="a_Node000001"><a xlink:title=" ">
<polygon fill="#999999" stroke="#666666" points="951,-187 791,-187 791,-157 951,-157 951,-187"/>
<text text-anchor="start" x="799" y="-175" font-family="Helvetica,sans-Serif" font-size="10.00">com.teragrep.pth_06.planner.</text>
<text text-anchor="middle" x="871" y="-164" font-family="Helvetica,sans-Serif" font-size="10.00">ArchiveQueryProcessor</text>
</a>
</g>
</g>
<!-- Node2 -->
<g id="Node000002" class="node">
<title>Node2</title>
<g id="a_Node000002"><a xlink:href="interfacecom_1_1teragrep_1_1pth__06_1_1planner_1_1ArchiveQuery.html" target="_top" xlink:title=" ">
<polygon fill="white" stroke="#666666" points="665,-200 505,-200 505,-170 665,-170 665,-200"/>
<text text-anchor="start" x="513" y="-188" font-family="Helvetica,sans-Serif" font-size="10.00">com.teragrep.pth_06.planner.</text>
<text text-anchor="middle" x="585" y="-177" font-family="Helvetica,sans-Serif" font-size="10.00">ArchiveQuery</text>
</a>
</g>
</g>
<!-- Node2&#45;&gt;Node1 -->
<g id="edge1_Node000001_Node000002" class="edge">
<title>Node2&#45;&gt;Node1</title>
<g id="a_edge1_Node000001_Node000002"><a xlink:title=" ">
<path fill="none" stroke="#63b8ff" d="M675.39,-180.91C712.4,-179.21 754.96,-177.27 790.82,-175.62"/>
<polygon fill="#63b8ff" stroke="#63b8ff" points="674.94,-177.43 665.11,-181.38 675.26,-184.42 674.94,-177.43"/>
</a>
</g>
</g>
<!-- Node3 -->
<g id="Node000003" class="node">
<title>Node3</title>
<g id="a_Node000003"><a xlink:href="classcom_1_1teragrep_1_1pth__06_1_1planner_1_1StreamDBClient.html" target="_top" xlink:title=" ">
<polygon fill="white" stroke="#666666" points="665,-146 505,-146 505,-116 665,-116 665,-146"/>
<text text-anchor="start" x="513" y="-134" font-family="Helvetica,sans-Serif" font-size="10.00">com.teragrep.pth_06.planner.</text>
<text text-anchor="middle" x="585" y="-123" font-family="Helvetica,sans-Serif" font-size="10.00">StreamDBClient</text>
</a>
</g>
</g>
<!-- Node3&#45;&gt;Node1 -->
<g id="edge2_Node000001_Node000003" class="edge">
<title>Node3&#45;&gt;Node1</title>
<g id="a_edge2_Node000001_Node000003"><a xlink:title=" ">
<path fill="none" stroke="#9a32cd" stroke-dasharray="5,2" d="M675.39,-143.9C712.4,-149.25 754.96,-155.39 790.82,-160.57"/>
<polygon fill="#9a32cd" stroke="#9a32cd" points="675.51,-140.39 665.11,-142.42 674.51,-147.31 675.51,-140.39"/>
</a>
</g>
<text text-anchor="middle" x="728" y="-160" font-family="Helvetica,sans-Serif" font-size="10.00" fill="grey"> sdc</text>
</g>
<!-- Node6 -->
<g id="Node000006" class="node">
<title>Node6</title>
<g id="a_Node000006"><a xlink:href="classcom_1_1teragrep_1_1pth__06_1_1planner_1_1NestedTopNQuery.html" target="_top" xlink:title=" ">
<polygon fill="white" stroke="#666666" points="951,-90 791,-90 791,-60 951,-60 951,-90"/>
<text text-anchor="start" x="799" y="-78" font-family="Helvetica,sans-Serif" font-size="10.00">com.teragrep.pth_06.planner.</text>
<text text-anchor="middle" x="871" y="-67" font-family="Helvetica,sans-Serif" font-size="10.00">NestedTopNQuery</text>
</a>
</g>
</g>
<!-- Node3&#45;&gt;Node6 -->
<g id="edge8_Node000006_Node000003" class="edge">
<title>Node3&#45;&gt;Node6</title>
<g id="a_edge8_Node000006_Node000003"><a xlink:title=" ">
<path fill="none" stroke="#9a32cd" stroke-dasharray="5,2" d="M675.09,-120.11C706.23,-115.66 741.31,-109.91 773,-103 789.27,-99.45 806.82,-94.68 822.46,-90.08"/>
<polygon fill="#9a32cd" stroke="#9a32cd" points="674.54,-116.66 665.13,-121.51 675.52,-123.59 674.54,-116.66"/>
</a>
</g>
<text text-anchor="middle" x="728" y="-121" font-family="Helvetica,sans-Serif" font-size="10.00" fill="grey"> streamDBClient</text>
</g>
<!-- Node4 -->
<g id="Node000004" class="node">
<title>Node4</title>
<g id="a_Node000004"><a xlink:href="classcom_1_1teragrep_1_1pth__06_1_1ConfiguredLogger.html" target="_top" xlink:title=" ">
<polygon fill="white" stroke="#666666" points="173,-147 0,-147 0,-117 173,-117 173,-147"/>
<text text-anchor="start" x="8" y="-135" font-family="Helvetica,sans-Serif" font-size="10.00">com.teragrep.pth_06.Configured</text>
<text text-anchor="middle" x="86.5" y="-124" font-family="Helvetica,sans-Serif" font-size="10.00">Logger</text>
</a>
</g>
</g>
<!-- Node4&#45;&gt;Node3 -->
<g id="edge3_Node000003_Node000004" class="edge">
<title>Node4&#45;&gt;Node3</title>
<g id="a_edge3_Node000003_Node000004"><a xlink:title=" ">
<path fill="none" stroke="#9a32cd" stroke-dasharray="5,2" d="M145.01,-149.9C176.55,-158.78 216.54,-168.55 253,-173 325.35,-181.83 344.63,-181.66 417,-173 448.79,-169.2 455.94,-163.77 487,-156 499.74,-152.81 513.4,-149.33 526.33,-146"/>
<polygon fill="#9a32cd" stroke="#9a32cd" points="145.66,-146.44 135.08,-147.05 143.73,-153.17 145.66,-146.44"/>
</a>
</g>
<text text-anchor="middle" x="335" y="-182" font-family="Helvetica,sans-Serif" font-size="10.00" fill="grey"> LOGGER</text>
</g>
<!-- Node5 -->
<g id="Node000005" class="node">
<title>Node5</title>
<g id="a_Node000005"><a xlink:href="classcom_1_1teragrep_1_1pth__06_1_1planner_1_1GetArchivedObjectsFilterTable.html" target="_top" xlink:title=" ">
<polygon fill="white" stroke="#666666" points="417,-164 253,-164 253,-134 417,-134 417,-164"/>
<text text-anchor="start" x="261" y="-152" font-family="Helvetica,sans-Serif" font-size="10.00">com.teragrep.pth_06.planner.</text>
<text text-anchor="middle" x="335" y="-141" font-family="Helvetica,sans-Serif" font-size="10.00">GetArchivedObjectsFilterTable</text>
</a>
</g>
</g>
<!-- Node4&#45;&gt;Node5 -->
<g id="edge5_Node000005_Node000004" class="edge">
<title>Node4&#45;&gt;Node5</title>
<g id="a_edge5_Node000005_Node000004"><a xlink:title=" ">
<path fill="none" stroke="#9a32cd" stroke-dasharray="5,2" d="M183.14,-138.6C206.14,-140.18 230.5,-141.86 252.78,-143.4"/>
<polygon fill="#9a32cd" stroke="#9a32cd" points="183.24,-135.09 173.02,-137.9 182.76,-142.08 183.24,-135.09"/>
</a>
</g>
<text text-anchor="middle" x="213" y="-145" font-family="Helvetica,sans-Serif" font-size="10.00" fill="grey"> logger</text>
</g>
<!-- Node4&#45;&gt;Node6 -->
<g id="edge7_Node000006_Node000004" class="edge">
<title>Node4&#45;&gt;Node6</title>
<g id="a_edge7_Node000006_Node000004"><a xlink:title=" ">
<path fill="none" stroke="#9a32cd" stroke-dasharray="5,2" d="M131.5,-113.16C164.31,-100.17 210.59,-84.01 253,-77 444.02,-45.41 672.88,-57.43 790.92,-67.23"/>
<polygon fill="#9a32cd" stroke="#9a32cd" points="130.17,-109.93 122.2,-116.91 132.78,-116.42 130.17,-109.93"/>
</a>
</g>
<text text-anchor="middle" x="461" y="-61" font-family="Helvetica,sans-Serif" font-size="10.00" fill="grey"> logger</text>
</g>
<!-- Node8 -->
<g id="Node000008" class="node">
<title>Node8</title>
<g id="a_Node000008"><a xlink:href="classcom_1_1teragrep_1_1pth__06_1_1planner_1_1SliceTable.html" target="_top" xlink:title=" ">
<polygon fill="white" stroke="#666666" points="415,-116 255,-116 255,-86 415,-86 415,-116"/>
<text text-anchor="start" x="263" y="-104" font-family="Helvetica,sans-Serif" font-size="10.00">com.teragrep.pth_06.planner.</text>
<text text-anchor="middle" x="335" y="-93" font-family="Helvetica,sans-Serif" font-size="10.00">SliceTable</text>
</a>
</g>
</g>
<!-- Node4&#45;&gt;Node8 -->
<g id="edge11_Node000008_Node000004" class="edge">
<title>Node4&#45;&gt;Node8</title>
<g id="a_edge11_Node000008_Node000004"><a xlink:title=" ">
<path fill="none" stroke="#9a32cd" stroke-dasharray="5,2" d="M183.09,-119.98C206.82,-116.99 231.99,-113.83 254.83,-110.96"/>
<polygon fill="#9a32cd" stroke="#9a32cd" points="182.51,-116.52 173.02,-121.24 183.38,-123.47 182.51,-116.52"/>
</a>
</g>
<text text-anchor="middle" x="213" y="-121" font-family="Helvetica,sans-Serif" font-size="10.00" fill="grey"> LOGGER</text>
</g>
<!-- Node5&#45;&gt;Node3 -->
<g id="edge4_Node000003_Node000005" class="edge">
<title>Node5&#45;&gt;Node3</title>
<g id="a_edge4_Node000003_Node000005"><a xlink:title=" ">
<path fill="none" stroke="#9a32cd" stroke-dasharray="5,2" d="M427.21,-142.38C452.64,-140.53 480.05,-138.54 504.73,-136.75"/>
<polygon fill="#9a32cd" stroke="#9a32cd" points="426.92,-138.89 417.2,-143.11 427.43,-145.87 426.92,-138.89"/>
</a>
</g>
<text text-anchor="middle" x="461" y="-144" font-family="Helvetica,sans-Serif" font-size="10.00" fill="grey"> filterTable</text>
</g>
<!-- Node6&#45;&gt;Node3 -->
<g id="edge6_Node000003_Node000006" class="edge">
<title>Node6&#45;&gt;Node3</title>
<g id="a_edge6_Node000003_Node000006"><a xlink:title=" ">
<path fill="none" stroke="#9a32cd" stroke-dasharray="5,2" d="M780.91,-77.79C749.63,-80.16 714.46,-84.42 683,-92 660.06,-97.53 635.41,-107.5 616.69,-115.97"/>
<polygon fill="#9a32cd" stroke="#9a32cd" points="781.19,-81.28 790.92,-77.08 780.7,-74.3 781.19,-81.28"/>
</a>
</g>
<text text-anchor="middle" x="728" y="-95" font-family="Helvetica,sans-Serif" font-size="10.00" fill="grey"> nestedTopNQuery</text>
</g>
<!-- Node7 -->
<g id="Node000007" class="node">
<title>Node7</title>
<g id="a_Node000007"><a xlink:title=" ">
<polygon fill="white" stroke="#666666" points="665,-30 505,-30 505,0 665,0 665,-30"/>
<text text-anchor="start" x="513" y="-18" font-family="Helvetica,sans-Serif" font-size="10.00">com.teragrep.pth_06.planner.</text>
<text text-anchor="middle" x="585" y="-7" font-family="Helvetica,sans-Serif" font-size="10.00">SafeLogtimeFunction</text>
</a>
</g>
</g>
<!-- Node7&#45;&gt;Node6 -->
<g id="edge9_Node000006_Node000007" class="edge">
<title>Node7&#45;&gt;Node6</title>
<g id="a_edge9_Node000006_Node000007"><a xlink:title=" ">
<path fill="none" stroke="#9a32cd" stroke-dasharray="5,2" d="M675.21,-17.89C706.5,-20.4 741.65,-24.92 773,-33 796.99,-39.18 822.65,-50.53 841.55,-59.87"/>
<polygon fill="#9a32cd" stroke="#9a32cd" points="675.43,-14.4 665.19,-17.15 674.91,-21.38 675.43,-14.4"/>
</a>
</g>
<text text-anchor="middle" x="728" y="-36" font-family="Helvetica,sans-Serif" font-size="10.00" fill="grey"> logtimeFunction</text>
</g>
<!-- Node8&#45;&gt;Node3 -->
<g id="edge10_Node000003_Node000008" class="edge">
<title>Node8&#45;&gt;Node3</title>
<g id="a_edge10_Node000003_Node000008"><a xlink:title=" ">
<path fill="none" stroke="#9a32cd" stroke-dasharray="5,2" d="M425.36,-111.81C451.31,-114.95 479.46,-118.35 504.75,-121.41"/>
<polygon fill="#9a32cd" stroke="#9a32cd" points="425.5,-108.3 415.15,-110.57 424.66,-115.25 425.5,-108.3"/>
</a>
</g>
<text text-anchor="middle" x="461" y="-121" font-family="Helvetica,sans-Serif" font-size="10.00" fill="grey"> sliceTable</text>
</g>
</g>
</svg>
