<?xml version="1.0" encoding="UTF-8" standalone="no"?>
<!DOCTYPE svg PUBLIC "-//W3C//DTD SVG 1.1//EN"
 "http://www.w3.org/Graphics/SVG/1.1/DTD/svg11.dtd">
<!-- Generated by graphviz version 2.43.0 (0)
 -->
<!-- Title: com.teragrep.pth_06.planner.NestedTopNQuery Pages: 1 -->
<svg width="959pt" height="277pt"
 viewBox="0.00 0.00 959.00 277.00" xmlns="http://www.w3.org/2000/svg" xmlns:xlink="http://www.w3.org/1999/xlink">
<g id="graph0" class="graph" transform="scale(1 1) rotate(0) translate(4 273)">
<title>com.teragrep.pth_06.planner.NestedTopNQuery</title>
<!-- Node1 -->
<g id="Node000001" class="node">
<title>Node1</title>
<g id="a_Node000001"><a xlink:title=" ">
<polygon fill="#999999" stroke="#666666" points="951,-269 791,-269 791,-239 951,-239 951,-269"/>
<text text-anchor="start" x="799" y="-257" font-family="Helvetica,sans-Serif" font-size="10.00">com.teragrep.pth_06.planner.</text>
<text text-anchor="middle" x="871" y="-246" font-family="Helvetica,sans-Serif" font-size="10.00">NestedTopNQuery</text>
</a>
</g>
</g>
<!-- Node2 -->
<g id="Node000002" class="node">
<title>Node2</title>
<g id="a_Node000002"><a xlink:href="classcom_1_1teragrep_1_1pth__06_1_1ConfiguredLogger.html" target="_top" xlink:title=" ">
<polygon fill="white" stroke="#666666" points="173,-125 0,-125 0,-95 173,-95 173,-125"/>
<text text-anchor="start" x="8" y="-113" font-family="Helvetica,sans-Serif" font-size="10.00">com.teragrep.pth_06.Configured</text>
<text text-anchor="middle" x="86.5" y="-102" font-family="Helvetica,sans-Serif" font-size="10.00">Logger</text>
</a>
</g>
</g>
<!-- Node2&#45;&gt;Node1 -->
<g id="edge1_Node000001_Node000002" class="edge">
<title>Node2&#45;&gt;Node1</title>
<g id="a_edge1_Node000001_Node000002"><a xlink:title=" ">
<path fill="none" stroke="#9a32cd" stroke-dasharray="5,2" d="M130.19,-129.28C204.52,-161.79 363.37,-226.55 505,-253 582.83,-267.54 603.84,-258.44 683,-260 722.99,-260.79 733.02,-261.24 773,-260 778.82,-259.82 784.83,-259.58 790.88,-259.3"/>
<polygon fill="#9a32cd" stroke="#9a32cd" points="131.26,-125.93 120.69,-125.1 128.44,-132.34 131.26,-125.93"/>
</a>
</g>
<text text-anchor="middle" x="461" y="-251" font-family="Helvetica,sans-Serif" font-size="10.00" fill="grey"> logger</text>
</g>
<!-- Node3 -->
<g id="Node000003" class="node">
<title>Node3</title>
<g id="a_Node000003"><a xlink:href="classcom_1_1teragrep_1_1pth__06_1_1planner_1_1StreamDBClient.html" target="_top" xlink:title=" ">
<polygon fill="white" stroke="#666666" points="665,-117 505,-117 505,-87 665,-87 665,-117"/>
<text text-anchor="start" x="513" y="-105" font-family="Helvetica,sans-Serif" font-size="10.00">com.teragrep.pth_06.planner.</text>
<text text-anchor="middle" x="585" y="-94" font-family="Helvetica,sans-Serif" font-size="10.00">StreamDBClient</text>
</a>
</g>
</g>
<!-- Node2&#45;&gt;Node3 -->
<g id="edge3_Node000003_Node000002" class="edge">
<title>Node2&#45;&gt;Node3</title>
<g id="a_edge3_Node000003_Node000002"><a xlink:title=" ">
<path fill="none" stroke="#9a32cd" stroke-dasharray="5,2" d="M154.03,-92.62C184.04,-85.64 220.07,-78.44 253,-75 325.49,-67.42 344.35,-69.16 417,-75 446.71,-77.39 479.12,-82.13 507.41,-86.98"/>
<polygon fill="#9a32cd" stroke="#9a32cd" points="153.02,-89.27 144.1,-94.98 154.63,-96.08 153.02,-89.27"/>
</a>
</g>
<text text-anchor="middle" x="335" y="-78" font-family="Helvetica,sans-Serif" font-size="10.00" fill="grey"> LOGGER</text>
</g>
<!-- Node4 -->
<g id="Node000004" class="node">
<title>Node4</title>
<g id="a_Node000004"><a xlink:href="classcom_1_1teragrep_1_1pth__06_1_1planner_1_1GetArchivedObjectsFilterTable.html" target="_top" xlink:title=" ">
<polygon fill="white" stroke="#666666" points="417,-30 253,-30 253,0 417,0 417,-30"/>
<text text-anchor="start" x="261" y="-18" font-family="Helvetica,sans-Serif" font-size="10.00">com.teragrep.pth_06.planner.</text>
<text text-anchor="middle" x="335" y="-7" font-family="Helvetica,sans-Serif" font-size="10.00">GetArchivedObjectsFilterTable</text>
</a>
</g>
</g>
<!-- Node2&#45;&gt;Node4 -->
<g id="edge5_Node000004_Node000002" class="edge">
<title>Node2&#45;&gt;Node4</title>
<g id="a_edge5_Node000004_Node000002"><a xlink:title=" ">
<path fill="none" stroke="#9a32cd" stroke-dasharray="5,2" d="M113.25,-88.46C133.22,-72.88 162.27,-52.61 191,-41 210.42,-33.16 232.28,-27.66 252.95,-23.83"/>
<polygon fill="#9a32cd" stroke="#9a32cd" points="110.92,-85.85 105.27,-94.81 115.27,-91.32 110.92,-85.85"/>
</a>
</g>
<text text-anchor="middle" x="213" y="-44" font-family="Helvetica,sans-Serif" font-size="10.00" fill="grey"> logger</text>
</g>
<!-- Node5 -->
<g id="Node000005" class="node">
<title>Node5</title>
<g id="a_Node000005"><a xlink:href="classcom_1_1teragrep_1_1pth__06_1_1planner_1_1NestedTopNQuery.html" target="_top" xlink:title=" ">
<polygon fill="white" stroke="#666666" points="951,-155 791,-155 791,-125 951,-125 951,-155"/>
<text text-anchor="start" x="799" y="-143" font-family="Helvetica,sans-Serif" font-size="10.00">com.teragrep.pth_06.planner.</text>
<text text-anchor="middle" x="871" y="-132" font-family="Helvetica,sans-Serif" font-size="10.00">NestedTopNQuery</text>
</a>
</g>
</g>
<!-- Node2&#45;&gt;Node5 -->
<g id="edge7_Node000005_Node000002" class="edge">
<title>Node2&#45;&gt;Node5</title>
<g id="a_edge7_Node000005_Node000002"><a xlink:title=" ">
<path fill="none" stroke="#9a32cd" stroke-dasharray="5,2" d="M183.18,-126.07C205.99,-129.29 230.31,-132.23 253,-134 445.77,-149.03 673.44,-145.85 790.96,-142.66"/>
<polygon fill="#9a32cd" stroke="#9a32cd" points="183.55,-122.59 173.16,-124.62 182.55,-129.52 183.55,-122.59"/>
</a>
</g>
<text text-anchor="middle" x="461" y="-147" font-family="Helvetica,sans-Serif" font-size="10.00" fill="grey"> logger</text>
</g>
<!-- Node7 -->
<g id="Node000007" class="node">
<title>Node7</title>
<g id="a_Node000007"><a xlink:href="classcom_1_1teragrep_1_1pth__06_1_1planner_1_1SliceTable.html" target="_top" xlink:title=" ">
<polygon fill="white" stroke="#666666" points="415,-125 255,-125 255,-95 415,-95 415,-125"/>
<text text-anchor="start" x="263" y="-113" font-family="Helvetica,sans-Serif" font-size="10.00">com.teragrep.pth_06.planner.</text>
<text text-anchor="middle" x="335" y="-102" font-family="Helvetica,sans-Serif" font-size="10.00">SliceTable</text>
</a>
</g>
</g>
<!-- Node2&#45;&gt;Node7 -->
<g id="edge11_Node000007_Node000002" class="edge">
<title>Node2&#45;&gt;Node7</title>
<g id="a_edge11_Node000007_Node000002"><a xlink:title=" ">
<path fill="none" stroke="#9a32cd" stroke-dasharray="5,2" d="M183.09,-110C206.82,-110 231.99,-110 254.83,-110"/>
<polygon fill="#9a32cd" stroke="#9a32cd" points="183.02,-106.5 173.02,-110 183.02,-113.5 183.02,-106.5"/>
</a>
</g>
<text text-anchor="middle" x="213" y="-113" font-family="Helvetica,sans-Serif" font-size="10.00" fill="grey"> LOGGER</text>
</g>
<!-- Node3&#45;&gt;Node1 -->
<g id="edge2_Node000001_Node000003" class="edge">
<title>Node3&#45;&gt;Node1</title>
<g id="a_edge2_Node000001_Node000003"><a xlink:title=" ">
<path fill="none" stroke="#9a32cd" stroke-dasharray="5,2" d="M631.53,-120.97C678.3,-140.67 747.74,-170.6 773,-185 801.55,-201.27 832.05,-223.95 851.07,-238.8"/>
<polygon fill="#9a32cd" stroke="#9a32cd" points="632.78,-117.7 622.21,-117.05 630.07,-124.15 632.78,-117.7"/>
</a>
</g>
<text text-anchor="middle" x="728" y="-188" font-family="Helvetica,sans-Serif" font-size="10.00" fill="grey"> streamDBClient</text>
</g>
<!-- Node3&#45;&gt;Node5 -->
<g id="edge8_Node000005_Node000003" class="edge">
<title>Node3&#45;&gt;Node5</title>
<g id="a_edge8_Node000005_Node000003"><a xlink:title=" ">
<path fill="none" stroke="#9a32cd" stroke-dasharray="5,2" d="M675.39,-113.96C712.4,-118.91 754.96,-124.61 790.82,-129.41"/>
<polygon fill="#9a32cd" stroke="#9a32cd" points="675.49,-110.44 665.11,-112.59 674.56,-117.38 675.49,-110.44"/>
</a>
</g>
<text text-anchor="middle" x="728" y="-129" font-family="Helvetica,sans-Serif" font-size="10.00" fill="grey"> streamDBClient</text>
</g>
<!-- Node4&#45;&gt;Node3 -->
<g id="edge4_Node000003_Node000004" class="edge">
<title>Node4&#45;&gt;Node3</title>
<g id="a_edge4_Node000003_Node000004"><a xlink:title=" ">
<path fill="none" stroke="#9a32cd" stroke-dasharray="5,2" d="M427.21,-24.8C447.3,-28.58 468.19,-33.79 487,-41 516.35,-52.25 546.42,-72.85 565.14,-86.97"/>
<polygon fill="#9a32cd" stroke="#9a32cd" points="427.56,-21.31 417.11,-23.01 426.34,-28.2 427.56,-21.31"/>
</a>
</g>
<text text-anchor="middle" x="461" y="-44" font-family="Helvetica,sans-Serif" font-size="10.00" fill="grey"> filterTable</text>
</g>
<!-- Node5&#45;&gt;Node3 -->
<g id="edge6_Node000003_Node000005" class="edge">
<title>Node5&#45;&gt;Node3</title>
<g id="a_edge6_Node000003_Node000005"><a xlink:title=" ">
<path fill="none" stroke="#9a32cd" stroke-dasharray="5,2" d="M836.98,-119.84C818.81,-109.93 795.45,-99.05 773,-94 738.13,-86.15 698.7,-86.52 665.07,-89.5"/>
<polygon fill="#9a32cd" stroke="#9a32cd" points="835.54,-123.05 845.98,-124.9 838.97,-116.95 835.54,-123.05"/>
</a>
</g>
<text text-anchor="middle" x="728" y="-97" font-family="Helvetica,sans-Serif" font-size="10.00" fill="grey"> nestedTopNQuery</text>
</g>
<!-- Node6 -->
<g id="Node000006" class="node">
<title>Node6</title>
<g id="a_Node000006"><a xlink:title=" ">
<polygon fill="white" stroke="#666666" points="665,-244 505,-244 505,-214 665,-214 665,-244"/>
<text text-anchor="start" x="513" y="-232" font-family="Helvetica,sans-Serif" font-size="10.00">com.teragrep.pth_06.planner.</text>
<text text-anchor="middle" x="585" y="-221" font-family="Helvetica,sans-Serif" font-size="10.00">SafeLogtimeFunction</text>
</a>
</g>
</g>
<!-- Node6&#45;&gt;Node1 -->
<g id="edge12_Node000001_Node000006" class="edge">
<title>Node6&#45;&gt;Node1</title>
<g id="a_edge12_Node000001_Node000006"><a xlink:title=" ">
<path fill="none" stroke="#9a32cd" stroke-dasharray="5,2" d="M675.39,-236.87C712.4,-240.13 754.96,-243.87 790.82,-247.03"/>
<polygon fill="#9a32cd" stroke="#9a32cd" points="675.38,-233.35 665.11,-235.96 674.76,-240.33 675.38,-233.35"/>
</a>
</g>
<text text-anchor="middle" x="728" y="-248" font-family="Helvetica,sans-Serif" font-size="10.00" fill="grey"> logtimeFunction</text>
</g>
<!-- Node6&#45;&gt;Node5 -->
<g id="edge9_Node000005_Node000006" class="edge">
<title>Node6&#45;&gt;Node5</title>
<g id="a_edge9_Node000005_Node000006"><a xlink:title=" ">
<path fill="none" stroke="#9a32cd" stroke-dasharray="5,2" d="M675.12,-221.14C706.7,-216.57 742.06,-209.35 773,-198 801.55,-187.53 831.09,-168.47 849.95,-155.07"/>
<polygon fill="#9a32cd" stroke="#9a32cd" points="674.44,-217.7 665.01,-222.54 675.4,-224.64 674.44,-217.7"/>
</a>
</g>
<text text-anchor="middle" x="728" y="-222" font-family="Helvetica,sans-Serif" font-size="10.00" fill="grey"> logtimeFunction</text>
</g>
<!-- Node7&#45;&gt;Node3 -->
<g id="edge10_Node000003_Node000007" class="edge">
<title>Node7&#45;&gt;Node3</title>
<g id="a_edge10_Node000003_Node000007"><a xlink:title=" ">
<path fill="none" stroke="#9a32cd" stroke-dasharray="5,2" d="M425.36,-107.12C451.31,-106.28 479.46,-105.37 504.75,-104.56"/>
<polygon fill="#9a32cd" stroke="#9a32cd" points="425.03,-103.63 415.15,-107.45 425.26,-110.62 425.03,-103.63"/>
</a>
</g>
<text text-anchor="middle" x="461" y="-109" font-family="Helvetica,sans-Serif" font-size="10.00" fill="grey"> sliceTable</text>
</g>
</g>
</svg>
