<?xml version="1.0" encoding="UTF-8" standalone="no"?>
<!DOCTYPE svg PUBLIC "-//W3C//DTD SVG 1.1//EN"
 "http://www.w3.org/Graphics/SVG/1.1/DTD/svg11.dtd">
<!-- Generated by graphviz version 2.43.0 (0)
 -->
<!-- Title: Graphical Class Hierarchy Pages: 1 -->
<svg width="394pt" height="470pt"
 viewBox="0.00 0.00 394.00 470.00" xmlns="http://www.w3.org/2000/svg" xmlns:xlink="http://www.w3.org/1999/xlink">
<g id="graph0" class="graph" transform="scale(1 1) rotate(0) translate(4 466)">
<title>Graphical Class Hierarchy</title>
<!-- Node0 -->
<g id="Node000000" class="node">
<title>Node0</title>
<g id="a_Node000000"><a xlink:title=" ">
<polygon fill="#e0e0e0" stroke="#999999" points="85,-240.5 0,-240.5 0,-221.5 85,-221.5 85,-240.5"/>
<text text-anchor="middle" x="42.5" y="-228.5" font-family="Helvetica,sans-Serif" font-size="10.00">CustomMetric</text>
</a>
</g>
</g>
<!-- Node1 -->
<g id="Node000001" class="node">
<title>Node1</title>
<g id="a_Node000001"><a xlink:href="classcom_1_1teragrep_1_1pth__06_1_1metrics_1_1database_1_1ArchiveDatabaseRowAvgLatencyMetricAggregator.html" target="_top" xlink:title=" ">
<polygon fill="white" stroke="#666666" points="384.5,-462 122.5,-462 122.5,-432 384.5,-432 384.5,-462"/>
<text text-anchor="start" x="130.5" y="-450" font-family="Helvetica,sans-Serif" font-size="10.00">com.teragrep.pth_06.metrics.database.</text>
<text text-anchor="middle" x="253.5" y="-439" font-family="Helvetica,sans-Serif" font-size="10.00">ArchiveDatabaseRowAvgLatencyMetricAggregator</text>
</a>
</g>
</g>
<!-- Node0&#45;&gt;Node1 -->
<g id="edge32_Node000000_Node000001" class="edge">
<title>Node0&#45;&gt;Node1</title>
<g id="a_edge32_Node000000_Node000001"><a xlink:title=" ">
<path fill="none" stroke="#63b8ff" d="M45.33,-250.85C50.11,-290.32 66.61,-378.67 121,-423 125.14,-426.37 129.59,-429.33 134.28,-431.93"/>
<polygon fill="#63b8ff" stroke="#63b8ff" points="48.81,-250.45 44.26,-240.88 41.85,-251.2 48.81,-250.45"/>
</a>
</g>
</g>
<!-- Node2 -->
<g id="Node000002" class="node">
<title>Node2</title>
<g id="a_Node000002"><a xlink:href="classcom_1_1teragrep_1_1pth__06_1_1metrics_1_1database_1_1ArchiveDatabaseRowCountMetricAggregator.html" target="_top" xlink:title=" ">
<polygon fill="white" stroke="#666666" points="370.5,-414 136.5,-414 136.5,-384 370.5,-384 370.5,-414"/>
<text text-anchor="start" x="144.5" y="-402" font-family="Helvetica,sans-Serif" font-size="10.00">com.teragrep.pth_06.metrics.database.</text>
<text text-anchor="middle" x="253.5" y="-391" font-family="Helvetica,sans-Serif" font-size="10.00">ArchiveDatabaseRowCountMetricAggregator</text>
</a>
</g>
</g>
<!-- Node0&#45;&gt;Node2 -->
<g id="edge33_Node000000_Node000002" class="edge">
<title>Node0&#45;&gt;Node2</title>
<g id="a_edge33_Node000000_Node000002"><a xlink:title=" ">
<path fill="none" stroke="#63b8ff" d="M48.13,-250.41C56.72,-281.96 78.28,-343.93 121,-375 125.79,-378.48 130.92,-381.51 136.29,-384.13"/>
<polygon fill="#63b8ff" stroke="#63b8ff" points="51.49,-249.44 45.62,-240.63 44.71,-251.18 51.49,-249.44"/>
</a>
</g>
</g>
<!-- Node3 -->
<g id="Node000003" class="node">
<title>Node3</title>
<g id="a_Node000003"><a xlink:href="classcom_1_1teragrep_1_1pth__06_1_1metrics_1_1database_1_1ArchiveDatabaseRowMaxLatencyMetricAggregator.html" target="_top" xlink:title=" ">
<polygon fill="white" stroke="#666666" points="386,-366 121,-366 121,-336 386,-336 386,-366"/>
<text text-anchor="start" x="129" y="-354" font-family="Helvetica,sans-Serif" font-size="10.00">com.teragrep.pth_06.metrics.database.</text>
<text text-anchor="middle" x="253.5" y="-343" font-family="Helvetica,sans-Serif" font-size="10.00">ArchiveDatabaseRowMaxLatencyMetricAggregator</text>
</a>
</g>
</g>
<!-- Node0&#45;&gt;Node3 -->
<g id="edge34_Node000000_Node000003" class="edge">
<title>Node0&#45;&gt;Node3</title>
<g id="a_edge34_Node000000_Node000003"><a xlink:title=" ">
<path fill="none" stroke="#63b8ff" d="M53.08,-249.6C65.56,-271.81 89.54,-308.31 121,-327 126.79,-330.44 132.95,-333.4 139.33,-335.96"/>
<polygon fill="#63b8ff" stroke="#63b8ff" points="56,-247.65 48.17,-240.51 49.84,-250.97 56,-247.65"/>
</a>
</g>
</g>
<!-- Node4 -->
<g id="Node000004" class="node">
<title>Node4</title>
<g id="a_Node000004"><a xlink:href="classcom_1_1teragrep_1_1pth__06_1_1metrics_1_1database_1_1ArchiveDatabaseRowMinLatencyMetricAggregator.html" target="_top" xlink:title=" ">
<polygon fill="white" stroke="#666666" points="384.5,-318 122.5,-318 122.5,-288 384.5,-288 384.5,-318"/>
<text text-anchor="start" x="130.5" y="-306" font-family="Helvetica,sans-Serif" font-size="10.00">com.teragrep.pth_06.metrics.database.</text>
<text text-anchor="middle" x="253.5" y="-295" font-family="Helvetica,sans-Serif" font-size="10.00">ArchiveDatabaseRowMinLatencyMetricAggregator</text>
</a>
</g>
</g>
<!-- Node0&#45;&gt;Node4 -->
<g id="edge35_Node000000_Node000004" class="edge">
<title>Node0&#45;&gt;Node4</title>
<g id="a_edge35_Node000000_Node000004"><a xlink:title=" ">
<path fill="none" stroke="#63b8ff" d="M64.1,-246.74C79.1,-257.44 100.33,-271.04 121,-279 129.99,-282.46 139.52,-285.43 149.18,-287.98"/>
<polygon fill="#63b8ff" stroke="#63b8ff" points="65.76,-243.62 55.62,-240.53 61.62,-249.27 65.76,-243.62"/>
</a>
</g>
</g>
<!-- Node5 -->
<g id="Node000005" class="node">
<title>Node5</title>
<g id="a_Node000005"><a xlink:href="classcom_1_1teragrep_1_1pth__06_1_1metrics_1_1objects_1_1ArchiveObjectsProcessedMetricAggregator.html" target="_top" xlink:title=" ">
<polygon fill="white" stroke="#666666" points="365.5,-270 141.5,-270 141.5,-240 365.5,-240 365.5,-270"/>
<text text-anchor="start" x="149.5" y="-258" font-family="Helvetica,sans-Serif" font-size="10.00">com.teragrep.pth_06.metrics.objects.</text>
<text text-anchor="middle" x="253.5" y="-247" font-family="Helvetica,sans-Serif" font-size="10.00">ArchiveObjectsProcessedMetricAggregator</text>
</a>
</g>
</g>
<!-- Node0&#45;&gt;Node5 -->
<g id="edge36_Node000000_Node000005" class="edge">
<title>Node0&#45;&gt;Node5</title>
<g id="a_edge36_Node000000_Node000005"><a xlink:title=" ">
<path fill="none" stroke="#63b8ff" d="M95.02,-236.92C109.19,-238.54 125.13,-240.37 141.28,-242.23"/>
<polygon fill="#63b8ff" stroke="#63b8ff" points="95.38,-233.43 85.04,-235.77 94.58,-240.39 95.38,-233.43"/>
</a>
</g>
</g>
<!-- Node6 -->
<g id="Node000006" class="node">
<title>Node6</title>
<g id="a_Node000006"><a xlink:href="classcom_1_1teragrep_1_1pth__06_1_1metrics_1_1offsets_1_1ArchiveOffsetMetricAggregator.html" target="_top" xlink:title=" ">
<polygon fill="white" stroke="#666666" points="352,-222 155,-222 155,-192 352,-192 352,-222"/>
<text text-anchor="start" x="163" y="-210" font-family="Helvetica,sans-Serif" font-size="10.00">com.teragrep.pth_06.metrics.offsets.</text>
<text text-anchor="middle" x="253.5" y="-199" font-family="Helvetica,sans-Serif" font-size="10.00">ArchiveOffsetMetricAggregator</text>
</a>
</g>
</g>
<!-- Node0&#45;&gt;Node6 -->
<g id="edge37_Node000000_Node000006" class="edge">
<title>Node0&#45;&gt;Node6</title>
<g id="a_edge37_Node000000_Node000006"><a xlink:title=" ">
<path fill="none" stroke="#63b8ff" d="M95.07,-225.08C113.18,-223 134.18,-220.59 154.82,-218.22"/>
<polygon fill="#63b8ff" stroke="#63b8ff" points="94.58,-221.61 85.04,-226.23 95.38,-228.57 94.58,-221.61"/>
</a>
</g>
</g>
<!-- Node7 -->
<g id="Node000007" class="node">
<title>Node7</title>
<g id="a_Node000007"><a xlink:href="classcom_1_1teragrep_1_1pth__06_1_1metrics_1_1offsets_1_1KafkaOffsetMetricAggregator.html" target="_top" xlink:title=" ">
<polygon fill="white" stroke="#666666" points="352,-174 155,-174 155,-144 352,-144 352,-174"/>
<text text-anchor="start" x="163" y="-162" font-family="Helvetica,sans-Serif" font-size="10.00">com.teragrep.pth_06.metrics.offsets.</text>
<text text-anchor="middle" x="253.5" y="-151" font-family="Helvetica,sans-Serif" font-size="10.00">KafkaOffsetMetricAggregator</text>
</a>
</g>
</g>
<!-- Node0&#45;&gt;Node7 -->
<g id="edge38_Node000000_Node000007" class="edge">
<title>Node0&#45;&gt;Node7</title>
<g id="a_edge38_Node000000_Node000007"><a xlink:title=" ">
<path fill="none" stroke="#63b8ff" d="M64.1,-215.26C79.1,-204.56 100.33,-190.96 121,-183 131.72,-178.87 143.21,-175.44 154.77,-172.6"/>
<polygon fill="#63b8ff" stroke="#63b8ff" points="61.62,-212.73 55.62,-221.47 65.76,-218.38 61.62,-212.73"/>
</a>
</g>
</g>
<!-- Node8 -->
<g id="Node000008" class="node">
<title>Node8</title>
<g id="a_Node000008"><a xlink:href="classcom_1_1teragrep_1_1pth__06_1_1metrics_1_1records_1_1LatestKafkaTimestampMetricAggregator.html" target="_top" xlink:title=" ">
<polygon fill="white" stroke="#666666" points="361,-126 146,-126 146,-96 361,-96 361,-126"/>
<text text-anchor="start" x="154" y="-114" font-family="Helvetica,sans-Serif" font-size="10.00">com.teragrep.pth_06.metrics.records.</text>
<text text-anchor="middle" x="253.5" y="-103" font-family="Helvetica,sans-Serif" font-size="10.00">LatestKafkaTimestampMetricAggregator</text>
</a>
</g>
</g>
<!-- Node0&#45;&gt;Node8 -->
<g id="edge39_Node000000_Node000008" class="edge">
<title>Node0&#45;&gt;Node8</title>
<g id="a_edge39_Node000000_Node000008"><a xlink:title=" ">
<path fill="none" stroke="#63b8ff" d="M53.08,-212.4C65.56,-190.19 89.54,-153.69 121,-135 128.78,-130.38 137.24,-126.61 146,-123.53"/>
<polygon fill="#63b8ff" stroke="#63b8ff" points="49.84,-211.03 48.17,-221.49 56,-214.35 49.84,-211.03"/>
</a>
</g>
</g>
<!-- Node9 -->
<g id="Node000009" class="node">
<title>Node9</title>
<g id="a_Node000009"><a xlink:href="classcom_1_1teragrep_1_1pth__06_1_1metrics_1_1records_1_1RecordsPerSecondMetricAggregator.html" target="_top" xlink:title=" ">
<polygon fill="white" stroke="#666666" points="353.5,-78 153.5,-78 153.5,-48 353.5,-48 353.5,-78"/>
<text text-anchor="start" x="161.5" y="-66" font-family="Helvetica,sans-Serif" font-size="10.00">com.teragrep.pth_06.metrics.records.</text>
<text text-anchor="middle" x="253.5" y="-55" font-family="Helvetica,sans-Serif" font-size="10.00">RecordsPerSecondMetricAggregator</text>
</a>
</g>
</g>
<!-- Node0&#45;&gt;Node9 -->
<g id="edge40_Node000000_Node000009" class="edge">
<title>Node0&#45;&gt;Node9</title>
<g id="a_edge40_Node000000_Node000009"><a xlink:title=" ">
<path fill="none" stroke="#63b8ff" d="M48.13,-211.59C56.72,-180.04 78.28,-118.07 121,-87 130.67,-79.97 141.76,-74.8 153.33,-71.02"/>
<polygon fill="#63b8ff" stroke="#63b8ff" points="44.71,-210.82 45.62,-221.37 51.49,-212.56 44.71,-210.82"/>
</a>
</g>
</g>
<!-- Node10 -->
<g id="Node000010" class="node">
<title>Node10</title>
<g id="a_Node000010"><a xlink:href="classcom_1_1teragrep_1_1pth__06_1_1metrics_1_1records_1_1RecordsProcessedMetricAggregator.html" target="_top" xlink:title=" ">
<polygon fill="white" stroke="#666666" points="353.5,-30 153.5,-30 153.5,0 353.5,0 353.5,-30"/>
<text text-anchor="start" x="161.5" y="-18" font-family="Helvetica,sans-Serif" font-size="10.00">com.teragrep.pth_06.metrics.records.</text>
<text text-anchor="middle" x="253.5" y="-7" font-family="Helvetica,sans-Serif" font-size="10.00">RecordsProcessedMetricAggregator</text>
</a>
</g>
</g>
<!-- Node0&#45;&gt;Node10 -->
<g id="edge41_Node000000_Node000010" class="edge">
<title>Node0&#45;&gt;Node10</title>
<g id="a_edge41_Node000000_Node000010"><a xlink:title=" ">
<path fill="none" stroke="#63b8ff" d="M45.33,-211.15C50.11,-171.68 66.61,-83.33 121,-39 130.44,-31.3 141.55,-25.75 153.23,-21.79"/>
<polygon fill="#63b8ff" stroke="#63b8ff" points="41.85,-210.8 44.26,-221.12 48.81,-211.55 41.85,-210.8"/>
</a>
</g>
</g>
</g>
</svg>
