<?xml version="1.0" encoding="UTF-8" standalone="no"?><svg xmlns="http://www.w3.org/2000/svg" xmlns:xlink="http://www.w3.org/1999/xlink" contentScriptType="application/ecmascript" contentStyleType="text/css" height="228px" preserveAspectRatio="none" style="width:753px;height:228px;" version="1.1" viewBox="0 0 753 228" width="753px" zoomAndPan="magnify"><defs><filter height="300%" id="f7rg4x0a1au7w" width="300%" x="-1" y="-1"><feGaussianBlur result="blurOut" stdDeviation="2.0"/><feColorMatrix in="blurOut" result="blurOut2" type="matrix" values="0 0 0 0 0 0 0 0 0 0 0 0 0 0 0 0 0 0 .4 0"/><feOffset dx="4.0" dy="4.0" in="blurOut2" result="blurOut3"/><feBlend in="SourceGraphic" in2="blurOut3" mode="normal"/></filter></defs><g><!--MD5=[a38efea7fd679af0fe313021af718a0d]
class RecordsPerSecondMetricAggregator--><rect fill="#FEFECE" filter="url(#f7rg4x0a1au7w)" height="86.4141" id="RecordsPerSecondMetricAggregator" style="stroke: #A80036; stroke-width: 1.5;" width="260" x="482.5" y="15.5"/><ellipse cx="497.5" cy="31.5" fill="#ADD1B2" rx="11" ry="11" style="stroke: #A80036; stroke-width: 1.0;"/><path d="M500.4688,37.1406 Q499.8906,37.4375 499.25,37.5781 Q498.6094,37.7344 497.9063,37.7344 Q495.4063,37.7344 494.0781,36.0938 Q492.7656,34.4375 492.7656,31.3125 Q492.7656,28.1875 494.0781,26.5313 Q495.4063,24.875 497.9063,24.875 Q498.6094,24.875 499.25,25.0313 Q499.9063,25.1875 500.4688,25.4844 L500.4688,28.2031 Q499.8438,27.625 499.25,27.3594 Q498.6563,27.0781 498.0313,27.0781 Q496.6875,27.0781 496,28.1563 Q495.3125,29.2188 495.3125,31.3125 Q495.3125,33.4063 496,34.4844 Q496.6875,35.5469 498.0313,35.5469 Q498.6563,35.5469 499.25,35.2813 Q499.8438,35 500.4688,34.4219 L500.4688,37.1406 Z "/><text fill="#000000" font-family="sans-serif" font-size="12" lengthAdjust="spacingAndGlyphs" textLength="228" x="511.5" y="35.6543">RecordsPerSecondMetricAggregator</text><line style="stroke: #A80036; stroke-width: 1.5;" x1="483.5" x2="741.5" y1="47.5" y2="47.5"/><line style="stroke: #A80036; stroke-width: 1.5;" x1="483.5" x2="741.5" y1="55.5" y2="55.5"/><ellipse cx="493.5" cy="66.5" fill="#84BE84" rx="3" ry="3" style="stroke: #038048; stroke-width: 1.0;"/><text fill="#000000" font-family="sans-serif" font-size="11" lengthAdjust="spacingAndGlyphs" textLength="40" x="502.5" y="69.7104">name()</text><ellipse cx="493.5" cy="79.3047" fill="#84BE84" rx="3" ry="3" style="stroke: #038048; stroke-width: 1.0;"/><text fill="#000000" font-family="sans-serif" font-size="11" lengthAdjust="spacingAndGlyphs" textLength="71" x="502.5" y="82.5151">description()</text><ellipse cx="493.5" cy="92.1094" fill="#84BE84" rx="3" ry="3" style="stroke: #038048; stroke-width: 1.0;"/><text fill="#000000" font-family="sans-serif" font-size="11" lengthAdjust="spacingAndGlyphs" textLength="134" x="502.5" y="95.3198">aggregateTaskMetrics()</text><!--MD5=[6c3a001f16649f06e2b965fbeb15d800]
class TaskMetric--><rect fill="#FEFECE" filter="url(#f7rg4x0a1au7w)" height="48" id="TaskMetric" style="stroke: #A80036; stroke-width: 1.5;" width="99" x="491" y="169"/><ellipse cx="506" cy="185" fill="#ADD1B2" rx="11" ry="11" style="stroke: #A80036; stroke-width: 1.0;"/><path d="M508.9688,190.6406 Q508.3906,190.9375 507.75,191.0781 Q507.1094,191.2344 506.4063,191.2344 Q503.9063,191.2344 502.5781,189.5938 Q501.2656,187.9375 501.2656,184.8125 Q501.2656,181.6875 502.5781,180.0313 Q503.9063,178.375 506.4063,178.375 Q507.1094,178.375 507.75,178.5313 Q508.4063,178.6875 508.9688,178.9844 L508.9688,181.7031 Q508.3438,181.125 507.75,180.8594 Q507.1563,180.5781 506.5313,180.5781 Q505.1875,180.5781 504.5,181.6563 Q503.8125,182.7188 503.8125,184.8125 Q503.8125,186.9063 504.5,187.9844 Q505.1875,189.0469 506.5313,189.0469 Q507.1563,189.0469 507.75,188.7813 Q508.3438,188.5 508.9688,187.9219 L508.9688,190.6406 Z "/><text fill="#000000" font-family="sans-serif" font-size="12" lengthAdjust="spacingAndGlyphs" textLength="67" x="520" y="189.1543">TaskMetric</text><line style="stroke: #A80036; stroke-width: 1.5;" x1="492" x2="589" y1="201" y2="201"/><line style="stroke: #A80036; stroke-width: 1.5;" x1="492" x2="589" y1="209" y2="209"/><!--MD5=[3809f4cd6c4df9cd6711565da6789b4d]
class CustomMetric--><rect fill="#FEFECE" filter="url(#f7rg4x0a1au7w)" height="48" id="CustomMetric" style="stroke: #A80036; stroke-width: 1.5;" width="117" x="625" y="169"/><ellipse cx="640" cy="185" fill="#ADD1B2" rx="11" ry="11" style="stroke: #A80036; stroke-width: 1.0;"/><path d="M642.9688,190.6406 Q642.3906,190.9375 641.75,191.0781 Q641.1094,191.2344 640.4063,191.2344 Q637.9063,191.2344 636.5781,189.5938 Q635.2656,187.9375 635.2656,184.8125 Q635.2656,181.6875 636.5781,180.0313 Q637.9063,178.375 640.4063,178.375 Q641.1094,178.375 641.75,178.5313 Q642.4063,178.6875 642.9688,178.9844 L642.9688,181.7031 Q642.3438,181.125 641.75,180.8594 Q641.1563,180.5781 640.5313,180.5781 Q639.1875,180.5781 638.5,181.6563 Q637.8125,182.7188 637.8125,184.8125 Q637.8125,186.9063 638.5,187.9844 Q639.1875,189.0469 640.5313,189.0469 Q641.1563,189.0469 641.75,188.7813 Q642.3438,188.5 642.9688,187.9219 L642.9688,190.6406 Z "/><text fill="#000000" font-family="sans-serif" font-size="12" lengthAdjust="spacingAndGlyphs" textLength="85" x="654" y="189.1543">CustomMetric</text><line style="stroke: #A80036; stroke-width: 1.5;" x1="626" x2="741" y1="201" y2="201"/><line style="stroke: #A80036; stroke-width: 1.5;" x1="626" x2="741" y1="209" y2="209"/><path d="M6,8 L6,108.7969 A0,0 0 0 0 6,108.7969 L447,108.7969 A0,0 0 0 0 447,108.7969 L447,62.5 L482.25,58.5 L447,54.5 L447,18 L437,8 L6,8 A0,0 0 0 0 6,8 " fill="#FBFB77" filter="url(#f7rg4x0a1au7w)" style="stroke: #A80036; stroke-width: 1.0;"/><path d="M437,8 L437,18 L447,18 L437,8 " fill="#FBFB77" style="stroke: #A80036; stroke-width: 1.0;"/><text fill="#000000" font-family="sans-serif" font-size="13" lengthAdjust="spacingAndGlyphs" textLength="101" x="12" y="25.0669">Responsibilities:</text><text fill="#000000" font-family="sans-serif" font-size="13" lengthAdjust="spacingAndGlyphs" textLength="420" x="12" y="40.1997">- Aggregates the number of records processed per second metric</text><text fill="#000000" font-family="sans-serif" font-size="13" lengthAdjust="spacingAndGlyphs" textLength="299" x="12" y="55.3325">- Holds the name and description of the metric</text><text fill="#000000" font-family="sans-serif" font-size="13" lengthAdjust="spacingAndGlyphs" textLength="0" x="16" y="70.4653"/><text fill="#000000" font-family="sans-serif" font-size="13" lengthAdjust="spacingAndGlyphs" textLength="89" x="12" y="85.5981">Collaborators:</text><text fill="#000000" font-family="sans-serif" font-size="13" lengthAdjust="spacingAndGlyphs" textLength="98" x="12" y="100.731">- CustomMetric</text><!--MD5=[850b41ea63c5ed7f1697cc6d229e8d60]
link RecordsPerSecondMetricAggregator to TaskMetric--><path d="M589.52,101.79 C578.37,122.32 565.28,146.39 555.44,164.5 " fill="none" id="RecordsPerSecondMetricAggregator-&gt;TaskMetric" style="stroke: #A80036; stroke-width: 1.0;"/><polygon fill="#A80036" points="553.01,168.97,560.8313,162.9843,555.4043,164.5805,553.8081,159.1535,553.01,168.97" style="stroke: #A80036; stroke-width: 1.0;"/><!--MD5=[dcf12173758c68b89b86f6c229178b43]
link RecordsPerSecondMetricAggregator to CustomMetric--><path d="M635.16,101.79 C646.16,122.32 659.06,146.39 668.77,164.5 " fill="none" id="RecordsPerSecondMetricAggregator-&gt;CustomMetric" style="stroke: #A80036; stroke-width: 1.0;"/><polygon fill="#A80036" points="671.16,168.97,670.4359,159.1478,668.7989,164.5626,663.3841,162.9256,671.16,168.97" style="stroke: #A80036; stroke-width: 1.0;"/><!--MD5=[0c99cf41e46f9394a85f356e35466db7]
@startuml inline_umlgraph_9.svg
class RecordsPerSecondMetricAggregator {
    + name()
    + description()
    + aggregateTaskMetrics()
}

RecordsPerSecondMetricAggregator - -> TaskMetric
RecordsPerSecondMetricAggregator - -> CustomMetric

note left of RecordsPerSecondMetricAggregator
Responsibilities:
- Aggregates the number of records processed per second metric
- Holds the name and description of the metric

Collaborators:
- CustomMetric
end note
@enduml

PlantUML version 1.2020.02(Sun Mar 01 10:22:07 UTC 2020)
(GPL source distribution)
Java Runtime: OpenJDK Runtime Environment
JVM: OpenJDK 64-Bit Server VM
Java Version: 1.8.0_292-b10
Operating System: Linux
Default Encoding: UTF-8
Language: en
Country: null
--></g></svg>