<?xml version="1.0" encoding="UTF-8" standalone="no"?><svg xmlns="http://www.w3.org/2000/svg" xmlns:xlink="http://www.w3.org/1999/xlink" contentScriptType="application/ecmascript" contentStyleType="text/css" height="245px" preserveAspectRatio="none" style="width:605px;height:245px;" version="1.1" viewBox="0 0 605 245" width="605px" zoomAndPan="magnify"><defs><filter height="300%" id="f2cu5rijjefie" width="300%" x="-1" y="-1"><feGaussianBlur result="blurOut" stdDeviation="2.0"/><feColorMatrix in="blurOut" result="blurOut2" type="matrix" values="0 0 0 0 0 0 0 0 0 0 0 0 0 0 0 0 0 0 .4 0"/><feOffset dx="4.0" dy="4.0" in="blurOut2" result="blurOut3"/><feBlend in="SourceGraphic" in2="blurOut3" mode="normal"/></filter></defs><g><!--MD5=[6c3a001f16649f06e2b965fbeb15d800]
class TaskMetric--><rect fill="#FEFECE" filter="url(#f2cu5rijjefie)" height="73.6094" id="TaskMetric" style="stroke: #A80036; stroke-width: 1.5;" width="99" x="112.5" y="21.5"/><ellipse cx="127.5" cy="37.5" fill="#ADD1B2" rx="11" ry="11" style="stroke: #A80036; stroke-width: 1.0;"/><path d="M130.4688,43.1406 Q129.8906,43.4375 129.25,43.5781 Q128.6094,43.7344 127.9063,43.7344 Q125.4063,43.7344 124.0781,42.0938 Q122.7656,40.4375 122.7656,37.3125 Q122.7656,34.1875 124.0781,32.5313 Q125.4063,30.875 127.9063,30.875 Q128.6094,30.875 129.25,31.0313 Q129.9063,31.1875 130.4688,31.4844 L130.4688,34.2031 Q129.8438,33.625 129.25,33.3594 Q128.6563,33.0781 128.0313,33.0781 Q126.6875,33.0781 126,34.1563 Q125.3125,35.2188 125.3125,37.3125 Q125.3125,39.4063 126,40.4844 Q126.6875,41.5469 128.0313,41.5469 Q128.6563,41.5469 129.25,41.2813 Q129.8438,41 130.4688,40.4219 L130.4688,43.1406 Z "/><text fill="#000000" font-family="sans-serif" font-size="12" lengthAdjust="spacingAndGlyphs" textLength="67" x="141.5" y="41.6543">TaskMetric</text><line style="stroke: #A80036; stroke-width: 1.5;" x1="113.5" x2="210.5" y1="53.5" y2="53.5"/><line style="stroke: #A80036; stroke-width: 1.5;" x1="113.5" x2="210.5" y1="61.5" y2="61.5"/><ellipse cx="123.5" cy="72.5" fill="#84BE84" rx="3" ry="3" style="stroke: #038048; stroke-width: 1.0;"/><text fill="#000000" font-family="sans-serif" font-size="11" lengthAdjust="spacingAndGlyphs" textLength="40" x="132.5" y="75.7104">name()</text><ellipse cx="123.5" cy="85.3047" fill="#84BE84" rx="3" ry="3" style="stroke: #038048; stroke-width: 1.0;"/><text fill="#000000" font-family="sans-serif" font-size="11" lengthAdjust="spacingAndGlyphs" textLength="38" x="132.5" y="88.5151">value()</text><!--MD5=[7f75816068f8baea6649fbf2c6a5b36a]
class CustomTaskMetric--><rect fill="#FEFECE" filter="url(#f2cu5rijjefie)" height="48" id="CustomTaskMetric" style="stroke: #A80036; stroke-width: 1.5;" width="146" x="6" y="186"/><ellipse cx="21" cy="202" fill="#ADD1B2" rx="11" ry="11" style="stroke: #A80036; stroke-width: 1.0;"/><path d="M23.9688,207.6406 Q23.3906,207.9375 22.75,208.0781 Q22.1094,208.2344 21.4063,208.2344 Q18.9063,208.2344 17.5781,206.5938 Q16.2656,204.9375 16.2656,201.8125 Q16.2656,198.6875 17.5781,197.0313 Q18.9063,195.375 21.4063,195.375 Q22.1094,195.375 22.75,195.5313 Q23.4063,195.6875 23.9688,195.9844 L23.9688,198.7031 Q23.3438,198.125 22.75,197.8594 Q22.1563,197.5781 21.5313,197.5781 Q20.1875,197.5781 19.5,198.6563 Q18.8125,199.7188 18.8125,201.8125 Q18.8125,203.9063 19.5,204.9844 Q20.1875,206.0469 21.5313,206.0469 Q22.1563,206.0469 22.75,205.7813 Q23.3438,205.5 23.9688,204.9219 L23.9688,207.6406 Z "/><text fill="#000000" font-family="sans-serif" font-size="12" lengthAdjust="spacingAndGlyphs" textLength="114" x="35" y="206.1543">CustomTaskMetric</text><line style="stroke: #A80036; stroke-width: 1.5;" x1="7" x2="151" y1="218" y2="218"/><line style="stroke: #A80036; stroke-width: 1.5;" x1="7" x2="151" y1="226" y2="226"/><!--MD5=[3809f4cd6c4df9cd6711565da6789b4d]
class CustomMetric--><rect fill="#FEFECE" filter="url(#f2cu5rijjefie)" height="48" id="CustomMetric" style="stroke: #A80036; stroke-width: 1.5;" width="117" x="187.5" y="186"/><ellipse cx="202.5" cy="202" fill="#ADD1B2" rx="11" ry="11" style="stroke: #A80036; stroke-width: 1.0;"/><path d="M205.4688,207.6406 Q204.8906,207.9375 204.25,208.0781 Q203.6094,208.2344 202.9063,208.2344 Q200.4063,208.2344 199.0781,206.5938 Q197.7656,204.9375 197.7656,201.8125 Q197.7656,198.6875 199.0781,197.0313 Q200.4063,195.375 202.9063,195.375 Q203.6094,195.375 204.25,195.5313 Q204.9063,195.6875 205.4688,195.9844 L205.4688,198.7031 Q204.8438,198.125 204.25,197.8594 Q203.6563,197.5781 203.0313,197.5781 Q201.6875,197.5781 201,198.6563 Q200.3125,199.7188 200.3125,201.8125 Q200.3125,203.9063 201,204.9844 Q201.6875,206.0469 203.0313,206.0469 Q203.6563,206.0469 204.25,205.7813 Q204.8438,205.5 205.4688,204.9219 L205.4688,207.6406 Z "/><text fill="#000000" font-family="sans-serif" font-size="12" lengthAdjust="spacingAndGlyphs" textLength="85" x="216.5" y="206.1543">CustomMetric</text><line style="stroke: #A80036; stroke-width: 1.5;" x1="188.5" x2="303.5" y1="218" y2="218"/><line style="stroke: #A80036; stroke-width: 1.5;" x1="188.5" x2="303.5" y1="226" y2="226"/><path d="M246.5,8 L246.5,54.5 L211.63,58.5 L246.5,62.5 L246.5,108.7969 A0,0 0 0 0 246.5,108.7969 L593.5,108.7969 A0,0 0 0 0 593.5,108.7969 L593.5,18 L583.5,8 L246.5,8 A0,0 0 0 0 246.5,8 " fill="#FBFB77" filter="url(#f2cu5rijjefie)" style="stroke: #A80036; stroke-width: 1.0;"/><path d="M583.5,8 L583.5,18 L593.5,18 L583.5,8 " fill="#FBFB77" style="stroke: #A80036; stroke-width: 1.0;"/><text fill="#000000" font-family="sans-serif" font-size="13" lengthAdjust="spacingAndGlyphs" textLength="101" x="252.5" y="25.0669">Responsibilities:</text><text fill="#000000" font-family="sans-serif" font-size="13" lengthAdjust="spacingAndGlyphs" textLength="326" x="252.5" y="40.1997">- Defines a custom metric with a name and a value</text><text fill="#000000" font-family="sans-serif" font-size="13" lengthAdjust="spacingAndGlyphs" textLength="0" x="256.5" y="55.3325"/><text fill="#000000" font-family="sans-serif" font-size="13" lengthAdjust="spacingAndGlyphs" textLength="89" x="252.5" y="70.4653">Collaborators:</text><text fill="#000000" font-family="sans-serif" font-size="13" lengthAdjust="spacingAndGlyphs" textLength="127" x="252.5" y="85.5981">- CustomTaskMetric</text><text fill="#000000" font-family="sans-serif" font-size="13" lengthAdjust="spacingAndGlyphs" textLength="98" x="252.5" y="100.731">- CustomMetric</text><!--MD5=[fd348e714ff274167b755dca0745157b]
link TaskMetric to CustomTaskMetric--><path d="M141.91,95.69 C127.27,122.05 107.75,157.21 94.36,181.34 " fill="none" id="TaskMetric-&gt;CustomTaskMetric" style="stroke: #A80036; stroke-width: 1.0;"/><polygon fill="#A80036" points="91.93,185.71,99.7974,179.7852,94.3582,181.3392,92.8042,175.9,91.93,185.71" style="stroke: #A80036; stroke-width: 1.0;"/><text fill="#000000" font-family="sans-serif" font-size="13" lengthAdjust="spacingAndGlyphs" textLength="76" x="117" y="152.0669">implements</text><!--MD5=[f3c7abb375d9f0a198ab29d36642577a]
link TaskMetric to CustomMetric--><path d="M182.33,95.69 C197.14,122.05 216.9,157.21 230.46,181.34 " fill="none" id="TaskMetric-&gt;CustomMetric" style="stroke: #A80036; stroke-width: 1.0;"/><polygon fill="#A80036" points="232.92,185.71,232.0077,175.9035,230.4748,181.3487,225.0296,179.8158,232.92,185.71" style="stroke: #A80036; stroke-width: 1.0;"/><text fill="#000000" font-family="sans-serif" font-size="13" lengthAdjust="spacingAndGlyphs" textLength="70" x="214" y="152.0669">match with</text><!--MD5=[4459f1285d3c1fb789a98720f09e9067]
@startuml inline_umlgraph_7.svg
class TaskMetric {
 + name()
 + value()
}

TaskMetric - -> CustomTaskMetric : implements
TaskMetric - -> CustomMetric : match with

note right of TaskMetric
Responsibilities:
- Defines a custom metric with a name and a value

Collaborators:
- CustomTaskMetric
- CustomMetric
endnote
@enduml

PlantUML version 1.2020.02(Sun Mar 01 10:22:07 UTC 2020)
(GPL source distribution)
Java Runtime: OpenJDK Runtime Environment
JVM: OpenJDK 64-Bit Server VM
Java Version: 1.8.0_292-b10
Operating System: Linux
Default Encoding: UTF-8
Language: en
Country: null
--></g></svg>