<?xml version="1.0" encoding="UTF-8" standalone="no"?><svg xmlns="http://www.w3.org/2000/svg" xmlns:xlink="http://www.w3.org/1999/xlink" contentScriptType="application/ecmascript" contentStyleType="text/css" height="228px" preserveAspectRatio="none" style="width:676px;height:228px;" version="1.1" viewBox="0 0 676 228" width="676px" zoomAndPan="magnify"><defs><filter height="300%" id="f1vr1grfdzuqbm" width="300%" x="-1" y="-1"><feGaussianBlur result="blurOut" stdDeviation="2.0"/><feColorMatrix in="blurOut" result="blurOut2" type="matrix" values="0 0 0 0 0 0 0 0 0 0 0 0 0 0 0 0 0 0 .4 0"/><feOffset dx="4.0" dy="4.0" in="blurOut2" result="blurOut3"/><feBlend in="SourceGraphic" in2="blurOut3" mode="normal"/></filter></defs><g><!--MD5=[3ae0e0d21ab48999dea89a2dcf0090b5]
class RecordsProcessedMetricAggregator--><rect fill="#FEFECE" filter="url(#f1vr1grfdzuqbm)" height="86.4141" id="RecordsProcessedMetricAggregator" style="stroke: #A80036; stroke-width: 1.5;" width="258" x="407" y="15.5"/><ellipse cx="422" cy="31.5" fill="#ADD1B2" rx="11" ry="11" style="stroke: #A80036; stroke-width: 1.0;"/><path d="M424.9688,37.1406 Q424.3906,37.4375 423.75,37.5781 Q423.1094,37.7344 422.4063,37.7344 Q419.9063,37.7344 418.5781,36.0938 Q417.2656,34.4375 417.2656,31.3125 Q417.2656,28.1875 418.5781,26.5313 Q419.9063,24.875 422.4063,24.875 Q423.1094,24.875 423.75,25.0313 Q424.4063,25.1875 424.9688,25.4844 L424.9688,28.2031 Q424.3438,27.625 423.75,27.3594 Q423.1563,27.0781 422.5313,27.0781 Q421.1875,27.0781 420.5,28.1563 Q419.8125,29.2188 419.8125,31.3125 Q419.8125,33.4063 420.5,34.4844 Q421.1875,35.5469 422.5313,35.5469 Q423.1563,35.5469 423.75,35.2813 Q424.3438,35 424.9688,34.4219 L424.9688,37.1406 Z "/><text fill="#000000" font-family="sans-serif" font-size="12" lengthAdjust="spacingAndGlyphs" textLength="226" x="436" y="35.6543">RecordsProcessedMetricAggregator</text><line style="stroke: #A80036; stroke-width: 1.5;" x1="408" x2="664" y1="47.5" y2="47.5"/><line style="stroke: #A80036; stroke-width: 1.5;" x1="408" x2="664" y1="55.5" y2="55.5"/><ellipse cx="418" cy="66.5" fill="#84BE84" rx="3" ry="3" style="stroke: #038048; stroke-width: 1.0;"/><text fill="#000000" font-family="sans-serif" font-size="11" lengthAdjust="spacingAndGlyphs" textLength="40" x="427" y="69.7104">name()</text><ellipse cx="418" cy="79.3047" fill="#84BE84" rx="3" ry="3" style="stroke: #038048; stroke-width: 1.0;"/><text fill="#000000" font-family="sans-serif" font-size="11" lengthAdjust="spacingAndGlyphs" textLength="71" x="427" y="82.5151">description()</text><ellipse cx="418" cy="92.1094" fill="#84BE84" rx="3" ry="3" style="stroke: #038048; stroke-width: 1.0;"/><text fill="#000000" font-family="sans-serif" font-size="11" lengthAdjust="spacingAndGlyphs" textLength="134" x="427" y="95.3198">aggregateTaskMetrics()</text><!--MD5=[6c3a001f16649f06e2b965fbeb15d800]
class TaskMetric--><rect fill="#FEFECE" filter="url(#f1vr1grfdzuqbm)" height="48" id="TaskMetric" style="stroke: #A80036; stroke-width: 1.5;" width="99" x="414.5" y="169"/><ellipse cx="429.5" cy="185" fill="#ADD1B2" rx="11" ry="11" style="stroke: #A80036; stroke-width: 1.0;"/><path d="M432.4688,190.6406 Q431.8906,190.9375 431.25,191.0781 Q430.6094,191.2344 429.9063,191.2344 Q427.4063,191.2344 426.0781,189.5938 Q424.7656,187.9375 424.7656,184.8125 Q424.7656,181.6875 426.0781,180.0313 Q427.4063,178.375 429.9063,178.375 Q430.6094,178.375 431.25,178.5313 Q431.9063,178.6875 432.4688,178.9844 L432.4688,181.7031 Q431.8438,181.125 431.25,180.8594 Q430.6563,180.5781 430.0313,180.5781 Q428.6875,180.5781 428,181.6563 Q427.3125,182.7188 427.3125,184.8125 Q427.3125,186.9063 428,187.9844 Q428.6875,189.0469 430.0313,189.0469 Q430.6563,189.0469 431.25,188.7813 Q431.8438,188.5 432.4688,187.9219 L432.4688,190.6406 Z "/><text fill="#000000" font-family="sans-serif" font-size="12" lengthAdjust="spacingAndGlyphs" textLength="67" x="443.5" y="189.1543">TaskMetric</text><line style="stroke: #A80036; stroke-width: 1.5;" x1="415.5" x2="512.5" y1="201" y2="201"/><line style="stroke: #A80036; stroke-width: 1.5;" x1="415.5" x2="512.5" y1="209" y2="209"/><!--MD5=[3809f4cd6c4df9cd6711565da6789b4d]
class CustomMetric--><rect fill="#FEFECE" filter="url(#f1vr1grfdzuqbm)" height="48" id="CustomMetric" style="stroke: #A80036; stroke-width: 1.5;" width="117" x="548.5" y="169"/><ellipse cx="563.5" cy="185" fill="#ADD1B2" rx="11" ry="11" style="stroke: #A80036; stroke-width: 1.0;"/><path d="M566.4688,190.6406 Q565.8906,190.9375 565.25,191.0781 Q564.6094,191.2344 563.9063,191.2344 Q561.4063,191.2344 560.0781,189.5938 Q558.7656,187.9375 558.7656,184.8125 Q558.7656,181.6875 560.0781,180.0313 Q561.4063,178.375 563.9063,178.375 Q564.6094,178.375 565.25,178.5313 Q565.9063,178.6875 566.4688,178.9844 L566.4688,181.7031 Q565.8438,181.125 565.25,180.8594 Q564.6563,180.5781 564.0313,180.5781 Q562.6875,180.5781 562,181.6563 Q561.3125,182.7188 561.3125,184.8125 Q561.3125,186.9063 562,187.9844 Q562.6875,189.0469 564.0313,189.0469 Q564.6563,189.0469 565.25,188.7813 Q565.8438,188.5 566.4688,187.9219 L566.4688,190.6406 Z "/><text fill="#000000" font-family="sans-serif" font-size="12" lengthAdjust="spacingAndGlyphs" textLength="85" x="577.5" y="189.1543">CustomMetric</text><line style="stroke: #A80036; stroke-width: 1.5;" x1="549.5" x2="664.5" y1="201" y2="201"/><line style="stroke: #A80036; stroke-width: 1.5;" x1="549.5" x2="664.5" y1="209" y2="209"/><path d="M6,8 L6,108.7969 A0,0 0 0 0 6,108.7969 L372,108.7969 A0,0 0 0 0 372,108.7969 L372,62.5 L406.85,58.5 L372,54.5 L372,18 L362,8 L6,8 A0,0 0 0 0 6,8 " fill="#FBFB77" filter="url(#f1vr1grfdzuqbm)" style="stroke: #A80036; stroke-width: 1.0;"/><path d="M362,8 L362,18 L372,18 L362,8 " fill="#FBFB77" style="stroke: #A80036; stroke-width: 1.0;"/><text fill="#000000" font-family="sans-serif" font-size="13" lengthAdjust="spacingAndGlyphs" textLength="101" x="12" y="25.0669">Responsibilities:</text><text fill="#000000" font-family="sans-serif" font-size="13" lengthAdjust="spacingAndGlyphs" textLength="345" x="12" y="40.1997">- Aggregates the number of records processed metric</text><text fill="#000000" font-family="sans-serif" font-size="13" lengthAdjust="spacingAndGlyphs" textLength="299" x="12" y="55.3325">- Holds the name and description of the metric</text><text fill="#000000" font-family="sans-serif" font-size="13" lengthAdjust="spacingAndGlyphs" textLength="0" x="16" y="70.4653"/><text fill="#000000" font-family="sans-serif" font-size="13" lengthAdjust="spacingAndGlyphs" textLength="89" x="12" y="85.5981">Collaborators:</text><text fill="#000000" font-family="sans-serif" font-size="13" lengthAdjust="spacingAndGlyphs" textLength="98" x="12" y="100.731">- CustomMetric</text><!--MD5=[0a3a4ed13659f50da3269218349345f2]
link RecordsProcessedMetricAggregator to TaskMetric--><path d="M513.02,101.79 C501.87,122.32 488.78,146.39 478.94,164.5 " fill="none" id="RecordsProcessedMetricAggregator-&gt;TaskMetric" style="stroke: #A80036; stroke-width: 1.0;"/><polygon fill="#A80036" points="476.51,168.97,484.3313,162.9843,478.9043,164.5805,477.3081,159.1535,476.51,168.97" style="stroke: #A80036; stroke-width: 1.0;"/><!--MD5=[5f27db1a3bc1763928a960e3d89fc469]
link RecordsProcessedMetricAggregator to CustomMetric--><path d="M558.66,101.79 C569.66,122.32 582.56,146.39 592.27,164.5 " fill="none" id="RecordsProcessedMetricAggregator-&gt;CustomMetric" style="stroke: #A80036; stroke-width: 1.0;"/><polygon fill="#A80036" points="594.66,168.97,593.9359,159.1478,592.2989,164.5626,586.8841,162.9256,594.66,168.97" style="stroke: #A80036; stroke-width: 1.0;"/><!--MD5=[1971402eeb56dc3410b134d744c8eaa1]
@startuml inline_umlgraph_11.svg
class RecordsProcessedMetricAggregator {
    + name()
    + description()
    + aggregateTaskMetrics()
}

RecordsProcessedMetricAggregator - -> TaskMetric
RecordsProcessedMetricAggregator - -> CustomMetric

note left of RecordsProcessedMetricAggregator
Responsibilities:
- Aggregates the number of records processed metric
- Holds the name and description of the metric

Collaborators:
- CustomMetric
end note
@enduml

PlantUML version 1.2020.02(Sun Mar 01 10:22:07 UTC 2020)
(GPL source distribution)
Java Runtime: OpenJDK Runtime Environment
JVM: OpenJDK 64-Bit Server VM
Java Version: 1.8.0_292-b10
Operating System: Linux
Default Encoding: UTF-8
Language: en
Country: null
--></g></svg>