<?xml version="1.0" encoding="UTF-8" standalone="no"?><svg xmlns="http://www.w3.org/2000/svg" xmlns:xlink="http://www.w3.org/1999/xlink" contentScriptType="application/ecmascript" contentStyleType="text/css" height="392px" preserveAspectRatio="none" style="width:1451px;height:392px;" version="1.1" viewBox="0 0 1451 392" width="1451px" zoomAndPan="magnify"><defs><filter height="300%" id="f18xdfkaxkxo2u" width="300%" x="-1" y="-1"><feGaussianBlur result="blurOut" stdDeviation="2.0"/><feColorMatrix in="blurOut" result="blurOut2" type="matrix" values="0 0 0 0 0 0 0 0 0 0 0 0 0 0 0 0 0 0 .4 0"/><feOffset dx="4.0" dy="4.0" in="blurOut2" result="blurOut3"/><feBlend in="SourceGraphic" in2="blurOut3" mode="normal"/></filter></defs><g><!--MD5=[4bf8aff396996fef456cd268939daa24]
class Config--><rect fill="#FEFECE" filter="url(#f18xdfkaxkxo2u)" height="48" id="Config" style="stroke: #A80036; stroke-width: 1.5;" width="71" x="649" y="57"/><ellipse cx="664" cy="73" fill="#ADD1B2" rx="11" ry="11" style="stroke: #A80036; stroke-width: 1.0;"/><path d="M666.9688,78.6406 Q666.3906,78.9375 665.75,79.0781 Q665.1094,79.2344 664.4063,79.2344 Q661.9063,79.2344 660.5781,77.5938 Q659.2656,75.9375 659.2656,72.8125 Q659.2656,69.6875 660.5781,68.0313 Q661.9063,66.375 664.4063,66.375 Q665.1094,66.375 665.75,66.5313 Q666.4063,66.6875 666.9688,66.9844 L666.9688,69.7031 Q666.3438,69.125 665.75,68.8594 Q665.1563,68.5781 664.5313,68.5781 Q663.1875,68.5781 662.5,69.6563 Q661.8125,70.7188 661.8125,72.8125 Q661.8125,74.9063 662.5,75.9844 Q663.1875,77.0469 664.5313,77.0469 Q665.1563,77.0469 665.75,76.7813 Q666.3438,76.5 666.9688,75.9219 L666.9688,78.6406 Z "/><text fill="#000000" font-family="sans-serif" font-size="12" lengthAdjust="spacingAndGlyphs" textLength="39" x="678" y="77.1543">Config</text><line style="stroke: #A80036; stroke-width: 1.5;" x1="650" x2="719" y1="89" y2="89"/><line style="stroke: #A80036; stroke-width: 1.5;" x1="650" x2="719" y1="97" y2="97"/><!--MD5=[775b918ad6fa0562d5d4c268d5c6b05b]
class ArchiveConfig--><rect fill="#FEFECE" filter="url(#f18xdfkaxkxo2u)" height="48" id="ArchiveConfig" style="stroke: #A80036; stroke-width: 1.5;" width="116" x="80.5" y="231"/><ellipse cx="95.5" cy="247" fill="#ADD1B2" rx="11" ry="11" style="stroke: #A80036; stroke-width: 1.0;"/><path d="M98.4688,252.6406 Q97.8906,252.9375 97.25,253.0781 Q96.6094,253.2344 95.9063,253.2344 Q93.4063,253.2344 92.0781,251.5938 Q90.7656,249.9375 90.7656,246.8125 Q90.7656,243.6875 92.0781,242.0313 Q93.4063,240.375 95.9063,240.375 Q96.6094,240.375 97.25,240.5313 Q97.9063,240.6875 98.4688,240.9844 L98.4688,243.7031 Q97.8438,243.125 97.25,242.8594 Q96.6563,242.5781 96.0313,242.5781 Q94.6875,242.5781 94,243.6563 Q93.3125,244.7188 93.3125,246.8125 Q93.3125,248.9063 94,249.9844 Q94.6875,251.0469 96.0313,251.0469 Q96.6563,251.0469 97.25,250.7813 Q97.8438,250.5 98.4688,249.9219 L98.4688,252.6406 Z "/><text fill="#000000" font-family="sans-serif" font-size="12" lengthAdjust="spacingAndGlyphs" textLength="84" x="109.5" y="251.1543">ArchiveConfig</text><line style="stroke: #A80036; stroke-width: 1.5;" x1="81.5" x2="195.5" y1="263" y2="263"/><line style="stroke: #A80036; stroke-width: 1.5;" x1="81.5" x2="195.5" y1="271" y2="271"/><!--MD5=[13008d130e228bffb3af25d9f9327b2c]
class AuditConfig--><rect fill="#FEFECE" filter="url(#f18xdfkaxkxo2u)" height="48" id="AuditConfig" style="stroke: #A80036; stroke-width: 1.5;" width="103" x="367" y="231"/><ellipse cx="382" cy="247" fill="#ADD1B2" rx="11" ry="11" style="stroke: #A80036; stroke-width: 1.0;"/><path d="M384.9688,252.6406 Q384.3906,252.9375 383.75,253.0781 Q383.1094,253.2344 382.4063,253.2344 Q379.9063,253.2344 378.5781,251.5938 Q377.2656,249.9375 377.2656,246.8125 Q377.2656,243.6875 378.5781,242.0313 Q379.9063,240.375 382.4063,240.375 Q383.1094,240.375 383.75,240.5313 Q384.4063,240.6875 384.9688,240.9844 L384.9688,243.7031 Q384.3438,243.125 383.75,242.8594 Q383.1563,242.5781 382.5313,242.5781 Q381.1875,242.5781 380.5,243.6563 Q379.8125,244.7188 379.8125,246.8125 Q379.8125,248.9063 380.5,249.9844 Q381.1875,251.0469 382.5313,251.0469 Q383.1563,251.0469 383.75,250.7813 Q384.3438,250.5 384.9688,249.9219 L384.9688,252.6406 Z "/><text fill="#000000" font-family="sans-serif" font-size="12" lengthAdjust="spacingAndGlyphs" textLength="71" x="396" y="251.1543">AuditConfig</text><line style="stroke: #A80036; stroke-width: 1.5;" x1="368" x2="469" y1="263" y2="263"/><line style="stroke: #A80036; stroke-width: 1.5;" x1="368" x2="469" y1="271" y2="271"/><!--MD5=[8be92826835b67a7c76e165e77daf5d2]
class BatchConfig--><rect fill="#FEFECE" filter="url(#f18xdfkaxkxo2u)" height="48" id="BatchConfig" style="stroke: #A80036; stroke-width: 1.5;" width="107" x="631" y="231"/><ellipse cx="646" cy="247" fill="#ADD1B2" rx="11" ry="11" style="stroke: #A80036; stroke-width: 1.0;"/><path d="M648.9688,252.6406 Q648.3906,252.9375 647.75,253.0781 Q647.1094,253.2344 646.4063,253.2344 Q643.9063,253.2344 642.5781,251.5938 Q641.2656,249.9375 641.2656,246.8125 Q641.2656,243.6875 642.5781,242.0313 Q643.9063,240.375 646.4063,240.375 Q647.1094,240.375 647.75,240.5313 Q648.4063,240.6875 648.9688,240.9844 L648.9688,243.7031 Q648.3438,243.125 647.75,242.8594 Q647.1563,242.5781 646.5313,242.5781 Q645.1875,242.5781 644.5,243.6563 Q643.8125,244.7188 643.8125,246.8125 Q643.8125,248.9063 644.5,249.9844 Q645.1875,251.0469 646.5313,251.0469 Q647.1563,251.0469 647.75,250.7813 Q648.3438,250.5 648.9688,249.9219 L648.9688,252.6406 Z "/><text fill="#000000" font-family="sans-serif" font-size="12" lengthAdjust="spacingAndGlyphs" textLength="75" x="660" y="251.1543">BatchConfig</text><line style="stroke: #A80036; stroke-width: 1.5;" x1="632" x2="737" y1="263" y2="263"/><line style="stroke: #A80036; stroke-width: 1.5;" x1="632" x2="737" y1="271" y2="271"/><!--MD5=[9b465d90e5c208169cc04f51ef3ed809]
class ConditionConfig--><rect fill="#FEFECE" filter="url(#f18xdfkaxkxo2u)" height="48" id="ConditionConfig" style="stroke: #A80036; stroke-width: 1.5;" width="130" x="889.5" y="231"/><ellipse cx="904.5" cy="247" fill="#ADD1B2" rx="11" ry="11" style="stroke: #A80036; stroke-width: 1.0;"/><path d="M907.4688,252.6406 Q906.8906,252.9375 906.25,253.0781 Q905.6094,253.2344 904.9063,253.2344 Q902.4063,253.2344 901.0781,251.5938 Q899.7656,249.9375 899.7656,246.8125 Q899.7656,243.6875 901.0781,242.0313 Q902.4063,240.375 904.9063,240.375 Q905.6094,240.375 906.25,240.5313 Q906.9063,240.6875 907.4688,240.9844 L907.4688,243.7031 Q906.8438,243.125 906.25,242.8594 Q905.6563,242.5781 905.0313,242.5781 Q903.6875,242.5781 903,243.6563 Q902.3125,244.7188 902.3125,246.8125 Q902.3125,248.9063 903,249.9844 Q903.6875,251.0469 905.0313,251.0469 Q905.6563,251.0469 906.25,250.7813 Q906.8438,250.5 907.4688,249.9219 L907.4688,252.6406 Z "/><text fill="#000000" font-family="sans-serif" font-size="12" lengthAdjust="spacingAndGlyphs" textLength="98" x="918.5" y="251.1543">ConditionConfig</text><line style="stroke: #A80036; stroke-width: 1.5;" x1="890.5" x2="1018.5" y1="263" y2="263"/><line style="stroke: #A80036; stroke-width: 1.5;" x1="890.5" x2="1018.5" y1="271" y2="271"/><!--MD5=[9e98628906fd6954bbaaa8256748fd76]
class KafkaConfig--><rect fill="#FEFECE" filter="url(#f18xdfkaxkxo2u)" height="48" id="KafkaConfig" style="stroke: #A80036; stroke-width: 1.5;" width="105" x="1194" y="231"/><ellipse cx="1209" cy="247" fill="#ADD1B2" rx="11" ry="11" style="stroke: #A80036; stroke-width: 1.0;"/><path d="M1211.9688,252.6406 Q1211.3906,252.9375 1210.75,253.0781 Q1210.1094,253.2344 1209.4063,253.2344 Q1206.9063,253.2344 1205.5781,251.5938 Q1204.2656,249.9375 1204.2656,246.8125 Q1204.2656,243.6875 1205.5781,242.0313 Q1206.9063,240.375 1209.4063,240.375 Q1210.1094,240.375 1210.75,240.5313 Q1211.4063,240.6875 1211.9688,240.9844 L1211.9688,243.7031 Q1211.3438,243.125 1210.75,242.8594 Q1210.1563,242.5781 1209.5313,242.5781 Q1208.1875,242.5781 1207.5,243.6563 Q1206.8125,244.7188 1206.8125,246.8125 Q1206.8125,248.9063 1207.5,249.9844 Q1208.1875,251.0469 1209.5313,251.0469 Q1210.1563,251.0469 1210.75,250.7813 Q1211.3438,250.5 1211.9688,249.9219 L1211.9688,252.6406 Z "/><text fill="#000000" font-family="sans-serif" font-size="12" lengthAdjust="spacingAndGlyphs" textLength="73" x="1223" y="251.1543">KafkaConfig</text><line style="stroke: #A80036; stroke-width: 1.5;" x1="1195" x2="1298" y1="263" y2="263"/><line style="stroke: #A80036; stroke-width: 1.5;" x1="1195" x2="1298" y1="271" y2="271"/><path d="M755,8 L755,77 L720.23,81 L755,85 L755,154.1953 A0,0 0 0 0 755,154.1953 L1152,154.1953 A0,0 0 0 0 1152,154.1953 L1152,18 L1142,8 L755,8 A0,0 0 0 0 755,8 " fill="#FBFB77" filter="url(#f18xdfkaxkxo2u)" style="stroke: #A80036; stroke-width: 1.0;"/><path d="M1142,8 L1142,18 L1152,18 L1142,8 " fill="#FBFB77" style="stroke: #A80036; stroke-width: 1.0;"/><text fill="#000000" font-family="sans-serif" font-size="13" lengthAdjust="spacingAndGlyphs" textLength="101" x="761" y="25.0669">Responsibilities:</text><text fill="#000000" font-family="sans-serif" font-size="13" lengthAdjust="spacingAndGlyphs" textLength="376" x="761" y="40.1997">- creates the general configuration objects for the program</text><text fill="#000000" font-family="sans-serif" font-size="13" lengthAdjust="spacingAndGlyphs" textLength="0" x="765" y="55.3325"/><text fill="#000000" font-family="sans-serif" font-size="13" lengthAdjust="spacingAndGlyphs" textLength="89" x="761" y="70.4653">Collaborators:</text><text fill="#000000" font-family="sans-serif" font-size="13" lengthAdjust="spacingAndGlyphs" textLength="96" x="761" y="85.5981">- ArchiveConfig</text><text fill="#000000" font-family="sans-serif" font-size="13" lengthAdjust="spacingAndGlyphs" textLength="82" x="761" y="100.731">- AuditConfig</text><text fill="#000000" font-family="sans-serif" font-size="13" lengthAdjust="spacingAndGlyphs" textLength="86" x="761" y="115.8638">- BatchConfig</text><text fill="#000000" font-family="sans-serif" font-size="13" lengthAdjust="spacingAndGlyphs" textLength="109" x="761" y="130.9966">- ConditionConfig</text><text fill="#000000" font-family="sans-serif" font-size="13" lengthAdjust="spacingAndGlyphs" textLength="84" x="761" y="146.1294">- KafkaConfig</text><path d="M6,340 L6,380.2656 A0,0 0 0 0 6,380.2656 L271,380.2656 A0,0 0 0 0 271,380.2656 L271,350 L261,340 L142.5,340 L138.5,279.12 L134.5,340 L6,340 A0,0 0 0 0 6,340 " fill="#FBFB77" filter="url(#f18xdfkaxkxo2u)" style="stroke: #A80036; stroke-width: 1.0;"/><path d="M261,340 L261,350 L271,350 L261,340 " fill="#FBFB77" style="stroke: #A80036; stroke-width: 1.0;"/><text fill="#000000" font-family="sans-serif" font-size="13" lengthAdjust="spacingAndGlyphs" textLength="101" x="12" y="357.0669">Responsibilities:</text><text fill="#000000" font-family="sans-serif" font-size="13" lengthAdjust="spacingAndGlyphs" textLength="244" x="12" y="372.1997">- Stores archive related configurations</text><!--MD5=[997948453adb99036253c1beeedc4911]
link Config to ArchiveConfig--><path d="M648.9,85.86 C548.36,97.29 264.61,133.34 187.5,184 C171.77,194.33 159.6,211.62 151.32,226.43 " fill="none" id="Config-&gt;ArchiveConfig" style="stroke: #A80036; stroke-width: 1.0;"/><polygon fill="#A80036" points="148.87,230.93,156.6762,224.9248,151.2533,226.5345,149.6435,221.1116,148.87,230.93" style="stroke: #A80036; stroke-width: 1.0;"/><text fill="#000000" font-family="sans-serif" font-size="13" lengthAdjust="spacingAndGlyphs" textLength="238" x="188.5" y="197.0669">Passes archive related configurations</text><!--MD5=[0ca2c7f5d0843ec8dbdee78c5450736a]
link Config to AuditConfig--><path d="M648.78,88.55 C597.77,99.64 503.97,126.76 447.5,184 C436.31,195.34 429.22,211.62 424.85,225.63 " fill="none" id="Config-&gt;AuditConfig" style="stroke: #A80036; stroke-width: 1.0;"/><polygon fill="#A80036" points="423.36,230.67,429.7467,223.1726,424.777,225.875,422.0747,220.9054,423.36,230.67" style="stroke: #A80036; stroke-width: 1.0;"/><text fill="#000000" font-family="sans-serif" font-size="13" lengthAdjust="spacingAndGlyphs" textLength="224" x="448.5" y="197.0669">Passes audit related configurations</text><!--MD5=[55e14b8b91cd49f7fbd16b0b4e0d6546]
link Config to BatchConfig--><path d="M683.18,105.26 C681.99,129.25 680.56,167.74 681.5,201 C681.72,208.93 682.14,217.53 682.59,225.44 " fill="none" id="Config-&gt;BatchConfig" style="stroke: #A80036; stroke-width: 1.0;"/><polygon fill="#A80036" points="682.9,230.79,686.3785,221.5759,682.6139,225.7982,678.3916,222.0336,682.9,230.79" style="stroke: #A80036; stroke-width: 1.0;"/><text fill="#000000" font-family="sans-serif" font-size="13" lengthAdjust="spacingAndGlyphs" textLength="228" x="682.5" y="197.0669">Passes batch related configurations</text><!--MD5=[f0d3192e29975e76dd501fda7a0a6dba]
link Config to ConditionConfig--><path d="M695.5,105.25 C704.47,121.56 718.73,142.45 737.5,154 C805.83,196.04 849.96,137.73 915.5,184 C929.79,194.09 939.46,211.17 945.59,225.92 " fill="none" id="Config-&gt;ConditionConfig" style="stroke: #A80036; stroke-width: 1.0;"/><polygon fill="#A80036" points="947.53,230.83,947.9379,220.9896,945.6903,226.1808,940.4991,223.9332,947.53,230.83" style="stroke: #A80036; stroke-width: 1.0;"/><text fill="#000000" font-family="sans-serif" font-size="13" lengthAdjust="spacingAndGlyphs" textLength="250" x="933.5" y="197.0669">Passes condition related configurations</text><!--MD5=[a802c916d58fa30121804093689095c9]
link Config to KafkaConfig--><path d="M694.8,105.12 C703.58,121.82 717.9,143.26 737.5,154 C826.38,202.67 1103.08,136.33 1192.5,184 C1209.93,193.29 1223.48,210.93 1232.65,226.18 " fill="none" id="Config-&gt;KafkaConfig" style="stroke: #A80036; stroke-width: 1.0;"/><polygon fill="#A80036" points="1235.35,230.82,1234.2743,221.0301,1232.8324,226.5001,1227.3624,225.0582,1235.35,230.82" style="stroke: #A80036; stroke-width: 1.0;"/><text fill="#000000" font-family="sans-serif" font-size="13" lengthAdjust="spacingAndGlyphs" textLength="226" x="1213.5" y="197.0669">Passes kafka related configurations</text><!--MD5=[04db1686e146345ac160fc80efa0ac3f]
@startuml inline_umlgraph_5.svg
class Config {

}

Config - -> ArchiveConfig : Passes archive related configurations
Config - -> AuditConfig : Passes audit related configurations
Config - -> BatchConfig : Passes batch related configurations
Config - -> ConditionConfig : Passes condition related configurations
Config - -> KafkaConfig : Passes kafka related configurations

note right of Config
Responsibilities:
- creates the general configuration objects for the program

Collaborators:
- ArchiveConfig
- AuditConfig
- BatchConfig
- ConditionConfig
- KafkaConfig
endnote

note bottom of ArchiveConfig
Responsibilities:
- Stores archive related configurations
endnote
@enduml

PlantUML version 1.2020.02(Sun Mar 01 10:22:07 UTC 2020)
(GPL source distribution)
Java Runtime: OpenJDK Runtime Environment
JVM: OpenJDK 64-Bit Server VM
Java Version: 1.8.0_292-b10
Operating System: Linux
Default Encoding: UTF-8
Language: en
Country: null
--></g></svg>