<?xml version="1.0" encoding="UTF-8" standalone="no"?><svg xmlns="http://www.w3.org/2000/svg" xmlns:xlink="http://www.w3.org/1999/xlink" contentScriptType="application/ecmascript" contentStyleType="text/css" height="213px" preserveAspectRatio="none" style="width:435px;height:213px;" version="1.1" viewBox="0 0 435 213" width="435px" zoomAndPan="magnify"><defs><filter height="300%" id="f1szoptqahyfrk" width="300%" x="-1" y="-1"><feGaussianBlur result="blurOut" stdDeviation="2.0"/><feColorMatrix in="blurOut" result="blurOut2" type="matrix" values="0 0 0 0 0 0 0 0 0 0 0 0 0 0 0 0 0 0 .4 0"/><feOffset dx="4.0" dy="4.0" in="blurOut2" result="blurOut3"/><feBlend in="SourceGraphic" in2="blurOut3" mode="normal"/></filter></defs><g><!--MD5=[775b918ad6fa0562d5d4c268d5c6b05b]
class ArchiveConfig--><rect fill="#FEFECE" filter="url(#f1szoptqahyfrk)" height="48" id="ArchiveConfig" style="stroke: #A80036; stroke-width: 1.5;" width="116" x="7" y="27"/><ellipse cx="22" cy="43" fill="#ADD1B2" rx="11" ry="11" style="stroke: #A80036; stroke-width: 1.0;"/><path d="M24.9688,48.6406 Q24.3906,48.9375 23.75,49.0781 Q23.1094,49.2344 22.4063,49.2344 Q19.9063,49.2344 18.5781,47.5938 Q17.2656,45.9375 17.2656,42.8125 Q17.2656,39.6875 18.5781,38.0313 Q19.9063,36.375 22.4063,36.375 Q23.1094,36.375 23.75,36.5313 Q24.4063,36.6875 24.9688,36.9844 L24.9688,39.7031 Q24.3438,39.125 23.75,38.8594 Q23.1563,38.5781 22.5313,38.5781 Q21.1875,38.5781 20.5,39.6563 Q19.8125,40.7188 19.8125,42.8125 Q19.8125,44.9063 20.5,45.9844 Q21.1875,47.0469 22.5313,47.0469 Q23.1563,47.0469 23.75,46.7813 Q24.3438,46.5 24.9688,45.9219 L24.9688,48.6406 Z "/><text fill="#000000" font-family="sans-serif" font-size="12" lengthAdjust="spacingAndGlyphs" textLength="84" x="36" y="47.1543">ArchiveConfig</text><line style="stroke: #A80036; stroke-width: 1.5;" x1="8" x2="122" y1="59" y2="59"/><line style="stroke: #A80036; stroke-width: 1.5;" x1="8" x2="122" y1="67" y2="67"/><!--MD5=[4ac45b9e49d8f70fcb2b124036551569]
class ToinenLuokka--><rect fill="#FEFECE" filter="url(#f1szoptqahyfrk)" height="48" id="ToinenLuokka" style="stroke: #A80036; stroke-width: 1.5;" width="118" x="6" y="154"/><ellipse cx="21" cy="170" fill="#ADD1B2" rx="11" ry="11" style="stroke: #A80036; stroke-width: 1.0;"/><path d="M23.9688,175.6406 Q23.3906,175.9375 22.75,176.0781 Q22.1094,176.2344 21.4063,176.2344 Q18.9063,176.2344 17.5781,174.5938 Q16.2656,172.9375 16.2656,169.8125 Q16.2656,166.6875 17.5781,165.0313 Q18.9063,163.375 21.4063,163.375 Q22.1094,163.375 22.75,163.5313 Q23.4063,163.6875 23.9688,163.9844 L23.9688,166.7031 Q23.3438,166.125 22.75,165.8594 Q22.1563,165.5781 21.5313,165.5781 Q20.1875,165.5781 19.5,166.6563 Q18.8125,167.7188 18.8125,169.8125 Q18.8125,171.9063 19.5,172.9844 Q20.1875,174.0469 21.5313,174.0469 Q22.1563,174.0469 22.75,173.7813 Q23.3438,173.5 23.9688,172.9219 L23.9688,175.6406 Z "/><text fill="#000000" font-family="sans-serif" font-size="12" lengthAdjust="spacingAndGlyphs" textLength="86" x="35" y="174.1543">ToinenLuokka</text><line style="stroke: #A80036; stroke-width: 1.5;" x1="7" x2="123" y1="186" y2="186"/><line style="stroke: #A80036; stroke-width: 1.5;" x1="7" x2="123" y1="194" y2="194"/><path d="M158.5,8 L158.5,47 L123.27,51 L158.5,55 L158.5,93.6641 A0,0 0 0 0 158.5,93.6641 L423.5,93.6641 A0,0 0 0 0 423.5,93.6641 L423.5,18 L413.5,8 L158.5,8 A0,0 0 0 0 158.5,8 " fill="#FBFB77" filter="url(#f1szoptqahyfrk)" style="stroke: #A80036; stroke-width: 1.0;"/><path d="M413.5,8 L413.5,18 L423.5,18 L413.5,8 " fill="#FBFB77" style="stroke: #A80036; stroke-width: 1.0;"/><text fill="#000000" font-family="sans-serif" font-size="13" lengthAdjust="spacingAndGlyphs" textLength="101" x="164.5" y="25.0669">Responsibilities:</text><text fill="#000000" font-family="sans-serif" font-size="13" lengthAdjust="spacingAndGlyphs" textLength="244" x="164.5" y="40.1997">- Stores archive related configurations</text><text fill="#000000" font-family="sans-serif" font-size="13" lengthAdjust="spacingAndGlyphs" textLength="0" x="168.5" y="55.3325"/><text fill="#000000" font-family="sans-serif" font-size="13" lengthAdjust="spacingAndGlyphs" textLength="89" x="164.5" y="70.4653">Collaborators:</text><text fill="#000000" font-family="sans-serif" font-size="13" lengthAdjust="spacingAndGlyphs" textLength="49" x="164.5" y="85.5981">- Config</text><!--MD5=[e5ae9db8a146f97b82c1a7e785e40949]
link ArchiveConfig to ToinenLuokka--><path d="M65,75.22 C65,96 65,126.54 65,148.74 " fill="none" id="ArchiveConfig-&gt;ToinenLuokka" style="stroke: #A80036; stroke-width: 1.0;"/><polygon fill="#A80036" points="65,153.91,69,144.91,65,148.91,61,144.91,65,153.91" style="stroke: #A80036; stroke-width: 1.0;"/><!--MD5=[b367289c332ecf37735042041d27c67b]
@startuml inline_umlgraph_1.svg
class ArchiveConfig {}

ArchiveConfig - -> ToinenLuokka

note right of ArchiveConfig
Responsibilities:
- Stores archive related configurations

Collaborators:
- Config
end note
@enduml

PlantUML version 1.2020.02(Sun Mar 01 10:22:07 UTC 2020)
(GPL source distribution)
Java Runtime: OpenJDK Runtime Environment
JVM: OpenJDK 64-Bit Server VM
Java Version: 1.8.0_292-b10
Operating System: Linux
Default Encoding: UTF-8
Language: en
Country: null
--></g></svg>