<?xml version="1.0" encoding="UTF-8" standalone="no"?><svg xmlns="http://www.w3.org/2000/svg" xmlns:xlink="http://www.w3.org/1999/xlink" contentScriptType="application/ecmascript" contentStyleType="text/css" height="213px" preserveAspectRatio="none" style="width:684px;height:213px;" version="1.1" viewBox="0 0 684 213" width="684px" zoomAndPan="magnify"><defs><filter height="300%" id="fs1pio5ebk6rz" width="300%" x="-1" y="-1"><feGaussianBlur result="blurOut" stdDeviation="2.0"/><feColorMatrix in="blurOut" result="blurOut2" type="matrix" values="0 0 0 0 0 0 0 0 0 0 0 0 0 0 0 0 0 0 .4 0"/><feOffset dx="4.0" dy="4.0" in="blurOut2" result="blurOut3"/><feBlend in="SourceGraphic" in2="blurOut3" mode="normal"/></filter></defs><g><!--MD5=[94544963715b7dfa238b4b1f4a6146f9]
class KafkaOffsetMetricAggregator--><rect fill="#FEFECE" filter="url(#fs1pio5ebk6rz)" height="86.4141" id="KafkaOffsetMetricAggregator" style="stroke: #A80036; stroke-width: 1.5;" width="212" x="437.5" y="8"/><ellipse cx="452.5" cy="24" fill="#ADD1B2" rx="11" ry="11" style="stroke: #A80036; stroke-width: 1.0;"/><path d="M455.4688,29.6406 Q454.8906,29.9375 454.25,30.0781 Q453.6094,30.2344 452.9063,30.2344 Q450.4063,30.2344 449.0781,28.5938 Q447.7656,26.9375 447.7656,23.8125 Q447.7656,20.6875 449.0781,19.0313 Q450.4063,17.375 452.9063,17.375 Q453.6094,17.375 454.25,17.5313 Q454.9063,17.6875 455.4688,17.9844 L455.4688,20.7031 Q454.8438,20.125 454.25,19.8594 Q453.6563,19.5781 453.0313,19.5781 Q451.6875,19.5781 451,20.6563 Q450.3125,21.7188 450.3125,23.8125 Q450.3125,25.9063 451,26.9844 Q451.6875,28.0469 453.0313,28.0469 Q453.6563,28.0469 454.25,27.7813 Q454.8438,27.5 455.4688,26.9219 L455.4688,29.6406 Z "/><text fill="#000000" font-family="sans-serif" font-size="12" lengthAdjust="spacingAndGlyphs" textLength="180" x="466.5" y="28.1543">KafkaOffsetMetricAggregator</text><line style="stroke: #A80036; stroke-width: 1.5;" x1="438.5" x2="648.5" y1="40" y2="40"/><line style="stroke: #A80036; stroke-width: 1.5;" x1="438.5" x2="648.5" y1="48" y2="48"/><ellipse cx="448.5" cy="59" fill="#84BE84" rx="3" ry="3" style="stroke: #038048; stroke-width: 1.0;"/><text fill="#000000" font-family="sans-serif" font-size="11" lengthAdjust="spacingAndGlyphs" textLength="40" x="457.5" y="62.2104">name()</text><ellipse cx="448.5" cy="71.8047" fill="#84BE84" rx="3" ry="3" style="stroke: #038048; stroke-width: 1.0;"/><text fill="#000000" font-family="sans-serif" font-size="11" lengthAdjust="spacingAndGlyphs" textLength="71" x="457.5" y="75.0151">description()</text><ellipse cx="448.5" cy="84.6094" fill="#84BE84" rx="3" ry="3" style="stroke: #038048; stroke-width: 1.0;"/><text fill="#000000" font-family="sans-serif" font-size="11" lengthAdjust="spacingAndGlyphs" textLength="134" x="457.5" y="87.8198">aggregateTaskMetrics()</text><!--MD5=[6c3a001f16649f06e2b965fbeb15d800]
class TaskMetric--><rect fill="#FEFECE" filter="url(#fs1pio5ebk6rz)" height="48" id="TaskMetric" style="stroke: #A80036; stroke-width: 1.5;" width="99" x="422" y="154"/><ellipse cx="437" cy="170" fill="#ADD1B2" rx="11" ry="11" style="stroke: #A80036; stroke-width: 1.0;"/><path d="M439.9688,175.6406 Q439.3906,175.9375 438.75,176.0781 Q438.1094,176.2344 437.4063,176.2344 Q434.9063,176.2344 433.5781,174.5938 Q432.2656,172.9375 432.2656,169.8125 Q432.2656,166.6875 433.5781,165.0313 Q434.9063,163.375 437.4063,163.375 Q438.1094,163.375 438.75,163.5313 Q439.4063,163.6875 439.9688,163.9844 L439.9688,166.7031 Q439.3438,166.125 438.75,165.8594 Q438.1563,165.5781 437.5313,165.5781 Q436.1875,165.5781 435.5,166.6563 Q434.8125,167.7188 434.8125,169.8125 Q434.8125,171.9063 435.5,172.9844 Q436.1875,174.0469 437.5313,174.0469 Q438.1563,174.0469 438.75,173.7813 Q439.3438,173.5 439.9688,172.9219 L439.9688,175.6406 Z "/><text fill="#000000" font-family="sans-serif" font-size="12" lengthAdjust="spacingAndGlyphs" textLength="67" x="451" y="174.1543">TaskMetric</text><line style="stroke: #A80036; stroke-width: 1.5;" x1="423" x2="520" y1="186" y2="186"/><line style="stroke: #A80036; stroke-width: 1.5;" x1="423" x2="520" y1="194" y2="194"/><!--MD5=[3809f4cd6c4df9cd6711565da6789b4d]
class CustomMetric--><rect fill="#FEFECE" filter="url(#fs1pio5ebk6rz)" height="48" id="CustomMetric" style="stroke: #A80036; stroke-width: 1.5;" width="117" x="556" y="154"/><ellipse cx="571" cy="170" fill="#ADD1B2" rx="11" ry="11" style="stroke: #A80036; stroke-width: 1.0;"/><path d="M573.9688,175.6406 Q573.3906,175.9375 572.75,176.0781 Q572.1094,176.2344 571.4063,176.2344 Q568.9063,176.2344 567.5781,174.5938 Q566.2656,172.9375 566.2656,169.8125 Q566.2656,166.6875 567.5781,165.0313 Q568.9063,163.375 571.4063,163.375 Q572.1094,163.375 572.75,163.5313 Q573.4063,163.6875 573.9688,163.9844 L573.9688,166.7031 Q573.3438,166.125 572.75,165.8594 Q572.1563,165.5781 571.5313,165.5781 Q570.1875,165.5781 569.5,166.6563 Q568.8125,167.7188 568.8125,169.8125 Q568.8125,171.9063 569.5,172.9844 Q570.1875,174.0469 571.5313,174.0469 Q572.1563,174.0469 572.75,173.7813 Q573.3438,173.5 573.9688,172.9219 L573.9688,175.6406 Z "/><text fill="#000000" font-family="sans-serif" font-size="12" lengthAdjust="spacingAndGlyphs" textLength="85" x="585" y="174.1543">CustomMetric</text><line style="stroke: #A80036; stroke-width: 1.5;" x1="557" x2="672" y1="186" y2="186"/><line style="stroke: #A80036; stroke-width: 1.5;" x1="557" x2="672" y1="194" y2="194"/><path d="M6,8 L6,93.6641 A0,0 0 0 0 6,93.6641 L403,93.6641 A0,0 0 0 0 403,93.6641 L403,55 L437.4,51 L403,47 L403,18 L393,8 L6,8 A0,0 0 0 0 6,8 " fill="#FBFB77" filter="url(#fs1pio5ebk6rz)" style="stroke: #A80036; stroke-width: 1.0;"/><path d="M393,8 L393,18 L403,18 L393,8 " fill="#FBFB77" style="stroke: #A80036; stroke-width: 1.0;"/><text fill="#000000" font-family="sans-serif" font-size="13" lengthAdjust="spacingAndGlyphs" textLength="101" x="12" y="25.0669">Responsibilities:</text><text fill="#000000" font-family="sans-serif" font-size="13" lengthAdjust="spacingAndGlyphs" textLength="376" x="12" y="40.1997">- Aggregates the latest processed Kafka timestamp metric</text><text fill="#000000" font-family="sans-serif" font-size="13" lengthAdjust="spacingAndGlyphs" textLength="0" x="16" y="55.3325"/><text fill="#000000" font-family="sans-serif" font-size="13" lengthAdjust="spacingAndGlyphs" textLength="89" x="12" y="70.4653">Collaborators:</text><text fill="#000000" font-family="sans-serif" font-size="13" lengthAdjust="spacingAndGlyphs" textLength="98" x="12" y="85.5981">- CustomMetric</text><!--MD5=[6c8cf65f15ae1916799e85b1b654f73e]
link KafkaOffsetMetricAggregator to TaskMetric--><path d="M519.12,94.32 C508.68,112.45 496.78,133.11 487.49,149.25 " fill="none" id="KafkaOffsetMetricAggregator-&gt;TaskMetric" style="stroke: #A80036; stroke-width: 1.0;"/><polygon fill="#A80036" points="484.94,153.67,492.8906,147.8573,487.4299,149.3341,485.9531,143.8734,484.94,153.67" style="stroke: #A80036; stroke-width: 1.0;"/><!--MD5=[0d7ad35ca4ee417aab851ae1857b75cc]
link KafkaOffsetMetricAggregator to CustomMetric--><path d="M567.54,94.32 C577.83,112.45 589.57,133.11 598.74,149.25 " fill="none" id="KafkaOffsetMetricAggregator-&gt;CustomMetric" style="stroke: #A80036; stroke-width: 1.0;"/><polygon fill="#A80036" points="601.25,153.67,600.2751,143.8695,598.777,149.3244,593.3221,147.8263,601.25,153.67" style="stroke: #A80036; stroke-width: 1.0;"/><!--MD5=[d7fa74661d542832bc22a597a2d7d6c3]
@startuml inline_umlgraph_7.svg
class KafkaOffsetMetricAggregator {
    + name()
    + description()
    + aggregateTaskMetrics()
}

KafkaOffsetMetricAggregator - -> TaskMetric
KafkaOffsetMetricAggregator - -> CustomMetric

note left of KafkaOffsetMetricAggregator
Responsibilities:
- Aggregates the latest processed Kafka timestamp metric

Collaborators:
- CustomMetric
end note
@enduml

PlantUML version 1.2020.02(Sun Mar 01 10:22:07 UTC 2020)
(GPL source distribution)
Java Runtime: OpenJDK Runtime Environment
JVM: OpenJDK 64-Bit Server VM
Java Version: 1.8.0_292-b10
Operating System: Linux
Default Encoding: UTF-8
Language: en
Country: null
--></g></svg>