<?xml version="1.0" encoding="UTF-8" standalone="no"?><svg xmlns="http://www.w3.org/2000/svg" xmlns:xlink="http://www.w3.org/1999/xlink" contentScriptType="application/ecmascript" contentStyleType="text/css" height="213px" preserveAspectRatio="none" style="width:576px;height:213px;" version="1.1" viewBox="0 0 576 213" width="576px" zoomAndPan="magnify"><defs><filter height="300%" id="f19sfi5t4sv3kz" width="300%" x="-1" y="-1"><feGaussianBlur result="blurOut" stdDeviation="2.0"/><feColorMatrix in="blurOut" result="blurOut2" type="matrix" values="0 0 0 0 0 0 0 0 0 0 0 0 0 0 0 0 0 0 .4 0"/><feOffset dx="4.0" dy="4.0" in="blurOut2" result="blurOut3"/><feBlend in="SourceGraphic" in2="blurOut3" mode="normal"/></filter></defs><g><!--MD5=[13008d130e228bffb3af25d9f9327b2c]
class AuditConfig--><rect fill="#FEFECE" filter="url(#f19sfi5t4sv3kz)" height="48" id="AuditConfig" style="stroke: #A80036; stroke-width: 1.5;" width="103" x="6" y="27"/><ellipse cx="21" cy="43" fill="#ADD1B2" rx="11" ry="11" style="stroke: #A80036; stroke-width: 1.0;"/><path d="M23.9688,48.6406 Q23.3906,48.9375 22.75,49.0781 Q22.1094,49.2344 21.4063,49.2344 Q18.9063,49.2344 17.5781,47.5938 Q16.2656,45.9375 16.2656,42.8125 Q16.2656,39.6875 17.5781,38.0313 Q18.9063,36.375 21.4063,36.375 Q22.1094,36.375 22.75,36.5313 Q23.4063,36.6875 23.9688,36.9844 L23.9688,39.7031 Q23.3438,39.125 22.75,38.8594 Q22.1563,38.5781 21.5313,38.5781 Q20.1875,38.5781 19.5,39.6563 Q18.8125,40.7188 18.8125,42.8125 Q18.8125,44.9063 19.5,45.9844 Q20.1875,47.0469 21.5313,47.0469 Q22.1563,47.0469 22.75,46.7813 Q23.3438,46.5 23.9688,45.9219 L23.9688,48.6406 Z "/><text fill="#000000" font-family="sans-serif" font-size="12" lengthAdjust="spacingAndGlyphs" textLength="71" x="35" y="47.1543">AuditConfig</text><line style="stroke: #A80036; stroke-width: 1.5;" x1="7" x2="108" y1="59" y2="59"/><line style="stroke: #A80036; stroke-width: 1.5;" x1="7" x2="108" y1="67" y2="67"/><!--MD5=[8be92826835b67a7c76e165e77daf5d2]
class BatchConfig--><rect fill="#FEFECE" filter="url(#f19sfi5t4sv3kz)" height="48" id="BatchConfig" style="stroke: #A80036; stroke-width: 1.5;" width="107" x="458" y="27"/><ellipse cx="473" cy="43" fill="#ADD1B2" rx="11" ry="11" style="stroke: #A80036; stroke-width: 1.0;"/><path d="M475.9688,48.6406 Q475.3906,48.9375 474.75,49.0781 Q474.1094,49.2344 473.4063,49.2344 Q470.9063,49.2344 469.5781,47.5938 Q468.2656,45.9375 468.2656,42.8125 Q468.2656,39.6875 469.5781,38.0313 Q470.9063,36.375 473.4063,36.375 Q474.1094,36.375 474.75,36.5313 Q475.4063,36.6875 475.9688,36.9844 L475.9688,39.7031 Q475.3438,39.125 474.75,38.8594 Q474.1563,38.5781 473.5313,38.5781 Q472.1875,38.5781 471.5,39.6563 Q470.8125,40.7188 470.8125,42.8125 Q470.8125,44.9063 471.5,45.9844 Q472.1875,47.0469 473.5313,47.0469 Q474.1563,47.0469 474.75,46.7813 Q475.3438,46.5 475.9688,45.9219 L475.9688,48.6406 Z "/><text fill="#000000" font-family="sans-serif" font-size="12" lengthAdjust="spacingAndGlyphs" textLength="75" x="487" y="47.1543">BatchConfig</text><line style="stroke: #A80036; stroke-width: 1.5;" x1="459" x2="564" y1="59" y2="59"/><line style="stroke: #A80036; stroke-width: 1.5;" x1="459" x2="564" y1="67" y2="67"/><!--MD5=[4bf8aff396996fef456cd268939daa24]
class Config--><rect fill="#FEFECE" filter="url(#f19sfi5t4sv3kz)" height="48" id="Config" style="stroke: #A80036; stroke-width: 1.5;" width="71" x="476" y="154"/><ellipse cx="491" cy="170" fill="#ADD1B2" rx="11" ry="11" style="stroke: #A80036; stroke-width: 1.0;"/><path d="M493.9688,175.6406 Q493.3906,175.9375 492.75,176.0781 Q492.1094,176.2344 491.4063,176.2344 Q488.9063,176.2344 487.5781,174.5938 Q486.2656,172.9375 486.2656,169.8125 Q486.2656,166.6875 487.5781,165.0313 Q488.9063,163.375 491.4063,163.375 Q492.1094,163.375 492.75,163.5313 Q493.4063,163.6875 493.9688,163.9844 L493.9688,166.7031 Q493.3438,166.125 492.75,165.8594 Q492.1563,165.5781 491.5313,165.5781 Q490.1875,165.5781 489.5,166.6563 Q488.8125,167.7188 488.8125,169.8125 Q488.8125,171.9063 489.5,172.9844 Q490.1875,174.0469 491.5313,174.0469 Q492.1563,174.0469 492.75,173.7813 Q493.3438,173.5 493.9688,172.9219 L493.9688,175.6406 Z "/><text fill="#000000" font-family="sans-serif" font-size="12" lengthAdjust="spacingAndGlyphs" textLength="39" x="505" y="174.1543">Config</text><line style="stroke: #A80036; stroke-width: 1.5;" x1="477" x2="546" y1="186" y2="186"/><line style="stroke: #A80036; stroke-width: 1.5;" x1="477" x2="546" y1="194" y2="194"/><path d="M144.5,8 L144.5,47 L109.14,51 L144.5,55 L144.5,93.6641 A0,0 0 0 0 144.5,93.6641 L422.5,93.6641 A0,0 0 0 0 422.5,93.6641 L422.5,18 L412.5,8 L144.5,8 A0,0 0 0 0 144.5,8 " fill="#FBFB77" filter="url(#f19sfi5t4sv3kz)" style="stroke: #A80036; stroke-width: 1.0;"/><path d="M412.5,8 L412.5,18 L422.5,18 L412.5,8 " fill="#FBFB77" style="stroke: #A80036; stroke-width: 1.0;"/><text fill="#000000" font-family="sans-serif" font-size="13" lengthAdjust="spacingAndGlyphs" textLength="101" x="150.5" y="25.0669">Responsibilities:</text><text fill="#000000" font-family="sans-serif" font-size="13" lengthAdjust="spacingAndGlyphs" textLength="257" x="150.5" y="40.1997">- holds configuration related to the audit</text><text fill="#000000" font-family="sans-serif" font-size="13" lengthAdjust="spacingAndGlyphs" textLength="0" x="154.5" y="55.3325"/><text fill="#000000" font-family="sans-serif" font-size="13" lengthAdjust="spacingAndGlyphs" textLength="89" x="150.5" y="70.4653">Collaborators:</text><text fill="#000000" font-family="sans-serif" font-size="13" lengthAdjust="spacingAndGlyphs" textLength="49" x="150.5" y="85.5981">- Config</text><!--MD5=[f18a2e786266c47de83541644b0531f8]
link BatchConfig to Config--><path d="M511.5,75.22 C511.5,96 511.5,126.54 511.5,148.74 " fill="none" id="BatchConfig-&gt;Config" style="stroke: #A80036; stroke-width: 1.0;"/><polygon fill="#A80036" points="511.5,153.91,515.5,144.91,511.5,148.91,507.5,144.91,511.5,153.91" style="stroke: #A80036; stroke-width: 1.0;"/><!--MD5=[7ad8508857b93173aa9ff41a95ae1e93]
@startuml inline_umlgraph_2.svg
class AuditConfig {

}

BatchConfig - -> Config

note right of AuditConfig
Responsibilities:
- holds configuration related to the audit

Collaborators:
- Config
end note
@enduml

PlantUML version 1.2020.02(Sun Mar 01 10:22:07 UTC 2020)
(GPL source distribution)
Java Runtime: OpenJDK Runtime Environment
JVM: OpenJDK 64-Bit Server VM
Java Version: 1.8.0_292-b10
Operating System: Linux
Default Encoding: UTF-8
Language: en
Country: null
--></g></svg>