<?xml version="1.0" encoding="UTF-8" standalone="no"?><svg xmlns="http://www.w3.org/2000/svg" xmlns:xlink="http://www.w3.org/1999/xlink" contentScriptType="application/ecmascript" contentStyleType="text/css" height="290px" preserveAspectRatio="none" style="width:1542px;height:290px;" version="1.1" viewBox="0 0 1542 290" width="1542px" zoomAndPan="magnify"><defs><filter height="300%" id="f1oqixzommhoxh" width="300%" x="-1" y="-1"><feGaussianBlur result="blurOut" stdDeviation="2.0"/><feColorMatrix in="blurOut" result="blurOut2" type="matrix" values="0 0 0 0 0 0 0 0 0 0 0 0 0 0 0 0 0 0 .4 0"/><feOffset dx="4.0" dy="4.0" in="blurOut2" result="blurOut3"/><feBlend in="SourceGraphic" in2="blurOut3" mode="normal"/></filter></defs><g><!--MD5=[4bf8aff396996fef456cd268939daa24]
class Config--><rect fill="#FEFECE" filter="url(#f1oqixzommhoxh)" height="48" id="Config" style="stroke: #A80036; stroke-width: 1.5;" width="71" x="739.5" y="57"/><ellipse cx="754.5" cy="73" fill="#ADD1B2" rx="11" ry="11" style="stroke: #A80036; stroke-width: 1.0;"/><path d="M757.4688,78.6406 Q756.8906,78.9375 756.25,79.0781 Q755.6094,79.2344 754.9063,79.2344 Q752.4063,79.2344 751.0781,77.5938 Q749.7656,75.9375 749.7656,72.8125 Q749.7656,69.6875 751.0781,68.0313 Q752.4063,66.375 754.9063,66.375 Q755.6094,66.375 756.25,66.5313 Q756.9063,66.6875 757.4688,66.9844 L757.4688,69.7031 Q756.8438,69.125 756.25,68.8594 Q755.6563,68.5781 755.0313,68.5781 Q753.6875,68.5781 753,69.6563 Q752.3125,70.7188 752.3125,72.8125 Q752.3125,74.9063 753,75.9844 Q753.6875,77.0469 755.0313,77.0469 Q755.6563,77.0469 756.25,76.7813 Q756.8438,76.5 757.4688,75.9219 L757.4688,78.6406 Z "/><text fill="#000000" font-family="sans-serif" font-size="12" lengthAdjust="spacingAndGlyphs" textLength="39" x="768.5" y="77.1543">Config</text><line style="stroke: #A80036; stroke-width: 1.5;" x1="740.5" x2="809.5" y1="89" y2="89"/><line style="stroke: #A80036; stroke-width: 1.5;" x1="740.5" x2="809.5" y1="97" y2="97"/><!--MD5=[775b918ad6fa0562d5d4c268d5c6b05b]
class ArchiveConfig--><rect fill="#FEFECE" filter="url(#f1oqixzommhoxh)" height="48" id="ArchiveConfig" style="stroke: #A80036; stroke-width: 1.5;" width="116" x="6" y="231"/><ellipse cx="21" cy="247" fill="#ADD1B2" rx="11" ry="11" style="stroke: #A80036; stroke-width: 1.0;"/><path d="M23.9688,252.6406 Q23.3906,252.9375 22.75,253.0781 Q22.1094,253.2344 21.4063,253.2344 Q18.9063,253.2344 17.5781,251.5938 Q16.2656,249.9375 16.2656,246.8125 Q16.2656,243.6875 17.5781,242.0313 Q18.9063,240.375 21.4063,240.375 Q22.1094,240.375 22.75,240.5313 Q23.4063,240.6875 23.9688,240.9844 L23.9688,243.7031 Q23.3438,243.125 22.75,242.8594 Q22.1563,242.5781 21.5313,242.5781 Q20.1875,242.5781 19.5,243.6563 Q18.8125,244.7188 18.8125,246.8125 Q18.8125,248.9063 19.5,249.9844 Q20.1875,251.0469 21.5313,251.0469 Q22.1563,251.0469 22.75,250.7813 Q23.3438,250.5 23.9688,249.9219 L23.9688,252.6406 Z "/><text fill="#000000" font-family="sans-serif" font-size="12" lengthAdjust="spacingAndGlyphs" textLength="84" x="35" y="251.1543">ArchiveConfig</text><line style="stroke: #A80036; stroke-width: 1.5;" x1="7" x2="121" y1="263" y2="263"/><line style="stroke: #A80036; stroke-width: 1.5;" x1="7" x2="121" y1="271" y2="271"/><!--MD5=[13008d130e228bffb3af25d9f9327b2c]
class AuditConfig--><rect fill="#FEFECE" filter="url(#f1oqixzommhoxh)" height="48" id="AuditConfig" style="stroke: #A80036; stroke-width: 1.5;" width="103" x="457.5" y="231"/><ellipse cx="472.5" cy="247" fill="#ADD1B2" rx="11" ry="11" style="stroke: #A80036; stroke-width: 1.0;"/><path d="M475.4688,252.6406 Q474.8906,252.9375 474.25,253.0781 Q473.6094,253.2344 472.9063,253.2344 Q470.4063,253.2344 469.0781,251.5938 Q467.7656,249.9375 467.7656,246.8125 Q467.7656,243.6875 469.0781,242.0313 Q470.4063,240.375 472.9063,240.375 Q473.6094,240.375 474.25,240.5313 Q474.9063,240.6875 475.4688,240.9844 L475.4688,243.7031 Q474.8438,243.125 474.25,242.8594 Q473.6563,242.5781 473.0313,242.5781 Q471.6875,242.5781 471,243.6563 Q470.3125,244.7188 470.3125,246.8125 Q470.3125,248.9063 471,249.9844 Q471.6875,251.0469 473.0313,251.0469 Q473.6563,251.0469 474.25,250.7813 Q474.8438,250.5 475.4688,249.9219 L475.4688,252.6406 Z "/><text fill="#000000" font-family="sans-serif" font-size="12" lengthAdjust="spacingAndGlyphs" textLength="71" x="486.5" y="251.1543">AuditConfig</text><line style="stroke: #A80036; stroke-width: 1.5;" x1="458.5" x2="559.5" y1="263" y2="263"/><line style="stroke: #A80036; stroke-width: 1.5;" x1="458.5" x2="559.5" y1="271" y2="271"/><!--MD5=[8be92826835b67a7c76e165e77daf5d2]
class BatchConfig--><rect fill="#FEFECE" filter="url(#f1oqixzommhoxh)" height="48" id="BatchConfig" style="stroke: #A80036; stroke-width: 1.5;" width="107" x="721.5" y="231"/><ellipse cx="736.5" cy="247" fill="#ADD1B2" rx="11" ry="11" style="stroke: #A80036; stroke-width: 1.0;"/><path d="M739.4688,252.6406 Q738.8906,252.9375 738.25,253.0781 Q737.6094,253.2344 736.9063,253.2344 Q734.4063,253.2344 733.0781,251.5938 Q731.7656,249.9375 731.7656,246.8125 Q731.7656,243.6875 733.0781,242.0313 Q734.4063,240.375 736.9063,240.375 Q737.6094,240.375 738.25,240.5313 Q738.9063,240.6875 739.4688,240.9844 L739.4688,243.7031 Q738.8438,243.125 738.25,242.8594 Q737.6563,242.5781 737.0313,242.5781 Q735.6875,242.5781 735,243.6563 Q734.3125,244.7188 734.3125,246.8125 Q734.3125,248.9063 735,249.9844 Q735.6875,251.0469 737.0313,251.0469 Q737.6563,251.0469 738.25,250.7813 Q738.8438,250.5 739.4688,249.9219 L739.4688,252.6406 Z "/><text fill="#000000" font-family="sans-serif" font-size="12" lengthAdjust="spacingAndGlyphs" textLength="75" x="750.5" y="251.1543">BatchConfig</text><line style="stroke: #A80036; stroke-width: 1.5;" x1="722.5" x2="827.5" y1="263" y2="263"/><line style="stroke: #A80036; stroke-width: 1.5;" x1="722.5" x2="827.5" y1="271" y2="271"/><!--MD5=[9b465d90e5c208169cc04f51ef3ed809]
class ConditionConfig--><rect fill="#FEFECE" filter="url(#f1oqixzommhoxh)" height="48" id="ConditionConfig" style="stroke: #A80036; stroke-width: 1.5;" width="130" x="980" y="231"/><ellipse cx="995" cy="247" fill="#ADD1B2" rx="11" ry="11" style="stroke: #A80036; stroke-width: 1.0;"/><path d="M997.9688,252.6406 Q997.3906,252.9375 996.75,253.0781 Q996.1094,253.2344 995.4063,253.2344 Q992.9063,253.2344 991.5781,251.5938 Q990.2656,249.9375 990.2656,246.8125 Q990.2656,243.6875 991.5781,242.0313 Q992.9063,240.375 995.4063,240.375 Q996.1094,240.375 996.75,240.5313 Q997.4063,240.6875 997.9688,240.9844 L997.9688,243.7031 Q997.3438,243.125 996.75,242.8594 Q996.1563,242.5781 995.5313,242.5781 Q994.1875,242.5781 993.5,243.6563 Q992.8125,244.7188 992.8125,246.8125 Q992.8125,248.9063 993.5,249.9844 Q994.1875,251.0469 995.5313,251.0469 Q996.1563,251.0469 996.75,250.7813 Q997.3438,250.5 997.9688,249.9219 L997.9688,252.6406 Z "/><text fill="#000000" font-family="sans-serif" font-size="12" lengthAdjust="spacingAndGlyphs" textLength="98" x="1009" y="251.1543">ConditionConfig</text><line style="stroke: #A80036; stroke-width: 1.5;" x1="981" x2="1109" y1="263" y2="263"/><line style="stroke: #A80036; stroke-width: 1.5;" x1="981" x2="1109" y1="271" y2="271"/><!--MD5=[9e98628906fd6954bbaaa8256748fd76]
class KafkaConfig--><rect fill="#FEFECE" filter="url(#f1oqixzommhoxh)" height="48" id="KafkaConfig" style="stroke: #A80036; stroke-width: 1.5;" width="105" x="1284.5" y="231"/><ellipse cx="1299.5" cy="247" fill="#ADD1B2" rx="11" ry="11" style="stroke: #A80036; stroke-width: 1.0;"/><path d="M1302.4688,252.6406 Q1301.8906,252.9375 1301.25,253.0781 Q1300.6094,253.2344 1299.9063,253.2344 Q1297.4063,253.2344 1296.0781,251.5938 Q1294.7656,249.9375 1294.7656,246.8125 Q1294.7656,243.6875 1296.0781,242.0313 Q1297.4063,240.375 1299.9063,240.375 Q1300.6094,240.375 1301.25,240.5313 Q1301.9063,240.6875 1302.4688,240.9844 L1302.4688,243.7031 Q1301.8438,243.125 1301.25,242.8594 Q1300.6563,242.5781 1300.0313,242.5781 Q1298.6875,242.5781 1298,243.6563 Q1297.3125,244.7188 1297.3125,246.8125 Q1297.3125,248.9063 1298,249.9844 Q1298.6875,251.0469 1300.0313,251.0469 Q1300.6563,251.0469 1301.25,250.7813 Q1301.8438,250.5 1302.4688,249.9219 L1302.4688,252.6406 Z "/><text fill="#000000" font-family="sans-serif" font-size="12" lengthAdjust="spacingAndGlyphs" textLength="73" x="1313.5" y="251.1543">KafkaConfig</text><line style="stroke: #A80036; stroke-width: 1.5;" x1="1285.5" x2="1388.5" y1="263" y2="263"/><line style="stroke: #A80036; stroke-width: 1.5;" x1="1285.5" x2="1388.5" y1="271" y2="271"/><path d="M845.5,8 L845.5,77 L810.73,81 L845.5,85 L845.5,154.1953 A0,0 0 0 0 845.5,154.1953 L1242.5,154.1953 A0,0 0 0 0 1242.5,154.1953 L1242.5,18 L1232.5,8 L845.5,8 A0,0 0 0 0 845.5,8 " fill="#FBFB77" filter="url(#f1oqixzommhoxh)" style="stroke: #A80036; stroke-width: 1.0;"/><path d="M1232.5,8 L1232.5,18 L1242.5,18 L1232.5,8 " fill="#FBFB77" style="stroke: #A80036; stroke-width: 1.0;"/><text fill="#000000" font-family="sans-serif" font-size="13" lengthAdjust="spacingAndGlyphs" textLength="101" x="851.5" y="25.0669">Responsibilities:</text><text fill="#000000" font-family="sans-serif" font-size="13" lengthAdjust="spacingAndGlyphs" textLength="376" x="851.5" y="40.1997">- creates the general configuration objects for the program</text><text fill="#000000" font-family="sans-serif" font-size="13" lengthAdjust="spacingAndGlyphs" textLength="0" x="855.5" y="55.3325"/><text fill="#000000" font-family="sans-serif" font-size="13" lengthAdjust="spacingAndGlyphs" textLength="89" x="851.5" y="70.4653">Collaborators:</text><text fill="#000000" font-family="sans-serif" font-size="13" lengthAdjust="spacingAndGlyphs" textLength="96" x="851.5" y="85.5981">- ArchiveConfig</text><text fill="#000000" font-family="sans-serif" font-size="13" lengthAdjust="spacingAndGlyphs" textLength="82" x="851.5" y="100.731">- AuditConfig</text><text fill="#000000" font-family="sans-serif" font-size="13" lengthAdjust="spacingAndGlyphs" textLength="86" x="851.5" y="115.8638">- BatchConfig</text><text fill="#000000" font-family="sans-serif" font-size="13" lengthAdjust="spacingAndGlyphs" textLength="109" x="851.5" y="130.9966">- ConditionConfig</text><text fill="#000000" font-family="sans-serif" font-size="13" lengthAdjust="spacingAndGlyphs" textLength="84" x="851.5" y="146.1294">- KafkaConfig</text><path d="M157.5,235 L157.5,251 L122.27,255 L157.5,259 L157.5,275.2656 A0,0 0 0 0 157.5,275.2656 L422.5,275.2656 A0,0 0 0 0 422.5,275.2656 L422.5,245 L412.5,235 L157.5,235 A0,0 0 0 0 157.5,235 " fill="#FBFB77" filter="url(#f1oqixzommhoxh)" style="stroke: #A80036; stroke-width: 1.0;"/><path d="M412.5,235 L412.5,245 L422.5,245 L412.5,235 " fill="#FBFB77" style="stroke: #A80036; stroke-width: 1.0;"/><text fill="#000000" font-family="sans-serif" font-size="13" lengthAdjust="spacingAndGlyphs" textLength="101" x="163.5" y="252.0669">Responsibilities:</text><text fill="#000000" font-family="sans-serif" font-size="13" lengthAdjust="spacingAndGlyphs" textLength="244" x="163.5" y="267.1997">- Stores archive related configurations</text><!--MD5=[997948453adb99036253c1beeedc4911]
link Config to ArchiveConfig--><path d="M739.43,87.87 C657.4,101.71 448.92,138.66 278,184 C226.52,197.65 169.22,216.6 126.88,231.34 " fill="none" id="Config-&gt;ArchiveConfig" style="stroke: #A80036; stroke-width: 1.0;"/><polygon fill="#A80036" points="122.05,233.03,131.8672,233.819,126.7671,231.3719,129.2142,226.2717,122.05,233.03" style="stroke: #A80036; stroke-width: 1.0;"/><text fill="#000000" font-family="sans-serif" font-size="13" lengthAdjust="spacingAndGlyphs" textLength="238" x="279" y="197.0669">Passes archive related configurations</text><!--MD5=[0ca2c7f5d0843ec8dbdee78c5450736a]
link Config to AuditConfig--><path d="M739.28,88.55 C688.27,99.64 594.47,126.76 538,184 C526.81,195.34 519.72,211.62 515.35,225.63 " fill="none" id="Config-&gt;AuditConfig" style="stroke: #A80036; stroke-width: 1.0;"/><polygon fill="#A80036" points="513.86,230.67,520.2467,223.1726,515.277,225.875,512.5747,220.9054,513.86,230.67" style="stroke: #A80036; stroke-width: 1.0;"/><text fill="#000000" font-family="sans-serif" font-size="13" lengthAdjust="spacingAndGlyphs" textLength="224" x="539" y="197.0669">Passes audit related configurations</text><!--MD5=[55e14b8b91cd49f7fbd16b0b4e0d6546]
link Config to BatchConfig--><path d="M773.68,105.26 C772.49,129.25 771.06,167.74 772,201 C772.22,208.93 772.64,217.53 773.09,225.44 " fill="none" id="Config-&gt;BatchConfig" style="stroke: #A80036; stroke-width: 1.0;"/><polygon fill="#A80036" points="773.4,230.79,776.8785,221.5759,773.1139,225.7982,768.8916,222.0336,773.4,230.79" style="stroke: #A80036; stroke-width: 1.0;"/><text fill="#000000" font-family="sans-serif" font-size="13" lengthAdjust="spacingAndGlyphs" textLength="228" x="773" y="197.0669">Passes batch related configurations</text><!--MD5=[f0d3192e29975e76dd501fda7a0a6dba]
link Config to ConditionConfig--><path d="M786,105.25 C794.97,121.56 809.23,142.45 828,154 C896.33,196.04 940.46,137.73 1006,184 C1020.29,194.09 1029.96,211.17 1036.09,225.92 " fill="none" id="Config-&gt;ConditionConfig" style="stroke: #A80036; stroke-width: 1.0;"/><polygon fill="#A80036" points="1038.03,230.83,1038.4379,220.9896,1036.1903,226.1808,1030.9991,223.9332,1038.03,230.83" style="stroke: #A80036; stroke-width: 1.0;"/><text fill="#000000" font-family="sans-serif" font-size="13" lengthAdjust="spacingAndGlyphs" textLength="250" x="1024" y="197.0669">Passes condition related configurations</text><!--MD5=[a802c916d58fa30121804093689095c9]
link Config to KafkaConfig--><path d="M785.3,105.12 C794.08,121.82 808.4,143.26 828,154 C916.88,202.67 1193.58,136.33 1283,184 C1300.43,193.29 1313.98,210.93 1323.15,226.18 " fill="none" id="Config-&gt;KafkaConfig" style="stroke: #A80036; stroke-width: 1.0;"/><polygon fill="#A80036" points="1325.85,230.82,1324.7743,221.0301,1323.3324,226.5001,1317.8624,225.0582,1325.85,230.82" style="stroke: #A80036; stroke-width: 1.0;"/><text fill="#000000" font-family="sans-serif" font-size="13" lengthAdjust="spacingAndGlyphs" textLength="226" x="1304" y="197.0669">Passes kafka related configurations</text><!--MD5=[049aaf8da34c5874c506e33ae09c298c]
@startuml inline_umlgraph_5.svg
class Config {

}

Config - -> ArchiveConfig : Passes archive related configurations
Config - -> AuditConfig : Passes audit related configurations
Config - -> BatchConfig : Passes batch related configurations
Config - -> ConditionConfig : Passes condition related configurations
Config - -> KafkaConfig : Passes kafka related configurations

note right of Config
Responsibilities:
- creates the general configuration objects for the program

Collaborators:
- ArchiveConfig
- AuditConfig
- BatchConfig
- ConditionConfig
- KafkaConfig
endnote

note right of ArchiveConfig
Responsibilities:
- Stores archive related configurations
endnote
@enduml

PlantUML version 1.2020.02(Sun Mar 01 10:22:07 UTC 2020)
(GPL source distribution)
Java Runtime: OpenJDK Runtime Environment
JVM: OpenJDK 64-Bit Server VM
Java Version: 1.8.0_292-b10
Operating System: Linux
Default Encoding: UTF-8
Language: en
Country: null
--></g></svg>