<?xml version="1.0" encoding="UTF-8" standalone="no"?><svg xmlns="http://www.w3.org/2000/svg" xmlns:xlink="http://www.w3.org/1999/xlink" contentScriptType="application/ecmascript" contentStyleType="text/css" height="392px" preserveAspectRatio="none" style="width:1671px;height:392px;" version="1.1" viewBox="0 0 1671 392" width="1671px" zoomAndPan="magnify"><defs><filter height="300%" id="fkbh9go424jv3" width="300%" x="-1" y="-1"><feGaussianBlur result="blurOut" stdDeviation="2.0"/><feColorMatrix in="blurOut" result="blurOut2" type="matrix" values="0 0 0 0 0 0 0 0 0 0 0 0 0 0 0 0 0 0 .4 0"/><feOffset dx="4.0" dy="4.0" in="blurOut2" result="blurOut3"/><feBlend in="SourceGraphic" in2="blurOut3" mode="normal"/></filter></defs><g><!--MD5=[4bf8aff396996fef456cd268939daa24]
class Config--><rect fill="#FEFECE" filter="url(#fkbh9go424jv3)" height="48" id="Config" style="stroke: #A80036; stroke-width: 1.5;" width="71" x="730" y="57"/><ellipse cx="745" cy="73" fill="#ADD1B2" rx="11" ry="11" style="stroke: #A80036; stroke-width: 1.0;"/><path d="M747.9688,78.6406 Q747.3906,78.9375 746.75,79.0781 Q746.1094,79.2344 745.4063,79.2344 Q742.9063,79.2344 741.5781,77.5938 Q740.2656,75.9375 740.2656,72.8125 Q740.2656,69.6875 741.5781,68.0313 Q742.9063,66.375 745.4063,66.375 Q746.1094,66.375 746.75,66.5313 Q747.4063,66.6875 747.9688,66.9844 L747.9688,69.7031 Q747.3438,69.125 746.75,68.8594 Q746.1563,68.5781 745.5313,68.5781 Q744.1875,68.5781 743.5,69.6563 Q742.8125,70.7188 742.8125,72.8125 Q742.8125,74.9063 743.5,75.9844 Q744.1875,77.0469 745.5313,77.0469 Q746.1563,77.0469 746.75,76.7813 Q747.3438,76.5 747.9688,75.9219 L747.9688,78.6406 Z "/><text fill="#000000" font-family="sans-serif" font-size="12" lengthAdjust="spacingAndGlyphs" textLength="39" x="759" y="77.1543">Config</text><line style="stroke: #A80036; stroke-width: 1.5;" x1="731" x2="800" y1="89" y2="89"/><line style="stroke: #A80036; stroke-width: 1.5;" x1="731" x2="800" y1="97" y2="97"/><!--MD5=[775b918ad6fa0562d5d4c268d5c6b05b]
class ArchiveConfig--><rect fill="#FEFECE" filter="url(#fkbh9go424jv3)" height="48" id="ArchiveConfig" style="stroke: #A80036; stroke-width: 1.5;" width="116" x="91.5" y="231"/><ellipse cx="106.5" cy="247" fill="#ADD1B2" rx="11" ry="11" style="stroke: #A80036; stroke-width: 1.0;"/><path d="M109.4688,252.6406 Q108.8906,252.9375 108.25,253.0781 Q107.6094,253.2344 106.9063,253.2344 Q104.4063,253.2344 103.0781,251.5938 Q101.7656,249.9375 101.7656,246.8125 Q101.7656,243.6875 103.0781,242.0313 Q104.4063,240.375 106.9063,240.375 Q107.6094,240.375 108.25,240.5313 Q108.9063,240.6875 109.4688,240.9844 L109.4688,243.7031 Q108.8438,243.125 108.25,242.8594 Q107.6563,242.5781 107.0313,242.5781 Q105.6875,242.5781 105,243.6563 Q104.3125,244.7188 104.3125,246.8125 Q104.3125,248.9063 105,249.9844 Q105.6875,251.0469 107.0313,251.0469 Q107.6563,251.0469 108.25,250.7813 Q108.8438,250.5 109.4688,249.9219 L109.4688,252.6406 Z "/><text fill="#000000" font-family="sans-serif" font-size="12" lengthAdjust="spacingAndGlyphs" textLength="84" x="120.5" y="251.1543">ArchiveConfig</text><line style="stroke: #A80036; stroke-width: 1.5;" x1="92.5" x2="206.5" y1="263" y2="263"/><line style="stroke: #A80036; stroke-width: 1.5;" x1="92.5" x2="206.5" y1="271" y2="271"/><!--MD5=[13008d130e228bffb3af25d9f9327b2c]
class AuditConfig--><rect fill="#FEFECE" filter="url(#fkbh9go424jv3)" height="48" id="AuditConfig" style="stroke: #A80036; stroke-width: 1.5;" width="103" x="416" y="231"/><ellipse cx="431" cy="247" fill="#ADD1B2" rx="11" ry="11" style="stroke: #A80036; stroke-width: 1.0;"/><path d="M433.9688,252.6406 Q433.3906,252.9375 432.75,253.0781 Q432.1094,253.2344 431.4063,253.2344 Q428.9063,253.2344 427.5781,251.5938 Q426.2656,249.9375 426.2656,246.8125 Q426.2656,243.6875 427.5781,242.0313 Q428.9063,240.375 431.4063,240.375 Q432.1094,240.375 432.75,240.5313 Q433.4063,240.6875 433.9688,240.9844 L433.9688,243.7031 Q433.3438,243.125 432.75,242.8594 Q432.1563,242.5781 431.5313,242.5781 Q430.1875,242.5781 429.5,243.6563 Q428.8125,244.7188 428.8125,246.8125 Q428.8125,248.9063 429.5,249.9844 Q430.1875,251.0469 431.5313,251.0469 Q432.1563,251.0469 432.75,250.7813 Q433.3438,250.5 433.9688,249.9219 L433.9688,252.6406 Z "/><text fill="#000000" font-family="sans-serif" font-size="12" lengthAdjust="spacingAndGlyphs" textLength="71" x="445" y="251.1543">AuditConfig</text><line style="stroke: #A80036; stroke-width: 1.5;" x1="417" x2="518" y1="263" y2="263"/><line style="stroke: #A80036; stroke-width: 1.5;" x1="417" x2="518" y1="271" y2="271"/><!--MD5=[8be92826835b67a7c76e165e77daf5d2]
class BatchConfig--><rect fill="#FEFECE" filter="url(#fkbh9go424jv3)" height="48" id="BatchConfig" style="stroke: #A80036; stroke-width: 1.5;" width="107" x="712" y="231"/><ellipse cx="727" cy="247" fill="#ADD1B2" rx="11" ry="11" style="stroke: #A80036; stroke-width: 1.0;"/><path d="M729.9688,252.6406 Q729.3906,252.9375 728.75,253.0781 Q728.1094,253.2344 727.4063,253.2344 Q724.9063,253.2344 723.5781,251.5938 Q722.2656,249.9375 722.2656,246.8125 Q722.2656,243.6875 723.5781,242.0313 Q724.9063,240.375 727.4063,240.375 Q728.1094,240.375 728.75,240.5313 Q729.4063,240.6875 729.9688,240.9844 L729.9688,243.7031 Q729.3438,243.125 728.75,242.8594 Q728.1563,242.5781 727.5313,242.5781 Q726.1875,242.5781 725.5,243.6563 Q724.8125,244.7188 724.8125,246.8125 Q724.8125,248.9063 725.5,249.9844 Q726.1875,251.0469 727.5313,251.0469 Q728.1563,251.0469 728.75,250.7813 Q729.3438,250.5 729.9688,249.9219 L729.9688,252.6406 Z "/><text fill="#000000" font-family="sans-serif" font-size="12" lengthAdjust="spacingAndGlyphs" textLength="75" x="741" y="251.1543">BatchConfig</text><line style="stroke: #A80036; stroke-width: 1.5;" x1="713" x2="818" y1="263" y2="263"/><line style="stroke: #A80036; stroke-width: 1.5;" x1="713" x2="818" y1="271" y2="271"/><!--MD5=[9b465d90e5c208169cc04f51ef3ed809]
class ConditionConfig--><rect fill="#FEFECE" filter="url(#fkbh9go424jv3)" height="48" id="ConditionConfig" style="stroke: #A80036; stroke-width: 1.5;" width="130" x="1016.5" y="231"/><ellipse cx="1031.5" cy="247" fill="#ADD1B2" rx="11" ry="11" style="stroke: #A80036; stroke-width: 1.0;"/><path d="M1034.4688,252.6406 Q1033.8906,252.9375 1033.25,253.0781 Q1032.6094,253.2344 1031.9063,253.2344 Q1029.4063,253.2344 1028.0781,251.5938 Q1026.7656,249.9375 1026.7656,246.8125 Q1026.7656,243.6875 1028.0781,242.0313 Q1029.4063,240.375 1031.9063,240.375 Q1032.6094,240.375 1033.25,240.5313 Q1033.9063,240.6875 1034.4688,240.9844 L1034.4688,243.7031 Q1033.8438,243.125 1033.25,242.8594 Q1032.6563,242.5781 1032.0313,242.5781 Q1030.6875,242.5781 1030,243.6563 Q1029.3125,244.7188 1029.3125,246.8125 Q1029.3125,248.9063 1030,249.9844 Q1030.6875,251.0469 1032.0313,251.0469 Q1032.6563,251.0469 1033.25,250.7813 Q1033.8438,250.5 1034.4688,249.9219 L1034.4688,252.6406 Z "/><text fill="#000000" font-family="sans-serif" font-size="12" lengthAdjust="spacingAndGlyphs" textLength="98" x="1045.5" y="251.1543">ConditionConfig</text><line style="stroke: #A80036; stroke-width: 1.5;" x1="1017.5" x2="1145.5" y1="263" y2="263"/><line style="stroke: #A80036; stroke-width: 1.5;" x1="1017.5" x2="1145.5" y1="271" y2="271"/><!--MD5=[9e98628906fd6954bbaaa8256748fd76]
class KafkaConfig--><rect fill="#FEFECE" filter="url(#fkbh9go424jv3)" height="48" id="KafkaConfig" style="stroke: #A80036; stroke-width: 1.5;" width="105" x="1373" y="231"/><ellipse cx="1388" cy="247" fill="#ADD1B2" rx="11" ry="11" style="stroke: #A80036; stroke-width: 1.0;"/><path d="M1390.9688,252.6406 Q1390.3906,252.9375 1389.75,253.0781 Q1389.1094,253.2344 1388.4063,253.2344 Q1385.9063,253.2344 1384.5781,251.5938 Q1383.2656,249.9375 1383.2656,246.8125 Q1383.2656,243.6875 1384.5781,242.0313 Q1385.9063,240.375 1388.4063,240.375 Q1389.1094,240.375 1389.75,240.5313 Q1390.4063,240.6875 1390.9688,240.9844 L1390.9688,243.7031 Q1390.3438,243.125 1389.75,242.8594 Q1389.1563,242.5781 1388.5313,242.5781 Q1387.1875,242.5781 1386.5,243.6563 Q1385.8125,244.7188 1385.8125,246.8125 Q1385.8125,248.9063 1386.5,249.9844 Q1387.1875,251.0469 1388.5313,251.0469 Q1389.1563,251.0469 1389.75,250.7813 Q1390.3438,250.5 1390.9688,249.9219 L1390.9688,252.6406 Z "/><text fill="#000000" font-family="sans-serif" font-size="12" lengthAdjust="spacingAndGlyphs" textLength="73" x="1402" y="251.1543">KafkaConfig</text><line style="stroke: #A80036; stroke-width: 1.5;" x1="1374" x2="1477" y1="263" y2="263"/><line style="stroke: #A80036; stroke-width: 1.5;" x1="1374" x2="1477" y1="271" y2="271"/><path d="M836,8 L836,77 L801.23,81 L836,85 L836,154.1953 A0,0 0 0 0 836,154.1953 L1233,154.1953 A0,0 0 0 0 1233,154.1953 L1233,18 L1223,8 L836,8 A0,0 0 0 0 836,8 " fill="#FBFB77" filter="url(#fkbh9go424jv3)" style="stroke: #A80036; stroke-width: 1.0;"/><path d="M1223,8 L1223,18 L1233,18 L1223,8 " fill="#FBFB77" style="stroke: #A80036; stroke-width: 1.0;"/><text fill="#000000" font-family="sans-serif" font-size="13" lengthAdjust="spacingAndGlyphs" textLength="101" x="842" y="25.0669">Responsibilities:</text><text fill="#000000" font-family="sans-serif" font-size="13" lengthAdjust="spacingAndGlyphs" textLength="376" x="842" y="40.1997">- creates the general configuration objects for the program</text><text fill="#000000" font-family="sans-serif" font-size="13" lengthAdjust="spacingAndGlyphs" textLength="0" x="846" y="55.3325"/><text fill="#000000" font-family="sans-serif" font-size="13" lengthAdjust="spacingAndGlyphs" textLength="89" x="842" y="70.4653">Collaborators:</text><text fill="#000000" font-family="sans-serif" font-size="13" lengthAdjust="spacingAndGlyphs" textLength="96" x="842" y="85.5981">- ArchiveConfig</text><text fill="#000000" font-family="sans-serif" font-size="13" lengthAdjust="spacingAndGlyphs" textLength="82" x="842" y="100.731">- AuditConfig</text><text fill="#000000" font-family="sans-serif" font-size="13" lengthAdjust="spacingAndGlyphs" textLength="86" x="842" y="115.8638">- BatchConfig</text><text fill="#000000" font-family="sans-serif" font-size="13" lengthAdjust="spacingAndGlyphs" textLength="109" x="842" y="130.9966">- ConditionConfig</text><text fill="#000000" font-family="sans-serif" font-size="13" lengthAdjust="spacingAndGlyphs" textLength="84" x="842" y="146.1294">- KafkaConfig</text><path d="M6,340 L6,380.2656 A0,0 0 0 0 6,380.2656 L271,380.2656 A0,0 0 0 0 271,380.2656 L271,350 L261,340 L144.55,340 L147.03,279.12 L136.55,340 L6,340 A0,0 0 0 0 6,340 " fill="#FBFB77" filter="url(#fkbh9go424jv3)" style="stroke: #A80036; stroke-width: 1.0;"/><path d="M261,340 L261,350 L271,350 L261,340 " fill="#FBFB77" style="stroke: #A80036; stroke-width: 1.0;"/><text fill="#000000" font-family="sans-serif" font-size="13" lengthAdjust="spacingAndGlyphs" textLength="101" x="12" y="357.0669">Responsibilities:</text><text fill="#000000" font-family="sans-serif" font-size="13" lengthAdjust="spacingAndGlyphs" textLength="244" x="12" y="372.1997">- Stores archive related configurations</text><path d="M306.5,340 L306.5,380.2656 A0,0 0 0 0 306.5,380.2656 L584.5,380.2656 A0,0 0 0 0 584.5,380.2656 L584.5,350 L574.5,340 L453.61,340 L462.56,279.12 L445.61,340 L306.5,340 A0,0 0 0 0 306.5,340 " fill="#FBFB77" filter="url(#fkbh9go424jv3)" style="stroke: #A80036; stroke-width: 1.0;"/><path d="M574.5,340 L574.5,350 L584.5,350 L574.5,340 " fill="#FBFB77" style="stroke: #A80036; stroke-width: 1.0;"/><text fill="#000000" font-family="sans-serif" font-size="13" lengthAdjust="spacingAndGlyphs" textLength="101" x="312.5" y="357.0669">Responsibilities:</text><text fill="#000000" font-family="sans-serif" font-size="13" lengthAdjust="spacingAndGlyphs" textLength="257" x="312.5" y="372.1997">- holds configuration related to the audit</text><path d="M620,340 L620,380.2656 A0,0 0 0 0 620,380.2656 L911,380.2656 A0,0 0 0 0 911,380.2656 L911,350 L901,340 L769.5,340 L765.5,279.12 L761.5,340 L620,340 A0,0 0 0 0 620,340 " fill="#FBFB77" filter="url(#fkbh9go424jv3)" style="stroke: #A80036; stroke-width: 1.0;"/><path d="M901,340 L901,350 L911,350 L901,340 " fill="#FBFB77" style="stroke: #A80036; stroke-width: 1.0;"/><text fill="#000000" font-family="sans-serif" font-size="13" lengthAdjust="spacingAndGlyphs" textLength="101" x="626" y="357.0669">Responsibilities:</text><text fill="#000000" font-family="sans-serif" font-size="13" lengthAdjust="spacingAndGlyphs" textLength="270" x="626" y="372.1997">- Holds configurations related to the batch</text><path d="M946.5,340 L946.5,380.2656 A0,0 0 0 0 946.5,380.2656 L1306.5,380.2656 A0,0 0 0 0 1306.5,380.2656 L1306.5,350 L1296.5,340 L1122.09,340 L1091.6,279.12 L1114.09,340 L946.5,340 A0,0 0 0 0 946.5,340 " fill="#FBFB77" filter="url(#fkbh9go424jv3)" style="stroke: #A80036; stroke-width: 1.0;"/><path d="M1296.5,340 L1296.5,350 L1306.5,350 L1296.5,340 " fill="#FBFB77" style="stroke: #A80036; stroke-width: 1.0;"/><text fill="#000000" font-family="sans-serif" font-size="13" lengthAdjust="spacingAndGlyphs" textLength="101" x="952.5" y="357.0669">Responsibilities:</text><text fill="#000000" font-family="sans-serif" font-size="13" lengthAdjust="spacingAndGlyphs" textLength="339" x="952.5" y="372.1997">- holds configuration related for SQL query conditions</text><path d="M1342,340 L1342,380.2656 A0,0 0 0 0 1342,380.2656 L1659,380.2656 A0,0 0 0 0 1659,380.2656 L1659,350 L1649,340 L1490.49,340 L1442.33,279.12 L1482.49,340 L1342,340 A0,0 0 0 0 1342,340 " fill="#FBFB77" filter="url(#fkbh9go424jv3)" style="stroke: #A80036; stroke-width: 1.0;"/><path d="M1649,340 L1649,350 L1659,350 L1649,340 " fill="#FBFB77" style="stroke: #A80036; stroke-width: 1.0;"/><text fill="#000000" font-family="sans-serif" font-size="13" lengthAdjust="spacingAndGlyphs" textLength="101" x="1348" y="357.0669">Responsibilities:</text><text fill="#000000" font-family="sans-serif" font-size="13" lengthAdjust="spacingAndGlyphs" textLength="296" x="1348" y="372.1997">- Holds configurations related to Apache Kafka</text><!--MD5=[997948453adb99036253c1beeedc4911]
link Config to ArchiveConfig--><path d="M730,84.99 C646.32,92.93 431.21,118.6 264.5,184 C236.15,195.12 206.86,213.06 184.94,227.99 " fill="none" id="Config-&gt;ArchiveConfig" style="stroke: #A80036; stroke-width: 1.0;"/><polygon fill="#A80036" points="180.65,230.93,190.3312,229.1203,184.7681,228.0943,185.7941,222.5313,180.65,230.93" style="stroke: #A80036; stroke-width: 1.0;"/><text fill="#000000" font-family="sans-serif" font-size="13" lengthAdjust="spacingAndGlyphs" textLength="238" x="265.5" y="197.0669">Passes archive related configurations</text><!--MD5=[0ca2c7f5d0843ec8dbdee78c5450736a]
link Config to AuditConfig--><path d="M729.82,92.37 C681.76,107.44 594.95,138.64 531.5,184 C514.85,195.9 499.28,212.75 487.66,226.94 " fill="none" id="Config-&gt;AuditConfig" style="stroke: #A80036; stroke-width: 1.0;"/><polygon fill="#A80036" points="484.49,230.86,493.2518,226.3622,487.6274,226.9668,487.0227,221.3424,484.49,230.86" style="stroke: #A80036; stroke-width: 1.0;"/><text fill="#000000" font-family="sans-serif" font-size="13" lengthAdjust="spacingAndGlyphs" textLength="224" x="532.5" y="197.0669">Passes audit related configurations</text><!--MD5=[55e14b8b91cd49f7fbd16b0b4e0d6546]
link Config to BatchConfig--><path d="M765.5,105.2 C765.5,136.44 765.5,192.01 765.5,225.69 " fill="none" id="Config-&gt;BatchConfig" style="stroke: #A80036; stroke-width: 1.0;"/><polygon fill="#A80036" points="765.5,230.9,769.5,221.9,765.5,225.9,761.5,221.9,765.5,230.9" style="stroke: #A80036; stroke-width: 1.0;"/><text fill="#000000" font-family="sans-serif" font-size="13" lengthAdjust="spacingAndGlyphs" textLength="228" x="766.5" y="197.0669">Passes batch related configurations</text><!--MD5=[f0d3192e29975e76dd501fda7a0a6dba]
link Config to ConditionConfig--><path d="M776.48,105.28 C785.44,121.61 799.69,142.51 818.5,154 C889.58,197.43 928.35,148.06 1003.5,184 C1024.69,194.13 1044.33,211.84 1058.61,226.91 " fill="none" id="Config-&gt;ConditionConfig" style="stroke: #A80036; stroke-width: 1.0;"/><polygon fill="#A80036" points="1062.12,230.68,1058.9215,221.365,1058.7156,227.0181,1053.0624,226.8121,1062.12,230.68" style="stroke: #A80036; stroke-width: 1.0;"/><text fill="#000000" font-family="sans-serif" font-size="13" lengthAdjust="spacingAndGlyphs" textLength="250" x="1031.5" y="197.0669">Passes condition related configurations</text><!--MD5=[a802c916d58fa30121804093689095c9]
link Config to KafkaConfig--><path d="M775.79,105.13 C784.57,121.85 798.88,143.29 818.5,154 C910.74,204.37 1189.23,155.87 1290.5,184 C1324.77,193.52 1360.35,212.4 1386.38,228.16 " fill="none" id="Config-&gt;KafkaConfig" style="stroke: #A80036; stroke-width: 1.0;"/><polygon fill="#A80036" points="1390.8,230.86,1385.2041,222.7553,1386.5329,228.2539,1381.0343,229.5827,1390.8,230.86" style="stroke: #A80036; stroke-width: 1.0;"/><text fill="#000000" font-family="sans-serif" font-size="13" lengthAdjust="spacingAndGlyphs" textLength="226" x="1334.5" y="197.0669">Passes kafka related configurations</text><!--MD5=[aaed1b489e261b54592e25437611b680]
@startuml inline_umlgraph_5.svg
class Config {

}

Config - -> ArchiveConfig : Passes archive related configurations
Config - -> AuditConfig : Passes audit related configurations
Config - -> BatchConfig : Passes batch related configurations
Config - -> ConditionConfig : Passes condition related configurations
Config - -> KafkaConfig : Passes kafka related configurations

note right of Config
Responsibilities:
- creates the general configuration objects for the program

Collaborators:
- ArchiveConfig
- AuditConfig
- BatchConfig
- ConditionConfig
- KafkaConfig
endnote

note bottom of ArchiveConfig
Responsibilities:
- Stores archive related configurations
endnote

note bottom of AuditConfig
Responsibilities:
- holds configuration related to the audit
endnote

note bottom of BatchConfig
Responsibilities:
- Holds configurations related to the batch
endnote

note bottom of ConditionConfig
Responsibilities:
- holds configuration related for SQL query conditions
endnote

note bottom of KafkaConfig
Responsibilities:
- Holds configurations related to Apache Kafka
endnote
@enduml

PlantUML version 1.2020.02(Sun Mar 01 10:22:07 UTC 2020)
(GPL source distribution)
Java Runtime: OpenJDK Runtime Environment
JVM: OpenJDK 64-Bit Server VM
Java Version: 1.8.0_292-b10
Operating System: Linux
Default Encoding: UTF-8
Language: en
Country: null
--></g></svg>