<?xml version="1.0" encoding="UTF-8" standalone="no"?><svg xmlns="http://www.w3.org/2000/svg" xmlns:xlink="http://www.w3.org/1999/xlink" contentScriptType="application/ecmascript" contentStyleType="text/css" height="228px" preserveAspectRatio="none" style="width:1026px;height:228px;" version="1.1" viewBox="0 0 1026 228" width="1026px" zoomAndPan="magnify"><defs><filter height="300%" id="flp5l9z8nn7bw" width="300%" x="-1" y="-1"><feGaussianBlur result="blurOut" stdDeviation="2.0"/><feColorMatrix in="blurOut" result="blurOut2" type="matrix" values="0 0 0 0 0 0 0 0 0 0 0 0 0 0 0 0 0 0 .4 0"/><feOffset dx="4.0" dy="4.0" in="blurOut2" result="blurOut3"/><feBlend in="SourceGraphic" in2="blurOut3" mode="normal"/></filter></defs><g><!--MD5=[a38efea7fd679af0fe313021af718a0d]
class RecordsPerSecondMetricAggregator--><rect fill="#FEFECE" filter="url(#flp5l9z8nn7bw)" height="86.4141" id="RecordsPerSecondMetricAggregator" style="stroke: #A80036; stroke-width: 1.5;" width="260" x="755.5" y="15.5"/><ellipse cx="770.5" cy="31.5" fill="#ADD1B2" rx="11" ry="11" style="stroke: #A80036; stroke-width: 1.0;"/><path d="M773.4688,37.1406 Q772.8906,37.4375 772.25,37.5781 Q771.6094,37.7344 770.9063,37.7344 Q768.4063,37.7344 767.0781,36.0938 Q765.7656,34.4375 765.7656,31.3125 Q765.7656,28.1875 767.0781,26.5313 Q768.4063,24.875 770.9063,24.875 Q771.6094,24.875 772.25,25.0313 Q772.9063,25.1875 773.4688,25.4844 L773.4688,28.2031 Q772.8438,27.625 772.25,27.3594 Q771.6563,27.0781 771.0313,27.0781 Q769.6875,27.0781 769,28.1563 Q768.3125,29.2188 768.3125,31.3125 Q768.3125,33.4063 769,34.4844 Q769.6875,35.5469 771.0313,35.5469 Q771.6563,35.5469 772.25,35.2813 Q772.8438,35 773.4688,34.4219 L773.4688,37.1406 Z "/><text fill="#000000" font-family="sans-serif" font-size="12" lengthAdjust="spacingAndGlyphs" textLength="228" x="784.5" y="35.6543">RecordsPerSecondMetricAggregator</text><line style="stroke: #A80036; stroke-width: 1.5;" x1="756.5" x2="1014.5" y1="47.5" y2="47.5"/><line style="stroke: #A80036; stroke-width: 1.5;" x1="756.5" x2="1014.5" y1="55.5" y2="55.5"/><ellipse cx="766.5" cy="66.5" fill="#84BE84" rx="3" ry="3" style="stroke: #038048; stroke-width: 1.0;"/><text fill="#000000" font-family="sans-serif" font-size="11" lengthAdjust="spacingAndGlyphs" textLength="40" x="775.5" y="69.7104">name()</text><ellipse cx="766.5" cy="79.3047" fill="#84BE84" rx="3" ry="3" style="stroke: #038048; stroke-width: 1.0;"/><text fill="#000000" font-family="sans-serif" font-size="11" lengthAdjust="spacingAndGlyphs" textLength="71" x="775.5" y="82.5151">description()</text><ellipse cx="766.5" cy="92.1094" fill="#84BE84" rx="3" ry="3" style="stroke: #038048; stroke-width: 1.0;"/><text fill="#000000" font-family="sans-serif" font-size="11" lengthAdjust="spacingAndGlyphs" textLength="134" x="775.5" y="95.3198">aggregateTaskMetrics()</text><!--MD5=[4f8ac433e86d6f468e7f7305d0ee9439]
class LatestKafkaTimestampMetricAggregator--><rect fill="#FEFECE" filter="url(#flp5l9z8nn7bw)" height="48" id="LatestKafkaTimestampMetricAggregator" style="stroke: #A80036; stroke-width: 1.5;" width="282" x="438.5" y="34.5"/><ellipse cx="453.5" cy="50.5" fill="#ADD1B2" rx="11" ry="11" style="stroke: #A80036; stroke-width: 1.0;"/><path d="M456.4688,56.1406 Q455.8906,56.4375 455.25,56.5781 Q454.6094,56.7344 453.9063,56.7344 Q451.4063,56.7344 450.0781,55.0938 Q448.7656,53.4375 448.7656,50.3125 Q448.7656,47.1875 450.0781,45.5313 Q451.4063,43.875 453.9063,43.875 Q454.6094,43.875 455.25,44.0313 Q455.9063,44.1875 456.4688,44.4844 L456.4688,47.2031 Q455.8438,46.625 455.25,46.3594 Q454.6563,46.0781 454.0313,46.0781 Q452.6875,46.0781 452,47.1563 Q451.3125,48.2188 451.3125,50.3125 Q451.3125,52.4063 452,53.4844 Q452.6875,54.5469 454.0313,54.5469 Q454.6563,54.5469 455.25,54.2813 Q455.8438,54 456.4688,53.4219 L456.4688,56.1406 Z "/><text fill="#000000" font-family="sans-serif" font-size="12" lengthAdjust="spacingAndGlyphs" textLength="250" x="467.5" y="54.6543">LatestKafkaTimestampMetricAggregator</text><line style="stroke: #A80036; stroke-width: 1.5;" x1="439.5" x2="719.5" y1="66.5" y2="66.5"/><line style="stroke: #A80036; stroke-width: 1.5;" x1="439.5" x2="719.5" y1="74.5" y2="74.5"/><!--MD5=[6c3a001f16649f06e2b965fbeb15d800]
class TaskMetric--><rect fill="#FEFECE" filter="url(#flp5l9z8nn7bw)" height="48" id="TaskMetric" style="stroke: #A80036; stroke-width: 1.5;" width="99" x="458" y="169"/><ellipse cx="473" cy="185" fill="#ADD1B2" rx="11" ry="11" style="stroke: #A80036; stroke-width: 1.0;"/><path d="M475.9688,190.6406 Q475.3906,190.9375 474.75,191.0781 Q474.1094,191.2344 473.4063,191.2344 Q470.9063,191.2344 469.5781,189.5938 Q468.2656,187.9375 468.2656,184.8125 Q468.2656,181.6875 469.5781,180.0313 Q470.9063,178.375 473.4063,178.375 Q474.1094,178.375 474.75,178.5313 Q475.4063,178.6875 475.9688,178.9844 L475.9688,181.7031 Q475.3438,181.125 474.75,180.8594 Q474.1563,180.5781 473.5313,180.5781 Q472.1875,180.5781 471.5,181.6563 Q470.8125,182.7188 470.8125,184.8125 Q470.8125,186.9063 471.5,187.9844 Q472.1875,189.0469 473.5313,189.0469 Q474.1563,189.0469 474.75,188.7813 Q475.3438,188.5 475.9688,187.9219 L475.9688,190.6406 Z "/><text fill="#000000" font-family="sans-serif" font-size="12" lengthAdjust="spacingAndGlyphs" textLength="67" x="487" y="189.1543">TaskMetric</text><line style="stroke: #A80036; stroke-width: 1.5;" x1="459" x2="556" y1="201" y2="201"/><line style="stroke: #A80036; stroke-width: 1.5;" x1="459" x2="556" y1="209" y2="209"/><!--MD5=[3809f4cd6c4df9cd6711565da6789b4d]
class CustomMetric--><rect fill="#FEFECE" filter="url(#flp5l9z8nn7bw)" height="48" id="CustomMetric" style="stroke: #A80036; stroke-width: 1.5;" width="117" x="592" y="169"/><ellipse cx="607" cy="185" fill="#ADD1B2" rx="11" ry="11" style="stroke: #A80036; stroke-width: 1.0;"/><path d="M609.9688,190.6406 Q609.3906,190.9375 608.75,191.0781 Q608.1094,191.2344 607.4063,191.2344 Q604.9063,191.2344 603.5781,189.5938 Q602.2656,187.9375 602.2656,184.8125 Q602.2656,181.6875 603.5781,180.0313 Q604.9063,178.375 607.4063,178.375 Q608.1094,178.375 608.75,178.5313 Q609.4063,178.6875 609.9688,178.9844 L609.9688,181.7031 Q609.3438,181.125 608.75,180.8594 Q608.1563,180.5781 607.5313,180.5781 Q606.1875,180.5781 605.5,181.6563 Q604.8125,182.7188 604.8125,184.8125 Q604.8125,186.9063 605.5,187.9844 Q606.1875,189.0469 607.5313,189.0469 Q608.1563,189.0469 608.75,188.7813 Q609.3438,188.5 609.9688,187.9219 L609.9688,190.6406 Z "/><text fill="#000000" font-family="sans-serif" font-size="12" lengthAdjust="spacingAndGlyphs" textLength="85" x="621" y="189.1543">CustomMetric</text><line style="stroke: #A80036; stroke-width: 1.5;" x1="593" x2="708" y1="201" y2="201"/><line style="stroke: #A80036; stroke-width: 1.5;" x1="593" x2="708" y1="209" y2="209"/><path d="M6,8 L6,108.7969 A0,0 0 0 0 6,108.7969 L403,108.7969 A0,0 0 0 0 403,108.7969 L403,62.5 L438.44,58.5 L403,54.5 L403,18 L393,8 L6,8 A0,0 0 0 0 6,8 " fill="#FBFB77" filter="url(#flp5l9z8nn7bw)" style="stroke: #A80036; stroke-width: 1.0;"/><path d="M393,8 L393,18 L403,18 L393,8 " fill="#FBFB77" style="stroke: #A80036; stroke-width: 1.0;"/><text fill="#000000" font-family="sans-serif" font-size="13" lengthAdjust="spacingAndGlyphs" textLength="101" x="12" y="25.0669">Responsibilities:</text><text fill="#000000" font-family="sans-serif" font-size="13" lengthAdjust="spacingAndGlyphs" textLength="376" x="12" y="40.1997">- Aggregates the latest processed Kafka timestamp metric</text><text fill="#000000" font-family="sans-serif" font-size="13" lengthAdjust="spacingAndGlyphs" textLength="299" x="12" y="55.3325">- Holds the name and description of the metric</text><text fill="#000000" font-family="sans-serif" font-size="13" lengthAdjust="spacingAndGlyphs" textLength="0" x="16" y="70.4653"/><text fill="#000000" font-family="sans-serif" font-size="13" lengthAdjust="spacingAndGlyphs" textLength="89" x="12" y="85.5981">Collaborators:</text><text fill="#000000" font-family="sans-serif" font-size="13" lengthAdjust="spacingAndGlyphs" textLength="98" x="12" y="100.731">- CustomMetric</text><!--MD5=[f976942cd71726465d2dfc9f1d00e025]
link LatestKafkaTimestampMetricAggregator to TaskMetric--><path d="M566.96,82.58 C554.59,105.33 535.69,140.12 522.53,164.35 " fill="none" id="LatestKafkaTimestampMetricAggregator-&gt;TaskMetric" style="stroke: #A80036; stroke-width: 1.0;"/><polygon fill="#A80036" points="520.14,168.74,527.9544,162.7454,522.5292,164.3478,520.9269,158.9226,520.14,168.74" style="stroke: #A80036; stroke-width: 1.0;"/><!--MD5=[61743c30cf9d69210a90bc16743e05f0]
link LatestKafkaTimestampMetricAggregator to CustomMetric--><path d="M591.87,82.58 C604.01,105.24 622.55,139.84 635.52,164.04 " fill="none" id="LatestKafkaTimestampMetricAggregator-&gt;CustomMetric" style="stroke: #A80036; stroke-width: 1.0;"/><polygon fill="#A80036" points="638.04,168.74,637.3292,158.9168,635.6848,164.3294,630.2722,162.6851,638.04,168.74" style="stroke: #A80036; stroke-width: 1.0;"/><!--MD5=[c85a1a854c2f44dbe544a794e00b3d45]
@startuml inline_umlgraph_9.svg
class RecordsPerSecondMetricAggregator {
    + name()
    + description()
    + aggregateTaskMetrics()
}

LatestKafkaTimestampMetricAggregator - -> TaskMetric
LatestKafkaTimestampMetricAggregator - -> CustomMetric

note left of LatestKafkaTimestampMetricAggregator
Responsibilities:
- Aggregates the latest processed Kafka timestamp metric
- Holds the name and description of the metric

Collaborators:
- CustomMetric
end note
@enduml

PlantUML version 1.2020.02(Sun Mar 01 10:22:07 UTC 2020)
(GPL source distribution)
Java Runtime: OpenJDK Runtime Environment
JVM: OpenJDK 64-Bit Server VM
Java Version: 1.8.0_292-b10
Operating System: Linux
Default Encoding: UTF-8
Language: en
Country: null
--></g></svg>