<?xml version="1.0" encoding="UTF-8" standalone="no"?><svg xmlns="http://www.w3.org/2000/svg" xmlns:xlink="http://www.w3.org/1999/xlink" contentScriptType="application/ecmascript" contentStyleType="text/css" height="213px" preserveAspectRatio="none" style="width:451px;height:213px;" version="1.1" viewBox="0 0 451 213" width="451px" zoomAndPan="magnify"><defs><filter height="300%" id="f1qwto3rmix0je" width="300%" x="-1" y="-1"><feGaussianBlur result="blurOut" stdDeviation="2.0"/><feColorMatrix in="blurOut" result="blurOut2" type="matrix" values="0 0 0 0 0 0 0 0 0 0 0 0 0 0 0 0 0 0 .4 0"/><feOffset dx="4.0" dy="4.0" in="blurOut2" result="blurOut3"/><feBlend in="SourceGraphic" in2="blurOut3" mode="normal"/></filter></defs><g><!--MD5=[8be92826835b67a7c76e165e77daf5d2]
class BatchConfig--><rect fill="#FEFECE" filter="url(#f1qwto3rmix0je)" height="48" id="BatchConfig" style="stroke: #A80036; stroke-width: 1.5;" width="107" x="6" y="27"/><ellipse cx="21" cy="43" fill="#ADD1B2" rx="11" ry="11" style="stroke: #A80036; stroke-width: 1.0;"/><path d="M23.9688,48.6406 Q23.3906,48.9375 22.75,49.0781 Q22.1094,49.2344 21.4063,49.2344 Q18.9063,49.2344 17.5781,47.5938 Q16.2656,45.9375 16.2656,42.8125 Q16.2656,39.6875 17.5781,38.0313 Q18.9063,36.375 21.4063,36.375 Q22.1094,36.375 22.75,36.5313 Q23.4063,36.6875 23.9688,36.9844 L23.9688,39.7031 Q23.3438,39.125 22.75,38.8594 Q22.1563,38.5781 21.5313,38.5781 Q20.1875,38.5781 19.5,39.6563 Q18.8125,40.7188 18.8125,42.8125 Q18.8125,44.9063 19.5,45.9844 Q20.1875,47.0469 21.5313,47.0469 Q22.1563,47.0469 22.75,46.7813 Q23.3438,46.5 23.9688,45.9219 L23.9688,48.6406 Z "/><text fill="#000000" font-family="sans-serif" font-size="12" lengthAdjust="spacingAndGlyphs" textLength="75" x="35" y="47.1543">BatchConfig</text><line style="stroke: #A80036; stroke-width: 1.5;" x1="7" x2="112" y1="59" y2="59"/><line style="stroke: #A80036; stroke-width: 1.5;" x1="7" x2="112" y1="67" y2="67"/><!--MD5=[4bf8aff396996fef456cd268939daa24]
class Config--><rect fill="#FEFECE" filter="url(#f1qwto3rmix0je)" height="48" id="Config" style="stroke: #A80036; stroke-width: 1.5;" width="71" x="24" y="154"/><ellipse cx="39" cy="170" fill="#ADD1B2" rx="11" ry="11" style="stroke: #A80036; stroke-width: 1.0;"/><path d="M41.9688,175.6406 Q41.3906,175.9375 40.75,176.0781 Q40.1094,176.2344 39.4063,176.2344 Q36.9063,176.2344 35.5781,174.5938 Q34.2656,172.9375 34.2656,169.8125 Q34.2656,166.6875 35.5781,165.0313 Q36.9063,163.375 39.4063,163.375 Q40.1094,163.375 40.75,163.5313 Q41.4063,163.6875 41.9688,163.9844 L41.9688,166.7031 Q41.3438,166.125 40.75,165.8594 Q40.1563,165.5781 39.5313,165.5781 Q38.1875,165.5781 37.5,166.6563 Q36.8125,167.7188 36.8125,169.8125 Q36.8125,171.9063 37.5,172.9844 Q38.1875,174.0469 39.5313,174.0469 Q40.1563,174.0469 40.75,173.7813 Q41.3438,173.5 41.9688,172.9219 L41.9688,175.6406 Z "/><text fill="#000000" font-family="sans-serif" font-size="12" lengthAdjust="spacingAndGlyphs" textLength="39" x="53" y="174.1543">Config</text><line style="stroke: #A80036; stroke-width: 1.5;" x1="25" x2="94" y1="186" y2="186"/><line style="stroke: #A80036; stroke-width: 1.5;" x1="25" x2="94" y1="194" y2="194"/><path d="M148,8 L148,47 L113.43,51 L148,55 L148,93.6641 A0,0 0 0 0 148,93.6641 L439,93.6641 A0,0 0 0 0 439,93.6641 L439,18 L429,8 L148,8 A0,0 0 0 0 148,8 " fill="#FBFB77" filter="url(#f1qwto3rmix0je)" style="stroke: #A80036; stroke-width: 1.0;"/><path d="M429,8 L429,18 L439,18 L429,8 " fill="#FBFB77" style="stroke: #A80036; stroke-width: 1.0;"/><text fill="#000000" font-family="sans-serif" font-size="13" lengthAdjust="spacingAndGlyphs" textLength="101" x="154" y="25.0669">Responsibilities:</text><text fill="#000000" font-family="sans-serif" font-size="13" lengthAdjust="spacingAndGlyphs" textLength="270" x="154" y="40.1997">- Holds configurations related to the batch</text><text fill="#000000" font-family="sans-serif" font-size="13" lengthAdjust="spacingAndGlyphs" textLength="0" x="158" y="55.3325"/><text fill="#000000" font-family="sans-serif" font-size="13" lengthAdjust="spacingAndGlyphs" textLength="89" x="154" y="70.4653">Collaborators:</text><text fill="#000000" font-family="sans-serif" font-size="13" lengthAdjust="spacingAndGlyphs" textLength="49" x="154" y="85.5981">- Config</text><!--MD5=[f18a2e786266c47de83541644b0531f8]
link BatchConfig to Config--><path d="M59.5,75.22 C59.5,96 59.5,126.54 59.5,148.74 " fill="none" id="BatchConfig-&gt;Config" style="stroke: #A80036; stroke-width: 1.0;"/><polygon fill="#A80036" points="59.5,153.91,63.5,144.91,59.5,148.91,55.5,144.91,59.5,153.91" style="stroke: #A80036; stroke-width: 1.0;"/><!--MD5=[662d4a693c6faa458a420c8ebd184f7d]
@startuml inline_umlgraph_3.svg
class BatchConfig {

}

BatchConfig - -> Config

note right of BatchConfig
Responsibilities:
- Holds configurations related to the batch

Collaborators:
- Config
end note
@enduml

PlantUML version 1.2020.02(Sun Mar 01 10:22:07 UTC 2020)
(GPL source distribution)
Java Runtime: OpenJDK Runtime Environment
JVM: OpenJDK 64-Bit Server VM
Java Version: 1.8.0_292-b10
Operating System: Linux
Default Encoding: UTF-8
Language: en
Country: null
--></g></svg>