<?xml version="1.0" encoding="UTF-8" standalone="no"?><svg xmlns="http://www.w3.org/2000/svg" xmlns:xlink="http://www.w3.org/1999/xlink" contentScriptType="application/ecmascript" contentStyleType="text/css" height="273px" preserveAspectRatio="none" style="width:828px;height:273px;" version="1.1" viewBox="0 0 828 273" width="828px" zoomAndPan="magnify"><defs><filter height="300%" id="f187ofvcfkmnkq" width="300%" x="-1" y="-1"><feGaussianBlur result="blurOut" stdDeviation="2.0"/><feColorMatrix in="blurOut" result="blurOut2" type="matrix" values="0 0 0 0 0 0 0 0 0 0 0 0 0 0 0 0 0 0 .4 0"/><feOffset dx="4.0" dy="4.0" in="blurOut2" result="blurOut3"/><feBlend in="SourceGraphic" in2="blurOut3" mode="normal"/></filter></defs><g><!--MD5=[4bf8aff396996fef456cd268939daa24]
class Config--><rect fill="#FEFECE" filter="url(#f187ofvcfkmnkq)" height="48" id="Config" style="stroke: #A80036; stroke-width: 1.5;" width="71" x="313.5" y="57"/><ellipse cx="328.5" cy="73" fill="#ADD1B2" rx="11" ry="11" style="stroke: #A80036; stroke-width: 1.0;"/><path d="M331.4688,78.6406 Q330.8906,78.9375 330.25,79.0781 Q329.6094,79.2344 328.9063,79.2344 Q326.4063,79.2344 325.0781,77.5938 Q323.7656,75.9375 323.7656,72.8125 Q323.7656,69.6875 325.0781,68.0313 Q326.4063,66.375 328.9063,66.375 Q329.6094,66.375 330.25,66.5313 Q330.9063,66.6875 331.4688,66.9844 L331.4688,69.7031 Q330.8438,69.125 330.25,68.8594 Q329.6563,68.5781 329.0313,68.5781 Q327.6875,68.5781 327,69.6563 Q326.3125,70.7188 326.3125,72.8125 Q326.3125,74.9063 327,75.9844 Q327.6875,77.0469 329.0313,77.0469 Q329.6563,77.0469 330.25,76.7813 Q330.8438,76.5 331.4688,75.9219 L331.4688,78.6406 Z "/><text fill="#000000" font-family="sans-serif" font-size="12" lengthAdjust="spacingAndGlyphs" textLength="39" x="342.5" y="77.1543">Config</text><line style="stroke: #A80036; stroke-width: 1.5;" x1="314.5" x2="383.5" y1="89" y2="89"/><line style="stroke: #A80036; stroke-width: 1.5;" x1="314.5" x2="383.5" y1="97" y2="97"/><!--MD5=[775b918ad6fa0562d5d4c268d5c6b05b]
class ArchiveConfig--><rect fill="#FEFECE" filter="url(#f187ofvcfkmnkq)" height="48" id="ArchiveConfig" style="stroke: #A80036; stroke-width: 1.5;" width="116" x="6" y="214"/><ellipse cx="21" cy="230" fill="#ADD1B2" rx="11" ry="11" style="stroke: #A80036; stroke-width: 1.0;"/><path d="M23.9688,235.6406 Q23.3906,235.9375 22.75,236.0781 Q22.1094,236.2344 21.4063,236.2344 Q18.9063,236.2344 17.5781,234.5938 Q16.2656,232.9375 16.2656,229.8125 Q16.2656,226.6875 17.5781,225.0313 Q18.9063,223.375 21.4063,223.375 Q22.1094,223.375 22.75,223.5313 Q23.4063,223.6875 23.9688,223.9844 L23.9688,226.7031 Q23.3438,226.125 22.75,225.8594 Q22.1563,225.5781 21.5313,225.5781 Q20.1875,225.5781 19.5,226.6563 Q18.8125,227.7188 18.8125,229.8125 Q18.8125,231.9063 19.5,232.9844 Q20.1875,234.0469 21.5313,234.0469 Q22.1563,234.0469 22.75,233.7813 Q23.3438,233.5 23.9688,232.9219 L23.9688,235.6406 Z "/><text fill="#000000" font-family="sans-serif" font-size="12" lengthAdjust="spacingAndGlyphs" textLength="84" x="35" y="234.1543">ArchiveConfig</text><line style="stroke: #A80036; stroke-width: 1.5;" x1="7" x2="121" y1="246" y2="246"/><line style="stroke: #A80036; stroke-width: 1.5;" x1="7" x2="121" y1="254" y2="254"/><!--MD5=[13008d130e228bffb3af25d9f9327b2c]
class AuditConfig--><rect fill="#FEFECE" filter="url(#f187ofvcfkmnkq)" height="48" id="AuditConfig" style="stroke: #A80036; stroke-width: 1.5;" width="103" x="157.5" y="214"/><ellipse cx="172.5" cy="230" fill="#ADD1B2" rx="11" ry="11" style="stroke: #A80036; stroke-width: 1.0;"/><path d="M175.4688,235.6406 Q174.8906,235.9375 174.25,236.0781 Q173.6094,236.2344 172.9063,236.2344 Q170.4063,236.2344 169.0781,234.5938 Q167.7656,232.9375 167.7656,229.8125 Q167.7656,226.6875 169.0781,225.0313 Q170.4063,223.375 172.9063,223.375 Q173.6094,223.375 174.25,223.5313 Q174.9063,223.6875 175.4688,223.9844 L175.4688,226.7031 Q174.8438,226.125 174.25,225.8594 Q173.6563,225.5781 173.0313,225.5781 Q171.6875,225.5781 171,226.6563 Q170.3125,227.7188 170.3125,229.8125 Q170.3125,231.9063 171,232.9844 Q171.6875,234.0469 173.0313,234.0469 Q173.6563,234.0469 174.25,233.7813 Q174.8438,233.5 175.4688,232.9219 L175.4688,235.6406 Z "/><text fill="#000000" font-family="sans-serif" font-size="12" lengthAdjust="spacingAndGlyphs" textLength="71" x="186.5" y="234.1543">AuditConfig</text><line style="stroke: #A80036; stroke-width: 1.5;" x1="158.5" x2="259.5" y1="246" y2="246"/><line style="stroke: #A80036; stroke-width: 1.5;" x1="158.5" x2="259.5" y1="254" y2="254"/><!--MD5=[8be92826835b67a7c76e165e77daf5d2]
class BatchConfig--><rect fill="#FEFECE" filter="url(#f187ofvcfkmnkq)" height="48" id="BatchConfig" style="stroke: #A80036; stroke-width: 1.5;" width="107" x="295.5" y="214"/><ellipse cx="310.5" cy="230" fill="#ADD1B2" rx="11" ry="11" style="stroke: #A80036; stroke-width: 1.0;"/><path d="M313.4688,235.6406 Q312.8906,235.9375 312.25,236.0781 Q311.6094,236.2344 310.9063,236.2344 Q308.4063,236.2344 307.0781,234.5938 Q305.7656,232.9375 305.7656,229.8125 Q305.7656,226.6875 307.0781,225.0313 Q308.4063,223.375 310.9063,223.375 Q311.6094,223.375 312.25,223.5313 Q312.9063,223.6875 313.4688,223.9844 L313.4688,226.7031 Q312.8438,226.125 312.25,225.8594 Q311.6563,225.5781 311.0313,225.5781 Q309.6875,225.5781 309,226.6563 Q308.3125,227.7188 308.3125,229.8125 Q308.3125,231.9063 309,232.9844 Q309.6875,234.0469 311.0313,234.0469 Q311.6563,234.0469 312.25,233.7813 Q312.8438,233.5 313.4688,232.9219 L313.4688,235.6406 Z "/><text fill="#000000" font-family="sans-serif" font-size="12" lengthAdjust="spacingAndGlyphs" textLength="75" x="324.5" y="234.1543">BatchConfig</text><line style="stroke: #A80036; stroke-width: 1.5;" x1="296.5" x2="401.5" y1="246" y2="246"/><line style="stroke: #A80036; stroke-width: 1.5;" x1="296.5" x2="401.5" y1="254" y2="254"/><!--MD5=[9b465d90e5c208169cc04f51ef3ed809]
class ConditionConfig--><rect fill="#FEFECE" filter="url(#f187ofvcfkmnkq)" height="48" id="ConditionConfig" style="stroke: #A80036; stroke-width: 1.5;" width="130" x="438" y="214"/><ellipse cx="453" cy="230" fill="#ADD1B2" rx="11" ry="11" style="stroke: #A80036; stroke-width: 1.0;"/><path d="M455.9688,235.6406 Q455.3906,235.9375 454.75,236.0781 Q454.1094,236.2344 453.4063,236.2344 Q450.9063,236.2344 449.5781,234.5938 Q448.2656,232.9375 448.2656,229.8125 Q448.2656,226.6875 449.5781,225.0313 Q450.9063,223.375 453.4063,223.375 Q454.1094,223.375 454.75,223.5313 Q455.4063,223.6875 455.9688,223.9844 L455.9688,226.7031 Q455.3438,226.125 454.75,225.8594 Q454.1563,225.5781 453.5313,225.5781 Q452.1875,225.5781 451.5,226.6563 Q450.8125,227.7188 450.8125,229.8125 Q450.8125,231.9063 451.5,232.9844 Q452.1875,234.0469 453.5313,234.0469 Q454.1563,234.0469 454.75,233.7813 Q455.3438,233.5 455.9688,232.9219 L455.9688,235.6406 Z "/><text fill="#000000" font-family="sans-serif" font-size="12" lengthAdjust="spacingAndGlyphs" textLength="98" x="467" y="234.1543">ConditionConfig</text><line style="stroke: #A80036; stroke-width: 1.5;" x1="439" x2="567" y1="246" y2="246"/><line style="stroke: #A80036; stroke-width: 1.5;" x1="439" x2="567" y1="254" y2="254"/><!--MD5=[9e98628906fd6954bbaaa8256748fd76]
class KafkaConfig--><rect fill="#FEFECE" filter="url(#f187ofvcfkmnkq)" height="48" id="KafkaConfig" style="stroke: #A80036; stroke-width: 1.5;" width="105" x="603.5" y="214"/><ellipse cx="618.5" cy="230" fill="#ADD1B2" rx="11" ry="11" style="stroke: #A80036; stroke-width: 1.0;"/><path d="M621.4688,235.6406 Q620.8906,235.9375 620.25,236.0781 Q619.6094,236.2344 618.9063,236.2344 Q616.4063,236.2344 615.0781,234.5938 Q613.7656,232.9375 613.7656,229.8125 Q613.7656,226.6875 615.0781,225.0313 Q616.4063,223.375 618.9063,223.375 Q619.6094,223.375 620.25,223.5313 Q620.9063,223.6875 621.4688,223.9844 L621.4688,226.7031 Q620.8438,226.125 620.25,225.8594 Q619.6563,225.5781 619.0313,225.5781 Q617.6875,225.5781 617,226.6563 Q616.3125,227.7188 616.3125,229.8125 Q616.3125,231.9063 617,232.9844 Q617.6875,234.0469 619.0313,234.0469 Q619.6563,234.0469 620.25,233.7813 Q620.8438,233.5 621.4688,232.9219 L621.4688,235.6406 Z "/><text fill="#000000" font-family="sans-serif" font-size="12" lengthAdjust="spacingAndGlyphs" textLength="73" x="632.5" y="234.1543">KafkaConfig</text><line style="stroke: #A80036; stroke-width: 1.5;" x1="604.5" x2="707.5" y1="246" y2="246"/><line style="stroke: #A80036; stroke-width: 1.5;" x1="604.5" x2="707.5" y1="254" y2="254"/><path d="M419.5,8 L419.5,77 L384.73,81 L419.5,85 L419.5,154.1953 A0,0 0 0 0 419.5,154.1953 L816.5,154.1953 A0,0 0 0 0 816.5,154.1953 L816.5,18 L806.5,8 L419.5,8 A0,0 0 0 0 419.5,8 " fill="#FBFB77" filter="url(#f187ofvcfkmnkq)" style="stroke: #A80036; stroke-width: 1.0;"/><path d="M806.5,8 L806.5,18 L816.5,18 L806.5,8 " fill="#FBFB77" style="stroke: #A80036; stroke-width: 1.0;"/><text fill="#000000" font-family="sans-serif" font-size="13" lengthAdjust="spacingAndGlyphs" textLength="101" x="425.5" y="25.0669">Responsibilities:</text><text fill="#000000" font-family="sans-serif" font-size="13" lengthAdjust="spacingAndGlyphs" textLength="376" x="425.5" y="40.1997">- creates the general configuration objects for the program</text><text fill="#000000" font-family="sans-serif" font-size="13" lengthAdjust="spacingAndGlyphs" textLength="0" x="429.5" y="55.3325"/><text fill="#000000" font-family="sans-serif" font-size="13" lengthAdjust="spacingAndGlyphs" textLength="89" x="425.5" y="70.4653">Collaborators:</text><text fill="#000000" font-family="sans-serif" font-size="13" lengthAdjust="spacingAndGlyphs" textLength="96" x="425.5" y="85.5981">- ArchiveConfig</text><text fill="#000000" font-family="sans-serif" font-size="13" lengthAdjust="spacingAndGlyphs" textLength="82" x="425.5" y="100.731">- AuditConfig</text><text fill="#000000" font-family="sans-serif" font-size="13" lengthAdjust="spacingAndGlyphs" textLength="86" x="425.5" y="115.8638">- BatchConfig</text><text fill="#000000" font-family="sans-serif" font-size="13" lengthAdjust="spacingAndGlyphs" textLength="109" x="425.5" y="130.9966">- ConditionConfig</text><text fill="#000000" font-family="sans-serif" font-size="13" lengthAdjust="spacingAndGlyphs" textLength="84" x="425.5" y="146.1294">- KafkaConfig</text><!--MD5=[997948453adb99036253c1beeedc4911]
link Config to ArchiveConfig--><path d="M313.48,101.32 C262.39,129.1 168.07,180.4 111.18,211.34 " fill="none" id="Config-&gt;ArchiveConfig" style="stroke: #A80036; stroke-width: 1.0;"/><polygon fill="#A80036" points="106.47,213.9,116.2884,213.1265,110.8655,211.5167,112.4752,206.0938,106.47,213.9" style="stroke: #A80036; stroke-width: 1.0;"/><!--MD5=[0ca2c7f5d0843ec8dbdee78c5450736a]
link Config to AuditConfig--><path d="M328.04,105.21 C302.71,133.25 260.16,180.36 233.38,210.01 " fill="none" id="Config-&gt;AuditConfig" style="stroke: #A80036; stroke-width: 1.0;"/><polygon fill="#A80036" points="229.87,213.89,238.8715,209.8935,233.2219,210.1799,232.9354,204.5304,229.87,213.89" style="stroke: #A80036; stroke-width: 1.0;"/><!--MD5=[55e14b8b91cd49f7fbd16b0b4e0d6546]
link Config to BatchConfig--><path d="M349,105.21 C349,132.79 349,178.83 349,208.54 " fill="none" id="Config-&gt;BatchConfig" style="stroke: #A80036; stroke-width: 1.0;"/><polygon fill="#A80036" points="349,213.89,353,204.89,349,208.89,345,204.89,349,213.89" style="stroke: #A80036; stroke-width: 1.0;"/><!--MD5=[f0d3192e29975e76dd501fda7a0a6dba]
link Config to ConditionConfig--><path d="M363.89,105.19 C373.84,119.89 387.69,138.91 402,154 C421.68,174.76 446.46,195.2 466.55,210.6 " fill="none" id="Config-&gt;ConditionConfig" style="stroke: #A80036; stroke-width: 1.0;"/><polygon fill="#A80036" points="470.77,213.8,466.0241,205.17,466.7889,210.7749,461.184,211.5398,470.77,213.8" style="stroke: #A80036; stroke-width: 1.0;"/><!--MD5=[a802c916d58fa30121804093689095c9]
link Config to KafkaConfig--><path d="M360.94,105.11 C370.19,120.93 384.39,141.27 402,154 C471.72,204.38 504.25,187.24 586,214 C590.02,215.32 594.17,216.68 598.35,218.05 " fill="none" id="Config-&gt;KafkaConfig" style="stroke: #A80036; stroke-width: 1.0;"/><polygon fill="#A80036" points="603.26,219.66,595.9568,213.0522,598.5095,218.1003,593.4613,220.653,603.26,219.66" style="stroke: #A80036; stroke-width: 1.0;"/><!--MD5=[5178989acc222e713cf50a5bacb4e50c]
@startuml inline_umlgraph_1.svg
class Config {

}

Config - -> ArchiveConfig
Config - -> AuditConfig
Config - -> BatchConfig
Config - -> ConditionConfig
Config - -> KafkaConfig

note right of Config
Responsibilities:
- creates the general configuration objects for the program

Collaborators:
- ArchiveConfig
- AuditConfig
- BatchConfig
- ConditionConfig
- KafkaConfig
endnote
@enduml

PlantUML version 1.2020.02(Sun Mar 01 10:22:07 UTC 2020)
(GPL source distribution)
Java Runtime: OpenJDK Runtime Environment
JVM: OpenJDK 64-Bit Server VM
Java Version: 1.8.0_292-b10
Operating System: Linux
Default Encoding: UTF-8
Language: en
Country: null
--></g></svg>