<?xml version="1.0" encoding="UTF-8" standalone="no"?><svg xmlns="http://www.w3.org/2000/svg" xmlns:xlink="http://www.w3.org/1999/xlink" contentScriptType="application/ecmascript" contentStyleType="text/css" height="213px" preserveAspectRatio="none" style="width:434px;height:213px;" version="1.1" viewBox="0 0 434 213" width="434px" zoomAndPan="magnify"><defs><filter height="300%" id="fv63ffa8gey6q" width="300%" x="-1" y="-1"><feGaussianBlur result="blurOut" stdDeviation="2.0"/><feColorMatrix in="blurOut" result="blurOut2" type="matrix" values="0 0 0 0 0 0 0 0 0 0 0 0 0 0 0 0 0 0 .4 0"/><feOffset dx="4.0" dy="4.0" in="blurOut2" result="blurOut3"/><feBlend in="SourceGraphic" in2="blurOut3" mode="normal"/></filter></defs><g><!--MD5=[775b918ad6fa0562d5d4c268d5c6b05b]
class ArchiveConfig--><rect fill="#FEFECE" filter="url(#fv63ffa8gey6q)" height="48" id="ArchiveConfig" style="stroke: #A80036; stroke-width: 1.5;" width="116" x="6" y="27"/><ellipse cx="21" cy="43" fill="#ADD1B2" rx="11" ry="11" style="stroke: #A80036; stroke-width: 1.0;"/><path d="M23.9688,48.6406 Q23.3906,48.9375 22.75,49.0781 Q22.1094,49.2344 21.4063,49.2344 Q18.9063,49.2344 17.5781,47.5938 Q16.2656,45.9375 16.2656,42.8125 Q16.2656,39.6875 17.5781,38.0313 Q18.9063,36.375 21.4063,36.375 Q22.1094,36.375 22.75,36.5313 Q23.4063,36.6875 23.9688,36.9844 L23.9688,39.7031 Q23.3438,39.125 22.75,38.8594 Q22.1563,38.5781 21.5313,38.5781 Q20.1875,38.5781 19.5,39.6563 Q18.8125,40.7188 18.8125,42.8125 Q18.8125,44.9063 19.5,45.9844 Q20.1875,47.0469 21.5313,47.0469 Q22.1563,47.0469 22.75,46.7813 Q23.3438,46.5 23.9688,45.9219 L23.9688,48.6406 Z "/><text fill="#000000" font-family="sans-serif" font-size="12" lengthAdjust="spacingAndGlyphs" textLength="84" x="35" y="47.1543">ArchiveConfig</text><line style="stroke: #A80036; stroke-width: 1.5;" x1="7" x2="121" y1="59" y2="59"/><line style="stroke: #A80036; stroke-width: 1.5;" x1="7" x2="121" y1="67" y2="67"/><!--MD5=[4bf8aff396996fef456cd268939daa24]
class Config--><rect fill="#FEFECE" filter="url(#fv63ffa8gey6q)" height="48" id="Config" style="stroke: #A80036; stroke-width: 1.5;" width="71" x="28.5" y="154"/><ellipse cx="43.5" cy="170" fill="#ADD1B2" rx="11" ry="11" style="stroke: #A80036; stroke-width: 1.0;"/><path d="M46.4688,175.6406 Q45.8906,175.9375 45.25,176.0781 Q44.6094,176.2344 43.9063,176.2344 Q41.4063,176.2344 40.0781,174.5938 Q38.7656,172.9375 38.7656,169.8125 Q38.7656,166.6875 40.0781,165.0313 Q41.4063,163.375 43.9063,163.375 Q44.6094,163.375 45.25,163.5313 Q45.9063,163.6875 46.4688,163.9844 L46.4688,166.7031 Q45.8438,166.125 45.25,165.8594 Q44.6563,165.5781 44.0313,165.5781 Q42.6875,165.5781 42,166.6563 Q41.3125,167.7188 41.3125,169.8125 Q41.3125,171.9063 42,172.9844 Q42.6875,174.0469 44.0313,174.0469 Q44.6563,174.0469 45.25,173.7813 Q45.8438,173.5 46.4688,172.9219 L46.4688,175.6406 Z "/><text fill="#000000" font-family="sans-serif" font-size="12" lengthAdjust="spacingAndGlyphs" textLength="39" x="57.5" y="174.1543">Config</text><line style="stroke: #A80036; stroke-width: 1.5;" x1="29.5" x2="98.5" y1="186" y2="186"/><line style="stroke: #A80036; stroke-width: 1.5;" x1="29.5" x2="98.5" y1="194" y2="194"/><path d="M157.5,8 L157.5,47 L122.27,51 L157.5,55 L157.5,93.6641 A0,0 0 0 0 157.5,93.6641 L422.5,93.6641 A0,0 0 0 0 422.5,93.6641 L422.5,18 L412.5,8 L157.5,8 A0,0 0 0 0 157.5,8 " fill="#FBFB77" filter="url(#fv63ffa8gey6q)" style="stroke: #A80036; stroke-width: 1.0;"/><path d="M412.5,8 L412.5,18 L422.5,18 L412.5,8 " fill="#FBFB77" style="stroke: #A80036; stroke-width: 1.0;"/><text fill="#000000" font-family="sans-serif" font-size="13" lengthAdjust="spacingAndGlyphs" textLength="101" x="163.5" y="25.0669">Responsibilities:</text><text fill="#000000" font-family="sans-serif" font-size="13" lengthAdjust="spacingAndGlyphs" textLength="244" x="163.5" y="40.1997">- Stores archive related configurations</text><text fill="#000000" font-family="sans-serif" font-size="13" lengthAdjust="spacingAndGlyphs" textLength="0" x="167.5" y="55.3325"/><text fill="#000000" font-family="sans-serif" font-size="13" lengthAdjust="spacingAndGlyphs" textLength="89" x="163.5" y="70.4653">Collaborators:</text><text fill="#000000" font-family="sans-serif" font-size="13" lengthAdjust="spacingAndGlyphs" textLength="49" x="163.5" y="85.5981">- Config</text><!--MD5=[f914d7894687d62ffa4e0b8c176eb89b]
link ArchiveConfig to Config--><path d="M64,75.22 C64,96 64,126.54 64,148.74 " fill="none" id="ArchiveConfig-&gt;Config" style="stroke: #A80036; stroke-width: 1.0;"/><polygon fill="#A80036" points="64,153.91,68,144.91,64,148.91,60,144.91,64,153.91" style="stroke: #A80036; stroke-width: 1.0;"/><!--MD5=[d65b06c4b20c4d4176ab327d01b6fb6d]
@startuml inline_umlgraph_1.svg
class ArchiveConfig {}

ArchiveConfig - -> Config

note right of ArchiveConfig
Responsibilities:
- Stores archive related configurations

Collaborators:
- Config
end note
@enduml

PlantUML version 1.2020.02(Sun Mar 01 10:22:07 UTC 2020)
(GPL source distribution)
Java Runtime: OpenJDK Runtime Environment
JVM: OpenJDK 64-Bit Server VM
Java Version: 1.8.0_292-b10
Operating System: Linux
Default Encoding: UTF-8
Language: en
Country: null
--></g></svg>