<?xml version="1.0" encoding="UTF-8" standalone="no"?><svg xmlns="http://www.w3.org/2000/svg" xmlns:xlink="http://www.w3.org/1999/xlink" contentScriptType="application/ecmascript" contentStyleType="text/css" height="226px" preserveAspectRatio="none" style="width:484px;height:226px;" version="1.1" viewBox="0 0 484 226" width="484px" zoomAndPan="magnify"><defs><filter height="300%" id="f1eddwx8tp8muq" width="300%" x="-1" y="-1"><feGaussianBlur result="blurOut" stdDeviation="2.0"/><feColorMatrix in="blurOut" result="blurOut2" type="matrix" values="0 0 0 0 0 0 0 0 0 0 0 0 0 0 0 0 0 0 .4 0"/><feOffset dx="4.0" dy="4.0" in="blurOut2" result="blurOut3"/><feBlend in="SourceGraphic" in2="blurOut3" mode="normal"/></filter></defs><g><!--MD5=[9b465d90e5c208169cc04f51ef3ed809]
class ConditionConfig--><rect fill="#FEFECE" filter="url(#f1eddwx8tp8muq)" height="60.8047" id="ConditionConfig" style="stroke: #A80036; stroke-width: 1.5;" width="130" x="101.5" y="8"/><ellipse cx="116.5" cy="24" fill="#ADD1B2" rx="11" ry="11" style="stroke: #A80036; stroke-width: 1.0;"/><path d="M119.4688,29.6406 Q118.8906,29.9375 118.25,30.0781 Q117.6094,30.2344 116.9063,30.2344 Q114.4063,30.2344 113.0781,28.5938 Q111.7656,26.9375 111.7656,23.8125 Q111.7656,20.6875 113.0781,19.0313 Q114.4063,17.375 116.9063,17.375 Q117.6094,17.375 118.25,17.5313 Q118.9063,17.6875 119.4688,17.9844 L119.4688,20.7031 Q118.8438,20.125 118.25,19.8594 Q117.6563,19.5781 117.0313,19.5781 Q115.6875,19.5781 115,20.6563 Q114.3125,21.7188 114.3125,23.8125 Q114.3125,25.9063 115,26.9844 Q115.6875,28.0469 117.0313,28.0469 Q117.6563,28.0469 118.25,27.7813 Q118.8438,27.5 119.4688,26.9219 L119.4688,29.6406 Z "/><text fill="#000000" font-family="sans-serif" font-size="12" lengthAdjust="spacingAndGlyphs" textLength="98" x="130.5" y="28.1543">ConditionConfig</text><line style="stroke: #A80036; stroke-width: 1.5;" x1="102.5" x2="230.5" y1="40" y2="40"/><line style="stroke: #A80036; stroke-width: 1.5;" x1="102.5" x2="230.5" y1="48" y2="48"/><ellipse cx="112.5" cy="59" fill="#84BE84" rx="3" ry="3" style="stroke: #038048; stroke-width: 1.0;"/><text fill="#000000" font-family="sans-serif" font-size="11" lengthAdjust="spacingAndGlyphs" textLength="51" x="121.5" y="62.2104">method()</text><!--MD5=[4bf8aff396996fef456cd268939daa24]
class Config--><rect fill="#FEFECE" filter="url(#f1eddwx8tp8muq)" height="48" id="Config" style="stroke: #A80036; stroke-width: 1.5;" width="71" x="6" y="148"/><ellipse cx="21" cy="164" fill="#ADD1B2" rx="11" ry="11" style="stroke: #A80036; stroke-width: 1.0;"/><path d="M23.9688,169.6406 Q23.3906,169.9375 22.75,170.0781 Q22.1094,170.2344 21.4063,170.2344 Q18.9063,170.2344 17.5781,168.5938 Q16.2656,166.9375 16.2656,163.8125 Q16.2656,160.6875 17.5781,159.0313 Q18.9063,157.375 21.4063,157.375 Q22.1094,157.375 22.75,157.5313 Q23.4063,157.6875 23.9688,157.9844 L23.9688,160.7031 Q23.3438,160.125 22.75,159.8594 Q22.1563,159.5781 21.5313,159.5781 Q20.1875,159.5781 19.5,160.6563 Q18.8125,161.7188 18.8125,163.8125 Q18.8125,165.9063 19.5,166.9844 Q20.1875,168.0469 21.5313,168.0469 Q22.1563,168.0469 22.75,167.7813 Q23.3438,167.5 23.9688,166.9219 L23.9688,169.6406 Z "/><text fill="#000000" font-family="sans-serif" font-size="12" lengthAdjust="spacingAndGlyphs" textLength="39" x="35" y="168.1543">Config</text><line style="stroke: #A80036; stroke-width: 1.5;" x1="7" x2="76" y1="180" y2="180"/><line style="stroke: #A80036; stroke-width: 1.5;" x1="7" x2="76" y1="188" y2="188"/><path d="M112.5,129 L112.5,214.6641 A0,0 0 0 0 112.5,214.6641 L472.5,214.6641 A0,0 0 0 0 472.5,214.6641 L472.5,139 L462.5,129 L256.13,129 L194.78,69.01 L248.13,129 L112.5,129 A0,0 0 0 0 112.5,129 " fill="#FBFB77" filter="url(#f1eddwx8tp8muq)" style="stroke: #A80036; stroke-width: 1.0;"/><path d="M462.5,129 L462.5,139 L472.5,139 L462.5,129 " fill="#FBFB77" style="stroke: #A80036; stroke-width: 1.0;"/><text fill="#000000" font-family="sans-serif" font-size="13" lengthAdjust="spacingAndGlyphs" textLength="101" x="118.5" y="146.0669">Responsibilities:</text><text fill="#000000" font-family="sans-serif" font-size="13" lengthAdjust="spacingAndGlyphs" textLength="339" x="118.5" y="161.1997">- holds configuration related for SQL query conditions</text><text fill="#000000" font-family="sans-serif" font-size="13" lengthAdjust="spacingAndGlyphs" textLength="0" x="122.5" y="176.3325"/><text fill="#000000" font-family="sans-serif" font-size="13" lengthAdjust="spacingAndGlyphs" textLength="89" x="118.5" y="191.4653">Collaborators:</text><text fill="#000000" font-family="sans-serif" font-size="13" lengthAdjust="spacingAndGlyphs" textLength="49" x="118.5" y="206.5981">- Config</text><!--MD5=[443438c71003a275e2cb1aa0f1665d45]
link ConditionConfig to Config--><path d="M138.45,69.01 C117.08,91.49 87.9,122.18 67.16,144.01 " fill="none" id="ConditionConfig-&gt;Config" style="stroke: #A80036; stroke-width: 1.0;"/><polygon fill="#A80036" points="63.64,147.71,72.7438,143.9523,67.0886,144.0897,66.9513,138.4345,63.64,147.71" style="stroke: #A80036; stroke-width: 1.0;"/><!--MD5=[898b93632e9a7b0417d222efc725b946]
@startuml inline_umlgraph_4.svg
class ConditionConfig {
    + method()
}

ConditionConfig - -> Config

note bottom of ConditionConfig
Responsibilities:
- holds configuration related for SQL query conditions

Collaborators:
- Config
end note
@enduml

PlantUML version 1.2020.02(Sun Mar 01 10:22:07 UTC 2020)
(GPL source distribution)
Java Runtime: OpenJDK Runtime Environment
JVM: OpenJDK 64-Bit Server VM
Java Version: 1.8.0_292-b10
Operating System: Linux
Default Encoding: UTF-8
Language: en
Country: null
--></g></svg>