<?xml version="1.0" encoding="UTF-8" standalone="no"?>
<!DOCTYPE svg PUBLIC "-//W3C//DTD SVG 1.1//EN"
 "http://www.w3.org/Graphics/SVG/1.1/DTD/svg11.dtd">
<!-- Generated by graphviz version 2.43.0 (0)
 -->
<!-- Title: com.teragrep.pth_06.task.s3.EpochMigrationRowConverter Pages: 1 -->
<svg width="433pt" height="86pt"
 viewBox="0.00 0.00 433.00 86.00" xmlns="http://www.w3.org/2000/svg" xmlns:xlink="http://www.w3.org/1999/xlink">
<g id="graph0" class="graph" transform="scale(1 1) rotate(0) translate(4 82)">
<title>com.teragrep.pth_06.task.s3.EpochMigrationRowConverter</title>
<!-- Node1 -->
<g id="Node000001" class="node">
<title>Node1</title>
<g id="a_Node000001"><a xlink:title=" ">
<polygon fill="#999999" stroke="#666666" points="425,-54 264,-54 264,-24 425,-24 425,-54"/>
<text text-anchor="start" x="272" y="-42" font-family="Helvetica,sans-Serif" font-size="10.00">com.teragrep.pth_06.task.s3.</text>
<text text-anchor="middle" x="344.5" y="-31" font-family="Helvetica,sans-Serif" font-size="10.00">EpochMigrationRowConverter</text>
</a>
</g>
</g>
<!-- Node2 -->
<g id="Node000002" class="node">
<title>Node2</title>
<g id="a_Node000002"><a xlink:href="interfacecom_1_1teragrep_1_1pth__06_1_1task_1_1s3_1_1RowConverter.html" target="_top" xlink:title=" ">
<polygon fill="white" stroke="#666666" points="159,-78 0,-78 0,-48 159,-48 159,-78"/>
<text text-anchor="start" x="8" y="-66" font-family="Helvetica,sans-Serif" font-size="10.00">com.teragrep.pth_06.task.s3.</text>
<text text-anchor="middle" x="79.5" y="-55" font-family="Helvetica,sans-Serif" font-size="10.00">RowConverter</text>
</a>
</g>
</g>
<!-- Node2&#45;&gt;Node1 -->
<g id="edge1_Node000001_Node000002" class="edge">
<title>Node2&#45;&gt;Node1</title>
<g id="a_edge1_Node000001_Node000002"><a xlink:title=" ">
<path fill="none" stroke="#63b8ff" d="M169.31,-54.9C199.97,-52.1 234.11,-48.98 263.99,-46.26"/>
<polygon fill="#63b8ff" stroke="#63b8ff" points="168.69,-51.44 159.05,-55.83 169.33,-58.41 168.69,-51.44"/>
</a>
</g>
</g>
<!-- Node3 -->
<g id="Node000003" class="node">
<title>Node3</title>
<g id="a_Node000003"><a xlink:title=" ">
<polygon fill="white" stroke="#666666" points="159,-30 0,-30 0,0 159,0 159,-30"/>
<text text-anchor="start" x="8" y="-18" font-family="Helvetica,sans-Serif" font-size="10.00">com.teragrep.pth_06.task.s3.</text>
<text text-anchor="middle" x="79.5" y="-7" font-family="Helvetica,sans-Serif" font-size="10.00">EpochMigrationRawEnvelope</text>
</a>
</g>
</g>
<!-- Node3&#45;&gt;Node1 -->
<g id="edge2_Node000001_Node000003" class="edge">
<title>Node3&#45;&gt;Node1</title>
<g id="a_edge2_Node000001_Node000003"><a xlink:title=" ">
<path fill="none" stroke="#9a32cd" stroke-dasharray="5,2" d="M169.31,-23.1C199.97,-25.9 234.11,-29.02 263.99,-31.74"/>
<polygon fill="#9a32cd" stroke="#9a32cd" points="169.33,-19.59 159.05,-22.17 168.69,-26.56 169.33,-19.59"/>
</a>
</g>
<text text-anchor="middle" x="211.5" y="-32" font-family="Helvetica,sans-Serif" font-size="10.00" fill="grey"> jsonEnvelope</text>
</g>
</g>
</svg>
