<?xml version="1.0" encoding="UTF-8" standalone="no"?>
<!DOCTYPE svg PUBLIC "-//W3C//DTD SVG 1.1//EN"
 "http://www.w3.org/Graphics/SVG/1.1/DTD/svg11.dtd">
<!-- Generated by graphviz version 2.43.0 (0)
 -->
<!-- Title: com.teragrep.pth_06.planner.MockDBRow.uncompressedFilesize Pages: 1 -->
<svg width="690pt" height="162pt"
 viewBox="0.00 0.00 690.00 162.00" xmlns="http://www.w3.org/2000/svg" xmlns:xlink="http://www.w3.org/1999/xlink">
<g id="graph0" class="graph" transform="scale(1 1) rotate(0) translate(4 158)">
<title>com.teragrep.pth_06.planner.MockDBRow.uncompressedFilesize</title>
<!-- Node1 -->
<g id="Node000001" class="node">
<title>Node1</title>
<g id="a_Node000001"><a xlink:title=" ">
<polygon fill="#999999" stroke="#666666" points="682,-94.5 494,-94.5 494,-64.5 682,-64.5 682,-94.5"/>
<text text-anchor="start" x="502" y="-82.5" font-family="Helvetica,sans-Serif" font-size="10.00">com.teragrep.pth_06.planner.</text>
<text text-anchor="middle" x="588" y="-71.5" font-family="Helvetica,sans-Serif" font-size="10.00">MockDBRow.uncompressedFilesize</text>
</a>
</g>
</g>
<!-- Node2 -->
<g id="Node000002" class="node">
<title>Node2</title>
<g id="a_Node000002"><a xlink:href="classcom_1_1teragrep_1_1pth__06_1_1planner_1_1RecordableMockDBRow.html#a5d01e7e5a34afbe40f547160e6cfe0cb" target="_top" xlink:title=" ">
<polygon fill="white" stroke="#666666" points="435,-148.5 255,-148.5 255,-118.5 435,-118.5 435,-148.5"/>
<text text-anchor="start" x="263" y="-136.5" font-family="Helvetica,sans-Serif" font-size="10.00">com.teragrep.pth_06.planner.</text>
<text text-anchor="middle" x="345" y="-125.5" font-family="Helvetica,sans-Serif" font-size="10.00">RecordableMockDBRow.asRecord</text>
</a>
</g>
</g>
<!-- Node1&#45;&gt;Node2 -->
<g id="edge1_Node000001_Node000002" class="edge">
<title>Node1&#45;&gt;Node2</title>
<g id="a_edge1_Node000001_Node000002"><a xlink:title=" ">
<path fill="none" stroke="#63b8ff" d="M513.48,-96.83C495.36,-101.04 475.99,-105.48 458,-109.5 444.8,-112.45 430.71,-115.52 417.14,-118.45"/>
<polygon fill="#63b8ff" stroke="#63b8ff" points="514.46,-100.2 523.4,-94.52 512.87,-93.38 514.46,-100.2"/>
</a>
</g>
</g>
<!-- Node4 -->
<g id="Node000004" class="node">
<title>Node4</title>
<g id="a_Node000004"><a xlink:href="classcom_1_1teragrep_1_1pth__06_1_1planner_1_1MockDBNonSyslogRowImpl.html#a8a76de73128b718af437bedd9317b230" target="_top" xlink:title=" ">
<polygon fill="white" stroke="#666666" points="458,-100 232,-100 232,-59 458,-59 458,-100"/>
<text text-anchor="start" x="240" y="-88" font-family="Helvetica,sans-Serif" font-size="10.00">com.teragrep.pth_06.planner.</text>
<text text-anchor="start" x="240" y="-77" font-family="Helvetica,sans-Serif" font-size="10.00">MockDBNonSyslogRowImpl.uncompressed</text>
<text text-anchor="middle" x="345" y="-66" font-family="Helvetica,sans-Serif" font-size="10.00">Filesize</text>
</a>
</g>
</g>
<!-- Node1&#45;&gt;Node4 -->
<g id="edge3_Node000001_Node000004" class="edge">
<title>Node1&#45;&gt;Node4</title>
<g id="a_edge3_Node000001_Node000004"><a xlink:title=" ">
<path fill="none" stroke="#63b8ff" d="M483.64,-79.5C475.23,-79.5 466.71,-79.5 458.24,-79.5"/>
<polygon fill="#63b8ff" stroke="#63b8ff" points="483.82,-83 493.82,-79.5 483.82,-76 483.82,-83"/>
</a>
</g>
</g>
<!-- Node5 -->
<g id="Node000005" class="node">
<title>Node5</title>
<g id="a_Node000005"><a xlink:href="classcom_1_1teragrep_1_1pth__06_1_1planner_1_1RecordableMockDBRow.html#a34b1513d8cffaa3b3790a5fd8b361334" target="_top" xlink:title=" ">
<polygon fill="white" stroke="#666666" points="448,-41 242,-41 242,0 448,0 448,-41"/>
<text text-anchor="start" x="250" y="-29" font-family="Helvetica,sans-Serif" font-size="10.00">com.teragrep.pth_06.planner.</text>
<text text-anchor="start" x="250" y="-18" font-family="Helvetica,sans-Serif" font-size="10.00">RecordableMockDBRow.uncompressed</text>
<text text-anchor="middle" x="345" y="-7" font-family="Helvetica,sans-Serif" font-size="10.00">Filesize</text>
</a>
</g>
</g>
<!-- Node1&#45;&gt;Node5 -->
<g id="edge4_Node000001_Node000005" class="edge">
<title>Node1&#45;&gt;Node5</title>
<g id="a_edge4_Node000001_Node000005"><a xlink:title=" ">
<path fill="none" stroke="#63b8ff" d="M515.84,-62.08C488.93,-55.49 458.04,-47.93 430.06,-41.08"/>
<polygon fill="#63b8ff" stroke="#63b8ff" points="515.02,-65.48 525.56,-64.46 516.68,-58.68 515.02,-65.48"/>
</a>
</g>
</g>
<!-- Node3 -->
<g id="Node000003" class="node">
<title>Node3</title>
<g id="a_Node000003"><a xlink:href="classcom_1_1teragrep_1_1pth__06_1_1planner_1_1MockArchiveQueryProcessor.html#a50946d3d03b029b854379437ce092d6e" target="_top" xlink:title=" ">
<polygon fill="white" stroke="#666666" points="196,-154 0,-154 0,-113 196,-113 196,-154"/>
<text text-anchor="start" x="8" y="-142" font-family="Helvetica,sans-Serif" font-size="10.00">com.teragrep.pth_06.planner.</text>
<text text-anchor="start" x="8" y="-131" font-family="Helvetica,sans-Serif" font-size="10.00">MockArchiveQueryProcessor.process</text>
<text text-anchor="middle" x="98" y="-120" font-family="Helvetica,sans-Serif" font-size="10.00">BetweenUnixEpochHours</text>
</a>
</g>
</g>
<!-- Node2&#45;&gt;Node3 -->
<g id="edge2_Node000002_Node000003" class="edge">
<title>Node2&#45;&gt;Node3</title>
<g id="a_edge2_Node000002_Node000003"><a xlink:title=" ">
<path fill="none" stroke="#63b8ff" d="M244.5,-133.5C228.61,-133.5 212.19,-133.5 196.35,-133.5"/>
<polygon fill="#63b8ff" stroke="#63b8ff" points="244.86,-137 254.86,-133.5 244.86,-130 244.86,-137"/>
</a>
</g>
</g>
</g>
</svg>
