<?xml version="1.0" encoding="UTF-8" standalone="no"?>
<!DOCTYPE svg PUBLIC "-//W3C//DTD SVG 1.1//EN"
 "http://www.w3.org/Graphics/SVG/1.1/DTD/svg11.dtd">
<!-- Generated by graphviz version 2.43.0 (0)
 -->
<!-- Title: com.teragrep.pth_06.planner.MockDBRow.bucket Pages: 1 -->
<svg width="623pt" height="140pt"
 viewBox="0.00 0.00 623.00 139.50" xmlns="http://www.w3.org/2000/svg" xmlns:xlink="http://www.w3.org/1999/xlink">
<g id="graph0" class="graph" transform="scale(1 1) rotate(0) translate(4 135.5)">
<title>com.teragrep.pth_06.planner.MockDBRow.bucket</title>
<!-- Node1 -->
<g id="Node000001" class="node">
<title>Node1</title>
<g id="a_Node000001"><a xlink:title=" ">
<polygon fill="#999999" stroke="#666666" points="615,-78 455,-78 455,-48 615,-48 615,-78"/>
<text text-anchor="start" x="463" y="-66" font-family="Helvetica,sans-Serif" font-size="10.00">com.teragrep.pth_06.planner.</text>
<text text-anchor="middle" x="535" y="-55" font-family="Helvetica,sans-Serif" font-size="10.00">MockDBRow.bucket</text>
</a>
</g>
</g>
<!-- Node2 -->
<g id="Node000002" class="node">
<title>Node2</title>
<g id="a_Node000002"><a xlink:href="classcom_1_1teragrep_1_1pth__06_1_1planner_1_1RecordableMockDBRow.html#a5d01e7e5a34afbe40f547160e6cfe0cb" target="_top" xlink:title=" ">
<polygon fill="white" stroke="#666666" points="415.5,-126 235.5,-126 235.5,-96 415.5,-96 415.5,-126"/>
<text text-anchor="start" x="243.5" y="-114" font-family="Helvetica,sans-Serif" font-size="10.00">com.teragrep.pth_06.planner.</text>
<text text-anchor="middle" x="325.5" y="-103" font-family="Helvetica,sans-Serif" font-size="10.00">RecordableMockDBRow.asRecord</text>
</a>
</g>
</g>
<!-- Node1&#45;&gt;Node2 -->
<g id="edge1_Node000001_Node000002" class="edge">
<title>Node1&#45;&gt;Node2</title>
<g id="a_edge1_Node000001_Node000002"><a xlink:title=" ">
<path fill="none" stroke="#63b8ff" d="M458.9,-80.37C436.78,-85.49 412.77,-91.04 391.35,-96"/>
<polygon fill="#63b8ff" stroke="#63b8ff" points="459.96,-83.72 468.92,-78.06 458.38,-76.9 459.96,-83.72"/>
</a>
</g>
</g>
<!-- Node4 -->
<g id="Node000004" class="node">
<title>Node4</title>
<g id="a_Node000004"><a xlink:href="classcom_1_1teragrep_1_1pth__06_1_1planner_1_1MockDBNonSyslogRowImpl.html#a679355d0bacb9680f68108a6b8dff67d" target="_top" xlink:title=" ">
<polygon fill="white" stroke="#666666" points="419,-78 232,-78 232,-48 419,-48 419,-78"/>
<text text-anchor="start" x="240" y="-66" font-family="Helvetica,sans-Serif" font-size="10.00">com.teragrep.pth_06.planner.</text>
<text text-anchor="middle" x="325.5" y="-55" font-family="Helvetica,sans-Serif" font-size="10.00">MockDBNonSyslogRowImpl.bucket</text>
</a>
</g>
</g>
<!-- Node1&#45;&gt;Node4 -->
<g id="edge3_Node000001_Node000004" class="edge">
<title>Node1&#45;&gt;Node4</title>
<g id="a_edge3_Node000001_Node000004"><a xlink:title=" ">
<path fill="none" stroke="#63b8ff" d="M444.73,-63C436.29,-63 427.7,-63 419.22,-63"/>
<polygon fill="#63b8ff" stroke="#63b8ff" points="444.96,-66.5 454.96,-63 444.96,-59.5 444.96,-66.5"/>
</a>
</g>
</g>
<!-- Node5 -->
<g id="Node000005" class="node">
<title>Node5</title>
<g id="a_Node000005"><a xlink:href="classcom_1_1teragrep_1_1pth__06_1_1planner_1_1RecordableMockDBRow.html#a0490ac9a880be966c96204605aa0fade" target="_top" xlink:title=" ">
<polygon fill="white" stroke="#666666" points="409,-30 242,-30 242,0 409,0 409,-30"/>
<text text-anchor="start" x="250" y="-18" font-family="Helvetica,sans-Serif" font-size="10.00">com.teragrep.pth_06.planner.</text>
<text text-anchor="middle" x="325.5" y="-7" font-family="Helvetica,sans-Serif" font-size="10.00">RecordableMockDBRow.bucket</text>
</a>
</g>
</g>
<!-- Node1&#45;&gt;Node5 -->
<g id="edge4_Node000001_Node000005" class="edge">
<title>Node1&#45;&gt;Node5</title>
<g id="a_edge4_Node000001_Node000005"><a xlink:title=" ">
<path fill="none" stroke="#63b8ff" d="M458.9,-45.63C436.78,-40.51 412.77,-34.96 391.35,-30"/>
<polygon fill="#63b8ff" stroke="#63b8ff" points="458.38,-49.1 468.92,-47.94 459.96,-42.28 458.38,-49.1"/>
</a>
</g>
</g>
<!-- Node3 -->
<g id="Node000003" class="node">
<title>Node3</title>
<g id="a_Node000003"><a xlink:href="classcom_1_1teragrep_1_1pth__06_1_1planner_1_1MockArchiveQueryProcessor.html#a50946d3d03b029b854379437ce092d6e" target="_top" xlink:title=" ">
<polygon fill="white" stroke="#666666" points="196,-131.5 0,-131.5 0,-90.5 196,-90.5 196,-131.5"/>
<text text-anchor="start" x="8" y="-119.5" font-family="Helvetica,sans-Serif" font-size="10.00">com.teragrep.pth_06.planner.</text>
<text text-anchor="start" x="8" y="-108.5" font-family="Helvetica,sans-Serif" font-size="10.00">MockArchiveQueryProcessor.process</text>
<text text-anchor="middle" x="98" y="-97.5" font-family="Helvetica,sans-Serif" font-size="10.00">BetweenUnixEpochHours</text>
</a>
</g>
</g>
<!-- Node2&#45;&gt;Node3 -->
<g id="edge2_Node000002_Node000003" class="edge">
<title>Node2&#45;&gt;Node3</title>
<g id="a_edge2_Node000002_Node000003"><a xlink:title=" ">
<path fill="none" stroke="#63b8ff" d="M225.3,-111C215.58,-111 205.72,-111 196.02,-111"/>
<polygon fill="#63b8ff" stroke="#63b8ff" points="225.38,-114.5 235.38,-111 225.38,-107.5 225.38,-114.5"/>
</a>
</g>
</g>
</g>
</svg>
