<?xml version="1.0" encoding="UTF-8" standalone="no"?>
<!DOCTYPE svg PUBLIC "-//W3C//DTD SVG 1.1//EN"
 "http://www.w3.org/Graphics/SVG/1.1/DTD/svg11.dtd">
<!-- Generated by graphviz version 2.43.0 (0)
 -->
<!-- Title: com.teragrep.pth_06.planner.MockDBRow.logtag Pages: 1 -->
<svg width="621pt" height="140pt"
 viewBox="0.00 0.00 621.00 139.50" xmlns="http://www.w3.org/2000/svg" xmlns:xlink="http://www.w3.org/1999/xlink">
<g id="graph0" class="graph" transform="scale(1 1) rotate(0) translate(4 135.5)">
<title>com.teragrep.pth_06.planner.MockDBRow.logtag</title>
<!-- Node1 -->
<g id="Node000001" class="node">
<title>Node1</title>
<g id="a_Node000001"><a xlink:title=" ">
<polygon fill="#999999" stroke="#666666" points="613,-78 453,-78 453,-48 613,-48 613,-78"/>
<text text-anchor="start" x="461" y="-66" font-family="Helvetica,sans-Serif" font-size="10.00">com.teragrep.pth_06.planner.</text>
<text text-anchor="middle" x="533" y="-55" font-family="Helvetica,sans-Serif" font-size="10.00">MockDBRow.logtag</text>
</a>
</g>
</g>
<!-- Node2 -->
<g id="Node000002" class="node">
<title>Node2</title>
<g id="a_Node000002"><a xlink:href="classcom_1_1teragrep_1_1pth__06_1_1planner_1_1RecordableMockDBRow.html#a5d01e7e5a34afbe40f547160e6cfe0cb" target="_top" xlink:title=" ">
<polygon fill="white" stroke="#666666" points="414.5,-126 234.5,-126 234.5,-96 414.5,-96 414.5,-126"/>
<text text-anchor="start" x="242.5" y="-114" font-family="Helvetica,sans-Serif" font-size="10.00">com.teragrep.pth_06.planner.</text>
<text text-anchor="middle" x="324.5" y="-103" font-family="Helvetica,sans-Serif" font-size="10.00">RecordableMockDBRow.asRecord</text>
</a>
</g>
</g>
<!-- Node1&#45;&gt;Node2 -->
<g id="edge1_Node000001_Node000002" class="edge">
<title>Node1&#45;&gt;Node2</title>
<g id="a_edge1_Node000001_Node000002"><a xlink:title=" ">
<path fill="none" stroke="#63b8ff" d="M457.26,-80.37C435.25,-85.49 411.36,-91.04 390.04,-96"/>
<polygon fill="#63b8ff" stroke="#63b8ff" points="458.28,-83.73 467.23,-78.06 456.7,-76.91 458.28,-83.73"/>
</a>
</g>
</g>
<!-- Node4 -->
<g id="Node000004" class="node">
<title>Node4</title>
<g id="a_Node000004"><a xlink:href="classcom_1_1teragrep_1_1pth__06_1_1planner_1_1MockDBNonSyslogRowImpl.html#a185b85616027c6390a69992bfcbffbe1" target="_top" xlink:title=" ">
<polygon fill="white" stroke="#666666" points="417,-78 232,-78 232,-48 417,-48 417,-78"/>
<text text-anchor="start" x="240" y="-66" font-family="Helvetica,sans-Serif" font-size="10.00">com.teragrep.pth_06.planner.</text>
<text text-anchor="middle" x="324.5" y="-55" font-family="Helvetica,sans-Serif" font-size="10.00">MockDBNonSyslogRowImpl.logtag</text>
</a>
</g>
</g>
<!-- Node1&#45;&gt;Node4 -->
<g id="edge3_Node000001_Node000004" class="edge">
<title>Node1&#45;&gt;Node4</title>
<g id="a_edge3_Node000001_Node000004"><a xlink:title=" ">
<path fill="none" stroke="#63b8ff" d="M442.6,-63C434.21,-63 425.7,-63 417.3,-63"/>
<polygon fill="#63b8ff" stroke="#63b8ff" points="442.75,-66.5 452.75,-63 442.75,-59.5 442.75,-66.5"/>
</a>
</g>
</g>
<!-- Node5 -->
<g id="Node000005" class="node">
<title>Node5</title>
<g id="a_Node000005"><a xlink:href="classcom_1_1teragrep_1_1pth__06_1_1planner_1_1RecordableMockDBRow.html#af2b8ab45253a23a3d968eb7f4b72962a" target="_top" xlink:title=" ">
<polygon fill="white" stroke="#666666" points="407.5,-30 241.5,-30 241.5,0 407.5,0 407.5,-30"/>
<text text-anchor="start" x="249.5" y="-18" font-family="Helvetica,sans-Serif" font-size="10.00">com.teragrep.pth_06.planner.</text>
<text text-anchor="middle" x="324.5" y="-7" font-family="Helvetica,sans-Serif" font-size="10.00">RecordableMockDBRow.logtag</text>
</a>
</g>
</g>
<!-- Node1&#45;&gt;Node5 -->
<g id="edge4_Node000001_Node000005" class="edge">
<title>Node1&#45;&gt;Node5</title>
<g id="a_edge4_Node000001_Node000005"><a xlink:title=" ">
<path fill="none" stroke="#63b8ff" d="M457.26,-45.63C435.25,-40.51 411.36,-34.96 390.04,-30"/>
<polygon fill="#63b8ff" stroke="#63b8ff" points="456.7,-49.09 467.23,-47.94 458.28,-42.27 456.7,-49.09"/>
</a>
</g>
</g>
<!-- Node3 -->
<g id="Node000003" class="node">
<title>Node3</title>
<g id="a_Node000003"><a xlink:href="classcom_1_1teragrep_1_1pth__06_1_1planner_1_1MockArchiveQueryProcessor.html#a50946d3d03b029b854379437ce092d6e" target="_top" xlink:title=" ">
<polygon fill="white" stroke="#666666" points="196,-131.5 0,-131.5 0,-90.5 196,-90.5 196,-131.5"/>
<text text-anchor="start" x="8" y="-119.5" font-family="Helvetica,sans-Serif" font-size="10.00">com.teragrep.pth_06.planner.</text>
<text text-anchor="start" x="8" y="-108.5" font-family="Helvetica,sans-Serif" font-size="10.00">MockArchiveQueryProcessor.process</text>
<text text-anchor="middle" x="98" y="-97.5" font-family="Helvetica,sans-Serif" font-size="10.00">BetweenUnixEpochHours</text>
</a>
</g>
</g>
<!-- Node2&#45;&gt;Node3 -->
<g id="edge2_Node000002_Node000003" class="edge">
<title>Node2&#45;&gt;Node3</title>
<g id="a_edge2_Node000002_Node000003"><a xlink:title=" ">
<path fill="none" stroke="#63b8ff" d="M224.33,-111C214.94,-111 205.44,-111 196.07,-111"/>
<polygon fill="#63b8ff" stroke="#63b8ff" points="224.45,-114.5 234.45,-111 224.45,-107.5 224.45,-114.5"/>
</a>
</g>
</g>
</g>
</svg>
