<?xml version="1.0" encoding="UTF-8" standalone="no"?>
<!DOCTYPE svg PUBLIC "-//W3C//DTD SVG 1.1//EN"
 "http://www.w3.org/Graphics/SVG/1.1/DTD/svg11.dtd">
<!-- Generated by graphviz version 2.43.0 (0)
 -->
<!-- Title: com.teragrep.pth_06.planner.MockDBRow.directory Pages: 1 -->
<svg width="634pt" height="140pt"
 viewBox="0.00 0.00 634.00 139.50" xmlns="http://www.w3.org/2000/svg" xmlns:xlink="http://www.w3.org/1999/xlink">
<g id="graph0" class="graph" transform="scale(1 1) rotate(0) translate(4 135.5)">
<title>com.teragrep.pth_06.planner.MockDBRow.directory</title>
<!-- Node1 -->
<g id="Node000001" class="node">
<title>Node1</title>
<g id="a_Node000001"><a xlink:title=" ">
<polygon fill="#999999" stroke="#666666" points="626,-78 466,-78 466,-48 626,-48 626,-78"/>
<text text-anchor="start" x="474" y="-66" font-family="Helvetica,sans-Serif" font-size="10.00">com.teragrep.pth_06.planner.</text>
<text text-anchor="middle" x="546" y="-55" font-family="Helvetica,sans-Serif" font-size="10.00">MockDBRow.directory</text>
</a>
</g>
</g>
<!-- Node2 -->
<g id="Node000002" class="node">
<title>Node2</title>
<g id="a_Node000002"><a xlink:href="classcom_1_1teragrep_1_1pth__06_1_1planner_1_1RecordableMockDBRow.html#a5d01e7e5a34afbe40f547160e6cfe0cb" target="_top" xlink:title=" ">
<polygon fill="white" stroke="#666666" points="421,-126 241,-126 241,-96 421,-96 421,-126"/>
<text text-anchor="start" x="249" y="-114" font-family="Helvetica,sans-Serif" font-size="10.00">com.teragrep.pth_06.planner.</text>
<text text-anchor="middle" x="331" y="-103" font-family="Helvetica,sans-Serif" font-size="10.00">RecordableMockDBRow.asRecord</text>
</a>
</g>
</g>
<!-- Node1&#45;&gt;Node2 -->
<g id="edge1_Node000001_Node000002" class="edge">
<title>Node1&#45;&gt;Node2</title>
<g id="a_edge1_Node000001_Node000002"><a xlink:title=" ">
<path fill="none" stroke="#63b8ff" d="M468.22,-80.3C445.42,-85.44 420.66,-91.02 398.57,-96"/>
<polygon fill="#63b8ff" stroke="#63b8ff" points="469.2,-83.67 478.19,-78.06 467.67,-76.84 469.2,-83.67"/>
</a>
</g>
</g>
<!-- Node4 -->
<g id="Node000004" class="node">
<title>Node4</title>
<g id="a_Node000004"><a xlink:href="classcom_1_1teragrep_1_1pth__06_1_1planner_1_1MockDBNonSyslogRowImpl.html#a982a98afec9e5df1da645d8954256ab6" target="_top" xlink:title=" ">
<polygon fill="white" stroke="#666666" points="430,-78 232,-78 232,-48 430,-48 430,-78"/>
<text text-anchor="start" x="240" y="-66" font-family="Helvetica,sans-Serif" font-size="10.00">com.teragrep.pth_06.planner.</text>
<text text-anchor="middle" x="331" y="-55" font-family="Helvetica,sans-Serif" font-size="10.00">MockDBNonSyslogRowImpl.directory</text>
</a>
</g>
</g>
<!-- Node1&#45;&gt;Node4 -->
<g id="edge3_Node000001_Node000004" class="edge">
<title>Node1&#45;&gt;Node4</title>
<g id="a_edge3_Node000001_Node000004"><a xlink:title=" ">
<path fill="none" stroke="#63b8ff" d="M455.72,-63C447.23,-63 438.59,-63 430.02,-63"/>
<polygon fill="#63b8ff" stroke="#63b8ff" points="455.99,-66.5 465.99,-63 455.99,-59.5 455.99,-66.5"/>
</a>
</g>
</g>
<!-- Node5 -->
<g id="Node000005" class="node">
<title>Node5</title>
<g id="a_Node000005"><a xlink:href="classcom_1_1teragrep_1_1pth__06_1_1planner_1_1RecordableMockDBRow.html#a28f751473f5d5a3e12dc9f38ccefd618" target="_top" xlink:title=" ">
<polygon fill="white" stroke="#666666" points="420.5,-30 241.5,-30 241.5,0 420.5,0 420.5,-30"/>
<text text-anchor="start" x="249.5" y="-18" font-family="Helvetica,sans-Serif" font-size="10.00">com.teragrep.pth_06.planner.</text>
<text text-anchor="middle" x="331" y="-7" font-family="Helvetica,sans-Serif" font-size="10.00">RecordableMockDBRow.directory</text>
</a>
</g>
</g>
<!-- Node1&#45;&gt;Node5 -->
<g id="edge4_Node000001_Node000005" class="edge">
<title>Node1&#45;&gt;Node5</title>
<g id="a_edge4_Node000001_Node000005"><a xlink:title=" ">
<path fill="none" stroke="#63b8ff" d="M468.22,-45.7C445.42,-40.56 420.66,-34.98 398.57,-30"/>
<polygon fill="#63b8ff" stroke="#63b8ff" points="467.67,-49.16 478.19,-47.94 469.2,-42.33 467.67,-49.16"/>
</a>
</g>
</g>
<!-- Node3 -->
<g id="Node000003" class="node">
<title>Node3</title>
<g id="a_Node000003"><a xlink:href="classcom_1_1teragrep_1_1pth__06_1_1planner_1_1MockArchiveQueryProcessor.html#a50946d3d03b029b854379437ce092d6e" target="_top" xlink:title=" ">
<polygon fill="white" stroke="#666666" points="196,-131.5 0,-131.5 0,-90.5 196,-90.5 196,-131.5"/>
<text text-anchor="start" x="8" y="-119.5" font-family="Helvetica,sans-Serif" font-size="10.00">com.teragrep.pth_06.planner.</text>
<text text-anchor="start" x="8" y="-108.5" font-family="Helvetica,sans-Serif" font-size="10.00">MockArchiveQueryProcessor.process</text>
<text text-anchor="middle" x="98" y="-97.5" font-family="Helvetica,sans-Serif" font-size="10.00">BetweenUnixEpochHours</text>
</a>
</g>
</g>
<!-- Node2&#45;&gt;Node3 -->
<g id="edge2_Node000002_Node000003" class="edge">
<title>Node2&#45;&gt;Node3</title>
<g id="a_edge2_Node000002_Node000003"><a xlink:title=" ">
<path fill="none" stroke="#63b8ff" d="M230.69,-111C219.23,-111 207.55,-111 196.12,-111"/>
<polygon fill="#63b8ff" stroke="#63b8ff" points="230.69,-114.5 240.69,-111 230.69,-107.5 230.69,-114.5"/>
</a>
</g>
</g>
</g>
</svg>
