<?xml version="1.0" encoding="UTF-8" standalone="no"?>
<!DOCTYPE svg PUBLIC "-//W3C//DTD SVG 1.1//EN"
 "http://www.w3.org/Graphics/SVG/1.1/DTD/svg11.dtd">
<!-- Generated by graphviz version 2.43.0 (0)
 -->
<!-- Title: com.teragrep.pth_06.planner.MockDBRow.logtime Pages: 1 -->
<svg width="644pt" height="307pt"
 viewBox="0.00 0.00 644.00 306.50" xmlns="http://www.w3.org/2000/svg" xmlns:xlink="http://www.w3.org/1999/xlink">
<g id="graph0" class="graph" transform="scale(1 1) rotate(0) translate(4 302.5)">
<title>com.teragrep.pth_06.planner.MockDBRow.logtime</title>
<!-- Node1 -->
<g id="Node000001" class="node">
<title>Node1</title>
<g id="a_Node000001"><a xlink:title=" ">
<polygon fill="#999999" stroke="#666666" points="636,-153 476,-153 476,-123 636,-123 636,-153"/>
<text text-anchor="start" x="484" y="-141" font-family="Helvetica,sans-Serif" font-size="10.00">com.teragrep.pth_06.planner.</text>
<text text-anchor="middle" x="556" y="-130" font-family="Helvetica,sans-Serif" font-size="10.00">MockDBRow.logtime</text>
</a>
</g>
</g>
<!-- Node2 -->
<g id="Node000002" class="node">
<title>Node2</title>
<g id="a_Node000002"><a xlink:href="classcom_1_1teragrep_1_1pth__06_1_1planner_1_1RecordableMockDBRow.html#a5d01e7e5a34afbe40f547160e6cfe0cb" target="_top" xlink:title=" ">
<polygon fill="white" stroke="#666666" points="426,-293 246,-293 246,-263 426,-263 426,-293"/>
<text text-anchor="start" x="254" y="-281" font-family="Helvetica,sans-Serif" font-size="10.00">com.teragrep.pth_06.planner.</text>
<text text-anchor="middle" x="336" y="-270" font-family="Helvetica,sans-Serif" font-size="10.00">RecordableMockDBRow.asRecord</text>
</a>
</g>
</g>
<!-- Node1&#45;&gt;Node2 -->
<g id="edge1_Node000001_Node000002" class="edge">
<title>Node1&#45;&gt;Node2</title>
<g id="a_edge1_Node000001_Node000002"><a xlink:title=" ">
<path fill="none" stroke="#63b8ff" d="M538.32,-161.46C518.13,-188.07 481.6,-230.77 440,-254 433.83,-257.45 427.18,-260.4 420.35,-262.93"/>
<polygon fill="#63b8ff" stroke="#63b8ff" points="541.38,-163.22 544.53,-153.1 535.76,-159.04 541.38,-163.22"/>
</a>
</g>
</g>
<!-- Node4 -->
<g id="Node000004" class="node">
<title>Node4</title>
<g id="a_Node000004"><a xlink:href="classcom_1_1teragrep_1_1pth__06_1_1planner_1_1MockArchiveQueryProcessor.html#a12c256d6ac85464e14dc686b8f062262" target="_top" xlink:title=" ">
<polygon fill="white" stroke="#666666" points="437,-244.5 235,-244.5 235,-203.5 437,-203.5 437,-244.5"/>
<text text-anchor="start" x="243" y="-232.5" font-family="Helvetica,sans-Serif" font-size="10.00">com.teragrep.pth_06.planner.</text>
<text text-anchor="start" x="243" y="-221.5" font-family="Helvetica,sans-Serif" font-size="10.00">MockArchiveQueryProcessor.getInitial</text>
<text text-anchor="middle" x="336" y="-210.5" font-family="Helvetica,sans-Serif" font-size="10.00">Offset</text>
</a>
</g>
</g>
<!-- Node1&#45;&gt;Node4 -->
<g id="edge3_Node000001_Node000004" class="edge">
<title>Node1&#45;&gt;Node4</title>
<g id="a_edge3_Node000001_Node000004"><a xlink:title=" ">
<path fill="none" stroke="#63b8ff" d="M519.13,-157.93C496.83,-169.78 467.3,-184.5 440,-195 432.2,-198 423.96,-200.84 415.67,-203.49"/>
<polygon fill="#63b8ff" stroke="#63b8ff" points="521.07,-160.87 528.22,-153.05 517.76,-154.7 521.07,-160.87"/>
</a>
</g>
</g>
<!-- Node5 -->
<g id="Node000005" class="node">
<title>Node5</title>
<g id="a_Node000005"><a xlink:href="classcom_1_1teragrep_1_1pth__06_1_1planner_1_1MockArchiveQueryProcessor.html#a6dae3696a6814f110950cec3542f554e" target="_top" xlink:title=" ">
<polygon fill="white" stroke="#666666" points="440,-185.5 232,-185.5 232,-144.5 440,-144.5 440,-185.5"/>
<text text-anchor="start" x="240" y="-173.5" font-family="Helvetica,sans-Serif" font-size="10.00">com.teragrep.pth_06.planner.</text>
<text text-anchor="start" x="240" y="-162.5" font-family="Helvetica,sans-Serif" font-size="10.00">MockArchiveQueryProcessor.increment</text>
<text text-anchor="middle" x="336" y="-151.5" font-family="Helvetica,sans-Serif" font-size="10.00">AndGetLatestOffset</text>
</a>
</g>
</g>
<!-- Node1&#45;&gt;Node5 -->
<g id="edge4_Node000001_Node000005" class="edge">
<title>Node1&#45;&gt;Node5</title>
<g id="a_edge4_Node000001_Node000005"><a xlink:title=" ">
<path fill="none" stroke="#63b8ff" d="M465.84,-149.04C457.45,-150.08 448.89,-151.14 440.37,-152.2"/>
<polygon fill="#63b8ff" stroke="#63b8ff" points="466.49,-152.49 475.99,-147.79 465.63,-145.54 466.49,-152.49"/>
</a>
</g>
</g>
<!-- Node6 -->
<g id="Node000006" class="node">
<title>Node6</title>
<g id="a_Node000006"><a xlink:href="classcom_1_1teragrep_1_1pth__06_1_1planner_1_1MockDBNonSyslogRowImpl.html#aa10bdfa680be146ebbe5fdc5322da556" target="_top" xlink:title=" ">
<polygon fill="white" stroke="#666666" points="432,-126 240,-126 240,-96 432,-96 432,-126"/>
<text text-anchor="start" x="248" y="-114" font-family="Helvetica,sans-Serif" font-size="10.00">com.teragrep.pth_06.planner.</text>
<text text-anchor="middle" x="336" y="-103" font-family="Helvetica,sans-Serif" font-size="10.00">MockDBNonSyslogRowImpl.logtime</text>
</a>
</g>
</g>
<!-- Node1&#45;&gt;Node6 -->
<g id="edge5_Node000001_Node000006" class="edge">
<title>Node1&#45;&gt;Node6</title>
<g id="a_edge5_Node000001_Node000006"><a xlink:title=" ">
<path fill="none" stroke="#63b8ff" d="M465.86,-126.96C454.72,-125.58 443.3,-124.17 432.08,-122.78"/>
<polygon fill="#63b8ff" stroke="#63b8ff" points="465.63,-130.46 475.99,-128.21 466.49,-123.51 465.63,-130.46"/>
</a>
</g>
</g>
<!-- Node7 -->
<g id="Node000007" class="node">
<title>Node7</title>
<g id="a_Node000007"><a xlink:href="classcom_1_1teragrep_1_1pth__06_1_1planner_1_1RecordableMockDBRow.html#a99cb801fd8aa979db79f53a17f8220b7" target="_top" xlink:title=" ">
<polygon fill="white" stroke="#666666" points="422.5,-78 249.5,-78 249.5,-48 422.5,-48 422.5,-78"/>
<text text-anchor="start" x="257.5" y="-66" font-family="Helvetica,sans-Serif" font-size="10.00">com.teragrep.pth_06.planner.</text>
<text text-anchor="middle" x="336" y="-55" font-family="Helvetica,sans-Serif" font-size="10.00">RecordableMockDBRow.logtime</text>
</a>
</g>
</g>
<!-- Node1&#45;&gt;Node7 -->
<g id="edge6_Node000001_Node000007" class="edge">
<title>Node1&#45;&gt;Node7</title>
<g id="a_edge6_Node000001_Node000007"><a xlink:title=" ">
<path fill="none" stroke="#63b8ff" d="M516.04,-118.52C494.11,-108.12 465.98,-95.7 440,-87 430.16,-83.71 419.65,-80.7 409.24,-78.01"/>
<polygon fill="#63b8ff" stroke="#63b8ff" points="514.82,-121.82 525.35,-122.99 517.85,-115.51 514.82,-121.82"/>
</a>
</g>
</g>
<!-- Node8 -->
<g id="Node000008" class="node">
<title>Node8</title>
<g id="a_Node000008"><a xlink:href="classcom_1_1teragrep_1_1pth__06_1_1planner_1_1SliceableMockDBRowSourceImpl.html#a44116ba8a3c333d801a6491ebb8592f1" target="_top" xlink:title=" ">
<polygon fill="white" stroke="#666666" points="437.5,-30 234.5,-30 234.5,0 437.5,0 437.5,-30"/>
<text text-anchor="start" x="242.5" y="-18" font-family="Helvetica,sans-Serif" font-size="10.00">com.teragrep.pth_06.planner.</text>
<text text-anchor="middle" x="336" y="-7" font-family="Helvetica,sans-Serif" font-size="10.00">SliceableMockDBRowSourceImpl.slice</text>
</a>
</g>
</g>
<!-- Node1&#45;&gt;Node8 -->
<g id="edge7_Node000001_Node000008" class="edge">
<title>Node1&#45;&gt;Node8</title>
<g id="a_edge7_Node000001_Node000008"><a xlink:title=" ">
<path fill="none" stroke="#63b8ff" d="M534.87,-115.16C513.56,-92.42 477.82,-58.2 440,-39 433.21,-35.55 425.91,-32.59 418.45,-30.05"/>
<polygon fill="#63b8ff" stroke="#63b8ff" points="532.45,-117.69 541.79,-122.68 537.6,-112.95 532.45,-117.69"/>
</a>
</g>
</g>
<!-- Node3 -->
<g id="Node000003" class="node">
<title>Node3</title>
<g id="a_Node000003"><a xlink:href="classcom_1_1teragrep_1_1pth__06_1_1planner_1_1MockArchiveQueryProcessor.html#a50946d3d03b029b854379437ce092d6e" target="_top" xlink:title=" ">
<polygon fill="white" stroke="#666666" points="196,-298.5 0,-298.5 0,-257.5 196,-257.5 196,-298.5"/>
<text text-anchor="start" x="8" y="-286.5" font-family="Helvetica,sans-Serif" font-size="10.00">com.teragrep.pth_06.planner.</text>
<text text-anchor="start" x="8" y="-275.5" font-family="Helvetica,sans-Serif" font-size="10.00">MockArchiveQueryProcessor.process</text>
<text text-anchor="middle" x="98" y="-264.5" font-family="Helvetica,sans-Serif" font-size="10.00">BetweenUnixEpochHours</text>
</a>
</g>
</g>
<!-- Node2&#45;&gt;Node3 -->
<g id="edge2_Node000002_Node000003" class="edge">
<title>Node2&#45;&gt;Node3</title>
<g id="a_edge2_Node000002_Node000003"><a xlink:title=" ">
<path fill="none" stroke="#63b8ff" d="M235.45,-278C222.46,-278 209.18,-278 196.24,-278"/>
<polygon fill="#63b8ff" stroke="#63b8ff" points="235.78,-281.5 245.78,-278 235.78,-274.5 235.78,-281.5"/>
</a>
</g>
</g>
</g>
</svg>
