<?xml version="1.0" encoding="UTF-8" standalone="no"?>
<!DOCTYPE svg PUBLIC "-//W3C//DTD SVG 1.1//EN"
 "http://www.w3.org/Graphics/SVG/1.1/DTD/svg11.dtd">
<!-- Generated by graphviz version 2.43.0 (0)
 -->
<!-- Title: com.teragrep.pth_06.ast.transform.OptimizedASTTest.testASTOptimization Pages: 1 -->
<svg width="1389pt" height="86pt"
 viewBox="0.00 0.00 1389.00 86.00" xmlns="http://www.w3.org/2000/svg" xmlns:xlink="http://www.w3.org/1999/xlink">
<g id="graph0" class="graph" transform="scale(1 1) rotate(0) translate(4 82)">
<title>com.teragrep.pth_06.ast.transform.OptimizedASTTest.testASTOptimization</title>
<!-- Node1 -->
<g id="Node000001" class="node">
<title>Node1</title>
<g id="a_Node000001"><a xlink:title=" ">
<polygon fill="#999999" stroke="#666666" points="209,-54 0,-54 0,-24 209,-24 209,-54"/>
<text text-anchor="start" x="8" y="-42" font-family="Helvetica,sans-Serif" font-size="10.00">com.teragrep.pth_06.ast.transform.</text>
<text text-anchor="middle" x="104.5" y="-31" font-family="Helvetica,sans-Serif" font-size="10.00">OptimizedASTTest.testASTOptimization</text>
</a>
</g>
</g>
<!-- Node2 -->
<g id="Node000002" class="node">
<title>Node2</title>
<g id="a_Node000002"><a xlink:href="classcom_1_1teragrep_1_1pth__06_1_1ast_1_1transform_1_1OptimizedAST.html#a05726d2699d7ade747e74de2140c6a41" target="_top" xlink:title=" ">
<polygon fill="white" stroke="#666666" points="435,-54 245,-54 245,-24 435,-24 435,-54"/>
<text text-anchor="start" x="253" y="-42" font-family="Helvetica,sans-Serif" font-size="10.00">com.teragrep.pth_06.ast.transform.</text>
<text text-anchor="middle" x="340" y="-31" font-family="Helvetica,sans-Serif" font-size="10.00">OptimizedAST.transformed</text>
</a>
</g>
</g>
<!-- Node1&#45;&gt;Node2 -->
<g id="edge1_Node000001_Node000002" class="edge">
<title>Node1&#45;&gt;Node2</title>
<g id="a_edge1_Node000001_Node000002"><a xlink:title=" ">
<path fill="none" stroke="#63b8ff" d="M209.28,-39C217.68,-39 226.17,-39 234.57,-39"/>
<polygon fill="#63b8ff" stroke="#63b8ff" points="234.77,-42.5 244.77,-39 234.77,-35.5 234.77,-42.5"/>
</a>
</g>
</g>
<!-- Node3 -->
<g id="Node000003" class="node">
<title>Node3</title>
<g id="a_Node000003"><a xlink:href="classcom_1_1teragrep_1_1pth__06_1_1ast_1_1transform_1_1OptimizedAST.html#ac4ebcab5c55182e969cd03150e96e374" target="_top" xlink:title=" ">
<polygon fill="white" stroke="#666666" points="661,-54 471,-54 471,-24 661,-24 661,-54"/>
<text text-anchor="start" x="479" y="-42" font-family="Helvetica,sans-Serif" font-size="10.00">com.teragrep.pth_06.ast.transform.</text>
<text text-anchor="middle" x="566" y="-31" font-family="Helvetica,sans-Serif" font-size="10.00">OptimizedAST.walkAndApply</text>
</a>
</g>
</g>
<!-- Node2&#45;&gt;Node3 -->
<g id="edge2_Node000002_Node000003" class="edge">
<title>Node2&#45;&gt;Node3</title>
<g id="a_edge2_Node000002_Node000003"><a xlink:title=" ">
<path fill="none" stroke="#63b8ff" d="M435.02,-39C443.54,-39 452.2,-39 460.8,-39"/>
<polygon fill="#63b8ff" stroke="#63b8ff" points="460.86,-42.5 470.86,-39 460.86,-35.5 460.86,-42.5"/>
</a>
</g>
</g>
<!-- Node3&#45;&gt;Node3 -->
<g id="edge8_Node000003_Node000003" class="edge">
<title>Node3&#45;&gt;Node3</title>
<g id="a_edge8_Node000003_Node000003"><a xlink:title=" ">
<path fill="none" stroke="#63b8ff" d="M526.27,-54.28C517.45,-63.41 530.69,-72 566,-72 586.97,-72 600.15,-68.97 605.56,-64.6"/>
<polygon fill="#63b8ff" stroke="#63b8ff" points="609.06,-64.33 605.73,-54.28 602.06,-64.22 609.06,-64.33"/>
</a>
</g>
</g>
<!-- Node4 -->
<g id="Node000004" class="node">
<title>Node4</title>
<g id="a_Node000004"><a xlink:href="classcom_1_1teragrep_1_1pth__06_1_1ast_1_1transform_1_1OptimizedAST.html#a77542c0b232d1e10e50a9846e1845b10" target="_top" xlink:title=" ">
<polygon fill="white" stroke="#666666" points="928,-54 697,-54 697,-24 928,-24 928,-54"/>
<text text-anchor="start" x="705" y="-42" font-family="Helvetica,sans-Serif" font-size="10.00">com.teragrep.pth_06.ast.transform.</text>
<text text-anchor="middle" x="812.5" y="-31" font-family="Helvetica,sans-Serif" font-size="10.00">OptimizedAST.transformedSingleExpression</text>
</a>
</g>
</g>
<!-- Node3&#45;&gt;Node4 -->
<g id="edge3_Node000003_Node000004" class="edge">
<title>Node3&#45;&gt;Node4</title>
<g id="a_edge3_Node000003_Node000004"><a xlink:title=" ">
<path fill="none" stroke="#63b8ff" d="M661.18,-39C669.59,-39 678.19,-39 686.81,-39"/>
<polygon fill="#63b8ff" stroke="#63b8ff" points="686.92,-42.5 696.92,-39 686.92,-35.5 686.92,-42.5"/>
</a>
</g>
</g>
<!-- Node5 -->
<g id="Node000005" class="node">
<title>Node5</title>
<g id="a_Node000005"><a xlink:href="classcom_1_1teragrep_1_1pth__06_1_1ast_1_1transform_1_1FlattenLogical.html#a2e1717ad6884eea7a2415aa7763eaed5" target="_top" xlink:title=" ">
<polygon fill="white" stroke="#666666" points="1154,-54 964,-54 964,-24 1154,-24 1154,-54"/>
<text text-anchor="start" x="972" y="-42" font-family="Helvetica,sans-Serif" font-size="10.00">com.teragrep.pth_06.ast.transform.</text>
<text text-anchor="middle" x="1059" y="-31" font-family="Helvetica,sans-Serif" font-size="10.00">FlattenLogical.transformed</text>
</a>
</g>
</g>
<!-- Node4&#45;&gt;Node5 -->
<g id="edge4_Node000004_Node000005" class="edge">
<title>Node4&#45;&gt;Node5</title>
<g id="a_edge4_Node000004_Node000005"><a xlink:title=" ">
<path fill="none" stroke="#63b8ff" d="M928.23,-39C936.7,-39 945.22,-39 953.62,-39"/>
<polygon fill="#63b8ff" stroke="#63b8ff" points="953.8,-42.5 963.8,-39 953.8,-35.5 953.8,-42.5"/>
</a>
</g>
</g>
<!-- Node5&#45;&gt;Node5 -->
<g id="edge7_Node000005_Node000005" class="edge">
<title>Node5&#45;&gt;Node5</title>
<g id="a_edge7_Node000005_Node000005"><a xlink:title=" ">
<path fill="none" stroke="#63b8ff" d="M1019.27,-54.28C1010.45,-63.41 1023.69,-72 1059,-72 1079.97,-72 1093.15,-68.97 1098.56,-64.6"/>
<polygon fill="#63b8ff" stroke="#63b8ff" points="1102.06,-64.33 1098.73,-54.28 1095.06,-64.22 1102.06,-64.33"/>
</a>
</g>
</g>
<!-- Node6 -->
<g id="Node000006" class="node">
<title>Node6</title>
<g id="a_Node000006"><a xlink:href="classcom_1_1teragrep_1_1pth__06_1_1ast_1_1transform_1_1FlattenLogical.html#a3b9085857dc57e88c58a6fa5a057f103" target="_top" xlink:title=" ">
<polygon fill="white" stroke="#666666" points="1381,-78 1190,-78 1190,-48 1381,-48 1381,-78"/>
<text text-anchor="start" x="1198" y="-66" font-family="Helvetica,sans-Serif" font-size="10.00">com.teragrep.pth_06.ast.transform.</text>
<text text-anchor="middle" x="1285.5" y="-55" font-family="Helvetica,sans-Serif" font-size="10.00">FlattenLogical.flattenedAndChildren</text>
</a>
</g>
</g>
<!-- Node5&#45;&gt;Node6 -->
<g id="edge5_Node000005_Node000006" class="edge">
<title>Node5&#45;&gt;Node6</title>
<g id="a_edge5_Node000005_Node000006"><a xlink:title=" ">
<path fill="none" stroke="#63b8ff" d="M1154.23,-49.07C1162.68,-49.98 1171.28,-50.9 1179.81,-51.81"/>
<polygon fill="#63b8ff" stroke="#63b8ff" points="1179.47,-55.29 1189.79,-52.87 1180.22,-48.33 1179.47,-55.29"/>
</a>
</g>
</g>
<!-- Node7 -->
<g id="Node000007" class="node">
<title>Node7</title>
<g id="a_Node000007"><a xlink:href="classcom_1_1teragrep_1_1pth__06_1_1ast_1_1transform_1_1FlattenLogical.html#ae0b8acc47ab74872494d07da365e303b" target="_top" xlink:title=" ">
<polygon fill="white" stroke="#666666" points="1380.5,-30 1190.5,-30 1190.5,0 1380.5,0 1380.5,-30"/>
<text text-anchor="start" x="1198.5" y="-18" font-family="Helvetica,sans-Serif" font-size="10.00">com.teragrep.pth_06.ast.transform.</text>
<text text-anchor="middle" x="1285.5" y="-7" font-family="Helvetica,sans-Serif" font-size="10.00">FlattenLogical.flattenedOrChildren</text>
</a>
</g>
</g>
<!-- Node5&#45;&gt;Node7 -->
<g id="edge6_Node000005_Node000007" class="edge">
<title>Node5&#45;&gt;Node7</title>
<g id="a_edge6_Node000005_Node000007"><a xlink:title=" ">
<path fill="none" stroke="#63b8ff" d="M1154.23,-28.93C1162.77,-28.01 1171.45,-27.09 1180.07,-26.16"/>
<polygon fill="#63b8ff" stroke="#63b8ff" points="1180.58,-29.63 1190.15,-25.09 1179.83,-22.67 1180.58,-29.63"/>
</a>
</g>
</g>
</g>
</svg>
