<?xml version="1.0" encoding="UTF-8" standalone="no"?>
<!DOCTYPE svg PUBLIC "-//W3C//DTD SVG 1.1//EN"
 "http://www.w3.org/Graphics/SVG/1.1/DTD/svg11.dtd">
<!-- Generated by graphviz version 2.43.0 (0)
 -->
<!-- Title: com.teragrep.pth_06.ast.analyze.ClassifiedExpressionsTest.testHostList Pages: 1 -->
<svg width="659pt" height="49pt"
 viewBox="0.00 0.00 659.00 49.00" xmlns="http://www.w3.org/2000/svg" xmlns:xlink="http://www.w3.org/1999/xlink">
<g id="graph0" class="graph" transform="scale(1 1) rotate(0) translate(4 45)">
<title>com.teragrep.pth_06.ast.analyze.ClassifiedExpressionsTest.testHostList</title>
<!-- Node1 -->
<g id="Node000001" class="node">
<title>Node1</title>
<g id="a_Node000001"><a xlink:title=" ">
<polygon fill="#999999" stroke="#666666" points="203,-35.5 0,-35.5 0,-5.5 203,-5.5 203,-35.5"/>
<text text-anchor="start" x="8" y="-23.5" font-family="Helvetica,sans-Serif" font-size="10.00">com.teragrep.pth_06.ast.analyze.</text>
<text text-anchor="middle" x="101.5" y="-12.5" font-family="Helvetica,sans-Serif" font-size="10.00">ClassifiedExpressionsTest.testHostList</text>
</a>
</g>
</g>
<!-- Node2 -->
<g id="Node000002" class="node">
<title>Node2</title>
<g id="a_Node000002"><a xlink:href="classcom_1_1teragrep_1_1pth__06_1_1ast_1_1analyze_1_1ClassifiedExpressions.html#a00ac3e5899be879258c4698ddf784e81" target="_top" xlink:title=" ">
<polygon fill="white" stroke="#666666" points="419,-35.5 239,-35.5 239,-5.5 419,-5.5 419,-35.5"/>
<text text-anchor="start" x="247" y="-23.5" font-family="Helvetica,sans-Serif" font-size="10.00">com.teragrep.pth_06.ast.analyze.</text>
<text text-anchor="middle" x="329" y="-12.5" font-family="Helvetica,sans-Serif" font-size="10.00">ClassifiedExpressions.hostList</text>
</a>
</g>
</g>
<!-- Node1&#45;&gt;Node2 -->
<g id="edge1_Node000001_Node000002" class="edge">
<title>Node1&#45;&gt;Node2</title>
<g id="a_edge1_Node000001_Node000002"><a xlink:title=" ">
<path fill="none" stroke="#63b8ff" d="M203.05,-20.5C211.66,-20.5 220.37,-20.5 228.96,-20.5"/>
<polygon fill="#63b8ff" stroke="#63b8ff" points="229,-24 239,-20.5 229,-17 229,-24"/>
</a>
</g>
</g>
<!-- Node3 -->
<g id="Node000003" class="node">
<title>Node3</title>
<g id="a_Node000003"><a xlink:href="classcom_1_1teragrep_1_1pth__06_1_1ast_1_1analyze_1_1ClassifiedExpressions.html#a5b892fa54a3c7ac63f7cc75cf9d38711" target="_top" xlink:title=" ">
<polygon fill="white" stroke="#666666" points="651,-41 455,-41 455,0 651,0 651,-41"/>
<text text-anchor="start" x="463" y="-29" font-family="Helvetica,sans-Serif" font-size="10.00">com.teragrep.pth_06.ast.analyze.</text>
<text text-anchor="start" x="463" y="-18" font-family="Helvetica,sans-Serif" font-size="10.00">ClassifiedExpressions.expressionList</text>
<text text-anchor="middle" x="553" y="-7" font-family="Helvetica,sans-Serif" font-size="10.00">FilteredByTag</text>
</a>
</g>
</g>
<!-- Node2&#45;&gt;Node3 -->
<g id="edge2_Node000002_Node000003" class="edge">
<title>Node2&#45;&gt;Node3</title>
<g id="a_edge2_Node000002_Node000003"><a xlink:title=" ">
<path fill="none" stroke="#63b8ff" d="M419.02,-20.5C427.51,-20.5 436.19,-20.5 444.83,-20.5"/>
<polygon fill="#63b8ff" stroke="#63b8ff" points="444.96,-24 454.96,-20.5 444.96,-17 444.96,-24"/>
</a>
</g>
</g>
</g>
</svg>
