<?xml version="1.0" encoding="UTF-8" standalone="no"?>
<!DOCTYPE svg PUBLIC "-//W3C//DTD SVG 1.1//EN"
 "http://www.w3.org/Graphics/SVG/1.1/DTD/svg11.dtd">
<!-- Generated by graphviz version 2.43.0 (0)
 -->
<!-- Title: com.teragrep.pth_06.scheduler.Batch.processRange Pages: 1 -->
<svg width="665pt" height="398pt"
 viewBox="0.00 0.00 665.00 398.00" xmlns="http://www.w3.org/2000/svg" xmlns:xlink="http://www.w3.org/1999/xlink">
<g id="graph0" class="graph" transform="scale(1 1) rotate(0) translate(4 394)">
<title>com.teragrep.pth_06.scheduler.Batch.processRange</title>
<!-- Node1 -->
<g id="Node000001" class="node">
<title>Node1</title>
<g id="a_Node000001"><a xlink:title=" ">
<polygon fill="#999999" stroke="#666666" points="170,-198 0,-198 0,-168 170,-168 170,-198"/>
<text text-anchor="start" x="8" y="-186" font-family="Helvetica,sans-Serif" font-size="10.00">com.teragrep.pth_06.scheduler.</text>
<text text-anchor="middle" x="85" y="-175" font-family="Helvetica,sans-Serif" font-size="10.00">Batch.processRange</text>
</a>
</g>
</g>
<!-- Node1&#45;&gt;Node1 -->
<g id="edge7_Node000001_Node000001" class="edge">
<title>Node1&#45;&gt;Node1</title>
<g id="a_edge7_Node000001_Node000001"><a xlink:title=" ">
<path fill="none" stroke="#63b8ff" d="M44.22,-198.28C35.16,-207.41 48.75,-216 85,-216 106.52,-216 120.06,-212.97 125.61,-208.6"/>
<polygon fill="#63b8ff" stroke="#63b8ff" points="129.11,-208.33 125.78,-198.28 122.11,-208.22 129.11,-208.33"/>
</a>
</g>
</g>
<!-- Node2 -->
<g id="Node000002" class="node">
<title>Node2</title>
<g id="a_Node000002"><a xlink:href="classcom_1_1teragrep_1_1pth__06_1_1scheduler_1_1Batch.html#a961bcc848cc69ae0bb8a1143394b02ac" target="_top" xlink:title=" ">
<polygon fill="white" stroke="#666666" points="403,-366 233,-366 233,-336 403,-336 403,-366"/>
<text text-anchor="start" x="241" y="-354" font-family="Helvetica,sans-Serif" font-size="10.00">com.teragrep.pth_06.scheduler.</text>
<text text-anchor="middle" x="318" y="-343" font-family="Helvetica,sans-Serif" font-size="10.00">Batch.addSlice</text>
</a>
</g>
</g>
<!-- Node1&#45;&gt;Node2 -->
<g id="edge1_Node000001_Node000002" class="edge">
<title>Node1&#45;&gt;Node2</title>
<g id="a_edge1_Node000001_Node000002"><a xlink:title=" ">
<path fill="none" stroke="#63b8ff" d="M93.95,-198.03C110.51,-227.78 151.72,-294.13 206,-327 211.42,-330.28 217.24,-333.12 223.25,-335.57"/>
<polygon fill="#63b8ff" stroke="#63b8ff" points="222.26,-338.94 232.85,-339.12 224.68,-332.37 222.26,-338.94"/>
</a>
</g>
</g>
<!-- Node5 -->
<g id="Node000005" class="node">
<title>Node5</title>
<g id="a_Node000005"><a xlink:href="classcom_1_1teragrep_1_1pth__06_1_1scheduler_1_1Batch.html#a34858c2c0600116c45cb4fe2cebdbd81" target="_top" xlink:title=" ">
<polygon fill="white" stroke="#666666" points="403,-318 233,-318 233,-288 403,-288 403,-318"/>
<text text-anchor="start" x="241" y="-306" font-family="Helvetica,sans-Serif" font-size="10.00">com.teragrep.pth_06.scheduler.</text>
<text text-anchor="middle" x="318" y="-295" font-family="Helvetica,sans-Serif" font-size="10.00">Batch.getBatch</text>
</a>
</g>
</g>
<!-- Node1&#45;&gt;Node5 -->
<g id="edge4_Node000001_Node000005" class="edge">
<title>Node1&#45;&gt;Node5</title>
<g id="a_edge4_Node000001_Node000005"><a xlink:title=" ">
<path fill="none" stroke="#63b8ff" d="M100.33,-198.26C121.39,-219.73 162.87,-258.49 206,-279 211.42,-281.58 217.12,-283.88 222.95,-285.94"/>
<polygon fill="#63b8ff" stroke="#63b8ff" points="222.28,-289.4 232.88,-289.17 224.46,-282.75 222.28,-289.4"/>
</a>
</g>
</g>
<!-- Node6 -->
<g id="Node000006" class="node">
<title>Node6</title>
<g id="a_Node000006"><a xlink:href="classcom_1_1teragrep_1_1pth__06_1_1scheduler_1_1HBaseBatchSliceCollection.html#adae561bfe3e7761dca9d581c23c850a3" target="_top" xlink:title="Creates batches from query results for the provided offset range.">
<polygon fill="white" stroke="#666666" points="427.5,-270 208.5,-270 208.5,-240 427.5,-240 427.5,-270"/>
<text text-anchor="start" x="216.5" y="-258" font-family="Helvetica,sans-Serif" font-size="10.00">com.teragrep.pth_06.scheduler.</text>
<text text-anchor="middle" x="318" y="-247" font-family="Helvetica,sans-Serif" font-size="10.00">HBaseBatchSliceCollection.processRange</text>
</a>
</g>
</g>
<!-- Node1&#45;&gt;Node6 -->
<g id="edge5_Node000001_Node000006" class="edge">
<title>Node1&#45;&gt;Node6</title>
<g id="a_edge5_Node000001_Node000006"><a xlink:title=" ">
<path fill="none" stroke="#63b8ff" d="M119.34,-198.09C143.12,-208.42 176.07,-221.85 206,-231 213.64,-233.34 221.64,-235.53 229.7,-237.58"/>
<polygon fill="#63b8ff" stroke="#63b8ff" points="228.99,-241.01 239.54,-240 230.66,-234.21 228.99,-241.01"/>
</a>
</g>
</g>
<!-- Node7 -->
<g id="Node000007" class="node">
<title>Node7</title>
<g id="a_Node000007"><a xlink:href="classcom_1_1teragrep_1_1pth__06_1_1scheduler_1_1ArchiveBatchSliceCollection.html#a66a88238f727d70abfe56a0e15b51bac" target="_top" xlink:title=" ">
<polygon fill="white" stroke="#666666" points="430,-222 206,-222 206,-192 430,-192 430,-222"/>
<text text-anchor="start" x="214" y="-210" font-family="Helvetica,sans-Serif" font-size="10.00">com.teragrep.pth_06.scheduler.</text>
<text text-anchor="middle" x="318" y="-199" font-family="Helvetica,sans-Serif" font-size="10.00">ArchiveBatchSliceCollection.processRange</text>
</a>
</g>
</g>
<!-- Node1&#45;&gt;Node7 -->
<g id="edge6_Node000001_Node000007" class="edge">
<title>Node1&#45;&gt;Node7</title>
<g id="a_edge6_Node000001_Node000007"><a xlink:title=" ">
<path fill="none" stroke="#63b8ff" d="M170.05,-191.73C178.39,-192.6 186.98,-193.49 195.6,-194.39"/>
<polygon fill="#63b8ff" stroke="#63b8ff" points="195.43,-197.89 205.74,-195.44 196.15,-190.93 195.43,-197.89"/>
</a>
</g>
</g>
<!-- Node8 -->
<g id="Node000008" class="node">
<title>Node8</title>
<g id="a_Node000008"><a xlink:href="classcom_1_1teragrep_1_1pth__06_1_1scheduler_1_1KafkaBatchSliceCollection.html#a90ea5a42f2333212f3b56fc4580148e4" target="_top" xlink:title=" ">
<polygon fill="white" stroke="#666666" points="425.5,-174 210.5,-174 210.5,-144 425.5,-144 425.5,-174"/>
<text text-anchor="start" x="218.5" y="-162" font-family="Helvetica,sans-Serif" font-size="10.00">com.teragrep.pth_06.scheduler.</text>
<text text-anchor="middle" x="318" y="-151" font-family="Helvetica,sans-Serif" font-size="10.00">KafkaBatchSliceCollection.processRange</text>
</a>
</g>
</g>
<!-- Node1&#45;&gt;Node8 -->
<g id="edge8_Node000001_Node000008" class="edge">
<title>Node1&#45;&gt;Node8</title>
<g id="a_edge8_Node000001_Node000008"><a xlink:title=" ">
<path fill="none" stroke="#63b8ff" d="M170.05,-174.27C179.82,-173.25 189.92,-172.2 200.03,-171.15"/>
<polygon fill="#63b8ff" stroke="#63b8ff" points="200.55,-174.62 210.14,-170.1 199.83,-167.65 200.55,-174.62"/>
</a>
</g>
</g>
<!-- Node10 -->
<g id="Node000010" class="node">
<title>Node10</title>
<g id="a_Node000010"><a xlink:href="classcom_1_1teragrep_1_1pth__06_1_1scheduler_1_1Batch.html#aa8902123db6ab2966552653c3bbe79c6" target="_top" xlink:title=" ">
<polygon fill="white" stroke="#666666" points="403,-126 233,-126 233,-96 403,-96 403,-126"/>
<text text-anchor="start" x="241" y="-114" font-family="Helvetica,sans-Serif" font-size="10.00">com.teragrep.pth_06.scheduler.</text>
<text text-anchor="middle" x="318" y="-103" font-family="Helvetica,sans-Serif" font-size="10.00">Batch.useArchive</text>
</a>
</g>
</g>
<!-- Node1&#45;&gt;Node10 -->
<g id="edge10_Node000001_Node000010" class="edge">
<title>Node1&#45;&gt;Node10</title>
<g id="a_edge10_Node000001_Node000010"><a xlink:title=" ">
<path fill="none" stroke="#63b8ff" d="M119.34,-167.91C143.12,-157.58 176.07,-144.15 206,-135 213.64,-132.66 221.64,-130.47 229.7,-128.42"/>
<polygon fill="#63b8ff" stroke="#63b8ff" points="230.66,-131.79 239.54,-126 228.99,-124.99 230.66,-131.79"/>
</a>
</g>
</g>
<!-- Node11 -->
<g id="Node000011" class="node">
<title>Node11</title>
<g id="a_Node000011"><a xlink:href="classcom_1_1teragrep_1_1pth__06_1_1scheduler_1_1Batch.html#ae5c9ab1db6f0c2979fd0bd6e55fcce8c" target="_top" xlink:title=" ">
<polygon fill="white" stroke="#666666" points="403,-78 233,-78 233,-48 403,-48 403,-78"/>
<text text-anchor="start" x="241" y="-66" font-family="Helvetica,sans-Serif" font-size="10.00">com.teragrep.pth_06.scheduler.</text>
<text text-anchor="middle" x="318" y="-55" font-family="Helvetica,sans-Serif" font-size="10.00">Batch.useHBase</text>
</a>
</g>
</g>
<!-- Node1&#45;&gt;Node11 -->
<g id="edge11_Node000001_Node000011" class="edge">
<title>Node1&#45;&gt;Node11</title>
<g id="a_edge11_Node000001_Node000011"><a xlink:title=" ">
<path fill="none" stroke="#63b8ff" d="M100.33,-167.74C121.39,-146.27 162.87,-107.51 206,-87 211.42,-84.42 217.12,-82.12 222.95,-80.06"/>
<polygon fill="#63b8ff" stroke="#63b8ff" points="224.46,-83.25 232.88,-76.83 222.28,-76.6 224.46,-83.25"/>
</a>
</g>
</g>
<!-- Node12 -->
<g id="Node000012" class="node">
<title>Node12</title>
<g id="a_Node000012"><a xlink:href="classcom_1_1teragrep_1_1pth__06_1_1scheduler_1_1Batch.html#abb1dffc532f4dae1b5d88ed768bd2f23" target="_top" xlink:title=" ">
<polygon fill="white" stroke="#666666" points="403,-30 233,-30 233,0 403,0 403,-30"/>
<text text-anchor="start" x="241" y="-18" font-family="Helvetica,sans-Serif" font-size="10.00">com.teragrep.pth_06.scheduler.</text>
<text text-anchor="middle" x="318" y="-7" font-family="Helvetica,sans-Serif" font-size="10.00">Batch.useKafka</text>
</a>
</g>
</g>
<!-- Node1&#45;&gt;Node12 -->
<g id="edge12_Node000001_Node000012" class="edge">
<title>Node1&#45;&gt;Node12</title>
<g id="a_edge12_Node000001_Node000012"><a xlink:title=" ">
<path fill="none" stroke="#63b8ff" d="M93.95,-167.97C110.51,-138.22 151.72,-71.87 206,-39 211.42,-35.72 217.24,-32.88 223.25,-30.43"/>
<polygon fill="#63b8ff" stroke="#63b8ff" points="224.68,-33.63 232.85,-26.88 222.26,-27.06 224.68,-33.63"/>
</a>
</g>
</g>
<!-- Node3 -->
<g id="Node000003" class="node">
<title>Node3</title>
<g id="a_Node000003"><a xlink:href="classcom_1_1teragrep_1_1pth__06_1_1scheduler_1_1BatchTaskQueue.html#af45361c6f8feebc3ce8ab09fb5b4494d" target="_top" xlink:title=" ">
<polygon fill="white" stroke="#666666" points="648,-390 475,-390 475,-360 648,-360 648,-390"/>
<text text-anchor="start" x="483" y="-378" font-family="Helvetica,sans-Serif" font-size="10.00">com.teragrep.pth_06.scheduler.</text>
<text text-anchor="middle" x="561.5" y="-367" font-family="Helvetica,sans-Serif" font-size="10.00">BatchTaskQueue.getQueueTime</text>
</a>
</g>
</g>
<!-- Node2&#45;&gt;Node3 -->
<g id="edge2_Node000002_Node000003" class="edge">
<title>Node2&#45;&gt;Node3</title>
<g id="a_edge2_Node000002_Node000003"><a xlink:title=" ">
<path fill="none" stroke="#63b8ff" d="M403.13,-359.36C422.92,-361.33 444.17,-363.44 464.45,-365.45"/>
<polygon fill="#63b8ff" stroke="#63b8ff" points="464.33,-368.96 474.63,-366.47 465.02,-361.99 464.33,-368.96"/>
</a>
</g>
</g>
<!-- Node4 -->
<g id="Node000004" class="node">
<title>Node4</title>
<g id="a_Node000004"><a xlink:href="classcom_1_1teragrep_1_1pth__06_1_1scheduler_1_1BatchSlice.html#a924403c9b17d1af7ed974097ba972a65" target="_top" xlink:title=" ">
<polygon fill="white" stroke="#666666" points="646.5,-342 476.5,-342 476.5,-312 646.5,-312 646.5,-342"/>
<text text-anchor="start" x="484.5" y="-330" font-family="Helvetica,sans-Serif" font-size="10.00">com.teragrep.pth_06.scheduler.</text>
<text text-anchor="middle" x="561.5" y="-319" font-family="Helvetica,sans-Serif" font-size="10.00">BatchSlice.getSize</text>
</a>
</g>
</g>
<!-- Node2&#45;&gt;Node4 -->
<g id="edge3_Node000002_Node000004" class="edge">
<title>Node2&#45;&gt;Node4</title>
<g id="a_edge3_Node000002_Node000004"><a xlink:title=" ">
<path fill="none" stroke="#63b8ff" d="M403.13,-342.64C423.48,-340.62 445.37,-338.44 466.16,-336.38"/>
<polygon fill="#63b8ff" stroke="#63b8ff" points="466.66,-339.84 476.27,-335.37 465.97,-332.88 466.66,-339.84"/>
</a>
</g>
</g>
<!-- Node9 -->
<g id="Node000009" class="node">
<title>Node9</title>
<g id="a_Node000009"><a xlink:href="classcom_1_1teragrep_1_1pth__06_1_1scheduler_1_1KafkaBatchSliceCollection.html#a18952bff484b226ccfed89f2f3f38a83" target="_top" xlink:title=" ">
<polygon fill="white" stroke="#666666" points="657,-174 466,-174 466,-144 657,-144 657,-174"/>
<text text-anchor="start" x="474" y="-162" font-family="Helvetica,sans-Serif" font-size="10.00">com.teragrep.pth_06.scheduler.</text>
<text text-anchor="middle" x="561.5" y="-151" font-family="Helvetica,sans-Serif" font-size="10.00">KafkaBatchSliceCollection.generate</text>
</a>
</g>
</g>
<!-- Node8&#45;&gt;Node9 -->
<g id="edge9_Node000008_Node000009" class="edge">
<title>Node8&#45;&gt;Node9</title>
<g id="a_edge9_Node000008_Node000009"><a xlink:title=" ">
<path fill="none" stroke="#63b8ff" d="M425.63,-159C435.57,-159 445.64,-159 455.56,-159"/>
<polygon fill="#63b8ff" stroke="#63b8ff" points="455.84,-162.5 465.84,-159 455.84,-155.5 455.84,-162.5"/>
</a>
</g>
</g>
</g>
</svg>
