<?xml version="1.0" encoding="UTF-8" standalone="no"?>
<!DOCTYPE svg PUBLIC "-//W3C//DTD SVG 1.1//EN"
 "http://www.w3.org/Graphics/SVG/1.1/DTD/svg11.dtd">
<!-- Generated by graphviz version 2.43.0 (0)
 -->
<!-- Title: com.teragrep.pth_06.ast.transform.PrunedInvalidTimeQualifier.transformed Pages: 1 -->
<svg width="447pt" height="226pt"
 viewBox="0.00 0.00 447.00 226.00" xmlns="http://www.w3.org/2000/svg" xmlns:xlink="http://www.w3.org/1999/xlink">
<g id="graph0" class="graph" transform="scale(1 1) rotate(0) translate(4 222)">
<title>com.teragrep.pth_06.ast.transform.PrunedInvalidTimeQualifier.transformed</title>
<!-- Node1 -->
<g id="Node000001" class="node">
<title>Node1</title>
<g id="a_Node000001"><a xlink:title=" ">
<polygon fill="#999999" stroke="#666666" points="439,-123.5 227,-123.5 227,-93.5 439,-93.5 439,-123.5"/>
<text text-anchor="start" x="235" y="-111.5" font-family="Helvetica,sans-Serif" font-size="10.00">com.teragrep.pth_06.ast.transform.</text>
<text text-anchor="middle" x="333" y="-100.5" font-family="Helvetica,sans-Serif" font-size="10.00">PrunedInvalidTimeQualifier.transformed</text>
</a>
</g>
</g>
<!-- Node2 -->
<g id="Node000002" class="node">
<title>Node2</title>
<g id="a_Node000002"><a xlink:href="classcom_1_1teragrep_1_1pth__06_1_1ast_1_1transform_1_1PrunedInvalidTimeQualifierTest.html#a6daa674e47a67287982d20fe50e7aa47" target="_top" xlink:title=" ">
<polygon fill="white" stroke="#666666" points="191,-218 0,-218 0,-177 191,-177 191,-218"/>
<text text-anchor="start" x="8" y="-206" font-family="Helvetica,sans-Serif" font-size="10.00">com.teragrep.pth_06.ast.transform.</text>
<text text-anchor="start" x="8" y="-195" font-family="Helvetica,sans-Serif" font-size="10.00">PrunedInvalidTimeQualifierTest.test</text>
<text text-anchor="middle" x="95.5" y="-184" font-family="Helvetica,sans-Serif" font-size="10.00">AllEqualsRemainsUnchanged</text>
</a>
</g>
</g>
<!-- Node1&#45;&gt;Node2 -->
<g id="edge1_Node000001_Node000002" class="edge">
<title>Node1&#45;&gt;Node2</title>
<g id="a_edge1_Node000001_Node000002"><a xlink:title=" ">
<path fill="none" stroke="#63b8ff" d="M289.93,-127.77C262.14,-140.15 224.76,-156.18 191,-168.5 183.1,-171.38 174.76,-174.23 166.44,-176.94"/>
<polygon fill="#63b8ff" stroke="#63b8ff" points="291.65,-130.83 299.34,-123.55 288.78,-124.45 291.65,-130.83"/>
</a>
</g>
</g>
<!-- Node3 -->
<g id="Node000003" class="node">
<title>Node3</title>
<g id="a_Node000003"><a xlink:href="classcom_1_1teragrep_1_1pth__06_1_1ast_1_1transform_1_1PrunedInvalidTimeQualifierTest.html#aeb32138a5720c03fe3940ebc242e5998" target="_top" xlink:title=" ">
<polygon fill="white" stroke="#666666" points="191,-159 0,-159 0,-118 191,-118 191,-159"/>
<text text-anchor="start" x="8" y="-147" font-family="Helvetica,sans-Serif" font-size="10.00">com.teragrep.pth_06.ast.transform.</text>
<text text-anchor="start" x="8" y="-136" font-family="Helvetica,sans-Serif" font-size="10.00">PrunedInvalidTimeQualifierTest.test</text>
<text text-anchor="middle" x="95.5" y="-125" font-family="Helvetica,sans-Serif" font-size="10.00">NonEqualsPruned</text>
</a>
</g>
</g>
<!-- Node1&#45;&gt;Node3 -->
<g id="edge2_Node000001_Node000003" class="edge">
<title>Node1&#45;&gt;Node3</title>
<g id="a_edge2_Node000001_Node000003"><a xlink:title=" ">
<path fill="none" stroke="#63b8ff" d="M216.92,-123.16C208.33,-124.25 199.71,-125.35 191.27,-126.43"/>
<polygon fill="#63b8ff" stroke="#63b8ff" points="217.51,-126.61 226.99,-121.88 216.63,-119.67 217.51,-126.61"/>
</a>
</g>
</g>
<!-- Node4 -->
<g id="Node000004" class="node">
<title>Node4</title>
<g id="a_Node000004"><a xlink:href="classcom_1_1teragrep_1_1pth__06_1_1ast_1_1transform_1_1PrunedInvalidTimeQualifierTest.html#a71d932fab890d1d34a8edf4fda199263" target="_top" xlink:title=" ">
<polygon fill="white" stroke="#666666" points="191,-100 0,-100 0,-59 191,-59 191,-100"/>
<text text-anchor="start" x="8" y="-88" font-family="Helvetica,sans-Serif" font-size="10.00">com.teragrep.pth_06.ast.transform.</text>
<text text-anchor="start" x="8" y="-77" font-family="Helvetica,sans-Serif" font-size="10.00">PrunedInvalidTimeQualifierTest.test</text>
<text text-anchor="middle" x="95.5" y="-66" font-family="Helvetica,sans-Serif" font-size="10.00">SupportedEarliestOperations</text>
</a>
</g>
</g>
<!-- Node1&#45;&gt;Node4 -->
<g id="edge3_Node000001_Node000004" class="edge">
<title>Node1&#45;&gt;Node4</title>
<g id="a_edge3_Node000001_Node000004"><a xlink:title=" ">
<path fill="none" stroke="#63b8ff" d="M216.92,-94.33C208.33,-93.27 199.71,-92.21 191.27,-91.17"/>
<polygon fill="#63b8ff" stroke="#63b8ff" points="216.64,-97.82 226.99,-95.57 217.49,-90.87 216.64,-97.82"/>
</a>
</g>
</g>
<!-- Node5 -->
<g id="Node000005" class="node">
<title>Node5</title>
<g id="a_Node000005"><a xlink:href="classcom_1_1teragrep_1_1pth__06_1_1ast_1_1transform_1_1PrunedInvalidTimeQualifierTest.html#a215605181dbaff151f83c93d37849db6" target="_top" xlink:title=" ">
<polygon fill="white" stroke="#666666" points="191,-41 0,-41 0,0 191,0 191,-41"/>
<text text-anchor="start" x="8" y="-29" font-family="Helvetica,sans-Serif" font-size="10.00">com.teragrep.pth_06.ast.transform.</text>
<text text-anchor="start" x="8" y="-18" font-family="Helvetica,sans-Serif" font-size="10.00">PrunedInvalidTimeQualifierTest.test</text>
<text text-anchor="middle" x="95.5" y="-7" font-family="Helvetica,sans-Serif" font-size="10.00">SupportedLatestOperations</text>
</a>
</g>
</g>
<!-- Node1&#45;&gt;Node5 -->
<g id="edge4_Node000001_Node000005" class="edge">
<title>Node1&#45;&gt;Node5</title>
<g id="a_edge4_Node000001_Node000005"><a xlink:title=" ">
<path fill="none" stroke="#63b8ff" d="M288.16,-89.37C260.51,-77.58 223.93,-62.48 191,-50.5 182.18,-47.29 172.84,-44.09 163.59,-41.04"/>
<polygon fill="#63b8ff" stroke="#63b8ff" points="286.98,-92.67 297.55,-93.39 289.73,-86.23 286.98,-92.67"/>
</a>
</g>
</g>
</g>
</svg>
