<?xml version="1.0" encoding="UTF-8" standalone="no"?>
<!DOCTYPE svg PUBLIC "-//W3C//DTD SVG 1.1//EN"
 "http://www.w3.org/Graphics/SVG/1.1/DTD/svg11.dtd">
<!-- Generated by graphviz version 2.43.0 (0)
 -->
<!-- Title: com.teragrep.pth_06.ast.xml.XMLQueryTest.testSingleElementQuery Pages: 1 -->
<svg width="807pt" height="86pt"
 viewBox="0.00 0.00 807.00 86.00" xmlns="http://www.w3.org/2000/svg" xmlns:xlink="http://www.w3.org/1999/xlink">
<g id="graph0" class="graph" transform="scale(1 1) rotate(0) translate(4 82)">
<title>com.teragrep.pth_06.ast.xml.XMLQueryTest.testSingleElementQuery</title>
<!-- Node1 -->
<g id="Node000001" class="node">
<title>Node1</title>
<g id="a_Node000001"><a xlink:title=" ">
<polygon fill="#999999" stroke="#666666" points="208,-30 0,-30 0,0 208,0 208,-30"/>
<text text-anchor="start" x="8" y="-18" font-family="Helvetica,sans-Serif" font-size="10.00">com.teragrep.pth_06.ast.xml.</text>
<text text-anchor="middle" x="104" y="-7" font-family="Helvetica,sans-Serif" font-size="10.00">XMLQueryTest.testSingleElementQuery</text>
</a>
</g>
</g>
<!-- Node2 -->
<g id="Node000002" class="node">
<title>Node2</title>
<g id="a_Node000002"><a xlink:href="classcom_1_1teragrep_1_1pth__06_1_1ast_1_1xml_1_1XMLQuery.html#a11ebce7d6afeda454c2b93a252196299" target="_top" xlink:title=" ">
<polygon fill="white" stroke="#666666" points="405,-30 244,-30 244,0 405,0 405,-30"/>
<text text-anchor="start" x="252" y="-18" font-family="Helvetica,sans-Serif" font-size="10.00">com.teragrep.pth_06.ast.xml.</text>
<text text-anchor="middle" x="324.5" y="-7" font-family="Helvetica,sans-Serif" font-size="10.00">XMLQuery.asAST</text>
</a>
</g>
</g>
<!-- Node1&#45;&gt;Node2 -->
<g id="edge1_Node000001_Node000002" class="edge">
<title>Node1&#45;&gt;Node2</title>
<g id="a_edge1_Node000001_Node000002"><a xlink:title=" ">
<path fill="none" stroke="#63b8ff" d="M208.17,-15C216.66,-15 225.19,-15 233.57,-15"/>
<polygon fill="#63b8ff" stroke="#63b8ff" points="233.69,-18.5 243.69,-15 233.69,-11.5 233.69,-18.5"/>
</a>
</g>
</g>
<!-- Node3 -->
<g id="Node000003" class="node">
<title>Node3</title>
<g id="a_Node000003"><a xlink:href="classcom_1_1teragrep_1_1pth__06_1_1ast_1_1xml_1_1XMLQuery.html#a4e339d2fbd6fb0dd06d2eac96820b87f" target="_top" xlink:title=" ">
<polygon fill="white" stroke="#666666" points="602,-30 441,-30 441,0 602,0 602,-30"/>
<text text-anchor="start" x="449" y="-18" font-family="Helvetica,sans-Serif" font-size="10.00">com.teragrep.pth_06.ast.xml.</text>
<text text-anchor="middle" x="521.5" y="-7" font-family="Helvetica,sans-Serif" font-size="10.00">XMLQuery.elementToNode</text>
</a>
</g>
</g>
<!-- Node2&#45;&gt;Node3 -->
<g id="edge2_Node000002_Node000003" class="edge">
<title>Node2&#45;&gt;Node3</title>
<g id="a_edge2_Node000002_Node000003"><a xlink:title=" ">
<path fill="none" stroke="#63b8ff" d="M405.1,-15C413.57,-15 422.24,-15 430.82,-15"/>
<polygon fill="#63b8ff" stroke="#63b8ff" points="430.84,-18.5 440.84,-15 430.84,-11.5 430.84,-18.5"/>
</a>
</g>
</g>
<!-- Node4 -->
<g id="Node000004" class="node">
<title>Node4</title>
<g id="a_Node000004"><a xlink:href="classcom_1_1teragrep_1_1pth__06_1_1ast_1_1xml_1_1XMLQuery.html#aef324a993868f2b1fc8695f14dafefbe" target="_top" xlink:title=" ">
<polygon fill="white" stroke="#666666" points="799,-78 638,-78 638,-48 799,-48 799,-78"/>
<text text-anchor="start" x="646" y="-66" font-family="Helvetica,sans-Serif" font-size="10.00">com.teragrep.pth_06.ast.xml.</text>
<text text-anchor="middle" x="718.5" y="-55" font-family="Helvetica,sans-Serif" font-size="10.00">XMLQuery.visitLeaf</text>
</a>
</g>
</g>
<!-- Node3&#45;&gt;Node4 -->
<g id="edge3_Node000003_Node000004" class="edge">
<title>Node3&#45;&gt;Node4</title>
<g id="a_edge3_Node000003_Node000004"><a xlink:title=" ">
<path fill="none" stroke="#63b8ff" d="M583.66,-30.06C603.63,-34.97 625.97,-40.47 646.59,-45.54"/>
<polygon fill="#63b8ff" stroke="#63b8ff" points="646.01,-49.01 656.55,-48 647.68,-42.21 646.01,-49.01"/>
</a>
</g>
</g>
<!-- Node5 -->
<g id="Node000005" class="node">
<title>Node5</title>
<g id="a_Node000005"><a xlink:href="classcom_1_1teragrep_1_1pth__06_1_1ast_1_1xml_1_1XMLQuery.html#afb0ff16b91a35d2ef6c6c000761d0be6" target="_top" xlink:title=" ">
<polygon fill="white" stroke="#666666" points="799,-30 638,-30 638,0 799,0 799,-30"/>
<text text-anchor="start" x="646" y="-18" font-family="Helvetica,sans-Serif" font-size="10.00">com.teragrep.pth_06.ast.xml.</text>
<text text-anchor="middle" x="718.5" y="-7" font-family="Helvetica,sans-Serif" font-size="10.00">XMLQuery.visitLogical</text>
</a>
</g>
</g>
<!-- Node3&#45;&gt;Node5 -->
<g id="edge4_Node000003_Node000005" class="edge">
<title>Node3&#45;&gt;Node5</title>
<g id="a_edge4_Node000003_Node000005"><a xlink:title=" ">
<path fill="none" stroke="#63b8ff" d="M602.1,-8.35C610.57,-8.25 619.24,-8.23 627.82,-8.27"/>
<polygon fill="#63b8ff" stroke="#63b8ff" points="627.81,-11.77 637.84,-8.35 627.87,-4.77 627.81,-11.77"/>
</a>
</g>
</g>
<!-- Node5&#45;&gt;Node3 -->
<g id="edge5_Node000005_Node000003" class="edge">
<title>Node5&#45;&gt;Node3</title>
<g id="a_edge5_Node000005_Node000003"><a xlink:title=" ">
<path fill="none" stroke="#63b8ff" d="M637.84,-21.65C629.36,-21.75 620.7,-21.77 612.12,-21.73"/>
<polygon fill="#63b8ff" stroke="#63b8ff" points="612.12,-18.23 602.1,-21.65 612.07,-25.23 612.12,-18.23"/>
</a>
</g>
</g>
</g>
</svg>
