<?xml version="1.0" encoding="UTF-8" standalone="no"?>
<!DOCTYPE svg PUBLIC "-//W3C//DTD SVG 1.1//EN"
 "http://www.w3.org/Graphics/SVG/1.1/DTD/svg11.dtd">
<!-- Generated by graphviz version 2.43.0 (0)
 -->
<!-- Title: com.teragrep.pth_06.ArchiveMicroStreamReader.mostRecentOffset Pages: 1 -->
<svg width="417pt" height="134pt"
 viewBox="0.00 0.00 417.00 134.00" xmlns="http://www.w3.org/2000/svg" xmlns:xlink="http://www.w3.org/1999/xlink">
<g id="graph0" class="graph" transform="scale(1 1) rotate(0) translate(4 130)">
<title>com.teragrep.pth_06.ArchiveMicroStreamReader.mostRecentOffset</title>
<!-- Node1 -->
<g id="Node000001" class="node">
<title>Node1</title>
<g id="a_Node000001"><a xlink:title=" ">
<polygon fill="#999999" stroke="#666666" points="203,-78 0,-78 0,-48 203,-48 203,-78"/>
<text text-anchor="start" x="8" y="-66" font-family="Helvetica,sans-Serif" font-size="10.00">com.teragrep.pth_06.Archive</text>
<text text-anchor="middle" x="101.5" y="-55" font-family="Helvetica,sans-Serif" font-size="10.00">MicroStreamReader.mostRecentOffset</text>
</a>
</g>
</g>
<!-- Node2 -->
<g id="Node000002" class="node">
<title>Node2</title>
<g id="a_Node000002"><a xlink:href="classcom_1_1teragrep_1_1pth__06_1_1ArchiveMicroStreamReader.html#a755d5e92276f9154edcea0fec4f59dec" target="_top" xlink:title=" ">
<polygon fill="white" stroke="#666666" points="409,-126 239,-126 239,-96 409,-96 409,-126"/>
<text text-anchor="start" x="247" y="-114" font-family="Helvetica,sans-Serif" font-size="10.00">com.teragrep.pth_06.Archive</text>
<text text-anchor="middle" x="324" y="-103" font-family="Helvetica,sans-Serif" font-size="10.00">MicroStreamReader.useArchive</text>
</a>
</g>
</g>
<!-- Node1&#45;&gt;Node2 -->
<g id="edge1_Node000001_Node000002" class="edge">
<title>Node1&#45;&gt;Node2</title>
<g id="a_edge1_Node000001_Node000002"><a xlink:title=" ">
<path fill="none" stroke="#63b8ff" d="M171.66,-78.06C194.65,-83.06 220.42,-88.67 244.08,-93.82"/>
<polygon fill="#63b8ff" stroke="#63b8ff" points="243.57,-97.29 254.08,-96 245.06,-90.45 243.57,-97.29"/>
</a>
</g>
</g>
<!-- Node3 -->
<g id="Node000003" class="node">
<title>Node3</title>
<g id="a_Node000003"><a xlink:href="classcom_1_1teragrep_1_1pth__06_1_1ArchiveMicroStreamReader.html#a00eed7fba1d800a7745cccf4d729836d" target="_top" xlink:title=" ">
<polygon fill="white" stroke="#666666" points="406,-78 242,-78 242,-48 406,-48 406,-78"/>
<text text-anchor="start" x="250" y="-66" font-family="Helvetica,sans-Serif" font-size="10.00">com.teragrep.pth_06.Archive</text>
<text text-anchor="middle" x="324" y="-55" font-family="Helvetica,sans-Serif" font-size="10.00">MicroStreamReader.useHBase</text>
</a>
</g>
</g>
<!-- Node1&#45;&gt;Node3 -->
<g id="edge2_Node000001_Node000003" class="edge">
<title>Node1&#45;&gt;Node3</title>
<g id="a_edge2_Node000001_Node000003"><a xlink:title=" ">
<path fill="none" stroke="#63b8ff" d="M203.07,-63C212.58,-63 222.19,-63 231.6,-63"/>
<polygon fill="#63b8ff" stroke="#63b8ff" points="231.73,-66.5 241.73,-63 231.73,-59.5 231.73,-66.5"/>
</a>
</g>
</g>
<!-- Node4 -->
<g id="Node000004" class="node">
<title>Node4</title>
<g id="a_Node000004"><a xlink:href="classcom_1_1teragrep_1_1pth__06_1_1ArchiveMicroStreamReader.html#a2ae6ecb8b1cd94d98665cb042886cb0a" target="_top" xlink:title=" ">
<polygon fill="white" stroke="#666666" points="404.5,-30 243.5,-30 243.5,0 404.5,0 404.5,-30"/>
<text text-anchor="start" x="251.5" y="-18" font-family="Helvetica,sans-Serif" font-size="10.00">com.teragrep.pth_06.Archive</text>
<text text-anchor="middle" x="324" y="-7" font-family="Helvetica,sans-Serif" font-size="10.00">MicroStreamReader.useKafka</text>
</a>
</g>
</g>
<!-- Node1&#45;&gt;Node4 -->
<g id="edge3_Node000001_Node000004" class="edge">
<title>Node1&#45;&gt;Node4</title>
<g id="a_edge3_Node000001_Node000004"><a xlink:title=" ">
<path fill="none" stroke="#63b8ff" d="M171.66,-47.94C194.65,-42.94 220.42,-37.33 244.08,-32.18"/>
<polygon fill="#63b8ff" stroke="#63b8ff" points="245.06,-35.55 254.08,-30 243.57,-28.71 245.06,-35.55"/>
</a>
</g>
</g>
</g>
</svg>
