<?xml version="1.0" encoding="UTF-8" standalone="no"?>
<!DOCTYPE svg PUBLIC "-//W3C//DTD SVG 1.1//EN"
 "http://www.w3.org/Graphics/SVG/1.1/DTD/svg11.dtd">
<!-- Generated by graphviz version 2.43.0 (0)
 -->
<!-- Title: com.teragrep.pth_06.ast.analyze.ScanRangeImplTest.testFromLatest Pages: 1 -->
<svg width="412pt" height="134pt"
 viewBox="0.00 0.00 412.00 134.00" xmlns="http://www.w3.org/2000/svg" xmlns:xlink="http://www.w3.org/1999/xlink">
<g id="graph0" class="graph" transform="scale(1 1) rotate(0) translate(4 130)">
<title>com.teragrep.pth_06.ast.analyze.ScanRangeImplTest.testFromLatest</title>
<!-- Node1 -->
<g id="Node000001" class="node">
<title>Node1</title>
<g id="a_Node000001"><a xlink:title=" ">
<polygon fill="#999999" stroke="#666666" points="188,-78 0,-78 0,-48 188,-48 188,-78"/>
<text text-anchor="start" x="8" y="-66" font-family="Helvetica,sans-Serif" font-size="10.00">com.teragrep.pth_06.ast.analyze.</text>
<text text-anchor="middle" x="94" y="-55" font-family="Helvetica,sans-Serif" font-size="10.00">ScanRangeImplTest.testFromLatest</text>
</a>
</g>
</g>
<!-- Node2 -->
<g id="Node000002" class="node">
<title>Node2</title>
<g id="a_Node000002"><a xlink:href="interfacecom_1_1teragrep_1_1pth__06_1_1ast_1_1analyze_1_1ScanRange.html#af3e0e62798cdf3e3f8de2b8fa8c17483" target="_top" xlink:title=" ">
<polygon fill="white" stroke="#666666" points="404,-126 224,-126 224,-96 404,-96 404,-126"/>
<text text-anchor="start" x="232" y="-114" font-family="Helvetica,sans-Serif" font-size="10.00">com.teragrep.pth_06.ast.analyze.</text>
<text text-anchor="middle" x="314" y="-103" font-family="Helvetica,sans-Serif" font-size="10.00">ScanRange.earliest</text>
</a>
</g>
</g>
<!-- Node1&#45;&gt;Node2 -->
<g id="edge1_Node000001_Node000002" class="edge">
<title>Node1&#45;&gt;Node2</title>
<g id="a_edge1_Node000001_Node000002"><a xlink:title=" ">
<path fill="none" stroke="#63b8ff" d="M163.38,-78.06C186.1,-83.06 211.58,-88.67 234.98,-93.82"/>
<polygon fill="#63b8ff" stroke="#63b8ff" points="234.35,-97.27 244.86,-96 235.85,-90.43 234.35,-97.27"/>
</a>
</g>
</g>
<!-- Node3 -->
<g id="Node000003" class="node">
<title>Node3</title>
<g id="a_Node000003"><a xlink:href="interfacecom_1_1teragrep_1_1pth__06_1_1ast_1_1analyze_1_1ScanRange.html#aa9f739fe5a03d00ccb23f407bf7c6ee5" target="_top" xlink:title=" ">
<polygon fill="white" stroke="#666666" points="404,-78 224,-78 224,-48 404,-48 404,-78"/>
<text text-anchor="start" x="232" y="-66" font-family="Helvetica,sans-Serif" font-size="10.00">com.teragrep.pth_06.ast.analyze.</text>
<text text-anchor="middle" x="314" y="-55" font-family="Helvetica,sans-Serif" font-size="10.00">ScanRange.latest</text>
</a>
</g>
</g>
<!-- Node1&#45;&gt;Node3 -->
<g id="edge2_Node000001_Node000003" class="edge">
<title>Node1&#45;&gt;Node3</title>
<g id="a_edge2_Node000001_Node000003"><a xlink:title=" ">
<path fill="none" stroke="#63b8ff" d="M188.08,-63C196.48,-63 205,-63 213.44,-63"/>
<polygon fill="#63b8ff" stroke="#63b8ff" points="213.69,-66.5 223.69,-63 213.69,-59.5 213.69,-66.5"/>
</a>
</g>
</g>
<!-- Node4 -->
<g id="Node000004" class="node">
<title>Node4</title>
<g id="a_Node000004"><a xlink:href="interfacecom_1_1teragrep_1_1pth__06_1_1ast_1_1analyze_1_1ScanRange.html#afdd1cd7f7dd6214d0026a962fa1fb148" target="_top" xlink:title="new ScanRange with new latest value if inside the scope, otherwise no changes">
<polygon fill="white" stroke="#666666" points="404,-30 224,-30 224,0 404,0 404,-30"/>
<text text-anchor="start" x="232" y="-18" font-family="Helvetica,sans-Serif" font-size="10.00">com.teragrep.pth_06.ast.analyze.</text>
<text text-anchor="middle" x="314" y="-7" font-family="Helvetica,sans-Serif" font-size="10.00">ScanRange.rangeUntilLatest</text>
</a>
</g>
</g>
<!-- Node1&#45;&gt;Node4 -->
<g id="edge3_Node000001_Node000004" class="edge">
<title>Node1&#45;&gt;Node4</title>
<g id="a_edge3_Node000001_Node000004"><a xlink:title=" ">
<path fill="none" stroke="#63b8ff" d="M163.38,-47.94C186.1,-42.94 211.58,-37.33 234.98,-32.18"/>
<polygon fill="#63b8ff" stroke="#63b8ff" points="235.85,-35.57 244.86,-30 234.35,-28.73 235.85,-35.57"/>
</a>
</g>
</g>
</g>
</svg>
