<?xml version="1.0" encoding="UTF-8" standalone="no"?>
<!DOCTYPE svg PUBLIC "-//W3C//DTD SVG 1.1//EN"
 "http://www.w3.org/Graphics/SVG/1.1/DTD/svg11.dtd">
<!-- Generated by graphviz version 2.43.0 (0)
 -->
<!-- Title: com.teragrep.pth_06.ast.analyze.ClassifiedExpressionsTest.testSourceTypeList Pages: 1 -->
<svg width="670pt" height="49pt"
 viewBox="0.00 0.00 670.00 49.00" xmlns="http://www.w3.org/2000/svg" xmlns:xlink="http://www.w3.org/1999/xlink">
<g id="graph0" class="graph" transform="scale(1 1) rotate(0) translate(4 45)">
<title>com.teragrep.pth_06.ast.analyze.ClassifiedExpressionsTest.testSourceTypeList</title>
<!-- Node1 -->
<g id="Node000001" class="node">
<title>Node1</title>
<g id="a_Node000001"><a xlink:title=" ">
<polygon fill="#999999" stroke="#666666" points="197,-41 0,-41 0,0 197,0 197,-41"/>
<text text-anchor="start" x="8" y="-29" font-family="Helvetica,sans-Serif" font-size="10.00">com.teragrep.pth_06.ast.analyze.</text>
<text text-anchor="start" x="8" y="-18" font-family="Helvetica,sans-Serif" font-size="10.00">ClassifiedExpressionsTest.testSource</text>
<text text-anchor="middle" x="98.5" y="-7" font-family="Helvetica,sans-Serif" font-size="10.00">TypeList</text>
</a>
</g>
</g>
<!-- Node2 -->
<g id="Node000002" class="node">
<title>Node2</title>
<g id="a_Node000002"><a xlink:href="classcom_1_1teragrep_1_1pth__06_1_1ast_1_1analyze_1_1ClassifiedExpressions.html#a23983fe0f955300072a3bc2a30e379f3" target="_top" xlink:title=" ">
<polygon fill="white" stroke="#666666" points="430,-35.5 233,-35.5 233,-5.5 430,-5.5 430,-35.5"/>
<text text-anchor="start" x="241" y="-23.5" font-family="Helvetica,sans-Serif" font-size="10.00">com.teragrep.pth_06.ast.analyze.</text>
<text text-anchor="middle" x="331.5" y="-12.5" font-family="Helvetica,sans-Serif" font-size="10.00">ClassifiedExpressions.sourceTypeList</text>
</a>
</g>
</g>
<!-- Node1&#45;&gt;Node2 -->
<g id="edge1_Node000001_Node000002" class="edge">
<title>Node1&#45;&gt;Node2</title>
<g id="a_edge1_Node000001_Node000002"><a xlink:title=" ">
<path fill="none" stroke="#63b8ff" d="M197.13,-20.5C205.63,-20.5 214.25,-20.5 222.83,-20.5"/>
<polygon fill="#63b8ff" stroke="#63b8ff" points="222.85,-24 232.85,-20.5 222.85,-17 222.85,-24"/>
</a>
</g>
</g>
<!-- Node3 -->
<g id="Node000003" class="node">
<title>Node3</title>
<g id="a_Node000003"><a xlink:href="classcom_1_1teragrep_1_1pth__06_1_1ast_1_1analyze_1_1ClassifiedExpressions.html#a5b892fa54a3c7ac63f7cc75cf9d38711" target="_top" xlink:title=" ">
<polygon fill="white" stroke="#666666" points="662,-41 466,-41 466,0 662,0 662,-41"/>
<text text-anchor="start" x="474" y="-29" font-family="Helvetica,sans-Serif" font-size="10.00">com.teragrep.pth_06.ast.analyze.</text>
<text text-anchor="start" x="474" y="-18" font-family="Helvetica,sans-Serif" font-size="10.00">ClassifiedExpressions.expressionList</text>
<text text-anchor="middle" x="564" y="-7" font-family="Helvetica,sans-Serif" font-size="10.00">FilteredByTag</text>
</a>
</g>
</g>
<!-- Node2&#45;&gt;Node3 -->
<g id="edge2_Node000002_Node000003" class="edge">
<title>Node2&#45;&gt;Node3</title>
<g id="a_edge2_Node000002_Node000003"><a xlink:title=" ">
<path fill="none" stroke="#63b8ff" d="M430.25,-20.5C438.63,-20.5 447.13,-20.5 455.57,-20.5"/>
<polygon fill="#63b8ff" stroke="#63b8ff" points="455.83,-24 465.83,-20.5 455.83,-17 455.83,-24"/>
</a>
</g>
</g>
</g>
</svg>
