<?xml version="1.0" encoding="UTF-8" standalone="no"?>
<!DOCTYPE svg PUBLIC "-//W3C//DTD SVG 1.1//EN"
 "http://www.w3.org/Graphics/SVG/1.1/DTD/svg11.dtd">
<!-- Generated by graphviz version 2.43.0 (0)
 -->
<!-- Title: com.teragrep.pth_06.ast.analyze.StreamIDGroup.StreamIDGroup Pages: 1 -->
<svg width="441pt" height="146pt"
 viewBox="0.00 0.00 441.00 145.50" xmlns="http://www.w3.org/2000/svg" xmlns:xlink="http://www.w3.org/1999/xlink">
<g id="graph0" class="graph" transform="scale(1 1) rotate(0) translate(4 141.5)">
<title>com.teragrep.pth_06.ast.analyze.StreamIDGroup.StreamIDGroup</title>
<!-- Node1 -->
<g id="Node000001" class="node">
<title>Node1</title>
<g id="a_Node000001"><a xlink:title=" ">
<polygon fill="#999999" stroke="#666666" points="180,-89.5 0,-89.5 0,-59.5 180,-59.5 180,-89.5"/>
<text text-anchor="start" x="8" y="-77.5" font-family="Helvetica,sans-Serif" font-size="10.00">com.teragrep.pth_06.ast.analyze.</text>
<text text-anchor="middle" x="90" y="-66.5" font-family="Helvetica,sans-Serif" font-size="10.00">StreamIDGroup.StreamIDGroup</text>
</a>
</g>
</g>
<!-- Node2 -->
<g id="Node000002" class="node">
<title>Node2</title>
<g id="a_Node000002"><a xlink:href="classcom_1_1teragrep_1_1pth__06_1_1ast_1_1analyze_1_1ClassifiedXMLValueExpressions.html#acf9a8e85cb1e3f49478739437701b1de" target="_top" xlink:title=" ">
<polygon fill="white" stroke="#666666" points="430,-137.5 219,-137.5 219,-107.5 430,-107.5 430,-137.5"/>
<text text-anchor="start" x="227" y="-125.5" font-family="Helvetica,sans-Serif" font-size="10.00">com.teragrep.pth_06.ast.analyze.</text>
<text text-anchor="middle" x="324.5" y="-114.5" font-family="Helvetica,sans-Serif" font-size="10.00">ClassifiedXMLValueExpressions.hostList</text>
</a>
</g>
</g>
<!-- Node1&#45;&gt;Node2 -->
<g id="edge1_Node000001_Node000002" class="edge">
<title>Node1&#45;&gt;Node2</title>
<g id="a_edge1_Node000001_Node000002"><a xlink:title=" ">
<path fill="none" stroke="#63b8ff" d="M163.93,-89.56C188.38,-94.6 215.82,-100.27 240.96,-105.46"/>
<polygon fill="#63b8ff" stroke="#63b8ff" points="240.33,-108.9 250.83,-107.5 241.75,-102.05 240.33,-108.9"/>
</a>
</g>
</g>
<!-- Node3 -->
<g id="Node000003" class="node">
<title>Node3</title>
<g id="a_Node000003"><a xlink:href="classcom_1_1teragrep_1_1pth__06_1_1ast_1_1analyze_1_1ClassifiedXMLValueExpressions.html#ad035d24118caa3dc0563ce2bce540f60" target="_top" xlink:title=" ">
<polygon fill="white" stroke="#666666" points="433,-89.5 216,-89.5 216,-59.5 433,-59.5 433,-89.5"/>
<text text-anchor="start" x="224" y="-77.5" font-family="Helvetica,sans-Serif" font-size="10.00">com.teragrep.pth_06.ast.analyze.</text>
<text text-anchor="middle" x="324.5" y="-66.5" font-family="Helvetica,sans-Serif" font-size="10.00">ClassifiedXMLValueExpressions.indexList</text>
</a>
</g>
</g>
<!-- Node1&#45;&gt;Node3 -->
<g id="edge2_Node000001_Node000003" class="edge">
<title>Node1&#45;&gt;Node3</title>
<g id="a_edge2_Node000001_Node000003"><a xlink:title=" ">
<path fill="none" stroke="#63b8ff" d="M180.23,-74.5C188.6,-74.5 197.18,-74.5 205.76,-74.5"/>
<polygon fill="#63b8ff" stroke="#63b8ff" points="205.83,-78 215.83,-74.5 205.83,-71 205.83,-78"/>
</a>
</g>
</g>
<!-- Node4 -->
<g id="Node000004" class="node">
<title>Node4</title>
<g id="a_Node000004"><a xlink:href="classcom_1_1teragrep_1_1pth__06_1_1ast_1_1analyze_1_1ClassifiedXMLValueExpressions.html#a1953f0b2c528e330d4443b4f46a80560" target="_top" xlink:title=" ">
<polygon fill="white" stroke="#666666" points="427,-41 222,-41 222,0 427,0 427,-41"/>
<text text-anchor="start" x="230" y="-29" font-family="Helvetica,sans-Serif" font-size="10.00">com.teragrep.pth_06.ast.analyze.</text>
<text text-anchor="start" x="230" y="-18" font-family="Helvetica,sans-Serif" font-size="10.00">ClassifiedXMLValueExpressions.source</text>
<text text-anchor="middle" x="324.5" y="-7" font-family="Helvetica,sans-Serif" font-size="10.00">TypeList</text>
</a>
</g>
</g>
<!-- Node1&#45;&gt;Node4 -->
<g id="edge3_Node000001_Node000004" class="edge">
<title>Node1&#45;&gt;Node4</title>
<g id="a_edge3_Node000001_Node000004"><a xlink:title=" ">
<path fill="none" stroke="#63b8ff" d="M155.76,-59.46C177.28,-54.46 201.74,-48.78 225.21,-43.33"/>
<polygon fill="#63b8ff" stroke="#63b8ff" points="226.24,-46.68 235.19,-41.01 224.66,-39.86 226.24,-46.68"/>
</a>
</g>
</g>
</g>
</svg>
