<?xml version="1.0" encoding="UTF-8" standalone="no"?>
<!DOCTYPE svg PUBLIC "-//W3C//DTD SVG 1.1//EN"
 "http://www.w3.org/Graphics/SVG/1.1/DTD/svg11.dtd">
<!-- Generated by graphviz version 2.43.0 (0)
 -->
<!-- Title: com.teragrep.pth_06.ast.PrintAST.print Pages: 1 -->
<svg width="374pt" height="98pt"
 viewBox="0.00 0.00 374.00 97.50" xmlns="http://www.w3.org/2000/svg" xmlns:xlink="http://www.w3.org/1999/xlink">
<g id="graph0" class="graph" transform="scale(1 1) rotate(0) translate(4 93.5)">
<title>com.teragrep.pth_06.ast.PrintAST.print</title>
<!-- Node1 -->
<g id="Node000001" class="node">
<title>Node1</title>
<g id="a_Node000001"><a xlink:title=" ">
<polygon fill="#999999" stroke="#666666" points="366,-62.5 227,-62.5 227,-32.5 366,-32.5 366,-62.5"/>
<text text-anchor="start" x="235" y="-50.5" font-family="Helvetica,sans-Serif" font-size="10.00">com.teragrep.pth_06.ast.</text>
<text text-anchor="middle" x="296.5" y="-39.5" font-family="Helvetica,sans-Serif" font-size="10.00">PrintAST.print</text>
</a>
</g>
</g>
<!-- Node2 -->
<g id="Node000002" class="node">
<title>Node2</title>
<g id="a_Node000002"><a xlink:href="classcom_1_1teragrep_1_1pth__06_1_1ast_1_1xml_1_1XMLQueryTest.html#a0856c9aed5204f2cfca7fdc8806c40a4" target="_top" xlink:title=" ">
<polygon fill="white" stroke="#666666" points="176,-89.5 15,-89.5 15,-59.5 176,-59.5 176,-89.5"/>
<text text-anchor="start" x="23" y="-77.5" font-family="Helvetica,sans-Serif" font-size="10.00">com.teragrep.pth_06.ast.xml.</text>
<text text-anchor="middle" x="95.5" y="-66.5" font-family="Helvetica,sans-Serif" font-size="10.00">XMLQueryTest.testAST</text>
</a>
</g>
</g>
<!-- Node1&#45;&gt;Node2 -->
<g id="edge1_Node000001_Node000002" class="edge">
<title>Node1&#45;&gt;Node2</title>
<g id="a_edge1_Node000001_Node000002"><a xlink:title=" ">
<path fill="none" stroke="#63b8ff" d="M216.68,-58.19C203.37,-60 189.54,-61.88 176.21,-63.69"/>
<polygon fill="#63b8ff" stroke="#63b8ff" points="217.3,-61.64 226.74,-56.83 216.36,-54.71 217.3,-61.64"/>
</a>
</g>
</g>
<!-- Node3 -->
<g id="Node000003" class="node">
<title>Node3</title>
<g id="a_Node000003"><a xlink:href="classcom_1_1teragrep_1_1pth__06_1_1ast_1_1xml_1_1XMLQueryTest.html#ab2902b53bc94a44d6dd37367e6e8ebbe" target="_top" xlink:title=" ">
<polygon fill="white" stroke="#666666" points="191,-41 0,-41 0,0 191,0 191,-41"/>
<text text-anchor="start" x="8" y="-29" font-family="Helvetica,sans-Serif" font-size="10.00">com.teragrep.pth_06.ast.xml.</text>
<text text-anchor="start" x="8" y="-18" font-family="Helvetica,sans-Serif" font-size="10.00">XMLQueryTest.testXMLASTrootFrom</text>
<text text-anchor="middle" x="95.5" y="-7" font-family="Helvetica,sans-Serif" font-size="10.00">String</text>
</a>
</g>
</g>
<!-- Node1&#45;&gt;Node3 -->
<g id="edge2_Node000001_Node000003" class="edge">
<title>Node1&#45;&gt;Node3</title>
<g id="a_edge2_Node000001_Node000003"><a xlink:title=" ">
<path fill="none" stroke="#63b8ff" d="M216.67,-36.8C208.31,-35.67 199.76,-34.51 191.25,-33.35"/>
<polygon fill="#63b8ff" stroke="#63b8ff" points="216.36,-40.29 226.74,-38.17 217.3,-33.36 216.36,-40.29"/>
</a>
</g>
</g>
</g>
</svg>
