<?xml version="1.0" encoding="UTF-8" standalone="no"?>
<!DOCTYPE svg PUBLIC "-//W3C//DTD SVG 1.1//EN"
 "http://www.w3.org/Graphics/SVG/1.1/DTD/svg11.dtd">
<!-- Generated by graphviz version 2.43.0 (0)
 -->
<!-- Title: com.teragrep.pth_06.ast.analyze.PlannedScansTest.testSingleDirectoryMatch Pages: 1 -->
<svg width="682pt" height="236pt"
 viewBox="0.00 0.00 682.00 236.00" xmlns="http://www.w3.org/2000/svg" xmlns:xlink="http://www.w3.org/1999/xlink">
<g id="graph0" class="graph" transform="scale(1 1) rotate(0) translate(4 232)">
<title>com.teragrep.pth_06.ast.analyze.PlannedScansTest.testSingleDirectoryMatch</title>
<!-- Node1 -->
<g id="Node000001" class="node">
<title>Node1</title>
<g id="a_Node000001"><a xlink:title=" ">
<polygon fill="#999999" stroke="#666666" points="230,-129 0,-129 0,-99 230,-99 230,-129"/>
<text text-anchor="start" x="8" y="-117" font-family="Helvetica,sans-Serif" font-size="10.00">com.teragrep.pth_06.ast.analyze.</text>
<text text-anchor="middle" x="115" y="-106" font-family="Helvetica,sans-Serif" font-size="10.00">PlannedScansTest.testSingleDirectoryMatch</text>
</a>
</g>
</g>
<!-- Node2 -->
<g id="Node000002" class="node">
<title>Node2</title>
<g id="a_Node000002"><a xlink:href="classcom_1_1teragrep_1_1pth__06_1_1ast_1_1analyze_1_1PlannedScans.html#ad6dfe7529bfdfc03de991c95e194e0fe" target="_top" xlink:title=" ">
<polygon fill="white" stroke="#666666" points="446,-129 266,-129 266,-99 446,-99 446,-129"/>
<text text-anchor="start" x="274" y="-117" font-family="Helvetica,sans-Serif" font-size="10.00">com.teragrep.pth_06.ast.analyze.</text>
<text text-anchor="middle" x="356" y="-106" font-family="Helvetica,sans-Serif" font-size="10.00">PlannedScans.planListForGroup</text>
</a>
</g>
</g>
<!-- Node1&#45;&gt;Node2 -->
<g id="edge1_Node000001_Node000002" class="edge">
<title>Node1&#45;&gt;Node2</title>
<g id="a_edge1_Node000001_Node000002"><a xlink:title=" ">
<path fill="none" stroke="#63b8ff" d="M230.25,-114C238.78,-114 247.35,-114 255.78,-114"/>
<polygon fill="#63b8ff" stroke="#63b8ff" points="255.98,-117.5 265.98,-114 255.98,-110.5 255.98,-117.5"/>
</a>
</g>
</g>
<!-- Node3 -->
<g id="Node000003" class="node">
<title>Node3</title>
<g id="a_Node000003"><a xlink:href="classcom_1_1teragrep_1_1pth__06_1_1ast_1_1analyze_1_1StreamIDGroup.html#a429db1dbf66f77a975f929fa85179f87" target="_top" xlink:title=" ">
<polygon fill="white" stroke="#666666" points="674,-228 482,-228 482,-198 674,-198 674,-228"/>
<text text-anchor="start" x="490" y="-216" font-family="Helvetica,sans-Serif" font-size="10.00">com.teragrep.pth_06.ast.analyze.</text>
<text text-anchor="middle" x="578" y="-205" font-family="Helvetica,sans-Serif" font-size="10.00">StreamIDGroup.combinedStreamIds</text>
</a>
</g>
</g>
<!-- Node2&#45;&gt;Node3 -->
<g id="edge2_Node000002_Node000003" class="edge">
<title>Node2&#45;&gt;Node3</title>
<g id="a_edge2_Node000002_Node000003"><a xlink:title=" ">
<path fill="none" stroke="#63b8ff" d="M377.67,-129.01C401.67,-145.8 442.97,-172.78 482,-189 487.06,-191.1 492.34,-193.05 497.72,-194.86"/>
<polygon fill="#63b8ff" stroke="#63b8ff" points="496.88,-198.27 507.47,-197.96 499,-191.6 496.88,-198.27"/>
</a>
</g>
</g>
<!-- Node4 -->
<g id="Node000004" class="node">
<title>Node4</title>
<g id="a_Node000004"><a xlink:href="classcom_1_1teragrep_1_1pth__06_1_1ast_1_1analyze_1_1ScanTimeQualifiers.html#a82cd78430e3cda656d0cadbfaf5295a5" target="_top" xlink:title=" ">
<polygon fill="white" stroke="#666666" points="668,-162 488,-162 488,-132 668,-132 668,-162"/>
<text text-anchor="start" x="496" y="-150" font-family="Helvetica,sans-Serif" font-size="10.00">com.teragrep.pth_06.ast.analyze.</text>
<text text-anchor="middle" x="578" y="-139" font-family="Helvetica,sans-Serif" font-size="10.00">ScanTimeQualifiers.earliest</text>
</a>
</g>
</g>
<!-- Node2&#45;&gt;Node4 -->
<g id="edge3_Node000002_Node000004" class="edge">
<title>Node2&#45;&gt;Node4</title>
<g id="a_edge3_Node000002_Node000004"><a xlink:title=" ">
<path fill="none" stroke="#63b8ff" d="M446.17,-127.37C456.55,-128.93 467.18,-130.53 477.69,-132.1"/>
<polygon fill="#63b8ff" stroke="#63b8ff" points="477.3,-135.58 487.71,-133.61 478.34,-128.66 477.3,-135.58"/>
</a>
</g>
</g>
<!-- Node5 -->
<g id="Node000005" class="node">
<title>Node5</title>
<g id="a_Node000005"><a xlink:href="classcom_1_1teragrep_1_1pth__06_1_1ast_1_1analyze_1_1FilterGroup.html#abca0dfe17ffff99e035f7136c075c661" target="_top" xlink:title=" ">
<polygon fill="white" stroke="#666666" points="668,-96 488,-96 488,-66 668,-66 668,-96"/>
<text text-anchor="start" x="496" y="-84" font-family="Helvetica,sans-Serif" font-size="10.00">com.teragrep.pth_06.ast.analyze.</text>
<text text-anchor="middle" x="578" y="-73" font-family="Helvetica,sans-Serif" font-size="10.00">FilterGroup.filterList</text>
</a>
</g>
</g>
<!-- Node2&#45;&gt;Node5 -->
<g id="edge5_Node000002_Node000005" class="edge">
<title>Node2&#45;&gt;Node5</title>
<g id="a_edge5_Node000002_Node000005"><a xlink:title=" ">
<path fill="none" stroke="#63b8ff" d="M446.17,-100.63C456.55,-99.07 467.18,-97.47 477.69,-95.9"/>
<polygon fill="#63b8ff" stroke="#63b8ff" points="478.34,-99.34 487.71,-94.39 477.3,-92.42 478.34,-99.34"/>
</a>
</g>
</g>
<!-- Node6 -->
<g id="Node000006" class="node">
<title>Node6</title>
<g id="a_Node000006"><a xlink:href="classcom_1_1teragrep_1_1pth__06_1_1ast_1_1analyze_1_1ScanTimeQualifiers.html#a99388aed3186adf2e10b2317b5565833" target="_top" xlink:title=" ">
<polygon fill="white" stroke="#666666" points="668,-30 488,-30 488,0 668,0 668,-30"/>
<text text-anchor="start" x="496" y="-18" font-family="Helvetica,sans-Serif" font-size="10.00">com.teragrep.pth_06.ast.analyze.</text>
<text text-anchor="middle" x="578" y="-7" font-family="Helvetica,sans-Serif" font-size="10.00">ScanTimeQualifiers.latest</text>
</a>
</g>
</g>
<!-- Node2&#45;&gt;Node6 -->
<g id="edge7_Node000002_Node000006" class="edge">
<title>Node2&#45;&gt;Node6</title>
<g id="a_edge7_Node000002_Node000006"><a xlink:title=" ">
<path fill="none" stroke="#63b8ff" d="M389.85,-98.89C415.03,-87.35 450.67,-71.07 482,-57 498.78,-49.47 517.26,-41.27 533.44,-34.13"/>
<polygon fill="#63b8ff" stroke="#63b8ff" points="534.92,-37.3 542.66,-30.07 532.1,-30.9 534.92,-37.3"/>
</a>
</g>
</g>
<!-- Node4&#45;&gt;Node4 -->
<g id="edge4_Node000004_Node000004" class="edge">
<title>Node4&#45;&gt;Node4</title>
<g id="a_edge4_Node000004_Node000004"><a xlink:title=" ">
<path fill="none" stroke="#63b8ff" d="M538.98,-162.28C530.3,-171.41 543.31,-180 578,-180 598.6,-180 611.55,-176.97 616.86,-172.6"/>
<polygon fill="#63b8ff" stroke="#63b8ff" points="620.36,-172.33 617.02,-162.28 613.36,-172.22 620.36,-172.33"/>
</a>
</g>
</g>
<!-- Node5&#45;&gt;Node5 -->
<g id="edge6_Node000005_Node000005" class="edge">
<title>Node5&#45;&gt;Node5</title>
<g id="a_edge6_Node000005_Node000005"><a xlink:title=" ">
<path fill="none" stroke="#63b8ff" d="M538.98,-96.28C530.3,-105.41 543.31,-114 578,-114 598.6,-114 611.55,-110.97 616.86,-106.6"/>
<polygon fill="#63b8ff" stroke="#63b8ff" points="620.36,-106.33 617.02,-96.28 613.36,-106.22 620.36,-106.33"/>
</a>
</g>
</g>
<!-- Node6&#45;&gt;Node6 -->
<g id="edge8_Node000006_Node000006" class="edge">
<title>Node6&#45;&gt;Node6</title>
<g id="a_edge8_Node000006_Node000006"><a xlink:title=" ">
<path fill="none" stroke="#63b8ff" d="M538.98,-30.28C530.3,-39.41 543.31,-48 578,-48 598.6,-48 611.55,-44.97 616.86,-40.6"/>
<polygon fill="#63b8ff" stroke="#63b8ff" points="620.36,-40.33 617.02,-30.28 613.36,-40.22 620.36,-40.33"/>
</a>
</g>
</g>
</g>
</svg>
