<?xml version="1.0" encoding="UTF-8" standalone="no"?>
<!DOCTYPE svg PUBLIC "-//W3C//DTD SVG 1.1//EN"
 "http://www.w3.org/Graphics/SVG/1.1/DTD/svg11.dtd">
<!-- Generated by graphviz version 2.43.0 (0)
 -->
<!-- Title: com.teragrep.pth_06.ast.transform.OptimizedASTTest.testEqualBinaryMembersToValue Pages: 1 -->
<svg width="1184pt" height="62pt"
 viewBox="0.00 0.00 1184.00 61.50" xmlns="http://www.w3.org/2000/svg" xmlns:xlink="http://www.w3.org/1999/xlink">
<g id="graph0" class="graph" transform="scale(1 1) rotate(0) translate(4 57.5)">
<title>com.teragrep.pth_06.ast.transform.OptimizedASTTest.testEqualBinaryMembersToValue</title>
<!-- Node1 -->
<g id="Node000001" class="node">
<title>Node1</title>
<g id="a_Node000001"><a xlink:title=" ">
<polygon fill="#999999" stroke="#666666" points="231,-41 0,-41 0,0 231,0 231,-41"/>
<text text-anchor="start" x="8" y="-29" font-family="Helvetica,sans-Serif" font-size="10.00">com.teragrep.pth_06.ast.transform.</text>
<text text-anchor="start" x="8" y="-18" font-family="Helvetica,sans-Serif" font-size="10.00">OptimizedASTTest.testEqualBinaryMembers</text>
<text text-anchor="middle" x="115.5" y="-7" font-family="Helvetica,sans-Serif" font-size="10.00">ToValue</text>
</a>
</g>
</g>
<!-- Node2 -->
<g id="Node000002" class="node">
<title>Node2</title>
<g id="a_Node000002"><a xlink:href="classcom_1_1teragrep_1_1pth__06_1_1ast_1_1transform_1_1OptimizedAST.html#a05726d2699d7ade747e74de2140c6a41" target="_top" xlink:title=" ">
<polygon fill="white" stroke="#666666" points="457,-35.5 267,-35.5 267,-5.5 457,-5.5 457,-35.5"/>
<text text-anchor="start" x="275" y="-23.5" font-family="Helvetica,sans-Serif" font-size="10.00">com.teragrep.pth_06.ast.transform.</text>
<text text-anchor="middle" x="362" y="-12.5" font-family="Helvetica,sans-Serif" font-size="10.00">OptimizedAST.transformed</text>
</a>
</g>
</g>
<!-- Node1&#45;&gt;Node2 -->
<g id="edge1_Node000001_Node000002" class="edge">
<title>Node1&#45;&gt;Node2</title>
<g id="a_edge1_Node000001_Node000002"><a xlink:title=" ">
<path fill="none" stroke="#63b8ff" d="M231.23,-20.5C239.7,-20.5 248.22,-20.5 256.62,-20.5"/>
<polygon fill="#63b8ff" stroke="#63b8ff" points="256.8,-24 266.8,-20.5 256.8,-17 256.8,-24"/>
</a>
</g>
</g>
<!-- Node3 -->
<g id="Node000003" class="node">
<title>Node3</title>
<g id="a_Node000003"><a xlink:href="classcom_1_1teragrep_1_1pth__06_1_1ast_1_1transform_1_1OptimizedAST.html#ac4ebcab5c55182e969cd03150e96e374" target="_top" xlink:title=" ">
<polygon fill="white" stroke="#666666" points="683,-35.5 493,-35.5 493,-5.5 683,-5.5 683,-35.5"/>
<text text-anchor="start" x="501" y="-23.5" font-family="Helvetica,sans-Serif" font-size="10.00">com.teragrep.pth_06.ast.transform.</text>
<text text-anchor="middle" x="588" y="-12.5" font-family="Helvetica,sans-Serif" font-size="10.00">OptimizedAST.walkAndApply</text>
</a>
</g>
</g>
<!-- Node2&#45;&gt;Node3 -->
<g id="edge2_Node000002_Node000003" class="edge">
<title>Node2&#45;&gt;Node3</title>
<g id="a_edge2_Node000002_Node000003"><a xlink:title=" ">
<path fill="none" stroke="#63b8ff" d="M457.02,-20.5C465.54,-20.5 474.2,-20.5 482.8,-20.5"/>
<polygon fill="#63b8ff" stroke="#63b8ff" points="482.86,-24 492.86,-20.5 482.86,-17 482.86,-24"/>
</a>
</g>
</g>
<!-- Node3&#45;&gt;Node3 -->
<g id="edge5_Node000003_Node000003" class="edge">
<title>Node3&#45;&gt;Node3</title>
<g id="a_edge5_Node000003_Node000003"><a xlink:title=" ">
<path fill="none" stroke="#63b8ff" d="M548.27,-35.78C539.45,-44.91 552.69,-53.5 588,-53.5 608.97,-53.5 622.15,-50.47 627.56,-46.1"/>
<polygon fill="#63b8ff" stroke="#63b8ff" points="631.06,-45.83 627.73,-35.78 624.06,-45.72 631.06,-45.83"/>
</a>
</g>
</g>
<!-- Node4 -->
<g id="Node000004" class="node">
<title>Node4</title>
<g id="a_Node000004"><a xlink:href="classcom_1_1teragrep_1_1pth__06_1_1ast_1_1transform_1_1OptimizedAST.html#a77542c0b232d1e10e50a9846e1845b10" target="_top" xlink:title=" ">
<polygon fill="white" stroke="#666666" points="950,-35.5 719,-35.5 719,-5.5 950,-5.5 950,-35.5"/>
<text text-anchor="start" x="727" y="-23.5" font-family="Helvetica,sans-Serif" font-size="10.00">com.teragrep.pth_06.ast.transform.</text>
<text text-anchor="middle" x="834.5" y="-12.5" font-family="Helvetica,sans-Serif" font-size="10.00">OptimizedAST.transformedSingleExpression</text>
</a>
</g>
</g>
<!-- Node3&#45;&gt;Node4 -->
<g id="edge3_Node000003_Node000004" class="edge">
<title>Node3&#45;&gt;Node4</title>
<g id="a_edge3_Node000003_Node000004"><a xlink:title=" ">
<path fill="none" stroke="#63b8ff" d="M683.18,-20.5C691.59,-20.5 700.19,-20.5 708.81,-20.5"/>
<polygon fill="#63b8ff" stroke="#63b8ff" points="708.92,-24 718.92,-20.5 708.92,-17 708.92,-24"/>
</a>
</g>
</g>
<!-- Node5 -->
<g id="Node000005" class="node">
<title>Node5</title>
<g id="a_Node000005"><a xlink:href="classcom_1_1teragrep_1_1pth__06_1_1ast_1_1transform_1_1UniqueChildren.html#a39304f06c8b7ac1e1a23463fe502028e" target="_top" xlink:title=" ">
<polygon fill="white" stroke="#666666" points="1176,-35.5 986,-35.5 986,-5.5 1176,-5.5 1176,-35.5"/>
<text text-anchor="start" x="994" y="-23.5" font-family="Helvetica,sans-Serif" font-size="10.00">com.teragrep.pth_06.ast.transform.</text>
<text text-anchor="middle" x="1081" y="-12.5" font-family="Helvetica,sans-Serif" font-size="10.00">UniqueChildren.transformed</text>
</a>
</g>
</g>
<!-- Node4&#45;&gt;Node5 -->
<g id="edge4_Node000004_Node000005" class="edge">
<title>Node4&#45;&gt;Node5</title>
<g id="a_edge4_Node000004_Node000005"><a xlink:title=" ">
<path fill="none" stroke="#63b8ff" d="M950.23,-20.5C958.7,-20.5 967.22,-20.5 975.62,-20.5"/>
<polygon fill="#63b8ff" stroke="#63b8ff" points="975.8,-24 985.8,-20.5 975.8,-17 975.8,-24"/>
</a>
</g>
</g>
</g>
</svg>
