<?xml version="1.0" encoding="UTF-8" standalone="no"?>
<!DOCTYPE svg PUBLIC "-//W3C//DTD SVG 1.1//EN"
 "http://www.w3.org/Graphics/SVG/1.1/DTD/svg11.dtd">
<!-- Generated by graphviz version 2.43.0 (0)
 -->
<!-- Title: com.teragrep.pth_06.planner.HBaseQueryImpl.latest Pages: 1 -->
<svg width="995pt" height="382pt"
 viewBox="0.00 0.00 995.00 382.00" xmlns="http://www.w3.org/2000/svg" xmlns:xlink="http://www.w3.org/1999/xlink">
<g id="graph0" class="graph" transform="scale(1 1) rotate(0) translate(4 378)">
<title>com.teragrep.pth_06.planner.HBaseQueryImpl.latest</title>
<!-- Node1 -->
<g id="Node000001" class="node">
<title>Node1</title>
<g id="a_Node000001"><a xlink:title="Queries results form hbase until the batch limit is reached and updates latest.">
<polygon fill="#999999" stroke="#666666" points="160,-190 0,-190 0,-160 160,-160 160,-190"/>
<text text-anchor="start" x="8" y="-178" font-family="Helvetica,sans-Serif" font-size="10.00">com.teragrep.pth_06.planner.</text>
<text text-anchor="middle" x="80" y="-167" font-family="Helvetica,sans-Serif" font-size="10.00">HBaseQueryImpl.latest</text>
</a>
</g>
</g>
<!-- Node2 -->
<g id="Node000002" class="node">
<title>Node2</title>
<g id="a_Node000002"><a xlink:href="classcom_1_1teragrep_1_1pth__06_1_1planner_1_1BatchSizeLimit.html#a3c8b6b537a6e8ca4bc3a45f250bb9da1" target="_top" xlink:title="Accumulate the given weight and count of objects.">
<polygon fill="white" stroke="#666666" points="356,-374 196,-374 196,-344 356,-344 356,-374"/>
<text text-anchor="start" x="204" y="-362" font-family="Helvetica,sans-Serif" font-size="10.00">com.teragrep.pth_06.planner.</text>
<text text-anchor="middle" x="276" y="-351" font-family="Helvetica,sans-Serif" font-size="10.00">BatchSizeLimit.add</text>
</a>
</g>
</g>
<!-- Node1&#45;&gt;Node2 -->
<g id="edge1_Node000001_Node000002" class="edge">
<title>Node1&#45;&gt;Node2</title>
<g id="a_edge1_Node000001_Node000002"><a xlink:title=" ">
<path fill="none" stroke="#63b8ff" d="M87.78,-190.33C102.64,-222.17 141.2,-295.77 196,-335 198.09,-336.5 200.28,-337.9 202.53,-339.22"/>
<polygon fill="#63b8ff" stroke="#63b8ff" points="201.05,-342.39 211.54,-343.89 204.27,-336.18 201.05,-342.39"/>
</a>
</g>
</g>
<!-- Node3 -->
<g id="Node000003" class="node">
<title>Node3</title>
<g id="a_Node000003"><a xlink:href="classcom_1_1teragrep_1_1pth__06_1_1planner_1_1HBaseQueryImpl.html#a3ddb5964124047be0b52937a19b6b7e9" target="_top" xlink:title="Finds the earliest offset available in the scan plan collection, formed from the query.">
<polygon fill="white" stroke="#666666" points="356,-308 196,-308 196,-278 356,-278 356,-308"/>
<text text-anchor="start" x="204" y="-296" font-family="Helvetica,sans-Serif" font-size="10.00">com.teragrep.pth_06.planner.</text>
<text text-anchor="middle" x="276" y="-285" font-family="Helvetica,sans-Serif" font-size="10.00">HBaseQueryImpl.earliest</text>
</a>
</g>
</g>
<!-- Node1&#45;&gt;Node3 -->
<g id="edge2_Node000001_Node000003" class="edge">
<title>Node1&#45;&gt;Node3</title>
<g id="a_edge2_Node000001_Node000003"><a xlink:title=" ">
<path fill="none" stroke="#63b8ff" d="M95.59,-190.19C116.17,-210.8 155.73,-247.52 196,-269 199.46,-270.84 203.08,-272.57 206.79,-274.18"/>
<polygon fill="#63b8ff" stroke="#63b8ff" points="205.56,-277.46 216.15,-277.94 208.18,-270.96 205.56,-277.46"/>
</a>
</g>
</g>
<!-- Node4 -->
<g id="Node000004" class="node">
<title>Node4</title>
<g id="a_Node000004"><a xlink:href="classcom_1_1teragrep_1_1pth__06_1_1planner_1_1EpochFromRowKey.html#a04c0e8be532170b3f568a527d125fe75" target="_top" xlink:title=" ">
<polygon fill="white" stroke="#666666" points="356,-260 196,-260 196,-230 356,-230 356,-260"/>
<text text-anchor="start" x="204" y="-248" font-family="Helvetica,sans-Serif" font-size="10.00">com.teragrep.pth_06.planner.</text>
<text text-anchor="middle" x="276" y="-237" font-family="Helvetica,sans-Serif" font-size="10.00">EpochFromRowKey.epoch</text>
</a>
</g>
</g>
<!-- Node1&#45;&gt;Node4 -->
<g id="edge4_Node000001_Node000004" class="edge">
<title>Node1&#45;&gt;Node4</title>
<g id="a_edge4_Node000001_Node000004"><a xlink:title=" ">
<path fill="none" stroke="#63b8ff" d="M116.44,-190.09C139.03,-199.48 169.02,-211.52 196,-221 201.55,-222.95 207.34,-224.89 213.16,-226.77"/>
<polygon fill="#63b8ff" stroke="#63b8ff" points="212.36,-230.19 222.95,-229.88 214.48,-223.52 212.36,-230.19"/>
</a>
</g>
</g>
<!-- Node5 -->
<g id="Node000005" class="node">
<title>Node5</title>
<g id="a_Node000005"><a xlink:href="classcom_1_1teragrep_1_1pth__06_1_1planner_1_1HBaseQueryImpl.html#aa4666d71ea114d0c0074b9c30e800fb7" target="_top" xlink:title=" ">
<polygon fill="white" stroke="#666666" points="356,-212 196,-212 196,-182 356,-182 356,-212"/>
<text text-anchor="start" x="204" y="-200" font-family="Helvetica,sans-Serif" font-size="10.00">com.teragrep.pth_06.planner.</text>
<text text-anchor="middle" x="276" y="-189" font-family="Helvetica,sans-Serif" font-size="10.00">HBaseQueryImpl.hasNext</text>
</a>
</g>
</g>
<!-- Node1&#45;&gt;Node5 -->
<g id="edge5_Node000001_Node000005" class="edge">
<title>Node1&#45;&gt;Node5</title>
<g id="a_edge5_Node000001_Node000005"><a xlink:title=" ">
<path fill="none" stroke="#63b8ff" d="M160.19,-183.98C168.62,-184.94 177.24,-185.91 185.78,-186.88"/>
<polygon fill="#63b8ff" stroke="#63b8ff" points="185.42,-190.36 195.75,-188.01 186.21,-183.41 185.42,-190.36"/>
</a>
</g>
</g>
<!-- Node8 -->
<g id="Node000008" class="node">
<title>Node8</title>
<g id="a_Node000008"><a xlink:href="classcom_1_1teragrep_1_1pth__06_1_1planner_1_1HBaseQueryImpl.html#a5a99d0c15e25eab70b9ae20662d988c9" target="_top" xlink:title=" ">
<polygon fill="white" stroke="#666666" points="748,-141 588,-141 588,-111 748,-111 748,-141"/>
<text text-anchor="start" x="596" y="-129" font-family="Helvetica,sans-Serif" font-size="10.00">com.teragrep.pth_06.planner.</text>
<text text-anchor="middle" x="668" y="-118" font-family="Helvetica,sans-Serif" font-size="10.00">HBaseQueryImpl.isOpen</text>
</a>
</g>
</g>
<!-- Node1&#45;&gt;Node8 -->
<g id="edge8_Node000001_Node000008" class="edge">
<title>Node1&#45;&gt;Node8</title>
<g id="a_edge8_Node000001_Node000008"><a xlink:title=" ">
<path fill="none" stroke="#63b8ff" d="M160.03,-168.39C268.75,-159.3 463.88,-142.98 577.74,-133.46"/>
<polygon fill="#63b8ff" stroke="#63b8ff" points="578.15,-136.94 587.82,-132.62 577.56,-129.97 578.15,-136.94"/>
</a>
</g>
</g>
<!-- Node9 -->
<g id="Node000009" class="node">
<title>Node9</title>
<g id="a_Node000009"><a xlink:href="classcom_1_1teragrep_1_1pth__06_1_1planner_1_1BatchSizeLimit.html#ac0ae9a8b12bb02236111c903eb42c2ea" target="_top" xlink:title="check if accumulated weight is over the maximum size limit OR if the accumulated count of objects is ...">
<polygon fill="white" stroke="#666666" points="356,-126 196,-126 196,-96 356,-96 356,-126"/>
<text text-anchor="start" x="204" y="-114" font-family="Helvetica,sans-Serif" font-size="10.00">com.teragrep.pth_06.planner.</text>
<text text-anchor="middle" x="276" y="-103" font-family="Helvetica,sans-Serif" font-size="10.00">BatchSizeLimit.isOverLimit</text>
</a>
</g>
</g>
<!-- Node1&#45;&gt;Node9 -->
<g id="edge10_Node000001_Node000009" class="edge">
<title>Node1&#45;&gt;Node9</title>
<g id="a_edge10_Node000001_Node000009"><a xlink:title=" ">
<path fill="none" stroke="#63b8ff" d="M126.48,-159.99C154.36,-150.8 190.22,-138.97 219.72,-129.24"/>
<polygon fill="#63b8ff" stroke="#63b8ff" points="221.06,-132.48 229.46,-126.02 218.87,-125.83 221.06,-132.48"/>
</a>
</g>
</g>
<!-- Node10 -->
<g id="Node000010" class="node">
<title>Node10</title>
<g id="a_Node000010"><a xlink:href="interfacecom_1_1teragrep_1_1pth__06_1_1planner_1_1HourlySlices.html#a78cb80b9e8a3d882a4c9c286d36ef6d5" target="_top" xlink:title=" ">
<polygon fill="white" stroke="#666666" points="356,-78 196,-78 196,-48 356,-48 356,-78"/>
<text text-anchor="start" x="204" y="-66" font-family="Helvetica,sans-Serif" font-size="10.00">com.teragrep.pth_06.planner.</text>
<text text-anchor="middle" x="276" y="-55" font-family="Helvetica,sans-Serif" font-size="10.00">HourlySlices.nextHour</text>
</a>
</g>
</g>
<!-- Node1&#45;&gt;Node10 -->
<g id="edge11_Node000001_Node000010" class="edge">
<title>Node1&#45;&gt;Node10</title>
<g id="a_edge11_Node000001_Node000010"><a xlink:title=" ">
<path fill="none" stroke="#63b8ff" d="M96.86,-159.84C117.94,-140.45 157.08,-106.97 196,-87 199.56,-85.17 203.28,-83.46 207.08,-81.86"/>
<polygon fill="#63b8ff" stroke="#63b8ff" points="208.64,-85.01 216.67,-78.1 206.08,-78.49 208.64,-85.01"/>
</a>
</g>
</g>
<!-- Node11 -->
<g id="Node000011" class="node">
<title>Node11</title>
<g id="a_Node000011"><a xlink:href="classcom_1_1teragrep_1_1pth__06_1_1planner_1_1HBaseQueryImpl.html#aac2c757eda96e3154434977c46d2ac1d" target="_top" xlink:title="Creates open scans for the query, starting from the provided offset.">
<polygon fill="white" stroke="#666666" points="356,-30 196,-30 196,0 356,0 356,-30"/>
<text text-anchor="start" x="204" y="-18" font-family="Helvetica,sans-Serif" font-size="10.00">com.teragrep.pth_06.planner.</text>
<text text-anchor="middle" x="276" y="-7" font-family="Helvetica,sans-Serif" font-size="10.00">HBaseQueryImpl.open</text>
</a>
</g>
</g>
<!-- Node1&#45;&gt;Node11 -->
<g id="edge12_Node000001_Node000011" class="edge">
<title>Node1&#45;&gt;Node11</title>
<g id="a_edge12_Node000001_Node000011"><a xlink:title=" ">
<path fill="none" stroke="#63b8ff" d="M89.67,-159.87C106.51,-131.81 146.4,-71.63 196,-39 198.41,-37.41 200.94,-35.93 203.54,-34.53"/>
<polygon fill="#63b8ff" stroke="#63b8ff" points="205.14,-37.65 212.63,-30.16 202.1,-31.34 205.14,-37.65"/>
</a>
</g>
</g>
<!-- Node3&#45;&gt;Node3 -->
<g id="edge3_Node000003_Node000003" class="edge">
<title>Node3&#45;&gt;Node3</title>
<g id="a_edge3_Node000003_Node000003"><a xlink:title=" ">
<path fill="none" stroke="#63b8ff" d="M241.55,-308.28C233.89,-317.41 245.38,-326 276,-326 294.18,-326 305.62,-322.97 310.31,-318.6"/>
<polygon fill="#63b8ff" stroke="#63b8ff" points="313.81,-318.32 310.45,-308.28 306.81,-318.22 313.81,-318.32"/>
</a>
</g>
</g>
<!-- Node6 -->
<g id="Node000006" class="node">
<title>Node6</title>
<g id="a_Node000006"><a xlink:href="interfacecom_1_1teragrep_1_1pth__06_1_1planner_1_1HourlySlices.html#a939046474a195cb2a911036e7ae19eac" target="_top" xlink:title=" ">
<polygon fill="white" stroke="#666666" points="552,-250 392,-250 392,-220 552,-220 552,-250"/>
<text text-anchor="start" x="400" y="-238" font-family="Helvetica,sans-Serif" font-size="10.00">com.teragrep.pth_06.planner.</text>
<text text-anchor="middle" x="472" y="-227" font-family="Helvetica,sans-Serif" font-size="10.00">HourlySlices.hasNext</text>
</a>
</g>
</g>
<!-- Node5&#45;&gt;Node6 -->
<g id="edge6_Node000005_Node000006" class="edge">
<title>Node5&#45;&gt;Node6</title>
<g id="a_edge6_Node000005_Node000006"><a xlink:title=" ">
<path fill="none" stroke="#63b8ff" d="M353.67,-212.02C363.68,-213.98 373.99,-216 384.15,-217.99"/>
<polygon fill="#63b8ff" stroke="#63b8ff" points="383.76,-221.48 394.25,-219.97 385.11,-214.61 383.76,-221.48"/>
</a>
</g>
</g>
<!-- Node7 -->
<g id="Node000007" class="node">
<title>Node7</title>
<g id="a_Node000007"><a xlink:href="interfacecom_1_1teragrep_1_1pth__06_1_1Stubbable.html#a0901c0a7cde13ff306d455e4009f01cb" target="_top" xlink:title=" ">
<polygon fill="white" stroke="#666666" points="987,-168.5 784,-168.5 784,-149.5 987,-149.5 987,-168.5"/>
<text text-anchor="middle" x="885.5" y="-156.5" font-family="Helvetica,sans-Serif" font-size="10.00">com.teragrep.pth_06.Stubbable.isStub</text>
</a>
</g>
</g>
<!-- Node5&#45;&gt;Node7 -->
<g id="edge7_Node000005_Node000007" class="edge">
<title>Node5&#45;&gt;Node7</title>
<g id="a_edge7_Node000005_Node000007"><a xlink:title=" ">
<path fill="none" stroke="#63b8ff" d="M356.11,-192.05C462.77,-185.38 653.2,-173.47 773.97,-165.91"/>
<polygon fill="#63b8ff" stroke="#63b8ff" points="774.22,-169.41 783.98,-165.29 773.78,-162.42 774.22,-169.41"/>
</a>
</g>
</g>
<!-- Node8&#45;&gt;Node7 -->
<g id="edge9_Node000008_Node000007" class="edge">
<title>Node8&#45;&gt;Node7</title>
<g id="a_edge9_Node000008_Node000007"><a xlink:title=" ">
<path fill="none" stroke="#63b8ff" d="M748.02,-138.1C769.08,-141.33 791.72,-144.79 812.39,-147.96"/>
<polygon fill="#63b8ff" stroke="#63b8ff" points="811.94,-151.43 822.36,-149.48 813,-144.51 811.94,-151.43"/>
</a>
</g>
</g>
<!-- Node11&#45;&gt;Node8 -->
<g id="edge16_Node000011_Node000008" class="edge">
<title>Node11&#45;&gt;Node8</title>
<g id="a_edge16_Node000011_Node000008"><a xlink:title=" ">
<path fill="none" stroke="#63b8ff" d="M329.09,-30.02C338.11,-32.85 347.37,-35.9 356,-39 372.31,-44.86 375.58,-48.46 392,-54 457.51,-76.1 533.67,-95.58 589.21,-108.68"/>
<polygon fill="#63b8ff" stroke="#63b8ff" points="588.45,-112.1 598.98,-110.97 590.05,-105.28 588.45,-112.1"/>
</a>
</g>
</g>
<!-- Node12 -->
<g id="Node000012" class="node">
<title>Node12</title>
<g id="a_Node000012"><a xlink:href="classcom_1_1teragrep_1_1pth__06_1_1planner_1_1HBaseQueryImpl.html#a5c2fd9106ed54b76d478cf6af5ac5233" target="_top" xlink:title="Closes all open scans in the hourly slices.">
<polygon fill="white" stroke="#666666" points="552,-45 392,-45 392,-15 552,-15 552,-45"/>
<text text-anchor="start" x="400" y="-33" font-family="Helvetica,sans-Serif" font-size="10.00">com.teragrep.pth_06.planner.</text>
<text text-anchor="middle" x="472" y="-22" font-family="Helvetica,sans-Serif" font-size="10.00">HBaseQueryImpl.close</text>
</a>
</g>
</g>
<!-- Node11&#45;&gt;Node12 -->
<g id="edge13_Node000011_Node000012" class="edge">
<title>Node11&#45;&gt;Node12</title>
<g id="a_edge13_Node000011_Node000012"><a xlink:title=" ">
<path fill="none" stroke="#63b8ff" d="M356.19,-21.12C364.62,-21.77 373.24,-22.44 381.78,-23.1"/>
<polygon fill="#63b8ff" stroke="#63b8ff" points="381.51,-26.59 391.75,-23.87 382.05,-19.61 381.51,-26.59"/>
</a>
</g>
</g>
<!-- Node12&#45;&gt;Node8 -->
<g id="edge15_Node000012_Node000008" class="edge">
<title>Node12&#45;&gt;Node8</title>
<g id="a_edge15_Node000012_Node000008"><a xlink:title=" ">
<path fill="none" stroke="#63b8ff" d="M503.31,-45C536.67,-61.51 590.42,-88.11 627.17,-106.29"/>
<polygon fill="#63b8ff" stroke="#63b8ff" points="626.07,-109.65 636.58,-110.95 629.17,-103.38 626.07,-109.65"/>
</a>
</g>
</g>
<!-- Node13 -->
<g id="Node000013" class="node">
<title>Node13</title>
<g id="a_Node000013"><a xlink:href="interfacecom_1_1teragrep_1_1pth__06_1_1planner_1_1HourlySlices.html#aa272aa7ce7a5abb0196768dfa472e1d1" target="_top" xlink:title=" ">
<polygon fill="white" stroke="#666666" points="748,-45 588,-45 588,-15 748,-15 748,-45"/>
<text text-anchor="start" x="596" y="-33" font-family="Helvetica,sans-Serif" font-size="10.00">com.teragrep.pth_06.planner.</text>
<text text-anchor="middle" x="668" y="-22" font-family="Helvetica,sans-Serif" font-size="10.00">HourlySlices.close</text>
</a>
</g>
</g>
<!-- Node12&#45;&gt;Node13 -->
<g id="edge14_Node000012_Node000013" class="edge">
<title>Node12&#45;&gt;Node13</title>
<g id="a_edge14_Node000012_Node000013"><a xlink:title=" ">
<path fill="none" stroke="#63b8ff" d="M552.19,-30C560.53,-30 569.05,-30 577.5,-30"/>
<polygon fill="#63b8ff" stroke="#63b8ff" points="577.75,-33.5 587.75,-30 577.75,-26.5 577.75,-33.5"/>
</a>
</g>
</g>
</g>
</svg>
