<?xml version="1.0" encoding="UTF-8" standalone="no"?>
<!DOCTYPE svg PUBLIC "-//W3C//DTD SVG 1.1//EN"
 "http://www.w3.org/Graphics/SVG/1.1/DTD/svg11.dtd">
<!-- Generated by graphviz version 2.43.0 (0)
 -->
<!-- Title: com.teragrep.pth_06.scheduler.BatchCalculator.processRange Pages: 1 -->
<svg width="1002pt" height="182pt"
 viewBox="0.00 0.00 1002.00 182.00" xmlns="http://www.w3.org/2000/svg" xmlns:xlink="http://www.w3.org/1999/xlink">
<g id="graph0" class="graph" transform="scale(1 1) rotate(0) translate(4 178)">
<title>com.teragrep.pth_06.scheduler.BatchCalculator.processRange</title>
<!-- Node1 -->
<g id="Node000001" class="node">
<title>Node1</title>
<g id="a_Node000001"><a xlink:title=" ">
<polygon fill="#999999" stroke="#666666" points="170,-102 0,-102 0,-72 170,-72 170,-102"/>
<text text-anchor="start" x="8" y="-90" font-family="Helvetica,sans-Serif" font-size="10.00">com.teragrep.pth_06.scheduler.</text>
<text text-anchor="middle" x="85" y="-79" font-family="Helvetica,sans-Serif" font-size="10.00">BatchCalculator.processRange</text>
</a>
</g>
</g>
<!-- Node1&#45;&gt;Node1 -->
<g id="edge5_Node000001_Node000001" class="edge">
<title>Node1&#45;&gt;Node1</title>
<g id="a_edge5_Node000001_Node000001"><a xlink:title=" ">
<path fill="none" stroke="#63b8ff" d="M48.79,-102.28C40.74,-111.41 52.81,-120 85,-120 104.11,-120 116.13,-116.97 121.06,-112.6"/>
<polygon fill="#63b8ff" stroke="#63b8ff" points="124.56,-112.33 121.21,-102.28 117.56,-112.22 124.56,-112.33"/>
</a>
</g>
</g>
<!-- Node2 -->
<g id="Node000002" class="node">
<title>Node2</title>
<g id="a_Node000002"><a xlink:href="classcom_1_1teragrep_1_1pth__06_1_1scheduler_1_1BatchCalculator.html#a13b488dfb781039d9d93f06b55e73e6c" target="_top" xlink:title=" ">
<polygon fill="white" stroke="#666666" points="376,-174 206,-174 206,-144 376,-144 376,-174"/>
<text text-anchor="start" x="214" y="-162" font-family="Helvetica,sans-Serif" font-size="10.00">com.teragrep.pth_06.scheduler.</text>
<text text-anchor="middle" x="291" y="-151" font-family="Helvetica,sans-Serif" font-size="10.00">BatchCalculator.buildBatch</text>
</a>
</g>
</g>
<!-- Node1&#45;&gt;Node2 -->
<g id="edge1_Node000001_Node000002" class="edge">
<title>Node1&#45;&gt;Node2</title>
<g id="a_edge1_Node000001_Node000002"><a xlink:title=" ">
<path fill="none" stroke="#63b8ff" d="M120.83,-102.03C144.59,-112.01 176.91,-125.06 206,-135 211.93,-137.03 218.14,-139.03 224.38,-140.95"/>
<polygon fill="#63b8ff" stroke="#63b8ff" points="223.59,-144.37 234.17,-143.92 225.62,-137.67 223.59,-144.37"/>
</a>
</g>
</g>
<!-- Node6 -->
<g id="Node000006" class="node">
<title>Node6</title>
<g id="a_Node000006"><a xlink:href="classcom_1_1teragrep_1_1pth__06_1_1scheduler_1_1BatchCalculator.html#a77f1b46b7a195adc705037e67152f279" target="_top" xlink:title=" ">
<polygon fill="white" stroke="#666666" points="376,-126 206,-126 206,-96 376,-96 376,-126"/>
<text text-anchor="start" x="214" y="-114" font-family="Helvetica,sans-Serif" font-size="10.00">com.teragrep.pth_06.scheduler.</text>
<text text-anchor="middle" x="291" y="-103" font-family="Helvetica,sans-Serif" font-size="10.00">BatchCalculator.useArchive</text>
</a>
</g>
</g>
<!-- Node1&#45;&gt;Node6 -->
<g id="edge6_Node000001_Node000006" class="edge">
<title>Node1&#45;&gt;Node6</title>
<g id="a_edge6_Node000001_Node000006"><a xlink:title=" ">
<path fill="none" stroke="#63b8ff" d="M170.15,-96.9C178.59,-97.89 187.2,-98.91 195.74,-99.91"/>
<polygon fill="#63b8ff" stroke="#63b8ff" points="195.37,-103.39 205.71,-101.08 196.19,-96.44 195.37,-103.39"/>
</a>
</g>
</g>
<!-- Node7 -->
<g id="Node000007" class="node">
<title>Node7</title>
<g id="a_Node000007"><a xlink:href="classcom_1_1teragrep_1_1pth__06_1_1scheduler_1_1BatchCalculator.html#a89161770ac37895897e28df448b4b05a" target="_top" xlink:title=" ">
<polygon fill="white" stroke="#666666" points="376,-78 206,-78 206,-48 376,-48 376,-78"/>
<text text-anchor="start" x="214" y="-66" font-family="Helvetica,sans-Serif" font-size="10.00">com.teragrep.pth_06.scheduler.</text>
<text text-anchor="middle" x="291" y="-55" font-family="Helvetica,sans-Serif" font-size="10.00">BatchCalculator.useHBase</text>
</a>
</g>
</g>
<!-- Node1&#45;&gt;Node7 -->
<g id="edge7_Node000001_Node000007" class="edge">
<title>Node1&#45;&gt;Node7</title>
<g id="a_edge7_Node000001_Node000007"><a xlink:title=" ">
<path fill="none" stroke="#63b8ff" d="M170.15,-77.1C178.59,-76.11 187.2,-75.09 195.74,-74.09"/>
<polygon fill="#63b8ff" stroke="#63b8ff" points="196.19,-77.56 205.71,-72.92 195.37,-70.61 196.19,-77.56"/>
</a>
</g>
</g>
<!-- Node8 -->
<g id="Node000008" class="node">
<title>Node8</title>
<g id="a_Node000008"><a xlink:href="classcom_1_1teragrep_1_1pth__06_1_1scheduler_1_1BatchCalculator.html#a57c1132b45ccf2382e2f2a723cfc2d3d" target="_top" xlink:title=" ">
<polygon fill="white" stroke="#666666" points="376,-30 206,-30 206,0 376,0 376,-30"/>
<text text-anchor="start" x="214" y="-18" font-family="Helvetica,sans-Serif" font-size="10.00">com.teragrep.pth_06.scheduler.</text>
<text text-anchor="middle" x="291" y="-7" font-family="Helvetica,sans-Serif" font-size="10.00">BatchCalculator.useKafka</text>
</a>
</g>
</g>
<!-- Node1&#45;&gt;Node8 -->
<g id="edge8_Node000001_Node000008" class="edge">
<title>Node1&#45;&gt;Node8</title>
<g id="a_edge8_Node000001_Node000008"><a xlink:title=" ">
<path fill="none" stroke="#63b8ff" d="M120.83,-71.97C144.59,-61.99 176.91,-48.94 206,-39 211.93,-36.97 218.14,-34.97 224.38,-33.05"/>
<polygon fill="#63b8ff" stroke="#63b8ff" points="225.62,-36.33 234.17,-30.08 223.59,-29.63 225.62,-36.33"/>
</a>
</g>
</g>
<!-- Node3 -->
<g id="Node000003" class="node">
<title>Node3</title>
<g id="a_Node000003"><a xlink:href="classcom_1_1teragrep_1_1pth__06_1_1scheduler_1_1BatchTaskQueue.html#a5a12217f55e121452b9c064187d81ac9" target="_top" xlink:title=" ">
<polygon fill="white" stroke="#666666" points="582,-174 412,-174 412,-144 582,-144 582,-174"/>
<text text-anchor="start" x="420" y="-162" font-family="Helvetica,sans-Serif" font-size="10.00">com.teragrep.pth_06.scheduler.</text>
<text text-anchor="middle" x="497" y="-151" font-family="Helvetica,sans-Serif" font-size="10.00">BatchTaskQueue.add</text>
</a>
</g>
</g>
<!-- Node2&#45;&gt;Node3 -->
<g id="edge2_Node000002_Node000003" class="edge">
<title>Node2&#45;&gt;Node3</title>
<g id="a_edge2_Node000002_Node000003"><a xlink:title=" ">
<path fill="none" stroke="#63b8ff" d="M376.15,-159C384.5,-159 393.02,-159 401.46,-159"/>
<polygon fill="#63b8ff" stroke="#63b8ff" points="401.71,-162.5 411.71,-159 401.71,-155.5 401.71,-162.5"/>
</a>
</g>
</g>
<!-- Node4 -->
<g id="Node000004" class="node">
<title>Node4</title>
<g id="a_Node000004"><a xlink:href="classcom_1_1teragrep_1_1pth__06_1_1scheduler_1_1BatchTaskQueue.html#a8bbebebaa1d1a99732e76b990c03afd2" target="_top" xlink:title=" ">
<polygon fill="white" stroke="#666666" points="788,-174 618,-174 618,-144 788,-144 788,-174"/>
<text text-anchor="start" x="626" y="-162" font-family="Helvetica,sans-Serif" font-size="10.00">com.teragrep.pth_06.scheduler.</text>
<text text-anchor="middle" x="703" y="-151" font-family="Helvetica,sans-Serif" font-size="10.00">BatchTaskQueue.estimate</text>
</a>
</g>
</g>
<!-- Node3&#45;&gt;Node4 -->
<g id="edge3_Node000003_Node000004" class="edge">
<title>Node3&#45;&gt;Node4</title>
<g id="a_edge3_Node000003_Node000004"><a xlink:title=" ">
<path fill="none" stroke="#63b8ff" d="M582.15,-159C590.5,-159 599.02,-159 607.46,-159"/>
<polygon fill="#63b8ff" stroke="#63b8ff" points="607.71,-162.5 617.71,-159 607.71,-155.5 607.71,-162.5"/>
</a>
</g>
</g>
<!-- Node5 -->
<g id="Node000005" class="node">
<title>Node5</title>
<g id="a_Node000005"><a xlink:href="classcom_1_1teragrep_1_1pth__06_1_1scheduler_1_1BatchUnit.html#a8669229df9fa027d92c9a38970427a5b" target="_top" xlink:title=" ">
<polygon fill="white" stroke="#666666" points="994,-174 824,-174 824,-144 994,-144 994,-174"/>
<text text-anchor="start" x="832" y="-162" font-family="Helvetica,sans-Serif" font-size="10.00">com.teragrep.pth_06.scheduler.</text>
<text text-anchor="middle" x="909" y="-151" font-family="Helvetica,sans-Serif" font-size="10.00">BatchUnit.getSize</text>
</a>
</g>
</g>
<!-- Node4&#45;&gt;Node5 -->
<g id="edge4_Node000004_Node000005" class="edge">
<title>Node4&#45;&gt;Node5</title>
<g id="a_edge4_Node000004_Node000005"><a xlink:title=" ">
<path fill="none" stroke="#63b8ff" d="M788.15,-159C796.5,-159 805.02,-159 813.46,-159"/>
<polygon fill="#63b8ff" stroke="#63b8ff" points="813.71,-162.5 823.71,-159 813.71,-155.5 813.71,-162.5"/>
</a>
</g>
</g>
</g>
</svg>
