<?xml version="1.0" encoding="UTF-8" standalone="no"?>
<!DOCTYPE svg PUBLIC "-//W3C//DTD SVG 1.1//EN"
 "http://www.w3.org/Graphics/SVG/1.1/DTD/svg11.dtd">
<!-- Generated by graphviz version 2.43.0 (0)
 -->
<!-- Title: com.teragrep.pth_06.ast.transform.OptimizedASTTest.testASTOptimization Pages: 1 -->
<svg width="1592pt" height="427pt"
 viewBox="0.00 0.00 1592.00 427.42" xmlns="http://www.w3.org/2000/svg" xmlns:xlink="http://www.w3.org/1999/xlink">
<g id="graph0" class="graph" transform="scale(1 1) rotate(0) translate(4 423.42)">
<title>com.teragrep.pth_06.ast.transform.OptimizedASTTest.testASTOptimization</title>
<!-- Node1 -->
<g id="Node000001" class="node">
<title>Node1</title>
<g id="a_Node000001"><a xlink:title=" ">
<polygon fill="#999999" stroke="#666666" points="209,-223.84 0,-223.84 0,-193.84 209,-193.84 209,-223.84"/>
<text text-anchor="start" x="8" y="-211.84" font-family="Helvetica,sans-Serif" font-size="10.00">com.teragrep.pth_06.ast.transform.</text>
<text text-anchor="middle" x="104.5" y="-200.84" font-family="Helvetica,sans-Serif" font-size="10.00">OptimizedASTTest.testASTOptimization</text>
</a>
</g>
</g>
<!-- Node2 -->
<g id="Node000002" class="node">
<title>Node2</title>
<g id="a_Node000002"><a xlink:href="classcom_1_1teragrep_1_1pth__06_1_1ast_1_1transform_1_1OptimizedAST.html#a05726d2699d7ade747e74de2140c6a41" target="_top" xlink:title=" ">
<polygon fill="white" stroke="#666666" points="435,-223.84 245,-223.84 245,-193.84 435,-193.84 435,-223.84"/>
<text text-anchor="start" x="253" y="-211.84" font-family="Helvetica,sans-Serif" font-size="10.00">com.teragrep.pth_06.ast.transform.</text>
<text text-anchor="middle" x="340" y="-200.84" font-family="Helvetica,sans-Serif" font-size="10.00">OptimizedAST.transformed</text>
</a>
</g>
</g>
<!-- Node1&#45;&gt;Node2 -->
<g id="edge1_Node000001_Node000002" class="edge">
<title>Node1&#45;&gt;Node2</title>
<g id="a_edge1_Node000001_Node000002"><a xlink:title=" ">
<path fill="none" stroke="#63b8ff" d="M209.28,-208.84C217.68,-208.84 226.17,-208.84 234.57,-208.84"/>
<polygon fill="#63b8ff" stroke="#63b8ff" points="234.77,-212.34 244.77,-208.84 234.77,-205.34 234.77,-212.34"/>
</a>
</g>
</g>
<!-- Node3 -->
<g id="Node000003" class="node">
<title>Node3</title>
<g id="a_Node000003"><a xlink:href="classcom_1_1teragrep_1_1pth__06_1_1ast_1_1transform_1_1OptimizedAST.html#ac4ebcab5c55182e969cd03150e96e374" target="_top" xlink:title=" ">
<polygon fill="white" stroke="#666666" points="661,-223.84 471,-223.84 471,-193.84 661,-193.84 661,-223.84"/>
<text text-anchor="start" x="479" y="-211.84" font-family="Helvetica,sans-Serif" font-size="10.00">com.teragrep.pth_06.ast.transform.</text>
<text text-anchor="middle" x="566" y="-200.84" font-family="Helvetica,sans-Serif" font-size="10.00">OptimizedAST.walkAndApply</text>
</a>
</g>
</g>
<!-- Node2&#45;&gt;Node3 -->
<g id="edge2_Node000002_Node000003" class="edge">
<title>Node2&#45;&gt;Node3</title>
<g id="a_edge2_Node000002_Node000003"><a xlink:title=" ">
<path fill="none" stroke="#63b8ff" d="M435.02,-208.84C443.54,-208.84 452.2,-208.84 460.8,-208.84"/>
<polygon fill="#63b8ff" stroke="#63b8ff" points="460.86,-212.34 470.86,-208.84 460.86,-205.34 460.86,-212.34"/>
</a>
</g>
</g>
<!-- Node3&#45;&gt;Node3 -->
<g id="edge40_Node000003_Node000003" class="edge">
<title>Node3&#45;&gt;Node3</title>
<g id="a_edge40_Node000003_Node000003"><a xlink:title=" ">
<path fill="none" stroke="#63b8ff" d="M526.27,-224.11C517.45,-233.24 530.69,-241.84 566,-241.84 586.97,-241.84 600.15,-238.81 605.56,-234.43"/>
<polygon fill="#63b8ff" stroke="#63b8ff" points="609.06,-234.17 605.73,-224.11 602.06,-234.05 609.06,-234.17"/>
</a>
</g>
</g>
<!-- Node4 -->
<g id="Node000004" class="node">
<title>Node4</title>
<g id="a_Node000004"><a xlink:href="interfacecom_1_1teragrep_1_1pth__06_1_1ast_1_1Expression.html#a17e7d33905be57c6e22e1717da6ddef6" target="_top" xlink:title=" ">
<polygon fill="white" stroke="#666666" points="1580.5,-271.84 1441.5,-271.84 1441.5,-241.84 1580.5,-241.84 1580.5,-271.84"/>
<text text-anchor="start" x="1449.5" y="-259.84" font-family="Helvetica,sans-Serif" font-size="10.00">com.teragrep.pth_06.ast.</text>
<text text-anchor="middle" x="1511" y="-248.84" font-family="Helvetica,sans-Serif" font-size="10.00">Expression.asLogical</text>
</a>
</g>
</g>
<!-- Node3&#45;&gt;Node4 -->
<g id="edge3_Node000003_Node000004" class="edge">
<title>Node3&#45;&gt;Node4</title>
<g id="a_edge3_Node000003_Node000004"><a xlink:title=" ">
<path fill="none" stroke="#63b8ff" d="M602.4,-223.88C670.92,-252.38 826.98,-314.28 964,-346.84 1062.58,-370.26 1088.89,-370.16 1190,-376.84 1284.02,-383.05 1324.56,-430.51 1402,-376.84 1439.45,-350.88 1405.19,-312.46 1438,-280.84 1439.13,-279.75 1440.3,-278.71 1441.52,-277.72"/>
<polygon fill="#63b8ff" stroke="#63b8ff" points="1443.85,-280.38 1450.13,-271.85 1439.9,-274.6 1443.85,-280.38"/>
</a>
</g>
</g>
<!-- Node5 -->
<g id="Node000005" class="node">
<title>Node5</title>
<g id="a_Node000005"><a xlink:href="interfacecom_1_1teragrep_1_1pth__06_1_1ast_1_1LogicalExpression.html#aeaf8fe296c6899792f345659a9a6c0c4" target="_top" xlink:title=" ">
<polygon fill="white" stroke="#666666" points="1584,-223.84 1438,-223.84 1438,-193.84 1584,-193.84 1584,-223.84"/>
<text text-anchor="start" x="1446" y="-211.84" font-family="Helvetica,sans-Serif" font-size="10.00">com.teragrep.pth_06.ast.</text>
<text text-anchor="middle" x="1511" y="-200.84" font-family="Helvetica,sans-Serif" font-size="10.00">LogicalExpression.children</text>
</a>
</g>
</g>
<!-- Node3&#45;&gt;Node5 -->
<g id="edge4_Node000003_Node000005" class="edge">
<title>Node3&#45;&gt;Node5</title>
<g id="a_edge4_Node000003_Node000005"><a xlink:title=" ">
<path fill="none" stroke="#63b8ff" d="M591.35,-193.65C697.57,-129.52 1127.26,107.71 1402,-70.84 1435.03,-92.3 1413.86,-120.71 1438,-151.84 1448.66,-165.58 1463.31,-177.96 1476.62,-187.65"/>
<polygon fill="#63b8ff" stroke="#63b8ff" points="1474.91,-190.73 1485.11,-193.61 1478.93,-185 1474.91,-190.73"/>
</a>
</g>
</g>
<!-- Node6 -->
<g id="Node000006" class="node">
<title>Node6</title>
<g id="a_Node000006"><a xlink:href="interfacecom_1_1teragrep_1_1pth__06_1_1ast_1_1Expression.html#a65ee7f5fb98e4129018f467a53586842" target="_top" xlink:title=" ">
<polygon fill="white" stroke="#666666" points="1580.5,-142.84 1441.5,-142.84 1441.5,-112.84 1580.5,-112.84 1580.5,-142.84"/>
<text text-anchor="start" x="1449.5" y="-130.84" font-family="Helvetica,sans-Serif" font-size="10.00">com.teragrep.pth_06.ast.</text>
<text text-anchor="middle" x="1511" y="-119.84" font-family="Helvetica,sans-Serif" font-size="10.00">Expression.isLogical</text>
</a>
</g>
</g>
<!-- Node3&#45;&gt;Node6 -->
<g id="edge5_Node000003_Node000006" class="edge">
<title>Node3&#45;&gt;Node6</title>
<g id="a_edge5_Node000003_Node000006"><a xlink:title=" ">
<path fill="none" stroke="#63b8ff" d="M573.8,-193.58C589.79,-159.65 633.31,-78.04 697,-40.84 800.56,19.65 844.39,-10.53 964,-1.84 1005.73,1.19 1397.04,-0.55 1402,-2.84 1447.14,-23.6 1480.65,-73.51 1497.59,-103.61"/>
<polygon fill="#63b8ff" stroke="#63b8ff" points="1494.65,-105.51 1502.5,-112.62 1500.79,-102.16 1494.65,-105.51"/>
</a>
</g>
</g>
<!-- Node7 -->
<g id="Node000007" class="node">
<title>Node7</title>
<g id="a_Node000007"><a xlink:href="interfacecom_1_1teragrep_1_1pth__06_1_1ast_1_1Expression.html#a8b9661253a3610b9eb148ee29ca8b7e1" target="_top" xlink:title=" ">
<polygon fill="white" stroke="#666666" points="1580.5,-319.84 1441.5,-319.84 1441.5,-289.84 1580.5,-289.84 1580.5,-319.84"/>
<text text-anchor="start" x="1449.5" y="-307.84" font-family="Helvetica,sans-Serif" font-size="10.00">com.teragrep.pth_06.ast.</text>
<text text-anchor="middle" x="1511" y="-296.84" font-family="Helvetica,sans-Serif" font-size="10.00">Expression.tag</text>
</a>
</g>
</g>
<!-- Node3&#45;&gt;Node7 -->
<g id="edge6_Node000003_Node000007" class="edge">
<title>Node3&#45;&gt;Node7</title>
<g id="a_edge6_Node000003_Node000007"><a xlink:title=" ">
<path fill="none" stroke="#63b8ff" d="M581.43,-224.15C603.91,-247.05 649.63,-289.97 697,-312.84 897.59,-409.65 967.72,-388.63 1190,-402.84 1284.03,-408.84 1314.1,-436.77 1402,-402.84 1440.66,-387.91 1474.04,-352 1493.08,-328.05"/>
<polygon fill="#63b8ff" stroke="#63b8ff" points="1495.86,-330.18 1499.21,-320.13 1490.32,-325.9 1495.86,-330.18"/>
</a>
</g>
</g>
<!-- Node8 -->
<g id="Node000008" class="node">
<title>Node8</title>
<g id="a_Node000008"><a xlink:href="classcom_1_1teragrep_1_1pth__06_1_1ast_1_1transform_1_1OptimizedAST.html#a77542c0b232d1e10e50a9846e1845b10" target="_top" xlink:title=" ">
<polygon fill="white" stroke="#666666" points="928,-223.84 697,-223.84 697,-193.84 928,-193.84 928,-223.84"/>
<text text-anchor="start" x="705" y="-211.84" font-family="Helvetica,sans-Serif" font-size="10.00">com.teragrep.pth_06.ast.transform.</text>
<text text-anchor="middle" x="812.5" y="-200.84" font-family="Helvetica,sans-Serif" font-size="10.00">OptimizedAST.transformedSingleExpression</text>
</a>
</g>
</g>
<!-- Node3&#45;&gt;Node8 -->
<g id="edge7_Node000003_Node000008" class="edge">
<title>Node3&#45;&gt;Node8</title>
<g id="a_edge7_Node000003_Node000008"><a xlink:title=" ">
<path fill="none" stroke="#63b8ff" d="M661.18,-208.84C669.59,-208.84 678.19,-208.84 686.81,-208.84"/>
<polygon fill="#63b8ff" stroke="#63b8ff" points="686.92,-212.34 696.92,-208.84 686.92,-205.34 686.92,-212.34"/>
</a>
</g>
</g>
<!-- Node9 -->
<g id="Node000009" class="node">
<title>Node9</title>
<g id="a_Node000009"><a xlink:href="classcom_1_1teragrep_1_1pth__06_1_1ast_1_1transform_1_1EmptyPruned.html#a8cfebc9854b0ad9a7cbe81918392e036" target="_top" xlink:title=" ">
<polygon fill="white" stroke="#666666" points="1391,-175.84 1201,-175.84 1201,-145.84 1391,-145.84 1391,-175.84"/>
<text text-anchor="start" x="1209" y="-163.84" font-family="Helvetica,sans-Serif" font-size="10.00">com.teragrep.pth_06.ast.transform.</text>
<text text-anchor="middle" x="1296" y="-152.84" font-family="Helvetica,sans-Serif" font-size="10.00">EmptyPruned.transformed</text>
</a>
</g>
</g>
<!-- Node8&#45;&gt;Node9 -->
<g id="edge8_Node000008_Node000009" class="edge">
<title>Node8&#45;&gt;Node9</title>
<g id="a_edge8_Node000008_Node000009"><a xlink:title=" ">
<path fill="none" stroke="#63b8ff" d="M928.22,-197.4C1007.95,-189.45 1113.36,-178.94 1190.71,-171.23"/>
<polygon fill="#63b8ff" stroke="#63b8ff" points="1191.35,-174.69 1200.95,-170.21 1190.66,-167.72 1191.35,-174.69"/>
</a>
</g>
</g>
<!-- Node10 -->
<g id="Node000010" class="node">
<title>Node10</title>
<g id="a_Node000010"><a xlink:href="classcom_1_1teragrep_1_1pth__06_1_1ast_1_1transform_1_1FlattenLogical.html#a2e1717ad6884eea7a2415aa7763eaed5" target="_top" xlink:title=" ">
<polygon fill="white" stroke="#666666" points="1154,-319.84 964,-319.84 964,-289.84 1154,-289.84 1154,-319.84"/>
<text text-anchor="start" x="972" y="-307.84" font-family="Helvetica,sans-Serif" font-size="10.00">com.teragrep.pth_06.ast.transform.</text>
<text text-anchor="middle" x="1059" y="-296.84" font-family="Helvetica,sans-Serif" font-size="10.00">FlattenLogical.transformed</text>
</a>
</g>
</g>
<!-- Node8&#45;&gt;Node10 -->
<g id="edge13_Node000008_Node000010" class="edge">
<title>Node8&#45;&gt;Node10</title>
<g id="a_edge13_Node000008_Node000010"><a xlink:title=" ">
<path fill="none" stroke="#63b8ff" d="M851.7,-223.84C894.46,-240.62 963.8,-267.85 1010.14,-286.05"/>
<polygon fill="#63b8ff" stroke="#63b8ff" points="1009.08,-289.39 1019.66,-289.78 1011.63,-282.87 1009.08,-289.39"/>
</a>
</g>
</g>
<!-- Node13 -->
<g id="Node000013" class="node">
<title>Node13</title>
<g id="a_Node000013"><a xlink:href="classcom_1_1teragrep_1_1pth__06_1_1ast_1_1transform_1_1IdentitySimplification.html#a2e7ebae3195ee7794364c646e783c6d3" target="_top" xlink:title=" ">
<polygon fill="white" stroke="#666666" points="1391,-109.84 1201,-109.84 1201,-79.84 1391,-79.84 1391,-109.84"/>
<text text-anchor="start" x="1209" y="-97.84" font-family="Helvetica,sans-Serif" font-size="10.00">com.teragrep.pth_06.ast.transform.</text>
<text text-anchor="middle" x="1296" y="-86.84" font-family="Helvetica,sans-Serif" font-size="10.00">IdentitySimplification.transformed</text>
</a>
</g>
</g>
<!-- Node8&#45;&gt;Node13 -->
<g id="edge25_Node000008_Node000013" class="edge">
<title>Node8&#45;&gt;Node13</title>
<g id="a_edge25_Node000008_Node000013"><a xlink:title=" ">
<path fill="none" stroke="#63b8ff" d="M871.68,-193.84C899.57,-186.72 933.48,-178.19 964,-170.84 1050.69,-149.94 1150.47,-127.21 1217.62,-112.11"/>
<polygon fill="#63b8ff" stroke="#63b8ff" points="1218.71,-115.45 1227.7,-109.84 1217.18,-108.62 1218.71,-115.45"/>
</a>
</g>
</g>
<!-- Node14 -->
<g id="Node000014" class="node">
<title>Node14</title>
<g id="a_Node000014"><a xlink:href="classcom_1_1teragrep_1_1pth__06_1_1ast_1_1transform_1_1PrunedInvalidTimeQualifier.html#a390e2447fa0ee0e2964ba44d68710b37" target="_top" xlink:title=" ">
<polygon fill="white" stroke="#666666" points="1402,-271.84 1190,-271.84 1190,-241.84 1402,-241.84 1402,-271.84"/>
<text text-anchor="start" x="1198" y="-259.84" font-family="Helvetica,sans-Serif" font-size="10.00">com.teragrep.pth_06.ast.transform.</text>
<text text-anchor="middle" x="1296" y="-248.84" font-family="Helvetica,sans-Serif" font-size="10.00">PrunedInvalidTimeQualifier.transformed</text>
</a>
</g>
</g>
<!-- Node8&#45;&gt;Node14 -->
<g id="edge30_Node000008_Node000014" class="edge">
<title>Node8&#45;&gt;Node14</title>
<g id="a_edge30_Node000008_Node000014"><a xlink:title=" ">
<path fill="none" stroke="#63b8ff" d="M928.22,-220.27C1004.22,-227.85 1103.56,-237.75 1179.68,-245.34"/>
<polygon fill="#63b8ff" stroke="#63b8ff" points="1179.5,-248.84 1189.79,-246.35 1180.19,-241.87 1179.5,-248.84"/>
</a>
</g>
</g>
<!-- Node15 -->
<g id="Node000015" class="node">
<title>Node15</title>
<g id="a_Node000015"><a xlink:href="classcom_1_1teragrep_1_1pth__06_1_1ast_1_1transform_1_1UniqueChildren.html#a39304f06c8b7ac1e1a23463fe502028e" target="_top" xlink:title=" ">
<polygon fill="white" stroke="#666666" points="1391,-223.84 1201,-223.84 1201,-193.84 1391,-193.84 1391,-223.84"/>
<text text-anchor="start" x="1209" y="-211.84" font-family="Helvetica,sans-Serif" font-size="10.00">com.teragrep.pth_06.ast.transform.</text>
<text text-anchor="middle" x="1296" y="-200.84" font-family="Helvetica,sans-Serif" font-size="10.00">UniqueChildren.transformed</text>
</a>
</g>
</g>
<!-- Node8&#45;&gt;Node15 -->
<g id="edge35_Node000008_Node000015" class="edge">
<title>Node8&#45;&gt;Node15</title>
<g id="a_edge35_Node000008_Node000015"><a xlink:title=" ">
<path fill="none" stroke="#63b8ff" d="M928.22,-208.84C1007.95,-208.84 1113.36,-208.84 1190.71,-208.84"/>
<polygon fill="#63b8ff" stroke="#63b8ff" points="1190.95,-212.34 1200.95,-208.84 1190.95,-205.34 1190.95,-212.34"/>
</a>
</g>
</g>
<!-- Node9&#45;&gt;Node4 -->
<g id="edge9_Node000009_Node000004" class="edge">
<title>Node9&#45;&gt;Node4</title>
<g id="a_edge9_Node000009_Node000004"><a xlink:title=" ">
<path fill="none" stroke="#63b8ff" d="M1384.91,-175.87C1390.9,-178.41 1396.67,-181.37 1402,-184.84 1424.36,-199.36 1416.37,-217.24 1438,-232.84 1440.06,-234.32 1442.21,-235.72 1444.44,-237.03"/>
<polygon fill="#63b8ff" stroke="#63b8ff" points="1442.85,-240.14 1453.33,-241.69 1446.1,-233.95 1442.85,-240.14"/>
</a>
</g>
</g>
<!-- Node9&#45;&gt;Node5 -->
<g id="edge10_Node000009_Node000005" class="edge">
<title>Node9&#45;&gt;Node5</title>
<g id="a_edge10_Node000009_Node000005"><a xlink:title=" ">
<path fill="none" stroke="#63b8ff" d="M1363.81,-175.89C1385.92,-180.87 1410.68,-186.46 1433.46,-191.59"/>
<polygon fill="#63b8ff" stroke="#63b8ff" points="1432.9,-195.05 1443.43,-193.83 1434.44,-188.22 1432.9,-195.05"/>
</a>
</g>
</g>
<!-- Node9&#45;&gt;Node6 -->
<g id="edge11_Node000009_Node000006" class="edge">
<title>Node9&#45;&gt;Node6</title>
<g id="a_edge11_Node000009_Node000006"><a xlink:title=" ">
<path fill="none" stroke="#63b8ff" d="M1391.04,-146.27C1404.54,-144.17 1418.31,-142.04 1431.47,-140"/>
<polygon fill="#63b8ff" stroke="#63b8ff" points="1432.05,-143.46 1441.4,-138.47 1430.98,-136.54 1432.05,-143.46"/>
</a>
</g>
</g>
<!-- Node9&#45;&gt;Node7 -->
<g id="edge12_Node000009_Node000007" class="edge">
<title>Node9&#45;&gt;Node7</title>
<g id="a_edge12_Node000009_Node000007"><a xlink:title=" ">
<path fill="none" stroke="#63b8ff" d="M1389.13,-175.84C1393.72,-178.41 1398.06,-181.39 1402,-184.84 1436.31,-214.83 1405.19,-249.22 1438,-280.84 1439.13,-281.92 1440.3,-282.96 1441.52,-283.95"/>
<polygon fill="#63b8ff" stroke="#63b8ff" points="1439.9,-287.08 1450.13,-289.82 1443.85,-281.3 1439.9,-287.08"/>
</a>
</g>
</g>
<!-- Node10&#45;&gt;Node6 -->
<g id="edge22_Node000010_Node000006" class="edge">
<title>Node10&#45;&gt;Node6</title>
<g id="a_edge22_Node000010_Node000006"><a xlink:title=" ">
<path fill="none" stroke="#63b8ff" d="M1062.94,-289.68C1072.29,-246.08 1105.89,-120.33 1190,-70.84 1271.21,-23.05 1310.54,-48.18 1402,-70.84 1430.45,-77.88 1459.67,-93.94 1480.53,-107.23"/>
<polygon fill="#63b8ff" stroke="#63b8ff" points="1478.65,-110.17 1488.93,-112.71 1482.47,-104.31 1478.65,-110.17"/>
</a>
</g>
</g>
<!-- Node10&#45;&gt;Node7 -->
<g id="edge23_Node000010_Node000007" class="edge">
<title>Node10&#45;&gt;Node7</title>
<g id="a_edge23_Node000010_Node000007"><a xlink:title=" ">
<path fill="none" stroke="#63b8ff" d="M1079.78,-320.04C1104.14,-337.71 1147.54,-365.86 1190,-376.84 1281.23,-400.41 1311.82,-404.14 1402,-376.84 1434.37,-367.04 1465.9,-343.98 1486.46,-326.58"/>
<polygon fill="#63b8ff" stroke="#63b8ff" points="1488.78,-329.2 1494.04,-320 1484.19,-323.91 1488.78,-329.2"/>
</a>
</g>
</g>
<!-- Node10&#45;&gt;Node10 -->
<g id="edge24_Node000010_Node000010" class="edge">
<title>Node10&#45;&gt;Node10</title>
<g id="a_edge24_Node000010_Node000010"><a xlink:title=" ">
<path fill="none" stroke="#63b8ff" d="M1017.52,-320.11C1008.3,-329.24 1022.12,-337.84 1059,-337.84 1080.89,-337.84 1094.66,-334.81 1100.31,-330.43"/>
<polygon fill="#63b8ff" stroke="#63b8ff" points="1103.81,-330.17 1100.48,-320.11 1096.81,-330.05 1103.81,-330.17"/>
</a>
</g>
</g>
<!-- Node11 -->
<g id="Node000011" class="node">
<title>Node11</title>
<g id="a_Node000011"><a xlink:href="classcom_1_1teragrep_1_1pth__06_1_1ast_1_1transform_1_1FlattenLogical.html#a3b9085857dc57e88c58a6fa5a057f103" target="_top" xlink:title=" ">
<polygon fill="white" stroke="#666666" points="1391.5,-319.84 1200.5,-319.84 1200.5,-289.84 1391.5,-289.84 1391.5,-319.84"/>
<text text-anchor="start" x="1208.5" y="-307.84" font-family="Helvetica,sans-Serif" font-size="10.00">com.teragrep.pth_06.ast.transform.</text>
<text text-anchor="middle" x="1296" y="-296.84" font-family="Helvetica,sans-Serif" font-size="10.00">FlattenLogical.flattenedAndChildren</text>
</a>
</g>
</g>
<!-- Node10&#45;&gt;Node11 -->
<g id="edge14_Node000010_Node000011" class="edge">
<title>Node10&#45;&gt;Node11</title>
<g id="a_edge14_Node000010_Node000011"><a xlink:title=" ">
<path fill="none" stroke="#63b8ff" d="M1154.23,-304.84C1166.1,-304.84 1178.3,-304.84 1190.32,-304.84"/>
<polygon fill="#63b8ff" stroke="#63b8ff" points="1190.37,-308.34 1200.37,-304.84 1190.37,-301.34 1190.37,-308.34"/>
</a>
</g>
</g>
<!-- Node12 -->
<g id="Node000012" class="node">
<title>Node12</title>
<g id="a_Node000012"><a xlink:href="classcom_1_1teragrep_1_1pth__06_1_1ast_1_1transform_1_1FlattenLogical.html#ae0b8acc47ab74872494d07da365e303b" target="_top" xlink:title=" ">
<polygon fill="white" stroke="#666666" points="1391,-367.84 1201,-367.84 1201,-337.84 1391,-337.84 1391,-367.84"/>
<text text-anchor="start" x="1209" y="-355.84" font-family="Helvetica,sans-Serif" font-size="10.00">com.teragrep.pth_06.ast.transform.</text>
<text text-anchor="middle" x="1296" y="-344.84" font-family="Helvetica,sans-Serif" font-size="10.00">FlattenLogical.flattenedOrChildren</text>
</a>
</g>
</g>
<!-- Node10&#45;&gt;Node12 -->
<g id="edge18_Node000010_Node000012" class="edge">
<title>Node10&#45;&gt;Node12</title>
<g id="a_edge18_Node000010_Node000012"><a xlink:title=" ">
<path fill="none" stroke="#63b8ff" d="M1133.71,-319.89C1158.43,-324.94 1186.16,-330.61 1211.57,-335.8"/>
<polygon fill="#63b8ff" stroke="#63b8ff" points="1211.05,-339.26 1221.55,-337.83 1212.45,-332.4 1211.05,-339.26"/>
</a>
</g>
</g>
<!-- Node11&#45;&gt;Node4 -->
<g id="edge15_Node000011_Node000004" class="edge">
<title>Node11&#45;&gt;Node4</title>
<g id="a_edge15_Node000011_Node000004"><a xlink:title=" ">
<path fill="none" stroke="#63b8ff" d="M1363.81,-289.78C1385.92,-284.8 1410.68,-279.22 1433.46,-274.08"/>
<polygon fill="#63b8ff" stroke="#63b8ff" points="1434.44,-277.45 1443.43,-271.84 1432.9,-270.62 1434.44,-277.45"/>
</a>
</g>
</g>
<!-- Node11&#45;&gt;Node5 -->
<g id="edge16_Node000011_Node000005" class="edge">
<title>Node11&#45;&gt;Node5</title>
<g id="a_edge16_Node000011_Node000005"><a xlink:title=" ">
<path fill="none" stroke="#63b8ff" d="M1384.91,-289.81C1390.9,-287.27 1396.67,-284.3 1402,-280.84 1424.36,-266.31 1416.37,-248.43 1438,-232.84 1440.06,-231.35 1442.21,-229.96 1444.44,-228.64"/>
<polygon fill="#63b8ff" stroke="#63b8ff" points="1446.1,-231.73 1453.33,-223.98 1442.85,-225.53 1446.1,-231.73"/>
</a>
</g>
</g>
<!-- Node11&#45;&gt;Node7 -->
<g id="edge17_Node000011_Node000007" class="edge">
<title>Node11&#45;&gt;Node7</title>
<g id="a_edge17_Node000011_Node000007"><a xlink:title=" ">
<path fill="none" stroke="#63b8ff" d="M1391.67,-304.84C1404.9,-304.84 1418.39,-304.84 1431.29,-304.84"/>
<polygon fill="#63b8ff" stroke="#63b8ff" points="1431.49,-308.34 1441.49,-304.84 1431.49,-301.34 1431.49,-308.34"/>
</a>
</g>
</g>
<!-- Node12&#45;&gt;Node4 -->
<g id="edge19_Node000012_Node000004" class="edge">
<title>Node12&#45;&gt;Node4</title>
<g id="a_edge19_Node000012_Node000004"><a xlink:title=" ">
<path fill="none" stroke="#63b8ff" d="M1384.91,-337.81C1390.9,-335.27 1396.67,-332.3 1402,-328.84 1424.36,-314.31 1416.37,-296.43 1438,-280.84 1440.06,-279.35 1442.21,-277.96 1444.44,-276.64"/>
<polygon fill="#63b8ff" stroke="#63b8ff" points="1446.1,-279.73 1453.33,-271.98 1442.85,-273.53 1446.1,-279.73"/>
</a>
</g>
</g>
<!-- Node12&#45;&gt;Node5 -->
<g id="edge20_Node000012_Node000005" class="edge">
<title>Node12&#45;&gt;Node5</title>
<g id="a_edge20_Node000012_Node000005"><a xlink:title=" ">
<path fill="none" stroke="#63b8ff" d="M1389.13,-337.84C1393.72,-335.26 1398.06,-332.28 1402,-328.84 1436.31,-298.85 1405.19,-264.46 1438,-232.84 1439.13,-231.75 1440.3,-230.71 1441.52,-229.72"/>
<polygon fill="#63b8ff" stroke="#63b8ff" points="1443.85,-232.38 1450.13,-223.85 1439.9,-226.6 1443.85,-232.38"/>
</a>
</g>
</g>
<!-- Node12&#45;&gt;Node7 -->
<g id="edge21_Node000012_Node000007" class="edge">
<title>Node12&#45;&gt;Node7</title>
<g id="a_edge21_Node000012_Node000007"><a xlink:title=" ">
<path fill="none" stroke="#63b8ff" d="M1363.81,-337.78C1385.92,-332.8 1410.68,-327.22 1433.46,-322.08"/>
<polygon fill="#63b8ff" stroke="#63b8ff" points="1434.44,-325.45 1443.43,-319.84 1432.9,-318.62 1434.44,-325.45"/>
</a>
</g>
</g>
<!-- Node13&#45;&gt;Node4 -->
<g id="edge26_Node000013_Node000004" class="edge">
<title>Node13&#45;&gt;Node4</title>
<g id="a_edge26_Node000013_Node000004"><a xlink:title=" ">
<path fill="none" stroke="#63b8ff" d="M1359.06,-109.94C1374.65,-116.17 1390.26,-124.84 1402,-136.84 1433.87,-169.41 1405.19,-201.22 1438,-232.84 1439.13,-233.92 1440.3,-234.96 1441.52,-235.95"/>
<polygon fill="#63b8ff" stroke="#63b8ff" points="1439.9,-239.08 1450.13,-241.82 1443.85,-233.3 1439.9,-239.08"/>
</a>
</g>
</g>
<!-- Node13&#45;&gt;Node5 -->
<g id="edge27_Node000013_Node000005" class="edge">
<title>Node13&#45;&gt;Node5</title>
<g id="a_edge27_Node000013_Node000005"><a xlink:title=" ">
<path fill="none" stroke="#63b8ff" d="M1340.31,-109.84C1359.61,-117.11 1382.37,-126.51 1402,-136.84 1430.4,-151.77 1460.61,-172.37 1481.84,-187.71"/>
<polygon fill="#63b8ff" stroke="#63b8ff" points="1479.94,-190.65 1490.08,-193.72 1484.06,-184.99 1479.94,-190.65"/>
</a>
</g>
</g>
<!-- Node13&#45;&gt;Node6 -->
<g id="edge28_Node000013_Node000006" class="edge">
<title>Node13&#45;&gt;Node6</title>
<g id="a_edge28_Node000013_Node000006"><a xlink:title=" ">
<path fill="none" stroke="#63b8ff" d="M1391.04,-109.41C1404.54,-111.5 1418.31,-113.63 1431.47,-115.67"/>
<polygon fill="#63b8ff" stroke="#63b8ff" points="1430.98,-119.14 1441.4,-117.21 1432.05,-112.22 1430.98,-119.14"/>
</a>
</g>
</g>
<!-- Node13&#45;&gt;Node13 -->
<g id="edge29_Node000013_Node000013" class="edge">
<title>Node13&#45;&gt;Node13</title>
<g id="a_edge29_Node000013_Node000013"><a xlink:title=" ">
<path fill="none" stroke="#63b8ff" d="M1258.38,-110.11C1250.02,-119.24 1262.56,-127.84 1296,-127.84 1315.85,-127.84 1328.34,-124.81 1333.46,-120.43"/>
<polygon fill="#63b8ff" stroke="#63b8ff" points="1336.96,-120.16 1333.62,-110.11 1329.96,-120.06 1336.96,-120.16"/>
</a>
</g>
</g>
<!-- Node14&#45;&gt;Node4 -->
<g id="edge31_Node000014_Node000004" class="edge">
<title>Node14&#45;&gt;Node4</title>
<g id="a_edge31_Node000014_Node000004"><a xlink:title=" ">
<path fill="none" stroke="#63b8ff" d="M1402.25,-256.84C1412.03,-256.84 1421.82,-256.84 1431.29,-256.84"/>
<polygon fill="#63b8ff" stroke="#63b8ff" points="1431.43,-260.34 1441.43,-256.84 1431.43,-253.34 1431.43,-260.34"/>
</a>
</g>
</g>
<!-- Node14&#45;&gt;Node5 -->
<g id="edge32_Node000014_Node000005" class="edge">
<title>Node14&#45;&gt;Node5</title>
<g id="a_edge32_Node000014_Node000005"><a xlink:title=" ">
<path fill="none" stroke="#63b8ff" d="M1363.81,-241.78C1385.92,-236.8 1410.68,-231.22 1433.46,-226.08"/>
<polygon fill="#63b8ff" stroke="#63b8ff" points="1434.44,-229.45 1443.43,-223.84 1432.9,-222.62 1434.44,-229.45"/>
</a>
</g>
</g>
<!-- Node14&#45;&gt;Node6 -->
<g id="edge33_Node000014_Node000006" class="edge">
<title>Node14&#45;&gt;Node6</title>
<g id="a_edge33_Node000014_Node000006"><a xlink:title=" ">
<path fill="none" stroke="#63b8ff" d="M1384.91,-241.81C1390.9,-239.27 1396.67,-236.3 1402,-232.84 1424.36,-218.31 1419.39,-203.94 1438,-184.84 1450.71,-171.79 1466.42,-159.03 1479.92,-148.9"/>
<polygon fill="#63b8ff" stroke="#63b8ff" points="1482.02,-151.71 1488,-142.96 1477.87,-146.07 1482.02,-151.71"/>
</a>
</g>
</g>
<!-- Node14&#45;&gt;Node7 -->
<g id="edge34_Node000014_Node000007" class="edge">
<title>Node14&#45;&gt;Node7</title>
<g id="a_edge34_Node000014_Node000007"><a xlink:title=" ">
<path fill="none" stroke="#63b8ff" d="M1363.81,-271.89C1385.92,-276.87 1410.68,-282.46 1433.46,-287.59"/>
<polygon fill="#63b8ff" stroke="#63b8ff" points="1432.9,-291.05 1443.43,-289.83 1434.44,-284.22 1432.9,-291.05"/>
</a>
</g>
</g>
<!-- Node15&#45;&gt;Node4 -->
<g id="edge36_Node000015_Node000004" class="edge">
<title>Node15&#45;&gt;Node4</title>
<g id="a_edge36_Node000015_Node000004"><a xlink:title=" ">
<path fill="none" stroke="#63b8ff" d="M1363.81,-223.89C1385.92,-228.87 1410.68,-234.46 1433.46,-239.59"/>
<polygon fill="#63b8ff" stroke="#63b8ff" points="1432.9,-243.05 1443.43,-241.83 1434.44,-236.22 1432.9,-243.05"/>
</a>
</g>
</g>
<!-- Node15&#45;&gt;Node5 -->
<g id="edge37_Node000015_Node000005" class="edge">
<title>Node15&#45;&gt;Node5</title>
<g id="a_edge37_Node000015_Node000005"><a xlink:title=" ">
<path fill="none" stroke="#63b8ff" d="M1391.04,-208.84C1403.32,-208.84 1415.82,-208.84 1427.88,-208.84"/>
<polygon fill="#63b8ff" stroke="#63b8ff" points="1427.89,-212.34 1437.89,-208.84 1427.89,-205.34 1427.89,-212.34"/>
</a>
</g>
</g>
<!-- Node15&#45;&gt;Node6 -->
<g id="edge38_Node000015_Node000006" class="edge">
<title>Node15&#45;&gt;Node6</title>
<g id="a_edge38_Node000015_Node000006"><a xlink:title=" ">
<path fill="none" stroke="#63b8ff" d="M1373.68,-193.77C1383.33,-191.16 1392.97,-188.19 1402,-184.84 1428.32,-175.07 1456.3,-160.16 1477.19,-148.04"/>
<polygon fill="#63b8ff" stroke="#63b8ff" points="1479.13,-150.96 1485.97,-142.87 1475.58,-144.93 1479.13,-150.96"/>
</a>
</g>
</g>
<!-- Node15&#45;&gt;Node7 -->
<g id="edge39_Node000015_Node000007" class="edge">
<title>Node15&#45;&gt;Node7</title>
<g id="a_edge39_Node000015_Node000007"><a xlink:title=" ">
<path fill="none" stroke="#63b8ff" d="M1384.91,-223.87C1390.9,-226.41 1396.67,-229.37 1402,-232.84 1424.36,-247.36 1416.37,-265.24 1438,-280.84 1440.06,-282.32 1442.21,-283.72 1444.44,-285.03"/>
<polygon fill="#63b8ff" stroke="#63b8ff" points="1442.85,-288.14 1453.33,-289.69 1446.1,-281.95 1442.85,-288.14"/>
</a>
</g>
</g>
</g>
</svg>
