<?xml version="1.0" encoding="UTF-8" standalone="no"?>
<!DOCTYPE svg PUBLIC "-//W3C//DTD SVG 1.1//EN"
 "http://www.w3.org/Graphics/SVG/1.1/DTD/svg11.dtd">
<!-- Generated by graphviz version 2.43.0 (0)
 -->
<!-- Title: com.teragrep.pth_06.ast.analyze.ScanRangeCollection.asList Pages: 1 -->
<svg width="858pt" height="227pt"
 viewBox="0.00 0.00 858.00 227.00" xmlns="http://www.w3.org/2000/svg" xmlns:xlink="http://www.w3.org/1999/xlink">
<g id="graph0" class="graph" transform="scale(1 1) rotate(0) translate(4 223)">
<title>com.teragrep.pth_06.ast.analyze.ScanRangeCollection.asList</title>
<!-- Node1 -->
<g id="Node000001" class="node">
<title>Node1</title>
<g id="a_Node000001"><a xlink:title=" ">
<polygon fill="#999999" stroke="#666666" points="180,-147 0,-147 0,-117 180,-117 180,-147"/>
<text text-anchor="start" x="8" y="-135" font-family="Helvetica,sans-Serif" font-size="10.00">com.teragrep.pth_06.ast.analyze.</text>
<text text-anchor="middle" x="90" y="-124" font-family="Helvetica,sans-Serif" font-size="10.00">ScanRangeCollection.asList</text>
</a>
</g>
</g>
<!-- Node2 -->
<g id="Node000002" class="node">
<title>Node2</title>
<g id="a_Node000002"><a xlink:href="classcom_1_1teragrep_1_1pth__06_1_1ast_1_1analyze_1_1ScanRangeCollection.html#ae559ce9b6a9ded88c7b62910bf56efbe" target="_top" xlink:title=" ">
<polygon fill="white" stroke="#666666" points="416,-147 216,-147 216,-117 416,-117 416,-147"/>
<text text-anchor="start" x="224" y="-135" font-family="Helvetica,sans-Serif" font-size="10.00">com.teragrep.pth_06.ast.analyze.</text>
<text text-anchor="middle" x="316" y="-124" font-family="Helvetica,sans-Serif" font-size="10.00">ScanRangeCollection.findScanRanges</text>
</a>
</g>
</g>
<!-- Node1&#45;&gt;Node2 -->
<g id="edge1_Node000001_Node000002" class="edge">
<title>Node1&#45;&gt;Node2</title>
<g id="a_edge1_Node000001_Node000002"><a xlink:title=" ">
<path fill="none" stroke="#63b8ff" d="M180.17,-132C188.59,-132 197.19,-132 205.77,-132"/>
<polygon fill="#63b8ff" stroke="#63b8ff" points="205.81,-135.5 215.81,-132 205.81,-128.5 205.81,-135.5"/>
</a>
</g>
</g>
<!-- Node2&#45;&gt;Node2 -->
<g id="edge4_Node000002_Node000002" class="edge">
<title>Node2&#45;&gt;Node2</title>
<g id="a_edge4_Node000002_Node000002"><a xlink:title=" ">
<path fill="none" stroke="#63b8ff" d="M276.27,-147.28C267.45,-156.41 280.69,-165 316,-165 336.97,-165 350.15,-161.97 355.56,-157.6"/>
<polygon fill="#63b8ff" stroke="#63b8ff" points="359.06,-157.33 355.73,-147.28 352.06,-157.22 359.06,-157.33"/>
</a>
</g>
</g>
<!-- Node3 -->
<g id="Node000003" class="node">
<title>Node3</title>
<g id="a_Node000003"><a xlink:href="interfacecom_1_1teragrep_1_1pth__06_1_1ast_1_1Expression.html#a17e7d33905be57c6e22e1717da6ddef6" target="_top" xlink:title=" ">
<polygon fill="white" stroke="#666666" points="611.5,-219 472.5,-219 472.5,-189 611.5,-189 611.5,-219"/>
<text text-anchor="start" x="480.5" y="-207" font-family="Helvetica,sans-Serif" font-size="10.00">com.teragrep.pth_06.ast.</text>
<text text-anchor="middle" x="542" y="-196" font-family="Helvetica,sans-Serif" font-size="10.00">Expression.asLogical</text>
</a>
</g>
</g>
<!-- Node2&#45;&gt;Node3 -->
<g id="edge2_Node000002_Node000003" class="edge">
<title>Node2&#45;&gt;Node3</title>
<g id="a_edge2_Node000002_Node000003"><a xlink:title=" ">
<path fill="none" stroke="#63b8ff" d="M356.6,-147C383.36,-156.91 419.59,-169.88 452,-180 458.57,-182.05 465.44,-184.09 472.33,-186.06"/>
<polygon fill="#63b8ff" stroke="#63b8ff" points="471.83,-189.56 482.41,-188.9 473.73,-182.82 471.83,-189.56"/>
</a>
</g>
</g>
<!-- Node4 -->
<g id="Node000004" class="node">
<title>Node4</title>
<g id="a_Node000004"><a xlink:href="interfacecom_1_1teragrep_1_1pth__06_1_1ast_1_1LogicalExpression.html#aeaf8fe296c6899792f345659a9a6c0c4" target="_top" xlink:title=" ">
<polygon fill="white" stroke="#666666" points="615,-171 469,-171 469,-141 615,-141 615,-171"/>
<text text-anchor="start" x="477" y="-159" font-family="Helvetica,sans-Serif" font-size="10.00">com.teragrep.pth_06.ast.</text>
<text text-anchor="middle" x="542" y="-148" font-family="Helvetica,sans-Serif" font-size="10.00">LogicalExpression.children</text>
</a>
</g>
</g>
<!-- Node2&#45;&gt;Node4 -->
<g id="edge3_Node000002_Node000004" class="edge">
<title>Node2&#45;&gt;Node4</title>
<g id="a_edge3_Node000002_Node000004"><a xlink:title=" ">
<path fill="none" stroke="#63b8ff" d="M416.23,-142.63C430.45,-144.16 444.94,-145.71 458.79,-147.19"/>
<polygon fill="#63b8ff" stroke="#63b8ff" points="458.42,-150.67 468.74,-148.26 459.17,-143.71 458.42,-150.67"/>
</a>
</g>
</g>
<!-- Node5 -->
<g id="Node000005" class="node">
<title>Node5</title>
<g id="a_Node000005"><a xlink:href="interfacecom_1_1teragrep_1_1pth__06_1_1ast_1_1Expression.html#a65ee7f5fb98e4129018f467a53586842" target="_top" xlink:title=" ">
<polygon fill="white" stroke="#666666" points="611.5,-123 472.5,-123 472.5,-93 611.5,-93 611.5,-123"/>
<text text-anchor="start" x="480.5" y="-111" font-family="Helvetica,sans-Serif" font-size="10.00">com.teragrep.pth_06.ast.</text>
<text text-anchor="middle" x="542" y="-100" font-family="Helvetica,sans-Serif" font-size="10.00">Expression.isLogical</text>
</a>
</g>
</g>
<!-- Node2&#45;&gt;Node5 -->
<g id="edge5_Node000002_Node000005" class="edge">
<title>Node2&#45;&gt;Node5</title>
<g id="a_edge5_Node000002_Node000005"><a xlink:title=" ">
<path fill="none" stroke="#63b8ff" d="M416.23,-121.37C431.63,-119.72 447.36,-118.03 462.23,-116.44"/>
<polygon fill="#63b8ff" stroke="#63b8ff" points="462.8,-119.9 472.37,-115.35 462.06,-112.94 462.8,-119.9"/>
</a>
</g>
</g>
<!-- Node6 -->
<g id="Node000006" class="node">
<title>Node6</title>
<g id="a_Node000006"><a xlink:href="classcom_1_1teragrep_1_1pth__06_1_1ast_1_1analyze_1_1ScanGroupExpression.html#ad1c8159c9353a4b98804664e89a77921" target="_top" xlink:title=" ">
<polygon fill="white" stroke="#666666" points="632,-57 452,-57 452,-27 632,-27 632,-57"/>
<text text-anchor="start" x="460" y="-45" font-family="Helvetica,sans-Serif" font-size="10.00">com.teragrep.pth_06.ast.analyze.</text>
<text text-anchor="middle" x="542" y="-34" font-family="Helvetica,sans-Serif" font-size="10.00">ScanGroupExpression.value</text>
</a>
</g>
</g>
<!-- Node2&#45;&gt;Node6 -->
<g id="edge6_Node000002_Node000006" class="edge">
<title>Node2&#45;&gt;Node6</title>
<g id="a_edge6_Node000002_Node000006"><a xlink:title=" ">
<path fill="none" stroke="#63b8ff" d="M354.49,-116.94C392.85,-101.52 452.56,-77.54 494.04,-60.87"/>
<polygon fill="#63b8ff" stroke="#63b8ff" points="495.41,-64.09 503.39,-57.11 492.8,-57.59 495.41,-64.09"/>
</a>
</g>
</g>
<!-- Node6&#45;&gt;Node6 -->
<g id="edge9_Node000006_Node000006" class="edge">
<title>Node6&#45;&gt;Node6</title>
<g id="a_edge9_Node000006_Node000006"><a xlink:title=" ">
<path fill="none" stroke="#63b8ff" d="M504.03,-57.28C495.59,-66.41 508.25,-75 542,-75 562.04,-75 574.64,-71.97 579.81,-67.6"/>
<polygon fill="#63b8ff" stroke="#63b8ff" points="583.31,-67.33 579.97,-57.28 576.31,-67.22 583.31,-67.33"/>
</a>
</g>
</g>
<!-- Node7 -->
<g id="Node000007" class="node">
<title>Node7</title>
<g id="a_Node000007"><a xlink:href="classcom_1_1teragrep_1_1pth__06_1_1ast_1_1MergeIntersectingRanges.html#aaea772833fd1c81b853a6726dabe09fe" target="_top" xlink:title=" ">
<polygon fill="white" stroke="#666666" points="850,-89.5 668,-89.5 668,-48.5 850,-48.5 850,-89.5"/>
<text text-anchor="start" x="676" y="-77.5" font-family="Helvetica,sans-Serif" font-size="10.00">com.teragrep.pth_06.ast.</text>
<text text-anchor="start" x="676" y="-66.5" font-family="Helvetica,sans-Serif" font-size="10.00">MergeIntersectingRanges.merged</text>
<text text-anchor="middle" x="759" y="-55.5" font-family="Helvetica,sans-Serif" font-size="10.00">Ranges</text>
</a>
</g>
</g>
<!-- Node6&#45;&gt;Node7 -->
<g id="edge7_Node000006_Node000007" class="edge">
<title>Node6&#45;&gt;Node7</title>
<g id="a_edge7_Node000006_Node000007"><a xlink:title=" ">
<path fill="none" stroke="#63b8ff" d="M632,-53.18C640.47,-54.24 649.1,-55.32 657.66,-56.4"/>
<polygon fill="#63b8ff" stroke="#63b8ff" points="657.32,-59.88 667.68,-57.66 658.19,-52.94 657.32,-59.88"/>
</a>
</g>
</g>
<!-- Node8 -->
<g id="Node000008" class="node">
<title>Node8</title>
<g id="a_Node000008"><a xlink:href="classcom_1_1teragrep_1_1pth__06_1_1ast_1_1analyze_1_1ScanGroupExpression.html#aa39e1ccf09a9d3b02854913cc52f5352" target="_top" xlink:title=" ">
<polygon fill="white" stroke="#666666" points="849,-30 669,-30 669,0 849,0 849,-30"/>
<text text-anchor="start" x="677" y="-18" font-family="Helvetica,sans-Serif" font-size="10.00">com.teragrep.pth_06.ast.analyze.</text>
<text text-anchor="middle" x="759" y="-7" font-family="Helvetica,sans-Serif" font-size="10.00">ScanGroupExpression.tag</text>
</a>
</g>
</g>
<!-- Node6&#45;&gt;Node8 -->
<g id="edge8_Node000006_Node000008" class="edge">
<title>Node6&#45;&gt;Node8</title>
<g id="a_edge8_Node000006_Node000008"><a xlink:title=" ">
<path fill="none" stroke="#63b8ff" d="M632,-30.82C640.81,-29.72 649.8,-28.59 658.71,-27.47"/>
<polygon fill="#63b8ff" stroke="#63b8ff" points="659.23,-30.93 668.72,-26.21 658.36,-23.99 659.23,-30.93"/>
</a>
</g>
</g>
</g>
</svg>
