<?xml version="1.0" encoding="UTF-8" standalone="no"?>
<!DOCTYPE svg PUBLIC "-//W3C//DTD SVG 1.1//EN"
 "http://www.w3.org/Graphics/SVG/1.1/DTD/svg11.dtd">
<!-- Generated by graphviz version 2.43.0 (0)
 -->
<!-- Title: com.teragrep.pth_06.ast.analyze.ScanRanges.findScanRanges Pages: 1 -->
<svg width="622pt" height="227pt"
 viewBox="0.00 0.00 622.00 227.00" xmlns="http://www.w3.org/2000/svg" xmlns:xlink="http://www.w3.org/1999/xlink">
<g id="graph0" class="graph" transform="scale(1 1) rotate(0) translate(4 223)">
<title>com.teragrep.pth_06.ast.analyze.ScanRanges.findScanRanges</title>
<!-- Node1 -->
<g id="Node000001" class="node">
<title>Node1</title>
<g id="a_Node000001"><a xlink:title=" ">
<polygon fill="#999999" stroke="#666666" points="180,-147 0,-147 0,-117 180,-117 180,-147"/>
<text text-anchor="start" x="8" y="-135" font-family="Helvetica,sans-Serif" font-size="10.00">com.teragrep.pth_06.ast.analyze.</text>
<text text-anchor="middle" x="90" y="-124" font-family="Helvetica,sans-Serif" font-size="10.00">ScanRanges.findScanRanges</text>
</a>
</g>
</g>
<!-- Node1&#45;&gt;Node1 -->
<g id="edge3_Node000001_Node000001" class="edge">
<title>Node1&#45;&gt;Node1</title>
<g id="a_edge3_Node000001_Node000001"><a xlink:title=" ">
<path fill="none" stroke="#63b8ff" d="M52.03,-147.28C43.59,-156.41 56.25,-165 90,-165 110.04,-165 122.64,-161.97 127.81,-157.6"/>
<polygon fill="#63b8ff" stroke="#63b8ff" points="131.31,-157.33 127.97,-147.28 124.31,-157.22 131.31,-157.33"/>
</a>
</g>
</g>
<!-- Node2 -->
<g id="Node000002" class="node">
<title>Node2</title>
<g id="a_Node000002"><a xlink:href="interfacecom_1_1teragrep_1_1pth__06_1_1ast_1_1Expression.html#a17e7d33905be57c6e22e1717da6ddef6" target="_top" xlink:title=" ">
<polygon fill="white" stroke="#666666" points="375.5,-219 236.5,-219 236.5,-189 375.5,-189 375.5,-219"/>
<text text-anchor="start" x="244.5" y="-207" font-family="Helvetica,sans-Serif" font-size="10.00">com.teragrep.pth_06.ast.</text>
<text text-anchor="middle" x="306" y="-196" font-family="Helvetica,sans-Serif" font-size="10.00">Expression.asLogical</text>
</a>
</g>
</g>
<!-- Node1&#45;&gt;Node2 -->
<g id="edge1_Node000001_Node000002" class="edge">
<title>Node1&#45;&gt;Node2</title>
<g id="a_edge1_Node000001_Node000002"><a xlink:title=" ">
<path fill="none" stroke="#63b8ff" d="M127.29,-147.08C152.05,-157.08 185.72,-170.13 216,-180 222.44,-182.1 229.18,-184.16 235.96,-186.14"/>
<polygon fill="#63b8ff" stroke="#63b8ff" points="235.29,-189.59 245.86,-188.97 237.21,-182.86 235.29,-189.59"/>
</a>
</g>
</g>
<!-- Node3 -->
<g id="Node000003" class="node">
<title>Node3</title>
<g id="a_Node000003"><a xlink:href="interfacecom_1_1teragrep_1_1pth__06_1_1ast_1_1LogicalExpression.html#aeaf8fe296c6899792f345659a9a6c0c4" target="_top" xlink:title=" ">
<polygon fill="white" stroke="#666666" points="379,-171 233,-171 233,-141 379,-141 379,-171"/>
<text text-anchor="start" x="241" y="-159" font-family="Helvetica,sans-Serif" font-size="10.00">com.teragrep.pth_06.ast.</text>
<text text-anchor="middle" x="306" y="-148" font-family="Helvetica,sans-Serif" font-size="10.00">LogicalExpression.children</text>
</a>
</g>
</g>
<!-- Node1&#45;&gt;Node3 -->
<g id="edge2_Node000001_Node000003" class="edge">
<title>Node1&#45;&gt;Node3</title>
<g id="a_edge2_Node000001_Node000003"><a xlink:title=" ">
<path fill="none" stroke="#63b8ff" d="M180.21,-142C194.33,-143.59 208.87,-145.22 222.82,-146.78"/>
<polygon fill="#63b8ff" stroke="#63b8ff" points="222.53,-150.27 232.86,-147.91 223.31,-143.32 222.53,-150.27"/>
</a>
</g>
</g>
<!-- Node4 -->
<g id="Node000004" class="node">
<title>Node4</title>
<g id="a_Node000004"><a xlink:href="interfacecom_1_1teragrep_1_1pth__06_1_1ast_1_1Expression.html#a65ee7f5fb98e4129018f467a53586842" target="_top" xlink:title=" ">
<polygon fill="white" stroke="#666666" points="375.5,-123 236.5,-123 236.5,-93 375.5,-93 375.5,-123"/>
<text text-anchor="start" x="244.5" y="-111" font-family="Helvetica,sans-Serif" font-size="10.00">com.teragrep.pth_06.ast.</text>
<text text-anchor="middle" x="306" y="-100" font-family="Helvetica,sans-Serif" font-size="10.00">Expression.isLogical</text>
</a>
</g>
</g>
<!-- Node1&#45;&gt;Node4 -->
<g id="edge4_Node000001_Node000004" class="edge">
<title>Node1&#45;&gt;Node4</title>
<g id="a_edge4_Node000001_Node000004"><a xlink:title=" ">
<path fill="none" stroke="#63b8ff" d="M180.21,-122C195.49,-120.28 211.27,-118.51 226.25,-116.83"/>
<polygon fill="#63b8ff" stroke="#63b8ff" points="226.93,-120.28 236.48,-115.68 226.15,-113.32 226.93,-120.28"/>
</a>
</g>
</g>
<!-- Node5 -->
<g id="Node000005" class="node">
<title>Node5</title>
<g id="a_Node000005"><a xlink:href="classcom_1_1teragrep_1_1pth__06_1_1ast_1_1analyze_1_1ScanGroupExpression.html#ad1c8159c9353a4b98804664e89a77921" target="_top" xlink:title=" ">
<polygon fill="white" stroke="#666666" points="396,-57 216,-57 216,-27 396,-27 396,-57"/>
<text text-anchor="start" x="224" y="-45" font-family="Helvetica,sans-Serif" font-size="10.00">com.teragrep.pth_06.ast.analyze.</text>
<text text-anchor="middle" x="306" y="-34" font-family="Helvetica,sans-Serif" font-size="10.00">ScanGroupExpression.value</text>
</a>
</g>
</g>
<!-- Node1&#45;&gt;Node5 -->
<g id="edge5_Node000001_Node000005" class="edge">
<title>Node1&#45;&gt;Node5</title>
<g id="a_edge5_Node000001_Node000005"><a xlink:title=" ">
<path fill="none" stroke="#63b8ff" d="M126.82,-116.94C163.31,-101.59 220.02,-77.74 259.64,-61.08"/>
<polygon fill="#63b8ff" stroke="#63b8ff" points="261.2,-64.22 269.06,-57.11 258.49,-57.76 261.2,-64.22"/>
</a>
</g>
</g>
<!-- Node5&#45;&gt;Node5 -->
<g id="edge8_Node000005_Node000005" class="edge">
<title>Node5&#45;&gt;Node5</title>
<g id="a_edge8_Node000005_Node000005"><a xlink:title=" ">
<path fill="none" stroke="#63b8ff" d="M268.03,-57.28C259.59,-66.41 272.25,-75 306,-75 326.04,-75 338.64,-71.97 343.81,-67.6"/>
<polygon fill="#63b8ff" stroke="#63b8ff" points="347.31,-67.33 343.97,-57.28 340.31,-67.22 347.31,-67.33"/>
</a>
</g>
</g>
<!-- Node6 -->
<g id="Node000006" class="node">
<title>Node6</title>
<g id="a_Node000006"><a xlink:href="classcom_1_1teragrep_1_1pth__06_1_1ast_1_1MergeIntersectingRanges.html#aaea772833fd1c81b853a6726dabe09fe" target="_top" xlink:title=" ">
<polygon fill="white" stroke="#666666" points="614,-89.5 432,-89.5 432,-48.5 614,-48.5 614,-89.5"/>
<text text-anchor="start" x="440" y="-77.5" font-family="Helvetica,sans-Serif" font-size="10.00">com.teragrep.pth_06.ast.</text>
<text text-anchor="start" x="440" y="-66.5" font-family="Helvetica,sans-Serif" font-size="10.00">MergeIntersectingRanges.merged</text>
<text text-anchor="middle" x="523" y="-55.5" font-family="Helvetica,sans-Serif" font-size="10.00">Ranges</text>
</a>
</g>
</g>
<!-- Node5&#45;&gt;Node6 -->
<g id="edge6_Node000005_Node000006" class="edge">
<title>Node5&#45;&gt;Node6</title>
<g id="a_edge6_Node000005_Node000006"><a xlink:title=" ">
<path fill="none" stroke="#63b8ff" d="M396,-53.18C404.47,-54.24 413.1,-55.32 421.66,-56.4"/>
<polygon fill="#63b8ff" stroke="#63b8ff" points="421.32,-59.88 431.68,-57.66 422.19,-52.94 421.32,-59.88"/>
</a>
</g>
</g>
<!-- Node7 -->
<g id="Node000007" class="node">
<title>Node7</title>
<g id="a_Node000007"><a xlink:href="classcom_1_1teragrep_1_1pth__06_1_1ast_1_1analyze_1_1ScanGroupExpression.html#aa39e1ccf09a9d3b02854913cc52f5352" target="_top" xlink:title=" ">
<polygon fill="white" stroke="#666666" points="613,-30 433,-30 433,0 613,0 613,-30"/>
<text text-anchor="start" x="441" y="-18" font-family="Helvetica,sans-Serif" font-size="10.00">com.teragrep.pth_06.ast.analyze.</text>
<text text-anchor="middle" x="523" y="-7" font-family="Helvetica,sans-Serif" font-size="10.00">ScanGroupExpression.tag</text>
</a>
</g>
</g>
<!-- Node5&#45;&gt;Node7 -->
<g id="edge7_Node000005_Node000007" class="edge">
<title>Node5&#45;&gt;Node7</title>
<g id="a_edge7_Node000005_Node000007"><a xlink:title=" ">
<path fill="none" stroke="#63b8ff" d="M396,-30.82C404.81,-29.72 413.8,-28.59 422.71,-27.47"/>
<polygon fill="#63b8ff" stroke="#63b8ff" points="423.23,-30.93 432.72,-26.21 422.36,-23.99 423.23,-30.93"/>
</a>
</g>
</g>
</g>
</svg>
