<?xml version="1.0" encoding="UTF-8" standalone="no"?>
<!DOCTYPE svg PUBLIC "-//W3C//DTD SVG 1.1//EN"
 "http://www.w3.org/Graphics/SVG/1.1/DTD/svg11.dtd">
<!-- Generated by graphviz version 2.43.0 (0)
 -->
<!-- Title: com.teragrep.pth_06.ast.analyze.ClassifiedExpressions.earliestList Pages: 1 -->
<svg width="442pt" height="134pt"
 viewBox="0.00 0.00 442.00 134.00" xmlns="http://www.w3.org/2000/svg" xmlns:xlink="http://www.w3.org/1999/xlink">
<g id="graph0" class="graph" transform="scale(1 1) rotate(0) translate(4 130)">
<title>com.teragrep.pth_06.ast.analyze.ClassifiedExpressions.earliestList</title>
<!-- Node1 -->
<g id="Node000001" class="node">
<title>Node1</title>
<g id="a_Node000001"><a xlink:title=" ">
<polygon fill="#999999" stroke="#666666" points="434,-78 254,-78 254,-48 434,-48 434,-78"/>
<text text-anchor="start" x="262" y="-66" font-family="Helvetica,sans-Serif" font-size="10.00">com.teragrep.pth_06.ast.analyze.</text>
<text text-anchor="middle" x="344" y="-55" font-family="Helvetica,sans-Serif" font-size="10.00">ClassifiedExpressions.earliestList</text>
</a>
</g>
</g>
<!-- Node2 -->
<g id="Node000002" class="node">
<title>Node2</title>
<g id="a_Node000002"><a xlink:href="classcom_1_1teragrep_1_1pth__06_1_1ast_1_1analyze_1_1ScanTimeQualifiers.html#a8ea53a38fa2220809bd8b03d4eb2c28e" target="_top" xlink:title=" ">
<polygon fill="white" stroke="#666666" points="213.5,-126 4.5,-126 4.5,-96 213.5,-96 213.5,-126"/>
<text text-anchor="start" x="12.5" y="-114" font-family="Helvetica,sans-Serif" font-size="10.00">com.teragrep.pth_06.ast.analyze.</text>
<text text-anchor="middle" x="109" y="-103" font-family="Helvetica,sans-Serif" font-size="10.00">ScanTimeQualifiers.ScanTimeQualifiers</text>
</a>
</g>
</g>
<!-- Node1&#45;&gt;Node2 -->
<g id="edge1_Node000001_Node000002" class="edge">
<title>Node1&#45;&gt;Node2</title>
<g id="a_edge1_Node000001_Node000002"><a xlink:title=" ">
<path fill="none" stroke="#63b8ff" d="M260.01,-80.1C234.8,-85.29 207.31,-90.95 182.82,-96"/>
<polygon fill="#63b8ff" stroke="#63b8ff" points="260.83,-83.5 269.92,-78.06 259.42,-76.65 260.83,-83.5"/>
</a>
</g>
</g>
<!-- Node3 -->
<g id="Node000003" class="node">
<title>Node3</title>
<g id="a_Node000003"><a xlink:href="classcom_1_1teragrep_1_1pth__06_1_1ast_1_1analyze_1_1ClassifiedExpressionsTest.html#a6066ed056ca45ada10b293ea06772dd4" target="_top" xlink:title=" ">
<polygon fill="white" stroke="#666666" points="218,-78 0,-78 0,-48 218,-48 218,-78"/>
<text text-anchor="start" x="8" y="-66" font-family="Helvetica,sans-Serif" font-size="10.00">com.teragrep.pth_06.ast.analyze.</text>
<text text-anchor="middle" x="109" y="-55" font-family="Helvetica,sans-Serif" font-size="10.00">ClassifiedExpressionsTest.testEarliestList</text>
</a>
</g>
</g>
<!-- Node1&#45;&gt;Node3 -->
<g id="edge2_Node000001_Node000003" class="edge">
<title>Node1&#45;&gt;Node3</title>
<g id="a_edge2_Node000001_Node000003"><a xlink:title=" ">
<path fill="none" stroke="#63b8ff" d="M243.69,-63C235.25,-63 226.69,-63 218.18,-63"/>
<polygon fill="#63b8ff" stroke="#63b8ff" points="243.92,-66.5 253.92,-63 243.92,-59.5 243.92,-66.5"/>
</a>
</g>
</g>
<!-- Node4 -->
<g id="Node000004" class="node">
<title>Node4</title>
<g id="a_Node000004"><a xlink:href="classcom_1_1teragrep_1_1pth__06_1_1ast_1_1analyze_1_1ClassifiedExpressionsTest.html#a4109474e8197f3120f3b9943fac52e2a" target="_top" xlink:title=" ">
<polygon fill="white" stroke="#666666" points="215,-30 3,-30 3,0 215,0 215,-30"/>
<text text-anchor="start" x="11" y="-18" font-family="Helvetica,sans-Serif" font-size="10.00">com.teragrep.pth_06.ast.analyze.</text>
<text text-anchor="middle" x="109" y="-7" font-family="Helvetica,sans-Serif" font-size="10.00">ClassifiedExpressionsTest.testEmptyList</text>
</a>
</g>
</g>
<!-- Node1&#45;&gt;Node4 -->
<g id="edge3_Node000001_Node000004" class="edge">
<title>Node1&#45;&gt;Node4</title>
<g id="a_edge3_Node000001_Node000004"><a xlink:title=" ">
<path fill="none" stroke="#63b8ff" d="M260.01,-45.9C234.8,-40.71 207.31,-35.05 182.82,-30"/>
<polygon fill="#63b8ff" stroke="#63b8ff" points="259.42,-49.35 269.92,-47.94 260.83,-42.5 259.42,-49.35"/>
</a>
</g>
</g>
</g>
</svg>
