<?xml version="1.0" encoding="UTF-8" standalone="no"?>
<!DOCTYPE svg PUBLIC "-//W3C//DTD SVG 1.1//EN"
 "http://www.w3.org/Graphics/SVG/1.1/DTD/svg11.dtd">
<!-- Generated by graphviz version 2.43.0 (0)
 -->
<!-- Title: com.teragrep.pth_06.ast.analyze.ClassifiedExpressionsTest.testEmptyList Pages: 1 -->
<svg width="685pt" height="230pt"
 viewBox="0.00 0.00 685.00 230.00" xmlns="http://www.w3.org/2000/svg" xmlns:xlink="http://www.w3.org/1999/xlink">
<g id="graph0" class="graph" transform="scale(1 1) rotate(0) translate(4 226)">
<title>com.teragrep.pth_06.ast.analyze.ClassifiedExpressionsTest.testEmptyList</title>
<!-- Node1 -->
<g id="Node000001" class="node">
<title>Node1</title>
<g id="a_Node000001"><a xlink:title=" ">
<polygon fill="#999999" stroke="#666666" points="212,-126 0,-126 0,-96 212,-96 212,-126"/>
<text text-anchor="start" x="8" y="-114" font-family="Helvetica,sans-Serif" font-size="10.00">com.teragrep.pth_06.ast.analyze.</text>
<text text-anchor="middle" x="106" y="-103" font-family="Helvetica,sans-Serif" font-size="10.00">ClassifiedExpressionsTest.testEmptyList</text>
</a>
</g>
</g>
<!-- Node2 -->
<g id="Node000002" class="node">
<title>Node2</title>
<g id="a_Node000002"><a xlink:href="classcom_1_1teragrep_1_1pth__06_1_1ast_1_1analyze_1_1ClassifiedExpressions.html#a6c7e53e1b206fc2ef1f6aeea4ef1afa6" target="_top" xlink:title=" ">
<polygon fill="white" stroke="#666666" points="436.5,-222 256.5,-222 256.5,-192 436.5,-192 436.5,-222"/>
<text text-anchor="start" x="264.5" y="-210" font-family="Helvetica,sans-Serif" font-size="10.00">com.teragrep.pth_06.ast.analyze.</text>
<text text-anchor="middle" x="346.5" y="-199" font-family="Helvetica,sans-Serif" font-size="10.00">ClassifiedExpressions.earliestList</text>
</a>
</g>
</g>
<!-- Node1&#45;&gt;Node2 -->
<g id="edge1_Node000001_Node000002" class="edge">
<title>Node1&#45;&gt;Node2</title>
<g id="a_edge1_Node000001_Node000002"><a xlink:title=" ">
<path fill="none" stroke="#63b8ff" d="M132.18,-126.11C159.77,-142.14 205.76,-167.26 248,-183 253.84,-185.18 259.96,-187.21 266.15,-189.11"/>
<polygon fill="#63b8ff" stroke="#63b8ff" points="265.34,-192.52 275.92,-191.97 267.31,-185.8 265.34,-192.52"/>
</a>
</g>
</g>
<!-- Node4 -->
<g id="Node000004" class="node">
<title>Node4</title>
<g id="a_Node000004"><a xlink:href="classcom_1_1teragrep_1_1pth__06_1_1ast_1_1analyze_1_1ClassifiedExpressions.html#a00ac3e5899be879258c4698ddf784e81" target="_top" xlink:title=" ">
<polygon fill="white" stroke="#666666" points="436.5,-174 256.5,-174 256.5,-144 436.5,-144 436.5,-174"/>
<text text-anchor="start" x="264.5" y="-162" font-family="Helvetica,sans-Serif" font-size="10.00">com.teragrep.pth_06.ast.analyze.</text>
<text text-anchor="middle" x="346.5" y="-151" font-family="Helvetica,sans-Serif" font-size="10.00">ClassifiedExpressions.hostList</text>
</a>
</g>
</g>
<!-- Node1&#45;&gt;Node4 -->
<g id="edge3_Node000001_Node000004" class="edge">
<title>Node1&#45;&gt;Node4</title>
<g id="a_edge3_Node000001_Node000004"><a xlink:title=" ">
<path fill="none" stroke="#63b8ff" d="M181.81,-126.06C206.89,-131.1 235.04,-136.77 260.83,-141.96"/>
<polygon fill="#63b8ff" stroke="#63b8ff" points="260.46,-145.46 270.96,-144 261.84,-138.59 260.46,-145.46"/>
</a>
</g>
</g>
<!-- Node5 -->
<g id="Node000005" class="node">
<title>Node5</title>
<g id="a_Node000005"><a xlink:href="classcom_1_1teragrep_1_1pth__06_1_1ast_1_1analyze_1_1ClassifiedExpressions.html#aa09862aadc0af24b633817931f715896" target="_top" xlink:title=" ">
<polygon fill="white" stroke="#666666" points="436.5,-126 256.5,-126 256.5,-96 436.5,-96 436.5,-126"/>
<text text-anchor="start" x="264.5" y="-114" font-family="Helvetica,sans-Serif" font-size="10.00">com.teragrep.pth_06.ast.analyze.</text>
<text text-anchor="middle" x="346.5" y="-103" font-family="Helvetica,sans-Serif" font-size="10.00">ClassifiedExpressions.indexList</text>
</a>
</g>
</g>
<!-- Node1&#45;&gt;Node5 -->
<g id="edge5_Node000001_Node000005" class="edge">
<title>Node1&#45;&gt;Node5</title>
<g id="a_edge5_Node000001_Node000005"><a xlink:title=" ">
<path fill="none" stroke="#63b8ff" d="M212.3,-111C223.58,-111 235.02,-111 246.22,-111"/>
<polygon fill="#63b8ff" stroke="#63b8ff" points="246.43,-114.5 256.43,-111 246.43,-107.5 246.43,-114.5"/>
</a>
</g>
</g>
<!-- Node6 -->
<g id="Node000006" class="node">
<title>Node6</title>
<g id="a_Node000006"><a xlink:href="classcom_1_1teragrep_1_1pth__06_1_1ast_1_1analyze_1_1ClassifiedExpressions.html#a2da89c7b0fe08ff65aa4b1cfd42585e8" target="_top" xlink:title=" ">
<polygon fill="white" stroke="#666666" points="436.5,-78 256.5,-78 256.5,-48 436.5,-48 436.5,-78"/>
<text text-anchor="start" x="264.5" y="-66" font-family="Helvetica,sans-Serif" font-size="10.00">com.teragrep.pth_06.ast.analyze.</text>
<text text-anchor="middle" x="346.5" y="-55" font-family="Helvetica,sans-Serif" font-size="10.00">ClassifiedExpressions.latestList</text>
</a>
</g>
</g>
<!-- Node1&#45;&gt;Node6 -->
<g id="edge7_Node000001_Node000006" class="edge">
<title>Node1&#45;&gt;Node6</title>
<g id="a_edge7_Node000001_Node000006"><a xlink:title=" ">
<path fill="none" stroke="#63b8ff" d="M181.81,-95.94C206.89,-90.9 235.04,-85.23 260.83,-80.04"/>
<polygon fill="#63b8ff" stroke="#63b8ff" points="261.84,-83.41 270.96,-78 260.46,-76.54 261.84,-83.41"/>
</a>
</g>
</g>
<!-- Node7 -->
<g id="Node000007" class="node">
<title>Node7</title>
<g id="a_Node000007"><a xlink:href="classcom_1_1teragrep_1_1pth__06_1_1ast_1_1analyze_1_1ClassifiedExpressions.html#a23983fe0f955300072a3bc2a30e379f3" target="_top" xlink:title=" ">
<polygon fill="white" stroke="#666666" points="445,-30 248,-30 248,0 445,0 445,-30"/>
<text text-anchor="start" x="256" y="-18" font-family="Helvetica,sans-Serif" font-size="10.00">com.teragrep.pth_06.ast.analyze.</text>
<text text-anchor="middle" x="346.5" y="-7" font-family="Helvetica,sans-Serif" font-size="10.00">ClassifiedExpressions.sourceTypeList</text>
</a>
</g>
</g>
<!-- Node1&#45;&gt;Node7 -->
<g id="edge9_Node000001_Node000007" class="edge">
<title>Node1&#45;&gt;Node7</title>
<g id="a_edge9_Node000001_Node000007"><a xlink:title=" ">
<path fill="none" stroke="#63b8ff" d="M132.18,-95.89C159.77,-79.86 205.76,-54.74 248,-39 253.84,-36.82 259.96,-34.79 266.15,-32.89"/>
<polygon fill="#63b8ff" stroke="#63b8ff" points="267.31,-36.2 275.92,-30.03 265.34,-29.48 267.31,-36.2"/>
</a>
</g>
</g>
<!-- Node3 -->
<g id="Node000003" class="node">
<title>Node3</title>
<g id="a_Node000003"><a xlink:href="classcom_1_1teragrep_1_1pth__06_1_1ast_1_1analyze_1_1ClassifiedExpressions.html#a5b892fa54a3c7ac63f7cc75cf9d38711" target="_top" xlink:title=" ">
<polygon fill="white" stroke="#666666" points="677,-131.5 481,-131.5 481,-90.5 677,-90.5 677,-131.5"/>
<text text-anchor="start" x="489" y="-119.5" font-family="Helvetica,sans-Serif" font-size="10.00">com.teragrep.pth_06.ast.analyze.</text>
<text text-anchor="start" x="489" y="-108.5" font-family="Helvetica,sans-Serif" font-size="10.00">ClassifiedExpressions.expressionList</text>
<text text-anchor="middle" x="579" y="-97.5" font-family="Helvetica,sans-Serif" font-size="10.00">FilteredByTag</text>
</a>
</g>
</g>
<!-- Node2&#45;&gt;Node3 -->
<g id="edge2_Node000002_Node000003" class="edge">
<title>Node2&#45;&gt;Node3</title>
<g id="a_edge2_Node000002_Node000003"><a xlink:title=" ">
<path fill="none" stroke="#63b8ff" d="M417.94,-191.94C427.15,-189.31 436.38,-186.33 445,-183 477.1,-170.6 511.18,-152.02 536.81,-136.85"/>
<polygon fill="#63b8ff" stroke="#63b8ff" points="538.73,-139.78 545.51,-131.64 535.13,-133.78 538.73,-139.78"/>
</a>
</g>
</g>
<!-- Node4&#45;&gt;Node3 -->
<g id="edge4_Node000004_Node000003" class="edge">
<title>Node4&#45;&gt;Node3</title>
<g id="a_edge4_Node000004_Node000003"><a xlink:title=" ">
<path fill="none" stroke="#63b8ff" d="M419.8,-143.94C435.91,-140.59 453.33,-136.96 470.52,-133.38"/>
<polygon fill="#63b8ff" stroke="#63b8ff" points="471.53,-136.75 480.6,-131.28 470.1,-129.89 471.53,-136.75"/>
</a>
</g>
</g>
<!-- Node5&#45;&gt;Node3 -->
<g id="edge6_Node000005_Node000003" class="edge">
<title>Node5&#45;&gt;Node3</title>
<g id="a_edge6_Node000005_Node000003"><a xlink:title=" ">
<path fill="none" stroke="#63b8ff" d="M436.62,-111C447.67,-111 459.07,-111 470.37,-111"/>
<polygon fill="#63b8ff" stroke="#63b8ff" points="470.7,-114.5 480.7,-111 470.7,-107.5 470.7,-114.5"/>
</a>
</g>
</g>
<!-- Node6&#45;&gt;Node3 -->
<g id="edge8_Node000006_Node000003" class="edge">
<title>Node6&#45;&gt;Node3</title>
<g id="a_edge8_Node000006_Node000003"><a xlink:title=" ">
<path fill="none" stroke="#63b8ff" d="M419.8,-78.06C435.91,-81.41 453.33,-85.04 470.52,-88.62"/>
<polygon fill="#63b8ff" stroke="#63b8ff" points="470.1,-92.11 480.6,-90.72 471.53,-85.25 470.1,-92.11"/>
</a>
</g>
</g>
<!-- Node7&#45;&gt;Node3 -->
<g id="edge10_Node000007_Node000003" class="edge">
<title>Node7&#45;&gt;Node3</title>
<g id="a_edge10_Node000007_Node000003"><a xlink:title=" ">
<path fill="none" stroke="#63b8ff" d="M417.94,-30.06C427.15,-32.69 436.38,-35.67 445,-39 477.1,-51.4 511.18,-69.98 536.81,-85.15"/>
<polygon fill="#63b8ff" stroke="#63b8ff" points="535.13,-88.22 545.51,-90.36 538.73,-82.22 535.13,-88.22"/>
</a>
</g>
</g>
</g>
</svg>
