<?xml version="1.0" encoding="UTF-8" standalone="no"?>
<!DOCTYPE svg PUBLIC "-//W3C//DTD SVG 1.1//EN"
 "http://www.w3.org/Graphics/SVG/1.1/DTD/svg11.dtd">
<!-- Generated by graphviz version 2.43.0 (0)
 -->
<!-- Title: com.teragrep.pth_06.ast.transform.FlattenLogical.flattenedOrChildren Pages: 1 -->
<svg width="678pt" height="134pt"
 viewBox="0.00 0.00 678.00 134.00" xmlns="http://www.w3.org/2000/svg" xmlns:xlink="http://www.w3.org/1999/xlink">
<g id="graph0" class="graph" transform="scale(1 1) rotate(0) translate(4 130)">
<title>com.teragrep.pth_06.ast.transform.FlattenLogical.flattenedOrChildren</title>
<!-- Node1 -->
<g id="Node000001" class="node">
<title>Node1</title>
<g id="a_Node000001"><a xlink:title=" ">
<polygon fill="#999999" stroke="#666666" points="670,-78 480,-78 480,-48 670,-48 670,-78"/>
<text text-anchor="start" x="488" y="-66" font-family="Helvetica,sans-Serif" font-size="10.00">com.teragrep.pth_06.ast.transform.</text>
<text text-anchor="middle" x="575" y="-55" font-family="Helvetica,sans-Serif" font-size="10.00">FlattenLogical.flattenedOrChildren</text>
</a>
</g>
</g>
<!-- Node2 -->
<g id="Node000002" class="node">
<title>Node2</title>
<g id="a_Node000002"><a xlink:href="classcom_1_1teragrep_1_1pth__06_1_1ast_1_1transform_1_1FlattenLogical.html#a2e1717ad6884eea7a2415aa7763eaed5" target="_top" xlink:title=" ">
<polygon fill="white" stroke="#666666" points="444,-78 254,-78 254,-48 444,-48 444,-78"/>
<text text-anchor="start" x="262" y="-66" font-family="Helvetica,sans-Serif" font-size="10.00">com.teragrep.pth_06.ast.transform.</text>
<text text-anchor="middle" x="349" y="-55" font-family="Helvetica,sans-Serif" font-size="10.00">FlattenLogical.transformed</text>
</a>
</g>
</g>
<!-- Node1&#45;&gt;Node2 -->
<g id="edge1_Node000001_Node000002" class="edge">
<title>Node1&#45;&gt;Node2</title>
<g id="a_edge1_Node000001_Node000002"><a xlink:title=" ">
<path fill="none" stroke="#63b8ff" d="M469.92,-63C461.32,-63 452.66,-63 444.14,-63"/>
<polygon fill="#63b8ff" stroke="#63b8ff" points="469.98,-66.5 479.98,-63 469.98,-59.5 469.98,-66.5"/>
</a>
</g>
</g>
<!-- Node2&#45;&gt;Node2 -->
<g id="edge5_Node000002_Node000002" class="edge">
<title>Node2&#45;&gt;Node2</title>
<g id="a_edge5_Node000002_Node000002"><a xlink:title=" ">
<path fill="none" stroke="#63b8ff" d="M388.56,-88.6C383.15,-92.97 369.97,-96 349,-96 313.69,-96 300.45,-87.41 309.27,-78.28"/>
<polygon fill="#63b8ff" stroke="#63b8ff" points="392.06,-88.33 388.73,-78.28 385.06,-88.22 392.06,-88.33"/>
</a>
</g>
</g>
<!-- Node3 -->
<g id="Node000003" class="node">
<title>Node3</title>
<g id="a_Node000003"><a xlink:href="classcom_1_1teragrep_1_1pth__06_1_1ast_1_1transform_1_1FlattenLogicalTest.html#ade2c4213b98f57a1262f3a06772d084f" target="_top" xlink:title=" ">
<polygon fill="white" stroke="#666666" points="206.5,-126 11.5,-126 11.5,-96 206.5,-96 206.5,-126"/>
<text text-anchor="start" x="19.5" y="-114" font-family="Helvetica,sans-Serif" font-size="10.00">com.teragrep.pth_06.ast.transform.</text>
<text text-anchor="middle" x="109" y="-103" font-family="Helvetica,sans-Serif" font-size="10.00">FlattenLogicalTest.testAndFlattening</text>
</a>
</g>
</g>
<!-- Node2&#45;&gt;Node3 -->
<g id="edge2_Node000002_Node000003" class="edge">
<title>Node2&#45;&gt;Node3</title>
<g id="a_edge2_Node000002_Node000003"><a xlink:title=" ">
<path fill="none" stroke="#63b8ff" d="M263.23,-80.1C237.48,-85.29 209.4,-90.95 184.39,-96"/>
<polygon fill="#63b8ff" stroke="#63b8ff" points="264.24,-83.46 273.35,-78.06 262.85,-76.6 264.24,-83.46"/>
</a>
</g>
</g>
<!-- Node4 -->
<g id="Node000004" class="node">
<title>Node4</title>
<g id="a_Node000004"><a xlink:href="classcom_1_1teragrep_1_1pth__06_1_1ast_1_1transform_1_1FlattenLogicalTest.html#a812b142633350a3e328e70f99743e354" target="_top" xlink:title=" ">
<polygon fill="white" stroke="#666666" points="218,-78 0,-78 0,-48 218,-48 218,-78"/>
<text text-anchor="start" x="8" y="-66" font-family="Helvetica,sans-Serif" font-size="10.00">com.teragrep.pth_06.ast.transform.</text>
<text text-anchor="middle" x="109" y="-55" font-family="Helvetica,sans-Serif" font-size="10.00">FlattenLogicalTest.testNonLogicalIgnored</text>
</a>
</g>
</g>
<!-- Node2&#45;&gt;Node4 -->
<g id="edge3_Node000002_Node000004" class="edge">
<title>Node2&#45;&gt;Node4</title>
<g id="a_edge3_Node000002_Node000004"><a xlink:title=" ">
<path fill="none" stroke="#63b8ff" d="M243.72,-63C235.3,-63 226.78,-63 218.32,-63"/>
<polygon fill="#63b8ff" stroke="#63b8ff" points="243.94,-66.5 253.94,-63 243.94,-59.5 243.94,-66.5"/>
</a>
</g>
</g>
<!-- Node5 -->
<g id="Node000005" class="node">
<title>Node5</title>
<g id="a_Node000005"><a xlink:href="classcom_1_1teragrep_1_1pth__06_1_1ast_1_1transform_1_1FlattenLogicalTest.html#a374297b0367de7644d288c15c4991a6b" target="_top" xlink:title=" ">
<polygon fill="white" stroke="#666666" points="204,-30 14,-30 14,0 204,0 204,-30"/>
<text text-anchor="start" x="22" y="-18" font-family="Helvetica,sans-Serif" font-size="10.00">com.teragrep.pth_06.ast.transform.</text>
<text text-anchor="middle" x="109" y="-7" font-family="Helvetica,sans-Serif" font-size="10.00">FlattenLogicalTest.testOrFlattening</text>
</a>
</g>
</g>
<!-- Node2&#45;&gt;Node5 -->
<g id="edge4_Node000002_Node000005" class="edge">
<title>Node2&#45;&gt;Node5</title>
<g id="a_edge4_Node000002_Node000005"><a xlink:title=" ">
<path fill="none" stroke="#63b8ff" d="M263.23,-45.9C237.48,-40.71 209.4,-35.05 184.39,-30"/>
<polygon fill="#63b8ff" stroke="#63b8ff" points="262.85,-49.4 273.35,-47.94 264.24,-42.54 262.85,-49.4"/>
</a>
</g>
</g>
</g>
</svg>
