<?xml version="1.0" encoding="UTF-8" standalone="no"?>
<!DOCTYPE svg PUBLIC "-//W3C//DTD SVG 1.1//EN"
 "http://www.w3.org/Graphics/SVG/1.1/DTD/svg11.dtd">
<!-- Generated by graphviz version 2.43.0 (0)
 -->
<!-- Title: com.teragrep.pth_06.ast.analyze.ScanRangeCollection.findScanRanges Pages: 1 -->
<svg width="642pt" height="227pt"
 viewBox="0.00 0.00 642.00 227.00" xmlns="http://www.w3.org/2000/svg" xmlns:xlink="http://www.w3.org/1999/xlink">
<g id="graph0" class="graph" transform="scale(1 1) rotate(0) translate(4 223)">
<title>com.teragrep.pth_06.ast.analyze.ScanRangeCollection.findScanRanges</title>
<!-- Node1 -->
<g id="Node000001" class="node">
<title>Node1</title>
<g id="a_Node000001"><a xlink:title=" ">
<polygon fill="#999999" stroke="#666666" points="200,-147 0,-147 0,-117 200,-117 200,-147"/>
<text text-anchor="start" x="8" y="-135" font-family="Helvetica,sans-Serif" font-size="10.00">com.teragrep.pth_06.ast.analyze.</text>
<text text-anchor="middle" x="100" y="-124" font-family="Helvetica,sans-Serif" font-size="10.00">ScanRangeCollection.findScanRanges</text>
</a>
</g>
</g>
<!-- Node1&#45;&gt;Node1 -->
<g id="edge3_Node000001_Node000001" class="edge">
<title>Node1&#45;&gt;Node1</title>
<g id="a_edge3_Node000001_Node000001"><a xlink:title=" ">
<path fill="none" stroke="#63b8ff" d="M60.27,-147.28C51.45,-156.41 64.69,-165 100,-165 120.97,-165 134.15,-161.97 139.56,-157.6"/>
<polygon fill="#63b8ff" stroke="#63b8ff" points="143.06,-157.33 139.73,-147.28 136.06,-157.22 143.06,-157.33"/>
</a>
</g>
</g>
<!-- Node2 -->
<g id="Node000002" class="node">
<title>Node2</title>
<g id="a_Node000002"><a xlink:href="interfacecom_1_1teragrep_1_1pth__06_1_1ast_1_1Expression.html#a17e7d33905be57c6e22e1717da6ddef6" target="_top" xlink:title=" ">
<polygon fill="white" stroke="#666666" points="395.5,-219 256.5,-219 256.5,-189 395.5,-189 395.5,-219"/>
<text text-anchor="start" x="264.5" y="-207" font-family="Helvetica,sans-Serif" font-size="10.00">com.teragrep.pth_06.ast.</text>
<text text-anchor="middle" x="326" y="-196" font-family="Helvetica,sans-Serif" font-size="10.00">Expression.asLogical</text>
</a>
</g>
</g>
<!-- Node1&#45;&gt;Node2 -->
<g id="edge1_Node000001_Node000002" class="edge">
<title>Node1&#45;&gt;Node2</title>
<g id="a_edge1_Node000001_Node000002"><a xlink:title=" ">
<path fill="none" stroke="#63b8ff" d="M140.6,-147C167.36,-156.91 203.59,-169.88 236,-180 242.57,-182.05 249.44,-184.09 256.33,-186.06"/>
<polygon fill="#63b8ff" stroke="#63b8ff" points="255.83,-189.56 266.41,-188.9 257.73,-182.82 255.83,-189.56"/>
</a>
</g>
</g>
<!-- Node3 -->
<g id="Node000003" class="node">
<title>Node3</title>
<g id="a_Node000003"><a xlink:href="interfacecom_1_1teragrep_1_1pth__06_1_1ast_1_1LogicalExpression.html#aeaf8fe296c6899792f345659a9a6c0c4" target="_top" xlink:title=" ">
<polygon fill="white" stroke="#666666" points="399,-171 253,-171 253,-141 399,-141 399,-171"/>
<text text-anchor="start" x="261" y="-159" font-family="Helvetica,sans-Serif" font-size="10.00">com.teragrep.pth_06.ast.</text>
<text text-anchor="middle" x="326" y="-148" font-family="Helvetica,sans-Serif" font-size="10.00">LogicalExpression.children</text>
</a>
</g>
</g>
<!-- Node1&#45;&gt;Node3 -->
<g id="edge2_Node000001_Node000003" class="edge">
<title>Node1&#45;&gt;Node3</title>
<g id="a_edge2_Node000001_Node000003"><a xlink:title=" ">
<path fill="none" stroke="#63b8ff" d="M200.23,-142.63C214.45,-144.16 228.94,-145.71 242.79,-147.19"/>
<polygon fill="#63b8ff" stroke="#63b8ff" points="242.42,-150.67 252.74,-148.26 243.17,-143.71 242.42,-150.67"/>
</a>
</g>
</g>
<!-- Node4 -->
<g id="Node000004" class="node">
<title>Node4</title>
<g id="a_Node000004"><a xlink:href="interfacecom_1_1teragrep_1_1pth__06_1_1ast_1_1Expression.html#a65ee7f5fb98e4129018f467a53586842" target="_top" xlink:title=" ">
<polygon fill="white" stroke="#666666" points="395.5,-123 256.5,-123 256.5,-93 395.5,-93 395.5,-123"/>
<text text-anchor="start" x="264.5" y="-111" font-family="Helvetica,sans-Serif" font-size="10.00">com.teragrep.pth_06.ast.</text>
<text text-anchor="middle" x="326" y="-100" font-family="Helvetica,sans-Serif" font-size="10.00">Expression.isLogical</text>
</a>
</g>
</g>
<!-- Node1&#45;&gt;Node4 -->
<g id="edge4_Node000001_Node000004" class="edge">
<title>Node1&#45;&gt;Node4</title>
<g id="a_edge4_Node000001_Node000004"><a xlink:title=" ">
<path fill="none" stroke="#63b8ff" d="M200.23,-121.37C215.63,-119.72 231.36,-118.03 246.23,-116.44"/>
<polygon fill="#63b8ff" stroke="#63b8ff" points="246.8,-119.9 256.37,-115.35 246.06,-112.94 246.8,-119.9"/>
</a>
</g>
</g>
<!-- Node5 -->
<g id="Node000005" class="node">
<title>Node5</title>
<g id="a_Node000005"><a xlink:href="classcom_1_1teragrep_1_1pth__06_1_1ast_1_1analyze_1_1ScanGroupExpression.html#ad1c8159c9353a4b98804664e89a77921" target="_top" xlink:title=" ">
<polygon fill="white" stroke="#666666" points="416,-57 236,-57 236,-27 416,-27 416,-57"/>
<text text-anchor="start" x="244" y="-45" font-family="Helvetica,sans-Serif" font-size="10.00">com.teragrep.pth_06.ast.analyze.</text>
<text text-anchor="middle" x="326" y="-34" font-family="Helvetica,sans-Serif" font-size="10.00">ScanGroupExpression.value</text>
</a>
</g>
</g>
<!-- Node1&#45;&gt;Node5 -->
<g id="edge5_Node000001_Node000005" class="edge">
<title>Node1&#45;&gt;Node5</title>
<g id="a_edge5_Node000001_Node000005"><a xlink:title=" ">
<path fill="none" stroke="#63b8ff" d="M138.49,-116.94C176.85,-101.52 236.56,-77.54 278.04,-60.87"/>
<polygon fill="#63b8ff" stroke="#63b8ff" points="279.41,-64.09 287.39,-57.11 276.8,-57.59 279.41,-64.09"/>
</a>
</g>
</g>
<!-- Node5&#45;&gt;Node5 -->
<g id="edge8_Node000005_Node000005" class="edge">
<title>Node5&#45;&gt;Node5</title>
<g id="a_edge8_Node000005_Node000005"><a xlink:title=" ">
<path fill="none" stroke="#63b8ff" d="M288.03,-57.28C279.59,-66.41 292.25,-75 326,-75 346.04,-75 358.64,-71.97 363.81,-67.6"/>
<polygon fill="#63b8ff" stroke="#63b8ff" points="367.31,-67.33 363.97,-57.28 360.31,-67.22 367.31,-67.33"/>
</a>
</g>
</g>
<!-- Node6 -->
<g id="Node000006" class="node">
<title>Node6</title>
<g id="a_Node000006"><a xlink:href="classcom_1_1teragrep_1_1pth__06_1_1ast_1_1MergeIntersectingRanges.html#aaea772833fd1c81b853a6726dabe09fe" target="_top" xlink:title=" ">
<polygon fill="white" stroke="#666666" points="634,-89.5 452,-89.5 452,-48.5 634,-48.5 634,-89.5"/>
<text text-anchor="start" x="460" y="-77.5" font-family="Helvetica,sans-Serif" font-size="10.00">com.teragrep.pth_06.ast.</text>
<text text-anchor="start" x="460" y="-66.5" font-family="Helvetica,sans-Serif" font-size="10.00">MergeIntersectingRanges.merged</text>
<text text-anchor="middle" x="543" y="-55.5" font-family="Helvetica,sans-Serif" font-size="10.00">Ranges</text>
</a>
</g>
</g>
<!-- Node5&#45;&gt;Node6 -->
<g id="edge6_Node000005_Node000006" class="edge">
<title>Node5&#45;&gt;Node6</title>
<g id="a_edge6_Node000005_Node000006"><a xlink:title=" ">
<path fill="none" stroke="#63b8ff" d="M416,-53.18C424.47,-54.24 433.1,-55.32 441.66,-56.4"/>
<polygon fill="#63b8ff" stroke="#63b8ff" points="441.32,-59.88 451.68,-57.66 442.19,-52.94 441.32,-59.88"/>
</a>
</g>
</g>
<!-- Node7 -->
<g id="Node000007" class="node">
<title>Node7</title>
<g id="a_Node000007"><a xlink:href="classcom_1_1teragrep_1_1pth__06_1_1ast_1_1analyze_1_1ScanGroupExpression.html#aa39e1ccf09a9d3b02854913cc52f5352" target="_top" xlink:title=" ">
<polygon fill="white" stroke="#666666" points="633,-30 453,-30 453,0 633,0 633,-30"/>
<text text-anchor="start" x="461" y="-18" font-family="Helvetica,sans-Serif" font-size="10.00">com.teragrep.pth_06.ast.analyze.</text>
<text text-anchor="middle" x="543" y="-7" font-family="Helvetica,sans-Serif" font-size="10.00">ScanGroupExpression.tag</text>
</a>
</g>
</g>
<!-- Node5&#45;&gt;Node7 -->
<g id="edge7_Node000005_Node000007" class="edge">
<title>Node5&#45;&gt;Node7</title>
<g id="a_edge7_Node000005_Node000007"><a xlink:title=" ">
<path fill="none" stroke="#63b8ff" d="M416,-30.82C424.81,-29.72 433.8,-28.59 442.71,-27.47"/>
<polygon fill="#63b8ff" stroke="#63b8ff" points="443.23,-30.93 452.72,-26.21 442.36,-23.99 443.23,-30.93"/>
</a>
</g>
</g>
</g>
</svg>
