<?xml version="1.0" encoding="UTF-8" standalone="no"?>
<!DOCTYPE svg PUBLIC "-//W3C//DTD SVG 1.1//EN"
 "http://www.w3.org/Graphics/SVG/1.1/DTD/svg11.dtd">
<!-- Generated by graphviz version 2.43.0 (0)
 -->
<!-- Title: com.teragrep.pth_06.ast.transform.EmptyPruned.transformed Pages: 1 -->
<svg width="463pt" height="134pt"
 viewBox="0.00 0.00 463.00 134.00" xmlns="http://www.w3.org/2000/svg" xmlns:xlink="http://www.w3.org/1999/xlink">
<g id="graph0" class="graph" transform="scale(1 1) rotate(0) translate(4 130)">
<title>com.teragrep.pth_06.ast.transform.EmptyPruned.transformed</title>
<!-- Node1 -->
<g id="Node000001" class="node">
<title>Node1</title>
<g id="a_Node000001"><a xlink:title=" ">
<polygon fill="#999999" stroke="#666666" points="455,-78 265,-78 265,-48 455,-48 455,-78"/>
<text text-anchor="start" x="273" y="-66" font-family="Helvetica,sans-Serif" font-size="10.00">com.teragrep.pth_06.ast.transform.</text>
<text text-anchor="middle" x="360" y="-55" font-family="Helvetica,sans-Serif" font-size="10.00">EmptyPruned.transformed</text>
</a>
</g>
</g>
<!-- Node2 -->
<g id="Node000002" class="node">
<title>Node2</title>
<g id="a_Node000002"><a xlink:href="classcom_1_1teragrep_1_1pth__06_1_1ast_1_1transform_1_1EmptyPrunedTest.html#ae2664e0bcf4e1ce836f43dd12f42fb4c" target="_top" xlink:title=" ">
<polygon fill="white" stroke="#666666" points="229,-126 0,-126 0,-96 229,-96 229,-126"/>
<text text-anchor="start" x="8" y="-114" font-family="Helvetica,sans-Serif" font-size="10.00">com.teragrep.pth_06.ast.transform.</text>
<text text-anchor="middle" x="114.5" y="-103" font-family="Helvetica,sans-Serif" font-size="10.00">EmptyPrunedTest.testEmptyChildrenPruned</text>
</a>
</g>
</g>
<!-- Node1&#45;&gt;Node2 -->
<g id="edge1_Node000001_Node000002" class="edge">
<title>Node1&#45;&gt;Node2</title>
<g id="a_edge1_Node000001_Node000002"><a xlink:title=" ">
<path fill="none" stroke="#63b8ff" d="M272.62,-80.03C246.18,-85.24 217.31,-90.93 191.61,-96"/>
<polygon fill="#63b8ff" stroke="#63b8ff" points="273.49,-83.42 282.62,-78.06 272.14,-76.56 273.49,-83.42"/>
</a>
</g>
</g>
<!-- Node3 -->
<g id="Node000003" class="node">
<title>Node3</title>
<g id="a_Node000003"><a xlink:href="classcom_1_1teragrep_1_1pth__06_1_1ast_1_1transform_1_1EmptyPrunedTest.html#aa907d5c394426a08aa02a47c8afa71b1" target="_top" xlink:title=" ">
<polygon fill="white" stroke="#666666" points="219,-78 10,-78 10,-48 219,-48 219,-78"/>
<text text-anchor="start" x="18" y="-66" font-family="Helvetica,sans-Serif" font-size="10.00">com.teragrep.pth_06.ast.transform.</text>
<text text-anchor="middle" x="114.5" y="-55" font-family="Helvetica,sans-Serif" font-size="10.00">EmptyPrunedTest.testNoEmptyChildren</text>
</a>
</g>
</g>
<!-- Node1&#45;&gt;Node3 -->
<g id="edge2_Node000001_Node000003" class="edge">
<title>Node1&#45;&gt;Node3</title>
<g id="a_edge2_Node000001_Node000003"><a xlink:title=" ">
<path fill="none" stroke="#63b8ff" d="M254.59,-63C242.83,-63 230.85,-63 219.1,-63"/>
<polygon fill="#63b8ff" stroke="#63b8ff" points="254.86,-66.5 264.86,-63 254.86,-59.5 254.86,-66.5"/>
</a>
</g>
</g>
<!-- Node4 -->
<g id="Node000004" class="node">
<title>Node4</title>
<g id="a_Node000004"><a xlink:href="classcom_1_1teragrep_1_1pth__06_1_1ast_1_1transform_1_1EmptyPrunedTest.html#aaaf6f66c6c0280ed934a8d492d3a6f69" target="_top" xlink:title=" ">
<polygon fill="white" stroke="#666666" points="223.5,-30 5.5,-30 5.5,0 223.5,0 223.5,-30"/>
<text text-anchor="start" x="13.5" y="-18" font-family="Helvetica,sans-Serif" font-size="10.00">com.teragrep.pth_06.ast.transform.</text>
<text text-anchor="middle" x="114.5" y="-7" font-family="Helvetica,sans-Serif" font-size="10.00">EmptyPrunedTest.testOnlyEmptyChildren</text>
</a>
</g>
</g>
<!-- Node1&#45;&gt;Node4 -->
<g id="edge3_Node000001_Node000004" class="edge">
<title>Node1&#45;&gt;Node4</title>
<g id="a_edge3_Node000001_Node000004"><a xlink:title=" ">
<path fill="none" stroke="#63b8ff" d="M272.62,-45.97C246.18,-40.76 217.31,-35.07 191.61,-30"/>
<polygon fill="#63b8ff" stroke="#63b8ff" points="272.14,-49.44 282.62,-47.94 273.49,-42.58 272.14,-49.44"/>
</a>
</g>
</g>
</g>
</svg>
