<?xml version="1.0" encoding="UTF-8" standalone="no"?>
<!DOCTYPE svg PUBLIC "-//W3C//DTD SVG 1.1//EN"
 "http://www.w3.org/Graphics/SVG/1.1/DTD/svg11.dtd">
<!-- Generated by graphviz version 2.43.0 (0)
 -->
<!-- Title: com.teragrep.pth_06.ast.transform.EmptyPrunedTest.testNoEmptyChildren Pages: 1 -->
<svg width="625pt" height="182pt"
 viewBox="0.00 0.00 625.00 182.00" xmlns="http://www.w3.org/2000/svg" xmlns:xlink="http://www.w3.org/1999/xlink">
<g id="graph0" class="graph" transform="scale(1 1) rotate(0) translate(4 178)">
<title>com.teragrep.pth_06.ast.transform.EmptyPrunedTest.testNoEmptyChildren</title>
<!-- Node1 -->
<g id="Node000001" class="node">
<title>Node1</title>
<g id="a_Node000001"><a xlink:title=" ">
<polygon fill="#999999" stroke="#666666" points="209,-102 0,-102 0,-72 209,-72 209,-102"/>
<text text-anchor="start" x="8" y="-90" font-family="Helvetica,sans-Serif" font-size="10.00">com.teragrep.pth_06.ast.transform.</text>
<text text-anchor="middle" x="104.5" y="-79" font-family="Helvetica,sans-Serif" font-size="10.00">EmptyPrunedTest.testNoEmptyChildren</text>
</a>
</g>
</g>
<!-- Node2 -->
<g id="Node000002" class="node">
<title>Node2</title>
<g id="a_Node000002"><a xlink:href="classcom_1_1teragrep_1_1pth__06_1_1ast_1_1transform_1_1EmptyPruned.html#a8cfebc9854b0ad9a7cbe81918392e036" target="_top" xlink:title=" ">
<polygon fill="white" stroke="#666666" points="435,-102 245,-102 245,-72 435,-72 435,-102"/>
<text text-anchor="start" x="253" y="-90" font-family="Helvetica,sans-Serif" font-size="10.00">com.teragrep.pth_06.ast.transform.</text>
<text text-anchor="middle" x="340" y="-79" font-family="Helvetica,sans-Serif" font-size="10.00">EmptyPruned.transformed</text>
</a>
</g>
</g>
<!-- Node1&#45;&gt;Node2 -->
<g id="edge1_Node000001_Node000002" class="edge">
<title>Node1&#45;&gt;Node2</title>
<g id="a_edge1_Node000001_Node000002"><a xlink:title=" ">
<path fill="none" stroke="#63b8ff" d="M209.28,-87C217.68,-87 226.17,-87 234.57,-87"/>
<polygon fill="#63b8ff" stroke="#63b8ff" points="234.77,-90.5 244.77,-87 234.77,-83.5 234.77,-90.5"/>
</a>
</g>
</g>
<!-- Node3 -->
<g id="Node000003" class="node">
<title>Node3</title>
<g id="a_Node000003"><a xlink:href="interfacecom_1_1teragrep_1_1pth__06_1_1ast_1_1Expression.html#a17e7d33905be57c6e22e1717da6ddef6" target="_top" xlink:title=" ">
<polygon fill="white" stroke="#666666" points="613.5,-174 474.5,-174 474.5,-144 613.5,-144 613.5,-174"/>
<text text-anchor="start" x="482.5" y="-162" font-family="Helvetica,sans-Serif" font-size="10.00">com.teragrep.pth_06.ast.</text>
<text text-anchor="middle" x="544" y="-151" font-family="Helvetica,sans-Serif" font-size="10.00">Expression.asLogical</text>
</a>
</g>
</g>
<!-- Node2&#45;&gt;Node3 -->
<g id="edge2_Node000002_Node000003" class="edge">
<title>Node2&#45;&gt;Node3</title>
<g id="a_edge2_Node000002_Node000003"><a xlink:title=" ">
<path fill="none" stroke="#63b8ff" d="M380.71,-102.04C406.39,-111.67 440.58,-124.32 471,-135 476.42,-136.9 482.07,-138.85 487.73,-140.78"/>
<polygon fill="#63b8ff" stroke="#63b8ff" points="486.62,-144.1 497.22,-143.98 488.87,-137.47 486.62,-144.1"/>
</a>
</g>
</g>
<!-- Node4 -->
<g id="Node000004" class="node">
<title>Node4</title>
<g id="a_Node000004"><a xlink:href="interfacecom_1_1teragrep_1_1pth__06_1_1ast_1_1LogicalExpression.html#aeaf8fe296c6899792f345659a9a6c0c4" target="_top" xlink:title=" ">
<polygon fill="white" stroke="#666666" points="617,-126 471,-126 471,-96 617,-96 617,-126"/>
<text text-anchor="start" x="479" y="-114" font-family="Helvetica,sans-Serif" font-size="10.00">com.teragrep.pth_06.ast.</text>
<text text-anchor="middle" x="544" y="-103" font-family="Helvetica,sans-Serif" font-size="10.00">LogicalExpression.children</text>
</a>
</g>
</g>
<!-- Node2&#45;&gt;Node4 -->
<g id="edge3_Node000002_Node000004" class="edge">
<title>Node2&#45;&gt;Node4</title>
<g id="a_edge3_Node000002_Node000004"><a xlink:title=" ">
<path fill="none" stroke="#63b8ff" d="M435.2,-98.19C443.68,-99.2 452.23,-100.22 460.6,-101.21"/>
<polygon fill="#63b8ff" stroke="#63b8ff" points="460.36,-104.71 470.7,-102.41 461.19,-97.75 460.36,-104.71"/>
</a>
</g>
</g>
<!-- Node5 -->
<g id="Node000005" class="node">
<title>Node5</title>
<g id="a_Node000005"><a xlink:href="interfacecom_1_1teragrep_1_1pth__06_1_1ast_1_1Expression.html#a65ee7f5fb98e4129018f467a53586842" target="_top" xlink:title=" ">
<polygon fill="white" stroke="#666666" points="613.5,-78 474.5,-78 474.5,-48 613.5,-48 613.5,-78"/>
<text text-anchor="start" x="482.5" y="-66" font-family="Helvetica,sans-Serif" font-size="10.00">com.teragrep.pth_06.ast.</text>
<text text-anchor="middle" x="544" y="-55" font-family="Helvetica,sans-Serif" font-size="10.00">Expression.isLogical</text>
</a>
</g>
</g>
<!-- Node2&#45;&gt;Node5 -->
<g id="edge4_Node000002_Node000005" class="edge">
<title>Node2&#45;&gt;Node5</title>
<g id="a_edge4_Node000002_Node000005"><a xlink:title=" ">
<path fill="none" stroke="#63b8ff" d="M435.2,-75.81C444.87,-74.66 454.62,-73.5 464.1,-72.37"/>
<polygon fill="#63b8ff" stroke="#63b8ff" points="464.74,-75.82 474.26,-71.17 463.92,-68.87 464.74,-75.82"/>
</a>
</g>
</g>
<!-- Node6 -->
<g id="Node000006" class="node">
<title>Node6</title>
<g id="a_Node000006"><a xlink:href="interfacecom_1_1teragrep_1_1pth__06_1_1ast_1_1Expression.html#a8b9661253a3610b9eb148ee29ca8b7e1" target="_top" xlink:title=" ">
<polygon fill="white" stroke="#666666" points="613.5,-30 474.5,-30 474.5,0 613.5,0 613.5,-30"/>
<text text-anchor="start" x="482.5" y="-18" font-family="Helvetica,sans-Serif" font-size="10.00">com.teragrep.pth_06.ast.</text>
<text text-anchor="middle" x="544" y="-7" font-family="Helvetica,sans-Serif" font-size="10.00">Expression.tag</text>
</a>
</g>
</g>
<!-- Node2&#45;&gt;Node6 -->
<g id="edge5_Node000002_Node000006" class="edge">
<title>Node2&#45;&gt;Node6</title>
<g id="a_edge5_Node000002_Node000006"><a xlink:title=" ">
<path fill="none" stroke="#63b8ff" d="M380.71,-71.96C406.39,-62.33 440.58,-49.68 471,-39 476.42,-37.1 482.07,-35.15 487.73,-33.22"/>
<polygon fill="#63b8ff" stroke="#63b8ff" points="488.87,-36.53 497.22,-30.02 486.62,-29.9 488.87,-36.53"/>
</a>
</g>
</g>
</g>
</svg>
