<?xml version="1.0" encoding="UTF-8" standalone="no"?>
<!DOCTYPE svg PUBLIC "-//W3C//DTD SVG 1.1//EN"
 "http://www.w3.org/Graphics/SVG/1.1/DTD/svg11.dtd">
<!-- Generated by graphviz version 2.43.0 (0)
 -->
<!-- Title: com.teragrep.pth_06.ast.xml.XMLQuery.elementToNode Pages: 1 -->
<svg width="593pt" height="92pt"
 viewBox="0.00 0.00 593.00 91.50" xmlns="http://www.w3.org/2000/svg" xmlns:xlink="http://www.w3.org/1999/xlink">
<g id="graph0" class="graph" transform="scale(1 1) rotate(0) translate(4 87.5)">
<title>com.teragrep.pth_06.ast.xml.XMLQuery.elementToNode</title>
<!-- Node1 -->
<g id="Node000001" class="node">
<title>Node1</title>
<g id="a_Node000001"><a xlink:title=" ">
<polygon fill="#999999" stroke="#666666" points="585,-30 424,-30 424,0 585,0 585,-30"/>
<text text-anchor="start" x="432" y="-18" font-family="Helvetica,sans-Serif" font-size="10.00">com.teragrep.pth_06.ast.xml.</text>
<text text-anchor="middle" x="504.5" y="-7" font-family="Helvetica,sans-Serif" font-size="10.00">XMLQuery.elementToNode</text>
</a>
</g>
</g>
<!-- Node2 -->
<g id="Node000002" class="node">
<title>Node2</title>
<g id="a_Node000002"><a xlink:href="classcom_1_1teragrep_1_1pth__06_1_1ast_1_1xml_1_1XMLQuery.html#a11ebce7d6afeda454c2b93a252196299" target="_top" xlink:title=" ">
<polygon fill="white" stroke="#666666" points="388,-78 227,-78 227,-48 388,-48 388,-78"/>
<text text-anchor="start" x="235" y="-66" font-family="Helvetica,sans-Serif" font-size="10.00">com.teragrep.pth_06.ast.xml.</text>
<text text-anchor="middle" x="307.5" y="-55" font-family="Helvetica,sans-Serif" font-size="10.00">XMLQuery.asAST</text>
</a>
</g>
</g>
<!-- Node1&#45;&gt;Node2 -->
<g id="edge1_Node000001_Node000002" class="edge">
<title>Node1&#45;&gt;Node2</title>
<g id="a_edge1_Node000001_Node000002"><a xlink:title=" ">
<path fill="none" stroke="#63b8ff" d="M432.36,-32.51C411.73,-37.59 389.4,-43.09 369.45,-48"/>
<polygon fill="#63b8ff" stroke="#63b8ff" points="433.46,-35.84 442.34,-30.06 431.79,-29.05 433.46,-35.84"/>
</a>
</g>
</g>
<!-- Node4 -->
<g id="Node000004" class="node">
<title>Node4</title>
<g id="a_Node000004"><a xlink:href="classcom_1_1teragrep_1_1pth__06_1_1ast_1_1xml_1_1XMLQuery.html#afb0ff16b91a35d2ef6c6c000761d0be6" target="_top" xlink:title=" ">
<polygon fill="white" stroke="#666666" points="388,-30 227,-30 227,0 388,0 388,-30"/>
<text text-anchor="start" x="235" y="-18" font-family="Helvetica,sans-Serif" font-size="10.00">com.teragrep.pth_06.ast.xml.</text>
<text text-anchor="middle" x="307.5" y="-7" font-family="Helvetica,sans-Serif" font-size="10.00">XMLQuery.visitLogical</text>
</a>
</g>
</g>
<!-- Node1&#45;&gt;Node4 -->
<g id="edge3_Node000001_Node000004" class="edge">
<title>Node1&#45;&gt;Node4</title>
<g id="a_edge3_Node000001_Node000004"><a xlink:title=" ">
<path fill="none" stroke="#63b8ff" d="M413.88,-8.27C405.3,-8.23 396.64,-8.25 388.16,-8.35"/>
<polygon fill="#63b8ff" stroke="#63b8ff" points="413.88,-11.77 423.9,-8.35 413.93,-4.77 413.88,-11.77"/>
</a>
</g>
</g>
<!-- Node3 -->
<g id="Node000003" class="node">
<title>Node3</title>
<g id="a_Node000003"><a xlink:href="classcom_1_1teragrep_1_1pth__06_1_1ast_1_1xml_1_1XMLQueryTest.html#ab2902b53bc94a44d6dd37367e6e8ebbe" target="_top" xlink:title=" ">
<polygon fill="white" stroke="#666666" points="191,-83.5 0,-83.5 0,-42.5 191,-42.5 191,-83.5"/>
<text text-anchor="start" x="8" y="-71.5" font-family="Helvetica,sans-Serif" font-size="10.00">com.teragrep.pth_06.ast.xml.</text>
<text text-anchor="start" x="8" y="-60.5" font-family="Helvetica,sans-Serif" font-size="10.00">XMLQueryTest.testXMLASTrootFrom</text>
<text text-anchor="middle" x="95.5" y="-49.5" font-family="Helvetica,sans-Serif" font-size="10.00">String</text>
</a>
</g>
</g>
<!-- Node2&#45;&gt;Node3 -->
<g id="edge2_Node000002_Node000003" class="edge">
<title>Node2&#45;&gt;Node3</title>
<g id="a_edge2_Node000002_Node000003"><a xlink:title=" ">
<path fill="none" stroke="#63b8ff" d="M216.65,-63C208.26,-63 199.73,-63 191.3,-63"/>
<polygon fill="#63b8ff" stroke="#63b8ff" points="216.81,-66.5 226.81,-63 216.81,-59.5 216.81,-66.5"/>
</a>
</g>
</g>
<!-- Node4&#45;&gt;Node1 -->
<g id="edge4_Node000004_Node000001" class="edge">
<title>Node4&#45;&gt;Node1</title>
<g id="a_edge4_Node000004_Node000001"><a xlink:title=" ">
<path fill="none" stroke="#63b8ff" d="M398.18,-21.73C406.76,-21.77 415.43,-21.75 423.9,-21.65"/>
<polygon fill="#63b8ff" stroke="#63b8ff" points="398.19,-18.23 388.16,-21.65 398.13,-25.23 398.19,-18.23"/>
</a>
</g>
</g>
</g>
</svg>
