<?xml version="1.0" encoding="UTF-8" standalone="no"?>
<!DOCTYPE svg PUBLIC "-//W3C//DTD SVG 1.1//EN"
 "http://www.w3.org/Graphics/SVG/1.1/DTD/svg11.dtd">
<!-- Generated by graphviz version 2.43.0 (0)
 -->
<!-- Title: com.teragrep.pth_06.ast.analyze.ScanPlanImplTest.testRangeBetweenUpdatedLatestToEarliest Pages: 1 -->
<svg width="480pt" height="76pt"
 viewBox="0.00 0.00 480.00 75.50" xmlns="http://www.w3.org/2000/svg" xmlns:xlink="http://www.w3.org/1999/xlink">
<g id="graph0" class="graph" transform="scale(1 1) rotate(0) translate(4 71.5)">
<title>com.teragrep.pth_06.ast.analyze.ScanPlanImplTest.testRangeBetweenUpdatedLatestToEarliest</title>
<!-- Node1 -->
<g id="Node000001" class="node">
<title>Node1</title>
<g id="a_Node000001"><a xlink:title=" ">
<polygon fill="#999999" stroke="#666666" points="239,-56.5 0,-56.5 0,-15.5 239,-15.5 239,-56.5"/>
<text text-anchor="start" x="8" y="-44.5" font-family="Helvetica,sans-Serif" font-size="10.00">com.teragrep.pth_06.ast.analyze.</text>
<text text-anchor="start" x="8" y="-33.5" font-family="Helvetica,sans-Serif" font-size="10.00">ScanPlanImplTest.testRangeBetweenUpdated</text>
<text text-anchor="middle" x="119.5" y="-22.5" font-family="Helvetica,sans-Serif" font-size="10.00">LatestToEarliest</text>
</a>
</g>
</g>
<!-- Node2 -->
<g id="Node000002" class="node">
<title>Node2</title>
<g id="a_Node000002"><a xlink:href="interfacecom_1_1teragrep_1_1pth__06_1_1Stubable.html#ac7c59dcfbcfa0218ef7bc528ef597971" target="_top" xlink:title=" ">
<polygon fill="white" stroke="#666666" points="472,-67.5 275,-67.5 275,-48.5 472,-48.5 472,-67.5"/>
<text text-anchor="middle" x="373.5" y="-55.5" font-family="Helvetica,sans-Serif" font-size="10.00">com.teragrep.pth_06.Stubable.isStub</text>
</a>
</g>
</g>
<!-- Node1&#45;&gt;Node2 -->
<g id="edge1_Node000001_Node000002" class="edge">
<title>Node1&#45;&gt;Node2</title>
<g id="a_edge1_Node000001_Node000002"><a xlink:title=" ">
<path fill="none" stroke="#63b8ff" d="M239.12,-46.36C247.75,-47.11 256.42,-47.87 264.97,-48.61"/>
<polygon fill="#63b8ff" stroke="#63b8ff" points="264.69,-52.1 274.95,-49.48 265.29,-45.13 264.69,-52.1"/>
</a>
</g>
</g>
<!-- Node3 -->
<g id="Node000003" class="node">
<title>Node3</title>
<g id="a_Node000003"><a xlink:href="interfacecom_1_1teragrep_1_1pth__06_1_1ast_1_1analyze_1_1ScanPlan.html#a4e9eb3e42bbde0815f073f107dc3b180" target="_top" xlink:title="Returns stub when new range is outside the original range.">
<polygon fill="white" stroke="#666666" points="463.5,-30 283.5,-30 283.5,0 463.5,0 463.5,-30"/>
<text text-anchor="start" x="291.5" y="-18" font-family="Helvetica,sans-Serif" font-size="10.00">com.teragrep.pth_06.ast.analyze.</text>
<text text-anchor="middle" x="373.5" y="-7" font-family="Helvetica,sans-Serif" font-size="10.00">ScanPlan.toRangeBetween</text>
</a>
</g>
</g>
<!-- Node1&#45;&gt;Node3 -->
<g id="edge2_Node000001_Node000003" class="edge">
<title>Node1&#45;&gt;Node3</title>
<g id="a_edge2_Node000001_Node000003"><a xlink:title=" ">
<path fill="none" stroke="#63b8ff" d="M239.12,-26.11C250.46,-25.17 261.88,-24.22 273,-23.29"/>
<polygon fill="#63b8ff" stroke="#63b8ff" points="273.46,-26.77 283.13,-22.45 272.88,-19.79 273.46,-26.77"/>
</a>
</g>
</g>
</g>
</svg>
