<?xml version="1.0" encoding="UTF-8" standalone="no"?>
<!DOCTYPE svg PUBLIC "-//W3C//DTD SVG 1.1//EN"
 "http://www.w3.org/Graphics/SVG/1.1/DTD/svg11.dtd">
<!-- Generated by graphviz version 2.43.0 (0)
 -->
<!-- Title: com.teragrep.pth_06.ast.analyze.ScanPlanImplTest.testRangeBetweenUpdatedLatestWithinBounds Pages: 1 -->
<svg width="480pt" height="172pt"
 viewBox="0.00 0.00 480.00 172.00" xmlns="http://www.w3.org/2000/svg" xmlns:xlink="http://www.w3.org/1999/xlink">
<g id="graph0" class="graph" transform="scale(1 1) rotate(0) translate(4 168)">
<title>com.teragrep.pth_06.ast.analyze.ScanPlanImplTest.testRangeBetweenUpdatedLatestWithinBounds</title>
<!-- Node1 -->
<g id="Node000001" class="node">
<title>Node1</title>
<g id="a_Node000001"><a xlink:title=" ">
<polygon fill="#999999" stroke="#666666" points="239,-104.5 0,-104.5 0,-63.5 239,-63.5 239,-104.5"/>
<text text-anchor="start" x="8" y="-92.5" font-family="Helvetica,sans-Serif" font-size="10.00">com.teragrep.pth_06.ast.analyze.</text>
<text text-anchor="start" x="8" y="-81.5" font-family="Helvetica,sans-Serif" font-size="10.00">ScanPlanImplTest.testRangeBetweenUpdated</text>
<text text-anchor="middle" x="119.5" y="-70.5" font-family="Helvetica,sans-Serif" font-size="10.00">LatestWithinBounds</text>
</a>
</g>
</g>
<!-- Node2 -->
<g id="Node000002" class="node">
<title>Node2</title>
<g id="a_Node000002"><a xlink:href="interfacecom_1_1teragrep_1_1pth__06_1_1ast_1_1analyze_1_1ScanPlan.html#ac8cf71cc89d66b8a712bdb95f4766219" target="_top" xlink:title=" ">
<polygon fill="white" stroke="#666666" points="463.5,-164 283.5,-164 283.5,-134 463.5,-134 463.5,-164"/>
<text text-anchor="start" x="291.5" y="-152" font-family="Helvetica,sans-Serif" font-size="10.00">com.teragrep.pth_06.ast.analyze.</text>
<text text-anchor="middle" x="373.5" y="-141" font-family="Helvetica,sans-Serif" font-size="10.00">ScanPlan.earliest</text>
</a>
</g>
</g>
<!-- Node1&#45;&gt;Node2 -->
<g id="edge1_Node000001_Node000002" class="edge">
<title>Node1&#45;&gt;Node2</title>
<g id="a_edge1_Node000001_Node000002"><a xlink:title=" ">
<path fill="none" stroke="#63b8ff" d="M196.66,-104.5C221.6,-111.14 249.46,-118.47 275,-125 283.41,-127.15 292.23,-129.37 300.99,-131.55"/>
<polygon fill="#63b8ff" stroke="#63b8ff" points="300.28,-134.98 310.82,-134 301.96,-128.19 300.28,-134.98"/>
</a>
</g>
</g>
<!-- Node3 -->
<g id="Node000003" class="node">
<title>Node3</title>
<g id="a_Node000003"><a xlink:href="interfacecom_1_1teragrep_1_1pth__06_1_1Stubable.html#ac7c59dcfbcfa0218ef7bc528ef597971" target="_top" xlink:title=" ">
<polygon fill="white" stroke="#666666" points="472,-115.5 275,-115.5 275,-96.5 472,-96.5 472,-115.5"/>
<text text-anchor="middle" x="373.5" y="-103.5" font-family="Helvetica,sans-Serif" font-size="10.00">com.teragrep.pth_06.Stubable.isStub</text>
</a>
</g>
</g>
<!-- Node1&#45;&gt;Node3 -->
<g id="edge2_Node000001_Node000003" class="edge">
<title>Node1&#45;&gt;Node3</title>
<g id="a_edge2_Node000001_Node000003"><a xlink:title=" ">
<path fill="none" stroke="#63b8ff" d="M239.12,-94.36C247.75,-95.11 256.42,-95.87 264.97,-96.61"/>
<polygon fill="#63b8ff" stroke="#63b8ff" points="264.69,-100.1 274.95,-97.48 265.29,-93.13 264.69,-100.1"/>
</a>
</g>
</g>
<!-- Node4 -->
<g id="Node000004" class="node">
<title>Node4</title>
<g id="a_Node000004"><a xlink:href="interfacecom_1_1teragrep_1_1pth__06_1_1ast_1_1analyze_1_1ScanPlan.html#aec1f839cc717eaa9a7aae9776936abb0" target="_top" xlink:title=" ">
<polygon fill="white" stroke="#666666" points="463.5,-78 283.5,-78 283.5,-48 463.5,-48 463.5,-78"/>
<text text-anchor="start" x="291.5" y="-66" font-family="Helvetica,sans-Serif" font-size="10.00">com.teragrep.pth_06.ast.analyze.</text>
<text text-anchor="middle" x="373.5" y="-55" font-family="Helvetica,sans-Serif" font-size="10.00">ScanPlan.latest</text>
</a>
</g>
</g>
<!-- Node1&#45;&gt;Node4 -->
<g id="edge3_Node000001_Node000004" class="edge">
<title>Node1&#45;&gt;Node4</title>
<g id="a_edge3_Node000001_Node000004"><a xlink:title=" ">
<path fill="none" stroke="#63b8ff" d="M239.12,-74.11C250.46,-73.17 261.88,-72.22 273,-71.29"/>
<polygon fill="#63b8ff" stroke="#63b8ff" points="273.46,-74.77 283.13,-70.45 272.88,-67.79 273.46,-74.77"/>
</a>
</g>
</g>
<!-- Node5 -->
<g id="Node000005" class="node">
<title>Node5</title>
<g id="a_Node000005"><a xlink:href="interfacecom_1_1teragrep_1_1pth__06_1_1ast_1_1analyze_1_1ScanPlan.html#a4e9eb3e42bbde0815f073f107dc3b180" target="_top" xlink:title="Returns stub when new range is outside the original range.">
<polygon fill="white" stroke="#666666" points="463.5,-30 283.5,-30 283.5,0 463.5,0 463.5,-30"/>
<text text-anchor="start" x="291.5" y="-18" font-family="Helvetica,sans-Serif" font-size="10.00">com.teragrep.pth_06.ast.analyze.</text>
<text text-anchor="middle" x="373.5" y="-7" font-family="Helvetica,sans-Serif" font-size="10.00">ScanPlan.toRangeBetween</text>
</a>
</g>
</g>
<!-- Node1&#45;&gt;Node5 -->
<g id="edge4_Node000001_Node000005" class="edge">
<title>Node1&#45;&gt;Node5</title>
<g id="a_edge4_Node000001_Node000005"><a xlink:title=" ">
<path fill="none" stroke="#63b8ff" d="M188.78,-63.44C215.59,-55.55 246.67,-46.61 275,-39 283.05,-36.84 291.49,-34.65 299.9,-32.51"/>
<polygon fill="#63b8ff" stroke="#63b8ff" points="300.88,-35.88 309.72,-30.04 299.17,-29.09 300.88,-35.88"/>
</a>
</g>
</g>
</g>
</svg>
