<?xml version="1.0" encoding="UTF-8" standalone="no"?>
<!DOCTYPE svg PUBLIC "-//W3C//DTD SVG 1.1//EN"
 "http://www.w3.org/Graphics/SVG/1.1/DTD/svg11.dtd">
<!-- Generated by graphviz version 2.43.0 (0)
 -->
<!-- Title: com.teragrep.pth_06.planner.state.QueryStateImpl.next Pages: 1 -->
<svg width="429pt" height="124pt"
 viewBox="0.00 0.00 429.00 124.00" xmlns="http://www.w3.org/2000/svg" xmlns:xlink="http://www.w3.org/1999/xlink">
<g id="graph0" class="graph" transform="scale(1 1) rotate(0) translate(4 120)">
<title>com.teragrep.pth_06.planner.state.QueryStateImpl.next</title>
<!-- Node1 -->
<g id="Node000001" class="node">
<title>Node1</title>
<g id="a_Node000001"><a xlink:title=" ">
<polygon fill="#999999" stroke="#666666" points="188,-73 0,-73 0,-43 188,-43 188,-73"/>
<text text-anchor="start" x="8" y="-61" font-family="Helvetica,sans-Serif" font-size="10.00">com.teragrep.pth_06.planner.state.</text>
<text text-anchor="middle" x="94" y="-50" font-family="Helvetica,sans-Serif" font-size="10.00">QueryStateImpl.next</text>
</a>
</g>
</g>
<!-- Node2 -->
<g id="Node000002" class="node">
<title>Node2</title>
<g id="a_Node000002"><a xlink:href="interfacecom_1_1teragrep_1_1pth__06_1_1planner_1_1HourlySlices.html#a939046474a195cb2a911036e7ae19eac" target="_top" xlink:title=" ">
<polygon fill="white" stroke="#666666" points="402.5,-116 242.5,-116 242.5,-86 402.5,-86 402.5,-116"/>
<text text-anchor="start" x="250.5" y="-104" font-family="Helvetica,sans-Serif" font-size="10.00">com.teragrep.pth_06.planner.</text>
<text text-anchor="middle" x="322.5" y="-93" font-family="Helvetica,sans-Serif" font-size="10.00">HourlySlices.hasNext</text>
</a>
</g>
</g>
<!-- Node1&#45;&gt;Node2 -->
<g id="edge1_Node000001_Node000002" class="edge">
<title>Node1&#45;&gt;Node2</title>
<g id="a_edge1_Node000001_Node000002"><a xlink:title=" ">
<path fill="none" stroke="#63b8ff" d="M174.22,-73.04C193.01,-76.61 213.18,-80.44 232.39,-84.08"/>
<polygon fill="#63b8ff" stroke="#63b8ff" points="231.85,-87.54 242.33,-85.97 233.15,-80.67 231.85,-87.54"/>
</a>
</g>
</g>
<!-- Node3 -->
<g id="Node000003" class="node">
<title>Node3</title>
<g id="a_Node000003"><a xlink:href="interfacecom_1_1teragrep_1_1pth__06_1_1Stubable.html#ac7c59dcfbcfa0218ef7bc528ef597971" target="_top" xlink:title=" ">
<polygon fill="white" stroke="#666666" points="421,-67.5 224,-67.5 224,-48.5 421,-48.5 421,-67.5"/>
<text text-anchor="middle" x="322.5" y="-55.5" font-family="Helvetica,sans-Serif" font-size="10.00">com.teragrep.pth_06.Stubable.isStub</text>
</a>
</g>
</g>
<!-- Node1&#45;&gt;Node3 -->
<g id="edge2_Node000001_Node000003" class="edge">
<title>Node1&#45;&gt;Node3</title>
<g id="a_edge2_Node000001_Node000003"><a xlink:title=" ">
<path fill="none" stroke="#63b8ff" d="M188.11,-58C196.61,-58 205.28,-58 213.9,-58"/>
<polygon fill="#63b8ff" stroke="#63b8ff" points="213.98,-61.5 223.98,-58 213.98,-54.5 213.98,-61.5"/>
</a>
</g>
</g>
<!-- Node4 -->
<g id="Node000004" class="node">
<title>Node4</title>
<g id="a_Node000004"><a xlink:href="interfacecom_1_1teragrep_1_1pth__06_1_1planner_1_1LimitedResults.html#ad79e3d027fabcd449d8631574c2e514a" target="_top" xlink:title=" ">
<polygon fill="white" stroke="#666666" points="402.5,-30 242.5,-30 242.5,0 402.5,0 402.5,-30"/>
<text text-anchor="start" x="250.5" y="-18" font-family="Helvetica,sans-Serif" font-size="10.00">com.teragrep.pth_06.planner.</text>
<text text-anchor="middle" x="322.5" y="-7" font-family="Helvetica,sans-Serif" font-size="10.00">LimitedResults.latest</text>
</a>
</g>
</g>
<!-- Node1&#45;&gt;Node4 -->
<g id="edge3_Node000001_Node000004" class="edge">
<title>Node1&#45;&gt;Node4</title>
<g id="a_edge3_Node000001_Node000004"><a xlink:title=" ">
<path fill="none" stroke="#63b8ff" d="M174.22,-42.96C193.01,-39.39 213.18,-35.56 232.39,-31.92"/>
<polygon fill="#63b8ff" stroke="#63b8ff" points="233.15,-35.33 242.33,-30.03 231.85,-28.46 233.15,-35.33"/>
</a>
</g>
</g>
</g>
</svg>
