<?xml version="1.0" encoding="UTF-8" standalone="no"?>
<!DOCTYPE svg PUBLIC "-//W3C//DTD SVG 1.1//EN"
 "http://www.w3.org/Graphics/SVG/1.1/DTD/svg11.dtd">
<!-- Generated by graphviz version 2.43.0 (0)
 -->
<!-- Title: com.teragrep.pth_06.planner.factory.HBaseQueryFactoryTest.testArchiveDisabled Pages: 1 -->
<svg width="474pt" height="76pt"
 viewBox="0.00 0.00 474.00 75.50" xmlns="http://www.w3.org/2000/svg" xmlns:xlink="http://www.w3.org/1999/xlink">
<g id="graph0" class="graph" transform="scale(1 1) rotate(0) translate(4 71.5)">
<title>com.teragrep.pth_06.planner.factory.HBaseQueryFactoryTest.testArchiveDisabled</title>
<!-- Node1 -->
<g id="Node000001" class="node">
<title>Node1</title>
<g id="a_Node000001"><a xlink:title=" ">
<polygon fill="#999999" stroke="#666666" points="233,-51 0,-51 0,-21 233,-21 233,-51"/>
<text text-anchor="start" x="8" y="-39" font-family="Helvetica,sans-Serif" font-size="10.00">com.teragrep.pth_06.planner.factory.</text>
<text text-anchor="middle" x="116.5" y="-28" font-family="Helvetica,sans-Serif" font-size="10.00">HBaseQueryFactoryTest.testArchiveDisabled</text>
</a>
</g>
</g>
<!-- Node2 -->
<g id="Node000002" class="node">
<title>Node2</title>
<g id="a_Node000002"><a xlink:href="interfacecom_1_1teragrep_1_1pth__06_1_1Stubable.html#ac7c59dcfbcfa0218ef7bc528ef597971" target="_top" xlink:title=" ">
<polygon fill="white" stroke="#666666" points="466,-67.5 269,-67.5 269,-48.5 466,-48.5 466,-67.5"/>
<text text-anchor="middle" x="367.5" y="-55.5" font-family="Helvetica,sans-Serif" font-size="10.00">com.teragrep.pth_06.Stubable.isStub</text>
</a>
</g>
</g>
<!-- Node1&#45;&gt;Node2 -->
<g id="edge1_Node000001_Node000002" class="edge">
<title>Node1&#45;&gt;Node2</title>
<g id="a_edge1_Node000001_Node000002"><a xlink:title=" ">
<path fill="none" stroke="#63b8ff" d="M233.25,-46.23C241.74,-46.98 250.28,-47.73 258.72,-48.48"/>
<polygon fill="#63b8ff" stroke="#63b8ff" points="258.68,-51.99 268.95,-49.38 259.3,-45.01 258.68,-51.99"/>
</a>
</g>
</g>
<!-- Node3 -->
<g id="Node000003" class="node">
<title>Node3</title>
<g id="a_Node000003"><a xlink:href="interfacecom_1_1teragrep_1_1pth__06_1_1planner_1_1factory_1_1Factory.html#a051559ec0c4c2e5c76416f0eb8a8b8f8" target="_top" xlink:title=" ">
<polygon fill="white" stroke="#666666" points="465.5,-30 269.5,-30 269.5,0 465.5,0 465.5,-30"/>
<text text-anchor="start" x="277.5" y="-18" font-family="Helvetica,sans-Serif" font-size="10.00">com.teragrep.pth_06.planner.factory.</text>
<text text-anchor="middle" x="367.5" y="-7" font-family="Helvetica,sans-Serif" font-size="10.00">Factory.object</text>
</a>
</g>
</g>
<!-- Node1&#45;&gt;Node3 -->
<g id="edge2_Node000001_Node000003" class="edge">
<title>Node1&#45;&gt;Node3</title>
<g id="a_edge2_Node000001_Node000003"><a xlink:title=" ">
<path fill="none" stroke="#63b8ff" d="M233.25,-26.24C241.92,-25.51 250.65,-24.77 259.27,-24.04"/>
<polygon fill="#63b8ff" stroke="#63b8ff" points="259.65,-27.52 269.32,-23.2 259.06,-20.55 259.65,-27.52"/>
</a>
</g>
</g>
</g>
</svg>
