<?xml version="1.0" encoding="UTF-8" standalone="no"?>
<!DOCTYPE svg PUBLIC "-//W3C//DTD SVG 1.1//EN"
 "http://www.w3.org/Graphics/SVG/1.1/DTD/svg11.dtd">
<!-- Generated by graphviz version 2.43.0 (0)
 -->
<!-- Title: com.teragrep.pth_06.ast.expressions.IndexStatementExpressionTest.testValues Pages: 1 -->
<svg width="465pt" height="230pt"
 viewBox="0.00 0.00 465.00 230.00" xmlns="http://www.w3.org/2000/svg" xmlns:xlink="http://www.w3.org/1999/xlink">
<g id="graph0" class="graph" transform="scale(1 1) rotate(0) translate(4 226)">
<title>com.teragrep.pth_06.ast.expressions.IndexStatementExpressionTest.testValues</title>
<!-- Node1 -->
<g id="Node000001" class="node">
<title>Node1</title>
<g id="a_Node000001"><a xlink:title=" ">
<polygon fill="#999999" stroke="#666666" points="221,-126 0,-126 0,-96 221,-96 221,-126"/>
<text text-anchor="start" x="8" y="-114" font-family="Helvetica,sans-Serif" font-size="10.00">com.teragrep.pth_06.ast.expressions.</text>
<text text-anchor="middle" x="110.5" y="-103" font-family="Helvetica,sans-Serif" font-size="10.00">IndexStatementExpressionTest.testValues</text>
</a>
</g>
</g>
<!-- Node2 -->
<g id="Node000002" class="node">
<title>Node2</title>
<g id="a_Node000002"><a xlink:href="interfacecom_1_1teragrep_1_1pth__06_1_1ast_1_1expressions_1_1Expression.html#a5e19560b6a2dd7d8da7d440752be0f85" target="_top" xlink:title=" ">
<polygon fill="white" stroke="#666666" points="457,-222 257,-222 257,-192 457,-192 457,-222"/>
<text text-anchor="start" x="265" y="-210" font-family="Helvetica,sans-Serif" font-size="10.00">com.teragrep.pth_06.ast.expressions.</text>
<text text-anchor="middle" x="357" y="-199" font-family="Helvetica,sans-Serif" font-size="10.00">Expression.isLeaf</text>
</a>
</g>
</g>
<!-- Node1&#45;&gt;Node2 -->
<g id="edge1_Node000001_Node000002" class="edge">
<title>Node1&#45;&gt;Node2</title>
<g id="a_edge1_Node000001_Node000002"><a xlink:title=" ">
<path fill="none" stroke="#63b8ff" d="M137.54,-126.09C166.06,-142.1 213.56,-167.21 257,-183 263,-185.18 269.27,-187.22 275.63,-189.12"/>
<polygon fill="#63b8ff" stroke="#63b8ff" points="275.07,-192.61 285.65,-191.99 277,-185.88 275.07,-192.61"/>
</a>
</g>
</g>
<!-- Node3 -->
<g id="Node000003" class="node">
<title>Node3</title>
<g id="a_Node000003"><a xlink:href="interfacecom_1_1teragrep_1_1pth__06_1_1ast_1_1expressions_1_1Expression.html#a21595757d1c0226920f51b78fbc21f2d" target="_top" xlink:title=" ">
<polygon fill="white" stroke="#666666" points="457,-174 257,-174 257,-144 457,-144 457,-174"/>
<text text-anchor="start" x="265" y="-162" font-family="Helvetica,sans-Serif" font-size="10.00">com.teragrep.pth_06.ast.expressions.</text>
<text text-anchor="middle" x="357" y="-151" font-family="Helvetica,sans-Serif" font-size="10.00">Expression.isLogical</text>
</a>
</g>
</g>
<!-- Node1&#45;&gt;Node3 -->
<g id="edge2_Node000001_Node000003" class="edge">
<title>Node1&#45;&gt;Node3</title>
<g id="a_edge2_Node000001_Node000003"><a xlink:title=" ">
<path fill="none" stroke="#63b8ff" d="M188.19,-126.06C214.02,-131.13 243.02,-136.82 269.55,-142.03"/>
<polygon fill="#63b8ff" stroke="#63b8ff" points="269.09,-145.51 279.58,-144 270.44,-138.64 269.09,-145.51"/>
</a>
</g>
</g>
<!-- Node4 -->
<g id="Node000004" class="node">
<title>Node4</title>
<g id="a_Node000004"><a xlink:href="interfacecom_1_1teragrep_1_1pth__06_1_1ast_1_1expressions_1_1ValueExpression.html#a1a7f265ebd90f3b157dd044f2b17a9bd" target="_top" xlink:title=" ">
<polygon fill="white" stroke="#666666" points="457,-126 257,-126 257,-96 457,-96 457,-126"/>
<text text-anchor="start" x="265" y="-114" font-family="Helvetica,sans-Serif" font-size="10.00">com.teragrep.pth_06.ast.expressions.</text>
<text text-anchor="middle" x="357" y="-103" font-family="Helvetica,sans-Serif" font-size="10.00">ValueExpression.operation</text>
</a>
</g>
</g>
<!-- Node1&#45;&gt;Node4 -->
<g id="edge3_Node000001_Node000004" class="edge">
<title>Node1&#45;&gt;Node4</title>
<g id="a_edge3_Node000001_Node000004"><a xlink:title=" ">
<path fill="none" stroke="#63b8ff" d="M221.23,-111C229.63,-111 238.1,-111 246.49,-111"/>
<polygon fill="#63b8ff" stroke="#63b8ff" points="246.68,-114.5 256.68,-111 246.68,-107.5 246.68,-114.5"/>
</a>
</g>
</g>
<!-- Node5 -->
<g id="Node000005" class="node">
<title>Node5</title>
<g id="a_Node000005"><a xlink:href="interfacecom_1_1teragrep_1_1pth__06_1_1ast_1_1expressions_1_1Expression.html#a73cd5ad815e33d65164545a64e6821d5" target="_top" xlink:title=" ">
<polygon fill="white" stroke="#666666" points="457,-78 257,-78 257,-48 457,-48 457,-78"/>
<text text-anchor="start" x="265" y="-66" font-family="Helvetica,sans-Serif" font-size="10.00">com.teragrep.pth_06.ast.expressions.</text>
<text text-anchor="middle" x="357" y="-55" font-family="Helvetica,sans-Serif" font-size="10.00">Expression.tag</text>
</a>
</g>
</g>
<!-- Node1&#45;&gt;Node5 -->
<g id="edge4_Node000001_Node000005" class="edge">
<title>Node1&#45;&gt;Node5</title>
<g id="a_edge4_Node000001_Node000005"><a xlink:title=" ">
<path fill="none" stroke="#63b8ff" d="M188.19,-95.94C214.02,-90.87 243.02,-85.18 269.55,-79.97"/>
<polygon fill="#63b8ff" stroke="#63b8ff" points="270.44,-83.36 279.58,-78 269.09,-76.49 270.44,-83.36"/>
</a>
</g>
</g>
<!-- Node6 -->
<g id="Node000006" class="node">
<title>Node6</title>
<g id="a_Node000006"><a xlink:href="interfacecom_1_1teragrep_1_1pth__06_1_1ast_1_1expressions_1_1ValueExpression.html#a1386ca8842586851ac682fdd9a052772" target="_top" xlink:title=" ">
<polygon fill="white" stroke="#666666" points="457,-30 257,-30 257,0 457,0 457,-30"/>
<text text-anchor="start" x="265" y="-18" font-family="Helvetica,sans-Serif" font-size="10.00">com.teragrep.pth_06.ast.expressions.</text>
<text text-anchor="middle" x="357" y="-7" font-family="Helvetica,sans-Serif" font-size="10.00">ValueExpression.value</text>
</a>
</g>
</g>
<!-- Node1&#45;&gt;Node6 -->
<g id="edge5_Node000001_Node000006" class="edge">
<title>Node1&#45;&gt;Node6</title>
<g id="a_edge5_Node000001_Node000006"><a xlink:title=" ">
<path fill="none" stroke="#63b8ff" d="M137.54,-95.91C166.06,-79.9 213.56,-54.79 257,-39 263,-36.82 269.27,-34.78 275.63,-32.88"/>
<polygon fill="#63b8ff" stroke="#63b8ff" points="277,-36.12 285.65,-30.01 275.07,-29.39 277,-36.12"/>
</a>
</g>
</g>
</g>
</svg>
