<?xml version="1.0" encoding="UTF-8" standalone="no"?>
<!DOCTYPE svg PUBLIC "-//W3C//DTD SVG 1.1//EN"
 "http://www.w3.org/Graphics/SVG/1.1/DTD/svg11.dtd">
<!-- Generated by graphviz version 2.43.0 (0)
 -->
<!-- Title: com.teragrep.pth_06.ast.analyze.ScanRangeCollection.asList Pages: 1 -->
<svg width="1084pt" height="308pt"
 viewBox="0.00 0.00 1084.00 308.00" xmlns="http://www.w3.org/2000/svg" xmlns:xlink="http://www.w3.org/1999/xlink">
<g id="graph0" class="graph" transform="scale(1 1) rotate(0) translate(4 304)">
<title>com.teragrep.pth_06.ast.analyze.ScanRangeCollection.asList</title>
<!-- Node1 -->
<g id="Node000001" class="node">
<title>Node1</title>
<g id="a_Node000001"><a xlink:title=" ">
<polygon fill="#999999" stroke="#666666" points="180,-228 0,-228 0,-198 180,-198 180,-228"/>
<text text-anchor="start" x="8" y="-216" font-family="Helvetica,sans-Serif" font-size="10.00">com.teragrep.pth_06.ast.analyze.</text>
<text text-anchor="middle" x="90" y="-205" font-family="Helvetica,sans-Serif" font-size="10.00">ScanRangeCollection.asList</text>
</a>
</g>
</g>
<!-- Node2 -->
<g id="Node000002" class="node">
<title>Node2</title>
<g id="a_Node000002"><a xlink:href="classcom_1_1teragrep_1_1pth__06_1_1ast_1_1analyze_1_1ScanRangeCollection.html#ae559ce9b6a9ded88c7b62910bf56efbe" target="_top" xlink:title=" ">
<polygon fill="white" stroke="#666666" points="416,-228 216,-228 216,-198 416,-198 416,-228"/>
<text text-anchor="start" x="224" y="-216" font-family="Helvetica,sans-Serif" font-size="10.00">com.teragrep.pth_06.ast.analyze.</text>
<text text-anchor="middle" x="316" y="-205" font-family="Helvetica,sans-Serif" font-size="10.00">ScanRangeCollection.findScanRanges</text>
</a>
</g>
</g>
<!-- Node1&#45;&gt;Node2 -->
<g id="edge1_Node000001_Node000002" class="edge">
<title>Node1&#45;&gt;Node2</title>
<g id="a_edge1_Node000001_Node000002"><a xlink:title=" ">
<path fill="none" stroke="#63b8ff" d="M180.17,-213C188.59,-213 197.19,-213 205.77,-213"/>
<polygon fill="#63b8ff" stroke="#63b8ff" points="205.81,-216.5 215.81,-213 205.81,-209.5 205.81,-216.5"/>
</a>
</g>
</g>
<!-- Node2&#45;&gt;Node2 -->
<g id="edge4_Node000002_Node000002" class="edge">
<title>Node2&#45;&gt;Node2</title>
<g id="a_edge4_Node000002_Node000002"><a xlink:title=" ">
<path fill="none" stroke="#63b8ff" d="M276.27,-228.28C267.45,-237.41 280.69,-246 316,-246 336.97,-246 350.15,-242.97 355.56,-238.6"/>
<polygon fill="#63b8ff" stroke="#63b8ff" points="359.06,-238.33 355.73,-228.28 352.06,-238.22 359.06,-238.33"/>
</a>
</g>
</g>
<!-- Node3 -->
<g id="Node000003" class="node">
<title>Node3</title>
<g id="a_Node000003"><a xlink:href="interfacecom_1_1teragrep_1_1pth__06_1_1ast_1_1Expression.html#a17e7d33905be57c6e22e1717da6ddef6" target="_top" xlink:title=" ">
<polygon fill="white" stroke="#666666" points="611.5,-300 472.5,-300 472.5,-270 611.5,-270 611.5,-300"/>
<text text-anchor="start" x="480.5" y="-288" font-family="Helvetica,sans-Serif" font-size="10.00">com.teragrep.pth_06.ast.</text>
<text text-anchor="middle" x="542" y="-277" font-family="Helvetica,sans-Serif" font-size="10.00">Expression.asLogical</text>
</a>
</g>
</g>
<!-- Node2&#45;&gt;Node3 -->
<g id="edge2_Node000002_Node000003" class="edge">
<title>Node2&#45;&gt;Node3</title>
<g id="a_edge2_Node000002_Node000003"><a xlink:title=" ">
<path fill="none" stroke="#63b8ff" d="M356.6,-228C383.36,-237.91 419.59,-250.88 452,-261 458.57,-263.05 465.44,-265.09 472.33,-267.06"/>
<polygon fill="#63b8ff" stroke="#63b8ff" points="471.83,-270.56 482.41,-269.9 473.73,-263.82 471.83,-270.56"/>
</a>
</g>
</g>
<!-- Node4 -->
<g id="Node000004" class="node">
<title>Node4</title>
<g id="a_Node000004"><a xlink:href="interfacecom_1_1teragrep_1_1pth__06_1_1ast_1_1LogicalExpression.html#aeaf8fe296c6899792f345659a9a6c0c4" target="_top" xlink:title=" ">
<polygon fill="white" stroke="#666666" points="615,-252 469,-252 469,-222 615,-222 615,-252"/>
<text text-anchor="start" x="477" y="-240" font-family="Helvetica,sans-Serif" font-size="10.00">com.teragrep.pth_06.ast.</text>
<text text-anchor="middle" x="542" y="-229" font-family="Helvetica,sans-Serif" font-size="10.00">LogicalExpression.children</text>
</a>
</g>
</g>
<!-- Node2&#45;&gt;Node4 -->
<g id="edge3_Node000002_Node000004" class="edge">
<title>Node2&#45;&gt;Node4</title>
<g id="a_edge3_Node000002_Node000004"><a xlink:title=" ">
<path fill="none" stroke="#63b8ff" d="M416.23,-223.63C430.45,-225.16 444.94,-226.71 458.79,-228.19"/>
<polygon fill="#63b8ff" stroke="#63b8ff" points="458.42,-231.67 468.74,-229.26 459.17,-224.71 458.42,-231.67"/>
</a>
</g>
</g>
<!-- Node5 -->
<g id="Node000005" class="node">
<title>Node5</title>
<g id="a_Node000005"><a xlink:href="interfacecom_1_1teragrep_1_1pth__06_1_1ast_1_1Expression.html#a65ee7f5fb98e4129018f467a53586842" target="_top" xlink:title=" ">
<polygon fill="white" stroke="#666666" points="611.5,-204 472.5,-204 472.5,-174 611.5,-174 611.5,-204"/>
<text text-anchor="start" x="480.5" y="-192" font-family="Helvetica,sans-Serif" font-size="10.00">com.teragrep.pth_06.ast.</text>
<text text-anchor="middle" x="542" y="-181" font-family="Helvetica,sans-Serif" font-size="10.00">Expression.isLogical</text>
</a>
</g>
</g>
<!-- Node2&#45;&gt;Node5 -->
<g id="edge5_Node000002_Node000005" class="edge">
<title>Node2&#45;&gt;Node5</title>
<g id="a_edge5_Node000002_Node000005"><a xlink:title=" ">
<path fill="none" stroke="#63b8ff" d="M416.23,-202.37C431.63,-200.72 447.36,-199.03 462.23,-197.44"/>
<polygon fill="#63b8ff" stroke="#63b8ff" points="462.8,-200.9 472.37,-196.35 462.06,-193.94 462.8,-200.9"/>
</a>
</g>
</g>
<!-- Node6 -->
<g id="Node000006" class="node">
<title>Node6</title>
<g id="a_Node000006"><a xlink:href="classcom_1_1teragrep_1_1pth__06_1_1ast_1_1analyze_1_1ScanGroupExpression.html#a0e5168dad0a59965e14bbc6417498fed" target="_top" xlink:title=" ">
<polygon fill="white" stroke="#666666" points="632,-156 452,-156 452,-126 632,-126 632,-156"/>
<text text-anchor="start" x="460" y="-144" font-family="Helvetica,sans-Serif" font-size="10.00">com.teragrep.pth_06.ast.analyze.</text>
<text text-anchor="middle" x="542" y="-133" font-family="Helvetica,sans-Serif" font-size="10.00">ScanGroupExpression.value</text>
</a>
</g>
</g>
<!-- Node2&#45;&gt;Node6 -->
<g id="edge6_Node000002_Node000006" class="edge">
<title>Node2&#45;&gt;Node6</title>
<g id="a_edge6_Node000002_Node000006"><a xlink:title=" ">
<path fill="none" stroke="#63b8ff" d="M356.6,-198C383.36,-188.09 419.59,-175.12 452,-165 458.57,-162.95 465.44,-160.91 472.33,-158.94"/>
<polygon fill="#63b8ff" stroke="#63b8ff" points="473.73,-162.18 482.41,-156.1 471.83,-155.44 473.73,-162.18"/>
</a>
</g>
</g>
<!-- Node7 -->
<g id="Node000007" class="node">
<title>Node7</title>
<g id="a_Node000007"><a xlink:href="classcom_1_1teragrep_1_1pth__06_1_1ast_1_1MergeIntersectingPlans.html#ac9312d6b24005eae4d9924660ca33a47" target="_top" xlink:title=" ">
<polygon fill="white" stroke="#666666" points="844,-188.5 672,-188.5 672,-147.5 844,-147.5 844,-188.5"/>
<text text-anchor="start" x="680" y="-176.5" font-family="Helvetica,sans-Serif" font-size="10.00">com.teragrep.pth_06.ast.</text>
<text text-anchor="start" x="680" y="-165.5" font-family="Helvetica,sans-Serif" font-size="10.00">MergeIntersectingPlans.merged</text>
<text text-anchor="middle" x="758" y="-154.5" font-family="Helvetica,sans-Serif" font-size="10.00">Ranges</text>
</a>
</g>
</g>
<!-- Node6&#45;&gt;Node7 -->
<g id="edge7_Node000006_Node000007" class="edge">
<title>Node6&#45;&gt;Node7</title>
<g id="a_edge7_Node000006_Node000007"><a xlink:title=" ">
<path fill="none" stroke="#63b8ff" d="M632.21,-152.25C641.91,-153.48 651.81,-154.73 661.59,-155.96"/>
<polygon fill="#63b8ff" stroke="#63b8ff" points="661.35,-159.46 671.71,-157.24 662.23,-152.52 661.35,-159.46"/>
</a>
</g>
</g>
<!-- Node8 -->
<g id="Node000008" class="node">
<title>Node8</title>
<g id="a_Node000008"><a xlink:href="classcom_1_1teragrep_1_1pth__06_1_1ast_1_1analyze_1_1PlannedScans.html#ad6dfe7529bfdfc03de991c95e194e0fe" target="_top" xlink:title=" ">
<polygon fill="white" stroke="#666666" points="848,-129 668,-129 668,-99 848,-99 848,-129"/>
<text text-anchor="start" x="676" y="-117" font-family="Helvetica,sans-Serif" font-size="10.00">com.teragrep.pth_06.ast.analyze.</text>
<text text-anchor="middle" x="758" y="-106" font-family="Helvetica,sans-Serif" font-size="10.00">PlannedScans.planListForGroup</text>
</a>
</g>
</g>
<!-- Node6&#45;&gt;Node8 -->
<g id="edge8_Node000006_Node000008" class="edge">
<title>Node6&#45;&gt;Node8</title>
<g id="a_edge8_Node000006_Node000008"><a xlink:title=" ">
<path fill="none" stroke="#63b8ff" d="M632.21,-129.75C640.7,-128.67 649.34,-127.58 657.92,-126.5"/>
<polygon fill="#63b8ff" stroke="#63b8ff" points="658.46,-129.96 667.94,-125.24 657.58,-123.02 658.46,-129.96"/>
</a>
</g>
</g>
<!-- Node9 -->
<g id="Node000009" class="node">
<title>Node9</title>
<g id="a_Node000009"><a xlink:href="classcom_1_1teragrep_1_1pth__06_1_1ast_1_1analyze_1_1StreamIDGroup.html#a429db1dbf66f77a975f929fa85179f87" target="_top" xlink:title=" ">
<polygon fill="white" stroke="#666666" points="1076,-228 884,-228 884,-198 1076,-198 1076,-228"/>
<text text-anchor="start" x="892" y="-216" font-family="Helvetica,sans-Serif" font-size="10.00">com.teragrep.pth_06.ast.analyze.</text>
<text text-anchor="middle" x="980" y="-205" font-family="Helvetica,sans-Serif" font-size="10.00">StreamIDGroup.combinedStreamIds</text>
</a>
</g>
</g>
<!-- Node8&#45;&gt;Node9 -->
<g id="edge9_Node000008_Node000009" class="edge">
<title>Node8&#45;&gt;Node9</title>
<g id="a_edge9_Node000008_Node000009"><a xlink:title=" ">
<path fill="none" stroke="#63b8ff" d="M830.02,-129.1C836.37,-131.87 842.48,-135.14 848,-139 870.44,-154.69 861.36,-173.6 884,-189 886.29,-190.56 888.68,-192.02 891.14,-193.38"/>
<polygon fill="#63b8ff" stroke="#63b8ff" points="889.81,-196.63 900.33,-197.92 892.91,-190.35 889.81,-196.63"/>
</a>
</g>
</g>
<!-- Node10 -->
<g id="Node000010" class="node">
<title>Node10</title>
<g id="a_Node000010"><a xlink:href="classcom_1_1teragrep_1_1pth__06_1_1ast_1_1analyze_1_1ScanTimeQualifiers.html#a82cd78430e3cda656d0cadbfaf5295a5" target="_top" xlink:title=" ">
<polygon fill="white" stroke="#666666" points="1070,-162 890,-162 890,-132 1070,-132 1070,-162"/>
<text text-anchor="start" x="898" y="-150" font-family="Helvetica,sans-Serif" font-size="10.00">com.teragrep.pth_06.ast.analyze.</text>
<text text-anchor="middle" x="980" y="-139" font-family="Helvetica,sans-Serif" font-size="10.00">ScanTimeQualifiers.earliest</text>
</a>
</g>
</g>
<!-- Node8&#45;&gt;Node10 -->
<g id="edge10_Node000008_Node000010" class="edge">
<title>Node8&#45;&gt;Node10</title>
<g id="a_edge10_Node000008_Node000010"><a xlink:title=" ">
<path fill="none" stroke="#63b8ff" d="M848.17,-127.37C858.55,-128.93 869.18,-130.53 879.69,-132.1"/>
<polygon fill="#63b8ff" stroke="#63b8ff" points="879.3,-135.58 889.71,-133.61 880.34,-128.66 879.3,-135.58"/>
</a>
</g>
</g>
<!-- Node11 -->
<g id="Node000011" class="node">
<title>Node11</title>
<g id="a_Node000011"><a xlink:href="classcom_1_1teragrep_1_1pth__06_1_1ast_1_1analyze_1_1FilterGroup.html#abca0dfe17ffff99e035f7136c075c661" target="_top" xlink:title=" ">
<polygon fill="white" stroke="#666666" points="1070,-96 890,-96 890,-66 1070,-66 1070,-96"/>
<text text-anchor="start" x="898" y="-84" font-family="Helvetica,sans-Serif" font-size="10.00">com.teragrep.pth_06.ast.analyze.</text>
<text text-anchor="middle" x="980" y="-73" font-family="Helvetica,sans-Serif" font-size="10.00">FilterGroup.filterList</text>
</a>
</g>
</g>
<!-- Node8&#45;&gt;Node11 -->
<g id="edge12_Node000008_Node000011" class="edge">
<title>Node8&#45;&gt;Node11</title>
<g id="a_edge12_Node000008_Node000011"><a xlink:title=" ">
<path fill="none" stroke="#63b8ff" d="M848.17,-100.63C858.55,-99.07 869.18,-97.47 879.69,-95.9"/>
<polygon fill="#63b8ff" stroke="#63b8ff" points="880.34,-99.34 889.71,-94.39 879.3,-92.42 880.34,-99.34"/>
</a>
</g>
</g>
<!-- Node12 -->
<g id="Node000012" class="node">
<title>Node12</title>
<g id="a_Node000012"><a xlink:href="classcom_1_1teragrep_1_1pth__06_1_1ast_1_1analyze_1_1ScanTimeQualifiers.html#a99388aed3186adf2e10b2317b5565833" target="_top" xlink:title=" ">
<polygon fill="white" stroke="#666666" points="1070,-30 890,-30 890,0 1070,0 1070,-30"/>
<text text-anchor="start" x="898" y="-18" font-family="Helvetica,sans-Serif" font-size="10.00">com.teragrep.pth_06.ast.analyze.</text>
<text text-anchor="middle" x="980" y="-7" font-family="Helvetica,sans-Serif" font-size="10.00">ScanTimeQualifiers.latest</text>
</a>
</g>
</g>
<!-- Node8&#45;&gt;Node12 -->
<g id="edge14_Node000008_Node000012" class="edge">
<title>Node8&#45;&gt;Node12</title>
<g id="a_edge14_Node000008_Node000012"><a xlink:title=" ">
<path fill="none" stroke="#63b8ff" d="M791.85,-98.89C817.03,-87.35 852.67,-71.07 884,-57 900.78,-49.47 919.26,-41.27 935.44,-34.13"/>
<polygon fill="#63b8ff" stroke="#63b8ff" points="936.92,-37.3 944.66,-30.07 934.1,-30.9 936.92,-37.3"/>
</a>
</g>
</g>
<!-- Node10&#45;&gt;Node10 -->
<g id="edge11_Node000010_Node000010" class="edge">
<title>Node10&#45;&gt;Node10</title>
<g id="a_edge11_Node000010_Node000010"><a xlink:title=" ">
<path fill="none" stroke="#63b8ff" d="M940.98,-162.28C932.3,-171.41 945.31,-180 980,-180 1000.6,-180 1013.55,-176.97 1018.86,-172.6"/>
<polygon fill="#63b8ff" stroke="#63b8ff" points="1022.36,-172.33 1019.02,-162.28 1015.36,-172.22 1022.36,-172.33"/>
</a>
</g>
</g>
<!-- Node11&#45;&gt;Node11 -->
<g id="edge13_Node000011_Node000011" class="edge">
<title>Node11&#45;&gt;Node11</title>
<g id="a_edge13_Node000011_Node000011"><a xlink:title=" ">
<path fill="none" stroke="#63b8ff" d="M940.98,-96.28C932.3,-105.41 945.31,-114 980,-114 1000.6,-114 1013.55,-110.97 1018.86,-106.6"/>
<polygon fill="#63b8ff" stroke="#63b8ff" points="1022.36,-106.33 1019.02,-96.28 1015.36,-106.22 1022.36,-106.33"/>
</a>
</g>
</g>
<!-- Node12&#45;&gt;Node12 -->
<g id="edge15_Node000012_Node000012" class="edge">
<title>Node12&#45;&gt;Node12</title>
<g id="a_edge15_Node000012_Node000012"><a xlink:title=" ">
<path fill="none" stroke="#63b8ff" d="M940.98,-30.28C932.3,-39.41 945.31,-48 980,-48 1000.6,-48 1013.55,-44.97 1018.86,-40.6"/>
<polygon fill="#63b8ff" stroke="#63b8ff" points="1022.36,-40.33 1019.02,-30.28 1015.36,-40.22 1022.36,-40.33"/>
</a>
</g>
</g>
</g>
</svg>
