<?xml version="1.0" encoding="UTF-8" standalone="no"?>
<!DOCTYPE svg PUBLIC "-//W3C//DTD SVG 1.1//EN"
 "http://www.w3.org/Graphics/SVG/1.1/DTD/svg11.dtd">
<!-- Generated by graphviz version 2.43.0 (0)
 -->
<!-- Title: com.teragrep.pth_06.planner.SynchronizedHourlyResultsTest.beforeEach Pages: 1 -->
<svg width="666pt" height="108pt"
 viewBox="0.00 0.00 666.00 108.00" xmlns="http://www.w3.org/2000/svg" xmlns:xlink="http://www.w3.org/1999/xlink">
<g id="graph0" class="graph" transform="scale(1 1) rotate(0) translate(4 104)">
<title>com.teragrep.pth_06.planner.SynchronizedHourlyResultsTest.beforeEach</title>
<!-- Node1 -->
<g id="Node000001" class="node">
<title>Node1</title>
<g id="a_Node000001"><a xlink:title=" ">
<polygon fill="#999999" stroke="#666666" points="227,-52 0,-52 0,-22 227,-22 227,-52"/>
<text text-anchor="start" x="8" y="-40" font-family="Helvetica,sans-Serif" font-size="10.00">com.teragrep.pth_06.planner.</text>
<text text-anchor="middle" x="113.5" y="-29" font-family="Helvetica,sans-Serif" font-size="10.00">SynchronizedHourlyResultsTest.beforeEach</text>
</a>
</g>
</g>
<!-- Node2 -->
<g id="Node000002" class="node">
<title>Node2</title>
<g id="a_Node000002"><a xlink:href="classcom_1_1teragrep_1_1pth__06_1_1planner_1_1MockDBData.html#ac40d15664c87654e25524e6a19c25156" target="_top" xlink:title=" ">
<polygon fill="white" stroke="#666666" points="462,-100 263,-100 263,-70 462,-70 462,-100"/>
<text text-anchor="start" x="271" y="-88" font-family="Helvetica,sans-Serif" font-size="10.00">com.teragrep.pth_06.planner.</text>
<text text-anchor="middle" x="362.5" y="-77" font-family="Helvetica,sans-Serif" font-size="10.00">MockDBData.getVirtualDatabaseMap</text>
</a>
</g>
</g>
<!-- Node1&#45;&gt;Node2 -->
<g id="edge1_Node000001_Node000002" class="edge">
<title>Node1&#45;&gt;Node2</title>
<g id="a_edge1_Node000001_Node000002"><a xlink:title=" ">
<path fill="none" stroke="#63b8ff" d="M191.97,-52.06C218.07,-57.13 247.36,-62.82 274.16,-68.03"/>
<polygon fill="#63b8ff" stroke="#63b8ff" points="273.82,-71.53 284.3,-70 275.15,-64.65 273.82,-71.53"/>
</a>
</g>
</g>
<!-- Node3 -->
<g id="Node000003" class="node">
<title>Node3</title>
<g id="a_Node000003"><a xlink:href="classcom_1_1teragrep_1_1pth__06_1_1planner_1_1LogfileTable.html#a4ad5834e4a68cef4b34efad12e727e60" target="_top" xlink:title=" ">
<polygon fill="white" stroke="#666666" points="442.5,-52 282.5,-52 282.5,-22 442.5,-22 442.5,-52"/>
<text text-anchor="start" x="290.5" y="-40" font-family="Helvetica,sans-Serif" font-size="10.00">com.teragrep.pth_06.planner.</text>
<text text-anchor="middle" x="362.5" y="-29" font-family="Helvetica,sans-Serif" font-size="10.00">LogfileTable.insertResults</text>
</a>
</g>
</g>
<!-- Node1&#45;&gt;Node3 -->
<g id="edge2_Node000001_Node000003" class="edge">
<title>Node1&#45;&gt;Node3</title>
<g id="a_edge2_Node000001_Node000003"><a xlink:title=" ">
<path fill="none" stroke="#63b8ff" d="M227.16,-37C242.11,-37 257.27,-37 271.76,-37"/>
<polygon fill="#63b8ff" stroke="#63b8ff" points="272.18,-40.5 282.18,-37 272.18,-33.5 272.18,-40.5"/>
</a>
</g>
</g>
<!-- Node4 -->
<g id="Node000004" class="node">
<title>Node4</title>
<g id="a_Node000004"><a xlink:href="classcom_1_1teragrep_1_1pth__06_1_1planner_1_1LogfileTable.html#a525b18f872aafe7488e39c6b2c156b5a" target="_top" xlink:title=" ">
<polygon fill="white" stroke="#666666" points="658,-30 498,-30 498,0 658,0 658,-30"/>
<text text-anchor="start" x="506" y="-18" font-family="Helvetica,sans-Serif" font-size="10.00">com.teragrep.pth_06.planner.</text>
<text text-anchor="middle" x="578" y="-7" font-family="Helvetica,sans-Serif" font-size="10.00">LogfileTable.table</text>
</a>
</g>
</g>
<!-- Node1&#45;&gt;Node4 -->
<g id="edge4_Node000001_Node000004" class="edge">
<title>Node1&#45;&gt;Node4</title>
<g id="a_edge4_Node000001_Node000004"><a xlink:title=" ">
<path fill="none" stroke="#63b8ff" d="M192.44,-22C215.1,-18.29 239.96,-14.85 263,-13 351.16,-5.92 373.56,-12.23 462,-13 470.32,-13.07 478.99,-13.17 487.66,-13.29"/>
<polygon fill="#63b8ff" stroke="#63b8ff" points="487.77,-16.8 497.82,-13.44 487.87,-9.8 487.77,-16.8"/>
</a>
</g>
</g>
<!-- Node3&#45;&gt;Node4 -->
<g id="edge3_Node000003_Node000004" class="edge">
<title>Node3&#45;&gt;Node4</title>
<g id="a_edge3_Node000003_Node000004"><a xlink:title=" ">
<path fill="none" stroke="#63b8ff" d="M442.7,-28.84C457.35,-27.33 472.75,-25.74 487.68,-24.2"/>
<polygon fill="#63b8ff" stroke="#63b8ff" points="488.34,-27.65 497.93,-23.15 487.63,-20.69 488.34,-27.65"/>
</a>
</g>
</g>
</g>
</svg>
