<?xml version="1.0" encoding="UTF-8" standalone="no"?>
<!DOCTYPE svg PUBLIC "-//W3C//DTD SVG 1.1//EN"
 "http://www.w3.org/Graphics/SVG/1.1/DTD/svg11.dtd">
<!-- Generated by graphviz version 2.43.0 (0)
 -->
<!-- Title: com.teragrep.pth_06.planner.LogfileTable.table Pages: 1 -->
<svg width="629pt" height="277pt"
 viewBox="0.00 0.00 629.00 277.40" xmlns="http://www.w3.org/2000/svg" xmlns:xlink="http://www.w3.org/1999/xlink">
<g id="graph0" class="graph" transform="scale(1 1) rotate(0) translate(4 273.4)">
<title>com.teragrep.pth_06.planner.LogfileTable.table</title>
<!-- Node1 -->
<g id="Node000001" class="node">
<title>Node1</title>
<g id="a_Node000001"><a xlink:title=" ">
<polygon fill="#999999" stroke="#666666" points="621,-167 461,-167 461,-137 621,-137 621,-167"/>
<text text-anchor="start" x="469" y="-155" font-family="Helvetica,sans-Serif" font-size="10.00">com.teragrep.pth_06.planner.</text>
<text text-anchor="middle" x="541" y="-144" font-family="Helvetica,sans-Serif" font-size="10.00">LogfileTable.table</text>
</a>
</g>
</g>
<!-- Node2 -->
<g id="Node000002" class="node">
<title>Node2</title>
<g id="a_Node000002"><a xlink:href="classcom_1_1teragrep_1_1pth__06_1_1planner_1_1HBaseQueryImplTest.html#a805c338639cb8d3850b7007c6513db90" target="_top" xlink:title=" ">
<polygon fill="white" stroke="#666666" points="180,-268 4,-268 4,-238 180,-238 180,-268"/>
<text text-anchor="start" x="12" y="-256" font-family="Helvetica,sans-Serif" font-size="10.00">com.teragrep.pth_06.planner.</text>
<text text-anchor="middle" x="92" y="-245" font-family="Helvetica,sans-Serif" font-size="10.00">HBaseQueryImplTest.beforeEach</text>
</a>
</g>
</g>
<!-- Node1&#45;&gt;Node2 -->
<g id="edge1_Node000001_Node000002" class="edge">
<title>Node1&#45;&gt;Node2</title>
<g id="a_edge1_Node000001_Node000002"><a xlink:title=" ">
<path fill="none" stroke="#63b8ff" d="M520.22,-174.75C499.18,-197.1 463.66,-229.85 425,-244 345.81,-272.99 248.75,-271.79 180.08,-265.44"/>
<polygon fill="#63b8ff" stroke="#63b8ff" points="522.85,-177.06 527.04,-167.33 517.7,-172.33 522.85,-177.06"/>
</a>
</g>
</g>
<!-- Node3 -->
<g id="Node000003" class="node">
<title>Node3</title>
<g id="a_Node000003"><a xlink:href="classcom_1_1teragrep_1_1pth__06_1_1planner_1_1HourlyViewsSlicesTest.html#abf7f8a1e5c773e0ed50d55b28f007789" target="_top" xlink:title=" ">
<polygon fill="white" stroke="#666666" points="184,-211 0,-211 0,-181 184,-181 184,-211"/>
<text text-anchor="start" x="8" y="-199" font-family="Helvetica,sans-Serif" font-size="10.00">com.teragrep.pth_06.planner.</text>
<text text-anchor="middle" x="92" y="-188" font-family="Helvetica,sans-Serif" font-size="10.00">HourlyViewsSlicesTest.beforeEach</text>
</a>
</g>
</g>
<!-- Node1&#45;&gt;Node3 -->
<g id="edge2_Node000001_Node000003" class="edge">
<title>Node1&#45;&gt;Node3</title>
<g id="a_edge2_Node000001_Node000003"><a xlink:title=" ">
<path fill="none" stroke="#63b8ff" d="M450.65,-160.79C373.31,-168.41 261.93,-179.37 184.08,-187.03"/>
<polygon fill="#63b8ff" stroke="#63b8ff" points="451.25,-164.25 460.86,-159.79 450.56,-157.29 451.25,-164.25"/>
</a>
</g>
</g>
<!-- Node4 -->
<g id="Node000004" class="node">
<title>Node4</title>
<g id="a_Node000004"><a xlink:href="classcom_1_1teragrep_1_1pth__06_1_1planner_1_1LogfileTable.html#a4ad5834e4a68cef4b34efad12e727e60" target="_top" xlink:title=" ">
<polygon fill="white" stroke="#666666" points="402.5,-235 242.5,-235 242.5,-205 402.5,-205 402.5,-235"/>
<text text-anchor="start" x="250.5" y="-223" font-family="Helvetica,sans-Serif" font-size="10.00">com.teragrep.pth_06.planner.</text>
<text text-anchor="middle" x="322.5" y="-212" font-family="Helvetica,sans-Serif" font-size="10.00">LogfileTable.insertResults</text>
</a>
</g>
</g>
<!-- Node1&#45;&gt;Node4 -->
<g id="edge3_Node000001_Node000004" class="edge">
<title>Node1&#45;&gt;Node4</title>
<g id="a_edge3_Node000001_Node000004"><a xlink:title=" ">
<path fill="none" stroke="#63b8ff" d="M487.64,-170.36C468.05,-177.06 445.57,-184.58 425,-191 409.78,-195.75 393.18,-200.62 377.9,-204.98"/>
<polygon fill="#63b8ff" stroke="#63b8ff" points="488.97,-173.6 497.29,-167.04 486.7,-166.98 488.97,-173.6"/>
</a>
</g>
</g>
<!-- Node5 -->
<g id="Node000005" class="node">
<title>Node5</title>
<g id="a_Node000005"><a xlink:href="classcom_1_1teragrep_1_1pth__06_1_1planner_1_1LogfileTableTest.html#ac00f5c3beb2806880a4141e96da395ca" target="_top" xlink:title=" ">
<polygon fill="white" stroke="#666666" points="414.5,-148.5 230.5,-148.5 230.5,-107.5 414.5,-107.5 414.5,-148.5"/>
<text text-anchor="start" x="238.5" y="-136.5" font-family="Helvetica,sans-Serif" font-size="10.00">com.teragrep.pth_06.planner.</text>
<text text-anchor="start" x="238.5" y="-125.5" font-family="Helvetica,sans-Serif" font-size="10.00">LogfileTableTest.testDefaultLogfile</text>
<text text-anchor="middle" x="322.5" y="-114.5" font-family="Helvetica,sans-Serif" font-size="10.00">TableName</text>
</a>
</g>
</g>
<!-- Node1&#45;&gt;Node5 -->
<g id="edge6_Node000001_Node000005" class="edge">
<title>Node1&#45;&gt;Node5</title>
<g id="a_edge6_Node000001_Node000005"><a xlink:title=" ">
<path fill="none" stroke="#63b8ff" d="M450.63,-142.09C438.81,-140.78 426.69,-139.44 414.84,-138.13"/>
<polygon fill="#63b8ff" stroke="#63b8ff" points="450.59,-145.61 460.92,-143.23 451.37,-138.65 450.59,-145.61"/>
</a>
</g>
</g>
<!-- Node6 -->
<g id="Node000006" class="node">
<title>Node6</title>
<g id="a_Node000006"><a xlink:href="classcom_1_1teragrep_1_1pth__06_1_1planner_1_1LogfileTableTest.html#a92b3fc949817488ae25c2e0fbacca099" target="_top" xlink:title=" ">
<polygon fill="white" stroke="#666666" points="409,-89.5 236,-89.5 236,-48.5 409,-48.5 409,-89.5"/>
<text text-anchor="start" x="244" y="-77.5" font-family="Helvetica,sans-Serif" font-size="10.00">com.teragrep.pth_06.planner.</text>
<text text-anchor="start" x="244" y="-66.5" font-family="Helvetica,sans-Serif" font-size="10.00">LogfileTableTest.testLogfileTable</text>
<text text-anchor="middle" x="322.5" y="-55.5" font-family="Helvetica,sans-Serif" font-size="10.00">NameOption</text>
</a>
</g>
</g>
<!-- Node1&#45;&gt;Node6 -->
<g id="edge7_Node000001_Node000006" class="edge">
<title>Node1&#45;&gt;Node6</title>
<g id="a_edge7_Node000001_Node000006"><a xlink:title=" ">
<path fill="none" stroke="#63b8ff" d="M502.2,-132.37C480.07,-121.36 451.38,-107.89 425,-98 417.11,-95.04 408.77,-92.21 400.41,-89.55"/>
<polygon fill="#63b8ff" stroke="#63b8ff" points="500.74,-135.55 511.25,-136.92 503.89,-129.3 500.74,-135.55"/>
</a>
</g>
</g>
<!-- Node7 -->
<g id="Node000007" class="node">
<title>Node7</title>
<g id="a_Node000007"><a xlink:href="classcom_1_1teragrep_1_1pth__06_1_1planner_1_1LogfileTableTest.html#a076669fb190eb7fa92c9bc5f4cf15824" target="_top" xlink:title=" ">
<polygon fill="white" stroke="#666666" points="425,-30 220,-30 220,0 425,0 425,-30"/>
<text text-anchor="start" x="228" y="-18" font-family="Helvetica,sans-Serif" font-size="10.00">com.teragrep.pth_06.planner.</text>
<text text-anchor="middle" x="322.5" y="-7" font-family="Helvetica,sans-Serif" font-size="10.00">LogfileTableTest.testMultipleTableCalls</text>
</a>
</g>
</g>
<!-- Node1&#45;&gt;Node7 -->
<g id="edge8_Node000001_Node000007" class="edge">
<title>Node1&#45;&gt;Node7</title>
<g id="a_edge8_Node000001_Node000007"><a xlink:title=" ">
<path fill="none" stroke="#63b8ff" d="M522.84,-128.77C502.44,-102.85 465.95,-61.61 425,-39 418.74,-35.54 411.99,-32.58 405.06,-30.05"/>
<polygon fill="#63b8ff" stroke="#63b8ff" points="520.25,-131.14 529.13,-136.92 525.8,-126.86 520.25,-131.14"/>
</a>
</g>
</g>
<!-- Node4&#45;&gt;Node2 -->
<g id="edge4_Node000004_Node000002" class="edge">
<title>Node4&#45;&gt;Node2</title>
<g id="a_edge4_Node000004_Node000002"><a xlink:title=" ">
<path fill="none" stroke="#63b8ff" d="M232.27,-232.89C215.2,-235.35 197.35,-237.93 180.33,-240.39"/>
<polygon fill="#63b8ff" stroke="#63b8ff" points="232.83,-236.34 242.22,-231.45 231.83,-229.41 232.83,-236.34"/>
</a>
</g>
</g>
<!-- Node4&#45;&gt;Node3 -->
<g id="edge5_Node000004_Node000003" class="edge">
<title>Node4&#45;&gt;Node3</title>
<g id="a_edge5_Node000004_Node000003"><a xlink:title=" ">
<path fill="none" stroke="#63b8ff" d="M232.03,-210.6C216.35,-208.96 200.02,-207.24 184.29,-205.59"/>
<polygon fill="#63b8ff" stroke="#63b8ff" points="231.91,-214.11 242.22,-211.67 232.64,-207.15 231.91,-214.11"/>
</a>
</g>
</g>
</g>
</svg>
