<?xml version="1.0" encoding="UTF-8" standalone="no"?>
<!DOCTYPE svg PUBLIC "-//W3C//DTD SVG 1.1//EN"
 "http://www.w3.org/Graphics/SVG/1.1/DTD/svg11.dtd">
<!-- Generated by graphviz version 2.43.0 (0)
 -->
<!-- Title: com.teragrep.pth_06.ast.analyze.ClassifiedExpressions.expressionListFilteredByTag Pages: 1 -->
<svg width="691pt" height="434pt"
 viewBox="0.00 0.00 691.00 434.00" xmlns="http://www.w3.org/2000/svg" xmlns:xlink="http://www.w3.org/1999/xlink">
<g id="graph0" class="graph" transform="scale(1 1) rotate(0) translate(4 430)">
<title>com.teragrep.pth_06.ast.analyze.ClassifiedExpressions.expressionListFilteredByTag</title>
<!-- Node1 -->
<g id="Node000001" class="node">
<title>Node1</title>
<g id="a_Node000001"><a xlink:title=" ">
<polygon fill="#999999" stroke="#666666" points="683,-239.5 487,-239.5 487,-198.5 683,-198.5 683,-239.5"/>
<text text-anchor="start" x="495" y="-227.5" font-family="Helvetica,sans-Serif" font-size="10.00">com.teragrep.pth_06.ast.analyze.</text>
<text text-anchor="start" x="495" y="-216.5" font-family="Helvetica,sans-Serif" font-size="10.00">ClassifiedExpressions.expressionList</text>
<text text-anchor="middle" x="585" y="-205.5" font-family="Helvetica,sans-Serif" font-size="10.00">FilteredByTag</text>
</a>
</g>
</g>
<!-- Node2 -->
<g id="Node000002" class="node">
<title>Node2</title>
<g id="a_Node000002"><a xlink:href="classcom_1_1teragrep_1_1pth__06_1_1ast_1_1analyze_1_1ClassifiedExpressions.html#a6c7e53e1b206fc2ef1f6aeea4ef1afa6" target="_top" xlink:title=" ">
<polygon fill="white" stroke="#666666" points="442.5,-306 262.5,-306 262.5,-276 442.5,-276 442.5,-306"/>
<text text-anchor="start" x="270.5" y="-294" font-family="Helvetica,sans-Serif" font-size="10.00">com.teragrep.pth_06.ast.analyze.</text>
<text text-anchor="middle" x="352.5" y="-283" font-family="Helvetica,sans-Serif" font-size="10.00">ClassifiedExpressions.earliestList</text>
</a>
</g>
</g>
<!-- Node1&#45;&gt;Node2 -->
<g id="edge1_Node000001_Node000002" class="edge">
<title>Node1&#45;&gt;Node2</title>
<g id="a_edge1_Node000001_Node000002"><a xlink:title=" ">
<path fill="none" stroke="#63b8ff" d="M508.51,-242.58C473.38,-253.55 432.64,-266.28 401.74,-275.93"/>
<polygon fill="#63b8ff" stroke="#63b8ff" points="509.75,-245.86 518.26,-239.54 507.67,-239.18 509.75,-245.86"/>
</a>
</g>
</g>
<!-- Node6 -->
<g id="Node000006" class="node">
<title>Node6</title>
<g id="a_Node000006"><a xlink:href="classcom_1_1teragrep_1_1pth__06_1_1ast_1_1analyze_1_1ClassifiedExpressions.html#a00ac3e5899be879258c4698ddf784e81" target="_top" xlink:title=" ">
<polygon fill="white" stroke="#666666" points="442.5,-234 262.5,-234 262.5,-204 442.5,-204 442.5,-234"/>
<text text-anchor="start" x="270.5" y="-222" font-family="Helvetica,sans-Serif" font-size="10.00">com.teragrep.pth_06.ast.analyze.</text>
<text text-anchor="middle" x="352.5" y="-211" font-family="Helvetica,sans-Serif" font-size="10.00">ClassifiedExpressions.hostList</text>
</a>
</g>
</g>
<!-- Node1&#45;&gt;Node6 -->
<g id="edge5_Node000001_Node000006" class="edge">
<title>Node1&#45;&gt;Node6</title>
<g id="a_edge5_Node000001_Node000006"><a xlink:title=" ">
<path fill="none" stroke="#63b8ff" d="M476.91,-219C465.49,-219 453.95,-219 442.77,-219"/>
<polygon fill="#63b8ff" stroke="#63b8ff" points="476.92,-222.5 486.92,-219 476.92,-215.5 476.92,-222.5"/>
</a>
</g>
</g>
<!-- Node10 -->
<g id="Node000010" class="node">
<title>Node10</title>
<g id="a_Node000010"><a xlink:href="classcom_1_1teragrep_1_1pth__06_1_1ast_1_1analyze_1_1ClassifiedExpressions.html#aa09862aadc0af24b633817931f715896" target="_top" xlink:title=" ">
<polygon fill="white" stroke="#666666" points="442.5,-138 262.5,-138 262.5,-108 442.5,-108 442.5,-138"/>
<text text-anchor="start" x="270.5" y="-126" font-family="Helvetica,sans-Serif" font-size="10.00">com.teragrep.pth_06.ast.analyze.</text>
<text text-anchor="middle" x="352.5" y="-115" font-family="Helvetica,sans-Serif" font-size="10.00">ClassifiedExpressions.indexList</text>
</a>
</g>
</g>
<!-- Node1&#45;&gt;Node10 -->
<g id="edge10_Node000001_Node000010" class="edge">
<title>Node1&#45;&gt;Node10</title>
<g id="a_edge10_Node000001_Node000010"><a xlink:title=" ">
<path fill="none" stroke="#63b8ff" d="M542.81,-193.15C517.18,-177.98 483.1,-159.4 451,-147 442.38,-143.67 433.15,-140.69 423.94,-138.06"/>
<polygon fill="#63b8ff" stroke="#63b8ff" points="541.13,-196.22 551.51,-198.36 544.73,-190.22 541.13,-196.22"/>
</a>
</g>
</g>
<!-- Node12 -->
<g id="Node000012" class="node">
<title>Node12</title>
<g id="a_Node000012"><a xlink:href="classcom_1_1teragrep_1_1pth__06_1_1ast_1_1analyze_1_1ClassifiedExpressions.html#a2da89c7b0fe08ff65aa4b1cfd42585e8" target="_top" xlink:title=" ">
<polygon fill="white" stroke="#666666" points="442.5,-366 262.5,-366 262.5,-336 442.5,-336 442.5,-366"/>
<text text-anchor="start" x="270.5" y="-354" font-family="Helvetica,sans-Serif" font-size="10.00">com.teragrep.pth_06.ast.analyze.</text>
<text text-anchor="middle" x="352.5" y="-343" font-family="Helvetica,sans-Serif" font-size="10.00">ClassifiedExpressions.latestList</text>
</a>
</g>
</g>
<!-- Node1&#45;&gt;Node12 -->
<g id="edge14_Node000001_Node000012" class="edge">
<title>Node1&#45;&gt;Node12</title>
<g id="a_edge14_Node000001_Node000012"><a xlink:title=" ">
<path fill="none" stroke="#63b8ff" d="M551.86,-246.04C525.89,-266.91 487.74,-295.43 451,-315 435.71,-323.14 418.18,-330.24 402.23,-335.93"/>
<polygon fill="#63b8ff" stroke="#63b8ff" points="554.29,-248.57 559.84,-239.55 549.87,-243.14 554.29,-248.57"/>
</a>
</g>
</g>
<!-- Node14 -->
<g id="Node000014" class="node">
<title>Node14</title>
<g id="a_Node000014"><a xlink:href="classcom_1_1teragrep_1_1pth__06_1_1ast_1_1analyze_1_1ClassifiedExpressions.html#a23983fe0f955300072a3bc2a30e379f3" target="_top" xlink:title=" ">
<polygon fill="white" stroke="#666666" points="451,-186 254,-186 254,-156 451,-156 451,-186"/>
<text text-anchor="start" x="262" y="-174" font-family="Helvetica,sans-Serif" font-size="10.00">com.teragrep.pth_06.ast.analyze.</text>
<text text-anchor="middle" x="352.5" y="-163" font-family="Helvetica,sans-Serif" font-size="10.00">ClassifiedExpressions.sourceTypeList</text>
</a>
</g>
</g>
<!-- Node1&#45;&gt;Node14 -->
<g id="edge18_Node000001_Node000014" class="edge">
<title>Node1&#45;&gt;Node14</title>
<g id="a_edge18_Node000001_Node000014"><a xlink:title=" ">
<path fill="none" stroke="#63b8ff" d="M476.75,-196.67C459.42,-193.06 441.84,-189.4 425.61,-186.02"/>
<polygon fill="#63b8ff" stroke="#63b8ff" points="476.41,-200.17 486.92,-198.78 477.84,-193.32 476.41,-200.17"/>
</a>
</g>
</g>
<!-- Node3 -->
<g id="Node000003" class="node">
<title>Node3</title>
<g id="a_Node000003"><a xlink:href="classcom_1_1teragrep_1_1pth__06_1_1ast_1_1analyze_1_1ScanTimeQualifiers.html#a8ea53a38fa2220809bd8b03d4eb2c28e" target="_top" xlink:title=" ">
<polygon fill="white" stroke="#666666" points="213.5,-378 4.5,-378 4.5,-348 213.5,-348 213.5,-378"/>
<text text-anchor="start" x="12.5" y="-366" font-family="Helvetica,sans-Serif" font-size="10.00">com.teragrep.pth_06.ast.analyze.</text>
<text text-anchor="middle" x="109" y="-355" font-family="Helvetica,sans-Serif" font-size="10.00">ScanTimeQualifiers.ScanTimeQualifiers</text>
</a>
</g>
</g>
<!-- Node2&#45;&gt;Node3 -->
<g id="edge2_Node000002_Node000003" class="edge">
<title>Node2&#45;&gt;Node3</title>
<g id="a_edge2_Node000002_Node000003"><a xlink:title=" ">
<path fill="none" stroke="#63b8ff" d="M301.47,-309.73C270.65,-321.12 234.06,-334.35 218,-339 206.93,-342.21 195.12,-345.23 183.52,-347.98"/>
<polygon fill="#63b8ff" stroke="#63b8ff" points="303.08,-312.87 311.24,-306.11 300.65,-306.3 303.08,-312.87"/>
</a>
</g>
</g>
<!-- Node4 -->
<g id="Node000004" class="node">
<title>Node4</title>
<g id="a_Node000004"><a xlink:href="classcom_1_1teragrep_1_1pth__06_1_1ast_1_1analyze_1_1ClassifiedExpressionsTest.html#a6066ed056ca45ada10b293ea06772dd4" target="_top" xlink:title=" ">
<polygon fill="white" stroke="#666666" points="218,-330 0,-330 0,-300 218,-300 218,-330"/>
<text text-anchor="start" x="8" y="-318" font-family="Helvetica,sans-Serif" font-size="10.00">com.teragrep.pth_06.ast.analyze.</text>
<text text-anchor="middle" x="109" y="-307" font-family="Helvetica,sans-Serif" font-size="10.00">ClassifiedExpressionsTest.testEarliestList</text>
</a>
</g>
</g>
<!-- Node2&#45;&gt;Node4 -->
<g id="edge3_Node000002_Node000004" class="edge">
<title>Node2&#45;&gt;Node4</title>
<g id="a_edge3_Node000002_Node000004"><a xlink:title=" ">
<path fill="none" stroke="#63b8ff" d="M252.06,-300.88C240.86,-302 229.41,-303.13 218.1,-304.26"/>
<polygon fill="#63b8ff" stroke="#63b8ff" points="252.66,-304.34 262.26,-299.87 251.96,-297.37 252.66,-304.34"/>
</a>
</g>
</g>
<!-- Node5 -->
<g id="Node000005" class="node">
<title>Node5</title>
<g id="a_Node000005"><a xlink:href="classcom_1_1teragrep_1_1pth__06_1_1ast_1_1analyze_1_1ClassifiedExpressionsTest.html#a4109474e8197f3120f3b9943fac52e2a" target="_top" xlink:title=" ">
<polygon fill="white" stroke="#666666" points="215,-234 3,-234 3,-204 215,-204 215,-234"/>
<text text-anchor="start" x="11" y="-222" font-family="Helvetica,sans-Serif" font-size="10.00">com.teragrep.pth_06.ast.analyze.</text>
<text text-anchor="middle" x="109" y="-211" font-family="Helvetica,sans-Serif" font-size="10.00">ClassifiedExpressionsTest.testEmptyList</text>
</a>
</g>
</g>
<!-- Node2&#45;&gt;Node5 -->
<g id="edge4_Node000002_Node000005" class="edge">
<title>Node2&#45;&gt;Node5</title>
<g id="a_edge4_Node000002_Node000005"><a xlink:title=" ">
<path fill="none" stroke="#63b8ff" d="M304.29,-272.37C278.96,-262.8 247.05,-251.41 218,-243 206.93,-239.79 195.12,-236.77 183.52,-234.02"/>
<polygon fill="#63b8ff" stroke="#63b8ff" points="303.06,-275.65 313.65,-275.94 305.55,-269.11 303.06,-275.65"/>
</a>
</g>
</g>
<!-- Node6&#45;&gt;Node5 -->
<g id="edge8_Node000006_Node000005" class="edge">
<title>Node6&#45;&gt;Node5</title>
<g id="a_edge8_Node000006_Node000005"><a xlink:title=" ">
<path fill="none" stroke="#63b8ff" d="M252.12,-219C239.94,-219 227.47,-219 215.21,-219"/>
<polygon fill="#63b8ff" stroke="#63b8ff" points="252.26,-222.5 262.26,-219 252.26,-215.5 252.26,-222.5"/>
</a>
</g>
</g>
<!-- Node7 -->
<g id="Node000007" class="node">
<title>Node7</title>
<g id="a_Node000007"><a xlink:href="classcom_1_1teragrep_1_1pth__06_1_1ast_1_1analyze_1_1FilterGroup.html#ae4d852bcc6a0293ec14152579942d2ce" target="_top" xlink:title=" ">
<polygon fill="white" stroke="#666666" points="199,-186 19,-186 19,-156 199,-156 199,-186"/>
<text text-anchor="start" x="27" y="-174" font-family="Helvetica,sans-Serif" font-size="10.00">com.teragrep.pth_06.ast.analyze.</text>
<text text-anchor="middle" x="109" y="-163" font-family="Helvetica,sans-Serif" font-size="10.00">FilterGroup.FilterGroup</text>
</a>
</g>
</g>
<!-- Node6&#45;&gt;Node7 -->
<g id="edge6_Node000006_Node000007" class="edge">
<title>Node6&#45;&gt;Node7</title>
<g id="a_edge6_Node000006_Node000007"><a xlink:title=" ">
<path fill="none" stroke="#63b8ff" d="M265.83,-201.97C239.61,-196.76 210.97,-191.07 185.48,-186"/>
<polygon fill="#63b8ff" stroke="#63b8ff" points="265.26,-205.43 275.75,-203.94 266.62,-198.56 265.26,-205.43"/>
</a>
</g>
</g>
<!-- Node8 -->
<g id="Node000008" class="node">
<title>Node8</title>
<g id="a_Node000008"><a xlink:href="classcom_1_1teragrep_1_1pth__06_1_1ast_1_1analyze_1_1StreamIDGroup.html#a93e79d77b3c9f57782f1b9c9f5e43e76" target="_top" xlink:title=" ">
<polygon fill="white" stroke="#666666" points="199,-138 19,-138 19,-108 199,-108 199,-138"/>
<text text-anchor="start" x="27" y="-126" font-family="Helvetica,sans-Serif" font-size="10.00">com.teragrep.pth_06.ast.analyze.</text>
<text text-anchor="middle" x="109" y="-115" font-family="Helvetica,sans-Serif" font-size="10.00">StreamIDGroup.StreamIDGroup</text>
</a>
</g>
</g>
<!-- Node6&#45;&gt;Node8 -->
<g id="edge7_Node000006_Node000008" class="edge">
<title>Node6&#45;&gt;Node8</title>
<g id="a_edge7_Node000006_Node000008"><a xlink:title=" ">
<path fill="none" stroke="#63b8ff" d="M261.64,-199.55C259.01,-198.14 256.45,-196.62 254,-195 231.76,-180.29 240.41,-161.46 218,-147 212.11,-143.2 205.7,-139.99 199.05,-137.29"/>
<polygon fill="#63b8ff" stroke="#63b8ff" points="260.31,-202.79 270.84,-203.96 263.34,-196.48 260.31,-202.79"/>
</a>
</g>
</g>
<!-- Node9 -->
<g id="Node000009" class="node">
<title>Node9</title>
<g id="a_Node000009"><a xlink:href="classcom_1_1teragrep_1_1pth__06_1_1ast_1_1analyze_1_1ClassifiedExpressionsTest.html#a1d307f18e670c5be4f4813ca0cea99c8" target="_top" xlink:title=" ">
<polygon fill="white" stroke="#666666" points="210.5,-282 7.5,-282 7.5,-252 210.5,-252 210.5,-282"/>
<text text-anchor="start" x="15.5" y="-270" font-family="Helvetica,sans-Serif" font-size="10.00">com.teragrep.pth_06.ast.analyze.</text>
<text text-anchor="middle" x="109" y="-259" font-family="Helvetica,sans-Serif" font-size="10.00">ClassifiedExpressionsTest.testHostList</text>
</a>
</g>
</g>
<!-- Node6&#45;&gt;Node9 -->
<g id="edge9_Node000006_Node000009" class="edge">
<title>Node6&#45;&gt;Node9</title>
<g id="a_edge9_Node000006_Node000009"><a xlink:title=" ">
<path fill="none" stroke="#63b8ff" d="M265.83,-236.03C239.61,-241.24 210.97,-246.93 185.48,-252"/>
<polygon fill="#63b8ff" stroke="#63b8ff" points="266.62,-239.44 275.75,-234.06 265.26,-232.57 266.62,-239.44"/>
</a>
</g>
</g>
<!-- Node10&#45;&gt;Node5 -->
<g id="edge12_Node000010_Node000005" class="edge">
<title>Node10&#45;&gt;Node5</title>
<g id="a_edge12_Node000010_Node000005"><a xlink:title=" ">
<path fill="none" stroke="#63b8ff" d="M261.64,-142.45C259.01,-143.86 256.45,-145.38 254,-147 231.76,-161.71 240.41,-180.54 218,-195 212.67,-198.44 206.93,-201.39 200.95,-203.92"/>
<polygon fill="#63b8ff" stroke="#63b8ff" points="263.34,-145.52 270.84,-138.04 260.31,-139.21 263.34,-145.52"/>
</a>
</g>
</g>
<!-- Node10&#45;&gt;Node8 -->
<g id="edge11_Node000010_Node000008" class="edge">
<title>Node10&#45;&gt;Node8</title>
<g id="a_edge11_Node000010_Node000008"><a xlink:title=" ">
<path fill="none" stroke="#63b8ff" d="M252.05,-123C234.56,-123 216.46,-123 199.28,-123"/>
<polygon fill="#63b8ff" stroke="#63b8ff" points="252.26,-126.5 262.26,-123 252.26,-119.5 252.26,-126.5"/>
</a>
</g>
</g>
<!-- Node11 -->
<g id="Node000011" class="node">
<title>Node11</title>
<g id="a_Node000011"><a xlink:href="classcom_1_1teragrep_1_1pth__06_1_1ast_1_1analyze_1_1ClassifiedExpressionsTest.html#aba1fffa5222a9d694d18bc1dca5033bd" target="_top" xlink:title=" ">
<polygon fill="white" stroke="#666666" points="213,-30 5,-30 5,0 213,0 213,-30"/>
<text text-anchor="start" x="13" y="-18" font-family="Helvetica,sans-Serif" font-size="10.00">com.teragrep.pth_06.ast.analyze.</text>
<text text-anchor="middle" x="109" y="-7" font-family="Helvetica,sans-Serif" font-size="10.00">ClassifiedExpressionsTest.testIndexList</text>
</a>
</g>
</g>
<!-- Node10&#45;&gt;Node11 -->
<g id="edge13_Node000010_Node000011" class="edge">
<title>Node10&#45;&gt;Node11</title>
<g id="a_edge13_Node000010_Node000011"><a xlink:title=" ">
<path fill="none" stroke="#63b8ff" d="M324.1,-101.79C298.14,-82.68 257.36,-55.19 218,-39 209.65,-35.57 200.73,-32.59 191.72,-30"/>
<polygon fill="#63b8ff" stroke="#63b8ff" points="322.21,-104.74 332.32,-107.92 326.4,-99.13 322.21,-104.74"/>
</a>
</g>
</g>
<!-- Node12&#45;&gt;Node3 -->
<g id="edge15_Node000012_Node000003" class="edge">
<title>Node12&#45;&gt;Node3</title>
<g id="a_edge15_Node000012_Node000003"><a xlink:title=" ">
<path fill="none" stroke="#63b8ff" d="M252.13,-355.94C239.41,-356.57 226.35,-357.22 213.56,-357.85"/>
<polygon fill="#63b8ff" stroke="#63b8ff" points="252.45,-359.43 262.26,-355.43 252.1,-352.43 252.45,-359.43"/>
</a>
</g>
</g>
<!-- Node12&#45;&gt;Node5 -->
<g id="edge16_Node000012_Node000005" class="edge">
<title>Node12&#45;&gt;Node5</title>
<g id="a_edge16_Node000012_Node000005"><a xlink:title=" ">
<path fill="none" stroke="#63b8ff" d="M280.15,-331.96C270.69,-327.42 261.64,-321.84 254,-315 227.35,-291.13 246.2,-265.02 218,-243 213.61,-239.57 208.83,-236.61 203.8,-234.06"/>
<polygon fill="#63b8ff" stroke="#63b8ff" points="278.76,-335.17 289.32,-336 281.58,-328.76 278.76,-335.17"/>
</a>
</g>
</g>
<!-- Node13 -->
<g id="Node000013" class="node">
<title>Node13</title>
<g id="a_Node000013"><a xlink:href="classcom_1_1teragrep_1_1pth__06_1_1ast_1_1analyze_1_1ClassifiedExpressionsTest.html#acb238abc4beb79cbf20d336e9ff4392f" target="_top" xlink:title=" ">
<polygon fill="white" stroke="#666666" points="214.5,-426 3.5,-426 3.5,-396 214.5,-396 214.5,-426"/>
<text text-anchor="start" x="11.5" y="-414" font-family="Helvetica,sans-Serif" font-size="10.00">com.teragrep.pth_06.ast.analyze.</text>
<text text-anchor="middle" x="109" y="-403" font-family="Helvetica,sans-Serif" font-size="10.00">ClassifiedExpressionsTest.testLatestList</text>
</a>
</g>
</g>
<!-- Node12&#45;&gt;Node13 -->
<g id="edge17_Node000012_Node000013" class="edge">
<title>Node12&#45;&gt;Node13</title>
<g id="a_edge17_Node000012_Node000013"><a xlink:title=" ">
<path fill="none" stroke="#63b8ff" d="M288.11,-368.72C265.98,-374.74 240.94,-381.36 218,-387 205.69,-390.03 192.55,-393.09 179.82,-395.96"/>
<polygon fill="#63b8ff" stroke="#63b8ff" points="289.33,-372.01 298.05,-366 287.48,-365.26 289.33,-372.01"/>
</a>
</g>
</g>
<!-- Node14&#45;&gt;Node5 -->
<g id="edge21_Node000014_Node000005" class="edge">
<title>Node14&#45;&gt;Node5</title>
<g id="a_edge21_Node000014_Node000005"><a xlink:title=" ">
<path fill="none" stroke="#63b8ff" d="M265.83,-188.03C239.61,-193.24 210.97,-198.93 185.48,-204"/>
<polygon fill="#63b8ff" stroke="#63b8ff" points="266.62,-191.44 275.75,-186.06 265.26,-184.57 266.62,-191.44"/>
</a>
</g>
</g>
<!-- Node14&#45;&gt;Node7 -->
<g id="edge19_Node000014_Node000007" class="edge">
<title>Node14&#45;&gt;Node7</title>
<g id="a_edge19_Node000014_Node000007"><a xlink:title=" ">
<path fill="none" stroke="#63b8ff" d="M243.74,-171C228.89,-171 213.78,-171 199.31,-171"/>
<polygon fill="#63b8ff" stroke="#63b8ff" points="243.97,-174.5 253.97,-171 243.97,-167.5 243.97,-174.5"/>
</a>
</g>
</g>
<!-- Node14&#45;&gt;Node8 -->
<g id="edge20_Node000014_Node000008" class="edge">
<title>Node14&#45;&gt;Node8</title>
<g id="a_edge20_Node000014_Node000008"><a xlink:title=" ">
<path fill="none" stroke="#63b8ff" d="M265.83,-153.97C239.61,-148.76 210.97,-143.07 185.48,-138"/>
<polygon fill="#63b8ff" stroke="#63b8ff" points="265.26,-157.43 275.75,-155.94 266.62,-150.56 265.26,-157.43"/>
</a>
</g>
</g>
<!-- Node15 -->
<g id="Node000015" class="node">
<title>Node15</title>
<g id="a_Node000015"><a xlink:href="classcom_1_1teragrep_1_1pth__06_1_1ast_1_1analyze_1_1ClassifiedExpressionsTest.html#a958a584b52ea496db9742a5a8c8ac735" target="_top" xlink:title=" ">
<polygon fill="white" stroke="#666666" points="207.5,-89.5 10.5,-89.5 10.5,-48.5 207.5,-48.5 207.5,-89.5"/>
<text text-anchor="start" x="18.5" y="-77.5" font-family="Helvetica,sans-Serif" font-size="10.00">com.teragrep.pth_06.ast.analyze.</text>
<text text-anchor="start" x="18.5" y="-66.5" font-family="Helvetica,sans-Serif" font-size="10.00">ClassifiedExpressionsTest.testSource</text>
<text text-anchor="middle" x="109" y="-55.5" font-family="Helvetica,sans-Serif" font-size="10.00">TypeList</text>
</a>
</g>
</g>
<!-- Node14&#45;&gt;Node15 -->
<g id="edge22_Node000014_Node000015" class="edge">
<title>Node14&#45;&gt;Node15</title>
<g id="a_edge22_Node000014_Node000015"><a xlink:title=" ">
<path fill="none" stroke="#63b8ff" d="M261.64,-151.55C259.01,-150.14 256.45,-148.62 254,-147 231.76,-132.29 240.02,-114.04 218,-99 212.78,-95.43 207.14,-92.29 201.28,-89.52"/>
<polygon fill="#63b8ff" stroke="#63b8ff" points="260.31,-154.79 270.84,-155.96 263.34,-148.48 260.31,-154.79"/>
</a>
</g>
</g>
</g>
</svg>
