<?xml version="1.0" encoding="UTF-8" standalone="no"?>
<!DOCTYPE svg PUBLIC "-//W3C//DTD SVG 1.1//EN"
 "http://www.w3.org/Graphics/SVG/1.1/DTD/svg11.dtd">
<!-- Generated by graphviz version 2.43.0 (0)
 -->
<!-- Title: com.teragrep.pth_06.config.Config Pages: 1 -->
<svg width="420pt" height="326pt"
 viewBox="0.00 0.00 420.00 326.00" xmlns="http://www.w3.org/2000/svg" xmlns:xlink="http://www.w3.org/1999/xlink">
<g id="graph0" class="graph" transform="scale(1 1) rotate(0) translate(4 322)">
<title>com.teragrep.pth_06.config.Config</title>
<!-- Node1 -->
<g id="Node000001" class="node">
<title>Node1</title>
<g id="a_Node000001"><a xlink:title=" ">
<polygon fill="#999999" stroke="#666666" points="412,-174 259,-174 259,-144 412,-144 412,-174"/>
<text text-anchor="start" x="267" y="-162" font-family="Helvetica,sans-Serif" font-size="10.00">com.teragrep.pth_06.config.</text>
<text text-anchor="middle" x="335.5" y="-151" font-family="Helvetica,sans-Serif" font-size="10.00">Config</text>
</a>
</g>
</g>
<!-- Node2 -->
<g id="Node000002" class="node">
<title>Node2</title>
<g id="a_Node000002"><a xlink:href="classcom_1_1teragrep_1_1pth__06_1_1config_1_1ArchiveConfig.html" target="_top" xlink:title=" ">
<polygon fill="white" stroke="#666666" points="153,-318 0,-318 0,-288 153,-288 153,-318"/>
<text text-anchor="start" x="8" y="-306" font-family="Helvetica,sans-Serif" font-size="10.00">com.teragrep.pth_06.config.</text>
<text text-anchor="middle" x="76.5" y="-295" font-family="Helvetica,sans-Serif" font-size="10.00">ArchiveConfig</text>
</a>
</g>
</g>
<!-- Node2&#45;&gt;Node1 -->
<g id="edge1_Node000001_Node000002" class="edge">
<title>Node2&#45;&gt;Node1</title>
<g id="a_edge1_Node000001_Node000002"><a xlink:title=" ">
<path fill="none" stroke="#9a32cd" stroke-dasharray="5,2" d="M137.31,-284.65C142.64,-282.82 147.94,-280.92 153,-279 193,-263.83 204.88,-262.92 241,-240 271.46,-220.67 302.21,-191.82 319.75,-174.28"/>
<polygon fill="#9a32cd" stroke="#9a32cd" points="136.08,-281.38 127.72,-287.88 138.31,-288.01 136.08,-281.38"/>
</a>
</g>
<text text-anchor="middle" x="206" y="-274" font-family="Helvetica,sans-Serif" font-size="10.00" fill="grey"> archiveConfig</text>
</g>
<!-- Node3 -->
<g id="Node000003" class="node">
<title>Node3</title>
<g id="a_Node000003"><a xlink:href="classcom_1_1teragrep_1_1pth__06_1_1config_1_1KafkaConfig.html" target="_top" xlink:title=" ">
<polygon fill="white" stroke="#666666" points="153,-270 0,-270 0,-240 153,-240 153,-270"/>
<text text-anchor="start" x="8" y="-258" font-family="Helvetica,sans-Serif" font-size="10.00">com.teragrep.pth_06.config.</text>
<text text-anchor="middle" x="76.5" y="-247" font-family="Helvetica,sans-Serif" font-size="10.00">KafkaConfig</text>
</a>
</g>
</g>
<!-- Node3&#45;&gt;Node1 -->
<g id="edge2_Node000001_Node000003" class="edge">
<title>Node3&#45;&gt;Node1</title>
<g id="a_edge2_Node000001_Node000003"><a xlink:title=" ">
<path fill="none" stroke="#9a32cd" stroke-dasharray="5,2" d="M134.69,-236.82C140.87,-234.86 147.06,-232.89 153,-231 192.11,-218.56 202.79,-217.99 241,-203 262.88,-194.41 286.85,-183.09 305.04,-174.09"/>
<polygon fill="#9a32cd" stroke="#9a32cd" points="133.49,-233.53 125.03,-239.89 135.62,-240.2 133.49,-233.53"/>
</a>
</g>
<text text-anchor="middle" x="206" y="-228" font-family="Helvetica,sans-Serif" font-size="10.00" fill="grey"> kafkaConfig</text>
</g>
<!-- Node4 -->
<g id="Node000004" class="node">
<title>Node4</title>
<g id="a_Node000004"><a xlink:href="classcom_1_1teragrep_1_1pth__06_1_1config_1_1BatchConfig.html" target="_top" xlink:title=" ">
<polygon fill="white" stroke="#666666" points="153,-222 0,-222 0,-192 153,-192 153,-222"/>
<text text-anchor="start" x="8" y="-210" font-family="Helvetica,sans-Serif" font-size="10.00">com.teragrep.pth_06.config.</text>
<text text-anchor="middle" x="76.5" y="-199" font-family="Helvetica,sans-Serif" font-size="10.00">BatchConfig</text>
</a>
</g>
</g>
<!-- Node4&#45;&gt;Node1 -->
<g id="edge3_Node000001_Node000004" class="edge">
<title>Node4&#45;&gt;Node1</title>
<g id="a_edge3_Node000001_Node000004"><a xlink:title=" ">
<path fill="none" stroke="#9a32cd" stroke-dasharray="5,2" d="M163.13,-191.01C194.1,-185.22 228.83,-178.74 258.88,-173.12"/>
<polygon fill="#9a32cd" stroke="#9a32cd" points="162.41,-187.58 153.22,-192.86 163.69,-194.46 162.41,-187.58"/>
</a>
</g>
<text text-anchor="middle" x="206" y="-191" font-family="Helvetica,sans-Serif" font-size="10.00" fill="grey"> batchConfig</text>
</g>
<!-- Node5 -->
<g id="Node000005" class="node">
<title>Node5</title>
<g id="a_Node000005"><a xlink:href="classcom_1_1teragrep_1_1pth__06_1_1config_1_1AuditConfig.html" target="_top" xlink:title=" ">
<polygon fill="white" stroke="#666666" points="153,-174 0,-174 0,-144 153,-144 153,-174"/>
<text text-anchor="start" x="8" y="-162" font-family="Helvetica,sans-Serif" font-size="10.00">com.teragrep.pth_06.config.</text>
<text text-anchor="middle" x="76.5" y="-151" font-family="Helvetica,sans-Serif" font-size="10.00">AuditConfig</text>
</a>
</g>
</g>
<!-- Node5&#45;&gt;Node1 -->
<g id="edge4_Node000001_Node000005" class="edge">
<title>Node5&#45;&gt;Node1</title>
<g id="a_edge4_Node000001_Node000005"><a xlink:title=" ">
<path fill="none" stroke="#9a32cd" stroke-dasharray="5,2" d="M163.53,-159C194.4,-159 228.96,-159 258.88,-159"/>
<polygon fill="#9a32cd" stroke="#9a32cd" points="163.22,-155.5 153.22,-159 163.22,-162.5 163.22,-155.5"/>
</a>
</g>
<text text-anchor="middle" x="206" y="-162" font-family="Helvetica,sans-Serif" font-size="10.00" fill="grey"> auditConfig</text>
</g>
<!-- Node6 -->
<g id="Node000006" class="node">
<title>Node6</title>
<g id="a_Node000006"><a xlink:href="classcom_1_1teragrep_1_1pth__06_1_1config_1_1HBaseConfig.html" target="_top" xlink:title=" ">
<polygon fill="white" stroke="#666666" points="153,-126 0,-126 0,-96 153,-96 153,-126"/>
<text text-anchor="start" x="8" y="-114" font-family="Helvetica,sans-Serif" font-size="10.00">com.teragrep.pth_06.config.</text>
<text text-anchor="middle" x="76.5" y="-103" font-family="Helvetica,sans-Serif" font-size="10.00">HBaseConfig</text>
</a>
</g>
</g>
<!-- Node6&#45;&gt;Node1 -->
<g id="edge5_Node000001_Node000006" class="edge">
<title>Node6&#45;&gt;Node1</title>
<g id="a_edge5_Node000001_Node000006"><a xlink:title=" ">
<path fill="none" stroke="#9a32cd" stroke-dasharray="5,2" d="M163.13,-126.99C194.1,-132.78 228.83,-139.26 258.88,-144.88"/>
<polygon fill="#9a32cd" stroke="#9a32cd" points="163.69,-123.54 153.22,-125.14 162.41,-130.42 163.69,-123.54"/>
</a>
</g>
<text text-anchor="middle" x="206" y="-143" font-family="Helvetica,sans-Serif" font-size="10.00" fill="grey"> hBaseConfig</text>
</g>
<!-- Node7 -->
<g id="Node000007" class="node">
<title>Node7</title>
<g id="a_Node000007"><a xlink:href="interfacecom_1_1teragrep_1_1pth__06_1_1config_1_1LoggingConfig.html" target="_top" xlink:title=" ">
<polygon fill="white" stroke="#666666" points="153,-78 0,-78 0,-48 153,-48 153,-78"/>
<text text-anchor="start" x="8" y="-66" font-family="Helvetica,sans-Serif" font-size="10.00">com.teragrep.pth_06.config.</text>
<text text-anchor="middle" x="76.5" y="-55" font-family="Helvetica,sans-Serif" font-size="10.00">LoggingConfig</text>
</a>
</g>
</g>
<!-- Node7&#45;&gt;Node1 -->
<g id="edge6_Node000001_Node000007" class="edge">
<title>Node7&#45;&gt;Node1</title>
<g id="a_edge6_Node000001_Node000007"><a xlink:title=" ">
<path fill="none" stroke="#9a32cd" stroke-dasharray="5,2" d="M142.32,-80.84C172.65,-89.8 209.05,-101.41 241,-114 263.29,-122.79 287.66,-134.59 305.93,-143.9"/>
<polygon fill="#9a32cd" stroke="#9a32cd" points="143.27,-77.48 132.69,-78.03 141.31,-84.2 143.27,-77.48"/>
</a>
</g>
<text text-anchor="middle" x="206" y="-117" font-family="Helvetica,sans-Serif" font-size="10.00" fill="grey"> loggingConfig</text>
</g>
<!-- Node8 -->
<g id="Node000008" class="node">
<title>Node8</title>
<g id="a_Node000008"><a xlink:href="interfacecom_1_1teragrep_1_1pth__06_1_1config_1_1SQLConfig.html" target="_top" xlink:title=" ">
<polygon fill="white" stroke="#666666" points="153,-30 0,-30 0,0 153,0 153,-30"/>
<text text-anchor="start" x="8" y="-18" font-family="Helvetica,sans-Serif" font-size="10.00">com.teragrep.pth_06.config.</text>
<text text-anchor="middle" x="76.5" y="-7" font-family="Helvetica,sans-Serif" font-size="10.00">SQLConfig</text>
</a>
</g>
</g>
<!-- Node8&#45;&gt;Node1 -->
<g id="edge7_Node000001_Node000008" class="edge">
<title>Node8&#45;&gt;Node1</title>
<g id="a_edge7_Node000001_Node000008"><a xlink:title=" ">
<path fill="none" stroke="#9a32cd" stroke-dasharray="5,2" d="M136.33,-33.19C141.99,-35.09 147.62,-37.05 153,-39 192.72,-53.41 205.2,-52.55 241,-75 272.61,-94.82 303.71,-125.64 320.88,-143.92"/>
<polygon fill="#9a32cd" stroke="#9a32cd" points="137.43,-29.87 126.84,-30.05 135.23,-36.51 137.43,-29.87"/>
</a>
</g>
<text text-anchor="middle" x="206" y="-78" font-family="Helvetica,sans-Serif" font-size="10.00" fill="grey"> sqlConfig</text>
</g>
</g>
</svg>
