<?xml version="1.0" encoding="UTF-8" standalone="no"?>
<!DOCTYPE svg PUBLIC "-//W3C//DTD SVG 1.1//EN"
 "http://www.w3.org/Graphics/SVG/1.1/DTD/svg11.dtd">
<!-- Generated by graphviz version 2.43.0 (0)
 -->
<!-- Title: com.teragrep.pth_06.planner.HBaseQueryImplTest.beforeEach Pages: 1 -->
<svg width="576pt" height="60pt"
 viewBox="0.00 0.00 576.00 60.00" xmlns="http://www.w3.org/2000/svg" xmlns:xlink="http://www.w3.org/1999/xlink">
<g id="graph0" class="graph" transform="scale(1 1) rotate(0) translate(4 56)">
<title>com.teragrep.pth_06.planner.HBaseQueryImplTest.beforeEach</title>
<!-- Node1 -->
<g id="Node000001" class="node">
<title>Node1</title>
<g id="a_Node000001"><a xlink:title=" ">
<polygon fill="#999999" stroke="#666666" points="176,-30 0,-30 0,0 176,0 176,-30"/>
<text text-anchor="start" x="8" y="-18" font-family="Helvetica,sans-Serif" font-size="10.00">com.teragrep.pth_06.planner.</text>
<text text-anchor="middle" x="88" y="-7" font-family="Helvetica,sans-Serif" font-size="10.00">HBaseQueryImplTest.beforeEach</text>
</a>
</g>
</g>
<!-- Node2 -->
<g id="Node000002" class="node">
<title>Node2</title>
<g id="a_Node000002"><a xlink:href="classcom_1_1teragrep_1_1pth__06_1_1planner_1_1LogfileTable.html#afa57bc68cbdf060df04b1d3148ad5788" target="_top" xlink:title=" ">
<polygon fill="white" stroke="#666666" points="372,-52 212,-52 212,-22 372,-22 372,-52"/>
<text text-anchor="start" x="220" y="-40" font-family="Helvetica,sans-Serif" font-size="10.00">com.teragrep.pth_06.planner.</text>
<text text-anchor="middle" x="292" y="-29" font-family="Helvetica,sans-Serif" font-size="10.00">LogfileTable.insertRow</text>
</a>
</g>
</g>
<!-- Node1&#45;&gt;Node2 -->
<g id="edge1_Node000001_Node000002" class="edge">
<title>Node1&#45;&gt;Node2</title>
<g id="a_edge1_Node000001_Node000002"><a xlink:title=" ">
<path fill="none" stroke="#63b8ff" d="M176.13,-24.49C184.65,-25.42 193.3,-26.36 201.84,-27.29"/>
<polygon fill="#63b8ff" stroke="#63b8ff" points="201.48,-30.77 211.8,-28.37 202.24,-23.81 201.48,-30.77"/>
</a>
</g>
</g>
<!-- Node3 -->
<g id="Node000003" class="node">
<title>Node3</title>
<g id="a_Node000003"><a xlink:href="classcom_1_1teragrep_1_1pth__06_1_1planner_1_1LogfileTable.html#a525b18f872aafe7488e39c6b2c156b5a" target="_top" xlink:title=" ">
<polygon fill="white" stroke="#666666" points="568,-30 408,-30 408,0 568,0 568,-30"/>
<text text-anchor="start" x="416" y="-18" font-family="Helvetica,sans-Serif" font-size="10.00">com.teragrep.pth_06.planner.</text>
<text text-anchor="middle" x="488" y="-7" font-family="Helvetica,sans-Serif" font-size="10.00">LogfileTable.table</text>
</a>
</g>
</g>
<!-- Node1&#45;&gt;Node3 -->
<g id="edge3_Node000001_Node000003" class="edge">
<title>Node1&#45;&gt;Node3</title>
<g id="a_edge3_Node000001_Node000003"><a xlink:title=" ">
<path fill="none" stroke="#63b8ff" d="M176.02,-13.41C188.1,-13.24 200.36,-13.09 212,-13 283.11,-12.42 300.89,-12.38 372,-13 380.32,-13.07 388.99,-13.17 397.66,-13.29"/>
<polygon fill="#63b8ff" stroke="#63b8ff" points="397.77,-16.8 407.82,-13.44 397.87,-9.8 397.77,-16.8"/>
</a>
</g>
</g>
<!-- Node2&#45;&gt;Node3 -->
<g id="edge2_Node000002_Node000003" class="edge">
<title>Node2&#45;&gt;Node3</title>
<g id="a_edge2_Node000002_Node000003"><a xlink:title=" ">
<path fill="none" stroke="#63b8ff" d="M372.19,-28.02C380.62,-27.06 389.24,-26.09 397.78,-25.12"/>
<polygon fill="#63b8ff" stroke="#63b8ff" points="398.21,-28.59 407.75,-23.99 397.42,-21.64 398.21,-28.59"/>
</a>
</g>
</g>
</g>
</svg>
