<?xml version="1.0" encoding="UTF-8" standalone="no"?>
<!DOCTYPE svg PUBLIC "-//W3C//DTD SVG 1.1//EN"
 "http://www.w3.org/Graphics/SVG/1.1/DTD/svg11.dtd">
<!-- Generated by graphviz version 2.43.0 (0)
 -->
<!-- Title: com.teragrep.pth_06.ast.analyze.ClassifiedXMLValueExpressions.indexList Pages: 1 -->
<svg width="472pt" height="157pt"
 viewBox="0.00 0.00 472.00 156.50" xmlns="http://www.w3.org/2000/svg" xmlns:xlink="http://www.w3.org/1999/xlink">
<g id="graph0" class="graph" transform="scale(1 1) rotate(0) translate(4 152.5)">
<title>com.teragrep.pth_06.ast.analyze.ClassifiedXMLValueExpressions.indexList</title>
<!-- Node1 -->
<g id="Node000001" class="node">
<title>Node1</title>
<g id="a_Node000001"><a xlink:title=" ">
<polygon fill="#999999" stroke="#666666" points="464,-94.5 247,-94.5 247,-64.5 464,-64.5 464,-94.5"/>
<text text-anchor="start" x="255" y="-82.5" font-family="Helvetica,sans-Serif" font-size="10.00">com.teragrep.pth_06.ast.analyze.</text>
<text text-anchor="middle" x="355.5" y="-71.5" font-family="Helvetica,sans-Serif" font-size="10.00">ClassifiedXMLValueExpressions.indexList</text>
</a>
</g>
</g>
<!-- Node2 -->
<g id="Node000002" class="node">
<title>Node2</title>
<g id="a_Node000002"><a xlink:href="classcom_1_1teragrep_1_1pth__06_1_1ast_1_1analyze_1_1StreamIDGroup.html#aba8cdfb8f3c8e67484434e04d98d89d6" target="_top" xlink:title=" ">
<polygon fill="white" stroke="#666666" points="195.5,-148.5 15.5,-148.5 15.5,-118.5 195.5,-118.5 195.5,-148.5"/>
<text text-anchor="start" x="23.5" y="-136.5" font-family="Helvetica,sans-Serif" font-size="10.00">com.teragrep.pth_06.ast.analyze.</text>
<text text-anchor="middle" x="105.5" y="-125.5" font-family="Helvetica,sans-Serif" font-size="10.00">StreamIDGroup.StreamIDGroup</text>
</a>
</g>
</g>
<!-- Node1&#45;&gt;Node2 -->
<g id="edge1_Node000001_Node000002" class="edge">
<title>Node1&#45;&gt;Node2</title>
<g id="a_edge1_Node000001_Node000002"><a xlink:title=" ">
<path fill="none" stroke="#63b8ff" d="M275.61,-96.68C243.49,-103.67 206.69,-111.68 175.64,-118.45"/>
<polygon fill="#63b8ff" stroke="#63b8ff" points="276.39,-100.09 285.42,-94.54 274.9,-93.25 276.39,-100.09"/>
</a>
</g>
</g>
<!-- Node3 -->
<g id="Node000003" class="node">
<title>Node3</title>
<g id="a_Node000003"><a xlink:href="classcom_1_1teragrep_1_1pth__06_1_1ast_1_1analyze_1_1ClassifiedXMLValueExpressionsTest.html#a80e05202d14981a3ca9ab9b0b734974f" target="_top" xlink:title=" ">
<polygon fill="white" stroke="#666666" points="211,-100 0,-100 0,-59 211,-59 211,-100"/>
<text text-anchor="start" x="8" y="-88" font-family="Helvetica,sans-Serif" font-size="10.00">com.teragrep.pth_06.ast.analyze.</text>
<text text-anchor="start" x="8" y="-77" font-family="Helvetica,sans-Serif" font-size="10.00">ClassifiedXMLValueExpressionsTest.test</text>
<text text-anchor="middle" x="105.5" y="-66" font-family="Helvetica,sans-Serif" font-size="10.00">EmptyList</text>
</a>
</g>
</g>
<!-- Node1&#45;&gt;Node3 -->
<g id="edge2_Node000001_Node000003" class="edge">
<title>Node1&#45;&gt;Node3</title>
<g id="a_edge2_Node000001_Node000003"><a xlink:title=" ">
<path fill="none" stroke="#63b8ff" d="M236.56,-79.5C228.14,-79.5 219.69,-79.5 211.35,-79.5"/>
<polygon fill="#63b8ff" stroke="#63b8ff" points="236.81,-83 246.81,-79.5 236.81,-76 236.81,-83"/>
</a>
</g>
</g>
<!-- Node4 -->
<g id="Node000004" class="node">
<title>Node4</title>
<g id="a_Node000004"><a xlink:href="classcom_1_1teragrep_1_1pth__06_1_1ast_1_1analyze_1_1ClassifiedXMLValueExpressionsTest.html#ac2d91d072b1607adaf98b20a9e18295e" target="_top" xlink:title=" ">
<polygon fill="white" stroke="#666666" points="211,-41 0,-41 0,0 211,0 211,-41"/>
<text text-anchor="start" x="8" y="-29" font-family="Helvetica,sans-Serif" font-size="10.00">com.teragrep.pth_06.ast.analyze.</text>
<text text-anchor="start" x="8" y="-18" font-family="Helvetica,sans-Serif" font-size="10.00">ClassifiedXMLValueExpressionsTest.test</text>
<text text-anchor="middle" x="105.5" y="-7" font-family="Helvetica,sans-Serif" font-size="10.00">IndexList</text>
</a>
</g>
</g>
<!-- Node1&#45;&gt;Node4 -->
<g id="edge3_Node000001_Node000004" class="edge">
<title>Node1&#45;&gt;Node4</title>
<g id="a_edge3_Node000001_Node000004"><a xlink:title=" ">
<path fill="none" stroke="#63b8ff" d="M281.27,-62.08C253.58,-55.49 221.8,-47.93 193,-41.08"/>
<polygon fill="#63b8ff" stroke="#63b8ff" points="280.74,-65.55 291.28,-64.46 282.36,-58.74 280.74,-65.55"/>
</a>
</g>
</g>
</g>
</svg>
