<?xml version="1.0" encoding="UTF-8" standalone="no"?>
<!DOCTYPE svg PUBLIC "-//W3C//DTD SVG 1.1//EN"
 "http://www.w3.org/Graphics/SVG/1.1/DTD/svg11.dtd">
<!-- Generated by graphviz version 2.43.0 (0)
 -->
<!-- Title: com.teragrep.pth_06.ast.xml.XMLQueryTest.testXMLASTrootFromString Pages: 1 -->
<svg width="790pt" height="278pt"
 viewBox="0.00 0.00 790.00 278.00" xmlns="http://www.w3.org/2000/svg" xmlns:xlink="http://www.w3.org/1999/xlink">
<g id="graph0" class="graph" transform="scale(1 1) rotate(0) translate(4 274)">
<title>com.teragrep.pth_06.ast.xml.XMLQueryTest.testXMLASTrootFromString</title>
<!-- Node1 -->
<g id="Node000001" class="node">
<title>Node1</title>
<g id="a_Node000001"><a xlink:title=" ">
<polygon fill="#999999" stroke="#666666" points="191,-179.5 0,-179.5 0,-138.5 191,-138.5 191,-179.5"/>
<text text-anchor="start" x="8" y="-167.5" font-family="Helvetica,sans-Serif" font-size="10.00">com.teragrep.pth_06.ast.xml.</text>
<text text-anchor="start" x="8" y="-156.5" font-family="Helvetica,sans-Serif" font-size="10.00">XMLQueryTest.testXMLASTrootFrom</text>
<text text-anchor="middle" x="95.5" y="-145.5" font-family="Helvetica,sans-Serif" font-size="10.00">String</text>
</a>
</g>
</g>
<!-- Node2 -->
<g id="Node000002" class="node">
<title>Node2</title>
<g id="a_Node000002"><a xlink:href="classcom_1_1teragrep_1_1pth__06_1_1ast_1_1xml_1_1XMLQuery.html#a11ebce7d6afeda454c2b93a252196299" target="_top" xlink:title=" ">
<polygon fill="white" stroke="#666666" points="388,-210 227,-210 227,-180 388,-180 388,-210"/>
<text text-anchor="start" x="235" y="-198" font-family="Helvetica,sans-Serif" font-size="10.00">com.teragrep.pth_06.ast.xml.</text>
<text text-anchor="middle" x="307.5" y="-187" font-family="Helvetica,sans-Serif" font-size="10.00">XMLQuery.asAST</text>
</a>
</g>
</g>
<!-- Node1&#45;&gt;Node2 -->
<g id="edge1_Node000001_Node000002" class="edge">
<title>Node1&#45;&gt;Node2</title>
<g id="a_edge1_Node000001_Node000002"><a xlink:title=" ">
<path fill="none" stroke="#63b8ff" d="M191.06,-175.21C199.66,-176.69 208.37,-178.18 216.93,-179.64"/>
<polygon fill="#63b8ff" stroke="#63b8ff" points="216.45,-183.11 226.9,-181.35 217.64,-176.21 216.45,-183.11"/>
</a>
</g>
</g>
<!-- Node6 -->
<g id="Node000006" class="node">
<title>Node6</title>
<g id="a_Node000006"><a xlink:href="classcom_1_1teragrep_1_1pth__06_1_1ast_1_1PrintAST.html#a6d19faf2a03db43b43a62752165007c1" target="_top" xlink:title=" ">
<polygon fill="white" stroke="#666666" points="377,-150 238,-150 238,-120 377,-120 377,-150"/>
<text text-anchor="start" x="246" y="-138" font-family="Helvetica,sans-Serif" font-size="10.00">com.teragrep.pth_06.ast.</text>
<text text-anchor="middle" x="307.5" y="-127" font-family="Helvetica,sans-Serif" font-size="10.00">PrintAST.print</text>
</a>
</g>
</g>
<!-- Node1&#45;&gt;Node6 -->
<g id="edge6_Node000001_Node000006" class="edge">
<title>Node1&#45;&gt;Node6</title>
<g id="a_edge6_Node000001_Node000006"><a xlink:title=" ">
<path fill="none" stroke="#63b8ff" d="M191.06,-148.19C203.39,-146.78 215.92,-145.35 227.95,-143.98"/>
<polygon fill="#63b8ff" stroke="#63b8ff" points="228.38,-147.45 237.92,-142.84 227.59,-140.5 228.38,-147.45"/>
</a>
</g>
</g>
<!-- Node3 -->
<g id="Node000003" class="node">
<title>Node3</title>
<g id="a_Node000003"><a xlink:href="classcom_1_1teragrep_1_1pth__06_1_1ast_1_1xml_1_1XMLQuery.html#a4e339d2fbd6fb0dd06d2eac96820b87f" target="_top" xlink:title=" ">
<polygon fill="white" stroke="#666666" points="585,-222 424,-222 424,-192 585,-192 585,-222"/>
<text text-anchor="start" x="432" y="-210" font-family="Helvetica,sans-Serif" font-size="10.00">com.teragrep.pth_06.ast.xml.</text>
<text text-anchor="middle" x="504.5" y="-199" font-family="Helvetica,sans-Serif" font-size="10.00">XMLQuery.elementToNode</text>
</a>
</g>
</g>
<!-- Node2&#45;&gt;Node3 -->
<g id="edge2_Node000002_Node000003" class="edge">
<title>Node2&#45;&gt;Node3</title>
<g id="a_edge2_Node000002_Node000003"><a xlink:title=" ">
<path fill="none" stroke="#63b8ff" d="M388.1,-199.9C396.57,-200.42 405.24,-200.95 413.82,-201.48"/>
<polygon fill="#63b8ff" stroke="#63b8ff" points="413.65,-204.98 423.84,-202.1 414.08,-197.99 413.65,-204.98"/>
</a>
</g>
</g>
<!-- Node4 -->
<g id="Node000004" class="node">
<title>Node4</title>
<g id="a_Node000004"><a xlink:href="classcom_1_1teragrep_1_1pth__06_1_1ast_1_1xml_1_1XMLQuery.html#aef324a993868f2b1fc8695f14dafefbe" target="_top" xlink:title=" ">
<polygon fill="white" stroke="#666666" points="782,-270 621,-270 621,-240 782,-240 782,-270"/>
<text text-anchor="start" x="629" y="-258" font-family="Helvetica,sans-Serif" font-size="10.00">com.teragrep.pth_06.ast.xml.</text>
<text text-anchor="middle" x="701.5" y="-247" font-family="Helvetica,sans-Serif" font-size="10.00">XMLQuery.visitLeaf</text>
</a>
</g>
</g>
<!-- Node3&#45;&gt;Node4 -->
<g id="edge3_Node000003_Node000004" class="edge">
<title>Node3&#45;&gt;Node4</title>
<g id="a_edge3_Node000003_Node000004"><a xlink:title=" ">
<path fill="none" stroke="#63b8ff" d="M566.66,-222.06C586.63,-226.97 608.97,-232.47 629.59,-237.54"/>
<polygon fill="#63b8ff" stroke="#63b8ff" points="629.01,-241.01 639.55,-240 630.68,-234.21 629.01,-241.01"/>
</a>
</g>
</g>
<!-- Node5 -->
<g id="Node000005" class="node">
<title>Node5</title>
<g id="a_Node000005"><a xlink:href="classcom_1_1teragrep_1_1pth__06_1_1ast_1_1xml_1_1XMLQuery.html#afb0ff16b91a35d2ef6c6c000761d0be6" target="_top" xlink:title=" ">
<polygon fill="white" stroke="#666666" points="782,-222 621,-222 621,-192 782,-192 782,-222"/>
<text text-anchor="start" x="629" y="-210" font-family="Helvetica,sans-Serif" font-size="10.00">com.teragrep.pth_06.ast.xml.</text>
<text text-anchor="middle" x="701.5" y="-199" font-family="Helvetica,sans-Serif" font-size="10.00">XMLQuery.visitLogical</text>
</a>
</g>
</g>
<!-- Node3&#45;&gt;Node5 -->
<g id="edge4_Node000003_Node000005" class="edge">
<title>Node3&#45;&gt;Node5</title>
<g id="a_edge4_Node000003_Node000005"><a xlink:title=" ">
<path fill="none" stroke="#63b8ff" d="M585.1,-200.35C593.57,-200.25 602.24,-200.23 610.82,-200.27"/>
<polygon fill="#63b8ff" stroke="#63b8ff" points="610.81,-203.77 620.84,-200.35 610.87,-196.77 610.81,-203.77"/>
</a>
</g>
</g>
<!-- Node5&#45;&gt;Node3 -->
<g id="edge5_Node000005_Node000003" class="edge">
<title>Node5&#45;&gt;Node3</title>
<g id="a_edge5_Node000005_Node000003"><a xlink:title=" ">
<path fill="none" stroke="#63b8ff" d="M620.84,-213.65C612.36,-213.75 603.7,-213.77 595.12,-213.73"/>
<polygon fill="#63b8ff" stroke="#63b8ff" points="595.12,-210.23 585.1,-213.65 595.07,-217.23 595.12,-210.23"/>
</a>
</g>
</g>
<!-- Node7 -->
<g id="Node000007" class="node">
<title>Node7</title>
<g id="a_Node000007"><a xlink:href="classcom_1_1teragrep_1_1pth__06_1_1ast_1_1PrintAST.html#ab5fd085ad34f3b92b49c29a239d12de7" target="_top" xlink:title=" ">
<polygon fill="white" stroke="#666666" points="574,-126 435,-126 435,-96 574,-96 574,-126"/>
<text text-anchor="start" x="443" y="-114" font-family="Helvetica,sans-Serif" font-size="10.00">com.teragrep.pth_06.ast.</text>
<text text-anchor="middle" x="504.5" y="-103" font-family="Helvetica,sans-Serif" font-size="10.00">PrintAST.printWithIndent</text>
</a>
</g>
</g>
<!-- Node6&#45;&gt;Node7 -->
<g id="edge7_Node000006_Node000007" class="edge">
<title>Node6&#45;&gt;Node7</title>
<g id="a_edge7_Node000006_Node000007"><a xlink:title=" ">
<path fill="none" stroke="#63b8ff" d="M377.25,-126.54C392.54,-124.66 408.87,-122.65 424.53,-120.72"/>
<polygon fill="#63b8ff" stroke="#63b8ff" points="425.22,-124.16 434.71,-119.47 424.36,-117.21 425.22,-124.16"/>
</a>
</g>
</g>
<!-- Node7&#45;&gt;Node7 -->
<g id="edge11_Node000007_Node000007" class="edge">
<title>Node7&#45;&gt;Node7</title>
<g id="a_edge11_Node000007_Node000007"><a xlink:title=" ">
<path fill="none" stroke="#63b8ff" d="M470.05,-126.28C462.39,-135.41 473.88,-144 504.5,-144 522.68,-144 534.12,-140.97 538.81,-136.6"/>
<polygon fill="#63b8ff" stroke="#63b8ff" points="542.31,-136.32 538.95,-126.28 535.31,-136.22 542.31,-136.32"/>
</a>
</g>
</g>
<!-- Node8 -->
<g id="Node000008" class="node">
<title>Node8</title>
<g id="a_Node000008"><a xlink:href="interfacecom_1_1teragrep_1_1pth__06_1_1ast_1_1Expression.html#a17e7d33905be57c6e22e1717da6ddef6" target="_top" xlink:title=" ">
<polygon fill="white" stroke="#666666" points="771,-174 632,-174 632,-144 771,-144 771,-174"/>
<text text-anchor="start" x="640" y="-162" font-family="Helvetica,sans-Serif" font-size="10.00">com.teragrep.pth_06.ast.</text>
<text text-anchor="middle" x="701.5" y="-151" font-family="Helvetica,sans-Serif" font-size="10.00">Expression.asLogical</text>
</a>
</g>
</g>
<!-- Node7&#45;&gt;Node8 -->
<g id="edge8_Node000007_Node000008" class="edge">
<title>Node7&#45;&gt;Node8</title>
<g id="a_edge8_Node000007_Node000008"><a xlink:title=" ">
<path fill="none" stroke="#63b8ff" d="M566.66,-126.06C586.63,-130.97 608.97,-136.47 629.59,-141.54"/>
<polygon fill="#63b8ff" stroke="#63b8ff" points="629.01,-145.01 639.55,-144 630.68,-138.21 629.01,-145.01"/>
</a>
</g>
</g>
<!-- Node9 -->
<g id="Node000009" class="node">
<title>Node9</title>
<g id="a_Node000009"><a xlink:href="interfacecom_1_1teragrep_1_1pth__06_1_1ast_1_1LogicalExpression.html#aeaf8fe296c6899792f345659a9a6c0c4" target="_top" xlink:title=" ">
<polygon fill="white" stroke="#666666" points="774.5,-126 628.5,-126 628.5,-96 774.5,-96 774.5,-126"/>
<text text-anchor="start" x="636.5" y="-114" font-family="Helvetica,sans-Serif" font-size="10.00">com.teragrep.pth_06.ast.</text>
<text text-anchor="middle" x="701.5" y="-103" font-family="Helvetica,sans-Serif" font-size="10.00">LogicalExpression.children</text>
</a>
</g>
</g>
<!-- Node7&#45;&gt;Node9 -->
<g id="edge9_Node000007_Node000009" class="edge">
<title>Node7&#45;&gt;Node9</title>
<g id="a_edge9_Node000007_Node000009"><a xlink:title=" ">
<path fill="none" stroke="#63b8ff" d="M574.25,-111C588.5,-111 603.66,-111 618.34,-111"/>
<polygon fill="#63b8ff" stroke="#63b8ff" points="618.41,-114.5 628.41,-111 618.41,-107.5 618.41,-114.5"/>
</a>
</g>
</g>
<!-- Node10 -->
<g id="Node000010" class="node">
<title>Node10</title>
<g id="a_Node000010"><a xlink:href="interfacecom_1_1teragrep_1_1pth__06_1_1ast_1_1Expression.html#a65ee7f5fb98e4129018f467a53586842" target="_top" xlink:title=" ">
<polygon fill="white" stroke="#666666" points="771,-78 632,-78 632,-48 771,-48 771,-78"/>
<text text-anchor="start" x="640" y="-66" font-family="Helvetica,sans-Serif" font-size="10.00">com.teragrep.pth_06.ast.</text>
<text text-anchor="middle" x="701.5" y="-55" font-family="Helvetica,sans-Serif" font-size="10.00">Expression.isLogical</text>
</a>
</g>
</g>
<!-- Node7&#45;&gt;Node10 -->
<g id="edge10_Node000007_Node000010" class="edge">
<title>Node7&#45;&gt;Node10</title>
<g id="a_edge10_Node000007_Node000010"><a xlink:title=" ">
<path fill="none" stroke="#63b8ff" d="M566.66,-95.94C586.63,-91.03 608.97,-85.53 629.59,-80.46"/>
<polygon fill="#63b8ff" stroke="#63b8ff" points="630.68,-83.79 639.55,-78 629.01,-76.99 630.68,-83.79"/>
</a>
</g>
</g>
<!-- Node11 -->
<g id="Node000011" class="node">
<title>Node11</title>
<g id="a_Node000011"><a xlink:href="interfacecom_1_1teragrep_1_1pth__06_1_1ast_1_1Expression.html#a8b9661253a3610b9eb148ee29ca8b7e1" target="_top" xlink:title=" ">
<polygon fill="white" stroke="#666666" points="771,-30 632,-30 632,0 771,0 771,-30"/>
<text text-anchor="start" x="640" y="-18" font-family="Helvetica,sans-Serif" font-size="10.00">com.teragrep.pth_06.ast.</text>
<text text-anchor="middle" x="701.5" y="-7" font-family="Helvetica,sans-Serif" font-size="10.00">Expression.tag</text>
</a>
</g>
</g>
<!-- Node7&#45;&gt;Node11 -->
<g id="edge12_Node000007_Node000011" class="edge">
<title>Node7&#45;&gt;Node11</title>
<g id="a_edge12_Node000007_Node000011"><a xlink:title=" ">
<path fill="none" stroke="#63b8ff" d="M525.85,-95.98C548.23,-80.04 585.7,-54.99 621,-39 625.29,-37.06 629.78,-35.22 634.34,-33.49"/>
<polygon fill="#63b8ff" stroke="#63b8ff" points="635.56,-36.77 643.79,-30.1 633.2,-30.19 635.56,-36.77"/>
</a>
</g>
</g>
</g>
</svg>
