<?xml version="1.0" encoding="UTF-8" standalone="no"?>
<!DOCTYPE svg PUBLIC "-//W3C//DTD SVG 1.1//EN"
 "http://www.w3.org/Graphics/SVG/1.1/DTD/svg11.dtd">
<!-- Generated by graphviz version 2.43.0 (0)
 -->
<!-- Title: com.teragrep.pth_06.ast.xml.XMLValueExpressionImpl.validateTag Pages: 1 -->
<svg width="430pt" height="326pt"
 viewBox="0.00 0.00 430.00 326.00" xmlns="http://www.w3.org/2000/svg" xmlns:xlink="http://www.w3.org/1999/xlink">
<g id="graph0" class="graph" transform="scale(1 1) rotate(0) translate(4 322)">
<title>com.teragrep.pth_06.ast.xml.XMLValueExpressionImpl.validateTag</title>
<!-- Node1 -->
<g id="Node000001" class="node">
<title>Node1</title>
<g id="a_Node000001"><a xlink:title=" ">
<polygon fill="#999999" stroke="#666666" points="422,-174 224,-174 224,-144 422,-144 422,-174"/>
<text text-anchor="start" x="232" y="-162" font-family="Helvetica,sans-Serif" font-size="10.00">com.teragrep.pth_06.ast.xml.</text>
<text text-anchor="middle" x="323" y="-151" font-family="Helvetica,sans-Serif" font-size="10.00">XMLValueExpressionImpl.validateTag</text>
</a>
</g>
</g>
<!-- Node2 -->
<g id="Node000002" class="node">
<title>Node2</title>
<g id="a_Node000002"><a xlink:href="classcom_1_1teragrep_1_1pth__06_1_1ast_1_1xml_1_1XMLValueExpressionImpl.html#a26617d3c7b154b15694eafd4f6c82c6d" target="_top" xlink:title=" ">
<polygon fill="white" stroke="#666666" points="181,-318 7,-318 7,-288 181,-288 181,-318"/>
<text text-anchor="start" x="15" y="-306" font-family="Helvetica,sans-Serif" font-size="10.00">com.teragrep.pth_06.ast.xml.</text>
<text text-anchor="middle" x="94" y="-295" font-family="Helvetica,sans-Serif" font-size="10.00">XMLValueExpressionImpl.asLeaf</text>
</a>
</g>
</g>
<!-- Node1&#45;&gt;Node2 -->
<g id="edge1_Node000001_Node000002" class="edge">
<title>Node1&#45;&gt;Node2</title>
<g id="a_edge1_Node000001_Node000002"><a xlink:title=" ">
<path fill="none" stroke="#63b8ff" d="M302.8,-181.87C278.73,-209.05 234.91,-253.89 188,-279 181.68,-282.38 174.86,-285.31 167.88,-287.83"/>
<polygon fill="#63b8ff" stroke="#63b8ff" points="305.69,-183.88 309.62,-174.04 300.41,-179.28 305.69,-183.88"/>
</a>
</g>
</g>
<!-- Node3 -->
<g id="Node000003" class="node">
<title>Node3</title>
<g id="a_Node000003"><a xlink:href="classcom_1_1teragrep_1_1pth__06_1_1ast_1_1xml_1_1XMLValueExpressionImpl.html#a2a938b0a3d3a48041cfc4171d4703b4a" target="_top" xlink:title=" ">
<polygon fill="white" stroke="#666666" points="188,-270 0,-270 0,-240 188,-240 188,-270"/>
<text text-anchor="start" x="8" y="-258" font-family="Helvetica,sans-Serif" font-size="10.00">com.teragrep.pth_06.ast.xml.</text>
<text text-anchor="middle" x="94" y="-247" font-family="Helvetica,sans-Serif" font-size="10.00">XMLValueExpressionImpl.asLogical</text>
</a>
</g>
</g>
<!-- Node1&#45;&gt;Node3 -->
<g id="edge2_Node000001_Node000003" class="edge">
<title>Node1&#45;&gt;Node3</title>
<g id="a_edge2_Node000001_Node000003"><a xlink:title=" ">
<path fill="none" stroke="#63b8ff" d="M289.31,-179.45C262.82,-195.31 224.08,-216.89 188,-231 179.61,-234.28 170.63,-237.24 161.67,-239.88"/>
<polygon fill="#63b8ff" stroke="#63b8ff" points="291.41,-182.27 298.15,-174.1 287.78,-176.28 291.41,-182.27"/>
</a>
</g>
</g>
<!-- Node4 -->
<g id="Node000004" class="node">
<title>Node4</title>
<g id="a_Node000004"><a xlink:href="classcom_1_1teragrep_1_1pth__06_1_1ast_1_1xml_1_1XMLValueExpressionImpl.html#a043d53098050878351a42a630a2220b9" target="_top" xlink:title=" ">
<polygon fill="white" stroke="#666666" points="179.5,-222 8.5,-222 8.5,-192 179.5,-192 179.5,-222"/>
<text text-anchor="start" x="16.5" y="-210" font-family="Helvetica,sans-Serif" font-size="10.00">com.teragrep.pth_06.ast.xml.</text>
<text text-anchor="middle" x="94" y="-199" font-family="Helvetica,sans-Serif" font-size="10.00">XMLValueExpressionImpl.isLeaf</text>
</a>
</g>
</g>
<!-- Node1&#45;&gt;Node4 -->
<g id="edge3_Node000001_Node000004" class="edge">
<title>Node1&#45;&gt;Node4</title>
<g id="a_edge3_Node000001_Node000004"><a xlink:title=" ">
<path fill="none" stroke="#63b8ff" d="M240.82,-176.17C216.35,-181.34 189.7,-186.98 165.95,-192"/>
<polygon fill="#63b8ff" stroke="#63b8ff" points="241.74,-179.55 250.8,-174.06 240.29,-172.7 241.74,-179.55"/>
</a>
</g>
</g>
<!-- Node5 -->
<g id="Node000005" class="node">
<title>Node5</title>
<g id="a_Node000005"><a xlink:href="classcom_1_1teragrep_1_1pth__06_1_1ast_1_1xml_1_1XMLValueExpressionImpl.html#aa99f2145cd9f044930a81e190acdcb3c" target="_top" xlink:title=" ">
<polygon fill="white" stroke="#666666" points="186.5,-174 1.5,-174 1.5,-144 186.5,-144 186.5,-174"/>
<text text-anchor="start" x="9.5" y="-162" font-family="Helvetica,sans-Serif" font-size="10.00">com.teragrep.pth_06.ast.xml.</text>
<text text-anchor="middle" x="94" y="-151" font-family="Helvetica,sans-Serif" font-size="10.00">XMLValueExpressionImpl.isLogical</text>
</a>
</g>
</g>
<!-- Node1&#45;&gt;Node5 -->
<g id="edge4_Node000001_Node000005" class="edge">
<title>Node1&#45;&gt;Node5</title>
<g id="a_edge4_Node000001_Node000005"><a xlink:title=" ">
<path fill="none" stroke="#63b8ff" d="M213.59,-159C204.56,-159 195.48,-159 186.59,-159"/>
<polygon fill="#63b8ff" stroke="#63b8ff" points="213.75,-162.5 223.75,-159 213.75,-155.5 213.75,-162.5"/>
</a>
</g>
</g>
<!-- Node6 -->
<g id="Node000006" class="node">
<title>Node6</title>
<g id="a_Node000006"><a xlink:href="classcom_1_1teragrep_1_1pth__06_1_1ast_1_1xml_1_1XMLValueExpressionImpl.html#ae07f210472b06679c5e916d33add2fbe" target="_top" xlink:title=" ">
<polygon fill="white" stroke="#666666" points="188,-126 0,-126 0,-96 188,-96 188,-126"/>
<text text-anchor="start" x="8" y="-114" font-family="Helvetica,sans-Serif" font-size="10.00">com.teragrep.pth_06.ast.xml.</text>
<text text-anchor="middle" x="94" y="-103" font-family="Helvetica,sans-Serif" font-size="10.00">XMLValueExpressionImpl.operation</text>
</a>
</g>
</g>
<!-- Node1&#45;&gt;Node6 -->
<g id="edge5_Node000001_Node000006" class="edge">
<title>Node1&#45;&gt;Node6</title>
<g id="a_edge5_Node000001_Node000006"><a xlink:title=" ">
<path fill="none" stroke="#63b8ff" d="M240.82,-141.83C216.35,-136.66 189.7,-131.02 165.95,-126"/>
<polygon fill="#63b8ff" stroke="#63b8ff" points="240.29,-145.3 250.8,-143.94 241.74,-138.45 240.29,-145.3"/>
</a>
</g>
</g>
<!-- Node7 -->
<g id="Node000007" class="node">
<title>Node7</title>
<g id="a_Node000007"><a xlink:href="classcom_1_1teragrep_1_1pth__06_1_1ast_1_1xml_1_1XMLValueExpressionImpl.html#a256011e3afa935e688e119f60e0dfb2c" target="_top" xlink:title=" ">
<polygon fill="white" stroke="#666666" points="174.5,-78 13.5,-78 13.5,-48 174.5,-48 174.5,-78"/>
<text text-anchor="start" x="21.5" y="-66" font-family="Helvetica,sans-Serif" font-size="10.00">com.teragrep.pth_06.ast.xml.</text>
<text text-anchor="middle" x="94" y="-55" font-family="Helvetica,sans-Serif" font-size="10.00">XMLValueExpressionImpl.tag</text>
</a>
</g>
</g>
<!-- Node1&#45;&gt;Node7 -->
<g id="edge6_Node000001_Node000007" class="edge">
<title>Node1&#45;&gt;Node7</title>
<g id="a_edge6_Node000001_Node000007"><a xlink:title=" ">
<path fill="none" stroke="#63b8ff" d="M289.31,-138.55C262.82,-122.69 224.08,-101.11 188,-87 179.61,-83.72 170.63,-80.76 161.67,-78.12"/>
<polygon fill="#63b8ff" stroke="#63b8ff" points="287.78,-141.72 298.15,-143.9 291.41,-135.73 287.78,-141.72"/>
</a>
</g>
</g>
<!-- Node8 -->
<g id="Node000008" class="node">
<title>Node8</title>
<g id="a_Node000008"><a xlink:href="classcom_1_1teragrep_1_1pth__06_1_1ast_1_1xml_1_1XMLValueExpressionImpl.html#a0dd06437922ebf616949032727bb7a7d" target="_top" xlink:title=" ">
<polygon fill="white" stroke="#666666" points="178.5,-30 9.5,-30 9.5,0 178.5,0 178.5,-30"/>
<text text-anchor="start" x="17.5" y="-18" font-family="Helvetica,sans-Serif" font-size="10.00">com.teragrep.pth_06.ast.xml.</text>
<text text-anchor="middle" x="94" y="-7" font-family="Helvetica,sans-Serif" font-size="10.00">XMLValueExpressionImpl.value</text>
</a>
</g>
</g>
<!-- Node1&#45;&gt;Node8 -->
<g id="edge7_Node000001_Node000008" class="edge">
<title>Node1&#45;&gt;Node8</title>
<g id="a_edge7_Node000001_Node000008"><a xlink:title=" ">
<path fill="none" stroke="#63b8ff" d="M302.8,-136.13C278.73,-108.95 234.91,-64.11 188,-39 181.68,-35.62 174.86,-32.69 167.88,-30.17"/>
<polygon fill="#63b8ff" stroke="#63b8ff" points="300.41,-138.72 309.62,-143.96 305.69,-134.12 300.41,-138.72"/>
</a>
</g>
</g>
</g>
</svg>
