<?xml version="1.0" encoding="UTF-8" standalone="no"?>
<!DOCTYPE svg PUBLIC "-//W3C//DTD SVG 1.1//EN"
 "http://www.w3.org/Graphics/SVG/1.1/DTD/svg11.dtd">
<!-- Generated by graphviz version 2.43.0 (0)
 -->
<!-- Title: com.teragrep.pth_06.planner.HBaseQueryImpl Pages: 1 -->
<svg width="639pt" height="220pt"
 viewBox="0.00 0.00 639.00 220.00" xmlns="http://www.w3.org/2000/svg" xmlns:xlink="http://www.w3.org/1999/xlink">
<g id="graph0" class="graph" transform="scale(1 1) rotate(0) translate(4 216)">
<title>com.teragrep.pth_06.planner.HBaseQueryImpl</title>
<!-- Node1 -->
<g id="Node000001" class="node">
<title>Node1</title>
<g id="a_Node000001"><a xlink:title="Responsible for splitting results from scanPlanCollection into batches.">
<polygon fill="#999999" stroke="#666666" points="631,-116 471,-116 471,-86 631,-86 631,-116"/>
<text text-anchor="start" x="479" y="-104" font-family="Helvetica,sans-Serif" font-size="10.00">com.teragrep.pth_06.planner.</text>
<text text-anchor="middle" x="551" y="-93" font-family="Helvetica,sans-Serif" font-size="10.00">HBaseQueryImpl</text>
</a>
</g>
</g>
<!-- Node2 -->
<g id="Node000002" class="node">
<title>Node2</title>
<g id="a_Node000002"><a xlink:href="interfacecom_1_1teragrep_1_1pth__06_1_1planner_1_1HBaseQuery.html" target="_top" xlink:title=" ">
<polygon fill="white" stroke="#666666" points="361,-116 201,-116 201,-86 361,-86 361,-116"/>
<text text-anchor="start" x="209" y="-104" font-family="Helvetica,sans-Serif" font-size="10.00">com.teragrep.pth_06.planner.</text>
<text text-anchor="middle" x="281" y="-93" font-family="Helvetica,sans-Serif" font-size="10.00">HBaseQuery</text>
</a>
</g>
</g>
<!-- Node2&#45;&gt;Node1 -->
<g id="edge1_Node000001_Node000002" class="edge">
<title>Node2&#45;&gt;Node1</title>
<g id="a_edge1_Node000001_Node000002"><a xlink:title=" ">
<path fill="none" stroke="#63b8ff" d="M371.61,-101C403.74,-101 439.71,-101 470.88,-101"/>
<polygon fill="#63b8ff" stroke="#63b8ff" points="371.32,-97.5 361.32,-101 371.32,-104.5 371.32,-97.5"/>
</a>
</g>
</g>
<!-- Node3 -->
<g id="Node000003" class="node">
<title>Node3</title>
<g id="a_Node000003"><a xlink:href="interfacecom_1_1teragrep_1_1pth__06_1_1Stubable.html" target="_top" xlink:title=" ">
<polygon fill="white" stroke="#666666" points="164,-167.5 0,-167.5 0,-148.5 164,-148.5 164,-167.5"/>
<text text-anchor="middle" x="82" y="-155.5" font-family="Helvetica,sans-Serif" font-size="10.00">com.teragrep.pth_06.Stubable</text>
</a>
</g>
</g>
<!-- Node3&#45;&gt;Node2 -->
<g id="edge2_Node000002_Node000003" class="edge">
<title>Node3&#45;&gt;Node2</title>
<g id="a_edge2_Node000002_Node000003"><a xlink:title=" ">
<path fill="none" stroke="#63b8ff" d="M125.73,-145.64C155.76,-136.95 196.1,-125.28 228,-116.05"/>
<polygon fill="#63b8ff" stroke="#63b8ff" points="124.61,-142.32 115.97,-148.46 126.55,-149.04 124.61,-142.32"/>
</a>
</g>
</g>
<!-- Node7 -->
<g id="Node000007" class="node">
<title>Node7</title>
<g id="a_Node000007"><a xlink:href="interfacecom_1_1teragrep_1_1pth__06_1_1planner_1_1LimitedResults.html" target="_top" xlink:title=" ">
<polygon fill="white" stroke="#666666" points="361,-212 201,-212 201,-182 361,-182 361,-212"/>
<text text-anchor="start" x="209" y="-200" font-family="Helvetica,sans-Serif" font-size="10.00">com.teragrep.pth_06.planner.</text>
<text text-anchor="middle" x="281" y="-189" font-family="Helvetica,sans-Serif" font-size="10.00">LimitedResults</text>
</a>
</g>
</g>
<!-- Node3&#45;&gt;Node7 -->
<g id="edge8_Node000007_Node000003" class="edge">
<title>Node3&#45;&gt;Node7</title>
<g id="a_edge8_Node000007_Node000003"><a xlink:title=" ">
<path fill="none" stroke="#63b8ff" d="M141.21,-169.52C160.86,-173.41 183.09,-177.81 203.91,-181.94"/>
<polygon fill="#63b8ff" stroke="#63b8ff" points="141.68,-166.05 131.19,-167.54 140.32,-172.92 141.68,-166.05"/>
</a>
</g>
</g>
<!-- Node8 -->
<g id="Node000008" class="node">
<title>Node8</title>
<g id="a_Node000008"><a xlink:href="interfacecom_1_1teragrep_1_1pth__06_1_1planner_1_1HourlySlices.html" target="_top" xlink:title=" ">
<polygon fill="white" stroke="#666666" points="361,-164 201,-164 201,-134 361,-134 361,-164"/>
<text text-anchor="start" x="209" y="-152" font-family="Helvetica,sans-Serif" font-size="10.00">com.teragrep.pth_06.planner.</text>
<text text-anchor="middle" x="281" y="-141" font-family="Helvetica,sans-Serif" font-size="10.00">HourlySlices</text>
</a>
</g>
</g>
<!-- Node3&#45;&gt;Node8 -->
<g id="edge10_Node000008_Node000003" class="edge">
<title>Node3&#45;&gt;Node8</title>
<g id="a_edge10_Node000008_Node000003"><a xlink:title=" ">
<path fill="none" stroke="#63b8ff" d="M174.53,-153.82C183.31,-153.42 192.17,-153.01 200.83,-152.62"/>
<polygon fill="#63b8ff" stroke="#63b8ff" points="174.09,-150.33 164.26,-154.29 174.41,-157.33 174.09,-150.33"/>
</a>
</g>
</g>
<!-- Node4 -->
<g id="Node000004" class="node">
<title>Node4</title>
<g id="a_Node000004"><a xlink:title=" ">
<polygon fill="white" stroke="#666666" points="125.5,-117.5 38.5,-117.5 38.5,-98.5 125.5,-98.5 125.5,-117.5"/>
<text text-anchor="middle" x="82" y="-105.5" font-family="Helvetica,sans-Serif" font-size="10.00">AutoCloseable</text>
</a>
</g>
</g>
<!-- Node4&#45;&gt;Node2 -->
<g id="edge3_Node000002_Node000004" class="edge">
<title>Node4&#45;&gt;Node2</title>
<g id="a_edge3_Node000002_Node000004"><a xlink:title=" ">
<path fill="none" stroke="#63b8ff" d="M135.86,-106.12C155.81,-105.41 178.97,-104.59 200.81,-103.81"/>
<polygon fill="#63b8ff" stroke="#63b8ff" points="135.62,-102.63 125.75,-106.48 135.86,-109.62 135.62,-102.63"/>
</a>
</g>
</g>
<!-- Node5 -->
<g id="Node000005" class="node">
<title>Node5</title>
<g id="a_Node000005"><a xlink:href="interfacecom_1_1teragrep_1_1pth__06_1_1planner_1_1QueryMetrics.html" target="_top" xlink:title=" ">
<polygon fill="white" stroke="#666666" points="162,-77 2,-77 2,-47 162,-47 162,-77"/>
<text text-anchor="start" x="10" y="-65" font-family="Helvetica,sans-Serif" font-size="10.00">com.teragrep.pth_06.planner.</text>
<text text-anchor="middle" x="82" y="-54" font-family="Helvetica,sans-Serif" font-size="10.00">QueryMetrics</text>
</a>
</g>
</g>
<!-- Node5&#45;&gt;Node1 -->
<g id="edge5_Node000001_Node000005" class="edge">
<title>Node5&#45;&gt;Node1</title>
<g id="a_edge5_Node000001_Node000005"><a xlink:title=" ">
<path fill="none" stroke="#63b8ff" d="M172.19,-65.17C226.78,-67.52 298.01,-71.31 361,-77 397.07,-80.26 436.86,-85.12 470.59,-89.62"/>
<polygon fill="#63b8ff" stroke="#63b8ff" points="172.34,-61.67 162.2,-64.75 172.04,-68.67 172.34,-61.67"/>
</a>
</g>
</g>
<!-- Node5&#45;&gt;Node2 -->
<g id="edge4_Node000002_Node000005" class="edge">
<title>Node5&#45;&gt;Node2</title>
<g id="a_edge4_Node000002_Node000005"><a xlink:title=" ">
<path fill="none" stroke="#63b8ff" d="M168.72,-78.97C180.51,-81.3 192.56,-83.69 204.16,-85.99"/>
<polygon fill="#63b8ff" stroke="#63b8ff" points="169.37,-75.53 158.88,-77.02 168.01,-82.4 169.37,-75.53"/>
</a>
</g>
</g>
<!-- Node6 -->
<g id="Node000006" class="node">
<title>Node6</title>
<g id="a_Node000006"><a xlink:href="classcom_1_1teragrep_1_1pth__06_1_1planner_1_1LogfileTable.html" target="_top" xlink:title="Provides access to hbase logfile table.">
<polygon fill="white" stroke="#666666" points="361,-30 201,-30 201,0 361,0 361,-30"/>
<text text-anchor="start" x="209" y="-18" font-family="Helvetica,sans-Serif" font-size="10.00">com.teragrep.pth_06.planner.</text>
<text text-anchor="middle" x="281" y="-7" font-family="Helvetica,sans-Serif" font-size="10.00">LogfileTable</text>
</a>
</g>
</g>
<!-- Node6&#45;&gt;Node1 -->
<g id="edge6_Node000001_Node000006" class="edge">
<title>Node6&#45;&gt;Node1</title>
<g id="a_edge6_Node000001_Node000006"><a xlink:title=" ">
<path fill="none" stroke="#9a32cd" stroke-dasharray="5,2" d="M371.54,-15.9C398.39,-18.41 427.47,-23.44 453,-33 484.78,-44.9 515.89,-69.71 533.99,-85.84"/>
<polygon fill="#9a32cd" stroke="#9a32cd" points="371.63,-12.39 361.37,-15.05 371.05,-19.37 371.63,-12.39"/>
</a>
</g>
<text text-anchor="middle" x="416" y="-36" font-family="Helvetica,sans-Serif" font-size="10.00" fill="grey"> table</text>
</g>
<!-- Node7&#45;&gt;Node1 -->
<g id="edge7_Node000001_Node000007" class="edge">
<title>Node7&#45;&gt;Node1</title>
<g id="a_edge7_Node000001_Node000007"><a xlink:title=" ">
<path fill="none" stroke="#9a32cd" stroke-dasharray="5,2" d="M341.38,-178.97C348,-176.95 354.64,-174.93 361,-173 401.89,-160.57 413.01,-160.08 453,-145 475.67,-136.45 500.53,-125.13 519.42,-116.11"/>
<polygon fill="#9a32cd" stroke="#9a32cd" points="340.28,-175.64 331.73,-181.9 342.31,-182.34 340.28,-175.64"/>
</a>
</g>
<text text-anchor="middle" x="416" y="-170" font-family="Helvetica,sans-Serif" font-size="10.00" fill="grey"> limitedResults</text>
</g>
<!-- Node8&#45;&gt;Node1 -->
<g id="edge9_Node000001_Node000008" class="edge">
<title>Node8&#45;&gt;Node1</title>
<g id="a_edge9_Node000001_Node000008"><a xlink:title=" ">
<path fill="none" stroke="#9a32cd" stroke-dasharray="5,2" d="M371.19,-133.03C403.43,-127.25 439.57,-120.78 470.88,-115.17"/>
<polygon fill="#9a32cd" stroke="#9a32cd" points="370.55,-129.58 361.32,-134.79 371.78,-136.48 370.55,-129.58"/>
</a>
</g>
<text text-anchor="middle" x="416" y="-133" font-family="Helvetica,sans-Serif" font-size="10.00" fill="grey"> hourlySlices</text>
</g>
</g>
</svg>
