<?xml version="1.0" encoding="UTF-8" standalone="no"?>
<!DOCTYPE svg PUBLIC "-//W3C//DTD SVG 1.1//EN"
 "http://www.w3.org/Graphics/SVG/1.1/DTD/svg11.dtd">
<!-- Generated by graphviz version 2.43.0 (0)
 -->
<!-- Title: com.teragrep.pth_06.planner.state.QueryStateImpl.next Pages: 1 -->
<svg width="435pt" height="124pt"
 viewBox="0.00 0.00 435.00 124.00" xmlns="http://www.w3.org/2000/svg" xmlns:xlink="http://www.w3.org/1999/xlink">
<g id="graph0" class="graph" transform="scale(1 1) rotate(0) translate(4 120)">
<title>com.teragrep.pth_06.planner.state.QueryStateImpl.next</title>
<!-- Node1 -->
<g id="Node000001" class="node">
<title>Node1</title>
<g id="a_Node000001"><a xlink:title=" ">
<polygon fill="#999999" stroke="#666666" points="188,-73 0,-73 0,-43 188,-43 188,-73"/>
<text text-anchor="start" x="8" y="-61" font-family="Helvetica,sans-Serif" font-size="10.00">com.teragrep.pth_06.planner.state.</text>
<text text-anchor="middle" x="94" y="-50" font-family="Helvetica,sans-Serif" font-size="10.00">QueryStateImpl.next</text>
</a>
</g>
</g>
<!-- Node2 -->
<g id="Node000002" class="node">
<title>Node2</title>
<g id="a_Node000002"><a xlink:href="interfacecom_1_1teragrep_1_1pth__06_1_1planner_1_1HourlySlices.html#a939046474a195cb2a911036e7ae19eac" target="_top" xlink:title=" ">
<polygon fill="white" stroke="#666666" points="405.5,-116 245.5,-116 245.5,-86 405.5,-86 405.5,-116"/>
<text text-anchor="start" x="253.5" y="-104" font-family="Helvetica,sans-Serif" font-size="10.00">com.teragrep.pth_06.planner.</text>
<text text-anchor="middle" x="325.5" y="-93" font-family="Helvetica,sans-Serif" font-size="10.00">HourlySlices.hasNext</text>
</a>
</g>
</g>
<!-- Node1&#45;&gt;Node2 -->
<g id="edge1_Node000001_Node000002" class="edge">
<title>Node1&#45;&gt;Node2</title>
<g id="a_edge1_Node000001_Node000002"><a xlink:title=" ">
<path fill="none" stroke="#63b8ff" d="M175.27,-73.04C194.73,-76.69 215.65,-80.61 235.49,-84.32"/>
<polygon fill="#63b8ff" stroke="#63b8ff" points="234.97,-87.79 245.44,-86.19 236.25,-80.9 234.97,-87.79"/>
</a>
</g>
</g>
<!-- Node3 -->
<g id="Node000003" class="node">
<title>Node3</title>
<g id="a_Node000003"><a xlink:href="interfacecom_1_1teragrep_1_1pth__06_1_1Stubbable.html#a0901c0a7cde13ff306d455e4009f01cb" target="_top" xlink:title=" ">
<polygon fill="white" stroke="#666666" points="427,-67.5 224,-67.5 224,-48.5 427,-48.5 427,-67.5"/>
<text text-anchor="middle" x="325.5" y="-55.5" font-family="Helvetica,sans-Serif" font-size="10.00">com.teragrep.pth_06.Stubbable.isStub</text>
</a>
</g>
</g>
<!-- Node1&#45;&gt;Node3 -->
<g id="edge2_Node000001_Node000003" class="edge">
<title>Node1&#45;&gt;Node3</title>
<g id="a_edge2_Node000001_Node000003"><a xlink:title=" ">
<path fill="none" stroke="#63b8ff" d="M188.02,-58C196.5,-58 205.15,-58 213.77,-58"/>
<polygon fill="#63b8ff" stroke="#63b8ff" points="213.86,-61.5 223.86,-58 213.86,-54.5 213.86,-61.5"/>
</a>
</g>
</g>
<!-- Node4 -->
<g id="Node000004" class="node">
<title>Node4</title>
<g id="a_Node000004"><a xlink:href="interfacecom_1_1teragrep_1_1pth__06_1_1planner_1_1LimitedResults.html#ad79e3d027fabcd449d8631574c2e514a" target="_top" xlink:title=" ">
<polygon fill="white" stroke="#666666" points="405.5,-30 245.5,-30 245.5,0 405.5,0 405.5,-30"/>
<text text-anchor="start" x="253.5" y="-18" font-family="Helvetica,sans-Serif" font-size="10.00">com.teragrep.pth_06.planner.</text>
<text text-anchor="middle" x="325.5" y="-7" font-family="Helvetica,sans-Serif" font-size="10.00">LimitedResults.latest</text>
</a>
</g>
</g>
<!-- Node1&#45;&gt;Node4 -->
<g id="edge3_Node000001_Node000004" class="edge">
<title>Node1&#45;&gt;Node4</title>
<g id="a_edge3_Node000001_Node000004"><a xlink:title=" ">
<path fill="none" stroke="#63b8ff" d="M175.27,-42.96C194.73,-39.31 215.65,-35.39 235.49,-31.68"/>
<polygon fill="#63b8ff" stroke="#63b8ff" points="236.25,-35.1 245.44,-29.81 234.97,-28.21 236.25,-35.1"/>
</a>
</g>
</g>
</g>
</svg>
