<?xml version="1.0" encoding="UTF-8" standalone="no"?>
<!DOCTYPE svg PUBLIC "-//W3C//DTD SVG 1.1//EN"
 "http://www.w3.org/Graphics/SVG/1.1/DTD/svg11.dtd">
<!-- Generated by graphviz version 2.43.0 (0)
 -->
<!-- Title: com.teragrep.pth_06.planner.HBaseQueryImplTest.beforeEach Pages: 1 -->
<svg width="615pt" height="108pt"
 viewBox="0.00 0.00 615.00 108.00" xmlns="http://www.w3.org/2000/svg" xmlns:xlink="http://www.w3.org/1999/xlink">
<g id="graph0" class="graph" transform="scale(1 1) rotate(0) translate(4 104)">
<title>com.teragrep.pth_06.planner.HBaseQueryImplTest.beforeEach</title>
<!-- Node1 -->
<g id="Node000001" class="node">
<title>Node1</title>
<g id="a_Node000001"><a xlink:title=" ">
<polygon fill="#999999" stroke="#666666" points="176,-52 0,-52 0,-22 176,-22 176,-52"/>
<text text-anchor="start" x="8" y="-40" font-family="Helvetica,sans-Serif" font-size="10.00">com.teragrep.pth_06.planner.</text>
<text text-anchor="middle" x="88" y="-29" font-family="Helvetica,sans-Serif" font-size="10.00">HBaseQueryImplTest.beforeEach</text>
</a>
</g>
</g>
<!-- Node2 -->
<g id="Node000002" class="node">
<title>Node2</title>
<g id="a_Node000002"><a xlink:href="classcom_1_1teragrep_1_1pth__06_1_1planner_1_1MockDBData.html#ac40d15664c87654e25524e6a19c25156" target="_top" xlink:title=" ">
<polygon fill="white" stroke="#666666" points="411,-100 212,-100 212,-70 411,-70 411,-100"/>
<text text-anchor="start" x="220" y="-88" font-family="Helvetica,sans-Serif" font-size="10.00">com.teragrep.pth_06.planner.</text>
<text text-anchor="middle" x="311.5" y="-77" font-family="Helvetica,sans-Serif" font-size="10.00">MockDBData.getVirtualDatabaseMap</text>
</a>
</g>
</g>
<!-- Node1&#45;&gt;Node2 -->
<g id="edge1_Node000001_Node000002" class="edge">
<title>Node1&#45;&gt;Node2</title>
<g id="a_edge1_Node000001_Node000002"><a xlink:title=" ">
<path fill="none" stroke="#63b8ff" d="M158.48,-52.06C181.57,-57.06 207.45,-62.67 231.22,-67.82"/>
<polygon fill="#63b8ff" stroke="#63b8ff" points="230.76,-71.3 241.27,-70 232.24,-64.46 230.76,-71.3"/>
</a>
</g>
</g>
<!-- Node3 -->
<g id="Node000003" class="node">
<title>Node3</title>
<g id="a_Node000003"><a xlink:href="classcom_1_1teragrep_1_1pth__06_1_1planner_1_1LogfileTable.html#a4ad5834e4a68cef4b34efad12e727e60" target="_top" xlink:title=" ">
<polygon fill="white" stroke="#666666" points="391.5,-52 231.5,-52 231.5,-22 391.5,-22 391.5,-52"/>
<text text-anchor="start" x="239.5" y="-40" font-family="Helvetica,sans-Serif" font-size="10.00">com.teragrep.pth_06.planner.</text>
<text text-anchor="middle" x="311.5" y="-29" font-family="Helvetica,sans-Serif" font-size="10.00">LogfileTable.insertResults</text>
</a>
</g>
</g>
<!-- Node1&#45;&gt;Node3 -->
<g id="edge2_Node000001_Node000003" class="edge">
<title>Node1&#45;&gt;Node3</title>
<g id="a_edge2_Node000001_Node000003"><a xlink:title=" ">
<path fill="none" stroke="#63b8ff" d="M176.22,-37C190.98,-37 206.32,-37 221.13,-37"/>
<polygon fill="#63b8ff" stroke="#63b8ff" points="221.28,-40.5 231.28,-37 221.28,-33.5 221.28,-40.5"/>
</a>
</g>
</g>
<!-- Node4 -->
<g id="Node000004" class="node">
<title>Node4</title>
<g id="a_Node000004"><a xlink:href="classcom_1_1teragrep_1_1pth__06_1_1planner_1_1LogfileTable.html#a525b18f872aafe7488e39c6b2c156b5a" target="_top" xlink:title=" ">
<polygon fill="white" stroke="#666666" points="607,-30 447,-30 447,0 607,0 607,-30"/>
<text text-anchor="start" x="455" y="-18" font-family="Helvetica,sans-Serif" font-size="10.00">com.teragrep.pth_06.planner.</text>
<text text-anchor="middle" x="527" y="-7" font-family="Helvetica,sans-Serif" font-size="10.00">LogfileTable.table</text>
</a>
</g>
</g>
<!-- Node1&#45;&gt;Node4 -->
<g id="edge4_Node000001_Node000004" class="edge">
<title>Node1&#45;&gt;Node4</title>
<g id="a_edge4_Node000001_Node000004"><a xlink:title=" ">
<path fill="none" stroke="#63b8ff" d="M153.77,-21.94C172.45,-18.25 192.94,-14.84 212,-13 287.43,-5.71 373.53,-6.93 436.47,-9.56"/>
<polygon fill="#63b8ff" stroke="#63b8ff" points="436.61,-13.07 446.76,-10.01 436.92,-6.08 436.61,-13.07"/>
</a>
</g>
</g>
<!-- Node3&#45;&gt;Node4 -->
<g id="edge3_Node000003_Node000004" class="edge">
<title>Node3&#45;&gt;Node4</title>
<g id="a_edge3_Node000003_Node000004"><a xlink:title=" ">
<path fill="none" stroke="#63b8ff" d="M391.7,-28.84C406.35,-27.33 421.75,-25.74 436.68,-24.2"/>
<polygon fill="#63b8ff" stroke="#63b8ff" points="437.34,-27.65 446.93,-23.15 436.63,-20.69 437.34,-27.65"/>
</a>
</g>
</g>
</g>
</svg>
