<?xml version="1.0" encoding="UTF-8" standalone="no"?>
<!DOCTYPE svg PUBLIC "-//W3C//DTD SVG 1.1//EN"
 "http://www.w3.org/Graphics/SVG/1.1/DTD/svg11.dtd">
<!-- Generated by graphviz version 2.43.0 (0)
 -->
<!-- Title: com.teragrep.pth_06.ast.analyze.ScanRangeCollectionTest.testEmpty Pages: 1 -->
<svg width="634pt" height="98pt"
 viewBox="0.00 0.00 634.00 97.50" xmlns="http://www.w3.org/2000/svg" xmlns:xlink="http://www.w3.org/1999/xlink">
<g id="graph0" class="graph" transform="scale(1 1) rotate(0) translate(4 93.5)">
<title>com.teragrep.pth_06.ast.analyze.ScanRangeCollectionTest.testEmpty</title>
<!-- Node1 -->
<g id="Node000001" class="node">
<title>Node1</title>
<g id="a_Node000001"><a xlink:title=" ">
<polygon fill="#999999" stroke="#666666" points="192,-57 0,-57 0,-27 192,-27 192,-57"/>
<text text-anchor="start" x="8" y="-45" font-family="Helvetica,sans-Serif" font-size="10.00">com.teragrep.pth_06.ast.analyze.</text>
<text text-anchor="middle" x="96" y="-34" font-family="Helvetica,sans-Serif" font-size="10.00">ScanRangeCollectionTest.testEmpty</text>
</a>
</g>
</g>
<!-- Node2 -->
<g id="Node000002" class="node">
<title>Node2</title>
<g id="a_Node000002"><a xlink:href="classcom_1_1teragrep_1_1pth__06_1_1ast_1_1analyze_1_1ScanGroupExpression.html#ad1c8159c9353a4b98804664e89a77921" target="_top" xlink:title=" ">
<polygon fill="white" stroke="#666666" points="408,-57 228,-57 228,-27 408,-27 408,-57"/>
<text text-anchor="start" x="236" y="-45" font-family="Helvetica,sans-Serif" font-size="10.00">com.teragrep.pth_06.ast.analyze.</text>
<text text-anchor="middle" x="318" y="-34" font-family="Helvetica,sans-Serif" font-size="10.00">ScanGroupExpression.value</text>
</a>
</g>
</g>
<!-- Node1&#45;&gt;Node2 -->
<g id="edge1_Node000001_Node000002" class="edge">
<title>Node1&#45;&gt;Node2</title>
<g id="a_edge1_Node000001_Node000002"><a xlink:title=" ">
<path fill="none" stroke="#63b8ff" d="M192.22,-42C200.64,-42 209.18,-42 217.63,-42"/>
<polygon fill="#63b8ff" stroke="#63b8ff" points="217.89,-45.5 227.89,-42 217.89,-38.5 217.89,-45.5"/>
</a>
</g>
</g>
<!-- Node2&#45;&gt;Node2 -->
<g id="edge4_Node000002_Node000002" class="edge">
<title>Node2&#45;&gt;Node2</title>
<g id="a_edge4_Node000002_Node000002"><a xlink:title=" ">
<path fill="none" stroke="#63b8ff" d="M280.03,-57.28C271.59,-66.41 284.25,-75 318,-75 338.04,-75 350.64,-71.97 355.81,-67.6"/>
<polygon fill="#63b8ff" stroke="#63b8ff" points="359.31,-67.33 355.97,-57.28 352.31,-67.22 359.31,-67.33"/>
</a>
</g>
</g>
<!-- Node3 -->
<g id="Node000003" class="node">
<title>Node3</title>
<g id="a_Node000003"><a xlink:href="classcom_1_1teragrep_1_1pth__06_1_1ast_1_1MergeIntersectingRanges.html#aaea772833fd1c81b853a6726dabe09fe" target="_top" xlink:title=" ">
<polygon fill="white" stroke="#666666" points="626,-89.5 444,-89.5 444,-48.5 626,-48.5 626,-89.5"/>
<text text-anchor="start" x="452" y="-77.5" font-family="Helvetica,sans-Serif" font-size="10.00">com.teragrep.pth_06.ast.</text>
<text text-anchor="start" x="452" y="-66.5" font-family="Helvetica,sans-Serif" font-size="10.00">MergeIntersectingRanges.merged</text>
<text text-anchor="middle" x="535" y="-55.5" font-family="Helvetica,sans-Serif" font-size="10.00">Ranges</text>
</a>
</g>
</g>
<!-- Node2&#45;&gt;Node3 -->
<g id="edge2_Node000002_Node000003" class="edge">
<title>Node2&#45;&gt;Node3</title>
<g id="a_edge2_Node000002_Node000003"><a xlink:title=" ">
<path fill="none" stroke="#63b8ff" d="M408,-53.18C416.47,-54.24 425.1,-55.32 433.66,-56.4"/>
<polygon fill="#63b8ff" stroke="#63b8ff" points="433.32,-59.88 443.68,-57.66 434.19,-52.94 433.32,-59.88"/>
</a>
</g>
</g>
<!-- Node4 -->
<g id="Node000004" class="node">
<title>Node4</title>
<g id="a_Node000004"><a xlink:href="classcom_1_1teragrep_1_1pth__06_1_1ast_1_1analyze_1_1ScanGroupExpression.html#aa39e1ccf09a9d3b02854913cc52f5352" target="_top" xlink:title=" ">
<polygon fill="white" stroke="#666666" points="625,-30 445,-30 445,0 625,0 625,-30"/>
<text text-anchor="start" x="453" y="-18" font-family="Helvetica,sans-Serif" font-size="10.00">com.teragrep.pth_06.ast.analyze.</text>
<text text-anchor="middle" x="535" y="-7" font-family="Helvetica,sans-Serif" font-size="10.00">ScanGroupExpression.tag</text>
</a>
</g>
</g>
<!-- Node2&#45;&gt;Node4 -->
<g id="edge3_Node000002_Node000004" class="edge">
<title>Node2&#45;&gt;Node4</title>
<g id="a_edge3_Node000002_Node000004"><a xlink:title=" ">
<path fill="none" stroke="#63b8ff" d="M408,-30.82C416.81,-29.72 425.8,-28.59 434.71,-27.47"/>
<polygon fill="#63b8ff" stroke="#63b8ff" points="435.23,-30.93 444.72,-26.21 434.36,-23.99 435.23,-30.93"/>
</a>
</g>
</g>
</g>
</svg>
