<?xml version="1.0" encoding="UTF-8" standalone="no"?>
<!DOCTYPE svg PUBLIC "-//W3C//DTD SVG 1.1//EN"
 "http://www.w3.org/Graphics/SVG/1.1/DTD/svg11.dtd">
<!-- Generated by graphviz version 2.43.0 (0)
 -->
<!-- Title: com.teragrep.pth_06.ast.analyze.ClassifiedExpressions.latestList Pages: 1 -->
<svg width="436pt" height="134pt"
 viewBox="0.00 0.00 436.00 134.00" xmlns="http://www.w3.org/2000/svg" xmlns:xlink="http://www.w3.org/1999/xlink">
<g id="graph0" class="graph" transform="scale(1 1) rotate(0) translate(4 130)">
<title>com.teragrep.pth_06.ast.analyze.ClassifiedExpressions.latestList</title>
<!-- Node1 -->
<g id="Node000001" class="node">
<title>Node1</title>
<g id="a_Node000001"><a xlink:title=" ">
<polygon fill="#999999" stroke="#666666" points="428,-78 248,-78 248,-48 428,-48 428,-78"/>
<text text-anchor="start" x="256" y="-66" font-family="Helvetica,sans-Serif" font-size="10.00">com.teragrep.pth_06.ast.analyze.</text>
<text text-anchor="middle" x="338" y="-55" font-family="Helvetica,sans-Serif" font-size="10.00">ClassifiedExpressions.latestList</text>
</a>
</g>
</g>
<!-- Node2 -->
<g id="Node000002" class="node">
<title>Node2</title>
<g id="a_Node000002"><a xlink:href="classcom_1_1teragrep_1_1pth__06_1_1ast_1_1analyze_1_1ScanTimeQualifiers.html#a8ea53a38fa2220809bd8b03d4eb2c28e" target="_top" xlink:title=" ">
<polygon fill="white" stroke="#666666" points="210.5,-126 1.5,-126 1.5,-96 210.5,-96 210.5,-126"/>
<text text-anchor="start" x="9.5" y="-114" font-family="Helvetica,sans-Serif" font-size="10.00">com.teragrep.pth_06.ast.analyze.</text>
<text text-anchor="middle" x="106" y="-103" font-family="Helvetica,sans-Serif" font-size="10.00">ScanTimeQualifiers.ScanTimeQualifiers</text>
</a>
</g>
</g>
<!-- Node1&#45;&gt;Node2 -->
<g id="edge1_Node000001_Node000002" class="edge">
<title>Node1&#45;&gt;Node2</title>
<g id="a_edge1_Node000001_Node000002"><a xlink:title=" ">
<path fill="none" stroke="#63b8ff" d="M254.75,-80.17C229.96,-85.34 202.95,-90.98 178.89,-96"/>
<polygon fill="#63b8ff" stroke="#63b8ff" points="255.78,-83.53 264.86,-78.06 254.35,-76.67 255.78,-83.53"/>
</a>
</g>
</g>
<!-- Node3 -->
<g id="Node000003" class="node">
<title>Node3</title>
<g id="a_Node000003"><a xlink:href="classcom_1_1teragrep_1_1pth__06_1_1ast_1_1analyze_1_1ClassifiedExpressionsTest.html#a4109474e8197f3120f3b9943fac52e2a" target="_top" xlink:title=" ">
<polygon fill="white" stroke="#666666" points="212,-78 0,-78 0,-48 212,-48 212,-78"/>
<text text-anchor="start" x="8" y="-66" font-family="Helvetica,sans-Serif" font-size="10.00">com.teragrep.pth_06.ast.analyze.</text>
<text text-anchor="middle" x="106" y="-55" font-family="Helvetica,sans-Serif" font-size="10.00">ClassifiedExpressionsTest.testEmptyList</text>
</a>
</g>
</g>
<!-- Node1&#45;&gt;Node3 -->
<g id="edge2_Node000001_Node000003" class="edge">
<title>Node1&#45;&gt;Node3</title>
<g id="a_edge2_Node000001_Node000003"><a xlink:title=" ">
<path fill="none" stroke="#63b8ff" d="M237.59,-63C229.21,-63 220.72,-63 212.3,-63"/>
<polygon fill="#63b8ff" stroke="#63b8ff" points="237.75,-66.5 247.75,-63 237.75,-59.5 237.75,-66.5"/>
</a>
</g>
</g>
<!-- Node4 -->
<g id="Node000004" class="node">
<title>Node4</title>
<g id="a_Node000004"><a xlink:href="classcom_1_1teragrep_1_1pth__06_1_1ast_1_1analyze_1_1ClassifiedExpressionsTest.html#acb238abc4beb79cbf20d336e9ff4392f" target="_top" xlink:title=" ">
<polygon fill="white" stroke="#666666" points="211.5,-30 0.5,-30 0.5,0 211.5,0 211.5,-30"/>
<text text-anchor="start" x="8.5" y="-18" font-family="Helvetica,sans-Serif" font-size="10.00">com.teragrep.pth_06.ast.analyze.</text>
<text text-anchor="middle" x="106" y="-7" font-family="Helvetica,sans-Serif" font-size="10.00">ClassifiedExpressionsTest.testLatestList</text>
</a>
</g>
</g>
<!-- Node1&#45;&gt;Node4 -->
<g id="edge3_Node000001_Node000004" class="edge">
<title>Node1&#45;&gt;Node4</title>
<g id="a_edge3_Node000001_Node000004"><a xlink:title=" ">
<path fill="none" stroke="#63b8ff" d="M254.75,-45.83C229.96,-40.66 202.95,-35.02 178.89,-30"/>
<polygon fill="#63b8ff" stroke="#63b8ff" points="254.35,-49.33 264.86,-47.94 255.78,-42.47 254.35,-49.33"/>
</a>
</g>
</g>
</g>
</svg>
