<?xml version="1.0" encoding="UTF-8" standalone="no"?>
<!DOCTYPE svg PUBLIC "-//W3C//DTD SVG 1.1//EN"
 "http://www.w3.org/Graphics/SVG/1.1/DTD/svg11.dtd">
<!-- Generated by graphviz version 2.43.0 (0)
 -->
<!-- Title: com.teragrep.pth_06.ast.PrintAST.printWithIndent Pages: 1 -->
<svg width="566pt" height="86pt"
 viewBox="0.00 0.00 566.00 86.00" xmlns="http://www.w3.org/2000/svg" xmlns:xlink="http://www.w3.org/1999/xlink">
<g id="graph0" class="graph" transform="scale(1 1) rotate(0) translate(4 82)">
<title>com.teragrep.pth_06.ast.PrintAST.printWithIndent</title>
<!-- Node1 -->
<g id="Node000001" class="node">
<title>Node1</title>
<g id="a_Node000001"><a xlink:title=" ">
<polygon fill="#999999" stroke="#666666" points="558,-54 419,-54 419,-24 558,-24 558,-54"/>
<text text-anchor="start" x="427" y="-42" font-family="Helvetica,sans-Serif" font-size="10.00">com.teragrep.pth_06.ast.</text>
<text text-anchor="middle" x="488.5" y="-31" font-family="Helvetica,sans-Serif" font-size="10.00">PrintAST.printWithIndent</text>
</a>
</g>
</g>
<!-- Node1&#45;&gt;Node1 -->
<g id="edge4_Node000001_Node000001" class="edge">
<title>Node1&#45;&gt;Node1</title>
<g id="a_edge4_Node000001_Node000001"><a xlink:title=" ">
<path fill="none" stroke="#63b8ff" d="M518.96,-64.6C514.79,-68.97 504.64,-72 488.5,-72 461.31,-72 451.12,-63.41 457.91,-54.28"/>
<polygon fill="#63b8ff" stroke="#63b8ff" points="522.46,-64.32 519.09,-54.28 515.46,-64.23 522.46,-64.32"/>
</a>
</g>
</g>
<!-- Node2 -->
<g id="Node000002" class="node">
<title>Node2</title>
<g id="a_Node000002"><a xlink:href="classcom_1_1teragrep_1_1pth__06_1_1ast_1_1PrintAST.html#acc3f4d80cb05a02753130a95b65cd32d" target="_top" xlink:title=" ">
<polygon fill="white" stroke="#666666" points="383,-54 244,-54 244,-24 383,-24 383,-54"/>
<text text-anchor="start" x="252" y="-42" font-family="Helvetica,sans-Serif" font-size="10.00">com.teragrep.pth_06.ast.</text>
<text text-anchor="middle" x="313.5" y="-31" font-family="Helvetica,sans-Serif" font-size="10.00">PrintAST.asString</text>
</a>
</g>
</g>
<!-- Node1&#45;&gt;Node2 -->
<g id="edge1_Node000001_Node000002" class="edge">
<title>Node1&#45;&gt;Node2</title>
<g id="a_edge1_Node000001_Node000002"><a xlink:title=" ">
<path fill="none" stroke="#63b8ff" d="M408.41,-39C399.97,-39 391.44,-39 383.13,-39"/>
<polygon fill="#63b8ff" stroke="#63b8ff" points="408.63,-42.5 418.63,-39 408.63,-35.5 408.63,-42.5"/>
</a>
</g>
</g>
<!-- Node3 -->
<g id="Node000003" class="node">
<title>Node3</title>
<g id="a_Node000003"><a xlink:href="classcom_1_1teragrep_1_1pth__06_1_1ast_1_1xml_1_1XMLQueryTest.html#aefa6311528eab479fc1e3183332974af" target="_top" xlink:title=" ">
<polygon fill="white" stroke="#666666" points="208,-78 0,-78 0,-48 208,-48 208,-78"/>
<text text-anchor="start" x="8" y="-66" font-family="Helvetica,sans-Serif" font-size="10.00">com.teragrep.pth_06.ast.xml.</text>
<text text-anchor="middle" x="104" y="-55" font-family="Helvetica,sans-Serif" font-size="10.00">XMLQueryTest.testSingleElementQuery</text>
</a>
</g>
</g>
<!-- Node2&#45;&gt;Node3 -->
<g id="edge2_Node000002_Node000003" class="edge">
<title>Node2&#45;&gt;Node3</title>
<g id="a_edge2_Node000002_Node000003"><a xlink:title=" ">
<path fill="none" stroke="#63b8ff" d="M233.9,-48.09C225.54,-49.06 216.94,-50.05 208.34,-51.05"/>
<polygon fill="#63b8ff" stroke="#63b8ff" points="234.45,-51.55 243.98,-46.93 233.65,-44.6 234.45,-51.55"/>
</a>
</g>
</g>
<!-- Node4 -->
<g id="Node000004" class="node">
<title>Node4</title>
<g id="a_Node000004"><a xlink:href="classcom_1_1teragrep_1_1pth__06_1_1ast_1_1xml_1_1XMLQueryTest.html#a0ca82e0be177f57614e8b3c8b70867a5" target="_top" xlink:title=" ">
<polygon fill="white" stroke="#666666" points="195.5,-30 12.5,-30 12.5,0 195.5,0 195.5,-30"/>
<text text-anchor="start" x="20.5" y="-18" font-family="Helvetica,sans-Serif" font-size="10.00">com.teragrep.pth_06.ast.xml.</text>
<text text-anchor="middle" x="104" y="-7" font-family="Helvetica,sans-Serif" font-size="10.00">XMLQueryTest.testXMLFromQuery</text>
</a>
</g>
</g>
<!-- Node2&#45;&gt;Node4 -->
<g id="edge3_Node000002_Node000004" class="edge">
<title>Node2&#45;&gt;Node4</title>
<g id="a_edge3_Node000002_Node000004"><a xlink:title=" ">
<path fill="none" stroke="#63b8ff" d="M233.68,-29.88C221.25,-28.45 208.32,-26.95 195.65,-25.49"/>
<polygon fill="#63b8ff" stroke="#63b8ff" points="233.65,-33.4 243.98,-31.07 234.45,-26.45 233.65,-33.4"/>
</a>
</g>
</g>
</g>
</svg>
