<?xml version="1.0" encoding="UTF-8" standalone="no"?>
<!DOCTYPE svg PUBLIC "-//W3C//DTD SVG 1.1//EN"
 "http://www.w3.org/Graphics/SVG/1.1/DTD/svg11.dtd">
<!-- Generated by graphviz version 2.43.0 (0)
 -->
<!-- Title: com.teragrep.pth_06.ArchiveMicroStreamReader.currentDatabaseMetrics Pages: 1 -->
<svg width="623pt" height="134pt"
 viewBox="0.00 0.00 623.00 134.00" xmlns="http://www.w3.org/2000/svg" xmlns:xlink="http://www.w3.org/1999/xlink">
<g id="graph0" class="graph" transform="scale(1 1) rotate(0) translate(4 130)">
<title>com.teragrep.pth_06.ArchiveMicroStreamReader.currentDatabaseMetrics</title>
<!-- Node1 -->
<g id="Node000001" class="node">
<title>Node1</title>
<g id="a_Node000001"><a xlink:title=" ">
<polygon fill="#999999" stroke="#666666" points="197,-83.5 0,-83.5 0,-42.5 197,-42.5 197,-83.5"/>
<text text-anchor="start" x="8" y="-71.5" font-family="Helvetica,sans-Serif" font-size="10.00">com.teragrep.pth_06.Archive</text>
<text text-anchor="start" x="8" y="-60.5" font-family="Helvetica,sans-Serif" font-size="10.00">MicroStreamReader.currentDatabase</text>
<text text-anchor="middle" x="98.5" y="-49.5" font-family="Helvetica,sans-Serif" font-size="10.00">Metrics</text>
</a>
</g>
</g>
<!-- Node2 -->
<g id="Node000002" class="node">
<title>Node2</title>
<g id="a_Node000002"><a xlink:href="classcom_1_1teragrep_1_1pth__06_1_1ConfiguredLogger.html#a432bade7d6310bed1e1b9a405fb53d56" target="_top" xlink:title=" ">
<polygon fill="white" stroke="#666666" points="406,-126 233,-126 233,-96 406,-96 406,-126"/>
<text text-anchor="start" x="241" y="-114" font-family="Helvetica,sans-Serif" font-size="10.00">com.teragrep.pth_06.Configured</text>
<text text-anchor="middle" x="319.5" y="-103" font-family="Helvetica,sans-Serif" font-size="10.00">Logger.debug</text>
</a>
</g>
</g>
<!-- Node1&#45;&gt;Node2 -->
<g id="edge1_Node000001_Node000002" class="edge">
<title>Node1&#45;&gt;Node2</title>
<g id="a_edge1_Node000001_Node000002"><a xlink:title=" ">
<path fill="none" stroke="#63b8ff" d="M193.33,-83.57C208.95,-86.99 225,-90.51 240.18,-93.83"/>
<polygon fill="#63b8ff" stroke="#63b8ff" points="239.5,-97.27 250.02,-95.99 241,-90.43 239.5,-97.27"/>
</a>
</g>
</g>
<!-- Node4 -->
<g id="Node000004" class="node">
<title>Node4</title>
<g id="a_Node000004"><a xlink:href="classcom_1_1teragrep_1_1pth__06_1_1ArchiveMicroStreamReader.html#a755d5e92276f9154edcea0fec4f59dec" target="_top" xlink:title=" ">
<polygon fill="white" stroke="#666666" points="404.5,-78 234.5,-78 234.5,-48 404.5,-48 404.5,-78"/>
<text text-anchor="start" x="242.5" y="-66" font-family="Helvetica,sans-Serif" font-size="10.00">com.teragrep.pth_06.Archive</text>
<text text-anchor="middle" x="319.5" y="-55" font-family="Helvetica,sans-Serif" font-size="10.00">MicroStreamReader.useArchive</text>
</a>
</g>
</g>
<!-- Node1&#45;&gt;Node4 -->
<g id="edge3_Node000001_Node000004" class="edge">
<title>Node1&#45;&gt;Node4</title>
<g id="a_edge3_Node000001_Node000004"><a xlink:title=" ">
<path fill="none" stroke="#63b8ff" d="M197.15,-63C206.18,-63 215.33,-63 224.33,-63"/>
<polygon fill="#63b8ff" stroke="#63b8ff" points="224.42,-66.5 234.42,-63 224.42,-59.5 224.42,-66.5"/>
</a>
</g>
</g>
<!-- Node5 -->
<g id="Node000005" class="node">
<title>Node5</title>
<g id="a_Node000005"><a xlink:href="classcom_1_1teragrep_1_1pth__06_1_1ArchiveMicroStreamReader.html#a00eed7fba1d800a7745cccf4d729836d" target="_top" xlink:title=" ">
<polygon fill="white" stroke="#666666" points="401.5,-30 237.5,-30 237.5,0 401.5,0 401.5,-30"/>
<text text-anchor="start" x="245.5" y="-18" font-family="Helvetica,sans-Serif" font-size="10.00">com.teragrep.pth_06.Archive</text>
<text text-anchor="middle" x="319.5" y="-7" font-family="Helvetica,sans-Serif" font-size="10.00">MicroStreamReader.useHBase</text>
</a>
</g>
</g>
<!-- Node1&#45;&gt;Node5 -->
<g id="edge4_Node000001_Node000005" class="edge">
<title>Node1&#45;&gt;Node5</title>
<g id="a_edge4_Node000001_Node000005"><a xlink:title=" ">
<path fill="none" stroke="#63b8ff" d="M193.33,-42.43C208.95,-39.01 225,-35.49 240.18,-32.17"/>
<polygon fill="#63b8ff" stroke="#63b8ff" points="241,-35.57 250.02,-30.01 239.5,-28.73 241,-35.57"/>
</a>
</g>
</g>
<!-- Node3 -->
<g id="Node000003" class="node">
<title>Node3</title>
<g id="a_Node000003"><a xlink:href="classcom_1_1teragrep_1_1pth__06_1_1ConfiguredLogger.html#adbd659cefc990abe9b2da58d3dae9970" target="_top" xlink:title=" ">
<polygon fill="white" stroke="#666666" points="615,-126 442,-126 442,-96 615,-96 615,-126"/>
<text text-anchor="start" x="450" y="-114" font-family="Helvetica,sans-Serif" font-size="10.00">com.teragrep.pth_06.Configured</text>
<text text-anchor="middle" x="528.5" y="-103" font-family="Helvetica,sans-Serif" font-size="10.00">Logger.info</text>
</a>
</g>
</g>
<!-- Node2&#45;&gt;Node3 -->
<g id="edge2_Node000002_Node000003" class="edge">
<title>Node2&#45;&gt;Node3</title>
<g id="a_edge2_Node000002_Node000003"><a xlink:title=" ">
<path fill="none" stroke="#63b8ff" d="M406.19,-111C414.66,-111 423.3,-111 431.87,-111"/>
<polygon fill="#63b8ff" stroke="#63b8ff" points="431.88,-114.5 441.88,-111 431.88,-107.5 431.88,-114.5"/>
</a>
</g>
</g>
</g>
</svg>
