<?xml version="1.0" encoding="UTF-8" standalone="no"?>
<!DOCTYPE svg PUBLIC "-//W3C//DTD SVG 1.1//EN"
 "http://www.w3.org/Graphics/SVG/1.1/DTD/svg11.dtd">
<!-- Generated by graphviz version 2.43.0 (0)
 -->
<!-- Title: com.teragrep.pth_06.planner.HBaseQueryImpl.latest Pages: 1 -->
<svg width="995pt" height="238pt"
 viewBox="0.00 0.00 995.00 238.00" xmlns="http://www.w3.org/2000/svg" xmlns:xlink="http://www.w3.org/1999/xlink">
<g id="graph0" class="graph" transform="scale(1 1) rotate(0) translate(4 234)">
<title>com.teragrep.pth_06.planner.HBaseQueryImpl.latest</title>
<!-- Node1 -->
<g id="Node000001" class="node">
<title>Node1</title>
<g id="a_Node000001"><a xlink:title="Queries results form hbase until the batch limit is reached and updates latest.">
<polygon fill="#999999" stroke="#666666" points="160,-126 0,-126 0,-96 160,-96 160,-126"/>
<text text-anchor="start" x="8" y="-114" font-family="Helvetica,sans-Serif" font-size="10.00">com.teragrep.pth_06.planner.</text>
<text text-anchor="middle" x="80" y="-103" font-family="Helvetica,sans-Serif" font-size="10.00">HBaseQueryImpl.latest</text>
</a>
</g>
</g>
<!-- Node2 -->
<g id="Node000002" class="node">
<title>Node2</title>
<g id="a_Node000002"><a xlink:href="classcom_1_1teragrep_1_1pth__06_1_1planner_1_1HBaseQueryImpl.html#a3ddb5964124047be0b52937a19b6b7e9" target="_top" xlink:title="Finds the earliest offset available in the scan plan collection, formed from the query.">
<polygon fill="white" stroke="#666666" points="356,-212 196,-212 196,-182 356,-182 356,-212"/>
<text text-anchor="start" x="204" y="-200" font-family="Helvetica,sans-Serif" font-size="10.00">com.teragrep.pth_06.planner.</text>
<text text-anchor="middle" x="276" y="-189" font-family="Helvetica,sans-Serif" font-size="10.00">HBaseQueryImpl.earliest</text>
</a>
</g>
</g>
<!-- Node1&#45;&gt;Node2 -->
<g id="edge1_Node000001_Node000002" class="edge">
<title>Node1&#45;&gt;Node2</title>
<g id="a_edge1_Node000001_Node000002"><a xlink:title=" ">
<path fill="none" stroke="#63b8ff" d="M109.42,-126.17C132.45,-138.19 165.91,-155.06 196,-168 204.19,-171.52 212.97,-175.01 221.58,-178.29"/>
<polygon fill="#63b8ff" stroke="#63b8ff" points="220.61,-181.66 231.2,-181.88 223.06,-175.1 220.61,-181.66"/>
</a>
</g>
</g>
<!-- Node3 -->
<g id="Node000003" class="node">
<title>Node3</title>
<g id="a_Node000003"><a xlink:href="classcom_1_1teragrep_1_1pth__06_1_1planner_1_1HBaseQueryImpl.html#a5a99d0c15e25eab70b9ae20662d988c9" target="_top" xlink:title=" ">
<polygon fill="white" stroke="#666666" points="748,-124 588,-124 588,-94 748,-94 748,-124"/>
<text text-anchor="start" x="596" y="-112" font-family="Helvetica,sans-Serif" font-size="10.00">com.teragrep.pth_06.planner.</text>
<text text-anchor="middle" x="668" y="-101" font-family="Helvetica,sans-Serif" font-size="10.00">HBaseQueryImpl.isOpen</text>
</a>
</g>
</g>
<!-- Node1&#45;&gt;Node3 -->
<g id="edge3_Node000001_Node000003" class="edge">
<title>Node1&#45;&gt;Node3</title>
<g id="a_edge3_Node000001_Node000003"><a xlink:title=" ">
<path fill="none" stroke="#63b8ff" d="M141.51,-126.06C158.98,-129.75 178.15,-133.16 196,-135 328.44,-148.67 482.62,-134.49 577.52,-122.32"/>
<polygon fill="#63b8ff" stroke="#63b8ff" points="578.18,-125.77 587.65,-121 577.28,-118.82 578.18,-125.77"/>
</a>
</g>
</g>
<!-- Node5 -->
<g id="Node000005" class="node">
<title>Node5</title>
<g id="a_Node000005"><a xlink:href="interfacecom_1_1teragrep_1_1pth__06_1_1planner_1_1LimitedResults.html#ad79e3d027fabcd449d8631574c2e514a" target="_top" xlink:title=" ">
<polygon fill="white" stroke="#666666" points="356,-126 196,-126 196,-96 356,-96 356,-126"/>
<text text-anchor="start" x="204" y="-114" font-family="Helvetica,sans-Serif" font-size="10.00">com.teragrep.pth_06.planner.</text>
<text text-anchor="middle" x="276" y="-103" font-family="Helvetica,sans-Serif" font-size="10.00">LimitedResults.latest</text>
</a>
</g>
</g>
<!-- Node1&#45;&gt;Node5 -->
<g id="edge5_Node000001_Node000005" class="edge">
<title>Node1&#45;&gt;Node5</title>
<g id="a_edge5_Node000001_Node000005"><a xlink:title=" ">
<path fill="none" stroke="#63b8ff" d="M160.19,-111C168.53,-111 177.05,-111 185.5,-111"/>
<polygon fill="#63b8ff" stroke="#63b8ff" points="185.75,-114.5 195.75,-111 185.75,-107.5 185.75,-114.5"/>
</a>
</g>
</g>
<!-- Node6 -->
<g id="Node000006" class="node">
<title>Node6</title>
<g id="a_Node000006"><a xlink:href="classcom_1_1teragrep_1_1pth__06_1_1planner_1_1HBaseQueryImpl.html#aac2c757eda96e3154434977c46d2ac1d" target="_top" xlink:title="Creates open scans for the query, starting from the provided offset.">
<polygon fill="white" stroke="#666666" points="356,-78 196,-78 196,-48 356,-48 356,-78"/>
<text text-anchor="start" x="204" y="-66" font-family="Helvetica,sans-Serif" font-size="10.00">com.teragrep.pth_06.planner.</text>
<text text-anchor="middle" x="276" y="-55" font-family="Helvetica,sans-Serif" font-size="10.00">HBaseQueryImpl.open</text>
</a>
</g>
</g>
<!-- Node1&#45;&gt;Node6 -->
<g id="edge6_Node000001_Node000006" class="edge">
<title>Node1&#45;&gt;Node6</title>
<g id="a_edge6_Node000001_Node000006"><a xlink:title=" ">
<path fill="none" stroke="#63b8ff" d="M141.85,-95.94C161.71,-91.03 183.94,-85.53 204.45,-80.46"/>
<polygon fill="#63b8ff" stroke="#63b8ff" points="205.5,-83.8 214.37,-78 203.82,-77.01 205.5,-83.8"/>
</a>
</g>
</g>
<!-- Node9 -->
<g id="Node000009" class="node">
<title>Node9</title>
<g id="a_Node000009"><a xlink:href="interfacecom_1_1teragrep_1_1pth__06_1_1planner_1_1LimitedResults.html#aa0026f763a951e436b76183f663b7c91" target="_top" xlink:title=" ">
<polygon fill="white" stroke="#666666" points="356,-30 196,-30 196,0 356,0 356,-30"/>
<text text-anchor="start" x="204" y="-18" font-family="Helvetica,sans-Serif" font-size="10.00">com.teragrep.pth_06.planner.</text>
<text text-anchor="middle" x="276" y="-7" font-family="Helvetica,sans-Serif" font-size="10.00">LimitedResults.results</text>
</a>
</g>
</g>
<!-- Node1&#45;&gt;Node9 -->
<g id="edge11_Node000001_Node000009" class="edge">
<title>Node1&#45;&gt;Node9</title>
<g id="a_edge11_Node000001_Node000009"><a xlink:title=" ">
<path fill="none" stroke="#63b8ff" d="M101.26,-95.99C123.53,-80.05 160.84,-55 196,-39 200.15,-37.11 204.48,-35.32 208.9,-33.64"/>
<polygon fill="#63b8ff" stroke="#63b8ff" points="210.43,-36.8 218.64,-30.11 208.05,-30.22 210.43,-36.8"/>
</a>
</g>
</g>
<!-- Node2&#45;&gt;Node2 -->
<g id="edge2_Node000002_Node000002" class="edge">
<title>Node2&#45;&gt;Node2</title>
<g id="a_edge2_Node000002_Node000002"><a xlink:title=" ">
<path fill="none" stroke="#63b8ff" d="M241.55,-212.28C233.89,-221.41 245.38,-230 276,-230 294.18,-230 305.62,-226.97 310.31,-222.6"/>
<polygon fill="#63b8ff" stroke="#63b8ff" points="313.81,-222.32 310.45,-212.28 306.81,-222.22 313.81,-222.32"/>
</a>
</g>
</g>
<!-- Node4 -->
<g id="Node000004" class="node">
<title>Node4</title>
<g id="a_Node000004"><a xlink:href="interfacecom_1_1teragrep_1_1pth__06_1_1Stubbable.html#a0901c0a7cde13ff306d455e4009f01cb" target="_top" xlink:title=" ">
<polygon fill="white" stroke="#666666" points="987,-118.5 784,-118.5 784,-99.5 987,-99.5 987,-118.5"/>
<text text-anchor="middle" x="885.5" y="-106.5" font-family="Helvetica,sans-Serif" font-size="10.00">com.teragrep.pth_06.Stubbable.isStub</text>
</a>
</g>
</g>
<!-- Node3&#45;&gt;Node4 -->
<g id="edge4_Node000003_Node000004" class="edge">
<title>Node3&#45;&gt;Node4</title>
<g id="a_edge4_Node000003_Node000004"><a xlink:title=" ">
<path fill="none" stroke="#63b8ff" d="M748.02,-109C756.4,-109 765.02,-109 773.67,-109"/>
<polygon fill="#63b8ff" stroke="#63b8ff" points="773.83,-112.5 783.83,-109 773.83,-105.5 773.83,-112.5"/>
</a>
</g>
</g>
<!-- Node6&#45;&gt;Node3 -->
<g id="edge10_Node000006_Node000003" class="edge">
<title>Node6&#45;&gt;Node3</title>
<g id="a_edge10_Node000006_Node000003"><a xlink:title=" ">
<path fill="none" stroke="#63b8ff" d="M341.82,-78.02C358.13,-81.38 375.65,-84.65 392,-87 453.68,-95.87 523.71,-101.4 577.65,-104.71"/>
<polygon fill="#63b8ff" stroke="#63b8ff" points="577.69,-108.21 587.88,-105.32 578.1,-101.23 577.69,-108.21"/>
</a>
</g>
</g>
<!-- Node7 -->
<g id="Node000007" class="node">
<title>Node7</title>
<g id="a_Node000007"><a xlink:href="classcom_1_1teragrep_1_1pth__06_1_1planner_1_1HBaseQueryImpl.html#a5c2fd9106ed54b76d478cf6af5ac5233" target="_top" xlink:title="Closes all open scans in the hourly slices.">
<polygon fill="white" stroke="#666666" points="552,-78 392,-78 392,-48 552,-48 552,-78"/>
<text text-anchor="start" x="400" y="-66" font-family="Helvetica,sans-Serif" font-size="10.00">com.teragrep.pth_06.planner.</text>
<text text-anchor="middle" x="472" y="-55" font-family="Helvetica,sans-Serif" font-size="10.00">HBaseQueryImpl.close</text>
</a>
</g>
</g>
<!-- Node6&#45;&gt;Node7 -->
<g id="edge7_Node000006_Node000007" class="edge">
<title>Node6&#45;&gt;Node7</title>
<g id="a_edge7_Node000006_Node000007"><a xlink:title=" ">
<path fill="none" stroke="#63b8ff" d="M356.19,-63C364.53,-63 373.05,-63 381.5,-63"/>
<polygon fill="#63b8ff" stroke="#63b8ff" points="381.75,-66.5 391.75,-63 381.75,-59.5 381.75,-66.5"/>
</a>
</g>
</g>
<!-- Node7&#45;&gt;Node3 -->
<g id="edge9_Node000007_Node000003" class="edge">
<title>Node7&#45;&gt;Node3</title>
<g id="a_edge9_Node000007_Node000003"><a xlink:title=" ">
<path fill="none" stroke="#63b8ff" d="M536.52,-78.06C554.87,-82.41 575.04,-87.2 593.93,-91.67"/>
<polygon fill="#63b8ff" stroke="#63b8ff" points="593.13,-95.08 603.67,-93.98 594.74,-88.27 593.13,-95.08"/>
</a>
</g>
</g>
<!-- Node8 -->
<g id="Node000008" class="node">
<title>Node8</title>
<g id="a_Node000008"><a xlink:href="interfacecom_1_1teragrep_1_1pth__06_1_1planner_1_1HourlySlices.html#aa272aa7ce7a5abb0196768dfa472e1d1" target="_top" xlink:title=" ">
<polygon fill="white" stroke="#666666" points="748,-76 588,-76 588,-46 748,-46 748,-76"/>
<text text-anchor="start" x="596" y="-64" font-family="Helvetica,sans-Serif" font-size="10.00">com.teragrep.pth_06.planner.</text>
<text text-anchor="middle" x="668" y="-53" font-family="Helvetica,sans-Serif" font-size="10.00">HourlySlices.close</text>
</a>
</g>
</g>
<!-- Node7&#45;&gt;Node8 -->
<g id="edge8_Node000007_Node000008" class="edge">
<title>Node7&#45;&gt;Node8</title>
<g id="a_edge8_Node000007_Node000008"><a xlink:title=" ">
<path fill="none" stroke="#63b8ff" d="M552.19,-62.18C560.53,-62.1 569.05,-62.01 577.5,-61.92"/>
<polygon fill="#63b8ff" stroke="#63b8ff" points="577.79,-65.42 587.75,-61.82 577.72,-58.42 577.79,-65.42"/>
</a>
</g>
</g>
</g>
</svg>
