<?xml version="1.0" encoding="UTF-8" standalone="no"?>
<!DOCTYPE svg PUBLIC "-//W3C//DTD SVG 1.1//EN"
 "http://www.w3.org/Graphics/SVG/1.1/DTD/svg11.dtd">
<!-- Generated by graphviz version 2.43.0 (0)
 -->
<!-- Title: com.teragrep.pth_06.ast.xml.XMLQuery.asAST Pages: 1 -->
<svg width="426pt" height="182pt"
 viewBox="0.00 0.00 426.00 182.00" xmlns="http://www.w3.org/2000/svg" xmlns:xlink="http://www.w3.org/1999/xlink">
<g id="graph0" class="graph" transform="scale(1 1) rotate(0) translate(4 178)">
<title>com.teragrep.pth_06.ast.xml.XMLQuery.asAST</title>
<!-- Node1 -->
<g id="Node000001" class="node">
<title>Node1</title>
<g id="a_Node000001"><a xlink:title=" ">
<polygon fill="#999999" stroke="#666666" points="418,-102 257,-102 257,-72 418,-72 418,-102"/>
<text text-anchor="start" x="265" y="-90" font-family="Helvetica,sans-Serif" font-size="10.00">com.teragrep.pth_06.ast.xml.</text>
<text text-anchor="middle" x="337.5" y="-79" font-family="Helvetica,sans-Serif" font-size="10.00">XMLQuery.asAST</text>
</a>
</g>
</g>
<!-- Node2 -->
<g id="Node000002" class="node">
<title>Node2</title>
<g id="a_Node000002"><a xlink:href="classcom_1_1teragrep_1_1pth__06_1_1ast_1_1xml_1_1XMLQueryTest.html#a69894510f18bc63d2062360eb25abd36" target="_top" xlink:title=" ">
<polygon fill="white" stroke="#666666" points="221,-174 0,-174 0,-144 221,-144 221,-174"/>
<text text-anchor="start" x="8" y="-162" font-family="Helvetica,sans-Serif" font-size="10.00">com.teragrep.pth_06.ast.xml.</text>
<text text-anchor="middle" x="110.5" y="-151" font-family="Helvetica,sans-Serif" font-size="10.00">XMLQueryTest.testIndexPlusTimeQualifier</text>
</a>
</g>
</g>
<!-- Node1&#45;&gt;Node2 -->
<g id="edge1_Node000001_Node000002" class="edge">
<title>Node1&#45;&gt;Node2</title>
<g id="a_edge1_Node000001_Node000002"><a xlink:title=" ">
<path fill="none" stroke="#63b8ff" d="M295.44,-106.16C273.67,-115.78 246.26,-127.05 221,-135 210.6,-138.27 199.52,-141.26 188.54,-143.93"/>
<polygon fill="#63b8ff" stroke="#63b8ff" points="297.01,-109.29 304.71,-102.01 294.15,-102.9 297.01,-109.29"/>
</a>
</g>
</g>
<!-- Node3 -->
<g id="Node000003" class="node">
<title>Node3</title>
<g id="a_Node000003"><a xlink:href="classcom_1_1teragrep_1_1pth__06_1_1ast_1_1xml_1_1XMLQueryTest.html#aefa6311528eab479fc1e3183332974af" target="_top" xlink:title=" ">
<polygon fill="white" stroke="#666666" points="214.5,-126 6.5,-126 6.5,-96 214.5,-96 214.5,-126"/>
<text text-anchor="start" x="14.5" y="-114" font-family="Helvetica,sans-Serif" font-size="10.00">com.teragrep.pth_06.ast.xml.</text>
<text text-anchor="middle" x="110.5" y="-103" font-family="Helvetica,sans-Serif" font-size="10.00">XMLQueryTest.testSingleElementQuery</text>
</a>
</g>
</g>
<!-- Node1&#45;&gt;Node3 -->
<g id="edge2_Node000001_Node000003" class="edge">
<title>Node1&#45;&gt;Node3</title>
<g id="a_edge2_Node000001_Node000003"><a xlink:title=" ">
<path fill="none" stroke="#63b8ff" d="M246.83,-96.57C236.26,-97.69 225.41,-98.85 214.68,-99.99"/>
<polygon fill="#63b8ff" stroke="#63b8ff" points="247.28,-100.04 256.86,-95.5 246.54,-93.08 247.28,-100.04"/>
</a>
</g>
</g>
<!-- Node4 -->
<g id="Node000004" class="node">
<title>Node4</title>
<g id="a_Node000004"><a xlink:href="classcom_1_1teragrep_1_1pth__06_1_1ast_1_1xml_1_1XMLQueryTest.html#a0ca82e0be177f57614e8b3c8b70867a5" target="_top" xlink:title=" ">
<polygon fill="white" stroke="#666666" points="202,-78 19,-78 19,-48 202,-48 202,-78"/>
<text text-anchor="start" x="27" y="-66" font-family="Helvetica,sans-Serif" font-size="10.00">com.teragrep.pth_06.ast.xml.</text>
<text text-anchor="middle" x="110.5" y="-55" font-family="Helvetica,sans-Serif" font-size="10.00">XMLQueryTest.testXMLFromQuery</text>
</a>
</g>
</g>
<!-- Node1&#45;&gt;Node4 -->
<g id="edge3_Node000001_Node000004" class="edge">
<title>Node1&#45;&gt;Node4</title>
<g id="a_edge3_Node000001_Node000004"><a xlink:title=" ">
<path fill="none" stroke="#63b8ff" d="M246.79,-77.43C232.1,-75.86 216.88,-74.24 202.17,-72.67"/>
<polygon fill="#63b8ff" stroke="#63b8ff" points="246.54,-80.92 256.86,-78.5 247.28,-73.96 246.54,-80.92"/>
</a>
</g>
</g>
<!-- Node5 -->
<g id="Node000005" class="node">
<title>Node5</title>
<g id="a_Node000005"><a xlink:href="classcom_1_1teragrep_1_1pth__06_1_1ast_1_1xml_1_1XMLQuery.html#a4e6e831ad017723d10e88fcfd7ccc902" target="_top" xlink:title=" ">
<polygon fill="white" stroke="#666666" points="191,-30 30,-30 30,0 191,0 191,-30"/>
<text text-anchor="start" x="38" y="-18" font-family="Helvetica,sans-Serif" font-size="10.00">com.teragrep.pth_06.ast.xml.</text>
<text text-anchor="middle" x="110.5" y="-7" font-family="Helvetica,sans-Serif" font-size="10.00">XMLQuery.toString</text>
</a>
</g>
</g>
<!-- Node1&#45;&gt;Node5 -->
<g id="edge4_Node000001_Node000005" class="edge">
<title>Node1&#45;&gt;Node5</title>
<g id="a_edge4_Node000001_Node000005"><a xlink:title=" ">
<path fill="none" stroke="#63b8ff" d="M295.44,-67.84C273.67,-58.22 246.26,-46.95 221,-39 210.6,-35.73 199.52,-32.74 188.54,-30.07"/>
<polygon fill="#63b8ff" stroke="#63b8ff" points="294.15,-71.1 304.71,-71.99 297.01,-64.71 294.15,-71.1"/>
</a>
</g>
</g>
</g>
</svg>
