<?xml version="1.0" encoding="UTF-8" standalone="no"?>
<!DOCTYPE svg PUBLIC "-//W3C//DTD SVG 1.1//EN"
 "http://www.w3.org/Graphics/SVG/1.1/DTD/svg11.dtd">
<!-- Generated by graphviz version 2.43.0 (0)
 -->
<!-- Title: com.teragrep.pth_06.planner.LogfileTable.table Pages: 1 -->
<svg width="672pt" height="234pt"
 viewBox="0.00 0.00 672.00 234.04" xmlns="http://www.w3.org/2000/svg" xmlns:xlink="http://www.w3.org/1999/xlink">
<g id="graph0" class="graph" transform="scale(1 1) rotate(0) translate(4 230.04)">
<title>com.teragrep.pth_06.planner.LogfileTable.table</title>
<!-- Node1 -->
<g id="Node000001" class="node">
<title>Node1</title>
<g id="a_Node000001"><a xlink:title=" ">
<polygon fill="#999999" stroke="#666666" points="664,-143 504,-143 504,-113 664,-113 664,-143"/>
<text text-anchor="start" x="512" y="-131" font-family="Helvetica,sans-Serif" font-size="10.00">com.teragrep.pth_06.planner.</text>
<text text-anchor="middle" x="584" y="-120" font-family="Helvetica,sans-Serif" font-size="10.00">LogfileTable.table</text>
</a>
</g>
</g>
<!-- Node2 -->
<g id="Node000002" class="node">
<title>Node2</title>
<g id="a_Node000002"><a xlink:href="classcom_1_1teragrep_1_1pth__06_1_1planner_1_1SynchronizedHourlyResultsTest.html#ac2e24bdd536d446f0a5d7d63a21e123c" target="_top" xlink:title=" ">
<polygon fill="white" stroke="#666666" points="227,-218 0,-218 0,-188 227,-188 227,-218"/>
<text text-anchor="start" x="8" y="-206" font-family="Helvetica,sans-Serif" font-size="10.00">com.teragrep.pth_06.planner.</text>
<text text-anchor="middle" x="113.5" y="-195" font-family="Helvetica,sans-Serif" font-size="10.00">SynchronizedHourlyResultsTest.beforeEach</text>
</a>
</g>
</g>
<!-- Node1&#45;&gt;Node2 -->
<g id="edge1_Node000001_Node000002" class="edge">
<title>Node1&#45;&gt;Node2</title>
<g id="a_edge1_Node000001_Node000002"><a xlink:title=" ">
<path fill="none" stroke="#63b8ff" d="M559.82,-149.98C538.05,-168.98 503.58,-195.07 468,-206 380,-233.03 273.76,-227.35 200.87,-218.02"/>
<polygon fill="#63b8ff" stroke="#63b8ff" points="562.4,-152.37 567.51,-143.09 557.73,-147.15 562.4,-152.37"/>
</a>
</g>
</g>
<!-- Node3 -->
<g id="Node000003" class="node">
<title>Node3</title>
<g id="a_Node000003"><a xlink:href="classcom_1_1teragrep_1_1pth__06_1_1planner_1_1LogfileTable.html#a4ad5834e4a68cef4b34efad12e727e60" target="_top" xlink:title=" ">
<polygon fill="white" stroke="#666666" points="445.5,-197 285.5,-197 285.5,-167 445.5,-167 445.5,-197"/>
<text text-anchor="start" x="293.5" y="-185" font-family="Helvetica,sans-Serif" font-size="10.00">com.teragrep.pth_06.planner.</text>
<text text-anchor="middle" x="365.5" y="-174" font-family="Helvetica,sans-Serif" font-size="10.00">LogfileTable.insertResults</text>
</a>
</g>
</g>
<!-- Node1&#45;&gt;Node3 -->
<g id="edge2_Node000001_Node000003" class="edge">
<title>Node1&#45;&gt;Node3</title>
<g id="a_edge2_Node000001_Node000003"><a xlink:title=" ">
<path fill="none" stroke="#63b8ff" d="M516.58,-145.6C500.68,-149.74 483.75,-154.08 468,-158 456.05,-160.97 443.29,-164.06 430.99,-166.99"/>
<polygon fill="#63b8ff" stroke="#63b8ff" points="517.54,-148.97 526.33,-143.06 515.77,-142.2 517.54,-148.97"/>
</a>
</g>
</g>
<!-- Node4 -->
<g id="Node000004" class="node">
<title>Node4</title>
<g id="a_Node000004"><a xlink:href="classcom_1_1teragrep_1_1pth__06_1_1planner_1_1LogfileTableTest.html#ac00f5c3beb2806880a4141e96da395ca" target="_top" xlink:title=" ">
<polygon fill="white" stroke="#666666" points="457.5,-148.5 273.5,-148.5 273.5,-107.5 457.5,-107.5 457.5,-148.5"/>
<text text-anchor="start" x="281.5" y="-136.5" font-family="Helvetica,sans-Serif" font-size="10.00">com.teragrep.pth_06.planner.</text>
<text text-anchor="start" x="281.5" y="-125.5" font-family="Helvetica,sans-Serif" font-size="10.00">LogfileTableTest.testDefaultLogfile</text>
<text text-anchor="middle" x="365.5" y="-114.5" font-family="Helvetica,sans-Serif" font-size="10.00">TableName</text>
</a>
</g>
</g>
<!-- Node1&#45;&gt;Node4 -->
<g id="edge4_Node000001_Node000004" class="edge">
<title>Node1&#45;&gt;Node4</title>
<g id="a_edge4_Node000001_Node000004"><a xlink:title=" ">
<path fill="none" stroke="#63b8ff" d="M493.63,-128C481.81,-128 469.69,-128 457.84,-128"/>
<polygon fill="#63b8ff" stroke="#63b8ff" points="493.92,-131.5 503.92,-128 493.92,-124.5 493.92,-131.5"/>
</a>
</g>
</g>
<!-- Node5 -->
<g id="Node000005" class="node">
<title>Node5</title>
<g id="a_Node000005"><a xlink:href="classcom_1_1teragrep_1_1pth__06_1_1planner_1_1LogfileTableTest.html#a92b3fc949817488ae25c2e0fbacca099" target="_top" xlink:title=" ">
<polygon fill="white" stroke="#666666" points="452,-89.5 279,-89.5 279,-48.5 452,-48.5 452,-89.5"/>
<text text-anchor="start" x="287" y="-77.5" font-family="Helvetica,sans-Serif" font-size="10.00">com.teragrep.pth_06.planner.</text>
<text text-anchor="start" x="287" y="-66.5" font-family="Helvetica,sans-Serif" font-size="10.00">LogfileTableTest.testLogfileTable</text>
<text text-anchor="middle" x="365.5" y="-55.5" font-family="Helvetica,sans-Serif" font-size="10.00">NameOption</text>
</a>
</g>
</g>
<!-- Node1&#45;&gt;Node5 -->
<g id="edge5_Node000001_Node000005" class="edge">
<title>Node1&#45;&gt;Node5</title>
<g id="a_edge5_Node000001_Node000005"><a xlink:title=" ">
<path fill="none" stroke="#63b8ff" d="M518.12,-110.32C494.17,-103.79 466.82,-96.34 442.01,-89.58"/>
<polygon fill="#63b8ff" stroke="#63b8ff" points="517.24,-113.71 527.81,-112.96 519.08,-106.95 517.24,-113.71"/>
</a>
</g>
</g>
<!-- Node6 -->
<g id="Node000006" class="node">
<title>Node6</title>
<g id="a_Node000006"><a xlink:href="classcom_1_1teragrep_1_1pth__06_1_1planner_1_1LogfileTableTest.html#a076669fb190eb7fa92c9bc5f4cf15824" target="_top" xlink:title=" ">
<polygon fill="white" stroke="#666666" points="468,-30 263,-30 263,0 468,0 468,-30"/>
<text text-anchor="start" x="271" y="-18" font-family="Helvetica,sans-Serif" font-size="10.00">com.teragrep.pth_06.planner.</text>
<text text-anchor="middle" x="365.5" y="-7" font-family="Helvetica,sans-Serif" font-size="10.00">LogfileTableTest.testMultipleTableCalls</text>
</a>
</g>
</g>
<!-- Node1&#45;&gt;Node6 -->
<g id="edge6_Node000001_Node000006" class="edge">
<title>Node1&#45;&gt;Node6</title>
<g id="a_edge6_Node000001_Node000006"><a xlink:title=" ">
<path fill="none" stroke="#63b8ff" d="M560.19,-105.92C538.27,-85.88 503.33,-56.95 468,-40 459.98,-36.15 451.32,-32.86 442.54,-30.06"/>
<polygon fill="#63b8ff" stroke="#63b8ff" points="557.95,-108.61 567.66,-112.86 562.72,-103.49 557.95,-108.61"/>
</a>
</g>
</g>
<!-- Node3&#45;&gt;Node2 -->
<g id="edge3_Node000003_Node000002" class="edge">
<title>Node3&#45;&gt;Node2</title>
<g id="a_edge3_Node000003_Node000002"><a xlink:title=" ">
<path fill="none" stroke="#63b8ff" d="M275.31,-189.49C259.77,-190.8 243.42,-192.17 227.34,-193.52"/>
<polygon fill="#63b8ff" stroke="#63b8ff" points="275.73,-192.97 285.4,-188.64 275.14,-185.99 275.73,-192.97"/>
</a>
</g>
</g>
</g>
</svg>
