<?xml version="1.0" encoding="UTF-8" standalone="no"?>
<!DOCTYPE svg PUBLIC "-//W3C//DTD SVG 1.1//EN"
 "http://www.w3.org/Graphics/SVG/1.1/DTD/svg11.dtd">
<!-- Generated by graphviz version 2.43.0 (0)
 -->
<!-- Title: com.teragrep.pth_06.scheduler.BatchSliceCollection Pages: 1 -->
<svg width="559pt" height="134pt"
 viewBox="0.00 0.00 559.00 134.00" xmlns="http://www.w3.org/2000/svg" xmlns:xlink="http://www.w3.org/1999/xlink">
<g id="graph0" class="graph" transform="scale(1 1) rotate(0) translate(4 130)">
<title>com.teragrep.pth_06.scheduler.BatchSliceCollection</title>
<!-- Node1 -->
<g id="Node000001" class="node">
<title>Node1</title>
<g id="a_Node000001"><a xlink:title=" ">
<polygon fill="#999999" stroke="#666666" points="345,-78 175,-78 175,-48 345,-48 345,-78"/>
<text text-anchor="start" x="183" y="-66" font-family="Helvetica,sans-Serif" font-size="10.00">com.teragrep.pth_06.scheduler.</text>
<text text-anchor="middle" x="260" y="-55" font-family="Helvetica,sans-Serif" font-size="10.00">BatchSliceCollection</text>
</a>
</g>
</g>
<!-- Node3 -->
<g id="Node000003" class="node">
<title>Node3</title>
<g id="a_Node000003"><a xlink:href="classcom_1_1teragrep_1_1pth__06_1_1scheduler_1_1ArchiveBatchSliceCollection.html" target="_top" xlink:title=" ">
<polygon fill="white" stroke="#666666" points="551,-126 381,-126 381,-96 551,-96 551,-126"/>
<text text-anchor="start" x="389" y="-114" font-family="Helvetica,sans-Serif" font-size="10.00">com.teragrep.pth_06.scheduler.</text>
<text text-anchor="middle" x="466" y="-103" font-family="Helvetica,sans-Serif" font-size="10.00">ArchiveBatchSliceCollection</text>
</a>
</g>
</g>
<!-- Node1&#45;&gt;Node3 -->
<g id="edge2_Node000001_Node000003" class="edge">
<title>Node1&#45;&gt;Node3</title>
<g id="a_edge2_Node000001_Node000003"><a xlink:title=" ">
<path fill="none" stroke="#63b8ff" d="M334.83,-80.37C356.58,-85.49 380.18,-91.04 401.24,-96"/>
<polygon fill="#63b8ff" stroke="#63b8ff" points="335.52,-76.94 324.99,-78.06 333.92,-83.75 335.52,-76.94"/>
</a>
</g>
</g>
<!-- Node4 -->
<g id="Node000004" class="node">
<title>Node4</title>
<g id="a_Node000004"><a xlink:href="classcom_1_1teragrep_1_1pth__06_1_1scheduler_1_1HBaseBatchSliceCollection.html" target="_top" xlink:title=" ">
<polygon fill="white" stroke="#666666" points="551,-78 381,-78 381,-48 551,-48 551,-78"/>
<text text-anchor="start" x="389" y="-66" font-family="Helvetica,sans-Serif" font-size="10.00">com.teragrep.pth_06.scheduler.</text>
<text text-anchor="middle" x="466" y="-55" font-family="Helvetica,sans-Serif" font-size="10.00">HBaseBatchSliceCollection</text>
</a>
</g>
</g>
<!-- Node1&#45;&gt;Node4 -->
<g id="edge3_Node000001_Node000004" class="edge">
<title>Node1&#45;&gt;Node4</title>
<g id="a_edge3_Node000001_Node000004"><a xlink:title=" ">
<path fill="none" stroke="#63b8ff" d="M355.4,-63C363.85,-63 372.36,-63 380.71,-63"/>
<polygon fill="#63b8ff" stroke="#63b8ff" points="355.15,-59.5 345.15,-63 355.15,-66.5 355.15,-59.5"/>
</a>
</g>
</g>
<!-- Node5 -->
<g id="Node000005" class="node">
<title>Node5</title>
<g id="a_Node000005"><a xlink:href="classcom_1_1teragrep_1_1pth__06_1_1scheduler_1_1KafkaBatchSliceCollection.html" target="_top" xlink:title=" ">
<polygon fill="white" stroke="#666666" points="551,-30 381,-30 381,0 551,0 551,-30"/>
<text text-anchor="start" x="389" y="-18" font-family="Helvetica,sans-Serif" font-size="10.00">com.teragrep.pth_06.scheduler.</text>
<text text-anchor="middle" x="466" y="-7" font-family="Helvetica,sans-Serif" font-size="10.00">KafkaBatchSliceCollection</text>
</a>
</g>
</g>
<!-- Node1&#45;&gt;Node5 -->
<g id="edge4_Node000001_Node000005" class="edge">
<title>Node1&#45;&gt;Node5</title>
<g id="a_edge4_Node000001_Node000005"><a xlink:title=" ">
<path fill="none" stroke="#63b8ff" d="M334.83,-45.63C356.58,-40.51 380.18,-34.96 401.24,-30"/>
<polygon fill="#63b8ff" stroke="#63b8ff" points="333.92,-42.25 324.99,-47.94 335.52,-49.06 333.92,-42.25"/>
</a>
</g>
</g>
<!-- Node2 -->
<g id="Node000002" class="node">
<title>Node2</title>
<g id="a_Node000002"><a xlink:title=" ">
<polygon fill="white" stroke="#666666" points="139,-72.5 0,-72.5 0,-53.5 139,-53.5 139,-72.5"/>
<text text-anchor="middle" x="69.5" y="-60.5" font-family="Helvetica,sans-Serif" font-size="10.00">LinkedList&lt; BatchSlice &gt;</text>
</a>
</g>
</g>
<!-- Node2&#45;&gt;Node1 -->
<g id="edge1_Node000001_Node000002" class="edge">
<title>Node2&#45;&gt;Node1</title>
<g id="a_edge1_Node000001_Node000002"><a xlink:title=" ">
<path fill="none" stroke="#63b8ff" d="M149.25,-63C157.67,-63 166.25,-63 174.73,-63"/>
<polygon fill="#63b8ff" stroke="#63b8ff" points="149.09,-59.5 139.09,-63 149.09,-66.5 149.09,-59.5"/>
</a>
</g>
</g>
</g>
</svg>
