<?xml version="1.0" encoding="UTF-8" standalone="no"?>
<!DOCTYPE svg PUBLIC "-//W3C//DTD SVG 1.1//EN"
 "http://www.w3.org/Graphics/SVG/1.1/DTD/svg11.dtd">
<!-- Generated by graphviz version 2.43.0 (0)
 -->
<!-- Title: com.teragrep.pth_06.ast.expressions.OrExpressionTest.testChildren Pages: 1 -->
<svg width="444pt" height="86pt"
 viewBox="0.00 0.00 444.00 86.00" xmlns="http://www.w3.org/2000/svg" xmlns:xlink="http://www.w3.org/1999/xlink">
<g id="graph0" class="graph" transform="scale(1 1) rotate(0) translate(4 82)">
<title>com.teragrep.pth_06.ast.expressions.OrExpressionTest.testChildren</title>
<!-- Node1 -->
<g id="Node000001" class="node">
<title>Node1</title>
<g id="a_Node000001"><a xlink:title=" ">
<polygon fill="#999999" stroke="#666666" points="200,-54 0,-54 0,-24 200,-24 200,-54"/>
<text text-anchor="start" x="8" y="-42" font-family="Helvetica,sans-Serif" font-size="10.00">com.teragrep.pth_06.ast.expressions.</text>
<text text-anchor="middle" x="100" y="-31" font-family="Helvetica,sans-Serif" font-size="10.00">OrExpressionTest.testChildren</text>
</a>
</g>
</g>
<!-- Node2 -->
<g id="Node000002" class="node">
<title>Node2</title>
<g id="a_Node000002"><a xlink:href="interfacecom_1_1teragrep_1_1pth__06_1_1ast_1_1expressions_1_1Expression.html#aeb3bad3c2be65bd60edf63dedffb3d4b" target="_top" xlink:title=" ">
<polygon fill="white" stroke="#666666" points="436,-78 236,-78 236,-48 436,-48 436,-78"/>
<text text-anchor="start" x="244" y="-66" font-family="Helvetica,sans-Serif" font-size="10.00">com.teragrep.pth_06.ast.expressions.</text>
<text text-anchor="middle" x="336" y="-55" font-family="Helvetica,sans-Serif" font-size="10.00">Expression.asLogical</text>
</a>
</g>
</g>
<!-- Node1&#45;&gt;Node2 -->
<g id="edge1_Node000001_Node000002" class="edge">
<title>Node1&#45;&gt;Node2</title>
<g id="a_edge1_Node000001_Node000002"><a xlink:title=" ">
<path fill="none" stroke="#63b8ff" d="M200.24,-49.18C208.74,-50.05 217.38,-50.94 225.95,-51.82"/>
<polygon fill="#63b8ff" stroke="#63b8ff" points="225.68,-55.31 235.98,-52.84 226.39,-48.34 225.68,-55.31"/>
</a>
</g>
</g>
<!-- Node3 -->
<g id="Node000003" class="node">
<title>Node3</title>
<g id="a_Node000003"><a xlink:href="interfacecom_1_1teragrep_1_1pth__06_1_1ast_1_1expressions_1_1LogicalExpression.html#a24e6dfbc3c241345f8dd549e0aecf288" target="_top" xlink:title=" ">
<polygon fill="white" stroke="#666666" points="436,-30 236,-30 236,0 436,0 436,-30"/>
<text text-anchor="start" x="244" y="-18" font-family="Helvetica,sans-Serif" font-size="10.00">com.teragrep.pth_06.ast.expressions.</text>
<text text-anchor="middle" x="336" y="-7" font-family="Helvetica,sans-Serif" font-size="10.00">LogicalExpression.children</text>
</a>
</g>
</g>
<!-- Node1&#45;&gt;Node3 -->
<g id="edge2_Node000001_Node000003" class="edge">
<title>Node1&#45;&gt;Node3</title>
<g id="a_edge2_Node000001_Node000003"><a xlink:title=" ">
<path fill="none" stroke="#63b8ff" d="M200.24,-28.82C208.74,-27.95 217.38,-27.06 225.95,-26.18"/>
<polygon fill="#63b8ff" stroke="#63b8ff" points="226.39,-29.66 235.98,-25.16 225.68,-22.69 226.39,-29.66"/>
</a>
</g>
</g>
</g>
</svg>
