<?xml version="1.0" encoding="UTF-8" standalone="no"?>
<!DOCTYPE svg PUBLIC "-//W3C//DTD SVG 1.1//EN"
 "http://www.w3.org/Graphics/SVG/1.1/DTD/svg11.dtd">
<!-- Generated by graphviz version 2.43.0 (0)
 -->
<!-- Title: com.teragrep.pth_06.ast.transform.IdentitySimplification.transformed Pages: 1 -->
<svg width="431pt" height="167pt"
 viewBox="0.00 0.00 431.00 167.00" xmlns="http://www.w3.org/2000/svg" xmlns:xlink="http://www.w3.org/1999/xlink">
<g id="graph0" class="graph" transform="scale(1 1) rotate(0) translate(4 163)">
<title>com.teragrep.pth_06.ast.transform.IdentitySimplification.transformed</title>
<!-- Node1 -->
<g id="Node000001" class="node">
<title>Node1</title>
<g id="a_Node000001"><a xlink:title=" ">
<polygon fill="#999999" stroke="#666666" points="423,-94.5 233,-94.5 233,-64.5 423,-64.5 423,-94.5"/>
<text text-anchor="start" x="241" y="-82.5" font-family="Helvetica,sans-Serif" font-size="10.00">com.teragrep.pth_06.ast.transform.</text>
<text text-anchor="middle" x="328" y="-71.5" font-family="Helvetica,sans-Serif" font-size="10.00">IdentitySimplification.transformed</text>
</a>
</g>
</g>
<!-- Node1&#45;&gt;Node1 -->
<g id="edge4_Node000001_Node000001" class="edge">
<title>Node1&#45;&gt;Node1</title>
<g id="a_edge4_Node000001_Node000001"><a xlink:title=" ">
<path fill="none" stroke="#63b8ff" d="M367.91,-105.1C362.46,-109.47 349.15,-112.5 328,-112.5 292.38,-112.5 279.02,-103.91 287.92,-94.78"/>
<polygon fill="#63b8ff" stroke="#63b8ff" points="371.41,-104.83 368.08,-94.78 364.41,-104.72 371.41,-104.83"/>
</a>
</g>
</g>
<!-- Node2 -->
<g id="Node000002" class="node">
<title>Node2</title>
<g id="a_Node000002"><a xlink:href="classcom_1_1teragrep_1_1pth__06_1_1ast_1_1transform_1_1IdentitySimplificationTest.html#a4c486c298ebb0e942f56ed6cafc77f27" target="_top" xlink:title=" ">
<polygon fill="white" stroke="#666666" points="197,-159 0,-159 0,-118 197,-118 197,-159"/>
<text text-anchor="start" x="8" y="-147" font-family="Helvetica,sans-Serif" font-size="10.00">com.teragrep.pth_06.ast.transform.</text>
<text text-anchor="start" x="8" y="-136" font-family="Helvetica,sans-Serif" font-size="10.00">IdentitySimplificationTest.testLogical</text>
<text text-anchor="middle" x="98.5" y="-125" font-family="Helvetica,sans-Serif" font-size="10.00">WithMoreThanOneChild</text>
</a>
</g>
</g>
<!-- Node1&#45;&gt;Node2 -->
<g id="edge1_Node000001_Node000002" class="edge">
<title>Node1&#45;&gt;Node2</title>
<g id="a_edge1_Node000001_Node000002"><a xlink:title=" ">
<path fill="none" stroke="#63b8ff" d="M259.16,-97.09C233.91,-103.64 205.04,-111.13 178.85,-117.92"/>
<polygon fill="#63b8ff" stroke="#63b8ff" points="260.2,-100.44 269,-94.54 258.45,-93.66 260.2,-100.44"/>
</a>
</g>
</g>
<!-- Node3 -->
<g id="Node000003" class="node">
<title>Node3</title>
<g id="a_Node000003"><a xlink:href="classcom_1_1teragrep_1_1pth__06_1_1ast_1_1transform_1_1IdentitySimplificationTest.html#a0a791bd9cb3b219ca0a3d3c1424a7462" target="_top" xlink:title=" ">
<polygon fill="white" stroke="#666666" points="197,-100 0,-100 0,-59 197,-59 197,-100"/>
<text text-anchor="start" x="8" y="-88" font-family="Helvetica,sans-Serif" font-size="10.00">com.teragrep.pth_06.ast.transform.</text>
<text text-anchor="start" x="8" y="-77" font-family="Helvetica,sans-Serif" font-size="10.00">IdentitySimplificationTest.testLogical</text>
<text text-anchor="middle" x="98.5" y="-66" font-family="Helvetica,sans-Serif" font-size="10.00">WithNoChildren</text>
</a>
</g>
</g>
<!-- Node1&#45;&gt;Node3 -->
<g id="edge2_Node000001_Node000003" class="edge">
<title>Node1&#45;&gt;Node3</title>
<g id="a_edge2_Node000001_Node000003"><a xlink:title=" ">
<path fill="none" stroke="#63b8ff" d="M222.59,-79.5C214.16,-79.5 205.66,-79.5 197.28,-79.5"/>
<polygon fill="#63b8ff" stroke="#63b8ff" points="222.82,-83 232.82,-79.5 222.82,-76 222.82,-83"/>
</a>
</g>
</g>
<!-- Node4 -->
<g id="Node000004" class="node">
<title>Node4</title>
<g id="a_Node000004"><a xlink:href="classcom_1_1teragrep_1_1pth__06_1_1ast_1_1transform_1_1IdentitySimplificationTest.html#a964577c2541a4db8f3793c6dcca7d70b" target="_top" xlink:title=" ">
<polygon fill="white" stroke="#666666" points="197,-41 0,-41 0,0 197,0 197,-41"/>
<text text-anchor="start" x="8" y="-29" font-family="Helvetica,sans-Serif" font-size="10.00">com.teragrep.pth_06.ast.transform.</text>
<text text-anchor="start" x="8" y="-18" font-family="Helvetica,sans-Serif" font-size="10.00">IdentitySimplificationTest.testLogical</text>
<text text-anchor="middle" x="98.5" y="-7" font-family="Helvetica,sans-Serif" font-size="10.00">WithSingleChild</text>
</a>
</g>
</g>
<!-- Node1&#45;&gt;Node4 -->
<g id="edge3_Node000001_Node000004" class="edge">
<title>Node1&#45;&gt;Node4</title>
<g id="a_edge3_Node000001_Node000004"><a xlink:title=" ">
<path fill="none" stroke="#63b8ff" d="M259.16,-61.91C233.91,-55.36 205.04,-47.87 178.85,-41.08"/>
<polygon fill="#63b8ff" stroke="#63b8ff" points="258.45,-65.34 269,-64.46 260.2,-58.56 258.45,-65.34"/>
</a>
</g>
</g>
</g>
</svg>
