<?xml version="1.0" encoding="UTF-8" standalone="no"?>
<!DOCTYPE svg PUBLIC "-//W3C//DTD SVG 1.1//EN"
 "http://www.w3.org/Graphics/SVG/1.1/DTD/svg11.dtd">
<!-- Generated by graphviz version 2.43.0 (0)
 -->
<!-- Title: com.teragrep.pth_06.ast.transform.WithDefaultValuesTest.testDefaultsDoNotOverwriteExisting Pages: 1 -->
<svg width="1328pt" height="446pt"
 viewBox="0.00 0.00 1328.00 445.66" xmlns="http://www.w3.org/2000/svg" xmlns:xlink="http://www.w3.org/1999/xlink">
<g id="graph0" class="graph" transform="scale(1 1) rotate(0) translate(4 441.66)">
<title>com.teragrep.pth_06.ast.transform.WithDefaultValuesTest.testDefaultsDoNotOverwriteExisting</title>
<!-- Node1 -->
<g id="Node000001" class="node">
<title>Node1</title>
<g id="a_Node000001"><a xlink:title=" ">
<polygon fill="#999999" stroke="#666666" points="203,-411.85 0,-411.85 0,-370.85 203,-370.85 203,-411.85"/>
<text text-anchor="start" x="8" y="-399.85" font-family="Helvetica,sans-Serif" font-size="10.00">com.teragrep.pth_06.ast.transform.</text>
<text text-anchor="start" x="8" y="-388.85" font-family="Helvetica,sans-Serif" font-size="10.00">WithDefaultValuesTest.testDefaultsDo</text>
<text text-anchor="middle" x="101.5" y="-377.85" font-family="Helvetica,sans-Serif" font-size="10.00">NotOverwriteExisting</text>
</a>
</g>
</g>
<!-- Node2 -->
<g id="Node000002" class="node">
<title>Node2</title>
<g id="a_Node000002"><a xlink:href="interfacecom_1_1teragrep_1_1pth__06_1_1ast_1_1Expression.html#a17e7d33905be57c6e22e1717da6ddef6" target="_top" xlink:title=" ">
<polygon fill="white" stroke="#666666" points="1316.5,-330.35 1177.5,-330.35 1177.5,-300.35 1316.5,-300.35 1316.5,-330.35"/>
<text text-anchor="start" x="1185.5" y="-318.35" font-family="Helvetica,sans-Serif" font-size="10.00">com.teragrep.pth_06.ast.</text>
<text text-anchor="middle" x="1247" y="-307.35" font-family="Helvetica,sans-Serif" font-size="10.00">Expression.asLogical</text>
</a>
</g>
</g>
<!-- Node1&#45;&gt;Node2 -->
<g id="edge1_Node000001_Node000002" class="edge">
<title>Node1&#45;&gt;Node2</title>
<g id="a_edge1_Node000001_Node000002"><a xlink:title=" ">
<path fill="none" stroke="#63b8ff" d="M203.38,-404.21C298.62,-415.24 445.52,-429.35 573.5,-429.35 573.5,-429.35 573.5,-429.35 817,-429.35 960.06,-429.35 1005.39,-459.03 1138,-405.35 1174.07,-390.75 1207.1,-359.43 1226.88,-337.88"/>
<polygon fill="#63b8ff" stroke="#63b8ff" points="1229.49,-340.21 1233.56,-330.43 1224.28,-335.54 1229.49,-340.21"/>
</a>
</g>
</g>
<!-- Node3 -->
<g id="Node000003" class="node">
<title>Node3</title>
<g id="a_Node000003"><a xlink:href="interfacecom_1_1teragrep_1_1pth__06_1_1ast_1_1LogicalExpression.html#aeaf8fe296c6899792f345659a9a6c0c4" target="_top" xlink:title=" ">
<polygon fill="white" stroke="#666666" points="1320,-223.35 1174,-223.35 1174,-193.35 1320,-193.35 1320,-223.35"/>
<text text-anchor="start" x="1182" y="-211.35" font-family="Helvetica,sans-Serif" font-size="10.00">com.teragrep.pth_06.ast.</text>
<text text-anchor="middle" x="1247" y="-200.35" font-family="Helvetica,sans-Serif" font-size="10.00">LogicalExpression.children</text>
</a>
</g>
</g>
<!-- Node1&#45;&gt;Node3 -->
<g id="edge2_Node000001_Node000003" class="edge">
<title>Node1&#45;&gt;Node3</title>
<g id="a_edge2_Node000001_Node000003"><a xlink:title=" ">
<path fill="none" stroke="#63b8ff" d="M203.11,-391.35C298.47,-391.35 445.73,-391.35 573.5,-391.35 573.5,-391.35 573.5,-391.35 817,-391.35 980.12,-391.35 1152.18,-278.02 1218.09,-229.73"/>
<polygon fill="#63b8ff" stroke="#63b8ff" points="1220.36,-232.4 1226.31,-223.63 1216.2,-226.78 1220.36,-232.4"/>
</a>
</g>
</g>
<!-- Node4 -->
<g id="Node000004" class="node">
<title>Node4</title>
<g id="a_Node000004"><a xlink:href="classcom_1_1teragrep_1_1pth__06_1_1ast_1_1transform_1_1WithDefaultValues.html#a3cd2907c54910cabd6d8cb52ff49215f" target="_top" xlink:title=" ">
<polygon fill="white" stroke="#666666" points="429,-248.35 239,-248.35 239,-218.35 429,-218.35 429,-248.35"/>
<text text-anchor="start" x="247" y="-236.35" font-family="Helvetica,sans-Serif" font-size="10.00">com.teragrep.pth_06.ast.transform.</text>
<text text-anchor="middle" x="334" y="-225.35" font-family="Helvetica,sans-Serif" font-size="10.00">WithDefaultValues.transformed</text>
</a>
</g>
</g>
<!-- Node1&#45;&gt;Node4 -->
<g id="edge3_Node000001_Node000004" class="edge">
<title>Node1&#45;&gt;Node4</title>
<g id="a_edge3_Node000001_Node000004"><a xlink:title=" ">
<path fill="none" stroke="#63b8ff" d="M132.63,-370.69C176.68,-340.5 258.2,-284.62 302.47,-254.28"/>
<polygon fill="#63b8ff" stroke="#63b8ff" points="304.53,-257.1 310.8,-248.56 300.58,-251.33 304.53,-257.1"/>
</a>
</g>
</g>
<!-- Node4&#45;&gt;Node2 -->
<g id="edge4_Node000004_Node000002" class="edge">
<title>Node4&#45;&gt;Node2</title>
<g id="a_edge4_Node000004_Node000002"><a xlink:title=" ">
<path fill="none" stroke="#63b8ff" d="M414.94,-248.37C531.6,-269.45 755.53,-306.76 948,-320.35 1022.16,-325.58 1106.95,-323.37 1167.08,-320.41"/>
<polygon fill="#63b8ff" stroke="#63b8ff" points="1167.45,-323.9 1177.26,-319.9 1167.09,-316.91 1167.45,-323.9"/>
</a>
</g>
</g>
<!-- Node4&#45;&gt;Node4 -->
<g id="edge26_Node000004_Node000004" class="edge">
<title>Node4&#45;&gt;Node4</title>
<g id="a_edge26_Node000004_Node000004"><a xlink:title=" ">
<path fill="none" stroke="#63b8ff" d="M293.22,-248.62C284.16,-257.75 297.75,-266.35 334,-266.35 355.52,-266.35 369.06,-263.32 374.61,-258.94"/>
<polygon fill="#63b8ff" stroke="#63b8ff" points="378.11,-258.68 374.78,-248.62 371.11,-258.56 378.11,-258.68"/>
</a>
</g>
</g>
<!-- Node5 -->
<g id="Node000005" class="node">
<title>Node5</title>
<g id="a_Node000005"><a xlink:href="interfacecom_1_1teragrep_1_1pth__06_1_1ast_1_1Expression.html#a65ee7f5fb98e4129018f467a53586842" target="_top" xlink:title=" ">
<polygon fill="white" stroke="#666666" points="1316.5,-31.35 1177.5,-31.35 1177.5,-1.35 1316.5,-1.35 1316.5,-31.35"/>
<text text-anchor="start" x="1185.5" y="-19.35" font-family="Helvetica,sans-Serif" font-size="10.00">com.teragrep.pth_06.ast.</text>
<text text-anchor="middle" x="1247" y="-8.35" font-family="Helvetica,sans-Serif" font-size="10.00">Expression.isLogical</text>
</a>
</g>
</g>
<!-- Node4&#45;&gt;Node5 -->
<g id="edge5_Node000004_Node000005" class="edge">
<title>Node4&#45;&gt;Node5</title>
<g id="a_edge5_Node000004_Node000005"><a xlink:title=" ">
<path fill="none" stroke="#63b8ff" d="M345.51,-218.18C365.38,-190.78 411.34,-133.28 465,-105.35 697.14,15.49 1019.75,5.23 1167.02,-7.52"/>
<polygon fill="#63b8ff" stroke="#63b8ff" points="1167.05,-11.04 1177.32,-8.44 1167.67,-4.07 1167.05,-11.04"/>
</a>
</g>
</g>
<!-- Node6 -->
<g id="Node000006" class="node">
<title>Node6</title>
<g id="a_Node000006"><a xlink:href="classcom_1_1teragrep_1_1pth__06_1_1ast_1_1transform_1_1WithDefaultValues.html#a371bd3fba44c9f320d2b39f5e60cb82c" target="_top" xlink:title=" ">
<polygon fill="white" stroke="#666666" points="684,-155.85 465,-155.85 465,-114.85 684,-114.85 684,-155.85"/>
<text text-anchor="start" x="473" y="-143.85" font-family="Helvetica,sans-Serif" font-size="10.00">com.teragrep.pth_06.ast.transform.</text>
<text text-anchor="start" x="473" y="-132.85" font-family="Helvetica,sans-Serif" font-size="10.00">WithDefaultValues.recursiveWithDefaults</text>
<text text-anchor="middle" x="574.5" y="-121.85" font-family="Helvetica,sans-Serif" font-size="10.00">Expression</text>
</a>
</g>
</g>
<!-- Node4&#45;&gt;Node6 -->
<g id="edge6_Node000004_Node000006" class="edge">
<title>Node4&#45;&gt;Node6</title>
<g id="a_edge6_Node000004_Node000006"><a xlink:title=" ">
<path fill="none" stroke="#63b8ff" d="M371.74,-218.25C409.68,-202.66 469.47,-178.09 514.13,-159.74"/>
<polygon fill="#63b8ff" stroke="#63b8ff" points="515.5,-162.96 523.42,-155.93 512.84,-156.49 515.5,-162.96"/>
</a>
</g>
</g>
<!-- Node6&#45;&gt;Node5 -->
<g id="edge17_Node000006_Node000005" class="edge">
<title>Node6&#45;&gt;Node5</title>
<g id="a_edge17_Node000006_Node000005"><a xlink:title=" ">
<path fill="none" stroke="#63b8ff" d="M643.08,-114.82C667.2,-107.98 694.67,-100.74 720,-95.35 877.34,-61.88 1064.11,-37.38 1167.4,-25.14"/>
<polygon fill="#63b8ff" stroke="#63b8ff" points="1167.91,-28.6 1177.44,-23.96 1167.1,-21.65 1167.91,-28.6"/>
</a>
</g>
</g>
<!-- Node7 -->
<g id="Node000007" class="node">
<title>Node7</title>
<g id="a_Node000007"><a xlink:href="classcom_1_1teragrep_1_1pth__06_1_1ast_1_1transform_1_1WithDefaultValues.html#ac53e9da4d27289a430152a8b67aa7e6b" target="_top" xlink:title=" ">
<polygon fill="white" stroke="#666666" points="912,-198.35 720,-198.35 720,-168.35 912,-168.35 912,-198.35"/>
<text text-anchor="start" x="728" y="-186.35" font-family="Helvetica,sans-Serif" font-size="10.00">com.teragrep.pth_06.ast.transform.</text>
<text text-anchor="middle" x="816" y="-175.35" font-family="Helvetica,sans-Serif" font-size="10.00">WithDefaultValues.andWithDefaults</text>
</a>
</g>
</g>
<!-- Node6&#45;&gt;Node7 -->
<g id="edge7_Node000006_Node000007" class="edge">
<title>Node6&#45;&gt;Node7</title>
<g id="a_edge7_Node000006_Node000007"><a xlink:title=" ">
<path fill="none" stroke="#63b8ff" d="M684.04,-150.38C709.37,-155.33 735.37,-160.83 757.47,-165.95"/>
<polygon fill="#63b8ff" stroke="#63b8ff" points="756.79,-169.39 767.32,-168.27 758.39,-162.57 756.79,-169.39"/>
</a>
</g>
</g>
<!-- Node9 -->
<g id="Node000009" class="node">
<title>Node9</title>
<g id="a_Node000009"><a xlink:href="interfacecom_1_1teragrep_1_1pth__06_1_1ast_1_1Expression.html#a8b9661253a3610b9eb148ee29ca8b7e1" target="_top" xlink:title=" ">
<polygon fill="white" stroke="#666666" points="1316.5,-112.35 1177.5,-112.35 1177.5,-82.35 1316.5,-82.35 1316.5,-112.35"/>
<text text-anchor="start" x="1185.5" y="-100.35" font-family="Helvetica,sans-Serif" font-size="10.00">com.teragrep.pth_06.ast.</text>
<text text-anchor="middle" x="1247" y="-89.35" font-family="Helvetica,sans-Serif" font-size="10.00">Expression.tag</text>
</a>
</g>
</g>
<!-- Node6&#45;&gt;Node9 -->
<g id="edge25_Node000006_Node000009" class="edge">
<title>Node6&#45;&gt;Node9</title>
<g id="a_edge25_Node000006_Node000009"><a xlink:title=" ">
<path fill="none" stroke="#63b8ff" d="M684.19,-115.8C696.24,-114.08 708.36,-112.54 720,-111.35 878.09,-95.16 1064.21,-94.51 1167.27,-95.75"/>
<polygon fill="#63b8ff" stroke="#63b8ff" points="1167.24,-99.25 1177.28,-95.88 1167.33,-92.25 1167.24,-99.25"/>
</a>
</g>
</g>
<!-- Node10 -->
<g id="Node000010" class="node">
<title>Node10</title>
<g id="a_Node000010"><a xlink:href="classcom_1_1teragrep_1_1pth__06_1_1ast_1_1transform_1_1WithDefaultValues.html#af8c587422cbf070fc6fea9aba68705d9" target="_top" xlink:title=" ">
<polygon fill="white" stroke="#666666" points="911,-150.35 721,-150.35 721,-120.35 911,-120.35 911,-150.35"/>
<text text-anchor="start" x="729" y="-138.35" font-family="Helvetica,sans-Serif" font-size="10.00">com.teragrep.pth_06.ast.transform.</text>
<text text-anchor="middle" x="816" y="-127.35" font-family="Helvetica,sans-Serif" font-size="10.00">WithDefaultValues.orWithDefaults</text>
</a>
</g>
</g>
<!-- Node6&#45;&gt;Node10 -->
<g id="edge18_Node000006_Node000010" class="edge">
<title>Node6&#45;&gt;Node10</title>
<g id="a_edge18_Node000006_Node000010"><a xlink:title=" ">
<path fill="none" stroke="#63b8ff" d="M684.04,-128.62C692.84,-128.58 701.73,-128.59 710.51,-128.65"/>
<polygon fill="#63b8ff" stroke="#63b8ff" points="710.72,-132.15 720.75,-128.74 710.78,-125.15 710.72,-132.15"/>
</a>
</g>
</g>
<!-- Node7&#45;&gt;Node2 -->
<g id="edge8_Node000007_Node000002" class="edge">
<title>Node7&#45;&gt;Node2</title>
<g id="a_edge8_Node000007_Node000002"><a xlink:title=" ">
<path fill="none" stroke="#63b8ff" d="M829.63,-198.54C851.06,-223.08 897.19,-270.76 948,-291.35 1018.29,-319.82 1105.42,-323.61 1167.27,-321.62"/>
<polygon fill="#63b8ff" stroke="#63b8ff" points="1167.5,-325.11 1177.36,-321.23 1167.23,-318.12 1167.5,-325.11"/>
</a>
</g>
</g>
<!-- Node7&#45;&gt;Node3 -->
<g id="edge9_Node000007_Node000003" class="edge">
<title>Node7&#45;&gt;Node3</title>
<g id="a_edge9_Node000007_Node000003"><a xlink:title=" ">
<path fill="none" stroke="#63b8ff" d="M858.85,-198.35C884.26,-206.66 917.57,-216.13 948,-220.35 1020.48,-230.39 1103.76,-225.68 1163.81,-219.46"/>
<polygon fill="#63b8ff" stroke="#63b8ff" points="1164.43,-222.91 1174,-218.36 1163.68,-215.95 1164.43,-222.91"/>
</a>
</g>
</g>
<!-- Node7&#45;&gt;Node6 -->
<g id="edge16_Node000007_Node000006" class="edge">
<title>Node7&#45;&gt;Node6</title>
<g id="a_edge16_Node000007_Node000006"><a xlink:title=" ">
<path fill="none" stroke="#63b8ff" d="M719.67,-170.86C698.76,-166.89 676.81,-162.43 656.52,-158.01"/>
<polygon fill="#63b8ff" stroke="#63b8ff" points="657.23,-154.58 646.71,-155.85 655.72,-161.42 657.23,-154.58"/>
</a>
</g>
</g>
<!-- Node8 -->
<g id="Node000008" class="node">
<title>Node8</title>
<g id="a_Node000008"><a xlink:href="classcom_1_1teragrep_1_1pth__06_1_1ast_1_1transform_1_1WithDefaultValues.html#a42a39b9992cc004453cd026fbc106b36" target="_top" xlink:title=" ">
<polygon fill="white" stroke="#666666" points="1138,-193.35 948,-193.35 948,-163.35 1138,-163.35 1138,-193.35"/>
<text text-anchor="start" x="956" y="-181.35" font-family="Helvetica,sans-Serif" font-size="10.00">com.teragrep.pth_06.ast.transform.</text>
<text text-anchor="middle" x="1043" y="-170.35" font-family="Helvetica,sans-Serif" font-size="10.00">WithDefaultValues.expressionTags</text>
</a>
</g>
</g>
<!-- Node7&#45;&gt;Node8 -->
<g id="edge10_Node000007_Node000008" class="edge">
<title>Node7&#45;&gt;Node8</title>
<g id="a_edge10_Node000007_Node000008"><a xlink:title=" ">
<path fill="none" stroke="#63b8ff" d="M912.09,-181.23C920.63,-181.04 929.3,-180.85 937.9,-180.66"/>
<polygon fill="#63b8ff" stroke="#63b8ff" points="938.04,-184.16 947.96,-180.44 937.89,-177.16 938.04,-184.16"/>
</a>
</g>
</g>
<!-- Node8&#45;&gt;Node2 -->
<g id="edge11_Node000008_Node000002" class="edge">
<title>Node8&#45;&gt;Node2</title>
<g id="a_edge11_Node000008_Node000002"><a xlink:title=" ">
<path fill="none" stroke="#63b8ff" d="M1066.39,-193.53C1102.66,-218.13 1174.32,-266.74 1215.32,-294.54"/>
<polygon fill="#63b8ff" stroke="#63b8ff" points="1213.58,-297.59 1223.82,-300.3 1217.51,-291.79 1213.58,-297.59"/>
</a>
</g>
</g>
<!-- Node8&#45;&gt;Node3 -->
<g id="edge12_Node000008_Node000003" class="edge">
<title>Node8&#45;&gt;Node3</title>
<g id="a_edge12_Node000008_Node000003"><a xlink:title=" ">
<path fill="none" stroke="#63b8ff" d="M1138.2,-192.34C1146.68,-193.6 1155.23,-194.87 1163.6,-196.11"/>
<polygon fill="#63b8ff" stroke="#63b8ff" points="1163.3,-199.6 1173.7,-197.61 1164.33,-192.68 1163.3,-199.6"/>
</a>
</g>
</g>
<!-- Node8&#45;&gt;Node5 -->
<g id="edge14_Node000008_Node000005" class="edge">
<title>Node8&#45;&gt;Node5</title>
<g id="a_edge14_Node000008_Node000005"><a xlink:title=" ">
<path fill="none" stroke="#63b8ff" d="M1062.47,-163.34C1087.63,-142.91 1134.12,-105.24 1174,-73.35 1188.75,-61.56 1205.26,-48.48 1218.74,-37.82"/>
<polygon fill="#63b8ff" stroke="#63b8ff" points="1221.03,-40.48 1226.71,-31.54 1216.69,-34.99 1221.03,-40.48"/>
</a>
</g>
</g>
<!-- Node8&#45;&gt;Node8 -->
<g id="edge13_Node000008_Node000008" class="edge">
<title>Node8&#45;&gt;Node8</title>
<g id="a_edge13_Node000008_Node000008"><a xlink:title=" ">
<path fill="none" stroke="#63b8ff" d="M1007.14,-193.62C999.17,-202.75 1011.12,-211.35 1043,-211.35 1061.93,-211.35 1073.83,-208.32 1078.71,-203.94"/>
<polygon fill="#63b8ff" stroke="#63b8ff" points="1082.21,-203.67 1078.86,-193.62 1075.21,-203.57 1082.21,-203.67"/>
</a>
</g>
</g>
<!-- Node8&#45;&gt;Node9 -->
<g id="edge15_Node000008_Node000009" class="edge">
<title>Node8&#45;&gt;Node9</title>
<g id="a_edge15_Node000008_Node000009"><a xlink:title=" ">
<path fill="none" stroke="#63b8ff" d="M1081.52,-163.3C1114.58,-150.04 1162.9,-130.67 1198.62,-116.35"/>
<polygon fill="#63b8ff" stroke="#63b8ff" points="1200.36,-119.42 1208.34,-112.45 1197.75,-112.92 1200.36,-119.42"/>
</a>
</g>
</g>
<!-- Node10&#45;&gt;Node2 -->
<g id="edge19_Node000010_Node000002" class="edge">
<title>Node10&#45;&gt;Node2</title>
<g id="a_edge19_Node000010_Node000002"><a xlink:title=" ">
<path fill="none" stroke="#63b8ff" d="M896.97,-150.37C902.29,-152.91 907.37,-155.88 912,-159.35 937.2,-178.21 923.39,-200.72 948,-220.35 982.64,-247.97 1094.19,-278.97 1170.53,-297.83"/>
<polygon fill="#63b8ff" stroke="#63b8ff" points="1170.05,-301.31 1180.59,-300.29 1171.71,-294.51 1170.05,-301.31"/>
</a>
</g>
</g>
<!-- Node10&#45;&gt;Node3 -->
<g id="edge20_Node000010_Node000003" class="edge">
<title>Node10&#45;&gt;Node3</title>
<g id="a_edge20_Node000010_Node000003"><a xlink:title=" ">
<path fill="none" stroke="#63b8ff" d="M911.29,-131.05C976.11,-130.47 1063.58,-134.44 1138,-154.35 1164.99,-161.57 1193.15,-175.91 1213.95,-187.99"/>
<polygon fill="#63b8ff" stroke="#63b8ff" points="1212.28,-191.08 1222.67,-193.18 1215.86,-185.06 1212.28,-191.08"/>
</a>
</g>
</g>
<!-- Node10&#45;&gt;Node5 -->
<g id="edge22_Node000010_Node000005" class="edge">
<title>Node10&#45;&gt;Node5</title>
<g id="a_edge22_Node000010_Node000005"><a xlink:title=" ">
<path fill="none" stroke="#63b8ff" d="M871.33,-120.28C950.6,-98.29 1097.67,-57.49 1182.05,-34.09"/>
<polygon fill="#63b8ff" stroke="#63b8ff" points="1183.07,-37.44 1191.77,-31.39 1181.2,-30.69 1183.07,-37.44"/>
</a>
</g>
</g>
<!-- Node10&#45;&gt;Node6 -->
<g id="edge23_Node000010_Node000006" class="edge">
<title>Node10&#45;&gt;Node6</title>
<g id="a_edge23_Node000010_Node000006"><a xlink:title=" ">
<path fill="none" stroke="#63b8ff" d="M720.75,-141.96C712,-142.06 703.05,-142.1 694.11,-142.1"/>
<polygon fill="#63b8ff" stroke="#63b8ff" points="694.05,-138.6 684.04,-142.07 694.03,-145.6 694.05,-138.6"/>
</a>
</g>
</g>
<!-- Node10&#45;&gt;Node8 -->
<g id="edge21_Node000010_Node000008" class="edge">
<title>Node10&#45;&gt;Node8</title>
<g id="a_edge21_Node000010_Node000008"><a xlink:title=" ">
<path fill="none" stroke="#63b8ff" d="M895.69,-150.39C914.36,-153.95 934.4,-157.78 953.48,-161.43"/>
<polygon fill="#63b8ff" stroke="#63b8ff" points="952.87,-164.88 963.35,-163.32 954.19,-158 952.87,-164.88"/>
</a>
</g>
</g>
<!-- Node10&#45;&gt;Node9 -->
<g id="edge24_Node000010_Node000009" class="edge">
<title>Node10&#45;&gt;Node9</title>
<g id="a_edge24_Node000010_Node000009"><a xlink:title=" ">
<path fill="none" stroke="#63b8ff" d="M911.07,-125C923.48,-123.72 936.04,-122.47 948,-121.35 1022.25,-114.39 1107.03,-107.68 1167.13,-103.14"/>
<polygon fill="#63b8ff" stroke="#63b8ff" points="1167.6,-106.61 1177.31,-102.37 1167.07,-99.63 1167.6,-106.61"/>
</a>
</g>
</g>
</g>
</svg>
