<?xml version="1.0" encoding="UTF-8" standalone="no"?>
<!DOCTYPE svg PUBLIC "-//W3C//DTD SVG 1.1//EN"
 "http://www.w3.org/Graphics/SVG/1.1/DTD/svg11.dtd">
<!-- Generated by graphviz version 2.43.0 (0)
 -->
<!-- Title: com.teragrep.pth_06.ast.meta.StreamDBConditionTest.testIndexNotEquals Pages: 1 -->
<svg width="662pt" height="122pt"
 viewBox="0.00 0.00 662.00 122.00" xmlns="http://www.w3.org/2000/svg" xmlns:xlink="http://www.w3.org/1999/xlink">
<g id="graph0" class="graph" transform="scale(1 1) rotate(0) translate(4 118)">
<title>com.teragrep.pth_06.ast.meta.StreamDBConditionTest.testIndexNotEquals</title>
<!-- Node1 -->
<g id="Node000001" class="node">
<title>Node1</title>
<g id="a_Node000001"><a xlink:title=" ">
<polygon fill="#999999" stroke="#666666" points="198,-68.5 0,-68.5 0,-27.5 198,-27.5 198,-68.5"/>
<text text-anchor="start" x="8" y="-56.5" font-family="Helvetica,sans-Serif" font-size="10.00">com.teragrep.pth_06.ast.meta.</text>
<text text-anchor="start" x="8" y="-45.5" font-family="Helvetica,sans-Serif" font-size="10.00">StreamDBConditionTest.testIndexNot</text>
<text text-anchor="middle" x="99" y="-34.5" font-family="Helvetica,sans-Serif" font-size="10.00">Equals</text>
</a>
</g>
</g>
<!-- Node2 -->
<g id="Node000002" class="node">
<title>Node2</title>
<g id="a_Node000002"><a xlink:href="classcom_1_1teragrep_1_1pth__06_1_1ast_1_1meta_1_1StreamDBCondition.html#a529cd38cec60771ddde6da97da36dd10" target="_top" xlink:title=" ">
<polygon fill="white" stroke="#666666" points="401,-63 234,-63 234,-33 401,-33 401,-63"/>
<text text-anchor="start" x="242" y="-51" font-family="Helvetica,sans-Serif" font-size="10.00">com.teragrep.pth_06.ast.meta.</text>
<text text-anchor="middle" x="317.5" y="-40" font-family="Helvetica,sans-Serif" font-size="10.00">StreamDBCondition.condition</text>
</a>
</g>
</g>
<!-- Node1&#45;&gt;Node2 -->
<g id="edge1_Node000001_Node000002" class="edge">
<title>Node1&#45;&gt;Node2</title>
<g id="a_edge1_Node000001_Node000002"><a xlink:title=" ">
<path fill="none" stroke="#63b8ff" d="M198.11,-48C206.63,-48 215.22,-48 223.69,-48"/>
<polygon fill="#63b8ff" stroke="#63b8ff" points="223.94,-51.5 233.94,-48 223.94,-44.5 223.94,-51.5"/>
</a>
</g>
</g>
<!-- Node3 -->
<g id="Node000003" class="node">
<title>Node3</title>
<g id="a_Node000003"><a xlink:href="classcom_1_1teragrep_1_1pth__06_1_1ast_1_1meta_1_1StreamDBCondition.html#a3e43c38cb0c9103e08f4b37e95e45b87" target="_top" xlink:title=" ">
<polygon fill="white" stroke="#666666" points="637,-96 454,-96 454,-66 637,-66 637,-96"/>
<text text-anchor="start" x="462" y="-84" font-family="Helvetica,sans-Serif" font-size="10.00">com.teragrep.pth_06.ast.meta.</text>
<text text-anchor="middle" x="545.5" y="-73" font-family="Helvetica,sans-Serif" font-size="10.00">StreamDBCondition.hostCondition</text>
</a>
</g>
</g>
<!-- Node2&#45;&gt;Node3 -->
<g id="edge2_Node000002_Node000003" class="edge">
<title>Node2&#45;&gt;Node3</title>
<g id="a_edge2_Node000002_Node000003"><a xlink:title=" ">
<path fill="none" stroke="#63b8ff" d="M401.05,-53.53C424.67,-56.62 450.2,-60.42 473.09,-64.25"/>
<polygon fill="#63b8ff" stroke="#63b8ff" points="472.61,-67.72 483.06,-65.95 473.79,-60.82 472.61,-67.72"/>
</a>
</g>
</g>
<!-- Node4 -->
<g id="Node000004" class="node">
<title>Node4</title>
<g id="a_Node000004"><a xlink:href="classcom_1_1teragrep_1_1pth__06_1_1ast_1_1meta_1_1StreamDBCondition.html#a2bedf2bbbbc73178de7e2c8872f8d486" target="_top" xlink:title=" ">
<polygon fill="white" stroke="#666666" points="654,-30 437,-30 437,0 654,0 654,-30"/>
<text text-anchor="start" x="445" y="-18" font-family="Helvetica,sans-Serif" font-size="10.00">com.teragrep.pth_06.ast.meta.</text>
<text text-anchor="middle" x="545.5" y="-7" font-family="Helvetica,sans-Serif" font-size="10.00">StreamDBCondition.sourceTypeCondition</text>
</a>
</g>
</g>
<!-- Node2&#45;&gt;Node4 -->
<g id="edge5_Node000002_Node000004" class="edge">
<title>Node2&#45;&gt;Node4</title>
<g id="a_edge5_Node000002_Node000004"><a xlink:title=" ">
<path fill="none" stroke="#63b8ff" d="M379.66,-33C394.27,-30.45 410.37,-27.88 426.59,-25.47"/>
<polygon fill="#63b8ff" stroke="#63b8ff" points="427.31,-28.9 436.7,-24 426.3,-21.98 427.31,-28.9"/>
</a>
</g>
</g>
<!-- Node3&#45;&gt;Node2 -->
<g id="edge3_Node000003_Node000002" class="edge">
<title>Node3&#45;&gt;Node2</title>
<g id="a_edge3_Node000003_Node000002"><a xlink:title=" ">
<path fill="none" stroke="#63b8ff" d="M453.57,-74.36C432.32,-71.48 409.98,-68.11 389.73,-64.72"/>
<polygon fill="#63b8ff" stroke="#63b8ff" points="390.11,-61.24 379.66,-63 388.93,-68.14 390.11,-61.24"/>
</a>
</g>
</g>
<!-- Node3&#45;&gt;Node3 -->
<g id="edge4_Node000003_Node000003" class="edge">
<title>Node3&#45;&gt;Node3</title>
<g id="a_edge4_Node000003_Node000003"><a xlink:title=" ">
<path fill="none" stroke="#63b8ff" d="M505.42,-96.28C496.52,-105.41 509.88,-114 545.5,-114 566.65,-114 579.96,-110.97 585.41,-106.6"/>
<polygon fill="#63b8ff" stroke="#63b8ff" points="588.91,-106.33 585.58,-96.28 581.91,-106.22 588.91,-106.33"/>
</a>
</g>
</g>
<!-- Node4&#45;&gt;Node2 -->
<g id="edge6_Node000004_Node000002" class="edge">
<title>Node4&#45;&gt;Node2</title>
<g id="a_edge6_Node000004_Node000002"><a xlink:title=" ">
<path fill="none" stroke="#63b8ff" d="M483.06,-30.05C460.86,-33.91 435.27,-37.84 411,-41.14"/>
<polygon fill="#63b8ff" stroke="#63b8ff" points="410.5,-37.68 401.05,-42.47 411.43,-44.62 410.5,-37.68"/>
</a>
</g>
</g>
<!-- Node4&#45;&gt;Node4 -->
<g id="edge7_Node000004_Node000004" class="edge">
<title>Node4&#45;&gt;Node4</title>
<g id="a_edge7_Node000004_Node000004"><a xlink:title=" ">
<path fill="none" stroke="#63b8ff" d="M505.42,-30.28C496.52,-39.41 509.88,-48 545.5,-48 566.65,-48 579.96,-44.97 585.41,-40.6"/>
<polygon fill="#63b8ff" stroke="#63b8ff" points="588.91,-40.33 585.58,-30.28 581.91,-40.22 588.91,-40.33"/>
</a>
</g>
</g>
</g>
</svg>
