<?xml version="1.0" encoding="UTF-8" standalone="no"?>
<!DOCTYPE svg PUBLIC "-//W3C//DTD SVG 1.1//EN"
 "http://www.w3.org/Graphics/SVG/1.1/DTD/svg11.dtd">
<!-- Generated by graphviz version 2.43.0 (0)
 -->
<!-- Title: com.teragrep.pth_06.ast.xml.XMLQueryTest.testAST Pages: 1 -->
<svg width="701pt" height="182pt"
 viewBox="0.00 0.00 701.00 182.00" xmlns="http://www.w3.org/2000/svg" xmlns:xlink="http://www.w3.org/1999/xlink">
<g id="graph0" class="graph" transform="scale(1 1) rotate(0) translate(4 178)">
<title>com.teragrep.pth_06.ast.xml.XMLQueryTest.testAST</title>
<!-- Node1 -->
<g id="Node000001" class="node">
<title>Node1</title>
<g id="a_Node000001"><a xlink:title=" ">
<polygon fill="#999999" stroke="#666666" points="161,-102 0,-102 0,-72 161,-72 161,-102"/>
<text text-anchor="start" x="8" y="-90" font-family="Helvetica,sans-Serif" font-size="10.00">com.teragrep.pth_06.ast.xml.</text>
<text text-anchor="middle" x="80.5" y="-79" font-family="Helvetica,sans-Serif" font-size="10.00">XMLQueryTest.testAST</text>
</a>
</g>
</g>
<!-- Node2 -->
<g id="Node000002" class="node">
<title>Node2</title>
<g id="a_Node000002"><a xlink:href="classcom_1_1teragrep_1_1pth__06_1_1ast_1_1PrintAST.html#a6d19faf2a03db43b43a62752165007c1" target="_top" xlink:title=" ">
<polygon fill="white" stroke="#666666" points="336,-102 197,-102 197,-72 336,-72 336,-102"/>
<text text-anchor="start" x="205" y="-90" font-family="Helvetica,sans-Serif" font-size="10.00">com.teragrep.pth_06.ast.</text>
<text text-anchor="middle" x="266.5" y="-79" font-family="Helvetica,sans-Serif" font-size="10.00">PrintAST.print</text>
</a>
</g>
</g>
<!-- Node1&#45;&gt;Node2 -->
<g id="edge1_Node000001_Node000002" class="edge">
<title>Node1&#45;&gt;Node2</title>
<g id="a_edge1_Node000001_Node000002"><a xlink:title=" ">
<path fill="none" stroke="#63b8ff" d="M161.13,-87C169.63,-87 178.26,-87 186.75,-87"/>
<polygon fill="#63b8ff" stroke="#63b8ff" points="187,-90.5 197,-87 187,-83.5 187,-90.5"/>
</a>
</g>
</g>
<!-- Node3 -->
<g id="Node000003" class="node">
<title>Node3</title>
<g id="a_Node000003"><a xlink:href="classcom_1_1teragrep_1_1pth__06_1_1ast_1_1PrintAST.html#ab5fd085ad34f3b92b49c29a239d12de7" target="_top" xlink:title=" ">
<polygon fill="white" stroke="#666666" points="511,-102 372,-102 372,-72 511,-72 511,-102"/>
<text text-anchor="start" x="380" y="-90" font-family="Helvetica,sans-Serif" font-size="10.00">com.teragrep.pth_06.ast.</text>
<text text-anchor="middle" x="441.5" y="-79" font-family="Helvetica,sans-Serif" font-size="10.00">PrintAST.printWithIndent</text>
</a>
</g>
</g>
<!-- Node2&#45;&gt;Node3 -->
<g id="edge2_Node000002_Node000003" class="edge">
<title>Node2&#45;&gt;Node3</title>
<g id="a_edge2_Node000002_Node000003"><a xlink:title=" ">
<path fill="none" stroke="#63b8ff" d="M336.37,-87C344.68,-87 353.21,-87 361.65,-87"/>
<polygon fill="#63b8ff" stroke="#63b8ff" points="361.87,-90.5 371.87,-87 361.87,-83.5 361.87,-90.5"/>
</a>
</g>
</g>
<!-- Node3&#45;&gt;Node3 -->
<g id="edge6_Node000003_Node000003" class="edge">
<title>Node3&#45;&gt;Node3</title>
<g id="a_edge6_Node000003_Node000003"><a xlink:title=" ">
<path fill="none" stroke="#63b8ff" d="M410.91,-102.28C404.12,-111.41 414.31,-120 441.5,-120 457.64,-120 467.79,-116.97 471.96,-112.6"/>
<polygon fill="#63b8ff" stroke="#63b8ff" points="475.46,-112.32 472.09,-102.28 468.46,-112.23 475.46,-112.32"/>
</a>
</g>
</g>
<!-- Node4 -->
<g id="Node000004" class="node">
<title>Node4</title>
<g id="a_Node000004"><a xlink:href="interfacecom_1_1teragrep_1_1pth__06_1_1ast_1_1Expression.html#a17e7d33905be57c6e22e1717da6ddef6" target="_top" xlink:title=" ">
<polygon fill="white" stroke="#666666" points="689.5,-174 550.5,-174 550.5,-144 689.5,-144 689.5,-174"/>
<text text-anchor="start" x="558.5" y="-162" font-family="Helvetica,sans-Serif" font-size="10.00">com.teragrep.pth_06.ast.</text>
<text text-anchor="middle" x="620" y="-151" font-family="Helvetica,sans-Serif" font-size="10.00">Expression.asLogical</text>
</a>
</g>
</g>
<!-- Node3&#45;&gt;Node4 -->
<g id="edge3_Node000003_Node000004" class="edge">
<title>Node3&#45;&gt;Node4</title>
<g id="a_edge3_Node000003_Node000004"><a xlink:title=" ">
<path fill="none" stroke="#63b8ff" d="M473.21,-102.18C493.83,-112.1 521.75,-125.03 547,-135 551.78,-136.89 556.77,-138.76 561.81,-140.57"/>
<polygon fill="#63b8ff" stroke="#63b8ff" points="560.89,-143.96 571.49,-143.98 563.21,-137.36 560.89,-143.96"/>
</a>
</g>
</g>
<!-- Node5 -->
<g id="Node000005" class="node">
<title>Node5</title>
<g id="a_Node000005"><a xlink:href="interfacecom_1_1teragrep_1_1pth__06_1_1ast_1_1LogicalExpression.html#aeaf8fe296c6899792f345659a9a6c0c4" target="_top" xlink:title=" ">
<polygon fill="white" stroke="#666666" points="693,-126 547,-126 547,-96 693,-96 693,-126"/>
<text text-anchor="start" x="555" y="-114" font-family="Helvetica,sans-Serif" font-size="10.00">com.teragrep.pth_06.ast.</text>
<text text-anchor="middle" x="620" y="-103" font-family="Helvetica,sans-Serif" font-size="10.00">LogicalExpression.children</text>
</a>
</g>
</g>
<!-- Node3&#45;&gt;Node5 -->
<g id="edge4_Node000003_Node000005" class="edge">
<title>Node3&#45;&gt;Node5</title>
<g id="a_edge4_Node000003_Node000005"><a xlink:title=" ">
<path fill="none" stroke="#63b8ff" d="M511.24,-96.35C519.66,-97.49 528.33,-98.67 536.92,-99.84"/>
<polygon fill="#63b8ff" stroke="#63b8ff" points="536.57,-103.32 546.95,-101.2 537.51,-96.39 536.57,-103.32"/>
</a>
</g>
</g>
<!-- Node6 -->
<g id="Node000006" class="node">
<title>Node6</title>
<g id="a_Node000006"><a xlink:href="interfacecom_1_1teragrep_1_1pth__06_1_1ast_1_1Expression.html#a65ee7f5fb98e4129018f467a53586842" target="_top" xlink:title=" ">
<polygon fill="white" stroke="#666666" points="689.5,-78 550.5,-78 550.5,-48 689.5,-48 689.5,-78"/>
<text text-anchor="start" x="558.5" y="-66" font-family="Helvetica,sans-Serif" font-size="10.00">com.teragrep.pth_06.ast.</text>
<text text-anchor="middle" x="620" y="-55" font-family="Helvetica,sans-Serif" font-size="10.00">Expression.isLogical</text>
</a>
</g>
</g>
<!-- Node3&#45;&gt;Node6 -->
<g id="edge5_Node000003_Node000006" class="edge">
<title>Node3&#45;&gt;Node6</title>
<g id="a_edge5_Node000003_Node000006"><a xlink:title=" ">
<path fill="none" stroke="#63b8ff" d="M511.24,-77.65C520.8,-76.35 530.68,-75.01 540.39,-73.69"/>
<polygon fill="#63b8ff" stroke="#63b8ff" points="541.01,-77.14 550.44,-72.32 540.06,-70.2 541.01,-77.14"/>
</a>
</g>
</g>
<!-- Node7 -->
<g id="Node000007" class="node">
<title>Node7</title>
<g id="a_Node000007"><a xlink:href="interfacecom_1_1teragrep_1_1pth__06_1_1ast_1_1Expression.html#a8b9661253a3610b9eb148ee29ca8b7e1" target="_top" xlink:title=" ">
<polygon fill="white" stroke="#666666" points="689.5,-30 550.5,-30 550.5,0 689.5,0 689.5,-30"/>
<text text-anchor="start" x="558.5" y="-18" font-family="Helvetica,sans-Serif" font-size="10.00">com.teragrep.pth_06.ast.</text>
<text text-anchor="middle" x="620" y="-7" font-family="Helvetica,sans-Serif" font-size="10.00">Expression.tag</text>
</a>
</g>
</g>
<!-- Node3&#45;&gt;Node7 -->
<g id="edge7_Node000003_Node000007" class="edge">
<title>Node3&#45;&gt;Node7</title>
<g id="a_edge7_Node000003_Node000007"><a xlink:title=" ">
<path fill="none" stroke="#63b8ff" d="M473.21,-71.82C493.83,-61.9 521.75,-48.97 547,-39 551.78,-37.11 556.77,-35.24 561.81,-33.43"/>
<polygon fill="#63b8ff" stroke="#63b8ff" points="563.21,-36.64 571.49,-30.02 560.89,-30.04 563.21,-36.64"/>
</a>
</g>
</g>
</g>
</svg>
