<?xml version="1.0" encoding="UTF-8" standalone="no"?>
<!DOCTYPE svg PUBLIC "-//W3C//DTD SVG 1.1//EN"
 "http://www.w3.org/Graphics/SVG/1.1/DTD/svg11.dtd">
<!-- Generated by graphviz version 2.43.0 (0)
 -->
<!-- Title: com.teragrep.pth_06.ast.analyze.ScanRangeImpl.merge Pages: 1 -->
<svg width="620pt" height="182pt"
 viewBox="0.00 0.00 620.00 182.00" xmlns="http://www.w3.org/2000/svg" xmlns:xlink="http://www.w3.org/1999/xlink">
<g id="graph0" class="graph" transform="scale(1 1) rotate(0) translate(4 178)">
<title>com.teragrep.pth_06.ast.analyze.ScanRangeImpl.merge</title>
<!-- Node1 -->
<g id="Node000001" class="node">
<title>Node1</title>
<g id="a_Node000001"><a xlink:title="Merge two ScanRanges with the smaller earliest and larger latest values.">
<polygon fill="#999999" stroke="#666666" points="180,-102 0,-102 0,-72 180,-72 180,-102"/>
<text text-anchor="start" x="8" y="-90" font-family="Helvetica,sans-Serif" font-size="10.00">com.teragrep.pth_06.ast.analyze.</text>
<text text-anchor="middle" x="90" y="-79" font-family="Helvetica,sans-Serif" font-size="10.00">ScanRangeImpl.merge</text>
</a>
</g>
</g>
<!-- Node2 -->
<g id="Node000002" class="node">
<title>Node2</title>
<g id="a_Node000002"><a xlink:href="interfacecom_1_1teragrep_1_1pth__06_1_1ast_1_1analyze_1_1ScanRange.html#af3e0e62798cdf3e3f8de2b8fa8c17483" target="_top" xlink:title=" ">
<polygon fill="white" stroke="#666666" points="612,-174 432,-174 432,-144 612,-144 612,-174"/>
<text text-anchor="start" x="440" y="-162" font-family="Helvetica,sans-Serif" font-size="10.00">com.teragrep.pth_06.ast.analyze.</text>
<text text-anchor="middle" x="522" y="-151" font-family="Helvetica,sans-Serif" font-size="10.00">ScanRange.earliest</text>
</a>
</g>
</g>
<!-- Node1&#45;&gt;Node2 -->
<g id="edge1_Node000001_Node000002" class="edge">
<title>Node1&#45;&gt;Node2</title>
<g id="a_edge1_Node000001_Node000002"><a xlink:title=" ">
<path fill="none" stroke="#63b8ff" d="M166.94,-102C183.12,-105.08 200.11,-108.22 216,-111 284.51,-122.96 361.92,-135.13 421.61,-144.22"/>
<polygon fill="#63b8ff" stroke="#63b8ff" points="421.37,-147.73 431.78,-145.77 422.42,-140.8 421.37,-147.73"/>
</a>
</g>
</g>
<!-- Node3 -->
<g id="Node000003" class="node">
<title>Node3</title>
<g id="a_Node000003"><a xlink:href="classcom_1_1teragrep_1_1pth__06_1_1ast_1_1analyze_1_1ScanRangeImpl.html#a80d3f9ee0442f83f46b6808062752f2d" target="_top" xlink:title="Returns true if the ranges overlap or touch.">
<polygon fill="white" stroke="#666666" points="396,-102 216,-102 216,-72 396,-72 396,-102"/>
<text text-anchor="start" x="224" y="-90" font-family="Helvetica,sans-Serif" font-size="10.00">com.teragrep.pth_06.ast.analyze.</text>
<text text-anchor="middle" x="306" y="-79" font-family="Helvetica,sans-Serif" font-size="10.00">ScanRangeImpl.intersects</text>
</a>
</g>
</g>
<!-- Node1&#45;&gt;Node3 -->
<g id="edge2_Node000001_Node000003" class="edge">
<title>Node1&#45;&gt;Node3</title>
<g id="a_edge2_Node000001_Node000003"><a xlink:title=" ">
<path fill="none" stroke="#63b8ff" d="M180.21,-87C188.7,-87 197.34,-87 205.92,-87"/>
<polygon fill="#63b8ff" stroke="#63b8ff" points="205.94,-90.5 215.94,-87 205.94,-83.5 205.94,-90.5"/>
</a>
</g>
</g>
<!-- Node5 -->
<g id="Node000005" class="node">
<title>Node5</title>
<g id="a_Node000005"><a xlink:href="interfacecom_1_1teragrep_1_1pth__06_1_1ast_1_1analyze_1_1ScanRange.html#aa9f739fe5a03d00ccb23f407bf7c6ee5" target="_top" xlink:title=" ">
<polygon fill="white" stroke="#666666" points="612,-30 432,-30 432,0 612,0 612,-30"/>
<text text-anchor="start" x="440" y="-18" font-family="Helvetica,sans-Serif" font-size="10.00">com.teragrep.pth_06.ast.analyze.</text>
<text text-anchor="middle" x="522" y="-7" font-family="Helvetica,sans-Serif" font-size="10.00">ScanRange.latest</text>
</a>
</g>
</g>
<!-- Node1&#45;&gt;Node5 -->
<g id="edge7_Node000001_Node000005" class="edge">
<title>Node1&#45;&gt;Node5</title>
<g id="a_edge7_Node000001_Node000005"><a xlink:title=" ">
<path fill="none" stroke="#63b8ff" d="M166.94,-72C183.12,-68.92 200.11,-65.78 216,-63 284.51,-51.04 361.92,-38.87 421.61,-29.78"/>
<polygon fill="#63b8ff" stroke="#63b8ff" points="422.42,-33.2 431.78,-28.23 421.37,-26.27 422.42,-33.2"/>
</a>
</g>
</g>
<!-- Node3&#45;&gt;Node2 -->
<g id="edge3_Node000003_Node000002" class="edge">
<title>Node3&#45;&gt;Node2</title>
<g id="a_edge3_Node000003_Node000002"><a xlink:title=" ">
<path fill="none" stroke="#63b8ff" d="M343.29,-102.08C368.05,-112.08 401.72,-125.13 432,-135 438.44,-137.1 445.18,-139.16 451.96,-141.14"/>
<polygon fill="#63b8ff" stroke="#63b8ff" points="451.29,-144.59 461.86,-143.97 453.21,-137.86 451.29,-144.59"/>
</a>
</g>
</g>
<!-- Node4 -->
<g id="Node000004" class="node">
<title>Node4</title>
<g id="a_Node000004"><a xlink:href="interfacecom_1_1teragrep_1_1pth__06_1_1ast_1_1analyze_1_1ScanRange.html#ae8cccfcfbc5766ca12c70ab3ac270ae1" target="_top" xlink:title=" ">
<polygon fill="white" stroke="#666666" points="612,-126 432,-126 432,-96 612,-96 612,-126"/>
<text text-anchor="start" x="440" y="-114" font-family="Helvetica,sans-Serif" font-size="10.00">com.teragrep.pth_06.ast.analyze.</text>
<text text-anchor="middle" x="522" y="-103" font-family="Helvetica,sans-Serif" font-size="10.00">ScanRange.filterList</text>
</a>
</g>
</g>
<!-- Node3&#45;&gt;Node4 -->
<g id="edge4_Node000003_Node000004" class="edge">
<title>Node3&#45;&gt;Node4</title>
<g id="a_edge4_Node000003_Node000004"><a xlink:title=" ">
<path fill="none" stroke="#63b8ff" d="M396.21,-97C404.7,-97.96 413.34,-98.93 421.92,-99.89"/>
<polygon fill="#63b8ff" stroke="#63b8ff" points="421.61,-103.38 431.94,-101.01 422.39,-96.42 421.61,-103.38"/>
</a>
</g>
</g>
<!-- Node3&#45;&gt;Node5 -->
<g id="edge5_Node000003_Node000005" class="edge">
<title>Node3&#45;&gt;Node5</title>
<g id="a_edge5_Node000003_Node000005"><a xlink:title=" ">
<path fill="none" stroke="#63b8ff" d="M353.08,-71.99C366.99,-67.18 382.22,-61.64 396,-56 412.38,-49.3 415.39,-45.11 432,-39 437.58,-36.95 443.42,-34.99 449.32,-33.13"/>
<polygon fill="#63b8ff" stroke="#63b8ff" points="450.71,-36.37 459.27,-30.11 448.68,-29.67 450.71,-36.37"/>
</a>
</g>
</g>
<!-- Node6 -->
<g id="Node000006" class="node">
<title>Node6</title>
<g id="a_Node000006"><a xlink:href="interfacecom_1_1teragrep_1_1pth__06_1_1ast_1_1analyze_1_1ScanRange.html#aed21a820511e1742fee6656a28b2b059" target="_top" xlink:title=" ">
<polygon fill="white" stroke="#666666" points="612,-78 432,-78 432,-48 612,-48 612,-78"/>
<text text-anchor="start" x="440" y="-66" font-family="Helvetica,sans-Serif" font-size="10.00">com.teragrep.pth_06.ast.analyze.</text>
<text text-anchor="middle" x="522" y="-55" font-family="Helvetica,sans-Serif" font-size="10.00">ScanRange.streamId</text>
</a>
</g>
</g>
<!-- Node3&#45;&gt;Node6 -->
<g id="edge6_Node000003_Node000006" class="edge">
<title>Node3&#45;&gt;Node6</title>
<g id="a_edge6_Node000003_Node000006"><a xlink:title=" ">
<path fill="none" stroke="#63b8ff" d="M396.21,-77C404.7,-76.04 413.34,-75.07 421.92,-74.11"/>
<polygon fill="#63b8ff" stroke="#63b8ff" points="422.39,-77.58 431.94,-72.99 421.61,-70.62 422.39,-77.58"/>
</a>
</g>
</g>
</g>
</svg>
