<?xml version="1.0" encoding="UTF-8" standalone="no"?>
<!DOCTYPE svg PUBLIC "-//W3C//DTD SVG 1.1//EN"
 "http://www.w3.org/Graphics/SVG/1.1/DTD/svg11.dtd">
<!-- Generated by graphviz version 2.43.0 (0)
 -->
<!-- Title: com.teragrep.pth_06.ast.expressions.HostExpressionTest.testValues Pages: 1 -->
<svg width="444pt" height="230pt"
 viewBox="0.00 0.00 444.00 230.00" xmlns="http://www.w3.org/2000/svg" xmlns:xlink="http://www.w3.org/1999/xlink">
<g id="graph0" class="graph" transform="scale(1 1) rotate(0) translate(4 226)">
<title>com.teragrep.pth_06.ast.expressions.HostExpressionTest.testValues</title>
<!-- Node1 -->
<g id="Node000001" class="node">
<title>Node1</title>
<g id="a_Node000001"><a xlink:title=" ">
<polygon fill="#999999" stroke="#666666" points="200,-126 0,-126 0,-96 200,-96 200,-126"/>
<text text-anchor="start" x="8" y="-114" font-family="Helvetica,sans-Serif" font-size="10.00">com.teragrep.pth_06.ast.expressions.</text>
<text text-anchor="middle" x="100" y="-103" font-family="Helvetica,sans-Serif" font-size="10.00">HostExpressionTest.testValues</text>
</a>
</g>
</g>
<!-- Node2 -->
<g id="Node000002" class="node">
<title>Node2</title>
<g id="a_Node000002"><a xlink:href="interfacecom_1_1teragrep_1_1pth__06_1_1ast_1_1expressions_1_1Expression.html#a21595757d1c0226920f51b78fbc21f2d" target="_top" xlink:title=" ">
<polygon fill="white" stroke="#666666" points="436,-222 236,-222 236,-192 436,-192 436,-222"/>
<text text-anchor="start" x="244" y="-210" font-family="Helvetica,sans-Serif" font-size="10.00">com.teragrep.pth_06.ast.expressions.</text>
<text text-anchor="middle" x="336" y="-199" font-family="Helvetica,sans-Serif" font-size="10.00">Expression.isLogical</text>
</a>
</g>
</g>
<!-- Node1&#45;&gt;Node2 -->
<g id="edge1_Node000001_Node000002" class="edge">
<title>Node1&#45;&gt;Node2</title>
<g id="a_edge1_Node000001_Node000002"><a xlink:title=" ">
<path fill="none" stroke="#63b8ff" d="M125,-126.21C151.34,-142.31 195.29,-167.5 236,-183 241.75,-185.19 247.76,-187.23 253.86,-189.11"/>
<polygon fill="#63b8ff" stroke="#63b8ff" points="252.92,-192.48 263.5,-191.95 254.89,-185.77 252.92,-192.48"/>
</a>
</g>
</g>
<!-- Node3 -->
<g id="Node000003" class="node">
<title>Node3</title>
<g id="a_Node000003"><a xlink:href="interfacecom_1_1teragrep_1_1pth__06_1_1ast_1_1expressions_1_1Expression.html#af5195563af5fbfb8e0611495018bcb2e" target="_top" xlink:title=" ">
<polygon fill="white" stroke="#666666" points="436,-174 236,-174 236,-144 436,-144 436,-174"/>
<text text-anchor="start" x="244" y="-162" font-family="Helvetica,sans-Serif" font-size="10.00">com.teragrep.pth_06.ast.expressions.</text>
<text text-anchor="middle" x="336" y="-151" font-family="Helvetica,sans-Serif" font-size="10.00">Expression.isValue</text>
</a>
</g>
</g>
<!-- Node1&#45;&gt;Node3 -->
<g id="edge2_Node000001_Node000003" class="edge">
<title>Node1&#45;&gt;Node3</title>
<g id="a_edge2_Node000001_Node000003"><a xlink:title=" ">
<path fill="none" stroke="#63b8ff" d="M174.4,-126.06C199.01,-131.1 226.62,-136.77 251.92,-141.96"/>
<polygon fill="#63b8ff" stroke="#63b8ff" points="251.36,-145.42 261.86,-144 252.77,-138.56 251.36,-145.42"/>
</a>
</g>
</g>
<!-- Node4 -->
<g id="Node000004" class="node">
<title>Node4</title>
<g id="a_Node000004"><a xlink:href="interfacecom_1_1teragrep_1_1pth__06_1_1ast_1_1expressions_1_1ValueExpression.html#a1a7f265ebd90f3b157dd044f2b17a9bd" target="_top" xlink:title=" ">
<polygon fill="white" stroke="#666666" points="436,-126 236,-126 236,-96 436,-96 436,-126"/>
<text text-anchor="start" x="244" y="-114" font-family="Helvetica,sans-Serif" font-size="10.00">com.teragrep.pth_06.ast.expressions.</text>
<text text-anchor="middle" x="336" y="-103" font-family="Helvetica,sans-Serif" font-size="10.00">ValueExpression.operation</text>
</a>
</g>
</g>
<!-- Node1&#45;&gt;Node4 -->
<g id="edge3_Node000001_Node000004" class="edge">
<title>Node1&#45;&gt;Node4</title>
<g id="a_edge3_Node000001_Node000004"><a xlink:title=" ">
<path fill="none" stroke="#63b8ff" d="M200.24,-111C208.74,-111 217.38,-111 225.95,-111"/>
<polygon fill="#63b8ff" stroke="#63b8ff" points="225.98,-114.5 235.98,-111 225.98,-107.5 225.98,-114.5"/>
</a>
</g>
</g>
<!-- Node5 -->
<g id="Node000005" class="node">
<title>Node5</title>
<g id="a_Node000005"><a xlink:href="interfacecom_1_1teragrep_1_1pth__06_1_1ast_1_1expressions_1_1Expression.html#a73cd5ad815e33d65164545a64e6821d5" target="_top" xlink:title=" ">
<polygon fill="white" stroke="#666666" points="436,-78 236,-78 236,-48 436,-48 436,-78"/>
<text text-anchor="start" x="244" y="-66" font-family="Helvetica,sans-Serif" font-size="10.00">com.teragrep.pth_06.ast.expressions.</text>
<text text-anchor="middle" x="336" y="-55" font-family="Helvetica,sans-Serif" font-size="10.00">Expression.tag</text>
</a>
</g>
</g>
<!-- Node1&#45;&gt;Node5 -->
<g id="edge4_Node000001_Node000005" class="edge">
<title>Node1&#45;&gt;Node5</title>
<g id="a_edge4_Node000001_Node000005"><a xlink:title=" ">
<path fill="none" stroke="#63b8ff" d="M174.4,-95.94C199.01,-90.9 226.62,-85.23 251.92,-80.04"/>
<polygon fill="#63b8ff" stroke="#63b8ff" points="252.77,-83.44 261.86,-78 251.36,-76.58 252.77,-83.44"/>
</a>
</g>
</g>
<!-- Node6 -->
<g id="Node000006" class="node">
<title>Node6</title>
<g id="a_Node000006"><a xlink:href="interfacecom_1_1teragrep_1_1pth__06_1_1ast_1_1expressions_1_1ValueExpression.html#a1386ca8842586851ac682fdd9a052772" target="_top" xlink:title=" ">
<polygon fill="white" stroke="#666666" points="436,-30 236,-30 236,0 436,0 436,-30"/>
<text text-anchor="start" x="244" y="-18" font-family="Helvetica,sans-Serif" font-size="10.00">com.teragrep.pth_06.ast.expressions.</text>
<text text-anchor="middle" x="336" y="-7" font-family="Helvetica,sans-Serif" font-size="10.00">ValueExpression.value</text>
</a>
</g>
</g>
<!-- Node1&#45;&gt;Node6 -->
<g id="edge5_Node000001_Node000006" class="edge">
<title>Node1&#45;&gt;Node6</title>
<g id="a_edge5_Node000001_Node000006"><a xlink:title=" ">
<path fill="none" stroke="#63b8ff" d="M125,-95.79C151.34,-79.69 195.29,-54.5 236,-39 241.75,-36.81 247.76,-34.77 253.86,-32.89"/>
<polygon fill="#63b8ff" stroke="#63b8ff" points="254.89,-36.23 263.5,-30.05 252.92,-29.52 254.89,-36.23"/>
</a>
</g>
</g>
</g>
</svg>
