<?xml version="1.0" encoding="UTF-8" standalone="no"?>
<!DOCTYPE svg PUBLIC "-//W3C//DTD SVG 1.1//EN"
 "http://www.w3.org/Graphics/SVG/1.1/DTD/svg11.dtd">
<!-- Generated by graphviz version 2.43.0 (0)
 -->
<!-- Title: com.teragrep.pth_06.ast.transform.WithDefaultValues.orWithDefaults Pages: 1 -->
<svg width="1089pt" height="252pt"
 viewBox="0.00 0.00 1089.00 252.12" xmlns="http://www.w3.org/2000/svg" xmlns:xlink="http://www.w3.org/1999/xlink">
<g id="graph0" class="graph" transform="scale(1 1) rotate(0) translate(4 248.12)">
<title>com.teragrep.pth_06.ast.transform.WithDefaultValues.orWithDefaults</title>
<!-- Node1 -->
<g id="Node000001" class="node">
<title>Node1</title>
<g id="a_Node000001"><a xlink:title=" ">
<polygon fill="#999999" stroke="#666666" points="190,-108 0,-108 0,-78 190,-78 190,-108"/>
<text text-anchor="start" x="8" y="-96" font-family="Helvetica,sans-Serif" font-size="10.00">com.teragrep.pth_06.ast.transform.</text>
<text text-anchor="middle" x="95" y="-85" font-family="Helvetica,sans-Serif" font-size="10.00">WithDefaultValues.orWithDefaults</text>
</a>
</g>
</g>
<!-- Node2 -->
<g id="Node000002" class="node">
<title>Node2</title>
<g id="a_Node000002"><a xlink:href="interfacecom_1_1teragrep_1_1pth__06_1_1ast_1_1Expression.html#a17e7d33905be57c6e22e1717da6ddef6" target="_top" xlink:title=" ">
<polygon fill="white" stroke="#666666" points="1077.5,-154 938.5,-154 938.5,-124 1077.5,-124 1077.5,-154"/>
<text text-anchor="start" x="946.5" y="-142" font-family="Helvetica,sans-Serif" font-size="10.00">com.teragrep.pth_06.ast.</text>
<text text-anchor="middle" x="1008" y="-131" font-family="Helvetica,sans-Serif" font-size="10.00">Expression.asLogical</text>
</a>
</g>
</g>
<!-- Node1&#45;&gt;Node2 -->
<g id="edge1_Node000001_Node000002" class="edge">
<title>Node1&#45;&gt;Node2</title>
<g id="a_edge1_Node000001_Node000002"><a xlink:title=" ">
<path fill="none" stroke="#63b8ff" d="M125.88,-108.01C151.69,-120.23 190.36,-136.75 226,-145 517.82,-212.54 604.6,-236.23 899,-181 922.73,-176.55 947.94,-167.04 968.03,-158.2"/>
<polygon fill="#63b8ff" stroke="#63b8ff" points="969.5,-161.38 977.17,-154.07 966.61,-155 969.5,-161.38"/>
</a>
</g>
</g>
<!-- Node3 -->
<g id="Node000003" class="node">
<title>Node3</title>
<g id="a_Node000003"><a xlink:href="interfacecom_1_1teragrep_1_1pth__06_1_1ast_1_1LogicalExpression.html#aeaf8fe296c6899792f345659a9a6c0c4" target="_top" xlink:title=" ">
<polygon fill="white" stroke="#666666" points="1081,-78 935,-78 935,-48 1081,-48 1081,-78"/>
<text text-anchor="start" x="943" y="-66" font-family="Helvetica,sans-Serif" font-size="10.00">com.teragrep.pth_06.ast.</text>
<text text-anchor="middle" x="1008" y="-55" font-family="Helvetica,sans-Serif" font-size="10.00">LogicalExpression.children</text>
</a>
</g>
</g>
<!-- Node1&#45;&gt;Node3 -->
<g id="edge2_Node000001_Node000003" class="edge">
<title>Node1&#45;&gt;Node3</title>
<g id="a_edge2_Node000001_Node000003"><a xlink:title=" ">
<path fill="none" stroke="#63b8ff" d="M148.66,-77.99C172.12,-72.04 200.22,-65.94 226,-63 479.42,-34.14 782.1,-47.69 924.82,-56.91"/>
<polygon fill="#63b8ff" stroke="#63b8ff" points="924.61,-60.4 934.82,-57.57 925.07,-53.42 924.61,-60.4"/>
</a>
</g>
</g>
<!-- Node4 -->
<g id="Node000004" class="node">
<title>Node4</title>
<g id="a_Node000004"><a xlink:href="classcom_1_1teragrep_1_1pth__06_1_1ast_1_1transform_1_1WithDefaultValues.html#a42a39b9992cc004453cd026fbc106b36" target="_top" xlink:title=" ">
<polygon fill="white" stroke="#666666" points="899,-154 709,-154 709,-124 899,-124 899,-154"/>
<text text-anchor="start" x="717" y="-142" font-family="Helvetica,sans-Serif" font-size="10.00">com.teragrep.pth_06.ast.transform.</text>
<text text-anchor="middle" x="804" y="-131" font-family="Helvetica,sans-Serif" font-size="10.00">WithDefaultValues.expressionTags</text>
</a>
</g>
</g>
<!-- Node1&#45;&gt;Node4 -->
<g id="edge3_Node000001_Node000004" class="edge">
<title>Node1&#45;&gt;Node4</title>
<g id="a_edge3_Node000001_Node000004"><a xlink:title=" ">
<path fill="none" stroke="#63b8ff" d="M152.54,-108.07C175.21,-113.46 201.68,-118.96 226,-122 390.22,-142.55 582.68,-143.66 698.6,-141.86"/>
<polygon fill="#63b8ff" stroke="#63b8ff" points="698.95,-145.36 708.89,-141.69 698.83,-138.36 698.95,-145.36"/>
</a>
</g>
</g>
<!-- Node5 -->
<g id="Node000005" class="node">
<title>Node5</title>
<g id="a_Node000005"><a xlink:href="interfacecom_1_1teragrep_1_1pth__06_1_1ast_1_1Expression.html#a65ee7f5fb98e4129018f467a53586842" target="_top" xlink:title=" ">
<polygon fill="white" stroke="#666666" points="1077.5,-215 938.5,-215 938.5,-185 1077.5,-185 1077.5,-215"/>
<text text-anchor="start" x="946.5" y="-203" font-family="Helvetica,sans-Serif" font-size="10.00">com.teragrep.pth_06.ast.</text>
<text text-anchor="middle" x="1008" y="-192" font-family="Helvetica,sans-Serif" font-size="10.00">Expression.isLogical</text>
</a>
</g>
</g>
<!-- Node1&#45;&gt;Node5 -->
<g id="edge9_Node000001_Node000005" class="edge">
<title>Node1&#45;&gt;Node5</title>
<g id="a_edge9_Node000001_Node000005"><a xlink:title=" ">
<path fill="none" stroke="#63b8ff" d="M112.18,-108.02C135.42,-128.64 180.5,-165.2 226,-183 467.29,-277.39 783.38,-240.37 928.27,-215.5"/>
<polygon fill="#63b8ff" stroke="#63b8ff" points="929.15,-218.9 938.4,-213.74 927.95,-212.01 929.15,-218.9"/>
</a>
</g>
</g>
<!-- Node6 -->
<g id="Node000006" class="node">
<title>Node6</title>
<g id="a_Node000006"><a xlink:href="interfacecom_1_1teragrep_1_1pth__06_1_1ast_1_1Expression.html#a8b9661253a3610b9eb148ee29ca8b7e1" target="_top" xlink:title=" ">
<polygon fill="white" stroke="#666666" points="1077.5,-30 938.5,-30 938.5,0 1077.5,0 1077.5,-30"/>
<text text-anchor="start" x="946.5" y="-18" font-family="Helvetica,sans-Serif" font-size="10.00">com.teragrep.pth_06.ast.</text>
<text text-anchor="middle" x="1008" y="-7" font-family="Helvetica,sans-Serif" font-size="10.00">Expression.tag</text>
</a>
</g>
</g>
<!-- Node1&#45;&gt;Node6 -->
<g id="edge19_Node000001_Node000006" class="edge">
<title>Node1&#45;&gt;Node6</title>
<g id="a_edge19_Node000001_Node000006"><a xlink:title=" ">
<path fill="none" stroke="#63b8ff" d="M127.21,-77.96C153.02,-66.33 191.01,-51.05 226,-44 478.55,6.88 786.11,-1.76 928.14,-9.62"/>
<polygon fill="#63b8ff" stroke="#63b8ff" points="928.31,-13.14 938.49,-10.21 928.71,-6.15 928.31,-13.14"/>
</a>
</g>
</g>
<!-- Node7 -->
<g id="Node000007" class="node">
<title>Node7</title>
<g id="a_Node000007"><a xlink:href="classcom_1_1teragrep_1_1pth__06_1_1ast_1_1transform_1_1WithDefaultValues.html#a371bd3fba44c9f320d2b39f5e60cb82c" target="_top" xlink:title=" ">
<polygon fill="white" stroke="#666666" points="445,-113.5 226,-113.5 226,-72.5 445,-72.5 445,-113.5"/>
<text text-anchor="start" x="234" y="-101.5" font-family="Helvetica,sans-Serif" font-size="10.00">com.teragrep.pth_06.ast.transform.</text>
<text text-anchor="start" x="234" y="-90.5" font-family="Helvetica,sans-Serif" font-size="10.00">WithDefaultValues.recursiveWithDefaults</text>
<text text-anchor="middle" x="335.5" y="-79.5" font-family="Helvetica,sans-Serif" font-size="10.00">Expression</text>
</a>
</g>
</g>
<!-- Node1&#45;&gt;Node7 -->
<g id="edge10_Node000001_Node000007" class="edge">
<title>Node1&#45;&gt;Node7</title>
<g id="a_edge10_Node000001_Node000007"><a xlink:title=" ">
<path fill="none" stroke="#63b8ff" d="M190.26,-86.38C198.68,-86.29 207.28,-86.25 215.87,-86.25"/>
<polygon fill="#63b8ff" stroke="#63b8ff" points="215.94,-89.75 225.95,-86.27 215.96,-82.75 215.94,-89.75"/>
</a>
</g>
</g>
<!-- Node4&#45;&gt;Node2 -->
<g id="edge4_Node000004_Node000002" class="edge">
<title>Node4&#45;&gt;Node2</title>
<g id="a_edge4_Node000004_Node000002"><a xlink:title=" ">
<path fill="none" stroke="#63b8ff" d="M899.2,-139C908.87,-139 918.62,-139 928.1,-139"/>
<polygon fill="#63b8ff" stroke="#63b8ff" points="928.26,-142.5 938.26,-139 928.26,-135.5 928.26,-142.5"/>
</a>
</g>
</g>
<!-- Node4&#45;&gt;Node3 -->
<g id="edge5_Node000004_Node000003" class="edge">
<title>Node4&#45;&gt;Node3</title>
<g id="a_edge5_Node000004_Node000003"><a xlink:title=" ">
<path fill="none" stroke="#63b8ff" d="M844.91,-123.98C877.17,-111.85 922.76,-94.69 957.38,-81.67"/>
<polygon fill="#63b8ff" stroke="#63b8ff" points="958.7,-84.91 966.83,-78.11 956.24,-78.36 958.7,-84.91"/>
</a>
</g>
</g>
<!-- Node4&#45;&gt;Node4 -->
<g id="edge6_Node000004_Node000004" class="edge">
<title>Node4&#45;&gt;Node4</title>
<g id="a_edge6_Node000004_Node000004"><a xlink:title=" ">
<path fill="none" stroke="#63b8ff" d="M768.14,-154.28C760.17,-163.41 772.12,-172 804,-172 822.93,-172 834.83,-168.97 839.71,-164.6"/>
<polygon fill="#63b8ff" stroke="#63b8ff" points="843.21,-164.33 839.86,-154.28 836.21,-164.22 843.21,-164.33"/>
</a>
</g>
</g>
<!-- Node4&#45;&gt;Node5 -->
<g id="edge7_Node000004_Node000005" class="edge">
<title>Node4&#45;&gt;Node5</title>
<g id="a_edge7_Node000004_Node000005"><a xlink:title=" ">
<path fill="none" stroke="#63b8ff" d="M854.67,-154C882.7,-162.46 917.9,-173.09 947.4,-182"/>
<polygon fill="#63b8ff" stroke="#63b8ff" points="946.58,-185.41 957.17,-184.95 948.61,-178.71 946.58,-185.41"/>
</a>
</g>
</g>
<!-- Node4&#45;&gt;Node6 -->
<g id="edge8_Node000004_Node000006" class="edge">
<title>Node4&#45;&gt;Node6</title>
<g id="a_edge8_Node000004_Node000006"><a xlink:title=" ">
<path fill="none" stroke="#63b8ff" d="M820.99,-123.8C844.37,-102.29 890,-62.93 935,-39 938.44,-37.17 942.04,-35.45 945.72,-33.83"/>
<polygon fill="#63b8ff" stroke="#63b8ff" points="947.08,-37.05 954.99,-30.01 944.41,-30.58 947.08,-37.05"/>
</a>
</g>
</g>
<!-- Node7&#45;&gt;Node1 -->
<g id="edge17_Node000007_Node000001" class="edge">
<title>Node7&#45;&gt;Node1</title>
<g id="a_edge17_Node000007_Node000001"><a xlink:title=" ">
<path fill="none" stroke="#63b8ff" d="M225.95,-99.73C217.48,-99.76 208.94,-99.76 200.5,-99.7"/>
<polygon fill="#63b8ff" stroke="#63b8ff" points="200.29,-96.2 190.26,-99.62 200.23,-103.2 200.29,-96.2"/>
</a>
</g>
</g>
<!-- Node7&#45;&gt;Node5 -->
<g id="edge16_Node000007_Node000005" class="edge">
<title>Node7&#45;&gt;Node5</title>
<g id="a_edge16_Node000007_Node000005"><a xlink:title=" ">
<path fill="none" stroke="#63b8ff" d="M407.56,-113.56C482.01,-134.21 602.69,-165.17 709,-181 782.8,-191.99 867.81,-196.63 928.09,-198.58"/>
<polygon fill="#63b8ff" stroke="#63b8ff" points="928.2,-202.09 938.3,-198.9 928.42,-195.09 928.2,-202.09"/>
</a>
</g>
</g>
<!-- Node7&#45;&gt;Node6 -->
<g id="edge18_Node000007_Node000006" class="edge">
<title>Node7&#45;&gt;Node6</title>
<g id="a_edge18_Node000007_Node000006"><a xlink:title=" ">
<path fill="none" stroke="#63b8ff" d="M445.27,-74.19C457.31,-72.33 469.41,-70.56 481,-69 639.27,-47.75 825.33,-30.45 928.32,-21.54"/>
<polygon fill="#63b8ff" stroke="#63b8ff" points="928.67,-25.02 938.33,-20.68 928.07,-18.05 928.67,-25.02"/>
</a>
</g>
</g>
<!-- Node8 -->
<g id="Node000008" class="node">
<title>Node8</title>
<g id="a_Node000008"><a xlink:href="classcom_1_1teragrep_1_1pth__06_1_1ast_1_1transform_1_1WithDefaultValues.html#ac53e9da4d27289a430152a8b67aa7e6b" target="_top" xlink:title=" ">
<polygon fill="white" stroke="#666666" points="673,-108 481,-108 481,-78 673,-78 673,-108"/>
<text text-anchor="start" x="489" y="-96" font-family="Helvetica,sans-Serif" font-size="10.00">com.teragrep.pth_06.ast.transform.</text>
<text text-anchor="middle" x="577" y="-85" font-family="Helvetica,sans-Serif" font-size="10.00">WithDefaultValues.andWithDefaults</text>
</a>
</g>
</g>
<!-- Node7&#45;&gt;Node8 -->
<g id="edge11_Node000007_Node000008" class="edge">
<title>Node7&#45;&gt;Node8</title>
<g id="a_edge11_Node000007_Node000008"><a xlink:title=" ">
<path fill="none" stroke="#63b8ff" d="M445.04,-86.28C453.49,-86.24 462.01,-86.24 470.43,-86.29"/>
<polygon fill="#63b8ff" stroke="#63b8ff" points="470.63,-89.79 480.66,-86.38 470.68,-82.79 470.63,-89.79"/>
</a>
</g>
</g>
<!-- Node8&#45;&gt;Node2 -->
<g id="edge12_Node000008_Node000002" class="edge">
<title>Node8&#45;&gt;Node2</title>
<g id="a_edge12_Node000008_Node000002"><a xlink:title=" ">
<path fill="none" stroke="#63b8ff" d="M673.21,-95.78C737.28,-98.56 823.54,-104.09 899,-115 911.37,-116.79 924.44,-119.22 937.04,-121.85"/>
<polygon fill="#63b8ff" stroke="#63b8ff" points="936.52,-125.32 947.03,-123.99 937.99,-118.47 936.52,-125.32"/>
</a>
</g>
</g>
<!-- Node8&#45;&gt;Node3 -->
<g id="edge13_Node000008_Node000003" class="edge">
<title>Node8&#45;&gt;Node3</title>
<g id="a_edge13_Node000008_Node000003"><a xlink:title=" ">
<path fill="none" stroke="#63b8ff" d="M673.14,-84.79C685.21,-83.81 697.39,-82.86 709,-82 781.82,-76.62 864.72,-71.41 924.56,-67.81"/>
<polygon fill="#63b8ff" stroke="#63b8ff" points="924.94,-71.29 934.71,-67.2 924.52,-64.31 924.94,-71.29"/>
</a>
</g>
</g>
<!-- Node8&#45;&gt;Node4 -->
<g id="edge14_Node000008_Node000004" class="edge">
<title>Node8&#45;&gt;Node4</title>
<g id="a_edge14_Node000008_Node000004"><a xlink:title=" ">
<path fill="none" stroke="#63b8ff" d="M651.67,-108.06C673.35,-112.49 697.21,-117.37 719.45,-121.92"/>
<polygon fill="#63b8ff" stroke="#63b8ff" points="719.05,-125.41 729.55,-123.98 720.45,-118.55 719.05,-125.41"/>
</a>
</g>
</g>
<!-- Node8&#45;&gt;Node7 -->
<g id="edge15_Node000008_Node000007" class="edge">
<title>Node8&#45;&gt;Node7</title>
<g id="a_edge15_Node000008_Node000007"><a xlink:title=" ">
<path fill="none" stroke="#63b8ff" d="M480.66,-99.62C472.24,-99.71 463.66,-99.75 455.09,-99.75"/>
<polygon fill="#63b8ff" stroke="#63b8ff" points="455.05,-96.25 445.04,-99.72 455.03,-103.25 455.05,-96.25"/>
</a>
</g>
</g>
</g>
</svg>
