<?xml version="1.0" encoding="UTF-8" standalone="no"?>
<!DOCTYPE svg PUBLIC "-//W3C//DTD SVG 1.1//EN"
 "http://www.w3.org/Graphics/SVG/1.1/DTD/svg11.dtd">
<!-- Generated by graphviz version 2.43.0 (0)
 -->
<!-- Title: com.teragrep.pth_06.planner.MockArchiveQueryProcessor Pages: 1 -->
<svg width="688pt" height="131pt"
 viewBox="0.00 0.00 688.00 131.00" xmlns="http://www.w3.org/2000/svg" xmlns:xlink="http://www.w3.org/1999/xlink">
<g id="graph0" class="graph" transform="scale(1 1) rotate(0) translate(4 127)">
<title>com.teragrep.pth_06.planner.MockArchiveQueryProcessor</title>
<!-- Node1 -->
<g id="Node000001" class="node">
<title>Node1</title>
<g id="a_Node000001"><a xlink:title=" ">
<polygon fill="#999999" stroke="#666666" points="680,-99 520,-99 520,-69 680,-69 680,-99"/>
<text text-anchor="start" x="528" y="-87" font-family="Helvetica,sans-Serif" font-size="10.00">com.teragrep.pth_06.planner.</text>
<text text-anchor="middle" x="600" y="-76" font-family="Helvetica,sans-Serif" font-size="10.00">MockArchiveQueryProcessor</text>
</a>
</g>
</g>
<!-- Node2 -->
<g id="Node000002" class="node">
<title>Node2</title>
<g id="a_Node000002"><a xlink:href="interfacecom_1_1teragrep_1_1pth__06_1_1planner_1_1ArchiveQuery.html" target="_top" xlink:title=" ">
<polygon fill="white" stroke="#666666" points="361,-123 201,-123 201,-93 361,-93 361,-123"/>
<text text-anchor="start" x="209" y="-111" font-family="Helvetica,sans-Serif" font-size="10.00">com.teragrep.pth_06.planner.</text>
<text text-anchor="middle" x="281" y="-100" font-family="Helvetica,sans-Serif" font-size="10.00">ArchiveQuery</text>
</a>
</g>
</g>
<!-- Node2&#45;&gt;Node1 -->
<g id="edge1_Node000001_Node000002" class="edge">
<title>Node2&#45;&gt;Node1</title>
<g id="a_edge1_Node000001_Node000002"><a xlink:title=" ">
<path fill="none" stroke="#63b8ff" d="M371.28,-101.24C417.96,-97.71 474.62,-93.42 519.74,-90"/>
<polygon fill="#63b8ff" stroke="#63b8ff" points="370.88,-97.76 361.17,-102.01 371.41,-104.74 370.88,-97.76"/>
</a>
</g>
</g>
<!-- Node3 -->
<g id="Node000003" class="node">
<title>Node3</title>
<g id="a_Node000003"><a xlink:href="interfacecom_1_1teragrep_1_1pth__06_1_1Stubable.html" target="_top" xlink:title=" ">
<polygon fill="white" stroke="#666666" points="164,-117.5 0,-117.5 0,-98.5 164,-98.5 164,-117.5"/>
<text text-anchor="middle" x="82" y="-105.5" font-family="Helvetica,sans-Serif" font-size="10.00">com.teragrep.pth_06.Stubable</text>
</a>
</g>
</g>
<!-- Node3&#45;&gt;Node2 -->
<g id="edge2_Node000002_Node000003" class="edge">
<title>Node3&#45;&gt;Node2</title>
<g id="a_edge2_Node000002_Node000003"><a xlink:title=" ">
<path fill="none" stroke="#63b8ff" d="M174.53,-108C183.31,-108 192.17,-108 200.83,-108"/>
<polygon fill="#63b8ff" stroke="#63b8ff" points="174.26,-104.5 164.26,-108 174.26,-111.5 174.26,-104.5"/>
</a>
</g>
</g>
<!-- Node4 -->
<g id="Node000004" class="node">
<title>Node4</title>
<g id="a_Node000004"><a xlink:href="interfacecom_1_1teragrep_1_1pth__06_1_1planner_1_1SliceableTestDataSource.html" target="_top" xlink:title=" ">
<polygon fill="white" stroke="#666666" points="361,-75 201,-75 201,-45 361,-45 361,-75"/>
<text text-anchor="start" x="209" y="-63" font-family="Helvetica,sans-Serif" font-size="10.00">com.teragrep.pth_06.planner.</text>
<text text-anchor="middle" x="281" y="-52" font-family="Helvetica,sans-Serif" font-size="10.00">SliceableTestDataSource</text>
</a>
</g>
</g>
<!-- Node4&#45;&gt;Node1 -->
<g id="edge3_Node000001_Node000004" class="edge">
<title>Node4&#45;&gt;Node1</title>
<g id="a_edge3_Node000001_Node000004"><a xlink:title=" ">
<path fill="none" stroke="#9a32cd" stroke-dasharray="5,2" d="M371.18,-66.29C411.19,-69.16 458.97,-72.66 502,-76 507.81,-76.45 513.82,-76.93 519.86,-77.41"/>
<polygon fill="#9a32cd" stroke="#9a32cd" points="371.41,-62.8 361.18,-65.57 370.91,-69.78 371.41,-62.8"/>
</a>
</g>
<text text-anchor="middle" x="440.5" y="-79" font-family="Helvetica,sans-Serif" font-size="10.00" fill="grey"> sliceableTestDataSource</text>
</g>
<!-- Node5 -->
<g id="Node000005" class="node">
<title>Node5</title>
<g id="a_Node000005"><a xlink:href="interfacecom_1_1teragrep_1_1pth__06_1_1planner_1_1TestDataSource.html" target="_top" xlink:title=" ">
<polygon fill="white" stroke="#666666" points="162,-78 2,-78 2,-48 162,-48 162,-78"/>
<text text-anchor="start" x="10" y="-66" font-family="Helvetica,sans-Serif" font-size="10.00">com.teragrep.pth_06.planner.</text>
<text text-anchor="middle" x="82" y="-55" font-family="Helvetica,sans-Serif" font-size="10.00">TestDataSource</text>
</a>
</g>
</g>
<!-- Node5&#45;&gt;Node4 -->
<g id="edge4_Node000004_Node000005" class="edge">
<title>Node5&#45;&gt;Node4</title>
<g id="a_edge4_Node000004_Node000005"><a xlink:title=" ">
<path fill="none" stroke="#63b8ff" d="M172.49,-61.64C181.96,-61.49 191.55,-61.35 200.89,-61.2"/>
<polygon fill="#63b8ff" stroke="#63b8ff" points="172.22,-58.14 162.28,-61.79 172.33,-65.14 172.22,-58.14"/>
</a>
</g>
</g>
<!-- Node6 -->
<g id="Node000006" class="node">
<title>Node6</title>
<g id="a_Node000006"><a xlink:href="interfacecom_1_1teragrep_1_1pth__06_1_1planner_1_1Sliceable.html" target="_top" xlink:title=" ">
<polygon fill="white" stroke="#666666" points="162,-30 2,-30 2,0 162,0 162,-30"/>
<text text-anchor="start" x="10" y="-18" font-family="Helvetica,sans-Serif" font-size="10.00">com.teragrep.pth_06.planner.</text>
<text text-anchor="middle" x="82" y="-7" font-family="Helvetica,sans-Serif" font-size="10.00">Sliceable&lt; MockDBRow &gt;</text>
</a>
</g>
</g>
<!-- Node6&#45;&gt;Node4 -->
<g id="edge5_Node000004_Node000006" class="edge">
<title>Node6&#45;&gt;Node4</title>
<g id="a_edge5_Node000004_Node000006"><a xlink:title=" ">
<path fill="none" stroke="#63b8ff" d="M158.62,-32.27C176.94,-36.46 196.37,-40.9 214.19,-44.97"/>
<polygon fill="#63b8ff" stroke="#63b8ff" points="159.4,-28.86 148.87,-30.05 157.84,-35.69 159.4,-28.86"/>
</a>
</g>
</g>
</g>
</svg>
