<?xml version="1.0" encoding="UTF-8" standalone="no"?>
<!DOCTYPE svg PUBLIC "-//W3C//DTD SVG 1.1//EN"
 "http://www.w3.org/Graphics/SVG/1.1/DTD/svg11.dtd">
<!-- Generated by graphviz version 2.43.0 (0)
 -->
<!-- Title: com.teragrep.pth_06.ast.analyze.ScanRangesTest.testEmpty Pages: 1 -->
<svg width="622pt" height="98pt"
 viewBox="0.00 0.00 622.00 97.50" xmlns="http://www.w3.org/2000/svg" xmlns:xlink="http://www.w3.org/1999/xlink">
<g id="graph0" class="graph" transform="scale(1 1) rotate(0) translate(4 93.5)">
<title>com.teragrep.pth_06.ast.analyze.ScanRangesTest.testEmpty</title>
<!-- Node1 -->
<g id="Node000001" class="node">
<title>Node1</title>
<g id="a_Node000001"><a xlink:title=" ">
<polygon fill="#999999" stroke="#666666" points="180,-57 0,-57 0,-27 180,-27 180,-57"/>
<text text-anchor="start" x="8" y="-45" font-family="Helvetica,sans-Serif" font-size="10.00">com.teragrep.pth_06.ast.analyze.</text>
<text text-anchor="middle" x="90" y="-34" font-family="Helvetica,sans-Serif" font-size="10.00">ScanRangesTest.testEmpty</text>
</a>
</g>
</g>
<!-- Node2 -->
<g id="Node000002" class="node">
<title>Node2</title>
<g id="a_Node000002"><a xlink:href="classcom_1_1teragrep_1_1pth__06_1_1ast_1_1analyze_1_1ScanGroupExpression.html#ad1c8159c9353a4b98804664e89a77921" target="_top" xlink:title=" ">
<polygon fill="white" stroke="#666666" points="396,-57 216,-57 216,-27 396,-27 396,-57"/>
<text text-anchor="start" x="224" y="-45" font-family="Helvetica,sans-Serif" font-size="10.00">com.teragrep.pth_06.ast.analyze.</text>
<text text-anchor="middle" x="306" y="-34" font-family="Helvetica,sans-Serif" font-size="10.00">ScanGroupExpression.value</text>
</a>
</g>
</g>
<!-- Node1&#45;&gt;Node2 -->
<g id="edge1_Node000001_Node000002" class="edge">
<title>Node1&#45;&gt;Node2</title>
<g id="a_edge1_Node000001_Node000002"><a xlink:title=" ">
<path fill="none" stroke="#63b8ff" d="M180.21,-42C188.7,-42 197.34,-42 205.92,-42"/>
<polygon fill="#63b8ff" stroke="#63b8ff" points="205.94,-45.5 215.94,-42 205.94,-38.5 205.94,-45.5"/>
</a>
</g>
</g>
<!-- Node2&#45;&gt;Node2 -->
<g id="edge4_Node000002_Node000002" class="edge">
<title>Node2&#45;&gt;Node2</title>
<g id="a_edge4_Node000002_Node000002"><a xlink:title=" ">
<path fill="none" stroke="#63b8ff" d="M268.03,-57.28C259.59,-66.41 272.25,-75 306,-75 326.04,-75 338.64,-71.97 343.81,-67.6"/>
<polygon fill="#63b8ff" stroke="#63b8ff" points="347.31,-67.33 343.97,-57.28 340.31,-67.22 347.31,-67.33"/>
</a>
</g>
</g>
<!-- Node3 -->
<g id="Node000003" class="node">
<title>Node3</title>
<g id="a_Node000003"><a xlink:href="classcom_1_1teragrep_1_1pth__06_1_1ast_1_1MergeIntersectingRanges.html#aaea772833fd1c81b853a6726dabe09fe" target="_top" xlink:title=" ">
<polygon fill="white" stroke="#666666" points="614,-89.5 432,-89.5 432,-48.5 614,-48.5 614,-89.5"/>
<text text-anchor="start" x="440" y="-77.5" font-family="Helvetica,sans-Serif" font-size="10.00">com.teragrep.pth_06.ast.</text>
<text text-anchor="start" x="440" y="-66.5" font-family="Helvetica,sans-Serif" font-size="10.00">MergeIntersectingRanges.merged</text>
<text text-anchor="middle" x="523" y="-55.5" font-family="Helvetica,sans-Serif" font-size="10.00">Ranges</text>
</a>
</g>
</g>
<!-- Node2&#45;&gt;Node3 -->
<g id="edge2_Node000002_Node000003" class="edge">
<title>Node2&#45;&gt;Node3</title>
<g id="a_edge2_Node000002_Node000003"><a xlink:title=" ">
<path fill="none" stroke="#63b8ff" d="M396,-53.18C404.47,-54.24 413.1,-55.32 421.66,-56.4"/>
<polygon fill="#63b8ff" stroke="#63b8ff" points="421.32,-59.88 431.68,-57.66 422.19,-52.94 421.32,-59.88"/>
</a>
</g>
</g>
<!-- Node4 -->
<g id="Node000004" class="node">
<title>Node4</title>
<g id="a_Node000004"><a xlink:href="classcom_1_1teragrep_1_1pth__06_1_1ast_1_1analyze_1_1ScanGroupExpression.html#aa39e1ccf09a9d3b02854913cc52f5352" target="_top" xlink:title=" ">
<polygon fill="white" stroke="#666666" points="613,-30 433,-30 433,0 613,0 613,-30"/>
<text text-anchor="start" x="441" y="-18" font-family="Helvetica,sans-Serif" font-size="10.00">com.teragrep.pth_06.ast.analyze.</text>
<text text-anchor="middle" x="523" y="-7" font-family="Helvetica,sans-Serif" font-size="10.00">ScanGroupExpression.tag</text>
</a>
</g>
</g>
<!-- Node2&#45;&gt;Node4 -->
<g id="edge3_Node000002_Node000004" class="edge">
<title>Node2&#45;&gt;Node4</title>
<g id="a_edge3_Node000002_Node000004"><a xlink:title=" ">
<path fill="none" stroke="#63b8ff" d="M396,-30.82C404.81,-29.72 413.8,-28.59 422.71,-27.47"/>
<polygon fill="#63b8ff" stroke="#63b8ff" points="423.23,-30.93 432.72,-26.21 422.36,-23.99 423.23,-30.93"/>
</a>
</g>
</g>
</g>
</svg>
