<?xml version="1.0" encoding="UTF-8" standalone="no"?>
<!DOCTYPE svg PUBLIC "-//W3C//DTD SVG 1.1//EN"
 "http://www.w3.org/Graphics/SVG/1.1/DTD/svg11.dtd">
<!-- Generated by graphviz version 2.43.0 (0)
 -->
<!-- Title: com.teragrep.pth_06.ast.xml.XMLQuery.elementToNode Pages: 1 -->
<svg width="623pt" height="182pt"
 viewBox="0.00 0.00 623.00 182.00" xmlns="http://www.w3.org/2000/svg" xmlns:xlink="http://www.w3.org/1999/xlink">
<g id="graph0" class="graph" transform="scale(1 1) rotate(0) translate(4 178)">
<title>com.teragrep.pth_06.ast.xml.XMLQuery.elementToNode</title>
<!-- Node1 -->
<g id="Node000001" class="node">
<title>Node1</title>
<g id="a_Node000001"><a xlink:title=" ">
<polygon fill="#999999" stroke="#666666" points="615,-54 454,-54 454,-24 615,-24 615,-54"/>
<text text-anchor="start" x="462" y="-42" font-family="Helvetica,sans-Serif" font-size="10.00">com.teragrep.pth_06.ast.xml.</text>
<text text-anchor="middle" x="534.5" y="-31" font-family="Helvetica,sans-Serif" font-size="10.00">XMLQuery.elementToNode</text>
</a>
</g>
</g>
<!-- Node2 -->
<g id="Node000002" class="node">
<title>Node2</title>
<g id="a_Node000002"><a xlink:href="classcom_1_1teragrep_1_1pth__06_1_1ast_1_1xml_1_1XMLQuery.html#a11ebce7d6afeda454c2b93a252196299" target="_top" xlink:title=" ">
<polygon fill="white" stroke="#666666" points="418,-102 257,-102 257,-72 418,-72 418,-102"/>
<text text-anchor="start" x="265" y="-90" font-family="Helvetica,sans-Serif" font-size="10.00">com.teragrep.pth_06.ast.xml.</text>
<text text-anchor="middle" x="337.5" y="-79" font-family="Helvetica,sans-Serif" font-size="10.00">XMLQuery.asAST</text>
</a>
</g>
</g>
<!-- Node1&#45;&gt;Node2 -->
<g id="edge1_Node000001_Node000002" class="edge">
<title>Node1&#45;&gt;Node2</title>
<g id="a_edge1_Node000001_Node000002"><a xlink:title=" ">
<path fill="none" stroke="#63b8ff" d="M462.36,-56.51C441.73,-61.59 419.4,-67.09 399.45,-72"/>
<polygon fill="#63b8ff" stroke="#63b8ff" points="463.46,-59.84 472.34,-54.06 461.79,-53.05 463.46,-59.84"/>
</a>
</g>
</g>
<!-- Node7 -->
<g id="Node000007" class="node">
<title>Node7</title>
<g id="a_Node000007"><a xlink:href="classcom_1_1teragrep_1_1pth__06_1_1ast_1_1xml_1_1XMLQuery.html#afb0ff16b91a35d2ef6c6c000761d0be6" target="_top" xlink:title=" ">
<polygon fill="white" stroke="#666666" points="418,-54 257,-54 257,-24 418,-24 418,-54"/>
<text text-anchor="start" x="265" y="-42" font-family="Helvetica,sans-Serif" font-size="10.00">com.teragrep.pth_06.ast.xml.</text>
<text text-anchor="middle" x="337.5" y="-31" font-family="Helvetica,sans-Serif" font-size="10.00">XMLQuery.visitLogical</text>
</a>
</g>
</g>
<!-- Node1&#45;&gt;Node7 -->
<g id="edge6_Node000001_Node000007" class="edge">
<title>Node1&#45;&gt;Node7</title>
<g id="a_edge6_Node000001_Node000007"><a xlink:title=" ">
<path fill="none" stroke="#63b8ff" d="M443.88,-32.27C435.3,-32.23 426.64,-32.25 418.16,-32.35"/>
<polygon fill="#63b8ff" stroke="#63b8ff" points="443.88,-35.77 453.9,-32.35 443.93,-28.77 443.88,-35.77"/>
</a>
</g>
</g>
<!-- Node3 -->
<g id="Node000003" class="node">
<title>Node3</title>
<g id="a_Node000003"><a xlink:href="classcom_1_1teragrep_1_1pth__06_1_1ast_1_1xml_1_1XMLQueryTest.html#a69894510f18bc63d2062360eb25abd36" target="_top" xlink:title=" ">
<polygon fill="white" stroke="#666666" points="221,-174 0,-174 0,-144 221,-144 221,-174"/>
<text text-anchor="start" x="8" y="-162" font-family="Helvetica,sans-Serif" font-size="10.00">com.teragrep.pth_06.ast.xml.</text>
<text text-anchor="middle" x="110.5" y="-151" font-family="Helvetica,sans-Serif" font-size="10.00">XMLQueryTest.testIndexPlusTimeQualifier</text>
</a>
</g>
</g>
<!-- Node2&#45;&gt;Node3 -->
<g id="edge2_Node000002_Node000003" class="edge">
<title>Node2&#45;&gt;Node3</title>
<g id="a_edge2_Node000002_Node000003"><a xlink:title=" ">
<path fill="none" stroke="#63b8ff" d="M295.44,-106.16C273.67,-115.78 246.26,-127.05 221,-135 210.6,-138.27 199.52,-141.26 188.54,-143.93"/>
<polygon fill="#63b8ff" stroke="#63b8ff" points="297.01,-109.29 304.71,-102.01 294.15,-102.9 297.01,-109.29"/>
</a>
</g>
</g>
<!-- Node4 -->
<g id="Node000004" class="node">
<title>Node4</title>
<g id="a_Node000004"><a xlink:href="classcom_1_1teragrep_1_1pth__06_1_1ast_1_1xml_1_1XMLQueryTest.html#aefa6311528eab479fc1e3183332974af" target="_top" xlink:title=" ">
<polygon fill="white" stroke="#666666" points="214.5,-126 6.5,-126 6.5,-96 214.5,-96 214.5,-126"/>
<text text-anchor="start" x="14.5" y="-114" font-family="Helvetica,sans-Serif" font-size="10.00">com.teragrep.pth_06.ast.xml.</text>
<text text-anchor="middle" x="110.5" y="-103" font-family="Helvetica,sans-Serif" font-size="10.00">XMLQueryTest.testSingleElementQuery</text>
</a>
</g>
</g>
<!-- Node2&#45;&gt;Node4 -->
<g id="edge3_Node000002_Node000004" class="edge">
<title>Node2&#45;&gt;Node4</title>
<g id="a_edge3_Node000002_Node000004"><a xlink:title=" ">
<path fill="none" stroke="#63b8ff" d="M246.83,-96.57C236.26,-97.69 225.41,-98.85 214.68,-99.99"/>
<polygon fill="#63b8ff" stroke="#63b8ff" points="247.28,-100.04 256.86,-95.5 246.54,-93.08 247.28,-100.04"/>
</a>
</g>
</g>
<!-- Node5 -->
<g id="Node000005" class="node">
<title>Node5</title>
<g id="a_Node000005"><a xlink:href="classcom_1_1teragrep_1_1pth__06_1_1ast_1_1xml_1_1XMLQueryTest.html#a0ca82e0be177f57614e8b3c8b70867a5" target="_top" xlink:title=" ">
<polygon fill="white" stroke="#666666" points="202,-78 19,-78 19,-48 202,-48 202,-78"/>
<text text-anchor="start" x="27" y="-66" font-family="Helvetica,sans-Serif" font-size="10.00">com.teragrep.pth_06.ast.xml.</text>
<text text-anchor="middle" x="110.5" y="-55" font-family="Helvetica,sans-Serif" font-size="10.00">XMLQueryTest.testXMLFromQuery</text>
</a>
</g>
</g>
<!-- Node2&#45;&gt;Node5 -->
<g id="edge4_Node000002_Node000005" class="edge">
<title>Node2&#45;&gt;Node5</title>
<g id="a_edge4_Node000002_Node000005"><a xlink:title=" ">
<path fill="none" stroke="#63b8ff" d="M246.79,-77.43C232.1,-75.86 216.88,-74.24 202.17,-72.67"/>
<polygon fill="#63b8ff" stroke="#63b8ff" points="246.54,-80.92 256.86,-78.5 247.28,-73.96 246.54,-80.92"/>
</a>
</g>
</g>
<!-- Node6 -->
<g id="Node000006" class="node">
<title>Node6</title>
<g id="a_Node000006"><a xlink:href="classcom_1_1teragrep_1_1pth__06_1_1ast_1_1xml_1_1XMLQuery.html#a4e6e831ad017723d10e88fcfd7ccc902" target="_top" xlink:title=" ">
<polygon fill="white" stroke="#666666" points="191,-30 30,-30 30,0 191,0 191,-30"/>
<text text-anchor="start" x="38" y="-18" font-family="Helvetica,sans-Serif" font-size="10.00">com.teragrep.pth_06.ast.xml.</text>
<text text-anchor="middle" x="110.5" y="-7" font-family="Helvetica,sans-Serif" font-size="10.00">XMLQuery.toString</text>
</a>
</g>
</g>
<!-- Node2&#45;&gt;Node6 -->
<g id="edge5_Node000002_Node000006" class="edge">
<title>Node2&#45;&gt;Node6</title>
<g id="a_edge5_Node000002_Node000006"><a xlink:title=" ">
<path fill="none" stroke="#63b8ff" d="M269.67,-68.42C265.33,-66.73 261.07,-64.92 257,-63 239.61,-54.8 238.7,-46.52 221,-39 211.6,-35 201.44,-31.64 191.25,-28.81"/>
<polygon fill="#63b8ff" stroke="#63b8ff" points="268.68,-71.79 279.27,-71.95 271.1,-65.22 268.68,-71.79"/>
</a>
</g>
</g>
<!-- Node7&#45;&gt;Node1 -->
<g id="edge7_Node000007_Node000001" class="edge">
<title>Node7&#45;&gt;Node1</title>
<g id="a_edge7_Node000007_Node000001"><a xlink:title=" ">
<path fill="none" stroke="#63b8ff" d="M428.18,-45.73C436.76,-45.77 445.43,-45.75 453.9,-45.65"/>
<polygon fill="#63b8ff" stroke="#63b8ff" points="428.19,-42.23 418.16,-45.65 428.13,-49.23 428.19,-42.23"/>
</a>
</g>
</g>
</g>
</svg>
