<?xml version="1.0" encoding="UTF-8" standalone="no"?>
<!DOCTYPE svg PUBLIC "-//W3C//DTD SVG 1.1//EN"
 "http://www.w3.org/Graphics/SVG/1.1/DTD/svg11.dtd">
<!-- Generated by graphviz version 2.43.0 (0)
 -->
<!-- Title: com.teragrep.pth_06.planner.HBaseQueryImpl.currentBatch Pages: 1 -->
<svg width="405pt" height="76pt"
 viewBox="0.00 0.00 405.00 75.50" xmlns="http://www.w3.org/2000/svg" xmlns:xlink="http://www.w3.org/1999/xlink">
<g id="graph0" class="graph" transform="scale(1 1) rotate(0) translate(4 71.5)">
<title>com.teragrep.pth_06.planner.HBaseQueryImpl.currentBatch</title>
<!-- Node1 -->
<g id="Node000001" class="node">
<title>Node1</title>
<g id="a_Node000001"><a xlink:title="Returns the current batch, this value is updated using the latest() method.">
<polygon fill="#999999" stroke="#666666" points="164,-51 0,-51 0,-21 164,-21 164,-51"/>
<text text-anchor="start" x="8" y="-39" font-family="Helvetica,sans-Serif" font-size="10.00">com.teragrep.pth_06.planner.</text>
<text text-anchor="middle" x="82" y="-28" font-family="Helvetica,sans-Serif" font-size="10.00">HBaseQueryImpl.currentBatch</text>
</a>
</g>
</g>
<!-- Node2 -->
<g id="Node000002" class="node">
<title>Node2</title>
<g id="a_Node000002"><a xlink:href="interfacecom_1_1teragrep_1_1pth__06_1_1Stubable.html#ac7c59dcfbcfa0218ef7bc528ef597971" target="_top" xlink:title=" ">
<polygon fill="white" stroke="#666666" points="397,-67.5 200,-67.5 200,-48.5 397,-48.5 397,-67.5"/>
<text text-anchor="middle" x="298.5" y="-55.5" font-family="Helvetica,sans-Serif" font-size="10.00">com.teragrep.pth_06.Stubable.isStub</text>
</a>
</g>
</g>
<!-- Node1&#45;&gt;Node2 -->
<g id="edge1_Node000001_Node000002" class="edge">
<title>Node1&#45;&gt;Node2</title>
<g id="a_edge1_Node000001_Node000002"><a xlink:title=" ">
<path fill="none" stroke="#63b8ff" d="M164.09,-44.32C174.06,-45.34 184.35,-46.39 194.58,-47.44"/>
<polygon fill="#63b8ff" stroke="#63b8ff" points="194.48,-50.95 204.78,-48.49 195.19,-43.99 194.48,-50.95"/>
</a>
</g>
</g>
<!-- Node3 -->
<g id="Node000003" class="node">
<title>Node3</title>
<g id="a_Node000003"><a xlink:href="interfacecom_1_1teragrep_1_1pth__06_1_1planner_1_1LimitedResults.html#aa0026f763a951e436b76183f663b7c91" target="_top" xlink:title=" ">
<polygon fill="white" stroke="#666666" points="378.5,-30 218.5,-30 218.5,0 378.5,0 378.5,-30"/>
<text text-anchor="start" x="226.5" y="-18" font-family="Helvetica,sans-Serif" font-size="10.00">com.teragrep.pth_06.planner.</text>
<text text-anchor="middle" x="298.5" y="-7" font-family="Helvetica,sans-Serif" font-size="10.00">LimitedResults.results</text>
</a>
</g>
</g>
<!-- Node1&#45;&gt;Node3 -->
<g id="edge2_Node000001_Node000003" class="edge">
<title>Node1&#45;&gt;Node3</title>
<g id="a_edge2_Node000001_Node000003"><a xlink:title=" ">
<path fill="none" stroke="#63b8ff" d="M164.09,-28.06C178.55,-26.65 193.69,-25.16 208.36,-23.73"/>
<polygon fill="#63b8ff" stroke="#63b8ff" points="208.81,-27.2 218.42,-22.74 208.13,-20.23 208.81,-27.2"/>
</a>
</g>
</g>
</g>
</svg>
