<?xml version="1.0" encoding="UTF-8" standalone="no"?>
<!DOCTYPE svg PUBLIC "-//W3C//DTD SVG 1.1//EN"
 "http://www.w3.org/Graphics/SVG/1.1/DTD/svg11.dtd">
<!-- Generated by graphviz version 2.43.0 (0)
 -->
<!-- Title: com.teragrep.pth_06.planner.KafkaQueryProcessor Pages: 1 -->
<svg width="262pt" height="159pt"
 viewBox="0.00 0.00 261.50 159.00" xmlns="http://www.w3.org/2000/svg" xmlns:xlink="http://www.w3.org/1999/xlink">
<g id="graph0" class="graph" transform="scale(1 1) rotate(0) translate(4 155)">
<title>com.teragrep.pth_06.planner.KafkaQueryProcessor</title>
<!-- Node1 -->
<g id="Node000001" class="node">
<title>Node1</title>
<g id="a_Node000001"><a xlink:title=" ">
<polygon fill="#999999" stroke="#666666" points="180.5,-30 20.5,-30 20.5,0 180.5,0 180.5,-30"/>
<text text-anchor="start" x="28.5" y="-18" font-family="Helvetica,sans-Serif" font-size="10.00">com.teragrep.pth_06.planner.</text>
<text text-anchor="middle" x="100.5" y="-7" font-family="Helvetica,sans-Serif" font-size="10.00">KafkaQueryProcessor</text>
</a>
</g>
</g>
<!-- Node2 -->
<g id="Node000002" class="node">
<title>Node2</title>
<g id="a_Node000002"><a xlink:href="interfacecom_1_1teragrep_1_1pth__06_1_1planner_1_1KafkaQuery.html" target="_top" xlink:title=" ">
<polygon fill="white" stroke="#666666" points="180.5,-96 20.5,-96 20.5,-66 180.5,-66 180.5,-96"/>
<text text-anchor="start" x="28.5" y="-84" font-family="Helvetica,sans-Serif" font-size="10.00">com.teragrep.pth_06.planner.</text>
<text text-anchor="middle" x="100.5" y="-73" font-family="Helvetica,sans-Serif" font-size="10.00">KafkaQuery</text>
</a>
</g>
</g>
<!-- Node2&#45;&gt;Node1 -->
<g id="edge1_Node000001_Node000002" class="edge">
<title>Node2&#45;&gt;Node1</title>
<g id="a_edge1_Node000001_Node000002"><a xlink:title=" ">
<path fill="none" stroke="#63b8ff" d="M100.5,-55.54C100.5,-46.96 100.5,-37.61 100.5,-30.16"/>
<polygon fill="#63b8ff" stroke="#63b8ff" points="97,-55.8 100.5,-65.8 104,-55.8 97,-55.8"/>
</a>
</g>
</g>
<!-- Node3 -->
<g id="Node000003" class="node">
<title>Node3</title>
<g id="a_Node000003"><a xlink:title=" ">
<polygon fill="white" stroke="#666666" points="65,-151 0,-151 0,-132 65,-132 65,-151"/>
<text text-anchor="middle" x="32.5" y="-139" font-family="Helvetica,sans-Serif" font-size="10.00">Closeable</text>
</a>
</g>
</g>
<!-- Node3&#45;&gt;Node2 -->
<g id="edge2_Node000002_Node000003" class="edge">
<title>Node3&#45;&gt;Node2</title>
<g id="a_edge2_Node000002_Node000003"><a xlink:title=" ">
<path fill="none" stroke="#63b8ff" d="M50.24,-125.23C60.71,-116.23 73.87,-104.91 84.09,-96.11"/>
<polygon fill="#63b8ff" stroke="#63b8ff" points="47.83,-122.69 42.53,-131.87 52.4,-128 47.83,-122.69"/>
</a>
</g>
</g>
<!-- Node4 -->
<g id="Node000004" class="node">
<title>Node4</title>
<g id="a_Node000004"><a xlink:href="interfacecom_1_1teragrep_1_1pth__06_1_1Stubbable.html" target="_top" xlink:title=" ">
<polygon fill="white" stroke="#666666" points="253.5,-151 83.5,-151 83.5,-132 253.5,-132 253.5,-151"/>
<text text-anchor="middle" x="168.5" y="-139" font-family="Helvetica,sans-Serif" font-size="10.00">com.teragrep.pth_06.Stubbable</text>
</a>
</g>
</g>
<!-- Node4&#45;&gt;Node2 -->
<g id="edge3_Node000002_Node000004" class="edge">
<title>Node4&#45;&gt;Node2</title>
<g id="a_edge3_Node000002_Node000004"><a xlink:title=" ">
<path fill="none" stroke="#63b8ff" d="M150.76,-125.23C140.29,-116.23 127.13,-104.91 116.91,-96.11"/>
<polygon fill="#63b8ff" stroke="#63b8ff" points="148.6,-128 158.47,-131.87 153.17,-122.69 148.6,-128"/>
</a>
</g>
</g>
</g>
</svg>
