<?xml version="1.0" encoding="UTF-8" standalone="no"?>
<!DOCTYPE svg PUBLIC "-//W3C//DTD SVG 1.1//EN"
 "http://www.w3.org/Graphics/SVG/1.1/DTD/svg11.dtd">
<!-- Generated by graphviz version 2.43.0 (0)
 -->
<!-- Title: com.teragrep.pth_06.ast.analyze.ScanPlanCollection.asList Pages: 1 -->
<svg width="1078pt" height="242pt"
 viewBox="0.00 0.00 1078.00 242.00" xmlns="http://www.w3.org/2000/svg" xmlns:xlink="http://www.w3.org/1999/xlink">
<g id="graph0" class="graph" transform="scale(1 1) rotate(0) translate(4 238)">
<title>com.teragrep.pth_06.ast.analyze.ScanPlanCollection.asList</title>
<!-- Node1 -->
<g id="Node000001" class="node">
<title>Node1</title>
<g id="a_Node000001"><a xlink:title=" ">
<polygon fill="#999999" stroke="#666666" points="180,-162 0,-162 0,-132 180,-132 180,-162"/>
<text text-anchor="start" x="8" y="-150" font-family="Helvetica,sans-Serif" font-size="10.00">com.teragrep.pth_06.ast.analyze.</text>
<text text-anchor="middle" x="90" y="-139" font-family="Helvetica,sans-Serif" font-size="10.00">ScanPlanCollection.asList</text>
</a>
</g>
</g>
<!-- Node2 -->
<g id="Node000002" class="node">
<title>Node2</title>
<g id="a_Node000002"><a xlink:href="classcom_1_1teragrep_1_1pth__06_1_1ast_1_1analyze_1_1ScanPlanCollection.html#a47c5484d9f27fd8136265a9e35617535" target="_top" xlink:title=" ">
<polygon fill="white" stroke="#666666" points="410,-162 216,-162 216,-132 410,-132 410,-162"/>
<text text-anchor="start" x="224" y="-150" font-family="Helvetica,sans-Serif" font-size="10.00">com.teragrep.pth_06.ast.analyze.</text>
<text text-anchor="middle" x="313" y="-139" font-family="Helvetica,sans-Serif" font-size="10.00">ScanPlanCollection.collectScanPlans</text>
</a>
</g>
</g>
<!-- Node1&#45;&gt;Node2 -->
<g id="edge1_Node000001_Node000002" class="edge">
<title>Node1&#45;&gt;Node2</title>
<g id="a_edge1_Node000001_Node000002"><a xlink:title=" ">
<path fill="none" stroke="#63b8ff" d="M180.25,-147C188.69,-147 197.3,-147 205.87,-147"/>
<polygon fill="#63b8ff" stroke="#63b8ff" points="205.91,-150.5 215.91,-147 205.91,-143.5 205.91,-150.5"/>
</a>
</g>
</g>
<!-- Node2&#45;&gt;Node2 -->
<g id="edge4_Node000002_Node000002" class="edge">
<title>Node2&#45;&gt;Node2</title>
<g id="a_edge4_Node000002_Node000002"><a xlink:title=" ">
<path fill="none" stroke="#63b8ff" d="M273.98,-162.28C265.3,-171.41 278.31,-180 313,-180 333.6,-180 346.55,-176.97 351.86,-172.6"/>
<polygon fill="#63b8ff" stroke="#63b8ff" points="355.36,-172.33 352.02,-162.28 348.36,-172.22 355.36,-172.33"/>
</a>
</g>
</g>
<!-- Node3 -->
<g id="Node000003" class="node">
<title>Node3</title>
<g id="a_Node000003"><a xlink:href="interfacecom_1_1teragrep_1_1pth__06_1_1ast_1_1Expression.html#a17e7d33905be57c6e22e1717da6ddef6" target="_top" xlink:title=" ">
<polygon fill="white" stroke="#666666" points="605.5,-234 466.5,-234 466.5,-204 605.5,-204 605.5,-234"/>
<text text-anchor="start" x="474.5" y="-222" font-family="Helvetica,sans-Serif" font-size="10.00">com.teragrep.pth_06.ast.</text>
<text text-anchor="middle" x="536" y="-211" font-family="Helvetica,sans-Serif" font-size="10.00">Expression.asLogical</text>
</a>
</g>
</g>
<!-- Node2&#45;&gt;Node3 -->
<g id="edge2_Node000002_Node000003" class="edge">
<title>Node2&#45;&gt;Node3</title>
<g id="a_edge2_Node000002_Node000003"><a xlink:title=" ">
<path fill="none" stroke="#63b8ff" d="M352.69,-162.06C378.84,-171.99 414.26,-184.97 446,-195 452.56,-197.07 459.43,-199.13 466.32,-201.11"/>
<polygon fill="#63b8ff" stroke="#63b8ff" points="465.81,-204.6 476.39,-203.96 467.72,-197.87 465.81,-204.6"/>
</a>
</g>
</g>
<!-- Node4 -->
<g id="Node000004" class="node">
<title>Node4</title>
<g id="a_Node000004"><a xlink:href="interfacecom_1_1teragrep_1_1pth__06_1_1ast_1_1LogicalExpression.html#aeaf8fe296c6899792f345659a9a6c0c4" target="_top" xlink:title=" ">
<polygon fill="white" stroke="#666666" points="609,-186 463,-186 463,-156 609,-156 609,-186"/>
<text text-anchor="start" x="471" y="-174" font-family="Helvetica,sans-Serif" font-size="10.00">com.teragrep.pth_06.ast.</text>
<text text-anchor="middle" x="536" y="-163" font-family="Helvetica,sans-Serif" font-size="10.00">LogicalExpression.children</text>
</a>
</g>
</g>
<!-- Node2&#45;&gt;Node4 -->
<g id="edge3_Node000002_Node000004" class="edge">
<title>Node2&#45;&gt;Node4</title>
<g id="a_edge3_Node000002_Node000004"><a xlink:title=" ">
<path fill="none" stroke="#63b8ff" d="M410.29,-157.46C424.52,-159 439.06,-160.58 452.97,-162.09"/>
<polygon fill="#63b8ff" stroke="#63b8ff" points="452.64,-165.58 462.96,-163.18 453.4,-158.62 452.64,-165.58"/>
</a>
</g>
</g>
<!-- Node5 -->
<g id="Node000005" class="node">
<title>Node5</title>
<g id="a_Node000005"><a xlink:href="interfacecom_1_1teragrep_1_1pth__06_1_1ast_1_1Expression.html#a65ee7f5fb98e4129018f467a53586842" target="_top" xlink:title=" ">
<polygon fill="white" stroke="#666666" points="605.5,-138 466.5,-138 466.5,-108 605.5,-108 605.5,-138"/>
<text text-anchor="start" x="474.5" y="-126" font-family="Helvetica,sans-Serif" font-size="10.00">com.teragrep.pth_06.ast.</text>
<text text-anchor="middle" x="536" y="-115" font-family="Helvetica,sans-Serif" font-size="10.00">Expression.isLogical</text>
</a>
</g>
</g>
<!-- Node2&#45;&gt;Node5 -->
<g id="edge5_Node000002_Node000005" class="edge">
<title>Node2&#45;&gt;Node5</title>
<g id="a_edge5_Node000002_Node000005"><a xlink:title=" ">
<path fill="none" stroke="#63b8ff" d="M410.29,-136.54C425.6,-134.88 441.28,-133.18 456.13,-131.57"/>
<polygon fill="#63b8ff" stroke="#63b8ff" points="456.7,-135.02 466.26,-130.46 455.94,-128.06 456.7,-135.02"/>
</a>
</g>
</g>
<!-- Node6 -->
<g id="Node000006" class="node">
<title>Node6</title>
<g id="a_Node000006"><a xlink:href="classcom_1_1teragrep_1_1pth__06_1_1ast_1_1analyze_1_1ScanGroupExpression.html#a0e5168dad0a59965e14bbc6417498fed" target="_top" xlink:title=" ">
<polygon fill="white" stroke="#666666" points="626,-90 446,-90 446,-60 626,-60 626,-90"/>
<text text-anchor="start" x="454" y="-78" font-family="Helvetica,sans-Serif" font-size="10.00">com.teragrep.pth_06.ast.analyze.</text>
<text text-anchor="middle" x="536" y="-67" font-family="Helvetica,sans-Serif" font-size="10.00">ScanGroupExpression.value</text>
</a>
</g>
</g>
<!-- Node2&#45;&gt;Node6 -->
<g id="edge6_Node000002_Node000006" class="edge">
<title>Node2&#45;&gt;Node6</title>
<g id="a_edge6_Node000002_Node000006"><a xlink:title=" ">
<path fill="none" stroke="#63b8ff" d="M352.69,-131.94C378.84,-122.01 414.26,-109.03 446,-99 452.56,-96.93 459.43,-94.87 466.32,-92.89"/>
<polygon fill="#63b8ff" stroke="#63b8ff" points="467.72,-96.13 476.39,-90.04 465.81,-89.4 467.72,-96.13"/>
</a>
</g>
</g>
<!-- Node7 -->
<g id="Node000007" class="node">
<title>Node7</title>
<g id="a_Node000007"><a xlink:href="classcom_1_1teragrep_1_1pth__06_1_1ast_1_1MergeIntersectingPlans.html#ac9312d6b24005eae4d9924660ca33a47" target="_top" xlink:title=" ">
<polygon fill="white" stroke="#666666" points="838,-122.5 666,-122.5 666,-81.5 838,-81.5 838,-122.5"/>
<text text-anchor="start" x="674" y="-110.5" font-family="Helvetica,sans-Serif" font-size="10.00">com.teragrep.pth_06.ast.</text>
<text text-anchor="start" x="674" y="-99.5" font-family="Helvetica,sans-Serif" font-size="10.00">MergeIntersectingPlans.merged</text>
<text text-anchor="middle" x="752" y="-88.5" font-family="Helvetica,sans-Serif" font-size="10.00">Ranges</text>
</a>
</g>
</g>
<!-- Node6&#45;&gt;Node7 -->
<g id="edge7_Node000006_Node000007" class="edge">
<title>Node6&#45;&gt;Node7</title>
<g id="a_edge7_Node000006_Node000007"><a xlink:title=" ">
<path fill="none" stroke="#63b8ff" d="M626.21,-86.25C635.91,-87.48 645.81,-88.73 655.59,-89.96"/>
<polygon fill="#63b8ff" stroke="#63b8ff" points="655.35,-93.46 665.71,-91.24 656.23,-86.52 655.35,-93.46"/>
</a>
</g>
</g>
<!-- Node8 -->
<g id="Node000008" class="node">
<title>Node8</title>
<g id="a_Node000008"><a xlink:href="classcom_1_1teragrep_1_1pth__06_1_1ast_1_1analyze_1_1PlannedScans.html#ad6dfe7529bfdfc03de991c95e194e0fe" target="_top" xlink:title=" ">
<polygon fill="white" stroke="#666666" points="842,-63 662,-63 662,-33 842,-33 842,-63"/>
<text text-anchor="start" x="670" y="-51" font-family="Helvetica,sans-Serif" font-size="10.00">com.teragrep.pth_06.ast.analyze.</text>
<text text-anchor="middle" x="752" y="-40" font-family="Helvetica,sans-Serif" font-size="10.00">PlannedScans.planListForGroup</text>
</a>
</g>
</g>
<!-- Node6&#45;&gt;Node8 -->
<g id="edge8_Node000006_Node000008" class="edge">
<title>Node6&#45;&gt;Node8</title>
<g id="a_edge8_Node000006_Node000008"><a xlink:title=" ">
<path fill="none" stroke="#63b8ff" d="M626.21,-63.75C634.7,-62.67 643.34,-61.58 651.92,-60.5"/>
<polygon fill="#63b8ff" stroke="#63b8ff" points="652.46,-63.96 661.94,-59.24 651.58,-57.02 652.46,-63.96"/>
</a>
</g>
</g>
<!-- Node9 -->
<g id="Node000009" class="node">
<title>Node9</title>
<g id="a_Node000009"><a xlink:href="classcom_1_1teragrep_1_1pth__06_1_1ast_1_1analyze_1_1StreamIDGroup.html#a429db1dbf66f77a975f929fa85179f87" target="_top" xlink:title=" ">
<polygon fill="white" stroke="#666666" points="1070,-96 878,-96 878,-66 1070,-66 1070,-96"/>
<text text-anchor="start" x="886" y="-84" font-family="Helvetica,sans-Serif" font-size="10.00">com.teragrep.pth_06.ast.analyze.</text>
<text text-anchor="middle" x="974" y="-73" font-family="Helvetica,sans-Serif" font-size="10.00">StreamIDGroup.combinedStreamIds</text>
</a>
</g>
</g>
<!-- Node8&#45;&gt;Node9 -->
<g id="edge9_Node000008_Node000009" class="edge">
<title>Node8&#45;&gt;Node9</title>
<g id="a_edge9_Node000008_Node000009"><a xlink:title=" ">
<path fill="none" stroke="#63b8ff" d="M842.17,-61.37C850.64,-62.65 859.29,-63.94 867.89,-65.23"/>
<polygon fill="#63b8ff" stroke="#63b8ff" points="867.56,-68.72 877.97,-66.74 868.6,-61.8 867.56,-68.72"/>
</a>
</g>
</g>
<!-- Node10 -->
<g id="Node000010" class="node">
<title>Node10</title>
<g id="a_Node000010"><a xlink:href="classcom_1_1teragrep_1_1pth__06_1_1ast_1_1analyze_1_1FilterGroup.html#abca0dfe17ffff99e035f7136c075c661" target="_top" xlink:title=" ">
<polygon fill="white" stroke="#666666" points="1064,-30 884,-30 884,0 1064,0 1064,-30"/>
<text text-anchor="start" x="892" y="-18" font-family="Helvetica,sans-Serif" font-size="10.00">com.teragrep.pth_06.ast.analyze.</text>
<text text-anchor="middle" x="974" y="-7" font-family="Helvetica,sans-Serif" font-size="10.00">FilterGroup.filterList</text>
</a>
</g>
</g>
<!-- Node8&#45;&gt;Node10 -->
<g id="edge10_Node000008_Node000010" class="edge">
<title>Node8&#45;&gt;Node10</title>
<g id="a_edge10_Node000008_Node000010"><a xlink:title=" ">
<path fill="none" stroke="#63b8ff" d="M842.17,-34.63C852.55,-33.07 863.18,-31.47 873.69,-29.9"/>
<polygon fill="#63b8ff" stroke="#63b8ff" points="874.34,-33.34 883.71,-28.39 873.3,-26.42 874.34,-33.34"/>
</a>
</g>
</g>
<!-- Node10&#45;&gt;Node10 -->
<g id="edge11_Node000010_Node000010" class="edge">
<title>Node10&#45;&gt;Node10</title>
<g id="a_edge11_Node000010_Node000010"><a xlink:title=" ">
<path fill="none" stroke="#63b8ff" d="M934.98,-30.28C926.3,-39.41 939.31,-48 974,-48 994.6,-48 1007.55,-44.97 1012.86,-40.6"/>
<polygon fill="#63b8ff" stroke="#63b8ff" points="1016.36,-40.33 1013.02,-30.28 1009.36,-40.22 1016.36,-40.33"/>
</a>
</g>
</g>
</g>
</svg>
