<?xml version="1.0" encoding="UTF-8" standalone="no"?>
<!DOCTYPE svg PUBLIC "-//W3C//DTD SVG 1.1//EN"
 "http://www.w3.org/Graphics/SVG/1.1/DTD/svg11.dtd">
<!-- Generated by graphviz version 2.43.0 (0)
 -->
<!-- Title: com.teragrep.pth_06.planner.HourlyViewsSlices Pages: 1 -->
<svg width="172pt" height="159pt"
 viewBox="0.00 0.00 172.00 159.00" xmlns="http://www.w3.org/2000/svg" xmlns:xlink="http://www.w3.org/1999/xlink">
<g id="graph0" class="graph" transform="scale(1 1) rotate(0) translate(4 155)">
<title>com.teragrep.pth_06.planner.HourlyViewsSlices</title>
<!-- Node1 -->
<g id="Node000001" class="node">
<title>Node1</title>
<g id="a_Node000001"><a xlink:title=" ">
<polygon fill="#999999" stroke="#666666" points="162,-30 2,-30 2,0 162,0 162,-30"/>
<text text-anchor="start" x="10" y="-18" font-family="Helvetica,sans-Serif" font-size="10.00">com.teragrep.pth_06.planner.</text>
<text text-anchor="middle" x="82" y="-7" font-family="Helvetica,sans-Serif" font-size="10.00">HourlyViewsSlices</text>
</a>
</g>
</g>
<!-- Node2 -->
<g id="Node000002" class="node">
<title>Node2</title>
<g id="a_Node000002"><a xlink:href="interfacecom_1_1teragrep_1_1pth__06_1_1planner_1_1HourlySlices.html" target="_top" xlink:title=" ">
<polygon fill="white" stroke="#666666" points="162,-96 2,-96 2,-66 162,-66 162,-96"/>
<text text-anchor="start" x="10" y="-84" font-family="Helvetica,sans-Serif" font-size="10.00">com.teragrep.pth_06.planner.</text>
<text text-anchor="middle" x="82" y="-73" font-family="Helvetica,sans-Serif" font-size="10.00">HourlySlices</text>
</a>
</g>
</g>
<!-- Node2&#45;&gt;Node1 -->
<g id="edge1_Node000001_Node000002" class="edge">
<title>Node2&#45;&gt;Node1</title>
<g id="a_edge1_Node000001_Node000002"><a xlink:title=" ">
<path fill="none" stroke="#63b8ff" d="M82,-55.54C82,-46.96 82,-37.61 82,-30.16"/>
<polygon fill="#63b8ff" stroke="#63b8ff" points="78.5,-55.8 82,-65.8 85.5,-55.8 78.5,-55.8"/>
</a>
</g>
</g>
<!-- Node3 -->
<g id="Node000003" class="node">
<title>Node3</title>
<g id="a_Node000003"><a xlink:href="interfacecom_1_1teragrep_1_1pth__06_1_1Stubable.html" target="_top" xlink:title=" ">
<polygon fill="white" stroke="#666666" points="164,-151 0,-151 0,-132 164,-132 164,-151"/>
<text text-anchor="middle" x="82" y="-139" font-family="Helvetica,sans-Serif" font-size="10.00">com.teragrep.pth_06.Stubable</text>
</a>
</g>
</g>
<!-- Node3&#45;&gt;Node2 -->
<g id="edge2_Node000002_Node000003" class="edge">
<title>Node3&#45;&gt;Node2</title>
<g id="a_edge2_Node000002_Node000003"><a xlink:title=" ">
<path fill="none" stroke="#63b8ff" d="M82,-121.65C82,-113.36 82,-103.78 82,-96.11"/>
<polygon fill="#63b8ff" stroke="#63b8ff" points="78.5,-121.87 82,-131.87 85.5,-121.87 78.5,-121.87"/>
</a>
</g>
</g>
</g>
</svg>
