<?xml version="1.0" encoding="UTF-8" standalone="no"?>
<!DOCTYPE svg PUBLIC "-//W3C//DTD SVG 1.1//EN"
 "http://www.w3.org/Graphics/SVG/1.1/DTD/svg11.dtd">
<!-- Generated by graphviz version 2.43.0 (0)
 -->
<!-- Title: com.teragrep.pth_06.ast.analyze.ClassifiedExpressions.sourceTypeList Pages: 1 -->
<svg width="453pt" height="194pt"
 viewBox="0.00 0.00 453.00 193.50" xmlns="http://www.w3.org/2000/svg" xmlns:xlink="http://www.w3.org/1999/xlink">
<g id="graph0" class="graph" transform="scale(1 1) rotate(0) translate(4 189.5)">
<title>com.teragrep.pth_06.ast.analyze.ClassifiedExpressions.sourceTypeList</title>
<!-- Node1 -->
<g id="Node000001" class="node">
<title>Node1</title>
<g id="a_Node000001"><a xlink:title=" ">
<polygon fill="#999999" stroke="#666666" points="445,-113.5 248,-113.5 248,-83.5 445,-83.5 445,-113.5"/>
<text text-anchor="start" x="256" y="-101.5" font-family="Helvetica,sans-Serif" font-size="10.00">com.teragrep.pth_06.ast.analyze.</text>
<text text-anchor="middle" x="346.5" y="-90.5" font-family="Helvetica,sans-Serif" font-size="10.00">ClassifiedExpressions.sourceTypeList</text>
</a>
</g>
</g>
<!-- Node2 -->
<g id="Node000002" class="node">
<title>Node2</title>
<g id="a_Node000002"><a xlink:href="classcom_1_1teragrep_1_1pth__06_1_1ast_1_1analyze_1_1FilterGroup.html#ae4d852bcc6a0293ec14152579942d2ce" target="_top" xlink:title=" ">
<polygon fill="white" stroke="#666666" points="196,-185.5 16,-185.5 16,-155.5 196,-155.5 196,-185.5"/>
<text text-anchor="start" x="24" y="-173.5" font-family="Helvetica,sans-Serif" font-size="10.00">com.teragrep.pth_06.ast.analyze.</text>
<text text-anchor="middle" x="106" y="-162.5" font-family="Helvetica,sans-Serif" font-size="10.00">FilterGroup.FilterGroup</text>
</a>
</g>
</g>
<!-- Node1&#45;&gt;Node2 -->
<g id="edge1_Node000001_Node000002" class="edge">
<title>Node1&#45;&gt;Node2</title>
<g id="a_edge1_Node000001_Node000002"><a xlink:title=" ">
<path fill="none" stroke="#63b8ff" d="M297.99,-117.16C272.7,-126.69 240.92,-138.03 212,-146.5 201.14,-149.68 189.55,-152.7 178.18,-155.45"/>
<polygon fill="#63b8ff" stroke="#63b8ff" points="299.24,-120.43 307.35,-113.6 296.76,-113.88 299.24,-120.43"/>
</a>
</g>
</g>
<!-- Node3 -->
<g id="Node000003" class="node">
<title>Node3</title>
<g id="a_Node000003"><a xlink:href="classcom_1_1teragrep_1_1pth__06_1_1ast_1_1analyze_1_1StreamIDGroup.html#a93e79d77b3c9f57782f1b9c9f5e43e76" target="_top" xlink:title=" ">
<polygon fill="white" stroke="#666666" points="196,-137.5 16,-137.5 16,-107.5 196,-107.5 196,-137.5"/>
<text text-anchor="start" x="24" y="-125.5" font-family="Helvetica,sans-Serif" font-size="10.00">com.teragrep.pth_06.ast.analyze.</text>
<text text-anchor="middle" x="106" y="-114.5" font-family="Helvetica,sans-Serif" font-size="10.00">StreamIDGroup.StreamIDGroup</text>
</a>
</g>
</g>
<!-- Node1&#45;&gt;Node3 -->
<g id="edge2_Node000001_Node000003" class="edge">
<title>Node1&#45;&gt;Node3</title>
<g id="a_edge2_Node000001_Node000003"><a xlink:title=" ">
<path fill="none" stroke="#63b8ff" d="M237.72,-109.35C223.81,-110.75 209.68,-112.17 196.11,-113.53"/>
<polygon fill="#63b8ff" stroke="#63b8ff" points="238.21,-112.81 247.8,-108.33 237.5,-105.85 238.21,-112.81"/>
</a>
</g>
</g>
<!-- Node4 -->
<g id="Node000004" class="node">
<title>Node4</title>
<g id="a_Node000004"><a xlink:href="classcom_1_1teragrep_1_1pth__06_1_1ast_1_1analyze_1_1ClassifiedExpressionsTest.html#a4109474e8197f3120f3b9943fac52e2a" target="_top" xlink:title=" ">
<polygon fill="white" stroke="#666666" points="212,-89.5 0,-89.5 0,-59.5 212,-59.5 212,-89.5"/>
<text text-anchor="start" x="8" y="-77.5" font-family="Helvetica,sans-Serif" font-size="10.00">com.teragrep.pth_06.ast.analyze.</text>
<text text-anchor="middle" x="106" y="-66.5" font-family="Helvetica,sans-Serif" font-size="10.00">ClassifiedExpressionsTest.testEmptyList</text>
</a>
</g>
</g>
<!-- Node1&#45;&gt;Node4 -->
<g id="edge3_Node000001_Node000004" class="edge">
<title>Node1&#45;&gt;Node4</title>
<g id="a_edge3_Node000001_Node000004"><a xlink:title=" ">
<path fill="none" stroke="#63b8ff" d="M237.59,-87.64C229.18,-86.79 220.69,-85.94 212.3,-85.1"/>
<polygon fill="#63b8ff" stroke="#63b8ff" points="237.5,-91.15 247.8,-88.67 238.21,-84.19 237.5,-91.15"/>
</a>
</g>
</g>
<!-- Node5 -->
<g id="Node000005" class="node">
<title>Node5</title>
<g id="a_Node000005"><a xlink:href="classcom_1_1teragrep_1_1pth__06_1_1ast_1_1analyze_1_1ClassifiedExpressionsTest.html#a958a584b52ea496db9742a5a8c8ac735" target="_top" xlink:title=" ">
<polygon fill="white" stroke="#666666" points="204.5,-41 7.5,-41 7.5,0 204.5,0 204.5,-41"/>
<text text-anchor="start" x="15.5" y="-29" font-family="Helvetica,sans-Serif" font-size="10.00">com.teragrep.pth_06.ast.analyze.</text>
<text text-anchor="start" x="15.5" y="-18" font-family="Helvetica,sans-Serif" font-size="10.00">ClassifiedExpressionsTest.testSource</text>
<text text-anchor="middle" x="106" y="-7" font-family="Helvetica,sans-Serif" font-size="10.00">TypeList</text>
</a>
</g>
</g>
<!-- Node1&#45;&gt;Node5 -->
<g id="edge4_Node000001_Node000005" class="edge">
<title>Node1&#45;&gt;Node5</title>
<g id="a_edge4_Node000001_Node000005"><a xlink:title=" ">
<path fill="none" stroke="#63b8ff" d="M296.08,-79.84C271.03,-70.61 240.04,-59.54 212,-50.5 202.08,-47.3 191.57,-44.09 181.19,-41.03"/>
<polygon fill="#63b8ff" stroke="#63b8ff" points="295.13,-83.22 305.72,-83.41 297.56,-76.66 295.13,-83.22"/>
</a>
</g>
</g>
</g>
</svg>
