<?xml version="1.0" encoding="UTF-8" standalone="no"?>
<!DOCTYPE svg PUBLIC "-//W3C//DTD SVG 1.1//EN"
 "http://www.w3.org/Graphics/SVG/1.1/DTD/svg11.dtd">
<!-- Generated by graphviz version 2.43.0 (0)
 -->
<!-- Title: com.teragrep.pth_06.planner.HBaseQueryImpl Pages: 1 -->
<svg width="634pt" height="182pt"
 viewBox="0.00 0.00 634.00 182.00" xmlns="http://www.w3.org/2000/svg" xmlns:xlink="http://www.w3.org/1999/xlink">
<g id="graph0" class="graph" transform="scale(1 1) rotate(0) translate(4 178)">
<title>com.teragrep.pth_06.planner.HBaseQueryImpl</title>
<!-- Node1 -->
<g id="Node000001" class="node">
<title>Node1</title>
<g id="a_Node000001"><a xlink:title="Responsible for splitting results from scanPlanCollection into batches.">
<polygon fill="#999999" stroke="#666666" points="626,-90 466,-90 466,-60 626,-60 626,-90"/>
<text text-anchor="start" x="474" y="-78" font-family="Helvetica,sans-Serif" font-size="10.00">com.teragrep.pth_06.planner.</text>
<text text-anchor="middle" x="546" y="-67" font-family="Helvetica,sans-Serif" font-size="10.00">HBaseQueryImpl</text>
</a>
</g>
</g>
<!-- Node2 -->
<g id="Node000002" class="node">
<title>Node2</title>
<g id="a_Node000002"><a xlink:href="interfacecom_1_1teragrep_1_1pth__06_1_1planner_1_1HBaseQuery.html" target="_top" xlink:title=" ">
<polygon fill="white" stroke="#666666" points="367,-126 207,-126 207,-96 367,-96 367,-126"/>
<text text-anchor="start" x="215" y="-114" font-family="Helvetica,sans-Serif" font-size="10.00">com.teragrep.pth_06.planner.</text>
<text text-anchor="middle" x="287" y="-103" font-family="Helvetica,sans-Serif" font-size="10.00">HBaseQuery</text>
</a>
</g>
</g>
<!-- Node2&#45;&gt;Node1 -->
<g id="edge1_Node000001_Node000002" class="edge">
<title>Node2&#45;&gt;Node1</title>
<g id="a_edge1_Node000001_Node000002"><a xlink:title=" ">
<path fill="none" stroke="#63b8ff" d="M377.24,-98.5C405.99,-94.47 437.63,-90.04 465.61,-86.12"/>
<polygon fill="#63b8ff" stroke="#63b8ff" points="376.62,-95.05 367.21,-99.91 377.59,-101.98 376.62,-95.05"/>
</a>
</g>
</g>
<!-- Node3 -->
<g id="Node000003" class="node">
<title>Node3</title>
<g id="a_Node000003"><a xlink:href="interfacecom_1_1teragrep_1_1pth__06_1_1Stubbable.html" target="_top" xlink:title=" ">
<polygon fill="white" stroke="#666666" points="170,-161.5 0,-161.5 0,-142.5 170,-142.5 170,-161.5"/>
<text text-anchor="middle" x="85" y="-149.5" font-family="Helvetica,sans-Serif" font-size="10.00">com.teragrep.pth_06.Stubbable</text>
</a>
</g>
</g>
<!-- Node3&#45;&gt;Node2 -->
<g id="edge2_Node000002_Node000003" class="edge">
<title>Node3&#45;&gt;Node2</title>
<g id="a_edge2_Node000002_Node000003"><a xlink:title=" ">
<path fill="none" stroke="#63b8ff" d="M142.44,-140.43C164.18,-135.97 189.33,-130.82 212.45,-126.08"/>
<polygon fill="#63b8ff" stroke="#63b8ff" points="141.48,-137.05 132.39,-142.49 142.89,-143.91 141.48,-137.05"/>
</a>
</g>
</g>
<!-- Node7 -->
<g id="Node000007" class="node">
<title>Node7</title>
<g id="a_Node000007"><a xlink:href="interfacecom_1_1teragrep_1_1pth__06_1_1planner_1_1HourlySlices.html" target="_top" xlink:title=" ">
<polygon fill="white" stroke="#666666" points="367,-174 207,-174 207,-144 367,-144 367,-174"/>
<text text-anchor="start" x="215" y="-162" font-family="Helvetica,sans-Serif" font-size="10.00">com.teragrep.pth_06.planner.</text>
<text text-anchor="middle" x="287" y="-151" font-family="Helvetica,sans-Serif" font-size="10.00">HourlySlices</text>
</a>
</g>
</g>
<!-- Node3&#45;&gt;Node7 -->
<g id="edge7_Node000007_Node000003" class="edge">
<title>Node3&#45;&gt;Node7</title>
<g id="a_edge7_Node000007_Node000003"><a xlink:title=" ">
<path fill="none" stroke="#63b8ff" d="M180.28,-155.3C189.21,-155.61 198.2,-155.93 206.96,-156.23"/>
<polygon fill="#63b8ff" stroke="#63b8ff" points="180.35,-151.8 170.24,-154.95 180.11,-158.8 180.35,-151.8"/>
</a>
</g>
</g>
<!-- Node4 -->
<g id="Node000004" class="node">
<title>Node4</title>
<g id="a_Node000004"><a xlink:title=" ">
<polygon fill="white" stroke="#666666" points="128.5,-118.5 41.5,-118.5 41.5,-99.5 128.5,-99.5 128.5,-118.5"/>
<text text-anchor="middle" x="85" y="-106.5" font-family="Helvetica,sans-Serif" font-size="10.00">AutoCloseable</text>
</a>
</g>
</g>
<!-- Node4&#45;&gt;Node2 -->
<g id="edge3_Node000002_Node000004" class="edge">
<title>Node4&#45;&gt;Node2</title>
<g id="a_edge3_Node000002_Node000004"><a xlink:title=" ">
<path fill="none" stroke="#63b8ff" d="M139.11,-109.53C159.87,-109.74 184.12,-109.98 206.86,-110.21"/>
<polygon fill="#63b8ff" stroke="#63b8ff" points="138.94,-106.03 128.91,-109.43 138.87,-113.03 138.94,-106.03"/>
</a>
</g>
</g>
<!-- Node5 -->
<g id="Node000005" class="node">
<title>Node5</title>
<g id="a_Node000005"><a xlink:href="interfacecom_1_1teragrep_1_1pth__06_1_1planner_1_1QueryMetrics.html" target="_top" xlink:title=" ">
<polygon fill="white" stroke="#666666" points="367,-78 207,-78 207,-48 367,-48 367,-78"/>
<text text-anchor="start" x="215" y="-66" font-family="Helvetica,sans-Serif" font-size="10.00">com.teragrep.pth_06.planner.</text>
<text text-anchor="middle" x="287" y="-55" font-family="Helvetica,sans-Serif" font-size="10.00">QueryMetrics</text>
</a>
</g>
</g>
<!-- Node5&#45;&gt;Node1 -->
<g id="edge4_Node000001_Node000005" class="edge">
<title>Node5&#45;&gt;Node1</title>
<g id="a_edge4_Node000001_Node000005"><a xlink:title=" ">
<path fill="none" stroke="#63b8ff" d="M377.24,-67.17C405.99,-68.51 437.63,-69.99 465.61,-71.29"/>
<polygon fill="#63b8ff" stroke="#63b8ff" points="377.36,-63.67 367.21,-66.7 377.03,-70.66 377.36,-63.67"/>
</a>
</g>
</g>
<!-- Node6 -->
<g id="Node000006" class="node">
<title>Node6</title>
<g id="a_Node000006"><a xlink:href="classcom_1_1teragrep_1_1pth__06_1_1planner_1_1LogfileTable.html" target="_top" xlink:title="Provides access to hbase logfile table.">
<polygon fill="white" stroke="#666666" points="367,-30 207,-30 207,0 367,0 367,-30"/>
<text text-anchor="start" x="215" y="-18" font-family="Helvetica,sans-Serif" font-size="10.00">com.teragrep.pth_06.planner.</text>
<text text-anchor="middle" x="287" y="-7" font-family="Helvetica,sans-Serif" font-size="10.00">LogfileTable</text>
</a>
</g>
</g>
<!-- Node6&#45;&gt;Node1 -->
<g id="edge5_Node000001_Node000006" class="edge">
<title>Node6&#45;&gt;Node1</title>
<g id="a_edge5_Node000001_Node000006"><a xlink:title=" ">
<path fill="none" stroke="#9a32cd" stroke-dasharray="5,2" d="M362.35,-32.36C399.71,-41.08 444.55,-51.55 480.45,-59.93"/>
<polygon fill="#9a32cd" stroke="#9a32cd" points="363.05,-28.93 352.52,-30.06 361.46,-35.75 363.05,-28.93"/>
</a>
</g>
<text text-anchor="middle" x="416.5" y="-56" font-family="Helvetica,sans-Serif" font-size="10.00" fill="grey"> table</text>
</g>
<!-- Node7&#45;&gt;Node1 -->
<g id="edge6_Node000001_Node000007" class="edge">
<title>Node7&#45;&gt;Node1</title>
<g id="a_edge6_Node000001_Node000007"><a xlink:title=" ">
<path fill="none" stroke="#9a32cd" stroke-dasharray="5,2" d="M348.18,-140.92C354.54,-138.95 360.91,-136.95 367,-135 413.12,-120.23 465.63,-102.4 501.6,-90.04"/>
<polygon fill="#9a32cd" stroke="#9a32cd" points="346.75,-137.7 338.22,-143.99 348.81,-144.39 346.75,-137.7"/>
</a>
</g>
<text text-anchor="middle" x="416.5" y="-131" font-family="Helvetica,sans-Serif" font-size="10.00" fill="grey"> hourlySlices</text>
</g>
</g>
</svg>
