<?xml version="1.0" encoding="UTF-8" standalone="no"?>
<!DOCTYPE svg PUBLIC "-//W3C//DTD SVG 1.1//EN"
 "http://www.w3.org/Graphics/SVG/1.1/DTD/svg11.dtd">
<!-- Generated by graphviz version 2.43.0 (0)
 -->
<!-- Title: com.teragrep.pth_06.ast.analyze.ScanTimeQualifiers.ScanTimeQualifiers Pages: 1 -->
<svg width="665pt" height="86pt"
 viewBox="0.00 0.00 665.00 86.00" xmlns="http://www.w3.org/2000/svg" xmlns:xlink="http://www.w3.org/1999/xlink">
<g id="graph0" class="graph" transform="scale(1 1) rotate(0) translate(4 82)">
<title>com.teragrep.pth_06.ast.analyze.ScanTimeQualifiers.ScanTimeQualifiers</title>
<!-- Node1 -->
<g id="Node000001" class="node">
<title>Node1</title>
<g id="a_Node000001"><a xlink:title=" ">
<polygon fill="#999999" stroke="#666666" points="209,-54 0,-54 0,-24 209,-24 209,-54"/>
<text text-anchor="start" x="8" y="-42" font-family="Helvetica,sans-Serif" font-size="10.00">com.teragrep.pth_06.ast.analyze.</text>
<text text-anchor="middle" x="104.5" y="-31" font-family="Helvetica,sans-Serif" font-size="10.00">ScanTimeQualifiers.ScanTimeQualifiers</text>
</a>
</g>
</g>
<!-- Node2 -->
<g id="Node000002" class="node">
<title>Node2</title>
<g id="a_Node000002"><a xlink:href="classcom_1_1teragrep_1_1pth__06_1_1ast_1_1analyze_1_1ClassifiedExpressions.html#a6c7e53e1b206fc2ef1f6aeea4ef1afa6" target="_top" xlink:title=" ">
<polygon fill="white" stroke="#666666" points="425,-78 245,-78 245,-48 425,-48 425,-78"/>
<text text-anchor="start" x="253" y="-66" font-family="Helvetica,sans-Serif" font-size="10.00">com.teragrep.pth_06.ast.analyze.</text>
<text text-anchor="middle" x="335" y="-55" font-family="Helvetica,sans-Serif" font-size="10.00">ClassifiedExpressions.earliestList</text>
</a>
</g>
</g>
<!-- Node1&#45;&gt;Node2 -->
<g id="edge1_Node000001_Node000002" class="edge">
<title>Node1&#45;&gt;Node2</title>
<g id="a_edge1_Node000001_Node000002"><a xlink:title=" ">
<path fill="none" stroke="#63b8ff" d="M209.05,-49.88C217.63,-50.78 226.28,-51.69 234.82,-52.58"/>
<polygon fill="#63b8ff" stroke="#63b8ff" points="234.47,-56.06 244.78,-53.63 235.2,-49.1 234.47,-56.06"/>
</a>
</g>
</g>
<!-- Node4 -->
<g id="Node000004" class="node">
<title>Node4</title>
<g id="a_Node000004"><a xlink:href="classcom_1_1teragrep_1_1pth__06_1_1ast_1_1analyze_1_1ClassifiedExpressions.html#a2da89c7b0fe08ff65aa4b1cfd42585e8" target="_top" xlink:title=" ">
<polygon fill="white" stroke="#666666" points="425,-30 245,-30 245,0 425,0 425,-30"/>
<text text-anchor="start" x="253" y="-18" font-family="Helvetica,sans-Serif" font-size="10.00">com.teragrep.pth_06.ast.analyze.</text>
<text text-anchor="middle" x="335" y="-7" font-family="Helvetica,sans-Serif" font-size="10.00">ClassifiedExpressions.latestList</text>
</a>
</g>
</g>
<!-- Node1&#45;&gt;Node4 -->
<g id="edge3_Node000001_Node000004" class="edge">
<title>Node1&#45;&gt;Node4</title>
<g id="a_edge3_Node000001_Node000004"><a xlink:title=" ">
<path fill="none" stroke="#63b8ff" d="M209.05,-28.12C217.63,-27.22 226.28,-26.31 234.82,-25.42"/>
<polygon fill="#63b8ff" stroke="#63b8ff" points="235.2,-28.9 244.78,-24.37 234.47,-21.94 235.2,-28.9"/>
</a>
</g>
</g>
<!-- Node3 -->
<g id="Node000003" class="node">
<title>Node3</title>
<g id="a_Node000003"><a xlink:href="classcom_1_1teragrep_1_1pth__06_1_1ast_1_1analyze_1_1ClassifiedExpressions.html#a5b892fa54a3c7ac63f7cc75cf9d38711" target="_top" xlink:title=" ">
<polygon fill="white" stroke="#666666" points="657,-59.5 461,-59.5 461,-18.5 657,-18.5 657,-59.5"/>
<text text-anchor="start" x="469" y="-47.5" font-family="Helvetica,sans-Serif" font-size="10.00">com.teragrep.pth_06.ast.analyze.</text>
<text text-anchor="start" x="469" y="-36.5" font-family="Helvetica,sans-Serif" font-size="10.00">ClassifiedExpressions.expressionList</text>
<text text-anchor="middle" x="559" y="-25.5" font-family="Helvetica,sans-Serif" font-size="10.00">FilteredByTag</text>
</a>
</g>
</g>
<!-- Node2&#45;&gt;Node3 -->
<g id="edge2_Node000002_Node000003" class="edge">
<title>Node2&#45;&gt;Node3</title>
<g id="a_edge2_Node000002_Node000003"><a xlink:title=" ">
<path fill="none" stroke="#63b8ff" d="M425.02,-53.38C433.51,-52.46 442.19,-51.52 450.83,-50.59"/>
<polygon fill="#63b8ff" stroke="#63b8ff" points="451.39,-54.05 460.96,-49.49 450.64,-47.09 451.39,-54.05"/>
</a>
</g>
</g>
<!-- Node4&#45;&gt;Node3 -->
<g id="edge4_Node000004_Node000003" class="edge">
<title>Node4&#45;&gt;Node3</title>
<g id="a_edge4_Node000004_Node000003"><a xlink:title=" ">
<path fill="none" stroke="#63b8ff" d="M425.02,-24.62C433.51,-25.54 442.19,-26.48 450.83,-27.41"/>
<polygon fill="#63b8ff" stroke="#63b8ff" points="450.64,-30.91 460.96,-28.51 451.39,-23.95 450.64,-30.91"/>
</a>
</g>
</g>
</g>
</svg>
