<?xml version="1.0" encoding="UTF-8" standalone="no"?>
<!DOCTYPE svg PUBLIC "-//W3C//DTD SVG 1.1//EN"
 "http://www.w3.org/Graphics/SVG/1.1/DTD/svg11.dtd">
<!-- Generated by graphviz version 2.43.0 (0)
 -->
<!-- Title: com.teragrep.pth_06.ast.transform.OptimizedASTTest.testMultipleDepthNestedBinaryExpressionsToValue Pages: 1 -->
<svg width="1410pt" height="86pt"
 viewBox="0.00 0.00 1410.00 86.00" xmlns="http://www.w3.org/2000/svg" xmlns:xlink="http://www.w3.org/1999/xlink">
<g id="graph0" class="graph" transform="scale(1 1) rotate(0) translate(4 82)">
<title>com.teragrep.pth_06.ast.transform.OptimizedASTTest.testMultipleDepthNestedBinaryExpressionsToValue</title>
<!-- Node1 -->
<g id="Node000001" class="node">
<title>Node1</title>
<g id="a_Node000001"><a xlink:title=" ">
<polygon fill="#999999" stroke="#666666" points="230,-59.5 0,-59.5 0,-18.5 230,-18.5 230,-59.5"/>
<text text-anchor="start" x="8" y="-47.5" font-family="Helvetica,sans-Serif" font-size="10.00">com.teragrep.pth_06.ast.transform.</text>
<text text-anchor="start" x="8" y="-36.5" font-family="Helvetica,sans-Serif" font-size="10.00">OptimizedASTTest.testMultipleDepthNested</text>
<text text-anchor="middle" x="115" y="-25.5" font-family="Helvetica,sans-Serif" font-size="10.00">BinaryExpressionsToValue</text>
</a>
</g>
</g>
<!-- Node2 -->
<g id="Node000002" class="node">
<title>Node2</title>
<g id="a_Node000002"><a xlink:href="classcom_1_1teragrep_1_1pth__06_1_1ast_1_1transform_1_1OptimizedAST.html#a05726d2699d7ade747e74de2140c6a41" target="_top" xlink:title=" ">
<polygon fill="white" stroke="#666666" points="456,-54 266,-54 266,-24 456,-24 456,-54"/>
<text text-anchor="start" x="274" y="-42" font-family="Helvetica,sans-Serif" font-size="10.00">com.teragrep.pth_06.ast.transform.</text>
<text text-anchor="middle" x="361" y="-31" font-family="Helvetica,sans-Serif" font-size="10.00">OptimizedAST.transformed</text>
</a>
</g>
</g>
<!-- Node1&#45;&gt;Node2 -->
<g id="edge1_Node000001_Node000002" class="edge">
<title>Node1&#45;&gt;Node2</title>
<g id="a_edge1_Node000001_Node000002"><a xlink:title=" ">
<path fill="none" stroke="#63b8ff" d="M230.14,-39C238.61,-39 247.12,-39 255.52,-39"/>
<polygon fill="#63b8ff" stroke="#63b8ff" points="255.71,-42.5 265.71,-39 255.71,-35.5 255.71,-42.5"/>
</a>
</g>
</g>
<!-- Node3 -->
<g id="Node000003" class="node">
<title>Node3</title>
<g id="a_Node000003"><a xlink:href="classcom_1_1teragrep_1_1pth__06_1_1ast_1_1transform_1_1OptimizedAST.html#ac4ebcab5c55182e969cd03150e96e374" target="_top" xlink:title=" ">
<polygon fill="white" stroke="#666666" points="682,-54 492,-54 492,-24 682,-24 682,-54"/>
<text text-anchor="start" x="500" y="-42" font-family="Helvetica,sans-Serif" font-size="10.00">com.teragrep.pth_06.ast.transform.</text>
<text text-anchor="middle" x="587" y="-31" font-family="Helvetica,sans-Serif" font-size="10.00">OptimizedAST.walkAndApply</text>
</a>
</g>
</g>
<!-- Node2&#45;&gt;Node3 -->
<g id="edge2_Node000002_Node000003" class="edge">
<title>Node2&#45;&gt;Node3</title>
<g id="a_edge2_Node000002_Node000003"><a xlink:title=" ">
<path fill="none" stroke="#63b8ff" d="M456.02,-39C464.54,-39 473.2,-39 481.8,-39"/>
<polygon fill="#63b8ff" stroke="#63b8ff" points="481.86,-42.5 491.86,-39 481.86,-35.5 481.86,-42.5"/>
</a>
</g>
</g>
<!-- Node3&#45;&gt;Node3 -->
<g id="edge8_Node000003_Node000003" class="edge">
<title>Node3&#45;&gt;Node3</title>
<g id="a_edge8_Node000003_Node000003"><a xlink:title=" ">
<path fill="none" stroke="#63b8ff" d="M547.27,-54.28C538.45,-63.41 551.69,-72 587,-72 607.97,-72 621.15,-68.97 626.56,-64.6"/>
<polygon fill="#63b8ff" stroke="#63b8ff" points="630.06,-64.33 626.73,-54.28 623.06,-64.22 630.06,-64.33"/>
</a>
</g>
</g>
<!-- Node4 -->
<g id="Node000004" class="node">
<title>Node4</title>
<g id="a_Node000004"><a xlink:href="classcom_1_1teragrep_1_1pth__06_1_1ast_1_1transform_1_1OptimizedAST.html#a77542c0b232d1e10e50a9846e1845b10" target="_top" xlink:title=" ">
<polygon fill="white" stroke="#666666" points="949,-54 718,-54 718,-24 949,-24 949,-54"/>
<text text-anchor="start" x="726" y="-42" font-family="Helvetica,sans-Serif" font-size="10.00">com.teragrep.pth_06.ast.transform.</text>
<text text-anchor="middle" x="833.5" y="-31" font-family="Helvetica,sans-Serif" font-size="10.00">OptimizedAST.transformedSingleExpression</text>
</a>
</g>
</g>
<!-- Node3&#45;&gt;Node4 -->
<g id="edge3_Node000003_Node000004" class="edge">
<title>Node3&#45;&gt;Node4</title>
<g id="a_edge3_Node000003_Node000004"><a xlink:title=" ">
<path fill="none" stroke="#63b8ff" d="M682.18,-39C690.59,-39 699.19,-39 707.81,-39"/>
<polygon fill="#63b8ff" stroke="#63b8ff" points="707.92,-42.5 717.92,-39 707.92,-35.5 707.92,-42.5"/>
</a>
</g>
</g>
<!-- Node5 -->
<g id="Node000005" class="node">
<title>Node5</title>
<g id="a_Node000005"><a xlink:href="classcom_1_1teragrep_1_1pth__06_1_1ast_1_1transform_1_1FlattenLogical.html#a2e1717ad6884eea7a2415aa7763eaed5" target="_top" xlink:title=" ">
<polygon fill="white" stroke="#666666" points="1175,-54 985,-54 985,-24 1175,-24 1175,-54"/>
<text text-anchor="start" x="993" y="-42" font-family="Helvetica,sans-Serif" font-size="10.00">com.teragrep.pth_06.ast.transform.</text>
<text text-anchor="middle" x="1080" y="-31" font-family="Helvetica,sans-Serif" font-size="10.00">FlattenLogical.transformed</text>
</a>
</g>
</g>
<!-- Node4&#45;&gt;Node5 -->
<g id="edge4_Node000004_Node000005" class="edge">
<title>Node4&#45;&gt;Node5</title>
<g id="a_edge4_Node000004_Node000005"><a xlink:title=" ">
<path fill="none" stroke="#63b8ff" d="M949.23,-39C957.7,-39 966.22,-39 974.62,-39"/>
<polygon fill="#63b8ff" stroke="#63b8ff" points="974.8,-42.5 984.8,-39 974.8,-35.5 974.8,-42.5"/>
</a>
</g>
</g>
<!-- Node5&#45;&gt;Node5 -->
<g id="edge7_Node000005_Node000005" class="edge">
<title>Node5&#45;&gt;Node5</title>
<g id="a_edge7_Node000005_Node000005"><a xlink:title=" ">
<path fill="none" stroke="#63b8ff" d="M1040.27,-54.28C1031.45,-63.41 1044.69,-72 1080,-72 1100.97,-72 1114.15,-68.97 1119.56,-64.6"/>
<polygon fill="#63b8ff" stroke="#63b8ff" points="1123.06,-64.33 1119.73,-54.28 1116.06,-64.22 1123.06,-64.33"/>
</a>
</g>
</g>
<!-- Node6 -->
<g id="Node000006" class="node">
<title>Node6</title>
<g id="a_Node000006"><a xlink:href="classcom_1_1teragrep_1_1pth__06_1_1ast_1_1transform_1_1FlattenLogical.html#a3b9085857dc57e88c58a6fa5a057f103" target="_top" xlink:title=" ">
<polygon fill="white" stroke="#666666" points="1402,-78 1211,-78 1211,-48 1402,-48 1402,-78"/>
<text text-anchor="start" x="1219" y="-66" font-family="Helvetica,sans-Serif" font-size="10.00">com.teragrep.pth_06.ast.transform.</text>
<text text-anchor="middle" x="1306.5" y="-55" font-family="Helvetica,sans-Serif" font-size="10.00">FlattenLogical.flattenedAndChildren</text>
</a>
</g>
</g>
<!-- Node5&#45;&gt;Node6 -->
<g id="edge5_Node000005_Node000006" class="edge">
<title>Node5&#45;&gt;Node6</title>
<g id="a_edge5_Node000005_Node000006"><a xlink:title=" ">
<path fill="none" stroke="#63b8ff" d="M1175.23,-49.07C1183.68,-49.98 1192.28,-50.9 1200.81,-51.81"/>
<polygon fill="#63b8ff" stroke="#63b8ff" points="1200.47,-55.29 1210.79,-52.87 1201.22,-48.33 1200.47,-55.29"/>
</a>
</g>
</g>
<!-- Node7 -->
<g id="Node000007" class="node">
<title>Node7</title>
<g id="a_Node000007"><a xlink:href="classcom_1_1teragrep_1_1pth__06_1_1ast_1_1transform_1_1FlattenLogical.html#ae0b8acc47ab74872494d07da365e303b" target="_top" xlink:title=" ">
<polygon fill="white" stroke="#666666" points="1401.5,-30 1211.5,-30 1211.5,0 1401.5,0 1401.5,-30"/>
<text text-anchor="start" x="1219.5" y="-18" font-family="Helvetica,sans-Serif" font-size="10.00">com.teragrep.pth_06.ast.transform.</text>
<text text-anchor="middle" x="1306.5" y="-7" font-family="Helvetica,sans-Serif" font-size="10.00">FlattenLogical.flattenedOrChildren</text>
</a>
</g>
</g>
<!-- Node5&#45;&gt;Node7 -->
<g id="edge6_Node000005_Node000007" class="edge">
<title>Node5&#45;&gt;Node7</title>
<g id="a_edge6_Node000005_Node000007"><a xlink:title=" ">
<path fill="none" stroke="#63b8ff" d="M1175.23,-28.93C1183.77,-28.01 1192.45,-27.09 1201.07,-26.16"/>
<polygon fill="#63b8ff" stroke="#63b8ff" points="1201.58,-29.63 1211.15,-25.09 1200.83,-22.67 1201.58,-29.63"/>
</a>
</g>
</g>
</g>
</svg>
