<?xml version="1.0" encoding="UTF-8" standalone="no"?>
<!DOCTYPE svg PUBLIC "-//W3C//DTD SVG 1.1//EN"
 "http://www.w3.org/Graphics/SVG/1.1/DTD/svg11.dtd">
<!-- Generated by graphviz version 2.43.0 (0)
 -->
<!-- Title: com.teragrep.pth_06.ast.analyze.ScanGroupExpression.value Pages: 1 -->
<svg width="635pt" height="248pt"
 viewBox="0.00 0.00 635.00 248.00" xmlns="http://www.w3.org/2000/svg" xmlns:xlink="http://www.w3.org/1999/xlink">
<g id="graph0" class="graph" transform="scale(1 1) rotate(0) translate(4 244)">
<title>com.teragrep.pth_06.ast.analyze.ScanGroupExpression.value</title>
<!-- Node1 -->
<g id="Node000001" class="node">
<title>Node1</title>
<g id="a_Node000001"><a xlink:title=" ">
<polygon fill="#999999" stroke="#666666" points="627,-126 447,-126 447,-96 627,-96 627,-126"/>
<text text-anchor="start" x="455" y="-114" font-family="Helvetica,sans-Serif" font-size="10.00">com.teragrep.pth_06.ast.analyze.</text>
<text text-anchor="middle" x="537" y="-103" font-family="Helvetica,sans-Serif" font-size="10.00">ScanGroupExpression.value</text>
</a>
</g>
</g>
<!-- Node2 -->
<g id="Node000002" class="node">
<title>Node2</title>
<g id="a_Node000002"><a xlink:href="classcom_1_1teragrep_1_1pth__06_1_1ast_1_1analyze_1_1ScanPlanCollection.html#a189720b142e6dac61490c1b2c0a9bf1f" target="_top" xlink:title=" ">
<polygon fill="white" stroke="#666666" points="408.5,-222 218.5,-222 218.5,-192 408.5,-192 408.5,-222"/>
<text text-anchor="start" x="226.5" y="-210" font-family="Helvetica,sans-Serif" font-size="10.00">com.teragrep.pth_06.ast.analyze.</text>
<text text-anchor="middle" x="313.5" y="-199" font-family="Helvetica,sans-Serif" font-size="10.00">ScanPlanCollection.findScanRanges</text>
</a>
</g>
</g>
<!-- Node1&#45;&gt;Node2 -->
<g id="edge1_Node000001_Node000002" class="edge">
<title>Node1&#45;&gt;Node2</title>
<g id="a_edge1_Node000001_Node000002"><a xlink:title=" ">
<path fill="none" stroke="#63b8ff" d="M505.41,-131.86C480.83,-147.82 444.93,-169.32 411,-183 402.67,-186.36 393.75,-189.34 384.81,-191.96"/>
<polygon fill="#63b8ff" stroke="#63b8ff" points="507.5,-134.68 513.93,-126.26 503.65,-128.83 507.5,-134.68"/>
</a>
</g>
</g>
<!-- Node4 -->
<g id="Node000004" class="node">
<title>Node4</title>
<g id="a_Node000004"><a xlink:href="classcom_1_1teragrep_1_1pth__06_1_1ast_1_1analyze_1_1ScanGroupExpressionTest.html#adf26305b6c1294c828bc17060a43a49d" target="_top" xlink:title=" ">
<polygon fill="white" stroke="#666666" points="411,-174 216,-174 216,-144 411,-144 411,-174"/>
<text text-anchor="start" x="224" y="-162" font-family="Helvetica,sans-Serif" font-size="10.00">com.teragrep.pth_06.ast.analyze.</text>
<text text-anchor="middle" x="313.5" y="-151" font-family="Helvetica,sans-Serif" font-size="10.00">ScanGroupExpressionTest.testEmpty</text>
</a>
</g>
</g>
<!-- Node1&#45;&gt;Node4 -->
<g id="edge4_Node000001_Node000004" class="edge">
<title>Node1&#45;&gt;Node4</title>
<g id="a_edge4_Node000001_Node000004"><a xlink:title=" ">
<path fill="none" stroke="#63b8ff" d="M456.47,-128.23C432.68,-133.39 406.8,-139 383.73,-144"/>
<polygon fill="#63b8ff" stroke="#63b8ff" points="457.49,-131.59 466.52,-126.06 456.01,-124.75 457.49,-131.59"/>
</a>
</g>
</g>
<!-- Node5 -->
<g id="Node000005" class="node">
<title>Node5</title>
<g id="a_Node000005"><a xlink:href="classcom_1_1teragrep_1_1pth__06_1_1ast_1_1analyze_1_1ScanPlanCollectionTest.html#a268359bc8ba40d91897fbe6213444601" target="_top" xlink:title=" ">
<polygon fill="white" stroke="#666666" points="404.5,-126 222.5,-126 222.5,-96 404.5,-96 404.5,-126"/>
<text text-anchor="start" x="230.5" y="-114" font-family="Helvetica,sans-Serif" font-size="10.00">com.teragrep.pth_06.ast.analyze.</text>
<text text-anchor="middle" x="313.5" y="-103" font-family="Helvetica,sans-Serif" font-size="10.00">ScanPlanCollectionTest.testEmpty</text>
</a>
</g>
</g>
<!-- Node1&#45;&gt;Node5 -->
<g id="edge5_Node000001_Node000005" class="edge">
<title>Node1&#45;&gt;Node5</title>
<g id="a_edge5_Node000001_Node000005"><a xlink:title=" ">
<path fill="none" stroke="#63b8ff" d="M436.66,-111C425.96,-111 415.12,-111 404.54,-111"/>
<polygon fill="#63b8ff" stroke="#63b8ff" points="436.86,-114.5 446.86,-111 436.86,-107.5 436.86,-114.5"/>
</a>
</g>
</g>
<!-- Node6 -->
<g id="Node000006" class="node">
<title>Node6</title>
<g id="a_Node000006"><a xlink:href="classcom_1_1teragrep_1_1pth__06_1_1ast_1_1analyze_1_1ScanGroupExpressionTest.html#a68727cd32a45086cd9515632edc2c2a8" target="_top" xlink:title=" ">
<polygon fill="white" stroke="#666666" points="406.5,-78 220.5,-78 220.5,-48 406.5,-48 406.5,-78"/>
<text text-anchor="start" x="228.5" y="-66" font-family="Helvetica,sans-Serif" font-size="10.00">com.teragrep.pth_06.ast.analyze.</text>
<text text-anchor="middle" x="313.5" y="-55" font-family="Helvetica,sans-Serif" font-size="10.00">ScanGroupExpressionTest.testHost</text>
</a>
</g>
</g>
<!-- Node1&#45;&gt;Node6 -->
<g id="edge6_Node000001_Node000006" class="edge">
<title>Node1&#45;&gt;Node6</title>
<g id="a_edge6_Node000001_Node000006"><a xlink:title=" ">
<path fill="none" stroke="#63b8ff" d="M456.47,-93.77C432.68,-88.61 406.8,-83 383.73,-78"/>
<polygon fill="#63b8ff" stroke="#63b8ff" points="456.01,-97.25 466.52,-95.94 457.49,-90.41 456.01,-97.25"/>
</a>
</g>
</g>
<!-- Node7 -->
<g id="Node000007" class="node">
<title>Node7</title>
<g id="a_Node000007"><a xlink:href="classcom_1_1teragrep_1_1pth__06_1_1ast_1_1analyze_1_1ScanPlanCollectionTest.html#a0d0ef932bb1fd4506e5111981517af9e" target="_top" xlink:title=" ">
<polygon fill="white" stroke="#666666" points="403.5,-30 223.5,-30 223.5,0 403.5,0 403.5,-30"/>
<text text-anchor="start" x="231.5" y="-18" font-family="Helvetica,sans-Serif" font-size="10.00">com.teragrep.pth_06.ast.analyze.</text>
<text text-anchor="middle" x="313.5" y="-7" font-family="Helvetica,sans-Serif" font-size="10.00">ScanPlanCollectionTest.testHost</text>
</a>
</g>
</g>
<!-- Node1&#45;&gt;Node7 -->
<g id="edge7_Node000001_Node000007" class="edge">
<title>Node1&#45;&gt;Node7</title>
<g id="a_edge7_Node000001_Node000007"><a xlink:title=" ">
<path fill="none" stroke="#63b8ff" d="M505.41,-90.14C480.83,-74.18 444.93,-52.68 411,-39 402.67,-35.64 393.75,-32.66 384.81,-30.04"/>
<polygon fill="#63b8ff" stroke="#63b8ff" points="503.65,-93.17 513.93,-95.74 507.5,-87.32 503.65,-93.17"/>
</a>
</g>
</g>
<!-- Node2&#45;&gt;Node2 -->
<g id="edge3_Node000002_Node000002" class="edge">
<title>Node2&#45;&gt;Node2</title>
<g id="a_edge3_Node000002_Node000002"><a xlink:title=" ">
<path fill="none" stroke="#63b8ff" d="M352.36,-232.6C347.05,-236.97 334.1,-240 313.5,-240 278.81,-240 265.8,-231.41 274.48,-222.28"/>
<polygon fill="#63b8ff" stroke="#63b8ff" points="355.86,-232.33 352.52,-222.28 348.86,-232.22 355.86,-232.33"/>
</a>
</g>
</g>
<!-- Node3 -->
<g id="Node000003" class="node">
<title>Node3</title>
<g id="a_Node000003"><a xlink:href="classcom_1_1teragrep_1_1pth__06_1_1ast_1_1analyze_1_1ScanPlanCollection.html#a230ff5415613f1607ab36336757e6dc6" target="_top" xlink:title=" ">
<polygon fill="white" stroke="#666666" points="180,-222 0,-222 0,-192 180,-192 180,-222"/>
<text text-anchor="start" x="8" y="-210" font-family="Helvetica,sans-Serif" font-size="10.00">com.teragrep.pth_06.ast.analyze.</text>
<text text-anchor="middle" x="90" y="-199" font-family="Helvetica,sans-Serif" font-size="10.00">ScanPlanCollection.asList</text>
</a>
</g>
</g>
<!-- Node2&#45;&gt;Node3 -->
<g id="edge2_Node000002_Node000003" class="edge">
<title>Node2&#45;&gt;Node3</title>
<g id="a_edge2_Node000002_Node000003"><a xlink:title=" ">
<path fill="none" stroke="#63b8ff" d="M208.15,-207C198.82,-207 189.43,-207 180.24,-207"/>
<polygon fill="#63b8ff" stroke="#63b8ff" points="208.24,-210.5 218.24,-207 208.24,-203.5 208.24,-210.5"/>
</a>
</g>
</g>
</g>
</svg>
