<?xml version="1.0" encoding="UTF-8" standalone="no"?>
<!DOCTYPE svg PUBLIC "-//W3C//DTD SVG 1.1//EN"
 "http://www.w3.org/Graphics/SVG/1.1/DTD/svg11.dtd">
<!-- Generated by graphviz version 2.43.0 (0)
 -->
<!-- Title: com.teragrep.pth_06.ast.PrintASTTest.printSingleValue Pages: 1 -->
<svg width="518pt" height="56pt"
 viewBox="0.00 0.00 518.00 56.00" xmlns="http://www.w3.org/2000/svg" xmlns:xlink="http://www.w3.org/1999/xlink">
<g id="graph0" class="graph" transform="scale(1 1) rotate(0) translate(4 52)">
<title>com.teragrep.pth_06.ast.PrintASTTest.printSingleValue</title>
<!-- Node1 -->
<g id="Node000001" class="node">
<title>Node1</title>
<g id="a_Node000001"><a xlink:title=" ">
<polygon fill="#999999" stroke="#666666" points="160,-30 0,-30 0,0 160,0 160,-30"/>
<text text-anchor="start" x="8" y="-18" font-family="Helvetica,sans-Serif" font-size="10.00">com.teragrep.pth_06.ast.</text>
<text text-anchor="middle" x="80" y="-7" font-family="Helvetica,sans-Serif" font-size="10.00">PrintASTTest.printSingleValue</text>
</a>
</g>
</g>
<!-- Node2 -->
<g id="Node000002" class="node">
<title>Node2</title>
<g id="a_Node000002"><a xlink:href="classcom_1_1teragrep_1_1pth__06_1_1ast_1_1PrintAST.html#acc3f4d80cb05a02753130a95b65cd32d" target="_top" xlink:title=" ">
<polygon fill="white" stroke="#666666" points="335,-30 196,-30 196,0 335,0 335,-30"/>
<text text-anchor="start" x="204" y="-18" font-family="Helvetica,sans-Serif" font-size="10.00">com.teragrep.pth_06.ast.</text>
<text text-anchor="middle" x="265.5" y="-7" font-family="Helvetica,sans-Serif" font-size="10.00">PrintAST.asString</text>
</a>
</g>
</g>
<!-- Node1&#45;&gt;Node2 -->
<g id="edge1_Node000001_Node000002" class="edge">
<title>Node1&#45;&gt;Node2</title>
<g id="a_edge1_Node000001_Node000002"><a xlink:title=" ">
<path fill="none" stroke="#63b8ff" d="M160.15,-15C168.63,-15 177.26,-15 185.74,-15"/>
<polygon fill="#63b8ff" stroke="#63b8ff" points="185.99,-18.5 195.99,-15 185.99,-11.5 185.99,-18.5"/>
</a>
</g>
</g>
<!-- Node3 -->
<g id="Node000003" class="node">
<title>Node3</title>
<g id="a_Node000003"><a xlink:href="classcom_1_1teragrep_1_1pth__06_1_1ast_1_1PrintAST.html#ab5fd085ad34f3b92b49c29a239d12de7" target="_top" xlink:title=" ">
<polygon fill="white" stroke="#666666" points="510,-30 371,-30 371,0 510,0 510,-30"/>
<text text-anchor="start" x="379" y="-18" font-family="Helvetica,sans-Serif" font-size="10.00">com.teragrep.pth_06.ast.</text>
<text text-anchor="middle" x="440.5" y="-7" font-family="Helvetica,sans-Serif" font-size="10.00">PrintAST.printWithIndent</text>
</a>
</g>
</g>
<!-- Node2&#45;&gt;Node3 -->
<g id="edge2_Node000002_Node000003" class="edge">
<title>Node2&#45;&gt;Node3</title>
<g id="a_edge2_Node000002_Node000003"><a xlink:title=" ">
<path fill="none" stroke="#63b8ff" d="M335.37,-15C343.68,-15 352.21,-15 360.65,-15"/>
<polygon fill="#63b8ff" stroke="#63b8ff" points="360.87,-18.5 370.87,-15 360.87,-11.5 360.87,-18.5"/>
</a>
</g>
</g>
<!-- Node3&#45;&gt;Node3 -->
<g id="edge3_Node000003_Node000003" class="edge">
<title>Node3&#45;&gt;Node3</title>
<g id="a_edge3_Node000003_Node000003"><a xlink:title=" ">
<path fill="none" stroke="#63b8ff" d="M409.91,-30.28C403.12,-39.41 413.31,-48 440.5,-48 456.64,-48 466.79,-44.97 470.96,-40.6"/>
<polygon fill="#63b8ff" stroke="#63b8ff" points="474.46,-40.32 471.09,-30.28 467.46,-40.23 474.46,-40.32"/>
</a>
</g>
</g>
</g>
</svg>
