<?xml version="1.0" encoding="UTF-8" standalone="no"?>
<!DOCTYPE svg PUBLIC "-//W3C//DTD SVG 1.1//EN"
 "http://www.w3.org/Graphics/SVG/1.1/DTD/svg11.dtd">
<!-- Generated by graphviz version 2.43.0 (0)
 -->
<!-- Title: com.teragrep.pth_06.ast.analyze.ScanPlanCollectionTest.testEmpty Pages: 1 -->
<svg width="850pt" height="236pt"
 viewBox="0.00 0.00 850.00 236.00" xmlns="http://www.w3.org/2000/svg" xmlns:xlink="http://www.w3.org/1999/xlink">
<g id="graph0" class="graph" transform="scale(1 1) rotate(0) translate(4 232)">
<title>com.teragrep.pth_06.ast.analyze.ScanPlanCollectionTest.testEmpty</title>
<!-- Node1 -->
<g id="Node000001" class="node">
<title>Node1</title>
<g id="a_Node000001"><a xlink:title=" ">
<polygon fill="#999999" stroke="#666666" points="182,-156 0,-156 0,-126 182,-126 182,-156"/>
<text text-anchor="start" x="8" y="-144" font-family="Helvetica,sans-Serif" font-size="10.00">com.teragrep.pth_06.ast.analyze.</text>
<text text-anchor="middle" x="91" y="-133" font-family="Helvetica,sans-Serif" font-size="10.00">ScanPlanCollectionTest.testEmpty</text>
</a>
</g>
</g>
<!-- Node2 -->
<g id="Node000002" class="node">
<title>Node2</title>
<g id="a_Node000002"><a xlink:href="classcom_1_1teragrep_1_1pth__06_1_1ast_1_1analyze_1_1ScanGroupExpression.html#a0e5168dad0a59965e14bbc6417498fed" target="_top" xlink:title=" ">
<polygon fill="white" stroke="#666666" points="398,-156 218,-156 218,-126 398,-126 398,-156"/>
<text text-anchor="start" x="226" y="-144" font-family="Helvetica,sans-Serif" font-size="10.00">com.teragrep.pth_06.ast.analyze.</text>
<text text-anchor="middle" x="308" y="-133" font-family="Helvetica,sans-Serif" font-size="10.00">ScanGroupExpression.value</text>
</a>
</g>
</g>
<!-- Node1&#45;&gt;Node2 -->
<g id="edge1_Node000001_Node000002" class="edge">
<title>Node1&#45;&gt;Node2</title>
<g id="a_edge1_Node000001_Node000002"><a xlink:title=" ">
<path fill="none" stroke="#63b8ff" d="M182.24,-141C190.58,-141 199.05,-141 207.46,-141"/>
<polygon fill="#63b8ff" stroke="#63b8ff" points="207.68,-144.5 217.68,-141 207.68,-137.5 207.68,-144.5"/>
</a>
</g>
</g>
<!-- Node3 -->
<g id="Node000003" class="node">
<title>Node3</title>
<g id="a_Node000003"><a xlink:href="classcom_1_1teragrep_1_1pth__06_1_1ast_1_1MergeIntersectingPlans.html#ac9312d6b24005eae4d9924660ca33a47" target="_top" xlink:title=" ">
<polygon fill="white" stroke="#666666" points="610,-188.5 438,-188.5 438,-147.5 610,-147.5 610,-188.5"/>
<text text-anchor="start" x="446" y="-176.5" font-family="Helvetica,sans-Serif" font-size="10.00">com.teragrep.pth_06.ast.</text>
<text text-anchor="start" x="446" y="-165.5" font-family="Helvetica,sans-Serif" font-size="10.00">MergeIntersectingPlans.merged</text>
<text text-anchor="middle" x="524" y="-154.5" font-family="Helvetica,sans-Serif" font-size="10.00">Ranges</text>
</a>
</g>
</g>
<!-- Node2&#45;&gt;Node3 -->
<g id="edge2_Node000002_Node000003" class="edge">
<title>Node2&#45;&gt;Node3</title>
<g id="a_edge2_Node000002_Node000003"><a xlink:title=" ">
<path fill="none" stroke="#63b8ff" d="M398.21,-152.25C407.91,-153.48 417.81,-154.73 427.59,-155.96"/>
<polygon fill="#63b8ff" stroke="#63b8ff" points="427.35,-159.46 437.71,-157.24 428.23,-152.52 427.35,-159.46"/>
</a>
</g>
</g>
<!-- Node4 -->
<g id="Node000004" class="node">
<title>Node4</title>
<g id="a_Node000004"><a xlink:href="classcom_1_1teragrep_1_1pth__06_1_1ast_1_1analyze_1_1PlannedScans.html#ad6dfe7529bfdfc03de991c95e194e0fe" target="_top" xlink:title=" ">
<polygon fill="white" stroke="#666666" points="614,-129 434,-129 434,-99 614,-99 614,-129"/>
<text text-anchor="start" x="442" y="-117" font-family="Helvetica,sans-Serif" font-size="10.00">com.teragrep.pth_06.ast.analyze.</text>
<text text-anchor="middle" x="524" y="-106" font-family="Helvetica,sans-Serif" font-size="10.00">PlannedScans.planListForGroup</text>
</a>
</g>
</g>
<!-- Node2&#45;&gt;Node4 -->
<g id="edge3_Node000002_Node000004" class="edge">
<title>Node2&#45;&gt;Node4</title>
<g id="a_edge3_Node000002_Node000004"><a xlink:title=" ">
<path fill="none" stroke="#63b8ff" d="M398.21,-129.75C406.7,-128.67 415.34,-127.58 423.92,-126.5"/>
<polygon fill="#63b8ff" stroke="#63b8ff" points="424.46,-129.96 433.94,-125.24 423.58,-123.02 424.46,-129.96"/>
</a>
</g>
</g>
<!-- Node5 -->
<g id="Node000005" class="node">
<title>Node5</title>
<g id="a_Node000005"><a xlink:href="classcom_1_1teragrep_1_1pth__06_1_1ast_1_1analyze_1_1StreamIDGroup.html#a429db1dbf66f77a975f929fa85179f87" target="_top" xlink:title=" ">
<polygon fill="white" stroke="#666666" points="842,-228 650,-228 650,-198 842,-198 842,-228"/>
<text text-anchor="start" x="658" y="-216" font-family="Helvetica,sans-Serif" font-size="10.00">com.teragrep.pth_06.ast.analyze.</text>
<text text-anchor="middle" x="746" y="-205" font-family="Helvetica,sans-Serif" font-size="10.00">StreamIDGroup.combinedStreamIds</text>
</a>
</g>
</g>
<!-- Node4&#45;&gt;Node5 -->
<g id="edge4_Node000004_Node000005" class="edge">
<title>Node4&#45;&gt;Node5</title>
<g id="a_edge4_Node000004_Node000005"><a xlink:title=" ">
<path fill="none" stroke="#63b8ff" d="M596.02,-129.1C602.37,-131.87 608.48,-135.14 614,-139 636.44,-154.69 627.36,-173.6 650,-189 652.29,-190.56 654.68,-192.02 657.14,-193.38"/>
<polygon fill="#63b8ff" stroke="#63b8ff" points="655.81,-196.63 666.33,-197.92 658.91,-190.35 655.81,-196.63"/>
</a>
</g>
</g>
<!-- Node6 -->
<g id="Node000006" class="node">
<title>Node6</title>
<g id="a_Node000006"><a xlink:href="classcom_1_1teragrep_1_1pth__06_1_1ast_1_1analyze_1_1ScanTimeQualifiers.html#a82cd78430e3cda656d0cadbfaf5295a5" target="_top" xlink:title=" ">
<polygon fill="white" stroke="#666666" points="836,-162 656,-162 656,-132 836,-132 836,-162"/>
<text text-anchor="start" x="664" y="-150" font-family="Helvetica,sans-Serif" font-size="10.00">com.teragrep.pth_06.ast.analyze.</text>
<text text-anchor="middle" x="746" y="-139" font-family="Helvetica,sans-Serif" font-size="10.00">ScanTimeQualifiers.earliest</text>
</a>
</g>
</g>
<!-- Node4&#45;&gt;Node6 -->
<g id="edge5_Node000004_Node000006" class="edge">
<title>Node4&#45;&gt;Node6</title>
<g id="a_edge5_Node000004_Node000006"><a xlink:title=" ">
<path fill="none" stroke="#63b8ff" d="M614.17,-127.37C624.55,-128.93 635.18,-130.53 645.69,-132.1"/>
<polygon fill="#63b8ff" stroke="#63b8ff" points="645.3,-135.58 655.71,-133.61 646.34,-128.66 645.3,-135.58"/>
</a>
</g>
</g>
<!-- Node7 -->
<g id="Node000007" class="node">
<title>Node7</title>
<g id="a_Node000007"><a xlink:href="classcom_1_1teragrep_1_1pth__06_1_1ast_1_1analyze_1_1FilterGroup.html#abca0dfe17ffff99e035f7136c075c661" target="_top" xlink:title=" ">
<polygon fill="white" stroke="#666666" points="836,-96 656,-96 656,-66 836,-66 836,-96"/>
<text text-anchor="start" x="664" y="-84" font-family="Helvetica,sans-Serif" font-size="10.00">com.teragrep.pth_06.ast.analyze.</text>
<text text-anchor="middle" x="746" y="-73" font-family="Helvetica,sans-Serif" font-size="10.00">FilterGroup.filterList</text>
</a>
</g>
</g>
<!-- Node4&#45;&gt;Node7 -->
<g id="edge7_Node000004_Node000007" class="edge">
<title>Node4&#45;&gt;Node7</title>
<g id="a_edge7_Node000004_Node000007"><a xlink:title=" ">
<path fill="none" stroke="#63b8ff" d="M614.17,-100.63C624.55,-99.07 635.18,-97.47 645.69,-95.9"/>
<polygon fill="#63b8ff" stroke="#63b8ff" points="646.34,-99.34 655.71,-94.39 645.3,-92.42 646.34,-99.34"/>
</a>
</g>
</g>
<!-- Node8 -->
<g id="Node000008" class="node">
<title>Node8</title>
<g id="a_Node000008"><a xlink:href="classcom_1_1teragrep_1_1pth__06_1_1ast_1_1analyze_1_1ScanTimeQualifiers.html#a99388aed3186adf2e10b2317b5565833" target="_top" xlink:title=" ">
<polygon fill="white" stroke="#666666" points="836,-30 656,-30 656,0 836,0 836,-30"/>
<text text-anchor="start" x="664" y="-18" font-family="Helvetica,sans-Serif" font-size="10.00">com.teragrep.pth_06.ast.analyze.</text>
<text text-anchor="middle" x="746" y="-7" font-family="Helvetica,sans-Serif" font-size="10.00">ScanTimeQualifiers.latest</text>
</a>
</g>
</g>
<!-- Node4&#45;&gt;Node8 -->
<g id="edge9_Node000004_Node000008" class="edge">
<title>Node4&#45;&gt;Node8</title>
<g id="a_edge9_Node000004_Node000008"><a xlink:title=" ">
<path fill="none" stroke="#63b8ff" d="M557.85,-98.89C583.03,-87.35 618.67,-71.07 650,-57 666.78,-49.47 685.26,-41.27 701.44,-34.13"/>
<polygon fill="#63b8ff" stroke="#63b8ff" points="702.92,-37.3 710.66,-30.07 700.1,-30.9 702.92,-37.3"/>
</a>
</g>
</g>
<!-- Node6&#45;&gt;Node6 -->
<g id="edge6_Node000006_Node000006" class="edge">
<title>Node6&#45;&gt;Node6</title>
<g id="a_edge6_Node000006_Node000006"><a xlink:title=" ">
<path fill="none" stroke="#63b8ff" d="M706.98,-162.28C698.3,-171.41 711.31,-180 746,-180 766.6,-180 779.55,-176.97 784.86,-172.6"/>
<polygon fill="#63b8ff" stroke="#63b8ff" points="788.36,-172.33 785.02,-162.28 781.36,-172.22 788.36,-172.33"/>
</a>
</g>
</g>
<!-- Node7&#45;&gt;Node7 -->
<g id="edge8_Node000007_Node000007" class="edge">
<title>Node7&#45;&gt;Node7</title>
<g id="a_edge8_Node000007_Node000007"><a xlink:title=" ">
<path fill="none" stroke="#63b8ff" d="M706.98,-96.28C698.3,-105.41 711.31,-114 746,-114 766.6,-114 779.55,-110.97 784.86,-106.6"/>
<polygon fill="#63b8ff" stroke="#63b8ff" points="788.36,-106.33 785.02,-96.28 781.36,-106.22 788.36,-106.33"/>
</a>
</g>
</g>
<!-- Node8&#45;&gt;Node8 -->
<g id="edge10_Node000008_Node000008" class="edge">
<title>Node8&#45;&gt;Node8</title>
<g id="a_edge10_Node000008_Node000008"><a xlink:title=" ">
<path fill="none" stroke="#63b8ff" d="M706.98,-30.28C698.3,-39.41 711.31,-48 746,-48 766.6,-48 779.55,-44.97 784.86,-40.6"/>
<polygon fill="#63b8ff" stroke="#63b8ff" points="788.36,-40.33 785.02,-30.28 781.36,-40.22 788.36,-40.33"/>
</a>
</g>
</g>
</g>
</svg>
