<?xml version="1.0" encoding="UTF-8" standalone="no"?>
<!DOCTYPE svg PUBLIC "-//W3C//DTD SVG 1.1//EN"
 "http://www.w3.org/Graphics/SVG/1.1/DTD/svg11.dtd">
<!-- Generated by graphviz version 2.43.0 (0)
 -->
<!-- Title: com.teragrep.pth_06.ast.transform.OptimizedAST.walkAndApply Pages: 1 -->
<svg width="940pt" height="266pt"
 viewBox="0.00 0.00 940.00 266.00" xmlns="http://www.w3.org/2000/svg" xmlns:xlink="http://www.w3.org/1999/xlink">
<g id="graph0" class="graph" transform="scale(1 1) rotate(0) translate(4 262)">
<title>com.teragrep.pth_06.ast.transform.OptimizedAST.walkAndApply</title>
<!-- Node1 -->
<g id="Node000001" class="node">
<title>Node1</title>
<g id="a_Node000001"><a xlink:title=" ">
<polygon fill="#999999" stroke="#666666" points="190,-126 0,-126 0,-96 190,-96 190,-126"/>
<text text-anchor="start" x="8" y="-114" font-family="Helvetica,sans-Serif" font-size="10.00">com.teragrep.pth_06.ast.transform.</text>
<text text-anchor="middle" x="95" y="-103" font-family="Helvetica,sans-Serif" font-size="10.00">OptimizedAST.walkAndApply</text>
</a>
</g>
</g>
<!-- Node1&#45;&gt;Node1 -->
<g id="edge11_Node000001_Node000001" class="edge">
<title>Node1&#45;&gt;Node1</title>
<g id="a_edge11_Node000001_Node000001"><a xlink:title=" ">
<path fill="none" stroke="#63b8ff" d="M51.76,-126.28C42.15,-135.41 56.56,-144 95,-144 117.82,-144 132.18,-140.97 138.06,-136.6"/>
<polygon fill="#63b8ff" stroke="#63b8ff" points="141.56,-136.34 138.24,-126.28 134.57,-136.21 141.56,-136.34"/>
</a>
</g>
</g>
<!-- Node2 -->
<g id="Node000002" class="node">
<title>Node2</title>
<g id="a_Node000002"><a xlink:href="classcom_1_1teragrep_1_1pth__06_1_1ast_1_1transform_1_1OptimizedAST.html#a77542c0b232d1e10e50a9846e1845b10" target="_top" xlink:title=" ">
<polygon fill="white" stroke="#666666" points="457,-126 226,-126 226,-96 457,-96 457,-126"/>
<text text-anchor="start" x="234" y="-114" font-family="Helvetica,sans-Serif" font-size="10.00">com.teragrep.pth_06.ast.transform.</text>
<text text-anchor="middle" x="341.5" y="-103" font-family="Helvetica,sans-Serif" font-size="10.00">OptimizedAST.transformedSingleExpression</text>
</a>
</g>
</g>
<!-- Node1&#45;&gt;Node2 -->
<g id="edge1_Node000001_Node000002" class="edge">
<title>Node1&#45;&gt;Node2</title>
<g id="a_edge1_Node000001_Node000002"><a xlink:title=" ">
<path fill="none" stroke="#63b8ff" d="M190.18,-111C198.59,-111 207.19,-111 215.81,-111"/>
<polygon fill="#63b8ff" stroke="#63b8ff" points="215.92,-114.5 225.92,-111 215.92,-107.5 215.92,-114.5"/>
</a>
</g>
</g>
<!-- Node3 -->
<g id="Node000003" class="node">
<title>Node3</title>
<g id="a_Node000003"><a xlink:href="classcom_1_1teragrep_1_1pth__06_1_1ast_1_1transform_1_1EmptyPruned.html#a8cfebc9854b0ad9a7cbe81918392e036" target="_top" xlink:title=" ">
<polygon fill="white" stroke="#666666" points="694,-258 504,-258 504,-228 694,-228 694,-258"/>
<text text-anchor="start" x="512" y="-246" font-family="Helvetica,sans-Serif" font-size="10.00">com.teragrep.pth_06.ast.transform.</text>
<text text-anchor="middle" x="599" y="-235" font-family="Helvetica,sans-Serif" font-size="10.00">EmptyPruned.transformed</text>
</a>
</g>
</g>
<!-- Node2&#45;&gt;Node3 -->
<g id="edge2_Node000002_Node000003" class="edge">
<title>Node2&#45;&gt;Node3</title>
<g id="a_edge2_Node000002_Node000003"><a xlink:title=" ">
<path fill="none" stroke="#63b8ff" d="M358.72,-126.05C384.91,-149.53 439.06,-194.68 493,-219 497.62,-221.08 502.44,-223 507.37,-224.75"/>
<polygon fill="#63b8ff" stroke="#63b8ff" points="506.35,-228.1 516.95,-227.93 508.56,-221.46 506.35,-228.1"/>
</a>
</g>
</g>
<!-- Node4 -->
<g id="Node000004" class="node">
<title>Node4</title>
<g id="a_Node000004"><a xlink:href="classcom_1_1teragrep_1_1pth__06_1_1ast_1_1transform_1_1FlattenLogical.html#a2e1717ad6884eea7a2415aa7763eaed5" target="_top" xlink:title=" ">
<polygon fill="white" stroke="#666666" points="694,-192 504,-192 504,-162 694,-162 694,-192"/>
<text text-anchor="start" x="512" y="-180" font-family="Helvetica,sans-Serif" font-size="10.00">com.teragrep.pth_06.ast.transform.</text>
<text text-anchor="middle" x="599" y="-169" font-family="Helvetica,sans-Serif" font-size="10.00">FlattenLogical.transformed</text>
</a>
</g>
</g>
<!-- Node2&#45;&gt;Node4 -->
<g id="edge3_Node000002_Node000004" class="edge">
<title>Node2&#45;&gt;Node4</title>
<g id="a_edge3_Node000002_Node000004"><a xlink:title=" ">
<path fill="none" stroke="#63b8ff" d="M394.23,-126.09C423.19,-134.37 460,-144.63 493,-153 501.79,-155.23 511.01,-157.47 520.19,-159.65"/>
<polygon fill="#63b8ff" stroke="#63b8ff" points="519.57,-163.1 530.11,-161.98 521.17,-156.28 519.57,-163.1"/>
</a>
</g>
</g>
<!-- Node7 -->
<g id="Node000007" class="node">
<title>Node7</title>
<g id="a_Node000007"><a xlink:href="classcom_1_1teragrep_1_1pth__06_1_1ast_1_1transform_1_1IdentitySimplification.html#a2e7ebae3195ee7794364c646e783c6d3" target="_top" xlink:title=" ">
<polygon fill="white" stroke="#666666" points="694,-126 504,-126 504,-96 694,-96 694,-126"/>
<text text-anchor="start" x="512" y="-114" font-family="Helvetica,sans-Serif" font-size="10.00">com.teragrep.pth_06.ast.transform.</text>
<text text-anchor="middle" x="599" y="-103" font-family="Helvetica,sans-Serif" font-size="10.00">IdentitySimplification.transformed</text>
</a>
</g>
</g>
<!-- Node2&#45;&gt;Node7 -->
<g id="edge7_Node000002_Node000007" class="edge">
<title>Node2&#45;&gt;Node7</title>
<g id="a_edge7_Node000002_Node000007"><a xlink:title=" ">
<path fill="none" stroke="#63b8ff" d="M457.17,-111C469.4,-111 481.79,-111 493.89,-111"/>
<polygon fill="#63b8ff" stroke="#63b8ff" points="493.97,-114.5 503.97,-111 493.97,-107.5 493.97,-114.5"/>
</a>
</g>
</g>
<!-- Node8 -->
<g id="Node000008" class="node">
<title>Node8</title>
<g id="a_Node000008"><a xlink:href="classcom_1_1teragrep_1_1pth__06_1_1ast_1_1transform_1_1PrunedInvalidTimeQualifier.html#a390e2447fa0ee0e2964ba44d68710b37" target="_top" xlink:title=" ">
<polygon fill="white" stroke="#666666" points="705,-78 493,-78 493,-48 705,-48 705,-78"/>
<text text-anchor="start" x="501" y="-66" font-family="Helvetica,sans-Serif" font-size="10.00">com.teragrep.pth_06.ast.transform.</text>
<text text-anchor="middle" x="599" y="-55" font-family="Helvetica,sans-Serif" font-size="10.00">PrunedInvalidTimeQualifier.transformed</text>
</a>
</g>
</g>
<!-- Node2&#45;&gt;Node8 -->
<g id="edge9_Node000002_Node000008" class="edge">
<title>Node2&#45;&gt;Node8</title>
<g id="a_edge9_Node000002_Node000008"><a xlink:title=" ">
<path fill="none" stroke="#63b8ff" d="M422.64,-95.94C449.75,-90.85 480.2,-85.13 508.02,-79.9"/>
<polygon fill="#63b8ff" stroke="#63b8ff" points="508.96,-83.29 518.14,-78 507.67,-76.41 508.96,-83.29"/>
</a>
</g>
</g>
<!-- Node9 -->
<g id="Node000009" class="node">
<title>Node9</title>
<g id="a_Node000009"><a xlink:href="classcom_1_1teragrep_1_1pth__06_1_1ast_1_1transform_1_1UniqueChildren.html#a39304f06c8b7ac1e1a23463fe502028e" target="_top" xlink:title=" ">
<polygon fill="white" stroke="#666666" points="694,-30 504,-30 504,0 694,0 694,-30"/>
<text text-anchor="start" x="512" y="-18" font-family="Helvetica,sans-Serif" font-size="10.00">com.teragrep.pth_06.ast.transform.</text>
<text text-anchor="middle" x="599" y="-7" font-family="Helvetica,sans-Serif" font-size="10.00">UniqueChildren.transformed</text>
</a>
</g>
</g>
<!-- Node2&#45;&gt;Node9 -->
<g id="edge10_Node000002_Node000009" class="edge">
<title>Node2&#45;&gt;Node9</title>
<g id="a_edge10_Node000002_Node000009"><a xlink:title=" ">
<path fill="none" stroke="#63b8ff" d="M369.19,-95.99C398.7,-79.94 448.01,-54.69 493,-39 499.41,-36.77 506.11,-34.68 512.89,-32.75"/>
<polygon fill="#63b8ff" stroke="#63b8ff" points="514.13,-36.04 522.85,-30.04 512.29,-29.29 514.13,-36.04"/>
</a>
</g>
</g>
<!-- Node4&#45;&gt;Node4 -->
<g id="edge6_Node000004_Node000004" class="edge">
<title>Node4&#45;&gt;Node4</title>
<g id="a_edge6_Node000004_Node000004"><a xlink:title=" ">
<path fill="none" stroke="#63b8ff" d="M557.52,-192.28C548.3,-201.41 562.12,-210 599,-210 620.89,-210 634.66,-206.97 640.31,-202.6"/>
<polygon fill="#63b8ff" stroke="#63b8ff" points="643.81,-202.33 640.48,-192.28 636.81,-202.21 643.81,-202.33"/>
</a>
</g>
</g>
<!-- Node5 -->
<g id="Node000005" class="node">
<title>Node5</title>
<g id="a_Node000005"><a xlink:href="classcom_1_1teragrep_1_1pth__06_1_1ast_1_1transform_1_1FlattenLogical.html#a3b9085857dc57e88c58a6fa5a057f103" target="_top" xlink:title=" ">
<polygon fill="white" stroke="#666666" points="932,-216 741,-216 741,-186 932,-186 932,-216"/>
<text text-anchor="start" x="749" y="-204" font-family="Helvetica,sans-Serif" font-size="10.00">com.teragrep.pth_06.ast.transform.</text>
<text text-anchor="middle" x="836.5" y="-193" font-family="Helvetica,sans-Serif" font-size="10.00">FlattenLogical.flattenedAndChildren</text>
</a>
</g>
</g>
<!-- Node4&#45;&gt;Node5 -->
<g id="edge4_Node000004_Node000005" class="edge">
<title>Node4&#45;&gt;Node5</title>
<g id="a_edge4_Node000004_Node000005"><a xlink:title=" ">
<path fill="none" stroke="#63b8ff" d="M694.09,-186.59C706.1,-187.81 718.46,-189.07 730.62,-190.31"/>
<polygon fill="#63b8ff" stroke="#63b8ff" points="730.49,-193.82 740.79,-191.35 731.2,-186.85 730.49,-193.82"/>
</a>
</g>
</g>
<!-- Node6 -->
<g id="Node000006" class="node">
<title>Node6</title>
<g id="a_Node000006"><a xlink:href="classcom_1_1teragrep_1_1pth__06_1_1ast_1_1transform_1_1FlattenLogical.html#ae0b8acc47ab74872494d07da365e303b" target="_top" xlink:title=" ">
<polygon fill="white" stroke="#666666" points="931.5,-168 741.5,-168 741.5,-138 931.5,-138 931.5,-168"/>
<text text-anchor="start" x="749.5" y="-156" font-family="Helvetica,sans-Serif" font-size="10.00">com.teragrep.pth_06.ast.transform.</text>
<text text-anchor="middle" x="836.5" y="-145" font-family="Helvetica,sans-Serif" font-size="10.00">FlattenLogical.flattenedOrChildren</text>
</a>
</g>
</g>
<!-- Node4&#45;&gt;Node6 -->
<g id="edge5_Node000004_Node000006" class="edge">
<title>Node4&#45;&gt;Node6</title>
<g id="a_edge5_Node000004_Node000006"><a xlink:title=" ">
<path fill="none" stroke="#63b8ff" d="M694.09,-167.41C706.2,-166.18 718.66,-164.91 730.93,-163.66"/>
<polygon fill="#63b8ff" stroke="#63b8ff" points="731.58,-167.11 741.17,-162.61 730.87,-160.14 731.58,-167.11"/>
</a>
</g>
</g>
<!-- Node7&#45;&gt;Node7 -->
<g id="edge8_Node000007_Node000007" class="edge">
<title>Node7&#45;&gt;Node7</title>
<g id="a_edge8_Node000007_Node000007"><a xlink:title=" ">
<path fill="none" stroke="#63b8ff" d="M557.52,-126.28C548.3,-135.41 562.12,-144 599,-144 620.89,-144 634.66,-140.97 640.31,-136.6"/>
<polygon fill="#63b8ff" stroke="#63b8ff" points="643.81,-136.33 640.48,-126.28 636.81,-136.21 643.81,-136.33"/>
</a>
</g>
</g>
</g>
</svg>
