<?xml version="1.0" encoding="UTF-8" standalone="no"?>
<!DOCTYPE svg PUBLIC "-//W3C//DTD SVG 1.1//EN"
 "http://www.w3.org/Graphics/SVG/1.1/DTD/svg11.dtd">
<!-- Generated by graphviz version 2.43.0 (0)
 -->
<!-- Title: com.teragrep.pth_06.ArchiveMicroStreamReader.mostRecentOffset Pages: 1 -->
<svg width="629pt" height="182pt"
 viewBox="0.00 0.00 629.00 182.00" xmlns="http://www.w3.org/2000/svg" xmlns:xlink="http://www.w3.org/1999/xlink">
<g id="graph0" class="graph" transform="scale(1 1) rotate(0) translate(4 178)">
<title>com.teragrep.pth_06.ArchiveMicroStreamReader.mostRecentOffset</title>
<!-- Node1 -->
<g id="Node000001" class="node">
<title>Node1</title>
<g id="a_Node000001"><a xlink:title=" ">
<polygon fill="#999999" stroke="#666666" points="203,-102 0,-102 0,-72 203,-72 203,-102"/>
<text text-anchor="start" x="8" y="-90" font-family="Helvetica,sans-Serif" font-size="10.00">com.teragrep.pth_06.Archive</text>
<text text-anchor="middle" x="101.5" y="-79" font-family="Helvetica,sans-Serif" font-size="10.00">MicroStreamReader.mostRecentOffset</text>
</a>
</g>
</g>
<!-- Node2 -->
<g id="Node000002" class="node">
<title>Node2</title>
<g id="a_Node000002"><a xlink:href="classcom_1_1teragrep_1_1pth__06_1_1ConfiguredLogger.html#a432bade7d6310bed1e1b9a405fb53d56" target="_top" xlink:title=" ">
<polygon fill="white" stroke="#666666" points="412,-174 239,-174 239,-144 412,-144 412,-174"/>
<text text-anchor="start" x="247" y="-162" font-family="Helvetica,sans-Serif" font-size="10.00">com.teragrep.pth_06.Configured</text>
<text text-anchor="middle" x="325.5" y="-151" font-family="Helvetica,sans-Serif" font-size="10.00">Logger.debug</text>
</a>
</g>
</g>
<!-- Node1&#45;&gt;Node2 -->
<g id="edge1_Node000001_Node000002" class="edge">
<title>Node1&#45;&gt;Node2</title>
<g id="a_edge1_Node000001_Node000002"><a xlink:title=" ">
<path fill="none" stroke="#63b8ff" d="M143.18,-102.08C170.2,-111.9 206.54,-124.75 239,-135 245.42,-137.03 252.14,-139.06 258.87,-141.04"/>
<polygon fill="#63b8ff" stroke="#63b8ff" points="258.12,-144.47 268.7,-143.9 260.07,-137.75 258.12,-144.47"/>
</a>
</g>
</g>
<!-- Node4 -->
<g id="Node000004" class="node">
<title>Node4</title>
<g id="a_Node000004"><a xlink:href="classcom_1_1teragrep_1_1pth__06_1_1ArchiveMicroStreamReader.html#a755d5e92276f9154edcea0fec4f59dec" target="_top" xlink:title=" ">
<polygon fill="white" stroke="#666666" points="410.5,-126 240.5,-126 240.5,-96 410.5,-96 410.5,-126"/>
<text text-anchor="start" x="248.5" y="-114" font-family="Helvetica,sans-Serif" font-size="10.00">com.teragrep.pth_06.Archive</text>
<text text-anchor="middle" x="325.5" y="-103" font-family="Helvetica,sans-Serif" font-size="10.00">MicroStreamReader.useArchive</text>
</a>
</g>
</g>
<!-- Node1&#45;&gt;Node4 -->
<g id="edge3_Node000001_Node000004" class="edge">
<title>Node1&#45;&gt;Node4</title>
<g id="a_edge3_Node000001_Node000004"><a xlink:title=" ">
<path fill="none" stroke="#63b8ff" d="M203.11,-97.88C212.11,-98.85 221.2,-99.83 230.15,-100.8"/>
<polygon fill="#63b8ff" stroke="#63b8ff" points="229.86,-104.29 240.18,-101.88 230.61,-97.33 229.86,-104.29"/>
</a>
</g>
</g>
<!-- Node5 -->
<g id="Node000005" class="node">
<title>Node5</title>
<g id="a_Node000005"><a xlink:href="classcom_1_1teragrep_1_1pth__06_1_1ArchiveMicroStreamReader.html#a00eed7fba1d800a7745cccf4d729836d" target="_top" xlink:title=" ">
<polygon fill="white" stroke="#666666" points="407.5,-78 243.5,-78 243.5,-48 407.5,-48 407.5,-78"/>
<text text-anchor="start" x="251.5" y="-66" font-family="Helvetica,sans-Serif" font-size="10.00">com.teragrep.pth_06.Archive</text>
<text text-anchor="middle" x="325.5" y="-55" font-family="Helvetica,sans-Serif" font-size="10.00">MicroStreamReader.useHBase</text>
</a>
</g>
</g>
<!-- Node1&#45;&gt;Node5 -->
<g id="edge4_Node000001_Node000005" class="edge">
<title>Node1&#45;&gt;Node5</title>
<g id="a_edge4_Node000001_Node000005"><a xlink:title=" ">
<path fill="none" stroke="#63b8ff" d="M203.11,-76.12C213.07,-75.05 223.14,-73.96 233.01,-72.89"/>
<polygon fill="#63b8ff" stroke="#63b8ff" points="233.63,-76.34 243.19,-71.79 232.88,-69.38 233.63,-76.34"/>
</a>
</g>
</g>
<!-- Node6 -->
<g id="Node000006" class="node">
<title>Node6</title>
<g id="a_Node000006"><a xlink:href="classcom_1_1teragrep_1_1pth__06_1_1ArchiveMicroStreamReader.html#a2ae6ecb8b1cd94d98665cb042886cb0a" target="_top" xlink:title=" ">
<polygon fill="white" stroke="#666666" points="406,-30 245,-30 245,0 406,0 406,-30"/>
<text text-anchor="start" x="253" y="-18" font-family="Helvetica,sans-Serif" font-size="10.00">com.teragrep.pth_06.Archive</text>
<text text-anchor="middle" x="325.5" y="-7" font-family="Helvetica,sans-Serif" font-size="10.00">MicroStreamReader.useKafka</text>
</a>
</g>
</g>
<!-- Node1&#45;&gt;Node6 -->
<g id="edge5_Node000001_Node000006" class="edge">
<title>Node1&#45;&gt;Node6</title>
<g id="a_edge5_Node000001_Node000006"><a xlink:title=" ">
<path fill="none" stroke="#63b8ff" d="M143.18,-71.92C170.2,-62.1 206.54,-49.25 239,-39 245.42,-36.97 252.14,-34.94 258.87,-32.96"/>
<polygon fill="#63b8ff" stroke="#63b8ff" points="260.07,-36.25 268.7,-30.1 258.12,-29.53 260.07,-36.25"/>
</a>
</g>
</g>
<!-- Node3 -->
<g id="Node000003" class="node">
<title>Node3</title>
<g id="a_Node000003"><a xlink:href="classcom_1_1teragrep_1_1pth__06_1_1ConfiguredLogger.html#adbd659cefc990abe9b2da58d3dae9970" target="_top" xlink:title=" ">
<polygon fill="white" stroke="#666666" points="621,-174 448,-174 448,-144 621,-144 621,-174"/>
<text text-anchor="start" x="456" y="-162" font-family="Helvetica,sans-Serif" font-size="10.00">com.teragrep.pth_06.Configured</text>
<text text-anchor="middle" x="534.5" y="-151" font-family="Helvetica,sans-Serif" font-size="10.00">Logger.info</text>
</a>
</g>
</g>
<!-- Node2&#45;&gt;Node3 -->
<g id="edge2_Node000002_Node000003" class="edge">
<title>Node2&#45;&gt;Node3</title>
<g id="a_edge2_Node000002_Node000003"><a xlink:title=" ">
<path fill="none" stroke="#63b8ff" d="M412.19,-159C420.66,-159 429.3,-159 437.87,-159"/>
<polygon fill="#63b8ff" stroke="#63b8ff" points="437.88,-162.5 447.88,-159 437.88,-155.5 437.88,-162.5"/>
</a>
</g>
</g>
</g>
</svg>
