<?xml version="1.0" encoding="UTF-8" standalone="no"?>
<!DOCTYPE svg PUBLIC "-//W3C//DTD SVG 1.1//EN"
 "http://www.w3.org/Graphics/SVG/1.1/DTD/svg11.dtd">
<!-- Generated by graphviz version 2.43.0 (0)
 -->
<!-- Title: com.teragrep.pth_06.ast.analyze.FilterGroup.FilterGroup Pages: 1 -->
<svg width="653pt" height="86pt"
 viewBox="0.00 0.00 653.00 86.00" xmlns="http://www.w3.org/2000/svg" xmlns:xlink="http://www.w3.org/1999/xlink">
<g id="graph0" class="graph" transform="scale(1 1) rotate(0) translate(4 82)">
<title>com.teragrep.pth_06.ast.analyze.FilterGroup.FilterGroup</title>
<!-- Node1 -->
<g id="Node000001" class="node">
<title>Node1</title>
<g id="a_Node000001"><a xlink:title=" ">
<polygon fill="#999999" stroke="#666666" points="180,-54 0,-54 0,-24 180,-24 180,-54"/>
<text text-anchor="start" x="8" y="-42" font-family="Helvetica,sans-Serif" font-size="10.00">com.teragrep.pth_06.ast.analyze.</text>
<text text-anchor="middle" x="90" y="-31" font-family="Helvetica,sans-Serif" font-size="10.00">FilterGroup.FilterGroup</text>
</a>
</g>
</g>
<!-- Node2 -->
<g id="Node000002" class="node">
<title>Node2</title>
<g id="a_Node000002"><a xlink:href="classcom_1_1teragrep_1_1pth__06_1_1ast_1_1analyze_1_1ClassifiedExpressions.html#a00ac3e5899be879258c4698ddf784e81" target="_top" xlink:title=" ">
<polygon fill="white" stroke="#666666" points="404.5,-78 224.5,-78 224.5,-48 404.5,-48 404.5,-78"/>
<text text-anchor="start" x="232.5" y="-66" font-family="Helvetica,sans-Serif" font-size="10.00">com.teragrep.pth_06.ast.analyze.</text>
<text text-anchor="middle" x="314.5" y="-55" font-family="Helvetica,sans-Serif" font-size="10.00">ClassifiedExpressions.hostList</text>
</a>
</g>
</g>
<!-- Node1&#45;&gt;Node2 -->
<g id="edge1_Node000001_Node000002" class="edge">
<title>Node1&#45;&gt;Node2</title>
<g id="a_edge1_Node000001_Node000002"><a xlink:title=" ">
<path fill="none" stroke="#63b8ff" d="M180.22,-48.62C191.32,-49.82 202.74,-51.05 213.99,-52.27"/>
<polygon fill="#63b8ff" stroke="#63b8ff" points="213.95,-55.78 224.26,-53.37 214.7,-48.82 213.95,-55.78"/>
</a>
</g>
</g>
<!-- Node4 -->
<g id="Node000004" class="node">
<title>Node4</title>
<g id="a_Node000004"><a xlink:href="classcom_1_1teragrep_1_1pth__06_1_1ast_1_1analyze_1_1ClassifiedExpressions.html#a23983fe0f955300072a3bc2a30e379f3" target="_top" xlink:title=" ">
<polygon fill="white" stroke="#666666" points="413,-30 216,-30 216,0 413,0 413,-30"/>
<text text-anchor="start" x="224" y="-18" font-family="Helvetica,sans-Serif" font-size="10.00">com.teragrep.pth_06.ast.analyze.</text>
<text text-anchor="middle" x="314.5" y="-7" font-family="Helvetica,sans-Serif" font-size="10.00">ClassifiedExpressions.sourceTypeList</text>
</a>
</g>
</g>
<!-- Node1&#45;&gt;Node4 -->
<g id="edge3_Node000001_Node000004" class="edge">
<title>Node1&#45;&gt;Node4</title>
<g id="a_edge3_Node000001_Node000004"><a xlink:title=" ">
<path fill="none" stroke="#63b8ff" d="M180.22,-29.38C188.65,-28.47 197.25,-27.54 205.83,-26.61"/>
<polygon fill="#63b8ff" stroke="#63b8ff" points="206.3,-30.08 215.87,-25.53 205.55,-23.12 206.3,-30.08"/>
</a>
</g>
</g>
<!-- Node3 -->
<g id="Node000003" class="node">
<title>Node3</title>
<g id="a_Node000003"><a xlink:href="classcom_1_1teragrep_1_1pth__06_1_1ast_1_1analyze_1_1ClassifiedExpressions.html#a5b892fa54a3c7ac63f7cc75cf9d38711" target="_top" xlink:title=" ">
<polygon fill="white" stroke="#666666" points="645,-59.5 449,-59.5 449,-18.5 645,-18.5 645,-59.5"/>
<text text-anchor="start" x="457" y="-47.5" font-family="Helvetica,sans-Serif" font-size="10.00">com.teragrep.pth_06.ast.analyze.</text>
<text text-anchor="start" x="457" y="-36.5" font-family="Helvetica,sans-Serif" font-size="10.00">ClassifiedExpressions.expressionList</text>
<text text-anchor="middle" x="547" y="-25.5" font-family="Helvetica,sans-Serif" font-size="10.00">FilteredByTag</text>
</a>
</g>
</g>
<!-- Node2&#45;&gt;Node3 -->
<g id="edge2_Node000002_Node000003" class="edge">
<title>Node2&#45;&gt;Node3</title>
<g id="a_edge2_Node000002_Node000003"><a xlink:title=" ">
<path fill="none" stroke="#63b8ff" d="M404.62,-53.72C415.79,-52.56 427.3,-51.36 438.71,-50.17"/>
<polygon fill="#63b8ff" stroke="#63b8ff" points="439.12,-53.65 448.7,-49.13 438.4,-46.69 439.12,-53.65"/>
</a>
</g>
</g>
<!-- Node4&#45;&gt;Node3 -->
<g id="edge4_Node000004_Node000003" class="edge">
<title>Node4&#45;&gt;Node3</title>
<g id="a_edge4_Node000004_Node000003"><a xlink:title=" ">
<path fill="none" stroke="#63b8ff" d="M413.25,-25.18C421.72,-26.06 430.31,-26.95 438.85,-27.84"/>
<polygon fill="#63b8ff" stroke="#63b8ff" points="438.52,-31.33 448.83,-28.88 439.25,-24.37 438.52,-31.33"/>
</a>
</g>
</g>
</g>
</svg>
