<?xml version="1.0" encoding="UTF-8" standalone="no"?>
<!DOCTYPE svg PUBLIC "-//W3C//DTD SVG 1.1//EN"
 "http://www.w3.org/Graphics/SVG/1.1/DTD/svg11.dtd">
<!-- Generated by graphviz version 2.43.0 (0)
 -->
<!-- Title: com.teragrep.pth_06.HBaseInstantationTest Pages: 1 -->
<svg width="342pt" height="192pt"
 viewBox="0.00 0.00 341.50 192.00" xmlns="http://www.w3.org/2000/svg" xmlns:xlink="http://www.w3.org/1999/xlink">
<g id="graph0" class="graph" transform="scale(1 1) rotate(0) translate(4 188)">
<title>com.teragrep.pth_06.HBaseInstantationTest</title>
<!-- Node1 -->
<g id="Node000001" class="node">
<title>Node1</title>
<g id="a_Node000001"><a xlink:title=" ">
<polygon fill="#999999" stroke="#666666" points="152,-30 0,-30 0,0 152,0 152,-30"/>
<text text-anchor="start" x="8" y="-18" font-family="Helvetica,sans-Serif" font-size="10.00">com.teragrep.pth_06.HBase</text>
<text text-anchor="middle" x="76" y="-7" font-family="Helvetica,sans-Serif" font-size="10.00">InstantationTest</text>
</a>
</g>
</g>
<!-- Node2 -->
<g id="Node000002" class="node">
<title>Node2</title>
<g id="a_Node000002"><a xlink:href="classcom_1_1teragrep_1_1pth__06_1_1MockS3Configuration.html" target="_top" xlink:title=" ">
<polygon fill="white" stroke="#666666" points="149.5,-184 2.5,-184 2.5,-154 149.5,-154 149.5,-184"/>
<text text-anchor="start" x="10.5" y="-172" font-family="Helvetica,sans-Serif" font-size="10.00">com.teragrep.pth_06.Mock</text>
<text text-anchor="middle" x="76" y="-161" font-family="Helvetica,sans-Serif" font-size="10.00">S3Configuration</text>
</a>
</g>
</g>
<!-- Node2&#45;&gt;Node1 -->
<g id="edge1_Node000001_Node000002" class="edge">
<title>Node2&#45;&gt;Node1</title>
<g id="a_edge1_Node000001_Node000002"><a xlink:title=" ">
<path fill="none" stroke="#9a32cd" stroke-dasharray="5,2" d="M73.06,-143.7C71.85,-132.54 70.59,-119.12 70,-107 69.35,-93.68 69.35,-90.32 70,-77 70.79,-60.84 72.76,-42.37 74.23,-30.02"/>
<polygon fill="#9a32cd" stroke="#9a32cd" points="69.62,-144.44 74.23,-153.98 76.57,-143.65 69.62,-144.44"/>
</a>
</g>
<text text-anchor="middle" x="124" y="-89.5" font-family="Helvetica,sans-Serif" font-size="10.00" fill="grey"> mockS3Configuration</text>
</g>
<!-- Node3 -->
<g id="Node000003" class="node">
<title>Node3</title>
<g id="a_Node000003"><a xlink:href="classcom_1_1teragrep_1_1pth__06_1_1MockS3DataProvider.html" target="_top" xlink:title=" ">
<polygon fill="white" stroke="#666666" points="333.5,-107 186.5,-107 186.5,-77 333.5,-77 333.5,-107"/>
<text text-anchor="start" x="194.5" y="-95" font-family="Helvetica,sans-Serif" font-size="10.00">com.teragrep.pth_06.Mock</text>
<text text-anchor="middle" x="260" y="-84" font-family="Helvetica,sans-Serif" font-size="10.00">S3DataProvider</text>
</a>
</g>
</g>
<!-- Node2&#45;&gt;Node3 -->
<g id="edge3_Node000003_Node000002" class="edge">
<title>Node2&#45;&gt;Node3</title>
<g id="a_edge3_Node000003_Node000002"><a xlink:title=" ">
<path fill="none" stroke="#9a32cd" stroke-dasharray="5,2" d="M120.26,-149.96C152.59,-136.78 195.78,-119.18 225.55,-107.04"/>
<polygon fill="#9a32cd" stroke="#9a32cd" points="118.55,-146.88 110.61,-153.89 121.19,-153.36 118.55,-146.88"/>
</a>
</g>
<text text-anchor="middle" x="233" y="-128" font-family="Helvetica,sans-Serif" font-size="10.00" fill="grey"> mockS3Configuration</text>
</g>
<!-- Node3&#45;&gt;Node1 -->
<g id="edge2_Node000001_Node000003" class="edge">
<title>Node3&#45;&gt;Node1</title>
<g id="a_edge2_Node000001_Node000003"><a xlink:title=" ">
<path fill="none" stroke="#9a32cd" stroke-dasharray="5,2" d="M215.74,-72.96C183.41,-59.78 140.22,-42.18 110.45,-30.04"/>
<polygon fill="#9a32cd" stroke="#9a32cd" points="214.81,-76.36 225.39,-76.89 217.45,-69.88 214.81,-76.36"/>
</a>
</g>
<text text-anchor="middle" x="232" y="-51" font-family="Helvetica,sans-Serif" font-size="10.00" fill="grey"> mockS3DataProvider</text>
</g>
</g>
</svg>
