<?xml version="1.0" encoding="UTF-8" standalone="no"?>
<!DOCTYPE svg PUBLIC "-//W3C//DTD SVG 1.1//EN"
 "http://www.w3.org/Graphics/SVG/1.1/DTD/svg11.dtd">
<!-- Generated by graphviz version 2.43.0 (0)
 -->
<!-- Title: com.teragrep.pth_06.ast.meta.StreamDBCondition.condition Pages: 1 -->
<svg width="428pt" height="170pt"
 viewBox="0.00 0.00 428.00 170.00" xmlns="http://www.w3.org/2000/svg" xmlns:xlink="http://www.w3.org/1999/xlink">
<g id="graph0" class="graph" transform="scale(1 1) rotate(0) translate(4 166)">
<title>com.teragrep.pth_06.ast.meta.StreamDBCondition.condition</title>
<!-- Node1 -->
<g id="Node000001" class="node">
<title>Node1</title>
<g id="a_Node000001"><a xlink:title=" ">
<polygon fill="#999999" stroke="#666666" points="167,-96 0,-96 0,-66 167,-66 167,-96"/>
<text text-anchor="start" x="8" y="-84" font-family="Helvetica,sans-Serif" font-size="10.00">com.teragrep.pth_06.ast.meta.</text>
<text text-anchor="middle" x="83.5" y="-73" font-family="Helvetica,sans-Serif" font-size="10.00">StreamDBCondition.condition</text>
</a>
</g>
</g>
<!-- Node2 -->
<g id="Node000002" class="node">
<title>Node2</title>
<g id="a_Node000002"><a xlink:href="classcom_1_1teragrep_1_1pth__06_1_1ast_1_1meta_1_1StreamDBCondition.html#a3e43c38cb0c9103e08f4b37e95e45b87" target="_top" xlink:title=" ">
<polygon fill="white" stroke="#666666" points="403,-144 220,-144 220,-114 403,-114 403,-144"/>
<text text-anchor="start" x="228" y="-132" font-family="Helvetica,sans-Serif" font-size="10.00">com.teragrep.pth_06.ast.meta.</text>
<text text-anchor="middle" x="311.5" y="-121" font-family="Helvetica,sans-Serif" font-size="10.00">StreamDBCondition.hostCondition</text>
</a>
</g>
</g>
<!-- Node1&#45;&gt;Node2 -->
<g id="edge1_Node000001_Node000002" class="edge">
<title>Node1&#45;&gt;Node2</title>
<g id="a_edge1_Node000001_Node000002"><a xlink:title=" ">
<path fill="none" stroke="#63b8ff" d="M167.05,-92.01C196.57,-97.83 229.08,-104.95 255.68,-111.48"/>
<polygon fill="#63b8ff" stroke="#63b8ff" points="255.02,-114.92 265.57,-113.94 256.71,-108.12 255.02,-114.92"/>
</a>
</g>
</g>
<!-- Node3 -->
<g id="Node000003" class="node">
<title>Node3</title>
<g id="a_Node000003"><a xlink:href="classcom_1_1teragrep_1_1pth__06_1_1ast_1_1meta_1_1StreamDBCondition.html#aa94e301e1fd44ecc859e85e2432cc49e" target="_top" xlink:title=" ">
<polygon fill="white" stroke="#666666" points="406,-96 217,-96 217,-66 406,-66 406,-96"/>
<text text-anchor="start" x="225" y="-84" font-family="Helvetica,sans-Serif" font-size="10.00">com.teragrep.pth_06.ast.meta.</text>
<text text-anchor="middle" x="311.5" y="-73" font-family="Helvetica,sans-Serif" font-size="10.00">StreamDBCondition.indexCondition</text>
</a>
</g>
</g>
<!-- Node1&#45;&gt;Node3 -->
<g id="edge4_Node000001_Node000003" class="edge">
<title>Node1&#45;&gt;Node3</title>
<g id="a_edge4_Node000001_Node000003"><a xlink:title=" ">
<path fill="none" stroke="#63b8ff" d="M167.05,-81C179.91,-81 193.34,-81 206.6,-81"/>
<polygon fill="#63b8ff" stroke="#63b8ff" points="206.7,-84.5 216.7,-81 206.7,-77.5 206.7,-84.5"/>
</a>
</g>
</g>
<!-- Node4 -->
<g id="Node000004" class="node">
<title>Node4</title>
<g id="a_Node000004"><a xlink:href="classcom_1_1teragrep_1_1pth__06_1_1ast_1_1meta_1_1StreamDBCondition.html#a2bedf2bbbbc73178de7e2c8872f8d486" target="_top" xlink:title=" ">
<polygon fill="white" stroke="#666666" points="420,-30 203,-30 203,0 420,0 420,-30"/>
<text text-anchor="start" x="211" y="-18" font-family="Helvetica,sans-Serif" font-size="10.00">com.teragrep.pth_06.ast.meta.</text>
<text text-anchor="middle" x="311.5" y="-7" font-family="Helvetica,sans-Serif" font-size="10.00">StreamDBCondition.sourceTypeCondition</text>
</a>
</g>
</g>
<!-- Node1&#45;&gt;Node4 -->
<g id="edge5_Node000001_Node000004" class="edge">
<title>Node1&#45;&gt;Node4</title>
<g id="a_edge5_Node000001_Node000004"><a xlink:title=" ">
<path fill="none" stroke="#63b8ff" d="M118.82,-65.97C147.5,-56.03 189.6,-43.22 227.05,-32.83"/>
<polygon fill="#63b8ff" stroke="#63b8ff" points="228.25,-36.13 236.96,-30.11 226.39,-29.38 228.25,-36.13"/>
</a>
</g>
</g>
<!-- Node2&#45;&gt;Node1 -->
<g id="edge2_Node000002_Node000001" class="edge">
<title>Node2&#45;&gt;Node1</title>
<g id="a_edge2_Node000002_Node000001"><a xlink:title=" ">
<path fill="none" stroke="#63b8ff" d="M219.87,-116.38C192.53,-110.87 163.37,-104.42 139.14,-98.48"/>
<polygon fill="#63b8ff" stroke="#63b8ff" points="139.97,-95.08 129.42,-96.06 138.28,-101.87 139.97,-95.08"/>
</a>
</g>
</g>
<!-- Node2&#45;&gt;Node2 -->
<g id="edge3_Node000002_Node000002" class="edge">
<title>Node2&#45;&gt;Node2</title>
<g id="a_edge3_Node000002_Node000002"><a xlink:title=" ">
<path fill="none" stroke="#63b8ff" d="M271.42,-144.28C262.52,-153.41 275.88,-162 311.5,-162 332.65,-162 345.96,-158.97 351.41,-154.6"/>
<polygon fill="#63b8ff" stroke="#63b8ff" points="354.91,-154.33 351.58,-144.28 347.91,-154.22 354.91,-154.33"/>
</a>
</g>
</g>
<!-- Node4&#45;&gt;Node1 -->
<g id="edge6_Node000004_Node000001" class="edge">
<title>Node4&#45;&gt;Node1</title>
<g id="a_edge6_Node000004_Node000001"><a xlink:title=" ">
<path fill="none" stroke="#63b8ff" d="M276.03,-30.09C247.31,-40.03 205.2,-52.83 167.78,-63.22"/>
<polygon fill="#63b8ff" stroke="#63b8ff" points="166.59,-59.91 157.88,-65.94 168.45,-66.66 166.59,-59.91"/>
</a>
</g>
</g>
<!-- Node4&#45;&gt;Node4 -->
<g id="edge7_Node000004_Node000004" class="edge">
<title>Node4&#45;&gt;Node4</title>
<g id="a_edge7_Node000004_Node000004"><a xlink:title=" ">
<path fill="none" stroke="#63b8ff" d="M271.42,-30.28C262.52,-39.41 275.88,-48 311.5,-48 332.65,-48 345.96,-44.97 351.41,-40.6"/>
<polygon fill="#63b8ff" stroke="#63b8ff" points="354.91,-40.33 351.58,-30.28 347.91,-40.22 354.91,-40.33"/>
</a>
</g>
</g>
</g>
</svg>
