<?xml version="1.0" encoding="UTF-8" standalone="no"?>
<!DOCTYPE svg PUBLIC "-//W3C//DTD SVG 1.1//EN"
 "http://www.w3.org/Graphics/SVG/1.1/DTD/svg11.dtd">
<!-- Generated by graphviz version 2.43.0 (0)
 -->
<!-- Title: com.teragrep.pth_06.ast.analyze.StreamIDGroup.combinedStreamIds Pages: 1 -->
<svg width="1135pt" height="386pt"
 viewBox="0.00 0.00 1135.00 386.00" xmlns="http://www.w3.org/2000/svg" xmlns:xlink="http://www.w3.org/1999/xlink">
<g id="graph0" class="graph" transform="scale(1 1) rotate(0) translate(4 382)">
<title>com.teragrep.pth_06.ast.analyze.StreamIDGroup.combinedStreamIds</title>
<!-- Node1 -->
<g id="Node000001" class="node">
<title>Node1</title>
<g id="a_Node000001"><a xlink:title=" ">
<polygon fill="#999999" stroke="#666666" points="1127,-246 935,-246 935,-216 1127,-216 1127,-246"/>
<text text-anchor="start" x="943" y="-234" font-family="Helvetica,sans-Serif" font-size="10.00">com.teragrep.pth_06.ast.analyze.</text>
<text text-anchor="middle" x="1031" y="-223" font-family="Helvetica,sans-Serif" font-size="10.00">StreamIDGroup.combinedStreamIds</text>
</a>
</g>
</g>
<!-- Node2 -->
<g id="Node000002" class="node">
<title>Node2</title>
<g id="a_Node000002"><a xlink:href="classcom_1_1teragrep_1_1pth__06_1_1ast_1_1analyze_1_1PlannedScans.html#ad6dfe7529bfdfc03de991c95e194e0fe" target="_top" xlink:title=" ">
<polygon fill="white" stroke="#666666" points="899,-246 719,-246 719,-216 899,-216 899,-246"/>
<text text-anchor="start" x="727" y="-234" font-family="Helvetica,sans-Serif" font-size="10.00">com.teragrep.pth_06.ast.analyze.</text>
<text text-anchor="middle" x="809" y="-223" font-family="Helvetica,sans-Serif" font-size="10.00">PlannedScans.planListForGroup</text>
</a>
</g>
</g>
<!-- Node1&#45;&gt;Node2 -->
<g id="edge1_Node000001_Node000002" class="edge">
<title>Node1&#45;&gt;Node2</title>
<g id="a_edge1_Node000001_Node000002"><a xlink:title=" ">
<path fill="none" stroke="#63b8ff" d="M924.75,-231C916.17,-231 907.56,-231 899.11,-231"/>
<polygon fill="#63b8ff" stroke="#63b8ff" points="924.78,-234.5 934.78,-231 924.78,-227.5 924.78,-234.5"/>
</a>
</g>
</g>
<!-- Node3 -->
<g id="Node000003" class="node">
<title>Node3</title>
<g id="a_Node000003"><a xlink:href="classcom_1_1teragrep_1_1pth__06_1_1ast_1_1analyze_1_1PlannedScansTest.html#adb4d98866e6154141722cef12eaf9f32" target="_top" xlink:title=" ">
<polygon fill="white" stroke="#666666" points="666.5,-378 463.5,-378 463.5,-348 666.5,-348 666.5,-378"/>
<text text-anchor="start" x="471.5" y="-366" font-family="Helvetica,sans-Serif" font-size="10.00">com.teragrep.pth_06.ast.analyze.</text>
<text text-anchor="middle" x="565" y="-355" font-family="Helvetica,sans-Serif" font-size="10.00">PlannedScansTest.testHostFilterMatch</text>
</a>
</g>
</g>
<!-- Node2&#45;&gt;Node3 -->
<g id="edge2_Node000002_Node000003" class="edge">
<title>Node2&#45;&gt;Node3</title>
<g id="a_edge2_Node000002_Node000003"><a xlink:title=" ">
<path fill="none" stroke="#63b8ff" d="M788.36,-253.85C765.61,-278.79 725.72,-317.97 683,-339 676.02,-342.43 668.58,-345.38 660.96,-347.9"/>
<polygon fill="#63b8ff" stroke="#63b8ff" points="791.07,-256.08 795.13,-246.29 785.85,-251.41 791.07,-256.08"/>
</a>
</g>
</g>
<!-- Node4 -->
<g id="Node000004" class="node">
<title>Node4</title>
<g id="a_Node000004"><a xlink:href="classcom_1_1teragrep_1_1pth__06_1_1ast_1_1analyze_1_1PlannedScansTest.html#ac86de63eee157a40fc018aa7e4759926" target="_top" xlink:title=" ">
<polygon fill="white" stroke="#666666" points="670,-329.5 460,-329.5 460,-288.5 670,-288.5 670,-329.5"/>
<text text-anchor="start" x="468" y="-317.5" font-family="Helvetica,sans-Serif" font-size="10.00">com.teragrep.pth_06.ast.analyze.</text>
<text text-anchor="start" x="468" y="-306.5" font-family="Helvetica,sans-Serif" font-size="10.00">PlannedScansTest.testMultipleDirectory</text>
<text text-anchor="middle" x="565" y="-295.5" font-family="Helvetica,sans-Serif" font-size="10.00">Matches</text>
</a>
</g>
</g>
<!-- Node2&#45;&gt;Node4 -->
<g id="edge3_Node000002_Node000004" class="edge">
<title>Node2&#45;&gt;Node4</title>
<g id="a_edge3_Node000002_Node000004"><a xlink:title=" ">
<path fill="none" stroke="#63b8ff" d="M762.65,-249.87C739.12,-259.29 709.76,-270.46 683,-279 672.71,-282.28 661.83,-285.46 651,-288.44"/>
<polygon fill="#63b8ff" stroke="#63b8ff" points="764.06,-253.08 772.02,-246.09 761.44,-246.58 764.06,-253.08"/>
</a>
</g>
</g>
<!-- Node5 -->
<g id="Node000005" class="node">
<title>Node5</title>
<g id="a_Node000005"><a xlink:href="classcom_1_1teragrep_1_1pth__06_1_1ast_1_1analyze_1_1PlannedScansTest.html#ab953f2d7da712011a6de22709ef9f2b4" target="_top" xlink:title=" ">
<polygon fill="white" stroke="#666666" points="655,-270 475,-270 475,-240 655,-240 655,-270"/>
<text text-anchor="start" x="483" y="-258" font-family="Helvetica,sans-Serif" font-size="10.00">com.teragrep.pth_06.ast.analyze.</text>
<text text-anchor="middle" x="565" y="-247" font-family="Helvetica,sans-Serif" font-size="10.00">PlannedScansTest.testNoMatches</text>
</a>
</g>
</g>
<!-- Node2&#45;&gt;Node5 -->
<g id="edge4_Node000002_Node000005" class="edge">
<title>Node2&#45;&gt;Node5</title>
<g id="a_edge4_Node000002_Node000005"><a xlink:title=" ">
<path fill="none" stroke="#63b8ff" d="M708.61,-240.86C690.95,-242.61 672.65,-244.42 655.3,-246.14"/>
<polygon fill="#63b8ff" stroke="#63b8ff" points="709.31,-244.3 718.92,-239.83 708.62,-237.34 709.31,-244.3"/>
</a>
</g>
</g>
<!-- Node6 -->
<g id="Node000006" class="node">
<title>Node6</title>
<g id="a_Node000006"><a xlink:href="classcom_1_1teragrep_1_1pth__06_1_1ast_1_1analyze_1_1PlannedScansTest.html#a35e59be54b4f7a08041b99a19f4f39cd" target="_top" xlink:title=" ">
<polygon fill="white" stroke="#666666" points="680,-222 450,-222 450,-192 680,-192 680,-222"/>
<text text-anchor="start" x="458" y="-210" font-family="Helvetica,sans-Serif" font-size="10.00">com.teragrep.pth_06.ast.analyze.</text>
<text text-anchor="middle" x="565" y="-199" font-family="Helvetica,sans-Serif" font-size="10.00">PlannedScansTest.testSingleDirectoryMatch</text>
</a>
</g>
</g>
<!-- Node2&#45;&gt;Node6 -->
<g id="edge5_Node000002_Node000006" class="edge">
<title>Node2&#45;&gt;Node6</title>
<g id="a_edge5_Node000002_Node000006"><a xlink:title=" ">
<path fill="none" stroke="#63b8ff" d="M708.73,-221.15C699.26,-220.22 689.61,-219.26 680.02,-218.31"/>
<polygon fill="#63b8ff" stroke="#63b8ff" points="708.62,-224.66 718.92,-222.17 709.31,-217.7 708.62,-224.66"/>
</a>
</g>
</g>
<!-- Node7 -->
<g id="Node000007" class="node">
<title>Node7</title>
<g id="a_Node000007"><a xlink:href="classcom_1_1teragrep_1_1pth__06_1_1ast_1_1analyze_1_1PlannedScansTest.html#aa971026f3fd334d4addfbc9d9fbf496e" target="_top" xlink:title=" ">
<polygon fill="white" stroke="#666666" points="683,-174 447,-174 447,-144 683,-144 683,-174"/>
<text text-anchor="start" x="455" y="-162" font-family="Helvetica,sans-Serif" font-size="10.00">com.teragrep.pth_06.ast.analyze.</text>
<text text-anchor="middle" x="565" y="-151" font-family="Helvetica,sans-Serif" font-size="10.00">PlannedScansTest.testSourceTypeFilterMatch</text>
</a>
</g>
</g>
<!-- Node2&#45;&gt;Node7 -->
<g id="edge6_Node000002_Node000007" class="edge">
<title>Node2&#45;&gt;Node7</title>
<g id="a_edge6_Node000002_Node000007"><a xlink:title=" ">
<path fill="none" stroke="#63b8ff" d="M764.09,-212.1C740.39,-202.43 710.45,-191.03 683,-183 671.76,-179.71 659.78,-176.71 647.93,-174.02"/>
<polygon fill="#63b8ff" stroke="#63b8ff" points="762.93,-215.41 773.5,-215.99 765.6,-208.94 762.93,-215.41"/>
</a>
</g>
</g>
<!-- Node8 -->
<g id="Node000008" class="node">
<title>Node8</title>
<g id="a_Node000008"><a xlink:href="classcom_1_1teragrep_1_1pth__06_1_1ast_1_1analyze_1_1ScanGroupExpression.html#a0e5168dad0a59965e14bbc6417498fed" target="_top" xlink:title=" ">
<polygon fill="white" stroke="#666666" points="655,-126 475,-126 475,-96 655,-96 655,-126"/>
<text text-anchor="start" x="483" y="-114" font-family="Helvetica,sans-Serif" font-size="10.00">com.teragrep.pth_06.ast.analyze.</text>
<text text-anchor="middle" x="565" y="-103" font-family="Helvetica,sans-Serif" font-size="10.00">ScanGroupExpression.value</text>
</a>
</g>
</g>
<!-- Node2&#45;&gt;Node8 -->
<g id="edge7_Node000002_Node000008" class="edge">
<title>Node2&#45;&gt;Node8</title>
<g id="a_edge7_Node000002_Node000008"><a xlink:title=" ">
<path fill="none" stroke="#63b8ff" d="M785.61,-208.64C762.09,-186.49 723.02,-153.29 683,-135 674.23,-130.99 664.79,-127.65 655.2,-124.86"/>
<polygon fill="#63b8ff" stroke="#63b8ff" points="783.33,-211.3 792.97,-215.69 788.17,-206.25 783.33,-211.3"/>
</a>
</g>
</g>
<!-- Node9 -->
<g id="Node000009" class="node">
<title>Node9</title>
<g id="a_Node000009"><a xlink:href="classcom_1_1teragrep_1_1pth__06_1_1ast_1_1analyze_1_1ScanPlanCollection.html#a189720b142e6dac61490c1b2c0a9bf1f" target="_top" xlink:title=" ">
<polygon fill="white" stroke="#666666" points="408.5,-222 218.5,-222 218.5,-192 408.5,-192 408.5,-222"/>
<text text-anchor="start" x="226.5" y="-210" font-family="Helvetica,sans-Serif" font-size="10.00">com.teragrep.pth_06.ast.analyze.</text>
<text text-anchor="middle" x="313.5" y="-199" font-family="Helvetica,sans-Serif" font-size="10.00">ScanPlanCollection.findScanRanges</text>
</a>
</g>
</g>
<!-- Node8&#45;&gt;Node9 -->
<g id="edge8_Node000008_Node000009" class="edge">
<title>Node8&#45;&gt;Node9</title>
<g id="a_edge8_Node000008_Node000009"><a xlink:title=" ">
<path fill="none" stroke="#63b8ff" d="M465.25,-125.67C458.86,-128.3 452.71,-131.38 447,-135 424.47,-149.27 433.22,-168.26 411,-183 405.82,-186.43 400.19,-189.38 394.34,-191.9"/>
<polygon fill="#63b8ff" stroke="#63b8ff" points="466.6,-128.9 474.75,-122.13 464.16,-122.34 466.6,-128.9"/>
</a>
</g>
</g>
<!-- Node11 -->
<g id="Node000011" class="node">
<title>Node11</title>
<g id="a_Node000011"><a xlink:href="classcom_1_1teragrep_1_1pth__06_1_1ast_1_1analyze_1_1ScanGroupExpressionTest.html#adf26305b6c1294c828bc17060a43a49d" target="_top" xlink:title=" ">
<polygon fill="white" stroke="#666666" points="411,-174 216,-174 216,-144 411,-144 411,-174"/>
<text text-anchor="start" x="224" y="-162" font-family="Helvetica,sans-Serif" font-size="10.00">com.teragrep.pth_06.ast.analyze.</text>
<text text-anchor="middle" x="313.5" y="-151" font-family="Helvetica,sans-Serif" font-size="10.00">ScanGroupExpressionTest.testEmpty</text>
</a>
</g>
</g>
<!-- Node8&#45;&gt;Node11 -->
<g id="edge11_Node000008_Node000011" class="edge">
<title>Node8&#45;&gt;Node11</title>
<g id="a_edge11_Node000008_Node000011"><a xlink:title=" ">
<path fill="none" stroke="#63b8ff" d="M475.85,-127.96C448.66,-133.19 418.93,-138.91 392.48,-144"/>
<polygon fill="#63b8ff" stroke="#63b8ff" points="476.58,-131.38 485.74,-126.06 475.26,-124.51 476.58,-131.38"/>
</a>
</g>
</g>
<!-- Node12 -->
<g id="Node000012" class="node">
<title>Node12</title>
<g id="a_Node000012"><a xlink:href="classcom_1_1teragrep_1_1pth__06_1_1ast_1_1analyze_1_1ScanPlanCollectionTest.html#a268359bc8ba40d91897fbe6213444601" target="_top" xlink:title=" ">
<polygon fill="white" stroke="#666666" points="404.5,-126 222.5,-126 222.5,-96 404.5,-96 404.5,-126"/>
<text text-anchor="start" x="230.5" y="-114" font-family="Helvetica,sans-Serif" font-size="10.00">com.teragrep.pth_06.ast.analyze.</text>
<text text-anchor="middle" x="313.5" y="-103" font-family="Helvetica,sans-Serif" font-size="10.00">ScanPlanCollectionTest.testEmpty</text>
</a>
</g>
</g>
<!-- Node8&#45;&gt;Node12 -->
<g id="edge12_Node000008_Node000012" class="edge">
<title>Node8&#45;&gt;Node12</title>
<g id="a_edge12_Node000008_Node000012"><a xlink:title=" ">
<path fill="none" stroke="#63b8ff" d="M464.72,-111C444.92,-111 424.22,-111 404.75,-111"/>
<polygon fill="#63b8ff" stroke="#63b8ff" points="464.98,-114.5 474.98,-111 464.98,-107.5 464.98,-114.5"/>
</a>
</g>
</g>
<!-- Node13 -->
<g id="Node000013" class="node">
<title>Node13</title>
<g id="a_Node000013"><a xlink:href="classcom_1_1teragrep_1_1pth__06_1_1ast_1_1analyze_1_1ScanGroupExpressionTest.html#a68727cd32a45086cd9515632edc2c2a8" target="_top" xlink:title=" ">
<polygon fill="white" stroke="#666666" points="406.5,-78 220.5,-78 220.5,-48 406.5,-48 406.5,-78"/>
<text text-anchor="start" x="228.5" y="-66" font-family="Helvetica,sans-Serif" font-size="10.00">com.teragrep.pth_06.ast.analyze.</text>
<text text-anchor="middle" x="313.5" y="-55" font-family="Helvetica,sans-Serif" font-size="10.00">ScanGroupExpressionTest.testHost</text>
</a>
</g>
</g>
<!-- Node8&#45;&gt;Node13 -->
<g id="edge13_Node000008_Node000013" class="edge">
<title>Node8&#45;&gt;Node13</title>
<g id="a_edge13_Node000008_Node000013"><a xlink:title=" ">
<path fill="none" stroke="#63b8ff" d="M475.85,-94.04C448.66,-88.81 418.93,-83.09 392.48,-78"/>
<polygon fill="#63b8ff" stroke="#63b8ff" points="475.26,-97.49 485.74,-95.94 476.58,-90.62 475.26,-97.49"/>
</a>
</g>
</g>
<!-- Node14 -->
<g id="Node000014" class="node">
<title>Node14</title>
<g id="a_Node000014"><a xlink:href="classcom_1_1teragrep_1_1pth__06_1_1ast_1_1analyze_1_1ScanPlanCollectionTest.html#a0d0ef932bb1fd4506e5111981517af9e" target="_top" xlink:title=" ">
<polygon fill="white" stroke="#666666" points="403.5,-30 223.5,-30 223.5,0 403.5,0 403.5,-30"/>
<text text-anchor="start" x="231.5" y="-18" font-family="Helvetica,sans-Serif" font-size="10.00">com.teragrep.pth_06.ast.analyze.</text>
<text text-anchor="middle" x="313.5" y="-7" font-family="Helvetica,sans-Serif" font-size="10.00">ScanPlanCollectionTest.testHost</text>
</a>
</g>
</g>
<!-- Node8&#45;&gt;Node14 -->
<g id="edge14_Node000008_Node000014" class="edge">
<title>Node8&#45;&gt;Node14</title>
<g id="a_edge14_Node000008_Node000014"><a xlink:title=" ">
<path fill="none" stroke="#63b8ff" d="M527.25,-91.2C496.78,-75.4 451.98,-53.58 411,-39 401.81,-35.73 391.98,-32.74 382.23,-30.05"/>
<polygon fill="#63b8ff" stroke="#63b8ff" points="525.74,-94.36 536.22,-95.89 528.98,-88.16 525.74,-94.36"/>
</a>
</g>
</g>
<!-- Node9&#45;&gt;Node9 -->
<g id="edge10_Node000009_Node000009" class="edge">
<title>Node9&#45;&gt;Node9</title>
<g id="a_edge10_Node000009_Node000009"><a xlink:title=" ">
<path fill="none" stroke="#63b8ff" d="M352.36,-232.6C347.05,-236.97 334.1,-240 313.5,-240 278.81,-240 265.8,-231.41 274.48,-222.28"/>
<polygon fill="#63b8ff" stroke="#63b8ff" points="355.86,-232.33 352.52,-222.28 348.86,-232.22 355.86,-232.33"/>
</a>
</g>
</g>
<!-- Node10 -->
<g id="Node000010" class="node">
<title>Node10</title>
<g id="a_Node000010"><a xlink:href="classcom_1_1teragrep_1_1pth__06_1_1ast_1_1analyze_1_1ScanPlanCollection.html#a230ff5415613f1607ab36336757e6dc6" target="_top" xlink:title=" ">
<polygon fill="white" stroke="#666666" points="180,-222 0,-222 0,-192 180,-192 180,-222"/>
<text text-anchor="start" x="8" y="-210" font-family="Helvetica,sans-Serif" font-size="10.00">com.teragrep.pth_06.ast.analyze.</text>
<text text-anchor="middle" x="90" y="-199" font-family="Helvetica,sans-Serif" font-size="10.00">ScanPlanCollection.asList</text>
</a>
</g>
</g>
<!-- Node9&#45;&gt;Node10 -->
<g id="edge9_Node000009_Node000010" class="edge">
<title>Node9&#45;&gt;Node10</title>
<g id="a_edge9_Node000009_Node000010"><a xlink:title=" ">
<path fill="none" stroke="#63b8ff" d="M208.15,-207C198.82,-207 189.43,-207 180.24,-207"/>
<polygon fill="#63b8ff" stroke="#63b8ff" points="208.24,-210.5 218.24,-207 208.24,-203.5 208.24,-210.5"/>
</a>
</g>
</g>
</g>
</svg>
