<?xml version="1.0" encoding="UTF-8" standalone="no"?>
<!DOCTYPE svg PUBLIC "-//W3C//DTD SVG 1.1//EN"
 "http://www.w3.org/Graphics/SVG/1.1/DTD/svg11.dtd">
<!-- Generated by graphviz version 2.43.0 (0)
 -->
<!-- Title: com.teragrep.pth_06.ast.analyze.ScanPlanImplTest.testToRangeOutsideBoundsStub Pages: 1 -->
<svg width="444pt" height="76pt"
 viewBox="0.00 0.00 444.00 75.50" xmlns="http://www.w3.org/2000/svg" xmlns:xlink="http://www.w3.org/1999/xlink">
<g id="graph0" class="graph" transform="scale(1 1) rotate(0) translate(4 71.5)">
<title>com.teragrep.pth_06.ast.analyze.ScanPlanImplTest.testToRangeOutsideBoundsStub</title>
<!-- Node1 -->
<g id="Node000001" class="node">
<title>Node1</title>
<g id="a_Node000001"><a xlink:title=" ">
<polygon fill="#999999" stroke="#666666" points="203,-56.5 0,-56.5 0,-15.5 203,-15.5 203,-56.5"/>
<text text-anchor="start" x="8" y="-44.5" font-family="Helvetica,sans-Serif" font-size="10.00">com.teragrep.pth_06.ast.analyze.</text>
<text text-anchor="start" x="8" y="-33.5" font-family="Helvetica,sans-Serif" font-size="10.00">ScanPlanImplTest.testToRangeOutside</text>
<text text-anchor="middle" x="101.5" y="-22.5" font-family="Helvetica,sans-Serif" font-size="10.00">BoundsStub</text>
</a>
</g>
</g>
<!-- Node2 -->
<g id="Node000002" class="node">
<title>Node2</title>
<g id="a_Node000002"><a xlink:href="interfacecom_1_1teragrep_1_1pth__06_1_1Stubable.html#ac7c59dcfbcfa0218ef7bc528ef597971" target="_top" xlink:title=" ">
<polygon fill="white" stroke="#666666" points="436,-67.5 239,-67.5 239,-48.5 436,-48.5 436,-67.5"/>
<text text-anchor="middle" x="337.5" y="-55.5" font-family="Helvetica,sans-Serif" font-size="10.00">com.teragrep.pth_06.Stubable.isStub</text>
</a>
</g>
</g>
<!-- Node1&#45;&gt;Node2 -->
<g id="edge1_Node000001_Node000002" class="edge">
<title>Node1&#45;&gt;Node2</title>
<g id="a_edge1_Node000001_Node000002"><a xlink:title=" ">
<path fill="none" stroke="#63b8ff" d="M203.1,-45.46C211.64,-46.26 220.31,-47.08 228.91,-47.88"/>
<polygon fill="#63b8ff" stroke="#63b8ff" points="228.67,-51.38 238.96,-48.83 229.33,-44.41 228.67,-51.38"/>
</a>
</g>
</g>
<!-- Node3 -->
<g id="Node000003" class="node">
<title>Node3</title>
<g id="a_Node000003"><a xlink:href="interfacecom_1_1teragrep_1_1pth__06_1_1ast_1_1analyze_1_1ScanPlan.html#a4e9eb3e42bbde0815f073f107dc3b180" target="_top" xlink:title="Returns stub when new range is outside the original range.">
<polygon fill="white" stroke="#666666" points="427.5,-30 247.5,-30 247.5,0 427.5,0 427.5,-30"/>
<text text-anchor="start" x="255.5" y="-18" font-family="Helvetica,sans-Serif" font-size="10.00">com.teragrep.pth_06.ast.analyze.</text>
<text text-anchor="middle" x="337.5" y="-7" font-family="Helvetica,sans-Serif" font-size="10.00">ScanPlan.toRangeBetween</text>
</a>
</g>
</g>
<!-- Node1&#45;&gt;Node3 -->
<g id="edge2_Node000001_Node000003" class="edge">
<title>Node1&#45;&gt;Node3</title>
<g id="a_edge2_Node000001_Node000003"><a xlink:title=" ">
<path fill="none" stroke="#63b8ff" d="M203.1,-26.97C214.38,-25.96 225.87,-24.93 237.14,-23.92"/>
<polygon fill="#63b8ff" stroke="#63b8ff" points="237.77,-27.37 247.42,-22.99 237.15,-20.4 237.77,-27.37"/>
</a>
</g>
</g>
</g>
</svg>
