<?xml version="1.0" encoding="UTF-8" standalone="no"?>
<!DOCTYPE svg PUBLIC "-//W3C//DTD SVG 1.1//EN"
 "http://www.w3.org/Graphics/SVG/1.1/DTD/svg11.dtd">
<!-- Generated by graphviz version 2.43.0 (0)
 -->
<!-- Title: com.teragrep.pth_06.ast.analyze.FilterGroup.filterList Pages: 1 -->
<svg width="1152pt" height="386pt"
 viewBox="0.00 0.00 1152.00 386.00" xmlns="http://www.w3.org/2000/svg" xmlns:xlink="http://www.w3.org/1999/xlink">
<g id="graph0" class="graph" transform="scale(1 1) rotate(0) translate(4 382)">
<title>com.teragrep.pth_06.ast.analyze.FilterGroup.filterList</title>
<!-- Node1 -->
<g id="Node000001" class="node">
<title>Node1</title>
<g id="a_Node000001"><a xlink:title=" ">
<polygon fill="#999999" stroke="#666666" points="1144,-174 964,-174 964,-144 1144,-144 1144,-174"/>
<text text-anchor="start" x="972" y="-162" font-family="Helvetica,sans-Serif" font-size="10.00">com.teragrep.pth_06.ast.analyze.</text>
<text text-anchor="middle" x="1054" y="-151" font-family="Helvetica,sans-Serif" font-size="10.00">FilterGroup.filterList</text>
</a>
</g>
</g>
<!-- Node1&#45;&gt;Node1 -->
<g id="edge1_Node000001_Node000001" class="edge">
<title>Node1&#45;&gt;Node1</title>
<g id="a_edge1_Node000001_Node000001"><a xlink:title=" ">
<path fill="none" stroke="#63b8ff" d="M1094.26,-184.6C1088.76,-188.97 1075.34,-192 1054,-192 1018.06,-192 1004.59,-183.41 1013.57,-174.28"/>
<polygon fill="#63b8ff" stroke="#63b8ff" points="1097.76,-184.33 1094.43,-174.28 1090.76,-184.22 1097.76,-184.33"/>
</a>
</g>
</g>
<!-- Node2 -->
<g id="Node000002" class="node">
<title>Node2</title>
<g id="a_Node000002"><a xlink:href="classcom_1_1teragrep_1_1pth__06_1_1ast_1_1analyze_1_1PlannedScans.html#ad6dfe7529bfdfc03de991c95e194e0fe" target="_top" xlink:title=" ">
<polygon fill="white" stroke="#666666" points="913.5,-246 733.5,-246 733.5,-216 913.5,-216 913.5,-246"/>
<text text-anchor="start" x="741.5" y="-234" font-family="Helvetica,sans-Serif" font-size="10.00">com.teragrep.pth_06.ast.analyze.</text>
<text text-anchor="middle" x="823.5" y="-223" font-family="Helvetica,sans-Serif" font-size="10.00">PlannedScans.planListForGroup</text>
</a>
</g>
</g>
<!-- Node1&#45;&gt;Node2 -->
<g id="edge2_Node000001_Node000002" class="edge">
<title>Node1&#45;&gt;Node2</title>
<g id="a_edge2_Node000001_Node000002"><a xlink:title=" ">
<path fill="none" stroke="#63b8ff" d="M1008.24,-177.92C984.64,-187.45 955.06,-198.71 928,-207 917.51,-210.21 906.3,-213.23 895.28,-215.97"/>
<polygon fill="#63b8ff" stroke="#63b8ff" points="1009.69,-181.11 1017.63,-174.09 1007.05,-174.63 1009.69,-181.11"/>
</a>
</g>
</g>
<!-- Node15 -->
<g id="Node000015" class="node">
<title>Node15</title>
<g id="a_Node000015"><a xlink:href="classcom_1_1teragrep_1_1pth__06_1_1ast_1_1analyze_1_1FilterGroupTest.html#a47f3f8dc5274b61c843d551009f121d4" target="_top" xlink:title=" ">
<polygon fill="white" stroke="#666666" points="916,-198 731,-198 731,-168 916,-168 916,-198"/>
<text text-anchor="start" x="739" y="-186" font-family="Helvetica,sans-Serif" font-size="10.00">com.teragrep.pth_06.ast.analyze.</text>
<text text-anchor="middle" x="823.5" y="-175" font-family="Helvetica,sans-Serif" font-size="10.00">FilterGroupTest.testEmptyFilterList</text>
</a>
</g>
</g>
<!-- Node1&#45;&gt;Node15 -->
<g id="edge16_Node000001_Node000015" class="edge">
<title>Node1&#45;&gt;Node15</title>
<g id="a_edge16_Node000001_Node000015"><a xlink:title=" ">
<path fill="none" stroke="#63b8ff" d="M953.7,-169.43C941.18,-170.75 928.41,-172.09 916.02,-173.39"/>
<polygon fill="#63b8ff" stroke="#63b8ff" points="954.09,-172.91 963.67,-168.38 953.36,-165.95 954.09,-172.91"/>
</a>
</g>
</g>
<!-- Node16 -->
<g id="Node000016" class="node">
<title>Node16</title>
<g id="a_Node000016"><a xlink:href="classcom_1_1teragrep_1_1pth__06_1_1ast_1_1analyze_1_1FilterGroupTest.html#a36b8d42d1a4eef6a72aa653108fe6dc7" target="_top" xlink:title=" ">
<polygon fill="white" stroke="#666666" points="913.5,-150 733.5,-150 733.5,-120 913.5,-120 913.5,-150"/>
<text text-anchor="start" x="741.5" y="-138" font-family="Helvetica,sans-Serif" font-size="10.00">com.teragrep.pth_06.ast.analyze.</text>
<text text-anchor="middle" x="823.5" y="-127" font-family="Helvetica,sans-Serif" font-size="10.00">FilterGroupTest.testHostFilterList</text>
</a>
</g>
</g>
<!-- Node1&#45;&gt;Node16 -->
<g id="edge17_Node000001_Node000016" class="edge">
<title>Node1&#45;&gt;Node16</title>
<g id="a_edge17_Node000001_Node000016"><a xlink:title=" ">
<path fill="none" stroke="#63b8ff" d="M953.6,-148.56C940.35,-147.17 926.83,-145.75 913.76,-144.38"/>
<polygon fill="#63b8ff" stroke="#63b8ff" points="953.36,-152.05 963.67,-149.62 954.09,-145.09 953.36,-152.05"/>
</a>
</g>
</g>
<!-- Node17 -->
<g id="Node000017" class="node">
<title>Node17</title>
<g id="a_Node000017"><a xlink:href="classcom_1_1teragrep_1_1pth__06_1_1ast_1_1analyze_1_1FilterGroupTest.html#a2cb5e94e4528a57fc969211b80339a20" target="_top" xlink:title=" ">
<polygon fill="white" stroke="#666666" points="928,-102 719,-102 719,-72 928,-72 928,-102"/>
<text text-anchor="start" x="727" y="-90" font-family="Helvetica,sans-Serif" font-size="10.00">com.teragrep.pth_06.ast.analyze.</text>
<text text-anchor="middle" x="823.5" y="-79" font-family="Helvetica,sans-Serif" font-size="10.00">FilterGroupTest.testSourceTypeFilterList</text>
</a>
</g>
</g>
<!-- Node1&#45;&gt;Node17 -->
<g id="edge18_Node000001_Node000017" class="edge">
<title>Node1&#45;&gt;Node17</title>
<g id="a_edge18_Node000001_Node000017"><a xlink:title=" ">
<path fill="none" stroke="#63b8ff" d="M1008.24,-140.08C984.64,-130.55 955.06,-119.29 928,-111 917.51,-107.79 906.3,-104.77 895.28,-102.03"/>
<polygon fill="#63b8ff" stroke="#63b8ff" points="1007.05,-143.37 1017.63,-143.91 1009.69,-136.89 1007.05,-143.37"/>
</a>
</g>
</g>
<!-- Node3 -->
<g id="Node000003" class="node">
<title>Node3</title>
<g id="a_Node000003"><a xlink:href="classcom_1_1teragrep_1_1pth__06_1_1ast_1_1analyze_1_1PlannedScansTest.html#adb4d98866e6154141722cef12eaf9f32" target="_top" xlink:title=" ">
<polygon fill="white" stroke="#666666" points="666.5,-378 463.5,-378 463.5,-348 666.5,-348 666.5,-378"/>
<text text-anchor="start" x="471.5" y="-366" font-family="Helvetica,sans-Serif" font-size="10.00">com.teragrep.pth_06.ast.analyze.</text>
<text text-anchor="middle" x="565" y="-355" font-family="Helvetica,sans-Serif" font-size="10.00">PlannedScansTest.testHostFilterMatch</text>
</a>
</g>
</g>
<!-- Node2&#45;&gt;Node3 -->
<g id="edge3_Node000002_Node000003" class="edge">
<title>Node2&#45;&gt;Node3</title>
<g id="a_edge3_Node000002_Node000003"><a xlink:title=" ">
<path fill="none" stroke="#63b8ff" d="M800.38,-253.45C774.55,-278.31 729.41,-317.68 683,-339 675.46,-342.46 667.42,-345.43 659.23,-347.97"/>
<polygon fill="#63b8ff" stroke="#63b8ff" points="803.05,-255.74 807.76,-246.24 798.16,-250.73 803.05,-255.74"/>
</a>
</g>
</g>
<!-- Node4 -->
<g id="Node000004" class="node">
<title>Node4</title>
<g id="a_Node000004"><a xlink:href="classcom_1_1teragrep_1_1pth__06_1_1ast_1_1analyze_1_1PlannedScansTest.html#ac86de63eee157a40fc018aa7e4759926" target="_top" xlink:title=" ">
<polygon fill="white" stroke="#666666" points="670,-329.5 460,-329.5 460,-288.5 670,-288.5 670,-329.5"/>
<text text-anchor="start" x="468" y="-317.5" font-family="Helvetica,sans-Serif" font-size="10.00">com.teragrep.pth_06.ast.analyze.</text>
<text text-anchor="start" x="468" y="-306.5" font-family="Helvetica,sans-Serif" font-size="10.00">PlannedScansTest.testMultipleDirectory</text>
<text text-anchor="middle" x="565" y="-295.5" font-family="Helvetica,sans-Serif" font-size="10.00">Matches</text>
</a>
</g>
</g>
<!-- Node2&#45;&gt;Node4 -->
<g id="edge4_Node000002_Node000004" class="edge">
<title>Node2&#45;&gt;Node4</title>
<g id="a_edge4_Node000002_Node000004"><a xlink:title=" ">
<path fill="none" stroke="#63b8ff" d="M771.82,-249.54C745.49,-258.89 712.7,-270.1 683,-279 672.25,-282.22 660.89,-285.41 649.63,-288.43"/>
<polygon fill="#63b8ff" stroke="#63b8ff" points="773.34,-252.71 781.58,-246.05 770.98,-246.12 773.34,-252.71"/>
</a>
</g>
</g>
<!-- Node5 -->
<g id="Node000005" class="node">
<title>Node5</title>
<g id="a_Node000005"><a xlink:href="classcom_1_1teragrep_1_1pth__06_1_1ast_1_1analyze_1_1PlannedScansTest.html#ab953f2d7da712011a6de22709ef9f2b4" target="_top" xlink:title=" ">
<polygon fill="white" stroke="#666666" points="655,-270 475,-270 475,-240 655,-240 655,-270"/>
<text text-anchor="start" x="483" y="-258" font-family="Helvetica,sans-Serif" font-size="10.00">com.teragrep.pth_06.ast.analyze.</text>
<text text-anchor="middle" x="565" y="-247" font-family="Helvetica,sans-Serif" font-size="10.00">PlannedScansTest.testNoMatches</text>
</a>
</g>
</g>
<!-- Node2&#45;&gt;Node5 -->
<g id="edge5_Node000002_Node000005" class="edge">
<title>Node2&#45;&gt;Node5</title>
<g id="a_edge5_Node000002_Node000005"><a xlink:title=" ">
<path fill="none" stroke="#63b8ff" d="M722.96,-240.31C700.57,-242.41 676.96,-244.62 655.03,-246.67"/>
<polygon fill="#63b8ff" stroke="#63b8ff" points="723.52,-243.78 733.15,-239.36 722.87,-236.81 723.52,-243.78"/>
</a>
</g>
</g>
<!-- Node6 -->
<g id="Node000006" class="node">
<title>Node6</title>
<g id="a_Node000006"><a xlink:href="classcom_1_1teragrep_1_1pth__06_1_1ast_1_1analyze_1_1PlannedScansTest.html#a35e59be54b4f7a08041b99a19f4f39cd" target="_top" xlink:title=" ">
<polygon fill="white" stroke="#666666" points="680,-222 450,-222 450,-192 680,-192 680,-222"/>
<text text-anchor="start" x="458" y="-210" font-family="Helvetica,sans-Serif" font-size="10.00">com.teragrep.pth_06.ast.analyze.</text>
<text text-anchor="middle" x="565" y="-199" font-family="Helvetica,sans-Serif" font-size="10.00">PlannedScansTest.testSingleDirectoryMatch</text>
</a>
</g>
</g>
<!-- Node2&#45;&gt;Node6 -->
<g id="edge6_Node000002_Node000006" class="edge">
<title>Node2&#45;&gt;Node6</title>
<g id="a_edge6_Node000002_Node000006"><a xlink:title=" ">
<path fill="none" stroke="#63b8ff" d="M723.05,-221.69C709.04,-220.38 694.55,-219.03 680.3,-217.69"/>
<polygon fill="#63b8ff" stroke="#63b8ff" points="722.87,-225.19 733.15,-222.64 723.52,-218.22 722.87,-225.19"/>
</a>
</g>
</g>
<!-- Node7 -->
<g id="Node000007" class="node">
<title>Node7</title>
<g id="a_Node000007"><a xlink:href="classcom_1_1teragrep_1_1pth__06_1_1ast_1_1analyze_1_1PlannedScansTest.html#aa971026f3fd334d4addfbc9d9fbf496e" target="_top" xlink:title=" ">
<polygon fill="white" stroke="#666666" points="683,-174 447,-174 447,-144 683,-144 683,-174"/>
<text text-anchor="start" x="455" y="-162" font-family="Helvetica,sans-Serif" font-size="10.00">com.teragrep.pth_06.ast.analyze.</text>
<text text-anchor="middle" x="565" y="-151" font-family="Helvetica,sans-Serif" font-size="10.00">PlannedScansTest.testSourceTypeFilterMatch</text>
</a>
</g>
</g>
<!-- Node2&#45;&gt;Node7 -->
<g id="edge7_Node000002_Node000007" class="edge">
<title>Node2&#45;&gt;Node7</title>
<g id="a_edge7_Node000002_Node000007"><a xlink:title=" ">
<path fill="none" stroke="#63b8ff" d="M734.3,-212.87C729.06,-211.08 723.92,-209.13 719,-207 701.35,-199.37 700.75,-190.4 683,-183 674.77,-179.57 666.01,-176.61 657.12,-174.07"/>
<polygon fill="#63b8ff" stroke="#63b8ff" points="733.23,-216.2 743.82,-215.92 735.37,-209.54 733.23,-216.2"/>
</a>
</g>
</g>
<!-- Node8 -->
<g id="Node000008" class="node">
<title>Node8</title>
<g id="a_Node000008"><a xlink:href="classcom_1_1teragrep_1_1pth__06_1_1ast_1_1analyze_1_1ScanGroupExpression.html#a0e5168dad0a59965e14bbc6417498fed" target="_top" xlink:title=" ">
<polygon fill="white" stroke="#666666" points="655,-126 475,-126 475,-96 655,-96 655,-126"/>
<text text-anchor="start" x="483" y="-114" font-family="Helvetica,sans-Serif" font-size="10.00">com.teragrep.pth_06.ast.analyze.</text>
<text text-anchor="middle" x="565" y="-103" font-family="Helvetica,sans-Serif" font-size="10.00">ScanGroupExpression.value</text>
</a>
</g>
</g>
<!-- Node2&#45;&gt;Node8 -->
<g id="edge8_Node000002_Node000008" class="edge">
<title>Node2&#45;&gt;Node8</title>
<g id="a_edge8_Node000002_Node000008"><a xlink:title=" ">
<path fill="none" stroke="#63b8ff" d="M724.58,-211.01C722.66,-209.75 720.79,-208.41 719,-207 690.9,-184.85 711.38,-156.79 683,-135 674.69,-128.62 665.11,-123.83 655.08,-120.24"/>
<polygon fill="#63b8ff" stroke="#63b8ff" points="722.93,-214.09 733.34,-216.05 726.42,-208.03 722.93,-214.09"/>
</a>
</g>
</g>
<!-- Node9 -->
<g id="Node000009" class="node">
<title>Node9</title>
<g id="a_Node000009"><a xlink:href="classcom_1_1teragrep_1_1pth__06_1_1ast_1_1analyze_1_1ScanPlanCollection.html#a189720b142e6dac61490c1b2c0a9bf1f" target="_top" xlink:title=" ">
<polygon fill="white" stroke="#666666" points="408.5,-222 218.5,-222 218.5,-192 408.5,-192 408.5,-222"/>
<text text-anchor="start" x="226.5" y="-210" font-family="Helvetica,sans-Serif" font-size="10.00">com.teragrep.pth_06.ast.analyze.</text>
<text text-anchor="middle" x="313.5" y="-199" font-family="Helvetica,sans-Serif" font-size="10.00">ScanPlanCollection.findScanRanges</text>
</a>
</g>
</g>
<!-- Node8&#45;&gt;Node9 -->
<g id="edge9_Node000008_Node000009" class="edge">
<title>Node8&#45;&gt;Node9</title>
<g id="a_edge9_Node000008_Node000009"><a xlink:title=" ">
<path fill="none" stroke="#63b8ff" d="M465.25,-125.67C458.86,-128.3 452.71,-131.38 447,-135 424.47,-149.27 433.22,-168.26 411,-183 405.82,-186.43 400.19,-189.38 394.34,-191.9"/>
<polygon fill="#63b8ff" stroke="#63b8ff" points="466.6,-128.9 474.75,-122.13 464.16,-122.34 466.6,-128.9"/>
</a>
</g>
</g>
<!-- Node11 -->
<g id="Node000011" class="node">
<title>Node11</title>
<g id="a_Node000011"><a xlink:href="classcom_1_1teragrep_1_1pth__06_1_1ast_1_1analyze_1_1ScanGroupExpressionTest.html#adf26305b6c1294c828bc17060a43a49d" target="_top" xlink:title=" ">
<polygon fill="white" stroke="#666666" points="411,-174 216,-174 216,-144 411,-144 411,-174"/>
<text text-anchor="start" x="224" y="-162" font-family="Helvetica,sans-Serif" font-size="10.00">com.teragrep.pth_06.ast.analyze.</text>
<text text-anchor="middle" x="313.5" y="-151" font-family="Helvetica,sans-Serif" font-size="10.00">ScanGroupExpressionTest.testEmpty</text>
</a>
</g>
</g>
<!-- Node8&#45;&gt;Node11 -->
<g id="edge12_Node000008_Node000011" class="edge">
<title>Node8&#45;&gt;Node11</title>
<g id="a_edge12_Node000008_Node000011"><a xlink:title=" ">
<path fill="none" stroke="#63b8ff" d="M475.85,-127.96C448.66,-133.19 418.93,-138.91 392.48,-144"/>
<polygon fill="#63b8ff" stroke="#63b8ff" points="476.58,-131.38 485.74,-126.06 475.26,-124.51 476.58,-131.38"/>
</a>
</g>
</g>
<!-- Node12 -->
<g id="Node000012" class="node">
<title>Node12</title>
<g id="a_Node000012"><a xlink:href="classcom_1_1teragrep_1_1pth__06_1_1ast_1_1analyze_1_1ScanPlanCollectionTest.html#a268359bc8ba40d91897fbe6213444601" target="_top" xlink:title=" ">
<polygon fill="white" stroke="#666666" points="404.5,-126 222.5,-126 222.5,-96 404.5,-96 404.5,-126"/>
<text text-anchor="start" x="230.5" y="-114" font-family="Helvetica,sans-Serif" font-size="10.00">com.teragrep.pth_06.ast.analyze.</text>
<text text-anchor="middle" x="313.5" y="-103" font-family="Helvetica,sans-Serif" font-size="10.00">ScanPlanCollectionTest.testEmpty</text>
</a>
</g>
</g>
<!-- Node8&#45;&gt;Node12 -->
<g id="edge13_Node000008_Node000012" class="edge">
<title>Node8&#45;&gt;Node12</title>
<g id="a_edge13_Node000008_Node000012"><a xlink:title=" ">
<path fill="none" stroke="#63b8ff" d="M464.72,-111C444.92,-111 424.22,-111 404.75,-111"/>
<polygon fill="#63b8ff" stroke="#63b8ff" points="464.98,-114.5 474.98,-111 464.98,-107.5 464.98,-114.5"/>
</a>
</g>
</g>
<!-- Node13 -->
<g id="Node000013" class="node">
<title>Node13</title>
<g id="a_Node000013"><a xlink:href="classcom_1_1teragrep_1_1pth__06_1_1ast_1_1analyze_1_1ScanGroupExpressionTest.html#a68727cd32a45086cd9515632edc2c2a8" target="_top" xlink:title=" ">
<polygon fill="white" stroke="#666666" points="406.5,-78 220.5,-78 220.5,-48 406.5,-48 406.5,-78"/>
<text text-anchor="start" x="228.5" y="-66" font-family="Helvetica,sans-Serif" font-size="10.00">com.teragrep.pth_06.ast.analyze.</text>
<text text-anchor="middle" x="313.5" y="-55" font-family="Helvetica,sans-Serif" font-size="10.00">ScanGroupExpressionTest.testHost</text>
</a>
</g>
</g>
<!-- Node8&#45;&gt;Node13 -->
<g id="edge14_Node000008_Node000013" class="edge">
<title>Node8&#45;&gt;Node13</title>
<g id="a_edge14_Node000008_Node000013"><a xlink:title=" ">
<path fill="none" stroke="#63b8ff" d="M475.85,-94.04C448.66,-88.81 418.93,-83.09 392.48,-78"/>
<polygon fill="#63b8ff" stroke="#63b8ff" points="475.26,-97.49 485.74,-95.94 476.58,-90.62 475.26,-97.49"/>
</a>
</g>
</g>
<!-- Node14 -->
<g id="Node000014" class="node">
<title>Node14</title>
<g id="a_Node000014"><a xlink:href="classcom_1_1teragrep_1_1pth__06_1_1ast_1_1analyze_1_1ScanPlanCollectionTest.html#a0d0ef932bb1fd4506e5111981517af9e" target="_top" xlink:title=" ">
<polygon fill="white" stroke="#666666" points="403.5,-30 223.5,-30 223.5,0 403.5,0 403.5,-30"/>
<text text-anchor="start" x="231.5" y="-18" font-family="Helvetica,sans-Serif" font-size="10.00">com.teragrep.pth_06.ast.analyze.</text>
<text text-anchor="middle" x="313.5" y="-7" font-family="Helvetica,sans-Serif" font-size="10.00">ScanPlanCollectionTest.testHost</text>
</a>
</g>
</g>
<!-- Node8&#45;&gt;Node14 -->
<g id="edge15_Node000008_Node000014" class="edge">
<title>Node8&#45;&gt;Node14</title>
<g id="a_edge15_Node000008_Node000014"><a xlink:title=" ">
<path fill="none" stroke="#63b8ff" d="M527.25,-91.2C496.78,-75.4 451.98,-53.58 411,-39 401.81,-35.73 391.98,-32.74 382.23,-30.05"/>
<polygon fill="#63b8ff" stroke="#63b8ff" points="525.74,-94.36 536.22,-95.89 528.98,-88.16 525.74,-94.36"/>
</a>
</g>
</g>
<!-- Node9&#45;&gt;Node9 -->
<g id="edge11_Node000009_Node000009" class="edge">
<title>Node9&#45;&gt;Node9</title>
<g id="a_edge11_Node000009_Node000009"><a xlink:title=" ">
<path fill="none" stroke="#63b8ff" d="M352.36,-232.6C347.05,-236.97 334.1,-240 313.5,-240 278.81,-240 265.8,-231.41 274.48,-222.28"/>
<polygon fill="#63b8ff" stroke="#63b8ff" points="355.86,-232.33 352.52,-222.28 348.86,-232.22 355.86,-232.33"/>
</a>
</g>
</g>
<!-- Node10 -->
<g id="Node000010" class="node">
<title>Node10</title>
<g id="a_Node000010"><a xlink:href="classcom_1_1teragrep_1_1pth__06_1_1ast_1_1analyze_1_1ScanPlanCollection.html#a230ff5415613f1607ab36336757e6dc6" target="_top" xlink:title=" ">
<polygon fill="white" stroke="#666666" points="180,-222 0,-222 0,-192 180,-192 180,-222"/>
<text text-anchor="start" x="8" y="-210" font-family="Helvetica,sans-Serif" font-size="10.00">com.teragrep.pth_06.ast.analyze.</text>
<text text-anchor="middle" x="90" y="-199" font-family="Helvetica,sans-Serif" font-size="10.00">ScanPlanCollection.asList</text>
</a>
</g>
</g>
<!-- Node9&#45;&gt;Node10 -->
<g id="edge10_Node000009_Node000010" class="edge">
<title>Node9&#45;&gt;Node10</title>
<g id="a_edge10_Node000009_Node000010"><a xlink:title=" ">
<path fill="none" stroke="#63b8ff" d="M208.15,-207C198.82,-207 189.43,-207 180.24,-207"/>
<polygon fill="#63b8ff" stroke="#63b8ff" points="208.24,-210.5 218.24,-207 208.24,-203.5 208.24,-210.5"/>
</a>
</g>
</g>
</g>
</svg>
