<?xml version="1.0" encoding="UTF-8" standalone="no"?>
<!DOCTYPE svg PUBLIC "-//W3C//DTD SVG 1.1//EN"
 "http://www.w3.org/Graphics/SVG/1.1/DTD/svg11.dtd">
<!-- Generated by graphviz version 2.43.0 (0)
 -->
<!-- Title: com.teragrep.pth_06.ast.xml.XMLQueryTest.testXMLFromQuery Pages: 1 -->
<svg width="782pt" height="86pt"
 viewBox="0.00 0.00 782.00 86.00" xmlns="http://www.w3.org/2000/svg" xmlns:xlink="http://www.w3.org/1999/xlink">
<g id="graph0" class="graph" transform="scale(1 1) rotate(0) translate(4 82)">
<title>com.teragrep.pth_06.ast.xml.XMLQueryTest.testXMLFromQuery</title>
<!-- Node1 -->
<g id="Node000001" class="node">
<title>Node1</title>
<g id="a_Node000001"><a xlink:title=" ">
<polygon fill="#999999" stroke="#666666" points="183,-30 0,-30 0,0 183,0 183,-30"/>
<text text-anchor="start" x="8" y="-18" font-family="Helvetica,sans-Serif" font-size="10.00">com.teragrep.pth_06.ast.xml.</text>
<text text-anchor="middle" x="91.5" y="-7" font-family="Helvetica,sans-Serif" font-size="10.00">XMLQueryTest.testXMLFromQuery</text>
</a>
</g>
</g>
<!-- Node2 -->
<g id="Node000002" class="node">
<title>Node2</title>
<g id="a_Node000002"><a xlink:href="classcom_1_1teragrep_1_1pth__06_1_1ast_1_1xml_1_1XMLQuery.html#a11ebce7d6afeda454c2b93a252196299" target="_top" xlink:title=" ">
<polygon fill="white" stroke="#666666" points="380,-30 219,-30 219,0 380,0 380,-30"/>
<text text-anchor="start" x="227" y="-18" font-family="Helvetica,sans-Serif" font-size="10.00">com.teragrep.pth_06.ast.xml.</text>
<text text-anchor="middle" x="299.5" y="-7" font-family="Helvetica,sans-Serif" font-size="10.00">XMLQuery.asAST</text>
</a>
</g>
</g>
<!-- Node1&#45;&gt;Node2 -->
<g id="edge1_Node000001_Node000002" class="edge">
<title>Node1&#45;&gt;Node2</title>
<g id="a_edge1_Node000001_Node000002"><a xlink:title=" ">
<path fill="none" stroke="#63b8ff" d="M183.15,-15C191.6,-15 200.15,-15 208.58,-15"/>
<polygon fill="#63b8ff" stroke="#63b8ff" points="208.8,-18.5 218.8,-15 208.8,-11.5 208.8,-18.5"/>
</a>
</g>
</g>
<!-- Node3 -->
<g id="Node000003" class="node">
<title>Node3</title>
<g id="a_Node000003"><a xlink:href="classcom_1_1teragrep_1_1pth__06_1_1ast_1_1xml_1_1XMLQuery.html#a4e339d2fbd6fb0dd06d2eac96820b87f" target="_top" xlink:title=" ">
<polygon fill="white" stroke="#666666" points="577,-30 416,-30 416,0 577,0 577,-30"/>
<text text-anchor="start" x="424" y="-18" font-family="Helvetica,sans-Serif" font-size="10.00">com.teragrep.pth_06.ast.xml.</text>
<text text-anchor="middle" x="496.5" y="-7" font-family="Helvetica,sans-Serif" font-size="10.00">XMLQuery.elementToNode</text>
</a>
</g>
</g>
<!-- Node2&#45;&gt;Node3 -->
<g id="edge2_Node000002_Node000003" class="edge">
<title>Node2&#45;&gt;Node3</title>
<g id="a_edge2_Node000002_Node000003"><a xlink:title=" ">
<path fill="none" stroke="#63b8ff" d="M380.1,-15C388.57,-15 397.24,-15 405.82,-15"/>
<polygon fill="#63b8ff" stroke="#63b8ff" points="405.84,-18.5 415.84,-15 405.84,-11.5 405.84,-18.5"/>
</a>
</g>
</g>
<!-- Node4 -->
<g id="Node000004" class="node">
<title>Node4</title>
<g id="a_Node000004"><a xlink:href="classcom_1_1teragrep_1_1pth__06_1_1ast_1_1xml_1_1XMLQuery.html#aef324a993868f2b1fc8695f14dafefbe" target="_top" xlink:title=" ">
<polygon fill="white" stroke="#666666" points="774,-78 613,-78 613,-48 774,-48 774,-78"/>
<text text-anchor="start" x="621" y="-66" font-family="Helvetica,sans-Serif" font-size="10.00">com.teragrep.pth_06.ast.xml.</text>
<text text-anchor="middle" x="693.5" y="-55" font-family="Helvetica,sans-Serif" font-size="10.00">XMLQuery.visitLeaf</text>
</a>
</g>
</g>
<!-- Node3&#45;&gt;Node4 -->
<g id="edge3_Node000003_Node000004" class="edge">
<title>Node3&#45;&gt;Node4</title>
<g id="a_edge3_Node000003_Node000004"><a xlink:title=" ">
<path fill="none" stroke="#63b8ff" d="M558.66,-30.06C578.63,-34.97 600.97,-40.47 621.59,-45.54"/>
<polygon fill="#63b8ff" stroke="#63b8ff" points="621.01,-49.01 631.55,-48 622.68,-42.21 621.01,-49.01"/>
</a>
</g>
</g>
<!-- Node5 -->
<g id="Node000005" class="node">
<title>Node5</title>
<g id="a_Node000005"><a xlink:href="classcom_1_1teragrep_1_1pth__06_1_1ast_1_1xml_1_1XMLQuery.html#afb0ff16b91a35d2ef6c6c000761d0be6" target="_top" xlink:title=" ">
<polygon fill="white" stroke="#666666" points="774,-30 613,-30 613,0 774,0 774,-30"/>
<text text-anchor="start" x="621" y="-18" font-family="Helvetica,sans-Serif" font-size="10.00">com.teragrep.pth_06.ast.xml.</text>
<text text-anchor="middle" x="693.5" y="-7" font-family="Helvetica,sans-Serif" font-size="10.00">XMLQuery.visitLogical</text>
</a>
</g>
</g>
<!-- Node3&#45;&gt;Node5 -->
<g id="edge4_Node000003_Node000005" class="edge">
<title>Node3&#45;&gt;Node5</title>
<g id="a_edge4_Node000003_Node000005"><a xlink:title=" ">
<path fill="none" stroke="#63b8ff" d="M577.1,-8.35C585.57,-8.25 594.24,-8.23 602.82,-8.27"/>
<polygon fill="#63b8ff" stroke="#63b8ff" points="602.81,-11.77 612.84,-8.35 602.87,-4.77 602.81,-11.77"/>
</a>
</g>
</g>
<!-- Node5&#45;&gt;Node3 -->
<g id="edge5_Node000005_Node000003" class="edge">
<title>Node5&#45;&gt;Node3</title>
<g id="a_edge5_Node000005_Node000003"><a xlink:title=" ">
<path fill="none" stroke="#63b8ff" d="M612.84,-21.65C604.36,-21.75 595.7,-21.77 587.12,-21.73"/>
<polygon fill="#63b8ff" stroke="#63b8ff" points="587.12,-18.23 577.1,-21.65 587.07,-25.23 587.12,-18.23"/>
</a>
</g>
</g>
</g>
</svg>
