<?xml version="1.0" encoding="UTF-8" standalone="no"?>
<!DOCTYPE svg PUBLIC "-//W3C//DTD SVG 1.1//EN"
 "http://www.w3.org/Graphics/SVG/1.1/DTD/svg11.dtd">
<!-- Generated by graphviz version 2.43.0 (0)
 -->
<!-- Title: com.teragrep.pth_06.ast.transform.WithDefaultValues.toString Pages: 1 -->
<svg width="1315pt" height="395pt"
 viewBox="0.00 0.00 1315.00 394.65" xmlns="http://www.w3.org/2000/svg" xmlns:xlink="http://www.w3.org/1999/xlink">
<g id="graph0" class="graph" transform="scale(1 1) rotate(0) translate(4 390.65)">
<title>com.teragrep.pth_06.ast.transform.WithDefaultValues.toString</title>
<!-- Node1 -->
<g id="Node000001" class="node">
<title>Node1</title>
<g id="a_Node000001"><a xlink:title=" ">
<polygon fill="#999999" stroke="#666666" points="190,-191.65 0,-191.65 0,-161.65 190,-161.65 190,-191.65"/>
<text text-anchor="start" x="8" y="-179.65" font-family="Helvetica,sans-Serif" font-size="10.00">com.teragrep.pth_06.ast.transform.</text>
<text text-anchor="middle" x="95" y="-168.65" font-family="Helvetica,sans-Serif" font-size="10.00">WithDefaultValues.toString</text>
</a>
</g>
</g>
<!-- Node2 -->
<g id="Node000002" class="node">
<title>Node2</title>
<g id="a_Node000002"><a xlink:href="classcom_1_1teragrep_1_1pth__06_1_1ast_1_1PrintAST.html#acc3f4d80cb05a02753130a95b65cd32d" target="_top" xlink:title=" ">
<polygon fill="white" stroke="#666666" points="390.5,-167.65 251.5,-167.65 251.5,-137.65 390.5,-137.65 390.5,-167.65"/>
<text text-anchor="start" x="259.5" y="-155.65" font-family="Helvetica,sans-Serif" font-size="10.00">com.teragrep.pth_06.ast.</text>
<text text-anchor="middle" x="321" y="-144.65" font-family="Helvetica,sans-Serif" font-size="10.00">PrintAST.asString</text>
</a>
</g>
</g>
<!-- Node1&#45;&gt;Node2 -->
<g id="edge1_Node000001_Node000002" class="edge">
<title>Node1&#45;&gt;Node2</title>
<g id="a_edge1_Node000001_Node000002"><a xlink:title=" ">
<path fill="none" stroke="#63b8ff" d="M190.02,-166.57C207.08,-164.75 224.7,-162.86 241.26,-161.08"/>
<polygon fill="#63b8ff" stroke="#63b8ff" points="241.85,-164.54 251.42,-160 241.1,-157.58 241.85,-164.54"/>
</a>
</g>
</g>
<!-- Node8 -->
<g id="Node000008" class="node">
<title>Node8</title>
<g id="a_Node000008"><a xlink:href="classcom_1_1teragrep_1_1pth__06_1_1ast_1_1transform_1_1WithDefaultValues.html#a3cd2907c54910cabd6d8cb52ff49215f" target="_top" xlink:title=" ">
<polygon fill="white" stroke="#666666" points="416,-232.65 226,-232.65 226,-202.65 416,-202.65 416,-232.65"/>
<text text-anchor="start" x="234" y="-220.65" font-family="Helvetica,sans-Serif" font-size="10.00">com.teragrep.pth_06.ast.transform.</text>
<text text-anchor="middle" x="321" y="-209.65" font-family="Helvetica,sans-Serif" font-size="10.00">WithDefaultValues.transformed</text>
</a>
</g>
</g>
<!-- Node1&#45;&gt;Node8 -->
<g id="edge8_Node000001_Node000008" class="edge">
<title>Node1&#45;&gt;Node8</title>
<g id="a_edge8_Node000001_Node000008"><a xlink:title=" ">
<path fill="none" stroke="#63b8ff" d="M178.14,-191.68C194.27,-194.63 211.29,-197.75 227.73,-200.76"/>
<polygon fill="#63b8ff" stroke="#63b8ff" points="227.41,-204.26 237.87,-202.62 228.67,-197.37 227.41,-204.26"/>
</a>
</g>
</g>
<!-- Node3 -->
<g id="Node000003" class="node">
<title>Node3</title>
<g id="a_Node000003"><a xlink:href="classcom_1_1teragrep_1_1pth__06_1_1ast_1_1PrintAST.html#ab5fd085ad34f3b92b49c29a239d12de7" target="_top" xlink:title=" ">
<polygon fill="white" stroke="#666666" points="1099.5,-107.65 960.5,-107.65 960.5,-77.65 1099.5,-77.65 1099.5,-107.65"/>
<text text-anchor="start" x="968.5" y="-95.65" font-family="Helvetica,sans-Serif" font-size="10.00">com.teragrep.pth_06.ast.</text>
<text text-anchor="middle" x="1030" y="-84.65" font-family="Helvetica,sans-Serif" font-size="10.00">PrintAST.printWithIndent</text>
</a>
</g>
</g>
<!-- Node2&#45;&gt;Node3 -->
<g id="edge2_Node000002_Node000003" class="edge">
<title>Node2&#45;&gt;Node3</title>
<g id="a_edge2_Node000002_Node000003"><a xlink:title=" ">
<path fill="none" stroke="#63b8ff" d="M390.75,-146.81C522.7,-135.62 810.67,-111.18 950.16,-99.34"/>
<polygon fill="#63b8ff" stroke="#63b8ff" points="950.68,-102.81 960.35,-98.47 950.09,-95.83 950.68,-102.81"/>
</a>
</g>
</g>
<!-- Node3&#45;&gt;Node3 -->
<g id="edge6_Node000003_Node000003" class="edge">
<title>Node3&#45;&gt;Node3</title>
<g id="a_edge6_Node000003_Node000003"><a xlink:title=" ">
<path fill="none" stroke="#63b8ff" d="M994.14,-107.92C986.17,-117.05 998.12,-125.65 1030,-125.65 1048.93,-125.65 1060.83,-122.62 1065.71,-118.24"/>
<polygon fill="#63b8ff" stroke="#63b8ff" points="1069.21,-117.97 1065.86,-107.92 1062.21,-117.87 1069.21,-117.97"/>
</a>
</g>
</g>
<!-- Node4 -->
<g id="Node000004" class="node">
<title>Node4</title>
<g id="a_Node000004"><a xlink:href="interfacecom_1_1teragrep_1_1pth__06_1_1ast_1_1Expression.html#a17e7d33905be57c6e22e1717da6ddef6" target="_top" xlink:title=" ">
<polygon fill="white" stroke="#666666" points="1303.5,-64.65 1164.5,-64.65 1164.5,-34.65 1303.5,-34.65 1303.5,-64.65"/>
<text text-anchor="start" x="1172.5" y="-52.65" font-family="Helvetica,sans-Serif" font-size="10.00">com.teragrep.pth_06.ast.</text>
<text text-anchor="middle" x="1234" y="-41.65" font-family="Helvetica,sans-Serif" font-size="10.00">Expression.asLogical</text>
</a>
</g>
</g>
<!-- Node3&#45;&gt;Node4 -->
<g id="edge3_Node000003_Node000004" class="edge">
<title>Node3&#45;&gt;Node4</title>
<g id="a_edge3_Node000003_Node000004"><a xlink:title=" ">
<path fill="none" stroke="#63b8ff" d="M1099.67,-78.03C1117.23,-74.29 1136.26,-70.24 1154.28,-66.4"/>
<polygon fill="#63b8ff" stroke="#63b8ff" points="1155.12,-69.8 1164.18,-64.3 1153.67,-62.96 1155.12,-69.8"/>
</a>
</g>
</g>
<!-- Node5 -->
<g id="Node000005" class="node">
<title>Node5</title>
<g id="a_Node000005"><a xlink:href="interfacecom_1_1teragrep_1_1pth__06_1_1ast_1_1LogicalExpression.html#aeaf8fe296c6899792f345659a9a6c0c4" target="_top" xlink:title=" ">
<polygon fill="white" stroke="#666666" points="1307,-187.65 1161,-187.65 1161,-157.65 1307,-157.65 1307,-187.65"/>
<text text-anchor="start" x="1169" y="-175.65" font-family="Helvetica,sans-Serif" font-size="10.00">com.teragrep.pth_06.ast.</text>
<text text-anchor="middle" x="1234" y="-164.65" font-family="Helvetica,sans-Serif" font-size="10.00">LogicalExpression.children</text>
</a>
</g>
</g>
<!-- Node3&#45;&gt;Node5 -->
<g id="edge4_Node000003_Node000005" class="edge">
<title>Node3&#45;&gt;Node5</title>
<g id="a_edge4_Node000003_Node000005"><a xlink:title=" ">
<path fill="none" stroke="#63b8ff" d="M1068.99,-107.69C1101.9,-120.73 1149.66,-139.64 1185.17,-153.7"/>
<polygon fill="#63b8ff" stroke="#63b8ff" points="1184.25,-157.1 1194.83,-157.53 1186.82,-150.6 1184.25,-157.1"/>
</a>
</g>
</g>
<!-- Node6 -->
<g id="Node000006" class="node">
<title>Node6</title>
<g id="a_Node000006"><a xlink:href="interfacecom_1_1teragrep_1_1pth__06_1_1ast_1_1Expression.html#a65ee7f5fb98e4129018f467a53586842" target="_top" xlink:title=" ">
<polygon fill="white" stroke="#666666" points="1303.5,-386.65 1164.5,-386.65 1164.5,-356.65 1303.5,-356.65 1303.5,-386.65"/>
<text text-anchor="start" x="1172.5" y="-374.65" font-family="Helvetica,sans-Serif" font-size="10.00">com.teragrep.pth_06.ast.</text>
<text text-anchor="middle" x="1234" y="-363.65" font-family="Helvetica,sans-Serif" font-size="10.00">Expression.isLogical</text>
</a>
</g>
</g>
<!-- Node3&#45;&gt;Node6 -->
<g id="edge5_Node000003_Node000006" class="edge">
<title>Node3&#45;&gt;Node6</title>
<g id="a_edge5_Node000003_Node000006"><a xlink:title=" ">
<path fill="none" stroke="#63b8ff" d="M1045.05,-107.78C1064.64,-129.42 1100.53,-170.96 1125,-210.65 1145.04,-243.15 1140.28,-256.57 1161,-288.65 1175.32,-310.82 1195.19,-333.27 1210.43,-349.22"/>
<polygon fill="#63b8ff" stroke="#63b8ff" points="1208.02,-351.76 1217.5,-356.5 1213.04,-346.89 1208.02,-351.76"/>
</a>
</g>
</g>
<!-- Node7 -->
<g id="Node000007" class="node">
<title>Node7</title>
<g id="a_Node000007"><a xlink:href="interfacecom_1_1teragrep_1_1pth__06_1_1ast_1_1Expression.html#a8b9661253a3610b9eb148ee29ca8b7e1" target="_top" xlink:title=" ">
<polygon fill="white" stroke="#666666" points="1303.5,-279.65 1164.5,-279.65 1164.5,-249.65 1303.5,-249.65 1303.5,-279.65"/>
<text text-anchor="start" x="1172.5" y="-267.65" font-family="Helvetica,sans-Serif" font-size="10.00">com.teragrep.pth_06.ast.</text>
<text text-anchor="middle" x="1234" y="-256.65" font-family="Helvetica,sans-Serif" font-size="10.00">Expression.tag</text>
</a>
</g>
</g>
<!-- Node3&#45;&gt;Node7 -->
<g id="edge7_Node000003_Node000007" class="edge">
<title>Node3&#45;&gt;Node7</title>
<g id="a_edge7_Node000003_Node000007"><a xlink:title=" ">
<path fill="none" stroke="#63b8ff" d="M1048.93,-107.91C1084.86,-138.51 1165.82,-207.45 1207.36,-242.81"/>
<polygon fill="#63b8ff" stroke="#63b8ff" points="1205.23,-245.6 1215.11,-249.42 1209.77,-240.27 1205.23,-245.6"/>
</a>
</g>
</g>
<!-- Node8&#45;&gt;Node4 -->
<g id="edge9_Node000008_Node000004" class="edge">
<title>Node8&#45;&gt;Node4</title>
<g id="a_edge9_Node000008_Node000004"><a xlink:title=" ">
<path fill="none" stroke="#63b8ff" d="M360.91,-202.65C476.65,-158.33 817.92,-29.88 935,-10.65 1018.33,3.04 1041.82,3.91 1125,-10.65 1147.44,-14.58 1171.38,-22.77 1190.99,-30.64"/>
<polygon fill="#63b8ff" stroke="#63b8ff" points="1189.67,-33.88 1200.25,-34.45 1192.34,-27.41 1189.67,-33.88"/>
</a>
</g>
</g>
<!-- Node8&#45;&gt;Node6 -->
<g id="edge10_Node000008_Node000006" class="edge">
<title>Node8&#45;&gt;Node6</title>
<g id="a_edge10_Node000008_Node000006"><a xlink:title=" ">
<path fill="none" stroke="#63b8ff" d="M361.2,-232.69C386.82,-242.23 421.14,-254.46 452,-263.65 662.2,-326.21 716.71,-343.53 935,-364.65 1009.13,-371.82 1094.1,-373.14 1154.29,-372.92"/>
<polygon fill="#63b8ff" stroke="#63b8ff" points="1154.5,-376.42 1164.48,-372.87 1154.46,-369.42 1154.5,-376.42"/>
</a>
</g>
</g>
<!-- Node8&#45;&gt;Node8 -->
<g id="edge31_Node000008_Node000008" class="edge">
<title>Node8&#45;&gt;Node8</title>
<g id="a_edge31_Node000008_Node000008"><a xlink:title=" ">
<path fill="none" stroke="#63b8ff" d="M281.27,-232.92C272.45,-242.05 285.69,-250.65 321,-250.65 341.97,-250.65 355.15,-247.62 360.56,-243.24"/>
<polygon fill="#63b8ff" stroke="#63b8ff" points="364.06,-242.98 360.73,-232.92 357.06,-242.86 364.06,-242.98"/>
</a>
</g>
</g>
<!-- Node9 -->
<g id="Node000009" class="node">
<title>Node9</title>
<g id="a_Node000009"><a xlink:href="classcom_1_1teragrep_1_1pth__06_1_1ast_1_1transform_1_1WithDefaultValues.html#a371bd3fba44c9f320d2b39f5e60cb82c" target="_top" xlink:title=" ">
<polygon fill="white" stroke="#666666" points="671,-255.15 452,-255.15 452,-214.15 671,-214.15 671,-255.15"/>
<text text-anchor="start" x="460" y="-243.15" font-family="Helvetica,sans-Serif" font-size="10.00">com.teragrep.pth_06.ast.transform.</text>
<text text-anchor="start" x="460" y="-232.15" font-family="Helvetica,sans-Serif" font-size="10.00">WithDefaultValues.recursiveWithDefaults</text>
<text text-anchor="middle" x="561.5" y="-221.15" font-family="Helvetica,sans-Serif" font-size="10.00">Expression</text>
</a>
</g>
</g>
<!-- Node8&#45;&gt;Node9 -->
<g id="edge11_Node000008_Node000009" class="edge">
<title>Node8&#45;&gt;Node9</title>
<g id="a_edge11_Node000008_Node000009"><a xlink:title=" ">
<path fill="none" stroke="#63b8ff" d="M416.26,-224.37C424.68,-224.97 433.28,-225.58 441.87,-226.19"/>
<polygon fill="#63b8ff" stroke="#63b8ff" points="441.72,-229.69 451.95,-226.91 442.22,-222.71 441.72,-229.69"/>
</a>
</g>
</g>
<!-- Node9&#45;&gt;Node6 -->
<g id="edge22_Node000009_Node000006" class="edge">
<title>Node9&#45;&gt;Node6</title>
<g id="a_edge22_Node000009_Node000006"><a xlink:title=" ">
<path fill="none" stroke="#63b8ff" d="M609.28,-255.23C637.22,-266.91 673.65,-281.05 707,-290.65 861.89,-335.22 1049.93,-356.66 1154.02,-365.79"/>
<polygon fill="#63b8ff" stroke="#63b8ff" points="1153.87,-369.29 1164.13,-366.67 1154.47,-362.32 1153.87,-369.29"/>
</a>
</g>
</g>
<!-- Node9&#45;&gt;Node7 -->
<g id="edge30_Node000009_Node000007" class="edge">
<title>Node9&#45;&gt;Node7</title>
<g id="a_edge30_Node000009_Node000007"><a xlink:title=" ">
<path fill="none" stroke="#63b8ff" d="M671.37,-252.82C683.39,-254.8 695.45,-256.78 707,-258.65 891.07,-288.46 940.24,-319.83 1125,-294.65 1143.05,-292.19 1162.35,-287.51 1179.56,-282.57"/>
<polygon fill="#63b8ff" stroke="#63b8ff" points="1180.83,-285.85 1189.43,-279.65 1178.84,-279.14 1180.83,-285.85"/>
</a>
</g>
</g>
<!-- Node10 -->
<g id="Node000010" class="node">
<title>Node10</title>
<g id="a_Node000010"><a xlink:href="classcom_1_1teragrep_1_1pth__06_1_1ast_1_1transform_1_1WithDefaultValues.html#ac53e9da4d27289a430152a8b67aa7e6b" target="_top" xlink:title=" ">
<polygon fill="white" stroke="#666666" points="899,-201.65 707,-201.65 707,-171.65 899,-171.65 899,-201.65"/>
<text text-anchor="start" x="715" y="-189.65" font-family="Helvetica,sans-Serif" font-size="10.00">com.teragrep.pth_06.ast.transform.</text>
<text text-anchor="middle" x="803" y="-178.65" font-family="Helvetica,sans-Serif" font-size="10.00">WithDefaultValues.andWithDefaults</text>
</a>
</g>
</g>
<!-- Node9&#45;&gt;Node10 -->
<g id="edge12_Node000009_Node000010" class="edge">
<title>Node9&#45;&gt;Node10</title>
<g id="a_edge12_Node000009_Node000010"><a xlink:title=" ">
<path fill="none" stroke="#63b8ff" d="M633.71,-214.14C653.47,-209.74 675.35,-205.19 696.62,-201.06"/>
<polygon fill="#63b8ff" stroke="#63b8ff" points="697.51,-204.45 706.67,-199.13 696.19,-197.58 697.51,-204.45"/>
</a>
</g>
</g>
<!-- Node12 -->
<g id="Node000012" class="node">
<title>Node12</title>
<g id="a_Node000012"><a xlink:href="classcom_1_1teragrep_1_1pth__06_1_1ast_1_1transform_1_1WithDefaultValues.html#af8c587422cbf070fc6fea9aba68705d9" target="_top" xlink:title=" ">
<polygon fill="white" stroke="#666666" points="898,-249.65 708,-249.65 708,-219.65 898,-219.65 898,-249.65"/>
<text text-anchor="start" x="716" y="-237.65" font-family="Helvetica,sans-Serif" font-size="10.00">com.teragrep.pth_06.ast.transform.</text>
<text text-anchor="middle" x="803" y="-226.65" font-family="Helvetica,sans-Serif" font-size="10.00">WithDefaultValues.orWithDefaults</text>
</a>
</g>
</g>
<!-- Node9&#45;&gt;Node12 -->
<g id="edge23_Node000009_Node000012" class="edge">
<title>Node9&#45;&gt;Node12</title>
<g id="a_edge23_Node000009_Node000012"><a xlink:title=" ">
<path fill="none" stroke="#63b8ff" d="M671.04,-227.92C679.84,-227.88 688.73,-227.89 697.51,-227.95"/>
<polygon fill="#63b8ff" stroke="#63b8ff" points="697.72,-231.45 707.75,-228.04 697.78,-224.45 697.72,-231.45"/>
</a>
</g>
</g>
<!-- Node10&#45;&gt;Node4 -->
<g id="edge13_Node000010_Node000004" class="edge">
<title>Node10&#45;&gt;Node4</title>
<g id="a_edge13_Node000010_Node000004"><a xlink:title=" ">
<path fill="none" stroke="#63b8ff" d="M811.5,-171.3C828.31,-138.9 872.48,-64.17 935,-35.65 1012.44,-0.31 1113.27,-16.12 1175.54,-31.96"/>
<polygon fill="#63b8ff" stroke="#63b8ff" points="1175.01,-35.44 1185.57,-34.6 1176.79,-28.67 1175.01,-35.44"/>
</a>
</g>
</g>
<!-- Node10&#45;&gt;Node5 -->
<g id="edge14_Node000010_Node000005" class="edge">
<title>Node10&#45;&gt;Node5</title>
<g id="a_edge14_Node000010_Node000005"><a xlink:title=" ">
<path fill="none" stroke="#63b8ff" d="M899.13,-179.53C911.2,-178.8 923.38,-178.14 935,-177.65 1007.81,-174.54 1090.72,-173.34 1150.56,-172.88"/>
<polygon fill="#63b8ff" stroke="#63b8ff" points="1150.73,-176.38 1160.71,-172.81 1150.68,-169.38 1150.73,-176.38"/>
</a>
</g>
</g>
<!-- Node10&#45;&gt;Node9 -->
<g id="edge21_Node000010_Node000009" class="edge">
<title>Node10&#45;&gt;Node9</title>
<g id="a_edge21_Node000010_Node000009"><a xlink:title=" ">
<path fill="none" stroke="#63b8ff" d="M754.32,-201.72C733.07,-206.82 706.99,-212.45 680.99,-217.65"/>
<polygon fill="#63b8ff" stroke="#63b8ff" points="680.17,-214.24 671.04,-219.62 681.53,-221.11 680.17,-214.24"/>
</a>
</g>
</g>
<!-- Node11 -->
<g id="Node000011" class="node">
<title>Node11</title>
<g id="a_Node000011"><a xlink:href="classcom_1_1teragrep_1_1pth__06_1_1ast_1_1transform_1_1WithDefaultValues.html#a42a39b9992cc004453cd026fbc106b36" target="_top" xlink:title=" ">
<polygon fill="white" stroke="#666666" points="1125,-249.65 935,-249.65 935,-219.65 1125,-219.65 1125,-249.65"/>
<text text-anchor="start" x="943" y="-237.65" font-family="Helvetica,sans-Serif" font-size="10.00">com.teragrep.pth_06.ast.transform.</text>
<text text-anchor="middle" x="1030" y="-226.65" font-family="Helvetica,sans-Serif" font-size="10.00">WithDefaultValues.expressionTags</text>
</a>
</g>
</g>
<!-- Node10&#45;&gt;Node11 -->
<g id="edge15_Node000010_Node000011" class="edge">
<title>Node10&#45;&gt;Node11</title>
<g id="a_edge15_Node000010_Node000011"><a xlink:title=" ">
<path fill="none" stroke="#63b8ff" d="M874.57,-201.7C898.13,-206.73 924.56,-212.37 948.8,-217.54"/>
<polygon fill="#63b8ff" stroke="#63b8ff" points="948.17,-220.98 958.68,-219.64 949.63,-214.14 948.17,-220.98"/>
</a>
</g>
</g>
<!-- Node11&#45;&gt;Node4 -->
<g id="edge16_Node000011_Node000004" class="edge">
<title>Node11&#45;&gt;Node4</title>
<g id="a_edge16_Node000011_Node000004"><a xlink:title=" ">
<path fill="none" stroke="#63b8ff" d="M1047.53,-219.51C1083.2,-186.84 1167.53,-109.6 1209.05,-71.58"/>
<polygon fill="#63b8ff" stroke="#63b8ff" points="1211.51,-74.07 1216.52,-64.74 1206.79,-68.91 1211.51,-74.07"/>
</a>
</g>
</g>
<!-- Node11&#45;&gt;Node5 -->
<g id="edge17_Node000011_Node000005" class="edge">
<title>Node11&#45;&gt;Node5</title>
<g id="a_edge17_Node000011_Node000005"><a xlink:title=" ">
<path fill="none" stroke="#63b8ff" d="M1079.9,-219.64C1108.22,-210.95 1144.07,-199.94 1173.96,-190.77"/>
<polygon fill="#63b8ff" stroke="#63b8ff" points="1175.32,-194.01 1183.85,-187.73 1173.26,-187.32 1175.32,-194.01"/>
</a>
</g>
</g>
<!-- Node11&#45;&gt;Node6 -->
<g id="edge19_Node000011_Node000006" class="edge">
<title>Node11&#45;&gt;Node6</title>
<g id="a_edge19_Node000011_Node000006"><a xlink:title=" ">
<path fill="none" stroke="#63b8ff" d="M1053.39,-249.83C1089.66,-274.43 1161.32,-323.04 1202.32,-350.84"/>
<polygon fill="#63b8ff" stroke="#63b8ff" points="1200.58,-353.89 1210.82,-356.6 1204.51,-348.09 1200.58,-353.89"/>
</a>
</g>
</g>
<!-- Node11&#45;&gt;Node7 -->
<g id="edge20_Node000011_Node000007" class="edge">
<title>Node11&#45;&gt;Node7</title>
<g id="a_edge20_Node000011_Node000007"><a xlink:title=" ">
<path fill="none" stroke="#63b8ff" d="M1125.2,-248.64C1134.87,-250.07 1144.62,-251.52 1154.1,-252.93"/>
<polygon fill="#63b8ff" stroke="#63b8ff" points="1153.85,-256.43 1164.26,-254.44 1154.88,-249.51 1153.85,-256.43"/>
</a>
</g>
</g>
<!-- Node11&#45;&gt;Node11 -->
<g id="edge18_Node000011_Node000011" class="edge">
<title>Node11&#45;&gt;Node11</title>
<g id="a_edge18_Node000011_Node000011"><a xlink:title=" ">
<path fill="none" stroke="#63b8ff" d="M994.14,-249.92C986.17,-259.05 998.12,-267.65 1030,-267.65 1048.93,-267.65 1060.83,-264.62 1065.71,-260.24"/>
<polygon fill="#63b8ff" stroke="#63b8ff" points="1069.21,-259.97 1065.86,-249.92 1062.21,-259.87 1069.21,-259.97"/>
</a>
</g>
</g>
<!-- Node12&#45;&gt;Node4 -->
<g id="edge24_Node000012_Node000004" class="edge">
<title>Node12&#45;&gt;Node4</title>
<g id="a_edge24_Node000012_Node000004"><a xlink:title=" ">
<path fill="none" stroke="#63b8ff" d="M887.82,-219.46C891.86,-216.93 895.63,-214.01 899,-210.65 945.06,-164.63 884.91,-110.25 935,-68.65 967.2,-41.9 1077.37,-41.34 1154.32,-44.57"/>
<polygon fill="#63b8ff" stroke="#63b8ff" points="1154.33,-48.07 1164.48,-45.03 1154.64,-41.08 1154.33,-48.07"/>
</a>
</g>
</g>
<!-- Node12&#45;&gt;Node5 -->
<g id="edge25_Node000012_Node000005" class="edge">
<title>Node12&#45;&gt;Node5</title>
<g id="a_edge25_Node000012_Node000005"><a xlink:title=" ">
<path fill="none" stroke="#63b8ff" d="M882.16,-219.61C899.52,-216.47 917.86,-213.31 935,-210.65 1007.71,-199.36 1090.79,-188.97 1150.73,-181.92"/>
<polygon fill="#63b8ff" stroke="#63b8ff" points="1151.36,-185.37 1160.89,-180.73 1150.55,-178.42 1151.36,-185.37"/>
</a>
</g>
</g>
<!-- Node12&#45;&gt;Node6 -->
<g id="edge27_Node000012_Node000006" class="edge">
<title>Node12&#45;&gt;Node6</title>
<g id="a_edge27_Node000012_Node000006"><a xlink:title=" ">
<path fill="none" stroke="#63b8ff" d="M833.04,-249.75C859.19,-262.91 898.93,-281.84 935,-294.65 1007.86,-320.52 1093.56,-341.74 1154.31,-355.31"/>
<polygon fill="#63b8ff" stroke="#63b8ff" points="1153.69,-358.76 1164.21,-357.5 1155.21,-351.92 1153.69,-358.76"/>
</a>
</g>
</g>
<!-- Node12&#45;&gt;Node7 -->
<g id="edge29_Node000012_Node000007" class="edge">
<title>Node12&#45;&gt;Node7</title>
<g id="a_edge29_Node000012_Node000007"><a xlink:title=" ">
<path fill="none" stroke="#63b8ff" d="M840.52,-249.73C866.4,-259.58 902.2,-271.52 935,-276.65 1008.63,-288.16 1093.66,-282.94 1154,-276.15"/>
<polygon fill="#63b8ff" stroke="#63b8ff" points="1154.69,-279.6 1164.21,-274.96 1153.88,-272.64 1154.69,-279.6"/>
</a>
</g>
</g>
<!-- Node12&#45;&gt;Node9 -->
<g id="edge28_Node000012_Node000009" class="edge">
<title>Node12&#45;&gt;Node9</title>
<g id="a_edge28_Node000012_Node000009"><a xlink:title=" ">
<path fill="none" stroke="#63b8ff" d="M707.75,-241.26C699,-241.36 690.05,-241.4 681.11,-241.4"/>
<polygon fill="#63b8ff" stroke="#63b8ff" points="681.05,-237.9 671.04,-241.37 681.03,-244.9 681.05,-237.9"/>
</a>
</g>
</g>
<!-- Node12&#45;&gt;Node11 -->
<g id="edge26_Node000012_Node000011" class="edge">
<title>Node12&#45;&gt;Node11</title>
<g id="a_edge26_Node000012_Node000011"><a xlink:title=" ">
<path fill="none" stroke="#63b8ff" d="M898.12,-234.65C906.95,-234.65 915.95,-234.65 924.87,-234.65"/>
<polygon fill="#63b8ff" stroke="#63b8ff" points="924.9,-238.15 934.9,-234.65 924.9,-231.15 924.9,-238.15"/>
</a>
</g>
</g>
</g>
</svg>
