<?xml version="1.0" encoding="UTF-8" standalone="no"?>
<!DOCTYPE svg PUBLIC "-//W3C//DTD SVG 1.1//EN"
 "http://www.w3.org/Graphics/SVG/1.1/DTD/svg11.dtd">
<!-- Generated by graphviz version 2.43.0 (0)
 -->
<!-- Title: com.teragrep.pth_06.ast.analyze.ScanRangeImpl.intersects Pages: 1 -->
<svg width="404pt" height="182pt"
 viewBox="0.00 0.00 404.00 182.00" xmlns="http://www.w3.org/2000/svg" xmlns:xlink="http://www.w3.org/1999/xlink">
<g id="graph0" class="graph" transform="scale(1 1) rotate(0) translate(4 178)">
<title>com.teragrep.pth_06.ast.analyze.ScanRangeImpl.intersects</title>
<!-- Node1 -->
<g id="Node000001" class="node">
<title>Node1</title>
<g id="a_Node000001"><a xlink:title="Returns true if the ranges overlap or touch.">
<polygon fill="#999999" stroke="#666666" points="180,-102 0,-102 0,-72 180,-72 180,-102"/>
<text text-anchor="start" x="8" y="-90" font-family="Helvetica,sans-Serif" font-size="10.00">com.teragrep.pth_06.ast.analyze.</text>
<text text-anchor="middle" x="90" y="-79" font-family="Helvetica,sans-Serif" font-size="10.00">ScanRangeImpl.intersects</text>
</a>
</g>
</g>
<!-- Node2 -->
<g id="Node000002" class="node">
<title>Node2</title>
<g id="a_Node000002"><a xlink:href="interfacecom_1_1teragrep_1_1pth__06_1_1ast_1_1analyze_1_1ScanRange.html#af3e0e62798cdf3e3f8de2b8fa8c17483" target="_top" xlink:title=" ">
<polygon fill="white" stroke="#666666" points="396,-174 216,-174 216,-144 396,-144 396,-174"/>
<text text-anchor="start" x="224" y="-162" font-family="Helvetica,sans-Serif" font-size="10.00">com.teragrep.pth_06.ast.analyze.</text>
<text text-anchor="middle" x="306" y="-151" font-family="Helvetica,sans-Serif" font-size="10.00">ScanRange.earliest</text>
</a>
</g>
</g>
<!-- Node1&#45;&gt;Node2 -->
<g id="edge1_Node000001_Node000002" class="edge">
<title>Node1&#45;&gt;Node2</title>
<g id="a_edge1_Node000001_Node000002"><a xlink:title=" ">
<path fill="none" stroke="#63b8ff" d="M127.29,-102.08C152.05,-112.08 185.72,-125.13 216,-135 222.44,-137.1 229.18,-139.16 235.96,-141.14"/>
<polygon fill="#63b8ff" stroke="#63b8ff" points="235.29,-144.59 245.86,-143.97 237.21,-137.86 235.29,-144.59"/>
</a>
</g>
</g>
<!-- Node3 -->
<g id="Node000003" class="node">
<title>Node3</title>
<g id="a_Node000003"><a xlink:href="interfacecom_1_1teragrep_1_1pth__06_1_1ast_1_1analyze_1_1ScanRange.html#ae8cccfcfbc5766ca12c70ab3ac270ae1" target="_top" xlink:title=" ">
<polygon fill="white" stroke="#666666" points="396,-126 216,-126 216,-96 396,-96 396,-126"/>
<text text-anchor="start" x="224" y="-114" font-family="Helvetica,sans-Serif" font-size="10.00">com.teragrep.pth_06.ast.analyze.</text>
<text text-anchor="middle" x="306" y="-103" font-family="Helvetica,sans-Serif" font-size="10.00">ScanRange.filterList</text>
</a>
</g>
</g>
<!-- Node1&#45;&gt;Node3 -->
<g id="edge2_Node000001_Node000003" class="edge">
<title>Node1&#45;&gt;Node3</title>
<g id="a_edge2_Node000001_Node000003"><a xlink:title=" ">
<path fill="none" stroke="#63b8ff" d="M180.21,-97C188.7,-97.96 197.34,-98.93 205.92,-99.89"/>
<polygon fill="#63b8ff" stroke="#63b8ff" points="205.61,-103.38 215.94,-101.01 206.39,-96.42 205.61,-103.38"/>
</a>
</g>
</g>
<!-- Node4 -->
<g id="Node000004" class="node">
<title>Node4</title>
<g id="a_Node000004"><a xlink:href="interfacecom_1_1teragrep_1_1pth__06_1_1ast_1_1analyze_1_1ScanRange.html#aa9f739fe5a03d00ccb23f407bf7c6ee5" target="_top" xlink:title=" ">
<polygon fill="white" stroke="#666666" points="396,-78 216,-78 216,-48 396,-48 396,-78"/>
<text text-anchor="start" x="224" y="-66" font-family="Helvetica,sans-Serif" font-size="10.00">com.teragrep.pth_06.ast.analyze.</text>
<text text-anchor="middle" x="306" y="-55" font-family="Helvetica,sans-Serif" font-size="10.00">ScanRange.latest</text>
</a>
</g>
</g>
<!-- Node1&#45;&gt;Node4 -->
<g id="edge3_Node000001_Node000004" class="edge">
<title>Node1&#45;&gt;Node4</title>
<g id="a_edge3_Node000001_Node000004"><a xlink:title=" ">
<path fill="none" stroke="#63b8ff" d="M180.21,-77C188.7,-76.04 197.34,-75.07 205.92,-74.11"/>
<polygon fill="#63b8ff" stroke="#63b8ff" points="206.39,-77.58 215.94,-72.99 205.61,-70.62 206.39,-77.58"/>
</a>
</g>
</g>
<!-- Node5 -->
<g id="Node000005" class="node">
<title>Node5</title>
<g id="a_Node000005"><a xlink:href="interfacecom_1_1teragrep_1_1pth__06_1_1ast_1_1analyze_1_1ScanRange.html#aed21a820511e1742fee6656a28b2b059" target="_top" xlink:title=" ">
<polygon fill="white" stroke="#666666" points="396,-30 216,-30 216,0 396,0 396,-30"/>
<text text-anchor="start" x="224" y="-18" font-family="Helvetica,sans-Serif" font-size="10.00">com.teragrep.pth_06.ast.analyze.</text>
<text text-anchor="middle" x="306" y="-7" font-family="Helvetica,sans-Serif" font-size="10.00">ScanRange.streamId</text>
</a>
</g>
</g>
<!-- Node1&#45;&gt;Node5 -->
<g id="edge4_Node000001_Node000005" class="edge">
<title>Node1&#45;&gt;Node5</title>
<g id="a_edge4_Node000001_Node000005"><a xlink:title=" ">
<path fill="none" stroke="#63b8ff" d="M127.29,-71.92C152.05,-61.92 185.72,-48.87 216,-39 222.44,-36.9 229.18,-34.84 235.96,-32.86"/>
<polygon fill="#63b8ff" stroke="#63b8ff" points="237.21,-36.14 245.86,-30.03 235.29,-29.41 237.21,-36.14"/>
</a>
</g>
</g>
</g>
</svg>
