<?xml version="1.0" encoding="UTF-8" standalone="no"?>
<!DOCTYPE svg PUBLIC "-//W3C//DTD SVG 1.1//EN"
 "http://www.w3.org/Graphics/SVG/1.1/DTD/svg11.dtd">
<!-- Generated by graphviz version 2.43.0 (0)
 -->
<!-- Title: com.teragrep.pth_06.ast.PrintAST.printWithIndent Pages: 1 -->
<svg width="548pt" height="182pt"
 viewBox="0.00 0.00 548.00 182.00" xmlns="http://www.w3.org/2000/svg" xmlns:xlink="http://www.w3.org/1999/xlink">
<g id="graph0" class="graph" transform="scale(1 1) rotate(0) translate(4 178)">
<title>com.teragrep.pth_06.ast.PrintAST.printWithIndent</title>
<!-- Node1 -->
<g id="Node000001" class="node">
<title>Node1</title>
<g id="a_Node000001"><a xlink:title=" ">
<polygon fill="#999999" stroke="#666666" points="540,-102 401,-102 401,-72 540,-72 540,-102"/>
<text text-anchor="start" x="409" y="-90" font-family="Helvetica,sans-Serif" font-size="10.00">com.teragrep.pth_06.ast.</text>
<text text-anchor="middle" x="470.5" y="-79" font-family="Helvetica,sans-Serif" font-size="10.00">PrintAST.printWithIndent</text>
</a>
</g>
</g>
<!-- Node1&#45;&gt;Node1 -->
<g id="edge6_Node000001_Node000001" class="edge">
<title>Node1&#45;&gt;Node1</title>
<g id="a_edge6_Node000001_Node000001"><a xlink:title=" ">
<path fill="none" stroke="#63b8ff" d="M500.96,-112.6C496.79,-116.97 486.64,-120 470.5,-120 443.31,-120 433.12,-111.41 439.91,-102.28"/>
<polygon fill="#63b8ff" stroke="#63b8ff" points="504.46,-112.32 501.09,-102.28 497.46,-112.23 504.46,-112.32"/>
</a>
</g>
</g>
<!-- Node2 -->
<g id="Node000002" class="node">
<title>Node2</title>
<g id="a_Node000002"><a xlink:href="classcom_1_1teragrep_1_1pth__06_1_1ast_1_1PrintAST.html#acc3f4d80cb05a02753130a95b65cd32d" target="_top" xlink:title=" ">
<polygon fill="white" stroke="#666666" points="365,-102 226,-102 226,-72 365,-72 365,-102"/>
<text text-anchor="start" x="234" y="-90" font-family="Helvetica,sans-Serif" font-size="10.00">com.teragrep.pth_06.ast.</text>
<text text-anchor="middle" x="295.5" y="-79" font-family="Helvetica,sans-Serif" font-size="10.00">PrintAST.asString</text>
</a>
</g>
</g>
<!-- Node1&#45;&gt;Node2 -->
<g id="edge1_Node000001_Node000002" class="edge">
<title>Node1&#45;&gt;Node2</title>
<g id="a_edge1_Node000001_Node000002"><a xlink:title=" ">
<path fill="none" stroke="#63b8ff" d="M390.41,-87C381.97,-87 373.44,-87 365.13,-87"/>
<polygon fill="#63b8ff" stroke="#63b8ff" points="390.63,-90.5 400.63,-87 390.63,-83.5 390.63,-90.5"/>
</a>
</g>
</g>
<!-- Node3 -->
<g id="Node000003" class="node">
<title>Node3</title>
<g id="a_Node000003"><a xlink:href="classcom_1_1teragrep_1_1pth__06_1_1ast_1_1PrintASTTest.html#aeded0ad45eadc1cbe461538777fa5089" target="_top" xlink:title=" ">
<polygon fill="white" stroke="#666666" points="164.5,-174 25.5,-174 25.5,-144 164.5,-144 164.5,-174"/>
<text text-anchor="start" x="33.5" y="-162" font-family="Helvetica,sans-Serif" font-size="10.00">com.teragrep.pth_06.ast.</text>
<text text-anchor="middle" x="95" y="-151" font-family="Helvetica,sans-Serif" font-size="10.00">PrintASTTest.printLogical</text>
</a>
</g>
</g>
<!-- Node2&#45;&gt;Node3 -->
<g id="edge2_Node000002_Node000003" class="edge">
<title>Node2&#45;&gt;Node3</title>
<g id="a_edge2_Node000002_Node000003"><a xlink:title=" ">
<path fill="none" stroke="#63b8ff" d="M256.21,-106.61C236.73,-116.06 212.48,-127.04 190,-135 180.79,-138.26 170.93,-141.28 161.18,-143.99"/>
<polygon fill="#63b8ff" stroke="#63b8ff" points="257.93,-109.66 265.36,-102.11 254.84,-103.38 257.93,-109.66"/>
</a>
</g>
</g>
<!-- Node4 -->
<g id="Node000004" class="node">
<title>Node4</title>
<g id="a_Node000004"><a xlink:href="classcom_1_1teragrep_1_1pth__06_1_1ast_1_1PrintASTTest.html#a84e52bfcf938cf10f6241af4e2b6d997" target="_top" xlink:title=" ">
<polygon fill="white" stroke="#666666" points="175,-126 15,-126 15,-96 175,-96 175,-126"/>
<text text-anchor="start" x="23" y="-114" font-family="Helvetica,sans-Serif" font-size="10.00">com.teragrep.pth_06.ast.</text>
<text text-anchor="middle" x="95" y="-103" font-family="Helvetica,sans-Serif" font-size="10.00">PrintASTTest.printSingleValue</text>
</a>
</g>
</g>
<!-- Node2&#45;&gt;Node4 -->
<g id="edge3_Node000002_Node000004" class="edge">
<title>Node2&#45;&gt;Node4</title>
<g id="a_edge3_Node000002_Node000004"><a xlink:title=" ">
<path fill="none" stroke="#63b8ff" d="M215.8,-96.51C202.43,-98.13 188.54,-99.81 175.16,-101.43"/>
<polygon fill="#63b8ff" stroke="#63b8ff" points="216.4,-99.97 225.91,-95.29 215.56,-93.02 216.4,-99.97"/>
</a>
</g>
</g>
<!-- Node5 -->
<g id="Node000005" class="node">
<title>Node5</title>
<g id="a_Node000005"><a xlink:href="classcom_1_1teragrep_1_1pth__06_1_1ast_1_1transform_1_1WithDefaultValues.html#a2d35e1274d6d71f04699951bbee270e2" target="_top" xlink:title=" ">
<polygon fill="white" stroke="#666666" points="190,-78 0,-78 0,-48 190,-48 190,-78"/>
<text text-anchor="start" x="8" y="-66" font-family="Helvetica,sans-Serif" font-size="10.00">com.teragrep.pth_06.ast.transform.</text>
<text text-anchor="middle" x="95" y="-55" font-family="Helvetica,sans-Serif" font-size="10.00">WithDefaultValues.toString</text>
</a>
</g>
</g>
<!-- Node2&#45;&gt;Node5 -->
<g id="edge4_Node000002_Node000005" class="edge">
<title>Node2&#45;&gt;Node5</title>
<g id="a_edge4_Node000002_Node000005"><a xlink:title=" ">
<path fill="none" stroke="#63b8ff" d="M215.76,-77.48C207.35,-76.46 198.73,-75.42 190.16,-74.38"/>
<polygon fill="#63b8ff" stroke="#63b8ff" points="215.56,-80.98 225.91,-78.71 216.4,-74.03 215.56,-80.98"/>
</a>
</g>
</g>
<!-- Node6 -->
<g id="Node000006" class="node">
<title>Node6</title>
<g id="a_Node000006"><a xlink:href="classcom_1_1teragrep_1_1pth__06_1_1ast_1_1XMLQuery.html#a250ff5ec579a915f2015023a0525bfeb" target="_top" xlink:title=" ">
<polygon fill="white" stroke="#666666" points="164.5,-30 25.5,-30 25.5,0 164.5,0 164.5,-30"/>
<text text-anchor="start" x="33.5" y="-18" font-family="Helvetica,sans-Serif" font-size="10.00">com.teragrep.pth_06.ast.</text>
<text text-anchor="middle" x="95" y="-7" font-family="Helvetica,sans-Serif" font-size="10.00">XMLQuery.toString</text>
</a>
</g>
</g>
<!-- Node2&#45;&gt;Node6 -->
<g id="edge5_Node000002_Node000006" class="edge">
<title>Node2&#45;&gt;Node6</title>
<g id="a_edge5_Node000002_Node000006"><a xlink:title=" ">
<path fill="none" stroke="#63b8ff" d="M256.21,-67.39C236.73,-57.94 212.48,-46.96 190,-39 180.79,-35.74 170.93,-32.72 161.18,-30.01"/>
<polygon fill="#63b8ff" stroke="#63b8ff" points="254.84,-70.62 265.36,-71.89 257.93,-64.34 254.84,-70.62"/>
</a>
</g>
</g>
</g>
</svg>
