<?xml version="1.0" encoding="UTF-8" standalone="no"?>
<!DOCTYPE svg PUBLIC "-//W3C//DTD SVG 1.1//EN"
 "http://www.w3.org/Graphics/SVG/1.1/DTD/svg11.dtd">
<!-- Generated by graphviz version 2.43.0 (0)
 -->
<!-- Title: com.teragrep.pth_06.ast.transform.UniqueChildren.transformed Pages: 1 -->
<svg width="438pt" height="146pt"
 viewBox="0.00 0.00 438.00 145.50" xmlns="http://www.w3.org/2000/svg" xmlns:xlink="http://www.w3.org/1999/xlink">
<g id="graph0" class="graph" transform="scale(1 1) rotate(0) translate(4 141.5)">
<title>com.teragrep.pth_06.ast.transform.UniqueChildren.transformed</title>
<!-- Node1 -->
<g id="Node000001" class="node">
<title>Node1</title>
<g id="a_Node000001"><a xlink:title=" ">
<polygon fill="#999999" stroke="#666666" points="430,-89.5 240,-89.5 240,-59.5 430,-59.5 430,-89.5"/>
<text text-anchor="start" x="248" y="-77.5" font-family="Helvetica,sans-Serif" font-size="10.00">com.teragrep.pth_06.ast.transform.</text>
<text text-anchor="middle" x="335" y="-66.5" font-family="Helvetica,sans-Serif" font-size="10.00">UniqueChildren.transformed</text>
</a>
</g>
</g>
<!-- Node2 -->
<g id="Node000002" class="node">
<title>Node2</title>
<g id="a_Node000002"><a xlink:href="classcom_1_1teragrep_1_1pth__06_1_1ast_1_1transform_1_1UniqueChildrenTest.html#ad71b82cbfac69b3a695cbd8d5a7aa316" target="_top" xlink:title=" ">
<polygon fill="white" stroke="#666666" points="198,-137.5 6,-137.5 6,-107.5 198,-107.5 198,-137.5"/>
<text text-anchor="start" x="14" y="-125.5" font-family="Helvetica,sans-Serif" font-size="10.00">com.teragrep.pth_06.ast.transform.</text>
<text text-anchor="middle" x="102" y="-114.5" font-family="Helvetica,sans-Serif" font-size="10.00">UniqueChildrenTest.testEqualValues</text>
</a>
</g>
</g>
<!-- Node1&#45;&gt;Node2 -->
<g id="edge1_Node000001_Node000002" class="edge">
<title>Node1&#45;&gt;Node2</title>
<g id="a_edge1_Node000001_Node000002"><a xlink:title=" ">
<path fill="none" stroke="#63b8ff" d="M251.72,-91.6C226.73,-96.79 199.47,-102.45 175.2,-107.5"/>
<polygon fill="#63b8ff" stroke="#63b8ff" points="252.47,-95.02 261.54,-89.56 251.04,-88.16 252.47,-95.02"/>
</a>
</g>
</g>
<!-- Node3 -->
<g id="Node000003" class="node">
<title>Node3</title>
<g id="a_Node000003"><a xlink:href="classcom_1_1teragrep_1_1pth__06_1_1ast_1_1transform_1_1UniqueChildrenTest.html#a0fe5b7d70b18cb2699f2d4f64ffe939d" target="_top" xlink:title=" ">
<polygon fill="white" stroke="#666666" points="199,-89.5 5,-89.5 5,-59.5 199,-59.5 199,-89.5"/>
<text text-anchor="start" x="13" y="-77.5" font-family="Helvetica,sans-Serif" font-size="10.00">com.teragrep.pth_06.ast.transform.</text>
<text text-anchor="middle" x="102" y="-66.5" font-family="Helvetica,sans-Serif" font-size="10.00">UniqueChildrenTest.testListOfValues</text>
</a>
</g>
</g>
<!-- Node1&#45;&gt;Node3 -->
<g id="edge2_Node000001_Node000003" class="edge">
<title>Node1&#45;&gt;Node3</title>
<g id="a_edge2_Node000001_Node000003"><a xlink:title=" ">
<path fill="none" stroke="#63b8ff" d="M229.64,-74.5C219.51,-74.5 209.28,-74.5 199.24,-74.5"/>
<polygon fill="#63b8ff" stroke="#63b8ff" points="229.71,-78 239.71,-74.5 229.71,-71 229.71,-78"/>
</a>
</g>
</g>
<!-- Node4 -->
<g id="Node000004" class="node">
<title>Node4</title>
<g id="a_Node000004"><a xlink:href="classcom_1_1teragrep_1_1pth__06_1_1ast_1_1transform_1_1UniqueChildrenTest.html#a37f462429f866fc7ce3c526d3d75cfd0" target="_top" xlink:title=" ">
<polygon fill="white" stroke="#666666" points="204,-41 0,-41 0,0 204,0 204,-41"/>
<text text-anchor="start" x="8" y="-29" font-family="Helvetica,sans-Serif" font-size="10.00">com.teragrep.pth_06.ast.transform.</text>
<text text-anchor="start" x="8" y="-18" font-family="Helvetica,sans-Serif" font-size="10.00">UniqueChildrenTest.testUnoptimizable</text>
<text text-anchor="middle" x="102" y="-7" font-family="Helvetica,sans-Serif" font-size="10.00">Expression</text>
</a>
</g>
</g>
<!-- Node1&#45;&gt;Node4 -->
<g id="edge3_Node000001_Node000004" class="edge">
<title>Node1&#45;&gt;Node4</title>
<g id="a_edge3_Node000001_Node000004"><a xlink:title=" ">
<path fill="none" stroke="#63b8ff" d="M259.73,-57.14C237.75,-52 213.48,-46.33 190.74,-41.01"/>
<polygon fill="#63b8ff" stroke="#63b8ff" points="259.12,-60.59 269.65,-59.46 260.71,-53.77 259.12,-60.59"/>
</a>
</g>
</g>
</g>
</svg>
