<?xml version="1.0" encoding="UTF-8" standalone="no"?>
<!DOCTYPE svg PUBLIC "-//W3C//DTD SVG 1.1//EN"
 "http://www.w3.org/Graphics/SVG/1.1/DTD/svg11.dtd">
<!-- Generated by graphviz version 2.43.0 (0)
 -->
<!-- Title: com.teragrep.pth_06.planner.ArchiveQueryProcessor.incrementAndGetLatestOffset Pages: 1 -->
<svg width="1291pt" height="280pt"
 viewBox="0.00 0.00 1291.00 280.00" xmlns="http://www.w3.org/2000/svg" xmlns:xlink="http://www.w3.org/1999/xlink">
<g id="graph0" class="graph" transform="scale(1 1) rotate(0) translate(4 276)">
<title>com.teragrep.pth_06.planner.ArchiveQueryProcessor.incrementAndGetLatestOffset</title>
<!-- Node1 -->
<g id="Node000001" class="node">
<title>Node1</title>
<g id="a_Node000001"><a xlink:title="Increments the latest offset value and returns that incremented offset.">
<polygon fill="#999999" stroke="#666666" points="182,-169.5 0,-169.5 0,-128.5 182,-128.5 182,-169.5"/>
<text text-anchor="start" x="8" y="-157.5" font-family="Helvetica,sans-Serif" font-size="10.00">com.teragrep.pth_06.planner.</text>
<text text-anchor="start" x="8" y="-146.5" font-family="Helvetica,sans-Serif" font-size="10.00">ArchiveQueryProcessor.increment</text>
<text text-anchor="middle" x="91" y="-135.5" font-family="Helvetica,sans-Serif" font-size="10.00">AndGetLatestOffset</text>
</a>
</g>
</g>
<!-- Node2 -->
<g id="Node000002" class="node">
<title>Node2</title>
<g id="a_Node000002"><a xlink:href="classcom_1_1teragrep_1_1pth__06_1_1planner_1_1BatchSizeLimit.html#a3c8b6b537a6e8ca4bc3a45f250bb9da1" target="_top" xlink:title="Accumulate the given weight and count of objects.">
<polygon fill="white" stroke="#666666" points="399,-272 239,-272 239,-242 399,-242 399,-272"/>
<text text-anchor="start" x="247" y="-260" font-family="Helvetica,sans-Serif" font-size="10.00">com.teragrep.pth_06.planner.</text>
<text text-anchor="middle" x="319" y="-249" font-family="Helvetica,sans-Serif" font-size="10.00">BatchSizeLimit.add</text>
</a>
</g>
</g>
<!-- Node1&#45;&gt;Node2 -->
<g id="edge1_Node000001_Node000002" class="edge">
<title>Node1&#45;&gt;Node2</title>
<g id="a_edge1_Node000001_Node000002"><a xlink:title=" ">
<path fill="none" stroke="#63b8ff" d="M116.99,-169.56C141.35,-188.63 180.17,-216.48 218,-233 222.74,-235.07 227.68,-236.98 232.72,-238.73"/>
<polygon fill="#63b8ff" stroke="#63b8ff" points="231.92,-242.15 242.52,-241.93 234.09,-235.5 231.92,-242.15"/>
</a>
</g>
</g>
<!-- Node3 -->
<g id="Node000003" class="node">
<title>Node3</title>
<g id="a_Node000003"><a xlink:href="classcom_1_1teragrep_1_1pth__06_1_1planner_1_1ArchiveQueryProcessor.html#a1f1a7e795ca43c5d98c2fde28a3dd267" target="_top" xlink:title="Returns the earliest offset, which always remains the same within a query.">
<polygon fill="white" stroke="#666666" points="407,-223.5 231,-223.5 231,-182.5 407,-182.5 407,-223.5"/>
<text text-anchor="start" x="239" y="-211.5" font-family="Helvetica,sans-Serif" font-size="10.00">com.teragrep.pth_06.planner.</text>
<text text-anchor="start" x="239" y="-200.5" font-family="Helvetica,sans-Serif" font-size="10.00">ArchiveQueryProcessor.getInitial</text>
<text text-anchor="middle" x="319" y="-189.5" font-family="Helvetica,sans-Serif" font-size="10.00">Offset</text>
</a>
</g>
</g>
<!-- Node1&#45;&gt;Node3 -->
<g id="edge2_Node000001_Node000003" class="edge">
<title>Node1&#45;&gt;Node3</title>
<g id="a_edge2_Node000001_Node000003"><a xlink:title=" ">
<path fill="none" stroke="#63b8ff" d="M178.09,-169.57C192.48,-173.01 207.49,-176.59 222.11,-180.09"/>
<polygon fill="#63b8ff" stroke="#63b8ff" points="221.61,-183.57 232.15,-182.49 223.24,-176.76 221.61,-183.57"/>
</a>
</g>
</g>
<!-- Node4 -->
<g id="Node000004" class="node">
<title>Node4</title>
<g id="a_Node000004"><a xlink:href="classcom_1_1teragrep_1_1pth__06_1_1planner_1_1BatchSizeLimit.html#ac0ae9a8b12bb02236111c903eb42c2ea" target="_top" xlink:title="check if accumulated weight is over the maximum size limit OR if the accumulated count of objects is ...">
<polygon fill="white" stroke="#666666" points="399,-164 239,-164 239,-134 399,-134 399,-164"/>
<text text-anchor="start" x="247" y="-152" font-family="Helvetica,sans-Serif" font-size="10.00">com.teragrep.pth_06.planner.</text>
<text text-anchor="middle" x="319" y="-141" font-family="Helvetica,sans-Serif" font-size="10.00">BatchSizeLimit.isOverLimit</text>
</a>
</g>
</g>
<!-- Node1&#45;&gt;Node4 -->
<g id="edge3_Node000001_Node000004" class="edge">
<title>Node1&#45;&gt;Node4</title>
<g id="a_edge3_Node000001_Node000004"><a xlink:title=" ">
<path fill="none" stroke="#63b8ff" d="M182.3,-149C197.48,-149 213.23,-149 228.4,-149"/>
<polygon fill="#63b8ff" stroke="#63b8ff" points="228.79,-152.5 238.79,-149 228.79,-145.5 228.79,-152.5"/>
</a>
</g>
</g>
<!-- Node5 -->
<g id="Node000005" class="node">
<title>Node5</title>
<g id="a_Node000005"><a xlink:href="classcom_1_1teragrep_1_1pth__06_1_1planner_1_1StreamDBClient.html#adbe4b13c48e67d8d82ae4ed9ee93f7df" target="_top" xlink:title=" ">
<polygon fill="white" stroke="#666666" points="631,-94 456,-94 456,-64 631,-64 631,-94"/>
<text text-anchor="start" x="464" y="-82" font-family="Helvetica,sans-Serif" font-size="10.00">com.teragrep.pth_06.planner.</text>
<text text-anchor="middle" x="543.5" y="-71" font-family="Helvetica,sans-Serif" font-size="10.00">StreamDBClient.pullToSliceTable</text>
</a>
</g>
</g>
<!-- Node1&#45;&gt;Node5 -->
<g id="edge4_Node000001_Node000005" class="edge">
<title>Node1&#45;&gt;Node5</title>
<g id="a_edge4_Node000001_Node000005"><a xlink:title=" ">
<path fill="none" stroke="#63b8ff" d="M118.68,-128.22C143.01,-110.68 180.74,-86.89 218,-77 292.56,-57.2 380.19,-59.15 445.58,-65.25"/>
<polygon fill="#63b8ff" stroke="#63b8ff" points="445.59,-68.77 455.88,-66.27 446.27,-61.8 445.59,-68.77"/>
</a>
</g>
</g>
<!-- Node11 -->
<g id="Node000011" class="node">
<title>Node11</title>
<g id="a_Node000011"><a xlink:href="classcom_1_1teragrep_1_1pth__06_1_1planner_1_1ArchiveQueryProcessor.html#a3e2e817526f72a254cd6358389a5b7f2" target="_top" xlink:title="Increment the rolling day and pull data for that day into the sliceTable.">
<polygon fill="white" stroke="#666666" points="420,-116 218,-116 218,-86 420,-86 420,-116"/>
<text text-anchor="start" x="226" y="-104" font-family="Helvetica,sans-Serif" font-size="10.00">com.teragrep.pth_06.planner.</text>
<text text-anchor="middle" x="319" y="-93" font-family="Helvetica,sans-Serif" font-size="10.00">ArchiveQueryProcessor.seekToResults</text>
</a>
</g>
</g>
<!-- Node1&#45;&gt;Node11 -->
<g id="edge13_Node000001_Node000011" class="edge">
<title>Node1&#45;&gt;Node11</title>
<g id="a_edge13_Node000001_Node000011"><a xlink:title=" ">
<path fill="none" stroke="#63b8ff" d="M182.3,-129.82C200.55,-125.94 219.64,-121.89 237.53,-118.09"/>
<polygon fill="#63b8ff" stroke="#63b8ff" points="238.28,-121.51 247.33,-116.01 236.83,-114.66 238.28,-121.51"/>
</a>
</g>
</g>
<!-- Node6 -->
<g id="Node000006" class="node">
<title>Node6</title>
<g id="a_Node000006"><a xlink:href="classcom_1_1teragrep_1_1pth__06_1_1ConfiguredLogger.html#a432bade7d6310bed1e1b9a405fb53d56" target="_top" xlink:title=" ">
<polygon fill="white" stroke="#666666" points="1074,-202 901,-202 901,-172 1074,-172 1074,-202"/>
<text text-anchor="start" x="909" y="-190" font-family="Helvetica,sans-Serif" font-size="10.00">com.teragrep.pth_06.Configured</text>
<text text-anchor="middle" x="987.5" y="-179" font-family="Helvetica,sans-Serif" font-size="10.00">Logger.debug</text>
</a>
</g>
</g>
<!-- Node5&#45;&gt;Node6 -->
<g id="edge5_Node000005_Node000006" class="edge">
<title>Node5&#45;&gt;Node6</title>
<g id="a_edge5_Node000005_Node000006"><a xlink:title=" ">
<path fill="none" stroke="#63b8ff" d="M566.38,-94.27C590.03,-109.97 629.42,-133.79 667,-146 739.83,-169.66 826.15,-179.73 890.7,-183.99"/>
<polygon fill="#63b8ff" stroke="#63b8ff" points="890.67,-187.5 900.87,-184.63 891.11,-180.51 890.67,-187.5"/>
</a>
</g>
</g>
<!-- Node7 -->
<g id="Node000007" class="node">
<title>Node7</title>
<g id="a_Node000007"><a xlink:href="classcom_1_1teragrep_1_1pth__06_1_1ConfiguredLogger.html#adbd659cefc990abe9b2da58d3dae9970" target="_top" xlink:title=" ">
<polygon fill="white" stroke="#666666" points="1283,-159 1110,-159 1110,-129 1283,-129 1283,-159"/>
<text text-anchor="start" x="1118" y="-147" font-family="Helvetica,sans-Serif" font-size="10.00">com.teragrep.pth_06.Configured</text>
<text text-anchor="middle" x="1196.5" y="-136" font-family="Helvetica,sans-Serif" font-size="10.00">Logger.info</text>
</a>
</g>
</g>
<!-- Node5&#45;&gt;Node7 -->
<g id="edge11_Node000005_Node000007" class="edge">
<title>Node5&#45;&gt;Node7</title>
<g id="a_edge11_Node000005_Node000007"><a xlink:title=" ">
<path fill="none" stroke="#63b8ff" d="M631.44,-65.4C737.74,-51.78 922.21,-37.92 1074,-77 1108.54,-85.89 1143.78,-106.92 1167.35,-123.06"/>
<polygon fill="#63b8ff" stroke="#63b8ff" points="1165.58,-126.1 1175.78,-128.97 1169.6,-120.37 1165.58,-126.1"/>
</a>
</g>
</g>
<!-- Node8 -->
<g id="Node000008" class="node">
<title>Node8</title>
<g id="a_Node000008"><a xlink:href="classcom_1_1teragrep_1_1pth__06_1_1planner_1_1NestedTopNQuery.html#ab9a75398ae4f26212f007ce95c24c26f" target="_top" xlink:title=" ">
<polygon fill="white" stroke="#666666" points="865,-137 667,-137 667,-107 865,-107 865,-137"/>
<text text-anchor="start" x="675" y="-125" font-family="Helvetica,sans-Serif" font-size="10.00">com.teragrep.pth_06.planner.</text>
<text text-anchor="middle" x="766" y="-114" font-family="Helvetica,sans-Serif" font-size="10.00">NestedTopNQuery.getTableStatement</text>
</a>
</g>
</g>
<!-- Node5&#45;&gt;Node8 -->
<g id="edge7_Node000005_Node000008" class="edge">
<title>Node5&#45;&gt;Node8</title>
<g id="a_edge7_Node000005_Node000008"><a xlink:title=" ">
<path fill="none" stroke="#63b8ff" d="M621.62,-94.04C639.83,-97.59 659.37,-101.4 677.99,-105.03"/>
<polygon fill="#63b8ff" stroke="#63b8ff" points="677.44,-108.49 687.92,-106.97 678.78,-101.62 677.44,-108.49"/>
</a>
</g>
</g>
<!-- Node10 -->
<g id="Node000010" class="node">
<title>Node10</title>
<g id="a_Node000010"><a xlink:href="classcom_1_1teragrep_1_1pth__06_1_1ConfiguredLogger.html#af42a0722b715d8fd28805092370257d2" target="_top" xlink:title=" ">
<polygon fill="white" stroke="#666666" points="852.5,-30 679.5,-30 679.5,0 852.5,0 852.5,-30"/>
<text text-anchor="start" x="687.5" y="-18" font-family="Helvetica,sans-Serif" font-size="10.00">com.teragrep.pth_06.Configured</text>
<text text-anchor="middle" x="766" y="-7" font-family="Helvetica,sans-Serif" font-size="10.00">Logger.trace</text>
</a>
</g>
</g>
<!-- Node5&#45;&gt;Node10 -->
<g id="edge12_Node000005_Node000010" class="edge">
<title>Node5&#45;&gt;Node10</title>
<g id="a_edge12_Node000005_Node000010"><a xlink:title=" ">
<path fill="none" stroke="#63b8ff" d="M596.2,-63.99C628.29,-54.68 669.71,-42.66 703.48,-32.86"/>
<polygon fill="#63b8ff" stroke="#63b8ff" points="704.62,-36.17 713.24,-30.02 702.67,-29.45 704.62,-36.17"/>
</a>
</g>
</g>
<!-- Node6&#45;&gt;Node7 -->
<g id="edge6_Node000006_Node000007" class="edge">
<title>Node6&#45;&gt;Node7</title>
<g id="a_edge6_Node000006_Node000007"><a xlink:title=" ">
<path fill="none" stroke="#63b8ff" d="M1060.9,-171.96C1077.76,-168.46 1095.83,-164.7 1113.09,-161.12"/>
<polygon fill="#63b8ff" stroke="#63b8ff" points="1114.06,-164.49 1123.14,-159.03 1112.64,-157.64 1114.06,-164.49"/>
</a>
</g>
</g>
<!-- Node8&#45;&gt;Node6 -->
<g id="edge8_Node000008_Node000006" class="edge">
<title>Node8&#45;&gt;Node6</title>
<g id="a_edge8_Node000008_Node000006"><a xlink:title=" ">
<path fill="none" stroke="#63b8ff" d="M817.91,-137.08C850.07,-146.6 891.8,-158.96 925.69,-168.99"/>
<polygon fill="#63b8ff" stroke="#63b8ff" points="924.9,-172.41 935.49,-171.89 926.89,-165.7 924.9,-172.41"/>
</a>
</g>
</g>
<!-- Node8&#45;&gt;Node7 -->
<g id="edge9_Node000008_Node000007" class="edge">
<title>Node8&#45;&gt;Node7</title>
<g id="a_edge9_Node000008_Node000007"><a xlink:title=" ">
<path fill="none" stroke="#63b8ff" d="M865.04,-127.03C935.44,-130.65 1029.85,-135.5 1099.73,-139.08"/>
<polygon fill="#63b8ff" stroke="#63b8ff" points="1099.69,-142.59 1109.86,-139.6 1100.05,-135.59 1099.69,-142.59"/>
</a>
</g>
</g>
<!-- Node9 -->
<g id="Node000009" class="node">
<title>Node9</title>
<g id="a_Node000009"><a xlink:href="classcom_1_1teragrep_1_1pth__06_1_1ConfiguredLogger.html#a03c44f8bbcceea9ce885498f428247cd" target="_top" xlink:title=" ">
<polygon fill="white" stroke="#666666" points="1074,-116 901,-116 901,-86 1074,-86 1074,-116"/>
<text text-anchor="start" x="909" y="-104" font-family="Helvetica,sans-Serif" font-size="10.00">com.teragrep.pth_06.Configured</text>
<text text-anchor="middle" x="987.5" y="-93" font-family="Helvetica,sans-Serif" font-size="10.00">Logger.isInfoEnabled</text>
</a>
</g>
</g>
<!-- Node8&#45;&gt;Node9 -->
<g id="edge10_Node000008_Node000009" class="edge">
<title>Node8&#45;&gt;Node9</title>
<g id="a_edge10_Node000008_Node000009"><a xlink:title=" ">
<path fill="none" stroke="#63b8ff" d="M865.19,-112.61C873.63,-111.8 882.17,-110.98 890.59,-110.18"/>
<polygon fill="#63b8ff" stroke="#63b8ff" points="891.17,-113.64 900.79,-109.2 890.5,-106.67 891.17,-113.64"/>
</a>
</g>
</g>
<!-- Node11&#45;&gt;Node5 -->
<g id="edge14_Node000011_Node000005" class="edge">
<title>Node11&#45;&gt;Node5</title>
<g id="a_edge14_Node000011_Node000005"><a xlink:title=" ">
<path fill="none" stroke="#63b8ff" d="M420.18,-91.09C428.63,-90.26 437.16,-89.42 445.58,-88.58"/>
<polygon fill="#63b8ff" stroke="#63b8ff" points="446.18,-92.04 455.79,-87.57 445.49,-85.07 446.18,-92.04"/>
</a>
</g>
</g>
</g>
</svg>
