<?xml version="1.0" encoding="UTF-8" standalone="no"?>
<!DOCTYPE svg PUBLIC "-//W3C//DTD SVG 1.1//EN"
 "http://www.w3.org/Graphics/SVG/1.1/DTD/svg11.dtd">
<!-- Generated by graphviz version 2.43.0 (0)
 -->
<!-- Title: com.teragrep.pth_06.ast.analyze.ScanPlanView.viewFromOffset Pages: 1 -->
<svg width="421pt" height="124pt"
 viewBox="0.00 0.00 421.00 123.50" xmlns="http://www.w3.org/2000/svg" xmlns:xlink="http://www.w3.org/1999/xlink">
<g id="graph0" class="graph" transform="scale(1 1) rotate(0) translate(4 119.5)">
<title>com.teragrep.pth_06.ast.analyze.ScanPlanView.viewFromOffset</title>
<!-- Node1 -->
<g id="Node000001" class="node">
<title>Node1</title>
<g id="a_Node000001"><a xlink:title="Returns a new ScanRangeView from an updated offset start point.">
<polygon fill="#999999" stroke="#666666" points="180,-78 0,-78 0,-48 180,-48 180,-78"/>
<text text-anchor="start" x="8" y="-66" font-family="Helvetica,sans-Serif" font-size="10.00">com.teragrep.pth_06.ast.analyze.</text>
<text text-anchor="middle" x="90" y="-55" font-family="Helvetica,sans-Serif" font-size="10.00">ScanPlanView.viewFromOffset</text>
</a>
</g>
</g>
<!-- Node2 -->
<g id="Node000002" class="node">
<title>Node2</title>
<g id="a_Node000002"><a xlink:href="interfacecom_1_1teragrep_1_1pth__06_1_1Stubable.html#ac7c59dcfbcfa0218ef7bc528ef597971" target="_top" xlink:title=" ">
<polygon fill="white" stroke="#666666" points="413,-115.5 216,-115.5 216,-96.5 413,-96.5 413,-115.5"/>
<text text-anchor="middle" x="314.5" y="-103.5" font-family="Helvetica,sans-Serif" font-size="10.00">com.teragrep.pth_06.Stubable.isStub</text>
</a>
</g>
</g>
<!-- Node1&#45;&gt;Node2 -->
<g id="edge1_Node000001_Node000002" class="edge">
<title>Node1&#45;&gt;Node2</title>
<g id="a_edge1_Node000001_Node000002"><a xlink:title=" ">
<path fill="none" stroke="#63b8ff" d="M168.82,-78.04C196.81,-83.45 227.91,-89.46 254.08,-94.52"/>
<polygon fill="#63b8ff" stroke="#63b8ff" points="253.75,-98.02 264.23,-96.48 255.07,-91.14 253.75,-98.02"/>
</a>
</g>
</g>
<!-- Node3 -->
<g id="Node000003" class="node">
<title>Node3</title>
<g id="a_Node000003"><a xlink:href="interfacecom_1_1teragrep_1_1pth__06_1_1ast_1_1analyze_1_1ScanPlan.html#aec1f839cc717eaa9a7aae9776936abb0" target="_top" xlink:title=" ">
<polygon fill="white" stroke="#666666" points="404.5,-78 224.5,-78 224.5,-48 404.5,-48 404.5,-78"/>
<text text-anchor="start" x="232.5" y="-66" font-family="Helvetica,sans-Serif" font-size="10.00">com.teragrep.pth_06.ast.analyze.</text>
<text text-anchor="middle" x="314.5" y="-55" font-family="Helvetica,sans-Serif" font-size="10.00">ScanPlan.latest</text>
</a>
</g>
</g>
<!-- Node1&#45;&gt;Node3 -->
<g id="edge2_Node000001_Node000003" class="edge">
<title>Node1&#45;&gt;Node3</title>
<g id="a_edge2_Node000001_Node000003"><a xlink:title=" ">
<path fill="none" stroke="#63b8ff" d="M180.22,-63C191.32,-63 202.74,-63 213.99,-63"/>
<polygon fill="#63b8ff" stroke="#63b8ff" points="214.26,-66.5 224.26,-63 214.26,-59.5 214.26,-66.5"/>
</a>
</g>
</g>
<!-- Node4 -->
<g id="Node000004" class="node">
<title>Node4</title>
<g id="a_Node000004"><a xlink:href="interfacecom_1_1teragrep_1_1pth__06_1_1ast_1_1analyze_1_1ScanPlan.html#ab426aa9576478fef9d43580841a73aee" target="_top" xlink:title="new ScanRange with new earliest value if inside the scope, otherwise no changes">
<polygon fill="white" stroke="#666666" points="404.5,-30 224.5,-30 224.5,0 404.5,0 404.5,-30"/>
<text text-anchor="start" x="232.5" y="-18" font-family="Helvetica,sans-Serif" font-size="10.00">com.teragrep.pth_06.ast.analyze.</text>
<text text-anchor="middle" x="314.5" y="-7" font-family="Helvetica,sans-Serif" font-size="10.00">ScanPlan.rangeFromEarliest</text>
</a>
</g>
</g>
<!-- Node1&#45;&gt;Node4 -->
<g id="edge3_Node000001_Node000004" class="edge">
<title>Node1&#45;&gt;Node4</title>
<g id="a_edge3_Node000001_Node000004"><a xlink:title=" ">
<path fill="none" stroke="#63b8ff" d="M160.79,-47.94C183.98,-42.94 209.99,-37.33 233.87,-32.18"/>
<polygon fill="#63b8ff" stroke="#63b8ff" points="234.92,-35.53 243.96,-30 233.44,-28.69 234.92,-35.53"/>
</a>
</g>
</g>
</g>
</svg>
