<?xml version="1.0" encoding="UTF-8" standalone="no"?>
<!DOCTYPE svg PUBLIC "-//W3C//DTD SVG 1.1//EN"
 "http://www.w3.org/Graphics/SVG/1.1/DTD/svg11.dtd">
<!-- Generated by graphviz version 2.43.0 (0)
 -->
<!-- Title: com.teragrep.pth_06.ast.analyze.ClassifiedExpressionsTest.testEarliestList Pages: 1 -->
<svg width="674pt" height="49pt"
 viewBox="0.00 0.00 674.00 49.00" xmlns="http://www.w3.org/2000/svg" xmlns:xlink="http://www.w3.org/1999/xlink">
<g id="graph0" class="graph" transform="scale(1 1) rotate(0) translate(4 45)">
<title>com.teragrep.pth_06.ast.analyze.ClassifiedExpressionsTest.testEarliestList</title>
<!-- Node1 -->
<g id="Node000001" class="node">
<title>Node1</title>
<g id="a_Node000001"><a xlink:title=" ">
<polygon fill="#999999" stroke="#666666" points="218,-35.5 0,-35.5 0,-5.5 218,-5.5 218,-35.5"/>
<text text-anchor="start" x="8" y="-23.5" font-family="Helvetica,sans-Serif" font-size="10.00">com.teragrep.pth_06.ast.analyze.</text>
<text text-anchor="middle" x="109" y="-12.5" font-family="Helvetica,sans-Serif" font-size="10.00">ClassifiedExpressionsTest.testEarliestList</text>
</a>
</g>
</g>
<!-- Node2 -->
<g id="Node000002" class="node">
<title>Node2</title>
<g id="a_Node000002"><a xlink:href="classcom_1_1teragrep_1_1pth__06_1_1ast_1_1analyze_1_1ClassifiedExpressions.html#a6c7e53e1b206fc2ef1f6aeea4ef1afa6" target="_top" xlink:title=" ">
<polygon fill="white" stroke="#666666" points="434,-35.5 254,-35.5 254,-5.5 434,-5.5 434,-35.5"/>
<text text-anchor="start" x="262" y="-23.5" font-family="Helvetica,sans-Serif" font-size="10.00">com.teragrep.pth_06.ast.analyze.</text>
<text text-anchor="middle" x="344" y="-12.5" font-family="Helvetica,sans-Serif" font-size="10.00">ClassifiedExpressions.earliestList</text>
</a>
</g>
</g>
<!-- Node1&#45;&gt;Node2 -->
<g id="edge1_Node000001_Node000002" class="edge">
<title>Node1&#45;&gt;Node2</title>
<g id="a_edge1_Node000001_Node000002"><a xlink:title=" ">
<path fill="none" stroke="#63b8ff" d="M218.31,-20.5C226.76,-20.5 235.27,-20.5 243.66,-20.5"/>
<polygon fill="#63b8ff" stroke="#63b8ff" points="243.81,-24 253.81,-20.5 243.81,-17 243.81,-24"/>
</a>
</g>
</g>
<!-- Node3 -->
<g id="Node000003" class="node">
<title>Node3</title>
<g id="a_Node000003"><a xlink:href="classcom_1_1teragrep_1_1pth__06_1_1ast_1_1analyze_1_1ClassifiedExpressions.html#a5b892fa54a3c7ac63f7cc75cf9d38711" target="_top" xlink:title=" ">
<polygon fill="white" stroke="#666666" points="666,-41 470,-41 470,0 666,0 666,-41"/>
<text text-anchor="start" x="478" y="-29" font-family="Helvetica,sans-Serif" font-size="10.00">com.teragrep.pth_06.ast.analyze.</text>
<text text-anchor="start" x="478" y="-18" font-family="Helvetica,sans-Serif" font-size="10.00">ClassifiedExpressions.expressionList</text>
<text text-anchor="middle" x="568" y="-7" font-family="Helvetica,sans-Serif" font-size="10.00">FilteredByTag</text>
</a>
</g>
</g>
<!-- Node2&#45;&gt;Node3 -->
<g id="edge2_Node000002_Node000003" class="edge">
<title>Node2&#45;&gt;Node3</title>
<g id="a_edge2_Node000002_Node000003"><a xlink:title=" ">
<path fill="none" stroke="#63b8ff" d="M434.02,-20.5C442.51,-20.5 451.19,-20.5 459.83,-20.5"/>
<polygon fill="#63b8ff" stroke="#63b8ff" points="459.96,-24 469.96,-20.5 459.96,-17 459.96,-24"/>
</a>
</g>
</g>
</g>
</svg>
