<?xml version="1.0" encoding="UTF-8" standalone="no"?>
<!DOCTYPE svg PUBLIC "-//W3C//DTD SVG 1.1//EN"
 "http://www.w3.org/Graphics/SVG/1.1/DTD/svg11.dtd">
<!-- Generated by graphviz version 2.43.0 (0)
 -->
<!-- Title: com.teragrep.pth_06.ast.analyze.ScanPlanCollection.asList Pages: 1 -->
<svg width="1074pt" height="308pt"
 viewBox="0.00 0.00 1074.00 308.00" xmlns="http://www.w3.org/2000/svg" xmlns:xlink="http://www.w3.org/1999/xlink">
<g id="graph0" class="graph" transform="scale(1 1) rotate(0) translate(4 304)">
<title>com.teragrep.pth_06.ast.analyze.ScanPlanCollection.asList</title>
<!-- Node1 -->
<g id="Node000001" class="node">
<title>Node1</title>
<g id="a_Node000001"><a xlink:title=" ">
<polygon fill="#999999" stroke="#666666" points="180,-228 0,-228 0,-198 180,-198 180,-228"/>
<text text-anchor="start" x="8" y="-216" font-family="Helvetica,sans-Serif" font-size="10.00">com.teragrep.pth_06.ast.analyze.</text>
<text text-anchor="middle" x="90" y="-205" font-family="Helvetica,sans-Serif" font-size="10.00">ScanPlanCollection.asList</text>
</a>
</g>
</g>
<!-- Node2 -->
<g id="Node000002" class="node">
<title>Node2</title>
<g id="a_Node000002"><a xlink:href="classcom_1_1teragrep_1_1pth__06_1_1ast_1_1analyze_1_1ScanPlanCollection.html#a189720b142e6dac61490c1b2c0a9bf1f" target="_top" xlink:title=" ">
<polygon fill="white" stroke="#666666" points="406,-228 216,-228 216,-198 406,-198 406,-228"/>
<text text-anchor="start" x="224" y="-216" font-family="Helvetica,sans-Serif" font-size="10.00">com.teragrep.pth_06.ast.analyze.</text>
<text text-anchor="middle" x="311" y="-205" font-family="Helvetica,sans-Serif" font-size="10.00">ScanPlanCollection.findScanRanges</text>
</a>
</g>
</g>
<!-- Node1&#45;&gt;Node2 -->
<g id="edge1_Node000001_Node000002" class="edge">
<title>Node1&#45;&gt;Node2</title>
<g id="a_edge1_Node000001_Node000002"><a xlink:title=" ">
<path fill="none" stroke="#63b8ff" d="M180.08,-213C188.5,-213 197.1,-213 205.65,-213"/>
<polygon fill="#63b8ff" stroke="#63b8ff" points="205.65,-216.5 215.65,-213 205.65,-209.5 205.65,-216.5"/>
</a>
</g>
</g>
<!-- Node2&#45;&gt;Node2 -->
<g id="edge4_Node000002_Node000002" class="edge">
<title>Node2&#45;&gt;Node2</title>
<g id="a_edge4_Node000002_Node000002"><a xlink:title=" ">
<path fill="none" stroke="#63b8ff" d="M272.33,-228.28C263.73,-237.41 276.62,-246 311,-246 331.41,-246 344.25,-242.97 349.51,-238.6"/>
<polygon fill="#63b8ff" stroke="#63b8ff" points="353.01,-238.33 349.67,-228.28 346.01,-238.22 353.01,-238.33"/>
</a>
</g>
</g>
<!-- Node3 -->
<g id="Node000003" class="node">
<title>Node3</title>
<g id="a_Node000003"><a xlink:href="interfacecom_1_1teragrep_1_1pth__06_1_1ast_1_1Expression.html#a17e7d33905be57c6e22e1717da6ddef6" target="_top" xlink:title=" ">
<polygon fill="white" stroke="#666666" points="601.5,-300 462.5,-300 462.5,-270 601.5,-270 601.5,-300"/>
<text text-anchor="start" x="470.5" y="-288" font-family="Helvetica,sans-Serif" font-size="10.00">com.teragrep.pth_06.ast.</text>
<text text-anchor="middle" x="532" y="-277" font-family="Helvetica,sans-Serif" font-size="10.00">Expression.asLogical</text>
</a>
</g>
</g>
<!-- Node2&#45;&gt;Node3 -->
<g id="edge2_Node000002_Node000003" class="edge">
<title>Node2&#45;&gt;Node3</title>
<g id="a_edge2_Node000002_Node000003"><a xlink:title=" ">
<path fill="none" stroke="#63b8ff" d="M350.08,-228.09C375.83,-238.04 410.71,-251.03 442,-261 448.56,-263.09 455.42,-265.15 462.31,-267.14"/>
<polygon fill="#63b8ff" stroke="#63b8ff" points="461.8,-270.64 472.37,-270 463.71,-263.9 461.8,-270.64"/>
</a>
</g>
</g>
<!-- Node4 -->
<g id="Node000004" class="node">
<title>Node4</title>
<g id="a_Node000004"><a xlink:href="interfacecom_1_1teragrep_1_1pth__06_1_1ast_1_1LogicalExpression.html#aeaf8fe296c6899792f345659a9a6c0c4" target="_top" xlink:title=" ">
<polygon fill="white" stroke="#666666" points="605,-252 459,-252 459,-222 605,-222 605,-252"/>
<text text-anchor="start" x="467" y="-240" font-family="Helvetica,sans-Serif" font-size="10.00">com.teragrep.pth_06.ast.</text>
<text text-anchor="middle" x="532" y="-229" font-family="Helvetica,sans-Serif" font-size="10.00">LogicalExpression.children</text>
</a>
</g>
</g>
<!-- Node2&#45;&gt;Node4 -->
<g id="edge3_Node000002_Node000004" class="edge">
<title>Node2&#45;&gt;Node4</title>
<g id="a_edge3_Node000002_Node000004"><a xlink:title=" ">
<path fill="none" stroke="#63b8ff" d="M406.15,-223.32C420.33,-224.87 434.86,-226.46 448.76,-227.99"/>
<polygon fill="#63b8ff" stroke="#63b8ff" points="448.44,-231.47 458.76,-229.08 449.2,-224.51 448.44,-231.47"/>
</a>
</g>
</g>
<!-- Node5 -->
<g id="Node000005" class="node">
<title>Node5</title>
<g id="a_Node000005"><a xlink:href="interfacecom_1_1teragrep_1_1pth__06_1_1ast_1_1Expression.html#a65ee7f5fb98e4129018f467a53586842" target="_top" xlink:title=" ">
<polygon fill="white" stroke="#666666" points="601.5,-204 462.5,-204 462.5,-174 601.5,-174 601.5,-204"/>
<text text-anchor="start" x="470.5" y="-192" font-family="Helvetica,sans-Serif" font-size="10.00">com.teragrep.pth_06.ast.</text>
<text text-anchor="middle" x="532" y="-181" font-family="Helvetica,sans-Serif" font-size="10.00">Expression.isLogical</text>
</a>
</g>
</g>
<!-- Node2&#45;&gt;Node5 -->
<g id="edge5_Node000002_Node000005" class="edge">
<title>Node2&#45;&gt;Node5</title>
<g id="a_edge5_Node000002_Node000005"><a xlink:title=" ">
<path fill="none" stroke="#63b8ff" d="M406.15,-202.68C421.5,-201 437.26,-199.27 452.2,-197.64"/>
<polygon fill="#63b8ff" stroke="#63b8ff" points="452.83,-201.09 462.39,-196.52 452.07,-194.13 452.83,-201.09"/>
</a>
</g>
</g>
<!-- Node6 -->
<g id="Node000006" class="node">
<title>Node6</title>
<g id="a_Node000006"><a xlink:href="classcom_1_1teragrep_1_1pth__06_1_1ast_1_1analyze_1_1ScanGroupExpression.html#a0e5168dad0a59965e14bbc6417498fed" target="_top" xlink:title=" ">
<polygon fill="white" stroke="#666666" points="622,-156 442,-156 442,-126 622,-126 622,-156"/>
<text text-anchor="start" x="450" y="-144" font-family="Helvetica,sans-Serif" font-size="10.00">com.teragrep.pth_06.ast.analyze.</text>
<text text-anchor="middle" x="532" y="-133" font-family="Helvetica,sans-Serif" font-size="10.00">ScanGroupExpression.value</text>
</a>
</g>
</g>
<!-- Node2&#45;&gt;Node6 -->
<g id="edge6_Node000002_Node000006" class="edge">
<title>Node2&#45;&gt;Node6</title>
<g id="a_edge6_Node000002_Node000006"><a xlink:title=" ">
<path fill="none" stroke="#63b8ff" d="M350.08,-197.91C375.83,-187.96 410.71,-174.97 442,-165 448.56,-162.91 455.42,-160.85 462.31,-158.86"/>
<polygon fill="#63b8ff" stroke="#63b8ff" points="463.71,-162.1 472.37,-156 461.8,-155.36 463.71,-162.1"/>
</a>
</g>
</g>
<!-- Node7 -->
<g id="Node000007" class="node">
<title>Node7</title>
<g id="a_Node000007"><a xlink:href="classcom_1_1teragrep_1_1pth__06_1_1ast_1_1MergeIntersectingPlans.html#ac9312d6b24005eae4d9924660ca33a47" target="_top" xlink:title=" ">
<polygon fill="white" stroke="#666666" points="834,-188.5 662,-188.5 662,-147.5 834,-147.5 834,-188.5"/>
<text text-anchor="start" x="670" y="-176.5" font-family="Helvetica,sans-Serif" font-size="10.00">com.teragrep.pth_06.ast.</text>
<text text-anchor="start" x="670" y="-165.5" font-family="Helvetica,sans-Serif" font-size="10.00">MergeIntersectingPlans.merged</text>
<text text-anchor="middle" x="748" y="-154.5" font-family="Helvetica,sans-Serif" font-size="10.00">Ranges</text>
</a>
</g>
</g>
<!-- Node6&#45;&gt;Node7 -->
<g id="edge7_Node000006_Node000007" class="edge">
<title>Node6&#45;&gt;Node7</title>
<g id="a_edge7_Node000006_Node000007"><a xlink:title=" ">
<path fill="none" stroke="#63b8ff" d="M622.21,-152.25C631.91,-153.48 641.81,-154.73 651.59,-155.96"/>
<polygon fill="#63b8ff" stroke="#63b8ff" points="651.35,-159.46 661.71,-157.24 652.23,-152.52 651.35,-159.46"/>
</a>
</g>
</g>
<!-- Node8 -->
<g id="Node000008" class="node">
<title>Node8</title>
<g id="a_Node000008"><a xlink:href="classcom_1_1teragrep_1_1pth__06_1_1ast_1_1analyze_1_1PlannedScans.html#ad6dfe7529bfdfc03de991c95e194e0fe" target="_top" xlink:title=" ">
<polygon fill="white" stroke="#666666" points="838,-129 658,-129 658,-99 838,-99 838,-129"/>
<text text-anchor="start" x="666" y="-117" font-family="Helvetica,sans-Serif" font-size="10.00">com.teragrep.pth_06.ast.analyze.</text>
<text text-anchor="middle" x="748" y="-106" font-family="Helvetica,sans-Serif" font-size="10.00">PlannedScans.planListForGroup</text>
</a>
</g>
</g>
<!-- Node6&#45;&gt;Node8 -->
<g id="edge8_Node000006_Node000008" class="edge">
<title>Node6&#45;&gt;Node8</title>
<g id="a_edge8_Node000006_Node000008"><a xlink:title=" ">
<path fill="none" stroke="#63b8ff" d="M622.21,-129.75C630.7,-128.67 639.34,-127.58 647.92,-126.5"/>
<polygon fill="#63b8ff" stroke="#63b8ff" points="648.46,-129.96 657.94,-125.24 647.58,-123.02 648.46,-129.96"/>
</a>
</g>
</g>
<!-- Node9 -->
<g id="Node000009" class="node">
<title>Node9</title>
<g id="a_Node000009"><a xlink:href="classcom_1_1teragrep_1_1pth__06_1_1ast_1_1analyze_1_1StreamIDGroup.html#a429db1dbf66f77a975f929fa85179f87" target="_top" xlink:title=" ">
<polygon fill="white" stroke="#666666" points="1066,-228 874,-228 874,-198 1066,-198 1066,-228"/>
<text text-anchor="start" x="882" y="-216" font-family="Helvetica,sans-Serif" font-size="10.00">com.teragrep.pth_06.ast.analyze.</text>
<text text-anchor="middle" x="970" y="-205" font-family="Helvetica,sans-Serif" font-size="10.00">StreamIDGroup.combinedStreamIds</text>
</a>
</g>
</g>
<!-- Node8&#45;&gt;Node9 -->
<g id="edge9_Node000008_Node000009" class="edge">
<title>Node8&#45;&gt;Node9</title>
<g id="a_edge9_Node000008_Node000009"><a xlink:title=" ">
<path fill="none" stroke="#63b8ff" d="M820.02,-129.1C826.37,-131.87 832.48,-135.14 838,-139 860.44,-154.69 851.36,-173.6 874,-189 876.29,-190.56 878.68,-192.02 881.14,-193.38"/>
<polygon fill="#63b8ff" stroke="#63b8ff" points="879.81,-196.63 890.33,-197.92 882.91,-190.35 879.81,-196.63"/>
</a>
</g>
</g>
<!-- Node10 -->
<g id="Node000010" class="node">
<title>Node10</title>
<g id="a_Node000010"><a xlink:href="classcom_1_1teragrep_1_1pth__06_1_1ast_1_1analyze_1_1ScanTimeQualifiers.html#a82cd78430e3cda656d0cadbfaf5295a5" target="_top" xlink:title=" ">
<polygon fill="white" stroke="#666666" points="1060,-162 880,-162 880,-132 1060,-132 1060,-162"/>
<text text-anchor="start" x="888" y="-150" font-family="Helvetica,sans-Serif" font-size="10.00">com.teragrep.pth_06.ast.analyze.</text>
<text text-anchor="middle" x="970" y="-139" font-family="Helvetica,sans-Serif" font-size="10.00">ScanTimeQualifiers.earliest</text>
</a>
</g>
</g>
<!-- Node8&#45;&gt;Node10 -->
<g id="edge10_Node000008_Node000010" class="edge">
<title>Node8&#45;&gt;Node10</title>
<g id="a_edge10_Node000008_Node000010"><a xlink:title=" ">
<path fill="none" stroke="#63b8ff" d="M838.17,-127.37C848.55,-128.93 859.18,-130.53 869.69,-132.1"/>
<polygon fill="#63b8ff" stroke="#63b8ff" points="869.3,-135.58 879.71,-133.61 870.34,-128.66 869.3,-135.58"/>
</a>
</g>
</g>
<!-- Node11 -->
<g id="Node000011" class="node">
<title>Node11</title>
<g id="a_Node000011"><a xlink:href="classcom_1_1teragrep_1_1pth__06_1_1ast_1_1analyze_1_1FilterGroup.html#abca0dfe17ffff99e035f7136c075c661" target="_top" xlink:title=" ">
<polygon fill="white" stroke="#666666" points="1060,-96 880,-96 880,-66 1060,-66 1060,-96"/>
<text text-anchor="start" x="888" y="-84" font-family="Helvetica,sans-Serif" font-size="10.00">com.teragrep.pth_06.ast.analyze.</text>
<text text-anchor="middle" x="970" y="-73" font-family="Helvetica,sans-Serif" font-size="10.00">FilterGroup.filterList</text>
</a>
</g>
</g>
<!-- Node8&#45;&gt;Node11 -->
<g id="edge12_Node000008_Node000011" class="edge">
<title>Node8&#45;&gt;Node11</title>
<g id="a_edge12_Node000008_Node000011"><a xlink:title=" ">
<path fill="none" stroke="#63b8ff" d="M838.17,-100.63C848.55,-99.07 859.18,-97.47 869.69,-95.9"/>
<polygon fill="#63b8ff" stroke="#63b8ff" points="870.34,-99.34 879.71,-94.39 869.3,-92.42 870.34,-99.34"/>
</a>
</g>
</g>
<!-- Node12 -->
<g id="Node000012" class="node">
<title>Node12</title>
<g id="a_Node000012"><a xlink:href="classcom_1_1teragrep_1_1pth__06_1_1ast_1_1analyze_1_1ScanTimeQualifiers.html#a99388aed3186adf2e10b2317b5565833" target="_top" xlink:title=" ">
<polygon fill="white" stroke="#666666" points="1060,-30 880,-30 880,0 1060,0 1060,-30"/>
<text text-anchor="start" x="888" y="-18" font-family="Helvetica,sans-Serif" font-size="10.00">com.teragrep.pth_06.ast.analyze.</text>
<text text-anchor="middle" x="970" y="-7" font-family="Helvetica,sans-Serif" font-size="10.00">ScanTimeQualifiers.latest</text>
</a>
</g>
</g>
<!-- Node8&#45;&gt;Node12 -->
<g id="edge14_Node000008_Node000012" class="edge">
<title>Node8&#45;&gt;Node12</title>
<g id="a_edge14_Node000008_Node000012"><a xlink:title=" ">
<path fill="none" stroke="#63b8ff" d="M781.85,-98.89C807.03,-87.35 842.67,-71.07 874,-57 890.78,-49.47 909.26,-41.27 925.44,-34.13"/>
<polygon fill="#63b8ff" stroke="#63b8ff" points="926.92,-37.3 934.66,-30.07 924.1,-30.9 926.92,-37.3"/>
</a>
</g>
</g>
<!-- Node10&#45;&gt;Node10 -->
<g id="edge11_Node000010_Node000010" class="edge">
<title>Node10&#45;&gt;Node10</title>
<g id="a_edge11_Node000010_Node000010"><a xlink:title=" ">
<path fill="none" stroke="#63b8ff" d="M930.98,-162.28C922.3,-171.41 935.31,-180 970,-180 990.6,-180 1003.55,-176.97 1008.86,-172.6"/>
<polygon fill="#63b8ff" stroke="#63b8ff" points="1012.36,-172.33 1009.02,-162.28 1005.36,-172.22 1012.36,-172.33"/>
</a>
</g>
</g>
<!-- Node11&#45;&gt;Node11 -->
<g id="edge13_Node000011_Node000011" class="edge">
<title>Node11&#45;&gt;Node11</title>
<g id="a_edge13_Node000011_Node000011"><a xlink:title=" ">
<path fill="none" stroke="#63b8ff" d="M930.98,-96.28C922.3,-105.41 935.31,-114 970,-114 990.6,-114 1003.55,-110.97 1008.86,-106.6"/>
<polygon fill="#63b8ff" stroke="#63b8ff" points="1012.36,-106.33 1009.02,-96.28 1005.36,-106.22 1012.36,-106.33"/>
</a>
</g>
</g>
<!-- Node12&#45;&gt;Node12 -->
<g id="edge15_Node000012_Node000012" class="edge">
<title>Node12&#45;&gt;Node12</title>
<g id="a_edge15_Node000012_Node000012"><a xlink:title=" ">
<path fill="none" stroke="#63b8ff" d="M930.98,-30.28C922.3,-39.41 935.31,-48 970,-48 990.6,-48 1003.55,-44.97 1008.86,-40.6"/>
<polygon fill="#63b8ff" stroke="#63b8ff" points="1012.36,-40.33 1009.02,-30.28 1005.36,-40.22 1012.36,-40.33"/>
</a>
</g>
</g>
</g>
</svg>
