<?xml version="1.0" encoding="UTF-8" standalone="no"?>
<!DOCTYPE svg PUBLIC "-//W3C//DTD SVG 1.1//EN"
 "http://www.w3.org/Graphics/SVG/1.1/DTD/svg11.dtd">
<!-- Generated by graphviz version 2.43.0 (0)
 -->
<!-- Title: com.teragrep.pth_06.ast.analyze.FilterGroup.filterList Pages: 1 -->
<svg width="1157pt" height="386pt"
 viewBox="0.00 0.00 1157.00 386.00" xmlns="http://www.w3.org/2000/svg" xmlns:xlink="http://www.w3.org/1999/xlink">
<g id="graph0" class="graph" transform="scale(1 1) rotate(0) translate(4 382)">
<title>com.teragrep.pth_06.ast.analyze.FilterGroup.filterList</title>
<!-- Node1 -->
<g id="Node000001" class="node">
<title>Node1</title>
<g id="a_Node000001"><a xlink:title=" ">
<polygon fill="#999999" stroke="#666666" points="1149,-174 969,-174 969,-144 1149,-144 1149,-174"/>
<text text-anchor="start" x="977" y="-162" font-family="Helvetica,sans-Serif" font-size="10.00">com.teragrep.pth_06.ast.analyze.</text>
<text text-anchor="middle" x="1059" y="-151" font-family="Helvetica,sans-Serif" font-size="10.00">FilterGroup.filterList</text>
</a>
</g>
</g>
<!-- Node1&#45;&gt;Node1 -->
<g id="edge1_Node000001_Node000001" class="edge">
<title>Node1&#45;&gt;Node1</title>
<g id="a_edge1_Node000001_Node000001"><a xlink:title=" ">
<path fill="none" stroke="#63b8ff" d="M1099.26,-184.6C1093.76,-188.97 1080.34,-192 1059,-192 1023.06,-192 1009.59,-183.41 1018.57,-174.28"/>
<polygon fill="#63b8ff" stroke="#63b8ff" points="1102.76,-184.33 1099.43,-174.28 1095.76,-184.22 1102.76,-184.33"/>
</a>
</g>
</g>
<!-- Node2 -->
<g id="Node000002" class="node">
<title>Node2</title>
<g id="a_Node000002"><a xlink:href="classcom_1_1teragrep_1_1pth__06_1_1ast_1_1analyze_1_1PlannedScans.html#ad6dfe7529bfdfc03de991c95e194e0fe" target="_top" xlink:title=" ">
<polygon fill="white" stroke="#666666" points="918.5,-246 738.5,-246 738.5,-216 918.5,-216 918.5,-246"/>
<text text-anchor="start" x="746.5" y="-234" font-family="Helvetica,sans-Serif" font-size="10.00">com.teragrep.pth_06.ast.analyze.</text>
<text text-anchor="middle" x="828.5" y="-223" font-family="Helvetica,sans-Serif" font-size="10.00">PlannedScans.planListForGroup</text>
</a>
</g>
</g>
<!-- Node1&#45;&gt;Node2 -->
<g id="edge2_Node000001_Node000002" class="edge">
<title>Node1&#45;&gt;Node2</title>
<g id="a_edge2_Node000001_Node000002"><a xlink:title=" ">
<path fill="none" stroke="#63b8ff" d="M1013.24,-177.92C989.64,-187.45 960.06,-198.71 933,-207 922.51,-210.21 911.3,-213.23 900.28,-215.97"/>
<polygon fill="#63b8ff" stroke="#63b8ff" points="1014.69,-181.11 1022.63,-174.09 1012.05,-174.63 1014.69,-181.11"/>
</a>
</g>
</g>
<!-- Node15 -->
<g id="Node000015" class="node">
<title>Node15</title>
<g id="a_Node000015"><a xlink:href="classcom_1_1teragrep_1_1pth__06_1_1ast_1_1analyze_1_1FilterGroupTest.html#a47f3f8dc5274b61c843d551009f121d4" target="_top" xlink:title=" ">
<polygon fill="white" stroke="#666666" points="921,-198 736,-198 736,-168 921,-168 921,-198"/>
<text text-anchor="start" x="744" y="-186" font-family="Helvetica,sans-Serif" font-size="10.00">com.teragrep.pth_06.ast.analyze.</text>
<text text-anchor="middle" x="828.5" y="-175" font-family="Helvetica,sans-Serif" font-size="10.00">FilterGroupTest.testEmptyFilterList</text>
</a>
</g>
</g>
<!-- Node1&#45;&gt;Node15 -->
<g id="edge16_Node000001_Node000015" class="edge">
<title>Node1&#45;&gt;Node15</title>
<g id="a_edge16_Node000001_Node000015"><a xlink:title=" ">
<path fill="none" stroke="#63b8ff" d="M958.7,-169.43C946.18,-170.75 933.41,-172.09 921.02,-173.39"/>
<polygon fill="#63b8ff" stroke="#63b8ff" points="959.09,-172.91 968.67,-168.38 958.36,-165.95 959.09,-172.91"/>
</a>
</g>
</g>
<!-- Node16 -->
<g id="Node000016" class="node">
<title>Node16</title>
<g id="a_Node000016"><a xlink:href="classcom_1_1teragrep_1_1pth__06_1_1ast_1_1analyze_1_1FilterGroupTest.html#a36b8d42d1a4eef6a72aa653108fe6dc7" target="_top" xlink:title=" ">
<polygon fill="white" stroke="#666666" points="918.5,-150 738.5,-150 738.5,-120 918.5,-120 918.5,-150"/>
<text text-anchor="start" x="746.5" y="-138" font-family="Helvetica,sans-Serif" font-size="10.00">com.teragrep.pth_06.ast.analyze.</text>
<text text-anchor="middle" x="828.5" y="-127" font-family="Helvetica,sans-Serif" font-size="10.00">FilterGroupTest.testHostFilterList</text>
</a>
</g>
</g>
<!-- Node1&#45;&gt;Node16 -->
<g id="edge17_Node000001_Node000016" class="edge">
<title>Node1&#45;&gt;Node16</title>
<g id="a_edge17_Node000001_Node000016"><a xlink:title=" ">
<path fill="none" stroke="#63b8ff" d="M958.6,-148.56C945.35,-147.17 931.83,-145.75 918.76,-144.38"/>
<polygon fill="#63b8ff" stroke="#63b8ff" points="958.36,-152.05 968.67,-149.62 959.09,-145.09 958.36,-152.05"/>
</a>
</g>
</g>
<!-- Node17 -->
<g id="Node000017" class="node">
<title>Node17</title>
<g id="a_Node000017"><a xlink:href="classcom_1_1teragrep_1_1pth__06_1_1ast_1_1analyze_1_1FilterGroupTest.html#a2cb5e94e4528a57fc969211b80339a20" target="_top" xlink:title=" ">
<polygon fill="white" stroke="#666666" points="933,-102 724,-102 724,-72 933,-72 933,-102"/>
<text text-anchor="start" x="732" y="-90" font-family="Helvetica,sans-Serif" font-size="10.00">com.teragrep.pth_06.ast.analyze.</text>
<text text-anchor="middle" x="828.5" y="-79" font-family="Helvetica,sans-Serif" font-size="10.00">FilterGroupTest.testSourceTypeFilterList</text>
</a>
</g>
</g>
<!-- Node1&#45;&gt;Node17 -->
<g id="edge18_Node000001_Node000017" class="edge">
<title>Node1&#45;&gt;Node17</title>
<g id="a_edge18_Node000001_Node000017"><a xlink:title=" ">
<path fill="none" stroke="#63b8ff" d="M1013.24,-140.08C989.64,-130.55 960.06,-119.29 933,-111 922.51,-107.79 911.3,-104.77 900.28,-102.03"/>
<polygon fill="#63b8ff" stroke="#63b8ff" points="1012.05,-143.37 1022.63,-143.91 1014.69,-136.89 1012.05,-143.37"/>
</a>
</g>
</g>
<!-- Node3 -->
<g id="Node000003" class="node">
<title>Node3</title>
<g id="a_Node000003"><a xlink:href="classcom_1_1teragrep_1_1pth__06_1_1ast_1_1analyze_1_1PlannedScansTest.html#adb4d98866e6154141722cef12eaf9f32" target="_top" xlink:title=" ">
<polygon fill="white" stroke="#666666" points="671.5,-378 468.5,-378 468.5,-348 671.5,-348 671.5,-378"/>
<text text-anchor="start" x="476.5" y="-366" font-family="Helvetica,sans-Serif" font-size="10.00">com.teragrep.pth_06.ast.analyze.</text>
<text text-anchor="middle" x="570" y="-355" font-family="Helvetica,sans-Serif" font-size="10.00">PlannedScansTest.testHostFilterMatch</text>
</a>
</g>
</g>
<!-- Node2&#45;&gt;Node3 -->
<g id="edge3_Node000002_Node000003" class="edge">
<title>Node2&#45;&gt;Node3</title>
<g id="a_edge3_Node000002_Node000003"><a xlink:title=" ">
<path fill="none" stroke="#63b8ff" d="M805.38,-253.45C779.55,-278.31 734.41,-317.68 688,-339 680.46,-342.46 672.42,-345.43 664.23,-347.97"/>
<polygon fill="#63b8ff" stroke="#63b8ff" points="808.05,-255.74 812.76,-246.24 803.16,-250.73 808.05,-255.74"/>
</a>
</g>
</g>
<!-- Node4 -->
<g id="Node000004" class="node">
<title>Node4</title>
<g id="a_Node000004"><a xlink:href="classcom_1_1teragrep_1_1pth__06_1_1ast_1_1analyze_1_1PlannedScansTest.html#ac86de63eee157a40fc018aa7e4759926" target="_top" xlink:title=" ">
<polygon fill="white" stroke="#666666" points="675,-329.5 465,-329.5 465,-288.5 675,-288.5 675,-329.5"/>
<text text-anchor="start" x="473" y="-317.5" font-family="Helvetica,sans-Serif" font-size="10.00">com.teragrep.pth_06.ast.analyze.</text>
<text text-anchor="start" x="473" y="-306.5" font-family="Helvetica,sans-Serif" font-size="10.00">PlannedScansTest.testMultipleDirectory</text>
<text text-anchor="middle" x="570" y="-295.5" font-family="Helvetica,sans-Serif" font-size="10.00">Matches</text>
</a>
</g>
</g>
<!-- Node2&#45;&gt;Node4 -->
<g id="edge4_Node000002_Node000004" class="edge">
<title>Node2&#45;&gt;Node4</title>
<g id="a_edge4_Node000002_Node000004"><a xlink:title=" ">
<path fill="none" stroke="#63b8ff" d="M776.82,-249.54C750.49,-258.89 717.7,-270.1 688,-279 677.25,-282.22 665.89,-285.41 654.63,-288.43"/>
<polygon fill="#63b8ff" stroke="#63b8ff" points="778.34,-252.71 786.58,-246.05 775.98,-246.12 778.34,-252.71"/>
</a>
</g>
</g>
<!-- Node5 -->
<g id="Node000005" class="node">
<title>Node5</title>
<g id="a_Node000005"><a xlink:href="classcom_1_1teragrep_1_1pth__06_1_1ast_1_1analyze_1_1PlannedScansTest.html#ab953f2d7da712011a6de22709ef9f2b4" target="_top" xlink:title=" ">
<polygon fill="white" stroke="#666666" points="660,-270 480,-270 480,-240 660,-240 660,-270"/>
<text text-anchor="start" x="488" y="-258" font-family="Helvetica,sans-Serif" font-size="10.00">com.teragrep.pth_06.ast.analyze.</text>
<text text-anchor="middle" x="570" y="-247" font-family="Helvetica,sans-Serif" font-size="10.00">PlannedScansTest.testNoMatches</text>
</a>
</g>
</g>
<!-- Node2&#45;&gt;Node5 -->
<g id="edge5_Node000002_Node000005" class="edge">
<title>Node2&#45;&gt;Node5</title>
<g id="a_edge5_Node000002_Node000005"><a xlink:title=" ">
<path fill="none" stroke="#63b8ff" d="M727.96,-240.31C705.57,-242.41 681.96,-244.62 660.03,-246.67"/>
<polygon fill="#63b8ff" stroke="#63b8ff" points="728.52,-243.78 738.15,-239.36 727.87,-236.81 728.52,-243.78"/>
</a>
</g>
</g>
<!-- Node6 -->
<g id="Node000006" class="node">
<title>Node6</title>
<g id="a_Node000006"><a xlink:href="classcom_1_1teragrep_1_1pth__06_1_1ast_1_1analyze_1_1PlannedScansTest.html#a35e59be54b4f7a08041b99a19f4f39cd" target="_top" xlink:title=" ">
<polygon fill="white" stroke="#666666" points="685,-222 455,-222 455,-192 685,-192 685,-222"/>
<text text-anchor="start" x="463" y="-210" font-family="Helvetica,sans-Serif" font-size="10.00">com.teragrep.pth_06.ast.analyze.</text>
<text text-anchor="middle" x="570" y="-199" font-family="Helvetica,sans-Serif" font-size="10.00">PlannedScansTest.testSingleDirectoryMatch</text>
</a>
</g>
</g>
<!-- Node2&#45;&gt;Node6 -->
<g id="edge6_Node000002_Node000006" class="edge">
<title>Node2&#45;&gt;Node6</title>
<g id="a_edge6_Node000002_Node000006"><a xlink:title=" ">
<path fill="none" stroke="#63b8ff" d="M728.05,-221.69C714.04,-220.38 699.55,-219.03 685.3,-217.69"/>
<polygon fill="#63b8ff" stroke="#63b8ff" points="727.87,-225.19 738.15,-222.64 728.52,-218.22 727.87,-225.19"/>
</a>
</g>
</g>
<!-- Node7 -->
<g id="Node000007" class="node">
<title>Node7</title>
<g id="a_Node000007"><a xlink:href="classcom_1_1teragrep_1_1pth__06_1_1ast_1_1analyze_1_1PlannedScansTest.html#aa971026f3fd334d4addfbc9d9fbf496e" target="_top" xlink:title=" ">
<polygon fill="white" stroke="#666666" points="688,-174 452,-174 452,-144 688,-144 688,-174"/>
<text text-anchor="start" x="460" y="-162" font-family="Helvetica,sans-Serif" font-size="10.00">com.teragrep.pth_06.ast.analyze.</text>
<text text-anchor="middle" x="570" y="-151" font-family="Helvetica,sans-Serif" font-size="10.00">PlannedScansTest.testSourceTypeFilterMatch</text>
</a>
</g>
</g>
<!-- Node2&#45;&gt;Node7 -->
<g id="edge7_Node000002_Node000007" class="edge">
<title>Node2&#45;&gt;Node7</title>
<g id="a_edge7_Node000002_Node000007"><a xlink:title=" ">
<path fill="none" stroke="#63b8ff" d="M739.3,-212.87C734.06,-211.08 728.92,-209.13 724,-207 706.35,-199.37 705.75,-190.4 688,-183 679.77,-179.57 671.01,-176.61 662.12,-174.07"/>
<polygon fill="#63b8ff" stroke="#63b8ff" points="738.23,-216.2 748.82,-215.92 740.37,-209.54 738.23,-216.2"/>
</a>
</g>
</g>
<!-- Node8 -->
<g id="Node000008" class="node">
<title>Node8</title>
<g id="a_Node000008"><a xlink:href="classcom_1_1teragrep_1_1pth__06_1_1ast_1_1analyze_1_1ScanGroupExpression.html#a0e5168dad0a59965e14bbc6417498fed" target="_top" xlink:title=" ">
<polygon fill="white" stroke="#666666" points="660,-126 480,-126 480,-96 660,-96 660,-126"/>
<text text-anchor="start" x="488" y="-114" font-family="Helvetica,sans-Serif" font-size="10.00">com.teragrep.pth_06.ast.analyze.</text>
<text text-anchor="middle" x="570" y="-103" font-family="Helvetica,sans-Serif" font-size="10.00">ScanGroupExpression.value</text>
</a>
</g>
</g>
<!-- Node2&#45;&gt;Node8 -->
<g id="edge8_Node000002_Node000008" class="edge">
<title>Node2&#45;&gt;Node8</title>
<g id="a_edge8_Node000002_Node000008"><a xlink:title=" ">
<path fill="none" stroke="#63b8ff" d="M729.58,-211.01C727.66,-209.75 725.79,-208.41 724,-207 695.9,-184.85 716.38,-156.79 688,-135 679.69,-128.62 670.11,-123.83 660.08,-120.24"/>
<polygon fill="#63b8ff" stroke="#63b8ff" points="727.93,-214.09 738.34,-216.05 731.42,-208.03 727.93,-214.09"/>
</a>
</g>
</g>
<!-- Node9 -->
<g id="Node000009" class="node">
<title>Node9</title>
<g id="a_Node000009"><a xlink:href="classcom_1_1teragrep_1_1pth__06_1_1ast_1_1analyze_1_1ScanRangeCollection.html#ae559ce9b6a9ded88c7b62910bf56efbe" target="_top" xlink:title=" ">
<polygon fill="white" stroke="#666666" points="416,-222 216,-222 216,-192 416,-192 416,-222"/>
<text text-anchor="start" x="224" y="-210" font-family="Helvetica,sans-Serif" font-size="10.00">com.teragrep.pth_06.ast.analyze.</text>
<text text-anchor="middle" x="316" y="-199" font-family="Helvetica,sans-Serif" font-size="10.00">ScanRangeCollection.findScanRanges</text>
</a>
</g>
</g>
<!-- Node8&#45;&gt;Node9 -->
<g id="edge9_Node000008_Node000009" class="edge">
<title>Node8&#45;&gt;Node9</title>
<g id="a_edge9_Node000008_Node000009"><a xlink:title=" ">
<path fill="none" stroke="#63b8ff" d="M470.25,-125.67C463.86,-128.3 457.71,-131.38 452,-135 429.47,-149.27 438.27,-168.33 416,-183 410.83,-186.41 405.23,-189.33 399.4,-191.84"/>
<polygon fill="#63b8ff" stroke="#63b8ff" points="471.6,-128.9 479.75,-122.13 469.16,-122.34 471.6,-128.9"/>
</a>
</g>
</g>
<!-- Node11 -->
<g id="Node000011" class="node">
<title>Node11</title>
<g id="a_Node000011"><a xlink:href="classcom_1_1teragrep_1_1pth__06_1_1ast_1_1analyze_1_1ScanGroupExpressionTest.html#adf26305b6c1294c828bc17060a43a49d" target="_top" xlink:title=" ">
<polygon fill="white" stroke="#666666" points="413.5,-174 218.5,-174 218.5,-144 413.5,-144 413.5,-174"/>
<text text-anchor="start" x="226.5" y="-162" font-family="Helvetica,sans-Serif" font-size="10.00">com.teragrep.pth_06.ast.analyze.</text>
<text text-anchor="middle" x="316" y="-151" font-family="Helvetica,sans-Serif" font-size="10.00">ScanGroupExpressionTest.testEmpty</text>
</a>
</g>
</g>
<!-- Node8&#45;&gt;Node11 -->
<g id="edge12_Node000008_Node000011" class="edge">
<title>Node8&#45;&gt;Node11</title>
<g id="a_edge12_Node000008_Node000011"><a xlink:title=" ">
<path fill="none" stroke="#63b8ff" d="M479.97,-127.96C452.51,-133.19 422.48,-138.91 395.76,-144"/>
<polygon fill="#63b8ff" stroke="#63b8ff" points="480.79,-131.37 489.96,-126.06 479.48,-124.49 480.79,-131.37"/>
</a>
</g>
</g>
<!-- Node12 -->
<g id="Node000012" class="node">
<title>Node12</title>
<g id="a_Node000012"><a xlink:href="classcom_1_1teragrep_1_1pth__06_1_1ast_1_1analyze_1_1ScanPlanCollectionTest.html#a268359bc8ba40d91897fbe6213444601" target="_top" xlink:title=" ">
<polygon fill="white" stroke="#666666" points="407,-126 225,-126 225,-96 407,-96 407,-126"/>
<text text-anchor="start" x="233" y="-114" font-family="Helvetica,sans-Serif" font-size="10.00">com.teragrep.pth_06.ast.analyze.</text>
<text text-anchor="middle" x="316" y="-103" font-family="Helvetica,sans-Serif" font-size="10.00">ScanPlanCollectionTest.testEmpty</text>
</a>
</g>
</g>
<!-- Node8&#45;&gt;Node12 -->
<g id="edge13_Node000008_Node000012" class="edge">
<title>Node8&#45;&gt;Node12</title>
<g id="a_edge13_Node000008_Node000012"><a xlink:title=" ">
<path fill="none" stroke="#63b8ff" d="M469.78,-111C449.19,-111 427.61,-111 407.36,-111"/>
<polygon fill="#63b8ff" stroke="#63b8ff" points="469.8,-114.5 479.8,-111 469.8,-107.5 469.8,-114.5"/>
</a>
</g>
</g>
<!-- Node13 -->
<g id="Node000013" class="node">
<title>Node13</title>
<g id="a_Node000013"><a xlink:href="classcom_1_1teragrep_1_1pth__06_1_1ast_1_1analyze_1_1ScanGroupExpressionTest.html#a68727cd32a45086cd9515632edc2c2a8" target="_top" xlink:title=" ">
<polygon fill="white" stroke="#666666" points="409,-78 223,-78 223,-48 409,-48 409,-78"/>
<text text-anchor="start" x="231" y="-66" font-family="Helvetica,sans-Serif" font-size="10.00">com.teragrep.pth_06.ast.analyze.</text>
<text text-anchor="middle" x="316" y="-55" font-family="Helvetica,sans-Serif" font-size="10.00">ScanGroupExpressionTest.testHost</text>
</a>
</g>
</g>
<!-- Node8&#45;&gt;Node13 -->
<g id="edge14_Node000008_Node000013" class="edge">
<title>Node8&#45;&gt;Node13</title>
<g id="a_edge14_Node000008_Node000013"><a xlink:title=" ">
<path fill="none" stroke="#63b8ff" d="M479.97,-94.04C452.51,-88.81 422.48,-83.09 395.76,-78"/>
<polygon fill="#63b8ff" stroke="#63b8ff" points="479.48,-97.51 489.96,-95.94 480.79,-90.63 479.48,-97.51"/>
</a>
</g>
</g>
<!-- Node14 -->
<g id="Node000014" class="node">
<title>Node14</title>
<g id="a_Node000014"><a xlink:href="classcom_1_1teragrep_1_1pth__06_1_1ast_1_1analyze_1_1ScanPlanCollectionTest.html#a0d0ef932bb1fd4506e5111981517af9e" target="_top" xlink:title=" ">
<polygon fill="white" stroke="#666666" points="406,-30 226,-30 226,0 406,0 406,-30"/>
<text text-anchor="start" x="234" y="-18" font-family="Helvetica,sans-Serif" font-size="10.00">com.teragrep.pth_06.ast.analyze.</text>
<text text-anchor="middle" x="316" y="-7" font-family="Helvetica,sans-Serif" font-size="10.00">ScanPlanCollectionTest.testHost</text>
</a>
</g>
</g>
<!-- Node8&#45;&gt;Node14 -->
<g id="edge15_Node000008_Node000014" class="edge">
<title>Node8&#45;&gt;Node14</title>
<g id="a_edge15_Node000008_Node000014"><a xlink:title=" ">
<path fill="none" stroke="#63b8ff" d="M532.55,-91.28C502.09,-75.43 457.15,-53.5 416,-39 406.66,-35.71 396.67,-32.71 386.76,-30.03"/>
<polygon fill="#63b8ff" stroke="#63b8ff" points="531.03,-94.44 541.52,-95.99 534.29,-88.24 531.03,-94.44"/>
</a>
</g>
</g>
<!-- Node9&#45;&gt;Node9 -->
<g id="edge11_Node000009_Node000009" class="edge">
<title>Node9&#45;&gt;Node9</title>
<g id="a_edge11_Node000009_Node000009"><a xlink:title=" ">
<path fill="none" stroke="#63b8ff" d="M355.56,-232.6C350.15,-236.97 336.97,-240 316,-240 280.69,-240 267.45,-231.41 276.27,-222.28"/>
<polygon fill="#63b8ff" stroke="#63b8ff" points="359.06,-232.33 355.73,-222.28 352.06,-232.22 359.06,-232.33"/>
</a>
</g>
</g>
<!-- Node10 -->
<g id="Node000010" class="node">
<title>Node10</title>
<g id="a_Node000010"><a xlink:href="classcom_1_1teragrep_1_1pth__06_1_1ast_1_1analyze_1_1ScanRangeCollection.html#ac02fb349469b675390dae36c333c3de2" target="_top" xlink:title=" ">
<polygon fill="white" stroke="#666666" points="180,-222 0,-222 0,-192 180,-192 180,-222"/>
<text text-anchor="start" x="8" y="-210" font-family="Helvetica,sans-Serif" font-size="10.00">com.teragrep.pth_06.ast.analyze.</text>
<text text-anchor="middle" x="90" y="-199" font-family="Helvetica,sans-Serif" font-size="10.00">ScanRangeCollection.asList</text>
</a>
</g>
</g>
<!-- Node9&#45;&gt;Node10 -->
<g id="edge10_Node000009_Node000010" class="edge">
<title>Node9&#45;&gt;Node10</title>
<g id="a_edge10_Node000009_Node000010"><a xlink:title=" ">
<path fill="none" stroke="#63b8ff" d="M205.77,-207C197.22,-207 188.66,-207 180.27,-207"/>
<polygon fill="#63b8ff" stroke="#63b8ff" points="205.77,-210.5 215.77,-207 205.77,-203.5 205.77,-210.5"/>
</a>
</g>
</g>
</g>
</svg>
