<?xml version="1.0" encoding="UTF-8" standalone="no"?>
<!DOCTYPE svg PUBLIC "-//W3C//DTD SVG 1.1//EN"
 "http://www.w3.org/Graphics/SVG/1.1/DTD/svg11.dtd">
<!-- Generated by graphviz version 2.43.0 (0)
 -->
<!-- Title: com.teragrep.pth_06.ast.analyze.ClassifiedExpressions.hostList Pages: 1 -->
<svg width="436pt" height="182pt"
 viewBox="0.00 0.00 436.00 182.00" xmlns="http://www.w3.org/2000/svg" xmlns:xlink="http://www.w3.org/1999/xlink">
<g id="graph0" class="graph" transform="scale(1 1) rotate(0) translate(4 178)">
<title>com.teragrep.pth_06.ast.analyze.ClassifiedExpressions.hostList</title>
<!-- Node1 -->
<g id="Node000001" class="node">
<title>Node1</title>
<g id="a_Node000001"><a xlink:title=" ">
<polygon fill="#999999" stroke="#666666" points="428,-102 248,-102 248,-72 428,-72 428,-102"/>
<text text-anchor="start" x="256" y="-90" font-family="Helvetica,sans-Serif" font-size="10.00">com.teragrep.pth_06.ast.analyze.</text>
<text text-anchor="middle" x="338" y="-79" font-family="Helvetica,sans-Serif" font-size="10.00">ClassifiedExpressions.hostList</text>
</a>
</g>
</g>
<!-- Node2 -->
<g id="Node000002" class="node">
<title>Node2</title>
<g id="a_Node000002"><a xlink:href="classcom_1_1teragrep_1_1pth__06_1_1ast_1_1analyze_1_1FilterGroup.html#ae4d852bcc6a0293ec14152579942d2ce" target="_top" xlink:title=" ">
<polygon fill="white" stroke="#666666" points="196,-174 16,-174 16,-144 196,-144 196,-174"/>
<text text-anchor="start" x="24" y="-162" font-family="Helvetica,sans-Serif" font-size="10.00">com.teragrep.pth_06.ast.analyze.</text>
<text text-anchor="middle" x="106" y="-151" font-family="Helvetica,sans-Serif" font-size="10.00">FilterGroup.FilterGroup</text>
</a>
</g>
</g>
<!-- Node1&#45;&gt;Node2 -->
<g id="edge1_Node000001_Node000002" class="edge">
<title>Node1&#45;&gt;Node2</title>
<g id="a_edge1_Node000001_Node000002"><a xlink:title=" ">
<path fill="none" stroke="#63b8ff" d="M292.51,-105.85C268.87,-115.42 239.17,-126.72 212,-135 201.45,-138.21 190.18,-141.22 179.09,-143.95"/>
<polygon fill="#63b8ff" stroke="#63b8ff" points="293.97,-109.04 301.91,-102.01 291.33,-102.56 293.97,-109.04"/>
</a>
</g>
</g>
<!-- Node3 -->
<g id="Node000003" class="node">
<title>Node3</title>
<g id="a_Node000003"><a xlink:href="classcom_1_1teragrep_1_1pth__06_1_1ast_1_1analyze_1_1StreamIDGroup.html#a21a5197acd5ecdb394596a3faeee1f5d" target="_top" xlink:title=" ">
<polygon fill="white" stroke="#666666" points="196,-126 16,-126 16,-96 196,-96 196,-126"/>
<text text-anchor="start" x="24" y="-114" font-family="Helvetica,sans-Serif" font-size="10.00">com.teragrep.pth_06.ast.analyze.</text>
<text text-anchor="middle" x="106" y="-103" font-family="Helvetica,sans-Serif" font-size="10.00">StreamIDGroup.StreamIDGroup</text>
</a>
</g>
</g>
<!-- Node1&#45;&gt;Node3 -->
<g id="edge2_Node000001_Node000003" class="edge">
<title>Node1&#45;&gt;Node3</title>
<g id="a_edge2_Node000001_Node000003"><a xlink:title=" ">
<path fill="none" stroke="#63b8ff" d="M237.75,-97.36C223.94,-98.8 209.82,-100.27 196.2,-101.69"/>
<polygon fill="#63b8ff" stroke="#63b8ff" points="238.16,-100.83 247.75,-96.31 237.44,-93.87 238.16,-100.83"/>
</a>
</g>
</g>
<!-- Node4 -->
<g id="Node000004" class="node">
<title>Node4</title>
<g id="a_Node000004"><a xlink:href="classcom_1_1teragrep_1_1pth__06_1_1ast_1_1analyze_1_1ClassifiedExpressionsTest.html#a4109474e8197f3120f3b9943fac52e2a" target="_top" xlink:title=" ">
<polygon fill="white" stroke="#666666" points="212,-78 0,-78 0,-48 212,-48 212,-78"/>
<text text-anchor="start" x="8" y="-66" font-family="Helvetica,sans-Serif" font-size="10.00">com.teragrep.pth_06.ast.analyze.</text>
<text text-anchor="middle" x="106" y="-55" font-family="Helvetica,sans-Serif" font-size="10.00">ClassifiedExpressionsTest.testEmptyList</text>
</a>
</g>
</g>
<!-- Node1&#45;&gt;Node4 -->
<g id="edge3_Node000001_Node000004" class="edge">
<title>Node1&#45;&gt;Node4</title>
<g id="a_edge3_Node000001_Node000004"><a xlink:title=" ">
<path fill="none" stroke="#63b8ff" d="M237.59,-76.63C229.21,-75.75 220.72,-74.87 212.3,-73.99"/>
<polygon fill="#63b8ff" stroke="#63b8ff" points="237.44,-80.13 247.75,-77.69 238.16,-73.17 237.44,-80.13"/>
</a>
</g>
</g>
<!-- Node5 -->
<g id="Node000005" class="node">
<title>Node5</title>
<g id="a_Node000005"><a xlink:href="classcom_1_1teragrep_1_1pth__06_1_1ast_1_1analyze_1_1ClassifiedExpressionsTest.html#a1d307f18e670c5be4f4813ca0cea99c8" target="_top" xlink:title=" ">
<polygon fill="white" stroke="#666666" points="207.5,-30 4.5,-30 4.5,0 207.5,0 207.5,-30"/>
<text text-anchor="start" x="12.5" y="-18" font-family="Helvetica,sans-Serif" font-size="10.00">com.teragrep.pth_06.ast.analyze.</text>
<text text-anchor="middle" x="106" y="-7" font-family="Helvetica,sans-Serif" font-size="10.00">ClassifiedExpressionsTest.testHostList</text>
</a>
</g>
</g>
<!-- Node1&#45;&gt;Node5 -->
<g id="edge4_Node000001_Node000005" class="edge">
<title>Node1&#45;&gt;Node5</title>
<g id="a_edge4_Node000001_Node000005"><a xlink:title=" ">
<path fill="none" stroke="#63b8ff" d="M292.51,-68.15C268.87,-58.58 239.17,-47.28 212,-39 201.45,-35.79 190.18,-32.78 179.09,-30.05"/>
<polygon fill="#63b8ff" stroke="#63b8ff" points="291.33,-71.44 301.91,-71.99 293.97,-64.96 291.33,-71.44"/>
</a>
</g>
</g>
</g>
</svg>
