<?xml version="1.0" encoding="UTF-8" standalone="no"?>
<!DOCTYPE svg PUBLIC "-//W3C//DTD SVG 1.1//EN"
 "http://www.w3.org/Graphics/SVG/1.1/DTD/svg11.dtd">
<!-- Generated by graphviz version 2.43.0 (0)
 -->
<!-- Title: com.teragrep.pth_06.ast.transform.OptimizedAST.transformed Pages: 1 -->
<svg width="1144pt" height="86pt"
 viewBox="0.00 0.00 1144.00 86.00" xmlns="http://www.w3.org/2000/svg" xmlns:xlink="http://www.w3.org/1999/xlink">
<g id="graph0" class="graph" transform="scale(1 1) rotate(0) translate(4 82)">
<title>com.teragrep.pth_06.ast.transform.OptimizedAST.transformed</title>
<!-- Node1 -->
<g id="Node000001" class="node">
<title>Node1</title>
<g id="a_Node000001"><a xlink:title=" ">
<polygon fill="#999999" stroke="#666666" points="190,-54 0,-54 0,-24 190,-24 190,-54"/>
<text text-anchor="start" x="8" y="-42" font-family="Helvetica,sans-Serif" font-size="10.00">com.teragrep.pth_06.ast.transform.</text>
<text text-anchor="middle" x="95" y="-31" font-family="Helvetica,sans-Serif" font-size="10.00">OptimizedAST.transformed</text>
</a>
</g>
</g>
<!-- Node2 -->
<g id="Node000002" class="node">
<title>Node2</title>
<g id="a_Node000002"><a xlink:href="classcom_1_1teragrep_1_1pth__06_1_1ast_1_1transform_1_1OptimizedAST.html#ac4ebcab5c55182e969cd03150e96e374" target="_top" xlink:title=" ">
<polygon fill="white" stroke="#666666" points="416,-54 226,-54 226,-24 416,-24 416,-54"/>
<text text-anchor="start" x="234" y="-42" font-family="Helvetica,sans-Serif" font-size="10.00">com.teragrep.pth_06.ast.transform.</text>
<text text-anchor="middle" x="321" y="-31" font-family="Helvetica,sans-Serif" font-size="10.00">OptimizedAST.walkAndApply</text>
</a>
</g>
</g>
<!-- Node1&#45;&gt;Node2 -->
<g id="edge1_Node000001_Node000002" class="edge">
<title>Node1&#45;&gt;Node2</title>
<g id="a_edge1_Node000001_Node000002"><a xlink:title=" ">
<path fill="none" stroke="#63b8ff" d="M190.02,-39C198.54,-39 207.2,-39 215.8,-39"/>
<polygon fill="#63b8ff" stroke="#63b8ff" points="215.86,-42.5 225.86,-39 215.86,-35.5 215.86,-42.5"/>
</a>
</g>
</g>
<!-- Node2&#45;&gt;Node2 -->
<g id="edge7_Node000002_Node000002" class="edge">
<title>Node2&#45;&gt;Node2</title>
<g id="a_edge7_Node000002_Node000002"><a xlink:title=" ">
<path fill="none" stroke="#63b8ff" d="M281.27,-54.28C272.45,-63.41 285.69,-72 321,-72 341.97,-72 355.15,-68.97 360.56,-64.6"/>
<polygon fill="#63b8ff" stroke="#63b8ff" points="364.06,-64.33 360.73,-54.28 357.06,-64.22 364.06,-64.33"/>
</a>
</g>
</g>
<!-- Node3 -->
<g id="Node000003" class="node">
<title>Node3</title>
<g id="a_Node000003"><a xlink:href="classcom_1_1teragrep_1_1pth__06_1_1ast_1_1transform_1_1OptimizedAST.html#a77542c0b232d1e10e50a9846e1845b10" target="_top" xlink:title=" ">
<polygon fill="white" stroke="#666666" points="683,-54 452,-54 452,-24 683,-24 683,-54"/>
<text text-anchor="start" x="460" y="-42" font-family="Helvetica,sans-Serif" font-size="10.00">com.teragrep.pth_06.ast.transform.</text>
<text text-anchor="middle" x="567.5" y="-31" font-family="Helvetica,sans-Serif" font-size="10.00">OptimizedAST.transformedSingleExpression</text>
</a>
</g>
</g>
<!-- Node2&#45;&gt;Node3 -->
<g id="edge2_Node000002_Node000003" class="edge">
<title>Node2&#45;&gt;Node3</title>
<g id="a_edge2_Node000002_Node000003"><a xlink:title=" ">
<path fill="none" stroke="#63b8ff" d="M416.18,-39C424.59,-39 433.19,-39 441.81,-39"/>
<polygon fill="#63b8ff" stroke="#63b8ff" points="441.92,-42.5 451.92,-39 441.92,-35.5 441.92,-42.5"/>
</a>
</g>
</g>
<!-- Node4 -->
<g id="Node000004" class="node">
<title>Node4</title>
<g id="a_Node000004"><a xlink:href="classcom_1_1teragrep_1_1pth__06_1_1ast_1_1transform_1_1FlattenLogical.html#a2e1717ad6884eea7a2415aa7763eaed5" target="_top" xlink:title=" ">
<polygon fill="white" stroke="#666666" points="909,-54 719,-54 719,-24 909,-24 909,-54"/>
<text text-anchor="start" x="727" y="-42" font-family="Helvetica,sans-Serif" font-size="10.00">com.teragrep.pth_06.ast.transform.</text>
<text text-anchor="middle" x="814" y="-31" font-family="Helvetica,sans-Serif" font-size="10.00">FlattenLogical.transformed</text>
</a>
</g>
</g>
<!-- Node3&#45;&gt;Node4 -->
<g id="edge3_Node000003_Node000004" class="edge">
<title>Node3&#45;&gt;Node4</title>
<g id="a_edge3_Node000003_Node000004"><a xlink:title=" ">
<path fill="none" stroke="#63b8ff" d="M683.23,-39C691.7,-39 700.22,-39 708.62,-39"/>
<polygon fill="#63b8ff" stroke="#63b8ff" points="708.8,-42.5 718.8,-39 708.8,-35.5 708.8,-42.5"/>
</a>
</g>
</g>
<!-- Node4&#45;&gt;Node4 -->
<g id="edge6_Node000004_Node000004" class="edge">
<title>Node4&#45;&gt;Node4</title>
<g id="a_edge6_Node000004_Node000004"><a xlink:title=" ">
<path fill="none" stroke="#63b8ff" d="M774.27,-54.28C765.45,-63.41 778.69,-72 814,-72 834.97,-72 848.15,-68.97 853.56,-64.6"/>
<polygon fill="#63b8ff" stroke="#63b8ff" points="857.06,-64.33 853.73,-54.28 850.06,-64.22 857.06,-64.33"/>
</a>
</g>
</g>
<!-- Node5 -->
<g id="Node000005" class="node">
<title>Node5</title>
<g id="a_Node000005"><a xlink:href="classcom_1_1teragrep_1_1pth__06_1_1ast_1_1transform_1_1FlattenLogical.html#a3b9085857dc57e88c58a6fa5a057f103" target="_top" xlink:title=" ">
<polygon fill="white" stroke="#666666" points="1136,-78 945,-78 945,-48 1136,-48 1136,-78"/>
<text text-anchor="start" x="953" y="-66" font-family="Helvetica,sans-Serif" font-size="10.00">com.teragrep.pth_06.ast.transform.</text>
<text text-anchor="middle" x="1040.5" y="-55" font-family="Helvetica,sans-Serif" font-size="10.00">FlattenLogical.flattenedAndChildren</text>
</a>
</g>
</g>
<!-- Node4&#45;&gt;Node5 -->
<g id="edge4_Node000004_Node000005" class="edge">
<title>Node4&#45;&gt;Node5</title>
<g id="a_edge4_Node000004_Node000005"><a xlink:title=" ">
<path fill="none" stroke="#63b8ff" d="M909.23,-49.07C917.68,-49.98 926.28,-50.9 934.81,-51.81"/>
<polygon fill="#63b8ff" stroke="#63b8ff" points="934.47,-55.29 944.79,-52.87 935.22,-48.33 934.47,-55.29"/>
</a>
</g>
</g>
<!-- Node6 -->
<g id="Node000006" class="node">
<title>Node6</title>
<g id="a_Node000006"><a xlink:href="classcom_1_1teragrep_1_1pth__06_1_1ast_1_1transform_1_1FlattenLogical.html#ae0b8acc47ab74872494d07da365e303b" target="_top" xlink:title=" ">
<polygon fill="white" stroke="#666666" points="1135.5,-30 945.5,-30 945.5,0 1135.5,0 1135.5,-30"/>
<text text-anchor="start" x="953.5" y="-18" font-family="Helvetica,sans-Serif" font-size="10.00">com.teragrep.pth_06.ast.transform.</text>
<text text-anchor="middle" x="1040.5" y="-7" font-family="Helvetica,sans-Serif" font-size="10.00">FlattenLogical.flattenedOrChildren</text>
</a>
</g>
</g>
<!-- Node4&#45;&gt;Node6 -->
<g id="edge5_Node000004_Node000006" class="edge">
<title>Node4&#45;&gt;Node6</title>
<g id="a_edge5_Node000004_Node000006"><a xlink:title=" ">
<path fill="none" stroke="#63b8ff" d="M909.23,-28.93C917.77,-28.01 926.45,-27.09 935.07,-26.16"/>
<polygon fill="#63b8ff" stroke="#63b8ff" points="935.58,-29.63 945.15,-25.09 934.83,-22.67 935.58,-29.63"/>
</a>
</g>
</g>
</g>
</svg>
