<?xml version="1.0" encoding="UTF-8" standalone="no"?>
<!DOCTYPE svg PUBLIC "-//W3C//DTD SVG 1.1//EN"
 "http://www.w3.org/Graphics/SVG/1.1/DTD/svg11.dtd">
<!-- Generated by graphviz version 2.43.0 (0)
 -->
<!-- Title: com.teragrep.pth_06.ast.analyze.ScanRangeImplTest.testRangeBetweenUpdatedEarliestWithinBounds Pages: 1 -->
<svg width="454pt" height="172pt"
 viewBox="0.00 0.00 454.00 172.00" xmlns="http://www.w3.org/2000/svg" xmlns:xlink="http://www.w3.org/1999/xlink">
<g id="graph0" class="graph" transform="scale(1 1) rotate(0) translate(4 168)">
<title>com.teragrep.pth_06.ast.analyze.ScanRangeImplTest.testRangeBetweenUpdatedEarliestWithinBounds</title>
<!-- Node1 -->
<g id="Node000001" class="node">
<title>Node1</title>
<g id="a_Node000001"><a xlink:title=" ">
<polygon fill="#999999" stroke="#666666" points="207,-104.5 0,-104.5 0,-63.5 207,-63.5 207,-104.5"/>
<text text-anchor="start" x="8" y="-92.5" font-family="Helvetica,sans-Serif" font-size="10.00">com.teragrep.pth_06.ast.analyze.</text>
<text text-anchor="start" x="8" y="-81.5" font-family="Helvetica,sans-Serif" font-size="10.00">ScanRangeImplTest.testRangeBetween</text>
<text text-anchor="middle" x="103.5" y="-70.5" font-family="Helvetica,sans-Serif" font-size="10.00">UpdatedEarliestWithinBounds</text>
</a>
</g>
</g>
<!-- Node2 -->
<g id="Node000002" class="node">
<title>Node2</title>
<g id="a_Node000002"><a xlink:href="interfacecom_1_1teragrep_1_1pth__06_1_1ast_1_1analyze_1_1ScanRange.html#af3e0e62798cdf3e3f8de2b8fa8c17483" target="_top" xlink:title=" ">
<polygon fill="white" stroke="#666666" points="434.5,-164 254.5,-164 254.5,-134 434.5,-134 434.5,-164"/>
<text text-anchor="start" x="262.5" y="-152" font-family="Helvetica,sans-Serif" font-size="10.00">com.teragrep.pth_06.ast.analyze.</text>
<text text-anchor="middle" x="344.5" y="-141" font-family="Helvetica,sans-Serif" font-size="10.00">ScanRange.earliest</text>
</a>
</g>
</g>
<!-- Node1&#45;&gt;Node2 -->
<g id="edge1_Node000001_Node000002" class="edge">
<title>Node1&#45;&gt;Node2</title>
<g id="a_edge1_Node000001_Node000002"><a xlink:title=" ">
<path fill="none" stroke="#63b8ff" d="M171.22,-104.53C193.92,-111.31 219.5,-118.72 243,-125 251.16,-127.18 259.72,-129.37 268.25,-131.49"/>
<polygon fill="#63b8ff" stroke="#63b8ff" points="267.68,-134.96 278.23,-133.95 269.35,-128.16 267.68,-134.96"/>
</a>
</g>
</g>
<!-- Node3 -->
<g id="Node000003" class="node">
<title>Node3</title>
<g id="a_Node000003"><a xlink:href="interfacecom_1_1teragrep_1_1pth__06_1_1Stubbable.html#a0901c0a7cde13ff306d455e4009f01cb" target="_top" xlink:title=" ">
<polygon fill="white" stroke="#666666" points="446,-115.5 243,-115.5 243,-96.5 446,-96.5 446,-115.5"/>
<text text-anchor="middle" x="344.5" y="-103.5" font-family="Helvetica,sans-Serif" font-size="10.00">com.teragrep.pth_06.Stubbable.isStub</text>
</a>
</g>
</g>
<!-- Node1&#45;&gt;Node3 -->
<g id="edge2_Node000001_Node000003" class="edge">
<title>Node1&#45;&gt;Node3</title>
<g id="a_edge2_Node000001_Node000003"><a xlink:title=" ">
<path fill="none" stroke="#63b8ff" d="M207.24,-93.46C215.61,-94.23 224.09,-95.01 232.51,-95.78"/>
<polygon fill="#63b8ff" stroke="#63b8ff" points="232.46,-99.29 242.74,-96.72 233.1,-92.32 232.46,-99.29"/>
</a>
</g>
</g>
<!-- Node4 -->
<g id="Node000004" class="node">
<title>Node4</title>
<g id="a_Node000004"><a xlink:href="interfacecom_1_1teragrep_1_1pth__06_1_1ast_1_1analyze_1_1ScanRange.html#aa9f739fe5a03d00ccb23f407bf7c6ee5" target="_top" xlink:title=" ">
<polygon fill="white" stroke="#666666" points="434.5,-78 254.5,-78 254.5,-48 434.5,-48 434.5,-78"/>
<text text-anchor="start" x="262.5" y="-66" font-family="Helvetica,sans-Serif" font-size="10.00">com.teragrep.pth_06.ast.analyze.</text>
<text text-anchor="middle" x="344.5" y="-55" font-family="Helvetica,sans-Serif" font-size="10.00">ScanRange.latest</text>
</a>
</g>
</g>
<!-- Node1&#45;&gt;Node4 -->
<g id="edge3_Node000001_Node000004" class="edge">
<title>Node1&#45;&gt;Node4</title>
<g id="a_edge3_Node000001_Node000004"><a xlink:title=" ">
<path fill="none" stroke="#63b8ff" d="M207.24,-74.97C219.5,-73.9 232,-72.8 244.2,-71.72"/>
<polygon fill="#63b8ff" stroke="#63b8ff" points="244.72,-75.19 254.38,-70.83 244.11,-68.22 244.72,-75.19"/>
</a>
</g>
</g>
<!-- Node5 -->
<g id="Node000005" class="node">
<title>Node5</title>
<g id="a_Node000005"><a xlink:href="interfacecom_1_1teragrep_1_1pth__06_1_1ast_1_1analyze_1_1ScanRange.html#a0ecf3648dc8ca0ec9c5d47c1f7dba80f" target="_top" xlink:title="Returns stub when new range is outside the original range.">
<polygon fill="white" stroke="#666666" points="434.5,-30 254.5,-30 254.5,0 434.5,0 434.5,-30"/>
<text text-anchor="start" x="262.5" y="-18" font-family="Helvetica,sans-Serif" font-size="10.00">com.teragrep.pth_06.ast.analyze.</text>
<text text-anchor="middle" x="344.5" y="-7" font-family="Helvetica,sans-Serif" font-size="10.00">ScanRange.toRangeBetween</text>
</a>
</g>
</g>
<!-- Node1&#45;&gt;Node5 -->
<g id="edge4_Node000001_Node000005" class="edge">
<title>Node1&#45;&gt;Node5</title>
<g id="a_edge4_Node000001_Node000005"><a xlink:title=" ">
<path fill="none" stroke="#63b8ff" d="M164.17,-63.46C188.49,-55.39 216.96,-46.33 243,-39 250.94,-36.76 259.28,-34.56 267.6,-32.44"/>
<polygon fill="#63b8ff" stroke="#63b8ff" points="268.5,-35.83 277.35,-30 266.8,-29.03 268.5,-35.83"/>
</a>
</g>
</g>
</g>
</svg>
