<?xml version="1.0" encoding="UTF-8" standalone="no"?>
<!DOCTYPE svg PUBLIC "-//W3C//DTD SVG 1.1//EN"
 "http://www.w3.org/Graphics/SVG/1.1/DTD/svg11.dtd">
<!-- Generated by graphviz version 2.43.0 (0)
 -->
<!-- Title: com.teragrep.pth_06.planner.state.QueryStateImpl Pages: 1 -->
<svg width="664pt" height="134pt"
 viewBox="0.00 0.00 664.00 134.00" xmlns="http://www.w3.org/2000/svg" xmlns:xlink="http://www.w3.org/1999/xlink">
<g id="graph0" class="graph" transform="scale(1 1) rotate(0) translate(4 130)">
<title>com.teragrep.pth_06.planner.state.QueryStateImpl</title>
<!-- Node1 -->
<g id="Node000001" class="node">
<title>Node1</title>
<g id="a_Node000001"><a xlink:title=" ">
<polygon fill="#999999" stroke="#666666" points="656,-78 468,-78 468,-48 656,-48 656,-78"/>
<text text-anchor="start" x="476" y="-66" font-family="Helvetica,sans-Serif" font-size="10.00">com.teragrep.pth_06.planner.state.</text>
<text text-anchor="middle" x="562" y="-55" font-family="Helvetica,sans-Serif" font-size="10.00">QueryStateImpl</text>
</a>
</g>
</g>
<!-- Node2 -->
<g id="Node000002" class="node">
<title>Node2</title>
<g id="a_Node000002"><a xlink:href="interfacecom_1_1teragrep_1_1pth__06_1_1planner_1_1state_1_1QueryState.html" target="_top" xlink:title=" ">
<polygon fill="white" stroke="#666666" points="395,-126 207,-126 207,-96 395,-96 395,-126"/>
<text text-anchor="start" x="215" y="-114" font-family="Helvetica,sans-Serif" font-size="10.00">com.teragrep.pth_06.planner.state.</text>
<text text-anchor="middle" x="301" y="-103" font-family="Helvetica,sans-Serif" font-size="10.00">QueryState</text>
</a>
</g>
</g>
<!-- Node2&#45;&gt;Node1 -->
<g id="edge1_Node000001_Node000002" class="edge">
<title>Node2&#45;&gt;Node1</title>
<g id="a_edge1_Node000001_Node000002"><a xlink:title=" ">
<path fill="none" stroke="#63b8ff" d="M393.13,-94.11C421.46,-88.86 452.47,-83.11 480.05,-78"/>
<polygon fill="#63b8ff" stroke="#63b8ff" points="392.43,-90.68 383.24,-95.94 393.71,-97.56 392.43,-90.68"/>
</a>
</g>
</g>
<!-- Node3 -->
<g id="Node000003" class="node">
<title>Node3</title>
<g id="a_Node000003"><a xlink:href="interfacecom_1_1teragrep_1_1pth__06_1_1Stubbable.html" target="_top" xlink:title=" ">
<polygon fill="white" stroke="#666666" points="170,-72.5 0,-72.5 0,-53.5 170,-53.5 170,-72.5"/>
<text text-anchor="middle" x="85" y="-60.5" font-family="Helvetica,sans-Serif" font-size="10.00">com.teragrep.pth_06.Stubbable</text>
</a>
</g>
</g>
<!-- Node3&#45;&gt;Node2 -->
<g id="edge2_Node000002_Node000003" class="edge">
<title>Node3&#45;&gt;Node2</title>
<g id="a_edge2_Node000002_Node000003"><a xlink:title=" ">
<path fill="none" stroke="#63b8ff" d="M138.32,-74.74C166.88,-81.14 202.55,-89.14 233.11,-96"/>
<polygon fill="#63b8ff" stroke="#63b8ff" points="139.06,-71.31 128.54,-72.54 137.53,-78.14 139.06,-71.31"/>
</a>
</g>
</g>
<!-- Node4 -->
<g id="Node000004" class="node">
<title>Node4</title>
<g id="a_Node000004"><a xlink:href="interfacecom_1_1teragrep_1_1pth__06_1_1planner_1_1HourlySlices.html" target="_top" xlink:title=" ">
<polygon fill="white" stroke="#666666" points="381,-78 221,-78 221,-48 381,-48 381,-78"/>
<text text-anchor="start" x="229" y="-66" font-family="Helvetica,sans-Serif" font-size="10.00">com.teragrep.pth_06.planner.</text>
<text text-anchor="middle" x="301" y="-55" font-family="Helvetica,sans-Serif" font-size="10.00">HourlySlices</text>
</a>
</g>
</g>
<!-- Node3&#45;&gt;Node4 -->
<g id="edge4_Node000004_Node000003" class="edge">
<title>Node3&#45;&gt;Node4</title>
<g id="a_edge4_Node000004_Node000003"><a xlink:title=" ">
<path fill="none" stroke="#63b8ff" d="M180.47,-63C193.9,-63 207.59,-63 220.69,-63"/>
<polygon fill="#63b8ff" stroke="#63b8ff" points="180.27,-59.5 170.27,-63 180.27,-66.5 180.27,-59.5"/>
</a>
</g>
</g>
<!-- Node5 -->
<g id="Node000005" class="node">
<title>Node5</title>
<g id="a_Node000005"><a xlink:href="interfacecom_1_1teragrep_1_1pth__06_1_1planner_1_1LimitedResults.html" target="_top" xlink:title=" ">
<polygon fill="white" stroke="#666666" points="381,-30 221,-30 221,0 381,0 381,-30"/>
<text text-anchor="start" x="229" y="-18" font-family="Helvetica,sans-Serif" font-size="10.00">com.teragrep.pth_06.planner.</text>
<text text-anchor="middle" x="301" y="-7" font-family="Helvetica,sans-Serif" font-size="10.00">LimitedResults</text>
</a>
</g>
</g>
<!-- Node3&#45;&gt;Node5 -->
<g id="edge6_Node000005_Node000003" class="edge">
<title>Node3&#45;&gt;Node5</title>
<g id="a_edge6_Node000005_Node000003"><a xlink:title=" ">
<path fill="none" stroke="#63b8ff" d="M138.32,-51.26C166.88,-44.86 202.55,-36.86 233.11,-30"/>
<polygon fill="#63b8ff" stroke="#63b8ff" points="137.53,-47.86 128.54,-53.46 139.06,-54.69 137.53,-47.86"/>
</a>
</g>
</g>
<!-- Node4&#45;&gt;Node1 -->
<g id="edge3_Node000001_Node000004" class="edge">
<title>Node4&#45;&gt;Node1</title>
<g id="a_edge3_Node000001_Node000004"><a xlink:title=" ">
<path fill="none" stroke="#9a32cd" stroke-dasharray="5,2" d="M391.21,-63C415.94,-63 442.86,-63 467.82,-63"/>
<polygon fill="#9a32cd" stroke="#9a32cd" points="391.12,-59.5 381.12,-63 391.12,-66.5 391.12,-59.5"/>
</a>
</g>
<text text-anchor="middle" x="431.5" y="-66" font-family="Helvetica,sans-Serif" font-size="10.00" fill="grey"> slices</text>
</g>
<!-- Node5&#45;&gt;Node1 -->
<g id="edge5_Node000001_Node000005" class="edge">
<title>Node5&#45;&gt;Node1</title>
<g id="a_edge5_Node000001_Node000005"><a xlink:title=" ">
<path fill="none" stroke="#9a32cd" stroke-dasharray="5,2" d="M391.14,-31.52C419.87,-36.85 451.55,-42.72 479.68,-47.93"/>
<polygon fill="#9a32cd" stroke="#9a32cd" points="391.59,-28.04 381.12,-29.66 390.31,-34.93 391.59,-28.04"/>
</a>
</g>
<text text-anchor="middle" x="431.5" y="-44" font-family="Helvetica,sans-Serif" font-size="10.00" fill="grey"> results</text>
</g>
</g>
</svg>
