<?xml version="1.0" encoding="UTF-8" standalone="no"?>
<!DOCTYPE svg PUBLIC "-//W3C//DTD SVG 1.1//EN"
 "http://www.w3.org/Graphics/SVG/1.1/DTD/svg11.dtd">
<!-- Generated by graphviz version 2.43.0 (0)
 -->
<!-- Title: com.teragrep.pth_06.planner.BatchSizeLimitedResults.results Pages: 1 -->
<svg width="414pt" height="220pt"
 viewBox="0.00 0.00 414.00 220.00" xmlns="http://www.w3.org/2000/svg" xmlns:xlink="http://www.w3.org/1999/xlink">
<g id="graph0" class="graph" transform="scale(1 1) rotate(0) translate(4 216)">
<title>com.teragrep.pth_06.planner.BatchSizeLimitedResults.results</title>
<!-- Node1 -->
<g id="Node000001" class="node">
<title>Node1</title>
<g id="a_Node000001"><a xlink:title=" ">
<polygon fill="#999999" stroke="#666666" points="173,-116 0,-116 0,-86 173,-86 173,-116"/>
<text text-anchor="start" x="8" y="-104" font-family="Helvetica,sans-Serif" font-size="10.00">com.teragrep.pth_06.planner.</text>
<text text-anchor="middle" x="86.5" y="-93" font-family="Helvetica,sans-Serif" font-size="10.00">BatchSizeLimitedResults.results</text>
</a>
</g>
</g>
<!-- Node2 -->
<g id="Node000002" class="node">
<title>Node2</title>
<g id="a_Node000002"><a xlink:href="classcom_1_1teragrep_1_1pth__06_1_1planner_1_1BatchSizeLimit.html#a3c8b6b537a6e8ca4bc3a45f250bb9da1" target="_top" xlink:title="Accumulate the given weight and count of objects.">
<polygon fill="white" stroke="#666666" points="387.5,-212 227.5,-212 227.5,-182 387.5,-182 387.5,-212"/>
<text text-anchor="start" x="235.5" y="-200" font-family="Helvetica,sans-Serif" font-size="10.00">com.teragrep.pth_06.planner.</text>
<text text-anchor="middle" x="307.5" y="-189" font-family="Helvetica,sans-Serif" font-size="10.00">BatchSizeLimit.add</text>
</a>
</g>
</g>
<!-- Node1&#45;&gt;Node2 -->
<g id="edge1_Node000001_Node000002" class="edge">
<title>Node1&#45;&gt;Node2</title>
<g id="a_edge1_Node000001_Node000002"><a xlink:title=" ">
<path fill="none" stroke="#63b8ff" d="M108.45,-116.02C131.9,-132.2 171.55,-157.69 209,-173 214.14,-175.1 219.52,-177.05 224.98,-178.86"/>
<polygon fill="#63b8ff" stroke="#63b8ff" points="224.31,-182.31 234.9,-181.95 226.39,-175.63 224.31,-182.31"/>
</a>
</g>
</g>
<!-- Node3 -->
<g id="Node000003" class="node">
<title>Node3</title>
<g id="a_Node000003"><a xlink:href="interfacecom_1_1teragrep_1_1pth__06_1_1planner_1_1HourlySlices.html#a939046474a195cb2a911036e7ae19eac" target="_top" xlink:title=" ">
<polygon fill="white" stroke="#666666" points="387.5,-164 227.5,-164 227.5,-134 387.5,-134 387.5,-164"/>
<text text-anchor="start" x="235.5" y="-152" font-family="Helvetica,sans-Serif" font-size="10.00">com.teragrep.pth_06.planner.</text>
<text text-anchor="middle" x="307.5" y="-141" font-family="Helvetica,sans-Serif" font-size="10.00">HourlySlices.hasNext</text>
</a>
</g>
</g>
<!-- Node1&#45;&gt;Node3 -->
<g id="edge2_Node000001_Node000003" class="edge">
<title>Node1&#45;&gt;Node3</title>
<g id="a_edge2_Node000001_Node000003"><a xlink:title=" ">
<path fill="none" stroke="#63b8ff" d="M156.19,-116.06C179.02,-121.06 204.61,-126.67 228.12,-131.82"/>
<polygon fill="#63b8ff" stroke="#63b8ff" points="227.53,-135.28 238.05,-134 229.03,-128.44 227.53,-135.28"/>
</a>
</g>
</g>
<!-- Node4 -->
<g id="Node000004" class="node">
<title>Node4</title>
<g id="a_Node000004"><a xlink:href="classcom_1_1teragrep_1_1pth__06_1_1planner_1_1BatchSizeLimit.html#ac0ae9a8b12bb02236111c903eb42c2ea" target="_top" xlink:title="check if accumulated weight is over the maximum size limit OR if the accumulated count of objects is ...">
<polygon fill="white" stroke="#666666" points="387.5,-116 227.5,-116 227.5,-86 387.5,-86 387.5,-116"/>
<text text-anchor="start" x="235.5" y="-104" font-family="Helvetica,sans-Serif" font-size="10.00">com.teragrep.pth_06.planner.</text>
<text text-anchor="middle" x="307.5" y="-93" font-family="Helvetica,sans-Serif" font-size="10.00">BatchSizeLimit.isOverLimit</text>
</a>
</g>
</g>
<!-- Node1&#45;&gt;Node4 -->
<g id="edge3_Node000001_Node000004" class="edge">
<title>Node1&#45;&gt;Node4</title>
<g id="a_edge3_Node000001_Node000004"><a xlink:title=" ">
<path fill="none" stroke="#63b8ff" d="M173.11,-101C187.64,-101 202.75,-101 217.36,-101"/>
<polygon fill="#63b8ff" stroke="#63b8ff" points="217.38,-104.5 227.38,-101 217.38,-97.5 217.38,-104.5"/>
</a>
</g>
</g>
<!-- Node5 -->
<g id="Node000005" class="node">
<title>Node5</title>
<g id="a_Node000005"><a xlink:href="interfacecom_1_1teragrep_1_1pth__06_1_1Stubable.html#ac7c59dcfbcfa0218ef7bc528ef597971" target="_top" xlink:title=" ">
<polygon fill="white" stroke="#666666" points="406,-67.5 209,-67.5 209,-48.5 406,-48.5 406,-67.5"/>
<text text-anchor="middle" x="307.5" y="-55.5" font-family="Helvetica,sans-Serif" font-size="10.00">com.teragrep.pth_06.Stubable.isStub</text>
</a>
</g>
</g>
<!-- Node1&#45;&gt;Node5 -->
<g id="edge4_Node000001_Node000005" class="edge">
<title>Node1&#45;&gt;Node5</title>
<g id="a_edge4_Node000001_Node000005"><a xlink:title=" ">
<path fill="none" stroke="#63b8ff" d="M163.33,-85.99C178.45,-83.01 194.23,-79.9 209,-77 221.42,-74.56 234.73,-71.96 247.4,-69.49"/>
<polygon fill="#63b8ff" stroke="#63b8ff" points="248.25,-72.89 257.39,-67.54 246.91,-66.02 248.25,-72.89"/>
</a>
</g>
</g>
<!-- Node6 -->
<g id="Node000006" class="node">
<title>Node6</title>
<g id="a_Node000006"><a xlink:href="interfacecom_1_1teragrep_1_1pth__06_1_1planner_1_1HourlySlices.html#a78cb80b9e8a3d882a4c9c286d36ef6d5" target="_top" xlink:title=" ">
<polygon fill="white" stroke="#666666" points="387.5,-30 227.5,-30 227.5,0 387.5,0 387.5,-30"/>
<text text-anchor="start" x="235.5" y="-18" font-family="Helvetica,sans-Serif" font-size="10.00">com.teragrep.pth_06.planner.</text>
<text text-anchor="middle" x="307.5" y="-7" font-family="Helvetica,sans-Serif" font-size="10.00">HourlySlices.nextHour</text>
</a>
</g>
</g>
<!-- Node1&#45;&gt;Node6 -->
<g id="edge5_Node000001_Node000006" class="edge">
<title>Node1&#45;&gt;Node6</title>
<g id="a_edge5_Node000001_Node000006"><a xlink:title=" ">
<path fill="none" stroke="#63b8ff" d="M113.31,-86C137.42,-72.48 174.74,-52.82 209,-40 215.75,-37.47 222.86,-35.11 230.03,-32.93"/>
<polygon fill="#63b8ff" stroke="#63b8ff" points="231.21,-36.23 239.83,-30.06 229.24,-29.51 231.21,-36.23"/>
</a>
</g>
</g>
</g>
</svg>
