<?xml version="1.0" encoding="UTF-8" standalone="no"?>
<!DOCTYPE svg PUBLIC "-//W3C//DTD SVG 1.1//EN"
 "http://www.w3.org/Graphics/SVG/1.1/DTD/svg11.dtd">
<!-- Generated by graphviz version 2.43.0 (0)
 -->
<!-- Title: com.teragrep.pth_06.scheduler.Batch.processRange Pages: 1 -->
<svg width="665pt" height="254pt"
 viewBox="0.00 0.00 665.00 254.00" xmlns="http://www.w3.org/2000/svg" xmlns:xlink="http://www.w3.org/1999/xlink">
<g id="graph0" class="graph" transform="scale(1 1) rotate(0) translate(4 250)">
<title>com.teragrep.pth_06.scheduler.Batch.processRange</title>
<!-- Node1 -->
<g id="Node000001" class="node">
<title>Node1</title>
<g id="a_Node000001"><a xlink:title=" ">
<polygon fill="#999999" stroke="#666666" points="170,-126 0,-126 0,-96 170,-96 170,-126"/>
<text text-anchor="start" x="8" y="-114" font-family="Helvetica,sans-Serif" font-size="10.00">com.teragrep.pth_06.scheduler.</text>
<text text-anchor="middle" x="85" y="-103" font-family="Helvetica,sans-Serif" font-size="10.00">Batch.processRange</text>
</a>
</g>
</g>
<!-- Node1&#45;&gt;Node1 -->
<g id="edge7_Node000001_Node000001" class="edge">
<title>Node1&#45;&gt;Node1</title>
<g id="a_edge7_Node000001_Node000001"><a xlink:title=" ">
<path fill="none" stroke="#63b8ff" d="M44.22,-126.28C35.16,-135.41 48.75,-144 85,-144 106.52,-144 120.06,-140.97 125.61,-136.6"/>
<polygon fill="#63b8ff" stroke="#63b8ff" points="129.11,-136.33 125.78,-126.28 122.11,-136.22 129.11,-136.33"/>
</a>
</g>
</g>
<!-- Node2 -->
<g id="Node000002" class="node">
<title>Node2</title>
<g id="a_Node000002"><a xlink:href="classcom_1_1teragrep_1_1pth__06_1_1scheduler_1_1Batch.html#a961bcc848cc69ae0bb8a1143394b02ac" target="_top" xlink:title=" ">
<polygon fill="white" stroke="#666666" points="403,-222 233,-222 233,-192 403,-192 403,-222"/>
<text text-anchor="start" x="241" y="-210" font-family="Helvetica,sans-Serif" font-size="10.00">com.teragrep.pth_06.scheduler.</text>
<text text-anchor="middle" x="318" y="-199" font-family="Helvetica,sans-Serif" font-size="10.00">Batch.addSlice</text>
</a>
</g>
</g>
<!-- Node1&#45;&gt;Node2 -->
<g id="edge1_Node000001_Node000002" class="edge">
<title>Node1&#45;&gt;Node2</title>
<g id="a_edge1_Node000001_Node000002"><a xlink:title=" ">
<path fill="none" stroke="#63b8ff" d="M106.58,-126.24C129.65,-142.61 168.72,-168.25 206,-183 211.52,-185.18 217.28,-187.19 223.14,-189.02"/>
<polygon fill="#63b8ff" stroke="#63b8ff" points="222.5,-192.48 233.08,-191.95 224.48,-185.76 222.5,-192.48"/>
</a>
</g>
</g>
<!-- Node5 -->
<g id="Node000005" class="node">
<title>Node5</title>
<g id="a_Node000005"><a xlink:href="classcom_1_1teragrep_1_1pth__06_1_1scheduler_1_1Batch.html#a34858c2c0600116c45cb4fe2cebdbd81" target="_top" xlink:title=" ">
<polygon fill="white" stroke="#666666" points="403,-174 233,-174 233,-144 403,-144 403,-174"/>
<text text-anchor="start" x="241" y="-162" font-family="Helvetica,sans-Serif" font-size="10.00">com.teragrep.pth_06.scheduler.</text>
<text text-anchor="middle" x="318" y="-151" font-family="Helvetica,sans-Serif" font-size="10.00">Batch.getBatch</text>
</a>
</g>
</g>
<!-- Node1&#45;&gt;Node5 -->
<g id="edge4_Node000001_Node000005" class="edge">
<title>Node1&#45;&gt;Node5</title>
<g id="a_edge4_Node000001_Node000005"><a xlink:title=" ">
<path fill="none" stroke="#63b8ff" d="M158.46,-126.06C182.75,-131.1 210.01,-136.77 234.99,-141.96"/>
<polygon fill="#63b8ff" stroke="#63b8ff" points="234.3,-145.39 244.8,-144 235.72,-138.54 234.3,-145.39"/>
</a>
</g>
</g>
<!-- Node6 -->
<g id="Node000006" class="node">
<title>Node6</title>
<g id="a_Node000006"><a xlink:href="classcom_1_1teragrep_1_1pth__06_1_1scheduler_1_1HBaseBatchSliceCollection.html#adae561bfe3e7761dca9d581c23c850a3" target="_top" xlink:title=" ">
<polygon fill="white" stroke="#666666" points="427.5,-126 208.5,-126 208.5,-96 427.5,-96 427.5,-126"/>
<text text-anchor="start" x="216.5" y="-114" font-family="Helvetica,sans-Serif" font-size="10.00">com.teragrep.pth_06.scheduler.</text>
<text text-anchor="middle" x="318" y="-103" font-family="Helvetica,sans-Serif" font-size="10.00">HBaseBatchSliceCollection.processRange</text>
</a>
</g>
</g>
<!-- Node1&#45;&gt;Node6 -->
<g id="edge5_Node000001_Node000006" class="edge">
<title>Node1&#45;&gt;Node6</title>
<g id="a_edge5_Node000001_Node000006"><a xlink:title=" ">
<path fill="none" stroke="#63b8ff" d="M170.05,-111C179.14,-111 188.52,-111 197.93,-111"/>
<polygon fill="#63b8ff" stroke="#63b8ff" points="198.14,-114.5 208.14,-111 198.14,-107.5 198.14,-114.5"/>
</a>
</g>
</g>
<!-- Node7 -->
<g id="Node000007" class="node">
<title>Node7</title>
<g id="a_Node000007"><a xlink:href="classcom_1_1teragrep_1_1pth__06_1_1scheduler_1_1ArchiveBatchSliceCollection.html#a66a88238f727d70abfe56a0e15b51bac" target="_top" xlink:title=" ">
<polygon fill="white" stroke="#666666" points="430,-78 206,-78 206,-48 430,-48 430,-78"/>
<text text-anchor="start" x="214" y="-66" font-family="Helvetica,sans-Serif" font-size="10.00">com.teragrep.pth_06.scheduler.</text>
<text text-anchor="middle" x="318" y="-55" font-family="Helvetica,sans-Serif" font-size="10.00">ArchiveBatchSliceCollection.processRange</text>
</a>
</g>
</g>
<!-- Node1&#45;&gt;Node7 -->
<g id="edge6_Node000001_Node000007" class="edge">
<title>Node1&#45;&gt;Node7</title>
<g id="a_edge6_Node000001_Node000007"><a xlink:title=" ">
<path fill="none" stroke="#63b8ff" d="M158.46,-95.94C182.75,-90.9 210.01,-85.23 234.99,-80.04"/>
<polygon fill="#63b8ff" stroke="#63b8ff" points="235.72,-83.46 244.8,-78 234.3,-76.61 235.72,-83.46"/>
</a>
</g>
</g>
<!-- Node8 -->
<g id="Node000008" class="node">
<title>Node8</title>
<g id="a_Node000008"><a xlink:href="classcom_1_1teragrep_1_1pth__06_1_1scheduler_1_1KafkaBatchSliceCollection.html#a90ea5a42f2333212f3b56fc4580148e4" target="_top" xlink:title=" ">
<polygon fill="white" stroke="#666666" points="425.5,-30 210.5,-30 210.5,0 425.5,0 425.5,-30"/>
<text text-anchor="start" x="218.5" y="-18" font-family="Helvetica,sans-Serif" font-size="10.00">com.teragrep.pth_06.scheduler.</text>
<text text-anchor="middle" x="318" y="-7" font-family="Helvetica,sans-Serif" font-size="10.00">KafkaBatchSliceCollection.processRange</text>
</a>
</g>
</g>
<!-- Node1&#45;&gt;Node8 -->
<g id="edge8_Node000001_Node000008" class="edge">
<title>Node1&#45;&gt;Node8</title>
<g id="a_edge8_Node000001_Node000008"><a xlink:title=" ">
<path fill="none" stroke="#63b8ff" d="M106.58,-95.76C129.65,-79.39 168.72,-53.75 206,-39 211.52,-36.82 217.28,-34.81 223.14,-32.98"/>
<polygon fill="#63b8ff" stroke="#63b8ff" points="224.48,-36.24 233.08,-30.05 222.5,-29.52 224.48,-36.24"/>
</a>
</g>
</g>
<!-- Node3 -->
<g id="Node000003" class="node">
<title>Node3</title>
<g id="a_Node000003"><a xlink:href="classcom_1_1teragrep_1_1pth__06_1_1scheduler_1_1BatchTaskQueue.html#af45361c6f8feebc3ce8ab09fb5b4494d" target="_top" xlink:title=" ">
<polygon fill="white" stroke="#666666" points="648,-246 475,-246 475,-216 648,-216 648,-246"/>
<text text-anchor="start" x="483" y="-234" font-family="Helvetica,sans-Serif" font-size="10.00">com.teragrep.pth_06.scheduler.</text>
<text text-anchor="middle" x="561.5" y="-223" font-family="Helvetica,sans-Serif" font-size="10.00">BatchTaskQueue.getQueueTime</text>
</a>
</g>
</g>
<!-- Node2&#45;&gt;Node3 -->
<g id="edge2_Node000002_Node000003" class="edge">
<title>Node2&#45;&gt;Node3</title>
<g id="a_edge2_Node000002_Node000003"><a xlink:title=" ">
<path fill="none" stroke="#63b8ff" d="M403.13,-215.36C422.92,-217.33 444.17,-219.44 464.45,-221.45"/>
<polygon fill="#63b8ff" stroke="#63b8ff" points="464.33,-224.96 474.63,-222.47 465.02,-217.99 464.33,-224.96"/>
</a>
</g>
</g>
<!-- Node4 -->
<g id="Node000004" class="node">
<title>Node4</title>
<g id="a_Node000004"><a xlink:href="classcom_1_1teragrep_1_1pth__06_1_1scheduler_1_1BatchSlice.html#a924403c9b17d1af7ed974097ba972a65" target="_top" xlink:title=" ">
<polygon fill="white" stroke="#666666" points="646.5,-198 476.5,-198 476.5,-168 646.5,-168 646.5,-198"/>
<text text-anchor="start" x="484.5" y="-186" font-family="Helvetica,sans-Serif" font-size="10.00">com.teragrep.pth_06.scheduler.</text>
<text text-anchor="middle" x="561.5" y="-175" font-family="Helvetica,sans-Serif" font-size="10.00">BatchSlice.getSize</text>
</a>
</g>
</g>
<!-- Node2&#45;&gt;Node4 -->
<g id="edge3_Node000002_Node000004" class="edge">
<title>Node2&#45;&gt;Node4</title>
<g id="a_edge3_Node000002_Node000004"><a xlink:title=" ">
<path fill="none" stroke="#63b8ff" d="M403.13,-198.64C423.48,-196.62 445.37,-194.44 466.16,-192.38"/>
<polygon fill="#63b8ff" stroke="#63b8ff" points="466.66,-195.84 476.27,-191.37 465.97,-188.88 466.66,-195.84"/>
</a>
</g>
</g>
<!-- Node9 -->
<g id="Node000009" class="node">
<title>Node9</title>
<g id="a_Node000009"><a xlink:href="classcom_1_1teragrep_1_1pth__06_1_1scheduler_1_1KafkaBatchSliceCollection.html#a18952bff484b226ccfed89f2f3f38a83" target="_top" xlink:title=" ">
<polygon fill="white" stroke="#666666" points="657,-30 466,-30 466,0 657,0 657,-30"/>
<text text-anchor="start" x="474" y="-18" font-family="Helvetica,sans-Serif" font-size="10.00">com.teragrep.pth_06.scheduler.</text>
<text text-anchor="middle" x="561.5" y="-7" font-family="Helvetica,sans-Serif" font-size="10.00">KafkaBatchSliceCollection.generate</text>
</a>
</g>
</g>
<!-- Node8&#45;&gt;Node9 -->
<g id="edge9_Node000008_Node000009" class="edge">
<title>Node8&#45;&gt;Node9</title>
<g id="a_edge9_Node000008_Node000009"><a xlink:title=" ">
<path fill="none" stroke="#63b8ff" d="M425.63,-15C435.57,-15 445.64,-15 455.56,-15"/>
<polygon fill="#63b8ff" stroke="#63b8ff" points="455.84,-18.5 465.84,-15 455.84,-11.5 455.84,-18.5"/>
</a>
</g>
</g>
</g>
</svg>
