<?xml version="1.0" encoding="UTF-8" standalone="no"?>
<!DOCTYPE svg PUBLIC "-//W3C//DTD SVG 1.1//EN"
 "http://www.w3.org/Graphics/SVG/1.1/DTD/svg11.dtd">
<!-- Generated by graphviz version 2.43.0 (0)
 -->
<!-- Title: com.teragrep.pth_06.planner.MockDBData.getVirtualDatabaseMap Pages: 1 -->
<svg width="464pt" height="146pt"
 viewBox="0.00 0.00 464.00 145.50" xmlns="http://www.w3.org/2000/svg" xmlns:xlink="http://www.w3.org/1999/xlink">
<g id="graph0" class="graph" transform="scale(1 1) rotate(0) translate(4 141.5)">
<title>com.teragrep.pth_06.planner.MockDBData.getVirtualDatabaseMap</title>
<!-- Node1 -->
<g id="Node000001" class="node">
<title>Node1</title>
<g id="a_Node000001"><a xlink:title=" ">
<polygon fill="#999999" stroke="#666666" points="456,-89.5 257,-89.5 257,-59.5 456,-59.5 456,-89.5"/>
<text text-anchor="start" x="265" y="-77.5" font-family="Helvetica,sans-Serif" font-size="10.00">com.teragrep.pth_06.planner.</text>
<text text-anchor="middle" x="356.5" y="-66.5" font-family="Helvetica,sans-Serif" font-size="10.00">MockDBData.getVirtualDatabaseMap</text>
</a>
</g>
</g>
<!-- Node2 -->
<g id="Node000002" class="node">
<title>Node2</title>
<g id="a_Node000002"><a xlink:href="classcom_1_1teragrep_1_1pth__06_1_1planner_1_1HBaseQueryImplTest.html#a805c338639cb8d3850b7007c6513db90" target="_top" xlink:title=" ">
<polygon fill="white" stroke="#666666" points="198.5,-137.5 22.5,-137.5 22.5,-107.5 198.5,-107.5 198.5,-137.5"/>
<text text-anchor="start" x="30.5" y="-125.5" font-family="Helvetica,sans-Serif" font-size="10.00">com.teragrep.pth_06.planner.</text>
<text text-anchor="middle" x="110.5" y="-114.5" font-family="Helvetica,sans-Serif" font-size="10.00">HBaseQueryImplTest.beforeEach</text>
</a>
</g>
</g>
<!-- Node1&#45;&gt;Node2 -->
<g id="edge1_Node000001_Node000002" class="edge">
<title>Node1&#45;&gt;Node2</title>
<g id="a_edge1_Node000001_Node000002"><a xlink:title=" ">
<path fill="none" stroke="#63b8ff" d="M268.94,-91.53C242.45,-96.74 213.52,-102.43 187.76,-107.5"/>
<polygon fill="#63b8ff" stroke="#63b8ff" points="269.83,-94.92 278.97,-89.56 268.48,-88.05 269.83,-94.92"/>
</a>
</g>
</g>
<!-- Node3 -->
<g id="Node000003" class="node">
<title>Node3</title>
<g id="a_Node000003"><a xlink:href="classcom_1_1teragrep_1_1pth__06_1_1planner_1_1HourlyViewsSlicesTest.html#abf7f8a1e5c773e0ed50d55b28f007789" target="_top" xlink:title=" ">
<polygon fill="white" stroke="#666666" points="202.5,-89.5 18.5,-89.5 18.5,-59.5 202.5,-59.5 202.5,-89.5"/>
<text text-anchor="start" x="26.5" y="-77.5" font-family="Helvetica,sans-Serif" font-size="10.00">com.teragrep.pth_06.planner.</text>
<text text-anchor="middle" x="110.5" y="-66.5" font-family="Helvetica,sans-Serif" font-size="10.00">HourlyViewsSlicesTest.beforeEach</text>
</a>
</g>
</g>
<!-- Node1&#45;&gt;Node3 -->
<g id="edge2_Node000001_Node000003" class="edge">
<title>Node1&#45;&gt;Node3</title>
<g id="a_edge2_Node000001_Node000003"><a xlink:title=" ">
<path fill="none" stroke="#63b8ff" d="M246.78,-74.5C231.99,-74.5 216.95,-74.5 202.52,-74.5"/>
<polygon fill="#63b8ff" stroke="#63b8ff" points="246.96,-78 256.96,-74.5 246.96,-71 246.96,-78"/>
</a>
</g>
</g>
<!-- Node4 -->
<g id="Node000004" class="node">
<title>Node4</title>
<g id="a_Node000004"><a xlink:href="classcom_1_1teragrep_1_1pth__06_1_1planner_1_1MockArchiveQueryProcessor.html#af6c640e69ff5530b0052f846a8a1f676" target="_top" xlink:title=" ">
<polygon fill="white" stroke="#666666" points="221,-41 0,-41 0,0 221,0 221,-41"/>
<text text-anchor="start" x="8" y="-29" font-family="Helvetica,sans-Serif" font-size="10.00">com.teragrep.pth_06.planner.</text>
<text text-anchor="start" x="8" y="-18" font-family="Helvetica,sans-Serif" font-size="10.00">MockArchiveQueryProcessor.MockArchive</text>
<text text-anchor="middle" x="110.5" y="-7" font-family="Helvetica,sans-Serif" font-size="10.00">QueryProcessor</text>
</a>
</g>
</g>
<!-- Node1&#45;&gt;Node4 -->
<g id="edge3_Node000001_Node000004" class="edge">
<title>Node1&#45;&gt;Node4</title>
<g id="a_edge3_Node000001_Node000004"><a xlink:title=" ">
<path fill="none" stroke="#63b8ff" d="M277.68,-57.28C254.3,-52.1 228.42,-46.38 204.18,-41.01"/>
<polygon fill="#63b8ff" stroke="#63b8ff" points="277.01,-60.71 287.53,-59.46 278.52,-53.88 277.01,-60.71"/>
</a>
</g>
</g>
</g>
</svg>
