<?xml version="1.0" encoding="UTF-8" standalone="no"?>
<!DOCTYPE svg PUBLIC "-//W3C//DTD SVG 1.1//EN"
 "http://www.w3.org/Graphics/SVG/1.1/DTD/svg11.dtd">
<!-- Generated by graphviz version 2.43.0 (0)
 -->
<!-- Title: com.teragrep.pth_06.ast.analyze.ClassifiedXMLValueExpressions.latestList Pages: 1 -->
<svg width="473pt" height="157pt"
 viewBox="0.00 0.00 473.00 156.50" xmlns="http://www.w3.org/2000/svg" xmlns:xlink="http://www.w3.org/1999/xlink">
<g id="graph0" class="graph" transform="scale(1 1) rotate(0) translate(4 152.5)">
<title>com.teragrep.pth_06.ast.analyze.ClassifiedXMLValueExpressions.latestList</title>
<!-- Node1 -->
<g id="Node000001" class="node">
<title>Node1</title>
<g id="a_Node000001"><a xlink:title=" ">
<polygon fill="#999999" stroke="#666666" points="465,-94.5 247,-94.5 247,-64.5 465,-64.5 465,-94.5"/>
<text text-anchor="start" x="255" y="-82.5" font-family="Helvetica,sans-Serif" font-size="10.00">com.teragrep.pth_06.ast.analyze.</text>
<text text-anchor="middle" x="356" y="-71.5" font-family="Helvetica,sans-Serif" font-size="10.00">ClassifiedXMLValueExpressions.latestList</text>
</a>
</g>
</g>
<!-- Node2 -->
<g id="Node000002" class="node">
<title>Node2</title>
<g id="a_Node000002"><a xlink:href="classcom_1_1teragrep_1_1pth__06_1_1ast_1_1analyze_1_1ScanTimeQualifiers.html#a56c583e4ce9e4f3d169f969e049221c4" target="_top" xlink:title=" ">
<polygon fill="white" stroke="#666666" points="210,-148.5 1,-148.5 1,-118.5 210,-118.5 210,-148.5"/>
<text text-anchor="start" x="9" y="-136.5" font-family="Helvetica,sans-Serif" font-size="10.00">com.teragrep.pth_06.ast.analyze.</text>
<text text-anchor="middle" x="105.5" y="-125.5" font-family="Helvetica,sans-Serif" font-size="10.00">ScanTimeQualifiers.ScanTimeQualifiers</text>
</a>
</g>
</g>
<!-- Node1&#45;&gt;Node2 -->
<g id="edge1_Node000001_Node000002" class="edge">
<title>Node1&#45;&gt;Node2</title>
<g id="a_edge1_Node000001_Node000002"><a xlink:title=" ">
<path fill="none" stroke="#63b8ff" d="M275.95,-96.68C243.77,-103.67 206.89,-111.68 175.78,-118.45"/>
<polygon fill="#63b8ff" stroke="#63b8ff" points="276.75,-100.09 285.78,-94.54 275.26,-93.25 276.75,-100.09"/>
</a>
</g>
</g>
<!-- Node3 -->
<g id="Node000003" class="node">
<title>Node3</title>
<g id="a_Node000003"><a xlink:href="classcom_1_1teragrep_1_1pth__06_1_1ast_1_1analyze_1_1ClassifiedXMLValueExpressionsTest.html#a80e05202d14981a3ca9ab9b0b734974f" target="_top" xlink:title=" ">
<polygon fill="white" stroke="#666666" points="211,-100 0,-100 0,-59 211,-59 211,-100"/>
<text text-anchor="start" x="8" y="-88" font-family="Helvetica,sans-Serif" font-size="10.00">com.teragrep.pth_06.ast.analyze.</text>
<text text-anchor="start" x="8" y="-77" font-family="Helvetica,sans-Serif" font-size="10.00">ClassifiedXMLValueExpressionsTest.test</text>
<text text-anchor="middle" x="105.5" y="-66" font-family="Helvetica,sans-Serif" font-size="10.00">EmptyList</text>
</a>
</g>
</g>
<!-- Node1&#45;&gt;Node3 -->
<g id="edge2_Node000001_Node000003" class="edge">
<title>Node1&#45;&gt;Node3</title>
<g id="a_edge2_Node000001_Node000003"><a xlink:title=" ">
<path fill="none" stroke="#63b8ff" d="M236.48,-79.5C228.06,-79.5 219.6,-79.5 211.26,-79.5"/>
<polygon fill="#63b8ff" stroke="#63b8ff" points="236.73,-83 246.73,-79.5 236.73,-76 236.73,-83"/>
</a>
</g>
</g>
<!-- Node4 -->
<g id="Node000004" class="node">
<title>Node4</title>
<g id="a_Node000004"><a xlink:href="classcom_1_1teragrep_1_1pth__06_1_1ast_1_1analyze_1_1ClassifiedXMLValueExpressionsTest.html#a68063d423ac469001569849b4b5c83b8" target="_top" xlink:title=" ">
<polygon fill="white" stroke="#666666" points="211,-41 0,-41 0,0 211,0 211,-41"/>
<text text-anchor="start" x="8" y="-29" font-family="Helvetica,sans-Serif" font-size="10.00">com.teragrep.pth_06.ast.analyze.</text>
<text text-anchor="start" x="8" y="-18" font-family="Helvetica,sans-Serif" font-size="10.00">ClassifiedXMLValueExpressionsTest.test</text>
<text text-anchor="middle" x="105.5" y="-7" font-family="Helvetica,sans-Serif" font-size="10.00">LatestList</text>
</a>
</g>
</g>
<!-- Node1&#45;&gt;Node4 -->
<g id="edge3_Node000001_Node000004" class="edge">
<title>Node1&#45;&gt;Node4</title>
<g id="a_edge3_Node000001_Node000004"><a xlink:title=" ">
<path fill="none" stroke="#63b8ff" d="M281.62,-62.08C253.87,-55.49 222.03,-47.93 193.17,-41.08"/>
<polygon fill="#63b8ff" stroke="#63b8ff" points="281.11,-65.55 291.65,-64.46 282.73,-58.74 281.11,-65.55"/>
</a>
</g>
</g>
</g>
</svg>
