<?xml version="1.0" encoding="UTF-8" standalone="no"?>
<!DOCTYPE svg PUBLIC "-//W3C//DTD SVG 1.1//EN"
 "http://www.w3.org/Graphics/SVG/1.1/DTD/svg11.dtd">
<!-- Generated by graphviz version 2.43.0 (0)
 -->
<!-- Title: com.teragrep.pth_06.ast.analyze.ScanRangeCollection.findScanRanges Pages: 1 -->
<svg width="868pt" height="308pt"
 viewBox="0.00 0.00 868.00 308.00" xmlns="http://www.w3.org/2000/svg" xmlns:xlink="http://www.w3.org/1999/xlink">
<g id="graph0" class="graph" transform="scale(1 1) rotate(0) translate(4 304)">
<title>com.teragrep.pth_06.ast.analyze.ScanRangeCollection.findScanRanges</title>
<!-- Node1 -->
<g id="Node000001" class="node">
<title>Node1</title>
<g id="a_Node000001"><a xlink:title=" ">
<polygon fill="#999999" stroke="#666666" points="200,-228 0,-228 0,-198 200,-198 200,-228"/>
<text text-anchor="start" x="8" y="-216" font-family="Helvetica,sans-Serif" font-size="10.00">com.teragrep.pth_06.ast.analyze.</text>
<text text-anchor="middle" x="100" y="-205" font-family="Helvetica,sans-Serif" font-size="10.00">ScanRangeCollection.findScanRanges</text>
</a>
</g>
</g>
<!-- Node1&#45;&gt;Node1 -->
<g id="edge3_Node000001_Node000001" class="edge">
<title>Node1&#45;&gt;Node1</title>
<g id="a_edge3_Node000001_Node000001"><a xlink:title=" ">
<path fill="none" stroke="#63b8ff" d="M60.27,-228.28C51.45,-237.41 64.69,-246 100,-246 120.97,-246 134.15,-242.97 139.56,-238.6"/>
<polygon fill="#63b8ff" stroke="#63b8ff" points="143.06,-238.33 139.73,-228.28 136.06,-238.22 143.06,-238.33"/>
</a>
</g>
</g>
<!-- Node2 -->
<g id="Node000002" class="node">
<title>Node2</title>
<g id="a_Node000002"><a xlink:href="interfacecom_1_1teragrep_1_1pth__06_1_1ast_1_1Expression.html#a17e7d33905be57c6e22e1717da6ddef6" target="_top" xlink:title=" ">
<polygon fill="white" stroke="#666666" points="395.5,-300 256.5,-300 256.5,-270 395.5,-270 395.5,-300"/>
<text text-anchor="start" x="264.5" y="-288" font-family="Helvetica,sans-Serif" font-size="10.00">com.teragrep.pth_06.ast.</text>
<text text-anchor="middle" x="326" y="-277" font-family="Helvetica,sans-Serif" font-size="10.00">Expression.asLogical</text>
</a>
</g>
</g>
<!-- Node1&#45;&gt;Node2 -->
<g id="edge1_Node000001_Node000002" class="edge">
<title>Node1&#45;&gt;Node2</title>
<g id="a_edge1_Node000001_Node000002"><a xlink:title=" ">
<path fill="none" stroke="#63b8ff" d="M140.6,-228C167.36,-237.91 203.59,-250.88 236,-261 242.57,-263.05 249.44,-265.09 256.33,-267.06"/>
<polygon fill="#63b8ff" stroke="#63b8ff" points="255.83,-270.56 266.41,-269.9 257.73,-263.82 255.83,-270.56"/>
</a>
</g>
</g>
<!-- Node3 -->
<g id="Node000003" class="node">
<title>Node3</title>
<g id="a_Node000003"><a xlink:href="interfacecom_1_1teragrep_1_1pth__06_1_1ast_1_1LogicalExpression.html#aeaf8fe296c6899792f345659a9a6c0c4" target="_top" xlink:title=" ">
<polygon fill="white" stroke="#666666" points="399,-252 253,-252 253,-222 399,-222 399,-252"/>
<text text-anchor="start" x="261" y="-240" font-family="Helvetica,sans-Serif" font-size="10.00">com.teragrep.pth_06.ast.</text>
<text text-anchor="middle" x="326" y="-229" font-family="Helvetica,sans-Serif" font-size="10.00">LogicalExpression.children</text>
</a>
</g>
</g>
<!-- Node1&#45;&gt;Node3 -->
<g id="edge2_Node000001_Node000003" class="edge">
<title>Node1&#45;&gt;Node3</title>
<g id="a_edge2_Node000001_Node000003"><a xlink:title=" ">
<path fill="none" stroke="#63b8ff" d="M200.23,-223.63C214.45,-225.16 228.94,-226.71 242.79,-228.19"/>
<polygon fill="#63b8ff" stroke="#63b8ff" points="242.42,-231.67 252.74,-229.26 243.17,-224.71 242.42,-231.67"/>
</a>
</g>
</g>
<!-- Node4 -->
<g id="Node000004" class="node">
<title>Node4</title>
<g id="a_Node000004"><a xlink:href="interfacecom_1_1teragrep_1_1pth__06_1_1ast_1_1Expression.html#a65ee7f5fb98e4129018f467a53586842" target="_top" xlink:title=" ">
<polygon fill="white" stroke="#666666" points="395.5,-204 256.5,-204 256.5,-174 395.5,-174 395.5,-204"/>
<text text-anchor="start" x="264.5" y="-192" font-family="Helvetica,sans-Serif" font-size="10.00">com.teragrep.pth_06.ast.</text>
<text text-anchor="middle" x="326" y="-181" font-family="Helvetica,sans-Serif" font-size="10.00">Expression.isLogical</text>
</a>
</g>
</g>
<!-- Node1&#45;&gt;Node4 -->
<g id="edge4_Node000001_Node000004" class="edge">
<title>Node1&#45;&gt;Node4</title>
<g id="a_edge4_Node000001_Node000004"><a xlink:title=" ">
<path fill="none" stroke="#63b8ff" d="M200.23,-202.37C215.63,-200.72 231.36,-199.03 246.23,-197.44"/>
<polygon fill="#63b8ff" stroke="#63b8ff" points="246.8,-200.9 256.37,-196.35 246.06,-193.94 246.8,-200.9"/>
</a>
</g>
</g>
<!-- Node5 -->
<g id="Node000005" class="node">
<title>Node5</title>
<g id="a_Node000005"><a xlink:href="classcom_1_1teragrep_1_1pth__06_1_1ast_1_1analyze_1_1ScanGroupExpression.html#a0e5168dad0a59965e14bbc6417498fed" target="_top" xlink:title=" ">
<polygon fill="white" stroke="#666666" points="416,-156 236,-156 236,-126 416,-126 416,-156"/>
<text text-anchor="start" x="244" y="-144" font-family="Helvetica,sans-Serif" font-size="10.00">com.teragrep.pth_06.ast.analyze.</text>
<text text-anchor="middle" x="326" y="-133" font-family="Helvetica,sans-Serif" font-size="10.00">ScanGroupExpression.value</text>
</a>
</g>
</g>
<!-- Node1&#45;&gt;Node5 -->
<g id="edge5_Node000001_Node000005" class="edge">
<title>Node1&#45;&gt;Node5</title>
<g id="a_edge5_Node000001_Node000005"><a xlink:title=" ">
<path fill="none" stroke="#63b8ff" d="M140.6,-198C167.36,-188.09 203.59,-175.12 236,-165 242.57,-162.95 249.44,-160.91 256.33,-158.94"/>
<polygon fill="#63b8ff" stroke="#63b8ff" points="257.73,-162.18 266.41,-156.1 255.83,-155.44 257.73,-162.18"/>
</a>
</g>
</g>
<!-- Node6 -->
<g id="Node000006" class="node">
<title>Node6</title>
<g id="a_Node000006"><a xlink:href="classcom_1_1teragrep_1_1pth__06_1_1ast_1_1MergeIntersectingPlans.html#ac9312d6b24005eae4d9924660ca33a47" target="_top" xlink:title=" ">
<polygon fill="white" stroke="#666666" points="628,-188.5 456,-188.5 456,-147.5 628,-147.5 628,-188.5"/>
<text text-anchor="start" x="464" y="-176.5" font-family="Helvetica,sans-Serif" font-size="10.00">com.teragrep.pth_06.ast.</text>
<text text-anchor="start" x="464" y="-165.5" font-family="Helvetica,sans-Serif" font-size="10.00">MergeIntersectingPlans.merged</text>
<text text-anchor="middle" x="542" y="-154.5" font-family="Helvetica,sans-Serif" font-size="10.00">Ranges</text>
</a>
</g>
</g>
<!-- Node5&#45;&gt;Node6 -->
<g id="edge6_Node000005_Node000006" class="edge">
<title>Node5&#45;&gt;Node6</title>
<g id="a_edge6_Node000005_Node000006"><a xlink:title=" ">
<path fill="none" stroke="#63b8ff" d="M416.21,-152.25C425.91,-153.48 435.81,-154.73 445.59,-155.96"/>
<polygon fill="#63b8ff" stroke="#63b8ff" points="445.35,-159.46 455.71,-157.24 446.23,-152.52 445.35,-159.46"/>
</a>
</g>
</g>
<!-- Node7 -->
<g id="Node000007" class="node">
<title>Node7</title>
<g id="a_Node000007"><a xlink:href="classcom_1_1teragrep_1_1pth__06_1_1ast_1_1analyze_1_1PlannedScans.html#ad6dfe7529bfdfc03de991c95e194e0fe" target="_top" xlink:title=" ">
<polygon fill="white" stroke="#666666" points="632,-129 452,-129 452,-99 632,-99 632,-129"/>
<text text-anchor="start" x="460" y="-117" font-family="Helvetica,sans-Serif" font-size="10.00">com.teragrep.pth_06.ast.analyze.</text>
<text text-anchor="middle" x="542" y="-106" font-family="Helvetica,sans-Serif" font-size="10.00">PlannedScans.planListForGroup</text>
</a>
</g>
</g>
<!-- Node5&#45;&gt;Node7 -->
<g id="edge7_Node000005_Node000007" class="edge">
<title>Node5&#45;&gt;Node7</title>
<g id="a_edge7_Node000005_Node000007"><a xlink:title=" ">
<path fill="none" stroke="#63b8ff" d="M416.21,-129.75C424.7,-128.67 433.34,-127.58 441.92,-126.5"/>
<polygon fill="#63b8ff" stroke="#63b8ff" points="442.46,-129.96 451.94,-125.24 441.58,-123.02 442.46,-129.96"/>
</a>
</g>
</g>
<!-- Node8 -->
<g id="Node000008" class="node">
<title>Node8</title>
<g id="a_Node000008"><a xlink:href="classcom_1_1teragrep_1_1pth__06_1_1ast_1_1analyze_1_1StreamIDGroup.html#a429db1dbf66f77a975f929fa85179f87" target="_top" xlink:title=" ">
<polygon fill="white" stroke="#666666" points="860,-228 668,-228 668,-198 860,-198 860,-228"/>
<text text-anchor="start" x="676" y="-216" font-family="Helvetica,sans-Serif" font-size="10.00">com.teragrep.pth_06.ast.analyze.</text>
<text text-anchor="middle" x="764" y="-205" font-family="Helvetica,sans-Serif" font-size="10.00">StreamIDGroup.combinedStreamIds</text>
</a>
</g>
</g>
<!-- Node7&#45;&gt;Node8 -->
<g id="edge8_Node000007_Node000008" class="edge">
<title>Node7&#45;&gt;Node8</title>
<g id="a_edge8_Node000007_Node000008"><a xlink:title=" ">
<path fill="none" stroke="#63b8ff" d="M614.02,-129.1C620.37,-131.87 626.48,-135.14 632,-139 654.44,-154.69 645.36,-173.6 668,-189 670.29,-190.56 672.68,-192.02 675.14,-193.38"/>
<polygon fill="#63b8ff" stroke="#63b8ff" points="673.81,-196.63 684.33,-197.92 676.91,-190.35 673.81,-196.63"/>
</a>
</g>
</g>
<!-- Node9 -->
<g id="Node000009" class="node">
<title>Node9</title>
<g id="a_Node000009"><a xlink:href="classcom_1_1teragrep_1_1pth__06_1_1ast_1_1analyze_1_1ScanTimeQualifiers.html#a82cd78430e3cda656d0cadbfaf5295a5" target="_top" xlink:title=" ">
<polygon fill="white" stroke="#666666" points="854,-162 674,-162 674,-132 854,-132 854,-162"/>
<text text-anchor="start" x="682" y="-150" font-family="Helvetica,sans-Serif" font-size="10.00">com.teragrep.pth_06.ast.analyze.</text>
<text text-anchor="middle" x="764" y="-139" font-family="Helvetica,sans-Serif" font-size="10.00">ScanTimeQualifiers.earliest</text>
</a>
</g>
</g>
<!-- Node7&#45;&gt;Node9 -->
<g id="edge9_Node000007_Node000009" class="edge">
<title>Node7&#45;&gt;Node9</title>
<g id="a_edge9_Node000007_Node000009"><a xlink:title=" ">
<path fill="none" stroke="#63b8ff" d="M632.17,-127.37C642.55,-128.93 653.18,-130.53 663.69,-132.1"/>
<polygon fill="#63b8ff" stroke="#63b8ff" points="663.3,-135.58 673.71,-133.61 664.34,-128.66 663.3,-135.58"/>
</a>
</g>
</g>
<!-- Node10 -->
<g id="Node000010" class="node">
<title>Node10</title>
<g id="a_Node000010"><a xlink:href="classcom_1_1teragrep_1_1pth__06_1_1ast_1_1analyze_1_1FilterGroup.html#abca0dfe17ffff99e035f7136c075c661" target="_top" xlink:title=" ">
<polygon fill="white" stroke="#666666" points="854,-96 674,-96 674,-66 854,-66 854,-96"/>
<text text-anchor="start" x="682" y="-84" font-family="Helvetica,sans-Serif" font-size="10.00">com.teragrep.pth_06.ast.analyze.</text>
<text text-anchor="middle" x="764" y="-73" font-family="Helvetica,sans-Serif" font-size="10.00">FilterGroup.filterList</text>
</a>
</g>
</g>
<!-- Node7&#45;&gt;Node10 -->
<g id="edge11_Node000007_Node000010" class="edge">
<title>Node7&#45;&gt;Node10</title>
<g id="a_edge11_Node000007_Node000010"><a xlink:title=" ">
<path fill="none" stroke="#63b8ff" d="M632.17,-100.63C642.55,-99.07 653.18,-97.47 663.69,-95.9"/>
<polygon fill="#63b8ff" stroke="#63b8ff" points="664.34,-99.34 673.71,-94.39 663.3,-92.42 664.34,-99.34"/>
</a>
</g>
</g>
<!-- Node11 -->
<g id="Node000011" class="node">
<title>Node11</title>
<g id="a_Node000011"><a xlink:href="classcom_1_1teragrep_1_1pth__06_1_1ast_1_1analyze_1_1ScanTimeQualifiers.html#a99388aed3186adf2e10b2317b5565833" target="_top" xlink:title=" ">
<polygon fill="white" stroke="#666666" points="854,-30 674,-30 674,0 854,0 854,-30"/>
<text text-anchor="start" x="682" y="-18" font-family="Helvetica,sans-Serif" font-size="10.00">com.teragrep.pth_06.ast.analyze.</text>
<text text-anchor="middle" x="764" y="-7" font-family="Helvetica,sans-Serif" font-size="10.00">ScanTimeQualifiers.latest</text>
</a>
</g>
</g>
<!-- Node7&#45;&gt;Node11 -->
<g id="edge13_Node000007_Node000011" class="edge">
<title>Node7&#45;&gt;Node11</title>
<g id="a_edge13_Node000007_Node000011"><a xlink:title=" ">
<path fill="none" stroke="#63b8ff" d="M575.85,-98.89C601.03,-87.35 636.67,-71.07 668,-57 684.78,-49.47 703.26,-41.27 719.44,-34.13"/>
<polygon fill="#63b8ff" stroke="#63b8ff" points="720.92,-37.3 728.66,-30.07 718.1,-30.9 720.92,-37.3"/>
</a>
</g>
</g>
<!-- Node9&#45;&gt;Node9 -->
<g id="edge10_Node000009_Node000009" class="edge">
<title>Node9&#45;&gt;Node9</title>
<g id="a_edge10_Node000009_Node000009"><a xlink:title=" ">
<path fill="none" stroke="#63b8ff" d="M724.98,-162.28C716.3,-171.41 729.31,-180 764,-180 784.6,-180 797.55,-176.97 802.86,-172.6"/>
<polygon fill="#63b8ff" stroke="#63b8ff" points="806.36,-172.33 803.02,-162.28 799.36,-172.22 806.36,-172.33"/>
</a>
</g>
</g>
<!-- Node10&#45;&gt;Node10 -->
<g id="edge12_Node000010_Node000010" class="edge">
<title>Node10&#45;&gt;Node10</title>
<g id="a_edge12_Node000010_Node000010"><a xlink:title=" ">
<path fill="none" stroke="#63b8ff" d="M724.98,-96.28C716.3,-105.41 729.31,-114 764,-114 784.6,-114 797.55,-110.97 802.86,-106.6"/>
<polygon fill="#63b8ff" stroke="#63b8ff" points="806.36,-106.33 803.02,-96.28 799.36,-106.22 806.36,-106.33"/>
</a>
</g>
</g>
<!-- Node11&#45;&gt;Node11 -->
<g id="edge14_Node000011_Node000011" class="edge">
<title>Node11&#45;&gt;Node11</title>
<g id="a_edge14_Node000011_Node000011"><a xlink:title=" ">
<path fill="none" stroke="#63b8ff" d="M724.98,-30.28C716.3,-39.41 729.31,-48 764,-48 784.6,-48 797.55,-44.97 802.86,-40.6"/>
<polygon fill="#63b8ff" stroke="#63b8ff" points="806.36,-40.33 803.02,-30.28 799.36,-40.22 806.36,-40.33"/>
</a>
</g>
</g>
</g>
</svg>
