<?xml version="1.0" encoding="UTF-8" standalone="no"?>
<!DOCTYPE svg PUBLIC "-//W3C//DTD SVG 1.1//EN"
 "http://www.w3.org/Graphics/SVG/1.1/DTD/svg11.dtd">
<!-- Generated by graphviz version 2.43.0 (0)
 -->
<!-- Title: com.teragrep.pth_06.planner.HourlyViewsSlicesTest.beforeEach Pages: 1 -->
<svg width="584pt" height="60pt"
 viewBox="0.00 0.00 584.00 60.00" xmlns="http://www.w3.org/2000/svg" xmlns:xlink="http://www.w3.org/1999/xlink">
<g id="graph0" class="graph" transform="scale(1 1) rotate(0) translate(4 56)">
<title>com.teragrep.pth_06.planner.HourlyViewsSlicesTest.beforeEach</title>
<!-- Node1 -->
<g id="Node000001" class="node">
<title>Node1</title>
<g id="a_Node000001"><a xlink:title=" ">
<polygon fill="#999999" stroke="#666666" points="184,-30 0,-30 0,0 184,0 184,-30"/>
<text text-anchor="start" x="8" y="-18" font-family="Helvetica,sans-Serif" font-size="10.00">com.teragrep.pth_06.planner.</text>
<text text-anchor="middle" x="92" y="-7" font-family="Helvetica,sans-Serif" font-size="10.00">HourlyViewsSlicesTest.beforeEach</text>
</a>
</g>
</g>
<!-- Node2 -->
<g id="Node000002" class="node">
<title>Node2</title>
<g id="a_Node000002"><a xlink:href="classcom_1_1teragrep_1_1pth__06_1_1planner_1_1LogfileTable.html#afa57bc68cbdf060df04b1d3148ad5788" target="_top" xlink:title=" ">
<polygon fill="white" stroke="#666666" points="380,-52 220,-52 220,-22 380,-22 380,-52"/>
<text text-anchor="start" x="228" y="-40" font-family="Helvetica,sans-Serif" font-size="10.00">com.teragrep.pth_06.planner.</text>
<text text-anchor="middle" x="300" y="-29" font-family="Helvetica,sans-Serif" font-size="10.00">LogfileTable.insertRow</text>
</a>
</g>
</g>
<!-- Node1&#45;&gt;Node2 -->
<g id="edge1_Node000001_Node000002" class="edge">
<title>Node1&#45;&gt;Node2</title>
<g id="a_edge1_Node000001_Node000002"><a xlink:title=" ">
<path fill="none" stroke="#63b8ff" d="M184.25,-24.75C192.67,-25.64 201.19,-26.55 209.59,-27.45"/>
<polygon fill="#63b8ff" stroke="#63b8ff" points="209.45,-30.96 219.76,-28.54 210.19,-24 209.45,-30.96"/>
</a>
</g>
</g>
<!-- Node3 -->
<g id="Node000003" class="node">
<title>Node3</title>
<g id="a_Node000003"><a xlink:href="classcom_1_1teragrep_1_1pth__06_1_1planner_1_1LogfileTable.html#a525b18f872aafe7488e39c6b2c156b5a" target="_top" xlink:title=" ">
<polygon fill="white" stroke="#666666" points="576,-30 416,-30 416,0 576,0 576,-30"/>
<text text-anchor="start" x="424" y="-18" font-family="Helvetica,sans-Serif" font-size="10.00">com.teragrep.pth_06.planner.</text>
<text text-anchor="middle" x="496" y="-7" font-family="Helvetica,sans-Serif" font-size="10.00">LogfileTable.table</text>
</a>
</g>
</g>
<!-- Node1&#45;&gt;Node3 -->
<g id="edge3_Node000001_Node000003" class="edge">
<title>Node1&#45;&gt;Node3</title>
<g id="a_edge3_Node000001_Node000003"><a xlink:title=" ">
<path fill="none" stroke="#63b8ff" d="M184.22,-13.39C196.25,-13.23 208.42,-13.09 220,-13 291.11,-12.44 308.89,-12.38 380,-13 388.32,-13.07 396.99,-13.17 405.66,-13.29"/>
<polygon fill="#63b8ff" stroke="#63b8ff" points="405.77,-16.8 415.82,-13.44 405.87,-9.8 405.77,-16.8"/>
</a>
</g>
</g>
<!-- Node2&#45;&gt;Node3 -->
<g id="edge2_Node000002_Node000003" class="edge">
<title>Node2&#45;&gt;Node3</title>
<g id="a_edge2_Node000002_Node000003"><a xlink:title=" ">
<path fill="none" stroke="#63b8ff" d="M380.19,-28.02C388.62,-27.06 397.24,-26.09 405.78,-25.12"/>
<polygon fill="#63b8ff" stroke="#63b8ff" points="406.21,-28.59 415.75,-23.99 405.42,-21.64 406.21,-28.59"/>
</a>
</g>
</g>
</g>
</svg>
