<?xml version="1.0" encoding="UTF-8" standalone="no"?>
<!DOCTYPE svg PUBLIC "-//W3C//DTD SVG 1.1//EN"
 "http://www.w3.org/Graphics/SVG/1.1/DTD/svg11.dtd">
<!-- Generated by graphviz version 2.43.0 (0)
 -->
<!-- Title: com.teragrep.pth_06.planner.ArchiveQueryProcessor.incrementAndGetLatestOffset Pages: 1 -->
<svg width="878pt" height="232pt"
 viewBox="0.00 0.00 878.00 232.00" xmlns="http://www.w3.org/2000/svg" xmlns:xlink="http://www.w3.org/1999/xlink">
<g id="graph0" class="graph" transform="scale(1 1) rotate(0) translate(4 228)">
<title>com.teragrep.pth_06.planner.ArchiveQueryProcessor.incrementAndGetLatestOffset</title>
<!-- Node1 -->
<g id="Node000001" class="node">
<title>Node1</title>
<g id="a_Node000001"><a xlink:title="Increments the latest offset value and returns that incremented offset.">
<polygon fill="#999999" stroke="#666666" points="182,-121.5 0,-121.5 0,-80.5 182,-80.5 182,-121.5"/>
<text text-anchor="start" x="8" y="-109.5" font-family="Helvetica,sans-Serif" font-size="10.00">com.teragrep.pth_06.planner.</text>
<text text-anchor="start" x="8" y="-98.5" font-family="Helvetica,sans-Serif" font-size="10.00">ArchiveQueryProcessor.increment</text>
<text text-anchor="middle" x="91" y="-87.5" font-family="Helvetica,sans-Serif" font-size="10.00">AndGetLatestOffset</text>
</a>
</g>
</g>
<!-- Node2 -->
<g id="Node000002" class="node">
<title>Node2</title>
<g id="a_Node000002"><a xlink:href="classcom_1_1teragrep_1_1pth__06_1_1planner_1_1BatchSizeLimit.html#a3c8b6b537a6e8ca4bc3a45f250bb9da1" target="_top" xlink:title="Accumulate the given weight and count of objects.">
<polygon fill="white" stroke="#666666" points="399,-224 239,-224 239,-194 399,-194 399,-224"/>
<text text-anchor="start" x="247" y="-212" font-family="Helvetica,sans-Serif" font-size="10.00">com.teragrep.pth_06.planner.</text>
<text text-anchor="middle" x="319" y="-201" font-family="Helvetica,sans-Serif" font-size="10.00">BatchSizeLimit.add</text>
</a>
</g>
</g>
<!-- Node1&#45;&gt;Node2 -->
<g id="edge1_Node000001_Node000002" class="edge">
<title>Node1&#45;&gt;Node2</title>
<g id="a_edge1_Node000001_Node000002"><a xlink:title=" ">
<path fill="none" stroke="#63b8ff" d="M116.99,-121.56C141.35,-140.63 180.17,-168.48 218,-185 222.74,-187.07 227.68,-188.98 232.72,-190.73"/>
<polygon fill="#63b8ff" stroke="#63b8ff" points="231.92,-194.15 242.52,-193.93 234.09,-187.5 231.92,-194.15"/>
</a>
</g>
</g>
<!-- Node3 -->
<g id="Node000003" class="node">
<title>Node3</title>
<g id="a_Node000003"><a xlink:href="classcom_1_1teragrep_1_1pth__06_1_1planner_1_1ArchiveQueryProcessor.html#a1f1a7e795ca43c5d98c2fde28a3dd267" target="_top" xlink:title="Returns the earliest offset, which always remains the same within a query.">
<polygon fill="white" stroke="#666666" points="407,-175.5 231,-175.5 231,-134.5 407,-134.5 407,-175.5"/>
<text text-anchor="start" x="239" y="-163.5" font-family="Helvetica,sans-Serif" font-size="10.00">com.teragrep.pth_06.planner.</text>
<text text-anchor="start" x="239" y="-152.5" font-family="Helvetica,sans-Serif" font-size="10.00">ArchiveQueryProcessor.getInitial</text>
<text text-anchor="middle" x="319" y="-141.5" font-family="Helvetica,sans-Serif" font-size="10.00">Offset</text>
</a>
</g>
</g>
<!-- Node1&#45;&gt;Node3 -->
<g id="edge2_Node000001_Node000003" class="edge">
<title>Node1&#45;&gt;Node3</title>
<g id="a_edge2_Node000001_Node000003"><a xlink:title=" ">
<path fill="none" stroke="#63b8ff" d="M178.09,-121.57C192.48,-125.01 207.49,-128.59 222.11,-132.09"/>
<polygon fill="#63b8ff" stroke="#63b8ff" points="221.61,-135.57 232.15,-134.49 223.24,-128.76 221.61,-135.57"/>
</a>
</g>
</g>
<!-- Node4 -->
<g id="Node000004" class="node">
<title>Node4</title>
<g id="a_Node000004"><a xlink:href="classcom_1_1teragrep_1_1pth__06_1_1planner_1_1BatchSizeLimit.html#ac0ae9a8b12bb02236111c903eb42c2ea" target="_top" xlink:title="check if accumulated weight is over the maximum size limit OR if the accumulated count of objects is ...">
<polygon fill="white" stroke="#666666" points="399,-116 239,-116 239,-86 399,-86 399,-116"/>
<text text-anchor="start" x="247" y="-104" font-family="Helvetica,sans-Serif" font-size="10.00">com.teragrep.pth_06.planner.</text>
<text text-anchor="middle" x="319" y="-93" font-family="Helvetica,sans-Serif" font-size="10.00">BatchSizeLimit.isOverLimit</text>
</a>
</g>
</g>
<!-- Node1&#45;&gt;Node4 -->
<g id="edge3_Node000001_Node000004" class="edge">
<title>Node1&#45;&gt;Node4</title>
<g id="a_edge3_Node000001_Node000004"><a xlink:title=" ">
<path fill="none" stroke="#63b8ff" d="M182.3,-101C197.48,-101 213.23,-101 228.4,-101"/>
<polygon fill="#63b8ff" stroke="#63b8ff" points="228.79,-104.5 238.79,-101 228.79,-97.5 228.79,-104.5"/>
</a>
</g>
</g>
<!-- Node5 -->
<g id="Node000005" class="node">
<title>Node5</title>
<g id="a_Node000005"><a xlink:href="classcom_1_1teragrep_1_1pth__06_1_1planner_1_1StreamDBClient.html#adbe4b13c48e67d8d82ae4ed9ee93f7df" target="_top" xlink:title=" ">
<polygon fill="white" stroke="#666666" points="631,-51 456,-51 456,-21 631,-21 631,-51"/>
<text text-anchor="start" x="464" y="-39" font-family="Helvetica,sans-Serif" font-size="10.00">com.teragrep.pth_06.planner.</text>
<text text-anchor="middle" x="543.5" y="-28" font-family="Helvetica,sans-Serif" font-size="10.00">StreamDBClient.pullToSliceTable</text>
</a>
</g>
</g>
<!-- Node1&#45;&gt;Node5 -->
<g id="edge4_Node000001_Node000005" class="edge">
<title>Node1&#45;&gt;Node5</title>
<g id="a_edge4_Node000001_Node000005"><a xlink:title=" ">
<path fill="none" stroke="#63b8ff" d="M182.04,-83.14C194.11,-80.95 206.34,-78.84 218,-77 294.26,-64.93 381.06,-54.12 445.69,-46.63"/>
<polygon fill="#63b8ff" stroke="#63b8ff" points="446.33,-50.08 455.86,-45.45 445.53,-43.12 446.33,-50.08"/>
</a>
</g>
</g>
<!-- Node7 -->
<g id="Node000007" class="node">
<title>Node7</title>
<g id="a_Node000007"><a xlink:href="classcom_1_1teragrep_1_1pth__06_1_1planner_1_1ArchiveQueryProcessor.html#a3e2e817526f72a254cd6358389a5b7f2" target="_top" xlink:title="Increment the rolling day and pull data for that day into the sliceTable.">
<polygon fill="white" stroke="#666666" points="420,-30 218,-30 218,0 420,0 420,-30"/>
<text text-anchor="start" x="226" y="-18" font-family="Helvetica,sans-Serif" font-size="10.00">com.teragrep.pth_06.planner.</text>
<text text-anchor="middle" x="319" y="-7" font-family="Helvetica,sans-Serif" font-size="10.00">ArchiveQueryProcessor.seekToResults</text>
</a>
</g>
</g>
<!-- Node1&#45;&gt;Node7 -->
<g id="edge6_Node000001_Node000007" class="edge">
<title>Node1&#45;&gt;Node7</title>
<g id="a_edge6_Node000001_Node000007"><a xlink:title=" ">
<path fill="none" stroke="#63b8ff" d="M133.38,-80.48C157.67,-68.89 189.17,-54.64 218,-44 228.62,-40.08 240.04,-36.34 251.22,-32.93"/>
<polygon fill="#63b8ff" stroke="#63b8ff" points="252.38,-36.24 260.96,-30.02 250.37,-29.53 252.38,-36.24"/>
</a>
</g>
</g>
<!-- Node6 -->
<g id="Node000006" class="node">
<title>Node6</title>
<g id="a_Node000006"><a xlink:href="classcom_1_1teragrep_1_1pth__06_1_1planner_1_1StreamDBClient_1_1NestedTopNQuery.html#a075cb3c8ebd348fc7ed9ee9105cb778c" target="_top" xlink:title=" ">
<polygon fill="white" stroke="#666666" points="870,-56.5 667,-56.5 667,-15.5 870,-15.5 870,-56.5"/>
<text text-anchor="start" x="675" y="-44.5" font-family="Helvetica,sans-Serif" font-size="10.00">com.teragrep.pth_06.planner.</text>
<text text-anchor="start" x="675" y="-33.5" font-family="Helvetica,sans-Serif" font-size="10.00">StreamDBClient.NestedTopNQuery.get</text>
<text text-anchor="middle" x="768.5" y="-22.5" font-family="Helvetica,sans-Serif" font-size="10.00">TableStatement</text>
</a>
</g>
</g>
<!-- Node5&#45;&gt;Node6 -->
<g id="edge5_Node000005_Node000006" class="edge">
<title>Node5&#45;&gt;Node6</title>
<g id="a_edge5_Node000005_Node000006"><a xlink:title=" ">
<path fill="none" stroke="#63b8ff" d="M631.04,-36C639.48,-36 648.13,-36 656.78,-36"/>
<polygon fill="#63b8ff" stroke="#63b8ff" points="656.91,-39.5 666.91,-36 656.91,-32.5 656.91,-39.5"/>
</a>
</g>
</g>
<!-- Node7&#45;&gt;Node5 -->
<g id="edge7_Node000007_Node000005" class="edge">
<title>Node7&#45;&gt;Node5</title>
<g id="a_edge7_Node000007_Node000005"><a xlink:title=" ">
<path fill="none" stroke="#63b8ff" d="M420.18,-24.46C428.63,-25.25 437.16,-26.06 445.58,-26.85"/>
<polygon fill="#63b8ff" stroke="#63b8ff" points="445.5,-30.36 455.79,-27.82 446.16,-23.39 445.5,-30.36"/>
</a>
</g>
</g>
</g>
</svg>
