<?xml version="1.0" encoding="UTF-8" standalone="no"?>
<!DOCTYPE svg PUBLIC "-//W3C//DTD SVG 1.1//EN"
 "http://www.w3.org/Graphics/SVG/1.1/DTD/svg11.dtd">
<!-- Generated by graphviz version 2.43.0 (0)
 -->
<!-- Title: com.teragrep.pth_06.ast.transform.OptimizedAST.OptimizedAST Pages: 1 -->
<svg width="729pt" height="38pt"
 viewBox="0.00 0.00 729.00 38.00" xmlns="http://www.w3.org/2000/svg" xmlns:xlink="http://www.w3.org/1999/xlink">
<g id="graph0" class="graph" transform="scale(1 1) rotate(0) translate(4 34)">
<title>com.teragrep.pth_06.ast.transform.OptimizedAST.OptimizedAST</title>
<!-- Node1 -->
<g id="Node000001" class="node">
<title>Node1</title>
<g id="a_Node000001"><a xlink:title=" ">
<polygon fill="#999999" stroke="#666666" points="190,-30 0,-30 0,0 190,0 190,-30"/>
<text text-anchor="start" x="8" y="-18" font-family="Helvetica,sans-Serif" font-size="10.00">com.teragrep.pth_06.ast.transform.</text>
<text text-anchor="middle" x="95" y="-7" font-family="Helvetica,sans-Serif" font-size="10.00">OptimizedAST.OptimizedAST</text>
</a>
</g>
</g>
<!-- Node2 -->
<g id="Node000002" class="node">
<title>Node2</title>
<g id="a_Node000002"><a xlink:href="classcom_1_1teragrep_1_1pth__06_1_1ast_1_1XMLQuery.html#a8c1c17cbc6a73a109ec4b6a53cb561f3" target="_top" xlink:title=" ">
<polygon fill="white" stroke="#666666" points="365,-30 226,-30 226,0 365,0 365,-30"/>
<text text-anchor="start" x="234" y="-18" font-family="Helvetica,sans-Serif" font-size="10.00">com.teragrep.pth_06.ast.</text>
<text text-anchor="middle" x="295.5" y="-7" font-family="Helvetica,sans-Serif" font-size="10.00">XMLQuery.asAST</text>
</a>
</g>
</g>
<!-- Node1&#45;&gt;Node2 -->
<g id="edge1_Node000001_Node000002" class="edge">
<title>Node1&#45;&gt;Node2</title>
<g id="a_edge1_Node000001_Node000002"><a xlink:title=" ">
<path fill="none" stroke="#63b8ff" d="M190.02,-15C198.64,-15 207.31,-15 215.78,-15"/>
<polygon fill="#63b8ff" stroke="#63b8ff" points="215.98,-18.5 225.98,-15 215.98,-11.5 215.98,-18.5"/>
</a>
</g>
</g>
<!-- Node3 -->
<g id="Node000003" class="node">
<title>Node3</title>
<g id="a_Node000003"><a xlink:href="classcom_1_1teragrep_1_1pth__06_1_1ast_1_1XMLQuery.html#aa7549f8a3b0cf690e42626cc06db8140" target="_top" xlink:title=" ">
<polygon fill="white" stroke="#666666" points="546,-30 401,-30 401,0 546,0 546,-30"/>
<text text-anchor="start" x="409" y="-18" font-family="Helvetica,sans-Serif" font-size="10.00">com.teragrep.pth_06.ast.</text>
<text text-anchor="middle" x="473.5" y="-7" font-family="Helvetica,sans-Serif" font-size="10.00">XMLQuery.elementToNode</text>
</a>
</g>
</g>
<!-- Node2&#45;&gt;Node3 -->
<g id="edge2_Node000002_Node000003" class="edge">
<title>Node2&#45;&gt;Node3</title>
<g id="a_edge2_Node000002_Node000003"><a xlink:title=" ">
<path fill="none" stroke="#63b8ff" d="M365.05,-15C373.51,-15 382.23,-15 390.86,-15"/>
<polygon fill="#63b8ff" stroke="#63b8ff" points="390.94,-18.5 400.94,-15 390.94,-11.5 390.94,-18.5"/>
</a>
</g>
</g>
<!-- Node4 -->
<g id="Node000004" class="node">
<title>Node4</title>
<g id="a_Node000004"><a xlink:href="classcom_1_1teragrep_1_1pth__06_1_1ast_1_1XMLQuery.html#aaead840df751050baf578b6e32c50f38" target="_top" xlink:title=" ">
<polygon fill="white" stroke="#666666" points="721,-30 582,-30 582,0 721,0 721,-30"/>
<text text-anchor="start" x="590" y="-18" font-family="Helvetica,sans-Serif" font-size="10.00">com.teragrep.pth_06.ast.</text>
<text text-anchor="middle" x="651.5" y="-7" font-family="Helvetica,sans-Serif" font-size="10.00">XMLQuery.visitLogical</text>
</a>
</g>
</g>
<!-- Node3&#45;&gt;Node4 -->
<g id="edge3_Node000003_Node000004" class="edge">
<title>Node3&#45;&gt;Node4</title>
<g id="a_edge3_Node000003_Node000004"><a xlink:title=" ">
<path fill="none" stroke="#63b8ff" d="M546.09,-8.36C554.48,-8.25 563.07,-8.22 571.55,-8.28"/>
<polygon fill="#63b8ff" stroke="#63b8ff" points="571.79,-11.78 581.82,-8.4 571.86,-4.79 571.79,-11.78"/>
</a>
</g>
</g>
<!-- Node4&#45;&gt;Node3 -->
<g id="edge4_Node000004_Node000003" class="edge">
<title>Node4&#45;&gt;Node3</title>
<g id="a_edge4_Node000004_Node000003"><a xlink:title=" ">
<path fill="none" stroke="#63b8ff" d="M581.82,-21.6C573.39,-21.73 564.72,-21.78 556.12,-21.73"/>
<polygon fill="#63b8ff" stroke="#63b8ff" points="556.12,-18.23 546.09,-21.64 556.05,-25.23 556.12,-18.23"/>
</a>
</g>
</g>
</g>
</svg>
