<?xml version="1.0" encoding="UTF-8" standalone="no"?>
<!DOCTYPE svg PUBLIC "-//W3C//DTD SVG 1.1//EN"
 "http://www.w3.org/Graphics/SVG/1.1/DTD/svg11.dtd">
<!-- Generated by graphviz version 2.43.0 (0)
 -->
<!-- Title: com.teragrep.pth_06.ast.MergeIntersectingRanges.mergedRanges Pages: 1 -->
<svg width="858pt" height="248pt"
 viewBox="0.00 0.00 858.00 248.00" xmlns="http://www.w3.org/2000/svg" xmlns:xlink="http://www.w3.org/1999/xlink">
<g id="graph0" class="graph" transform="scale(1 1) rotate(0) translate(4 244)">
<title>com.teragrep.pth_06.ast.MergeIntersectingRanges.mergedRanges</title>
<!-- Node1 -->
<g id="Node000001" class="node">
<title>Node1</title>
<g id="a_Node000001"><a xlink:title=" ">
<polygon fill="#999999" stroke="#666666" points="850,-131.5 668,-131.5 668,-90.5 850,-90.5 850,-131.5"/>
<text text-anchor="start" x="676" y="-119.5" font-family="Helvetica,sans-Serif" font-size="10.00">com.teragrep.pth_06.ast.</text>
<text text-anchor="start" x="676" y="-108.5" font-family="Helvetica,sans-Serif" font-size="10.00">MergeIntersectingRanges.merged</text>
<text text-anchor="middle" x="759" y="-97.5" font-family="Helvetica,sans-Serif" font-size="10.00">Ranges</text>
</a>
</g>
</g>
<!-- Node2 -->
<g id="Node000002" class="node">
<title>Node2</title>
<g id="a_Node000002"><a xlink:href="classcom_1_1teragrep_1_1pth__06_1_1ast_1_1analyze_1_1ScanGroupExpression.html#ad1c8159c9353a4b98804664e89a77921" target="_top" xlink:title=" ">
<polygon fill="white" stroke="#666666" points="632,-126 452,-126 452,-96 632,-96 632,-126"/>
<text text-anchor="start" x="460" y="-114" font-family="Helvetica,sans-Serif" font-size="10.00">com.teragrep.pth_06.ast.analyze.</text>
<text text-anchor="middle" x="542" y="-103" font-family="Helvetica,sans-Serif" font-size="10.00">ScanGroupExpression.value</text>
</a>
</g>
</g>
<!-- Node1&#45;&gt;Node2 -->
<g id="edge1_Node000001_Node000002" class="edge">
<title>Node1&#45;&gt;Node2</title>
<g id="a_edge1_Node000001_Node000002"><a xlink:title=" ">
<path fill="none" stroke="#63b8ff" d="M657.53,-111C649.12,-111 640.65,-111 632.32,-111"/>
<polygon fill="#63b8ff" stroke="#63b8ff" points="657.76,-114.5 667.76,-111 657.76,-107.5 657.76,-114.5"/>
</a>
</g>
</g>
<!-- Node2&#45;&gt;Node2 -->
<g id="edge9_Node000002_Node000002" class="edge">
<title>Node2&#45;&gt;Node2</title>
<g id="a_edge9_Node000002_Node000002"><a xlink:title=" ">
<path fill="none" stroke="#63b8ff" d="M579.81,-136.6C574.64,-140.97 562.04,-144 542,-144 508.25,-144 495.59,-135.41 504.03,-126.28"/>
<polygon fill="#63b8ff" stroke="#63b8ff" points="583.31,-136.33 579.97,-126.28 576.31,-136.22 583.31,-136.33"/>
</a>
</g>
</g>
<!-- Node3 -->
<g id="Node000003" class="node">
<title>Node3</title>
<g id="a_Node000003"><a xlink:href="classcom_1_1teragrep_1_1pth__06_1_1ast_1_1analyze_1_1ScanRangeCollection.html#ae559ce9b6a9ded88c7b62910bf56efbe" target="_top" xlink:title=" ">
<polygon fill="white" stroke="#666666" points="416,-222 216,-222 216,-192 416,-192 416,-222"/>
<text text-anchor="start" x="224" y="-210" font-family="Helvetica,sans-Serif" font-size="10.00">com.teragrep.pth_06.ast.analyze.</text>
<text text-anchor="middle" x="316" y="-199" font-family="Helvetica,sans-Serif" font-size="10.00">ScanRangeCollection.findScanRanges</text>
</a>
</g>
</g>
<!-- Node2&#45;&gt;Node3 -->
<g id="edge2_Node000002_Node000003" class="edge">
<title>Node2&#45;&gt;Node3</title>
<g id="a_edge2_Node000002_Node000003"><a xlink:title=" ">
<path fill="none" stroke="#63b8ff" d="M510.88,-131.63C486.3,-147.64 450.17,-169.34 416,-183 407.54,-186.38 398.48,-189.37 389.4,-191.99"/>
<polygon fill="#63b8ff" stroke="#63b8ff" points="512.97,-134.44 519.39,-126.01 509.12,-128.6 512.97,-134.44"/>
</a>
</g>
</g>
<!-- Node5 -->
<g id="Node000005" class="node">
<title>Node5</title>
<g id="a_Node000005"><a xlink:href="classcom_1_1teragrep_1_1pth__06_1_1ast_1_1analyze_1_1ScanGroupExpressionTest.html#adf26305b6c1294c828bc17060a43a49d" target="_top" xlink:title=" ">
<polygon fill="white" stroke="#666666" points="413.5,-174 218.5,-174 218.5,-144 413.5,-144 413.5,-174"/>
<text text-anchor="start" x="226.5" y="-162" font-family="Helvetica,sans-Serif" font-size="10.00">com.teragrep.pth_06.ast.analyze.</text>
<text text-anchor="middle" x="316" y="-151" font-family="Helvetica,sans-Serif" font-size="10.00">ScanGroupExpressionTest.testEmpty</text>
</a>
</g>
</g>
<!-- Node2&#45;&gt;Node5 -->
<g id="edge5_Node000002_Node000005" class="edge">
<title>Node2&#45;&gt;Node5</title>
<g id="a_edge5_Node000002_Node000005"><a xlink:title=" ">
<path fill="none" stroke="#63b8ff" d="M460.9,-128.17C436.75,-133.34 410.45,-138.98 387.01,-144"/>
<polygon fill="#63b8ff" stroke="#63b8ff" points="461.69,-131.57 470.74,-126.06 460.23,-124.73 461.69,-131.57"/>
</a>
</g>
</g>
<!-- Node6 -->
<g id="Node000006" class="node">
<title>Node6</title>
<g id="a_Node000006"><a xlink:href="classcom_1_1teragrep_1_1pth__06_1_1ast_1_1analyze_1_1ScanRangeCollectionTest.html#ac7c2e4ebc83eeba976498903e07c1326" target="_top" xlink:title=" ">
<polygon fill="white" stroke="#666666" points="412,-126 220,-126 220,-96 412,-96 412,-126"/>
<text text-anchor="start" x="228" y="-114" font-family="Helvetica,sans-Serif" font-size="10.00">com.teragrep.pth_06.ast.analyze.</text>
<text text-anchor="middle" x="316" y="-103" font-family="Helvetica,sans-Serif" font-size="10.00">ScanRangeCollectionTest.testEmpty</text>
</a>
</g>
</g>
<!-- Node2&#45;&gt;Node6 -->
<g id="edge6_Node000002_Node000006" class="edge">
<title>Node2&#45;&gt;Node6</title>
<g id="a_edge6_Node000002_Node000006"><a xlink:title=" ">
<path fill="none" stroke="#63b8ff" d="M441.66,-111C431.84,-111 421.89,-111 412.12,-111"/>
<polygon fill="#63b8ff" stroke="#63b8ff" points="441.83,-114.5 451.83,-111 441.83,-107.5 441.83,-114.5"/>
</a>
</g>
</g>
<!-- Node7 -->
<g id="Node000007" class="node">
<title>Node7</title>
<g id="a_Node000007"><a xlink:href="classcom_1_1teragrep_1_1pth__06_1_1ast_1_1analyze_1_1ScanGroupExpressionTest.html#a68727cd32a45086cd9515632edc2c2a8" target="_top" xlink:title=" ">
<polygon fill="white" stroke="#666666" points="409,-78 223,-78 223,-48 409,-48 409,-78"/>
<text text-anchor="start" x="231" y="-66" font-family="Helvetica,sans-Serif" font-size="10.00">com.teragrep.pth_06.ast.analyze.</text>
<text text-anchor="middle" x="316" y="-55" font-family="Helvetica,sans-Serif" font-size="10.00">ScanGroupExpressionTest.testHost</text>
</a>
</g>
</g>
<!-- Node2&#45;&gt;Node7 -->
<g id="edge7_Node000002_Node000007" class="edge">
<title>Node2&#45;&gt;Node7</title>
<g id="a_edge7_Node000002_Node000007"><a xlink:title=" ">
<path fill="none" stroke="#63b8ff" d="M460.9,-93.83C436.75,-88.66 410.45,-83.02 387.01,-78"/>
<polygon fill="#63b8ff" stroke="#63b8ff" points="460.23,-97.27 470.74,-95.94 461.69,-90.43 460.23,-97.27"/>
</a>
</g>
</g>
<!-- Node8 -->
<g id="Node000008" class="node">
<title>Node8</title>
<g id="a_Node000008"><a xlink:href="classcom_1_1teragrep_1_1pth__06_1_1ast_1_1analyze_1_1ScanRangeCollectionTest.html#a5de37d40793803e28d37a4ddd1b8725c" target="_top" xlink:title=" ">
<polygon fill="white" stroke="#666666" points="407.5,-30 224.5,-30 224.5,0 407.5,0 407.5,-30"/>
<text text-anchor="start" x="232.5" y="-18" font-family="Helvetica,sans-Serif" font-size="10.00">com.teragrep.pth_06.ast.analyze.</text>
<text text-anchor="middle" x="316" y="-7" font-family="Helvetica,sans-Serif" font-size="10.00">ScanRangeCollectionTest.testHost</text>
</a>
</g>
</g>
<!-- Node2&#45;&gt;Node8 -->
<g id="edge8_Node000002_Node000008" class="edge">
<title>Node2&#45;&gt;Node8</title>
<g id="a_edge8_Node000002_Node000008"><a xlink:title=" ">
<path fill="none" stroke="#63b8ff" d="M510.88,-90.37C486.3,-74.36 450.17,-52.66 416,-39 407.54,-35.62 398.48,-32.63 389.4,-30.01"/>
<polygon fill="#63b8ff" stroke="#63b8ff" points="509.12,-93.4 519.39,-95.99 512.97,-87.56 509.12,-93.4"/>
</a>
</g>
</g>
<!-- Node3&#45;&gt;Node3 -->
<g id="edge4_Node000003_Node000003" class="edge">
<title>Node3&#45;&gt;Node3</title>
<g id="a_edge4_Node000003_Node000003"><a xlink:title=" ">
<path fill="none" stroke="#63b8ff" d="M355.56,-232.6C350.15,-236.97 336.97,-240 316,-240 280.69,-240 267.45,-231.41 276.27,-222.28"/>
<polygon fill="#63b8ff" stroke="#63b8ff" points="359.06,-232.33 355.73,-222.28 352.06,-232.22 359.06,-232.33"/>
</a>
</g>
</g>
<!-- Node4 -->
<g id="Node000004" class="node">
<title>Node4</title>
<g id="a_Node000004"><a xlink:href="classcom_1_1teragrep_1_1pth__06_1_1ast_1_1analyze_1_1ScanRangeCollection.html#a07aba9c0e28ea383057d4ea4b55f1721" target="_top" xlink:title=" ">
<polygon fill="white" stroke="#666666" points="180,-222 0,-222 0,-192 180,-192 180,-222"/>
<text text-anchor="start" x="8" y="-210" font-family="Helvetica,sans-Serif" font-size="10.00">com.teragrep.pth_06.ast.analyze.</text>
<text text-anchor="middle" x="90" y="-199" font-family="Helvetica,sans-Serif" font-size="10.00">ScanRangeCollection.asList</text>
</a>
</g>
</g>
<!-- Node3&#45;&gt;Node4 -->
<g id="edge3_Node000003_Node000004" class="edge">
<title>Node3&#45;&gt;Node4</title>
<g id="a_edge3_Node000003_Node000004"><a xlink:title=" ">
<path fill="none" stroke="#63b8ff" d="M205.77,-207C197.22,-207 188.66,-207 180.27,-207"/>
<polygon fill="#63b8ff" stroke="#63b8ff" points="205.77,-210.5 215.77,-207 205.77,-203.5 205.77,-210.5"/>
</a>
</g>
</g>
</g>
</svg>
