<?xml version="1.0" encoding="UTF-8" standalone="no"?>
<!DOCTYPE svg PUBLIC "-//W3C//DTD SVG 1.1//EN"
 "http://www.w3.org/Graphics/SVG/1.1/DTD/svg11.dtd">
<!-- Generated by graphviz version 2.43.0 (0)
 -->
<!-- Title: com.teragrep.pth_06.planner.HBaseQueryImpl.mostRecentOffset Pages: 1 -->
<svg width="437pt" height="142pt"
 viewBox="0.00 0.00 437.00 142.00" xmlns="http://www.w3.org/2000/svg" xmlns:xlink="http://www.w3.org/1999/xlink">
<g id="graph0" class="graph" transform="scale(1 1) rotate(0) translate(4 138)">
<title>com.teragrep.pth_06.planner.HBaseQueryImpl.mostRecentOffset</title>
<!-- Node1 -->
<g id="Node000001" class="node">
<title>Node1</title>
<g id="a_Node000001"><a xlink:title=" ">
<polygon fill="#999999" stroke="#666666" points="190,-73 0,-73 0,-43 190,-43 190,-73"/>
<text text-anchor="start" x="8" y="-61" font-family="Helvetica,sans-Serif" font-size="10.00">com.teragrep.pth_06.planner.</text>
<text text-anchor="middle" x="95" y="-50" font-family="Helvetica,sans-Serif" font-size="10.00">HBaseQueryImpl.mostRecentOffset</text>
</a>
</g>
</g>
<!-- Node2 -->
<g id="Node000002" class="node">
<title>Node2</title>
<g id="a_Node000002"><a xlink:href="classcom_1_1teragrep_1_1pth__06_1_1planner_1_1HBaseQueryImpl.html#a3ddb5964124047be0b52937a19b6b7e9" target="_top" xlink:title="Finds the earliest offset available in the scan plan collection, formed from the query.">
<polygon fill="white" stroke="#666666" points="407.5,-116 247.5,-116 247.5,-86 407.5,-86 407.5,-116"/>
<text text-anchor="start" x="255.5" y="-104" font-family="Helvetica,sans-Serif" font-size="10.00">com.teragrep.pth_06.planner.</text>
<text text-anchor="middle" x="327.5" y="-93" font-family="Helvetica,sans-Serif" font-size="10.00">HBaseQueryImpl.earliest</text>
</a>
</g>
</g>
<!-- Node1&#45;&gt;Node2 -->
<g id="edge1_Node000001_Node000002" class="edge">
<title>Node1&#45;&gt;Node2</title>
<g id="a_edge1_Node000001_Node000002"><a xlink:title=" ">
<path fill="none" stroke="#63b8ff" d="M176.62,-73.04C196.28,-76.71 217.41,-80.65 237.44,-84.39"/>
<polygon fill="#63b8ff" stroke="#63b8ff" points="237.01,-87.87 247.48,-86.26 238.29,-80.98 237.01,-87.87"/>
</a>
</g>
</g>
<!-- Node3 -->
<g id="Node000003" class="node">
<title>Node3</title>
<g id="a_Node000003"><a xlink:href="interfacecom_1_1teragrep_1_1pth__06_1_1Stubbable.html#a0901c0a7cde13ff306d455e4009f01cb" target="_top" xlink:title=" ">
<polygon fill="white" stroke="#666666" points="429,-67.5 226,-67.5 226,-48.5 429,-48.5 429,-67.5"/>
<text text-anchor="middle" x="327.5" y="-55.5" font-family="Helvetica,sans-Serif" font-size="10.00">com.teragrep.pth_06.Stubbable.isStub</text>
</a>
</g>
</g>
<!-- Node1&#45;&gt;Node3 -->
<g id="edge3_Node000001_Node000003" class="edge">
<title>Node1&#45;&gt;Node3</title>
<g id="a_edge3_Node000001_Node000003"><a xlink:title=" ">
<path fill="none" stroke="#63b8ff" d="M190.09,-58C198.59,-58 207.24,-58 215.87,-58"/>
<polygon fill="#63b8ff" stroke="#63b8ff" points="215.97,-61.5 225.97,-58 215.97,-54.5 215.97,-61.5"/>
</a>
</g>
</g>
<!-- Node4 -->
<g id="Node000004" class="node">
<title>Node4</title>
<g id="a_Node000004"><a xlink:href="interfacecom_1_1teragrep_1_1pth__06_1_1planner_1_1LimitedResults.html#ad79e3d027fabcd449d8631574c2e514a" target="_top" xlink:title=" ">
<polygon fill="white" stroke="#666666" points="407.5,-30 247.5,-30 247.5,0 407.5,0 407.5,-30"/>
<text text-anchor="start" x="255.5" y="-18" font-family="Helvetica,sans-Serif" font-size="10.00">com.teragrep.pth_06.planner.</text>
<text text-anchor="middle" x="327.5" y="-7" font-family="Helvetica,sans-Serif" font-size="10.00">LimitedResults.latest</text>
</a>
</g>
</g>
<!-- Node1&#45;&gt;Node4 -->
<g id="edge4_Node000001_Node000004" class="edge">
<title>Node1&#45;&gt;Node4</title>
<g id="a_edge4_Node000001_Node000004"><a xlink:title=" ">
<path fill="none" stroke="#63b8ff" d="M176.62,-42.96C196.28,-39.29 217.41,-35.35 237.44,-31.61"/>
<polygon fill="#63b8ff" stroke="#63b8ff" points="238.29,-35.02 247.48,-29.74 237.01,-28.13 238.29,-35.02"/>
</a>
</g>
</g>
<!-- Node2&#45;&gt;Node2 -->
<g id="edge2_Node000002_Node000002" class="edge">
<title>Node2&#45;&gt;Node2</title>
<g id="a_edge2_Node000002_Node000002"><a xlink:title=" ">
<path fill="none" stroke="#63b8ff" d="M286.72,-116.28C277.66,-125.41 291.25,-134 327.5,-134 349.02,-134 362.56,-130.97 368.11,-126.6"/>
<polygon fill="#63b8ff" stroke="#63b8ff" points="371.61,-126.33 368.28,-116.28 364.61,-126.22 371.61,-126.33"/>
</a>
</g>
</g>
</g>
</svg>
