<?xml version="1.0" encoding="UTF-8" standalone="no"?>
<!DOCTYPE svg PUBLIC "-//W3C//DTD SVG 1.1//EN"
 "http://www.w3.org/Graphics/SVG/1.1/DTD/svg11.dtd">
<!-- Generated by graphviz version 2.43.0 (0)
 -->
<!-- Title: com.teragrep.pth_06.ast.transform.OptimizedASTTest.testEqualBinaryMembersToValue Pages: 1 -->
<svg width="1433pt" height="266pt"
 viewBox="0.00 0.00 1433.00 266.00" xmlns="http://www.w3.org/2000/svg" xmlns:xlink="http://www.w3.org/1999/xlink">
<g id="graph0" class="graph" transform="scale(1 1) rotate(0) translate(4 262)">
<title>com.teragrep.pth_06.ast.transform.OptimizedASTTest.testEqualBinaryMembersToValue</title>
<!-- Node1 -->
<g id="Node000001" class="node">
<title>Node1</title>
<g id="a_Node000001"><a xlink:title=" ">
<polygon fill="#999999" stroke="#666666" points="231,-131.5 0,-131.5 0,-90.5 231,-90.5 231,-131.5"/>
<text text-anchor="start" x="8" y="-119.5" font-family="Helvetica,sans-Serif" font-size="10.00">com.teragrep.pth_06.ast.transform.</text>
<text text-anchor="start" x="8" y="-108.5" font-family="Helvetica,sans-Serif" font-size="10.00">OptimizedASTTest.testEqualBinaryMembers</text>
<text text-anchor="middle" x="115.5" y="-97.5" font-family="Helvetica,sans-Serif" font-size="10.00">ToValue</text>
</a>
</g>
</g>
<!-- Node2 -->
<g id="Node000002" class="node">
<title>Node2</title>
<g id="a_Node000002"><a xlink:href="classcom_1_1teragrep_1_1pth__06_1_1ast_1_1transform_1_1OptimizedAST.html#a05726d2699d7ade747e74de2140c6a41" target="_top" xlink:title=" ">
<polygon fill="white" stroke="#666666" points="457,-126 267,-126 267,-96 457,-96 457,-126"/>
<text text-anchor="start" x="275" y="-114" font-family="Helvetica,sans-Serif" font-size="10.00">com.teragrep.pth_06.ast.transform.</text>
<text text-anchor="middle" x="362" y="-103" font-family="Helvetica,sans-Serif" font-size="10.00">OptimizedAST.transformed</text>
</a>
</g>
</g>
<!-- Node1&#45;&gt;Node2 -->
<g id="edge1_Node000001_Node000002" class="edge">
<title>Node1&#45;&gt;Node2</title>
<g id="a_edge1_Node000001_Node000002"><a xlink:title=" ">
<path fill="none" stroke="#63b8ff" d="M231.23,-111C239.7,-111 248.22,-111 256.62,-111"/>
<polygon fill="#63b8ff" stroke="#63b8ff" points="256.8,-114.5 266.8,-111 256.8,-107.5 256.8,-114.5"/>
</a>
</g>
</g>
<!-- Node3 -->
<g id="Node000003" class="node">
<title>Node3</title>
<g id="a_Node000003"><a xlink:href="classcom_1_1teragrep_1_1pth__06_1_1ast_1_1transform_1_1OptimizedAST.html#ac4ebcab5c55182e969cd03150e96e374" target="_top" xlink:title=" ">
<polygon fill="white" stroke="#666666" points="683,-126 493,-126 493,-96 683,-96 683,-126"/>
<text text-anchor="start" x="501" y="-114" font-family="Helvetica,sans-Serif" font-size="10.00">com.teragrep.pth_06.ast.transform.</text>
<text text-anchor="middle" x="588" y="-103" font-family="Helvetica,sans-Serif" font-size="10.00">OptimizedAST.walkAndApply</text>
</a>
</g>
</g>
<!-- Node2&#45;&gt;Node3 -->
<g id="edge2_Node000002_Node000003" class="edge">
<title>Node2&#45;&gt;Node3</title>
<g id="a_edge2_Node000002_Node000003"><a xlink:title=" ">
<path fill="none" stroke="#63b8ff" d="M457.02,-111C465.54,-111 474.2,-111 482.8,-111"/>
<polygon fill="#63b8ff" stroke="#63b8ff" points="482.86,-114.5 492.86,-111 482.86,-107.5 482.86,-114.5"/>
</a>
</g>
</g>
<!-- Node3&#45;&gt;Node3 -->
<g id="edge13_Node000003_Node000003" class="edge">
<title>Node3&#45;&gt;Node3</title>
<g id="a_edge13_Node000003_Node000003"><a xlink:title=" ">
<path fill="none" stroke="#63b8ff" d="M548.27,-126.28C539.45,-135.41 552.69,-144 588,-144 608.97,-144 622.15,-140.97 627.56,-136.6"/>
<polygon fill="#63b8ff" stroke="#63b8ff" points="631.06,-136.33 627.73,-126.28 624.06,-136.22 631.06,-136.33"/>
</a>
</g>
</g>
<!-- Node4 -->
<g id="Node000004" class="node">
<title>Node4</title>
<g id="a_Node000004"><a xlink:href="classcom_1_1teragrep_1_1pth__06_1_1ast_1_1transform_1_1OptimizedAST.html#a77542c0b232d1e10e50a9846e1845b10" target="_top" xlink:title=" ">
<polygon fill="white" stroke="#666666" points="950,-126 719,-126 719,-96 950,-96 950,-126"/>
<text text-anchor="start" x="727" y="-114" font-family="Helvetica,sans-Serif" font-size="10.00">com.teragrep.pth_06.ast.transform.</text>
<text text-anchor="middle" x="834.5" y="-103" font-family="Helvetica,sans-Serif" font-size="10.00">OptimizedAST.transformedSingleExpression</text>
</a>
</g>
</g>
<!-- Node3&#45;&gt;Node4 -->
<g id="edge3_Node000003_Node000004" class="edge">
<title>Node3&#45;&gt;Node4</title>
<g id="a_edge3_Node000003_Node000004"><a xlink:title=" ">
<path fill="none" stroke="#63b8ff" d="M683.18,-111C691.59,-111 700.19,-111 708.81,-111"/>
<polygon fill="#63b8ff" stroke="#63b8ff" points="708.92,-114.5 718.92,-111 708.92,-107.5 708.92,-114.5"/>
</a>
</g>
</g>
<!-- Node5 -->
<g id="Node000005" class="node">
<title>Node5</title>
<g id="a_Node000005"><a xlink:href="classcom_1_1teragrep_1_1pth__06_1_1ast_1_1transform_1_1EmptyPruned.html#a8cfebc9854b0ad9a7cbe81918392e036" target="_top" xlink:title=" ">
<polygon fill="white" stroke="#666666" points="1187,-258 997,-258 997,-228 1187,-228 1187,-258"/>
<text text-anchor="start" x="1005" y="-246" font-family="Helvetica,sans-Serif" font-size="10.00">com.teragrep.pth_06.ast.transform.</text>
<text text-anchor="middle" x="1092" y="-235" font-family="Helvetica,sans-Serif" font-size="10.00">EmptyPruned.transformed</text>
</a>
</g>
</g>
<!-- Node4&#45;&gt;Node5 -->
<g id="edge4_Node000004_Node000005" class="edge">
<title>Node4&#45;&gt;Node5</title>
<g id="a_edge4_Node000004_Node000005"><a xlink:title=" ">
<path fill="none" stroke="#63b8ff" d="M851.72,-126.05C877.91,-149.53 932.06,-194.68 986,-219 990.62,-221.08 995.44,-223 1000.37,-224.75"/>
<polygon fill="#63b8ff" stroke="#63b8ff" points="999.35,-228.1 1009.95,-227.93 1001.56,-221.46 999.35,-228.1"/>
</a>
</g>
</g>
<!-- Node6 -->
<g id="Node000006" class="node">
<title>Node6</title>
<g id="a_Node000006"><a xlink:href="classcom_1_1teragrep_1_1pth__06_1_1ast_1_1transform_1_1FlattenLogical.html#a2e1717ad6884eea7a2415aa7763eaed5" target="_top" xlink:title=" ">
<polygon fill="white" stroke="#666666" points="1187,-192 997,-192 997,-162 1187,-162 1187,-192"/>
<text text-anchor="start" x="1005" y="-180" font-family="Helvetica,sans-Serif" font-size="10.00">com.teragrep.pth_06.ast.transform.</text>
<text text-anchor="middle" x="1092" y="-169" font-family="Helvetica,sans-Serif" font-size="10.00">FlattenLogical.transformed</text>
</a>
</g>
</g>
<!-- Node4&#45;&gt;Node6 -->
<g id="edge5_Node000004_Node000006" class="edge">
<title>Node4&#45;&gt;Node6</title>
<g id="a_edge5_Node000004_Node000006"><a xlink:title=" ">
<path fill="none" stroke="#63b8ff" d="M887.23,-126.09C916.19,-134.37 953,-144.63 986,-153 994.79,-155.23 1004.01,-157.47 1013.19,-159.65"/>
<polygon fill="#63b8ff" stroke="#63b8ff" points="1012.57,-163.1 1023.11,-161.98 1014.17,-156.28 1012.57,-163.1"/>
</a>
</g>
</g>
<!-- Node9 -->
<g id="Node000009" class="node">
<title>Node9</title>
<g id="a_Node000009"><a xlink:href="classcom_1_1teragrep_1_1pth__06_1_1ast_1_1transform_1_1IdentitySimplification.html#a2e7ebae3195ee7794364c646e783c6d3" target="_top" xlink:title=" ">
<polygon fill="white" stroke="#666666" points="1187,-126 997,-126 997,-96 1187,-96 1187,-126"/>
<text text-anchor="start" x="1005" y="-114" font-family="Helvetica,sans-Serif" font-size="10.00">com.teragrep.pth_06.ast.transform.</text>
<text text-anchor="middle" x="1092" y="-103" font-family="Helvetica,sans-Serif" font-size="10.00">IdentitySimplification.transformed</text>
</a>
</g>
</g>
<!-- Node4&#45;&gt;Node9 -->
<g id="edge9_Node000004_Node000009" class="edge">
<title>Node4&#45;&gt;Node9</title>
<g id="a_edge9_Node000004_Node000009"><a xlink:title=" ">
<path fill="none" stroke="#63b8ff" d="M950.17,-111C962.4,-111 974.79,-111 986.89,-111"/>
<polygon fill="#63b8ff" stroke="#63b8ff" points="986.97,-114.5 996.97,-111 986.97,-107.5 986.97,-114.5"/>
</a>
</g>
</g>
<!-- Node10 -->
<g id="Node000010" class="node">
<title>Node10</title>
<g id="a_Node000010"><a xlink:href="classcom_1_1teragrep_1_1pth__06_1_1ast_1_1transform_1_1PrunedInvalidTimeQualifier.html#a390e2447fa0ee0e2964ba44d68710b37" target="_top" xlink:title=" ">
<polygon fill="white" stroke="#666666" points="1198,-78 986,-78 986,-48 1198,-48 1198,-78"/>
<text text-anchor="start" x="994" y="-66" font-family="Helvetica,sans-Serif" font-size="10.00">com.teragrep.pth_06.ast.transform.</text>
<text text-anchor="middle" x="1092" y="-55" font-family="Helvetica,sans-Serif" font-size="10.00">PrunedInvalidTimeQualifier.transformed</text>
</a>
</g>
</g>
<!-- Node4&#45;&gt;Node10 -->
<g id="edge11_Node000004_Node000010" class="edge">
<title>Node4&#45;&gt;Node10</title>
<g id="a_edge11_Node000004_Node000010"><a xlink:title=" ">
<path fill="none" stroke="#63b8ff" d="M915.64,-95.94C942.75,-90.85 973.2,-85.13 1001.02,-79.9"/>
<polygon fill="#63b8ff" stroke="#63b8ff" points="1001.96,-83.29 1011.14,-78 1000.67,-76.41 1001.96,-83.29"/>
</a>
</g>
</g>
<!-- Node11 -->
<g id="Node000011" class="node">
<title>Node11</title>
<g id="a_Node000011"><a xlink:href="classcom_1_1teragrep_1_1pth__06_1_1ast_1_1transform_1_1UniqueChildren.html#a39304f06c8b7ac1e1a23463fe502028e" target="_top" xlink:title=" ">
<polygon fill="white" stroke="#666666" points="1187,-30 997,-30 997,0 1187,0 1187,-30"/>
<text text-anchor="start" x="1005" y="-18" font-family="Helvetica,sans-Serif" font-size="10.00">com.teragrep.pth_06.ast.transform.</text>
<text text-anchor="middle" x="1092" y="-7" font-family="Helvetica,sans-Serif" font-size="10.00">UniqueChildren.transformed</text>
</a>
</g>
</g>
<!-- Node4&#45;&gt;Node11 -->
<g id="edge12_Node000004_Node000011" class="edge">
<title>Node4&#45;&gt;Node11</title>
<g id="a_edge12_Node000004_Node000011"><a xlink:title=" ">
<path fill="none" stroke="#63b8ff" d="M862.19,-95.99C891.7,-79.94 941.01,-54.69 986,-39 992.41,-36.77 999.11,-34.68 1005.89,-32.75"/>
<polygon fill="#63b8ff" stroke="#63b8ff" points="1007.13,-36.04 1015.85,-30.04 1005.29,-29.29 1007.13,-36.04"/>
</a>
</g>
</g>
<!-- Node6&#45;&gt;Node6 -->
<g id="edge8_Node000006_Node000006" class="edge">
<title>Node6&#45;&gt;Node6</title>
<g id="a_edge8_Node000006_Node000006"><a xlink:title=" ">
<path fill="none" stroke="#63b8ff" d="M1050.52,-192.28C1041.3,-201.41 1055.12,-210 1092,-210 1113.89,-210 1127.66,-206.97 1133.31,-202.6"/>
<polygon fill="#63b8ff" stroke="#63b8ff" points="1136.81,-202.33 1133.48,-192.28 1129.81,-202.21 1136.81,-202.33"/>
</a>
</g>
</g>
<!-- Node7 -->
<g id="Node000007" class="node">
<title>Node7</title>
<g id="a_Node000007"><a xlink:href="classcom_1_1teragrep_1_1pth__06_1_1ast_1_1transform_1_1FlattenLogical.html#a3b9085857dc57e88c58a6fa5a057f103" target="_top" xlink:title=" ">
<polygon fill="white" stroke="#666666" points="1425,-216 1234,-216 1234,-186 1425,-186 1425,-216"/>
<text text-anchor="start" x="1242" y="-204" font-family="Helvetica,sans-Serif" font-size="10.00">com.teragrep.pth_06.ast.transform.</text>
<text text-anchor="middle" x="1329.5" y="-193" font-family="Helvetica,sans-Serif" font-size="10.00">FlattenLogical.flattenedAndChildren</text>
</a>
</g>
</g>
<!-- Node6&#45;&gt;Node7 -->
<g id="edge6_Node000006_Node000007" class="edge">
<title>Node6&#45;&gt;Node7</title>
<g id="a_edge6_Node000006_Node000007"><a xlink:title=" ">
<path fill="none" stroke="#63b8ff" d="M1187.09,-186.59C1199.1,-187.81 1211.46,-189.07 1223.62,-190.31"/>
<polygon fill="#63b8ff" stroke="#63b8ff" points="1223.49,-193.82 1233.79,-191.35 1224.2,-186.85 1223.49,-193.82"/>
</a>
</g>
</g>
<!-- Node8 -->
<g id="Node000008" class="node">
<title>Node8</title>
<g id="a_Node000008"><a xlink:href="classcom_1_1teragrep_1_1pth__06_1_1ast_1_1transform_1_1FlattenLogical.html#ae0b8acc47ab74872494d07da365e303b" target="_top" xlink:title=" ">
<polygon fill="white" stroke="#666666" points="1424.5,-168 1234.5,-168 1234.5,-138 1424.5,-138 1424.5,-168"/>
<text text-anchor="start" x="1242.5" y="-156" font-family="Helvetica,sans-Serif" font-size="10.00">com.teragrep.pth_06.ast.transform.</text>
<text text-anchor="middle" x="1329.5" y="-145" font-family="Helvetica,sans-Serif" font-size="10.00">FlattenLogical.flattenedOrChildren</text>
</a>
</g>
</g>
<!-- Node6&#45;&gt;Node8 -->
<g id="edge7_Node000006_Node000008" class="edge">
<title>Node6&#45;&gt;Node8</title>
<g id="a_edge7_Node000006_Node000008"><a xlink:title=" ">
<path fill="none" stroke="#63b8ff" d="M1187.09,-167.41C1199.2,-166.18 1211.66,-164.91 1223.93,-163.66"/>
<polygon fill="#63b8ff" stroke="#63b8ff" points="1224.58,-167.11 1234.17,-162.61 1223.87,-160.14 1224.58,-167.11"/>
</a>
</g>
</g>
<!-- Node9&#45;&gt;Node9 -->
<g id="edge10_Node000009_Node000009" class="edge">
<title>Node9&#45;&gt;Node9</title>
<g id="a_edge10_Node000009_Node000009"><a xlink:title=" ">
<path fill="none" stroke="#63b8ff" d="M1050.52,-126.28C1041.3,-135.41 1055.12,-144 1092,-144 1113.89,-144 1127.66,-140.97 1133.31,-136.6"/>
<polygon fill="#63b8ff" stroke="#63b8ff" points="1136.81,-136.33 1133.48,-126.28 1129.81,-136.21 1136.81,-136.33"/>
</a>
</g>
</g>
</g>
</svg>
