<?xml version="1.0" encoding="UTF-8" standalone="no"?>
<!DOCTYPE svg PUBLIC "-//W3C//DTD SVG 1.1//EN"
 "http://www.w3.org/Graphics/SVG/1.1/DTD/svg11.dtd">
<!-- Generated by graphviz version 2.43.0 (0)
 -->
<!-- Title: com.teragrep.pth_06.ast.analyze.StreamIDGroup.StreamIDGroup Pages: 1 -->
<svg width="653pt" height="134pt"
 viewBox="0.00 0.00 653.00 134.00" xmlns="http://www.w3.org/2000/svg" xmlns:xlink="http://www.w3.org/1999/xlink">
<g id="graph0" class="graph" transform="scale(1 1) rotate(0) translate(4 130)">
<title>com.teragrep.pth_06.ast.analyze.StreamIDGroup.StreamIDGroup</title>
<!-- Node1 -->
<g id="Node000001" class="node">
<title>Node1</title>
<g id="a_Node000001"><a xlink:title=" ">
<polygon fill="#999999" stroke="#666666" points="180,-78 0,-78 0,-48 180,-48 180,-78"/>
<text text-anchor="start" x="8" y="-66" font-family="Helvetica,sans-Serif" font-size="10.00">com.teragrep.pth_06.ast.analyze.</text>
<text text-anchor="middle" x="90" y="-55" font-family="Helvetica,sans-Serif" font-size="10.00">StreamIDGroup.StreamIDGroup</text>
</a>
</g>
</g>
<!-- Node2 -->
<g id="Node000002" class="node">
<title>Node2</title>
<g id="a_Node000002"><a xlink:href="classcom_1_1teragrep_1_1pth__06_1_1ast_1_1analyze_1_1ClassifiedExpressions.html#a00ac3e5899be879258c4698ddf784e81" target="_top" xlink:title=" ">
<polygon fill="white" stroke="#666666" points="404.5,-126 224.5,-126 224.5,-96 404.5,-96 404.5,-126"/>
<text text-anchor="start" x="232.5" y="-114" font-family="Helvetica,sans-Serif" font-size="10.00">com.teragrep.pth_06.ast.analyze.</text>
<text text-anchor="middle" x="314.5" y="-103" font-family="Helvetica,sans-Serif" font-size="10.00">ClassifiedExpressions.hostList</text>
</a>
</g>
</g>
<!-- Node1&#45;&gt;Node2 -->
<g id="edge1_Node000001_Node000002" class="edge">
<title>Node1&#45;&gt;Node2</title>
<g id="a_edge1_Node000001_Node000002"><a xlink:title=" ">
<path fill="none" stroke="#63b8ff" d="M160.79,-78.06C183.98,-83.06 209.99,-88.67 233.87,-93.82"/>
<polygon fill="#63b8ff" stroke="#63b8ff" points="233.44,-97.31 243.96,-96 234.92,-90.47 233.44,-97.31"/>
</a>
</g>
</g>
<!-- Node4 -->
<g id="Node000004" class="node">
<title>Node4</title>
<g id="a_Node000004"><a xlink:href="classcom_1_1teragrep_1_1pth__06_1_1ast_1_1analyze_1_1ClassifiedExpressions.html#aa09862aadc0af24b633817931f715896" target="_top" xlink:title=" ">
<polygon fill="white" stroke="#666666" points="404.5,-78 224.5,-78 224.5,-48 404.5,-48 404.5,-78"/>
<text text-anchor="start" x="232.5" y="-66" font-family="Helvetica,sans-Serif" font-size="10.00">com.teragrep.pth_06.ast.analyze.</text>
<text text-anchor="middle" x="314.5" y="-55" font-family="Helvetica,sans-Serif" font-size="10.00">ClassifiedExpressions.indexList</text>
</a>
</g>
</g>
<!-- Node1&#45;&gt;Node4 -->
<g id="edge3_Node000001_Node000004" class="edge">
<title>Node1&#45;&gt;Node4</title>
<g id="a_edge3_Node000001_Node000004"><a xlink:title=" ">
<path fill="none" stroke="#63b8ff" d="M180.22,-63C191.32,-63 202.74,-63 213.99,-63"/>
<polygon fill="#63b8ff" stroke="#63b8ff" points="214.26,-66.5 224.26,-63 214.26,-59.5 214.26,-66.5"/>
</a>
</g>
</g>
<!-- Node5 -->
<g id="Node000005" class="node">
<title>Node5</title>
<g id="a_Node000005"><a xlink:href="classcom_1_1teragrep_1_1pth__06_1_1ast_1_1analyze_1_1ClassifiedExpressions.html#a23983fe0f955300072a3bc2a30e379f3" target="_top" xlink:title=" ">
<polygon fill="white" stroke="#666666" points="413,-30 216,-30 216,0 413,0 413,-30"/>
<text text-anchor="start" x="224" y="-18" font-family="Helvetica,sans-Serif" font-size="10.00">com.teragrep.pth_06.ast.analyze.</text>
<text text-anchor="middle" x="314.5" y="-7" font-family="Helvetica,sans-Serif" font-size="10.00">ClassifiedExpressions.sourceTypeList</text>
</a>
</g>
</g>
<!-- Node1&#45;&gt;Node5 -->
<g id="edge5_Node000001_Node000005" class="edge">
<title>Node1&#45;&gt;Node5</title>
<g id="a_edge5_Node000001_Node000005"><a xlink:title=" ">
<path fill="none" stroke="#63b8ff" d="M160.79,-47.94C183.98,-42.94 209.99,-37.33 233.87,-32.18"/>
<polygon fill="#63b8ff" stroke="#63b8ff" points="234.92,-35.53 243.96,-30 233.44,-28.69 234.92,-35.53"/>
</a>
</g>
</g>
<!-- Node3 -->
<g id="Node000003" class="node">
<title>Node3</title>
<g id="a_Node000003"><a xlink:href="classcom_1_1teragrep_1_1pth__06_1_1ast_1_1analyze_1_1ClassifiedExpressions.html#a5b892fa54a3c7ac63f7cc75cf9d38711" target="_top" xlink:title=" ">
<polygon fill="white" stroke="#666666" points="645,-83.5 449,-83.5 449,-42.5 645,-42.5 645,-83.5"/>
<text text-anchor="start" x="457" y="-71.5" font-family="Helvetica,sans-Serif" font-size="10.00">com.teragrep.pth_06.ast.analyze.</text>
<text text-anchor="start" x="457" y="-60.5" font-family="Helvetica,sans-Serif" font-size="10.00">ClassifiedExpressions.expressionList</text>
<text text-anchor="middle" x="547" y="-49.5" font-family="Helvetica,sans-Serif" font-size="10.00">FilteredByTag</text>
</a>
</g>
</g>
<!-- Node2&#45;&gt;Node3 -->
<g id="edge2_Node000002_Node000003" class="edge">
<title>Node2&#45;&gt;Node3</title>
<g id="a_edge2_Node000002_Node000003"><a xlink:title=" ">
<path fill="none" stroke="#63b8ff" d="M387.8,-95.94C403.91,-92.59 421.33,-88.96 438.52,-85.38"/>
<polygon fill="#63b8ff" stroke="#63b8ff" points="439.53,-88.75 448.6,-83.28 438.1,-81.89 439.53,-88.75"/>
</a>
</g>
</g>
<!-- Node4&#45;&gt;Node3 -->
<g id="edge4_Node000004_Node000003" class="edge">
<title>Node4&#45;&gt;Node3</title>
<g id="a_edge4_Node000004_Node000003"><a xlink:title=" ">
<path fill="none" stroke="#63b8ff" d="M404.62,-63C415.67,-63 427.07,-63 438.37,-63"/>
<polygon fill="#63b8ff" stroke="#63b8ff" points="438.7,-66.5 448.7,-63 438.7,-59.5 438.7,-66.5"/>
</a>
</g>
</g>
<!-- Node5&#45;&gt;Node3 -->
<g id="edge6_Node000005_Node000003" class="edge">
<title>Node5&#45;&gt;Node3</title>
<g id="a_edge6_Node000005_Node000003"><a xlink:title=" ">
<path fill="none" stroke="#63b8ff" d="M387.8,-30.06C403.91,-33.41 421.33,-37.04 438.52,-40.62"/>
<polygon fill="#63b8ff" stroke="#63b8ff" points="438.1,-44.11 448.6,-42.72 439.53,-37.25 438.1,-44.11"/>
</a>
</g>
</g>
</g>
</svg>
