<?xml version="1.0" encoding="UTF-8" standalone="no"?>
<!DOCTYPE svg PUBLIC "-//W3C//DTD SVG 1.1//EN"
 "http://www.w3.org/Graphics/SVG/1.1/DTD/svg11.dtd">
<!-- Generated by graphviz version 2.43.0 (0)
 -->
<!-- Title: com.teragrep.pth_06.ast.transform.FlattenLogicalTest.testNonLogicalIgnored Pages: 1 -->
<svg width="861pt" height="177pt"
 viewBox="0.00 0.00 861.00 177.00" xmlns="http://www.w3.org/2000/svg" xmlns:xlink="http://www.w3.org/1999/xlink">
<g id="graph0" class="graph" transform="scale(1 1) rotate(0) translate(4 173)">
<title>com.teragrep.pth_06.ast.transform.FlattenLogicalTest.testNonLogicalIgnored</title>
<!-- Node1 -->
<g id="Node000001" class="node">
<title>Node1</title>
<g id="a_Node000001"><a xlink:title=" ">
<polygon fill="#999999" stroke="#666666" points="218,-94 0,-94 0,-64 218,-64 218,-94"/>
<text text-anchor="start" x="8" y="-82" font-family="Helvetica,sans-Serif" font-size="10.00">com.teragrep.pth_06.ast.transform.</text>
<text text-anchor="middle" x="109" y="-71" font-family="Helvetica,sans-Serif" font-size="10.00">FlattenLogicalTest.testNonLogicalIgnored</text>
</a>
</g>
</g>
<!-- Node2 -->
<g id="Node000002" class="node">
<title>Node2</title>
<g id="a_Node000002"><a xlink:href="classcom_1_1teragrep_1_1pth__06_1_1ast_1_1transform_1_1FlattenLogical.html#a2e1717ad6884eea7a2415aa7763eaed5" target="_top" xlink:title=" ">
<polygon fill="white" stroke="#666666" points="444,-94 254,-94 254,-64 444,-64 444,-94"/>
<text text-anchor="start" x="262" y="-82" font-family="Helvetica,sans-Serif" font-size="10.00">com.teragrep.pth_06.ast.transform.</text>
<text text-anchor="middle" x="349" y="-71" font-family="Helvetica,sans-Serif" font-size="10.00">FlattenLogical.transformed</text>
</a>
</g>
</g>
<!-- Node1&#45;&gt;Node2 -->
<g id="edge1_Node000001_Node000002" class="edge">
<title>Node1&#45;&gt;Node2</title>
<g id="a_edge1_Node000001_Node000002"><a xlink:title=" ">
<path fill="none" stroke="#63b8ff" d="M218.21,-79C226.67,-79 235.22,-79 243.66,-79"/>
<polygon fill="#63b8ff" stroke="#63b8ff" points="243.89,-82.5 253.89,-79 243.89,-75.5 243.89,-82.5"/>
</a>
</g>
</g>
<!-- Node2&#45;&gt;Node2 -->
<g id="edge12_Node000002_Node000002" class="edge">
<title>Node2&#45;&gt;Node2</title>
<g id="a_edge12_Node000002_Node000002"><a xlink:title=" ">
<path fill="none" stroke="#63b8ff" d="M309.27,-94.28C300.45,-103.41 313.69,-112 349,-112 369.97,-112 383.15,-108.97 388.56,-104.6"/>
<polygon fill="#63b8ff" stroke="#63b8ff" points="392.06,-104.33 388.73,-94.28 385.06,-104.22 392.06,-104.33"/>
</a>
</g>
</g>
<!-- Node3 -->
<g id="Node000003" class="node">
<title>Node3</title>
<g id="a_Node000003"><a xlink:href="classcom_1_1teragrep_1_1pth__06_1_1ast_1_1transform_1_1FlattenLogical.html#a3b9085857dc57e88c58a6fa5a057f103" target="_top" xlink:title=" ">
<polygon fill="white" stroke="#666666" points="671,-164 480,-164 480,-134 671,-134 671,-164"/>
<text text-anchor="start" x="488" y="-152" font-family="Helvetica,sans-Serif" font-size="10.00">com.teragrep.pth_06.ast.transform.</text>
<text text-anchor="middle" x="575.5" y="-141" font-family="Helvetica,sans-Serif" font-size="10.00">FlattenLogical.flattenedAndChildren</text>
</a>
</g>
</g>
<!-- Node2&#45;&gt;Node3 -->
<g id="edge2_Node000002_Node000003" class="edge">
<title>Node2&#45;&gt;Node3</title>
<g id="a_edge2_Node000002_Node000003"><a xlink:title=" ">
<path fill="none" stroke="#63b8ff" d="M389.52,-94.04C415.12,-103.52 449.3,-115.69 480,-125 487.15,-127.17 494.65,-129.3 502.16,-131.35"/>
<polygon fill="#63b8ff" stroke="#63b8ff" points="501.44,-134.78 512.01,-133.99 503.25,-128.02 501.44,-134.78"/>
</a>
</g>
</g>
<!-- Node6 -->
<g id="Node000006" class="node">
<title>Node6</title>
<g id="a_Node000006"><a xlink:href="interfacecom_1_1teragrep_1_1pth__06_1_1ast_1_1Expression.html#a8b9661253a3610b9eb148ee29ca8b7e1" target="_top" xlink:title=" ">
<polygon fill="white" stroke="#666666" points="849.5,-73 710.5,-73 710.5,-43 849.5,-43 849.5,-73"/>
<text text-anchor="start" x="718.5" y="-61" font-family="Helvetica,sans-Serif" font-size="10.00">com.teragrep.pth_06.ast.</text>
<text text-anchor="middle" x="780" y="-50" font-family="Helvetica,sans-Serif" font-size="10.00">Expression.tag</text>
</a>
</g>
</g>
<!-- Node2&#45;&gt;Node6 -->
<g id="edge11_Node000002_Node000006" class="edge">
<title>Node2&#45;&gt;Node6</title>
<g id="a_edge11_Node000002_Node000006"><a xlink:title=" ">
<path fill="none" stroke="#63b8ff" d="M444.15,-74.39C520.78,-70.64 627.73,-65.4 699.97,-61.87"/>
<polygon fill="#63b8ff" stroke="#63b8ff" points="700.55,-65.34 710.37,-61.36 700.21,-58.35 700.55,-65.34"/>
</a>
</g>
</g>
<!-- Node7 -->
<g id="Node000007" class="node">
<title>Node7</title>
<g id="a_Node000007"><a xlink:href="classcom_1_1teragrep_1_1pth__06_1_1ast_1_1transform_1_1FlattenLogical.html#ae0b8acc47ab74872494d07da365e303b" target="_top" xlink:title=" ">
<polygon fill="white" stroke="#666666" points="670.5,-116 480.5,-116 480.5,-86 670.5,-86 670.5,-116"/>
<text text-anchor="start" x="488.5" y="-104" font-family="Helvetica,sans-Serif" font-size="10.00">com.teragrep.pth_06.ast.transform.</text>
<text text-anchor="middle" x="575.5" y="-93" font-family="Helvetica,sans-Serif" font-size="10.00">FlattenLogical.flattenedOrChildren</text>
</a>
</g>
</g>
<!-- Node2&#45;&gt;Node7 -->
<g id="edge6_Node000002_Node000007" class="edge">
<title>Node2&#45;&gt;Node7</title>
<g id="a_edge6_Node000002_Node000007"><a xlink:title=" ">
<path fill="none" stroke="#63b8ff" d="M444.23,-88.23C452.77,-89.07 461.45,-89.92 470.07,-90.77"/>
<polygon fill="#63b8ff" stroke="#63b8ff" points="469.86,-94.26 480.15,-91.75 470.54,-87.3 469.86,-94.26"/>
</a>
</g>
</g>
<!-- Node8 -->
<g id="Node000008" class="node">
<title>Node8</title>
<g id="a_Node000008"><a xlink:href="interfacecom_1_1teragrep_1_1pth__06_1_1ast_1_1Expression.html#a65ee7f5fb98e4129018f467a53586842" target="_top" xlink:title=" ">
<polygon fill="white" stroke="#666666" points="645,-30 506,-30 506,0 645,0 645,-30"/>
<text text-anchor="start" x="514" y="-18" font-family="Helvetica,sans-Serif" font-size="10.00">com.teragrep.pth_06.ast.</text>
<text text-anchor="middle" x="575.5" y="-7" font-family="Helvetica,sans-Serif" font-size="10.00">Expression.isLogical</text>
</a>
</g>
</g>
<!-- Node2&#45;&gt;Node8 -->
<g id="edge10_Node000002_Node000008" class="edge">
<title>Node2&#45;&gt;Node8</title>
<g id="a_edge10_Node000002_Node000008"><a xlink:title=" ">
<path fill="none" stroke="#63b8ff" d="M402.64,-63.99C435.31,-54.68 477.48,-42.66 511.87,-32.86"/>
<polygon fill="#63b8ff" stroke="#63b8ff" points="513.15,-36.13 521.81,-30.02 511.23,-29.4 513.15,-36.13"/>
</a>
</g>
</g>
<!-- Node4 -->
<g id="Node000004" class="node">
<title>Node4</title>
<g id="a_Node000004"><a xlink:href="interfacecom_1_1teragrep_1_1pth__06_1_1ast_1_1Expression.html#a17e7d33905be57c6e22e1717da6ddef6" target="_top" xlink:title=" ">
<polygon fill="white" stroke="#666666" points="849.5,-121 710.5,-121 710.5,-91 849.5,-91 849.5,-121"/>
<text text-anchor="start" x="718.5" y="-109" font-family="Helvetica,sans-Serif" font-size="10.00">com.teragrep.pth_06.ast.</text>
<text text-anchor="middle" x="780" y="-98" font-family="Helvetica,sans-Serif" font-size="10.00">Expression.asLogical</text>
</a>
</g>
</g>
<!-- Node3&#45;&gt;Node4 -->
<g id="edge3_Node000003_Node000004" class="edge">
<title>Node3&#45;&gt;Node4</title>
<g id="a_edge3_Node000003_Node000004"><a xlink:title=" ">
<path fill="none" stroke="#63b8ff" d="M647.32,-133.96C664.39,-130.34 682.73,-126.44 700.14,-122.75"/>
<polygon fill="#63b8ff" stroke="#63b8ff" points="701.21,-126.1 710.26,-120.6 699.75,-119.25 701.21,-126.1"/>
</a>
</g>
</g>
<!-- Node5 -->
<g id="Node000005" class="node">
<title>Node5</title>
<g id="a_Node000005"><a xlink:href="interfacecom_1_1teragrep_1_1pth__06_1_1ast_1_1LogicalExpression.html#aeaf8fe296c6899792f345659a9a6c0c4" target="_top" xlink:title=" ">
<polygon fill="white" stroke="#666666" points="853,-169 707,-169 707,-139 853,-139 853,-169"/>
<text text-anchor="start" x="715" y="-157" font-family="Helvetica,sans-Serif" font-size="10.00">com.teragrep.pth_06.ast.</text>
<text text-anchor="middle" x="780" y="-146" font-family="Helvetica,sans-Serif" font-size="10.00">LogicalExpression.children</text>
</a>
</g>
</g>
<!-- Node3&#45;&gt;Node5 -->
<g id="edge4_Node000003_Node000005" class="edge">
<title>Node3&#45;&gt;Node5</title>
<g id="a_edge4_Node000003_Node000005"><a xlink:title=" ">
<path fill="none" stroke="#63b8ff" d="M671.23,-151.34C679.72,-151.55 688.27,-151.76 696.64,-151.97"/>
<polygon fill="#63b8ff" stroke="#63b8ff" points="696.66,-155.47 706.75,-152.22 696.84,-148.47 696.66,-155.47"/>
</a>
</g>
</g>
<!-- Node3&#45;&gt;Node6 -->
<g id="edge5_Node000003_Node000006" class="edge">
<title>Node3&#45;&gt;Node6</title>
<g id="a_edge5_Node000003_Node000006"><a xlink:title=" ">
<path fill="none" stroke="#63b8ff" d="M653.52,-133.88C659.64,-131.36 665.55,-128.42 671,-125 692.1,-111.73 686.4,-96.03 707,-82 709.27,-80.45 711.65,-79 714.1,-77.64"/>
<polygon fill="#63b8ff" stroke="#63b8ff" points="715.87,-80.67 723.25,-73.07 712.74,-74.4 715.87,-80.67"/>
</a>
</g>
</g>
<!-- Node7&#45;&gt;Node4 -->
<g id="edge7_Node000007_Node000004" class="edge">
<title>Node7&#45;&gt;Node4</title>
<g id="a_edge7_Node000007_Node000004"><a xlink:title=" ">
<path fill="none" stroke="#63b8ff" d="M670.64,-103.32C680.6,-103.57 690.66,-103.82 700.42,-104.06"/>
<polygon fill="#63b8ff" stroke="#63b8ff" points="700.39,-107.56 710.47,-104.31 700.56,-100.56 700.39,-107.56"/>
</a>
</g>
</g>
<!-- Node7&#45;&gt;Node5 -->
<g id="edge8_Node000007_Node000005" class="edge">
<title>Node7&#45;&gt;Node5</title>
<g id="a_edge8_Node000007_Node000005"><a xlink:title=" ">
<path fill="none" stroke="#63b8ff" d="M636.27,-116.05C647.8,-118.99 659.78,-122.07 671,-125 684.75,-128.59 699.48,-132.5 713.49,-136.26"/>
<polygon fill="#63b8ff" stroke="#63b8ff" points="712.98,-139.74 723.54,-138.95 714.79,-132.98 712.98,-139.74"/>
</a>
</g>
</g>
<!-- Node7&#45;&gt;Node6 -->
<g id="edge9_Node000007_Node000006" class="edge">
<title>Node7&#45;&gt;Node6</title>
<g id="a_edge9_Node000007_Node000006"><a xlink:title=" ">
<path fill="none" stroke="#63b8ff" d="M647.32,-85.96C664.39,-82.34 682.73,-78.44 700.14,-74.75"/>
<polygon fill="#63b8ff" stroke="#63b8ff" points="701.21,-78.1 710.26,-72.6 699.75,-71.25 701.21,-78.1"/>
</a>
</g>
</g>
</g>
</svg>
