<?xml version="1.0" encoding="UTF-8" standalone="no"?>
<!DOCTYPE svg PUBLIC "-//W3C//DTD SVG 1.1//EN"
 "http://www.w3.org/Graphics/SVG/1.1/DTD/svg11.dtd">
<!-- Generated by graphviz version 2.43.0 (0)
 -->
<!-- Title: com.teragrep.pth_06.ArchiveMicroStreamReader.useKafka Pages: 1 -->
<svg width="607pt" height="134pt"
 viewBox="0.00 0.00 607.00 134.00" xmlns="http://www.w3.org/2000/svg" xmlns:xlink="http://www.w3.org/1999/xlink">
<g id="graph0" class="graph" transform="scale(1 1) rotate(0) translate(4 130)">
<title>com.teragrep.pth_06.ArchiveMicroStreamReader.useKafka</title>
<!-- Node1 -->
<g id="Node000001" class="node">
<title>Node1</title>
<g id="a_Node000001"><a xlink:title=" ">
<polygon fill="#999999" stroke="#666666" points="599,-78 438,-78 438,-48 599,-48 599,-78"/>
<text text-anchor="start" x="446" y="-66" font-family="Helvetica,sans-Serif" font-size="10.00">com.teragrep.pth_06.Archive</text>
<text text-anchor="middle" x="518.5" y="-55" font-family="Helvetica,sans-Serif" font-size="10.00">MicroStreamReader.useKafka</text>
</a>
</g>
</g>
<!-- Node2 -->
<g id="Node000002" class="node">
<title>Node2</title>
<g id="a_Node000002"><a xlink:href="classcom_1_1teragrep_1_1pth__06_1_1ArchiveMicroStreamReader.html#ac732dee6220acab0c21d55c0ea40255b" target="_top" xlink:title="Used when Spark requests the initial offset when starting a new query.">
<polygon fill="white" stroke="#666666" points="387,-126 214,-126 214,-96 387,-96 387,-126"/>
<text text-anchor="start" x="222" y="-114" font-family="Helvetica,sans-Serif" font-size="10.00">com.teragrep.pth_06.Archive</text>
<text text-anchor="middle" x="300.5" y="-103" font-family="Helvetica,sans-Serif" font-size="10.00">MicroStreamReader.initialOffset</text>
</a>
</g>
</g>
<!-- Node1&#45;&gt;Node2 -->
<g id="edge1_Node000001_Node000002" class="edge">
<title>Node1&#45;&gt;Node2</title>
<g id="a_edge1_Node000001_Node000002"><a xlink:title=" ">
<path fill="none" stroke="#63b8ff" d="M439.95,-80.23C416.75,-85.39 391.51,-91 369.01,-96"/>
<polygon fill="#63b8ff" stroke="#63b8ff" points="440.75,-83.64 449.75,-78.06 439.23,-76.81 440.75,-83.64"/>
</a>
</g>
</g>
<!-- Node3 -->
<g id="Node000003" class="node">
<title>Node3</title>
<g id="a_Node000003"><a xlink:href="classcom_1_1teragrep_1_1pth__06_1_1ArchiveMicroStreamReader.html#ae820a68e1ec38574202423e1b649e9cc" target="_top" xlink:title="Used when Spark progresses the query further to fetch more data.">
<polygon fill="white" stroke="#666666" points="387,-78 214,-78 214,-48 387,-48 387,-78"/>
<text text-anchor="start" x="222" y="-66" font-family="Helvetica,sans-Serif" font-size="10.00">com.teragrep.pth_06.Archive</text>
<text text-anchor="middle" x="300.5" y="-55" font-family="Helvetica,sans-Serif" font-size="10.00">MicroStreamReader.latestOffset</text>
</a>
</g>
</g>
<!-- Node1&#45;&gt;Node3 -->
<g id="edge2_Node000001_Node000003" class="edge">
<title>Node1&#45;&gt;Node3</title>
<g id="a_edge2_Node000001_Node000003"><a xlink:title=" ">
<path fill="none" stroke="#63b8ff" d="M427.77,-63C414.28,-63 400.41,-63 387.02,-63"/>
<polygon fill="#63b8ff" stroke="#63b8ff" points="427.99,-66.5 437.99,-63 427.99,-59.5 427.99,-66.5"/>
</a>
</g>
</g>
<!-- Node4 -->
<g id="Node000004" class="node">
<title>Node4</title>
<g id="a_Node000004"><a xlink:href="classcom_1_1teragrep_1_1pth__06_1_1ArchiveMicroStreamReader.html#a36e4e32119c7727123f0afffcbb27780" target="_top" xlink:title=" ">
<polygon fill="white" stroke="#666666" points="402,-30 199,-30 199,0 402,0 402,-30"/>
<text text-anchor="start" x="207" y="-18" font-family="Helvetica,sans-Serif" font-size="10.00">com.teragrep.pth_06.Archive</text>
<text text-anchor="middle" x="300.5" y="-7" font-family="Helvetica,sans-Serif" font-size="10.00">MicroStreamReader.mostRecentOffset</text>
</a>
</g>
</g>
<!-- Node1&#45;&gt;Node4 -->
<g id="edge3_Node000001_Node000004" class="edge">
<title>Node1&#45;&gt;Node4</title>
<g id="a_edge3_Node000001_Node000004"><a xlink:title=" ">
<path fill="none" stroke="#63b8ff" d="M439.95,-45.77C416.75,-40.61 391.51,-35 369.01,-30"/>
<polygon fill="#63b8ff" stroke="#63b8ff" points="439.23,-49.19 449.75,-47.94 440.75,-42.36 439.23,-49.19"/>
</a>
</g>
</g>
<!-- Node5 -->
<g id="Node000005" class="node">
<title>Node5</title>
<g id="a_Node000005"><a xlink:href="classcom_1_1teragrep_1_1pth__06_1_1TeragrepScan.html#a602d40fbaa787d342efce68249ab6ea1" target="_top" xlink:title=" ">
<polygon fill="white" stroke="#666666" points="163,-30 0,-30 0,0 163,0 163,-30"/>
<text text-anchor="start" x="8" y="-18" font-family="Helvetica,sans-Serif" font-size="10.00">com.teragrep.pth_06.Teragrep</text>
<text text-anchor="middle" x="81.5" y="-7" font-family="Helvetica,sans-Serif" font-size="10.00">Scan.reportDriverMetrics</text>
</a>
</g>
</g>
<!-- Node4&#45;&gt;Node5 -->
<g id="edge4_Node000004_Node000005" class="edge">
<title>Node4&#45;&gt;Node5</title>
<g id="a_edge4_Node000004_Node000005"><a xlink:title=" ">
<path fill="none" stroke="#63b8ff" d="M188.82,-15C180.2,-15 171.59,-15 163.22,-15"/>
<polygon fill="#63b8ff" stroke="#63b8ff" points="188.94,-18.5 198.94,-15 188.94,-11.5 188.94,-18.5"/>
</a>
</g>
</g>
</g>
</svg>
