<?xml version="1.0" encoding="UTF-8" standalone="no"?>
<!DOCTYPE svg PUBLIC "-//W3C//DTD SVG 1.1//EN"
 "http://www.w3.org/Graphics/SVG/1.1/DTD/svg11.dtd">
<!-- Generated by graphviz version 2.43.0 (0)
 -->
<!-- Title: com.teragrep.pth_06.planner.ArchiveQueryProcessor Pages: 1 -->
<svg width="965pt" height="163pt"
 viewBox="0.00 0.00 965.00 162.55" xmlns="http://www.w3.org/2000/svg" xmlns:xlink="http://www.w3.org/1999/xlink">
<g id="graph0" class="graph" transform="scale(1 1) rotate(0) translate(4 158.55)">
<title>com.teragrep.pth_06.planner.ArchiveQueryProcessor</title>
<!-- Node1 -->
<g id="Node000001" class="node">
<title>Node1</title>
<g id="a_Node000001"><a xlink:title=" ">
<polygon fill="#999999" stroke="#666666" points="957,-133.55 797,-133.55 797,-103.55 957,-103.55 957,-133.55"/>
<text text-anchor="start" x="805" y="-121.55" font-family="Helvetica,sans-Serif" font-size="10.00">com.teragrep.pth_06.planner.</text>
<text text-anchor="middle" x="877" y="-110.55" font-family="Helvetica,sans-Serif" font-size="10.00">ArchiveQueryProcessor</text>
</a>
</g>
</g>
<!-- Node2 -->
<g id="Node000002" class="node">
<title>Node2</title>
<g id="a_Node000002"><a xlink:href="interfacecom_1_1teragrep_1_1pth__06_1_1planner_1_1ArchiveQuery.html" target="_top" xlink:title=" ">
<polygon fill="white" stroke="#666666" points="671,-154.55 511,-154.55 511,-124.55 671,-124.55 671,-154.55"/>
<text text-anchor="start" x="519" y="-142.55" font-family="Helvetica,sans-Serif" font-size="10.00">com.teragrep.pth_06.planner.</text>
<text text-anchor="middle" x="591" y="-131.55" font-family="Helvetica,sans-Serif" font-size="10.00">ArchiveQuery</text>
</a>
</g>
</g>
<!-- Node2&#45;&gt;Node1 -->
<g id="edge1_Node000001_Node000002" class="edge">
<title>Node2&#45;&gt;Node1</title>
<g id="a_edge1_Node000001_Node000002"><a xlink:title=" ">
<path fill="none" stroke="#63b8ff" d="M681.39,-132.94C718.4,-130.2 760.96,-127.06 796.82,-124.4"/>
<polygon fill="#63b8ff" stroke="#63b8ff" points="680.82,-129.47 671.11,-133.7 681.34,-136.45 680.82,-129.47"/>
</a>
</g>
</g>
<!-- Node3 -->
<g id="Node000003" class="node">
<title>Node3</title>
<g id="a_Node000003"><a xlink:href="interfacecom_1_1teragrep_1_1pth__06_1_1Stubbable.html" target="_top" xlink:title=" ">
<polygon fill="white" stroke="#666666" points="423,-153.05 253,-153.05 253,-134.05 423,-134.05 423,-153.05"/>
<text text-anchor="middle" x="338" y="-141.05" font-family="Helvetica,sans-Serif" font-size="10.00">com.teragrep.pth_06.Stubbable</text>
</a>
</g>
</g>
<!-- Node3&#45;&gt;Node2 -->
<g id="edge2_Node000002_Node000003" class="edge">
<title>Node3&#45;&gt;Node2</title>
<g id="a_edge2_Node000002_Node000003"><a xlink:title=" ">
<path fill="none" stroke="#63b8ff" d="M433.31,-142.05C458.77,-141.64 486.06,-141.21 510.61,-140.81"/>
<polygon fill="#63b8ff" stroke="#63b8ff" points="433.22,-138.55 423.28,-142.21 433.33,-145.55 433.22,-138.55"/>
</a>
</g>
</g>
<!-- Node4 -->
<g id="Node000004" class="node">
<title>Node4</title>
<g id="a_Node000004"><a xlink:href="classcom_1_1teragrep_1_1pth__06_1_1planner_1_1StreamDBClient.html" target="_top" xlink:title=" ">
<polygon fill="white" stroke="#666666" points="671,-67.55 511,-67.55 511,-37.55 671,-37.55 671,-67.55"/>
<text text-anchor="start" x="519" y="-55.55" font-family="Helvetica,sans-Serif" font-size="10.00">com.teragrep.pth_06.planner.</text>
<text text-anchor="middle" x="591" y="-44.55" font-family="Helvetica,sans-Serif" font-size="10.00">StreamDBClient</text>
</a>
</g>
</g>
<!-- Node4&#45;&gt;Node1 -->
<g id="edge3_Node000001_Node000004" class="edge">
<title>Node4&#45;&gt;Node1</title>
<g id="a_edge3_Node000001_Node000004"><a xlink:title=" ">
<path fill="none" stroke="#9a32cd" stroke-dasharray="5,2" d="M666.76,-69.92C711.58,-80.34 768.02,-93.46 810.99,-103.44"/>
<polygon fill="#9a32cd" stroke="#9a32cd" points="667.33,-66.46 656.8,-67.61 665.75,-73.28 667.33,-66.46"/>
</a>
</g>
<text text-anchor="middle" x="734" y="-97.55" font-family="Helvetica,sans-Serif" font-size="10.00" fill="grey"> sdc</text>
</g>
<!-- Node7 -->
<g id="Node000007" class="node">
<title>Node7</title>
<g id="a_Node000007"><a xlink:href="classcom_1_1teragrep_1_1pth__06_1_1planner_1_1NestedTopNQuery.html" target="_top" xlink:title=" ">
<polygon fill="white" stroke="#666666" points="957,-33.55 797,-33.55 797,-3.55 957,-3.55 957,-33.55"/>
<text text-anchor="start" x="805" y="-21.55" font-family="Helvetica,sans-Serif" font-size="10.00">com.teragrep.pth_06.planner.</text>
<text text-anchor="middle" x="877" y="-10.55" font-family="Helvetica,sans-Serif" font-size="10.00">NestedTopNQuery</text>
</a>
</g>
</g>
<!-- Node4&#45;&gt;Node7 -->
<g id="edge9_Node000007_Node000004" class="edge">
<title>Node4&#45;&gt;Node7</title>
<g id="a_edge9_Node000007_Node000004"><a xlink:title=" ">
<path fill="none" stroke="#9a32cd" stroke-dasharray="5,2" d="M634.35,-33.67C651.03,-27.19 670.57,-20.77 689,-17.55 724.02,-11.42 763.29,-10.72 796.77,-11.92"/>
<polygon fill="#9a32cd" stroke="#9a32cd" points="632.87,-30.49 624.89,-37.46 635.47,-36.99 632.87,-30.49"/>
</a>
</g>
<text text-anchor="middle" x="734" y="-20.55" font-family="Helvetica,sans-Serif" font-size="10.00" fill="grey"> streamDBClient</text>
</g>
<!-- Node5 -->
<g id="Node000005" class="node">
<title>Node5</title>
<g id="a_Node000005"><a xlink:href="classcom_1_1teragrep_1_1pth__06_1_1ConfiguredLogger.html" target="_top" xlink:title=" ">
<polygon fill="white" stroke="#666666" points="173,-39.55 0,-39.55 0,-9.55 173,-9.55 173,-39.55"/>
<text text-anchor="start" x="8" y="-27.55" font-family="Helvetica,sans-Serif" font-size="10.00">com.teragrep.pth_06.Configured</text>
<text text-anchor="middle" x="86.5" y="-16.55" font-family="Helvetica,sans-Serif" font-size="10.00">Logger</text>
</a>
</g>
</g>
<!-- Node5&#45;&gt;Node4 -->
<g id="edge4_Node000004_Node000005" class="edge">
<title>Node5&#45;&gt;Node4</title>
<g id="a_edge4_Node000004_Node000005"><a xlink:title=" ">
<path fill="none" stroke="#9a32cd" stroke-dasharray="5,2" d="M183.39,-16.25C250.63,-11.97 342.53,-9.21 423,-17.55 459.98,-21.38 500.84,-29.87 532.88,-37.52"/>
<polygon fill="#9a32cd" stroke="#9a32cd" points="182.98,-12.77 173.24,-16.92 183.44,-19.76 182.98,-12.77"/>
</a>
</g>
<text text-anchor="middle" x="338" y="-20.55" font-family="Helvetica,sans-Serif" font-size="10.00" fill="grey"> LOGGER</text>
</g>
<!-- Node6 -->
<g id="Node000006" class="node">
<title>Node6</title>
<g id="a_Node000006"><a xlink:href="classcom_1_1teragrep_1_1pth__06_1_1planner_1_1GetArchivedObjectsFilterTable.html" target="_top" xlink:title=" ">
<polygon fill="white" stroke="#666666" points="420,-115.55 256,-115.55 256,-85.55 420,-85.55 420,-115.55"/>
<text text-anchor="start" x="264" y="-103.55" font-family="Helvetica,sans-Serif" font-size="10.00">com.teragrep.pth_06.planner.</text>
<text text-anchor="middle" x="338" y="-92.55" font-family="Helvetica,sans-Serif" font-size="10.00">GetArchivedObjectsFilterTable</text>
</a>
</g>
</g>
<!-- Node5&#45;&gt;Node6 -->
<g id="edge6_Node000006_Node000005" class="edge">
<title>Node5&#45;&gt;Node6</title>
<g id="a_edge6_Node000006_Node000005"><a xlink:title=" ">
<path fill="none" stroke="#9a32cd" stroke-dasharray="5,2" d="M143.75,-42.62C175.72,-52.79 216.53,-65.61 253,-76.55 262.88,-79.51 273.44,-82.59 283.61,-85.52"/>
<polygon fill="#9a32cd" stroke="#9a32cd" points="144.72,-39.26 134.13,-39.56 142.59,-45.93 144.72,-39.26"/>
</a>
</g>
<text text-anchor="middle" x="213" y="-73.55" font-family="Helvetica,sans-Serif" font-size="10.00" fill="grey"> logger</text>
</g>
<!-- Node5&#45;&gt;Node7 -->
<g id="edge8_Node000007_Node000005" class="edge">
<title>Node5&#45;&gt;Node7</title>
<g id="a_edge8_Node000007_Node000005"><a xlink:title=" ">
<path fill="none" stroke="#9a32cd" stroke-dasharray="5,2" d="M183.32,-11.24C185.91,-10.99 188.47,-10.76 191,-10.55 218.47,-8.25 225.44,-9.21 253,-8.55 486.71,-2.91 545.64,6.46 779,-7.55 784.84,-7.9 790.86,-8.35 796.92,-8.88"/>
<polygon fill="#9a32cd" stroke="#9a32cd" points="182.87,-7.76 173.27,-12.26 183.57,-14.73 182.87,-7.76"/>
</a>
</g>
<text text-anchor="middle" x="467" y="-6.55" font-family="Helvetica,sans-Serif" font-size="10.00" fill="grey"> logger</text>
</g>
<!-- Node8 -->
<g id="Node000008" class="node">
<title>Node8</title>
<g id="a_Node000008"><a xlink:href="classcom_1_1teragrep_1_1pth__06_1_1planner_1_1SliceTable.html" target="_top" xlink:title=" ">
<polygon fill="white" stroke="#666666" points="418,-67.55 258,-67.55 258,-37.55 418,-37.55 418,-67.55"/>
<text text-anchor="start" x="266" y="-55.55" font-family="Helvetica,sans-Serif" font-size="10.00">com.teragrep.pth_06.planner.</text>
<text text-anchor="middle" x="338" y="-44.55" font-family="Helvetica,sans-Serif" font-size="10.00">SliceTable</text>
</a>
</g>
</g>
<!-- Node5&#45;&gt;Node8 -->
<g id="edge11_Node000008_Node000005" class="edge">
<title>Node5&#45;&gt;Node8</title>
<g id="a_edge11_Node000008_Node000005"><a xlink:title=" ">
<path fill="none" stroke="#9a32cd" stroke-dasharray="5,2" d="M183.12,-35.28C207.82,-38.05 234.14,-41 257.89,-43.67"/>
<polygon fill="#9a32cd" stroke="#9a32cd" points="183.34,-31.78 173.01,-34.15 182.56,-38.74 183.34,-31.78"/>
</a>
</g>
<text text-anchor="middle" x="213" y="-44.55" font-family="Helvetica,sans-Serif" font-size="10.00" fill="grey"> LOGGER</text>
</g>
<!-- Node6&#45;&gt;Node4 -->
<g id="edge5_Node000004_Node000006" class="edge">
<title>Node6&#45;&gt;Node4</title>
<g id="a_edge5_Node000004_Node000006"><a xlink:title=" ">
<path fill="none" stroke="#9a32cd" stroke-dasharray="5,2" d="M427.68,-83.59C455.03,-78.36 484.94,-72.64 511.55,-67.55"/>
<polygon fill="#9a32cd" stroke="#9a32cd" points="426.89,-80.18 417.73,-85.49 428.21,-87.05 426.89,-80.18"/>
</a>
</g>
<text text-anchor="middle" x="467" y="-83.55" font-family="Helvetica,sans-Serif" font-size="10.00" fill="grey"> filterTable</text>
</g>
<!-- Node7&#45;&gt;Node4 -->
<g id="edge7_Node000004_Node000007" class="edge">
<title>Node7&#45;&gt;Node4</title>
<g id="a_edge7_Node000004_Node000007"><a xlink:title=" ">
<path fill="none" stroke="#9a32cd" stroke-dasharray="5,2" d="M786.73,-29.61C784.12,-29.93 781.54,-30.24 779,-30.55 743.63,-34.82 704.47,-39.44 671.17,-43.34"/>
<polygon fill="#9a32cd" stroke="#9a32cd" points="787.36,-33.06 796.86,-28.38 786.51,-26.11 787.36,-33.06"/>
</a>
</g>
<text text-anchor="middle" x="734" y="-44.55" font-family="Helvetica,sans-Serif" font-size="10.00" fill="grey"> nestedTopNQuery</text>
</g>
<!-- Node8&#45;&gt;Node4 -->
<g id="edge10_Node000004_Node000008" class="edge">
<title>Node8&#45;&gt;Node4</title>
<g id="a_edge10_Node000004_Node000008"><a xlink:title=" ">
<path fill="none" stroke="#9a32cd" stroke-dasharray="5,2" d="M428.28,-52.55C455.24,-52.55 484.64,-52.55 510.89,-52.55"/>
<polygon fill="#9a32cd" stroke="#9a32cd" points="428.07,-49.05 418.07,-52.55 428.07,-56.05 428.07,-49.05"/>
</a>
</g>
<text text-anchor="middle" x="467" y="-55.55" font-family="Helvetica,sans-Serif" font-size="10.00" fill="grey"> sliceTable</text>
</g>
</g>
</svg>
