<?xml version="1.0" encoding="UTF-8" standalone="no"?>
<!DOCTYPE svg PUBLIC "-//W3C//DTD SVG 1.1//EN"
 "http://www.w3.org/Graphics/SVG/1.1/DTD/svg11.dtd">
<!-- Generated by graphviz version 2.43.0 (0)
 -->
<!-- Title: com.teragrep.pth_06.planner.SynchronizedHourlyResults.nextHour Pages: 1 -->
<svg width="469pt" height="226pt"
 viewBox="0.00 0.00 469.00 226.00" xmlns="http://www.w3.org/2000/svg" xmlns:xlink="http://www.w3.org/1999/xlink">
<g id="graph0" class="graph" transform="scale(1 1) rotate(0) translate(4 222)">
<title>com.teragrep.pth_06.planner.SynchronizedHourlyResults.nextHour</title>
<!-- Node1 -->
<g id="Node000001" class="node">
<title>Node1</title>
<g id="a_Node000001"><a xlink:title=" ">
<polygon fill="#999999" stroke="#666666" points="461,-123.5 263,-123.5 263,-93.5 461,-93.5 461,-123.5"/>
<text text-anchor="start" x="271" y="-111.5" font-family="Helvetica,sans-Serif" font-size="10.00">com.teragrep.pth_06.planner.</text>
<text text-anchor="middle" x="362" y="-100.5" font-family="Helvetica,sans-Serif" font-size="10.00">SynchronizedHourlyResults.nextHour</text>
</a>
</g>
</g>
<!-- Node2 -->
<g id="Node000002" class="node">
<title>Node2</title>
<g id="a_Node000002"><a xlink:href="classcom_1_1teragrep_1_1pth__06_1_1planner_1_1SynchronizedHourlyResultsTest.html#a582219c4b28cd924572f3469e25b830e" target="_top" xlink:title=" ">
<polygon fill="white" stroke="#666666" points="220,-218 7,-218 7,-177 220,-177 220,-218"/>
<text text-anchor="start" x="15" y="-206" font-family="Helvetica,sans-Serif" font-size="10.00">com.teragrep.pth_06.planner.</text>
<text text-anchor="start" x="15" y="-195" font-family="Helvetica,sans-Serif" font-size="10.00">SynchronizedHourlyResultsTest.multiple</text>
<text text-anchor="middle" x="113.5" y="-184" font-family="Helvetica,sans-Serif" font-size="10.00">ScanRangeViewTest</text>
</a>
</g>
</g>
<!-- Node1&#45;&gt;Node2 -->
<g id="edge1_Node000001_Node000002" class="edge">
<title>Node1&#45;&gt;Node2</title>
<g id="a_edge1_Node000001_Node000002"><a xlink:title=" ">
<path fill="none" stroke="#63b8ff" d="M322,-128.07C295.63,-140.77 259.78,-157.03 227,-168.5 218.43,-171.5 209.4,-174.34 200.33,-176.98"/>
<polygon fill="#63b8ff" stroke="#63b8ff" points="323.79,-131.09 331.26,-123.57 320.73,-124.79 323.79,-131.09"/>
</a>
</g>
</g>
<!-- Node3 -->
<g id="Node000003" class="node">
<title>Node3</title>
<g id="a_Node000003"><a xlink:href="classcom_1_1teragrep_1_1pth__06_1_1planner_1_1SynchronizedHourlyResultsTest.html#a77d26fb418d2d02ca6c56df6f520b164" target="_top" xlink:title=" ">
<polygon fill="white" stroke="#666666" points="227,-159 0,-159 0,-118 227,-118 227,-159"/>
<text text-anchor="start" x="8" y="-147" font-family="Helvetica,sans-Serif" font-size="10.00">com.teragrep.pth_06.planner.</text>
<text text-anchor="start" x="8" y="-136" font-family="Helvetica,sans-Serif" font-size="10.00">SynchronizedHourlyResultsTest.test</text>
<text text-anchor="middle" x="113.5" y="-125" font-family="Helvetica,sans-Serif" font-size="10.00">HasNextReturnsFalseAfterAllViewsFinished</text>
</a>
</g>
</g>
<!-- Node1&#45;&gt;Node3 -->
<g id="edge2_Node000001_Node000003" class="edge">
<title>Node1&#45;&gt;Node3</title>
<g id="a_edge2_Node000001_Node000003"><a xlink:title=" ">
<path fill="none" stroke="#63b8ff" d="M252.67,-121.68C244.26,-122.71 235.76,-123.74 227.33,-124.77"/>
<polygon fill="#63b8ff" stroke="#63b8ff" points="253.36,-125.13 262.87,-120.44 252.52,-118.18 253.36,-125.13"/>
</a>
</g>
</g>
<!-- Node4 -->
<g id="Node000004" class="node">
<title>Node4</title>
<g id="a_Node000004"><a xlink:href="classcom_1_1teragrep_1_1pth__06_1_1planner_1_1SynchronizedHourlyResultsTest.html#afc230f36c3e76d34e7a6fd35b2175f94" target="_top" xlink:title=" ">
<polygon fill="white" stroke="#666666" points="209,-100 18,-100 18,-59 209,-59 209,-100"/>
<text text-anchor="start" x="26" y="-88" font-family="Helvetica,sans-Serif" font-size="10.00">com.teragrep.pth_06.planner.</text>
<text text-anchor="start" x="26" y="-77" font-family="Helvetica,sans-Serif" font-size="10.00">SynchronizedHourlyResultsTest.test</text>
<text text-anchor="middle" x="113.5" y="-66" font-family="Helvetica,sans-Serif" font-size="10.00">MultipleHourlyResults</text>
</a>
</g>
</g>
<!-- Node1&#45;&gt;Node4 -->
<g id="edge3_Node000001_Node000004" class="edge">
<title>Node1&#45;&gt;Node4</title>
<g id="a_edge3_Node000001_Node000004"><a xlink:title=" ">
<path fill="none" stroke="#63b8ff" d="M252.83,-95.77C238.26,-94.06 223.4,-92.31 209.08,-90.63"/>
<polygon fill="#63b8ff" stroke="#63b8ff" points="252.53,-99.26 262.87,-96.96 253.35,-92.31 252.53,-99.26"/>
</a>
</g>
</g>
<!-- Node5 -->
<g id="Node000005" class="node">
<title>Node5</title>
<g id="a_Node000005"><a xlink:href="classcom_1_1teragrep_1_1pth__06_1_1planner_1_1SynchronizedHourlyResultsTest.html#ac5969781624162a96fdc5b6846b2aa5e" target="_top" xlink:title=" ">
<polygon fill="white" stroke="#666666" points="209,-41 18,-41 18,0 209,0 209,-41"/>
<text text-anchor="start" x="26" y="-29" font-family="Helvetica,sans-Serif" font-size="10.00">com.teragrep.pth_06.planner.</text>
<text text-anchor="start" x="26" y="-18" font-family="Helvetica,sans-Serif" font-size="10.00">SynchronizedHourlyResultsTest.test</text>
<text text-anchor="middle" x="113.5" y="-7" font-family="Helvetica,sans-Serif" font-size="10.00">SingleView</text>
</a>
</g>
</g>
<!-- Node1&#45;&gt;Node5 -->
<g id="edge4_Node000001_Node000005" class="edge">
<title>Node1&#45;&gt;Node5</title>
<g id="a_edge4_Node000001_Node000005"><a xlink:title=" ">
<path fill="none" stroke="#63b8ff" d="M320.59,-89.15C294.32,-77.03 259.09,-61.66 227,-50.5 217.45,-47.18 207.34,-44.01 197.26,-41.07"/>
<polygon fill="#63b8ff" stroke="#63b8ff" points="319.3,-92.41 329.84,-93.45 322.25,-86.06 319.3,-92.41"/>
</a>
</g>
</g>
</g>
</svg>
