<?xml version="1.0" encoding="UTF-8" standalone="no"?>
<!DOCTYPE svg PUBLIC "-//W3C//DTD SVG 1.1//EN"
 "http://www.w3.org/Graphics/SVG/1.1/DTD/svg11.dtd">
<!-- Generated by graphviz version 2.43.0 (0)
 -->
<!-- Title: com.teragrep.pth_06.ast.analyze.ScanGroupExpression.value Pages: 1 -->
<svg width="632pt" height="236pt"
 viewBox="0.00 0.00 632.00 236.00" xmlns="http://www.w3.org/2000/svg" xmlns:xlink="http://www.w3.org/1999/xlink">
<g id="graph0" class="graph" transform="scale(1 1) rotate(0) translate(4 232)">
<title>com.teragrep.pth_06.ast.analyze.ScanGroupExpression.value</title>
<!-- Node1 -->
<g id="Node000001" class="node">
<title>Node1</title>
<g id="a_Node000001"><a xlink:title=" ">
<polygon fill="#999999" stroke="#666666" points="180,-156 0,-156 0,-126 180,-126 180,-156"/>
<text text-anchor="start" x="8" y="-144" font-family="Helvetica,sans-Serif" font-size="10.00">com.teragrep.pth_06.ast.analyze.</text>
<text text-anchor="middle" x="90" y="-133" font-family="Helvetica,sans-Serif" font-size="10.00">ScanGroupExpression.value</text>
</a>
</g>
</g>
<!-- Node2 -->
<g id="Node000002" class="node">
<title>Node2</title>
<g id="a_Node000002"><a xlink:href="classcom_1_1teragrep_1_1pth__06_1_1ast_1_1MergeIntersectingPlans.html#ac9312d6b24005eae4d9924660ca33a47" target="_top" xlink:title=" ">
<polygon fill="white" stroke="#666666" points="392,-188.5 220,-188.5 220,-147.5 392,-147.5 392,-188.5"/>
<text text-anchor="start" x="228" y="-176.5" font-family="Helvetica,sans-Serif" font-size="10.00">com.teragrep.pth_06.ast.</text>
<text text-anchor="start" x="228" y="-165.5" font-family="Helvetica,sans-Serif" font-size="10.00">MergeIntersectingPlans.merged</text>
<text text-anchor="middle" x="306" y="-154.5" font-family="Helvetica,sans-Serif" font-size="10.00">Ranges</text>
</a>
</g>
</g>
<!-- Node1&#45;&gt;Node2 -->
<g id="edge1_Node000001_Node000002" class="edge">
<title>Node1&#45;&gt;Node2</title>
<g id="a_edge1_Node000001_Node000002"><a xlink:title=" ">
<path fill="none" stroke="#63b8ff" d="M180.21,-152.25C189.91,-153.48 199.81,-154.73 209.59,-155.96"/>
<polygon fill="#63b8ff" stroke="#63b8ff" points="209.35,-159.46 219.71,-157.24 210.23,-152.52 209.35,-159.46"/>
</a>
</g>
</g>
<!-- Node3 -->
<g id="Node000003" class="node">
<title>Node3</title>
<g id="a_Node000003"><a xlink:href="classcom_1_1teragrep_1_1pth__06_1_1ast_1_1analyze_1_1PlannedScans.html#ad6dfe7529bfdfc03de991c95e194e0fe" target="_top" xlink:title=" ">
<polygon fill="white" stroke="#666666" points="396,-129 216,-129 216,-99 396,-99 396,-129"/>
<text text-anchor="start" x="224" y="-117" font-family="Helvetica,sans-Serif" font-size="10.00">com.teragrep.pth_06.ast.analyze.</text>
<text text-anchor="middle" x="306" y="-106" font-family="Helvetica,sans-Serif" font-size="10.00">PlannedScans.planListForGroup</text>
</a>
</g>
</g>
<!-- Node1&#45;&gt;Node3 -->
<g id="edge2_Node000001_Node000003" class="edge">
<title>Node1&#45;&gt;Node3</title>
<g id="a_edge2_Node000001_Node000003"><a xlink:title=" ">
<path fill="none" stroke="#63b8ff" d="M180.21,-129.75C188.7,-128.67 197.34,-127.58 205.92,-126.5"/>
<polygon fill="#63b8ff" stroke="#63b8ff" points="206.46,-129.96 215.94,-125.24 205.58,-123.02 206.46,-129.96"/>
</a>
</g>
</g>
<!-- Node4 -->
<g id="Node000004" class="node">
<title>Node4</title>
<g id="a_Node000004"><a xlink:href="classcom_1_1teragrep_1_1pth__06_1_1ast_1_1analyze_1_1StreamIDGroup.html#a429db1dbf66f77a975f929fa85179f87" target="_top" xlink:title=" ">
<polygon fill="white" stroke="#666666" points="624,-228 432,-228 432,-198 624,-198 624,-228"/>
<text text-anchor="start" x="440" y="-216" font-family="Helvetica,sans-Serif" font-size="10.00">com.teragrep.pth_06.ast.analyze.</text>
<text text-anchor="middle" x="528" y="-205" font-family="Helvetica,sans-Serif" font-size="10.00">StreamIDGroup.combinedStreamIds</text>
</a>
</g>
</g>
<!-- Node3&#45;&gt;Node4 -->
<g id="edge3_Node000003_Node000004" class="edge">
<title>Node3&#45;&gt;Node4</title>
<g id="a_edge3_Node000003_Node000004"><a xlink:title=" ">
<path fill="none" stroke="#63b8ff" d="M378.02,-129.1C384.37,-131.87 390.48,-135.14 396,-139 418.44,-154.69 409.36,-173.6 432,-189 434.29,-190.56 436.68,-192.02 439.14,-193.38"/>
<polygon fill="#63b8ff" stroke="#63b8ff" points="437.81,-196.63 448.33,-197.92 440.91,-190.35 437.81,-196.63"/>
</a>
</g>
</g>
<!-- Node5 -->
<g id="Node000005" class="node">
<title>Node5</title>
<g id="a_Node000005"><a xlink:href="classcom_1_1teragrep_1_1pth__06_1_1ast_1_1analyze_1_1ScanTimeQualifiers.html#a82cd78430e3cda656d0cadbfaf5295a5" target="_top" xlink:title=" ">
<polygon fill="white" stroke="#666666" points="618,-162 438,-162 438,-132 618,-132 618,-162"/>
<text text-anchor="start" x="446" y="-150" font-family="Helvetica,sans-Serif" font-size="10.00">com.teragrep.pth_06.ast.analyze.</text>
<text text-anchor="middle" x="528" y="-139" font-family="Helvetica,sans-Serif" font-size="10.00">ScanTimeQualifiers.earliest</text>
</a>
</g>
</g>
<!-- Node3&#45;&gt;Node5 -->
<g id="edge4_Node000003_Node000005" class="edge">
<title>Node3&#45;&gt;Node5</title>
<g id="a_edge4_Node000003_Node000005"><a xlink:title=" ">
<path fill="none" stroke="#63b8ff" d="M396.17,-127.37C406.55,-128.93 417.18,-130.53 427.69,-132.1"/>
<polygon fill="#63b8ff" stroke="#63b8ff" points="427.3,-135.58 437.71,-133.61 428.34,-128.66 427.3,-135.58"/>
</a>
</g>
</g>
<!-- Node6 -->
<g id="Node000006" class="node">
<title>Node6</title>
<g id="a_Node000006"><a xlink:href="classcom_1_1teragrep_1_1pth__06_1_1ast_1_1analyze_1_1FilterGroup.html#abca0dfe17ffff99e035f7136c075c661" target="_top" xlink:title=" ">
<polygon fill="white" stroke="#666666" points="618,-96 438,-96 438,-66 618,-66 618,-96"/>
<text text-anchor="start" x="446" y="-84" font-family="Helvetica,sans-Serif" font-size="10.00">com.teragrep.pth_06.ast.analyze.</text>
<text text-anchor="middle" x="528" y="-73" font-family="Helvetica,sans-Serif" font-size="10.00">FilterGroup.filterList</text>
</a>
</g>
</g>
<!-- Node3&#45;&gt;Node6 -->
<g id="edge6_Node000003_Node000006" class="edge">
<title>Node3&#45;&gt;Node6</title>
<g id="a_edge6_Node000003_Node000006"><a xlink:title=" ">
<path fill="none" stroke="#63b8ff" d="M396.17,-100.63C406.55,-99.07 417.18,-97.47 427.69,-95.9"/>
<polygon fill="#63b8ff" stroke="#63b8ff" points="428.34,-99.34 437.71,-94.39 427.3,-92.42 428.34,-99.34"/>
</a>
</g>
</g>
<!-- Node7 -->
<g id="Node000007" class="node">
<title>Node7</title>
<g id="a_Node000007"><a xlink:href="classcom_1_1teragrep_1_1pth__06_1_1ast_1_1analyze_1_1ScanTimeQualifiers.html#a99388aed3186adf2e10b2317b5565833" target="_top" xlink:title=" ">
<polygon fill="white" stroke="#666666" points="618,-30 438,-30 438,0 618,0 618,-30"/>
<text text-anchor="start" x="446" y="-18" font-family="Helvetica,sans-Serif" font-size="10.00">com.teragrep.pth_06.ast.analyze.</text>
<text text-anchor="middle" x="528" y="-7" font-family="Helvetica,sans-Serif" font-size="10.00">ScanTimeQualifiers.latest</text>
</a>
</g>
</g>
<!-- Node3&#45;&gt;Node7 -->
<g id="edge8_Node000003_Node000007" class="edge">
<title>Node3&#45;&gt;Node7</title>
<g id="a_edge8_Node000003_Node000007"><a xlink:title=" ">
<path fill="none" stroke="#63b8ff" d="M339.85,-98.89C365.03,-87.35 400.67,-71.07 432,-57 448.78,-49.47 467.26,-41.27 483.44,-34.13"/>
<polygon fill="#63b8ff" stroke="#63b8ff" points="484.92,-37.3 492.66,-30.07 482.1,-30.9 484.92,-37.3"/>
</a>
</g>
</g>
<!-- Node5&#45;&gt;Node5 -->
<g id="edge5_Node000005_Node000005" class="edge">
<title>Node5&#45;&gt;Node5</title>
<g id="a_edge5_Node000005_Node000005"><a xlink:title=" ">
<path fill="none" stroke="#63b8ff" d="M488.98,-162.28C480.3,-171.41 493.31,-180 528,-180 548.6,-180 561.55,-176.97 566.86,-172.6"/>
<polygon fill="#63b8ff" stroke="#63b8ff" points="570.36,-172.33 567.02,-162.28 563.36,-172.22 570.36,-172.33"/>
</a>
</g>
</g>
<!-- Node6&#45;&gt;Node6 -->
<g id="edge7_Node000006_Node000006" class="edge">
<title>Node6&#45;&gt;Node6</title>
<g id="a_edge7_Node000006_Node000006"><a xlink:title=" ">
<path fill="none" stroke="#63b8ff" d="M488.98,-96.28C480.3,-105.41 493.31,-114 528,-114 548.6,-114 561.55,-110.97 566.86,-106.6"/>
<polygon fill="#63b8ff" stroke="#63b8ff" points="570.36,-106.33 567.02,-96.28 563.36,-106.22 570.36,-106.33"/>
</a>
</g>
</g>
<!-- Node7&#45;&gt;Node7 -->
<g id="edge9_Node000007_Node000007" class="edge">
<title>Node7&#45;&gt;Node7</title>
<g id="a_edge9_Node000007_Node000007"><a xlink:title=" ">
<path fill="none" stroke="#63b8ff" d="M488.98,-30.28C480.3,-39.41 493.31,-48 528,-48 548.6,-48 561.55,-44.97 566.86,-40.6"/>
<polygon fill="#63b8ff" stroke="#63b8ff" points="570.36,-40.33 567.02,-30.28 563.36,-40.22 570.36,-40.33"/>
</a>
</g>
</g>
</g>
</svg>
