<?xml version="1.0" encoding="UTF-8" standalone="no"?>
<!DOCTYPE svg PUBLIC "-//W3C//DTD SVG 1.1//EN"
 "http://www.w3.org/Graphics/SVG/1.1/DTD/svg11.dtd">
<!-- Generated by graphviz version 2.43.0 (0)
 -->
<!-- Title: com.teragrep.pth_06.planner.ArchiveQueryProcessor Pages: 1 -->
<svg width="965pt" height="294pt"
 viewBox="0.00 0.00 965.00 293.50" xmlns="http://www.w3.org/2000/svg" xmlns:xlink="http://www.w3.org/1999/xlink">
<g id="graph0" class="graph" transform="scale(1 1) rotate(0) translate(4 289.5)">
<title>com.teragrep.pth_06.planner.ArchiveQueryProcessor</title>
<!-- Node1 -->
<g id="Node000001" class="node">
<title>Node1</title>
<g id="a_Node000001"><a xlink:title=" ">
<polygon fill="#999999" stroke="#666666" points="957,-246 797,-246 797,-216 957,-216 957,-246"/>
<text text-anchor="start" x="805" y="-234" font-family="Helvetica,sans-Serif" font-size="10.00">com.teragrep.pth_06.planner.</text>
<text text-anchor="middle" x="877" y="-223" font-family="Helvetica,sans-Serif" font-size="10.00">ArchiveQueryProcessor</text>
</a>
</g>
</g>
<!-- Node2 -->
<g id="Node000002" class="node">
<title>Node2</title>
<g id="a_Node000002"><a xlink:href="interfacecom_1_1teragrep_1_1pth__06_1_1planner_1_1ArchiveQuery.html" target="_top" xlink:title=" ">
<polygon fill="white" stroke="#666666" points="671,-280 511,-280 511,-250 671,-250 671,-280"/>
<text text-anchor="start" x="519" y="-268" font-family="Helvetica,sans-Serif" font-size="10.00">com.teragrep.pth_06.planner.</text>
<text text-anchor="middle" x="591" y="-257" font-family="Helvetica,sans-Serif" font-size="10.00">ArchiveQuery</text>
</a>
</g>
</g>
<!-- Node2&#45;&gt;Node1 -->
<g id="edge1_Node000001_Node000002" class="edge">
<title>Node2&#45;&gt;Node1</title>
<g id="a_edge1_Node000001_Node000002"><a xlink:title=" ">
<path fill="none" stroke="#63b8ff" d="M681.39,-254.3C718.4,-249.87 760.96,-244.77 796.82,-240.48"/>
<polygon fill="#63b8ff" stroke="#63b8ff" points="680.62,-250.87 671.11,-255.53 681.46,-257.82 680.62,-250.87"/>
</a>
</g>
</g>
<!-- Node3 -->
<g id="Node000003" class="node">
<title>Node3</title>
<g id="a_Node000003"><a xlink:href="interfacecom_1_1teragrep_1_1pth__06_1_1Stubbable.html" target="_top" xlink:title=" ">
<polygon fill="white" stroke="#666666" points="423,-285.5 253,-285.5 253,-266.5 423,-266.5 423,-285.5"/>
<text text-anchor="middle" x="338" y="-273.5" font-family="Helvetica,sans-Serif" font-size="10.00">com.teragrep.pth_06.Stubbable</text>
</a>
</g>
</g>
<!-- Node3&#45;&gt;Node2 -->
<g id="edge2_Node000002_Node000003" class="edge">
<title>Node3&#45;&gt;Node2</title>
<g id="a_edge2_Node000002_Node000003"><a xlink:title=" ">
<path fill="none" stroke="#63b8ff" d="M433.31,-271.87C458.77,-270.75 486.06,-269.56 510.61,-268.48"/>
<polygon fill="#63b8ff" stroke="#63b8ff" points="433.11,-268.37 423.28,-272.31 433.42,-275.37 433.11,-268.37"/>
</a>
</g>
</g>
<!-- Node4 -->
<g id="Node000004" class="node">
<title>Node4</title>
<g id="a_Node000004"><a xlink:href="classcom_1_1teragrep_1_1pth__06_1_1planner_1_1StreamDBClient.html" target="_top" xlink:title=" ">
<polygon fill="white" stroke="#666666" points="671,-164 511,-164 511,-134 671,-134 671,-164"/>
<text text-anchor="start" x="519" y="-152" font-family="Helvetica,sans-Serif" font-size="10.00">com.teragrep.pth_06.planner.</text>
<text text-anchor="middle" x="591" y="-141" font-family="Helvetica,sans-Serif" font-size="10.00">StreamDBClient</text>
</a>
</g>
</g>
<!-- Node4&#45;&gt;Node1 -->
<g id="edge3_Node000001_Node000004" class="edge">
<title>Node4&#45;&gt;Node1</title>
<g id="a_edge3_Node000001_Node000004"><a xlink:title=" ">
<path fill="none" stroke="#9a32cd" stroke-dasharray="5,2" d="M653.96,-166.89C704.75,-181.55 775.82,-202.08 823.76,-215.92"/>
<polygon fill="#9a32cd" stroke="#9a32cd" points="654.67,-163.45 644.09,-164.04 652.73,-170.18 654.67,-163.45"/>
</a>
</g>
<text text-anchor="middle" x="734" y="-206" font-family="Helvetica,sans-Serif" font-size="10.00" fill="grey"> sdc</text>
</g>
<!-- Node8 -->
<g id="Node000008" class="node">
<title>Node8</title>
<g id="a_Node000008"><a xlink:href="classcom_1_1teragrep_1_1pth__06_1_1planner_1_1NestedTopNQuery.html" target="_top" xlink:title=" ">
<polygon fill="white" stroke="#666666" points="957,-84 797,-84 797,-54 957,-54 957,-84"/>
<text text-anchor="start" x="805" y="-72" font-family="Helvetica,sans-Serif" font-size="10.00">com.teragrep.pth_06.planner.</text>
<text text-anchor="middle" x="877" y="-61" font-family="Helvetica,sans-Serif" font-size="10.00">NestedTopNQuery</text>
</a>
</g>
</g>
<!-- Node4&#45;&gt;Node8 -->
<g id="edge10_Node000008_Node000004" class="edge">
<title>Node4&#45;&gt;Node8</title>
<g id="a_edge10_Node000008_Node000004"><a xlink:title=" ">
<path fill="none" stroke="#9a32cd" stroke-dasharray="5,2" d="M681.26,-141.96C712.7,-137.83 747.93,-131.31 779,-121 805.84,-112.09 834.07,-96.11 853.11,-84.2"/>
<polygon fill="#9a32cd" stroke="#9a32cd" points="680.68,-138.5 671.19,-143.22 681.55,-145.45 680.68,-138.5"/>
</a>
</g>
<text text-anchor="middle" x="734" y="-144" font-family="Helvetica,sans-Serif" font-size="10.00" fill="grey"> streamDBClient</text>
</g>
<!-- Node5 -->
<g id="Node000005" class="node">
<title>Node5</title>
<g id="a_Node000005"><a xlink:title=" ">
<polygon fill="white" stroke="#666666" points="381.5,-248.5 294.5,-248.5 294.5,-229.5 381.5,-229.5 381.5,-248.5"/>
<text text-anchor="middle" x="338" y="-236.5" font-family="Helvetica,sans-Serif" font-size="10.00">AutoCloseable</text>
</a>
</g>
</g>
<!-- Node5&#45;&gt;Node4 -->
<g id="edge4_Node000004_Node000005" class="edge">
<title>Node5&#45;&gt;Node4</title>
<g id="a_edge4_Node000004_Node000005"><a xlink:title=" ">
<path fill="none" stroke="#63b8ff" d="M391.79,-236.04C422.23,-232.97 460.74,-226.72 493,-214 523.36,-202.03 553.9,-179.4 572.38,-164.26"/>
<polygon fill="#63b8ff" stroke="#63b8ff" points="391.43,-232.56 381.8,-236.97 392.08,-239.53 391.43,-232.56"/>
</a>
</g>
</g>
<!-- Node6 -->
<g id="Node000006" class="node">
<title>Node6</title>
<g id="a_Node000006"><a xlink:href="classcom_1_1teragrep_1_1pth__06_1_1ConfiguredLogger.html" target="_top" xlink:title=" ">
<polygon fill="white" stroke="#666666" points="173,-143 0,-143 0,-113 173,-113 173,-143"/>
<text text-anchor="start" x="8" y="-131" font-family="Helvetica,sans-Serif" font-size="10.00">com.teragrep.pth_06.Configured</text>
<text text-anchor="middle" x="86.5" y="-120" font-family="Helvetica,sans-Serif" font-size="10.00">Logger</text>
</a>
</g>
</g>
<!-- Node6&#45;&gt;Node4 -->
<g id="edge5_Node000004_Node000006" class="edge">
<title>Node6&#45;&gt;Node4</title>
<g id="a_edge5_Node000004_Node000006"><a xlink:title=" ">
<path fill="none" stroke="#9a32cd" stroke-dasharray="5,2" d="M140.06,-146.13C172.23,-156.26 214.48,-167.86 253,-173 340.79,-184.72 442.26,-174.27 510.73,-163.72"/>
<polygon fill="#9a32cd" stroke="#9a32cd" points="141,-142.76 130.41,-143.04 138.87,-149.43 141,-142.76"/>
</a>
</g>
<text text-anchor="middle" x="338" y="-182" font-family="Helvetica,sans-Serif" font-size="10.00" fill="grey"> LOGGER</text>
</g>
<!-- Node7 -->
<g id="Node000007" class="node">
<title>Node7</title>
<g id="a_Node000007"><a xlink:href="classcom_1_1teragrep_1_1pth__06_1_1planner_1_1GetArchivedObjectsFilterTable.html" target="_top" xlink:title=" ">
<polygon fill="white" stroke="#666666" points="420,-164 256,-164 256,-134 420,-134 420,-164"/>
<text text-anchor="start" x="264" y="-152" font-family="Helvetica,sans-Serif" font-size="10.00">com.teragrep.pth_06.planner.</text>
<text text-anchor="middle" x="338" y="-141" font-family="Helvetica,sans-Serif" font-size="10.00">GetArchivedObjectsFilterTable</text>
</a>
</g>
</g>
<!-- Node6&#45;&gt;Node7 -->
<g id="edge7_Node000007_Node000006" class="edge">
<title>Node6&#45;&gt;Node7</title>
<g id="a_edge7_Node000007_Node000006"><a xlink:title=" ">
<path fill="none" stroke="#9a32cd" stroke-dasharray="5,2" d="M183.18,-136.05C207.14,-138.07 232.62,-140.21 255.8,-142.17"/>
<polygon fill="#9a32cd" stroke="#9a32cd" points="183.27,-132.55 173.01,-135.2 182.69,-139.52 183.27,-132.55"/>
</a>
</g>
<text text-anchor="middle" x="213" y="-144" font-family="Helvetica,sans-Serif" font-size="10.00" fill="grey"> logger</text>
</g>
<!-- Node6&#45;&gt;Node8 -->
<g id="edge9_Node000008_Node000006" class="edge">
<title>Node6&#45;&gt;Node8</title>
<g id="a_edge9_Node000008_Node000006"><a xlink:title=" ">
<path fill="none" stroke="#9a32cd" stroke-dasharray="5,2" d="M134.95,-109.41C167.58,-97.61 212.22,-83.41 253,-77 446.41,-46.6 677.76,-55.19 796.72,-62.83"/>
<polygon fill="#9a32cd" stroke="#9a32cd" points="133.4,-106.25 125.22,-112.98 135.82,-112.82 133.4,-106.25"/>
</a>
</g>
<text text-anchor="middle" x="467" y="-62" font-family="Helvetica,sans-Serif" font-size="10.00" fill="grey"> logger</text>
</g>
<!-- Node10 -->
<g id="Node000010" class="node">
<title>Node10</title>
<g id="a_Node000010"><a xlink:href="classcom_1_1teragrep_1_1pth__06_1_1planner_1_1SliceTable.html" target="_top" xlink:title=" ">
<polygon fill="white" stroke="#666666" points="418,-116 258,-116 258,-86 418,-86 418,-116"/>
<text text-anchor="start" x="266" y="-104" font-family="Helvetica,sans-Serif" font-size="10.00">com.teragrep.pth_06.planner.</text>
<text text-anchor="middle" x="338" y="-93" font-family="Helvetica,sans-Serif" font-size="10.00">SliceTable</text>
</a>
</g>
</g>
<!-- Node6&#45;&gt;Node10 -->
<g id="edge13_Node000010_Node000006" class="edge">
<title>Node6&#45;&gt;Node10</title>
<g id="a_edge13_Node000010_Node000006"><a xlink:title=" ">
<path fill="none" stroke="#9a32cd" stroke-dasharray="5,2" d="M183.12,-117.65C207.82,-114.98 234.14,-112.13 257.89,-109.56"/>
<polygon fill="#9a32cd" stroke="#9a32cd" points="182.58,-114.19 173.01,-118.75 183.33,-121.15 182.58,-114.19"/>
</a>
</g>
<text text-anchor="middle" x="213" y="-120" font-family="Helvetica,sans-Serif" font-size="10.00" fill="grey"> LOGGER</text>
</g>
<!-- Node7&#45;&gt;Node4 -->
<g id="edge6_Node000004_Node000007" class="edge">
<title>Node7&#45;&gt;Node4</title>
<g id="a_edge6_Node000004_Node000007"><a xlink:title=" ">
<path fill="none" stroke="#9a32cd" stroke-dasharray="5,2" d="M430.16,-149C456.59,-149 485.22,-149 510.85,-149"/>
<polygon fill="#9a32cd" stroke="#9a32cd" points="430.15,-145.5 420.15,-149 430.15,-152.5 430.15,-145.5"/>
</a>
</g>
<text text-anchor="middle" x="467" y="-152" font-family="Helvetica,sans-Serif" font-size="10.00" fill="grey"> filterTable</text>
</g>
<!-- Node8&#45;&gt;Node4 -->
<g id="edge8_Node000004_Node000008" class="edge">
<title>Node8&#45;&gt;Node4</title>
<g id="a_edge8_Node000004_Node000008"><a xlink:title=" ">
<path fill="none" stroke="#9a32cd" stroke-dasharray="5,2" d="M786.99,-85.36C755.72,-91.93 720.53,-100.28 689,-110 667.49,-116.63 644.06,-125.99 625.62,-133.88"/>
<polygon fill="#9a32cd" stroke="#9a32cd" points="787.92,-88.74 797,-83.29 786.5,-81.89 787.92,-88.74"/>
</a>
</g>
<text text-anchor="middle" x="734" y="-113" font-family="Helvetica,sans-Serif" font-size="10.00" fill="grey"> nestedTopNQuery</text>
</g>
<!-- Node9 -->
<g id="Node000009" class="node">
<title>Node9</title>
<g id="a_Node000009"><a xlink:title=" ">
<polygon fill="white" stroke="#666666" points="671,-30 511,-30 511,0 671,0 671,-30"/>
<text text-anchor="start" x="519" y="-18" font-family="Helvetica,sans-Serif" font-size="10.00">com.teragrep.pth_06.planner.</text>
<text text-anchor="middle" x="591" y="-7" font-family="Helvetica,sans-Serif" font-size="10.00">SafeLogtimeFunction</text>
</a>
</g>
</g>
<!-- Node9&#45;&gt;Node8 -->
<g id="edge11_Node000008_Node000009" class="edge">
<title>Node9&#45;&gt;Node8</title>
<g id="a_edge11_Node000008_Node000009"><a xlink:title=" ">
<path fill="none" stroke="#9a32cd" stroke-dasharray="5,2" d="M681.41,-18.87C712.57,-21.46 747.59,-25.79 779,-33 800.53,-37.94 823.77,-46.45 842.1,-53.95"/>
<polygon fill="#9a32cd" stroke="#9a32cd" points="681.67,-15.38 671.43,-18.09 681.13,-22.36 681.67,-15.38"/>
</a>
</g>
<text text-anchor="middle" x="734" y="-36" font-family="Helvetica,sans-Serif" font-size="10.00" fill="grey"> logtimeFunction</text>
</g>
<!-- Node10&#45;&gt;Node4 -->
<g id="edge12_Node000004_Node000010" class="edge">
<title>Node10&#45;&gt;Node4</title>
<g id="a_edge12_Node000004_Node000010"><a xlink:title=" ">
<path fill="none" stroke="#9a32cd" stroke-dasharray="5,2" d="M427.68,-117.96C455.03,-123.19 484.94,-128.91 511.55,-134"/>
<polygon fill="#9a32cd" stroke="#9a32cd" points="428.21,-114.5 417.73,-116.06 426.89,-121.37 428.21,-114.5"/>
</a>
</g>
<text text-anchor="middle" x="467" y="-133" font-family="Helvetica,sans-Serif" font-size="10.00" fill="grey"> sliceTable</text>
</g>
</g>
</svg>
