<?xml version="1.0" encoding="UTF-8" standalone="no"?>
<!DOCTYPE svg PUBLIC "-//W3C//DTD SVG 1.1//EN"
 "http://www.w3.org/Graphics/SVG/1.1/DTD/svg11.dtd">
<!-- Generated by graphviz version 2.43.0 (0)
 -->
<!-- Title: com.teragrep.pth_06.scheduler.HBaseResultTest.createResult Pages: 1 -->
<svg width="436pt" height="108pt"
 viewBox="0.00 0.00 436.00 108.00" xmlns="http://www.w3.org/2000/svg" xmlns:xlink="http://www.w3.org/1999/xlink">
<g id="graph0" class="graph" transform="scale(1 1) rotate(0) translate(4 104)">
<title>com.teragrep.pth_06.scheduler.HBaseResultTest.createResult</title>
<!-- Node1 -->
<g id="Node000001" class="node">
<title>Node1</title>
<g id="a_Node000001"><a xlink:title=" ">
<polygon fill="#999999" stroke="#666666" points="428,-64.5 258,-64.5 258,-34.5 428,-34.5 428,-64.5"/>
<text text-anchor="start" x="266" y="-52.5" font-family="Helvetica,sans-Serif" font-size="10.00">com.teragrep.pth_06.scheduler.</text>
<text text-anchor="middle" x="343" y="-41.5" font-family="Helvetica,sans-Serif" font-size="10.00">HBaseResultTest.createResult</text>
</a>
</g>
</g>
<!-- Node2 -->
<g id="Node000002" class="node">
<title>Node2</title>
<g id="a_Node000002"><a xlink:href="classcom_1_1teragrep_1_1pth__06_1_1scheduler_1_1HBaseResultTest.html#a687d05cd84e004e5524fb344fa787963" target="_top" xlink:title=" ">
<polygon fill="white" stroke="#666666" points="217,-100 5,-100 5,-59 217,-59 217,-100"/>
<text text-anchor="start" x="13" y="-88" font-family="Helvetica,sans-Serif" font-size="10.00">com.teragrep.pth_06.scheduler.</text>
<text text-anchor="start" x="13" y="-77" font-family="Helvetica,sans-Serif" font-size="10.00">HBaseResultTest.testNullUncompressed</text>
<text text-anchor="middle" x="111" y="-66" font-family="Helvetica,sans-Serif" font-size="10.00">SizeReturnMinusOne</text>
</a>
</g>
</g>
<!-- Node1&#45;&gt;Node2 -->
<g id="edge1_Node000001_Node000002" class="edge">
<title>Node1&#45;&gt;Node2</title>
<g id="a_edge1_Node000001_Node000002"><a xlink:title=" ">
<path fill="none" stroke="#63b8ff" d="M247.98,-61.76C237.88,-63.08 227.56,-64.43 217.34,-65.76"/>
<polygon fill="#63b8ff" stroke="#63b8ff" points="248.53,-65.22 257.99,-60.46 247.62,-58.28 248.53,-65.22"/>
</a>
</g>
</g>
<!-- Node3 -->
<g id="Node000003" class="node">
<title>Node3</title>
<g id="a_Node000003"><a xlink:href="classcom_1_1teragrep_1_1pth__06_1_1scheduler_1_1HBaseResultTest.html#a2394bbfe8667d252acbdc61303744326" target="_top" xlink:title=" ">
<polygon fill="white" stroke="#666666" points="222,-41 0,-41 0,0 222,0 222,-41"/>
<text text-anchor="start" x="8" y="-29" font-family="Helvetica,sans-Serif" font-size="10.00">com.teragrep.pth_06.scheduler.</text>
<text text-anchor="start" x="8" y="-18" font-family="Helvetica,sans-Serif" font-size="10.00">HBaseResultTest.testToBatchUnitConverts</text>
<text text-anchor="middle" x="111" y="-7" font-family="Helvetica,sans-Serif" font-size="10.00">Correctly</text>
</a>
</g>
</g>
<!-- Node1&#45;&gt;Node3 -->
<g id="edge2_Node000001_Node000003" class="edge">
<title>Node1&#45;&gt;Node3</title>
<g id="a_edge2_Node000001_Node000003"><a xlink:title=" ">
<path fill="none" stroke="#63b8ff" d="M248.04,-37.65C239.49,-36.57 230.78,-35.48 222.11,-34.38"/>
<polygon fill="#63b8ff" stroke="#63b8ff" points="247.63,-41.13 257.99,-38.91 248.5,-34.18 247.63,-41.13"/>
</a>
</g>
</g>
</g>
</svg>
