<?xml version="1.0" encoding="UTF-8" standalone="no"?>
<!DOCTYPE svg PUBLIC "-//W3C//DTD SVG 1.1//EN"
 "http://www.w3.org/Graphics/SVG/1.1/DTD/svg11.dtd">
<!-- Generated by graphviz version 2.43.0 (0)
 -->
<!-- Title: com.teragrep.pth_06.planner.MockDBData.getVirtualDatabaseMap Pages: 1 -->
<svg width="470pt" height="98pt"
 viewBox="0.00 0.00 470.00 97.50" xmlns="http://www.w3.org/2000/svg" xmlns:xlink="http://www.w3.org/1999/xlink">
<g id="graph0" class="graph" transform="scale(1 1) rotate(0) translate(4 93.5)">
<title>com.teragrep.pth_06.planner.MockDBData.getVirtualDatabaseMap</title>
<!-- Node1 -->
<g id="Node000001" class="node">
<title>Node1</title>
<g id="a_Node000001"><a xlink:title=" ">
<polygon fill="#999999" stroke="#666666" points="462,-62.5 263,-62.5 263,-32.5 462,-32.5 462,-62.5"/>
<text text-anchor="start" x="271" y="-50.5" font-family="Helvetica,sans-Serif" font-size="10.00">com.teragrep.pth_06.planner.</text>
<text text-anchor="middle" x="362.5" y="-39.5" font-family="Helvetica,sans-Serif" font-size="10.00">MockDBData.getVirtualDatabaseMap</text>
</a>
</g>
</g>
<!-- Node2 -->
<g id="Node000002" class="node">
<title>Node2</title>
<g id="a_Node000002"><a xlink:href="classcom_1_1teragrep_1_1pth__06_1_1planner_1_1SynchronizedHourlyResultsTest.html#ac2e24bdd536d446f0a5d7d63a21e123c" target="_top" xlink:title=" ">
<polygon fill="white" stroke="#666666" points="227,-89.5 0,-89.5 0,-59.5 227,-59.5 227,-89.5"/>
<text text-anchor="start" x="8" y="-77.5" font-family="Helvetica,sans-Serif" font-size="10.00">com.teragrep.pth_06.planner.</text>
<text text-anchor="middle" x="113.5" y="-66.5" font-family="Helvetica,sans-Serif" font-size="10.00">SynchronizedHourlyResultsTest.beforeEach</text>
</a>
</g>
</g>
<!-- Node1&#45;&gt;Node2 -->
<g id="edge1_Node000001_Node000002" class="edge">
<title>Node1&#45;&gt;Node2</title>
<g id="a_edge1_Node000001_Node000002"><a xlink:title=" ">
<path fill="none" stroke="#63b8ff" d="M252.61,-59.4C244.2,-60.32 235.69,-61.25 227.26,-62.17"/>
<polygon fill="#63b8ff" stroke="#63b8ff" points="253.25,-62.85 262.81,-58.29 252.49,-55.89 253.25,-62.85"/>
</a>
</g>
</g>
<!-- Node3 -->
<g id="Node000003" class="node">
<title>Node3</title>
<g id="a_Node000003"><a xlink:href="classcom_1_1teragrep_1_1pth__06_1_1planner_1_1MockArchiveQueryProcessor.html#af6c640e69ff5530b0052f846a8a1f676" target="_top" xlink:title=" ">
<polygon fill="white" stroke="#666666" points="224,-41 3,-41 3,0 224,0 224,-41"/>
<text text-anchor="start" x="11" y="-29" font-family="Helvetica,sans-Serif" font-size="10.00">com.teragrep.pth_06.planner.</text>
<text text-anchor="start" x="11" y="-18" font-family="Helvetica,sans-Serif" font-size="10.00">MockArchiveQueryProcessor.MockArchive</text>
<text text-anchor="middle" x="113.5" y="-7" font-family="Helvetica,sans-Serif" font-size="10.00">QueryProcessor</text>
</a>
</g>
</g>
<!-- Node1&#45;&gt;Node3 -->
<g id="edge2_Node000001_Node000003" class="edge">
<title>Node1&#45;&gt;Node3</title>
<g id="a_edge2_Node000001_Node000003"><a xlink:title=" ">
<path fill="none" stroke="#63b8ff" d="M252.68,-35.61C243.29,-34.58 233.79,-33.54 224.4,-32.51"/>
<polygon fill="#63b8ff" stroke="#63b8ff" points="252.49,-39.11 262.81,-36.71 253.25,-32.15 252.49,-39.11"/>
</a>
</g>
</g>
</g>
</svg>
