<?xml version="1.0" encoding="UTF-8" standalone="no"?>
<!DOCTYPE svg PUBLIC "-//W3C//DTD SVG 1.1//EN"
 "http://www.w3.org/Graphics/SVG/1.1/DTD/svg11.dtd">
<!-- Generated by graphviz version 2.43.0 (0)
 -->
<!-- Title: Graphical Class Hierarchy Pages: 1 -->
<svg width="635pt" height="779pt"
 viewBox="0.00 0.00 635.00 779.00" xmlns="http://www.w3.org/2000/svg" xmlns:xlink="http://www.w3.org/1999/xlink">
<g id="graph0" class="graph" transform="scale(1 1) rotate(0) translate(4 775)">
<title>Graphical Class Hierarchy</title>
<!-- Node0 -->
<g id="Node000000" class="node">
<title>Node0</title>
<g id="a_Node000000"><a xlink:title=" ">
<polygon fill="#e0e0e0" stroke="#999999" points="128.5,-697.5 41.5,-697.5 41.5,-678.5 128.5,-678.5 128.5,-697.5"/>
<text text-anchor="middle" x="85" y="-685.5" font-family="Helvetica,sans-Serif" font-size="10.00">AutoCloseable</text>
</a>
</g>
</g>
<!-- Node1 -->
<g id="Node000001" class="node">
<title>Node1</title>
<g id="a_Node000001"><a xlink:href="interfacecom_1_1teragrep_1_1pth__06_1_1planner_1_1HBaseQuery.html" target="_top" xlink:title=" ">
<polygon fill="white" stroke="#666666" points="380,-691 220,-691 220,-661 380,-661 380,-691"/>
<text text-anchor="start" x="228" y="-679" font-family="Helvetica,sans-Serif" font-size="10.00">com.teragrep.pth_06.planner.</text>
<text text-anchor="middle" x="300" y="-668" font-family="Helvetica,sans-Serif" font-size="10.00">HBaseQuery</text>
</a>
</g>
</g>
<!-- Node0&#45;&gt;Node1 -->
<g id="edge1_Node000000_Node000001" class="edge">
<title>Node0&#45;&gt;Node1</title>
<g id="a_edge1_Node000000_Node000001"><a xlink:title=" ">
<path fill="none" stroke="#63b8ff" d="M138.74,-685.03C163.2,-683.65 192.79,-681.98 219.85,-680.46"/>
<polygon fill="#63b8ff" stroke="#63b8ff" points="138.38,-681.54 128.59,-685.6 138.77,-688.53 138.38,-681.54"/>
</a>
</g>
</g>
<!-- Node27 -->
<g id="Node000027" class="node">
<title>Node27</title>
<g id="a_Node000027"><a xlink:href="classcom_1_1teragrep_1_1pth__06_1_1planner_1_1StreamDBClient.html" target="_top" xlink:title=" ">
<polygon fill="white" stroke="#666666" points="380,-739 220,-739 220,-709 380,-709 380,-739"/>
<text text-anchor="start" x="228" y="-727" font-family="Helvetica,sans-Serif" font-size="10.00">com.teragrep.pth_06.planner.</text>
<text text-anchor="middle" x="300" y="-716" font-family="Helvetica,sans-Serif" font-size="10.00">StreamDBClient</text>
</a>
</g>
</g>
<!-- Node0&#45;&gt;Node27 -->
<g id="edge4_Node000000_Node000027" class="edge">
<title>Node0&#45;&gt;Node27</title>
<g id="a_edge4_Node000000_Node000027"><a xlink:title=" ">
<path fill="none" stroke="#63b8ff" d="M138.74,-696.91C163.2,-701.05 192.79,-706.05 219.85,-710.62"/>
<polygon fill="#63b8ff" stroke="#63b8ff" points="139.04,-693.41 128.59,-695.2 137.87,-700.32 139.04,-693.41"/>
</a>
</g>
</g>
<!-- Node2 -->
<g id="Node000002" class="node">
<title>Node2</title>
<g id="a_Node000002"><a xlink:href="classcom_1_1teragrep_1_1pth__06_1_1planner_1_1HBaseQueryImpl.html" target="_top" xlink:title="Responsible for splitting results from scanPlanCollection into batches.">
<polygon fill="white" stroke="#666666" points="608.5,-771 448.5,-771 448.5,-741 608.5,-741 608.5,-771"/>
<text text-anchor="start" x="456.5" y="-759" font-family="Helvetica,sans-Serif" font-size="10.00">com.teragrep.pth_06.planner.</text>
<text text-anchor="middle" x="528.5" y="-748" font-family="Helvetica,sans-Serif" font-size="10.00">HBaseQueryImpl</text>
</a>
</g>
</g>
<!-- Node1&#45;&gt;Node2 -->
<g id="edge2_Node000001_Node000002" class="edge">
<title>Node1&#45;&gt;Node2</title>
<g id="a_edge2_Node000001_Node000002"><a xlink:title=" ">
<path fill="none" stroke="#63b8ff" d="M374.24,-693.83C380.96,-695.79 387.63,-697.85 394,-700 429.37,-711.91 468.63,-728.85 495.36,-740.97"/>
<polygon fill="#63b8ff" stroke="#63b8ff" points="374.97,-690.4 364.4,-691.05 373.06,-697.14 374.97,-690.4"/>
</a>
</g>
</g>
<!-- Node4 -->
<g id="Node000004" class="node">
<title>Node4</title>
<g id="a_Node000004"><a xlink:href="classcom_1_1teragrep_1_1pth__06_1_1planner_1_1StubHBaseQuery.html" target="_top" xlink:title=" ">
<polygon fill="white" stroke="#666666" points="608.5,-702 448.5,-702 448.5,-672 608.5,-672 608.5,-702"/>
<text text-anchor="start" x="456.5" y="-690" font-family="Helvetica,sans-Serif" font-size="10.00">com.teragrep.pth_06.planner.</text>
<text text-anchor="middle" x="528.5" y="-679" font-family="Helvetica,sans-Serif" font-size="10.00">StubHBaseQuery</text>
</a>
</g>
</g>
<!-- Node1&#45;&gt;Node4 -->
<g id="edge3_Node000001_Node000004" class="edge">
<title>Node1&#45;&gt;Node4</title>
<g id="a_edge3_Node000001_Node000004"><a xlink:title=" ">
<path fill="none" stroke="#63b8ff" d="M390.42,-680.34C409.55,-681.27 429.62,-682.25 448.33,-683.15"/>
<polygon fill="#63b8ff" stroke="#63b8ff" points="390.38,-676.84 380.22,-679.85 390.04,-683.83 390.38,-676.84"/>
</a>
</g>
</g>
<!-- Node20 -->
<g id="Node000020" class="node">
<title>Node20</title>
<g id="a_Node000020"><a xlink:title=" ">
<polygon fill="#e0e0e0" stroke="#999999" points="117.5,-600.5 52.5,-600.5 52.5,-581.5 117.5,-581.5 117.5,-600.5"/>
<text text-anchor="middle" x="85" y="-588.5" font-family="Helvetica,sans-Serif" font-size="10.00">Closeable</text>
</a>
</g>
</g>
<!-- Node17 -->
<g id="Node000017" class="node">
<title>Node17</title>
<g id="a_Node000017"><a xlink:href="interfacecom_1_1teragrep_1_1pth__06_1_1planner_1_1KafkaQuery.html" target="_top" xlink:title=" ">
<polygon fill="white" stroke="#666666" points="380,-606 220,-606 220,-576 380,-576 380,-606"/>
<text text-anchor="start" x="228" y="-594" font-family="Helvetica,sans-Serif" font-size="10.00">com.teragrep.pth_06.planner.</text>
<text text-anchor="middle" x="300" y="-583" font-family="Helvetica,sans-Serif" font-size="10.00">KafkaQuery</text>
</a>
</g>
</g>
<!-- Node20&#45;&gt;Node17 -->
<g id="edge5_Node000020_Node000017" class="edge">
<title>Node20&#45;&gt;Node17</title>
<g id="a_edge5_Node000020_Node000017"><a xlink:title=" ">
<path fill="none" stroke="#63b8ff" d="M128.2,-591C154.37,-591 188.81,-591 219.9,-591"/>
<polygon fill="#63b8ff" stroke="#63b8ff" points="127.89,-587.5 117.89,-591 127.89,-594.5 127.89,-587.5"/>
</a>
</g>
</g>
<!-- Node18 -->
<g id="Node000018" class="node">
<title>Node18</title>
<g id="a_Node000018"><a xlink:href="classcom_1_1teragrep_1_1pth__06_1_1planner_1_1KafkaQueryProcessor.html" target="_top" xlink:title=" ">
<polygon fill="white" stroke="#666666" points="608.5,-654 448.5,-654 448.5,-624 608.5,-624 608.5,-654"/>
<text text-anchor="start" x="456.5" y="-642" font-family="Helvetica,sans-Serif" font-size="10.00">com.teragrep.pth_06.planner.</text>
<text text-anchor="middle" x="528.5" y="-631" font-family="Helvetica,sans-Serif" font-size="10.00">KafkaQueryProcessor</text>
</a>
</g>
</g>
<!-- Node17&#45;&gt;Node18 -->
<g id="edge6_Node000017_Node000018" class="edge">
<title>Node17&#45;&gt;Node18</title>
<g id="a_edge6_Node000017_Node000018"><a xlink:title=" ">
<path fill="none" stroke="#63b8ff" d="M382,-608.17C406.41,-613.34 433.01,-618.98 456.71,-624"/>
<polygon fill="#63b8ff" stroke="#63b8ff" points="382.55,-604.71 372.04,-606.06 381.1,-611.55 382.55,-604.71"/>
</a>
</g>
</g>
<!-- Node19 -->
<g id="Node000019" class="node">
<title>Node19</title>
<g id="a_Node000019"><a xlink:href="classcom_1_1teragrep_1_1pth__06_1_1planner_1_1StubKafkaQuery.html" target="_top" xlink:title=" ">
<polygon fill="white" stroke="#666666" points="608.5,-606 448.5,-606 448.5,-576 608.5,-576 608.5,-606"/>
<text text-anchor="start" x="456.5" y="-594" font-family="Helvetica,sans-Serif" font-size="10.00">com.teragrep.pth_06.planner.</text>
<text text-anchor="middle" x="528.5" y="-583" font-family="Helvetica,sans-Serif" font-size="10.00">StubKafkaQuery</text>
</a>
</g>
</g>
<!-- Node17&#45;&gt;Node19 -->
<g id="edge7_Node000017_Node000019" class="edge">
<title>Node17&#45;&gt;Node19</title>
<g id="a_edge7_Node000017_Node000019"><a xlink:title=" ">
<path fill="none" stroke="#63b8ff" d="M390.42,-591C409.55,-591 429.62,-591 448.33,-591"/>
<polygon fill="#63b8ff" stroke="#63b8ff" points="390.22,-587.5 380.22,-591 390.22,-594.5 390.22,-587.5"/>
</a>
</g>
</g>
<!-- Node3 -->
<g id="Node000003" class="node">
<title>Node3</title>
<g id="a_Node000003"><a xlink:href="interfacecom_1_1teragrep_1_1pth__06_1_1planner_1_1QueryMetrics.html" target="_top" xlink:title=" ">
<polygon fill="white" stroke="#666666" points="165,-770 5,-770 5,-740 165,-740 165,-770"/>
<text text-anchor="start" x="13" y="-758" font-family="Helvetica,sans-Serif" font-size="10.00">com.teragrep.pth_06.planner.</text>
<text text-anchor="middle" x="85" y="-747" font-family="Helvetica,sans-Serif" font-size="10.00">QueryMetrics</text>
</a>
</g>
</g>
<!-- Node3&#45;&gt;Node1 -->
<g id="edge8_Node000003_Node000001" class="edge">
<title>Node3&#45;&gt;Node1</title>
<g id="a_edge8_Node000003_Node000001"><a xlink:title=" ">
<path fill="none" stroke="#63b8ff" d="M124.15,-735.41C147.38,-724.01 177.91,-709.97 206,-700 215.11,-696.76 224.87,-693.76 234.51,-691.06"/>
<polygon fill="#63b8ff" stroke="#63b8ff" points="122.39,-732.37 114.99,-739.95 125.5,-738.65 122.39,-732.37"/>
</a>
</g>
</g>
<!-- Node3&#45;&gt;Node2 -->
<g id="edge9_Node000003_Node000002" class="edge">
<title>Node3&#45;&gt;Node2</title>
<g id="a_edge9_Node000003_Node000002"><a xlink:title=" ">
<path fill="none" stroke="#63b8ff" d="M175.24,-755.2C255.23,-755.38 371.46,-755.65 448.23,-755.82"/>
<polygon fill="#63b8ff" stroke="#63b8ff" points="175.19,-751.7 165.19,-755.18 175.18,-758.7 175.19,-751.7"/>
</a>
</g>
</g>
<!-- Node5 -->
<g id="Node000005" class="node">
<title>Node5</title>
<g id="a_Node000005"><a xlink:href="interfacecom_1_1teragrep_1_1pth__06_1_1Stubbable.html" target="_top" xlink:title=" ">
<polygon fill="white" stroke="#666666" points="170,-432.5 0,-432.5 0,-413.5 170,-413.5 170,-432.5"/>
<text text-anchor="middle" x="85" y="-420.5" font-family="Helvetica,sans-Serif" font-size="10.00">com.teragrep.pth_06.Stubbable</text>
</a>
</g>
</g>
<!-- Node5&#45;&gt;Node1 -->
<g id="edge18_Node000005_Node000001" class="edge">
<title>Node5&#45;&gt;Node1</title>
<g id="a_edge18_Node000005_Node000001"><a xlink:title=" ">
<path fill="none" stroke="#63b8ff" d="M94.6,-442.33C111.7,-479.22 152.96,-560.78 206,-615 224.5,-633.91 249.83,-650.05 269.39,-660.97"/>
<polygon fill="#63b8ff" stroke="#63b8ff" points="97.58,-440.44 90.25,-432.79 91.21,-443.34 97.58,-440.44"/>
</a>
</g>
</g>
<!-- Node5&#45;&gt;Node17 -->
<g id="edge22_Node000005_Node000017" class="edge">
<title>Node5&#45;&gt;Node17</title>
<g id="a_edge22_Node000005_Node000017"><a xlink:title=" ">
<path fill="none" stroke="#63b8ff" d="M105.79,-438.99C129.51,-458.12 170.52,-491.08 206,-519 231.19,-538.83 260.46,-561.41 279.33,-575.92"/>
<polygon fill="#63b8ff" stroke="#63b8ff" points="107.85,-436.16 97.87,-432.6 103.46,-441.61 107.85,-436.16"/>
</a>
</g>
</g>
<!-- Node6 -->
<g id="Node000006" class="node">
<title>Node6</title>
<g id="a_Node000006"><a xlink:href="interfacecom_1_1teragrep_1_1pth__06_1_1ast_1_1analyze_1_1ScanPlan.html" target="_top" xlink:title="Logical plan for a row key range scan of HBase.">
<polygon fill="white" stroke="#666666" points="390,-366 210,-366 210,-336 390,-336 390,-366"/>
<text text-anchor="start" x="218" y="-354" font-family="Helvetica,sans-Serif" font-size="10.00">com.teragrep.pth_06.ast.analyze.</text>
<text text-anchor="middle" x="300" y="-343" font-family="Helvetica,sans-Serif" font-size="10.00">ScanPlan</text>
</a>
</g>
</g>
<!-- Node5&#45;&gt;Node6 -->
<g id="edge10_Node000005_Node000006" class="edge">
<title>Node5&#45;&gt;Node6</title>
<g id="a_edge10_Node000005_Node000006"><a xlink:title=" ">
<path fill="none" stroke="#63b8ff" d="M124.06,-410.14C160.55,-397.8 215.65,-379.17 254.24,-366.13"/>
<polygon fill="#63b8ff" stroke="#63b8ff" points="122.64,-406.92 114.28,-413.44 124.88,-413.55 122.64,-406.92"/>
</a>
</g>
</g>
<!-- Node9 -->
<g id="Node000009" class="node">
<title>Node9</title>
<g id="a_Node000009"><a xlink:href="interfacecom_1_1teragrep_1_1pth__06_1_1planner_1_1ArchiveQuery.html" target="_top" xlink:title=" ">
<polygon fill="white" stroke="#666666" points="380,-222 220,-222 220,-192 380,-192 380,-222"/>
<text text-anchor="start" x="228" y="-210" font-family="Helvetica,sans-Serif" font-size="10.00">com.teragrep.pth_06.planner.</text>
<text text-anchor="middle" x="300" y="-199" font-family="Helvetica,sans-Serif" font-size="10.00">ArchiveQuery</text>
</a>
</g>
</g>
<!-- Node5&#45;&gt;Node9 -->
<g id="edge13_Node000005_Node000009" class="edge">
<title>Node5&#45;&gt;Node9</title>
<g id="a_edge13_Node000005_Node000009"><a xlink:title=" ">
<path fill="none" stroke="#63b8ff" d="M102.63,-406.14C142.96,-365.24 245.49,-261.26 284.04,-222.17"/>
<polygon fill="#63b8ff" stroke="#63b8ff" points="99.96,-403.86 95.43,-413.44 104.94,-408.78 99.96,-403.86"/>
</a>
</g>
</g>
<!-- Node14 -->
<g id="Node000014" class="node">
<title>Node14</title>
<g id="a_Node000014"><a xlink:href="interfacecom_1_1teragrep_1_1pth__06_1_1planner_1_1HourlySlices.html" target="_top" xlink:title=" ">
<polygon fill="white" stroke="#666666" points="380,-78 220,-78 220,-48 380,-48 380,-78"/>
<text text-anchor="start" x="228" y="-66" font-family="Helvetica,sans-Serif" font-size="10.00">com.teragrep.pth_06.planner.</text>
<text text-anchor="middle" x="300" y="-55" font-family="Helvetica,sans-Serif" font-size="10.00">HourlySlices</text>
</a>
</g>
</g>
<!-- Node5&#45;&gt;Node14 -->
<g id="edge19_Node000005_Node000014" class="edge">
<title>Node5&#45;&gt;Node14</title>
<g id="a_edge19_Node000005_Node000014"><a xlink:title=" ">
<path fill="none" stroke="#63b8ff" d="M93.94,-404.09C111.64,-362.66 156.71,-261.35 206,-183 231.12,-143.06 266.58,-100.31 285.64,-78.2"/>
<polygon fill="#63b8ff" stroke="#63b8ff" points="90.63,-402.92 89.95,-413.49 97.08,-405.65 90.63,-402.92"/>
</a>
</g>
</g>
<!-- Node21 -->
<g id="Node000021" class="node">
<title>Node21</title>
<g id="a_Node000021"><a xlink:href="interfacecom_1_1teragrep_1_1pth__06_1_1planner_1_1LimitedResults.html" target="_top" xlink:title=" ">
<polygon fill="white" stroke="#666666" points="380,-510 220,-510 220,-480 380,-480 380,-510"/>
<text text-anchor="start" x="228" y="-498" font-family="Helvetica,sans-Serif" font-size="10.00">com.teragrep.pth_06.planner.</text>
<text text-anchor="middle" x="300" y="-487" font-family="Helvetica,sans-Serif" font-size="10.00">LimitedResults</text>
</a>
</g>
</g>
<!-- Node5&#45;&gt;Node21 -->
<g id="edge23_Node000005_Node000021" class="edge">
<title>Node5&#45;&gt;Node21</title>
<g id="a_edge23_Node000005_Node000021"><a xlink:title=" ">
<path fill="none" stroke="#63b8ff" d="M124.06,-435.86C160.55,-448.2 215.65,-466.83 254.24,-479.87"/>
<polygon fill="#63b8ff" stroke="#63b8ff" points="124.88,-432.45 114.28,-432.56 122.64,-439.08 124.88,-432.45"/>
</a>
</g>
</g>
<!-- Node24 -->
<g id="Node000024" class="node">
<title>Node24</title>
<g id="a_Node000024"><a xlink:href="interfacecom_1_1teragrep_1_1pth__06_1_1planner_1_1state_1_1QueryState.html" target="_top" xlink:title=" ">
<polygon fill="white" stroke="#666666" points="394,-438 206,-438 206,-408 394,-408 394,-438"/>
<text text-anchor="start" x="214" y="-426" font-family="Helvetica,sans-Serif" font-size="10.00">com.teragrep.pth_06.planner.state.</text>
<text text-anchor="middle" x="300" y="-415" font-family="Helvetica,sans-Serif" font-size="10.00">QueryState</text>
</a>
</g>
</g>
<!-- Node5&#45;&gt;Node24 -->
<g id="edge26_Node000005_Node000024" class="edge">
<title>Node5&#45;&gt;Node24</title>
<g id="a_edge26_Node000005_Node000024"><a xlink:title=" ">
<path fill="none" stroke="#63b8ff" d="M180.45,-423C188.92,-423 197.49,-423 205.95,-423"/>
<polygon fill="#63b8ff" stroke="#63b8ff" points="180.18,-419.5 170.18,-423 180.18,-426.5 180.18,-419.5"/>
</a>
</g>
</g>
<!-- Node7 -->
<g id="Node000007" class="node">
<title>Node7</title>
<g id="a_Node000007"><a xlink:href="classcom_1_1teragrep_1_1pth__06_1_1ast_1_1analyze_1_1ScanPlanImpl.html" target="_top" xlink:title=" ">
<polygon fill="white" stroke="#666666" points="618.5,-366 438.5,-366 438.5,-336 618.5,-336 618.5,-366"/>
<text text-anchor="start" x="446.5" y="-354" font-family="Helvetica,sans-Serif" font-size="10.00">com.teragrep.pth_06.ast.analyze.</text>
<text text-anchor="middle" x="528.5" y="-343" font-family="Helvetica,sans-Serif" font-size="10.00">ScanPlanImpl</text>
</a>
</g>
</g>
<!-- Node6&#45;&gt;Node7 -->
<g id="edge11_Node000006_Node000007" class="edge">
<title>Node6&#45;&gt;Node7</title>
<g id="a_edge11_Node000006_Node000007"><a xlink:title=" ">
<path fill="none" stroke="#63b8ff" d="M400.3,-351C412.97,-351 425.89,-351 438.39,-351"/>
<polygon fill="#63b8ff" stroke="#63b8ff" points="400.19,-347.5 390.19,-351 400.19,-354.5 400.19,-347.5"/>
</a>
</g>
</g>
<!-- Node8 -->
<g id="Node000008" class="node">
<title>Node8</title>
<g id="a_Node000008"><a xlink:href="classcom_1_1teragrep_1_1pth__06_1_1ast_1_1analyze_1_1StubScanPlan.html" target="_top" xlink:title=" ">
<polygon fill="white" stroke="#666666" points="618.5,-318 438.5,-318 438.5,-288 618.5,-288 618.5,-318"/>
<text text-anchor="start" x="446.5" y="-306" font-family="Helvetica,sans-Serif" font-size="10.00">com.teragrep.pth_06.ast.analyze.</text>
<text text-anchor="middle" x="528.5" y="-295" font-family="Helvetica,sans-Serif" font-size="10.00">StubScanPlan</text>
</a>
</g>
</g>
<!-- Node6&#45;&gt;Node8 -->
<g id="edge12_Node000006_Node000008" class="edge">
<title>Node6&#45;&gt;Node8</title>
<g id="a_edge12_Node000006_Node000008"><a xlink:title=" ">
<path fill="none" stroke="#63b8ff" d="M382,-333.83C406.41,-328.66 433.01,-323.02 456.71,-318"/>
<polygon fill="#63b8ff" stroke="#63b8ff" points="381.1,-330.45 372.04,-335.94 382.55,-337.29 381.1,-330.45"/>
</a>
</g>
</g>
<!-- Node10 -->
<g id="Node000010" class="node">
<title>Node10</title>
<g id="a_Node000010"><a xlink:href="classcom_1_1teragrep_1_1pth__06_1_1planner_1_1ArchiveQueryProcessor.html" target="_top" xlink:title=" ">
<polygon fill="white" stroke="#666666" points="608.5,-270 448.5,-270 448.5,-240 608.5,-240 608.5,-270"/>
<text text-anchor="start" x="456.5" y="-258" font-family="Helvetica,sans-Serif" font-size="10.00">com.teragrep.pth_06.planner.</text>
<text text-anchor="middle" x="528.5" y="-247" font-family="Helvetica,sans-Serif" font-size="10.00">ArchiveQueryProcessor</text>
</a>
</g>
</g>
<!-- Node9&#45;&gt;Node10 -->
<g id="edge14_Node000009_Node000010" class="edge">
<title>Node9&#45;&gt;Node10</title>
<g id="a_edge14_Node000009_Node000010"><a xlink:title=" ">
<path fill="none" stroke="#63b8ff" d="M382,-224.17C406.41,-229.34 433.01,-234.98 456.71,-240"/>
<polygon fill="#63b8ff" stroke="#63b8ff" points="382.55,-220.71 372.04,-222.06 381.1,-227.55 382.55,-220.71"/>
</a>
</g>
</g>
<!-- Node11 -->
<g id="Node000011" class="node">
<title>Node11</title>
<g id="a_Node000011"><a xlink:href="classcom_1_1teragrep_1_1pth__06_1_1planner_1_1MockArchiveQueryProcessor.html" target="_top" xlink:title=" ">
<polygon fill="white" stroke="#666666" points="608.5,-222 448.5,-222 448.5,-192 608.5,-192 608.5,-222"/>
<text text-anchor="start" x="456.5" y="-210" font-family="Helvetica,sans-Serif" font-size="10.00">com.teragrep.pth_06.planner.</text>
<text text-anchor="middle" x="528.5" y="-199" font-family="Helvetica,sans-Serif" font-size="10.00">MockArchiveQueryProcessor</text>
</a>
</g>
</g>
<!-- Node9&#45;&gt;Node11 -->
<g id="edge15_Node000009_Node000011" class="edge">
<title>Node9&#45;&gt;Node11</title>
<g id="a_edge15_Node000009_Node000011"><a xlink:title=" ">
<path fill="none" stroke="#63b8ff" d="M390.42,-207C409.55,-207 429.62,-207 448.33,-207"/>
<polygon fill="#63b8ff" stroke="#63b8ff" points="390.22,-203.5 380.22,-207 390.22,-210.5 390.22,-203.5"/>
</a>
</g>
</g>
<!-- Node12 -->
<g id="Node000012" class="node">
<title>Node12</title>
<g id="a_Node000012"><a xlink:href="classcom_1_1teragrep_1_1pth__06_1_1planner_1_1MockMeteredArchiveQueryProcessor.html" target="_top" xlink:title=" ">
<polygon fill="white" stroke="#666666" points="627,-174 430,-174 430,-144 627,-144 627,-174"/>
<text text-anchor="start" x="438" y="-162" font-family="Helvetica,sans-Serif" font-size="10.00">com.teragrep.pth_06.planner.</text>
<text text-anchor="middle" x="528.5" y="-151" font-family="Helvetica,sans-Serif" font-size="10.00">MockMeteredArchiveQueryProcessor</text>
</a>
</g>
</g>
<!-- Node9&#45;&gt;Node12 -->
<g id="edge16_Node000009_Node000012" class="edge">
<title>Node9&#45;&gt;Node12</title>
<g id="a_edge16_Node000009_Node000012"><a xlink:title=" ">
<path fill="none" stroke="#63b8ff" d="M382,-189.83C406.41,-184.66 433.01,-179.02 456.71,-174"/>
<polygon fill="#63b8ff" stroke="#63b8ff" points="381.1,-186.45 372.04,-191.94 382.55,-193.29 381.1,-186.45"/>
</a>
</g>
</g>
<!-- Node13 -->
<g id="Node000013" class="node">
<title>Node13</title>
<g id="a_Node000013"><a xlink:href="classcom_1_1teragrep_1_1pth__06_1_1planner_1_1StubArchiveQuery.html" target="_top" xlink:title=" ">
<polygon fill="white" stroke="#666666" points="608.5,-126 448.5,-126 448.5,-96 608.5,-96 608.5,-126"/>
<text text-anchor="start" x="456.5" y="-114" font-family="Helvetica,sans-Serif" font-size="10.00">com.teragrep.pth_06.planner.</text>
<text text-anchor="middle" x="528.5" y="-103" font-family="Helvetica,sans-Serif" font-size="10.00">StubArchiveQuery</text>
</a>
</g>
</g>
<!-- Node9&#45;&gt;Node13 -->
<g id="edge17_Node000009_Node000013" class="edge">
<title>Node9&#45;&gt;Node13</title>
<g id="a_edge17_Node000009_Node000013"><a xlink:title=" ">
<path fill="none" stroke="#63b8ff" d="M332.32,-186.37C357.74,-170.42 394.99,-148.79 430,-135 438.52,-131.65 447.64,-128.66 456.76,-126.03"/>
<polygon fill="#63b8ff" stroke="#63b8ff" points="330.41,-183.44 323.84,-191.76 334.16,-189.35 330.41,-183.44"/>
</a>
</g>
</g>
<!-- Node15 -->
<g id="Node000015" class="node">
<title>Node15</title>
<g id="a_Node000015"><a xlink:href="classcom_1_1teragrep_1_1pth__06_1_1planner_1_1HourlyViewsSlices.html" target="_top" xlink:title=" ">
<polygon fill="white" stroke="#666666" points="608.5,-78 448.5,-78 448.5,-48 608.5,-48 608.5,-78"/>
<text text-anchor="start" x="456.5" y="-66" font-family="Helvetica,sans-Serif" font-size="10.00">com.teragrep.pth_06.planner.</text>
<text text-anchor="middle" x="528.5" y="-55" font-family="Helvetica,sans-Serif" font-size="10.00">HourlyViewsSlices</text>
</a>
</g>
</g>
<!-- Node14&#45;&gt;Node15 -->
<g id="edge20_Node000014_Node000015" class="edge">
<title>Node14&#45;&gt;Node15</title>
<g id="a_edge20_Node000014_Node000015"><a xlink:title=" ">
<path fill="none" stroke="#63b8ff" d="M390.42,-63C409.55,-63 429.62,-63 448.33,-63"/>
<polygon fill="#63b8ff" stroke="#63b8ff" points="390.22,-59.5 380.22,-63 390.22,-66.5 390.22,-59.5"/>
</a>
</g>
</g>
<!-- Node16 -->
<g id="Node000016" class="node">
<title>Node16</title>
<g id="a_Node000016"><a xlink:href="classcom_1_1teragrep_1_1pth__06_1_1planner_1_1StubHourlySlices.html" target="_top" xlink:title=" ">
<polygon fill="white" stroke="#666666" points="608.5,-30 448.5,-30 448.5,0 608.5,0 608.5,-30"/>
<text text-anchor="start" x="456.5" y="-18" font-family="Helvetica,sans-Serif" font-size="10.00">com.teragrep.pth_06.planner.</text>
<text text-anchor="middle" x="528.5" y="-7" font-family="Helvetica,sans-Serif" font-size="10.00">StubHourlySlices</text>
</a>
</g>
</g>
<!-- Node14&#45;&gt;Node16 -->
<g id="edge21_Node000014_Node000016" class="edge">
<title>Node14&#45;&gt;Node16</title>
<g id="a_edge21_Node000014_Node000016"><a xlink:title=" ">
<path fill="none" stroke="#63b8ff" d="M382,-45.83C406.41,-40.66 433.01,-35.02 456.71,-30"/>
<polygon fill="#63b8ff" stroke="#63b8ff" points="381.1,-42.45 372.04,-47.94 382.55,-49.29 381.1,-42.45"/>
</a>
</g>
</g>
<!-- Node22 -->
<g id="Node000022" class="node">
<title>Node22</title>
<g id="a_Node000022"><a xlink:href="classcom_1_1teragrep_1_1pth__06_1_1planner_1_1BatchSizeLimitedResults.html" target="_top" xlink:title=" ">
<polygon fill="white" stroke="#666666" points="608.5,-558 448.5,-558 448.5,-528 608.5,-528 608.5,-558"/>
<text text-anchor="start" x="456.5" y="-546" font-family="Helvetica,sans-Serif" font-size="10.00">com.teragrep.pth_06.planner.</text>
<text text-anchor="middle" x="528.5" y="-535" font-family="Helvetica,sans-Serif" font-size="10.00">BatchSizeLimitedResults</text>
</a>
</g>
</g>
<!-- Node21&#45;&gt;Node22 -->
<g id="edge24_Node000021_Node000022" class="edge">
<title>Node21&#45;&gt;Node22</title>
<g id="a_edge24_Node000021_Node000022"><a xlink:title=" ">
<path fill="none" stroke="#63b8ff" d="M382,-512.17C406.41,-517.34 433.01,-522.98 456.71,-528"/>
<polygon fill="#63b8ff" stroke="#63b8ff" points="382.55,-508.71 372.04,-510.06 381.1,-515.55 382.55,-508.71"/>
</a>
</g>
</g>
<!-- Node23 -->
<g id="Node000023" class="node">
<title>Node23</title>
<g id="a_Node000023"><a xlink:href="classcom_1_1teragrep_1_1pth__06_1_1planner_1_1StubLimitedResults.html" target="_top" xlink:title=" ">
<polygon fill="white" stroke="#666666" points="608.5,-510 448.5,-510 448.5,-480 608.5,-480 608.5,-510"/>
<text text-anchor="start" x="456.5" y="-498" font-family="Helvetica,sans-Serif" font-size="10.00">com.teragrep.pth_06.planner.</text>
<text text-anchor="middle" x="528.5" y="-487" font-family="Helvetica,sans-Serif" font-size="10.00">StubLimitedResults</text>
</a>
</g>
</g>
<!-- Node21&#45;&gt;Node23 -->
<g id="edge25_Node000021_Node000023" class="edge">
<title>Node21&#45;&gt;Node23</title>
<g id="a_edge25_Node000021_Node000023"><a xlink:title=" ">
<path fill="none" stroke="#63b8ff" d="M390.42,-495C409.55,-495 429.62,-495 448.33,-495"/>
<polygon fill="#63b8ff" stroke="#63b8ff" points="390.22,-491.5 380.22,-495 390.22,-498.5 390.22,-491.5"/>
</a>
</g>
</g>
<!-- Node25 -->
<g id="Node000025" class="node">
<title>Node25</title>
<g id="a_Node000025"><a xlink:href="classcom_1_1teragrep_1_1pth__06_1_1planner_1_1state_1_1QueryStateImpl.html" target="_top" xlink:title=" ">
<polygon fill="white" stroke="#666666" points="622.5,-462 434.5,-462 434.5,-432 622.5,-432 622.5,-462"/>
<text text-anchor="start" x="442.5" y="-450" font-family="Helvetica,sans-Serif" font-size="10.00">com.teragrep.pth_06.planner.state.</text>
<text text-anchor="middle" x="528.5" y="-439" font-family="Helvetica,sans-Serif" font-size="10.00">QueryStateImpl</text>
</a>
</g>
</g>
<!-- Node24&#45;&gt;Node25 -->
<g id="edge27_Node000024_Node000025" class="edge">
<title>Node24&#45;&gt;Node25</title>
<g id="a_edge27_Node000024_Node000025"><a xlink:title=" ">
<path fill="none" stroke="#63b8ff" d="M404.14,-433.93C414.22,-435 424.41,-436.08 434.39,-437.13"/>
<polygon fill="#63b8ff" stroke="#63b8ff" points="404.42,-430.44 394.11,-432.87 403.68,-437.4 404.42,-430.44"/>
</a>
</g>
</g>
<!-- Node26 -->
<g id="Node000026" class="node">
<title>Node26</title>
<g id="a_Node000026"><a xlink:href="classcom_1_1teragrep_1_1pth__06_1_1planner_1_1state_1_1StubQueryState.html" target="_top" xlink:title=" ">
<polygon fill="white" stroke="#666666" points="622.5,-414 434.5,-414 434.5,-384 622.5,-384 622.5,-414"/>
<text text-anchor="start" x="442.5" y="-402" font-family="Helvetica,sans-Serif" font-size="10.00">com.teragrep.pth_06.planner.state.</text>
<text text-anchor="middle" x="528.5" y="-391" font-family="Helvetica,sans-Serif" font-size="10.00">StubQueryState</text>
</a>
</g>
</g>
<!-- Node24&#45;&gt;Node26 -->
<g id="edge28_Node000024_Node000026" class="edge">
<title>Node24&#45;&gt;Node26</title>
<g id="a_edge28_Node000024_Node000026"><a xlink:title=" ">
<path fill="none" stroke="#63b8ff" d="M404.14,-412.07C414.22,-411 424.41,-409.92 434.39,-408.87"/>
<polygon fill="#63b8ff" stroke="#63b8ff" points="403.68,-408.6 394.11,-413.13 404.42,-415.56 403.68,-408.6"/>
</a>
</g>
</g>
</g>
</svg>
