<?xml version="1.0" encoding="UTF-8" standalone="no"?>
<!DOCTYPE svg PUBLIC "-//W3C//DTD SVG 1.1//EN"
 "http://www.w3.org/Graphics/SVG/1.1/DTD/svg11.dtd">
<!-- Generated by graphviz version 2.43.0 (0)
 -->
<!-- Title: Graphical Class Hierarchy Pages: 1 -->
<svg width="485pt" height="134pt"
 viewBox="0.00 0.00 485.00 134.00" xmlns="http://www.w3.org/2000/svg" xmlns:xlink="http://www.w3.org/1999/xlink">
<g id="graph0" class="graph" transform="scale(1 1) rotate(0) translate(4 130)">
<title>Graphical Class Hierarchy</title>
<!-- Node0 -->
<g id="Node000000" class="node">
<title>Node0</title>
<g id="a_Node000000"><a xlink:title=" ">
<polygon fill="#e0e0e0" stroke="#999999" points="65,-96.5 0,-96.5 0,-77.5 65,-77.5 65,-96.5"/>
<text text-anchor="middle" x="32.5" y="-84.5" font-family="Helvetica,sans-Serif" font-size="10.00">LinkedList</text>
</a>
</g>
</g>
<!-- Node1 -->
<g id="Node000001" class="node">
<title>Node1</title>
<g id="a_Node000001"><a xlink:href="classcom_1_1teragrep_1_1pth__06_1_1scheduler_1_1Batch.html" target="_top" xlink:title=" ">
<polygon fill="white" stroke="#666666" points="271,-126 101,-126 101,-96 271,-96 271,-126"/>
<text text-anchor="start" x="109" y="-114" font-family="Helvetica,sans-Serif" font-size="10.00">com.teragrep.pth_06.scheduler.</text>
<text text-anchor="middle" x="186" y="-103" font-family="Helvetica,sans-Serif" font-size="10.00">Batch</text>
</a>
</g>
</g>
<!-- Node0&#45;&gt;Node1 -->
<g id="edge102_Node000000_Node000001" class="edge">
<title>Node0&#45;&gt;Node1</title>
<g id="a_edge102_Node000000_Node000001"><a xlink:title=" ">
<path fill="none" stroke="#63b8ff" d="M75.38,-93.63C83.39,-94.9 92.04,-96.27 100.84,-97.67"/>
<polygon fill="#63b8ff" stroke="#63b8ff" points="75.68,-90.14 65.26,-92.03 74.59,-97.05 75.68,-90.14"/>
</a>
</g>
</g>
<!-- Node2 -->
<g id="Node000002" class="node">
<title>Node2</title>
<g id="a_Node000002"><a xlink:href="classcom_1_1teragrep_1_1pth__06_1_1scheduler_1_1BatchSliceCollection.html" target="_top" xlink:title=" ">
<polygon fill="white" stroke="#666666" points="271,-78 101,-78 101,-48 271,-48 271,-78"/>
<text text-anchor="start" x="109" y="-66" font-family="Helvetica,sans-Serif" font-size="10.00">com.teragrep.pth_06.scheduler.</text>
<text text-anchor="middle" x="186" y="-55" font-family="Helvetica,sans-Serif" font-size="10.00">BatchSliceCollection</text>
</a>
</g>
</g>
<!-- Node0&#45;&gt;Node2 -->
<g id="edge103_Node000000_Node000002" class="edge">
<title>Node0&#45;&gt;Node2</title>
<g id="a_edge103_Node000000_Node000002"><a xlink:title=" ">
<path fill="none" stroke="#63b8ff" d="M75.38,-80.37C83.39,-79.1 92.04,-77.73 100.84,-76.33"/>
<polygon fill="#63b8ff" stroke="#63b8ff" points="74.59,-76.95 65.26,-81.97 75.68,-83.86 74.59,-76.95"/>
</a>
</g>
</g>
<!-- Node3 -->
<g id="Node000003" class="node">
<title>Node3</title>
<g id="a_Node000003"><a xlink:href="classcom_1_1teragrep_1_1pth__06_1_1scheduler_1_1ArchiveBatchSliceCollection.html" target="_top" xlink:title=" ">
<polygon fill="white" stroke="#666666" points="477,-126 307,-126 307,-96 477,-96 477,-126"/>
<text text-anchor="start" x="315" y="-114" font-family="Helvetica,sans-Serif" font-size="10.00">com.teragrep.pth_06.scheduler.</text>
<text text-anchor="middle" x="392" y="-103" font-family="Helvetica,sans-Serif" font-size="10.00">ArchiveBatchSliceCollection</text>
</a>
</g>
</g>
<!-- Node2&#45;&gt;Node3 -->
<g id="edge104_Node000002_Node000003" class="edge">
<title>Node2&#45;&gt;Node3</title>
<g id="a_edge104_Node000002_Node000003"><a xlink:title=" ">
<path fill="none" stroke="#63b8ff" d="M260.83,-80.37C282.58,-85.49 306.18,-91.04 327.24,-96"/>
<polygon fill="#63b8ff" stroke="#63b8ff" points="261.52,-76.94 250.99,-78.06 259.92,-83.75 261.52,-76.94"/>
</a>
</g>
</g>
<!-- Node4 -->
<g id="Node000004" class="node">
<title>Node4</title>
<g id="a_Node000004"><a xlink:href="classcom_1_1teragrep_1_1pth__06_1_1scheduler_1_1HBaseBatchSliceCollection.html" target="_top" xlink:title="Creates batches results from a HBase query for a desired offset range.">
<polygon fill="white" stroke="#666666" points="477,-78 307,-78 307,-48 477,-48 477,-78"/>
<text text-anchor="start" x="315" y="-66" font-family="Helvetica,sans-Serif" font-size="10.00">com.teragrep.pth_06.scheduler.</text>
<text text-anchor="middle" x="392" y="-55" font-family="Helvetica,sans-Serif" font-size="10.00">HBaseBatchSliceCollection</text>
</a>
</g>
</g>
<!-- Node2&#45;&gt;Node4 -->
<g id="edge105_Node000002_Node000004" class="edge">
<title>Node2&#45;&gt;Node4</title>
<g id="a_edge105_Node000002_Node000004"><a xlink:title=" ">
<path fill="none" stroke="#63b8ff" d="M281.4,-63C289.85,-63 298.36,-63 306.71,-63"/>
<polygon fill="#63b8ff" stroke="#63b8ff" points="281.15,-59.5 271.15,-63 281.15,-66.5 281.15,-59.5"/>
</a>
</g>
</g>
<!-- Node5 -->
<g id="Node000005" class="node">
<title>Node5</title>
<g id="a_Node000005"><a xlink:href="classcom_1_1teragrep_1_1pth__06_1_1scheduler_1_1KafkaBatchSliceCollection.html" target="_top" xlink:title=" ">
<polygon fill="white" stroke="#666666" points="477,-30 307,-30 307,0 477,0 477,-30"/>
<text text-anchor="start" x="315" y="-18" font-family="Helvetica,sans-Serif" font-size="10.00">com.teragrep.pth_06.scheduler.</text>
<text text-anchor="middle" x="392" y="-7" font-family="Helvetica,sans-Serif" font-size="10.00">KafkaBatchSliceCollection</text>
</a>
</g>
</g>
<!-- Node2&#45;&gt;Node5 -->
<g id="edge106_Node000002_Node000005" class="edge">
<title>Node2&#45;&gt;Node5</title>
<g id="a_edge106_Node000002_Node000005"><a xlink:title=" ">
<path fill="none" stroke="#63b8ff" d="M260.83,-45.63C282.58,-40.51 306.18,-34.96 327.24,-30"/>
<polygon fill="#63b8ff" stroke="#63b8ff" points="259.92,-42.25 250.99,-47.94 261.52,-49.06 259.92,-42.25"/>
</a>
</g>
</g>
</g>
</svg>
