<?xml version="1.0" encoding="UTF-8" standalone="no"?>
<!DOCTYPE svg PUBLIC "-//W3C//DTD SVG 1.1//EN"
 "http://www.w3.org/Graphics/SVG/1.1/DTD/svg11.dtd">
<!-- Generated by graphviz version 2.43.0 (0)
 -->
<!-- Title: Graphical Class Hierarchy Pages: 1 -->
<svg width="629pt" height="854pt"
 viewBox="0.00 0.00 629.00 854.00" xmlns="http://www.w3.org/2000/svg" xmlns:xlink="http://www.w3.org/1999/xlink">
<g id="graph0" class="graph" transform="scale(1 1) rotate(0) translate(4 850)">
<title>Graphical Class Hierarchy</title>
<!-- Node0 -->
<g id="Node000000" class="node">
<title>Node0</title>
<g id="a_Node000000"><a xlink:title=" ">
<polygon fill="#e0e0e0" stroke="#999999" points="125.5,-748.5 38.5,-748.5 38.5,-729.5 125.5,-729.5 125.5,-748.5"/>
<text text-anchor="middle" x="82" y="-736.5" font-family="Helvetica,sans-Serif" font-size="10.00">AutoCloseable</text>
</a>
</g>
</g>
<!-- Node1 -->
<g id="Node000001" class="node">
<title>Node1</title>
<g id="a_Node000001"><a xlink:href="interfacecom_1_1teragrep_1_1pth__06_1_1planner_1_1HBaseQuery.html" target="_top" xlink:title=" ">
<polygon fill="white" stroke="#666666" points="374,-800 214,-800 214,-770 374,-770 374,-800"/>
<text text-anchor="start" x="222" y="-788" font-family="Helvetica,sans-Serif" font-size="10.00">com.teragrep.pth_06.planner.</text>
<text text-anchor="middle" x="294" y="-777" font-family="Helvetica,sans-Serif" font-size="10.00">HBaseQuery</text>
</a>
</g>
</g>
<!-- Node0&#45;&gt;Node1 -->
<g id="edge1_Node000000_Node000001" class="edge">
<title>Node0&#45;&gt;Node1</title>
<g id="a_edge1_Node000000_Node000001"><a xlink:title=" ">
<path fill="none" stroke="#63b8ff" d="M135.71,-750.55C162.54,-756.42 195.48,-763.64 224.27,-769.94"/>
<polygon fill="#63b8ff" stroke="#63b8ff" points="136.27,-747.09 125.75,-748.36 134.77,-753.92 136.27,-747.09"/>
</a>
</g>
</g>
<!-- Node30 -->
<g id="Node000030" class="node">
<title>Node30</title>
<g id="a_Node000030"><a xlink:href="classcom_1_1teragrep_1_1pth__06_1_1planner_1_1StreamDBClient.html" target="_top" xlink:title=" ">
<polygon fill="white" stroke="#666666" points="374,-752 214,-752 214,-722 374,-722 374,-752"/>
<text text-anchor="start" x="222" y="-740" font-family="Helvetica,sans-Serif" font-size="10.00">com.teragrep.pth_06.planner.</text>
<text text-anchor="middle" x="294" y="-729" font-family="Helvetica,sans-Serif" font-size="10.00">StreamDBClient</text>
</a>
</g>
</g>
<!-- Node0&#45;&gt;Node30 -->
<g id="edge4_Node000000_Node000030" class="edge">
<title>Node0&#45;&gt;Node30</title>
<g id="a_edge4_Node000000_Node000030"><a xlink:title=" ">
<path fill="none" stroke="#63b8ff" d="M135.89,-738.5C159.47,-738.27 187.76,-738 213.79,-737.75"/>
<polygon fill="#63b8ff" stroke="#63b8ff" points="135.72,-735 125.75,-738.59 135.78,-742 135.72,-735"/>
</a>
</g>
</g>
<!-- Node2 -->
<g id="Node000002" class="node">
<title>Node2</title>
<g id="a_Node000002"><a xlink:href="classcom_1_1teragrep_1_1pth__06_1_1planner_1_1HBaseQueryImpl.html" target="_top" xlink:title="Responsible for splitting results from scanPlanCollection into batches.">
<polygon fill="white" stroke="#666666" points="602.5,-846 442.5,-846 442.5,-816 602.5,-816 602.5,-846"/>
<text text-anchor="start" x="450.5" y="-834" font-family="Helvetica,sans-Serif" font-size="10.00">com.teragrep.pth_06.planner.</text>
<text text-anchor="middle" x="522.5" y="-823" font-family="Helvetica,sans-Serif" font-size="10.00">HBaseQueryImpl</text>
</a>
</g>
</g>
<!-- Node1&#45;&gt;Node2 -->
<g id="edge2_Node000001_Node000002" class="edge">
<title>Node1&#45;&gt;Node2</title>
<g id="a_edge2_Node000001_Node000002"><a xlink:title=" ">
<path fill="none" stroke="#63b8ff" d="M379.03,-802.07C401.52,-806.63 425.66,-811.53 447.56,-815.98"/>
<polygon fill="#63b8ff" stroke="#63b8ff" points="379.66,-798.62 369.16,-800.06 378.27,-805.48 379.66,-798.62"/>
</a>
</g>
</g>
<!-- Node4 -->
<g id="Node000004" class="node">
<title>Node4</title>
<g id="a_Node000004"><a xlink:href="classcom_1_1teragrep_1_1pth__06_1_1planner_1_1StubHBaseQuery.html" target="_top" xlink:title=" ">
<polygon fill="white" stroke="#666666" points="602.5,-798 442.5,-798 442.5,-768 602.5,-768 602.5,-798"/>
<text text-anchor="start" x="450.5" y="-786" font-family="Helvetica,sans-Serif" font-size="10.00">com.teragrep.pth_06.planner.</text>
<text text-anchor="middle" x="522.5" y="-775" font-family="Helvetica,sans-Serif" font-size="10.00">StubHBaseQuery</text>
</a>
</g>
</g>
<!-- Node1&#45;&gt;Node4 -->
<g id="edge3_Node000001_Node000004" class="edge">
<title>Node1&#45;&gt;Node4</title>
<g id="a_edge3_Node000001_Node000004"><a xlink:title=" ">
<path fill="none" stroke="#63b8ff" d="M384.42,-784.21C403.55,-784.04 423.62,-783.86 442.33,-783.7"/>
<polygon fill="#63b8ff" stroke="#63b8ff" points="384.19,-780.71 374.22,-784.3 384.25,-787.71 384.19,-780.71"/>
</a>
</g>
</g>
<!-- Node23 -->
<g id="Node000023" class="node">
<title>Node23</title>
<g id="a_Node000023"><a xlink:title=" ">
<polygon fill="#e0e0e0" stroke="#999999" points="114.5,-696.5 49.5,-696.5 49.5,-677.5 114.5,-677.5 114.5,-696.5"/>
<text text-anchor="middle" x="82" y="-684.5" font-family="Helvetica,sans-Serif" font-size="10.00">Closeable</text>
</a>
</g>
</g>
<!-- Node20 -->
<g id="Node000020" class="node">
<title>Node20</title>
<g id="a_Node000020"><a xlink:href="interfacecom_1_1teragrep_1_1pth__06_1_1planner_1_1KafkaQuery.html" target="_top" xlink:title=" ">
<polygon fill="white" stroke="#666666" points="374,-702 214,-702 214,-672 374,-672 374,-702"/>
<text text-anchor="start" x="222" y="-690" font-family="Helvetica,sans-Serif" font-size="10.00">com.teragrep.pth_06.planner.</text>
<text text-anchor="middle" x="294" y="-679" font-family="Helvetica,sans-Serif" font-size="10.00">KafkaQuery</text>
</a>
</g>
</g>
<!-- Node23&#45;&gt;Node20 -->
<g id="edge5_Node000023_Node000020" class="edge">
<title>Node23&#45;&gt;Node20</title>
<g id="a_edge5_Node000023_Node000020"><a xlink:title=" ">
<path fill="none" stroke="#63b8ff" d="M124.94,-687C150.41,-687 183.74,-687 213.99,-687"/>
<polygon fill="#63b8ff" stroke="#63b8ff" points="124.89,-683.5 114.89,-687 124.89,-690.5 124.89,-683.5"/>
</a>
</g>
</g>
<!-- Node21 -->
<g id="Node000021" class="node">
<title>Node21</title>
<g id="a_Node000021"><a xlink:href="classcom_1_1teragrep_1_1pth__06_1_1planner_1_1KafkaQueryProcessor.html" target="_top" xlink:title=" ">
<polygon fill="white" stroke="#666666" points="602.5,-750 442.5,-750 442.5,-720 602.5,-720 602.5,-750"/>
<text text-anchor="start" x="450.5" y="-738" font-family="Helvetica,sans-Serif" font-size="10.00">com.teragrep.pth_06.planner.</text>
<text text-anchor="middle" x="522.5" y="-727" font-family="Helvetica,sans-Serif" font-size="10.00">KafkaQueryProcessor</text>
</a>
</g>
</g>
<!-- Node20&#45;&gt;Node21 -->
<g id="edge6_Node000020_Node000021" class="edge">
<title>Node20&#45;&gt;Node21</title>
<g id="a_edge6_Node000020_Node000021"><a xlink:title=" ">
<path fill="none" stroke="#63b8ff" d="M376,-704.17C400.41,-709.34 427.01,-714.98 450.71,-720"/>
<polygon fill="#63b8ff" stroke="#63b8ff" points="376.55,-700.71 366.04,-702.06 375.1,-707.55 376.55,-700.71"/>
</a>
</g>
</g>
<!-- Node22 -->
<g id="Node000022" class="node">
<title>Node22</title>
<g id="a_Node000022"><a xlink:href="classcom_1_1teragrep_1_1pth__06_1_1planner_1_1StubKafkaQuery.html" target="_top" xlink:title=" ">
<polygon fill="white" stroke="#666666" points="602.5,-702 442.5,-702 442.5,-672 602.5,-672 602.5,-702"/>
<text text-anchor="start" x="450.5" y="-690" font-family="Helvetica,sans-Serif" font-size="10.00">com.teragrep.pth_06.planner.</text>
<text text-anchor="middle" x="522.5" y="-679" font-family="Helvetica,sans-Serif" font-size="10.00">StubKafkaQuery</text>
</a>
</g>
</g>
<!-- Node20&#45;&gt;Node22 -->
<g id="edge7_Node000020_Node000022" class="edge">
<title>Node20&#45;&gt;Node22</title>
<g id="a_edge7_Node000020_Node000022"><a xlink:title=" ">
<path fill="none" stroke="#63b8ff" d="M384.42,-687C403.55,-687 423.62,-687 442.33,-687"/>
<polygon fill="#63b8ff" stroke="#63b8ff" points="384.22,-683.5 374.22,-687 384.22,-690.5 384.22,-683.5"/>
</a>
</g>
</g>
<!-- Node3 -->
<g id="Node000003" class="node">
<title>Node3</title>
<g id="a_Node000003"><a xlink:href="interfacecom_1_1teragrep_1_1pth__06_1_1planner_1_1QueryMetrics.html" target="_top" xlink:title=" ">
<polygon fill="white" stroke="#666666" points="162,-822 2,-822 2,-792 162,-792 162,-822"/>
<text text-anchor="start" x="10" y="-810" font-family="Helvetica,sans-Serif" font-size="10.00">com.teragrep.pth_06.planner.</text>
<text text-anchor="middle" x="82" y="-799" font-family="Helvetica,sans-Serif" font-size="10.00">QueryMetrics</text>
</a>
</g>
</g>
<!-- Node3&#45;&gt;Node1 -->
<g id="edge8_Node000003_Node000001" class="edge">
<title>Node3&#45;&gt;Node1</title>
<g id="a_edge8_Node000003_Node000001"><a xlink:title=" ">
<path fill="none" stroke="#63b8ff" d="M172.13,-797.66C186.04,-796.21 200.32,-794.71 213.98,-793.28"/>
<polygon fill="#63b8ff" stroke="#63b8ff" points="171.67,-794.19 162.09,-798.71 172.4,-801.15 171.67,-794.19"/>
</a>
</g>
</g>
<!-- Node3&#45;&gt;Node2 -->
<g id="edge9_Node000003_Node000002" class="edge">
<title>Node3&#45;&gt;Node2</title>
<g id="a_edge9_Node000003_Node000002"><a xlink:title=" ">
<path fill="none" stroke="#63b8ff" d="M172.61,-811.9C251.82,-816.24 366.27,-822.5 442.22,-826.66"/>
<polygon fill="#63b8ff" stroke="#63b8ff" points="172.33,-808.38 162.16,-811.33 171.95,-815.37 172.33,-808.38"/>
</a>
</g>
</g>
<!-- Node5 -->
<g id="Node000005" class="node">
<title>Node5</title>
<g id="a_Node000005"><a xlink:href="interfacecom_1_1teragrep_1_1pth__06_1_1Stubable.html" target="_top" xlink:title=" ">
<polygon fill="white" stroke="#666666" points="164,-456.5 0,-456.5 0,-437.5 164,-437.5 164,-456.5"/>
<text text-anchor="middle" x="82" y="-444.5" font-family="Helvetica,sans-Serif" font-size="10.00">com.teragrep.pth_06.Stubable</text>
</a>
</g>
</g>
<!-- Node5&#45;&gt;Node1 -->
<g id="edge21_Node000005_Node000001" class="edge">
<title>Node5&#45;&gt;Node1</title>
<g id="a_edge21_Node000005_Node000001"><a xlink:title=" ">
<path fill="none" stroke="#63b8ff" d="M89.99,-466.11C114.76,-533.81 197.06,-758.35 200,-761 204.21,-764.79 208.95,-768.01 213.99,-770.72"/>
<polygon fill="#63b8ff" stroke="#63b8ff" points="93.25,-464.84 86.53,-456.65 86.67,-467.24 93.25,-464.84"/>
</a>
</g>
</g>
<!-- Node5&#45;&gt;Node20 -->
<g id="edge25_Node000005_Node000020" class="edge">
<title>Node5&#45;&gt;Node20</title>
<g id="a_edge25_Node000005_Node000020"><a xlink:title=" ">
<path fill="none" stroke="#63b8ff" d="M93.48,-465.75C112.22,-498.31 153.84,-566.44 200,-615 221.24,-637.35 249.78,-658.38 269.62,-671.88"/>
<polygon fill="#63b8ff" stroke="#63b8ff" points="96.41,-463.82 88.42,-456.85 90.32,-467.28 96.41,-463.82"/>
</a>
</g>
</g>
<!-- Node6 -->
<g id="Node000006" class="node">
<title>Node6</title>
<g id="a_Node000006"><a xlink:href="interfacecom_1_1teragrep_1_1pth__06_1_1ast_1_1analyze_1_1ScanPlan.html" target="_top" xlink:title="Logical plan for a row key range scan of HBase.">
<polygon fill="white" stroke="#666666" points="384,-606 204,-606 204,-576 384,-576 384,-606"/>
<text text-anchor="start" x="212" y="-594" font-family="Helvetica,sans-Serif" font-size="10.00">com.teragrep.pth_06.ast.analyze.</text>
<text text-anchor="middle" x="294" y="-583" font-family="Helvetica,sans-Serif" font-size="10.00">ScanPlan</text>
</a>
</g>
</g>
<!-- Node5&#45;&gt;Node6 -->
<g id="edge10_Node000005_Node000006" class="edge">
<title>Node5&#45;&gt;Node6</title>
<g id="a_edge10_Node000005_Node000006"><a xlink:title=" ">
<path fill="none" stroke="#63b8ff" d="M105.51,-462.43C146.06,-490.24 230.89,-548.41 271.04,-575.94"/>
<polygon fill="#63b8ff" stroke="#63b8ff" points="107.33,-459.44 97.1,-456.67 103.37,-465.21 107.33,-459.44"/>
</a>
</g>
</g>
<!-- Node9 -->
<g id="Node000009" class="node">
<title>Node9</title>
<g id="a_Node000009"><a xlink:href="interfacecom_1_1teragrep_1_1pth__06_1_1metrics_1_1MetricValue.html" target="_top" xlink:title=" ">
<polygon fill="white" stroke="#666666" points="374.5,-510 213.5,-510 213.5,-480 374.5,-480 374.5,-510"/>
<text text-anchor="start" x="221.5" y="-498" font-family="Helvetica,sans-Serif" font-size="10.00">com.teragrep.pth_06.metrics.</text>
<text text-anchor="middle" x="294" y="-487" font-family="Helvetica,sans-Serif" font-size="10.00">MetricValue&lt; T &gt;</text>
</a>
</g>
</g>
<!-- Node5&#45;&gt;Node9 -->
<g id="edge13_Node000005_Node000009" class="edge">
<title>Node5&#45;&gt;Node9</title>
<g id="a_edge13_Node000005_Node000009"><a xlink:title=" ">
<path fill="none" stroke="#63b8ff" d="M134.71,-458.82C162.67,-465.21 197.5,-473.17 227.36,-480"/>
<polygon fill="#63b8ff" stroke="#63b8ff" points="135.27,-455.36 124.74,-456.54 133.71,-462.18 135.27,-455.36"/>
</a>
</g>
</g>
<!-- Node12 -->
<g id="Node000012" class="node">
<title>Node12</title>
<g id="a_Node000012"><a xlink:href="interfacecom_1_1teragrep_1_1pth__06_1_1planner_1_1ArchiveQuery.html" target="_top" xlink:title=" ">
<polygon fill="white" stroke="#666666" points="374,-414 214,-414 214,-384 374,-384 374,-414"/>
<text text-anchor="start" x="222" y="-402" font-family="Helvetica,sans-Serif" font-size="10.00">com.teragrep.pth_06.planner.</text>
<text text-anchor="middle" x="294" y="-391" font-family="Helvetica,sans-Serif" font-size="10.00">ArchiveQuery</text>
</a>
</g>
</g>
<!-- Node5&#45;&gt;Node12 -->
<g id="edge16_Node000005_Node000012" class="edge">
<title>Node5&#45;&gt;Node12</title>
<g id="a_edge16_Node000005_Node000012"><a xlink:title=" ">
<path fill="none" stroke="#63b8ff" d="M134.71,-435.18C162.67,-428.79 197.5,-420.83 227.36,-414"/>
<polygon fill="#63b8ff" stroke="#63b8ff" points="133.71,-431.82 124.74,-437.46 135.27,-438.64 133.71,-431.82"/>
</a>
</g>
</g>
<!-- Node17 -->
<g id="Node000017" class="node">
<title>Node17</title>
<g id="a_Node000017"><a xlink:href="interfacecom_1_1teragrep_1_1pth__06_1_1planner_1_1HourlySlices.html" target="_top" xlink:title=" ">
<polygon fill="white" stroke="#666666" points="374,-270 214,-270 214,-240 374,-240 374,-270"/>
<text text-anchor="start" x="222" y="-258" font-family="Helvetica,sans-Serif" font-size="10.00">com.teragrep.pth_06.planner.</text>
<text text-anchor="middle" x="294" y="-247" font-family="Helvetica,sans-Serif" font-size="10.00">HourlySlices</text>
</a>
</g>
</g>
<!-- Node5&#45;&gt;Node17 -->
<g id="edge22_Node000005_Node000017" class="edge">
<title>Node5&#45;&gt;Node17</title>
<g id="a_edge22_Node000005_Node000017"><a xlink:title=" ">
<path fill="none" stroke="#63b8ff" d="M100.86,-430.68C140.94,-394.03 237.59,-305.66 276.43,-270.15"/>
<polygon fill="#63b8ff" stroke="#63b8ff" points="98.43,-428.15 93.41,-437.48 103.16,-433.31 98.43,-428.15"/>
</a>
</g>
</g>
<!-- Node24 -->
<g id="Node000024" class="node">
<title>Node24</title>
<g id="a_Node000024"><a xlink:href="interfacecom_1_1teragrep_1_1pth__06_1_1planner_1_1LimitedResults.html" target="_top" xlink:title=" ">
<polygon fill="white" stroke="#666666" points="374,-174 214,-174 214,-144 374,-144 374,-174"/>
<text text-anchor="start" x="222" y="-162" font-family="Helvetica,sans-Serif" font-size="10.00">com.teragrep.pth_06.planner.</text>
<text text-anchor="middle" x="294" y="-151" font-family="Helvetica,sans-Serif" font-size="10.00">LimitedResults</text>
</a>
</g>
</g>
<!-- Node5&#45;&gt;Node24 -->
<g id="edge26_Node000005_Node000024" class="edge">
<title>Node5&#45;&gt;Node24</title>
<g id="a_edge26_Node000005_Node000024"><a xlink:title=" ">
<path fill="none" stroke="#63b8ff" d="M90.24,-427.74C105.87,-387.9 145.76,-294.85 200,-231 219.7,-207.81 247.97,-187.23 268.16,-174.07"/>
<polygon fill="#63b8ff" stroke="#63b8ff" points="86.97,-426.49 86.64,-437.08 93.5,-429.01 86.97,-426.49"/>
</a>
</g>
</g>
<!-- Node27 -->
<g id="Node000027" class="node">
<title>Node27</title>
<g id="a_Node000027"><a xlink:href="interfacecom_1_1teragrep_1_1pth__06_1_1planner_1_1state_1_1QueryState.html" target="_top" xlink:title=" ">
<polygon fill="white" stroke="#666666" points="388,-78 200,-78 200,-48 388,-48 388,-78"/>
<text text-anchor="start" x="208" y="-66" font-family="Helvetica,sans-Serif" font-size="10.00">com.teragrep.pth_06.planner.state.</text>
<text text-anchor="middle" x="294" y="-55" font-family="Helvetica,sans-Serif" font-size="10.00">QueryState</text>
</a>
</g>
</g>
<!-- Node5&#45;&gt;Node27 -->
<g id="edge29_Node000005_Node000027" class="edge">
<title>Node5&#45;&gt;Node27</title>
<g id="a_edge29_Node000005_Node000027"><a xlink:title=" ">
<path fill="none" stroke="#63b8ff" d="M86.43,-427.55C96.35,-375.64 128.99,-231.3 200,-135 217.69,-111.01 245.45,-90.96 266.04,-78.17"/>
<polygon fill="#63b8ff" stroke="#63b8ff" points="82.98,-426.95 84.61,-437.42 89.87,-428.22 82.98,-426.95"/>
</a>
</g>
</g>
<!-- Node7 -->
<g id="Node000007" class="node">
<title>Node7</title>
<g id="a_Node000007"><a xlink:href="classcom_1_1teragrep_1_1pth__06_1_1ast_1_1analyze_1_1ScanPlanImpl.html" target="_top" xlink:title=" ">
<polygon fill="white" stroke="#666666" points="612.5,-654 432.5,-654 432.5,-624 612.5,-624 612.5,-654"/>
<text text-anchor="start" x="440.5" y="-642" font-family="Helvetica,sans-Serif" font-size="10.00">com.teragrep.pth_06.ast.analyze.</text>
<text text-anchor="middle" x="522.5" y="-631" font-family="Helvetica,sans-Serif" font-size="10.00">ScanPlanImpl</text>
</a>
</g>
</g>
<!-- Node6&#45;&gt;Node7 -->
<g id="edge11_Node000006_Node000007" class="edge">
<title>Node6&#45;&gt;Node7</title>
<g id="a_edge11_Node000006_Node000007"><a xlink:title=" ">
<path fill="none" stroke="#63b8ff" d="M376,-608.17C400.41,-613.34 427.01,-618.98 450.71,-624"/>
<polygon fill="#63b8ff" stroke="#63b8ff" points="376.55,-604.71 366.04,-606.06 375.1,-611.55 376.55,-604.71"/>
</a>
</g>
</g>
<!-- Node8 -->
<g id="Node000008" class="node">
<title>Node8</title>
<g id="a_Node000008"><a xlink:href="classcom_1_1teragrep_1_1pth__06_1_1ast_1_1analyze_1_1StubScanPlan.html" target="_top" xlink:title=" ">
<polygon fill="white" stroke="#666666" points="612.5,-606 432.5,-606 432.5,-576 612.5,-576 612.5,-606"/>
<text text-anchor="start" x="440.5" y="-594" font-family="Helvetica,sans-Serif" font-size="10.00">com.teragrep.pth_06.ast.analyze.</text>
<text text-anchor="middle" x="522.5" y="-583" font-family="Helvetica,sans-Serif" font-size="10.00">StubScanPlan</text>
</a>
</g>
</g>
<!-- Node6&#45;&gt;Node8 -->
<g id="edge12_Node000006_Node000008" class="edge">
<title>Node6&#45;&gt;Node8</title>
<g id="a_edge12_Node000006_Node000008"><a xlink:title=" ">
<path fill="none" stroke="#63b8ff" d="M394.3,-591C406.97,-591 419.89,-591 432.39,-591"/>
<polygon fill="#63b8ff" stroke="#63b8ff" points="394.19,-587.5 384.19,-591 394.19,-594.5 394.19,-587.5"/>
</a>
</g>
</g>
<!-- Node10 -->
<g id="Node000010" class="node">
<title>Node10</title>
<g id="a_Node000010"><a xlink:href="classcom_1_1teragrep_1_1pth__06_1_1metrics_1_1MetricValueImpl.html" target="_top" xlink:title=" ">
<polygon fill="white" stroke="#666666" points="603,-558 442,-558 442,-528 603,-528 603,-558"/>
<text text-anchor="start" x="450" y="-546" font-family="Helvetica,sans-Serif" font-size="10.00">com.teragrep.pth_06.metrics.</text>
<text text-anchor="middle" x="522.5" y="-535" font-family="Helvetica,sans-Serif" font-size="10.00">MetricValueImpl&lt; T &gt;</text>
</a>
</g>
</g>
<!-- Node9&#45;&gt;Node10 -->
<g id="edge14_Node000009_Node000010" class="edge">
<title>Node9&#45;&gt;Node10</title>
<g id="a_edge14_Node000009_Node000010"><a xlink:title=" ">
<path fill="none" stroke="#63b8ff" d="M376,-512.17C400.41,-517.34 427.01,-522.98 450.71,-528"/>
<polygon fill="#63b8ff" stroke="#63b8ff" points="376.55,-508.71 366.04,-510.06 375.1,-515.55 376.55,-508.71"/>
</a>
</g>
</g>
<!-- Node11 -->
<g id="Node000011" class="node">
<title>Node11</title>
<g id="a_Node000011"><a xlink:href="classcom_1_1teragrep_1_1pth__06_1_1metrics_1_1MetricValueStub.html" target="_top" xlink:title=" ">
<polygon fill="white" stroke="#666666" points="603,-510 442,-510 442,-480 603,-480 603,-510"/>
<text text-anchor="start" x="450" y="-498" font-family="Helvetica,sans-Serif" font-size="10.00">com.teragrep.pth_06.metrics.</text>
<text text-anchor="middle" x="522.5" y="-487" font-family="Helvetica,sans-Serif" font-size="10.00">MetricValueStub&lt; T &gt;</text>
</a>
</g>
</g>
<!-- Node9&#45;&gt;Node11 -->
<g id="edge15_Node000009_Node000011" class="edge">
<title>Node9&#45;&gt;Node11</title>
<g id="a_edge15_Node000009_Node000011"><a xlink:title=" ">
<path fill="none" stroke="#63b8ff" d="M384.61,-495C403.49,-495 423.29,-495 441.77,-495"/>
<polygon fill="#63b8ff" stroke="#63b8ff" points="384.54,-491.5 374.54,-495 384.54,-498.5 384.54,-491.5"/>
</a>
</g>
</g>
<!-- Node13 -->
<g id="Node000013" class="node">
<title>Node13</title>
<g id="a_Node000013"><a xlink:href="classcom_1_1teragrep_1_1pth__06_1_1planner_1_1ArchiveQueryProcessor.html" target="_top" xlink:title=" ">
<polygon fill="white" stroke="#666666" points="602.5,-366 442.5,-366 442.5,-336 602.5,-336 602.5,-366"/>
<text text-anchor="start" x="450.5" y="-354" font-family="Helvetica,sans-Serif" font-size="10.00">com.teragrep.pth_06.planner.</text>
<text text-anchor="middle" x="522.5" y="-343" font-family="Helvetica,sans-Serif" font-size="10.00">ArchiveQueryProcessor</text>
</a>
</g>
</g>
<!-- Node12&#45;&gt;Node13 -->
<g id="edge17_Node000012_Node000013" class="edge">
<title>Node12&#45;&gt;Node13</title>
<g id="a_edge17_Node000012_Node000013"><a xlink:title=" ">
<path fill="none" stroke="#63b8ff" d="M376,-381.83C400.41,-376.66 427.01,-371.02 450.71,-366"/>
<polygon fill="#63b8ff" stroke="#63b8ff" points="375.1,-378.45 366.04,-383.94 376.55,-385.29 375.1,-378.45"/>
</a>
</g>
</g>
<!-- Node14 -->
<g id="Node000014" class="node">
<title>Node14</title>
<g id="a_Node000014"><a xlink:href="classcom_1_1teragrep_1_1pth__06_1_1planner_1_1MockArchiveQueryProcessor.html" target="_top" xlink:title=" ">
<polygon fill="white" stroke="#666666" points="602.5,-318 442.5,-318 442.5,-288 602.5,-288 602.5,-318"/>
<text text-anchor="start" x="450.5" y="-306" font-family="Helvetica,sans-Serif" font-size="10.00">com.teragrep.pth_06.planner.</text>
<text text-anchor="middle" x="522.5" y="-295" font-family="Helvetica,sans-Serif" font-size="10.00">MockArchiveQueryProcessor</text>
</a>
</g>
</g>
<!-- Node12&#45;&gt;Node14 -->
<g id="edge18_Node000012_Node000014" class="edge">
<title>Node12&#45;&gt;Node14</title>
<g id="a_edge18_Node000012_Node000014"><a xlink:title=" ">
<path fill="none" stroke="#63b8ff" d="M326.32,-378.37C351.74,-362.42 388.99,-340.79 424,-327 432.52,-323.65 441.64,-320.66 450.76,-318.03"/>
<polygon fill="#63b8ff" stroke="#63b8ff" points="324.41,-375.44 317.84,-383.76 328.16,-381.35 324.41,-375.44"/>
</a>
</g>
</g>
<!-- Node15 -->
<g id="Node000015" class="node">
<title>Node15</title>
<g id="a_Node000015"><a xlink:href="classcom_1_1teragrep_1_1pth__06_1_1planner_1_1MockMeteredArchiveQueryProcessor.html" target="_top" xlink:title=" ">
<polygon fill="white" stroke="#666666" points="621,-462 424,-462 424,-432 621,-432 621,-462"/>
<text text-anchor="start" x="432" y="-450" font-family="Helvetica,sans-Serif" font-size="10.00">com.teragrep.pth_06.planner.</text>
<text text-anchor="middle" x="522.5" y="-439" font-family="Helvetica,sans-Serif" font-size="10.00">MockMeteredArchiveQueryProcessor</text>
</a>
</g>
</g>
<!-- Node12&#45;&gt;Node15 -->
<g id="edge19_Node000012_Node000015" class="edge">
<title>Node12&#45;&gt;Node15</title>
<g id="a_edge19_Node000012_Node000015"><a xlink:title=" ">
<path fill="none" stroke="#63b8ff" d="M376,-416.17C400.41,-421.34 427.01,-426.98 450.71,-432"/>
<polygon fill="#63b8ff" stroke="#63b8ff" points="376.55,-412.71 366.04,-414.06 375.1,-419.55 376.55,-412.71"/>
</a>
</g>
</g>
<!-- Node16 -->
<g id="Node000016" class="node">
<title>Node16</title>
<g id="a_Node000016"><a xlink:href="classcom_1_1teragrep_1_1pth__06_1_1planner_1_1StubArchiveQuery.html" target="_top" xlink:title=" ">
<polygon fill="white" stroke="#666666" points="602.5,-414 442.5,-414 442.5,-384 602.5,-384 602.5,-414"/>
<text text-anchor="start" x="450.5" y="-402" font-family="Helvetica,sans-Serif" font-size="10.00">com.teragrep.pth_06.planner.</text>
<text text-anchor="middle" x="522.5" y="-391" font-family="Helvetica,sans-Serif" font-size="10.00">StubArchiveQuery</text>
</a>
</g>
</g>
<!-- Node12&#45;&gt;Node16 -->
<g id="edge20_Node000012_Node000016" class="edge">
<title>Node12&#45;&gt;Node16</title>
<g id="a_edge20_Node000012_Node000016"><a xlink:title=" ">
<path fill="none" stroke="#63b8ff" d="M384.42,-399C403.55,-399 423.62,-399 442.33,-399"/>
<polygon fill="#63b8ff" stroke="#63b8ff" points="384.22,-395.5 374.22,-399 384.22,-402.5 384.22,-395.5"/>
</a>
</g>
</g>
<!-- Node18 -->
<g id="Node000018" class="node">
<title>Node18</title>
<g id="a_Node000018"><a xlink:href="classcom_1_1teragrep_1_1pth__06_1_1planner_1_1HourlyViewsSlices.html" target="_top" xlink:title=" ">
<polygon fill="white" stroke="#666666" points="602.5,-270 442.5,-270 442.5,-240 602.5,-240 602.5,-270"/>
<text text-anchor="start" x="450.5" y="-258" font-family="Helvetica,sans-Serif" font-size="10.00">com.teragrep.pth_06.planner.</text>
<text text-anchor="middle" x="522.5" y="-247" font-family="Helvetica,sans-Serif" font-size="10.00">HourlyViewsSlices</text>
</a>
</g>
</g>
<!-- Node17&#45;&gt;Node18 -->
<g id="edge23_Node000017_Node000018" class="edge">
<title>Node17&#45;&gt;Node18</title>
<g id="a_edge23_Node000017_Node000018"><a xlink:title=" ">
<path fill="none" stroke="#63b8ff" d="M384.42,-255C403.55,-255 423.62,-255 442.33,-255"/>
<polygon fill="#63b8ff" stroke="#63b8ff" points="384.22,-251.5 374.22,-255 384.22,-258.5 384.22,-251.5"/>
</a>
</g>
</g>
<!-- Node19 -->
<g id="Node000019" class="node">
<title>Node19</title>
<g id="a_Node000019"><a xlink:href="classcom_1_1teragrep_1_1pth__06_1_1planner_1_1StubHourlySlices.html" target="_top" xlink:title=" ">
<polygon fill="white" stroke="#666666" points="602.5,-222 442.5,-222 442.5,-192 602.5,-192 602.5,-222"/>
<text text-anchor="start" x="450.5" y="-210" font-family="Helvetica,sans-Serif" font-size="10.00">com.teragrep.pth_06.planner.</text>
<text text-anchor="middle" x="522.5" y="-199" font-family="Helvetica,sans-Serif" font-size="10.00">StubHourlySlices</text>
</a>
</g>
</g>
<!-- Node17&#45;&gt;Node19 -->
<g id="edge24_Node000017_Node000019" class="edge">
<title>Node17&#45;&gt;Node19</title>
<g id="a_edge24_Node000017_Node000019"><a xlink:title=" ">
<path fill="none" stroke="#63b8ff" d="M376,-237.83C400.41,-232.66 427.01,-227.02 450.71,-222"/>
<polygon fill="#63b8ff" stroke="#63b8ff" points="375.1,-234.45 366.04,-239.94 376.55,-241.29 375.1,-234.45"/>
</a>
</g>
</g>
<!-- Node25 -->
<g id="Node000025" class="node">
<title>Node25</title>
<g id="a_Node000025"><a xlink:href="classcom_1_1teragrep_1_1pth__06_1_1planner_1_1BatchSizeLimitedResults.html" target="_top" xlink:title=" ">
<polygon fill="white" stroke="#666666" points="602.5,-174 442.5,-174 442.5,-144 602.5,-144 602.5,-174"/>
<text text-anchor="start" x="450.5" y="-162" font-family="Helvetica,sans-Serif" font-size="10.00">com.teragrep.pth_06.planner.</text>
<text text-anchor="middle" x="522.5" y="-151" font-family="Helvetica,sans-Serif" font-size="10.00">BatchSizeLimitedResults</text>
</a>
</g>
</g>
<!-- Node24&#45;&gt;Node25 -->
<g id="edge27_Node000024_Node000025" class="edge">
<title>Node24&#45;&gt;Node25</title>
<g id="a_edge27_Node000024_Node000025"><a xlink:title=" ">
<path fill="none" stroke="#63b8ff" d="M384.42,-159C403.55,-159 423.62,-159 442.33,-159"/>
<polygon fill="#63b8ff" stroke="#63b8ff" points="384.22,-155.5 374.22,-159 384.22,-162.5 384.22,-155.5"/>
</a>
</g>
</g>
<!-- Node26 -->
<g id="Node000026" class="node">
<title>Node26</title>
<g id="a_Node000026"><a xlink:href="classcom_1_1teragrep_1_1pth__06_1_1planner_1_1StubLimitedResults.html" target="_top" xlink:title=" ">
<polygon fill="white" stroke="#666666" points="602.5,-126 442.5,-126 442.5,-96 602.5,-96 602.5,-126"/>
<text text-anchor="start" x="450.5" y="-114" font-family="Helvetica,sans-Serif" font-size="10.00">com.teragrep.pth_06.planner.</text>
<text text-anchor="middle" x="522.5" y="-103" font-family="Helvetica,sans-Serif" font-size="10.00">StubLimitedResults</text>
</a>
</g>
</g>
<!-- Node24&#45;&gt;Node26 -->
<g id="edge28_Node000024_Node000026" class="edge">
<title>Node24&#45;&gt;Node26</title>
<g id="a_edge28_Node000024_Node000026"><a xlink:title=" ">
<path fill="none" stroke="#63b8ff" d="M376,-141.83C400.41,-136.66 427.01,-131.02 450.71,-126"/>
<polygon fill="#63b8ff" stroke="#63b8ff" points="375.1,-138.45 366.04,-143.94 376.55,-145.29 375.1,-138.45"/>
</a>
</g>
</g>
<!-- Node28 -->
<g id="Node000028" class="node">
<title>Node28</title>
<g id="a_Node000028"><a xlink:href="classcom_1_1teragrep_1_1pth__06_1_1planner_1_1state_1_1QueryStateImpl.html" target="_top" xlink:title=" ">
<polygon fill="white" stroke="#666666" points="616.5,-78 428.5,-78 428.5,-48 616.5,-48 616.5,-78"/>
<text text-anchor="start" x="436.5" y="-66" font-family="Helvetica,sans-Serif" font-size="10.00">com.teragrep.pth_06.planner.state.</text>
<text text-anchor="middle" x="522.5" y="-55" font-family="Helvetica,sans-Serif" font-size="10.00">QueryStateImpl</text>
</a>
</g>
</g>
<!-- Node27&#45;&gt;Node28 -->
<g id="edge30_Node000027_Node000028" class="edge">
<title>Node27&#45;&gt;Node28</title>
<g id="a_edge30_Node000027_Node000028"><a xlink:title=" ">
<path fill="none" stroke="#63b8ff" d="M398.14,-63C408.22,-63 418.41,-63 428.39,-63"/>
<polygon fill="#63b8ff" stroke="#63b8ff" points="398.11,-59.5 388.11,-63 398.11,-66.5 398.11,-59.5"/>
</a>
</g>
</g>
<!-- Node29 -->
<g id="Node000029" class="node">
<title>Node29</title>
<g id="a_Node000029"><a xlink:href="classcom_1_1teragrep_1_1pth__06_1_1planner_1_1state_1_1StubQueryState.html" target="_top" xlink:title=" ">
<polygon fill="white" stroke="#666666" points="616.5,-30 428.5,-30 428.5,0 616.5,0 616.5,-30"/>
<text text-anchor="start" x="436.5" y="-18" font-family="Helvetica,sans-Serif" font-size="10.00">com.teragrep.pth_06.planner.state.</text>
<text text-anchor="middle" x="522.5" y="-7" font-family="Helvetica,sans-Serif" font-size="10.00">StubQueryState</text>
</a>
</g>
</g>
<!-- Node27&#45;&gt;Node29 -->
<g id="edge31_Node000027_Node000029" class="edge">
<title>Node27&#45;&gt;Node29</title>
<g id="a_edge31_Node000027_Node000029"><a xlink:title=" ">
<path fill="none" stroke="#63b8ff" d="M376,-45.83C400.41,-40.66 427.01,-35.02 450.71,-30"/>
<polygon fill="#63b8ff" stroke="#63b8ff" points="375.1,-42.45 366.04,-47.94 376.55,-49.29 375.1,-42.45"/>
</a>
</g>
</g>
</g>
</svg>
