<?xml version="1.0" encoding="UTF-8" standalone="no"?>
<!DOCTYPE svg PUBLIC "-//W3C//DTD SVG 1.1//EN"
 "http://www.w3.org/Graphics/SVG/1.1/DTD/svg11.dtd">
<!-- Generated by graphviz version 2.43.0 (0)
 -->
<!-- Title: Graphical Class Hierarchy Pages: 1 -->
<svg width="519pt" height="158pt"
 viewBox="0.00 0.00 519.00 158.00" xmlns="http://www.w3.org/2000/svg" xmlns:xlink="http://www.w3.org/1999/xlink">
<g id="graph0" class="graph" transform="scale(1 1) rotate(0) translate(4 154)">
<title>Graphical Class Hierarchy</title>
<!-- Node0 -->
<g id="Node000000" class="node">
<title>Node0</title>
<g id="a_Node000000"><a xlink:href="interfacecom_1_1teragrep_1_1pth__06_1_1ast_1_1Expression.html" target="_top" xlink:title=" ">
<polygon fill="white" stroke="#666666" points="139,-102 0,-102 0,-72 139,-72 139,-102"/>
<text text-anchor="start" x="8" y="-90" font-family="Helvetica,sans-Serif" font-size="10.00">com.teragrep.pth_06.ast.</text>
<text text-anchor="middle" x="69.5" y="-79" font-family="Helvetica,sans-Serif" font-size="10.00">Expression</text>
</a>
</g>
</g>
<!-- Node1 -->
<g id="Node000001" class="node">
<title>Node1</title>
<g id="a_Node000001"><a xlink:href="classcom_1_1teragrep_1_1pth__06_1_1ast_1_1EmptyExpression.html" target="_top" xlink:title=" ">
<polygon fill="white" stroke="#666666" points="314,-150 175,-150 175,-120 314,-120 314,-150"/>
<text text-anchor="start" x="183" y="-138" font-family="Helvetica,sans-Serif" font-size="10.00">com.teragrep.pth_06.ast.</text>
<text text-anchor="middle" x="244.5" y="-127" font-family="Helvetica,sans-Serif" font-size="10.00">EmptyExpression</text>
</a>
</g>
</g>
<!-- Node0&#45;&gt;Node1 -->
<g id="edge26_Node000000_Node000001" class="edge">
<title>Node0&#45;&gt;Node1</title>
<g id="a_edge26_Node000000_Node000001"><a xlink:title=" ">
<path fill="none" stroke="#63b8ff" d="M134.61,-104.79C152.64,-109.79 172.05,-115.18 189.43,-120"/>
<polygon fill="#63b8ff" stroke="#63b8ff" points="135.34,-101.36 124.76,-102.06 133.46,-108.1 135.34,-101.36"/>
</a>
</g>
</g>
<!-- Node2 -->
<g id="Node000002" class="node">
<title>Node2</title>
<g id="a_Node000002"><a xlink:href="interfacecom_1_1teragrep_1_1pth__06_1_1ast_1_1LeafExpression.html" target="_top" xlink:title=" ">
<polygon fill="white" stroke="#666666" points="314,-102 175,-102 175,-72 314,-72 314,-102"/>
<text text-anchor="start" x="183" y="-90" font-family="Helvetica,sans-Serif" font-size="10.00">com.teragrep.pth_06.ast.</text>
<text text-anchor="middle" x="244.5" y="-79" font-family="Helvetica,sans-Serif" font-size="10.00">LeafExpression&lt; T &gt;</text>
</a>
</g>
</g>
<!-- Node0&#45;&gt;Node2 -->
<g id="edge27_Node000000_Node000002" class="edge">
<title>Node0&#45;&gt;Node2</title>
<g id="a_edge27_Node000000_Node000002"><a xlink:title=" ">
<path fill="none" stroke="#63b8ff" d="M149.59,-87C158.03,-87 166.56,-87 174.87,-87"/>
<polygon fill="#63b8ff" stroke="#63b8ff" points="149.37,-83.5 139.37,-87 149.37,-90.5 149.37,-83.5"/>
</a>
</g>
</g>
<!-- Node3 -->
<g id="Node000003" class="node">
<title>Node3</title>
<g id="a_Node000003"><a xlink:href="interfacecom_1_1teragrep_1_1pth__06_1_1ast_1_1LogicalExpression.html" target="_top" xlink:title=" ">
<polygon fill="white" stroke="#666666" points="314,-54 175,-54 175,-24 314,-24 314,-54"/>
<text text-anchor="start" x="183" y="-42" font-family="Helvetica,sans-Serif" font-size="10.00">com.teragrep.pth_06.ast.</text>
<text text-anchor="middle" x="244.5" y="-31" font-family="Helvetica,sans-Serif" font-size="10.00">LogicalExpression</text>
</a>
</g>
</g>
<!-- Node0&#45;&gt;Node3 -->
<g id="edge28_Node000000_Node000003" class="edge">
<title>Node0&#45;&gt;Node3</title>
<g id="a_edge28_Node000000_Node000003"><a xlink:title=" ">
<path fill="none" stroke="#63b8ff" d="M134.61,-69.21C152.64,-64.21 172.05,-58.82 189.43,-54"/>
<polygon fill="#63b8ff" stroke="#63b8ff" points="133.46,-65.9 124.76,-71.94 135.34,-72.64 133.46,-65.9"/>
</a>
</g>
</g>
<!-- Node4 -->
<g id="Node000004" class="node">
<title>Node4</title>
<g id="a_Node000004"><a xlink:href="classcom_1_1teragrep_1_1pth__06_1_1ast_1_1xml_1_1AndExpression.html" target="_top" xlink:title=" ">
<polygon fill="white" stroke="#666666" points="511,-78 350,-78 350,-48 511,-48 511,-78"/>
<text text-anchor="start" x="358" y="-66" font-family="Helvetica,sans-Serif" font-size="10.00">com.teragrep.pth_06.ast.xml.</text>
<text text-anchor="middle" x="430.5" y="-55" font-family="Helvetica,sans-Serif" font-size="10.00">AndExpression</text>
</a>
</g>
</g>
<!-- Node3&#45;&gt;Node4 -->
<g id="edge29_Node000003_Node000004" class="edge">
<title>Node3&#45;&gt;Node4</title>
<g id="a_edge29_Node000003_Node000004"><a xlink:title=" ">
<path fill="none" stroke="#63b8ff" d="M323.95,-49.23C332.5,-50.35 341.2,-51.48 349.76,-52.6"/>
<polygon fill="#63b8ff" stroke="#63b8ff" points="324.38,-45.76 314.01,-47.94 323.48,-52.7 324.38,-45.76"/>
</a>
</g>
</g>
<!-- Node5 -->
<g id="Node000005" class="node">
<title>Node5</title>
<g id="a_Node000005"><a xlink:href="classcom_1_1teragrep_1_1pth__06_1_1ast_1_1xml_1_1OrExpression.html" target="_top" xlink:title=" ">
<polygon fill="white" stroke="#666666" points="511,-30 350,-30 350,0 511,0 511,-30"/>
<text text-anchor="start" x="358" y="-18" font-family="Helvetica,sans-Serif" font-size="10.00">com.teragrep.pth_06.ast.xml.</text>
<text text-anchor="middle" x="430.5" y="-7" font-family="Helvetica,sans-Serif" font-size="10.00">OrExpression</text>
</a>
</g>
</g>
<!-- Node3&#45;&gt;Node5 -->
<g id="edge30_Node000003_Node000005" class="edge">
<title>Node3&#45;&gt;Node5</title>
<g id="a_edge30_Node000003_Node000005"><a xlink:title=" ">
<path fill="none" stroke="#63b8ff" d="M323.95,-28.77C332.5,-27.65 341.2,-26.52 349.76,-25.4"/>
<polygon fill="#63b8ff" stroke="#63b8ff" points="323.48,-25.3 314.01,-30.06 324.38,-32.24 323.48,-25.3"/>
</a>
</g>
</g>
</g>
</svg>
