<?xml version="1.0" encoding="UTF-8" standalone="no"?>
<!DOCTYPE svg PUBLIC "-//W3C//DTD SVG 1.1//EN"
 "http://www.w3.org/Graphics/SVG/1.1/DTD/svg11.dtd">
<!-- Generated by graphviz version 2.43.0 (0)
 -->
<!-- Title: Graphical Class Hierarchy Pages: 1 -->
<svg width="424pt" height="326pt"
 viewBox="0.00 0.00 424.00 326.00" xmlns="http://www.w3.org/2000/svg" xmlns:xlink="http://www.w3.org/1999/xlink">
<g id="graph0" class="graph" transform="scale(1 1) rotate(0) translate(4 322)">
<title>Graphical Class Hierarchy</title>
<!-- Node0 -->
<g id="Node000000" class="node">
<title>Node0</title>
<g id="a_Node000000"><a xlink:href="interfacecom_1_1teragrep_1_1pth__06_1_1ast_1_1transform_1_1ExpressionTransformation.html" target="_top" xlink:title=" ">
<polygon fill="white" stroke="#666666" points="190,-174 0,-174 0,-144 190,-144 190,-174"/>
<text text-anchor="start" x="8" y="-162" font-family="Helvetica,sans-Serif" font-size="10.00">com.teragrep.pth_06.ast.transform.</text>
<text text-anchor="middle" x="95" y="-151" font-family="Helvetica,sans-Serif" font-size="10.00">ExpressionTransformation</text>
</a>
</g>
</g>
<!-- Node1 -->
<g id="Node000001" class="node">
<title>Node1</title>
<g id="a_Node000001"><a xlink:href="classcom_1_1teragrep_1_1pth__06_1_1ast_1_1transform_1_1EmptyPruned.html" target="_top" xlink:title="Optimizes AND/OR expressions with empty values into value expressions.">
<polygon fill="white" stroke="#666666" points="416,-318 226,-318 226,-288 416,-288 416,-318"/>
<text text-anchor="start" x="234" y="-306" font-family="Helvetica,sans-Serif" font-size="10.00">com.teragrep.pth_06.ast.transform.</text>
<text text-anchor="middle" x="321" y="-295" font-family="Helvetica,sans-Serif" font-size="10.00">EmptyPruned</text>
</a>
</g>
</g>
<!-- Node0&#45;&gt;Node1 -->
<g id="edge38_Node000000_Node000001" class="edge">
<title>Node0&#45;&gt;Node1</title>
<g id="a_edge38_Node000000_Node000001"><a xlink:title=" ">
<path fill="none" stroke="#63b8ff" d="M114.47,-181.91C137.66,-209.14 180.02,-254.02 226,-279 232.36,-282.46 239.24,-285.43 246.28,-287.98"/>
<polygon fill="#63b8ff" stroke="#63b8ff" points="117.01,-179.49 107.9,-174.07 111.64,-183.98 117.01,-179.49"/>
</a>
</g>
</g>
<!-- Node2 -->
<g id="Node000002" class="node">
<title>Node2</title>
<g id="a_Node000002"><a xlink:href="classcom_1_1teragrep_1_1pth__06_1_1ast_1_1transform_1_1FlattenLogical.html" target="_top" xlink:title=" ">
<polygon fill="white" stroke="#666666" points="416,-270 226,-270 226,-240 416,-240 416,-270"/>
<text text-anchor="start" x="234" y="-258" font-family="Helvetica,sans-Serif" font-size="10.00">com.teragrep.pth_06.ast.transform.</text>
<text text-anchor="middle" x="321" y="-247" font-family="Helvetica,sans-Serif" font-size="10.00">FlattenLogical</text>
</a>
</g>
</g>
<!-- Node0&#45;&gt;Node2 -->
<g id="edge39_Node000000_Node000002" class="edge">
<title>Node0&#45;&gt;Node2</title>
<g id="a_edge39_Node000000_Node000002"><a xlink:title=" ">
<path fill="none" stroke="#63b8ff" d="M127.62,-179.53C153.27,-195.43 190.82,-217.04 226,-231 234.38,-234.32 243.36,-237.31 252.32,-239.95"/>
<polygon fill="#63b8ff" stroke="#63b8ff" points="129.4,-176.51 119.06,-174.16 125.68,-182.44 129.4,-176.51"/>
</a>
</g>
</g>
<!-- Node3 -->
<g id="Node000003" class="node">
<title>Node3</title>
<g id="a_Node000003"><a xlink:href="classcom_1_1teragrep_1_1pth__06_1_1ast_1_1transform_1_1IdentitySimplification.html" target="_top" xlink:title="Simplify logical to value expression: AND(value) &#45;&gt; value.">
<polygon fill="white" stroke="#666666" points="416,-222 226,-222 226,-192 416,-192 416,-222"/>
<text text-anchor="start" x="234" y="-210" font-family="Helvetica,sans-Serif" font-size="10.00">com.teragrep.pth_06.ast.transform.</text>
<text text-anchor="middle" x="321" y="-199" font-family="Helvetica,sans-Serif" font-size="10.00">IdentitySimplification</text>
</a>
</g>
</g>
<!-- Node0&#45;&gt;Node3 -->
<g id="edge40_Node000000_Node000003" class="edge">
<title>Node0&#45;&gt;Node3</title>
<g id="a_edge40_Node000000_Node000003"><a xlink:title=" ">
<path fill="none" stroke="#63b8ff" d="M176.1,-176.17C200.25,-181.34 226.55,-186.98 249.99,-192"/>
<polygon fill="#63b8ff" stroke="#63b8ff" points="176.77,-172.73 166.26,-174.06 175.31,-179.57 176.77,-172.73"/>
</a>
</g>
</g>
<!-- Node4 -->
<g id="Node000004" class="node">
<title>Node4</title>
<g id="a_Node000004"><a xlink:href="classcom_1_1teragrep_1_1pth__06_1_1ast_1_1transform_1_1OptimizedAST.html" target="_top" xlink:title=" ">
<polygon fill="white" stroke="#666666" points="416,-174 226,-174 226,-144 416,-144 416,-174"/>
<text text-anchor="start" x="234" y="-162" font-family="Helvetica,sans-Serif" font-size="10.00">com.teragrep.pth_06.ast.transform.</text>
<text text-anchor="middle" x="321" y="-151" font-family="Helvetica,sans-Serif" font-size="10.00">OptimizedAST</text>
</a>
</g>
</g>
<!-- Node0&#45;&gt;Node4 -->
<g id="edge41_Node000000_Node000004" class="edge">
<title>Node0&#45;&gt;Node4</title>
<g id="a_edge41_Node000000_Node000004"><a xlink:title=" ">
<path fill="none" stroke="#63b8ff" d="M200.08,-159C208.68,-159 217.34,-159 225.86,-159"/>
<polygon fill="#63b8ff" stroke="#63b8ff" points="200.02,-155.5 190.02,-159 200.02,-162.5 200.02,-155.5"/>
</a>
</g>
</g>
<!-- Node5 -->
<g id="Node000005" class="node">
<title>Node5</title>
<g id="a_Node000005"><a xlink:href="classcom_1_1teragrep_1_1pth__06_1_1ast_1_1transform_1_1PrunedInvalidTimeQualifier.html" target="_top" xlink:title=" ">
<polygon fill="white" stroke="#666666" points="416,-126 226,-126 226,-96 416,-96 416,-126"/>
<text text-anchor="start" x="234" y="-114" font-family="Helvetica,sans-Serif" font-size="10.00">com.teragrep.pth_06.ast.transform.</text>
<text text-anchor="middle" x="321" y="-103" font-family="Helvetica,sans-Serif" font-size="10.00">PrunedInvalidTimeQualifier</text>
</a>
</g>
</g>
<!-- Node0&#45;&gt;Node5 -->
<g id="edge42_Node000000_Node000005" class="edge">
<title>Node0&#45;&gt;Node5</title>
<g id="a_edge42_Node000000_Node000005"><a xlink:title=" ">
<path fill="none" stroke="#63b8ff" d="M176.1,-141.83C200.25,-136.66 226.55,-131.02 249.99,-126"/>
<polygon fill="#63b8ff" stroke="#63b8ff" points="175.31,-138.43 166.26,-143.94 176.77,-145.27 175.31,-138.43"/>
</a>
</g>
</g>
<!-- Node6 -->
<g id="Node000006" class="node">
<title>Node6</title>
<g id="a_Node000006"><a xlink:href="classcom_1_1teragrep_1_1pth__06_1_1ast_1_1transform_1_1UniqueChildren.html" target="_top" xlink:title="Prunes duplicate children from a AND/OR expression.">
<polygon fill="white" stroke="#666666" points="416,-78 226,-78 226,-48 416,-48 416,-78"/>
<text text-anchor="start" x="234" y="-66" font-family="Helvetica,sans-Serif" font-size="10.00">com.teragrep.pth_06.ast.transform.</text>
<text text-anchor="middle" x="321" y="-55" font-family="Helvetica,sans-Serif" font-size="10.00">UniqueChildren</text>
</a>
</g>
</g>
<!-- Node0&#45;&gt;Node6 -->
<g id="edge43_Node000000_Node000006" class="edge">
<title>Node0&#45;&gt;Node6</title>
<g id="a_edge43_Node000000_Node000006"><a xlink:title=" ">
<path fill="none" stroke="#63b8ff" d="M127.62,-138.47C153.27,-122.57 190.82,-100.96 226,-87 234.38,-83.68 243.36,-80.69 252.32,-78.05"/>
<polygon fill="#63b8ff" stroke="#63b8ff" points="125.68,-135.56 119.06,-143.84 129.4,-141.49 125.68,-135.56"/>
</a>
</g>
</g>
<!-- Node7 -->
<g id="Node000007" class="node">
<title>Node7</title>
<g id="a_Node000007"><a xlink:href="classcom_1_1teragrep_1_1pth__06_1_1ast_1_1transform_1_1WithDefaultValues.html" target="_top" xlink:title=" ">
<polygon fill="white" stroke="#666666" points="416,-30 226,-30 226,0 416,0 416,-30"/>
<text text-anchor="start" x="234" y="-18" font-family="Helvetica,sans-Serif" font-size="10.00">com.teragrep.pth_06.ast.transform.</text>
<text text-anchor="middle" x="321" y="-7" font-family="Helvetica,sans-Serif" font-size="10.00">WithDefaultValues</text>
</a>
</g>
</g>
<!-- Node0&#45;&gt;Node7 -->
<g id="edge44_Node000000_Node000007" class="edge">
<title>Node0&#45;&gt;Node7</title>
<g id="a_edge44_Node000000_Node000007"><a xlink:title=" ">
<path fill="none" stroke="#63b8ff" d="M114.47,-136.09C137.66,-108.86 180.02,-63.98 226,-39 232.36,-35.54 239.24,-32.57 246.28,-30.02"/>
<polygon fill="#63b8ff" stroke="#63b8ff" points="111.64,-134.02 107.9,-143.93 117.01,-138.51 111.64,-134.02"/>
</a>
</g>
</g>
</g>
</svg>
