<?xml version="1.0" encoding="UTF-8" standalone="no"?>
<!DOCTYPE svg PUBLIC "-//W3C//DTD SVG 1.1//EN"
 "http://www.w3.org/Graphics/SVG/1.1/DTD/svg11.dtd">
<!-- Generated by graphviz version 2.43.0 (0)
 -->
<!-- Title: com.teragrep.pth_06.planner.factory.Factory.object Pages: 1 -->
<svg width="479pt" height="194pt"
 viewBox="0.00 0.00 479.00 194.00" xmlns="http://www.w3.org/2000/svg" xmlns:xlink="http://www.w3.org/1999/xlink">
<g id="graph0" class="graph" transform="scale(1 1) rotate(0) translate(4 190)">
<title>com.teragrep.pth_06.planner.factory.Factory.object</title>
<!-- Node1 -->
<g id="Node000001" class="node">
<title>Node1</title>
<g id="a_Node000001"><a xlink:title=" ">
<polygon fill="#999999" stroke="#666666" points="471,-111 275,-111 275,-81 471,-81 471,-111"/>
<text text-anchor="start" x="283" y="-99" font-family="Helvetica,sans-Serif" font-size="10.00">com.teragrep.pth_06.planner.factory.</text>
<text text-anchor="middle" x="373" y="-88" font-family="Helvetica,sans-Serif" font-size="10.00">Factory.object</text>
</a>
</g>
</g>
<!-- Node2 -->
<g id="Node000002" class="node">
<title>Node2</title>
<g id="a_Node000002"><a xlink:href="classcom_1_1teragrep_1_1pth__06_1_1planner_1_1factory_1_1ArchiveQueryFactoryTest.html#af3e29e0f05440d8570c8173ce51eae85" target="_top" xlink:title=" ">
<polygon fill="white" stroke="#666666" points="239,-186 0,-186 0,-156 239,-156 239,-186"/>
<text text-anchor="start" x="8" y="-174" font-family="Helvetica,sans-Serif" font-size="10.00">com.teragrep.pth_06.planner.factory.</text>
<text text-anchor="middle" x="119.5" y="-163" font-family="Helvetica,sans-Serif" font-size="10.00">ArchiveQueryFactoryTest.testArchiveDisabled</text>
</a>
</g>
</g>
<!-- Node1&#45;&gt;Node2 -->
<g id="edge1_Node000001_Node000002" class="edge">
<title>Node1&#45;&gt;Node2</title>
<g id="a_edge1_Node000001_Node000002"><a xlink:title=" ">
<path fill="none" stroke="#63b8ff" d="M328.11,-114.95C302.48,-125.47 269.32,-138.18 239,-147 227.71,-150.28 215.69,-153.28 203.8,-155.95"/>
<polygon fill="#63b8ff" stroke="#63b8ff" points="329.64,-118.1 337.54,-111.03 326.96,-111.63 329.64,-118.1"/>
</a>
</g>
</g>
<!-- Node3 -->
<g id="Node000003" class="node">
<title>Node3</title>
<g id="a_Node000003"><a xlink:href="classcom_1_1teragrep_1_1pth__06_1_1planner_1_1factory_1_1HBaseQueryFactoryTest.html#accb981fefc6d7891c89815cd93dd6d41" target="_top" xlink:title=" ">
<polygon fill="white" stroke="#666666" points="236,-138 3,-138 3,-108 236,-108 236,-138"/>
<text text-anchor="start" x="11" y="-126" font-family="Helvetica,sans-Serif" font-size="10.00">com.teragrep.pth_06.planner.factory.</text>
<text text-anchor="middle" x="119.5" y="-115" font-family="Helvetica,sans-Serif" font-size="10.00">HBaseQueryFactoryTest.testArchiveDisabled</text>
</a>
</g>
</g>
<!-- Node1&#45;&gt;Node3 -->
<g id="edge2_Node000001_Node000003" class="edge">
<title>Node1&#45;&gt;Node3</title>
<g id="a_edge2_Node000001_Node000003"><a xlink:title=" ">
<path fill="none" stroke="#63b8ff" d="M264.67,-107.52C255.3,-108.53 245.79,-109.55 236.36,-110.56"/>
<polygon fill="#63b8ff" stroke="#63b8ff" points="265.19,-110.99 274.76,-106.44 264.45,-104.03 265.19,-110.99"/>
</a>
</g>
</g>
<!-- Node4 -->
<g id="Node000004" class="node">
<title>Node4</title>
<g id="a_Node000004"><a xlink:href="classcom_1_1teragrep_1_1pth__06_1_1planner_1_1factory_1_1ArchiveQueryFactoryTest.html#ac8c44578cea9b7e3c2f3df29f1cbdea9" target="_top" xlink:title=" ">
<polygon fill="white" stroke="#666666" points="239,-89.5 0,-89.5 0,-48.5 239,-48.5 239,-89.5"/>
<text text-anchor="start" x="8" y="-77.5" font-family="Helvetica,sans-Serif" font-size="10.00">com.teragrep.pth_06.planner.factory.</text>
<text text-anchor="start" x="8" y="-66.5" font-family="Helvetica,sans-Serif" font-size="10.00">ArchiveQueryFactoryTest.testArchiveDisabled</text>
<text text-anchor="middle" x="119.5" y="-55.5" font-family="Helvetica,sans-Serif" font-size="10.00">WhenHbaseIsEnabled</text>
</a>
</g>
</g>
<!-- Node1&#45;&gt;Node4 -->
<g id="edge3_Node000001_Node000004" class="edge">
<title>Node1&#45;&gt;Node4</title>
<g id="a_edge3_Node000001_Node000004"><a xlink:title=" ">
<path fill="none" stroke="#63b8ff" d="M264.62,-84.47C256.25,-83.57 247.77,-82.66 239.33,-81.76"/>
<polygon fill="#63b8ff" stroke="#63b8ff" points="264.45,-87.97 274.76,-85.56 265.19,-81.01 264.45,-87.97"/>
</a>
</g>
</g>
<!-- Node5 -->
<g id="Node000005" class="node">
<title>Node5</title>
<g id="a_Node000005"><a xlink:href="classcom_1_1teragrep_1_1pth__06_1_1planner_1_1factory_1_1HBaseQueryFactoryTest.html#a157a28dda969a12f015a663d0783ad34" target="_top" xlink:title=" ">
<polygon fill="white" stroke="#666666" points="231.5,-30 7.5,-30 7.5,0 231.5,0 231.5,-30"/>
<text text-anchor="start" x="15.5" y="-18" font-family="Helvetica,sans-Serif" font-size="10.00">com.teragrep.pth_06.planner.factory.</text>
<text text-anchor="middle" x="119.5" y="-7" font-family="Helvetica,sans-Serif" font-size="10.00">HBaseQueryFactoryTest.testHBaseEnabled</text>
</a>
</g>
</g>
<!-- Node1&#45;&gt;Node5 -->
<g id="edge4_Node000001_Node000005" class="edge">
<title>Node1&#45;&gt;Node5</title>
<g id="a_edge4_Node000001_Node000005"><a xlink:title=" ">
<path fill="none" stroke="#63b8ff" d="M331.77,-76.69C305.77,-64.81 270.94,-49.99 239,-40 227.16,-36.3 214.48,-32.97 201.99,-30.05"/>
<polygon fill="#63b8ff" stroke="#63b8ff" points="330.38,-79.9 340.92,-80.92 333.31,-73.55 330.38,-79.9"/>
</a>
</g>
</g>
</g>
</svg>
