<?xml version="1.0" encoding="UTF-8" standalone="no"?>
<!DOCTYPE svg PUBLIC "-//W3C//DTD SVG 1.1//EN"
 "http://www.w3.org/Graphics/SVG/1.1/DTD/svg11.dtd">
<!-- Generated by graphviz version 2.43.0 (0)
 -->
<!-- Title: com.teragrep.pth_06.planner.HourlySlices.hasNext Pages: 1 -->
<svg width="392pt" height="86pt"
 viewBox="0.00 0.00 392.00 86.00" xmlns="http://www.w3.org/2000/svg" xmlns:xlink="http://www.w3.org/1999/xlink">
<g id="graph0" class="graph" transform="scale(1 1) rotate(0) translate(4 82)">
<title>com.teragrep.pth_06.planner.HourlySlices.hasNext</title>
<!-- Node1 -->
<g id="Node000001" class="node">
<title>Node1</title>
<g id="a_Node000001"><a xlink:title=" ">
<polygon fill="#999999" stroke="#666666" points="384,-54 224,-54 224,-24 384,-24 384,-54"/>
<text text-anchor="start" x="232" y="-42" font-family="Helvetica,sans-Serif" font-size="10.00">com.teragrep.pth_06.planner.</text>
<text text-anchor="middle" x="304" y="-31" font-family="Helvetica,sans-Serif" font-size="10.00">HourlySlices.hasNext</text>
</a>
</g>
</g>
<!-- Node2 -->
<g id="Node000002" class="node">
<title>Node2</title>
<g id="a_Node000002"><a xlink:href="classcom_1_1teragrep_1_1pth__06_1_1planner_1_1state_1_1QueryStateImpl.html#a3ae74e2cdb689ad0f9e2318fbd94e1b9" target="_top" xlink:title=" ">
<polygon fill="white" stroke="#666666" points="188,-78 0,-78 0,-48 188,-48 188,-78"/>
<text text-anchor="start" x="8" y="-66" font-family="Helvetica,sans-Serif" font-size="10.00">com.teragrep.pth_06.planner.state.</text>
<text text-anchor="middle" x="94" y="-55" font-family="Helvetica,sans-Serif" font-size="10.00">QueryStateImpl.next</text>
</a>
</g>
</g>
<!-- Node1&#45;&gt;Node2 -->
<g id="edge1_Node000001_Node000002" class="edge">
<title>Node1&#45;&gt;Node2</title>
<g id="a_edge1_Node000001_Node000002"><a xlink:title=" ">
<path fill="none" stroke="#63b8ff" d="M213.62,-49.31C205.24,-50.28 196.72,-51.26 188.3,-52.23"/>
<polygon fill="#63b8ff" stroke="#63b8ff" points="214.24,-52.77 223.77,-48.14 213.44,-45.81 214.24,-52.77"/>
</a>
</g>
</g>
<!-- Node3 -->
<g id="Node000003" class="node">
<title>Node3</title>
<g id="a_Node000003"><a xlink:href="classcom_1_1teragrep_1_1pth__06_1_1planner_1_1BatchSizeLimitedResults.html#ae00e5b05a1d9b84bd282a2ba0ae4fa4f" target="_top" xlink:title=" ">
<polygon fill="white" stroke="#666666" points="180.5,-30 7.5,-30 7.5,0 180.5,0 180.5,-30"/>
<text text-anchor="start" x="15.5" y="-18" font-family="Helvetica,sans-Serif" font-size="10.00">com.teragrep.pth_06.planner.</text>
<text text-anchor="middle" x="94" y="-7" font-family="Helvetica,sans-Serif" font-size="10.00">BatchSizeLimitedResults.results</text>
</a>
</g>
</g>
<!-- Node1&#45;&gt;Node3 -->
<g id="edge2_Node000001_Node000003" class="edge">
<title>Node1&#45;&gt;Node3</title>
<g id="a_edge2_Node000001_Node000003"><a xlink:title=" ">
<path fill="none" stroke="#63b8ff" d="M213.75,-28.7C202.75,-27.43 191.53,-26.14 180.59,-24.88"/>
<polygon fill="#63b8ff" stroke="#63b8ff" points="213.44,-32.19 223.77,-29.86 214.24,-25.23 213.44,-32.19"/>
</a>
</g>
</g>
</g>
</svg>
