<?xml version="1.0" encoding="UTF-8" standalone="no"?>
<!DOCTYPE svg PUBLIC "-//W3C//DTD SVG 1.1//EN"
 "http://www.w3.org/Graphics/SVG/1.1/DTD/svg11.dtd">
<!-- Generated by graphviz version 2.43.0 (0)
 -->
<!-- Title: com.teragrep.pth_06.ast.analyze.ScanRange.earliest Pages: 1 -->
<svg width="647pt" height="465pt"
 viewBox="0.00 0.00 647.00 464.72" xmlns="http://www.w3.org/2000/svg" xmlns:xlink="http://www.w3.org/1999/xlink">
<g id="graph0" class="graph" transform="scale(1 1) rotate(0) translate(4 460.72)">
<title>com.teragrep.pth_06.ast.analyze.ScanRange.earliest</title>
<!-- Node1 -->
<g id="Node000001" class="node">
<title>Node1</title>
<g id="a_Node000001"><a xlink:title=" ">
<polygon fill="#999999" stroke="#666666" points="639,-266.5 459,-266.5 459,-236.5 639,-236.5 639,-266.5"/>
<text text-anchor="start" x="467" y="-254.5" font-family="Helvetica,sans-Serif" font-size="10.00">com.teragrep.pth_06.ast.analyze.</text>
<text text-anchor="middle" x="549" y="-243.5" font-family="Helvetica,sans-Serif" font-size="10.00">ScanRange.earliest</text>
</a>
</g>
</g>
<!-- Node2 -->
<g id="Node000002" class="node">
<title>Node2</title>
<g id="a_Node000002"><a xlink:href="classcom_1_1teragrep_1_1pth__06_1_1ast_1_1analyze_1_1ScanRangeImpl.html#a80d3f9ee0442f83f46b6808062752f2d" target="_top" xlink:title="Returns true if the ranges overlap or touch.">
<polygon fill="white" stroke="#666666" points="409.5,-410.5 229.5,-410.5 229.5,-380.5 409.5,-380.5 409.5,-410.5"/>
<text text-anchor="start" x="237.5" y="-398.5" font-family="Helvetica,sans-Serif" font-size="10.00">com.teragrep.pth_06.ast.analyze.</text>
<text text-anchor="middle" x="319.5" y="-387.5" font-family="Helvetica,sans-Serif" font-size="10.00">ScanRangeImpl.intersects</text>
</a>
</g>
</g>
<!-- Node1&#45;&gt;Node2 -->
<g id="edge1_Node000001_Node000002" class="edge">
<title>Node1&#45;&gt;Node2</title>
<g id="a_edge1_Node000001_Node000002"><a xlink:title=" ">
<path fill="none" stroke="#63b8ff" d="M530.52,-274.58C508.5,-301.99 468.04,-347.04 423,-371.5 416.66,-374.95 409.83,-377.9 402.82,-380.43"/>
<polygon fill="#63b8ff" stroke="#63b8ff" points="533.3,-276.71 536.75,-266.69 527.81,-272.37 533.3,-276.71"/>
</a>
</g>
</g>
<!-- Node3 -->
<g id="Node000003" class="node">
<title>Node3</title>
<g id="a_Node000003"><a xlink:href="classcom_1_1teragrep_1_1pth__06_1_1ast_1_1analyze_1_1ScanRangeImpl.html#ae243f899270ab01481eb522dc1eda3ae" target="_top" xlink:title="Merge two ScanRanges with the smaller earliest and larger latest values.">
<polygon fill="white" stroke="#666666" points="180,-453.5 0,-453.5 0,-423.5 180,-423.5 180,-453.5"/>
<text text-anchor="start" x="8" y="-441.5" font-family="Helvetica,sans-Serif" font-size="10.00">com.teragrep.pth_06.ast.analyze.</text>
<text text-anchor="middle" x="90" y="-430.5" font-family="Helvetica,sans-Serif" font-size="10.00">ScanRangeImpl.merge</text>
</a>
</g>
</g>
<!-- Node1&#45;&gt;Node3 -->
<g id="edge4_Node000001_Node000003" class="edge">
<title>Node1&#45;&gt;Node3</title>
<g id="a_edge4_Node000001_Node000003"><a xlink:title=" ">
<path fill="none" stroke="#63b8ff" d="M538.02,-276.04C520.92,-314.46 482.05,-387.69 423,-419.5 348.41,-459.68 250.24,-460.04 180.03,-453.03"/>
<polygon fill="#63b8ff" stroke="#63b8ff" points="541.33,-277.2 542.08,-266.63 534.9,-274.43 541.33,-277.2"/>
</a>
</g>
</g>
<!-- Node5 -->
<g id="Node000005" class="node">
<title>Node5</title>
<g id="a_Node000005"><a xlink:href="classcom_1_1teragrep_1_1pth__06_1_1ast_1_1analyze_1_1ScanRangeView.html#a790e82d4f7140e4b72839d32aed4fe4f" target="_top" xlink:title=" ">
<polygon fill="white" stroke="#666666" points="409.5,-362.5 229.5,-362.5 229.5,-332.5 409.5,-332.5 409.5,-362.5"/>
<text text-anchor="start" x="237.5" y="-350.5" font-family="Helvetica,sans-Serif" font-size="10.00">com.teragrep.pth_06.ast.analyze.</text>
<text text-anchor="middle" x="319.5" y="-339.5" font-family="Helvetica,sans-Serif" font-size="10.00">ScanRangeView.ScanRangeView</text>
</a>
</g>
</g>
<!-- Node1&#45;&gt;Node5 -->
<g id="edge5_Node000001_Node000005" class="edge">
<title>Node1&#45;&gt;Node5</title>
<g id="a_edge5_Node000001_Node000005"><a xlink:title=" ">
<path fill="none" stroke="#63b8ff" d="M517.91,-272.2C493.35,-288.25 457.23,-309.98 423,-323.5 414.42,-326.89 405.23,-329.88 396.01,-332.49"/>
<polygon fill="#63b8ff" stroke="#63b8ff" points="520.01,-275.01 526.41,-266.57 516.14,-269.17 520.01,-275.01"/>
</a>
</g>
</g>
<!-- Node6 -->
<g id="Node000006" class="node">
<title>Node6</title>
<g id="a_Node000006"><a xlink:href="classcom_1_1teragrep_1_1pth__06_1_1ast_1_1analyze_1_1ScanRangeImplTest.html#aba3ca67c49451897862a0116e58cb702" target="_top" xlink:title=" ">
<polygon fill="white" stroke="#666666" points="417,-314.5 222,-314.5 222,-284.5 417,-284.5 417,-314.5"/>
<text text-anchor="start" x="230" y="-302.5" font-family="Helvetica,sans-Serif" font-size="10.00">com.teragrep.pth_06.ast.analyze.</text>
<text text-anchor="middle" x="319.5" y="-291.5" font-family="Helvetica,sans-Serif" font-size="10.00">ScanRangeImplTest.testFromEarliest</text>
</a>
</g>
</g>
<!-- Node1&#45;&gt;Node6 -->
<g id="edge6_Node000001_Node000006" class="edge">
<title>Node1&#45;&gt;Node6</title>
<g id="a_edge6_Node000001_Node000006"><a xlink:title=" ">
<path fill="none" stroke="#63b8ff" d="M466.64,-268.67C442.12,-273.84 415.41,-279.48 391.61,-284.5"/>
<polygon fill="#63b8ff" stroke="#63b8ff" points="467.58,-272.04 476.64,-266.56 466.13,-265.2 467.58,-272.04"/>
</a>
</g>
</g>
<!-- Node7 -->
<g id="Node000007" class="node">
<title>Node7</title>
<g id="a_Node000007"><a xlink:href="classcom_1_1teragrep_1_1pth__06_1_1ast_1_1analyze_1_1ScanRangeImplTest.html#af929d9453d200f51335eacc11ffa46ca" target="_top" xlink:title=" ">
<polygon fill="white" stroke="#666666" points="413.5,-266.5 225.5,-266.5 225.5,-236.5 413.5,-236.5 413.5,-266.5"/>
<text text-anchor="start" x="233.5" y="-254.5" font-family="Helvetica,sans-Serif" font-size="10.00">com.teragrep.pth_06.ast.analyze.</text>
<text text-anchor="middle" x="319.5" y="-243.5" font-family="Helvetica,sans-Serif" font-size="10.00">ScanRangeImplTest.testFromLatest</text>
</a>
</g>
</g>
<!-- Node1&#45;&gt;Node7 -->
<g id="edge7_Node000001_Node000007" class="edge">
<title>Node1&#45;&gt;Node7</title>
<g id="a_edge7_Node000001_Node000007"><a xlink:title=" ">
<path fill="none" stroke="#63b8ff" d="M448.59,-251.5C436.97,-251.5 425.15,-251.5 413.62,-251.5"/>
<polygon fill="#63b8ff" stroke="#63b8ff" points="448.74,-255 458.74,-251.5 448.74,-248 448.74,-255"/>
</a>
</g>
</g>
<!-- Node8 -->
<g id="Node000008" class="node">
<title>Node8</title>
<g id="a_Node000008"><a xlink:href="classcom_1_1teragrep_1_1pth__06_1_1ast_1_1analyze_1_1ScanRangeImplTest.html#ab63ce3091ae6aaa1946660f7d5b78824" target="_top" xlink:title=" ">
<polygon fill="white" stroke="#666666" points="423,-218 216,-218 216,-177 423,-177 423,-218"/>
<text text-anchor="start" x="224" y="-206" font-family="Helvetica,sans-Serif" font-size="10.00">com.teragrep.pth_06.ast.analyze.</text>
<text text-anchor="start" x="224" y="-195" font-family="Helvetica,sans-Serif" font-size="10.00">ScanRangeImplTest.testRangeBetween</text>
<text text-anchor="middle" x="319.5" y="-184" font-family="Helvetica,sans-Serif" font-size="10.00">UpdatedEarliestUpdated</text>
</a>
</g>
</g>
<!-- Node1&#45;&gt;Node8 -->
<g id="edge8_Node000001_Node000008" class="edge">
<title>Node1&#45;&gt;Node8</title>
<g id="a_edge8_Node000001_Node000008"><a xlink:title=" ">
<path fill="none" stroke="#63b8ff" d="M474.86,-234.14C453.21,-229 429.31,-223.33 406.91,-218.01"/>
<polygon fill="#63b8ff" stroke="#63b8ff" points="474.09,-237.55 484.63,-236.46 475.71,-230.74 474.09,-237.55"/>
</a>
</g>
</g>
<!-- Node9 -->
<g id="Node000009" class="node">
<title>Node9</title>
<g id="a_Node000009"><a xlink:href="classcom_1_1teragrep_1_1pth__06_1_1ast_1_1analyze_1_1ScanRangeImplTest.html#a895f5be6e06d5aeedb3b6d9c500787cb" target="_top" xlink:title=" ">
<polygon fill="white" stroke="#666666" points="423,-159 216,-159 216,-118 423,-118 423,-159"/>
<text text-anchor="start" x="224" y="-147" font-family="Helvetica,sans-Serif" font-size="10.00">com.teragrep.pth_06.ast.analyze.</text>
<text text-anchor="start" x="224" y="-136" font-family="Helvetica,sans-Serif" font-size="10.00">ScanRangeImplTest.testRangeBetween</text>
<text text-anchor="middle" x="319.5" y="-125" font-family="Helvetica,sans-Serif" font-size="10.00">UpdatedEarliestWithinBounds</text>
</a>
</g>
</g>
<!-- Node1&#45;&gt;Node9 -->
<g id="edge9_Node000001_Node000009" class="edge">
<title>Node1&#45;&gt;Node9</title>
<g id="a_edge9_Node000001_Node000009"><a xlink:title=" ">
<path fill="none" stroke="#63b8ff" d="M521.62,-230.13C497.28,-211.33 459.5,-184.41 423,-167.5 416.37,-164.43 409.35,-161.62 402.21,-159.06"/>
<polygon fill="#63b8ff" stroke="#63b8ff" points="519.61,-233 529.64,-236.41 523.92,-227.49 519.61,-233"/>
</a>
</g>
</g>
<!-- Node10 -->
<g id="Node000010" class="node">
<title>Node10</title>
<g id="a_Node000010"><a xlink:href="classcom_1_1teragrep_1_1pth__06_1_1ast_1_1analyze_1_1ScanRangeImplTest.html#aabdd7bbc6ed3c369213c6f2900f0fb27" target="_top" xlink:title=" ">
<polygon fill="white" stroke="#666666" points="423,-100 216,-100 216,-59 423,-59 423,-100"/>
<text text-anchor="start" x="224" y="-88" font-family="Helvetica,sans-Serif" font-size="10.00">com.teragrep.pth_06.ast.analyze.</text>
<text text-anchor="start" x="224" y="-77" font-family="Helvetica,sans-Serif" font-size="10.00">ScanRangeImplTest.testRangeBetween</text>
<text text-anchor="middle" x="319.5" y="-66" font-family="Helvetica,sans-Serif" font-size="10.00">UpdatedLatestUpdated</text>
</a>
</g>
</g>
<!-- Node1&#45;&gt;Node10 -->
<g id="edge10_Node000001_Node000010" class="edge">
<title>Node1&#45;&gt;Node10</title>
<g id="a_edge10_Node000001_Node000010"><a xlink:title=" ">
<path fill="none" stroke="#63b8ff" d="M533.58,-227.73C513,-195.85 472.2,-139.63 423,-108.5 418.08,-105.39 412.81,-102.6 407.37,-100.11"/>
<polygon fill="#63b8ff" stroke="#63b8ff" points="530.77,-229.84 539.07,-236.42 536.68,-226.1 530.77,-229.84"/>
</a>
</g>
</g>
<!-- Node11 -->
<g id="Node000011" class="node">
<title>Node11</title>
<g id="a_Node000011"><a xlink:href="classcom_1_1teragrep_1_1pth__06_1_1ast_1_1analyze_1_1ScanRangeImplTest.html#a6e9457b2aacd651e669e17e3a035bd90" target="_top" xlink:title=" ">
<polygon fill="white" stroke="#666666" points="423,-41 216,-41 216,0 423,0 423,-41"/>
<text text-anchor="start" x="224" y="-29" font-family="Helvetica,sans-Serif" font-size="10.00">com.teragrep.pth_06.ast.analyze.</text>
<text text-anchor="start" x="224" y="-18" font-family="Helvetica,sans-Serif" font-size="10.00">ScanRangeImplTest.testRangeBetween</text>
<text text-anchor="middle" x="319.5" y="-7" font-family="Helvetica,sans-Serif" font-size="10.00">UpdatedLatestWithinBounds</text>
</a>
</g>
</g>
<!-- Node1&#45;&gt;Node11 -->
<g id="edge11_Node000001_Node000011" class="edge">
<title>Node1&#45;&gt;Node11</title>
<g id="a_edge11_Node000001_Node000011"><a xlink:title=" ">
<path fill="none" stroke="#63b8ff" d="M539.56,-226.83C523.67,-184.1 485.2,-96.42 423,-49.5 418.87,-46.38 414.41,-43.6 409.75,-41.12"/>
<polygon fill="#63b8ff" stroke="#63b8ff" points="536.34,-228.21 543.03,-236.43 542.93,-225.84 536.34,-228.21"/>
</a>
</g>
</g>
<!-- Node2&#45;&gt;Node3 -->
<g id="edge2_Node000002_Node000003" class="edge">
<title>Node2&#45;&gt;Node3</title>
<g id="a_edge2_Node000002_Node000003"><a xlink:title=" ">
<path fill="none" stroke="#63b8ff" d="M228.95,-412.43C209.66,-416.07 189.4,-419.9 170.52,-423.47"/>
<polygon fill="#63b8ff" stroke="#63b8ff" points="229.76,-415.84 238.93,-410.54 228.46,-408.96 229.76,-415.84"/>
</a>
</g>
</g>
<!-- Node4 -->
<g id="Node000004" class="node">
<title>Node4</title>
<g id="a_Node000004"><a xlink:href="classcom_1_1teragrep_1_1pth__06_1_1ast_1_1analyze_1_1ScanRangeImpl.html#ada96a801e3c4b35772739b6f7cfcb055" target="_top" xlink:title="Returns stub when new range is outside the original range.">
<polygon fill="white" stroke="#666666" points="180,-405.5 0,-405.5 0,-375.5 180,-375.5 180,-405.5"/>
<text text-anchor="start" x="8" y="-393.5" font-family="Helvetica,sans-Serif" font-size="10.00">com.teragrep.pth_06.ast.analyze.</text>
<text text-anchor="middle" x="90" y="-382.5" font-family="Helvetica,sans-Serif" font-size="10.00">ScanRangeImpl.toRangeBetween</text>
</a>
</g>
</g>
<!-- Node2&#45;&gt;Node4 -->
<g id="edge3_Node000002_Node000004" class="edge">
<title>Node2&#45;&gt;Node4</title>
<g id="a_edge3_Node000002_Node000004"><a xlink:title=" ">
<path fill="none" stroke="#63b8ff" d="M218.92,-393.31C205.97,-393.03 192.77,-392.74 180,-392.46"/>
<polygon fill="#63b8ff" stroke="#63b8ff" points="219.16,-396.82 229.24,-393.54 219.32,-389.82 219.16,-396.82"/>
</a>
</g>
</g>
</g>
</svg>
