<?xml version="1.0" encoding="UTF-8" standalone="no"?>
<!DOCTYPE svg PUBLIC "-//W3C//DTD SVG 1.1//EN"
 "http://www.w3.org/Graphics/SVG/1.1/DTD/svg11.dtd">
<!-- Generated by graphviz version 2.43.0 (0)
 -->
<!-- Title: com.teragrep.pth_06.ast.analyze.ScanPlan.mergeable Pages: 1 -->
<svg width="426pt" height="264pt"
 viewBox="0.00 0.00 426.00 264.00" xmlns="http://www.w3.org/2000/svg" xmlns:xlink="http://www.w3.org/1999/xlink">
<g id="graph0" class="graph" transform="scale(1 1) rotate(0) translate(4 260)">
<title>com.teragrep.pth_06.ast.analyze.ScanPlan.mergeable</title>
<!-- Node1 -->
<g id="Node000001" class="node">
<title>Node1</title>
<g id="a_Node000001"><a xlink:title="Returns true if the ranges overlap or touch.">
<polygon fill="#999999" stroke="#666666" points="418,-137.5 238,-137.5 238,-107.5 418,-107.5 418,-137.5"/>
<text text-anchor="start" x="246" y="-125.5" font-family="Helvetica,sans-Serif" font-size="10.00">com.teragrep.pth_06.ast.analyze.</text>
<text text-anchor="middle" x="328" y="-114.5" font-family="Helvetica,sans-Serif" font-size="10.00">ScanPlan.mergeable</text>
</a>
</g>
</g>
<!-- Node2 -->
<g id="Node000002" class="node">
<title>Node2</title>
<g id="a_Node000002"><a xlink:href="classcom_1_1teragrep_1_1pth__06_1_1ast_1_1analyze_1_1ScanPlanImplTest.html#a6879bcc549a8f1f67c9b76eac6f1a729" target="_top" xlink:title=" ">
<polygon fill="white" stroke="#666666" points="196.5,-256 5.5,-256 5.5,-215 196.5,-215 196.5,-256"/>
<text text-anchor="start" x="13.5" y="-244" font-family="Helvetica,sans-Serif" font-size="10.00">com.teragrep.pth_06.ast.analyze.</text>
<text text-anchor="start" x="13.5" y="-233" font-family="Helvetica,sans-Serif" font-size="10.00">ScanPlanImplTest.testDifferentFilter</text>
<text text-anchor="middle" x="101" y="-222" font-family="Helvetica,sans-Serif" font-size="10.00">ListDoesNotIntersect</text>
</a>
</g>
</g>
<!-- Node1&#45;&gt;Node2 -->
<g id="edge1_Node000001_Node000002" class="edge">
<title>Node1&#45;&gt;Node2</title>
<g id="a_edge1_Node000001_Node000002"><a xlink:title=" ">
<path fill="none" stroke="#63b8ff" d="M300.59,-143.82C276.24,-162.57 238.45,-189.48 202,-206.5 195.45,-209.56 188.5,-212.37 181.45,-214.94"/>
<polygon fill="#63b8ff" stroke="#63b8ff" points="302.89,-146.46 308.62,-137.55 298.58,-140.94 302.89,-146.46"/>
</a>
</g>
</g>
<!-- Node3 -->
<g id="Node000003" class="node">
<title>Node3</title>
<g id="a_Node000003"><a xlink:href="classcom_1_1teragrep_1_1pth__06_1_1ast_1_1analyze_1_1ScanPlanImplTest.html#a9c2de3f5a2b4612548bae92aa2882339" target="_top" xlink:title=" ">
<polygon fill="white" stroke="#666666" points="202,-197 0,-197 0,-156 202,-156 202,-197"/>
<text text-anchor="start" x="8" y="-185" font-family="Helvetica,sans-Serif" font-size="10.00">com.teragrep.pth_06.ast.analyze.</text>
<text text-anchor="start" x="8" y="-174" font-family="Helvetica,sans-Serif" font-size="10.00">ScanPlanImplTest.testDifferentStream</text>
<text text-anchor="middle" x="101" y="-163" font-family="Helvetica,sans-Serif" font-size="10.00">IDDoesNotIntersect</text>
</a>
</g>
</g>
<!-- Node1&#45;&gt;Node3 -->
<g id="edge2_Node000001_Node000003" class="edge">
<title>Node1&#45;&gt;Node3</title>
<g id="a_edge2_Node000001_Node000003"><a xlink:title=" ">
<path fill="none" stroke="#63b8ff" d="M254.37,-139.93C233.04,-145.05 209.51,-150.7 187.46,-155.99"/>
<polygon fill="#63b8ff" stroke="#63b8ff" points="255.42,-143.28 264.32,-137.54 253.78,-136.47 255.42,-143.28"/>
</a>
</g>
</g>
<!-- Node4 -->
<g id="Node000004" class="node">
<title>Node4</title>
<g id="a_Node000004"><a xlink:href="classcom_1_1teragrep_1_1pth__06_1_1ast_1_1analyze_1_1ScanPlanImplTest.html#a1d3e1f8575392937f1fe3c4517e51e67" target="_top" xlink:title=" ">
<polygon fill="white" stroke="#666666" points="198,-137.5 4,-137.5 4,-107.5 198,-107.5 198,-137.5"/>
<text text-anchor="start" x="12" y="-125.5" font-family="Helvetica,sans-Serif" font-size="10.00">com.teragrep.pth_06.ast.analyze.</text>
<text text-anchor="middle" x="101" y="-114.5" font-family="Helvetica,sans-Serif" font-size="10.00">ScanPlanImplTest.testMergeableEnd</text>
</a>
</g>
</g>
<!-- Node1&#45;&gt;Node4 -->
<g id="edge3_Node000001_Node000004" class="edge">
<title>Node1&#45;&gt;Node4</title>
<g id="a_edge3_Node000001_Node000004"><a xlink:title=" ">
<path fill="none" stroke="#63b8ff" d="M227.62,-122.5C217.84,-122.5 207.92,-122.5 198.17,-122.5"/>
<polygon fill="#63b8ff" stroke="#63b8ff" points="227.75,-126 237.75,-122.5 227.75,-119 227.75,-126"/>
</a>
</g>
</g>
<!-- Node5 -->
<g id="Node000005" class="node">
<title>Node5</title>
<g id="a_Node000005"><a xlink:href="classcom_1_1teragrep_1_1pth__06_1_1ast_1_1analyze_1_1ScanPlanImplTest.html#a8ff821ee5ec683d3e31d1f2b6458f37e" target="_top" xlink:title=" ">
<polygon fill="white" stroke="#666666" points="200.5,-89.5 1.5,-89.5 1.5,-59.5 200.5,-59.5 200.5,-89.5"/>
<text text-anchor="start" x="9.5" y="-77.5" font-family="Helvetica,sans-Serif" font-size="10.00">com.teragrep.pth_06.ast.analyze.</text>
<text text-anchor="middle" x="101" y="-66.5" font-family="Helvetica,sans-Serif" font-size="10.00">ScanPlanImplTest.testMergeableStart</text>
</a>
</g>
</g>
<!-- Node1&#45;&gt;Node5 -->
<g id="edge4_Node000001_Node000005" class="edge">
<title>Node1&#45;&gt;Node5</title>
<g id="a_edge4_Node000001_Node000005"><a xlink:title=" ">
<path fill="none" stroke="#63b8ff" d="M246.54,-105.33C222.28,-100.16 195.86,-94.52 172.32,-89.5"/>
<polygon fill="#63b8ff" stroke="#63b8ff" points="245.92,-108.78 256.43,-107.44 247.38,-101.93 245.92,-108.78"/>
</a>
</g>
</g>
<!-- Node6 -->
<g id="Node000006" class="node">
<title>Node6</title>
<g id="a_Node000006"><a xlink:href="classcom_1_1teragrep_1_1pth__06_1_1ast_1_1analyze_1_1ScanPlanImplTest.html#a583f99bbf76c804691ecc3a4bd8dc440" target="_top" xlink:title=" ">
<polygon fill="white" stroke="#666666" points="199,-41 3,-41 3,0 199,0 199,-41"/>
<text text-anchor="start" x="11" y="-29" font-family="Helvetica,sans-Serif" font-size="10.00">com.teragrep.pth_06.ast.analyze.</text>
<text text-anchor="start" x="11" y="-18" font-family="Helvetica,sans-Serif" font-size="10.00">ScanPlanImplTest.testTouchingEdges</text>
<text text-anchor="middle" x="101" y="-7" font-family="Helvetica,sans-Serif" font-size="10.00">Intersect</text>
</a>
</g>
</g>
<!-- Node1&#45;&gt;Node6 -->
<g id="edge5_Node000001_Node000006" class="edge">
<title>Node1&#45;&gt;Node6</title>
<g id="a_edge5_Node000001_Node000006"><a xlink:title=" ">
<path fill="none" stroke="#63b8ff" d="M295.77,-101.79C271.1,-86.12 235.39,-64.89 202,-50.5 194.09,-47.09 185.68,-43.92 177.22,-41"/>
<polygon fill="#63b8ff" stroke="#63b8ff" points="294.03,-104.83 304.34,-107.3 297.82,-98.95 294.03,-104.83"/>
</a>
</g>
</g>
</g>
</svg>
