<?xml version="1.0" encoding="UTF-8" standalone="no"?>
<!DOCTYPE svg PUBLIC "-//W3C//DTD SVG 1.1//EN"
 "http://www.w3.org/Graphics/SVG/1.1/DTD/svg11.dtd">
<!-- Generated by graphviz version 2.43.0 (0)
 -->
<!-- Title: com.teragrep.pth_06.planner.LimitedResults.latest Pages: 1 -->
<svg width="590pt" height="107pt"
 viewBox="0.00 0.00 590.00 107.00" xmlns="http://www.w3.org/2000/svg" xmlns:xlink="http://www.w3.org/1999/xlink">
<g id="graph0" class="graph" transform="scale(1 1) rotate(0) translate(4 103)">
<title>com.teragrep.pth_06.planner.LimitedResults.latest</title>
<!-- Node1 -->
<g id="Node000001" class="node">
<title>Node1</title>
<g id="a_Node000001"><a xlink:title=" ">
<polygon fill="#999999" stroke="#666666" points="582,-78 422,-78 422,-48 582,-48 582,-78"/>
<text text-anchor="start" x="430" y="-66" font-family="Helvetica,sans-Serif" font-size="10.00">com.teragrep.pth_06.planner.</text>
<text text-anchor="middle" x="502" y="-55" font-family="Helvetica,sans-Serif" font-size="10.00">LimitedResults.latest</text>
</a>
</g>
</g>
<!-- Node2 -->
<g id="Node000002" class="node">
<title>Node2</title>
<g id="a_Node000002"><a xlink:href="classcom_1_1teragrep_1_1pth__06_1_1planner_1_1HBaseQueryImpl.html#a5cc16609895c644b18d504dc49cbcd64" target="_top" xlink:title="Queries results form hbase until the batch limit is reached and updates latest.">
<polygon fill="white" stroke="#666666" points="160,-99 0,-99 0,-69 160,-69 160,-99"/>
<text text-anchor="start" x="8" y="-87" font-family="Helvetica,sans-Serif" font-size="10.00">com.teragrep.pth_06.planner.</text>
<text text-anchor="middle" x="80" y="-76" font-family="Helvetica,sans-Serif" font-size="10.00">HBaseQueryImpl.latest</text>
</a>
</g>
</g>
<!-- Node1&#45;&gt;Node2 -->
<g id="edge1_Node000001_Node000002" class="edge">
<title>Node1&#45;&gt;Node2</title>
<g id="a_edge1_Node000001_Node000002"><a xlink:title=" ">
<path fill="none" stroke="#63b8ff" d="M430.5,-80.1C415.88,-82.97 400.51,-85.5 386,-87 309.62,-94.88 221.92,-92.88 160.22,-89.65"/>
<polygon fill="#63b8ff" stroke="#63b8ff" points="431.39,-83.49 440.49,-78.06 429.99,-76.63 431.39,-83.49"/>
</a>
</g>
</g>
<!-- Node3 -->
<g id="Node000003" class="node">
<title>Node3</title>
<g id="a_Node000003"><a xlink:href="classcom_1_1teragrep_1_1pth__06_1_1planner_1_1HBaseQueryImpl.html#a3e76b78ec59462795de6428b6e549cab" target="_top" xlink:title=" ">
<polygon fill="white" stroke="#666666" points="386,-78 196,-78 196,-48 386,-48 386,-78"/>
<text text-anchor="start" x="204" y="-66" font-family="Helvetica,sans-Serif" font-size="10.00">com.teragrep.pth_06.planner.</text>
<text text-anchor="middle" x="291" y="-55" font-family="Helvetica,sans-Serif" font-size="10.00">HBaseQueryImpl.mostRecentOffset</text>
</a>
</g>
</g>
<!-- Node1&#45;&gt;Node3 -->
<g id="edge2_Node000001_Node000003" class="edge">
<title>Node1&#45;&gt;Node3</title>
<g id="a_edge2_Node000001_Node000003"><a xlink:title=" ">
<path fill="none" stroke="#63b8ff" d="M411.76,-63C403.31,-63 394.73,-63 386.24,-63"/>
<polygon fill="#63b8ff" stroke="#63b8ff" points="411.99,-66.5 421.99,-63 411.99,-59.5 411.99,-66.5"/>
</a>
</g>
</g>
<!-- Node4 -->
<g id="Node000004" class="node">
<title>Node4</title>
<g id="a_Node000004"><a xlink:href="classcom_1_1teragrep_1_1pth__06_1_1planner_1_1state_1_1QueryStateImpl.html#a3ae74e2cdb689ad0f9e2318fbd94e1b9" target="_top" xlink:title=" ">
<polygon fill="white" stroke="#666666" points="385,-30 197,-30 197,0 385,0 385,-30"/>
<text text-anchor="start" x="205" y="-18" font-family="Helvetica,sans-Serif" font-size="10.00">com.teragrep.pth_06.planner.state.</text>
<text text-anchor="middle" x="291" y="-7" font-family="Helvetica,sans-Serif" font-size="10.00">QueryStateImpl.next</text>
</a>
</g>
</g>
<!-- Node1&#45;&gt;Node4 -->
<g id="edge4_Node000001_Node000004" class="edge">
<title>Node1&#45;&gt;Node4</title>
<g id="a_edge4_Node000001_Node000004"><a xlink:title=" ">
<path fill="none" stroke="#63b8ff" d="M425.66,-45.7C403.29,-40.56 378.99,-34.98 357.32,-30"/>
<polygon fill="#63b8ff" stroke="#63b8ff" points="424.91,-49.12 435.44,-47.94 426.48,-42.29 424.91,-49.12"/>
</a>
</g>
</g>
<!-- Node3&#45;&gt;Node2 -->
<g id="edge3_Node000003_Node000002" class="edge">
<title>Node3&#45;&gt;Node2</title>
<g id="a_edge3_Node000003_Node000002"><a xlink:title=" ">
<path fill="none" stroke="#63b8ff" d="M185.81,-73.47C177.2,-74.33 168.6,-75.2 160.22,-76.04"/>
<polygon fill="#63b8ff" stroke="#63b8ff" points="186.29,-76.94 195.89,-72.46 185.59,-69.97 186.29,-76.94"/>
</a>
</g>
</g>
</g>
</svg>
