<?xml version="1.0" encoding="UTF-8" standalone="no"?>
<!DOCTYPE svg PUBLIC "-//W3C//DTD SVG 1.1//EN"
 "http://www.w3.org/Graphics/SVG/1.1/DTD/svg11.dtd">
<!-- Generated by graphviz version 2.43.0 (0)
 -->
<!-- Title: com.teragrep.pth_06.planner.KafkaQuery Pages: 1 -->
<svg width="262pt" height="93pt"
 viewBox="0.00 0.00 261.50 93.00" xmlns="http://www.w3.org/2000/svg" xmlns:xlink="http://www.w3.org/1999/xlink">
<g id="graph0" class="graph" transform="scale(1 1) rotate(0) translate(4 89)">
<title>com.teragrep.pth_06.planner.KafkaQuery</title>
<!-- Node1 -->
<g id="Node000001" class="node">
<title>Node1</title>
<g id="a_Node000001"><a xlink:title=" ">
<polygon fill="#999999" stroke="#666666" points="180.5,-30 20.5,-30 20.5,0 180.5,0 180.5,-30"/>
<text text-anchor="start" x="28.5" y="-18" font-family="Helvetica,sans-Serif" font-size="10.00">com.teragrep.pth_06.planner.</text>
<text text-anchor="middle" x="100.5" y="-7" font-family="Helvetica,sans-Serif" font-size="10.00">KafkaQuery</text>
</a>
</g>
</g>
<!-- Node2 -->
<g id="Node000002" class="node">
<title>Node2</title>
<g id="a_Node000002"><a xlink:title=" ">
<polygon fill="white" stroke="#666666" points="65,-85 0,-85 0,-66 65,-66 65,-85"/>
<text text-anchor="middle" x="32.5" y="-73" font-family="Helvetica,sans-Serif" font-size="10.00">Closeable</text>
</a>
</g>
</g>
<!-- Node2&#45;&gt;Node1 -->
<g id="edge1_Node000001_Node000002" class="edge">
<title>Node2&#45;&gt;Node1</title>
<g id="a_edge1_Node000001_Node000002"><a xlink:title=" ">
<path fill="none" stroke="#63b8ff" d="M50.24,-59.23C60.71,-50.23 73.87,-38.91 84.09,-30.11"/>
<polygon fill="#63b8ff" stroke="#63b8ff" points="47.83,-56.69 42.53,-65.87 52.4,-62 47.83,-56.69"/>
</a>
</g>
</g>
<!-- Node3 -->
<g id="Node000003" class="node">
<title>Node3</title>
<g id="a_Node000003"><a xlink:href="interfacecom_1_1teragrep_1_1pth__06_1_1Stubbable.html" target="_top" xlink:title=" ">
<polygon fill="white" stroke="#666666" points="253.5,-85 83.5,-85 83.5,-66 253.5,-66 253.5,-85"/>
<text text-anchor="middle" x="168.5" y="-73" font-family="Helvetica,sans-Serif" font-size="10.00">com.teragrep.pth_06.Stubbable</text>
</a>
</g>
</g>
<!-- Node3&#45;&gt;Node1 -->
<g id="edge2_Node000001_Node000003" class="edge">
<title>Node3&#45;&gt;Node1</title>
<g id="a_edge2_Node000001_Node000003"><a xlink:title=" ">
<path fill="none" stroke="#63b8ff" d="M150.76,-59.23C140.29,-50.23 127.13,-38.91 116.91,-30.11"/>
<polygon fill="#63b8ff" stroke="#63b8ff" points="148.6,-62 158.47,-65.87 153.17,-56.69 148.6,-62"/>
</a>
</g>
</g>
</g>
</svg>
