<?xml version="1.0" encoding="UTF-8" standalone="no"?>
<!DOCTYPE svg PUBLIC "-//W3C//DTD SVG 1.1//EN"
 "http://www.w3.org/Graphics/SVG/1.1/DTD/svg11.dtd">
<!-- Generated by graphviz version 2.43.0 (0)
 -->
<!-- Title: com.teragrep.pth_06.planner.LimitedResults Pages: 1 -->
<svg width="564pt" height="86pt"
 viewBox="0.00 0.00 564.00 86.00" xmlns="http://www.w3.org/2000/svg" xmlns:xlink="http://www.w3.org/1999/xlink">
<g id="graph0" class="graph" transform="scale(1 1) rotate(0) translate(4 82)">
<title>com.teragrep.pth_06.planner.LimitedResults</title>
<!-- Node1 -->
<g id="Node000001" class="node">
<title>Node1</title>
<g id="a_Node000001"><a xlink:title=" ">
<polygon fill="#999999" stroke="#666666" points="360,-54 200,-54 200,-24 360,-24 360,-54"/>
<text text-anchor="start" x="208" y="-42" font-family="Helvetica,sans-Serif" font-size="10.00">com.teragrep.pth_06.planner.</text>
<text text-anchor="middle" x="280" y="-31" font-family="Helvetica,sans-Serif" font-size="10.00">LimitedResults</text>
</a>
</g>
</g>
<!-- Node3 -->
<g id="Node000003" class="node">
<title>Node3</title>
<g id="a_Node000003"><a xlink:href="classcom_1_1teragrep_1_1pth__06_1_1planner_1_1BatchSizeLimitedResults.html" target="_top" xlink:title=" ">
<polygon fill="white" stroke="#666666" points="556,-78 396,-78 396,-48 556,-48 556,-78"/>
<text text-anchor="start" x="404" y="-66" font-family="Helvetica,sans-Serif" font-size="10.00">com.teragrep.pth_06.planner.</text>
<text text-anchor="middle" x="476" y="-55" font-family="Helvetica,sans-Serif" font-size="10.00">BatchSizeLimitedResults</text>
</a>
</g>
</g>
<!-- Node1&#45;&gt;Node3 -->
<g id="edge2_Node000001_Node000003" class="edge">
<title>Node1&#45;&gt;Node3</title>
<g id="a_edge2_Node000001_Node000003"><a xlink:title=" ">
<path fill="none" stroke="#63b8ff" d="M370.16,-50.03C378.7,-51.09 387.32,-52.15 395.75,-53.2"/>
<polygon fill="#63b8ff" stroke="#63b8ff" points="370.54,-46.55 360.19,-48.8 369.68,-53.5 370.54,-46.55"/>
</a>
</g>
</g>
<!-- Node4 -->
<g id="Node000004" class="node">
<title>Node4</title>
<g id="a_Node000004"><a xlink:href="classcom_1_1teragrep_1_1pth__06_1_1planner_1_1StubLimitedResults.html" target="_top" xlink:title=" ">
<polygon fill="white" stroke="#666666" points="556,-30 396,-30 396,0 556,0 556,-30"/>
<text text-anchor="start" x="404" y="-18" font-family="Helvetica,sans-Serif" font-size="10.00">com.teragrep.pth_06.planner.</text>
<text text-anchor="middle" x="476" y="-7" font-family="Helvetica,sans-Serif" font-size="10.00">StubLimitedResults</text>
</a>
</g>
</g>
<!-- Node1&#45;&gt;Node4 -->
<g id="edge3_Node000001_Node000004" class="edge">
<title>Node1&#45;&gt;Node4</title>
<g id="a_edge3_Node000001_Node000004"><a xlink:title=" ">
<path fill="none" stroke="#63b8ff" d="M370.16,-27.97C378.7,-26.91 387.32,-25.85 395.75,-24.8"/>
<polygon fill="#63b8ff" stroke="#63b8ff" points="369.68,-24.5 360.19,-29.2 370.54,-31.45 369.68,-24.5"/>
</a>
</g>
</g>
<!-- Node2 -->
<g id="Node000002" class="node">
<title>Node2</title>
<g id="a_Node000002"><a xlink:href="interfacecom_1_1teragrep_1_1pth__06_1_1Stubable.html" target="_top" xlink:title=" ">
<polygon fill="white" stroke="#666666" points="164,-48.5 0,-48.5 0,-29.5 164,-29.5 164,-48.5"/>
<text text-anchor="middle" x="82" y="-36.5" font-family="Helvetica,sans-Serif" font-size="10.00">com.teragrep.pth_06.Stubable</text>
</a>
</g>
</g>
<!-- Node2&#45;&gt;Node1 -->
<g id="edge1_Node000001_Node000002" class="edge">
<title>Node2&#45;&gt;Node1</title>
<g id="a_edge1_Node000001_Node000002"><a xlink:title=" ">
<path fill="none" stroke="#63b8ff" d="M174.15,-39C182.72,-39 191.37,-39 199.82,-39"/>
<polygon fill="#63b8ff" stroke="#63b8ff" points="174.14,-35.5 164.14,-39 174.14,-42.5 174.14,-35.5"/>
</a>
</g>
</g>
</g>
</svg>
