<?xml version="1.0" encoding="UTF-8" standalone="no"?>
<!DOCTYPE svg PUBLIC "-//W3C//DTD SVG 1.1//EN"
 "http://www.w3.org/Graphics/SVG/1.1/DTD/svg11.dtd">
<!-- Generated by graphviz version 2.43.0 (0)
 -->
<!-- Title: com.teragrep.pth_06.planner.QueryMetrics Pages: 1 -->
<svg width="346pt" height="170pt"
 viewBox="0.00 0.00 346.00 170.00" xmlns="http://www.w3.org/2000/svg" xmlns:xlink="http://www.w3.org/1999/xlink">
<g id="graph0" class="graph" transform="scale(1 1) rotate(0) translate(4 166)">
<title>com.teragrep.pth_06.planner.QueryMetrics</title>
<!-- Node1 -->
<g id="Node000001" class="node">
<title>Node1</title>
<g id="a_Node000001"><a xlink:title=" ">
<polygon fill="#999999" stroke="#666666" points="214,-162 54,-162 54,-132 214,-132 214,-162"/>
<text text-anchor="start" x="62" y="-150" font-family="Helvetica,sans-Serif" font-size="10.00">com.teragrep.pth_06.planner.</text>
<text text-anchor="middle" x="134" y="-139" font-family="Helvetica,sans-Serif" font-size="10.00">QueryMetrics</text>
</a>
</g>
</g>
<!-- Node2 -->
<g id="Node000002" class="node">
<title>Node2</title>
<g id="a_Node000002"><a xlink:href="interfacecom_1_1teragrep_1_1pth__06_1_1planner_1_1HBaseQuery.html" target="_top" xlink:title=" ">
<polygon fill="white" stroke="#666666" points="268,-96 108,-96 108,-66 268,-66 268,-96"/>
<text text-anchor="start" x="116" y="-84" font-family="Helvetica,sans-Serif" font-size="10.00">com.teragrep.pth_06.planner.</text>
<text text-anchor="middle" x="188" y="-73" font-family="Helvetica,sans-Serif" font-size="10.00">HBaseQuery</text>
</a>
</g>
</g>
<!-- Node1&#45;&gt;Node2 -->
<g id="edge1_Node000001_Node000002" class="edge">
<title>Node1&#45;&gt;Node2</title>
<g id="a_edge1_Node000001_Node000002"><a xlink:title=" ">
<path fill="none" stroke="#63b8ff" d="M152.49,-124.09C160.28,-114.85 169.13,-104.36 176.05,-96.16"/>
<polygon fill="#63b8ff" stroke="#63b8ff" points="149.76,-121.9 145.98,-131.8 155.11,-126.41 149.76,-121.9"/>
</a>
</g>
</g>
<!-- Node3 -->
<g id="Node000003" class="node">
<title>Node3</title>
<g id="a_Node000003"><a xlink:href="classcom_1_1teragrep_1_1pth__06_1_1planner_1_1HBaseQueryImpl.html" target="_top" xlink:title="Responsible for splitting results from scanPlanCollection into batches.">
<polygon fill="white" stroke="#666666" points="160,-30 0,-30 0,0 160,0 160,-30"/>
<text text-anchor="start" x="8" y="-18" font-family="Helvetica,sans-Serif" font-size="10.00">com.teragrep.pth_06.planner.</text>
<text text-anchor="middle" x="80" y="-7" font-family="Helvetica,sans-Serif" font-size="10.00">HBaseQueryImpl</text>
</a>
</g>
</g>
<!-- Node1&#45;&gt;Node3 -->
<g id="edge4_Node000001_Node000003" class="edge">
<title>Node1&#45;&gt;Node3</title>
<g id="a_edge4_Node000001_Node000003"><a xlink:title=" ">
<path fill="none" stroke="#63b8ff" d="M115.58,-123.56C109.56,-115.3 103.32,-105.61 99,-96 89.18,-74.12 84.06,-46.51 81.71,-30.1"/>
<polygon fill="#63b8ff" stroke="#63b8ff" points="112.85,-125.75 121.69,-131.58 118.42,-121.51 112.85,-125.75"/>
</a>
</g>
</g>
<!-- Node2&#45;&gt;Node3 -->
<g id="edge2_Node000002_Node000003" class="edge">
<title>Node2&#45;&gt;Node3</title>
<g id="a_edge2_Node000002_Node000003"><a xlink:title=" ">
<path fill="none" stroke="#63b8ff" d="M155.42,-60.69C138.75,-50.82 118.83,-39.01 103.65,-30.01"/>
<polygon fill="#63b8ff" stroke="#63b8ff" points="153.91,-63.87 164.3,-65.95 157.48,-57.85 153.91,-63.87"/>
</a>
</g>
</g>
<!-- Node4 -->
<g id="Node000004" class="node">
<title>Node4</title>
<g id="a_Node000004"><a xlink:href="classcom_1_1teragrep_1_1pth__06_1_1planner_1_1StubHBaseQuery.html" target="_top" xlink:title=" ">
<polygon fill="white" stroke="#666666" points="338,-30 178,-30 178,0 338,0 338,-30"/>
<text text-anchor="start" x="186" y="-18" font-family="Helvetica,sans-Serif" font-size="10.00">com.teragrep.pth_06.planner.</text>
<text text-anchor="middle" x="258" y="-7" font-family="Helvetica,sans-Serif" font-size="10.00">StubHBaseQuery</text>
</a>
</g>
</g>
<!-- Node2&#45;&gt;Node4 -->
<g id="edge3_Node000002_Node000004" class="edge">
<title>Node2&#45;&gt;Node4</title>
<g id="a_edge3_Node000002_Node000004"><a xlink:title=" ">
<path fill="none" stroke="#63b8ff" d="M211.05,-58.92C221.37,-49.49 233.27,-38.61 242.51,-30.16"/>
<polygon fill="#63b8ff" stroke="#63b8ff" points="208.55,-56.47 203.54,-65.8 213.28,-61.63 208.55,-56.47"/>
</a>
</g>
</g>
</g>
</svg>
