<?xml version="1.0" encoding="UTF-8" standalone="no"?>
<!DOCTYPE svg PUBLIC "-//W3C//DTD SVG 1.1//EN"
 "http://www.w3.org/Graphics/SVG/1.1/DTD/svg11.dtd">
<!-- Generated by graphviz version 2.43.0 (0)
 -->
<!-- Title: com.teragrep.pth_06.ast.analyze.ScanPlan.earliest Pages: 1 -->
<svg width="679pt" height="468pt"
 viewBox="0.00 0.00 679.00 467.60" xmlns="http://www.w3.org/2000/svg" xmlns:xlink="http://www.w3.org/1999/xlink">
<g id="graph0" class="graph" transform="scale(1 1) rotate(0) translate(4 463.6)">
<title>com.teragrep.pth_06.ast.analyze.ScanPlan.earliest</title>
<!-- Node1 -->
<g id="Node000001" class="node">
<title>Node1</title>
<g id="a_Node000001"><a xlink:title=" ">
<polygon fill="#999999" stroke="#666666" points="671,-266.5 491,-266.5 491,-236.5 671,-236.5 671,-266.5"/>
<text text-anchor="start" x="499" y="-254.5" font-family="Helvetica,sans-Serif" font-size="10.00">com.teragrep.pth_06.ast.analyze.</text>
<text text-anchor="middle" x="581" y="-243.5" font-family="Helvetica,sans-Serif" font-size="10.00">ScanPlan.earliest</text>
</a>
</g>
</g>
<!-- Node2 -->
<g id="Node000002" class="node">
<title>Node2</title>
<g id="a_Node000002"><a xlink:href="classcom_1_1teragrep_1_1pth__06_1_1ast_1_1analyze_1_1ScanPlanImpl.html#aecb617c7630c6d4a8d08c47257ae69a9" target="_top" xlink:title="Merge two ScanRanges with the smaller earliest and larger latest values.">
<polygon fill="white" stroke="#666666" points="180,-453.5 0,-453.5 0,-423.5 180,-423.5 180,-453.5"/>
<text text-anchor="start" x="8" y="-441.5" font-family="Helvetica,sans-Serif" font-size="10.00">com.teragrep.pth_06.ast.analyze.</text>
<text text-anchor="middle" x="90" y="-430.5" font-family="Helvetica,sans-Serif" font-size="10.00">ScanPlanImpl.merge</text>
</a>
</g>
</g>
<!-- Node1&#45;&gt;Node2 -->
<g id="edge1_Node000001_Node000002" class="edge">
<title>Node1&#45;&gt;Node2</title>
<g id="a_edge1_Node000001_Node000002"><a xlink:title=" ">
<path fill="none" stroke="#63b8ff" d="M570.04,-276.08C552.96,-314.54 514.13,-387.83 455,-419.5 368.39,-465.88 252.96,-462.99 175.52,-453.54"/>
<polygon fill="#63b8ff" stroke="#63b8ff" points="573.35,-277.22 574.09,-266.65 566.92,-274.46 573.35,-277.22"/>
</a>
</g>
</g>
<!-- Node3 -->
<g id="Node000003" class="node">
<title>Node3</title>
<g id="a_Node000003"><a xlink:href="classcom_1_1teragrep_1_1pth__06_1_1ast_1_1analyze_1_1ScanPlanImpl.html#af3961a10733d641e35fd2954f07212cd" target="_top" xlink:title="Returns true if the ranges overlap or touch.">
<polygon fill="white" stroke="#666666" points="425.5,-410.5 245.5,-410.5 245.5,-380.5 425.5,-380.5 425.5,-410.5"/>
<text text-anchor="start" x="253.5" y="-398.5" font-family="Helvetica,sans-Serif" font-size="10.00">com.teragrep.pth_06.ast.analyze.</text>
<text text-anchor="middle" x="335.5" y="-387.5" font-family="Helvetica,sans-Serif" font-size="10.00">ScanPlanImpl.mergeable</text>
</a>
</g>
</g>
<!-- Node1&#45;&gt;Node3 -->
<g id="edge2_Node000001_Node000003" class="edge">
<title>Node1&#45;&gt;Node3</title>
<g id="a_edge2_Node000001_Node000003"><a xlink:title=" ">
<path fill="none" stroke="#63b8ff" d="M562.64,-274.81C540.74,-302.44 500.4,-347.72 455,-371.5 445.89,-376.27 435.92,-380.1 425.77,-383.16"/>
<polygon fill="#63b8ff" stroke="#63b8ff" points="565.46,-276.89 568.83,-266.85 559.93,-272.6 565.46,-276.89"/>
</a>
</g>
</g>
<!-- Node5 -->
<g id="Node000005" class="node">
<title>Node5</title>
<g id="a_Node000005"><a xlink:href="classcom_1_1teragrep_1_1pth__06_1_1ast_1_1analyze_1_1ScanRangeView.html#add43665cc31666bed932e1e032c4ea59" target="_top" xlink:title=" ">
<polygon fill="white" stroke="#666666" points="425.5,-362.5 245.5,-362.5 245.5,-332.5 425.5,-332.5 425.5,-362.5"/>
<text text-anchor="start" x="253.5" y="-350.5" font-family="Helvetica,sans-Serif" font-size="10.00">com.teragrep.pth_06.ast.analyze.</text>
<text text-anchor="middle" x="335.5" y="-339.5" font-family="Helvetica,sans-Serif" font-size="10.00">ScanRangeView.ScanRangeView</text>
</a>
</g>
</g>
<!-- Node1&#45;&gt;Node5 -->
<g id="edge5_Node000001_Node000005" class="edge">
<title>Node1&#45;&gt;Node5</title>
<g id="a_edge5_Node000001_Node000005"><a xlink:title=" ">
<path fill="none" stroke="#63b8ff" d="M550.02,-272.48C525.52,-288.69 489.43,-310.49 455,-323.5 445.67,-327.02 435.73,-330.07 425.71,-332.68"/>
<polygon fill="#63b8ff" stroke="#63b8ff" points="552.15,-275.27 558.5,-266.79 548.25,-269.46 552.15,-275.27"/>
</a>
</g>
</g>
<!-- Node6 -->
<g id="Node000006" class="node">
<title>Node6</title>
<g id="a_Node000006"><a xlink:href="classcom_1_1teragrep_1_1pth__06_1_1ast_1_1analyze_1_1ScanPlanImplTest.html#aedf710235069721648199f1be502d03d" target="_top" xlink:title=" ">
<polygon fill="white" stroke="#666666" points="428,-314.5 243,-314.5 243,-284.5 428,-284.5 428,-314.5"/>
<text text-anchor="start" x="251" y="-302.5" font-family="Helvetica,sans-Serif" font-size="10.00">com.teragrep.pth_06.ast.analyze.</text>
<text text-anchor="middle" x="335.5" y="-291.5" font-family="Helvetica,sans-Serif" font-size="10.00">ScanPlanImplTest.testFromEarliest</text>
</a>
</g>
</g>
<!-- Node1&#45;&gt;Node6 -->
<g id="edge6_Node000001_Node000006" class="edge">
<title>Node1&#45;&gt;Node6</title>
<g id="a_edge6_Node000001_Node000006"><a xlink:title=" ">
<path fill="none" stroke="#63b8ff" d="M493.62,-268.53C467.18,-273.74 438.31,-279.43 412.61,-284.5"/>
<polygon fill="#63b8ff" stroke="#63b8ff" points="494.49,-271.92 503.62,-266.56 493.14,-265.06 494.49,-271.92"/>
</a>
</g>
</g>
<!-- Node7 -->
<g id="Node000007" class="node">
<title>Node7</title>
<g id="a_Node000007"><a xlink:href="classcom_1_1teragrep_1_1pth__06_1_1ast_1_1analyze_1_1ScanPlanImplTest.html#a1a88553d7dee6737c097fe67c5bb0b1c" target="_top" xlink:title=" ">
<polygon fill="white" stroke="#666666" points="425.5,-266.5 245.5,-266.5 245.5,-236.5 425.5,-236.5 425.5,-266.5"/>
<text text-anchor="start" x="253.5" y="-254.5" font-family="Helvetica,sans-Serif" font-size="10.00">com.teragrep.pth_06.ast.analyze.</text>
<text text-anchor="middle" x="335.5" y="-243.5" font-family="Helvetica,sans-Serif" font-size="10.00">ScanPlanImplTest.testFromLatest</text>
</a>
</g>
</g>
<!-- Node1&#45;&gt;Node7 -->
<g id="edge7_Node000001_Node000007" class="edge">
<title>Node1&#45;&gt;Node7</title>
<g id="a_edge7_Node000001_Node000007"><a xlink:title=" ">
<path fill="none" stroke="#63b8ff" d="M480.69,-251.5C462.51,-251.5 443.64,-251.5 425.78,-251.5"/>
<polygon fill="#63b8ff" stroke="#63b8ff" points="480.71,-255 490.71,-251.5 480.71,-248 480.71,-255"/>
</a>
</g>
</g>
<!-- Node8 -->
<g id="Node000008" class="node">
<title>Node8</title>
<g id="a_Node000008"><a xlink:href="classcom_1_1teragrep_1_1pth__06_1_1ast_1_1analyze_1_1ScanPlanImplTest.html#a2d60f7b657fa96db2c0f195f1cccdc66" target="_top" xlink:title=" ">
<polygon fill="white" stroke="#666666" points="455,-218 216,-218 216,-177 455,-177 455,-218"/>
<text text-anchor="start" x="224" y="-206" font-family="Helvetica,sans-Serif" font-size="10.00">com.teragrep.pth_06.ast.analyze.</text>
<text text-anchor="start" x="224" y="-195" font-family="Helvetica,sans-Serif" font-size="10.00">ScanPlanImplTest.testRangeBetweenUpdated</text>
<text text-anchor="middle" x="335.5" y="-184" font-family="Helvetica,sans-Serif" font-size="10.00">EarliestUpdated</text>
</a>
</g>
</g>
<!-- Node1&#45;&gt;Node8 -->
<g id="edge8_Node000001_Node000008" class="edge">
<title>Node1&#45;&gt;Node8</title>
<g id="a_edge8_Node000001_Node000008"><a xlink:title=" ">
<path fill="none" stroke="#63b8ff" d="M502.34,-234.28C479.01,-229.1 453.18,-223.38 428.99,-218.01"/>
<polygon fill="#63b8ff" stroke="#63b8ff" points="501.65,-237.71 512.17,-236.46 503.17,-230.88 501.65,-237.71"/>
</a>
</g>
</g>
<!-- Node9 -->
<g id="Node000009" class="node">
<title>Node9</title>
<g id="a_Node000009"><a xlink:href="classcom_1_1teragrep_1_1pth__06_1_1ast_1_1analyze_1_1ScanPlanImplTest.html#ab821bbe4d31ba06f4e8b537f7dc9b80d" target="_top" xlink:title=" ">
<polygon fill="white" stroke="#666666" points="455,-159 216,-159 216,-118 455,-118 455,-159"/>
<text text-anchor="start" x="224" y="-147" font-family="Helvetica,sans-Serif" font-size="10.00">com.teragrep.pth_06.ast.analyze.</text>
<text text-anchor="start" x="224" y="-136" font-family="Helvetica,sans-Serif" font-size="10.00">ScanPlanImplTest.testRangeBetweenUpdated</text>
<text text-anchor="middle" x="335.5" y="-125" font-family="Helvetica,sans-Serif" font-size="10.00">EarliestWithinBounds</text>
</a>
</g>
</g>
<!-- Node1&#45;&gt;Node9 -->
<g id="edge9_Node000001_Node000009" class="edge">
<title>Node1&#45;&gt;Node9</title>
<g id="a_edge9_Node000001_Node000009"><a xlink:title=" ">
<path fill="none" stroke="#63b8ff" d="M554.18,-230.15C529.96,-211.12 492.01,-183.85 455,-167.5 447.93,-164.38 440.46,-161.56 432.86,-159.01"/>
<polygon fill="#63b8ff" stroke="#63b8ff" points="552.15,-233 562.15,-236.5 556.51,-227.53 552.15,-233"/>
</a>
</g>
</g>
<!-- Node10 -->
<g id="Node000010" class="node">
<title>Node10</title>
<g id="a_Node000010"><a xlink:href="classcom_1_1teragrep_1_1pth__06_1_1ast_1_1analyze_1_1ScanPlanImplTest.html#a23bbbea8452c7f5fa341a94bd8aa12a2" target="_top" xlink:title=" ">
<polygon fill="white" stroke="#666666" points="455,-100 216,-100 216,-59 455,-59 455,-100"/>
<text text-anchor="start" x="224" y="-88" font-family="Helvetica,sans-Serif" font-size="10.00">com.teragrep.pth_06.ast.analyze.</text>
<text text-anchor="start" x="224" y="-77" font-family="Helvetica,sans-Serif" font-size="10.00">ScanPlanImplTest.testRangeBetweenUpdated</text>
<text text-anchor="middle" x="335.5" y="-66" font-family="Helvetica,sans-Serif" font-size="10.00">LatestUpdated</text>
</a>
</g>
</g>
<!-- Node1&#45;&gt;Node10 -->
<g id="edge10_Node000001_Node000010" class="edge">
<title>Node1&#45;&gt;Node10</title>
<g id="a_edge10_Node000001_Node000010"><a xlink:title=" ">
<path fill="none" stroke="#63b8ff" d="M565.73,-227.48C545.34,-195.3 504.75,-138.75 455,-108.5 449.84,-105.36 444.36,-102.57 438.7,-100.07"/>
<polygon fill="#63b8ff" stroke="#63b8ff" points="562.93,-229.59 571.17,-236.25 568.88,-225.9 562.93,-229.59"/>
</a>
</g>
</g>
<!-- Node11 -->
<g id="Node000011" class="node">
<title>Node11</title>
<g id="a_Node000011"><a xlink:href="classcom_1_1teragrep_1_1pth__06_1_1ast_1_1analyze_1_1ScanPlanImplTest.html#a36678e11f1eb9ba425e323be431443e3" target="_top" xlink:title=" ">
<polygon fill="white" stroke="#666666" points="455,-41 216,-41 216,0 455,0 455,-41"/>
<text text-anchor="start" x="224" y="-29" font-family="Helvetica,sans-Serif" font-size="10.00">com.teragrep.pth_06.ast.analyze.</text>
<text text-anchor="start" x="224" y="-18" font-family="Helvetica,sans-Serif" font-size="10.00">ScanPlanImplTest.testRangeBetweenUpdated</text>
<text text-anchor="middle" x="335.5" y="-7" font-family="Helvetica,sans-Serif" font-size="10.00">LatestWithinBounds</text>
</a>
</g>
</g>
<!-- Node1&#45;&gt;Node11 -->
<g id="edge11_Node000001_Node000011" class="edge">
<title>Node1&#45;&gt;Node11</title>
<g id="a_edge11_Node000001_Node000011"><a xlink:title=" ">
<path fill="none" stroke="#63b8ff" d="M571.73,-226.6C556.11,-183.51 518.03,-95.3 455,-49.5 450.72,-46.39 446.14,-43.61 441.37,-41.12"/>
<polygon fill="#63b8ff" stroke="#63b8ff" points="568.52,-228.01 575.14,-236.28 575.13,-225.69 568.52,-228.01"/>
</a>
</g>
</g>
<!-- Node3&#45;&gt;Node2 -->
<g id="edge3_Node000003_Node000002" class="edge">
<title>Node3&#45;&gt;Node2</title>
<g id="a_edge3_Node000003_Node000002"><a xlink:title=" ">
<path fill="none" stroke="#63b8ff" d="M239.22,-412.33C218.4,-416 196.5,-419.87 176.12,-423.47"/>
<polygon fill="#63b8ff" stroke="#63b8ff" points="240.1,-415.73 249.34,-410.54 238.88,-408.83 240.1,-415.73"/>
</a>
</g>
</g>
<!-- Node4 -->
<g id="Node000004" class="node">
<title>Node4</title>
<g id="a_Node000004"><a xlink:href="classcom_1_1teragrep_1_1pth__06_1_1ast_1_1analyze_1_1ScanPlanImpl.html#a169371cc78c907cc0fea14baaa2c7364" target="_top" xlink:title="Returns stub when new range is outside the original range.">
<polygon fill="white" stroke="#666666" points="180,-405.5 0,-405.5 0,-375.5 180,-375.5 180,-405.5"/>
<text text-anchor="start" x="8" y="-393.5" font-family="Helvetica,sans-Serif" font-size="10.00">com.teragrep.pth_06.ast.analyze.</text>
<text text-anchor="middle" x="90" y="-382.5" font-family="Helvetica,sans-Serif" font-size="10.00">ScanPlanImpl.toRangeBetween</text>
</a>
</g>
</g>
<!-- Node3&#45;&gt;Node4 -->
<g id="edge4_Node000003_Node000004" class="edge">
<title>Node3&#45;&gt;Node4</title>
<g id="a_edge4_Node000003_Node000004"><a xlink:title=" ">
<path fill="none" stroke="#63b8ff" d="M235.19,-393.46C217.01,-393.09 198.14,-392.7 180.28,-392.33"/>
<polygon fill="#63b8ff" stroke="#63b8ff" points="235.14,-396.96 245.21,-393.67 235.29,-389.96 235.14,-396.96"/>
</a>
</g>
</g>
</g>
</svg>
