<?xml version="1.0" encoding="UTF-8" standalone="no"?>
<!DOCTYPE svg PUBLIC "-//W3C//DTD SVG 1.1//EN"
 "http://www.w3.org/Graphics/SVG/1.1/DTD/svg11.dtd">
<!-- Generated by graphviz version 2.43.0 (0)
 -->
<!-- Title: com.teragrep.pth_06.ast.expressions.ScanGroupExpression.scanPlans Pages: 1 -->
<svg width="461pt" height="86pt"
 viewBox="0.00 0.00 461.00 86.00" xmlns="http://www.w3.org/2000/svg" xmlns:xlink="http://www.w3.org/1999/xlink">
<g id="graph0" class="graph" transform="scale(1 1) rotate(0) translate(4 82)">
<title>com.teragrep.pth_06.ast.expressions.ScanGroupExpression.scanPlans</title>
<!-- Node1 -->
<g id="Node000001" class="node">
<title>Node1</title>
<g id="a_Node000001"><a xlink:title=" ">
<polygon fill="#999999" stroke="#666666" points="453,-54 253,-54 253,-24 453,-24 453,-54"/>
<text text-anchor="start" x="261" y="-42" font-family="Helvetica,sans-Serif" font-size="10.00">com.teragrep.pth_06.ast.expressions.</text>
<text text-anchor="middle" x="353" y="-31" font-family="Helvetica,sans-Serif" font-size="10.00">ScanGroupExpression.scanPlans</text>
</a>
</g>
</g>
<!-- Node2 -->
<g id="Node000002" class="node">
<title>Node2</title>
<g id="a_Node000002"><a xlink:href="classcom_1_1teragrep_1_1pth__06_1_1ast_1_1expressions_1_1ScanGroupExpressionImplTest.html#a5d72311ac696a64c5ed5eb2033fe4c5d" target="_top" xlink:title=" ">
<polygon fill="white" stroke="#666666" points="217,-78 0,-78 0,-48 217,-48 217,-78"/>
<text text-anchor="start" x="8" y="-66" font-family="Helvetica,sans-Serif" font-size="10.00">com.teragrep.pth_06.ast.expressions.</text>
<text text-anchor="middle" x="108.5" y="-55" font-family="Helvetica,sans-Serif" font-size="10.00">ScanGroupExpressionImplTest.testEmpty</text>
</a>
</g>
</g>
<!-- Node1&#45;&gt;Node2 -->
<g id="edge1_Node000001_Node000002" class="edge">
<title>Node1&#45;&gt;Node2</title>
<g id="a_edge1_Node000001_Node000002"><a xlink:title=" ">
<path fill="none" stroke="#63b8ff" d="M242.51,-49.84C234.15,-50.66 225.71,-51.5 217.35,-52.33"/>
<polygon fill="#63b8ff" stroke="#63b8ff" points="243.06,-53.3 252.67,-48.83 242.37,-46.33 243.06,-53.3"/>
</a>
</g>
</g>
<!-- Node3 -->
<g id="Node000003" class="node">
<title>Node3</title>
<g id="a_Node000003"><a xlink:href="classcom_1_1teragrep_1_1pth__06_1_1ast_1_1expressions_1_1ScanGroupExpressionImplTest.html#a46d1d38865bf1a16260b1553488fe5d7" target="_top" xlink:title=" ">
<polygon fill="white" stroke="#666666" points="212.5,-30 4.5,-30 4.5,0 212.5,0 212.5,-30"/>
<text text-anchor="start" x="12.5" y="-18" font-family="Helvetica,sans-Serif" font-size="10.00">com.teragrep.pth_06.ast.expressions.</text>
<text text-anchor="middle" x="108.5" y="-7" font-family="Helvetica,sans-Serif" font-size="10.00">ScanGroupExpressionImplTest.testHost</text>
</a>
</g>
</g>
<!-- Node1&#45;&gt;Node3 -->
<g id="edge2_Node000001_Node000003" class="edge">
<title>Node1&#45;&gt;Node3</title>
<g id="a_edge2_Node000001_Node000003"><a xlink:title=" ">
<path fill="none" stroke="#63b8ff" d="M242.7,-28.18C232.69,-27.19 222.57,-26.19 212.61,-25.2"/>
<polygon fill="#63b8ff" stroke="#63b8ff" points="242.37,-31.67 252.67,-29.17 243.06,-24.7 242.37,-31.67"/>
</a>
</g>
</g>
</g>
</svg>
