<?xml version="1.0" encoding="UTF-8" standalone="no"?>
<!DOCTYPE svg PUBLIC "-//W3C//DTD SVG 1.1//EN"
 "http://www.w3.org/Graphics/SVG/1.1/DTD/svg11.dtd">
<!-- Generated by graphviz version 2.43.0 (0)
 -->
<!-- Title: com.teragrep.pth_06.planner.KafkaQuery Pages: 1 -->
<svg width="256pt" height="93pt"
 viewBox="0.00 0.00 255.50 93.00" xmlns="http://www.w3.org/2000/svg" xmlns:xlink="http://www.w3.org/1999/xlink">
<g id="graph0" class="graph" transform="scale(1 1) rotate(0) translate(4 89)">
<title>com.teragrep.pth_06.planner.KafkaQuery</title>
<!-- Node1 -->
<g id="Node000001" class="node">
<title>Node1</title>
<g id="a_Node000001"><a xlink:title=" ">
<polygon fill="#999999" stroke="#666666" points="178.5,-30 18.5,-30 18.5,0 178.5,0 178.5,-30"/>
<text text-anchor="start" x="26.5" y="-18" font-family="Helvetica,sans-Serif" font-size="10.00">com.teragrep.pth_06.planner.</text>
<text text-anchor="middle" x="98.5" y="-7" font-family="Helvetica,sans-Serif" font-size="10.00">KafkaQuery</text>
</a>
</g>
</g>
<!-- Node2 -->
<g id="Node000002" class="node">
<title>Node2</title>
<g id="a_Node000002"><a xlink:title=" ">
<polygon fill="white" stroke="#666666" points="65,-85 0,-85 0,-66 65,-66 65,-85"/>
<text text-anchor="middle" x="32.5" y="-73" font-family="Helvetica,sans-Serif" font-size="10.00">Closeable</text>
</a>
</g>
</g>
<!-- Node2&#45;&gt;Node1 -->
<g id="edge1_Node000001_Node000002" class="edge">
<title>Node2&#45;&gt;Node1</title>
<g id="a_edge1_Node000001_Node000002"><a xlink:title=" ">
<path fill="none" stroke="#63b8ff" d="M49.72,-59.23C59.88,-50.23 72.65,-38.91 82.58,-30.11"/>
<polygon fill="#63b8ff" stroke="#63b8ff" points="47.4,-56.62 42.24,-65.87 52.04,-61.85 47.4,-56.62"/>
</a>
</g>
</g>
<!-- Node3 -->
<g id="Node000003" class="node">
<title>Node3</title>
<g id="a_Node000003"><a xlink:href="interfacecom_1_1teragrep_1_1pth__06_1_1Stubable.html" target="_top" xlink:title=" ">
<polygon fill="white" stroke="#666666" points="247.5,-85 83.5,-85 83.5,-66 247.5,-66 247.5,-85"/>
<text text-anchor="middle" x="165.5" y="-73" font-family="Helvetica,sans-Serif" font-size="10.00">com.teragrep.pth_06.Stubable</text>
</a>
</g>
</g>
<!-- Node3&#45;&gt;Node1 -->
<g id="edge2_Node000001_Node000003" class="edge">
<title>Node3&#45;&gt;Node1</title>
<g id="a_edge2_Node000001_Node000003"><a xlink:title=" ">
<path fill="none" stroke="#63b8ff" d="M148.02,-59.23C137.7,-50.23 124.74,-38.91 114.67,-30.11"/>
<polygon fill="#63b8ff" stroke="#63b8ff" points="145.78,-61.93 155.61,-65.87 150.38,-56.65 145.78,-61.93"/>
</a>
</g>
</g>
</g>
</svg>
