<?xml version="1.0" encoding="UTF-8" standalone="no"?>
<!DOCTYPE svg PUBLIC "-//W3C//DTD SVG 1.1//EN"
 "http://www.w3.org/Graphics/SVG/1.1/DTD/svg11.dtd">
<!-- Generated by graphviz version 2.43.0 (0)
 -->
<!-- Title: com.teragrep.pth_06.ast.expressions.ValueExpression Pages: 1 -->
<svg width="680pt" height="278pt"
 viewBox="0.00 0.00 680.00 278.00" xmlns="http://www.w3.org/2000/svg" xmlns:xlink="http://www.w3.org/1999/xlink">
<g id="graph0" class="graph" transform="scale(1 1) rotate(0) translate(4 274)">
<title>com.teragrep.pth_06.ast.expressions.ValueExpression</title>
<!-- Node1 -->
<g id="Node000001" class="node">
<title>Node1</title>
<g id="a_Node000001"><a xlink:title=" ">
<polygon fill="#999999" stroke="#666666" points="436,-150 236,-150 236,-120 436,-120 436,-150"/>
<text text-anchor="start" x="244" y="-138" font-family="Helvetica,sans-Serif" font-size="10.00">com.teragrep.pth_06.ast.expressions.</text>
<text text-anchor="middle" x="336" y="-127" font-family="Helvetica,sans-Serif" font-size="10.00">ValueExpression</text>
</a>
</g>
</g>
<!-- Node3 -->
<g id="Node000003" class="node">
<title>Node3</title>
<g id="a_Node000003"><a xlink:href="classcom_1_1teragrep_1_1pth__06_1_1ast_1_1expressions_1_1EarliestExpression.html" target="_top" xlink:title=" ">
<polygon fill="white" stroke="#666666" points="672,-270 472,-270 472,-240 672,-240 672,-270"/>
<text text-anchor="start" x="480" y="-258" font-family="Helvetica,sans-Serif" font-size="10.00">com.teragrep.pth_06.ast.expressions.</text>
<text text-anchor="middle" x="572" y="-247" font-family="Helvetica,sans-Serif" font-size="10.00">EarliestExpression</text>
</a>
</g>
</g>
<!-- Node1&#45;&gt;Node3 -->
<g id="edge2_Node000001_Node000003" class="edge">
<title>Node1&#45;&gt;Node3</title>
<g id="a_edge2_Node000001_Node000003"><a xlink:title=" ">
<path fill="none" stroke="#63b8ff" d="M361.32,-156.7C387.06,-178.55 429.74,-211.72 472,-231 479.48,-234.41 487.51,-237.38 495.64,-239.95"/>
<polygon fill="#63b8ff" stroke="#63b8ff" points="363.44,-153.91 353.58,-150.03 358.87,-159.21 363.44,-153.91"/>
</a>
</g>
</g>
<!-- Node4 -->
<g id="Node000004" class="node">
<title>Node4</title>
<g id="a_Node000004"><a xlink:href="classcom_1_1teragrep_1_1pth__06_1_1ast_1_1expressions_1_1HostExpression.html" target="_top" xlink:title=" ">
<polygon fill="white" stroke="#666666" points="672,-222 472,-222 472,-192 672,-192 672,-222"/>
<text text-anchor="start" x="480" y="-210" font-family="Helvetica,sans-Serif" font-size="10.00">com.teragrep.pth_06.ast.expressions.</text>
<text text-anchor="middle" x="572" y="-199" font-family="Helvetica,sans-Serif" font-size="10.00">HostExpression</text>
</a>
</g>
</g>
<!-- Node1&#45;&gt;Node4 -->
<g id="edge3_Node000001_Node000004" class="edge">
<title>Node1&#45;&gt;Node4</title>
<g id="a_edge3_Node000001_Node000004"><a xlink:title=" ">
<path fill="none" stroke="#63b8ff" d="M385.39,-153.58C410.93,-163.04 442.94,-174.34 472,-183 482.51,-186.13 493.73,-189.16 504.71,-191.94"/>
<polygon fill="#63b8ff" stroke="#63b8ff" points="386.52,-150.27 375.93,-150.05 384.08,-156.83 386.52,-150.27"/>
</a>
</g>
</g>
<!-- Node5 -->
<g id="Node000005" class="node">
<title>Node5</title>
<g id="a_Node000005"><a xlink:href="classcom_1_1teragrep_1_1pth__06_1_1ast_1_1expressions_1_1IndexExpression.html" target="_top" xlink:title=" ">
<polygon fill="white" stroke="#666666" points="672,-174 472,-174 472,-144 672,-144 672,-174"/>
<text text-anchor="start" x="480" y="-162" font-family="Helvetica,sans-Serif" font-size="10.00">com.teragrep.pth_06.ast.expressions.</text>
<text text-anchor="middle" x="572" y="-151" font-family="Helvetica,sans-Serif" font-size="10.00">IndexExpression</text>
</a>
</g>
</g>
<!-- Node1&#45;&gt;Node5 -->
<g id="edge4_Node000001_Node000005" class="edge">
<title>Node1&#45;&gt;Node5</title>
<g id="a_edge4_Node000001_Node000005"><a xlink:title=" ">
<path fill="none" stroke="#63b8ff" d="M446.27,-146.21C454.85,-147.09 463.48,-147.97 471.98,-148.84"/>
<polygon fill="#63b8ff" stroke="#63b8ff" points="446.54,-142.72 436.24,-145.18 445.83,-149.68 446.54,-142.72"/>
</a>
</g>
</g>
<!-- Node6 -->
<g id="Node000006" class="node">
<title>Node6</title>
<g id="a_Node000006"><a xlink:href="classcom_1_1teragrep_1_1pth__06_1_1ast_1_1expressions_1_1IndexStatementExpression.html" target="_top" xlink:title=" ">
<polygon fill="white" stroke="#666666" points="672,-126 472,-126 472,-96 672,-96 672,-126"/>
<text text-anchor="start" x="480" y="-114" font-family="Helvetica,sans-Serif" font-size="10.00">com.teragrep.pth_06.ast.expressions.</text>
<text text-anchor="middle" x="572" y="-103" font-family="Helvetica,sans-Serif" font-size="10.00">IndexStatementExpression</text>
</a>
</g>
</g>
<!-- Node1&#45;&gt;Node6 -->
<g id="edge5_Node000001_Node000006" class="edge">
<title>Node1&#45;&gt;Node6</title>
<g id="a_edge5_Node000001_Node000006"><a xlink:title=" ">
<path fill="none" stroke="#63b8ff" d="M446.27,-123.79C454.85,-122.91 463.48,-122.03 471.98,-121.16"/>
<polygon fill="#63b8ff" stroke="#63b8ff" points="445.83,-120.32 436.24,-124.82 446.54,-127.28 445.83,-120.32"/>
</a>
</g>
</g>
<!-- Node7 -->
<g id="Node000007" class="node">
<title>Node7</title>
<g id="a_Node000007"><a xlink:href="classcom_1_1teragrep_1_1pth__06_1_1ast_1_1expressions_1_1LatestExpression.html" target="_top" xlink:title=" ">
<polygon fill="white" stroke="#666666" points="672,-78 472,-78 472,-48 672,-48 672,-78"/>
<text text-anchor="start" x="480" y="-66" font-family="Helvetica,sans-Serif" font-size="10.00">com.teragrep.pth_06.ast.expressions.</text>
<text text-anchor="middle" x="572" y="-55" font-family="Helvetica,sans-Serif" font-size="10.00">LatestExpression</text>
</a>
</g>
</g>
<!-- Node1&#45;&gt;Node7 -->
<g id="edge6_Node000001_Node000007" class="edge">
<title>Node1&#45;&gt;Node7</title>
<g id="a_edge6_Node000001_Node000007"><a xlink:title=" ">
<path fill="none" stroke="#63b8ff" d="M385.39,-116.42C410.93,-106.96 442.94,-95.66 472,-87 482.51,-83.87 493.73,-80.84 504.71,-78.06"/>
<polygon fill="#63b8ff" stroke="#63b8ff" points="384.08,-113.17 375.93,-119.95 386.52,-119.73 384.08,-113.17"/>
</a>
</g>
</g>
<!-- Node8 -->
<g id="Node000008" class="node">
<title>Node8</title>
<g id="a_Node000008"><a xlink:href="classcom_1_1teragrep_1_1pth__06_1_1ast_1_1expressions_1_1SourceTypeExpression.html" target="_top" xlink:title=" ">
<polygon fill="white" stroke="#666666" points="672,-30 472,-30 472,0 672,0 672,-30"/>
<text text-anchor="start" x="480" y="-18" font-family="Helvetica,sans-Serif" font-size="10.00">com.teragrep.pth_06.ast.expressions.</text>
<text text-anchor="middle" x="572" y="-7" font-family="Helvetica,sans-Serif" font-size="10.00">SourceTypeExpression</text>
</a>
</g>
</g>
<!-- Node1&#45;&gt;Node8 -->
<g id="edge7_Node000001_Node000008" class="edge">
<title>Node1&#45;&gt;Node8</title>
<g id="a_edge7_Node000001_Node000008"><a xlink:title=" ">
<path fill="none" stroke="#63b8ff" d="M361.32,-113.3C387.06,-91.45 429.74,-58.28 472,-39 479.48,-35.59 487.51,-32.62 495.64,-30.05"/>
<polygon fill="#63b8ff" stroke="#63b8ff" points="358.87,-110.79 353.58,-119.97 363.44,-116.09 358.87,-110.79"/>
</a>
</g>
</g>
<!-- Node2 -->
<g id="Node000002" class="node">
<title>Node2</title>
<g id="a_Node000002"><a xlink:href="interfacecom_1_1teragrep_1_1pth__06_1_1ast_1_1expressions_1_1Expression.html" target="_top" xlink:title=" ">
<polygon fill="white" stroke="#666666" points="200,-150 0,-150 0,-120 200,-120 200,-150"/>
<text text-anchor="start" x="8" y="-138" font-family="Helvetica,sans-Serif" font-size="10.00">com.teragrep.pth_06.ast.expressions.</text>
<text text-anchor="middle" x="100" y="-127" font-family="Helvetica,sans-Serif" font-size="10.00">Expression</text>
</a>
</g>
</g>
<!-- Node2&#45;&gt;Node1 -->
<g id="edge1_Node000001_Node000002" class="edge">
<title>Node2&#45;&gt;Node1</title>
<g id="a_edge1_Node000001_Node000002"><a xlink:title=" ">
<path fill="none" stroke="#63b8ff" d="M210.27,-135C218.85,-135 227.48,-135 235.98,-135"/>
<polygon fill="#63b8ff" stroke="#63b8ff" points="210.24,-131.5 200.24,-135 210.24,-138.5 210.24,-131.5"/>
</a>
</g>
</g>
</g>
</svg>
