<?xml version="1.0" encoding="UTF-8" standalone="no"?>
<!DOCTYPE svg PUBLIC "-//W3C//DTD SVG 1.1//EN"
 "http://www.w3.org/Graphics/SVG/1.1/DTD/svg11.dtd">
<!-- Generated by graphviz version 2.43.0 (0)
 -->
<!-- Title: com.teragrep.pth_06.ast.expressions.LogicalExpression.children Pages: 1 -->
<svg width="519pt" height="230pt"
 viewBox="0.00 0.00 519.00 230.00" xmlns="http://www.w3.org/2000/svg" xmlns:xlink="http://www.w3.org/1999/xlink">
<g id="graph0" class="graph" transform="scale(1 1) rotate(0) translate(4 226)">
<title>com.teragrep.pth_06.ast.expressions.LogicalExpression.children</title>
<!-- Node1 -->
<g id="Node000001" class="node">
<title>Node1</title>
<g id="a_Node000001"><a xlink:title=" ">
<polygon fill="#999999" stroke="#666666" points="511,-126 311,-126 311,-96 511,-96 511,-126"/>
<text text-anchor="start" x="319" y="-114" font-family="Helvetica,sans-Serif" font-size="10.00">com.teragrep.pth_06.ast.expressions.</text>
<text text-anchor="middle" x="411" y="-103" font-family="Helvetica,sans-Serif" font-size="10.00">LogicalExpression.children</text>
</a>
</g>
</g>
<!-- Node2 -->
<g id="Node000002" class="node">
<title>Node2</title>
<g id="a_Node000002"><a xlink:href="classcom_1_1teragrep_1_1pth__06_1_1ast_1_1expressions_1_1ScanGroupExpressionImpl.html#a24d8159b29229918239dc19eda0d62f2" target="_top" xlink:title=" ">
<polygon fill="white" stroke="#666666" points="275,-222 0,-222 0,-192 275,-192 275,-222"/>
<text text-anchor="start" x="8" y="-210" font-family="Helvetica,sans-Serif" font-size="10.00">com.teragrep.pth_06.ast.expressions.</text>
<text text-anchor="middle" x="137.5" y="-199" font-family="Helvetica,sans-Serif" font-size="10.00">ScanGroupExpressionImpl.ScanGroupExpressionImpl</text>
</a>
</g>
</g>
<!-- Node1&#45;&gt;Node2 -->
<g id="edge1_Node000001_Node000002" class="edge">
<title>Node1&#45;&gt;Node2</title>
<g id="a_edge1_Node000001_Node000002"><a xlink:title=" ">
<path fill="none" stroke="#63b8ff" d="M378.65,-131.41C352.09,-147.78 312.45,-170.09 275,-183 264.99,-186.45 254.39,-189.42 243.7,-191.98"/>
<polygon fill="#63b8ff" stroke="#63b8ff" points="380.51,-134.38 387.13,-126.11 376.8,-128.44 380.51,-134.38"/>
</a>
</g>
</g>
<!-- Node3 -->
<g id="Node000003" class="node">
<title>Node3</title>
<g id="a_Node000003"><a xlink:href="classcom_1_1teragrep_1_1pth__06_1_1ast_1_1expressions_1_1AndExpressionTest.html#aa75133eeed6fa8980bd765ca12b8002c" target="_top" xlink:title=" ">
<polygon fill="white" stroke="#666666" points="237.5,-174 37.5,-174 37.5,-144 237.5,-144 237.5,-174"/>
<text text-anchor="start" x="45.5" y="-162" font-family="Helvetica,sans-Serif" font-size="10.00">com.teragrep.pth_06.ast.expressions.</text>
<text text-anchor="middle" x="137.5" y="-151" font-family="Helvetica,sans-Serif" font-size="10.00">AndExpressionTest.testAsLogical</text>
</a>
</g>
</g>
<!-- Node1&#45;&gt;Node3 -->
<g id="edge2_Node000001_Node000003" class="edge">
<title>Node1&#45;&gt;Node3</title>
<g id="a_edge2_Node000001_Node000003"><a xlink:title=" ">
<path fill="none" stroke="#63b8ff" d="M315.83,-127.76C302.13,-130.2 288.2,-132.67 275,-135 258.53,-137.91 240.95,-141.01 224.06,-143.98"/>
<polygon fill="#63b8ff" stroke="#63b8ff" points="316.51,-131.2 325.75,-126 315.29,-124.31 316.51,-131.2"/>
</a>
</g>
</g>
<!-- Node4 -->
<g id="Node000004" class="node">
<title>Node4</title>
<g id="a_Node000004"><a xlink:href="classcom_1_1teragrep_1_1pth__06_1_1ast_1_1expressions_1_1OrExpressionTest.html#a844f8b009b33910ad24764a7c7ff2b92" target="_top" xlink:title=" ">
<polygon fill="white" stroke="#666666" points="237.5,-126 37.5,-126 37.5,-96 237.5,-96 237.5,-126"/>
<text text-anchor="start" x="45.5" y="-114" font-family="Helvetica,sans-Serif" font-size="10.00">com.teragrep.pth_06.ast.expressions.</text>
<text text-anchor="middle" x="137.5" y="-103" font-family="Helvetica,sans-Serif" font-size="10.00">OrExpressionTest.testAsLogical</text>
</a>
</g>
</g>
<!-- Node1&#45;&gt;Node4 -->
<g id="edge3_Node000001_Node000004" class="edge">
<title>Node1&#45;&gt;Node4</title>
<g id="a_edge3_Node000001_Node000004"><a xlink:title=" ">
<path fill="none" stroke="#63b8ff" d="M300.71,-111C279.94,-111 258.3,-111 237.86,-111"/>
<polygon fill="#63b8ff" stroke="#63b8ff" points="300.83,-114.5 310.83,-111 300.83,-107.5 300.83,-114.5"/>
</a>
</g>
</g>
<!-- Node5 -->
<g id="Node000005" class="node">
<title>Node5</title>
<g id="a_Node000005"><a xlink:href="classcom_1_1teragrep_1_1pth__06_1_1ast_1_1expressions_1_1AndExpressionTest.html#a0c55adf55f79092a6b8359c12890486e" target="_top" xlink:title=" ">
<polygon fill="white" stroke="#666666" points="237.5,-78 37.5,-78 37.5,-48 237.5,-48 237.5,-78"/>
<text text-anchor="start" x="45.5" y="-66" font-family="Helvetica,sans-Serif" font-size="10.00">com.teragrep.pth_06.ast.expressions.</text>
<text text-anchor="middle" x="137.5" y="-55" font-family="Helvetica,sans-Serif" font-size="10.00">AndExpressionTest.testChildren</text>
</a>
</g>
</g>
<!-- Node1&#45;&gt;Node5 -->
<g id="edge4_Node000001_Node000005" class="edge">
<title>Node1&#45;&gt;Node5</title>
<g id="a_edge4_Node000001_Node000005"><a xlink:title=" ">
<path fill="none" stroke="#63b8ff" d="M315.83,-94.24C302.13,-91.8 288.2,-89.33 275,-87 258.53,-84.09 240.95,-80.99 224.06,-78.02"/>
<polygon fill="#63b8ff" stroke="#63b8ff" points="315.29,-97.69 325.75,-96 316.51,-90.8 315.29,-97.69"/>
</a>
</g>
</g>
<!-- Node6 -->
<g id="Node000006" class="node">
<title>Node6</title>
<g id="a_Node000006"><a xlink:href="classcom_1_1teragrep_1_1pth__06_1_1ast_1_1expressions_1_1OrExpressionTest.html#acf4be55f75e07f1ba045553d1ec06761" target="_top" xlink:title=" ">
<polygon fill="white" stroke="#666666" points="237.5,-30 37.5,-30 37.5,0 237.5,0 237.5,-30"/>
<text text-anchor="start" x="45.5" y="-18" font-family="Helvetica,sans-Serif" font-size="10.00">com.teragrep.pth_06.ast.expressions.</text>
<text text-anchor="middle" x="137.5" y="-7" font-family="Helvetica,sans-Serif" font-size="10.00">OrExpressionTest.testChildren</text>
</a>
</g>
</g>
<!-- Node1&#45;&gt;Node6 -->
<g id="edge5_Node000001_Node000006" class="edge">
<title>Node1&#45;&gt;Node6</title>
<g id="a_edge5_Node000001_Node000006"><a xlink:title=" ">
<path fill="none" stroke="#63b8ff" d="M378.65,-90.59C352.09,-74.22 312.45,-51.91 275,-39 263.17,-34.92 250.52,-31.51 237.86,-28.66"/>
<polygon fill="#63b8ff" stroke="#63b8ff" points="376.8,-93.56 387.13,-95.89 380.51,-87.62 376.8,-93.56"/>
</a>
</g>
</g>
</g>
</svg>
