<?xml version="1.0" encoding="UTF-8" standalone="no"?>
<!DOCTYPE svg PUBLIC "-//W3C//DTD SVG 1.1//EN"
 "http://www.w3.org/Graphics/SVG/1.1/DTD/svg11.dtd">
<!-- Generated by graphviz version 2.43.0 (0)
 -->
<!-- Title: com.teragrep.pth_06.ast.analyze.ScanRange.toRangeBetween Pages: 1 -->
<svg width="436pt" height="344pt"
 viewBox="0.00 0.00 436.00 344.00" xmlns="http://www.w3.org/2000/svg" xmlns:xlink="http://www.w3.org/1999/xlink">
<g id="graph0" class="graph" transform="scale(1 1) rotate(0) translate(4 340)">
<title>com.teragrep.pth_06.ast.analyze.ScanRange.toRangeBetween</title>
<!-- Node1 -->
<g id="Node000001" class="node">
<title>Node1</title>
<g id="a_Node000001"><a xlink:title="Returns stub when new range is outside the original range.">
<polygon fill="#999999" stroke="#666666" points="428,-182.5 248,-182.5 248,-152.5 428,-152.5 428,-182.5"/>
<text text-anchor="start" x="256" y="-170.5" font-family="Helvetica,sans-Serif" font-size="10.00">com.teragrep.pth_06.ast.analyze.</text>
<text text-anchor="middle" x="338" y="-159.5" font-family="Helvetica,sans-Serif" font-size="10.00">ScanRange.toRangeBetween</text>
</a>
</g>
</g>
<!-- Node2 -->
<g id="Node000002" class="node">
<title>Node2</title>
<g id="a_Node000002"><a xlink:href="classcom_1_1teragrep_1_1pth__06_1_1ast_1_1analyze_1_1ScanRangeImplTest.html#ab63ce3091ae6aaa1946660f7d5b78824" target="_top" xlink:title=" ">
<polygon fill="white" stroke="#666666" points="209.5,-336 2.5,-336 2.5,-295 209.5,-295 209.5,-336"/>
<text text-anchor="start" x="10.5" y="-324" font-family="Helvetica,sans-Serif" font-size="10.00">com.teragrep.pth_06.ast.analyze.</text>
<text text-anchor="start" x="10.5" y="-313" font-family="Helvetica,sans-Serif" font-size="10.00">ScanRangeImplTest.testRangeBetween</text>
<text text-anchor="middle" x="106" y="-302" font-family="Helvetica,sans-Serif" font-size="10.00">UpdatedEarliestUpdated</text>
</a>
</g>
</g>
<!-- Node1&#45;&gt;Node2 -->
<g id="edge1_Node000001_Node000002" class="edge">
<title>Node1&#45;&gt;Node2</title>
<g id="a_edge1_Node000001_Node000002"><a xlink:title=" ">
<path fill="none" stroke="#63b8ff" d="M318.96,-190.52C296.65,-217.44 256.19,-261.48 212,-286.5 206.49,-289.62 200.62,-292.42 194.58,-294.93"/>
<polygon fill="#63b8ff" stroke="#63b8ff" points="321.68,-192.72 325.28,-182.76 316.25,-188.3 321.68,-192.72"/>
</a>
</g>
</g>
<!-- Node3 -->
<g id="Node000003" class="node">
<title>Node3</title>
<g id="a_Node000003"><a xlink:href="classcom_1_1teragrep_1_1pth__06_1_1ast_1_1analyze_1_1ScanRangeImplTest.html#a895f5be6e06d5aeedb3b6d9c500787cb" target="_top" xlink:title=" ">
<polygon fill="white" stroke="#666666" points="209.5,-277 2.5,-277 2.5,-236 209.5,-236 209.5,-277"/>
<text text-anchor="start" x="10.5" y="-265" font-family="Helvetica,sans-Serif" font-size="10.00">com.teragrep.pth_06.ast.analyze.</text>
<text text-anchor="start" x="10.5" y="-254" font-family="Helvetica,sans-Serif" font-size="10.00">ScanRangeImplTest.testRangeBetween</text>
<text text-anchor="middle" x="106" y="-243" font-family="Helvetica,sans-Serif" font-size="10.00">UpdatedEarliestWithinBounds</text>
</a>
</g>
</g>
<!-- Node1&#45;&gt;Node3 -->
<g id="edge2_Node000001_Node000003" class="edge">
<title>Node1&#45;&gt;Node3</title>
<g id="a_edge2_Node000001_Node000003"><a xlink:title=" ">
<path fill="none" stroke="#63b8ff" d="M300.38,-187.21C275.86,-199.88 242.58,-216.04 212,-227.5 204.03,-230.49 195.62,-233.32 187.17,-235.96"/>
<polygon fill="#63b8ff" stroke="#63b8ff" points="302.08,-190.27 309.33,-182.55 298.84,-184.07 302.08,-190.27"/>
</a>
</g>
</g>
<!-- Node4 -->
<g id="Node000004" class="node">
<title>Node4</title>
<g id="a_Node000004"><a xlink:href="classcom_1_1teragrep_1_1pth__06_1_1ast_1_1analyze_1_1ScanRangeImplTest.html#ab4517f0cb67cc4f50d43912b21b1978b" target="_top" xlink:title=" ">
<polygon fill="white" stroke="#666666" points="209.5,-218 2.5,-218 2.5,-177 209.5,-177 209.5,-218"/>
<text text-anchor="start" x="10.5" y="-206" font-family="Helvetica,sans-Serif" font-size="10.00">com.teragrep.pth_06.ast.analyze.</text>
<text text-anchor="start" x="10.5" y="-195" font-family="Helvetica,sans-Serif" font-size="10.00">ScanRangeImplTest.testRangeBetween</text>
<text text-anchor="middle" x="106" y="-184" font-family="Helvetica,sans-Serif" font-size="10.00">UpdatedLatestToEarliest</text>
</a>
</g>
</g>
<!-- Node1&#45;&gt;Node4 -->
<g id="edge3_Node000001_Node000004" class="edge">
<title>Node1&#45;&gt;Node4</title>
<g id="a_edge3_Node000001_Node000004"><a xlink:title=" ">
<path fill="none" stroke="#63b8ff" d="M237.71,-180.45C228.39,-181.67 218.94,-182.9 209.59,-184.12"/>
<polygon fill="#63b8ff" stroke="#63b8ff" points="238.28,-183.91 247.75,-179.14 237.38,-176.96 238.28,-183.91"/>
</a>
</g>
</g>
<!-- Node5 -->
<g id="Node000005" class="node">
<title>Node5</title>
<g id="a_Node000005"><a xlink:href="classcom_1_1teragrep_1_1pth__06_1_1ast_1_1analyze_1_1ScanRangeImplTest.html#aabdd7bbc6ed3c369213c6f2900f0fb27" target="_top" xlink:title=" ">
<polygon fill="white" stroke="#666666" points="209.5,-159 2.5,-159 2.5,-118 209.5,-118 209.5,-159"/>
<text text-anchor="start" x="10.5" y="-147" font-family="Helvetica,sans-Serif" font-size="10.00">com.teragrep.pth_06.ast.analyze.</text>
<text text-anchor="start" x="10.5" y="-136" font-family="Helvetica,sans-Serif" font-size="10.00">ScanRangeImplTest.testRangeBetween</text>
<text text-anchor="middle" x="106" y="-125" font-family="Helvetica,sans-Serif" font-size="10.00">UpdatedLatestUpdated</text>
</a>
</g>
</g>
<!-- Node1&#45;&gt;Node5 -->
<g id="edge4_Node000001_Node000005" class="edge">
<title>Node1&#45;&gt;Node5</title>
<g id="a_edge4_Node000001_Node000005"><a xlink:title=" ">
<path fill="none" stroke="#63b8ff" d="M237.71,-154.98C228.39,-153.81 218.94,-152.61 209.59,-151.44"/>
<polygon fill="#63b8ff" stroke="#63b8ff" points="237.39,-158.47 247.75,-156.25 238.26,-151.52 237.39,-158.47"/>
</a>
</g>
</g>
<!-- Node6 -->
<g id="Node000006" class="node">
<title>Node6</title>
<g id="a_Node000006"><a xlink:href="classcom_1_1teragrep_1_1pth__06_1_1ast_1_1analyze_1_1ScanRangeImplTest.html#a6e9457b2aacd651e669e17e3a035bd90" target="_top" xlink:title=" ">
<polygon fill="white" stroke="#666666" points="209.5,-100 2.5,-100 2.5,-59 209.5,-59 209.5,-100"/>
<text text-anchor="start" x="10.5" y="-88" font-family="Helvetica,sans-Serif" font-size="10.00">com.teragrep.pth_06.ast.analyze.</text>
<text text-anchor="start" x="10.5" y="-77" font-family="Helvetica,sans-Serif" font-size="10.00">ScanRangeImplTest.testRangeBetween</text>
<text text-anchor="middle" x="106" y="-66" font-family="Helvetica,sans-Serif" font-size="10.00">UpdatedLatestWithinBounds</text>
</a>
</g>
</g>
<!-- Node1&#45;&gt;Node6 -->
<g id="edge5_Node000001_Node000006" class="edge">
<title>Node1&#45;&gt;Node6</title>
<g id="a_edge5_Node000001_Node000006"><a xlink:title=" ">
<path fill="none" stroke="#63b8ff" d="M298.49,-147.73C274.11,-135.69 241.69,-120.55 212,-109.5 203.03,-106.16 193.51,-102.97 184.01,-100"/>
<polygon fill="#63b8ff" stroke="#63b8ff" points="297.24,-151.02 307.75,-152.34 300.36,-144.75 297.24,-151.02"/>
</a>
</g>
</g>
<!-- Node7 -->
<g id="Node000007" class="node">
<title>Node7</title>
<g id="a_Node000007"><a xlink:href="classcom_1_1teragrep_1_1pth__06_1_1ast_1_1analyze_1_1ScanRangeImplTest.html#a469a5c09559444fdbfeb6bc3c2567a05" target="_top" xlink:title=" ">
<polygon fill="white" stroke="#666666" points="212,-41 0,-41 0,0 212,0 212,-41"/>
<text text-anchor="start" x="8" y="-29" font-family="Helvetica,sans-Serif" font-size="10.00">com.teragrep.pth_06.ast.analyze.</text>
<text text-anchor="start" x="8" y="-18" font-family="Helvetica,sans-Serif" font-size="10.00">ScanRangeImplTest.testToRangeOutside</text>
<text text-anchor="middle" x="106" y="-7" font-family="Helvetica,sans-Serif" font-size="10.00">BoundsStub</text>
</a>
</g>
</g>
<!-- Node1&#45;&gt;Node7 -->
<g id="edge6_Node000001_Node000007" class="edge">
<title>Node1&#45;&gt;Node7</title>
<g id="a_edge6_Node000001_Node000007"><a xlink:title=" ">
<path fill="none" stroke="#63b8ff" d="M318.18,-144.18C295.63,-117.72 255.41,-75.09 212,-50.5 205.81,-47 199.19,-43.88 192.38,-41.1"/>
<polygon fill="#63b8ff" stroke="#63b8ff" points="315.76,-146.73 324.86,-152.15 321.12,-142.24 315.76,-146.73"/>
</a>
</g>
</g>
</g>
</svg>
