<?xml version="1.0" encoding="UTF-8" standalone="no"?>
<!DOCTYPE svg PUBLIC "-//W3C//DTD SVG 1.1//EN"
 "http://www.w3.org/Graphics/SVG/1.1/DTD/svg11.dtd">
<!-- Generated by graphviz version 2.43.0 (0)
 -->
<!-- Title: com.teragrep.pth_06.ast.analyze.ScanRange.intersects Pages: 1 -->
<svg width="436pt" height="264pt"
 viewBox="0.00 0.00 436.00 264.00" xmlns="http://www.w3.org/2000/svg" xmlns:xlink="http://www.w3.org/1999/xlink">
<g id="graph0" class="graph" transform="scale(1 1) rotate(0) translate(4 260)">
<title>com.teragrep.pth_06.ast.analyze.ScanRange.intersects</title>
<!-- Node1 -->
<g id="Node000001" class="node">
<title>Node1</title>
<g id="a_Node000001"><a xlink:title="Returns true if the ranges overlap or touch.">
<polygon fill="#999999" stroke="#666666" points="428,-137.5 248,-137.5 248,-107.5 428,-107.5 428,-137.5"/>
<text text-anchor="start" x="256" y="-125.5" font-family="Helvetica,sans-Serif" font-size="10.00">com.teragrep.pth_06.ast.analyze.</text>
<text text-anchor="middle" x="338" y="-114.5" font-family="Helvetica,sans-Serif" font-size="10.00">ScanRange.intersects</text>
</a>
</g>
</g>
<!-- Node2 -->
<g id="Node000002" class="node">
<title>Node2</title>
<g id="a_Node000002"><a xlink:href="classcom_1_1teragrep_1_1pth__06_1_1ast_1_1analyze_1_1ScanRangeImplTest.html#a5ff0607dc28d36b0630207785f87cddd" target="_top" xlink:title=" ">
<polygon fill="white" stroke="#666666" points="206.5,-256 5.5,-256 5.5,-215 206.5,-215 206.5,-256"/>
<text text-anchor="start" x="13.5" y="-244" font-family="Helvetica,sans-Serif" font-size="10.00">com.teragrep.pth_06.ast.analyze.</text>
<text text-anchor="start" x="13.5" y="-233" font-family="Helvetica,sans-Serif" font-size="10.00">ScanRangeImplTest.testDifferentFilter</text>
<text text-anchor="middle" x="106" y="-222" font-family="Helvetica,sans-Serif" font-size="10.00">ListDoesNotIntersect</text>
</a>
</g>
</g>
<!-- Node1&#45;&gt;Node2 -->
<g id="edge1_Node000001_Node000002" class="edge">
<title>Node1&#45;&gt;Node2</title>
<g id="a_edge1_Node000001_Node000002"><a xlink:title=" ">
<path fill="none" stroke="#63b8ff" d="M310.64,-143.93C286.32,-162.76 248.56,-189.71 212,-206.5 205.3,-209.58 198.2,-212.39 190.98,-214.95"/>
<polygon fill="#63b8ff" stroke="#63b8ff" points="312.95,-146.56 318.66,-137.63 308.63,-141.06 312.95,-146.56"/>
</a>
</g>
</g>
<!-- Node3 -->
<g id="Node000003" class="node">
<title>Node3</title>
<g id="a_Node000003"><a xlink:href="classcom_1_1teragrep_1_1pth__06_1_1ast_1_1analyze_1_1ScanRangeImplTest.html#ae41e4e7822333f59fe99739b611e4e9f" target="_top" xlink:title=" ">
<polygon fill="white" stroke="#666666" points="212,-197 0,-197 0,-156 212,-156 212,-197"/>
<text text-anchor="start" x="8" y="-185" font-family="Helvetica,sans-Serif" font-size="10.00">com.teragrep.pth_06.ast.analyze.</text>
<text text-anchor="start" x="8" y="-174" font-family="Helvetica,sans-Serif" font-size="10.00">ScanRangeImplTest.testDifferentStream</text>
<text text-anchor="middle" x="106" y="-163" font-family="Helvetica,sans-Serif" font-size="10.00">IDDoesNotIntersect</text>
</a>
</g>
</g>
<!-- Node1&#45;&gt;Node3 -->
<g id="edge2_Node000001_Node000003" class="edge">
<title>Node1&#45;&gt;Node3</title>
<g id="a_edge2_Node000001_Node000003"><a xlink:title=" ">
<path fill="none" stroke="#63b8ff" d="M263.05,-139.86C241.17,-145 217.01,-150.67 194.36,-155.99"/>
<polygon fill="#63b8ff" stroke="#63b8ff" points="264,-143.24 272.93,-137.54 262.4,-136.42 264,-143.24"/>
</a>
</g>
</g>
<!-- Node4 -->
<g id="Node000004" class="node">
<title>Node4</title>
<g id="a_Node000004"><a xlink:href="classcom_1_1teragrep_1_1pth__06_1_1ast_1_1analyze_1_1ScanRangeImplTest.html#a036a52c346d13cf812e958ec2474b995" target="_top" xlink:title=" ">
<polygon fill="white" stroke="#666666" points="206,-137.5 6,-137.5 6,-107.5 206,-107.5 206,-137.5"/>
<text text-anchor="start" x="14" y="-125.5" font-family="Helvetica,sans-Serif" font-size="10.00">com.teragrep.pth_06.ast.analyze.</text>
<text text-anchor="middle" x="106" y="-114.5" font-family="Helvetica,sans-Serif" font-size="10.00">ScanRangeImplTest.testIntersectsEnd</text>
</a>
</g>
</g>
<!-- Node1&#45;&gt;Node4 -->
<g id="edge3_Node000001_Node000004" class="edge">
<title>Node1&#45;&gt;Node4</title>
<g id="a_edge3_Node000001_Node000004"><a xlink:title=" ">
<path fill="none" stroke="#63b8ff" d="M237.44,-122.5C227.06,-122.5 216.5,-122.5 206.13,-122.5"/>
<polygon fill="#63b8ff" stroke="#63b8ff" points="237.75,-126 247.75,-122.5 237.75,-119 237.75,-126"/>
</a>
</g>
</g>
<!-- Node5 -->
<g id="Node000005" class="node">
<title>Node5</title>
<g id="a_Node000005"><a xlink:href="classcom_1_1teragrep_1_1pth__06_1_1ast_1_1analyze_1_1ScanRangeImplTest.html#a9c8e8b34ba6796989454c3f5c3dd78fa" target="_top" xlink:title=" ">
<polygon fill="white" stroke="#666666" points="208.5,-89.5 3.5,-89.5 3.5,-59.5 208.5,-59.5 208.5,-89.5"/>
<text text-anchor="start" x="11.5" y="-77.5" font-family="Helvetica,sans-Serif" font-size="10.00">com.teragrep.pth_06.ast.analyze.</text>
<text text-anchor="middle" x="106" y="-66.5" font-family="Helvetica,sans-Serif" font-size="10.00">ScanRangeImplTest.testIntersectsStart</text>
</a>
</g>
</g>
<!-- Node1&#45;&gt;Node5 -->
<g id="edge4_Node000001_Node000005" class="edge">
<title>Node1&#45;&gt;Node5</title>
<g id="a_edge4_Node000001_Node000005"><a xlink:title=" ">
<path fill="none" stroke="#63b8ff" d="M254.75,-105.33C229.96,-100.16 202.95,-94.52 178.89,-89.5"/>
<polygon fill="#63b8ff" stroke="#63b8ff" points="254.35,-108.83 264.86,-107.44 255.78,-101.97 254.35,-108.83"/>
</a>
</g>
</g>
<!-- Node6 -->
<g id="Node000006" class="node">
<title>Node6</title>
<g id="a_Node000006"><a xlink:href="classcom_1_1teragrep_1_1pth__06_1_1ast_1_1analyze_1_1ScanRangeImplTest.html#ac76652722eae7bfa35f53a79b1c911e3" target="_top" xlink:title=" ">
<polygon fill="white" stroke="#666666" points="209,-41 3,-41 3,0 209,0 209,-41"/>
<text text-anchor="start" x="11" y="-29" font-family="Helvetica,sans-Serif" font-size="10.00">com.teragrep.pth_06.ast.analyze.</text>
<text text-anchor="start" x="11" y="-18" font-family="Helvetica,sans-Serif" font-size="10.00">ScanRangeImplTest.testTouchingEdges</text>
<text text-anchor="middle" x="106" y="-7" font-family="Helvetica,sans-Serif" font-size="10.00">Intersect</text>
</a>
</g>
</g>
<!-- Node1&#45;&gt;Node6 -->
<g id="edge5_Node000001_Node000006" class="edge">
<title>Node1&#45;&gt;Node6</title>
<g id="a_edge5_Node000001_Node000006"><a xlink:title=" ">
<path fill="none" stroke="#63b8ff" d="M306.28,-101.96C281.62,-86.19 245.69,-64.76 212,-50.5 203.97,-47.1 195.43,-43.95 186.84,-41.08"/>
<polygon fill="#63b8ff" stroke="#63b8ff" points="304.53,-105 314.83,-107.49 308.33,-99.12 304.53,-105"/>
</a>
</g>
</g>
</g>
</svg>
