<?xml version="1.0" encoding="UTF-8" standalone="no"?>
<!DOCTYPE svg PUBLIC "-//W3C//DTD SVG 1.1//EN"
 "http://www.w3.org/Graphics/SVG/1.1/DTD/svg11.dtd">
<!-- Generated by graphviz version 2.43.0 (0)
 -->
<!-- Title: com.teragrep.pth_06.Stubbable.isStub Pages: 1 -->
<svg width="1104pt" height="1116pt"
 viewBox="0.00 0.00 1104.00 1116.00" xmlns="http://www.w3.org/2000/svg" xmlns:xlink="http://www.w3.org/1999/xlink">
<g id="graph0" class="graph" transform="scale(1 1) rotate(0) translate(4 1112)">
<title>com.teragrep.pth_06.Stubbable.isStub</title>
<!-- Node1 -->
<g id="Node000001" class="node">
<title>Node1</title>
<g id="a_Node000001"><a xlink:title=" ">
<polygon fill="#999999" stroke="#666666" points="1096,-618.5 893,-618.5 893,-599.5 1096,-599.5 1096,-618.5"/>
<text text-anchor="middle" x="994.5" y="-606.5" font-family="Helvetica,sans-Serif" font-size="10.00">com.teragrep.pth_06.Stubbable.isStub</text>
</a>
</g>
</g>
<!-- Node2 -->
<g id="Node000002" class="node">
<title>Node2</title>
<g id="a_Node000002"><a xlink:href="classcom_1_1teragrep_1_1pth__06_1_1planner_1_1HBaseQueryImpl.html#a7be62df723f8819e4c878c9ff88ddc64" target="_top" xlink:title="Returns the current batch, this value is updated using the latest() method.">
<polygon fill="white" stroke="#666666" points="819.5,-1108 655.5,-1108 655.5,-1078 819.5,-1078 819.5,-1108"/>
<text text-anchor="start" x="663.5" y="-1096" font-family="Helvetica,sans-Serif" font-size="10.00">com.teragrep.pth_06.planner.</text>
<text text-anchor="middle" x="737.5" y="-1085" font-family="Helvetica,sans-Serif" font-size="10.00">HBaseQueryImpl.currentBatch</text>
</a>
</g>
</g>
<!-- Node1&#45;&gt;Node2 -->
<g id="edge1_Node000001_Node000002" class="edge">
<title>Node1&#45;&gt;Node2</title>
<g id="a_edge1_Node000001_Node000002"><a xlink:title=" ">
<path fill="none" stroke="#63b8ff" d="M994.24,-628.88C995.73,-700.4 990.6,-946.74 857,-1069 846.55,-1078.57 833.37,-1084.75 819.63,-1088.68"/>
<polygon fill="#63b8ff" stroke="#63b8ff" points="997.73,-628.52 993.95,-618.62 990.73,-628.71 997.73,-628.52"/>
</a>
</g>
</g>
<!-- Node3 -->
<g id="Node000003" class="node">
<title>Node3</title>
<g id="a_Node000003"><a xlink:href="classcom_1_1teragrep_1_1pth__06_1_1planner_1_1state_1_1QueryStateImpl.html#ab95683462fab9f828209bec0445bf006" target="_top" xlink:title=" ">
<polygon fill="white" stroke="#666666" points="831.5,-1060 643.5,-1060 643.5,-1030 831.5,-1030 831.5,-1060"/>
<text text-anchor="start" x="651.5" y="-1048" font-family="Helvetica,sans-Serif" font-size="10.00">com.teragrep.pth_06.planner.state.</text>
<text text-anchor="middle" x="737.5" y="-1037" font-family="Helvetica,sans-Serif" font-size="10.00">QueryStateImpl.hasNext</text>
</a>
</g>
</g>
<!-- Node1&#45;&gt;Node3 -->
<g id="edge2_Node000001_Node000003" class="edge">
<title>Node1&#45;&gt;Node3</title>
<g id="a_edge2_Node000001_Node000003"><a xlink:title=" ">
<path fill="none" stroke="#63b8ff" d="M993.45,-628.97C992.12,-695.8 978.27,-913.48 857,-1021 849.62,-1027.54 840.95,-1032.5 831.72,-1036.22"/>
<polygon fill="#63b8ff" stroke="#63b8ff" points="996.95,-628.66 993.57,-618.62 989.95,-628.57 996.95,-628.66"/>
</a>
</g>
</g>
<!-- Node4 -->
<g id="Node000004" class="node">
<title>Node4</title>
<g id="a_Node000004"><a xlink:href="classcom_1_1teragrep_1_1pth__06_1_1planner_1_1HBaseQueryImpl.html#a5a99d0c15e25eab70b9ae20662d988c9" target="_top" xlink:title=" ">
<polygon fill="white" stroke="#666666" points="817.5,-1012 657.5,-1012 657.5,-982 817.5,-982 817.5,-1012"/>
<text text-anchor="start" x="665.5" y="-1000" font-family="Helvetica,sans-Serif" font-size="10.00">com.teragrep.pth_06.planner.</text>
<text text-anchor="middle" x="737.5" y="-989" font-family="Helvetica,sans-Serif" font-size="10.00">HBaseQueryImpl.isOpen</text>
</a>
</g>
</g>
<!-- Node1&#45;&gt;Node4 -->
<g id="edge3_Node000001_Node000004" class="edge">
<title>Node1&#45;&gt;Node4</title>
<g id="a_edge3_Node000001_Node000004"><a xlink:title=" ">
<path fill="none" stroke="#63b8ff" d="M992.2,-628.6C987.09,-689.07 963.09,-874.25 857,-968 845.89,-977.82 832,-984.43 817.67,-988.87"/>
<polygon fill="#63b8ff" stroke="#63b8ff" points="995.7,-628.76 992.97,-618.52 988.72,-628.23 995.7,-628.76"/>
</a>
</g>
</g>
<!-- Node7 -->
<g id="Node000007" class="node">
<title>Node7</title>
<g id="a_Node000007"><a xlink:href="classcom_1_1teragrep_1_1pth__06_1_1planner_1_1HBaseQueryImpl.html#a5cc16609895c644b18d504dc49cbcd64" target="_top" xlink:title="Queries results form hbase until the batch limit is reached and updates latest.">
<polygon fill="white" stroke="#666666" points="160,-988 0,-988 0,-958 160,-958 160,-988"/>
<text text-anchor="start" x="8" y="-976" font-family="Helvetica,sans-Serif" font-size="10.00">com.teragrep.pth_06.planner.</text>
<text text-anchor="middle" x="80" y="-965" font-family="Helvetica,sans-Serif" font-size="10.00">HBaseQueryImpl.latest</text>
</a>
</g>
</g>
<!-- Node1&#45;&gt;Node7 -->
<g id="edge9_Node000001_Node000007" class="edge">
<title>Node1&#45;&gt;Node7</title>
<g id="a_edge9_Node000001_Node000007"><a xlink:title=" ">
<path fill="none" stroke="#63b8ff" d="M991.78,-628.86C985.66,-686.13 959.43,-852.03 857,-924 800.98,-963.36 346.4,-971.11 160.15,-972.63"/>
<polygon fill="#63b8ff" stroke="#63b8ff" points="995.29,-628.93 992.78,-618.64 988.33,-628.25 995.29,-628.93"/>
</a>
</g>
</g>
<!-- Node8 -->
<g id="Node000008" class="node">
<title>Node8</title>
<g id="a_Node000008"><a xlink:href="classcom_1_1teragrep_1_1pth__06_1_1planner_1_1HBaseQueryImpl.html#a3e76b78ec59462795de6428b6e549cab" target="_top" xlink:title=" ">
<polygon fill="white" stroke="#666666" points="582,-926 392,-926 392,-896 582,-896 582,-926"/>
<text text-anchor="start" x="400" y="-914" font-family="Helvetica,sans-Serif" font-size="10.00">com.teragrep.pth_06.planner.</text>
<text text-anchor="middle" x="487" y="-903" font-family="Helvetica,sans-Serif" font-size="10.00">HBaseQueryImpl.mostRecentOffset</text>
</a>
</g>
</g>
<!-- Node1&#45;&gt;Node8 -->
<g id="edge10_Node000001_Node000008" class="edge">
<title>Node1&#45;&gt;Node8</title>
<g id="a_edge10_Node000001_Node000008"><a xlink:title=" ">
<path fill="none" stroke="#63b8ff" d="M991.06,-628.75C983.19,-682.84 953.16,-833.58 857,-897 813.52,-925.68 676.56,-923.59 582.31,-918.24"/>
<polygon fill="#63b8ff" stroke="#63b8ff" points="994.54,-629.12 992.41,-618.74 987.6,-628.18 994.54,-629.12"/>
</a>
</g>
</g>
<!-- Node9 -->
<g id="Node000009" class="node">
<title>Node9</title>
<g id="a_Node000009"><a xlink:href="classcom_1_1teragrep_1_1pth__06_1_1planner_1_1state_1_1QueryStateImpl.html#a3ae74e2cdb689ad0f9e2318fbd94e1b9" target="_top" xlink:title=" ">
<polygon fill="white" stroke="#666666" points="831.5,-888 643.5,-888 643.5,-858 831.5,-858 831.5,-888"/>
<text text-anchor="start" x="651.5" y="-876" font-family="Helvetica,sans-Serif" font-size="10.00">com.teragrep.pth_06.planner.state.</text>
<text text-anchor="middle" x="737.5" y="-865" font-family="Helvetica,sans-Serif" font-size="10.00">QueryStateImpl.next</text>
</a>
</g>
</g>
<!-- Node1&#45;&gt;Node9 -->
<g id="edge12_Node000001_Node000009" class="edge">
<title>Node1&#45;&gt;Node9</title>
<g id="a_edge12_Node000001_Node000009"><a xlink:title=" ">
<path fill="none" stroke="#63b8ff" d="M988.46,-628.44C975.37,-674.75 935.71,-792 857,-849 849.35,-854.54 840.73,-858.87 831.71,-862.25"/>
<polygon fill="#63b8ff" stroke="#63b8ff" points="991.85,-629.3 991.1,-618.73 985.09,-627.46 991.85,-629.3"/>
</a>
</g>
</g>
<!-- Node10 -->
<g id="Node000010" class="node">
<title>Node10</title>
<g id="a_Node000010"><a xlink:href="classcom_1_1teragrep_1_1pth__06_1_1ast_1_1analyze_1_1ScanPlanView.html#aef456f72ac3b4f691579562f88fd6a58" target="_top" xlink:title="Returns results for the next window spanning the given duration in seconds from the last processed ep...">
<polygon fill="white" stroke="#666666" points="827.5,-840 647.5,-840 647.5,-810 827.5,-810 827.5,-840"/>
<text text-anchor="start" x="655.5" y="-828" font-family="Helvetica,sans-Serif" font-size="10.00">com.teragrep.pth_06.ast.analyze.</text>
<text text-anchor="middle" x="737.5" y="-817" font-family="Helvetica,sans-Serif" font-size="10.00">ScanPlanView.nextWindow</text>
</a>
</g>
</g>
<!-- Node1&#45;&gt;Node10 -->
<g id="edge13_Node000001_Node000010" class="edge">
<title>Node1&#45;&gt;Node10</title>
<g id="a_edge13_Node000001_Node000010"><a xlink:title=" ">
<path fill="none" stroke="#63b8ff" d="M985.84,-627.93C968.95,-667.12 924.54,-757.11 857,-801 848.11,-806.78 838.12,-811.21 827.8,-814.6"/>
<polygon fill="#63b8ff" stroke="#63b8ff" points="989.15,-629.09 989.79,-618.51 982.7,-626.38 989.15,-629.09"/>
</a>
</g>
</g>
<!-- Node11 -->
<g id="Node000011" class="node">
<title>Node11</title>
<g id="a_Node000011"><a xlink:href="classcom_1_1teragrep_1_1pth__06_1_1ast_1_1analyze_1_1ScanPlanView.html#a25a3cb7ec9ecd5785c2d5d71fec42934" target="_top" xlink:title=" ">
<polygon fill="white" stroke="#666666" points="827.5,-792 647.5,-792 647.5,-762 827.5,-762 827.5,-792"/>
<text text-anchor="start" x="655.5" y="-780" font-family="Helvetica,sans-Serif" font-size="10.00">com.teragrep.pth_06.ast.analyze.</text>
<text text-anchor="middle" x="737.5" y="-769" font-family="Helvetica,sans-Serif" font-size="10.00">ScanPlanView.open</text>
</a>
</g>
</g>
<!-- Node1&#45;&gt;Node11 -->
<g id="edge14_Node000001_Node000011" class="edge">
<title>Node1&#45;&gt;Node11</title>
<g id="a_edge14_Node000001_Node000011"><a xlink:title=" ">
<path fill="none" stroke="#63b8ff" d="M981.88,-627.19C960.96,-658.33 913.8,-721.53 857,-753 847.91,-758.04 837.91,-762.02 827.68,-765.17"/>
<polygon fill="#63b8ff" stroke="#63b8ff" points="984.94,-628.9 987.51,-618.63 979.09,-625.06 984.94,-628.9"/>
</a>
</g>
</g>
<!-- Node12 -->
<g id="Node000012" class="node">
<title>Node12</title>
<g id="a_Node000012"><a xlink:href="classcom_1_1teragrep_1_1pth__06_1_1planner_1_1BatchSizeLimitedResults.html#ae00e5b05a1d9b84bd282a2ba0ae4fa4f" target="_top" xlink:title=" ">
<polygon fill="white" stroke="#666666" points="824,-744 651,-744 651,-714 824,-714 824,-744"/>
<text text-anchor="start" x="659" y="-732" font-family="Helvetica,sans-Serif" font-size="10.00">com.teragrep.pth_06.planner.</text>
<text text-anchor="middle" x="737.5" y="-721" font-family="Helvetica,sans-Serif" font-size="10.00">BatchSizeLimitedResults.results</text>
</a>
</g>
</g>
<!-- Node1&#45;&gt;Node12 -->
<g id="edge15_Node000001_Node000012" class="edge">
<title>Node1&#45;&gt;Node12</title>
<g id="a_edge15_Node000001_Node000012"><a xlink:title=" ">
<path fill="none" stroke="#63b8ff" d="M975.6,-625.33C950.84,-646.99 903.86,-684.83 857,-705 846.68,-709.44 835.51,-713.07 824.27,-716.04"/>
<polygon fill="#63b8ff" stroke="#63b8ff" points="977.97,-627.91 983.12,-618.65 973.32,-622.68 977.97,-627.91"/>
</a>
</g>
</g>
<!-- Node13 -->
<g id="Node000013" class="node">
<title>Node13</title>
<g id="a_Node000013"><a xlink:href="classcom_1_1teragrep_1_1pth__06_1_1planner_1_1state_1_1QueryStateImpl.html#af6fc36cf0e0bf331fde3a5d82eff3a96" target="_top" xlink:title=" ">
<polygon fill="white" stroke="#666666" points="831.5,-696 643.5,-696 643.5,-666 831.5,-666 831.5,-696"/>
<text text-anchor="start" x="651.5" y="-684" font-family="Helvetica,sans-Serif" font-size="10.00">com.teragrep.pth_06.planner.state.</text>
<text text-anchor="middle" x="737.5" y="-673" font-family="Helvetica,sans-Serif" font-size="10.00">QueryStateImpl.results</text>
</a>
</g>
</g>
<!-- Node1&#45;&gt;Node13 -->
<g id="edge16_Node000001_Node000013" class="edge">
<title>Node1&#45;&gt;Node13</title>
<g id="a_edge16_Node000001_Node000013"><a xlink:title=" ">
<path fill="none" stroke="#63b8ff" d="M960.17,-622.18C932.78,-632.65 892.8,-647.13 857,-657 845.26,-660.24 832.76,-663.24 820.45,-665.94"/>
<polygon fill="#63b8ff" stroke="#63b8ff" points="961.59,-625.38 969.66,-618.52 959.07,-618.85 961.59,-625.38"/>
</a>
</g>
</g>
<!-- Node14 -->
<g id="Node000014" class="node">
<title>Node14</title>
<g id="a_Node000014"><a xlink:href="classcom_1_1teragrep_1_1pth__06_1_1planner_1_1factory_1_1ArchiveQueryFactoryTest.html#af3e29e0f05440d8570c8173ce51eae85" target="_top" xlink:title=" ">
<polygon fill="white" stroke="#666666" points="857,-648 618,-648 618,-618 857,-618 857,-648"/>
<text text-anchor="start" x="626" y="-636" font-family="Helvetica,sans-Serif" font-size="10.00">com.teragrep.pth_06.planner.factory.</text>
<text text-anchor="middle" x="737.5" y="-625" font-family="Helvetica,sans-Serif" font-size="10.00">ArchiveQueryFactoryTest.testArchiveDisabled</text>
</a>
</g>
</g>
<!-- Node1&#45;&gt;Node14 -->
<g id="edge17_Node000001_Node000014" class="edge">
<title>Node1&#45;&gt;Node14</title>
<g id="a_edge17_Node000001_Node000014"><a xlink:title=" ">
<path fill="none" stroke="#63b8ff" d="M882.51,-619.45C874.09,-620.24 865.57,-621.04 857.11,-621.84"/>
<polygon fill="#63b8ff" stroke="#63b8ff" points="883.09,-622.91 892.72,-618.49 882.43,-615.94 883.09,-622.91"/>
</a>
</g>
</g>
<!-- Node15 -->
<g id="Node000015" class="node">
<title>Node15</title>
<g id="a_Node000015"><a xlink:href="classcom_1_1teragrep_1_1pth__06_1_1planner_1_1factory_1_1HBaseQueryFactoryTest.html#accb981fefc6d7891c89815cd93dd6d41" target="_top" xlink:title=" ">
<polygon fill="white" stroke="#666666" points="854,-600 621,-600 621,-570 854,-570 854,-600"/>
<text text-anchor="start" x="629" y="-588" font-family="Helvetica,sans-Serif" font-size="10.00">com.teragrep.pth_06.planner.factory.</text>
<text text-anchor="middle" x="737.5" y="-577" font-family="Helvetica,sans-Serif" font-size="10.00">HBaseQueryFactoryTest.testArchiveDisabled</text>
</a>
</g>
</g>
<!-- Node1&#45;&gt;Node15 -->
<g id="edge18_Node000001_Node000015" class="edge">
<title>Node1&#45;&gt;Node15</title>
<g id="a_edge18_Node000001_Node000015"><a xlink:title=" ">
<path fill="none" stroke="#63b8ff" d="M882.55,-598.56C873.13,-597.67 863.59,-596.77 854.14,-595.88"/>
<polygon fill="#63b8ff" stroke="#63b8ff" points="882.43,-602.06 892.72,-599.51 883.09,-595.09 882.43,-602.06"/>
</a>
</g>
</g>
<!-- Node16 -->
<g id="Node000016" class="node">
<title>Node16</title>
<g id="a_Node000016"><a xlink:href="classcom_1_1teragrep_1_1pth__06_1_1planner_1_1factory_1_1ArchiveQueryFactoryTest.html#ac8c44578cea9b7e3c2f3df29f1cbdea9" target="_top" xlink:title=" ">
<polygon fill="white" stroke="#666666" points="857,-551.5 618,-551.5 618,-510.5 857,-510.5 857,-551.5"/>
<text text-anchor="start" x="626" y="-539.5" font-family="Helvetica,sans-Serif" font-size="10.00">com.teragrep.pth_06.planner.factory.</text>
<text text-anchor="start" x="626" y="-528.5" font-family="Helvetica,sans-Serif" font-size="10.00">ArchiveQueryFactoryTest.testArchiveDisabled</text>
<text text-anchor="middle" x="737.5" y="-517.5" font-family="Helvetica,sans-Serif" font-size="10.00">WhenHbaseIsEnabled</text>
</a>
</g>
</g>
<!-- Node1&#45;&gt;Node16 -->
<g id="edge19_Node000001_Node000016" class="edge">
<title>Node1&#45;&gt;Node16</title>
<g id="a_edge19_Node000001_Node000016"><a xlink:title=" ">
<path fill="none" stroke="#63b8ff" d="M959.04,-595.91C931.61,-585.73 892.13,-571.6 857,-561 846.23,-557.75 834.84,-554.56 823.55,-551.55"/>
<polygon fill="#63b8ff" stroke="#63b8ff" points="957.97,-599.25 968.57,-599.47 960.42,-592.69 957.97,-599.25"/>
</a>
</g>
</g>
<!-- Node17 -->
<g id="Node000017" class="node">
<title>Node17</title>
<g id="a_Node000017"><a xlink:href="classcom_1_1teragrep_1_1pth__06_1_1planner_1_1factory_1_1HBaseQueryFactoryTest.html#a157a28dda969a12f015a663d0783ad34" target="_top" xlink:title=" ">
<polygon fill="white" stroke="#666666" points="849.5,-492 625.5,-492 625.5,-462 849.5,-462 849.5,-492"/>
<text text-anchor="start" x="633.5" y="-480" font-family="Helvetica,sans-Serif" font-size="10.00">com.teragrep.pth_06.planner.factory.</text>
<text text-anchor="middle" x="737.5" y="-469" font-family="Helvetica,sans-Serif" font-size="10.00">HBaseQueryFactoryTest.testHBaseEnabled</text>
</a>
</g>
</g>
<!-- Node1&#45;&gt;Node17 -->
<g id="edge20_Node000001_Node000017" class="edge">
<title>Node1&#45;&gt;Node17</title>
<g id="a_edge20_Node000001_Node000017"><a xlink:title=" ">
<path fill="none" stroke="#63b8ff" d="M977.47,-592.03C953.61,-567.84 906.25,-523.86 857,-501 849.57,-497.55 841.66,-494.6 833.58,-492.07"/>
<polygon fill="#63b8ff" stroke="#63b8ff" points="975.16,-594.67 984.63,-599.41 980.18,-589.79 975.16,-594.67"/>
</a>
</g>
</g>
<!-- Node18 -->
<g id="Node000018" class="node">
<title>Node18</title>
<g id="a_Node000018"><a xlink:href="classcom_1_1teragrep_1_1pth__06_1_1ast_1_1analyze_1_1ScanPlanImplTest.html#a2d60f7b657fa96db2c0f195f1cccdc66" target="_top" xlink:title=" ">
<polygon fill="white" stroke="#666666" points="857,-443.5 618,-443.5 618,-402.5 857,-402.5 857,-443.5"/>
<text text-anchor="start" x="626" y="-431.5" font-family="Helvetica,sans-Serif" font-size="10.00">com.teragrep.pth_06.ast.analyze.</text>
<text text-anchor="start" x="626" y="-420.5" font-family="Helvetica,sans-Serif" font-size="10.00">ScanPlanImplTest.testRangeBetweenUpdated</text>
<text text-anchor="middle" x="737.5" y="-409.5" font-family="Helvetica,sans-Serif" font-size="10.00">EarliestUpdated</text>
</a>
</g>
</g>
<!-- Node1&#45;&gt;Node18 -->
<g id="edge21_Node000001_Node000018" class="edge">
<title>Node1&#45;&gt;Node18</title>
<g id="a_edge21_Node000001_Node000018"><a xlink:title=" ">
<path fill="none" stroke="#63b8ff" d="M982.66,-590.48C962.36,-557.52 915.36,-488.78 857,-453 851.21,-449.45 845.02,-446.32 838.61,-443.56"/>
<polygon fill="#63b8ff" stroke="#63b8ff" points="979.71,-592.37 987.87,-599.13 985.7,-588.76 979.71,-592.37"/>
</a>
</g>
</g>
<!-- Node19 -->
<g id="Node000019" class="node">
<title>Node19</title>
<g id="a_Node000019"><a xlink:href="classcom_1_1teragrep_1_1pth__06_1_1ast_1_1analyze_1_1ScanPlanImplTest.html#ab821bbe4d31ba06f4e8b537f7dc9b80d" target="_top" xlink:title=" ">
<polygon fill="white" stroke="#666666" points="857,-384.5 618,-384.5 618,-343.5 857,-343.5 857,-384.5"/>
<text text-anchor="start" x="626" y="-372.5" font-family="Helvetica,sans-Serif" font-size="10.00">com.teragrep.pth_06.ast.analyze.</text>
<text text-anchor="start" x="626" y="-361.5" font-family="Helvetica,sans-Serif" font-size="10.00">ScanPlanImplTest.testRangeBetweenUpdated</text>
<text text-anchor="middle" x="737.5" y="-350.5" font-family="Helvetica,sans-Serif" font-size="10.00">EarliestWithinBounds</text>
</a>
</g>
</g>
<!-- Node1&#45;&gt;Node19 -->
<g id="edge22_Node000001_Node000019" class="edge">
<title>Node1&#45;&gt;Node19</title>
<g id="a_edge22_Node000001_Node000019"><a xlink:title=" ">
<path fill="none" stroke="#63b8ff" d="M987.01,-589.71C971.66,-547.12 928.89,-444.71 857,-393 852.62,-389.85 847.93,-387.03 843.04,-384.52"/>
<polygon fill="#63b8ff" stroke="#63b8ff" points="983.8,-591.12 990.4,-599.4 990.41,-588.81 983.8,-591.12"/>
</a>
</g>
</g>
<!-- Node20 -->
<g id="Node000020" class="node">
<title>Node20</title>
<g id="a_Node000020"><a xlink:href="classcom_1_1teragrep_1_1pth__06_1_1ast_1_1analyze_1_1ScanPlanImplTest.html#a0c7d4fddf372b7a5f43b223b4f803bc6" target="_top" xlink:title=" ">
<polygon fill="white" stroke="#666666" points="857,-325.5 618,-325.5 618,-284.5 857,-284.5 857,-325.5"/>
<text text-anchor="start" x="626" y="-313.5" font-family="Helvetica,sans-Serif" font-size="10.00">com.teragrep.pth_06.ast.analyze.</text>
<text text-anchor="start" x="626" y="-302.5" font-family="Helvetica,sans-Serif" font-size="10.00">ScanPlanImplTest.testRangeBetweenUpdated</text>
<text text-anchor="middle" x="737.5" y="-291.5" font-family="Helvetica,sans-Serif" font-size="10.00">LatestToEarliest</text>
</a>
</g>
</g>
<!-- Node1&#45;&gt;Node20 -->
<g id="edge23_Node000001_Node000020" class="edge">
<title>Node1&#45;&gt;Node20</title>
<g id="a_edge23_Node000001_Node000020"><a xlink:title=" ">
<path fill="none" stroke="#63b8ff" d="M989.71,-589.42C978.84,-538.77 942.69,-402.59 857,-334 853.11,-330.89 848.94,-328.11 844.57,-325.61"/>
<polygon fill="#63b8ff" stroke="#63b8ff" points="986.32,-590.29 991.75,-599.38 993.17,-588.88 986.32,-590.29"/>
</a>
</g>
</g>
<!-- Node21 -->
<g id="Node000021" class="node">
<title>Node21</title>
<g id="a_Node000021"><a xlink:href="classcom_1_1teragrep_1_1pth__06_1_1ast_1_1analyze_1_1ScanPlanImplTest.html#a23bbbea8452c7f5fa341a94bd8aa12a2" target="_top" xlink:title=" ">
<polygon fill="white" stroke="#666666" points="857,-266.5 618,-266.5 618,-225.5 857,-225.5 857,-266.5"/>
<text text-anchor="start" x="626" y="-254.5" font-family="Helvetica,sans-Serif" font-size="10.00">com.teragrep.pth_06.ast.analyze.</text>
<text text-anchor="start" x="626" y="-243.5" font-family="Helvetica,sans-Serif" font-size="10.00">ScanPlanImplTest.testRangeBetweenUpdated</text>
<text text-anchor="middle" x="737.5" y="-232.5" font-family="Helvetica,sans-Serif" font-size="10.00">LatestUpdated</text>
</a>
</g>
</g>
<!-- Node1&#45;&gt;Node21 -->
<g id="edge24_Node000001_Node000021" class="edge">
<title>Node1&#45;&gt;Node21</title>
<g id="a_edge24_Node000001_Node000021"><a xlink:title=" ">
<path fill="none" stroke="#63b8ff" d="M991.56,-589.23C984.79,-531.38 956.86,-361.08 857,-275 853.39,-271.89 849.5,-269.1 845.41,-266.6"/>
<polygon fill="#63b8ff" stroke="#63b8ff" points="988.09,-589.68 992.65,-599.24 995.05,-588.92 988.09,-589.68"/>
</a>
</g>
</g>
<!-- Node22 -->
<g id="Node000022" class="node">
<title>Node22</title>
<g id="a_Node000022"><a xlink:href="classcom_1_1teragrep_1_1pth__06_1_1ast_1_1analyze_1_1ScanPlanImplTest.html#a36678e11f1eb9ba425e323be431443e3" target="_top" xlink:title=" ">
<polygon fill="white" stroke="#666666" points="857,-207.5 618,-207.5 618,-166.5 857,-166.5 857,-207.5"/>
<text text-anchor="start" x="626" y="-195.5" font-family="Helvetica,sans-Serif" font-size="10.00">com.teragrep.pth_06.ast.analyze.</text>
<text text-anchor="start" x="626" y="-184.5" font-family="Helvetica,sans-Serif" font-size="10.00">ScanPlanImplTest.testRangeBetweenUpdated</text>
<text text-anchor="middle" x="737.5" y="-173.5" font-family="Helvetica,sans-Serif" font-size="10.00">LatestWithinBounds</text>
</a>
</g>
</g>
<!-- Node1&#45;&gt;Node22 -->
<g id="edge25_Node000001_Node000022" class="edge">
<title>Node1&#45;&gt;Node22</title>
<g id="a_edge25_Node000001_Node000022"><a xlink:title=" ">
<path fill="none" stroke="#63b8ff" d="M992.92,-589.26C989.92,-525.03 971.4,-320.09 857,-216 853.55,-212.86 849.82,-210.05 845.89,-207.53"/>
<polygon fill="#63b8ff" stroke="#63b8ff" points="989.42,-589.4 993.31,-599.26 996.42,-589.13 989.42,-589.4"/>
</a>
</g>
</g>
<!-- Node23 -->
<g id="Node000023" class="node">
<title>Node23</title>
<g id="a_Node000023"><a xlink:href="classcom_1_1teragrep_1_1pth__06_1_1planner_1_1BatchSizeLimitedResultsTest.html#a99d9c8ed699224760848043f2c8372ba" target="_top" xlink:title=" ">
<polygon fill="white" stroke="#666666" points="827,-148.5 648,-148.5 648,-107.5 827,-107.5 827,-148.5"/>
<text text-anchor="start" x="656" y="-136.5" font-family="Helvetica,sans-Serif" font-size="10.00">com.teragrep.pth_06.planner.</text>
<text text-anchor="start" x="656" y="-125.5" font-family="Helvetica,sans-Serif" font-size="10.00">BatchSizeLimitedResultsTest.test</text>
<text text-anchor="middle" x="737.5" y="-114.5" font-family="Helvetica,sans-Serif" font-size="10.00">Stubbable</text>
</a>
</g>
</g>
<!-- Node1&#45;&gt;Node23 -->
<g id="edge26_Node000001_Node000023" class="edge">
<title>Node1&#45;&gt;Node23</title>
<g id="a_edge26_Node000001_Node000023"><a xlink:title=" ">
<path fill="none" stroke="#63b8ff" d="M993.95,-589.17C994.4,-518.89 986.04,-279.34 857,-157 848.47,-148.91 838.07,-142.97 827.01,-138.62"/>
<polygon fill="#63b8ff" stroke="#63b8ff" points="990.45,-589.24 993.81,-599.29 997.45,-589.34 990.45,-589.24"/>
</a>
</g>
</g>
<!-- Node24 -->
<g id="Node000024" class="node">
<title>Node24</title>
<g id="a_Node000024"><a xlink:href="classcom_1_1teragrep_1_1pth__06_1_1ast_1_1analyze_1_1ScanPlanImplTest.html#a6177b1f6c10fee4096f1870ff67f727d" target="_top" xlink:title=" ">
<polygon fill="white" stroke="#666666" points="839,-89.5 636,-89.5 636,-48.5 839,-48.5 839,-89.5"/>
<text text-anchor="start" x="644" y="-77.5" font-family="Helvetica,sans-Serif" font-size="10.00">com.teragrep.pth_06.ast.analyze.</text>
<text text-anchor="start" x="644" y="-66.5" font-family="Helvetica,sans-Serif" font-size="10.00">ScanPlanImplTest.testToRangeOutside</text>
<text text-anchor="middle" x="737.5" y="-55.5" font-family="Helvetica,sans-Serif" font-size="10.00">BoundsStub</text>
</a>
</g>
</g>
<!-- Node1&#45;&gt;Node24 -->
<g id="edge27_Node000001_Node000024" class="edge">
<title>Node1&#45;&gt;Node24</title>
<g id="a_edge27_Node000001_Node000024"><a xlink:title=" ">
<path fill="none" stroke="#63b8ff" d="M990.89,-589.01C979.33,-503.5 930.08,-169.56 857,-98 851.7,-92.81 845.64,-88.5 839.12,-84.93"/>
<polygon fill="#63b8ff" stroke="#63b8ff" points="987.45,-589.73 992.24,-599.18 994.39,-588.8 987.45,-589.73"/>
</a>
</g>
</g>
<!-- Node25 -->
<g id="Node000025" class="node">
<title>Node25</title>
<g id="a_Node000025"><a xlink:href="classcom_1_1teragrep_1_1pth__06_1_1ast_1_1analyze_1_1ScanPlanView.html#ae82b27c34e77ba1efd83f072c8cad179" target="_top" xlink:title="Returns a new ScanRangeView from an updated offset start point.">
<polygon fill="white" stroke="#666666" points="827.5,-30 647.5,-30 647.5,0 827.5,0 827.5,-30"/>
<text text-anchor="start" x="655.5" y="-18" font-family="Helvetica,sans-Serif" font-size="10.00">com.teragrep.pth_06.ast.analyze.</text>
<text text-anchor="middle" x="737.5" y="-7" font-family="Helvetica,sans-Serif" font-size="10.00">ScanPlanView.viewFromOffset</text>
</a>
</g>
</g>
<!-- Node1&#45;&gt;Node25 -->
<g id="edge28_Node000001_Node000025" class="edge">
<title>Node1&#45;&gt;Node25</title>
<g id="a_edge28_Node000001_Node000025"><a xlink:title=" ">
<path fill="none" stroke="#63b8ff" d="M991.59,-589.3C982.34,-498.17 939.32,-118.47 857,-39 848.69,-30.98 838.49,-25.3 827.58,-21.32"/>
<polygon fill="#63b8ff" stroke="#63b8ff" points="988.12,-589.76 992.59,-599.37 995.08,-589.07 988.12,-589.76"/>
</a>
</g>
</g>
<!-- Node5 -->
<g id="Node000005" class="node">
<title>Node5</title>
<g id="a_Node000005"><a xlink:href="classcom_1_1teragrep_1_1pth__06_1_1planner_1_1HBaseQueryImpl.html#a5c2fd9106ed54b76d478cf6af5ac5233" target="_top" xlink:title="Closes all open scans in the hourly slices.">
<polygon fill="white" stroke="#666666" points="567,-1088 407,-1088 407,-1058 567,-1058 567,-1088"/>
<text text-anchor="start" x="415" y="-1076" font-family="Helvetica,sans-Serif" font-size="10.00">com.teragrep.pth_06.planner.</text>
<text text-anchor="middle" x="487" y="-1065" font-family="Helvetica,sans-Serif" font-size="10.00">HBaseQueryImpl.close</text>
</a>
</g>
</g>
<!-- Node4&#45;&gt;Node5 -->
<g id="edge4_Node000004_Node000005" class="edge">
<title>Node4&#45;&gt;Node5</title>
<g id="a_edge4_Node000004_Node000005"><a xlink:title=" ">
<path fill="none" stroke="#63b8ff" d="M647.51,-1011.29C637.4,-1014 627.36,-1017.21 618,-1021 600.4,-1028.12 599.23,-1036.02 582,-1044 570.53,-1049.31 557.84,-1053.98 545.59,-1057.92"/>
<polygon fill="#63b8ff" stroke="#63b8ff" points="648.38,-1014.68 657.22,-1008.83 646.66,-1007.89 648.38,-1014.68"/>
</a>
</g>
</g>
<!-- Node6 -->
<g id="Node000006" class="node">
<title>Node6</title>
<g id="a_Node000006"><a xlink:href="classcom_1_1teragrep_1_1pth__06_1_1planner_1_1HBaseQueryImpl.html#aac2c757eda96e3154434977c46d2ac1d" target="_top" xlink:title="Creates open scans for the query, starting from the provided offset.">
<polygon fill="white" stroke="#666666" points="356,-1050 196,-1050 196,-1020 356,-1020 356,-1050"/>
<text text-anchor="start" x="204" y="-1038" font-family="Helvetica,sans-Serif" font-size="10.00">com.teragrep.pth_06.planner.</text>
<text text-anchor="middle" x="276" y="-1027" font-family="Helvetica,sans-Serif" font-size="10.00">HBaseQueryImpl.open</text>
</a>
</g>
</g>
<!-- Node4&#45;&gt;Node6 -->
<g id="edge8_Node000004_Node000006" class="edge">
<title>Node4&#45;&gt;Node6</title>
<g id="a_edge8_Node000004_Node000006"><a xlink:title=" ">
<path fill="none" stroke="#63b8ff" d="M647.15,-1004.39C562.62,-1011.38 436.97,-1021.77 356.02,-1028.47"/>
<polygon fill="#63b8ff" stroke="#63b8ff" points="647.57,-1007.87 657.25,-1003.55 646.99,-1000.89 647.57,-1007.87"/>
</a>
</g>
</g>
<!-- Node4&#45;&gt;Node7 -->
<g id="edge7_Node000004_Node000007" class="edge">
<title>Node4&#45;&gt;Node7</title>
<g id="a_edge7_Node000004_Node000007"><a xlink:title=" ">
<path fill="none" stroke="#63b8ff" d="M647.21,-993.73C518.51,-989.02 282.86,-980.39 160.09,-975.9"/>
<polygon fill="#63b8ff" stroke="#63b8ff" points="647.31,-997.24 657.43,-994.11 647.57,-990.24 647.31,-997.24"/>
</a>
</g>
</g>
<!-- Node5&#45;&gt;Node6 -->
<g id="edge5_Node000005_Node000006" class="edge">
<title>Node5&#45;&gt;Node6</title>
<g id="a_edge5_Node000005_Node000006"><a xlink:title=" ">
<path fill="none" stroke="#63b8ff" d="M397.14,-1056.84C383.51,-1054.37 369.52,-1051.82 356.13,-1049.39"/>
<polygon fill="#63b8ff" stroke="#63b8ff" points="396.52,-1060.29 406.99,-1058.63 397.77,-1053.4 396.52,-1060.29"/>
</a>
</g>
</g>
<!-- Node6&#45;&gt;Node7 -->
<g id="edge6_Node000006_Node000007" class="edge">
<title>Node6&#45;&gt;Node7</title>
<g id="a_edge6_Node000006_Node000007"><a xlink:title=" ">
<path fill="none" stroke="#63b8ff" d="M218.18,-1016.84C189.58,-1007.7 155.33,-996.75 128.2,-988.09"/>
<polygon fill="#63b8ff" stroke="#63b8ff" points="217.45,-1020.28 228.04,-1019.99 219.58,-1013.61 217.45,-1020.28"/>
</a>
</g>
</g>
<!-- Node8&#45;&gt;Node7 -->
<g id="edge11_Node000008_Node000007" class="edge">
<title>Node8&#45;&gt;Node7</title>
<g id="a_edge11_Node000008_Node000007"><a xlink:title=" ">
<path fill="none" stroke="#63b8ff" d="M381.48,-916.89C326.02,-921.16 256.93,-928.31 196,-940 172.75,-944.46 147.4,-951.49 126.43,-957.92"/>
<polygon fill="#63b8ff" stroke="#63b8ff" points="381.96,-920.37 391.67,-916.13 381.44,-913.39 381.96,-920.37"/>
</a>
</g>
</g>
</g>
</svg>
