<?xml version="1.0" encoding="UTF-8" standalone="no"?>
<!DOCTYPE svg PUBLIC "-//W3C//DTD SVG 1.1//EN"
 "http://www.w3.org/Graphics/SVG/1.1/DTD/svg11.dtd">
<!-- Generated by graphviz version 2.43.0 (0)
 -->
<!-- Title: com.teragrep.pth_06.ast.analyze.ScanRange Pages: 1 -->
<svg width="610pt" height="86pt"
 viewBox="0.00 0.00 610.00 86.00" xmlns="http://www.w3.org/2000/svg" xmlns:xlink="http://www.w3.org/1999/xlink">
<g id="graph0" class="graph" transform="scale(1 1) rotate(0) translate(4 82)">
<title>com.teragrep.pth_06.ast.analyze.ScanRange</title>
<!-- Node1 -->
<g id="Node000001" class="node">
<title>Node1</title>
<g id="a_Node000001"><a xlink:title="Logical plan for a row key range scan of HBase.">
<polygon fill="#999999" stroke="#666666" points="386,-54 206,-54 206,-24 386,-24 386,-54"/>
<text text-anchor="start" x="214" y="-42" font-family="Helvetica,sans-Serif" font-size="10.00">com.teragrep.pth_06.ast.analyze.</text>
<text text-anchor="middle" x="296" y="-31" font-family="Helvetica,sans-Serif" font-size="10.00">ScanRange</text>
</a>
</g>
</g>
<!-- Node3 -->
<g id="Node000003" class="node">
<title>Node3</title>
<g id="a_Node000003"><a xlink:href="classcom_1_1teragrep_1_1pth__06_1_1ast_1_1analyze_1_1ScanRangeImpl.html" target="_top" xlink:title=" ">
<polygon fill="white" stroke="#666666" points="602,-78 422,-78 422,-48 602,-48 602,-78"/>
<text text-anchor="start" x="430" y="-66" font-family="Helvetica,sans-Serif" font-size="10.00">com.teragrep.pth_06.ast.analyze.</text>
<text text-anchor="middle" x="512" y="-55" font-family="Helvetica,sans-Serif" font-size="10.00">ScanRangeImpl</text>
</a>
</g>
</g>
<!-- Node1&#45;&gt;Node3 -->
<g id="edge2_Node000001_Node000003" class="edge">
<title>Node1&#45;&gt;Node3</title>
<g id="a_edge2_Node000001_Node000003"><a xlink:title=" ">
<path fill="none" stroke="#63b8ff" d="M396.23,-50.13C404.81,-51.09 413.45,-52.06 421.94,-53.01"/>
<polygon fill="#63b8ff" stroke="#63b8ff" points="396.53,-46.64 386.21,-49 395.75,-53.6 396.53,-46.64"/>
</a>
</g>
</g>
<!-- Node4 -->
<g id="Node000004" class="node">
<title>Node4</title>
<g id="a_Node000004"><a xlink:href="classcom_1_1teragrep_1_1pth__06_1_1ast_1_1analyze_1_1StubScanRange.html" target="_top" xlink:title=" ">
<polygon fill="white" stroke="#666666" points="602,-30 422,-30 422,0 602,0 602,-30"/>
<text text-anchor="start" x="430" y="-18" font-family="Helvetica,sans-Serif" font-size="10.00">com.teragrep.pth_06.ast.analyze.</text>
<text text-anchor="middle" x="512" y="-7" font-family="Helvetica,sans-Serif" font-size="10.00">StubScanRange</text>
</a>
</g>
</g>
<!-- Node1&#45;&gt;Node4 -->
<g id="edge3_Node000001_Node000004" class="edge">
<title>Node1&#45;&gt;Node4</title>
<g id="a_edge3_Node000001_Node000004"><a xlink:title=" ">
<path fill="none" stroke="#63b8ff" d="M396.23,-27.87C404.81,-26.91 413.45,-25.94 421.94,-24.99"/>
<polygon fill="#63b8ff" stroke="#63b8ff" points="395.75,-24.4 386.21,-29 396.53,-31.36 395.75,-24.4"/>
</a>
</g>
</g>
<!-- Node2 -->
<g id="Node000002" class="node">
<title>Node2</title>
<g id="a_Node000002"><a xlink:href="interfacecom_1_1teragrep_1_1pth__06_1_1Stubbable.html" target="_top" xlink:title=" ">
<polygon fill="white" stroke="#666666" points="170,-48.5 0,-48.5 0,-29.5 170,-29.5 170,-48.5"/>
<text text-anchor="middle" x="85" y="-36.5" font-family="Helvetica,sans-Serif" font-size="10.00">com.teragrep.pth_06.Stubbable</text>
</a>
</g>
</g>
<!-- Node2&#45;&gt;Node1 -->
<g id="edge1_Node000001_Node000002" class="edge">
<title>Node2&#45;&gt;Node1</title>
<g id="a_edge1_Node000001_Node000002"><a xlink:title=" ">
<path fill="none" stroke="#63b8ff" d="M180.13,-39C188.72,-39 197.4,-39 205.94,-39"/>
<polygon fill="#63b8ff" stroke="#63b8ff" points="180.1,-35.5 170.1,-39 180.1,-42.5 180.1,-35.5"/>
</a>
</g>
</g>
</g>
</svg>
