<?xml version="1.0" encoding="UTF-8" standalone="no"?>
<!DOCTYPE svg PUBLIC "-//W3C//DTD SVG 1.1//EN"
 "http://www.w3.org/Graphics/SVG/1.1/DTD/svg11.dtd">
<!-- Generated by graphviz version 2.43.0 (0)
 -->
<!-- Title: com.teragrep.pth_06.Stubbable.isStub Pages: 1 -->
<svg width="459pt" height="344pt"
 viewBox="0.00 0.00 459.00 344.00" xmlns="http://www.w3.org/2000/svg" xmlns:xlink="http://www.w3.org/1999/xlink">
<g id="graph0" class="graph" transform="scale(1 1) rotate(0) translate(4 340)">
<title>com.teragrep.pth_06.Stubbable.isStub</title>
<!-- Node1 -->
<g id="Node000001" class="node">
<title>Node1</title>
<g id="a_Node000001"><a xlink:title=" ">
<polygon fill="#999999" stroke="#666666" points="451,-177 248,-177 248,-158 451,-158 451,-177"/>
<text text-anchor="middle" x="349.5" y="-165" font-family="Helvetica,sans-Serif" font-size="10.00">com.teragrep.pth_06.Stubbable.isStub</text>
</a>
</g>
</g>
<!-- Node2 -->
<g id="Node000002" class="node">
<title>Node2</title>
<g id="a_Node000002"><a xlink:href="classcom_1_1teragrep_1_1pth__06_1_1ast_1_1analyze_1_1ScanRangeImplTest.html#ab63ce3091ae6aaa1946660f7d5b78824" target="_top" xlink:title=" ">
<polygon fill="white" stroke="#666666" points="209.5,-336 2.5,-336 2.5,-295 209.5,-295 209.5,-336"/>
<text text-anchor="start" x="10.5" y="-324" font-family="Helvetica,sans-Serif" font-size="10.00">com.teragrep.pth_06.ast.analyze.</text>
<text text-anchor="start" x="10.5" y="-313" font-family="Helvetica,sans-Serif" font-size="10.00">ScanRangeImplTest.testRangeBetween</text>
<text text-anchor="middle" x="106" y="-302" font-family="Helvetica,sans-Serif" font-size="10.00">UpdatedEarliestUpdated</text>
</a>
</g>
</g>
<!-- Node1&#45;&gt;Node2 -->
<g id="edge1_Node000001_Node000002" class="edge">
<title>Node1&#45;&gt;Node2</title>
<g id="a_edge1_Node000001_Node000002"><a xlink:title=" ">
<path fill="none" stroke="#63b8ff" d="M333.62,-184.67C310.27,-210.54 262.47,-259.37 212,-286.5 206.17,-289.63 199.97,-292.45 193.61,-294.98"/>
<polygon fill="#63b8ff" stroke="#63b8ff" points="336.29,-186.94 340.31,-177.14 331.05,-182.29 336.29,-186.94"/>
</a>
</g>
</g>
<!-- Node3 -->
<g id="Node000003" class="node">
<title>Node3</title>
<g id="a_Node000003"><a xlink:href="classcom_1_1teragrep_1_1pth__06_1_1ast_1_1analyze_1_1ScanRangeImplTest.html#a895f5be6e06d5aeedb3b6d9c500787cb" target="_top" xlink:title=" ">
<polygon fill="white" stroke="#666666" points="209.5,-277 2.5,-277 2.5,-236 209.5,-236 209.5,-277"/>
<text text-anchor="start" x="10.5" y="-265" font-family="Helvetica,sans-Serif" font-size="10.00">com.teragrep.pth_06.ast.analyze.</text>
<text text-anchor="start" x="10.5" y="-254" font-family="Helvetica,sans-Serif" font-size="10.00">ScanRangeImplTest.testRangeBetween</text>
<text text-anchor="middle" x="106" y="-243" font-family="Helvetica,sans-Serif" font-size="10.00">UpdatedEarliestWithinBounds</text>
</a>
</g>
</g>
<!-- Node1&#45;&gt;Node3 -->
<g id="edge2_Node000001_Node000003" class="edge">
<title>Node1&#45;&gt;Node3</title>
<g id="a_edge2_Node000001_Node000003"><a xlink:title=" ">
<path fill="none" stroke="#63b8ff" d="M319.63,-181.65C292.34,-194.68 250.01,-213.98 212,-227.5 203.71,-230.45 194.98,-233.28 186.22,-235.95"/>
<polygon fill="#63b8ff" stroke="#63b8ff" points="321.48,-184.65 328.97,-177.16 318.44,-178.34 321.48,-184.65"/>
</a>
</g>
</g>
<!-- Node4 -->
<g id="Node000004" class="node">
<title>Node4</title>
<g id="a_Node000004"><a xlink:href="classcom_1_1teragrep_1_1pth__06_1_1ast_1_1analyze_1_1ScanRangeImplTest.html#ab4517f0cb67cc4f50d43912b21b1978b" target="_top" xlink:title=" ">
<polygon fill="white" stroke="#666666" points="209.5,-218 2.5,-218 2.5,-177 209.5,-177 209.5,-218"/>
<text text-anchor="start" x="10.5" y="-206" font-family="Helvetica,sans-Serif" font-size="10.00">com.teragrep.pth_06.ast.analyze.</text>
<text text-anchor="start" x="10.5" y="-195" font-family="Helvetica,sans-Serif" font-size="10.00">ScanRangeImplTest.testRangeBetween</text>
<text text-anchor="middle" x="106" y="-184" font-family="Helvetica,sans-Serif" font-size="10.00">UpdatedLatestToEarliest</text>
</a>
</g>
</g>
<!-- Node1&#45;&gt;Node4 -->
<g id="edge3_Node000001_Node000004" class="edge">
<title>Node1&#45;&gt;Node4</title>
<g id="a_edge3_Node000001_Node000004"><a xlink:title=" ">
<path fill="none" stroke="#63b8ff" d="M261.42,-178.32C244.61,-180.41 226.86,-182.61 209.6,-184.75"/>
<polygon fill="#63b8ff" stroke="#63b8ff" points="262.26,-181.74 271.76,-177.03 261.4,-174.79 262.26,-181.74"/>
</a>
</g>
</g>
<!-- Node5 -->
<g id="Node000005" class="node">
<title>Node5</title>
<g id="a_Node000005"><a xlink:href="classcom_1_1teragrep_1_1pth__06_1_1ast_1_1analyze_1_1ScanRangeImplTest.html#aabdd7bbc6ed3c369213c6f2900f0fb27" target="_top" xlink:title=" ">
<polygon fill="white" stroke="#666666" points="209.5,-159 2.5,-159 2.5,-118 209.5,-118 209.5,-159"/>
<text text-anchor="start" x="10.5" y="-147" font-family="Helvetica,sans-Serif" font-size="10.00">com.teragrep.pth_06.ast.analyze.</text>
<text text-anchor="start" x="10.5" y="-136" font-family="Helvetica,sans-Serif" font-size="10.00">ScanRangeImplTest.testRangeBetween</text>
<text text-anchor="middle" x="106" y="-125" font-family="Helvetica,sans-Serif" font-size="10.00">UpdatedLatestUpdated</text>
</a>
</g>
</g>
<!-- Node1&#45;&gt;Node5 -->
<g id="edge4_Node000001_Node000005" class="edge">
<title>Node1&#45;&gt;Node5</title>
<g id="a_edge4_Node000001_Node000005"><a xlink:title=" ">
<path fill="none" stroke="#63b8ff" d="M258.73,-156.72C242.76,-154.8 226.03,-152.79 209.74,-150.84"/>
<polygon fill="#63b8ff" stroke="#63b8ff" points="258.74,-160.25 269.09,-157.96 259.58,-153.3 258.74,-160.25"/>
</a>
</g>
</g>
<!-- Node6 -->
<g id="Node000006" class="node">
<title>Node6</title>
<g id="a_Node000006"><a xlink:href="classcom_1_1teragrep_1_1pth__06_1_1ast_1_1analyze_1_1ScanRangeImplTest.html#a6e9457b2aacd651e669e17e3a035bd90" target="_top" xlink:title=" ">
<polygon fill="white" stroke="#666666" points="209.5,-100 2.5,-100 2.5,-59 209.5,-59 209.5,-100"/>
<text text-anchor="start" x="10.5" y="-88" font-family="Helvetica,sans-Serif" font-size="10.00">com.teragrep.pth_06.ast.analyze.</text>
<text text-anchor="start" x="10.5" y="-77" font-family="Helvetica,sans-Serif" font-size="10.00">ScanRangeImplTest.testRangeBetween</text>
<text text-anchor="middle" x="106" y="-66" font-family="Helvetica,sans-Serif" font-size="10.00">UpdatedLatestWithinBounds</text>
</a>
</g>
</g>
<!-- Node1&#45;&gt;Node6 -->
<g id="edge5_Node000001_Node000006" class="edge">
<title>Node1&#45;&gt;Node6</title>
<g id="a_edge5_Node000001_Node000006"><a xlink:title=" ">
<path fill="none" stroke="#63b8ff" d="M318.6,-153.53C291.23,-141.05 249.4,-122.73 212,-109.5 202.71,-106.21 192.86,-103.02 183.06,-100.03"/>
<polygon fill="#63b8ff" stroke="#63b8ff" points="317.45,-156.85 328,-157.85 320.37,-150.49 317.45,-156.85"/>
</a>
</g>
</g>
<!-- Node7 -->
<g id="Node000007" class="node">
<title>Node7</title>
<g id="a_Node000007"><a xlink:href="classcom_1_1teragrep_1_1pth__06_1_1ast_1_1analyze_1_1ScanRangeImplTest.html#a469a5c09559444fdbfeb6bc3c2567a05" target="_top" xlink:title=" ">
<polygon fill="white" stroke="#666666" points="212,-41 0,-41 0,0 212,0 212,-41"/>
<text text-anchor="start" x="8" y="-29" font-family="Helvetica,sans-Serif" font-size="10.00">com.teragrep.pth_06.ast.analyze.</text>
<text text-anchor="start" x="8" y="-18" font-family="Helvetica,sans-Serif" font-size="10.00">ScanRangeImplTest.testToRangeOutside</text>
<text text-anchor="middle" x="106" y="-7" font-family="Helvetica,sans-Serif" font-size="10.00">BoundsStub</text>
</a>
</g>
</g>
<!-- Node1&#45;&gt;Node7 -->
<g id="edge6_Node000001_Node000007" class="edge">
<title>Node1&#45;&gt;Node7</title>
<g id="a_edge6_Node000001_Node000007"><a xlink:title=" ">
<path fill="none" stroke="#63b8ff" d="M333.17,-150.3C309.58,-124.86 261.86,-77.31 212,-50.5 205.49,-47 198.52,-43.87 191.4,-41.07"/>
<polygon fill="#63b8ff" stroke="#63b8ff" points="330.63,-152.71 339.96,-157.73 335.8,-147.99 330.63,-152.71"/>
</a>
</g>
</g>
</g>
</svg>
