<?xml version="1.0" encoding="UTF-8" standalone="no"?>
<!DOCTYPE svg PUBLIC "-//W3C//DTD SVG 1.1//EN"
 "http://www.w3.org/Graphics/SVG/1.1/DTD/svg11.dtd">
<!-- Generated by graphviz version 2.43.0 (0)
 -->
<!-- Title: com.teragrep.pth_06.ast.analyze.ScanPlan Pages: 1 -->
<svg width="604pt" height="86pt"
 viewBox="0.00 0.00 604.00 86.00" xmlns="http://www.w3.org/2000/svg" xmlns:xlink="http://www.w3.org/1999/xlink">
<g id="graph0" class="graph" transform="scale(1 1) rotate(0) translate(4 82)">
<title>com.teragrep.pth_06.ast.analyze.ScanPlan</title>
<!-- Node1 -->
<g id="Node000001" class="node">
<title>Node1</title>
<g id="a_Node000001"><a xlink:title="Logical plan for a row key range scan of HBase.">
<polygon fill="#999999" stroke="#666666" points="380,-54 200,-54 200,-24 380,-24 380,-54"/>
<text text-anchor="start" x="208" y="-42" font-family="Helvetica,sans-Serif" font-size="10.00">com.teragrep.pth_06.ast.analyze.</text>
<text text-anchor="middle" x="290" y="-31" font-family="Helvetica,sans-Serif" font-size="10.00">ScanPlan</text>
</a>
</g>
</g>
<!-- Node3 -->
<g id="Node000003" class="node">
<title>Node3</title>
<g id="a_Node000003"><a xlink:href="classcom_1_1teragrep_1_1pth__06_1_1ast_1_1analyze_1_1ScanPlanImpl.html" target="_top" xlink:title=" ">
<polygon fill="white" stroke="#666666" points="596,-78 416,-78 416,-48 596,-48 596,-78"/>
<text text-anchor="start" x="424" y="-66" font-family="Helvetica,sans-Serif" font-size="10.00">com.teragrep.pth_06.ast.analyze.</text>
<text text-anchor="middle" x="506" y="-55" font-family="Helvetica,sans-Serif" font-size="10.00">ScanPlanImpl</text>
</a>
</g>
</g>
<!-- Node1&#45;&gt;Node3 -->
<g id="edge2_Node000001_Node000003" class="edge">
<title>Node1&#45;&gt;Node3</title>
<g id="a_edge2_Node000001_Node000003"><a xlink:title=" ">
<path fill="none" stroke="#63b8ff" d="M390.23,-50.13C398.81,-51.09 407.45,-52.06 415.94,-53.01"/>
<polygon fill="#63b8ff" stroke="#63b8ff" points="390.53,-46.64 380.21,-49 389.75,-53.6 390.53,-46.64"/>
</a>
</g>
</g>
<!-- Node4 -->
<g id="Node000004" class="node">
<title>Node4</title>
<g id="a_Node000004"><a xlink:href="classcom_1_1teragrep_1_1pth__06_1_1ast_1_1analyze_1_1StubScanPlan.html" target="_top" xlink:title=" ">
<polygon fill="white" stroke="#666666" points="596,-30 416,-30 416,0 596,0 596,-30"/>
<text text-anchor="start" x="424" y="-18" font-family="Helvetica,sans-Serif" font-size="10.00">com.teragrep.pth_06.ast.analyze.</text>
<text text-anchor="middle" x="506" y="-7" font-family="Helvetica,sans-Serif" font-size="10.00">StubScanPlan</text>
</a>
</g>
</g>
<!-- Node1&#45;&gt;Node4 -->
<g id="edge3_Node000001_Node000004" class="edge">
<title>Node1&#45;&gt;Node4</title>
<g id="a_edge3_Node000001_Node000004"><a xlink:title=" ">
<path fill="none" stroke="#63b8ff" d="M390.23,-27.87C398.81,-26.91 407.45,-25.94 415.94,-24.99"/>
<polygon fill="#63b8ff" stroke="#63b8ff" points="389.75,-24.4 380.21,-29 390.53,-31.36 389.75,-24.4"/>
</a>
</g>
</g>
<!-- Node2 -->
<g id="Node000002" class="node">
<title>Node2</title>
<g id="a_Node000002"><a xlink:href="interfacecom_1_1teragrep_1_1pth__06_1_1Stubable.html" target="_top" xlink:title=" ">
<polygon fill="white" stroke="#666666" points="164,-48.5 0,-48.5 0,-29.5 164,-29.5 164,-48.5"/>
<text text-anchor="middle" x="82" y="-36.5" font-family="Helvetica,sans-Serif" font-size="10.00">com.teragrep.pth_06.Stubable</text>
</a>
</g>
</g>
<!-- Node2&#45;&gt;Node1 -->
<g id="edge1_Node000001_Node000002" class="edge">
<title>Node2&#45;&gt;Node1</title>
<g id="a_edge1_Node000001_Node000002"><a xlink:title=" ">
<path fill="none" stroke="#63b8ff" d="M174.36,-39C182.81,-39 191.36,-39 199.79,-39"/>
<polygon fill="#63b8ff" stroke="#63b8ff" points="174.12,-35.5 164.12,-39 174.12,-42.5 174.12,-35.5"/>
</a>
</g>
</g>
</g>
</svg>
