<?xml version="1.0" encoding="UTF-8" standalone="no"?>
<!DOCTYPE svg PUBLIC "-//W3C//DTD SVG 1.1//EN"
 "http://www.w3.org/Graphics/SVG/1.1/DTD/svg11.dtd">
<!-- Generated by graphviz version 2.43.0 (0)
 -->
<!-- Title: com.teragrep.pth_06.ast.analyze.ScanPlan.latest Pages: 1 -->
<svg width="679pt" height="505pt"
 viewBox="0.00 0.00 679.00 505.00" xmlns="http://www.w3.org/2000/svg" xmlns:xlink="http://www.w3.org/1999/xlink">
<g id="graph0" class="graph" transform="scale(1 1) rotate(0) translate(4 501)">
<title>com.teragrep.pth_06.ast.analyze.ScanPlan.latest</title>
<!-- Node1 -->
<g id="Node000001" class="node">
<title>Node1</title>
<g id="a_Node000001"><a xlink:title=" ">
<polygon fill="#999999" stroke="#666666" points="671,-288 491,-288 491,-258 671,-258 671,-288"/>
<text text-anchor="start" x="499" y="-276" font-family="Helvetica,sans-Serif" font-size="10.00">com.teragrep.pth_06.ast.analyze.</text>
<text text-anchor="middle" x="581" y="-265" font-family="Helvetica,sans-Serif" font-size="10.00">ScanPlan.latest</text>
</a>
</g>
</g>
<!-- Node2 -->
<g id="Node000002" class="node">
<title>Node2</title>
<g id="a_Node000002"><a xlink:href="classcom_1_1teragrep_1_1pth__06_1_1ast_1_1analyze_1_1ScanRangeView.html#a94fba0da955d5f6aa52613575a098209" target="_top" xlink:title=" ">
<polygon fill="white" stroke="#666666" points="443,-497 228,-497 228,-467 443,-467 443,-497"/>
<text text-anchor="start" x="236" y="-485" font-family="Helvetica,sans-Serif" font-size="10.00">com.teragrep.pth_06.ast.analyze.</text>
<text text-anchor="middle" x="335.5" y="-474" font-family="Helvetica,sans-Serif" font-size="10.00">ScanRangeView.isEndOffsetWithinRange</text>
</a>
</g>
</g>
<!-- Node1&#45;&gt;Node2 -->
<g id="edge1_Node000001_Node000002" class="edge">
<title>Node1&#45;&gt;Node2</title>
<g id="a_edge1_Node000001_Node000002"><a xlink:title=" ">
<path fill="none" stroke="#63b8ff" d="M569.98,-297.43C552.61,-336.59 513.13,-413.07 455,-453 446.71,-458.7 437.41,-463.28 427.77,-466.96"/>
<polygon fill="#63b8ff" stroke="#63b8ff" points="573.26,-298.67 574.01,-288.1 566.83,-295.89 573.26,-298.67"/>
</a>
</g>
</g>
<!-- Node3 -->
<g id="Node000003" class="node">
<title>Node3</title>
<g id="a_Node000003"><a xlink:href="classcom_1_1teragrep_1_1pth__06_1_1ast_1_1analyze_1_1ScanPlanImpl.html#aecb617c7630c6d4a8d08c47257ae69a9" target="_top" xlink:title="Merge two ScanRanges with the smaller earliest and larger latest values.">
<polygon fill="white" stroke="#666666" points="180,-454 0,-454 0,-424 180,-424 180,-454"/>
<text text-anchor="start" x="8" y="-442" font-family="Helvetica,sans-Serif" font-size="10.00">com.teragrep.pth_06.ast.analyze.</text>
<text text-anchor="middle" x="90" y="-431" font-family="Helvetica,sans-Serif" font-size="10.00">ScanPlanImpl.merge</text>
</a>
</g>
</g>
<!-- Node1&#45;&gt;Node3 -->
<g id="edge2_Node000001_Node000003" class="edge">
<title>Node1&#45;&gt;Node3</title>
<g id="a_edge2_Node000001_Node000003"><a xlink:title=" ">
<path fill="none" stroke="#63b8ff" d="M567.81,-297.07C548.92,-331.41 509.08,-393.27 455,-420 368.92,-462.56 256.99,-461.34 180.1,-453.29"/>
<polygon fill="#63b8ff" stroke="#63b8ff" points="570.94,-298.63 572.57,-288.16 564.77,-295.33 570.94,-298.63"/>
</a>
</g>
</g>
<!-- Node4 -->
<g id="Node000004" class="node">
<title>Node4</title>
<g id="a_Node000004"><a xlink:href="classcom_1_1teragrep_1_1pth__06_1_1ast_1_1analyze_1_1ScanPlanImpl.html#af3961a10733d641e35fd2954f07212cd" target="_top" xlink:title="Returns true if the ranges overlap or touch.">
<polygon fill="white" stroke="#666666" points="425.5,-411 245.5,-411 245.5,-381 425.5,-381 425.5,-411"/>
<text text-anchor="start" x="253.5" y="-399" font-family="Helvetica,sans-Serif" font-size="10.00">com.teragrep.pth_06.ast.analyze.</text>
<text text-anchor="middle" x="335.5" y="-388" font-family="Helvetica,sans-Serif" font-size="10.00">ScanPlanImpl.mergeable</text>
</a>
</g>
</g>
<!-- Node1&#45;&gt;Node4 -->
<g id="edge3_Node000001_Node000004" class="edge">
<title>Node1&#45;&gt;Node4</title>
<g id="a_edge3_Node000001_Node000004"><a xlink:title=" ">
<path fill="none" stroke="#63b8ff" d="M558.53,-295.34C535.22,-318.22 495.83,-353.04 455,-372 445.77,-376.29 435.78,-379.81 425.65,-382.71"/>
<polygon fill="#63b8ff" stroke="#63b8ff" points="561.2,-297.62 565.8,-288.08 556.25,-292.67 561.2,-297.62"/>
</a>
</g>
</g>
<!-- Node6 -->
<g id="Node000006" class="node">
<title>Node6</title>
<g id="a_Node000006"><a xlink:href="classcom_1_1teragrep_1_1pth__06_1_1ast_1_1analyze_1_1ScanPlanImplTest.html#aedf710235069721648199f1be502d03d" target="_top" xlink:title=" ">
<polygon fill="white" stroke="#666666" points="428,-363 243,-363 243,-333 428,-333 428,-363"/>
<text text-anchor="start" x="251" y="-351" font-family="Helvetica,sans-Serif" font-size="10.00">com.teragrep.pth_06.ast.analyze.</text>
<text text-anchor="middle" x="335.5" y="-340" font-family="Helvetica,sans-Serif" font-size="10.00">ScanPlanImplTest.testFromEarliest</text>
</a>
</g>
</g>
<!-- Node1&#45;&gt;Node6 -->
<g id="edge6_Node000001_Node000006" class="edge">
<title>Node1&#45;&gt;Node6</title>
<g id="a_edge6_Node000001_Node000006"><a xlink:title=" ">
<path fill="none" stroke="#63b8ff" d="M538.79,-292.1C514.76,-302.65 483.62,-315.35 455,-324 444.05,-327.31 432.39,-330.3 420.82,-332.95"/>
<polygon fill="#63b8ff" stroke="#63b8ff" points="540.25,-295.28 547.97,-288.02 537.41,-288.88 540.25,-295.28"/>
</a>
</g>
</g>
<!-- Node7 -->
<g id="Node000007" class="node">
<title>Node7</title>
<g id="a_Node000007"><a xlink:href="classcom_1_1teragrep_1_1pth__06_1_1ast_1_1analyze_1_1ScanPlanImplTest.html#a1a88553d7dee6737c097fe67c5bb0b1c" target="_top" xlink:title=" ">
<polygon fill="white" stroke="#666666" points="425.5,-315 245.5,-315 245.5,-285 425.5,-285 425.5,-315"/>
<text text-anchor="start" x="253.5" y="-303" font-family="Helvetica,sans-Serif" font-size="10.00">com.teragrep.pth_06.ast.analyze.</text>
<text text-anchor="middle" x="335.5" y="-292" font-family="Helvetica,sans-Serif" font-size="10.00">ScanPlanImplTest.testFromLatest</text>
</a>
</g>
</g>
<!-- Node1&#45;&gt;Node7 -->
<g id="edge7_Node000001_Node000007" class="edge">
<title>Node1&#45;&gt;Node7</title>
<g id="a_edge7_Node000001_Node000007"><a xlink:title=" ">
<path fill="none" stroke="#63b8ff" d="M480.69,-284.01C462.51,-286.03 443.64,-288.12 425.78,-290.1"/>
<polygon fill="#63b8ff" stroke="#63b8ff" points="481.16,-287.48 490.71,-282.9 480.39,-280.52 481.16,-287.48"/>
</a>
</g>
</g>
<!-- Node8 -->
<g id="Node000008" class="node">
<title>Node8</title>
<g id="a_Node000008"><a xlink:href="classcom_1_1teragrep_1_1pth__06_1_1ast_1_1analyze_1_1ScanPlanImplTest.html#a2d60f7b657fa96db2c0f195f1cccdc66" target="_top" xlink:title=" ">
<polygon fill="white" stroke="#666666" points="455,-266.5 216,-266.5 216,-225.5 455,-225.5 455,-266.5"/>
<text text-anchor="start" x="224" y="-254.5" font-family="Helvetica,sans-Serif" font-size="10.00">com.teragrep.pth_06.ast.analyze.</text>
<text text-anchor="start" x="224" y="-243.5" font-family="Helvetica,sans-Serif" font-size="10.00">ScanPlanImplTest.testRangeBetweenUpdated</text>
<text text-anchor="middle" x="335.5" y="-232.5" font-family="Helvetica,sans-Serif" font-size="10.00">EarliestUpdated</text>
</a>
</g>
</g>
<!-- Node1&#45;&gt;Node8 -->
<g id="edge8_Node000001_Node000008" class="edge">
<title>Node1&#45;&gt;Node8</title>
<g id="a_edge8_Node000001_Node000008"><a xlink:title=" ">
<path fill="none" stroke="#63b8ff" d="M480.61,-261.98C472.27,-261.05 463.77,-260.11 455.3,-259.17"/>
<polygon fill="#63b8ff" stroke="#63b8ff" points="480.39,-265.48 490.71,-263.1 481.16,-258.52 480.39,-265.48"/>
</a>
</g>
</g>
<!-- Node9 -->
<g id="Node000009" class="node">
<title>Node9</title>
<g id="a_Node000009"><a xlink:href="classcom_1_1teragrep_1_1pth__06_1_1ast_1_1analyze_1_1ScanPlanImplTest.html#ab821bbe4d31ba06f4e8b537f7dc9b80d" target="_top" xlink:title=" ">
<polygon fill="white" stroke="#666666" points="455,-207.5 216,-207.5 216,-166.5 455,-166.5 455,-207.5"/>
<text text-anchor="start" x="224" y="-195.5" font-family="Helvetica,sans-Serif" font-size="10.00">com.teragrep.pth_06.ast.analyze.</text>
<text text-anchor="start" x="224" y="-184.5" font-family="Helvetica,sans-Serif" font-size="10.00">ScanPlanImplTest.testRangeBetweenUpdated</text>
<text text-anchor="middle" x="335.5" y="-173.5" font-family="Helvetica,sans-Serif" font-size="10.00">EarliestWithinBounds</text>
</a>
</g>
</g>
<!-- Node1&#45;&gt;Node9 -->
<g id="edge9_Node000001_Node000009" class="edge">
<title>Node1&#45;&gt;Node9</title>
<g id="a_edge9_Node000001_Node000009"><a xlink:title=" ">
<path fill="none" stroke="#63b8ff" d="M541.6,-253.21C517.26,-241.25 484.84,-226.35 455,-216 446.3,-212.98 437.13,-210.15 427.91,-207.53"/>
<polygon fill="#63b8ff" stroke="#63b8ff" points="540.33,-256.49 550.84,-257.81 543.44,-250.22 540.33,-256.49"/>
</a>
</g>
</g>
<!-- Node10 -->
<g id="Node000010" class="node">
<title>Node10</title>
<g id="a_Node000010"><a xlink:href="classcom_1_1teragrep_1_1pth__06_1_1ast_1_1analyze_1_1ScanPlanImplTest.html#a23bbbea8452c7f5fa341a94bd8aa12a2" target="_top" xlink:title=" ">
<polygon fill="white" stroke="#666666" points="455,-148.5 216,-148.5 216,-107.5 455,-107.5 455,-148.5"/>
<text text-anchor="start" x="224" y="-136.5" font-family="Helvetica,sans-Serif" font-size="10.00">com.teragrep.pth_06.ast.analyze.</text>
<text text-anchor="start" x="224" y="-125.5" font-family="Helvetica,sans-Serif" font-size="10.00">ScanPlanImplTest.testRangeBetweenUpdated</text>
<text text-anchor="middle" x="335.5" y="-114.5" font-family="Helvetica,sans-Serif" font-size="10.00">LatestUpdated</text>
</a>
</g>
</g>
<!-- Node1&#45;&gt;Node10 -->
<g id="edge10_Node000001_Node000010" class="edge">
<title>Node1&#45;&gt;Node10</title>
<g id="a_edge10_Node000001_Node000010"><a xlink:title=" ">
<path fill="none" stroke="#63b8ff" d="M561.66,-250.01C539.29,-223.55 498.98,-180.69 455,-157 449.22,-153.89 443.1,-151.1 436.81,-148.61"/>
<polygon fill="#63b8ff" stroke="#63b8ff" points="559.2,-252.52 568.28,-257.98 564.58,-248.05 559.2,-252.52"/>
</a>
</g>
</g>
<!-- Node11 -->
<g id="Node000011" class="node">
<title>Node11</title>
<g id="a_Node000011"><a xlink:href="classcom_1_1teragrep_1_1pth__06_1_1ast_1_1analyze_1_1ScanPlanImplTest.html#a36678e11f1eb9ba425e323be431443e3" target="_top" xlink:title=" ">
<polygon fill="white" stroke="#666666" points="455,-89.5 216,-89.5 216,-48.5 455,-48.5 455,-89.5"/>
<text text-anchor="start" x="224" y="-77.5" font-family="Helvetica,sans-Serif" font-size="10.00">com.teragrep.pth_06.ast.analyze.</text>
<text text-anchor="start" x="224" y="-66.5" font-family="Helvetica,sans-Serif" font-size="10.00">ScanPlanImplTest.testRangeBetweenUpdated</text>
<text text-anchor="middle" x="335.5" y="-55.5" font-family="Helvetica,sans-Serif" font-size="10.00">LatestWithinBounds</text>
</a>
</g>
</g>
<!-- Node1&#45;&gt;Node11 -->
<g id="edge11_Node000001_Node000011" class="edge">
<title>Node1&#45;&gt;Node11</title>
<g id="a_edge11_Node000001_Node000011"><a xlink:title=" ">
<path fill="none" stroke="#63b8ff" d="M569.41,-248.43C551.59,-210.12 511.9,-136.53 455,-98 450.35,-94.85 445.4,-92.05 440.25,-89.54"/>
<polygon fill="#63b8ff" stroke="#63b8ff" points="566.35,-250.15 573.66,-257.81 572.72,-247.26 566.35,-250.15"/>
</a>
</g>
</g>
<!-- Node12 -->
<g id="Node000012" class="node">
<title>Node12</title>
<g id="a_Node000012"><a xlink:href="classcom_1_1teragrep_1_1pth__06_1_1ast_1_1analyze_1_1ScanRangeView.html#a61e947083a3d9e6e8ab1a8480ca94c95" target="_top" xlink:title="Returns a new ScanRangeView from an updated offset start point.">
<polygon fill="white" stroke="#666666" points="425.5,-30 245.5,-30 245.5,0 425.5,0 425.5,-30"/>
<text text-anchor="start" x="253.5" y="-18" font-family="Helvetica,sans-Serif" font-size="10.00">com.teragrep.pth_06.ast.analyze.</text>
<text text-anchor="middle" x="335.5" y="-7" font-family="Helvetica,sans-Serif" font-size="10.00">ScanRangeView.viewFromOffset</text>
</a>
</g>
</g>
<!-- Node1&#45;&gt;Node12 -->
<g id="edge12_Node000001_Node000012" class="edge">
<title>Node1&#45;&gt;Node12</title>
<g id="a_edge12_Node000001_Node000012"><a xlink:title=" ">
<path fill="none" stroke="#63b8ff" d="M574.14,-247.74C561.44,-199.05 526.61,-92.32 455,-39 446.25,-32.48 436.16,-27.62 425.64,-24.01"/>
<polygon fill="#63b8ff" stroke="#63b8ff" points="570.82,-248.9 576.64,-257.74 577.61,-247.19 570.82,-248.9"/>
</a>
</g>
</g>
<!-- Node4&#45;&gt;Node3 -->
<g id="edge4_Node000004_Node000003" class="edge">
<title>Node4&#45;&gt;Node3</title>
<g id="a_edge4_Node000004_Node000003"><a xlink:title=" ">
<path fill="none" stroke="#63b8ff" d="M239.22,-412.83C218.4,-416.5 196.5,-420.37 176.12,-423.97"/>
<polygon fill="#63b8ff" stroke="#63b8ff" points="240.1,-416.23 249.34,-411.04 238.88,-409.33 240.1,-416.23"/>
</a>
</g>
</g>
<!-- Node5 -->
<g id="Node000005" class="node">
<title>Node5</title>
<g id="a_Node000005"><a xlink:href="classcom_1_1teragrep_1_1pth__06_1_1ast_1_1analyze_1_1ScanPlanImpl.html#a169371cc78c907cc0fea14baaa2c7364" target="_top" xlink:title="Returns stub when new range is outside the original range.">
<polygon fill="white" stroke="#666666" points="180,-406 0,-406 0,-376 180,-376 180,-406"/>
<text text-anchor="start" x="8" y="-394" font-family="Helvetica,sans-Serif" font-size="10.00">com.teragrep.pth_06.ast.analyze.</text>
<text text-anchor="middle" x="90" y="-383" font-family="Helvetica,sans-Serif" font-size="10.00">ScanPlanImpl.toRangeBetween</text>
</a>
</g>
</g>
<!-- Node4&#45;&gt;Node5 -->
<g id="edge5_Node000004_Node000005" class="edge">
<title>Node4&#45;&gt;Node5</title>
<g id="a_edge5_Node000004_Node000005"><a xlink:title=" ">
<path fill="none" stroke="#63b8ff" d="M235.19,-393.96C217.01,-393.59 198.14,-393.2 180.28,-392.83"/>
<polygon fill="#63b8ff" stroke="#63b8ff" points="235.14,-397.46 245.21,-394.17 235.29,-390.46 235.14,-397.46"/>
</a>
</g>
</g>
</g>
</svg>
