<?xml version="1.0" encoding="UTF-8" standalone="no"?>
<!DOCTYPE svg PUBLIC "-//W3C//DTD SVG 1.1//EN"
 "http://www.w3.org/Graphics/SVG/1.1/DTD/svg11.dtd">
<!-- Generated by graphviz version 2.43.0 (0)
 -->
<!-- Title: com.teragrep.pth_06.Stubbable.isStub Pages: 1 -->
<svg width="1104pt" height="1000pt"
 viewBox="0.00 0.00 1104.00 1000.00" xmlns="http://www.w3.org/2000/svg" xmlns:xlink="http://www.w3.org/1999/xlink">
<g id="graph0" class="graph" transform="scale(1 1) rotate(0) translate(4 996)">
<title>com.teragrep.pth_06.Stubbable.isStub</title>
<!-- Node1 -->
<g id="Node000001" class="node">
<title>Node1</title>
<g id="a_Node000001"><a xlink:title=" ">
<polygon fill="#999999" stroke="#666666" points="1096,-540.5 893,-540.5 893,-521.5 1096,-521.5 1096,-540.5"/>
<text text-anchor="middle" x="994.5" y="-528.5" font-family="Helvetica,sans-Serif" font-size="10.00">com.teragrep.pth_06.Stubbable.isStub</text>
</a>
</g>
</g>
<!-- Node2 -->
<g id="Node000002" class="node">
<title>Node2</title>
<g id="a_Node000002"><a xlink:href="classcom_1_1teragrep_1_1pth__06_1_1planner_1_1HBaseQueryImpl.html#a7be62df723f8819e4c878c9ff88ddc64" target="_top" xlink:title="Returns the current batch, this value is updated using the latest() method.">
<polygon fill="white" stroke="#666666" points="819.5,-964 655.5,-964 655.5,-934 819.5,-934 819.5,-964"/>
<text text-anchor="start" x="663.5" y="-952" font-family="Helvetica,sans-Serif" font-size="10.00">com.teragrep.pth_06.planner.</text>
<text text-anchor="middle" x="737.5" y="-941" font-family="Helvetica,sans-Serif" font-size="10.00">HBaseQueryImpl.currentBatch</text>
</a>
</g>
</g>
<!-- Node1&#45;&gt;Node2 -->
<g id="edge1_Node000001_Node000002" class="edge">
<title>Node1&#45;&gt;Node2</title>
<g id="a_edge1_Node000001_Node000002"><a xlink:title=" ">
<path fill="none" stroke="#63b8ff" d="M993.12,-550.54C990.75,-615.03 973.95,-822.72 857,-925 846.41,-934.26 833.25,-940.31 819.59,-944.21"/>
<polygon fill="#63b8ff" stroke="#63b8ff" points="996.62,-550.63 993.41,-540.53 989.62,-550.43 996.62,-550.63"/>
</a>
</g>
</g>
<!-- Node3 -->
<g id="Node000003" class="node">
<title>Node3</title>
<g id="a_Node000003"><a xlink:href="classcom_1_1teragrep_1_1pth__06_1_1planner_1_1HBaseQueryImpl.html#a5a99d0c15e25eab70b9ae20662d988c9" target="_top" xlink:title=" ">
<polygon fill="white" stroke="#666666" points="817.5,-916 657.5,-916 657.5,-886 817.5,-886 817.5,-916"/>
<text text-anchor="start" x="665.5" y="-904" font-family="Helvetica,sans-Serif" font-size="10.00">com.teragrep.pth_06.planner.</text>
<text text-anchor="middle" x="737.5" y="-893" font-family="Helvetica,sans-Serif" font-size="10.00">HBaseQueryImpl.isOpen</text>
</a>
</g>
</g>
<!-- Node1&#45;&gt;Node3 -->
<g id="edge2_Node000001_Node000003" class="edge">
<title>Node1&#45;&gt;Node3</title>
<g id="a_edge2_Node000001_Node000003"><a xlink:title=" ">
<path fill="none" stroke="#63b8ff" d="M991.74,-550.78C985.43,-609.44 958.57,-783.81 857,-872 845.81,-881.72 831.87,-888.29 817.54,-892.71"/>
<polygon fill="#63b8ff" stroke="#63b8ff" points="995.24,-550.95 992.75,-540.65 988.28,-550.26 995.24,-550.95"/>
</a>
</g>
</g>
<!-- Node6 -->
<g id="Node000006" class="node">
<title>Node6</title>
<g id="a_Node000006"><a xlink:href="classcom_1_1teragrep_1_1pth__06_1_1planner_1_1HBaseQueryImpl.html#a5cc16609895c644b18d504dc49cbcd64" target="_top" xlink:title="Queries results form hbase until the batch limit is reached and updates latest.">
<polygon fill="white" stroke="#666666" points="160,-892 0,-892 0,-862 160,-862 160,-892"/>
<text text-anchor="start" x="8" y="-880" font-family="Helvetica,sans-Serif" font-size="10.00">com.teragrep.pth_06.planner.</text>
<text text-anchor="middle" x="80" y="-869" font-family="Helvetica,sans-Serif" font-size="10.00">HBaseQueryImpl.latest</text>
</a>
</g>
</g>
<!-- Node1&#45;&gt;Node6 -->
<g id="edge9_Node000001_Node000006" class="edge">
<title>Node1&#45;&gt;Node6</title>
<g id="a_edge9_Node000001_Node000006"><a xlink:title=" ">
<path fill="none" stroke="#63b8ff" d="M991.24,-550.84C983.79,-605.91 954.62,-760.99 857,-828 800.55,-866.74 346.22,-874.85 160.09,-876.55"/>
<polygon fill="#63b8ff" stroke="#63b8ff" points="994.74,-551.03 992.51,-540.67 987.8,-550.16 994.74,-551.03"/>
</a>
</g>
</g>
<!-- Node7 -->
<g id="Node000007" class="node">
<title>Node7</title>
<g id="a_Node000007"><a xlink:href="classcom_1_1teragrep_1_1pth__06_1_1planner_1_1HBaseQueryImpl.html#a3e76b78ec59462795de6428b6e549cab" target="_top" xlink:title=" ">
<polygon fill="white" stroke="#666666" points="582,-830 392,-830 392,-800 582,-800 582,-830"/>
<text text-anchor="start" x="400" y="-818" font-family="Helvetica,sans-Serif" font-size="10.00">com.teragrep.pth_06.planner.</text>
<text text-anchor="middle" x="487" y="-807" font-family="Helvetica,sans-Serif" font-size="10.00">HBaseQueryImpl.mostRecentOffset</text>
</a>
</g>
</g>
<!-- Node1&#45;&gt;Node7 -->
<g id="edge10_Node000001_Node000007" class="edge">
<title>Node1&#45;&gt;Node7</title>
<g id="a_edge10_Node000001_Node000007"><a xlink:title=" ">
<path fill="none" stroke="#63b8ff" d="M990.45,-550.57C981.23,-602.23 948.44,-742.35 857,-801 813.16,-829.12 676.29,-827.18 582.17,-822.02"/>
<polygon fill="#63b8ff" stroke="#63b8ff" points="993.9,-551.13 992.11,-540.69 987,-549.97 993.9,-551.13"/>
</a>
</g>
</g>
<!-- Node8 -->
<g id="Node000008" class="node">
<title>Node8</title>
<g id="a_Node000008"><a xlink:href="classcom_1_1teragrep_1_1pth__06_1_1ast_1_1analyze_1_1ScanPlanView.html#aef456f72ac3b4f691579562f88fd6a58" target="_top" xlink:title="Returns results for the next window spanning the given duration in seconds from the last processed ep...">
<polygon fill="white" stroke="#666666" points="827.5,-792 647.5,-792 647.5,-762 827.5,-762 827.5,-792"/>
<text text-anchor="start" x="655.5" y="-780" font-family="Helvetica,sans-Serif" font-size="10.00">com.teragrep.pth_06.ast.analyze.</text>
<text text-anchor="middle" x="737.5" y="-769" font-family="Helvetica,sans-Serif" font-size="10.00">ScanPlanView.nextWindow</text>
</a>
</g>
</g>
<!-- Node1&#45;&gt;Node8 -->
<g id="edge12_Node000001_Node000008" class="edge">
<title>Node1&#45;&gt;Node8</title>
<g id="a_edge12_Node000001_Node000008"><a xlink:title=" ">
<path fill="none" stroke="#63b8ff" d="M987.42,-550.75C972.79,-594.78 931.2,-701.17 857,-753 848.14,-759.19 838.04,-763.86 827.58,-767.37"/>
<polygon fill="#63b8ff" stroke="#63b8ff" points="990.84,-551.56 990.57,-540.97 984.17,-549.42 990.84,-551.56"/>
</a>
</g>
</g>
<!-- Node9 -->
<g id="Node000009" class="node">
<title>Node9</title>
<g id="a_Node000009"><a xlink:href="classcom_1_1teragrep_1_1pth__06_1_1ast_1_1analyze_1_1ScanPlanView.html#a25a3cb7ec9ecd5785c2d5d71fec42934" target="_top" xlink:title=" ">
<polygon fill="white" stroke="#666666" points="827.5,-744 647.5,-744 647.5,-714 827.5,-714 827.5,-744"/>
<text text-anchor="start" x="655.5" y="-732" font-family="Helvetica,sans-Serif" font-size="10.00">com.teragrep.pth_06.ast.analyze.</text>
<text text-anchor="middle" x="737.5" y="-721" font-family="Helvetica,sans-Serif" font-size="10.00">ScanPlanView.open</text>
</a>
</g>
</g>
<!-- Node1&#45;&gt;Node9 -->
<g id="edge13_Node000001_Node000009" class="edge">
<title>Node1&#45;&gt;Node9</title>
<g id="a_edge13_Node000001_Node000009"><a xlink:title=" ">
<path fill="none" stroke="#63b8ff" d="M984.45,-549.92C965.99,-586.31 920.32,-665.94 857,-705 847.98,-710.57 837.9,-714.87 827.54,-718.19"/>
<polygon fill="#63b8ff" stroke="#63b8ff" points="987.63,-551.38 988.93,-540.87 981.36,-548.28 987.63,-551.38"/>
</a>
</g>
</g>
<!-- Node10 -->
<g id="Node000010" class="node">
<title>Node10</title>
<g id="a_Node000010"><a xlink:href="classcom_1_1teragrep_1_1pth__06_1_1planner_1_1BatchSizeLimitedResults.html#ae00e5b05a1d9b84bd282a2ba0ae4fa4f" target="_top" xlink:title=" ">
<polygon fill="white" stroke="#666666" points="824,-696 651,-696 651,-666 824,-666 824,-696"/>
<text text-anchor="start" x="659" y="-684" font-family="Helvetica,sans-Serif" font-size="10.00">com.teragrep.pth_06.planner.</text>
<text text-anchor="middle" x="737.5" y="-673" font-family="Helvetica,sans-Serif" font-size="10.00">BatchSizeLimitedResults.results</text>
</a>
</g>
</g>
<!-- Node1&#45;&gt;Node10 -->
<g id="edge14_Node000001_Node000010" class="edge">
<title>Node1&#45;&gt;Node10</title>
<g id="a_edge14_Node000001_Node000010"><a xlink:title=" ">
<path fill="none" stroke="#63b8ff" d="M979.75,-548.85C957.28,-576.67 909.86,-629.97 857,-657 846.81,-662.21 835.59,-666.29 824.24,-669.48"/>
<polygon fill="#63b8ff" stroke="#63b8ff" points="982.68,-550.79 986.14,-540.78 977.19,-546.44 982.68,-550.79"/>
</a>
</g>
</g>
<!-- Node11 -->
<g id="Node000011" class="node">
<title>Node11</title>
<g id="a_Node000011"><a xlink:href="classcom_1_1teragrep_1_1pth__06_1_1planner_1_1factory_1_1ArchiveQueryFactoryTest.html#af3e29e0f05440d8570c8173ce51eae85" target="_top" xlink:title=" ">
<polygon fill="white" stroke="#666666" points="857,-648 618,-648 618,-618 857,-618 857,-648"/>
<text text-anchor="start" x="626" y="-636" font-family="Helvetica,sans-Serif" font-size="10.00">com.teragrep.pth_06.planner.factory.</text>
<text text-anchor="middle" x="737.5" y="-625" font-family="Helvetica,sans-Serif" font-size="10.00">ArchiveQueryFactoryTest.testArchiveDisabled</text>
</a>
</g>
</g>
<!-- Node1&#45;&gt;Node11 -->
<g id="edge15_Node000001_Node000011" class="edge">
<title>Node1&#45;&gt;Node11</title>
<g id="a_edge15_Node000001_Node000011"><a xlink:title=" ">
<path fill="none" stroke="#63b8ff" d="M971.91,-546.26C945.87,-563.96 900.2,-592.77 857,-609 847.86,-612.43 838.14,-615.41 828.33,-617.99"/>
<polygon fill="#63b8ff" stroke="#63b8ff" points="974.02,-549.06 980.27,-540.5 970.05,-543.29 974.02,-549.06"/>
</a>
</g>
</g>
<!-- Node12 -->
<g id="Node000012" class="node">
<title>Node12</title>
<g id="a_Node000012"><a xlink:href="classcom_1_1teragrep_1_1pth__06_1_1planner_1_1factory_1_1HBaseQueryFactoryTest.html#accb981fefc6d7891c89815cd93dd6d41" target="_top" xlink:title=" ">
<polygon fill="white" stroke="#666666" points="854,-600 621,-600 621,-570 854,-570 854,-600"/>
<text text-anchor="start" x="629" y="-588" font-family="Helvetica,sans-Serif" font-size="10.00">com.teragrep.pth_06.planner.factory.</text>
<text text-anchor="middle" x="737.5" y="-577" font-family="Helvetica,sans-Serif" font-size="10.00">HBaseQueryFactoryTest.testArchiveDisabled</text>
</a>
</g>
</g>
<!-- Node1&#45;&gt;Node12 -->
<g id="edge16_Node000001_Node000012" class="edge">
<title>Node1&#45;&gt;Node12</title>
<g id="a_edge16_Node000001_Node000012"><a xlink:title=" ">
<path fill="none" stroke="#63b8ff" d="M938.63,-542.68C913.72,-547.97 883.87,-554.31 857,-560 841.78,-563.22 825.46,-566.67 809.94,-569.95"/>
<polygon fill="#63b8ff" stroke="#63b8ff" points="939.57,-546.05 948.62,-540.55 938.11,-539.21 939.57,-546.05"/>
</a>
</g>
</g>
<!-- Node13 -->
<g id="Node000013" class="node">
<title>Node13</title>
<g id="a_Node000013"><a xlink:href="classcom_1_1teragrep_1_1pth__06_1_1planner_1_1factory_1_1ArchiveQueryFactoryTest.html#ac8c44578cea9b7e3c2f3df29f1cbdea9" target="_top" xlink:title=" ">
<polygon fill="white" stroke="#666666" points="857,-551.5 618,-551.5 618,-510.5 857,-510.5 857,-551.5"/>
<text text-anchor="start" x="626" y="-539.5" font-family="Helvetica,sans-Serif" font-size="10.00">com.teragrep.pth_06.planner.factory.</text>
<text text-anchor="start" x="626" y="-528.5" font-family="Helvetica,sans-Serif" font-size="10.00">ArchiveQueryFactoryTest.testArchiveDisabled</text>
<text text-anchor="middle" x="737.5" y="-517.5" font-family="Helvetica,sans-Serif" font-size="10.00">WhenHbaseIsEnabled</text>
</a>
</g>
</g>
<!-- Node1&#45;&gt;Node13 -->
<g id="edge17_Node000001_Node000013" class="edge">
<title>Node1&#45;&gt;Node13</title>
<g id="a_edge17_Node000001_Node000013"><a xlink:title=" ">
<path fill="none" stroke="#63b8ff" d="M882.51,-531C874.09,-531 865.57,-531 857.11,-531"/>
<polygon fill="#63b8ff" stroke="#63b8ff" points="882.72,-534.5 892.72,-531 882.72,-527.5 882.72,-534.5"/>
</a>
</g>
</g>
<!-- Node14 -->
<g id="Node000014" class="node">
<title>Node14</title>
<g id="a_Node000014"><a xlink:href="classcom_1_1teragrep_1_1pth__06_1_1planner_1_1factory_1_1HBaseQueryFactoryTest.html#a157a28dda969a12f015a663d0783ad34" target="_top" xlink:title=" ">
<polygon fill="white" stroke="#666666" points="849.5,-492 625.5,-492 625.5,-462 849.5,-462 849.5,-492"/>
<text text-anchor="start" x="633.5" y="-480" font-family="Helvetica,sans-Serif" font-size="10.00">com.teragrep.pth_06.planner.factory.</text>
<text text-anchor="middle" x="737.5" y="-469" font-family="Helvetica,sans-Serif" font-size="10.00">HBaseQueryFactoryTest.testHBaseEnabled</text>
</a>
</g>
</g>
<!-- Node1&#45;&gt;Node14 -->
<g id="edge18_Node000001_Node000014" class="edge">
<title>Node1&#45;&gt;Node14</title>
<g id="a_edge18_Node000001_Node000014"><a xlink:title=" ">
<path fill="none" stroke="#63b8ff" d="M941.31,-519.32C915.89,-513.68 884.87,-506.89 857,-501 843.03,-498.05 828.13,-494.98 813.76,-492.05"/>
<polygon fill="#63b8ff" stroke="#63b8ff" points="940.59,-522.74 951.11,-521.5 942.11,-515.91 940.59,-522.74"/>
</a>
</g>
</g>
<!-- Node15 -->
<g id="Node000015" class="node">
<title>Node15</title>
<g id="a_Node000015"><a xlink:href="classcom_1_1teragrep_1_1pth__06_1_1ast_1_1analyze_1_1ScanPlanImplTest.html#a2d60f7b657fa96db2c0f195f1cccdc66" target="_top" xlink:title=" ">
<polygon fill="white" stroke="#666666" points="857,-443.5 618,-443.5 618,-402.5 857,-402.5 857,-443.5"/>
<text text-anchor="start" x="626" y="-431.5" font-family="Helvetica,sans-Serif" font-size="10.00">com.teragrep.pth_06.ast.analyze.</text>
<text text-anchor="start" x="626" y="-420.5" font-family="Helvetica,sans-Serif" font-size="10.00">ScanPlanImplTest.testRangeBetweenUpdated</text>
<text text-anchor="middle" x="737.5" y="-409.5" font-family="Helvetica,sans-Serif" font-size="10.00">EarliestUpdated</text>
</a>
</g>
</g>
<!-- Node1&#45;&gt;Node15 -->
<g id="edge19_Node000001_Node000015" class="edge">
<title>Node1&#45;&gt;Node15</title>
<g id="a_edge19_Node000001_Node000015"><a xlink:title=" ">
<path fill="none" stroke="#63b8ff" d="M971.36,-515.82C945.11,-498.45 899.57,-470.18 857,-453 848.44,-449.55 839.37,-446.4 830.2,-443.55"/>
<polygon fill="#63b8ff" stroke="#63b8ff" points="969.54,-518.82 979.8,-521.48 973.44,-513 969.54,-518.82"/>
</a>
</g>
</g>
<!-- Node16 -->
<g id="Node000016" class="node">
<title>Node16</title>
<g id="a_Node000016"><a xlink:href="classcom_1_1teragrep_1_1pth__06_1_1ast_1_1analyze_1_1ScanPlanImplTest.html#ab821bbe4d31ba06f4e8b537f7dc9b80d" target="_top" xlink:title=" ">
<polygon fill="white" stroke="#666666" points="857,-384.5 618,-384.5 618,-343.5 857,-343.5 857,-384.5"/>
<text text-anchor="start" x="626" y="-372.5" font-family="Helvetica,sans-Serif" font-size="10.00">com.teragrep.pth_06.ast.analyze.</text>
<text text-anchor="start" x="626" y="-361.5" font-family="Helvetica,sans-Serif" font-size="10.00">ScanPlanImplTest.testRangeBetweenUpdated</text>
<text text-anchor="middle" x="737.5" y="-350.5" font-family="Helvetica,sans-Serif" font-size="10.00">EarliestWithinBounds</text>
</a>
</g>
</g>
<!-- Node1&#45;&gt;Node16 -->
<g id="edge20_Node000001_Node000016" class="edge">
<title>Node1&#45;&gt;Node16</title>
<g id="a_edge20_Node000001_Node000016"><a xlink:title=" ">
<path fill="none" stroke="#63b8ff" d="M980.94,-512.95C959.23,-483.18 911.74,-424.01 857,-393 851.47,-389.87 845.61,-387.07 839.57,-384.58"/>
<polygon fill="#63b8ff" stroke="#63b8ff" points="978.16,-515.08 986.83,-521.18 983.85,-511.01 978.16,-515.08"/>
</a>
</g>
</g>
<!-- Node17 -->
<g id="Node000017" class="node">
<title>Node17</title>
<g id="a_Node000017"><a xlink:href="classcom_1_1teragrep_1_1pth__06_1_1ast_1_1analyze_1_1ScanPlanImplTest.html#a0c7d4fddf372b7a5f43b223b4f803bc6" target="_top" xlink:title=" ">
<polygon fill="white" stroke="#666666" points="857,-325.5 618,-325.5 618,-284.5 857,-284.5 857,-325.5"/>
<text text-anchor="start" x="626" y="-313.5" font-family="Helvetica,sans-Serif" font-size="10.00">com.teragrep.pth_06.ast.analyze.</text>
<text text-anchor="start" x="626" y="-302.5" font-family="Helvetica,sans-Serif" font-size="10.00">ScanPlanImplTest.testRangeBetweenUpdated</text>
<text text-anchor="middle" x="737.5" y="-291.5" font-family="Helvetica,sans-Serif" font-size="10.00">LatestToEarliest</text>
</a>
</g>
</g>
<!-- Node1&#45;&gt;Node17 -->
<g id="edge21_Node000001_Node000017" class="edge">
<title>Node1&#45;&gt;Node17</title>
<g id="a_edge21_Node000001_Node000017"><a xlink:title=" ">
<path fill="none" stroke="#63b8ff" d="M985.95,-512.05C969.13,-472.41 924.66,-380.53 857,-334 852.46,-330.88 847.62,-328.09 842.59,-325.61"/>
<polygon fill="#63b8ff" stroke="#63b8ff" points="982.74,-513.45 989.79,-521.36 989.21,-510.78 982.74,-513.45"/>
</a>
</g>
</g>
<!-- Node18 -->
<g id="Node000018" class="node">
<title>Node18</title>
<g id="a_Node000018"><a xlink:href="classcom_1_1teragrep_1_1pth__06_1_1ast_1_1analyze_1_1ScanPlanImplTest.html#a23bbbea8452c7f5fa341a94bd8aa12a2" target="_top" xlink:title=" ">
<polygon fill="white" stroke="#666666" points="857,-266.5 618,-266.5 618,-225.5 857,-225.5 857,-266.5"/>
<text text-anchor="start" x="626" y="-254.5" font-family="Helvetica,sans-Serif" font-size="10.00">com.teragrep.pth_06.ast.analyze.</text>
<text text-anchor="start" x="626" y="-243.5" font-family="Helvetica,sans-Serif" font-size="10.00">ScanPlanImplTest.testRangeBetweenUpdated</text>
<text text-anchor="middle" x="737.5" y="-232.5" font-family="Helvetica,sans-Serif" font-size="10.00">LatestUpdated</text>
</a>
</g>
</g>
<!-- Node1&#45;&gt;Node18 -->
<g id="edge22_Node000001_Node000018" class="edge">
<title>Node1&#45;&gt;Node18</title>
<g id="a_edge22_Node000001_Node000018"><a xlink:title=" ">
<path fill="none" stroke="#63b8ff" d="M988.95,-511.48C976.68,-463.3 938.18,-338.07 857,-275 852.99,-271.88 848.68,-269.09 844.18,-266.6"/>
<polygon fill="#63b8ff" stroke="#63b8ff" points="985.57,-512.39 991.35,-521.27 992.37,-510.72 985.57,-512.39"/>
</a>
</g>
</g>
<!-- Node19 -->
<g id="Node000019" class="node">
<title>Node19</title>
<g id="a_Node000019"><a xlink:href="classcom_1_1teragrep_1_1pth__06_1_1ast_1_1analyze_1_1ScanPlanImplTest.html#a36678e11f1eb9ba425e323be431443e3" target="_top" xlink:title=" ">
<polygon fill="white" stroke="#666666" points="857,-207.5 618,-207.5 618,-166.5 857,-166.5 857,-207.5"/>
<text text-anchor="start" x="626" y="-195.5" font-family="Helvetica,sans-Serif" font-size="10.00">com.teragrep.pth_06.ast.analyze.</text>
<text text-anchor="start" x="626" y="-184.5" font-family="Helvetica,sans-Serif" font-size="10.00">ScanPlanImplTest.testRangeBetweenUpdated</text>
<text text-anchor="middle" x="737.5" y="-173.5" font-family="Helvetica,sans-Serif" font-size="10.00">LatestWithinBounds</text>
</a>
</g>
</g>
<!-- Node1&#45;&gt;Node19 -->
<g id="edge23_Node000001_Node000019" class="edge">
<title>Node1&#45;&gt;Node19</title>
<g id="a_edge23_Node000001_Node000019"><a xlink:title=" ">
<path fill="none" stroke="#63b8ff" d="M991.02,-511.25C982.96,-455.6 952.24,-296.37 857,-216 853.28,-212.86 849.27,-210.05 845.05,-207.53"/>
<polygon fill="#63b8ff" stroke="#63b8ff" points="987.56,-511.78 992.38,-521.21 994.5,-510.83 987.56,-511.78"/>
</a>
</g>
</g>
<!-- Node20 -->
<g id="Node000020" class="node">
<title>Node20</title>
<g id="a_Node000020"><a xlink:href="classcom_1_1teragrep_1_1pth__06_1_1planner_1_1BatchSizeLimitedResultsTest.html#a99d9c8ed699224760848043f2c8372ba" target="_top" xlink:title=" ">
<polygon fill="white" stroke="#666666" points="827,-148.5 648,-148.5 648,-107.5 827,-107.5 827,-148.5"/>
<text text-anchor="start" x="656" y="-136.5" font-family="Helvetica,sans-Serif" font-size="10.00">com.teragrep.pth_06.planner.</text>
<text text-anchor="start" x="656" y="-125.5" font-family="Helvetica,sans-Serif" font-size="10.00">BatchSizeLimitedResultsTest.test</text>
<text text-anchor="middle" x="737.5" y="-114.5" font-family="Helvetica,sans-Serif" font-size="10.00">Stubbable</text>
</a>
</g>
</g>
<!-- Node1&#45;&gt;Node20 -->
<g id="edge24_Node000001_Node000020" class="edge">
<title>Node1&#45;&gt;Node20</title>
<g id="a_edge24_Node000001_Node000020"><a xlink:title=" ">
<path fill="none" stroke="#63b8ff" d="M992.54,-511.4C988.38,-449.33 966.78,-255.33 857,-157 848.4,-149.3 838.09,-143.56 827.19,-139.3"/>
<polygon fill="#63b8ff" stroke="#63b8ff" points="989.04,-511.63 993.13,-521.41 996.03,-511.22 989.04,-511.63"/>
</a>
</g>
</g>
<!-- Node21 -->
<g id="Node000021" class="node">
<title>Node21</title>
<g id="a_Node000021"><a xlink:href="classcom_1_1teragrep_1_1pth__06_1_1ast_1_1analyze_1_1ScanPlanImplTest.html#a6177b1f6c10fee4096f1870ff67f727d" target="_top" xlink:title=" ">
<polygon fill="white" stroke="#666666" points="839,-89.5 636,-89.5 636,-48.5 839,-48.5 839,-89.5"/>
<text text-anchor="start" x="644" y="-77.5" font-family="Helvetica,sans-Serif" font-size="10.00">com.teragrep.pth_06.ast.analyze.</text>
<text text-anchor="start" x="644" y="-66.5" font-family="Helvetica,sans-Serif" font-size="10.00">ScanPlanImplTest.testToRangeOutside</text>
<text text-anchor="middle" x="737.5" y="-55.5" font-family="Helvetica,sans-Serif" font-size="10.00">BoundsStub</text>
</a>
</g>
</g>
<!-- Node1&#45;&gt;Node21 -->
<g id="edge25_Node000001_Node000021" class="edge">
<title>Node1&#45;&gt;Node21</title>
<g id="a_edge25_Node000001_Node000021"><a xlink:title=" ">
<path fill="none" stroke="#63b8ff" d="M993.64,-511.12C993.01,-442.64 981.26,-214.39 857,-98 851.67,-93 845.62,-88.83 839.15,-85.34"/>
<polygon fill="#63b8ff" stroke="#63b8ff" points="990.15,-511.35 993.66,-521.35 997.15,-511.34 990.15,-511.35"/>
</a>
</g>
</g>
<!-- Node22 -->
<g id="Node000022" class="node">
<title>Node22</title>
<g id="a_Node000022"><a xlink:href="classcom_1_1teragrep_1_1pth__06_1_1ast_1_1analyze_1_1ScanPlanView.html#ae82b27c34e77ba1efd83f072c8cad179" target="_top" xlink:title="Returns a new ScanRangeView from an updated offset start point.">
<polygon fill="white" stroke="#666666" points="827.5,-30 647.5,-30 647.5,0 827.5,0 827.5,-30"/>
<text text-anchor="start" x="655.5" y="-18" font-family="Helvetica,sans-Serif" font-size="10.00">com.teragrep.pth_06.ast.analyze.</text>
<text text-anchor="middle" x="737.5" y="-7" font-family="Helvetica,sans-Serif" font-size="10.00">ScanPlanView.viewFromOffset</text>
</a>
</g>
</g>
<!-- Node1&#45;&gt;Node22 -->
<g id="edge26_Node000001_Node000022" class="edge">
<title>Node1&#45;&gt;Node22</title>
<g id="a_edge26_Node000001_Node000022"><a xlink:title=" ">
<path fill="none" stroke="#63b8ff" d="M990.77,-511.14C978.9,-427.62 929.09,-106.15 857,-39 848.63,-31.2 838.45,-25.64 827.62,-21.71"/>
<polygon fill="#63b8ff" stroke="#63b8ff" points="987.31,-511.68 992.17,-521.1 994.25,-510.71 987.31,-511.68"/>
</a>
</g>
</g>
<!-- Node4 -->
<g id="Node000004" class="node">
<title>Node4</title>
<g id="a_Node000004"><a xlink:href="classcom_1_1teragrep_1_1pth__06_1_1planner_1_1HBaseQueryImpl.html#a5c2fd9106ed54b76d478cf6af5ac5233" target="_top" xlink:title="Closes all open scans in the hourly slices.">
<polygon fill="white" stroke="#666666" points="567,-992 407,-992 407,-962 567,-962 567,-992"/>
<text text-anchor="start" x="415" y="-980" font-family="Helvetica,sans-Serif" font-size="10.00">com.teragrep.pth_06.planner.</text>
<text text-anchor="middle" x="487" y="-969" font-family="Helvetica,sans-Serif" font-size="10.00">HBaseQueryImpl.close</text>
</a>
</g>
</g>
<!-- Node3&#45;&gt;Node4 -->
<g id="edge3_Node000003_Node000004" class="edge">
<title>Node3&#45;&gt;Node4</title>
<g id="a_edge3_Node000003_Node000004"><a xlink:title=" ">
<path fill="none" stroke="#63b8ff" d="M647.51,-915.29C637.4,-918 627.36,-921.21 618,-925 600.4,-932.12 599.23,-940.02 582,-948 570.53,-953.31 557.84,-957.98 545.59,-961.92"/>
<polygon fill="#63b8ff" stroke="#63b8ff" points="648.38,-918.68 657.22,-912.83 646.66,-911.89 648.38,-918.68"/>
</a>
</g>
</g>
<!-- Node5 -->
<g id="Node000005" class="node">
<title>Node5</title>
<g id="a_Node000005"><a xlink:href="classcom_1_1teragrep_1_1pth__06_1_1planner_1_1HBaseQueryImpl.html#aac2c757eda96e3154434977c46d2ac1d" target="_top" xlink:title="Creates open scans for the query, starting from the provided offset.">
<polygon fill="white" stroke="#666666" points="356,-954 196,-954 196,-924 356,-924 356,-954"/>
<text text-anchor="start" x="204" y="-942" font-family="Helvetica,sans-Serif" font-size="10.00">com.teragrep.pth_06.planner.</text>
<text text-anchor="middle" x="276" y="-931" font-family="Helvetica,sans-Serif" font-size="10.00">HBaseQueryImpl.open</text>
</a>
</g>
</g>
<!-- Node3&#45;&gt;Node5 -->
<g id="edge8_Node000003_Node000005" class="edge">
<title>Node3&#45;&gt;Node5</title>
<g id="a_edge8_Node000003_Node000005"><a xlink:title=" ">
<path fill="none" stroke="#63b8ff" d="M647.15,-908.39C562.62,-915.38 436.97,-925.77 356.02,-932.47"/>
<polygon fill="#63b8ff" stroke="#63b8ff" points="647.57,-911.87 657.25,-907.55 646.99,-904.89 647.57,-911.87"/>
</a>
</g>
</g>
<!-- Node3&#45;&gt;Node6 -->
<g id="edge7_Node000003_Node000006" class="edge">
<title>Node3&#45;&gt;Node6</title>
<g id="a_edge7_Node000003_Node000006"><a xlink:title=" ">
<path fill="none" stroke="#63b8ff" d="M647.21,-897.73C518.51,-893.02 282.86,-884.39 160.09,-879.9"/>
<polygon fill="#63b8ff" stroke="#63b8ff" points="647.31,-901.24 657.43,-898.11 647.57,-894.24 647.31,-901.24"/>
</a>
</g>
</g>
<!-- Node4&#45;&gt;Node5 -->
<g id="edge4_Node000004_Node000005" class="edge">
<title>Node4&#45;&gt;Node5</title>
<g id="a_edge4_Node000004_Node000005"><a xlink:title=" ">
<path fill="none" stroke="#63b8ff" d="M397.14,-960.84C383.51,-958.37 369.52,-955.82 356.13,-953.39"/>
<polygon fill="#63b8ff" stroke="#63b8ff" points="396.52,-964.29 406.99,-962.63 397.77,-957.4 396.52,-964.29"/>
</a>
</g>
</g>
<!-- Node5&#45;&gt;Node6 -->
<g id="edge5_Node000005_Node000006" class="edge">
<title>Node5&#45;&gt;Node6</title>
<g id="a_edge5_Node000005_Node000006"><a xlink:title=" ">
<path fill="none" stroke="#63b8ff" d="M218.18,-920.84C189.58,-911.7 155.33,-900.75 128.2,-892.09"/>
<polygon fill="#63b8ff" stroke="#63b8ff" points="217.45,-924.28 228.04,-923.99 219.58,-917.61 217.45,-924.28"/>
</a>
</g>
</g>
<!-- Node6&#45;&gt;Node6 -->
<g id="edge6_Node000006_Node000006" class="edge">
<title>Node6&#45;&gt;Node6</title>
<g id="a_edge6_Node000006_Node000006"><a xlink:title=" ">
<path fill="none" stroke="#63b8ff" d="M114.31,-902.6C109.62,-906.97 98.18,-910 80,-910 49.38,-910 37.89,-901.41 45.55,-892.28"/>
<polygon fill="#63b8ff" stroke="#63b8ff" points="117.81,-902.32 114.45,-892.28 110.81,-902.22 117.81,-902.32"/>
</a>
</g>
</g>
<!-- Node7&#45;&gt;Node6 -->
<g id="edge11_Node000007_Node000006" class="edge">
<title>Node7&#45;&gt;Node6</title>
<g id="a_edge11_Node000007_Node000006"><a xlink:title=" ">
<path fill="none" stroke="#63b8ff" d="M381.48,-820.89C326.02,-825.16 256.93,-832.31 196,-844 172.75,-848.46 147.4,-855.49 126.43,-861.92"/>
<polygon fill="#63b8ff" stroke="#63b8ff" points="381.96,-824.37 391.67,-820.13 381.44,-817.39 381.96,-824.37"/>
</a>
</g>
</g>
</g>
</svg>
