<?xml version="1.0" encoding="UTF-8" standalone="no"?>
<!DOCTYPE svg PUBLIC "-//W3C//DTD SVG 1.1//EN"
 "http://www.w3.org/Graphics/SVG/1.1/DTD/svg11.dtd">
<!-- Generated by graphviz version 2.43.0 (0)
 -->
<!-- Title: com.teragrep.pth_06.Stubbable Pages: 1 -->
<svg width="610pt" height="662pt"
 viewBox="0.00 0.00 610.00 662.00" xmlns="http://www.w3.org/2000/svg" xmlns:xlink="http://www.w3.org/1999/xlink">
<g id="graph0" class="graph" transform="scale(1 1) rotate(0) translate(4 658)">
<title>com.teragrep.pth_06.Stubbable</title>
<!-- Node1 -->
<g id="Node000001" class="node">
<title>Node1</title>
<g id="a_Node000001"><a xlink:title=" ">
<polygon fill="#999999" stroke="#666666" points="170,-336.5 0,-336.5 0,-317.5 170,-317.5 170,-336.5"/>
<text text-anchor="middle" x="85" y="-324.5" font-family="Helvetica,sans-Serif" font-size="10.00">com.teragrep.pth_06.Stubbable</text>
</a>
</g>
</g>
<!-- Node2 -->
<g id="Node000002" class="node">
<title>Node2</title>
<g id="a_Node000002"><a xlink:href="interfacecom_1_1teragrep_1_1pth__06_1_1ast_1_1analyze_1_1ScanPlan.html" target="_top" xlink:title="Logical plan for a row key range scan of HBase.">
<polygon fill="white" stroke="#666666" points="386,-606 206,-606 206,-576 386,-576 386,-606"/>
<text text-anchor="start" x="214" y="-594" font-family="Helvetica,sans-Serif" font-size="10.00">com.teragrep.pth_06.ast.analyze.</text>
<text text-anchor="middle" x="296" y="-583" font-family="Helvetica,sans-Serif" font-size="10.00">ScanPlan</text>
</a>
</g>
</g>
<!-- Node1&#45;&gt;Node2 -->
<g id="edge1_Node000001_Node000002" class="edge">
<title>Node1&#45;&gt;Node2</title>
<g id="a_edge1_Node000001_Node000002"><a xlink:title=" ">
<path fill="none" stroke="#63b8ff" d="M98.03,-345.41C118.86,-376.93 163.52,-442.88 206,-495 230.41,-524.95 261.65,-557.45 279.88,-575.92"/>
<polygon fill="#63b8ff" stroke="#63b8ff" points="100.77,-343.22 92.35,-336.79 94.92,-347.07 100.77,-343.22"/>
</a>
</g>
</g>
<!-- Node5 -->
<g id="Node000005" class="node">
<title>Node5</title>
<g id="a_Node000005"><a xlink:href="interfacecom_1_1teragrep_1_1pth__06_1_1planner_1_1ArchiveQuery.html" target="_top" xlink:title=" ">
<polygon fill="white" stroke="#666666" points="376,-486 216,-486 216,-456 376,-456 376,-486"/>
<text text-anchor="start" x="224" y="-474" font-family="Helvetica,sans-Serif" font-size="10.00">com.teragrep.pth_06.planner.</text>
<text text-anchor="middle" x="296" y="-463" font-family="Helvetica,sans-Serif" font-size="10.00">ArchiveQuery</text>
</a>
</g>
</g>
<!-- Node1&#45;&gt;Node5 -->
<g id="edge4_Node000001_Node000005" class="edge">
<title>Node1&#45;&gt;Node5</title>
<g id="a_edge4_Node000001_Node000005"><a xlink:title=" ">
<path fill="none" stroke="#63b8ff" d="M108.4,-342.43C148.76,-370.24 233.19,-428.41 273.15,-455.94"/>
<polygon fill="#63b8ff" stroke="#63b8ff" points="110.26,-339.46 100.04,-336.67 106.29,-345.23 110.26,-339.46"/>
</a>
</g>
</g>
<!-- Node9 -->
<g id="Node000009" class="node">
<title>Node9</title>
<g id="a_Node000009"><a xlink:href="interfacecom_1_1teragrep_1_1pth__06_1_1planner_1_1HBaseQuery.html" target="_top" xlink:title=" ">
<polygon fill="white" stroke="#666666" points="376,-366 216,-366 216,-336 376,-336 376,-366"/>
<text text-anchor="start" x="224" y="-354" font-family="Helvetica,sans-Serif" font-size="10.00">com.teragrep.pth_06.planner.</text>
<text text-anchor="middle" x="296" y="-343" font-family="Helvetica,sans-Serif" font-size="10.00">HBaseQuery</text>
</a>
</g>
</g>
<!-- Node1&#45;&gt;Node9 -->
<g id="edge8_Node000001_Node000009" class="edge">
<title>Node1&#45;&gt;Node9</title>
<g id="a_edge8_Node000001_Node000009"><a xlink:title=" ">
<path fill="none" stroke="#63b8ff" d="M179.15,-337.7C191.44,-339.11 203.93,-340.54 215.94,-341.92"/>
<polygon fill="#63b8ff" stroke="#63b8ff" points="179.24,-334.18 168.9,-336.52 178.44,-341.14 179.24,-334.18"/>
</a>
</g>
</g>
<!-- Node12 -->
<g id="Node000012" class="node">
<title>Node12</title>
<g id="a_Node000012"><a xlink:href="interfacecom_1_1teragrep_1_1pth__06_1_1planner_1_1HourlySlices.html" target="_top" xlink:title=" ">
<polygon fill="white" stroke="#666666" points="376,-294 216,-294 216,-264 376,-264 376,-294"/>
<text text-anchor="start" x="224" y="-282" font-family="Helvetica,sans-Serif" font-size="10.00">com.teragrep.pth_06.planner.</text>
<text text-anchor="middle" x="296" y="-271" font-family="Helvetica,sans-Serif" font-size="10.00">HourlySlices</text>
</a>
</g>
</g>
<!-- Node1&#45;&gt;Node12 -->
<g id="edge11_Node000001_Node000012" class="edge">
<title>Node1&#45;&gt;Node12</title>
<g id="a_edge11_Node000001_Node000012"><a xlink:title=" ">
<path fill="none" stroke="#63b8ff" d="M137.46,-315.18C165.29,-308.79 199.95,-300.83 229.67,-294"/>
<polygon fill="#63b8ff" stroke="#63b8ff" points="136.5,-311.81 127.54,-317.46 138.07,-318.63 136.5,-311.81"/>
</a>
</g>
</g>
<!-- Node16 -->
<g id="Node000016" class="node">
<title>Node16</title>
<g id="a_Node000016"><a xlink:href="interfacecom_1_1teragrep_1_1pth__06_1_1planner_1_1KafkaQuery.html" target="_top" xlink:title=" ">
<polygon fill="white" stroke="#666666" points="376,-174 216,-174 216,-144 376,-144 376,-174"/>
<text text-anchor="start" x="224" y="-162" font-family="Helvetica,sans-Serif" font-size="10.00">com.teragrep.pth_06.planner.</text>
<text text-anchor="middle" x="296" y="-151" font-family="Helvetica,sans-Serif" font-size="10.00">KafkaQuery</text>
</a>
</g>
</g>
<!-- Node1&#45;&gt;Node16 -->
<g id="edge15_Node000001_Node000016" class="edge">
<title>Node1&#45;&gt;Node16</title>
<g id="a_edge15_Node000001_Node000016"><a xlink:title=" ">
<path fill="none" stroke="#63b8ff" d="M105.83,-311.06C146.04,-278.74 236.68,-205.88 276.1,-174.19"/>
<polygon fill="#63b8ff" stroke="#63b8ff" points="103.44,-308.49 97.84,-317.49 107.82,-313.95 103.44,-308.49"/>
</a>
</g>
</g>
<!-- Node19 -->
<g id="Node000019" class="node">
<title>Node19</title>
<g id="a_Node000019"><a xlink:href="interfacecom_1_1teragrep_1_1pth__06_1_1planner_1_1LimitedResults.html" target="_top" xlink:title=" ">
<polygon fill="white" stroke="#666666" points="376,-78 216,-78 216,-48 376,-48 376,-78"/>
<text text-anchor="start" x="224" y="-66" font-family="Helvetica,sans-Serif" font-size="10.00">com.teragrep.pth_06.planner.</text>
<text text-anchor="middle" x="296" y="-55" font-family="Helvetica,sans-Serif" font-size="10.00">LimitedResults</text>
</a>
</g>
</g>
<!-- Node1&#45;&gt;Node19 -->
<g id="edge18_Node000001_Node000019" class="edge">
<title>Node1&#45;&gt;Node19</title>
<g id="a_edge18_Node000001_Node000019"><a xlink:title=" ">
<path fill="none" stroke="#63b8ff" d="M95.1,-308.13C113.07,-272.05 155.73,-191.79 206,-135 225.89,-112.53 253.28,-91.52 272.4,-78.06"/>
<polygon fill="#63b8ff" stroke="#63b8ff" points="91.79,-306.94 90.52,-317.46 98.07,-310.03 91.79,-306.94"/>
</a>
</g>
</g>
<!-- Node3 -->
<g id="Node000003" class="node">
<title>Node3</title>
<g id="a_Node000003"><a xlink:href="classcom_1_1teragrep_1_1pth__06_1_1ast_1_1analyze_1_1ScanPlanImpl.html" target="_top" xlink:title=" ">
<polygon fill="white" stroke="#666666" points="602,-654 422,-654 422,-624 602,-624 602,-654"/>
<text text-anchor="start" x="430" y="-642" font-family="Helvetica,sans-Serif" font-size="10.00">com.teragrep.pth_06.ast.analyze.</text>
<text text-anchor="middle" x="512" y="-631" font-family="Helvetica,sans-Serif" font-size="10.00">ScanPlanImpl</text>
</a>
</g>
</g>
<!-- Node2&#45;&gt;Node3 -->
<g id="edge2_Node000002_Node000003" class="edge">
<title>Node2&#45;&gt;Node3</title>
<g id="a_edge2_Node000002_Node000003"><a xlink:title=" ">
<path fill="none" stroke="#63b8ff" d="M374.14,-608.3C397.04,-613.44 421.92,-619.02 444.11,-624"/>
<polygon fill="#63b8ff" stroke="#63b8ff" points="374.65,-604.83 364.12,-606.06 373.12,-611.66 374.65,-604.83"/>
</a>
</g>
</g>
<!-- Node4 -->
<g id="Node000004" class="node">
<title>Node4</title>
<g id="a_Node000004"><a xlink:href="classcom_1_1teragrep_1_1pth__06_1_1ast_1_1analyze_1_1StubScanPlan.html" target="_top" xlink:title=" ">
<polygon fill="white" stroke="#666666" points="602,-606 422,-606 422,-576 602,-576 602,-606"/>
<text text-anchor="start" x="430" y="-594" font-family="Helvetica,sans-Serif" font-size="10.00">com.teragrep.pth_06.ast.analyze.</text>
<text text-anchor="middle" x="512" y="-583" font-family="Helvetica,sans-Serif" font-size="10.00">StubScanPlan</text>
</a>
</g>
</g>
<!-- Node2&#45;&gt;Node4 -->
<g id="edge3_Node000002_Node000004" class="edge">
<title>Node2&#45;&gt;Node4</title>
<g id="a_edge3_Node000002_Node000004"><a xlink:title=" ">
<path fill="none" stroke="#63b8ff" d="M396.23,-591C404.81,-591 413.45,-591 421.94,-591"/>
<polygon fill="#63b8ff" stroke="#63b8ff" points="396.21,-587.5 386.21,-591 396.21,-594.5 396.21,-587.5"/>
</a>
</g>
</g>
<!-- Node6 -->
<g id="Node000006" class="node">
<title>Node6</title>
<g id="a_Node000006"><a xlink:href="classcom_1_1teragrep_1_1pth__06_1_1planner_1_1ArchiveQueryProcessor.html" target="_top" xlink:title=" ">
<polygon fill="white" stroke="#666666" points="592,-558 432,-558 432,-528 592,-528 592,-558"/>
<text text-anchor="start" x="440" y="-546" font-family="Helvetica,sans-Serif" font-size="10.00">com.teragrep.pth_06.planner.</text>
<text text-anchor="middle" x="512" y="-535" font-family="Helvetica,sans-Serif" font-size="10.00">ArchiveQueryProcessor</text>
</a>
</g>
</g>
<!-- Node5&#45;&gt;Node6 -->
<g id="edge5_Node000005_Node000006" class="edge">
<title>Node5&#45;&gt;Node6</title>
<g id="a_edge5_Node000005_Node000006"><a xlink:title=" ">
<path fill="none" stroke="#63b8ff" d="M342.65,-489.83C366.15,-499.19 395.39,-510.33 422,-519 431.59,-522.12 441.84,-525.16 451.86,-527.97"/>
<polygon fill="#63b8ff" stroke="#63b8ff" points="343.87,-486.55 333.29,-486.08 341.27,-493.05 343.87,-486.55"/>
</a>
</g>
</g>
<!-- Node7 -->
<g id="Node000007" class="node">
<title>Node7</title>
<g id="a_Node000007"><a xlink:href="classcom_1_1teragrep_1_1pth__06_1_1planner_1_1MockArchiveQueryProcessor.html" target="_top" xlink:title=" ">
<polygon fill="white" stroke="#666666" points="592,-510 432,-510 432,-480 592,-480 592,-510"/>
<text text-anchor="start" x="440" y="-498" font-family="Helvetica,sans-Serif" font-size="10.00">com.teragrep.pth_06.planner.</text>
<text text-anchor="middle" x="512" y="-487" font-family="Helvetica,sans-Serif" font-size="10.00">MockArchiveQueryProcessor</text>
</a>
</g>
</g>
<!-- Node5&#45;&gt;Node7 -->
<g id="edge6_Node000005_Node000007" class="edge">
<title>Node5&#45;&gt;Node7</title>
<g id="a_edge6_Node000005_Node000007"><a xlink:title=" ">
<path fill="none" stroke="#63b8ff" d="M386.43,-481.03C401.52,-482.72 417.09,-484.47 431.89,-486.13"/>
<polygon fill="#63b8ff" stroke="#63b8ff" points="386.41,-477.5 376.08,-479.87 385.63,-484.46 386.41,-477.5"/>
</a>
</g>
</g>
<!-- Node8 -->
<g id="Node000008" class="node">
<title>Node8</title>
<g id="a_Node000008"><a xlink:href="classcom_1_1teragrep_1_1pth__06_1_1planner_1_1StubArchiveQuery.html" target="_top" xlink:title=" ">
<polygon fill="white" stroke="#666666" points="592,-462 432,-462 432,-432 592,-432 592,-462"/>
<text text-anchor="start" x="440" y="-450" font-family="Helvetica,sans-Serif" font-size="10.00">com.teragrep.pth_06.planner.</text>
<text text-anchor="middle" x="512" y="-439" font-family="Helvetica,sans-Serif" font-size="10.00">StubArchiveQuery</text>
</a>
</g>
</g>
<!-- Node5&#45;&gt;Node8 -->
<g id="edge7_Node000005_Node000008" class="edge">
<title>Node5&#45;&gt;Node8</title>
<g id="a_edge7_Node000005_Node000008"><a xlink:title=" ">
<path fill="none" stroke="#63b8ff" d="M386.43,-460.97C401.52,-459.28 417.09,-457.53 431.89,-455.87"/>
<polygon fill="#63b8ff" stroke="#63b8ff" points="385.63,-457.54 376.08,-462.13 386.41,-464.5 385.63,-457.54"/>
</a>
</g>
</g>
<!-- Node10 -->
<g id="Node000010" class="node">
<title>Node10</title>
<g id="a_Node000010"><a xlink:href="classcom_1_1teragrep_1_1pth__06_1_1planner_1_1HBaseQueryImpl.html" target="_top" xlink:title="Responsible for splitting results from scanPlanCollection into batches.">
<polygon fill="white" stroke="#666666" points="592,-414 432,-414 432,-384 592,-384 592,-414"/>
<text text-anchor="start" x="440" y="-402" font-family="Helvetica,sans-Serif" font-size="10.00">com.teragrep.pth_06.planner.</text>
<text text-anchor="middle" x="512" y="-391" font-family="Helvetica,sans-Serif" font-size="10.00">HBaseQueryImpl</text>
</a>
</g>
</g>
<!-- Node9&#45;&gt;Node10 -->
<g id="edge9_Node000009_Node000010" class="edge">
<title>Node9&#45;&gt;Node10</title>
<g id="a_edge9_Node000009_Node000010"><a xlink:title=" ">
<path fill="none" stroke="#63b8ff" d="M374.14,-368.3C397.04,-373.44 421.92,-379.02 444.11,-384"/>
<polygon fill="#63b8ff" stroke="#63b8ff" points="374.65,-364.83 364.12,-366.06 373.12,-371.66 374.65,-364.83"/>
</a>
</g>
</g>
<!-- Node11 -->
<g id="Node000011" class="node">
<title>Node11</title>
<g id="a_Node000011"><a xlink:href="classcom_1_1teragrep_1_1pth__06_1_1planner_1_1StubHBaseQuery.html" target="_top" xlink:title=" ">
<polygon fill="white" stroke="#666666" points="592,-366 432,-366 432,-336 592,-336 592,-366"/>
<text text-anchor="start" x="440" y="-354" font-family="Helvetica,sans-Serif" font-size="10.00">com.teragrep.pth_06.planner.</text>
<text text-anchor="middle" x="512" y="-343" font-family="Helvetica,sans-Serif" font-size="10.00">StubHBaseQuery</text>
</a>
</g>
</g>
<!-- Node9&#45;&gt;Node11 -->
<g id="edge10_Node000009_Node000011" class="edge">
<title>Node9&#45;&gt;Node11</title>
<g id="a_edge10_Node000009_Node000011"><a xlink:title=" ">
<path fill="none" stroke="#63b8ff" d="M386.43,-351C401.52,-351 417.09,-351 431.89,-351"/>
<polygon fill="#63b8ff" stroke="#63b8ff" points="386.08,-347.5 376.08,-351 386.08,-354.5 386.08,-347.5"/>
</a>
</g>
</g>
<!-- Node13 -->
<g id="Node000013" class="node">
<title>Node13</title>
<g id="a_Node000013"><a xlink:href="classcom_1_1teragrep_1_1pth__06_1_1planner_1_1HourlySlices_1_1FakeSlices.html" target="_top" xlink:title=" ">
<polygon fill="white" stroke="#666666" points="592,-318 432,-318 432,-288 592,-288 592,-318"/>
<text text-anchor="start" x="440" y="-306" font-family="Helvetica,sans-Serif" font-size="10.00">com.teragrep.pth_06.planner.</text>
<text text-anchor="middle" x="512" y="-295" font-family="Helvetica,sans-Serif" font-size="10.00">HourlySlices.FakeSlices</text>
</a>
</g>
</g>
<!-- Node12&#45;&gt;Node13 -->
<g id="edge12_Node000012_Node000013" class="edge">
<title>Node12&#45;&gt;Node13</title>
<g id="a_edge12_Node000012_Node000013"><a xlink:title=" ">
<path fill="none" stroke="#63b8ff" d="M386.43,-289.03C401.52,-290.72 417.09,-292.47 431.89,-294.13"/>
<polygon fill="#63b8ff" stroke="#63b8ff" points="386.41,-285.5 376.08,-287.87 385.63,-292.46 386.41,-285.5"/>
</a>
</g>
</g>
<!-- Node14 -->
<g id="Node000014" class="node">
<title>Node14</title>
<g id="a_Node000014"><a xlink:href="classcom_1_1teragrep_1_1pth__06_1_1planner_1_1HourlyViewsSlices.html" target="_top" xlink:title=" ">
<polygon fill="white" stroke="#666666" points="592,-270 432,-270 432,-240 592,-240 592,-270"/>
<text text-anchor="start" x="440" y="-258" font-family="Helvetica,sans-Serif" font-size="10.00">com.teragrep.pth_06.planner.</text>
<text text-anchor="middle" x="512" y="-247" font-family="Helvetica,sans-Serif" font-size="10.00">HourlyViewsSlices</text>
</a>
</g>
</g>
<!-- Node12&#45;&gt;Node14 -->
<g id="edge13_Node000012_Node000014" class="edge">
<title>Node12&#45;&gt;Node14</title>
<g id="a_edge13_Node000012_Node000014"><a xlink:title=" ">
<path fill="none" stroke="#63b8ff" d="M386.43,-268.97C401.52,-267.28 417.09,-265.53 431.89,-263.87"/>
<polygon fill="#63b8ff" stroke="#63b8ff" points="385.63,-265.54 376.08,-270.13 386.41,-272.5 385.63,-265.54"/>
</a>
</g>
</g>
<!-- Node15 -->
<g id="Node000015" class="node">
<title>Node15</title>
<g id="a_Node000015"><a xlink:href="classcom_1_1teragrep_1_1pth__06_1_1planner_1_1StubHourlySlices.html" target="_top" xlink:title=" ">
<polygon fill="white" stroke="#666666" points="592,-222 432,-222 432,-192 592,-192 592,-222"/>
<text text-anchor="start" x="440" y="-210" font-family="Helvetica,sans-Serif" font-size="10.00">com.teragrep.pth_06.planner.</text>
<text text-anchor="middle" x="512" y="-199" font-family="Helvetica,sans-Serif" font-size="10.00">StubHourlySlices</text>
</a>
</g>
</g>
<!-- Node12&#45;&gt;Node15 -->
<g id="edge14_Node000012_Node000015" class="edge">
<title>Node12&#45;&gt;Node15</title>
<g id="a_edge14_Node000012_Node000015"><a xlink:title=" ">
<path fill="none" stroke="#63b8ff" d="M342.65,-260.17C366.15,-250.81 395.39,-239.67 422,-231 431.59,-227.88 441.84,-224.84 451.86,-222.03"/>
<polygon fill="#63b8ff" stroke="#63b8ff" points="341.27,-256.95 333.29,-263.92 343.87,-263.45 341.27,-256.95"/>
</a>
</g>
</g>
<!-- Node17 -->
<g id="Node000017" class="node">
<title>Node17</title>
<g id="a_Node000017"><a xlink:href="classcom_1_1teragrep_1_1pth__06_1_1planner_1_1KafkaQueryProcessor.html" target="_top" xlink:title=" ">
<polygon fill="white" stroke="#666666" points="592,-174 432,-174 432,-144 592,-144 592,-174"/>
<text text-anchor="start" x="440" y="-162" font-family="Helvetica,sans-Serif" font-size="10.00">com.teragrep.pth_06.planner.</text>
<text text-anchor="middle" x="512" y="-151" font-family="Helvetica,sans-Serif" font-size="10.00">KafkaQueryProcessor</text>
</a>
</g>
</g>
<!-- Node16&#45;&gt;Node17 -->
<g id="edge16_Node000016_Node000017" class="edge">
<title>Node16&#45;&gt;Node17</title>
<g id="a_edge16_Node000016_Node000017"><a xlink:title=" ">
<path fill="none" stroke="#63b8ff" d="M386.43,-159C401.52,-159 417.09,-159 431.89,-159"/>
<polygon fill="#63b8ff" stroke="#63b8ff" points="386.08,-155.5 376.08,-159 386.08,-162.5 386.08,-155.5"/>
</a>
</g>
</g>
<!-- Node18 -->
<g id="Node000018" class="node">
<title>Node18</title>
<g id="a_Node000018"><a xlink:href="classcom_1_1teragrep_1_1pth__06_1_1planner_1_1StubKafkaQuery.html" target="_top" xlink:title=" ">
<polygon fill="white" stroke="#666666" points="592,-126 432,-126 432,-96 592,-96 592,-126"/>
<text text-anchor="start" x="440" y="-114" font-family="Helvetica,sans-Serif" font-size="10.00">com.teragrep.pth_06.planner.</text>
<text text-anchor="middle" x="512" y="-103" font-family="Helvetica,sans-Serif" font-size="10.00">StubKafkaQuery</text>
</a>
</g>
</g>
<!-- Node16&#45;&gt;Node18 -->
<g id="edge17_Node000016_Node000018" class="edge">
<title>Node16&#45;&gt;Node18</title>
<g id="a_edge17_Node000016_Node000018"><a xlink:title=" ">
<path fill="none" stroke="#63b8ff" d="M374.14,-141.7C397.04,-136.56 421.92,-130.98 444.11,-126"/>
<polygon fill="#63b8ff" stroke="#63b8ff" points="373.12,-138.34 364.12,-143.94 374.65,-145.17 373.12,-138.34"/>
</a>
</g>
</g>
<!-- Node20 -->
<g id="Node000020" class="node">
<title>Node20</title>
<g id="a_Node000020"><a xlink:href="classcom_1_1teragrep_1_1pth__06_1_1planner_1_1BatchSizeLimitedResults.html" target="_top" xlink:title=" ">
<polygon fill="white" stroke="#666666" points="592,-78 432,-78 432,-48 592,-48 592,-78"/>
<text text-anchor="start" x="440" y="-66" font-family="Helvetica,sans-Serif" font-size="10.00">com.teragrep.pth_06.planner.</text>
<text text-anchor="middle" x="512" y="-55" font-family="Helvetica,sans-Serif" font-size="10.00">BatchSizeLimitedResults</text>
</a>
</g>
</g>
<!-- Node19&#45;&gt;Node20 -->
<g id="edge19_Node000019_Node000020" class="edge">
<title>Node19&#45;&gt;Node20</title>
<g id="a_edge19_Node000019_Node000020"><a xlink:title=" ">
<path fill="none" stroke="#63b8ff" d="M386.43,-63C401.52,-63 417.09,-63 431.89,-63"/>
<polygon fill="#63b8ff" stroke="#63b8ff" points="386.08,-59.5 376.08,-63 386.08,-66.5 386.08,-59.5"/>
</a>
</g>
</g>
<!-- Node21 -->
<g id="Node000021" class="node">
<title>Node21</title>
<g id="a_Node000021"><a xlink:href="classcom_1_1teragrep_1_1pth__06_1_1planner_1_1StubLimitedResults.html" target="_top" xlink:title=" ">
<polygon fill="white" stroke="#666666" points="592,-30 432,-30 432,0 592,0 592,-30"/>
<text text-anchor="start" x="440" y="-18" font-family="Helvetica,sans-Serif" font-size="10.00">com.teragrep.pth_06.planner.</text>
<text text-anchor="middle" x="512" y="-7" font-family="Helvetica,sans-Serif" font-size="10.00">StubLimitedResults</text>
</a>
</g>
</g>
<!-- Node19&#45;&gt;Node21 -->
<g id="edge20_Node000019_Node000021" class="edge">
<title>Node19&#45;&gt;Node21</title>
<g id="a_edge20_Node000019_Node000021"><a xlink:title=" ">
<path fill="none" stroke="#63b8ff" d="M374.14,-45.7C397.04,-40.56 421.92,-34.98 444.11,-30"/>
<polygon fill="#63b8ff" stroke="#63b8ff" points="373.12,-42.34 364.12,-47.94 374.65,-49.17 373.12,-42.34"/>
</a>
</g>
</g>
</g>
</svg>
