<?xml version="1.0" encoding="UTF-8" standalone="no"?>
<!DOCTYPE svg PUBLIC "-//W3C//DTD SVG 1.1//EN"
 "http://www.w3.org/Graphics/SVG/1.1/DTD/svg11.dtd">
<!-- Generated by graphviz version 2.43.0 (0)
 -->
<!-- Title: com.teragrep.pth_06.Stubable.isStub Pages: 1 -->
<svg width="1098pt" height="1116pt"
 viewBox="0.00 0.00 1098.00 1116.00" xmlns="http://www.w3.org/2000/svg" xmlns:xlink="http://www.w3.org/1999/xlink">
<g id="graph0" class="graph" transform="scale(1 1) rotate(0) translate(4 1112)">
<title>com.teragrep.pth_06.Stubable.isStub</title>
<!-- Node1 -->
<g id="Node000001" class="node">
<title>Node1</title>
<g id="a_Node000001"><a xlink:title=" ">
<polygon fill="#999999" stroke="#666666" points="1090,-618.5 893,-618.5 893,-599.5 1090,-599.5 1090,-618.5"/>
<text text-anchor="middle" x="991.5" y="-606.5" font-family="Helvetica,sans-Serif" font-size="10.00">com.teragrep.pth_06.Stubable.isStub</text>
</a>
</g>
</g>
<!-- Node2 -->
<g id="Node000002" class="node">
<title>Node2</title>
<g id="a_Node000002"><a xlink:href="classcom_1_1teragrep_1_1pth__06_1_1planner_1_1HBaseQueryImpl.html#a7be62df723f8819e4c878c9ff88ddc64" target="_top" xlink:title="Returns the current batch, this value is updated using the latest() method.">
<polygon fill="white" stroke="#666666" points="819.5,-1108 655.5,-1108 655.5,-1078 819.5,-1078 819.5,-1108"/>
<text text-anchor="start" x="663.5" y="-1096" font-family="Helvetica,sans-Serif" font-size="10.00">com.teragrep.pth_06.planner.</text>
<text text-anchor="middle" x="737.5" y="-1085" font-family="Helvetica,sans-Serif" font-size="10.00">HBaseQueryImpl.currentBatch</text>
</a>
</g>
</g>
<!-- Node1&#45;&gt;Node2 -->
<g id="edge1_Node000001_Node000002" class="edge">
<title>Node1&#45;&gt;Node2</title>
<g id="a_edge1_Node000001_Node000002"><a xlink:title=" ">
<path fill="none" stroke="#63b8ff" d="M987.51,-628.82C975.03,-708.83 924.64,-1006.73 857,-1069 846.58,-1078.6 833.41,-1084.8 819.67,-1088.73"/>
<polygon fill="#63b8ff" stroke="#63b8ff" points="991.01,-629.06 989.07,-618.65 984.09,-628 991.01,-629.06"/>
</a>
</g>
</g>
<!-- Node3 -->
<g id="Node000003" class="node">
<title>Node3</title>
<g id="a_Node000003"><a xlink:href="classcom_1_1teragrep_1_1pth__06_1_1planner_1_1state_1_1QueryStateImpl.html#ab95683462fab9f828209bec0445bf006" target="_top" xlink:title=" ">
<polygon fill="white" stroke="#666666" points="831.5,-1060 643.5,-1060 643.5,-1030 831.5,-1030 831.5,-1060"/>
<text text-anchor="start" x="651.5" y="-1048" font-family="Helvetica,sans-Serif" font-size="10.00">com.teragrep.pth_06.planner.state.</text>
<text text-anchor="middle" x="737.5" y="-1037" font-family="Helvetica,sans-Serif" font-size="10.00">QueryStateImpl.hasNext</text>
</a>
</g>
</g>
<!-- Node1&#45;&gt;Node3 -->
<g id="edge2_Node000001_Node000003" class="edge">
<title>Node1&#45;&gt;Node3</title>
<g id="a_edge2_Node000001_Node000003"><a xlink:title=" ">
<path fill="none" stroke="#63b8ff" d="M990.61,-628.96C989.8,-695.75 977.66,-913.32 857,-1021 849.64,-1027.57 840.99,-1032.53 831.77,-1036.26"/>
<polygon fill="#63b8ff" stroke="#63b8ff" points="994.11,-628.63 990.65,-618.61 987.11,-628.6 994.11,-628.63"/>
</a>
</g>
</g>
<!-- Node4 -->
<g id="Node000004" class="node">
<title>Node4</title>
<g id="a_Node000004"><a xlink:href="classcom_1_1teragrep_1_1pth__06_1_1planner_1_1HBaseQueryImpl.html#a5a99d0c15e25eab70b9ae20662d988c9" target="_top" xlink:title=" ">
<polygon fill="white" stroke="#666666" points="817.5,-1012 657.5,-1012 657.5,-982 817.5,-982 817.5,-1012"/>
<text text-anchor="start" x="665.5" y="-1000" font-family="Helvetica,sans-Serif" font-size="10.00">com.teragrep.pth_06.planner.</text>
<text text-anchor="middle" x="737.5" y="-989" font-family="Helvetica,sans-Serif" font-size="10.00">HBaseQueryImpl.isOpen</text>
</a>
</g>
</g>
<!-- Node1&#45;&gt;Node4 -->
<g id="edge3_Node000001_Node000004" class="edge">
<title>Node1&#45;&gt;Node4</title>
<g id="a_edge3_Node000001_Node000004"><a xlink:title=" ">
<path fill="none" stroke="#63b8ff" d="M989.38,-628.59C984.81,-689.03 962.45,-874.12 857,-968 845.93,-977.86 832.05,-984.49 817.73,-988.93"/>
<polygon fill="#63b8ff" stroke="#63b8ff" points="992.87,-628.73 990.05,-618.52 985.89,-628.26 992.87,-628.73"/>
</a>
</g>
</g>
<!-- Node7 -->
<g id="Node000007" class="node">
<title>Node7</title>
<g id="a_Node000007"><a xlink:href="classcom_1_1teragrep_1_1pth__06_1_1planner_1_1HBaseQueryImpl.html#a5cc16609895c644b18d504dc49cbcd64" target="_top" xlink:title="Queries results form hbase until the batch limit is reached and updates latest.">
<polygon fill="white" stroke="#666666" points="160,-988 0,-988 0,-958 160,-958 160,-988"/>
<text text-anchor="start" x="8" y="-976" font-family="Helvetica,sans-Serif" font-size="10.00">com.teragrep.pth_06.planner.</text>
<text text-anchor="middle" x="80" y="-965" font-family="Helvetica,sans-Serif" font-size="10.00">HBaseQueryImpl.latest</text>
</a>
</g>
</g>
<!-- Node1&#45;&gt;Node7 -->
<g id="edge9_Node000001_Node000007" class="edge">
<title>Node1&#45;&gt;Node7</title>
<g id="a_edge9_Node000001_Node000007"><a xlink:title=" ">
<path fill="none" stroke="#63b8ff" d="M988.98,-628.85C983.41,-686.07 958.78,-851.87 857,-924 801.14,-963.59 346.47,-971.2 160.17,-972.66"/>
<polygon fill="#63b8ff" stroke="#63b8ff" points="992.49,-628.9 989.88,-618.63 985.51,-628.29 992.49,-628.9"/>
</a>
</g>
</g>
<!-- Node8 -->
<g id="Node000008" class="node">
<title>Node8</title>
<g id="a_Node000008"><a xlink:href="classcom_1_1teragrep_1_1pth__06_1_1planner_1_1HBaseQueryImpl.html#a3e76b78ec59462795de6428b6e549cab" target="_top" xlink:title=" ">
<polygon fill="white" stroke="#666666" points="582,-926 392,-926 392,-896 582,-896 582,-926"/>
<text text-anchor="start" x="400" y="-914" font-family="Helvetica,sans-Serif" font-size="10.00">com.teragrep.pth_06.planner.</text>
<text text-anchor="middle" x="487" y="-903" font-family="Helvetica,sans-Serif" font-size="10.00">HBaseQueryImpl.mostRecentOffset</text>
</a>
</g>
</g>
<!-- Node1&#45;&gt;Node8 -->
<g id="edge10_Node000001_Node000008" class="edge">
<title>Node1&#45;&gt;Node8</title>
<g id="a_edge10_Node000001_Node000008"><a xlink:title=" ">
<path fill="none" stroke="#63b8ff" d="M988.26,-628.73C980.97,-682.78 952.51,-833.42 857,-897 813.64,-925.86 676.65,-923.73 582.36,-918.31"/>
<polygon fill="#63b8ff" stroke="#63b8ff" points="991.75,-629.09 989.52,-618.73 984.8,-628.22 991.75,-629.09"/>
</a>
</g>
</g>
<!-- Node9 -->
<g id="Node000009" class="node">
<title>Node9</title>
<g id="a_Node000009"><a xlink:href="classcom_1_1teragrep_1_1pth__06_1_1planner_1_1state_1_1QueryStateImpl.html#a3ae74e2cdb689ad0f9e2318fbd94e1b9" target="_top" xlink:title=" ">
<polygon fill="white" stroke="#666666" points="831.5,-888 643.5,-888 643.5,-858 831.5,-858 831.5,-888"/>
<text text-anchor="start" x="651.5" y="-876" font-family="Helvetica,sans-Serif" font-size="10.00">com.teragrep.pth_06.planner.state.</text>
<text text-anchor="middle" x="737.5" y="-865" font-family="Helvetica,sans-Serif" font-size="10.00">QueryStateImpl.next</text>
</a>
</g>
</g>
<!-- Node1&#45;&gt;Node9 -->
<g id="edge12_Node000001_Node000009" class="edge">
<title>Node1&#45;&gt;Node9</title>
<g id="a_edge12_Node000001_Node000009"><a xlink:title=" ">
<path fill="none" stroke="#63b8ff" d="M985.7,-628.43C973.2,-674.72 935.02,-791.93 857,-849 849.38,-854.58 840.77,-858.93 831.76,-862.33"/>
<polygon fill="#63b8ff" stroke="#63b8ff" points="989.09,-629.29 988.22,-618.73 982.32,-627.53 989.09,-629.29"/>
</a>
</g>
</g>
<!-- Node10 -->
<g id="Node000010" class="node">
<title>Node10</title>
<g id="a_Node000010"><a xlink:href="classcom_1_1teragrep_1_1pth__06_1_1ast_1_1analyze_1_1ScanPlanView.html#aef456f72ac3b4f691579562f88fd6a58" target="_top" xlink:title="Returns results for the next window spanning the given duration in seconds from the last processed ep...">
<polygon fill="white" stroke="#666666" points="827.5,-840 647.5,-840 647.5,-810 827.5,-810 827.5,-840"/>
<text text-anchor="start" x="655.5" y="-828" font-family="Helvetica,sans-Serif" font-size="10.00">com.teragrep.pth_06.ast.analyze.</text>
<text text-anchor="middle" x="737.5" y="-817" font-family="Helvetica,sans-Serif" font-size="10.00">ScanPlanView.nextWindow</text>
</a>
</g>
</g>
<!-- Node1&#45;&gt;Node10 -->
<g id="edge13_Node000001_Node000010" class="edge">
<title>Node1&#45;&gt;Node10</title>
<g id="a_edge13_Node000001_Node000010"><a xlink:title=" ">
<path fill="none" stroke="#63b8ff" d="M983.13,-627.93C966.84,-667.1 923.81,-757.08 857,-801 848.05,-806.88 837.97,-811.37 827.56,-814.79"/>
<polygon fill="#63b8ff" stroke="#63b8ff" points="986.44,-629.09 986.94,-618.51 979.95,-626.47 986.44,-629.09"/>
</a>
</g>
</g>
<!-- Node11 -->
<g id="Node000011" class="node">
<title>Node11</title>
<g id="a_Node000011"><a xlink:href="classcom_1_1teragrep_1_1pth__06_1_1ast_1_1analyze_1_1ScanPlanView.html#a25a3cb7ec9ecd5785c2d5d71fec42934" target="_top" xlink:title=" ">
<polygon fill="white" stroke="#666666" points="827.5,-792 647.5,-792 647.5,-762 827.5,-762 827.5,-792"/>
<text text-anchor="start" x="655.5" y="-780" font-family="Helvetica,sans-Serif" font-size="10.00">com.teragrep.pth_06.ast.analyze.</text>
<text text-anchor="middle" x="737.5" y="-769" font-family="Helvetica,sans-Serif" font-size="10.00">ScanPlanView.open</text>
</a>
</g>
</g>
<!-- Node1&#45;&gt;Node11 -->
<g id="edge14_Node000001_Node000011" class="edge">
<title>Node1&#45;&gt;Node11</title>
<g id="a_edge14_Node000001_Node000011"><a xlink:title=" ">
<path fill="none" stroke="#63b8ff" d="M979.24,-627.19C958.93,-658.34 913.04,-721.54 857,-753 847.94,-758.09 837.95,-762.1 827.74,-765.27"/>
<polygon fill="#63b8ff" stroke="#63b8ff" points="982.27,-628.94 984.7,-618.63 976.37,-625.18 982.27,-628.94"/>
</a>
</g>
</g>
<!-- Node12 -->
<g id="Node000012" class="node">
<title>Node12</title>
<g id="a_Node000012"><a xlink:href="classcom_1_1teragrep_1_1pth__06_1_1planner_1_1BatchSizeLimitedResults.html#ae00e5b05a1d9b84bd282a2ba0ae4fa4f" target="_top" xlink:title=" ">
<polygon fill="white" stroke="#666666" points="824,-744 651,-744 651,-714 824,-714 824,-744"/>
<text text-anchor="start" x="659" y="-732" font-family="Helvetica,sans-Serif" font-size="10.00">com.teragrep.pth_06.planner.</text>
<text text-anchor="middle" x="737.5" y="-721" font-family="Helvetica,sans-Serif" font-size="10.00">BatchSizeLimitedResults.results</text>
</a>
</g>
</g>
<!-- Node1&#45;&gt;Node12 -->
<g id="edge15_Node000001_Node000012" class="edge">
<title>Node1&#45;&gt;Node12</title>
<g id="a_edge15_Node000001_Node000012"><a xlink:title=" ">
<path fill="none" stroke="#63b8ff" d="M972.75,-625.63C948.53,-647.35 902.87,-684.97 857,-705 846.61,-709.54 835.33,-713.22 824,-716.22"/>
<polygon fill="#63b8ff" stroke="#63b8ff" points="975.36,-627.98 980.39,-618.66 970.64,-622.81 975.36,-627.98"/>
</a>
</g>
</g>
<!-- Node13 -->
<g id="Node000013" class="node">
<title>Node13</title>
<g id="a_Node000013"><a xlink:href="classcom_1_1teragrep_1_1pth__06_1_1planner_1_1state_1_1QueryStateImpl.html#af6fc36cf0e0bf331fde3a5d82eff3a96" target="_top" xlink:title=" ">
<polygon fill="white" stroke="#666666" points="831.5,-696 643.5,-696 643.5,-666 831.5,-666 831.5,-696"/>
<text text-anchor="start" x="651.5" y="-684" font-family="Helvetica,sans-Serif" font-size="10.00">com.teragrep.pth_06.planner.state.</text>
<text text-anchor="middle" x="737.5" y="-673" font-family="Helvetica,sans-Serif" font-size="10.00">QueryStateImpl.results</text>
</a>
</g>
</g>
<!-- Node1&#45;&gt;Node13 -->
<g id="edge16_Node000001_Node000013" class="edge">
<title>Node1&#45;&gt;Node13</title>
<g id="a_edge16_Node000001_Node000013"><a xlink:title=" ">
<path fill="none" stroke="#63b8ff" d="M957.57,-622.35C930.82,-632.84 891.92,-647.24 857,-657 845.38,-660.25 833,-663.25 820.78,-665.95"/>
<polygon fill="#63b8ff" stroke="#63b8ff" points="959.19,-625.48 967.2,-618.55 956.62,-618.97 959.19,-625.48"/>
</a>
</g>
</g>
<!-- Node14 -->
<g id="Node000014" class="node">
<title>Node14</title>
<g id="a_Node000014"><a xlink:href="classcom_1_1teragrep_1_1pth__06_1_1planner_1_1factory_1_1ArchiveQueryFactoryTest.html#af3e29e0f05440d8570c8173ce51eae85" target="_top" xlink:title=" ">
<polygon fill="white" stroke="#666666" points="857,-648 618,-648 618,-618 857,-618 857,-648"/>
<text text-anchor="start" x="626" y="-636" font-family="Helvetica,sans-Serif" font-size="10.00">com.teragrep.pth_06.planner.factory.</text>
<text text-anchor="middle" x="737.5" y="-625" font-family="Helvetica,sans-Serif" font-size="10.00">ArchiveQueryFactoryTest.testArchiveDisabled</text>
</a>
</g>
</g>
<!-- Node1&#45;&gt;Node14 -->
<g id="edge17_Node000001_Node000014" class="edge">
<title>Node1&#45;&gt;Node14</title>
<g id="a_edge17_Node000001_Node000014"><a xlink:title=" ">
<path fill="none" stroke="#63b8ff" d="M882.56,-619.28C874.18,-620.08 865.7,-620.89 857.26,-621.69"/>
<polygon fill="#63b8ff" stroke="#63b8ff" points="883.09,-622.75 892.71,-618.31 882.42,-615.78 883.09,-622.75"/>
</a>
</g>
</g>
<!-- Node15 -->
<g id="Node000015" class="node">
<title>Node15</title>
<g id="a_Node000015"><a xlink:href="classcom_1_1teragrep_1_1pth__06_1_1planner_1_1factory_1_1HBaseQueryFactoryTest.html#accb981fefc6d7891c89815cd93dd6d41" target="_top" xlink:title=" ">
<polygon fill="white" stroke="#666666" points="854,-600 621,-600 621,-570 854,-570 854,-600"/>
<text text-anchor="start" x="629" y="-588" font-family="Helvetica,sans-Serif" font-size="10.00">com.teragrep.pth_06.planner.factory.</text>
<text text-anchor="middle" x="737.5" y="-577" font-family="Helvetica,sans-Serif" font-size="10.00">HBaseQueryFactoryTest.testArchiveDisabled</text>
</a>
</g>
</g>
<!-- Node1&#45;&gt;Node15 -->
<g id="edge18_Node000001_Node000015" class="edge">
<title>Node1&#45;&gt;Node15</title>
<g id="a_edge18_Node000001_Node000015"><a xlink:title=" ">
<path fill="none" stroke="#63b8ff" d="M882.6,-598.72C873.23,-597.83 863.72,-596.93 854.29,-596.03"/>
<polygon fill="#63b8ff" stroke="#63b8ff" points="882.42,-602.22 892.71,-599.69 883.09,-595.25 882.42,-602.22"/>
</a>
</g>
</g>
<!-- Node16 -->
<g id="Node000016" class="node">
<title>Node16</title>
<g id="a_Node000016"><a xlink:href="classcom_1_1teragrep_1_1pth__06_1_1planner_1_1factory_1_1ArchiveQueryFactoryTest.html#ac8c44578cea9b7e3c2f3df29f1cbdea9" target="_top" xlink:title=" ">
<polygon fill="white" stroke="#666666" points="857,-551.5 618,-551.5 618,-510.5 857,-510.5 857,-551.5"/>
<text text-anchor="start" x="626" y="-539.5" font-family="Helvetica,sans-Serif" font-size="10.00">com.teragrep.pth_06.planner.factory.</text>
<text text-anchor="start" x="626" y="-528.5" font-family="Helvetica,sans-Serif" font-size="10.00">ArchiveQueryFactoryTest.testArchiveDisabled</text>
<text text-anchor="middle" x="737.5" y="-517.5" font-family="Helvetica,sans-Serif" font-size="10.00">WhenHbaseIsEnabled</text>
</a>
</g>
</g>
<!-- Node1&#45;&gt;Node16 -->
<g id="edge19_Node000001_Node000016" class="edge">
<title>Node1&#45;&gt;Node16</title>
<g id="a_edge19_Node000001_Node000016"><a xlink:title=" ">
<path fill="none" stroke="#63b8ff" d="M956.47,-595.73C929.67,-585.53 891.25,-571.47 857,-561 846.34,-557.74 835.08,-554.56 823.89,-551.56"/>
<polygon fill="#63b8ff" stroke="#63b8ff" points="955.54,-599.12 966.13,-599.43 958.05,-592.59 955.54,-599.12"/>
</a>
</g>
</g>
<!-- Node17 -->
<g id="Node000017" class="node">
<title>Node17</title>
<g id="a_Node000017"><a xlink:href="classcom_1_1teragrep_1_1pth__06_1_1planner_1_1factory_1_1HBaseQueryFactoryTest.html#a157a28dda969a12f015a663d0783ad34" target="_top" xlink:title=" ">
<polygon fill="white" stroke="#666666" points="849.5,-492 625.5,-492 625.5,-462 849.5,-462 849.5,-492"/>
<text text-anchor="start" x="633.5" y="-480" font-family="Helvetica,sans-Serif" font-size="10.00">com.teragrep.pth_06.planner.factory.</text>
<text text-anchor="middle" x="737.5" y="-469" font-family="Helvetica,sans-Serif" font-size="10.00">HBaseQueryFactoryTest.testHBaseEnabled</text>
</a>
</g>
</g>
<!-- Node1&#45;&gt;Node17 -->
<g id="edge20_Node000001_Node000017" class="edge">
<title>Node1&#45;&gt;Node17</title>
<g id="a_edge20_Node000001_Node000017"><a xlink:title=" ">
<path fill="none" stroke="#63b8ff" d="M974.9,-592.01C951.67,-567.81 905.47,-523.82 857,-501 849.69,-497.56 841.9,-494.61 833.93,-492.08"/>
<polygon fill="#63b8ff" stroke="#63b8ff" points="972.47,-594.53 981.87,-599.4 977.56,-589.73 972.47,-594.53"/>
</a>
</g>
</g>
<!-- Node18 -->
<g id="Node000018" class="node">
<title>Node18</title>
<g id="a_Node000018"><a xlink:href="classcom_1_1teragrep_1_1pth__06_1_1ast_1_1analyze_1_1ScanPlanImplTest.html#a2d60f7b657fa96db2c0f195f1cccdc66" target="_top" xlink:title=" ">
<polygon fill="white" stroke="#666666" points="857,-443.5 618,-443.5 618,-402.5 857,-402.5 857,-443.5"/>
<text text-anchor="start" x="626" y="-431.5" font-family="Helvetica,sans-Serif" font-size="10.00">com.teragrep.pth_06.ast.analyze.</text>
<text text-anchor="start" x="626" y="-420.5" font-family="Helvetica,sans-Serif" font-size="10.00">ScanPlanImplTest.testRangeBetweenUpdated</text>
<text text-anchor="middle" x="737.5" y="-409.5" font-family="Helvetica,sans-Serif" font-size="10.00">EarliestUpdated</text>
</a>
</g>
</g>
<!-- Node1&#45;&gt;Node18 -->
<g id="edge21_Node000001_Node000018" class="edge">
<title>Node1&#45;&gt;Node18</title>
<g id="a_edge21_Node000001_Node000018"><a xlink:title=" ">
<path fill="none" stroke="#63b8ff" d="M980,-590.48C960.32,-557.51 914.61,-488.76 857,-453 851.32,-449.47 845.24,-446.36 838.95,-443.62"/>
<polygon fill="#63b8ff" stroke="#63b8ff" points="976.99,-592.26 985.05,-599.13 983.03,-588.73 976.99,-592.26"/>
</a>
</g>
</g>
<!-- Node19 -->
<g id="Node000019" class="node">
<title>Node19</title>
<g id="a_Node000019"><a xlink:href="classcom_1_1teragrep_1_1pth__06_1_1ast_1_1analyze_1_1ScanPlanImplTest.html#ab821bbe4d31ba06f4e8b537f7dc9b80d" target="_top" xlink:title=" ">
<polygon fill="white" stroke="#666666" points="857,-384.5 618,-384.5 618,-343.5 857,-343.5 857,-384.5"/>
<text text-anchor="start" x="626" y="-372.5" font-family="Helvetica,sans-Serif" font-size="10.00">com.teragrep.pth_06.ast.analyze.</text>
<text text-anchor="start" x="626" y="-361.5" font-family="Helvetica,sans-Serif" font-size="10.00">ScanPlanImplTest.testRangeBetweenUpdated</text>
<text text-anchor="middle" x="737.5" y="-350.5" font-family="Helvetica,sans-Serif" font-size="10.00">EarliestWithinBounds</text>
</a>
</g>
</g>
<!-- Node1&#45;&gt;Node19 -->
<g id="edge22_Node000001_Node000019" class="edge">
<title>Node1&#45;&gt;Node19</title>
<g id="a_edge22_Node000001_Node000019"><a xlink:title=" ">
<path fill="none" stroke="#63b8ff" d="M984.28,-589.72C969.53,-547.13 928.18,-444.75 857,-393 852.72,-389.89 848.14,-387.1 843.37,-384.62"/>
<polygon fill="#63b8ff" stroke="#63b8ff" points="981.04,-591.04 987.54,-599.4 987.67,-588.81 981.04,-591.04"/>
</a>
</g>
</g>
<!-- Node20 -->
<g id="Node000020" class="node">
<title>Node20</title>
<g id="a_Node000020"><a xlink:href="classcom_1_1teragrep_1_1pth__06_1_1ast_1_1analyze_1_1ScanPlanImplTest.html#a0c7d4fddf372b7a5f43b223b4f803bc6" target="_top" xlink:title=" ">
<polygon fill="white" stroke="#666666" points="857,-325.5 618,-325.5 618,-284.5 857,-284.5 857,-325.5"/>
<text text-anchor="start" x="626" y="-313.5" font-family="Helvetica,sans-Serif" font-size="10.00">com.teragrep.pth_06.ast.analyze.</text>
<text text-anchor="start" x="626" y="-302.5" font-family="Helvetica,sans-Serif" font-size="10.00">ScanPlanImplTest.testRangeBetweenUpdated</text>
<text text-anchor="middle" x="737.5" y="-291.5" font-family="Helvetica,sans-Serif" font-size="10.00">LatestToEarliest</text>
</a>
</g>
</g>
<!-- Node1&#45;&gt;Node20 -->
<g id="edge23_Node000001_Node000020" class="edge">
<title>Node1&#45;&gt;Node20</title>
<g id="a_edge23_Node000001_Node000020"><a xlink:title=" ">
<path fill="none" stroke="#63b8ff" d="M986.93,-589.43C976.64,-538.8 942.02,-402.67 857,-334 853.13,-330.87 848.97,-328.07 844.61,-325.57"/>
<polygon fill="#63b8ff" stroke="#63b8ff" points="983.52,-590.24 988.86,-599.39 990.4,-588.9 983.52,-590.24"/>
</a>
</g>
</g>
<!-- Node21 -->
<g id="Node000021" class="node">
<title>Node21</title>
<g id="a_Node000021"><a xlink:href="classcom_1_1teragrep_1_1pth__06_1_1ast_1_1analyze_1_1ScanPlanImplTest.html#a23bbbea8452c7f5fa341a94bd8aa12a2" target="_top" xlink:title=" ">
<polygon fill="white" stroke="#666666" points="857,-266.5 618,-266.5 618,-225.5 857,-225.5 857,-266.5"/>
<text text-anchor="start" x="626" y="-254.5" font-family="Helvetica,sans-Serif" font-size="10.00">com.teragrep.pth_06.ast.analyze.</text>
<text text-anchor="start" x="626" y="-243.5" font-family="Helvetica,sans-Serif" font-size="10.00">ScanPlanImplTest.testRangeBetweenUpdated</text>
<text text-anchor="middle" x="737.5" y="-232.5" font-family="Helvetica,sans-Serif" font-size="10.00">LatestUpdated</text>
</a>
</g>
</g>
<!-- Node1&#45;&gt;Node21 -->
<g id="edge24_Node000001_Node000021" class="edge">
<title>Node1&#45;&gt;Node21</title>
<g id="a_edge24_Node000001_Node000021"><a xlink:title=" ">
<path fill="none" stroke="#63b8ff" d="M988.75,-589.24C982.53,-531.42 956.22,-361.2 857,-275 853.4,-271.87 849.52,-269.07 845.44,-266.57"/>
<polygon fill="#63b8ff" stroke="#63b8ff" points="985.27,-589.64 989.74,-599.25 992.24,-588.95 985.27,-589.64"/>
</a>
</g>
</g>
<!-- Node22 -->
<g id="Node000022" class="node">
<title>Node22</title>
<g id="a_Node000022"><a xlink:href="classcom_1_1teragrep_1_1pth__06_1_1ast_1_1analyze_1_1ScanPlanImplTest.html#a36678e11f1eb9ba425e323be431443e3" target="_top" xlink:title=" ">
<polygon fill="white" stroke="#666666" points="857,-207.5 618,-207.5 618,-166.5 857,-166.5 857,-207.5"/>
<text text-anchor="start" x="626" y="-195.5" font-family="Helvetica,sans-Serif" font-size="10.00">com.teragrep.pth_06.ast.analyze.</text>
<text text-anchor="start" x="626" y="-184.5" font-family="Helvetica,sans-Serif" font-size="10.00">ScanPlanImplTest.testRangeBetweenUpdated</text>
<text text-anchor="middle" x="737.5" y="-173.5" font-family="Helvetica,sans-Serif" font-size="10.00">LatestWithinBounds</text>
</a>
</g>
</g>
<!-- Node1&#45;&gt;Node22 -->
<g id="edge25_Node000001_Node000022" class="edge">
<title>Node1&#45;&gt;Node22</title>
<g id="a_edge25_Node000001_Node000022"><a xlink:title=" ">
<path fill="none" stroke="#63b8ff" d="M990.07,-588.88C987.55,-524.23 970.54,-320.02 857,-216 853.56,-212.85 849.84,-210.03 845.91,-207.5"/>
<polygon fill="#63b8ff" stroke="#63b8ff" points="986.58,-589.38 990.39,-599.27 993.58,-589.16 986.58,-589.38"/>
</a>
</g>
</g>
<!-- Node23 -->
<g id="Node000023" class="node">
<title>Node23</title>
<g id="a_Node000023"><a xlink:href="classcom_1_1teragrep_1_1pth__06_1_1planner_1_1BatchSizeLimitedResultsTest.html#a99d9c8ed699224760848043f2c8372ba" target="_top" xlink:title=" ">
<polygon fill="white" stroke="#666666" points="827,-148.5 648,-148.5 648,-107.5 827,-107.5 827,-148.5"/>
<text text-anchor="start" x="656" y="-136.5" font-family="Helvetica,sans-Serif" font-size="10.00">com.teragrep.pth_06.planner.</text>
<text text-anchor="start" x="656" y="-125.5" font-family="Helvetica,sans-Serif" font-size="10.00">BatchSizeLimitedResultsTest.test</text>
<text text-anchor="middle" x="737.5" y="-114.5" font-family="Helvetica,sans-Serif" font-size="10.00">Stubbable</text>
</a>
</g>
</g>
<!-- Node1&#45;&gt;Node23 -->
<g id="edge26_Node000001_Node000023" class="edge">
<title>Node1&#45;&gt;Node23</title>
<g id="a_edge26_Node000001_Node000023"><a xlink:title=" ">
<path fill="none" stroke="#63b8ff" d="M991.1,-589.18C992.06,-518.94 985.43,-279.51 857,-157 848.49,-148.89 838.11,-142.93 827.05,-138.57"/>
<polygon fill="#63b8ff" stroke="#63b8ff" points="987.59,-589.22 990.88,-599.29 994.59,-589.37 987.59,-589.22"/>
</a>
</g>
</g>
<!-- Node24 -->
<g id="Node000024" class="node">
<title>Node24</title>
<g id="a_Node000024"><a xlink:href="classcom_1_1teragrep_1_1pth__06_1_1ast_1_1analyze_1_1ScanPlanImplTest.html#a6177b1f6c10fee4096f1870ff67f727d" target="_top" xlink:title=" ">
<polygon fill="white" stroke="#666666" points="839,-89.5 636,-89.5 636,-48.5 839,-48.5 839,-89.5"/>
<text text-anchor="start" x="644" y="-77.5" font-family="Helvetica,sans-Serif" font-size="10.00">com.teragrep.pth_06.ast.analyze.</text>
<text text-anchor="start" x="644" y="-66.5" font-family="Helvetica,sans-Serif" font-size="10.00">ScanPlanImplTest.testToRangeOutside</text>
<text text-anchor="middle" x="737.5" y="-55.5" font-family="Helvetica,sans-Serif" font-size="10.00">BoundsStub</text>
</a>
</g>
</g>
<!-- Node1&#45;&gt;Node24 -->
<g id="edge27_Node000001_Node000024" class="edge">
<title>Node1&#45;&gt;Node24</title>
<g id="a_edge27_Node000001_Node000024"><a xlink:title=" ">
<path fill="none" stroke="#63b8ff" d="M988.01,-589.02C976.98,-503.52 929.77,-169.65 857,-98 851.72,-92.8 845.66,-88.48 839.15,-84.89"/>
<polygon fill="#63b8ff" stroke="#63b8ff" points="984.57,-589.7 989.3,-599.18 991.52,-588.82 984.57,-589.7"/>
</a>
</g>
</g>
<!-- Node25 -->
<g id="Node000025" class="node">
<title>Node25</title>
<g id="a_Node000025"><a xlink:href="classcom_1_1teragrep_1_1pth__06_1_1ast_1_1analyze_1_1ScanPlanView.html#ae82b27c34e77ba1efd83f072c8cad179" target="_top" xlink:title="Returns a new ScanRangeView from an updated offset start point.">
<polygon fill="white" stroke="#666666" points="827.5,-30 647.5,-30 647.5,0 827.5,0 827.5,-30"/>
<text text-anchor="start" x="655.5" y="-18" font-family="Helvetica,sans-Serif" font-size="10.00">com.teragrep.pth_06.ast.analyze.</text>
<text text-anchor="middle" x="737.5" y="-7" font-family="Helvetica,sans-Serif" font-size="10.00">ScanPlanView.viewFromOffset</text>
</a>
</g>
</g>
<!-- Node1&#45;&gt;Node25 -->
<g id="edge28_Node000001_Node000025" class="edge">
<title>Node1&#45;&gt;Node25</title>
<g id="a_edge28_Node000001_Node000025"><a xlink:title=" ">
<path fill="none" stroke="#63b8ff" d="M988.7,-589.31C979.96,-498.2 939.02,-118.58 857,-39 848.71,-30.96 838.52,-25.27 827.62,-21.29"/>
<polygon fill="#63b8ff" stroke="#63b8ff" points="985.22,-589.74 989.64,-599.37 992.19,-589.09 985.22,-589.74"/>
</a>
</g>
</g>
<!-- Node5 -->
<g id="Node000005" class="node">
<title>Node5</title>
<g id="a_Node000005"><a xlink:href="classcom_1_1teragrep_1_1pth__06_1_1planner_1_1HBaseQueryImpl.html#a5c2fd9106ed54b76d478cf6af5ac5233" target="_top" xlink:title="Closes all open scans in the hourly slices.">
<polygon fill="white" stroke="#666666" points="567,-1088 407,-1088 407,-1058 567,-1058 567,-1088"/>
<text text-anchor="start" x="415" y="-1076" font-family="Helvetica,sans-Serif" font-size="10.00">com.teragrep.pth_06.planner.</text>
<text text-anchor="middle" x="487" y="-1065" font-family="Helvetica,sans-Serif" font-size="10.00">HBaseQueryImpl.close</text>
</a>
</g>
</g>
<!-- Node4&#45;&gt;Node5 -->
<g id="edge4_Node000004_Node000005" class="edge">
<title>Node4&#45;&gt;Node5</title>
<g id="a_edge4_Node000004_Node000005"><a xlink:title=" ">
<path fill="none" stroke="#63b8ff" d="M647.51,-1011.29C637.4,-1014 627.36,-1017.21 618,-1021 600.4,-1028.12 599.23,-1036.02 582,-1044 570.53,-1049.31 557.84,-1053.98 545.59,-1057.92"/>
<polygon fill="#63b8ff" stroke="#63b8ff" points="648.38,-1014.68 657.22,-1008.83 646.66,-1007.89 648.38,-1014.68"/>
</a>
</g>
</g>
<!-- Node6 -->
<g id="Node000006" class="node">
<title>Node6</title>
<g id="a_Node000006"><a xlink:href="classcom_1_1teragrep_1_1pth__06_1_1planner_1_1HBaseQueryImpl.html#aac2c757eda96e3154434977c46d2ac1d" target="_top" xlink:title="Creates open scans for the query, starting from the provided offset.">
<polygon fill="white" stroke="#666666" points="356,-1050 196,-1050 196,-1020 356,-1020 356,-1050"/>
<text text-anchor="start" x="204" y="-1038" font-family="Helvetica,sans-Serif" font-size="10.00">com.teragrep.pth_06.planner.</text>
<text text-anchor="middle" x="276" y="-1027" font-family="Helvetica,sans-Serif" font-size="10.00">HBaseQueryImpl.open</text>
</a>
</g>
</g>
<!-- Node4&#45;&gt;Node6 -->
<g id="edge8_Node000004_Node000006" class="edge">
<title>Node4&#45;&gt;Node6</title>
<g id="a_edge8_Node000004_Node000006"><a xlink:title=" ">
<path fill="none" stroke="#63b8ff" d="M647.15,-1004.39C562.62,-1011.38 436.97,-1021.77 356.02,-1028.47"/>
<polygon fill="#63b8ff" stroke="#63b8ff" points="647.57,-1007.87 657.25,-1003.55 646.99,-1000.89 647.57,-1007.87"/>
</a>
</g>
</g>
<!-- Node4&#45;&gt;Node7 -->
<g id="edge7_Node000004_Node000007" class="edge">
<title>Node4&#45;&gt;Node7</title>
<g id="a_edge7_Node000004_Node000007"><a xlink:title=" ">
<path fill="none" stroke="#63b8ff" d="M647.21,-993.73C518.51,-989.02 282.86,-980.39 160.09,-975.9"/>
<polygon fill="#63b8ff" stroke="#63b8ff" points="647.31,-997.24 657.43,-994.11 647.57,-990.24 647.31,-997.24"/>
</a>
</g>
</g>
<!-- Node5&#45;&gt;Node6 -->
<g id="edge5_Node000005_Node000006" class="edge">
<title>Node5&#45;&gt;Node6</title>
<g id="a_edge5_Node000005_Node000006"><a xlink:title=" ">
<path fill="none" stroke="#63b8ff" d="M397.14,-1056.84C383.51,-1054.37 369.52,-1051.82 356.13,-1049.39"/>
<polygon fill="#63b8ff" stroke="#63b8ff" points="396.52,-1060.29 406.99,-1058.63 397.77,-1053.4 396.52,-1060.29"/>
</a>
</g>
</g>
<!-- Node6&#45;&gt;Node7 -->
<g id="edge6_Node000006_Node000007" class="edge">
<title>Node6&#45;&gt;Node7</title>
<g id="a_edge6_Node000006_Node000007"><a xlink:title=" ">
<path fill="none" stroke="#63b8ff" d="M218.18,-1016.84C189.58,-1007.7 155.33,-996.75 128.2,-988.09"/>
<polygon fill="#63b8ff" stroke="#63b8ff" points="217.45,-1020.28 228.04,-1019.99 219.58,-1013.61 217.45,-1020.28"/>
</a>
</g>
</g>
<!-- Node8&#45;&gt;Node7 -->
<g id="edge11_Node000008_Node000007" class="edge">
<title>Node8&#45;&gt;Node7</title>
<g id="a_edge11_Node000008_Node000007"><a xlink:title=" ">
<path fill="none" stroke="#63b8ff" d="M381.48,-916.89C326.02,-921.16 256.93,-928.31 196,-940 172.75,-944.46 147.4,-951.49 126.43,-957.92"/>
<polygon fill="#63b8ff" stroke="#63b8ff" points="381.96,-920.37 391.67,-916.13 381.44,-913.39 381.96,-920.37"/>
</a>
</g>
</g>
</g>
</svg>
