<?xml version="1.0" encoding="UTF-8" standalone="no"?>
<!DOCTYPE svg PUBLIC "-//W3C//DTD SVG 1.1//EN"
 "http://www.w3.org/Graphics/SVG/1.1/DTD/svg11.dtd">
<!-- Generated by graphviz version 2.43.0 (0)
 -->
<!-- Title: com.teragrep.pth_06.Stubbable.isStub Pages: 1 -->
<svg width="1074pt" height="896pt"
 viewBox="0.00 0.00 1074.00 896.00" xmlns="http://www.w3.org/2000/svg" xmlns:xlink="http://www.w3.org/1999/xlink">
<g id="graph0" class="graph" transform="scale(1 1) rotate(0) translate(4 892)">
<title>com.teragrep.pth_06.Stubbable.isStub</title>
<!-- Node1 -->
<g id="Node000001" class="node">
<title>Node1</title>
<g id="a_Node000001"><a xlink:title=" ">
<polygon fill="#999999" stroke="#666666" points="1066,-486.5 863,-486.5 863,-467.5 1066,-467.5 1066,-486.5"/>
<text text-anchor="middle" x="964.5" y="-474.5" font-family="Helvetica,sans-Serif" font-size="10.00">com.teragrep.pth_06.Stubbable.isStub</text>
</a>
</g>
</g>
<!-- Node2 -->
<g id="Node000002" class="node">
<title>Node2</title>
<g id="a_Node000002"><a xlink:href="classcom_1_1teragrep_1_1pth__06_1_1planner_1_1HBaseQueryImpl.html#a7be62df723f8819e4c878c9ff88ddc64" target="_top" xlink:title="Returns the current batch, this value is updated using the latest() method.">
<polygon fill="white" stroke="#666666" points="789.5,-888 625.5,-888 625.5,-858 789.5,-858 789.5,-888"/>
<text text-anchor="start" x="633.5" y="-876" font-family="Helvetica,sans-Serif" font-size="10.00">com.teragrep.pth_06.planner.</text>
<text text-anchor="middle" x="707.5" y="-865" font-family="Helvetica,sans-Serif" font-size="10.00">HBaseQueryImpl.currentBatch</text>
</a>
</g>
</g>
<!-- Node1&#45;&gt;Node2 -->
<g id="edge1_Node000001_Node000002" class="edge">
<title>Node1&#45;&gt;Node2</title>
<g id="a_edge1_Node000001_Node000002"><a xlink:title=" ">
<path fill="none" stroke="#63b8ff" d="M962.66,-496.68C958.89,-558.99 938.29,-753.44 827,-849 816.41,-858.09 803.32,-864.08 789.76,-867.96"/>
<polygon fill="#63b8ff" stroke="#63b8ff" points="966.16,-496.81 963.19,-486.64 959.17,-496.44 966.16,-496.81"/>
</a>
</g>
</g>
<!-- Node3 -->
<g id="Node000003" class="node">
<title>Node3</title>
<g id="a_Node000003"><a xlink:href="classcom_1_1teragrep_1_1pth__06_1_1planner_1_1HBaseQueryImpl.html#a5a99d0c15e25eab70b9ae20662d988c9" target="_top" xlink:title=" ">
<polygon fill="white" stroke="#666666" points="787.5,-840 627.5,-840 627.5,-810 787.5,-810 787.5,-840"/>
<text text-anchor="start" x="635.5" y="-828" font-family="Helvetica,sans-Serif" font-size="10.00">com.teragrep.pth_06.planner.</text>
<text text-anchor="middle" x="707.5" y="-817" font-family="Helvetica,sans-Serif" font-size="10.00">HBaseQueryImpl.isOpen</text>
</a>
</g>
</g>
<!-- Node1&#45;&gt;Node3 -->
<g id="edge2_Node000001_Node000003" class="edge">
<title>Node1&#45;&gt;Node3</title>
<g id="a_edge2_Node000001_Node000003"><a xlink:title=" ">
<path fill="none" stroke="#63b8ff" d="M961.47,-496.74C954.51,-553.75 926.2,-719.8 827,-801 815.71,-810.24 801.82,-816.23 787.57,-820.06"/>
<polygon fill="#63b8ff" stroke="#63b8ff" points="964.98,-496.9 962.62,-486.57 958.02,-496.11 964.98,-496.9"/>
</a>
</g>
</g>
<!-- Node7 -->
<g id="Node000007" class="node">
<title>Node7</title>
<g id="a_Node000007"><a xlink:href="classcom_1_1teragrep_1_1pth__06_1_1ast_1_1analyze_1_1ScanPlanView.html#aef456f72ac3b4f691579562f88fd6a58" target="_top" xlink:title="Returns results for the next window spanning the given duration in seconds from the last processed ep...">
<polygon fill="white" stroke="#666666" points="797.5,-792 617.5,-792 617.5,-762 797.5,-762 797.5,-792"/>
<text text-anchor="start" x="625.5" y="-780" font-family="Helvetica,sans-Serif" font-size="10.00">com.teragrep.pth_06.ast.analyze.</text>
<text text-anchor="middle" x="707.5" y="-769" font-family="Helvetica,sans-Serif" font-size="10.00">ScanPlanView.nextWindow</text>
</a>
</g>
</g>
<!-- Node1&#45;&gt;Node7 -->
<g id="edge8_Node000001_Node000007" class="edge">
<title>Node1&#45;&gt;Node7</title>
<g id="a_edge8_Node000001_Node000007"><a xlink:title=" ">
<path fill="none" stroke="#63b8ff" d="M959.89,-496.84C949.46,-548.16 914.25,-685.89 827,-753 818.27,-759.72 808.13,-764.69 797.53,-768.35"/>
<polygon fill="#63b8ff" stroke="#63b8ff" points="963.38,-497.24 961.84,-486.75 956.51,-495.91 963.38,-497.24"/>
</a>
</g>
</g>
<!-- Node8 -->
<g id="Node000008" class="node">
<title>Node8</title>
<g id="a_Node000008"><a xlink:href="classcom_1_1teragrep_1_1pth__06_1_1ast_1_1analyze_1_1ScanPlanView.html#a25a3cb7ec9ecd5785c2d5d71fec42934" target="_top" xlink:title=" ">
<polygon fill="white" stroke="#666666" points="797.5,-744 617.5,-744 617.5,-714 797.5,-714 797.5,-744"/>
<text text-anchor="start" x="625.5" y="-732" font-family="Helvetica,sans-Serif" font-size="10.00">com.teragrep.pth_06.ast.analyze.</text>
<text text-anchor="middle" x="707.5" y="-721" font-family="Helvetica,sans-Serif" font-size="10.00">ScanPlanView.open</text>
</a>
</g>
</g>
<!-- Node1&#45;&gt;Node8 -->
<g id="edge9_Node000001_Node000008" class="edge">
<title>Node1&#45;&gt;Node8</title>
<g id="a_edge9_Node000001_Node000008"><a xlink:title=" ">
<path fill="none" stroke="#63b8ff" d="M957.87,-496.37C943.84,-541 902.86,-651.35 827,-705 818.17,-711.24 808.1,-715.94 797.65,-719.47"/>
<polygon fill="#63b8ff" stroke="#63b8ff" points="961.24,-497.33 960.8,-486.74 954.54,-495.29 961.24,-497.33"/>
</a>
</g>
</g>
<!-- Node9 -->
<g id="Node000009" class="node">
<title>Node9</title>
<g id="a_Node000009"><a xlink:href="classcom_1_1teragrep_1_1pth__06_1_1planner_1_1BatchSizeLimitedResults.html#ae00e5b05a1d9b84bd282a2ba0ae4fa4f" target="_top" xlink:title=" ">
<polygon fill="white" stroke="#666666" points="794,-696 621,-696 621,-666 794,-666 794,-696"/>
<text text-anchor="start" x="629" y="-684" font-family="Helvetica,sans-Serif" font-size="10.00">com.teragrep.pth_06.planner.</text>
<text text-anchor="middle" x="707.5" y="-673" font-family="Helvetica,sans-Serif" font-size="10.00">BatchSizeLimitedResults.results</text>
</a>
</g>
</g>
<!-- Node1&#45;&gt;Node9 -->
<g id="edge10_Node000001_Node000009" class="edge">
<title>Node1&#45;&gt;Node9</title>
<g id="a_edge10_Node000001_Node000009"><a xlink:title=" ">
<path fill="none" stroke="#63b8ff" d="M954.89,-496.04C936.92,-533.43 891.66,-616.38 827,-657 817.05,-663.25 805.78,-667.92 794.24,-671.39"/>
<polygon fill="#63b8ff" stroke="#63b8ff" points="958.16,-497.31 959.23,-486.77 951.82,-494.34 958.16,-497.31"/>
</a>
</g>
</g>
<!-- Node10 -->
<g id="Node000010" class="node">
<title>Node10</title>
<g id="a_Node000010"><a xlink:href="classcom_1_1teragrep_1_1pth__06_1_1planner_1_1factory_1_1ArchiveQueryFactoryTest.html#af3e29e0f05440d8570c8173ce51eae85" target="_top" xlink:title=" ">
<polygon fill="white" stroke="#666666" points="827,-648 588,-648 588,-618 827,-618 827,-648"/>
<text text-anchor="start" x="596" y="-636" font-family="Helvetica,sans-Serif" font-size="10.00">com.teragrep.pth_06.planner.factory.</text>
<text text-anchor="middle" x="707.5" y="-625" font-family="Helvetica,sans-Serif" font-size="10.00">ArchiveQueryFactoryTest.testArchiveDisabled</text>
</a>
</g>
</g>
<!-- Node1&#45;&gt;Node10 -->
<g id="edge11_Node000001_Node000010" class="edge">
<title>Node1&#45;&gt;Node10</title>
<g id="a_edge11_Node000001_Node000010"><a xlink:title=" ">
<path fill="none" stroke="#63b8ff" d="M950.59,-494.86C928.68,-523.78 881.23,-580.47 827,-609 820.41,-612.47 813.36,-615.44 806.12,-617.98"/>
<polygon fill="#63b8ff" stroke="#63b8ff" points="953.64,-496.64 956.79,-486.52 948.02,-492.46 953.64,-496.64"/>
</a>
</g>
</g>
<!-- Node11 -->
<g id="Node000011" class="node">
<title>Node11</title>
<g id="a_Node000011"><a xlink:href="classcom_1_1teragrep_1_1pth__06_1_1planner_1_1factory_1_1HBaseQueryFactoryTest.html#accb981fefc6d7891c89815cd93dd6d41" target="_top" xlink:title=" ">
<polygon fill="white" stroke="#666666" points="824,-600 591,-600 591,-570 824,-570 824,-600"/>
<text text-anchor="start" x="599" y="-588" font-family="Helvetica,sans-Serif" font-size="10.00">com.teragrep.pth_06.planner.factory.</text>
<text text-anchor="middle" x="707.5" y="-577" font-family="Helvetica,sans-Serif" font-size="10.00">HBaseQueryFactoryTest.testArchiveDisabled</text>
</a>
</g>
</g>
<!-- Node1&#45;&gt;Node11 -->
<g id="edge12_Node000001_Node000011" class="edge">
<title>Node1&#45;&gt;Node11</title>
<g id="a_edge12_Node000001_Node000011"><a xlink:title=" ">
<path fill="none" stroke="#63b8ff" d="M942.87,-492.65C917.11,-511.42 871.06,-542.55 827,-560 817.32,-563.83 806.96,-567.12 796.53,-569.92"/>
<polygon fill="#63b8ff" stroke="#63b8ff" points="945.13,-495.32 951.09,-486.56 940.97,-489.69 945.13,-495.32"/>
</a>
</g>
</g>
<!-- Node12 -->
<g id="Node000012" class="node">
<title>Node12</title>
<g id="a_Node000012"><a xlink:href="classcom_1_1teragrep_1_1pth__06_1_1planner_1_1factory_1_1ArchiveQueryFactoryTest.html#ac8c44578cea9b7e3c2f3df29f1cbdea9" target="_top" xlink:title=" ">
<polygon fill="white" stroke="#666666" points="827,-551.5 588,-551.5 588,-510.5 827,-510.5 827,-551.5"/>
<text text-anchor="start" x="596" y="-539.5" font-family="Helvetica,sans-Serif" font-size="10.00">com.teragrep.pth_06.planner.factory.</text>
<text text-anchor="start" x="596" y="-528.5" font-family="Helvetica,sans-Serif" font-size="10.00">ArchiveQueryFactoryTest.testArchiveDisabled</text>
<text text-anchor="middle" x="707.5" y="-517.5" font-family="Helvetica,sans-Serif" font-size="10.00">WhenHbaseIsEnabled</text>
</a>
</g>
</g>
<!-- Node1&#45;&gt;Node12 -->
<g id="edge13_Node000001_Node000012" class="edge">
<title>Node1&#45;&gt;Node12</title>
<g id="a_edge13_Node000001_Node000012"><a xlink:title=" ">
<path fill="none" stroke="#63b8ff" d="M908.61,-488.62C878.5,-495 840.29,-503.09 805.34,-510.49"/>
<polygon fill="#63b8ff" stroke="#63b8ff" points="909.44,-492.03 918.5,-486.53 907.99,-485.18 909.44,-492.03"/>
</a>
</g>
</g>
<!-- Node13 -->
<g id="Node000013" class="node">
<title>Node13</title>
<g id="a_Node000013"><a xlink:href="classcom_1_1teragrep_1_1pth__06_1_1planner_1_1factory_1_1HBaseQueryFactoryTest.html#a157a28dda969a12f015a663d0783ad34" target="_top" xlink:title=" ">
<polygon fill="white" stroke="#666666" points="819.5,-492 595.5,-492 595.5,-462 819.5,-462 819.5,-492"/>
<text text-anchor="start" x="603.5" y="-480" font-family="Helvetica,sans-Serif" font-size="10.00">com.teragrep.pth_06.planner.factory.</text>
<text text-anchor="middle" x="707.5" y="-469" font-family="Helvetica,sans-Serif" font-size="10.00">HBaseQueryFactoryTest.testHBaseEnabled</text>
</a>
</g>
</g>
<!-- Node1&#45;&gt;Node13 -->
<g id="edge14_Node000001_Node000013" class="edge">
<title>Node1&#45;&gt;Node13</title>
<g id="a_edge14_Node000001_Node000013"><a xlink:title=" ">
<path fill="none" stroke="#63b8ff" d="M852.43,-477C841.64,-477 830.69,-477 819.9,-477"/>
<polygon fill="#63b8ff" stroke="#63b8ff" points="852.72,-480.5 862.72,-477 852.72,-473.5 852.72,-480.5"/>
</a>
</g>
</g>
<!-- Node14 -->
<g id="Node000014" class="node">
<title>Node14</title>
<g id="a_Node000014"><a xlink:href="classcom_1_1teragrep_1_1pth__06_1_1ast_1_1analyze_1_1ScanPlanImplTest.html#a2d60f7b657fa96db2c0f195f1cccdc66" target="_top" xlink:title=" ">
<polygon fill="white" stroke="#666666" points="827,-443.5 588,-443.5 588,-402.5 827,-402.5 827,-443.5"/>
<text text-anchor="start" x="596" y="-431.5" font-family="Helvetica,sans-Serif" font-size="10.00">com.teragrep.pth_06.ast.analyze.</text>
<text text-anchor="start" x="596" y="-420.5" font-family="Helvetica,sans-Serif" font-size="10.00">ScanPlanImplTest.testRangeBetweenUpdated</text>
<text text-anchor="middle" x="707.5" y="-409.5" font-family="Helvetica,sans-Serif" font-size="10.00">EarliestUpdated</text>
</a>
</g>
</g>
<!-- Node1&#45;&gt;Node14 -->
<g id="edge15_Node000001_Node000014" class="edge">
<title>Node1&#45;&gt;Node14</title>
<g id="a_edge15_Node000001_Node000014"><a xlink:title=" ">
<path fill="none" stroke="#63b8ff" d="M908.61,-465.38C878.5,-459 840.29,-450.91 805.34,-443.51"/>
<polygon fill="#63b8ff" stroke="#63b8ff" points="907.99,-468.82 918.5,-467.47 909.44,-461.97 907.99,-468.82"/>
</a>
</g>
</g>
<!-- Node15 -->
<g id="Node000015" class="node">
<title>Node15</title>
<g id="a_Node000015"><a xlink:href="classcom_1_1teragrep_1_1pth__06_1_1ast_1_1analyze_1_1ScanPlanImplTest.html#ab821bbe4d31ba06f4e8b537f7dc9b80d" target="_top" xlink:title=" ">
<polygon fill="white" stroke="#666666" points="827,-384.5 588,-384.5 588,-343.5 827,-343.5 827,-384.5"/>
<text text-anchor="start" x="596" y="-372.5" font-family="Helvetica,sans-Serif" font-size="10.00">com.teragrep.pth_06.ast.analyze.</text>
<text text-anchor="start" x="596" y="-361.5" font-family="Helvetica,sans-Serif" font-size="10.00">ScanPlanImplTest.testRangeBetweenUpdated</text>
<text text-anchor="middle" x="707.5" y="-350.5" font-family="Helvetica,sans-Serif" font-size="10.00">EarliestWithinBounds</text>
</a>
</g>
</g>
<!-- Node1&#45;&gt;Node15 -->
<g id="edge16_Node000001_Node000015" class="edge">
<title>Node1&#45;&gt;Node15</title>
<g id="a_edge16_Node000001_Node000015"><a xlink:title=" ">
<path fill="none" stroke="#63b8ff" d="M942.8,-461.39C916.98,-442.61 870.87,-411.33 827,-393 819.57,-389.9 811.74,-387.08 803.79,-384.52"/>
<polygon fill="#63b8ff" stroke="#63b8ff" points="940.93,-464.35 951.05,-467.47 945.08,-458.72 940.93,-464.35"/>
</a>
</g>
</g>
<!-- Node16 -->
<g id="Node000016" class="node">
<title>Node16</title>
<g id="a_Node000016"><a xlink:href="classcom_1_1teragrep_1_1pth__06_1_1ast_1_1analyze_1_1ScanPlanImplTest.html#a0c7d4fddf372b7a5f43b223b4f803bc6" target="_top" xlink:title=" ">
<polygon fill="white" stroke="#666666" points="827,-325.5 588,-325.5 588,-284.5 827,-284.5 827,-325.5"/>
<text text-anchor="start" x="596" y="-313.5" font-family="Helvetica,sans-Serif" font-size="10.00">com.teragrep.pth_06.ast.analyze.</text>
<text text-anchor="start" x="596" y="-302.5" font-family="Helvetica,sans-Serif" font-size="10.00">ScanPlanImplTest.testRangeBetweenUpdated</text>
<text text-anchor="middle" x="707.5" y="-291.5" font-family="Helvetica,sans-Serif" font-size="10.00">LatestToEarliest</text>
</a>
</g>
</g>
<!-- Node1&#45;&gt;Node16 -->
<g id="edge17_Node000001_Node000016" class="edge">
<title>Node1&#45;&gt;Node16</title>
<g id="a_edge17_Node000001_Node000016"><a xlink:title=" ">
<path fill="none" stroke="#63b8ff" d="M951.41,-458.73C930.08,-428.01 882.73,-366.23 827,-334 821.59,-330.87 815.86,-328.08 809.94,-325.59"/>
<polygon fill="#63b8ff" stroke="#63b8ff" points="948.65,-460.9 957.17,-467.2 954.44,-456.96 948.65,-460.9"/>
</a>
</g>
</g>
<!-- Node17 -->
<g id="Node000017" class="node">
<title>Node17</title>
<g id="a_Node000017"><a xlink:href="classcom_1_1teragrep_1_1pth__06_1_1ast_1_1analyze_1_1ScanPlanImplTest.html#a23bbbea8452c7f5fa341a94bd8aa12a2" target="_top" xlink:title=" ">
<polygon fill="white" stroke="#666666" points="827,-266.5 588,-266.5 588,-225.5 827,-225.5 827,-266.5"/>
<text text-anchor="start" x="596" y="-254.5" font-family="Helvetica,sans-Serif" font-size="10.00">com.teragrep.pth_06.ast.analyze.</text>
<text text-anchor="start" x="596" y="-243.5" font-family="Helvetica,sans-Serif" font-size="10.00">ScanPlanImplTest.testRangeBetweenUpdated</text>
<text text-anchor="middle" x="707.5" y="-232.5" font-family="Helvetica,sans-Serif" font-size="10.00">LatestUpdated</text>
</a>
</g>
</g>
<!-- Node1&#45;&gt;Node17 -->
<g id="edge18_Node000001_Node000017" class="edge">
<title>Node1&#45;&gt;Node17</title>
<g id="a_edge18_Node000001_Node000017"><a xlink:title=" ">
<path fill="none" stroke="#63b8ff" d="M956.09,-457.58C939.53,-416.93 895.55,-322.74 827,-275 822.48,-271.85 817.66,-269.05 812.64,-266.54"/>
<polygon fill="#63b8ff" stroke="#63b8ff" points="952.93,-459.11 959.86,-467.12 959.44,-456.53 952.93,-459.11"/>
</a>
</g>
</g>
<!-- Node18 -->
<g id="Node000018" class="node">
<title>Node18</title>
<g id="a_Node000018"><a xlink:href="classcom_1_1teragrep_1_1pth__06_1_1ast_1_1analyze_1_1ScanPlanImplTest.html#a36678e11f1eb9ba425e323be431443e3" target="_top" xlink:title=" ">
<polygon fill="white" stroke="#666666" points="827,-207.5 588,-207.5 588,-166.5 827,-166.5 827,-207.5"/>
<text text-anchor="start" x="596" y="-195.5" font-family="Helvetica,sans-Serif" font-size="10.00">com.teragrep.pth_06.ast.analyze.</text>
<text text-anchor="start" x="596" y="-184.5" font-family="Helvetica,sans-Serif" font-size="10.00">ScanPlanImplTest.testRangeBetweenUpdated</text>
<text text-anchor="middle" x="707.5" y="-173.5" font-family="Helvetica,sans-Serif" font-size="10.00">LatestWithinBounds</text>
</a>
</g>
</g>
<!-- Node1&#45;&gt;Node18 -->
<g id="edge19_Node000001_Node000018" class="edge">
<title>Node1&#45;&gt;Node18</title>
<g id="a_edge19_Node000001_Node000018"><a xlink:title=" ">
<path fill="none" stroke="#63b8ff" d="M959.16,-457.44C947.25,-408.58 909.35,-280.5 827,-216 823,-212.87 818.71,-210.06 814.21,-207.56"/>
<polygon fill="#63b8ff" stroke="#63b8ff" points="955.79,-458.41 961.47,-467.35 962.6,-456.81 955.79,-458.41"/>
</a>
</g>
</g>
<!-- Node19 -->
<g id="Node000019" class="node">
<title>Node19</title>
<g id="a_Node000019"><a xlink:href="classcom_1_1teragrep_1_1pth__06_1_1planner_1_1BatchSizeLimitedResultsTest.html#a99d9c8ed699224760848043f2c8372ba" target="_top" xlink:title=" ">
<polygon fill="white" stroke="#666666" points="797,-148.5 618,-148.5 618,-107.5 797,-107.5 797,-148.5"/>
<text text-anchor="start" x="626" y="-136.5" font-family="Helvetica,sans-Serif" font-size="10.00">com.teragrep.pth_06.planner.</text>
<text text-anchor="start" x="626" y="-125.5" font-family="Helvetica,sans-Serif" font-size="10.00">BatchSizeLimitedResultsTest.test</text>
<text text-anchor="middle" x="707.5" y="-114.5" font-family="Helvetica,sans-Serif" font-size="10.00">Stubbable</text>
</a>
</g>
</g>
<!-- Node1&#45;&gt;Node19 -->
<g id="edge20_Node000001_Node000019" class="edge">
<title>Node1&#45;&gt;Node19</title>
<g id="a_edge20_Node000001_Node000019"><a xlink:title=" ">
<path fill="none" stroke="#63b8ff" d="M961.18,-457.32C953.48,-401.15 923.5,-238.91 827,-157 818.28,-149.6 807.97,-144.03 797.12,-139.85"/>
<polygon fill="#63b8ff" stroke="#63b8ff" points="957.72,-457.88 962.47,-467.35 964.67,-456.99 957.72,-457.88"/>
</a>
</g>
</g>
<!-- Node20 -->
<g id="Node000020" class="node">
<title>Node20</title>
<g id="a_Node000020"><a xlink:href="classcom_1_1teragrep_1_1pth__06_1_1ast_1_1analyze_1_1ScanPlanImplTest.html#a6177b1f6c10fee4096f1870ff67f727d" target="_top" xlink:title=" ">
<polygon fill="white" stroke="#666666" points="809,-89.5 606,-89.5 606,-48.5 809,-48.5 809,-89.5"/>
<text text-anchor="start" x="614" y="-77.5" font-family="Helvetica,sans-Serif" font-size="10.00">com.teragrep.pth_06.ast.analyze.</text>
<text text-anchor="start" x="614" y="-66.5" font-family="Helvetica,sans-Serif" font-size="10.00">ScanPlanImplTest.testToRangeOutside</text>
<text text-anchor="middle" x="707.5" y="-55.5" font-family="Helvetica,sans-Serif" font-size="10.00">BoundsStub</text>
</a>
</g>
</g>
<!-- Node1&#45;&gt;Node20 -->
<g id="edge21_Node000001_Node000020" class="edge">
<title>Node1&#45;&gt;Node20</title>
<g id="a_edge21_Node000001_Node000020"><a xlink:title=" ">
<path fill="none" stroke="#63b8ff" d="M962.63,-457.15C958.75,-394.26 937.87,-197.73 827,-98 821.65,-93.18 815.62,-89.14 809.21,-85.74"/>
<polygon fill="#63b8ff" stroke="#63b8ff" points="959.14,-457.48 963.17,-467.28 966.13,-457.11 959.14,-457.48"/>
</a>
</g>
</g>
<!-- Node21 -->
<g id="Node000021" class="node">
<title>Node21</title>
<g id="a_Node000021"><a xlink:href="classcom_1_1teragrep_1_1pth__06_1_1ast_1_1analyze_1_1ScanPlanView.html#ae82b27c34e77ba1efd83f072c8cad179" target="_top" xlink:title="Returns a new ScanRangeView from an updated offset start point.">
<polygon fill="white" stroke="#666666" points="797.5,-30 617.5,-30 617.5,0 797.5,0 797.5,-30"/>
<text text-anchor="start" x="625.5" y="-18" font-family="Helvetica,sans-Serif" font-size="10.00">com.teragrep.pth_06.ast.analyze.</text>
<text text-anchor="middle" x="707.5" y="-7" font-family="Helvetica,sans-Serif" font-size="10.00">ScanPlanView.viewFromOffset</text>
</a>
</g>
</g>
<!-- Node1&#45;&gt;Node21 -->
<g id="edge22_Node000001_Node000021" class="edge">
<title>Node1&#45;&gt;Node21</title>
<g id="a_edge22_Node000001_Node000021"><a xlink:title=" ">
<path fill="none" stroke="#63b8ff" d="M963.9,-457.16C964.13,-387.87 954.99,-154.53 827,-39 818.59,-31.41 808.45,-25.95 797.69,-22.06"/>
<polygon fill="#63b8ff" stroke="#63b8ff" points="960.39,-457.45 963.78,-467.49 967.39,-457.53 960.39,-457.45"/>
</a>
</g>
</g>
<!-- Node4 -->
<g id="Node000004" class="node">
<title>Node4</title>
<g id="a_Node000004"><a xlink:href="classcom_1_1teragrep_1_1pth__06_1_1planner_1_1HBaseQueryImpl.html#a5c2fd9106ed54b76d478cf6af5ac5233" target="_top" xlink:title="Closes all open scans in the hourly slices.">
<polygon fill="white" stroke="#666666" points="552,-883 392,-883 392,-853 552,-853 552,-883"/>
<text text-anchor="start" x="400" y="-871" font-family="Helvetica,sans-Serif" font-size="10.00">com.teragrep.pth_06.planner.</text>
<text text-anchor="middle" x="472" y="-860" font-family="Helvetica,sans-Serif" font-size="10.00">HBaseQueryImpl.close</text>
</a>
</g>
</g>
<!-- Node3&#45;&gt;Node4 -->
<g id="edge3_Node000003_Node000004" class="edge">
<title>Node3&#45;&gt;Node4</title>
<g id="a_edge3_Node000003_Node000004"><a xlink:title=" ">
<path fill="none" stroke="#63b8ff" d="M617.39,-841.41C596,-845.35 573.29,-849.53 552.37,-853.38"/>
<polygon fill="#63b8ff" stroke="#63b8ff" points="618.25,-844.81 627.45,-839.56 616.98,-837.93 618.25,-844.81"/>
</a>
</g>
</g>
<!-- Node5 -->
<g id="Node000005" class="node">
<title>Node5</title>
<g id="a_Node000005"><a xlink:href="classcom_1_1teragrep_1_1pth__06_1_1planner_1_1HBaseQueryImpl.html#aac2c757eda96e3154434977c46d2ac1d" target="_top" xlink:title="Creates open scans for the query, starting from the provided offset.">
<polygon fill="white" stroke="#666666" points="356,-845 196,-845 196,-815 356,-815 356,-845"/>
<text text-anchor="start" x="204" y="-833" font-family="Helvetica,sans-Serif" font-size="10.00">com.teragrep.pth_06.planner.</text>
<text text-anchor="middle" x="276" y="-822" font-family="Helvetica,sans-Serif" font-size="10.00">HBaseQueryImpl.open</text>
</a>
</g>
</g>
<!-- Node3&#45;&gt;Node5 -->
<g id="edge7_Node000003_Node000005" class="edge">
<title>Node3&#45;&gt;Node5</title>
<g id="a_edge7_Node000003_Node000005"><a xlink:title=" ">
<path fill="none" stroke="#63b8ff" d="M617.31,-826.04C540.34,-826.93 430.2,-828.22 356.27,-829.08"/>
<polygon fill="#63b8ff" stroke="#63b8ff" points="617.51,-829.54 627.47,-825.92 617.43,-822.54 617.51,-829.54"/>
</a>
</g>
</g>
<!-- Node6 -->
<g id="Node000006" class="node">
<title>Node6</title>
<g id="a_Node000006"><a xlink:href="classcom_1_1teragrep_1_1pth__06_1_1planner_1_1HBaseQueryImpl.html#a5cc16609895c644b18d504dc49cbcd64" target="_top" xlink:title="Queries results form hbase until the batch limit is reached and updates latest.">
<polygon fill="white" stroke="#666666" points="160,-823 0,-823 0,-793 160,-793 160,-823"/>
<text text-anchor="start" x="8" y="-811" font-family="Helvetica,sans-Serif" font-size="10.00">com.teragrep.pth_06.planner.</text>
<text text-anchor="middle" x="80" y="-800" font-family="Helvetica,sans-Serif" font-size="10.00">HBaseQueryImpl.latest</text>
</a>
</g>
</g>
<!-- Node3&#45;&gt;Node6 -->
<g id="edge6_Node000003_Node000006" class="edge">
<title>Node3&#45;&gt;Node6</title>
<g id="a_edge6_Node000003_Node000006"><a xlink:title=" ">
<path fill="none" stroke="#63b8ff" d="M616.99,-818.81C546.2,-814.24 444.84,-808.41 356,-806 284.91,-804.07 267.11,-805.38 196,-806 184.42,-806.1 172.18,-806.26 160.18,-806.44"/>
<polygon fill="#63b8ff" stroke="#63b8ff" points="617,-822.32 627.2,-819.47 617.45,-815.33 617,-822.32"/>
</a>
</g>
</g>
<!-- Node4&#45;&gt;Node5 -->
<g id="edge4_Node000004_Node000005" class="edge">
<title>Node4&#45;&gt;Node5</title>
<g id="a_edge4_Node000004_Node000005"><a xlink:title=" ">
<path fill="none" stroke="#63b8ff" d="M384.23,-851C374.07,-849.01 363.76,-846.99 353.75,-845.03"/>
<polygon fill="#63b8ff" stroke="#63b8ff" points="383.84,-854.49 394.33,-852.98 385.19,-847.62 383.84,-854.49"/>
</a>
</g>
</g>
<!-- Node5&#45;&gt;Node6 -->
<g id="edge5_Node000005_Node000006" class="edge">
<title>Node5&#45;&gt;Node6</title>
<g id="a_edge5_Node000005_Node000006"><a xlink:title=" ">
<path fill="none" stroke="#63b8ff" d="M185.84,-819.89C177.3,-818.92 168.68,-817.94 160.25,-816.99"/>
<polygon fill="#63b8ff" stroke="#63b8ff" points="185.48,-823.37 195.81,-821.02 186.27,-816.42 185.48,-823.37"/>
</a>
</g>
</g>
</g>
</svg>
