<?xml version="1.0" encoding="UTF-8" standalone="no"?>
<!DOCTYPE svg PUBLIC "-//W3C//DTD SVG 1.1//EN"
 "http://www.w3.org/Graphics/SVG/1.1/DTD/svg11.dtd">
<!-- Generated by graphviz version 2.43.0 (0)
 -->
<!-- Title: com.teragrep.pth_06.Stubbable.isStub Pages: 1 -->
<svg width="486pt" height="489pt"
 viewBox="0.00 0.00 486.00 489.00" xmlns="http://www.w3.org/2000/svg" xmlns:xlink="http://www.w3.org/1999/xlink">
<g id="graph0" class="graph" transform="scale(1 1) rotate(0) translate(4 485)">
<title>com.teragrep.pth_06.Stubbable.isStub</title>
<!-- Node1 -->
<g id="Node000001" class="node">
<title>Node1</title>
<g id="a_Node000001"><a xlink:title=" ">
<polygon fill="#999999" stroke="#666666" points="478,-255.5 275,-255.5 275,-236.5 478,-236.5 478,-255.5"/>
<text text-anchor="middle" x="376.5" y="-243.5" font-family="Helvetica,sans-Serif" font-size="10.00">com.teragrep.pth_06.Stubbable.isStub</text>
</a>
</g>
</g>
<!-- Node2 -->
<g id="Node000002" class="node">
<title>Node2</title>
<g id="a_Node000002"><a xlink:href="classcom_1_1teragrep_1_1pth__06_1_1ast_1_1analyze_1_1ScanRangeView.html#a6e7578eeb40aa692dec253f605cd369e" target="_top" xlink:title="Returns results for the next window spanning the given duration in seconds from the last processed ep...">
<polygon fill="white" stroke="#666666" points="209.5,-481 29.5,-481 29.5,-451 209.5,-451 209.5,-481"/>
<text text-anchor="start" x="37.5" y="-469" font-family="Helvetica,sans-Serif" font-size="10.00">com.teragrep.pth_06.ast.analyze.</text>
<text text-anchor="middle" x="119.5" y="-458" font-family="Helvetica,sans-Serif" font-size="10.00">ScanRangeView.nextWindow</text>
</a>
</g>
</g>
<!-- Node1&#45;&gt;Node2 -->
<g id="edge1_Node000001_Node000002" class="edge">
<title>Node1&#45;&gt;Node2</title>
<g id="a_edge1_Node000001_Node000002"><a xlink:title=" ">
<path fill="none" stroke="#63b8ff" d="M368.06,-265.07C351.47,-304.92 307.4,-397.07 239,-442 230.05,-447.88 219.97,-452.36 209.55,-455.78"/>
<polygon fill="#63b8ff" stroke="#63b8ff" points="371.34,-266.29 371.85,-255.71 364.86,-263.66 371.34,-266.29"/>
</a>
</g>
</g>
<!-- Node3 -->
<g id="Node000003" class="node">
<title>Node3</title>
<g id="a_Node000003"><a xlink:href="classcom_1_1teragrep_1_1pth__06_1_1ast_1_1analyze_1_1ScanRangeView.html#a1aa03cfbeb626aaf3c967e7624102f3e" target="_top" xlink:title=" ">
<polygon fill="white" stroke="#666666" points="209.5,-433 29.5,-433 29.5,-403 209.5,-403 209.5,-433"/>
<text text-anchor="start" x="37.5" y="-421" font-family="Helvetica,sans-Serif" font-size="10.00">com.teragrep.pth_06.ast.analyze.</text>
<text text-anchor="middle" x="119.5" y="-410" font-family="Helvetica,sans-Serif" font-size="10.00">ScanRangeView.open</text>
</a>
</g>
</g>
<!-- Node1&#45;&gt;Node3 -->
<g id="edge2_Node000001_Node000003" class="edge">
<title>Node1&#45;&gt;Node3</title>
<g id="a_edge2_Node000001_Node000003"><a xlink:title=" ">
<path fill="none" stroke="#63b8ff" d="M364.31,-264.24C343.73,-296.08 296.69,-361.52 239,-394 229.95,-399.1 219.96,-403.12 209.75,-406.3"/>
<polygon fill="#63b8ff" stroke="#63b8ff" points="367.44,-265.83 369.82,-255.51 361.52,-262.09 367.44,-265.83"/>
</a>
</g>
</g>
<!-- Node4 -->
<g id="Node000004" class="node">
<title>Node4</title>
<g id="a_Node000004"><a xlink:href="classcom_1_1teragrep_1_1pth__06_1_1ast_1_1analyze_1_1ScanPlanImplTest.html#a2d60f7b657fa96db2c0f195f1cccdc66" target="_top" xlink:title=" ">
<polygon fill="white" stroke="#666666" points="239,-384.5 0,-384.5 0,-343.5 239,-343.5 239,-384.5"/>
<text text-anchor="start" x="8" y="-372.5" font-family="Helvetica,sans-Serif" font-size="10.00">com.teragrep.pth_06.ast.analyze.</text>
<text text-anchor="start" x="8" y="-361.5" font-family="Helvetica,sans-Serif" font-size="10.00">ScanPlanImplTest.testRangeBetweenUpdated</text>
<text text-anchor="middle" x="119.5" y="-350.5" font-family="Helvetica,sans-Serif" font-size="10.00">EarliestUpdated</text>
</a>
</g>
</g>
<!-- Node1&#45;&gt;Node4 -->
<g id="edge3_Node000001_Node000004" class="edge">
<title>Node1&#45;&gt;Node4</title>
<g id="a_edge3_Node000001_Node000004"><a xlink:title=" ">
<path fill="none" stroke="#63b8ff" d="M355.76,-261.99C330.27,-281.88 283.81,-315.58 239,-335 231.81,-338.12 224.22,-340.94 216.5,-343.48"/>
<polygon fill="#63b8ff" stroke="#63b8ff" points="358.2,-264.52 363.87,-255.57 353.86,-259.03 358.2,-264.52"/>
</a>
</g>
</g>
<!-- Node5 -->
<g id="Node000005" class="node">
<title>Node5</title>
<g id="a_Node000005"><a xlink:href="classcom_1_1teragrep_1_1pth__06_1_1ast_1_1analyze_1_1ScanPlanImplTest.html#ab821bbe4d31ba06f4e8b537f7dc9b80d" target="_top" xlink:title=" ">
<polygon fill="white" stroke="#666666" points="239,-325.5 0,-325.5 0,-284.5 239,-284.5 239,-325.5"/>
<text text-anchor="start" x="8" y="-313.5" font-family="Helvetica,sans-Serif" font-size="10.00">com.teragrep.pth_06.ast.analyze.</text>
<text text-anchor="start" x="8" y="-302.5" font-family="Helvetica,sans-Serif" font-size="10.00">ScanPlanImplTest.testRangeBetweenUpdated</text>
<text text-anchor="middle" x="119.5" y="-291.5" font-family="Helvetica,sans-Serif" font-size="10.00">EarliestWithinBounds</text>
</a>
</g>
</g>
<!-- Node1&#45;&gt;Node5 -->
<g id="edge4_Node000001_Node000005" class="edge">
<title>Node1&#45;&gt;Node5</title>
<g id="a_edge4_Node000001_Node000005"><a xlink:title=" ">
<path fill="none" stroke="#63b8ff" d="M324.39,-257.83C291.46,-265.44 247.76,-275.55 209.27,-284.46"/>
<polygon fill="#63b8ff" stroke="#63b8ff" points="325.29,-261.21 334.25,-255.54 323.71,-254.39 325.29,-261.21"/>
</a>
</g>
</g>
<!-- Node6 -->
<g id="Node000006" class="node">
<title>Node6</title>
<g id="a_Node000006"><a xlink:href="classcom_1_1teragrep_1_1pth__06_1_1ast_1_1analyze_1_1ScanPlanImplTest.html#a0c7d4fddf372b7a5f43b223b4f803bc6" target="_top" xlink:title=" ">
<polygon fill="white" stroke="#666666" points="239,-266.5 0,-266.5 0,-225.5 239,-225.5 239,-266.5"/>
<text text-anchor="start" x="8" y="-254.5" font-family="Helvetica,sans-Serif" font-size="10.00">com.teragrep.pth_06.ast.analyze.</text>
<text text-anchor="start" x="8" y="-243.5" font-family="Helvetica,sans-Serif" font-size="10.00">ScanPlanImplTest.testRangeBetweenUpdated</text>
<text text-anchor="middle" x="119.5" y="-232.5" font-family="Helvetica,sans-Serif" font-size="10.00">LatestToEarliest</text>
</a>
</g>
</g>
<!-- Node1&#45;&gt;Node6 -->
<g id="edge5_Node000001_Node000006" class="edge">
<title>Node1&#45;&gt;Node6</title>
<g id="a_edge5_Node000001_Node000006"><a xlink:title=" ">
<path fill="none" stroke="#63b8ff" d="M264.51,-246C256.09,-246 247.57,-246 239.11,-246"/>
<polygon fill="#63b8ff" stroke="#63b8ff" points="264.72,-249.5 274.72,-246 264.72,-242.5 264.72,-249.5"/>
</a>
</g>
</g>
<!-- Node7 -->
<g id="Node000007" class="node">
<title>Node7</title>
<g id="a_Node000007"><a xlink:href="classcom_1_1teragrep_1_1pth__06_1_1ast_1_1analyze_1_1ScanPlanImplTest.html#a23bbbea8452c7f5fa341a94bd8aa12a2" target="_top" xlink:title=" ">
<polygon fill="white" stroke="#666666" points="239,-207.5 0,-207.5 0,-166.5 239,-166.5 239,-207.5"/>
<text text-anchor="start" x="8" y="-195.5" font-family="Helvetica,sans-Serif" font-size="10.00">com.teragrep.pth_06.ast.analyze.</text>
<text text-anchor="start" x="8" y="-184.5" font-family="Helvetica,sans-Serif" font-size="10.00">ScanPlanImplTest.testRangeBetweenUpdated</text>
<text text-anchor="middle" x="119.5" y="-173.5" font-family="Helvetica,sans-Serif" font-size="10.00">LatestUpdated</text>
</a>
</g>
</g>
<!-- Node1&#45;&gt;Node7 -->
<g id="edge6_Node000001_Node000007" class="edge">
<title>Node1&#45;&gt;Node7</title>
<g id="a_edge6_Node000001_Node000007"><a xlink:title=" ">
<path fill="none" stroke="#63b8ff" d="M324.39,-234.17C291.46,-226.56 247.76,-216.45 209.27,-207.54"/>
<polygon fill="#63b8ff" stroke="#63b8ff" points="323.71,-237.61 334.25,-236.46 325.29,-230.79 323.71,-237.61"/>
</a>
</g>
</g>
<!-- Node8 -->
<g id="Node000008" class="node">
<title>Node8</title>
<g id="a_Node000008"><a xlink:href="classcom_1_1teragrep_1_1pth__06_1_1ast_1_1analyze_1_1ScanPlanImplTest.html#a36678e11f1eb9ba425e323be431443e3" target="_top" xlink:title=" ">
<polygon fill="white" stroke="#666666" points="239,-148.5 0,-148.5 0,-107.5 239,-107.5 239,-148.5"/>
<text text-anchor="start" x="8" y="-136.5" font-family="Helvetica,sans-Serif" font-size="10.00">com.teragrep.pth_06.ast.analyze.</text>
<text text-anchor="start" x="8" y="-125.5" font-family="Helvetica,sans-Serif" font-size="10.00">ScanPlanImplTest.testRangeBetweenUpdated</text>
<text text-anchor="middle" x="119.5" y="-114.5" font-family="Helvetica,sans-Serif" font-size="10.00">LatestWithinBounds</text>
</a>
</g>
</g>
<!-- Node1&#45;&gt;Node8 -->
<g id="edge7_Node000001_Node000008" class="edge">
<title>Node1&#45;&gt;Node8</title>
<g id="a_edge7_Node000001_Node000008"><a xlink:title=" ">
<path fill="none" stroke="#63b8ff" d="M355.31,-229.96C329.67,-210.32 283.41,-177.32 239,-158 231.02,-154.53 222.56,-151.4 213.97,-148.59"/>
<polygon fill="#63b8ff" stroke="#63b8ff" points="353.43,-232.93 363.48,-236.3 357.73,-227.4 353.43,-232.93"/>
</a>
</g>
</g>
<!-- Node9 -->
<g id="Node000009" class="node">
<title>Node9</title>
<g id="a_Node000009"><a xlink:href="classcom_1_1teragrep_1_1pth__06_1_1ast_1_1analyze_1_1ScanPlanImplTest.html#a6177b1f6c10fee4096f1870ff67f727d" target="_top" xlink:title=" ">
<polygon fill="white" stroke="#666666" points="221,-89.5 18,-89.5 18,-48.5 221,-48.5 221,-89.5"/>
<text text-anchor="start" x="26" y="-77.5" font-family="Helvetica,sans-Serif" font-size="10.00">com.teragrep.pth_06.ast.analyze.</text>
<text text-anchor="start" x="26" y="-66.5" font-family="Helvetica,sans-Serif" font-size="10.00">ScanPlanImplTest.testToRangeOutside</text>
<text text-anchor="middle" x="119.5" y="-55.5" font-family="Helvetica,sans-Serif" font-size="10.00">BoundsStub</text>
</a>
</g>
</g>
<!-- Node1&#45;&gt;Node9 -->
<g id="edge8_Node000001_Node000009" class="edge">
<title>Node1&#45;&gt;Node9</title>
<g id="a_edge8_Node000001_Node000009"><a xlink:title=" ">
<path fill="none" stroke="#63b8ff" d="M363.81,-227.71C342.79,-196.36 295.47,-132.48 239,-99 232.98,-95.43 226.54,-92.28 219.89,-89.5"/>
<polygon fill="#63b8ff" stroke="#63b8ff" points="361.06,-229.9 369.47,-236.33 366.91,-226.05 361.06,-229.9"/>
</a>
</g>
</g>
<!-- Node10 -->
<g id="Node000010" class="node">
<title>Node10</title>
<g id="a_Node000010"><a xlink:href="classcom_1_1teragrep_1_1pth__06_1_1ast_1_1analyze_1_1ScanRangeView.html#a61e947083a3d9e6e8ab1a8480ca94c95" target="_top" xlink:title="Returns a new ScanRangeView from an updated offset start point.">
<polygon fill="white" stroke="#666666" points="209.5,-30 29.5,-30 29.5,0 209.5,0 209.5,-30"/>
<text text-anchor="start" x="37.5" y="-18" font-family="Helvetica,sans-Serif" font-size="10.00">com.teragrep.pth_06.ast.analyze.</text>
<text text-anchor="middle" x="119.5" y="-7" font-family="Helvetica,sans-Serif" font-size="10.00">ScanRangeView.viewFromOffset</text>
</a>
</g>
</g>
<!-- Node1&#45;&gt;Node10 -->
<g id="edge9_Node000001_Node000010" class="edge">
<title>Node1&#45;&gt;Node10</title>
<g id="a_edge9_Node000001_Node000010"><a xlink:title=" ">
<path fill="none" stroke="#63b8ff" d="M368.64,-226.86C352.8,-185.55 309.51,-87.91 239,-40 230.13,-33.97 220.09,-29.36 209.7,-25.83"/>
<polygon fill="#63b8ff" stroke="#63b8ff" points="365.39,-228.15 372.16,-236.3 371.95,-225.71 365.39,-228.15"/>
</a>
</g>
</g>
</g>
</svg>
