<?xml version="1.0" encoding="UTF-8" standalone="no"?>
<!DOCTYPE svg PUBLIC "-//W3C//DTD SVG 1.1//EN"
 "http://www.w3.org/Graphics/SVG/1.1/DTD/svg11.dtd">
<!-- Generated by graphviz version 2.43.0 (0)
 -->
<!-- Title: com.teragrep.pth_06.planner.HBaseQuery Pages: 1 -->
<svg width="570pt" height="86pt"
 viewBox="0.00 0.00 570.00 86.00" xmlns="http://www.w3.org/2000/svg" xmlns:xlink="http://www.w3.org/1999/xlink">
<g id="graph0" class="graph" transform="scale(1 1) rotate(0) translate(4 82)">
<title>com.teragrep.pth_06.planner.HBaseQuery</title>
<!-- Node1 -->
<g id="Node000001" class="node">
<title>Node1</title>
<g id="a_Node000001"><a xlink:title=" ">
<polygon fill="#999999" stroke="#666666" points="366,-54 206,-54 206,-24 366,-24 366,-54"/>
<text text-anchor="start" x="214" y="-42" font-family="Helvetica,sans-Serif" font-size="10.00">com.teragrep.pth_06.planner.</text>
<text text-anchor="middle" x="286" y="-31" font-family="Helvetica,sans-Serif" font-size="10.00">HBaseQuery</text>
</a>
</g>
</g>
<!-- Node4 -->
<g id="Node000004" class="node">
<title>Node4</title>
<g id="a_Node000004"><a xlink:href="classcom_1_1teragrep_1_1pth__06_1_1planner_1_1HBaseQueryImpl.html" target="_top" xlink:title="Responsible for splitting results from scanPlanCollection into batches.">
<polygon fill="white" stroke="#666666" points="562,-78 402,-78 402,-48 562,-48 562,-78"/>
<text text-anchor="start" x="410" y="-66" font-family="Helvetica,sans-Serif" font-size="10.00">com.teragrep.pth_06.planner.</text>
<text text-anchor="middle" x="482" y="-55" font-family="Helvetica,sans-Serif" font-size="10.00">HBaseQueryImpl</text>
</a>
</g>
</g>
<!-- Node1&#45;&gt;Node4 -->
<g id="edge3_Node000001_Node000004" class="edge">
<title>Node1&#45;&gt;Node4</title>
<g id="a_edge3_Node000001_Node000004"><a xlink:title=" ">
<path fill="none" stroke="#63b8ff" d="M376.16,-50.03C384.7,-51.09 393.32,-52.15 401.75,-53.2"/>
<polygon fill="#63b8ff" stroke="#63b8ff" points="376.54,-46.55 366.19,-48.8 375.68,-53.5 376.54,-46.55"/>
</a>
</g>
</g>
<!-- Node5 -->
<g id="Node000005" class="node">
<title>Node5</title>
<g id="a_Node000005"><a xlink:href="classcom_1_1teragrep_1_1pth__06_1_1planner_1_1StubHBaseQuery.html" target="_top" xlink:title=" ">
<polygon fill="white" stroke="#666666" points="562,-30 402,-30 402,0 562,0 562,-30"/>
<text text-anchor="start" x="410" y="-18" font-family="Helvetica,sans-Serif" font-size="10.00">com.teragrep.pth_06.planner.</text>
<text text-anchor="middle" x="482" y="-7" font-family="Helvetica,sans-Serif" font-size="10.00">StubHBaseQuery</text>
</a>
</g>
</g>
<!-- Node1&#45;&gt;Node5 -->
<g id="edge4_Node000001_Node000005" class="edge">
<title>Node1&#45;&gt;Node5</title>
<g id="a_edge4_Node000001_Node000005"><a xlink:title=" ">
<path fill="none" stroke="#63b8ff" d="M376.16,-27.97C384.7,-26.91 393.32,-25.85 401.75,-24.8"/>
<polygon fill="#63b8ff" stroke="#63b8ff" points="375.68,-24.5 366.19,-29.2 376.54,-31.45 375.68,-24.5"/>
</a>
</g>
</g>
<!-- Node2 -->
<g id="Node000002" class="node">
<title>Node2</title>
<g id="a_Node000002"><a xlink:href="interfacecom_1_1teragrep_1_1pth__06_1_1Stubbable.html" target="_top" xlink:title=" ">
<polygon fill="white" stroke="#666666" points="170,-67.5 0,-67.5 0,-48.5 170,-48.5 170,-67.5"/>
<text text-anchor="middle" x="85" y="-55.5" font-family="Helvetica,sans-Serif" font-size="10.00">com.teragrep.pth_06.Stubbable</text>
</a>
</g>
</g>
<!-- Node2&#45;&gt;Node1 -->
<g id="edge1_Node000001_Node000002" class="edge">
<title>Node2&#45;&gt;Node1</title>
<g id="a_edge1_Node000001_Node000002"><a xlink:title=" ">
<path fill="none" stroke="#63b8ff" d="M180.19,-49.01C188.81,-48.18 197.48,-47.36 205.95,-46.55"/>
<polygon fill="#63b8ff" stroke="#63b8ff" points="179.73,-45.54 170.11,-49.97 180.39,-52.5 179.73,-45.54"/>
</a>
</g>
</g>
<!-- Node3 -->
<g id="Node000003" class="node">
<title>Node3</title>
<g id="a_Node000003"><a xlink:title=" ">
<polygon fill="white" stroke="#666666" points="128.5,-30.5 41.5,-30.5 41.5,-11.5 128.5,-11.5 128.5,-30.5"/>
<text text-anchor="middle" x="85" y="-18.5" font-family="Helvetica,sans-Serif" font-size="10.00">AutoCloseable</text>
</a>
</g>
</g>
<!-- Node3&#45;&gt;Node1 -->
<g id="edge2_Node000001_Node000003" class="edge">
<title>Node3&#45;&gt;Node1</title>
<g id="a_edge2_Node000001_Node000003"><a xlink:title=" ">
<path fill="none" stroke="#63b8ff" d="M138.79,-25.77C159.34,-27.63 183.32,-29.8 205.85,-31.84"/>
<polygon fill="#63b8ff" stroke="#63b8ff" points="138.97,-22.28 128.69,-24.86 138.33,-29.25 138.97,-22.28"/>
</a>
</g>
</g>
</g>
</svg>
