<?xml version="1.0" encoding="UTF-8" standalone="no"?>
<!DOCTYPE svg PUBLIC "-//W3C//DTD SVG 1.1//EN"
 "http://www.w3.org/Graphics/SVG/1.1/DTD/svg11.dtd">
<!-- Generated by graphviz version 2.43.0 (0)
 -->
<!-- Title: com.teragrep.pth_06.ast.analyze.ScanRange.merge Pages: 1 -->
<svg width="459pt" height="86pt"
 viewBox="0.00 0.00 459.00 86.00" xmlns="http://www.w3.org/2000/svg" xmlns:xlink="http://www.w3.org/1999/xlink">
<g id="graph0" class="graph" transform="scale(1 1) rotate(0) translate(4 82)">
<title>com.teragrep.pth_06.ast.analyze.ScanRange.merge</title>
<!-- Node1 -->
<g id="Node000001" class="node">
<title>Node1</title>
<g id="a_Node000001"><a xlink:title="Merge two ScanRanges with the smaller earliest and larger latest values.">
<polygon fill="#999999" stroke="#666666" points="451,-54 271,-54 271,-24 451,-24 451,-54"/>
<text text-anchor="start" x="279" y="-42" font-family="Helvetica,sans-Serif" font-size="10.00">com.teragrep.pth_06.ast.analyze.</text>
<text text-anchor="middle" x="361" y="-31" font-family="Helvetica,sans-Serif" font-size="10.00">ScanRange.merge</text>
</a>
</g>
</g>
<!-- Node2 -->
<g id="Node000002" class="node">
<title>Node2</title>
<g id="a_Node000002"><a xlink:href="classcom_1_1teragrep_1_1pth__06_1_1ast_1_1analyze_1_1ScanRangeImplTest.html#a17b16353671f25b9e1eee49f0f78fcbb" target="_top" xlink:title=" ">
<polygon fill="white" stroke="#666666" points="235,-78 0,-78 0,-48 235,-48 235,-78"/>
<text text-anchor="start" x="8" y="-66" font-family="Helvetica,sans-Serif" font-size="10.00">com.teragrep.pth_06.ast.analyze.</text>
<text text-anchor="middle" x="117.5" y="-55" font-family="Helvetica,sans-Serif" font-size="10.00">ScanRangeImplTest.testEncompassingMerge</text>
</a>
</g>
</g>
<!-- Node1&#45;&gt;Node2 -->
<g id="edge1_Node000001_Node000002" class="edge">
<title>Node1&#45;&gt;Node2</title>
<g id="a_edge1_Node000001_Node000002"><a xlink:title=" ">
<path fill="none" stroke="#63b8ff" d="M260.65,-48.87C252.29,-49.7 243.79,-50.55 235.32,-51.39"/>
<polygon fill="#63b8ff" stroke="#63b8ff" points="261.16,-52.34 270.76,-47.87 260.46,-45.37 261.16,-52.34"/>
</a>
</g>
</g>
<!-- Node3 -->
<g id="Node000003" class="node">
<title>Node3</title>
<g id="a_Node000003"><a xlink:href="classcom_1_1teragrep_1_1pth__06_1_1ast_1_1analyze_1_1ScanRangeImplTest.html#ad4675a578f20770019c9734ccf38fc74" target="_top" xlink:title=" ">
<polygon fill="white" stroke="#666666" points="228.5,-30 6.5,-30 6.5,0 228.5,0 228.5,-30"/>
<text text-anchor="start" x="14.5" y="-18" font-family="Helvetica,sans-Serif" font-size="10.00">com.teragrep.pth_06.ast.analyze.</text>
<text text-anchor="middle" x="117.5" y="-7" font-family="Helvetica,sans-Serif" font-size="10.00">ScanRangeImplTest.testIntersectingMerge</text>
</a>
</g>
</g>
<!-- Node1&#45;&gt;Node3 -->
<g id="edge2_Node000001_Node000003" class="edge">
<title>Node1&#45;&gt;Node3</title>
<g id="a_edge2_Node000001_Node000003"><a xlink:title=" ">
<path fill="none" stroke="#63b8ff" d="M260.71,-29.13C250.15,-28.08 239.35,-27.01 228.67,-25.95"/>
<polygon fill="#63b8ff" stroke="#63b8ff" points="260.46,-32.63 270.76,-30.13 261.16,-25.66 260.46,-32.63"/>
</a>
</g>
</g>
</g>
</svg>
