<?xml version="1.0" encoding="UTF-8" standalone="no"?>
<!DOCTYPE svg PUBLIC "-//W3C//DTD SVG 1.1//EN"
 "http://www.w3.org/Graphics/SVG/1.1/DTD/svg11.dtd">
<!-- Generated by graphviz version 2.43.0 (0)
 -->
<!-- Title: com.teragrep.pth_06.ast.analyze.ScanRange.latest Pages: 1 -->
<svg width="647pt" height="466pt"
 viewBox="0.00 0.00 647.00 465.70" xmlns="http://www.w3.org/2000/svg" xmlns:xlink="http://www.w3.org/1999/xlink">
<g id="graph0" class="graph" transform="scale(1 1) rotate(0) translate(4 461.7)">
<title>com.teragrep.pth_06.ast.analyze.ScanRange.latest</title>
<!-- Node1 -->
<g id="Node000001" class="node">
<title>Node1</title>
<g id="a_Node000001"><a xlink:title=" ">
<polygon fill="#999999" stroke="#666666" points="639,-261 459,-261 459,-231 639,-231 639,-261"/>
<text text-anchor="start" x="467" y="-249" font-family="Helvetica,sans-Serif" font-size="10.00">com.teragrep.pth_06.ast.analyze.</text>
<text text-anchor="middle" x="549" y="-238" font-family="Helvetica,sans-Serif" font-size="10.00">ScanRange.latest</text>
</a>
</g>
</g>
<!-- Node2 -->
<g id="Node000002" class="node">
<title>Node2</title>
<g id="a_Node000002"><a xlink:href="classcom_1_1teragrep_1_1pth__06_1_1ast_1_1analyze_1_1ScanRangeImpl.html#a80d3f9ee0442f83f46b6808062752f2d" target="_top" xlink:title="Returns true if the ranges overlap or touch.">
<polygon fill="white" stroke="#666666" points="409.5,-411 229.5,-411 229.5,-381 409.5,-381 409.5,-411"/>
<text text-anchor="start" x="237.5" y="-399" font-family="Helvetica,sans-Serif" font-size="10.00">com.teragrep.pth_06.ast.analyze.</text>
<text text-anchor="middle" x="319.5" y="-388" font-family="Helvetica,sans-Serif" font-size="10.00">ScanRangeImpl.intersects</text>
</a>
</g>
</g>
<!-- Node1&#45;&gt;Node2 -->
<g id="edge1_Node000001_Node000002" class="edge">
<title>Node1&#45;&gt;Node2</title>
<g id="a_edge1_Node000001_Node000002"><a xlink:title=" ">
<path fill="none" stroke="#63b8ff" d="M531.47,-269.35C509.88,-298.05 469.31,-346.11 423,-372 416.78,-375.48 410.07,-378.45 403.18,-381"/>
<polygon fill="#63b8ff" stroke="#63b8ff" points="534.43,-271.24 537.55,-261.11 528.8,-267.08 534.43,-271.24"/>
</a>
</g>
</g>
<!-- Node3 -->
<g id="Node000003" class="node">
<title>Node3</title>
<g id="a_Node000003"><a xlink:href="classcom_1_1teragrep_1_1pth__06_1_1ast_1_1analyze_1_1ScanRangeImpl.html#ae243f899270ab01481eb522dc1eda3ae" target="_top" xlink:title="Merge two ScanRanges with the smaller earliest and larger latest values.">
<polygon fill="white" stroke="#666666" points="180,-454 0,-454 0,-424 180,-424 180,-454"/>
<text text-anchor="start" x="8" y="-442" font-family="Helvetica,sans-Serif" font-size="10.00">com.teragrep.pth_06.ast.analyze.</text>
<text text-anchor="middle" x="90" y="-431" font-family="Helvetica,sans-Serif" font-size="10.00">ScanRangeImpl.merge</text>
</a>
</g>
</g>
<!-- Node1&#45;&gt;Node3 -->
<g id="edge4_Node000001_Node000003" class="edge">
<title>Node1&#45;&gt;Node3</title>
<g id="a_edge4_Node000001_Node000003"><a xlink:title=" ">
<path fill="none" stroke="#63b8ff" d="M538.63,-270.55C522.07,-310.07 483.57,-386.71 423,-420 348.75,-460.8 250.53,-461.07 180.22,-453.87"/>
<polygon fill="#63b8ff" stroke="#63b8ff" points="541.93,-271.71 542.45,-261.13 535.45,-269.08 541.93,-271.71"/>
</a>
</g>
</g>
<!-- Node5 -->
<g id="Node000005" class="node">
<title>Node5</title>
<g id="a_Node000005"><a xlink:href="classcom_1_1teragrep_1_1pth__06_1_1ast_1_1analyze_1_1ScanRangeImplTest.html#aba3ca67c49451897862a0116e58cb702" target="_top" xlink:title=" ">
<polygon fill="white" stroke="#666666" points="417,-363 222,-363 222,-333 417,-333 417,-363"/>
<text text-anchor="start" x="230" y="-351" font-family="Helvetica,sans-Serif" font-size="10.00">com.teragrep.pth_06.ast.analyze.</text>
<text text-anchor="middle" x="319.5" y="-340" font-family="Helvetica,sans-Serif" font-size="10.00">ScanRangeImplTest.testFromEarliest</text>
</a>
</g>
</g>
<!-- Node1&#45;&gt;Node5 -->
<g id="edge5_Node000001_Node000005" class="edge">
<title>Node1&#45;&gt;Node5</title>
<g id="a_edge5_Node000001_Node000005"><a xlink:title=" ">
<path fill="none" stroke="#63b8ff" d="M520.25,-267.06C495.83,-284.64 458.71,-309.16 423,-324 414.81,-327.4 406.05,-330.38 397.22,-332.96"/>
<polygon fill="#63b8ff" stroke="#63b8ff" points="522.32,-269.88 528.33,-261.15 518.19,-264.23 522.32,-269.88"/>
</a>
</g>
</g>
<!-- Node6 -->
<g id="Node000006" class="node">
<title>Node6</title>
<g id="a_Node000006"><a xlink:href="classcom_1_1teragrep_1_1pth__06_1_1ast_1_1analyze_1_1ScanRangeImplTest.html#af929d9453d200f51335eacc11ffa46ca" target="_top" xlink:title=" ">
<polygon fill="white" stroke="#666666" points="413.5,-315 225.5,-315 225.5,-285 413.5,-285 413.5,-315"/>
<text text-anchor="start" x="233.5" y="-303" font-family="Helvetica,sans-Serif" font-size="10.00">com.teragrep.pth_06.ast.analyze.</text>
<text text-anchor="middle" x="319.5" y="-292" font-family="Helvetica,sans-Serif" font-size="10.00">ScanRangeImplTest.testFromLatest</text>
</a>
</g>
</g>
<!-- Node1&#45;&gt;Node6 -->
<g id="edge6_Node000001_Node000006" class="edge">
<title>Node1&#45;&gt;Node6</title>
<g id="a_edge6_Node000001_Node000006"><a xlink:title=" ">
<path fill="none" stroke="#63b8ff" d="M474.87,-263.36C445.58,-270.31 412.16,-278.24 383.93,-284.95"/>
<polygon fill="#63b8ff" stroke="#63b8ff" points="475.71,-266.76 484.63,-261.04 474.09,-259.95 475.71,-266.76"/>
</a>
</g>
</g>
<!-- Node7 -->
<g id="Node000007" class="node">
<title>Node7</title>
<g id="a_Node000007"><a xlink:href="classcom_1_1teragrep_1_1pth__06_1_1ast_1_1analyze_1_1ScanRangeImplTest.html#ab63ce3091ae6aaa1946660f7d5b78824" target="_top" xlink:title=" ">
<polygon fill="white" stroke="#666666" points="423,-266.5 216,-266.5 216,-225.5 423,-225.5 423,-266.5"/>
<text text-anchor="start" x="224" y="-254.5" font-family="Helvetica,sans-Serif" font-size="10.00">com.teragrep.pth_06.ast.analyze.</text>
<text text-anchor="start" x="224" y="-243.5" font-family="Helvetica,sans-Serif" font-size="10.00">ScanRangeImplTest.testRangeBetween</text>
<text text-anchor="middle" x="319.5" y="-232.5" font-family="Helvetica,sans-Serif" font-size="10.00">UpdatedEarliestUpdated</text>
</a>
</g>
</g>
<!-- Node1&#45;&gt;Node7 -->
<g id="edge7_Node000001_Node000007" class="edge">
<title>Node1&#45;&gt;Node7</title>
<g id="a_edge7_Node000001_Node000007"><a xlink:title=" ">
<path fill="none" stroke="#63b8ff" d="M448.51,-246C440.08,-246 431.53,-246 423.07,-246"/>
<polygon fill="#63b8ff" stroke="#63b8ff" points="448.74,-249.5 458.74,-246 448.74,-242.5 448.74,-249.5"/>
</a>
</g>
</g>
<!-- Node8 -->
<g id="Node000008" class="node">
<title>Node8</title>
<g id="a_Node000008"><a xlink:href="classcom_1_1teragrep_1_1pth__06_1_1ast_1_1analyze_1_1ScanRangeImplTest.html#a895f5be6e06d5aeedb3b6d9c500787cb" target="_top" xlink:title=" ">
<polygon fill="white" stroke="#666666" points="423,-207.5 216,-207.5 216,-166.5 423,-166.5 423,-207.5"/>
<text text-anchor="start" x="224" y="-195.5" font-family="Helvetica,sans-Serif" font-size="10.00">com.teragrep.pth_06.ast.analyze.</text>
<text text-anchor="start" x="224" y="-184.5" font-family="Helvetica,sans-Serif" font-size="10.00">ScanRangeImplTest.testRangeBetween</text>
<text text-anchor="middle" x="319.5" y="-173.5" font-family="Helvetica,sans-Serif" font-size="10.00">UpdatedEarliestWithinBounds</text>
</a>
</g>
</g>
<!-- Node1&#45;&gt;Node8 -->
<g id="edge8_Node000001_Node000008" class="edge">
<title>Node1&#45;&gt;Node8</title>
<g id="a_edge8_Node000001_Node000008"><a xlink:title=" ">
<path fill="none" stroke="#63b8ff" d="M480.16,-228.41C454.91,-221.86 426.04,-214.37 399.85,-207.58"/>
<polygon fill="#63b8ff" stroke="#63b8ff" points="479.45,-231.84 490,-230.96 481.2,-225.06 479.45,-231.84"/>
</a>
</g>
</g>
<!-- Node9 -->
<g id="Node000009" class="node">
<title>Node9</title>
<g id="a_Node000009"><a xlink:href="classcom_1_1teragrep_1_1pth__06_1_1ast_1_1analyze_1_1ScanRangeImplTest.html#aabdd7bbc6ed3c369213c6f2900f0fb27" target="_top" xlink:title=" ">
<polygon fill="white" stroke="#666666" points="423,-148.5 216,-148.5 216,-107.5 423,-107.5 423,-148.5"/>
<text text-anchor="start" x="224" y="-136.5" font-family="Helvetica,sans-Serif" font-size="10.00">com.teragrep.pth_06.ast.analyze.</text>
<text text-anchor="start" x="224" y="-125.5" font-family="Helvetica,sans-Serif" font-size="10.00">ScanRangeImplTest.testRangeBetween</text>
<text text-anchor="middle" x="319.5" y="-114.5" font-family="Helvetica,sans-Serif" font-size="10.00">UpdatedLatestUpdated</text>
</a>
</g>
</g>
<!-- Node1&#45;&gt;Node9 -->
<g id="edge9_Node000001_Node000009" class="edge">
<title>Node1&#45;&gt;Node9</title>
<g id="a_edge9_Node000001_Node000009"><a xlink:title=" ">
<path fill="none" stroke="#63b8ff" d="M523.09,-224.3C498.96,-204.29 460.6,-175.04 423,-157 416.58,-153.92 409.77,-151.11 402.84,-148.56"/>
<polygon fill="#63b8ff" stroke="#63b8ff" points="521.1,-227.2 531,-230.96 525.6,-221.85 521.1,-227.2"/>
</a>
</g>
</g>
<!-- Node10 -->
<g id="Node000010" class="node">
<title>Node10</title>
<g id="a_Node000010"><a xlink:href="classcom_1_1teragrep_1_1pth__06_1_1ast_1_1analyze_1_1ScanRangeImplTest.html#a6e9457b2aacd651e669e17e3a035bd90" target="_top" xlink:title=" ">
<polygon fill="white" stroke="#666666" points="423,-89.5 216,-89.5 216,-48.5 423,-48.5 423,-89.5"/>
<text text-anchor="start" x="224" y="-77.5" font-family="Helvetica,sans-Serif" font-size="10.00">com.teragrep.pth_06.ast.analyze.</text>
<text text-anchor="start" x="224" y="-66.5" font-family="Helvetica,sans-Serif" font-size="10.00">ScanRangeImplTest.testRangeBetween</text>
<text text-anchor="middle" x="319.5" y="-55.5" font-family="Helvetica,sans-Serif" font-size="10.00">UpdatedLatestWithinBounds</text>
</a>
</g>
</g>
<!-- Node1&#45;&gt;Node10 -->
<g id="edge10_Node000001_Node000010" class="edge">
<title>Node1&#45;&gt;Node10</title>
<g id="a_edge10_Node000001_Node000010"><a xlink:title=" ">
<path fill="none" stroke="#63b8ff" d="M534.09,-221.9C513.86,-188.97 473.17,-130.34 423,-98 418.1,-94.84 412.86,-92.03 407.43,-89.51"/>
<polygon fill="#63b8ff" stroke="#63b8ff" points="531.32,-224.08 539.48,-230.85 537.32,-220.47 531.32,-224.08"/>
</a>
</g>
</g>
<!-- Node11 -->
<g id="Node000011" class="node">
<title>Node11</title>
<g id="a_Node000011"><a xlink:href="classcom_1_1teragrep_1_1pth__06_1_1ast_1_1analyze_1_1ScanRangeView.html#a6184c35203329a604d3f81ddbb61edbd" target="_top" xlink:title="Returns a new ScanRangeView from an updated offset start point.">
<polygon fill="white" stroke="#666666" points="409.5,-30 229.5,-30 229.5,0 409.5,0 409.5,-30"/>
<text text-anchor="start" x="237.5" y="-18" font-family="Helvetica,sans-Serif" font-size="10.00">com.teragrep.pth_06.ast.analyze.</text>
<text text-anchor="middle" x="319.5" y="-7" font-family="Helvetica,sans-Serif" font-size="10.00">ScanRangeView.viewFromOffset</text>
</a>
</g>
</g>
<!-- Node1&#45;&gt;Node11 -->
<g id="edge11_Node000001_Node000011" class="edge">
<title>Node1&#45;&gt;Node11</title>
<g id="a_edge11_Node000001_Node000011"><a xlink:title=" ">
<path fill="none" stroke="#63b8ff" d="M540.28,-221.34C525.22,-177.45 487.59,-85.98 423,-39 418.27,-35.56 413.12,-32.61 407.73,-30.07"/>
<polygon fill="#63b8ff" stroke="#63b8ff" points="536.99,-222.55 543.47,-230.94 543.64,-220.34 536.99,-222.55"/>
</a>
</g>
</g>
<!-- Node2&#45;&gt;Node3 -->
<g id="edge2_Node000002_Node000003" class="edge">
<title>Node2&#45;&gt;Node3</title>
<g id="a_edge2_Node000002_Node000003"><a xlink:title=" ">
<path fill="none" stroke="#63b8ff" d="M228.95,-412.93C209.66,-416.57 189.4,-420.4 170.52,-423.97"/>
<polygon fill="#63b8ff" stroke="#63b8ff" points="229.76,-416.34 238.93,-411.04 228.46,-409.46 229.76,-416.34"/>
</a>
</g>
</g>
<!-- Node4 -->
<g id="Node000004" class="node">
<title>Node4</title>
<g id="a_Node000004"><a xlink:href="classcom_1_1teragrep_1_1pth__06_1_1ast_1_1analyze_1_1ScanRangeImpl.html#ada96a801e3c4b35772739b6f7cfcb055" target="_top" xlink:title="Returns stub when new range is outside the original range.">
<polygon fill="white" stroke="#666666" points="180,-406 0,-406 0,-376 180,-376 180,-406"/>
<text text-anchor="start" x="8" y="-394" font-family="Helvetica,sans-Serif" font-size="10.00">com.teragrep.pth_06.ast.analyze.</text>
<text text-anchor="middle" x="90" y="-383" font-family="Helvetica,sans-Serif" font-size="10.00">ScanRangeImpl.toRangeBetween</text>
</a>
</g>
</g>
<!-- Node2&#45;&gt;Node4 -->
<g id="edge3_Node000002_Node000004" class="edge">
<title>Node2&#45;&gt;Node4</title>
<g id="a_edge3_Node000002_Node000004"><a xlink:title=" ">
<path fill="none" stroke="#63b8ff" d="M218.92,-393.81C205.97,-393.53 192.77,-393.24 180,-392.96"/>
<polygon fill="#63b8ff" stroke="#63b8ff" points="219.16,-397.32 229.24,-394.04 219.32,-390.32 219.16,-397.32"/>
</a>
</g>
</g>
</g>
</svg>
