<?xml version="1.0" encoding="UTF-8" standalone="no"?>
<!DOCTYPE svg PUBLIC "-//W3C//DTD SVG 1.1//EN"
 "http://www.w3.org/Graphics/SVG/1.1/DTD/svg11.dtd">
<!-- Generated by graphviz version 2.43.0 (0)
 -->
<!-- Title: com.teragrep.pth_06.planner.ArchiveQuery Pages: 1 -->
<svg width="496pt" height="182pt"
 viewBox="0.00 0.00 496.00 182.00" xmlns="http://www.w3.org/2000/svg" xmlns:xlink="http://www.w3.org/1999/xlink">
<g id="graph0" class="graph" transform="scale(1 1) rotate(0) translate(4 178)">
<title>com.teragrep.pth_06.planner.ArchiveQuery</title>
<!-- Node1 -->
<g id="Node000001" class="node">
<title>Node1</title>
<g id="a_Node000001"><a xlink:title=" ">
<polygon fill="#999999" stroke="#666666" points="255,-102 95,-102 95,-72 255,-72 255,-102"/>
<text text-anchor="start" x="103" y="-90" font-family="Helvetica,sans-Serif" font-size="10.00">com.teragrep.pth_06.planner.</text>
<text text-anchor="middle" x="175" y="-79" font-family="Helvetica,sans-Serif" font-size="10.00">ArchiveQuery</text>
</a>
</g>
</g>
<!-- Node3 -->
<g id="Node000003" class="node">
<title>Node3</title>
<g id="a_Node000003"><a xlink:href="classcom_1_1teragrep_1_1pth__06_1_1planner_1_1ArchiveQueryProcessor.html" target="_top" xlink:title=" ">
<polygon fill="white" stroke="#666666" points="469.5,-174 309.5,-174 309.5,-144 469.5,-144 469.5,-174"/>
<text text-anchor="start" x="317.5" y="-162" font-family="Helvetica,sans-Serif" font-size="10.00">com.teragrep.pth_06.planner.</text>
<text text-anchor="middle" x="389.5" y="-151" font-family="Helvetica,sans-Serif" font-size="10.00">ArchiveQueryProcessor</text>
</a>
</g>
</g>
<!-- Node1&#45;&gt;Node3 -->
<g id="edge2_Node000001_Node000003" class="edge">
<title>Node1&#45;&gt;Node3</title>
<g id="a_edge2_Node000001_Node000003"><a xlink:title=" ">
<path fill="none" stroke="#63b8ff" d="M217.43,-106.11C239.05,-115.62 266.12,-126.8 291,-135 300.77,-138.22 311.21,-141.23 321.5,-143.96"/>
<polygon fill="#63b8ff" stroke="#63b8ff" points="218.77,-102.88 208.21,-102.02 215.93,-109.27 218.77,-102.88"/>
</a>
</g>
</g>
<!-- Node4 -->
<g id="Node000004" class="node">
<title>Node4</title>
<g id="a_Node000004"><a xlink:href="classcom_1_1teragrep_1_1pth__06_1_1planner_1_1ArchiveQueryStub.html" target="_top" xlink:title=" ">
<polygon fill="white" stroke="#666666" points="469.5,-126 309.5,-126 309.5,-96 469.5,-96 469.5,-126"/>
<text text-anchor="start" x="317.5" y="-114" font-family="Helvetica,sans-Serif" font-size="10.00">com.teragrep.pth_06.planner.</text>
<text text-anchor="middle" x="389.5" y="-103" font-family="Helvetica,sans-Serif" font-size="10.00">ArchiveQueryStub</text>
</a>
</g>
</g>
<!-- Node1&#45;&gt;Node4 -->
<g id="edge3_Node000001_Node000004" class="edge">
<title>Node1&#45;&gt;Node4</title>
<g id="a_edge3_Node000001_Node000004"><a xlink:title=" ">
<path fill="none" stroke="#63b8ff" d="M265.18,-97.07C279.83,-98.73 294.92,-100.43 309.31,-102.06"/>
<polygon fill="#63b8ff" stroke="#63b8ff" points="265.46,-93.58 255.13,-95.94 264.67,-100.54 265.46,-93.58"/>
</a>
</g>
</g>
<!-- Node5 -->
<g id="Node000005" class="node">
<title>Node5</title>
<g id="a_Node000005"><a xlink:href="classcom_1_1teragrep_1_1pth__06_1_1planner_1_1MockArchiveQueryProcessor.html" target="_top" xlink:title=" ">
<polygon fill="white" stroke="#666666" points="469.5,-78 309.5,-78 309.5,-48 469.5,-48 469.5,-78"/>
<text text-anchor="start" x="317.5" y="-66" font-family="Helvetica,sans-Serif" font-size="10.00">com.teragrep.pth_06.planner.</text>
<text text-anchor="middle" x="389.5" y="-55" font-family="Helvetica,sans-Serif" font-size="10.00">MockArchiveQueryProcessor</text>
</a>
</g>
</g>
<!-- Node1&#45;&gt;Node5 -->
<g id="edge4_Node000001_Node000005" class="edge">
<title>Node1&#45;&gt;Node5</title>
<g id="a_edge4_Node000001_Node000005"><a xlink:title=" ">
<path fill="none" stroke="#63b8ff" d="M265.18,-76.93C279.83,-75.27 294.92,-73.57 309.31,-71.94"/>
<polygon fill="#63b8ff" stroke="#63b8ff" points="264.67,-73.46 255.13,-78.06 265.46,-80.42 264.67,-73.46"/>
</a>
</g>
</g>
<!-- Node6 -->
<g id="Node000006" class="node">
<title>Node6</title>
<g id="a_Node000006"><a xlink:href="classcom_1_1teragrep_1_1pth__06_1_1planner_1_1MockMeteredArchiveQueryProcessor.html" target="_top" xlink:title=" ">
<polygon fill="white" stroke="#666666" points="488,-30 291,-30 291,0 488,0 488,-30"/>
<text text-anchor="start" x="299" y="-18" font-family="Helvetica,sans-Serif" font-size="10.00">com.teragrep.pth_06.planner.</text>
<text text-anchor="middle" x="389.5" y="-7" font-family="Helvetica,sans-Serif" font-size="10.00">MockMeteredArchiveQueryProcessor</text>
</a>
</g>
</g>
<!-- Node1&#45;&gt;Node6 -->
<g id="edge5_Node000001_Node000006" class="edge">
<title>Node1&#45;&gt;Node6</title>
<g id="a_edge5_Node000001_Node000006"><a xlink:title=" ">
<path fill="none" stroke="#63b8ff" d="M217.43,-67.89C239.05,-58.38 266.12,-47.2 291,-39 300.77,-35.78 311.21,-32.77 321.5,-30.04"/>
<polygon fill="#63b8ff" stroke="#63b8ff" points="215.93,-64.73 208.21,-71.98 218.77,-71.12 215.93,-64.73"/>
</a>
</g>
</g>
<!-- Node2 -->
<g id="Node000002" class="node">
<title>Node2</title>
<g id="a_Node000002"><a xlink:title=" ">
<polygon fill="white" stroke="#666666" points="59,-96.5 0,-96.5 0,-77.5 59,-77.5 59,-96.5"/>
<text text-anchor="middle" x="29.5" y="-84.5" font-family="Helvetica,sans-Serif" font-size="10.00">Stubable</text>
</a>
</g>
</g>
<!-- Node2&#45;&gt;Node1 -->
<g id="edge1_Node000001_Node000002" class="edge">
<title>Node2&#45;&gt;Node1</title>
<g id="a_edge1_Node000001_Node000002"><a xlink:title=" ">
<path fill="none" stroke="#63b8ff" d="M69.26,-87C77.26,-87 85.95,-87 94.8,-87"/>
<polygon fill="#63b8ff" stroke="#63b8ff" points="69.19,-83.5 59.19,-87 69.19,-90.5 69.19,-83.5"/>
</a>
</g>
</g>
</g>
</svg>
