<?xml version="1.0" encoding="UTF-8" standalone="no"?>
<!DOCTYPE svg PUBLIC "-//W3C//DTD SVG 1.1//EN"
 "http://www.w3.org/Graphics/SVG/1.1/DTD/svg11.dtd">
<!-- Generated by graphviz version 2.43.0 (0)
 -->
<!-- Title: com.teragrep.pth_06.ast.analyze.ScanRange.streamId Pages: 1 -->
<svg width="620pt" height="86pt"
 viewBox="0.00 0.00 620.00 86.00" xmlns="http://www.w3.org/2000/svg" xmlns:xlink="http://www.w3.org/1999/xlink">
<g id="graph0" class="graph" transform="scale(1 1) rotate(0) translate(4 82)">
<title>com.teragrep.pth_06.ast.analyze.ScanRange.streamId</title>
<!-- Node1 -->
<g id="Node000001" class="node">
<title>Node1</title>
<g id="a_Node000001"><a xlink:title=" ">
<polygon fill="#999999" stroke="#666666" points="612,-54 432,-54 432,-24 612,-24 612,-54"/>
<text text-anchor="start" x="440" y="-42" font-family="Helvetica,sans-Serif" font-size="10.00">com.teragrep.pth_06.ast.analyze.</text>
<text text-anchor="middle" x="522" y="-31" font-family="Helvetica,sans-Serif" font-size="10.00">ScanRange.streamId</text>
</a>
</g>
</g>
<!-- Node2 -->
<g id="Node000002" class="node">
<title>Node2</title>
<g id="a_Node000002"><a xlink:href="classcom_1_1teragrep_1_1pth__06_1_1ast_1_1analyze_1_1ScanRangeImpl.html#a80d3f9ee0442f83f46b6808062752f2d" target="_top" xlink:title="Returns true if the ranges overlap or touch.">
<polygon fill="white" stroke="#666666" points="396,-54 216,-54 216,-24 396,-24 396,-54"/>
<text text-anchor="start" x="224" y="-42" font-family="Helvetica,sans-Serif" font-size="10.00">com.teragrep.pth_06.ast.analyze.</text>
<text text-anchor="middle" x="306" y="-31" font-family="Helvetica,sans-Serif" font-size="10.00">ScanRangeImpl.intersects</text>
</a>
</g>
</g>
<!-- Node1&#45;&gt;Node2 -->
<g id="edge1_Node000001_Node000002" class="edge">
<title>Node1&#45;&gt;Node2</title>
<g id="a_edge1_Node000001_Node000002"><a xlink:title=" ">
<path fill="none" stroke="#63b8ff" d="M421.77,-39C413.19,-39 404.55,-39 396.06,-39"/>
<polygon fill="#63b8ff" stroke="#63b8ff" points="421.79,-42.5 431.79,-39 421.79,-35.5 421.79,-42.5"/>
</a>
</g>
</g>
<!-- Node3 -->
<g id="Node000003" class="node">
<title>Node3</title>
<g id="a_Node000003"><a xlink:href="classcom_1_1teragrep_1_1pth__06_1_1ast_1_1analyze_1_1ScanRangeImpl.html#ae243f899270ab01481eb522dc1eda3ae" target="_top" xlink:title="Merge two ScanRanges with the smaller earliest and larger latest values.">
<polygon fill="white" stroke="#666666" points="180,-78 0,-78 0,-48 180,-48 180,-78"/>
<text text-anchor="start" x="8" y="-66" font-family="Helvetica,sans-Serif" font-size="10.00">com.teragrep.pth_06.ast.analyze.</text>
<text text-anchor="middle" x="90" y="-55" font-family="Helvetica,sans-Serif" font-size="10.00">ScanRangeImpl.merge</text>
</a>
</g>
</g>
<!-- Node2&#45;&gt;Node3 -->
<g id="edge2_Node000002_Node000003" class="edge">
<title>Node2&#45;&gt;Node3</title>
<g id="a_edge2_Node000002_Node000003"><a xlink:title=" ">
<path fill="none" stroke="#63b8ff" d="M205.77,-50.13C197.19,-51.09 188.55,-52.06 180.06,-53.01"/>
<polygon fill="#63b8ff" stroke="#63b8ff" points="206.25,-53.6 215.79,-49 205.47,-46.64 206.25,-53.6"/>
</a>
</g>
</g>
<!-- Node4 -->
<g id="Node000004" class="node">
<title>Node4</title>
<g id="a_Node000004"><a xlink:href="classcom_1_1teragrep_1_1pth__06_1_1ast_1_1analyze_1_1ScanRangeImpl.html#ada96a801e3c4b35772739b6f7cfcb055" target="_top" xlink:title="Returns stub when new range is outside the original range.">
<polygon fill="white" stroke="#666666" points="180,-30 0,-30 0,0 180,0 180,-30"/>
<text text-anchor="start" x="8" y="-18" font-family="Helvetica,sans-Serif" font-size="10.00">com.teragrep.pth_06.ast.analyze.</text>
<text text-anchor="middle" x="90" y="-7" font-family="Helvetica,sans-Serif" font-size="10.00">ScanRangeImpl.toRangeBetween</text>
</a>
</g>
</g>
<!-- Node2&#45;&gt;Node4 -->
<g id="edge3_Node000002_Node000004" class="edge">
<title>Node2&#45;&gt;Node4</title>
<g id="a_edge3_Node000002_Node000004"><a xlink:title=" ">
<path fill="none" stroke="#63b8ff" d="M205.77,-27.87C197.19,-26.91 188.55,-25.94 180.06,-24.99"/>
<polygon fill="#63b8ff" stroke="#63b8ff" points="205.47,-31.36 215.79,-29 206.25,-24.4 205.47,-31.36"/>
</a>
</g>
</g>
</g>
</svg>
