<?xml version="1.0" encoding="UTF-8" standalone="no"?>
<!DOCTYPE svg PUBLIC "-//W3C//DTD SVG 1.1//EN"
 "http://www.w3.org/Graphics/SVG/1.1/DTD/svg11.dtd">
<!-- Generated by graphviz version 2.43.0 (0)
 -->
<!-- Title: com.teragrep.pth_06.ast.analyze.ScanRange.latest Pages: 1 -->
<svg width="655pt" height="516pt"
 viewBox="0.00 0.00 655.00 516.02" xmlns="http://www.w3.org/2000/svg" xmlns:xlink="http://www.w3.org/1999/xlink">
<g id="graph0" class="graph" transform="scale(1 1) rotate(0) translate(4 512.02)">
<title>com.teragrep.pth_06.ast.analyze.ScanRange.latest</title>
<!-- Node1 -->
<g id="Node000001" class="node">
<title>Node1</title>
<g id="a_Node000001"><a xlink:title=" ">
<polygon fill="#999999" stroke="#666666" points="647,-288 467,-288 467,-258 647,-258 647,-288"/>
<text text-anchor="start" x="475" y="-276" font-family="Helvetica,sans-Serif" font-size="10.00">com.teragrep.pth_06.ast.analyze.</text>
<text text-anchor="middle" x="557" y="-265" font-family="Helvetica,sans-Serif" font-size="10.00">ScanRange.latest</text>
</a>
</g>
</g>
<!-- Node2 -->
<g id="Node000002" class="node">
<title>Node2</title>
<g id="a_Node000002"><a xlink:href="classcom_1_1teragrep_1_1pth__06_1_1ast_1_1analyze_1_1ScanRangeImpl.html#a80d3f9ee0442f83f46b6808062752f2d" target="_top" xlink:title="Returns true if the ranges overlap or touch.">
<polygon fill="white" stroke="#666666" points="413.5,-459 233.5,-459 233.5,-429 413.5,-429 413.5,-459"/>
<text text-anchor="start" x="241.5" y="-447" font-family="Helvetica,sans-Serif" font-size="10.00">com.teragrep.pth_06.ast.analyze.</text>
<text text-anchor="middle" x="323.5" y="-436" font-family="Helvetica,sans-Serif" font-size="10.00">ScanRangeImpl.intersects</text>
</a>
</g>
</g>
<!-- Node1&#45;&gt;Node2 -->
<g id="edge1_Node000001_Node000002" class="edge">
<title>Node1&#45;&gt;Node2</title>
<g id="a_edge1_Node000001_Node000002"><a xlink:title=" ">
<path fill="none" stroke="#63b8ff" d="M542.29,-297.32C522.29,-330.47 481.88,-389.23 431,-420 425.32,-423.43 419.21,-426.38 412.88,-428.9"/>
<polygon fill="#63b8ff" stroke="#63b8ff" points="545.55,-298.7 547.61,-288.3 539.52,-295.14 545.55,-298.7"/>
</a>
</g>
</g>
<!-- Node3 -->
<g id="Node000003" class="node">
<title>Node3</title>
<g id="a_Node000003"><a xlink:href="classcom_1_1teragrep_1_1pth__06_1_1ast_1_1analyze_1_1ScanRangeImpl.html#ae243f899270ab01481eb522dc1eda3ae" target="_top" xlink:title="Merge two ScanRanges with the smaller earliest and larger latest values.">
<polygon fill="white" stroke="#666666" points="180,-502 0,-502 0,-472 180,-472 180,-502"/>
<text text-anchor="start" x="8" y="-490" font-family="Helvetica,sans-Serif" font-size="10.00">com.teragrep.pth_06.ast.analyze.</text>
<text text-anchor="middle" x="90" y="-479" font-family="Helvetica,sans-Serif" font-size="10.00">ScanRangeImpl.merge</text>
</a>
</g>
</g>
<!-- Node1&#45;&gt;Node3 -->
<g id="edge5_Node000001_Node000003" class="edge">
<title>Node1&#45;&gt;Node3</title>
<g id="a_edge5_Node000001_Node000003"><a xlink:title=" ">
<path fill="none" stroke="#63b8ff" d="M548.37,-297.94C533.64,-341.3 496.77,-429.61 431,-468 351.86,-514.19 243.91,-511.41 171.05,-502.03"/>
<polygon fill="#63b8ff" stroke="#63b8ff" points="551.78,-298.78 551.57,-288.19 545.13,-296.6 551.78,-298.78"/>
</a>
</g>
</g>
<!-- Node5 -->
<g id="Node000005" class="node">
<title>Node5</title>
<g id="a_Node000005"><a xlink:href="classcom_1_1teragrep_1_1pth__06_1_1ast_1_1analyze_1_1ScanRangeView.html#a94fba0da955d5f6aa52613575a098209" target="_top" xlink:title=" ">
<polygon fill="white" stroke="#666666" points="431,-411 216,-411 216,-381 431,-381 431,-411"/>
<text text-anchor="start" x="224" y="-399" font-family="Helvetica,sans-Serif" font-size="10.00">com.teragrep.pth_06.ast.analyze.</text>
<text text-anchor="middle" x="323.5" y="-388" font-family="Helvetica,sans-Serif" font-size="10.00">ScanRangeView.isEndOffsetWithinRange</text>
</a>
</g>
</g>
<!-- Node1&#45;&gt;Node5 -->
<g id="edge4_Node000001_Node000005" class="edge">
<title>Node1&#45;&gt;Node5</title>
<g id="a_edge4_Node000001_Node000005"><a xlink:title=" ">
<path fill="none" stroke="#63b8ff" d="M534.06,-295.54C510.64,-318.28 471.39,-352.7 431,-372 423.82,-375.43 416.13,-378.38 408.28,-380.92"/>
<polygon fill="#63b8ff" stroke="#63b8ff" points="536.72,-297.83 541.38,-288.32 531.8,-292.85 536.72,-297.83"/>
</a>
</g>
</g>
<!-- Node6 -->
<g id="Node000006" class="node">
<title>Node6</title>
<g id="a_Node000006"><a xlink:href="classcom_1_1teragrep_1_1pth__06_1_1ast_1_1analyze_1_1ScanRangeImplTest.html#aba3ca67c49451897862a0116e58cb702" target="_top" xlink:title=" ">
<polygon fill="white" stroke="#666666" points="421,-363 226,-363 226,-333 421,-333 421,-363"/>
<text text-anchor="start" x="234" y="-351" font-family="Helvetica,sans-Serif" font-size="10.00">com.teragrep.pth_06.ast.analyze.</text>
<text text-anchor="middle" x="323.5" y="-340" font-family="Helvetica,sans-Serif" font-size="10.00">ScanRangeImplTest.testFromEarliest</text>
</a>
</g>
</g>
<!-- Node1&#45;&gt;Node6 -->
<g id="edge6_Node000001_Node000006" class="edge">
<title>Node1&#45;&gt;Node6</title>
<g id="a_edge6_Node000001_Node000006"><a xlink:title=" ">
<path fill="none" stroke="#63b8ff" d="M514.22,-292.08C490.23,-302.52 459.33,-315.1 431,-324 420.6,-327.27 409.5,-330.28 398.54,-332.98"/>
<polygon fill="#63b8ff" stroke="#63b8ff" points="515.64,-295.28 523.39,-288.05 512.82,-288.87 515.64,-295.28"/>
</a>
</g>
</g>
<!-- Node7 -->
<g id="Node000007" class="node">
<title>Node7</title>
<g id="a_Node000007"><a xlink:href="classcom_1_1teragrep_1_1pth__06_1_1ast_1_1analyze_1_1ScanRangeImplTest.html#af929d9453d200f51335eacc11ffa46ca" target="_top" xlink:title=" ">
<polygon fill="white" stroke="#666666" points="417.5,-315 229.5,-315 229.5,-285 417.5,-285 417.5,-315"/>
<text text-anchor="start" x="237.5" y="-303" font-family="Helvetica,sans-Serif" font-size="10.00">com.teragrep.pth_06.ast.analyze.</text>
<text text-anchor="middle" x="323.5" y="-292" font-family="Helvetica,sans-Serif" font-size="10.00">ScanRangeImplTest.testFromLatest</text>
</a>
</g>
</g>
<!-- Node1&#45;&gt;Node7 -->
<g id="edge7_Node000001_Node000007" class="edge">
<title>Node1&#45;&gt;Node7</title>
<g id="a_edge7_Node000001_Node000007"><a xlink:title=" ">
<path fill="none" stroke="#63b8ff" d="M456.59,-284.59C443.73,-286.09 430.6,-287.63 417.85,-289.11"/>
<polygon fill="#63b8ff" stroke="#63b8ff" points="457.3,-288.04 466.83,-283.4 456.49,-281.08 457.3,-288.04"/>
</a>
</g>
</g>
<!-- Node8 -->
<g id="Node000008" class="node">
<title>Node8</title>
<g id="a_Node000008"><a xlink:href="classcom_1_1teragrep_1_1pth__06_1_1ast_1_1analyze_1_1ScanRangeImplTest.html#ab63ce3091ae6aaa1946660f7d5b78824" target="_top" xlink:title=" ">
<polygon fill="white" stroke="#666666" points="427,-266.5 220,-266.5 220,-225.5 427,-225.5 427,-266.5"/>
<text text-anchor="start" x="228" y="-254.5" font-family="Helvetica,sans-Serif" font-size="10.00">com.teragrep.pth_06.ast.analyze.</text>
<text text-anchor="start" x="228" y="-243.5" font-family="Helvetica,sans-Serif" font-size="10.00">ScanRangeImplTest.testRangeBetween</text>
<text text-anchor="middle" x="323.5" y="-232.5" font-family="Helvetica,sans-Serif" font-size="10.00">UpdatedEarliestUpdated</text>
</a>
</g>
</g>
<!-- Node1&#45;&gt;Node8 -->
<g id="edge8_Node000001_Node000008" class="edge">
<title>Node1&#45;&gt;Node8</title>
<g id="a_edge8_Node000001_Node000008"><a xlink:title=" ">
<path fill="none" stroke="#63b8ff" d="M456.7,-261.42C446.91,-260.28 436.96,-259.12 427.14,-257.97"/>
<polygon fill="#63b8ff" stroke="#63b8ff" points="456.49,-264.92 466.83,-262.6 457.3,-257.96 456.49,-264.92"/>
</a>
</g>
</g>
<!-- Node9 -->
<g id="Node000009" class="node">
<title>Node9</title>
<g id="a_Node000009"><a xlink:href="classcom_1_1teragrep_1_1pth__06_1_1ast_1_1analyze_1_1ScanRangeImplTest.html#a895f5be6e06d5aeedb3b6d9c500787cb" target="_top" xlink:title=" ">
<polygon fill="white" stroke="#666666" points="427,-207.5 220,-207.5 220,-166.5 427,-166.5 427,-207.5"/>
<text text-anchor="start" x="228" y="-195.5" font-family="Helvetica,sans-Serif" font-size="10.00">com.teragrep.pth_06.ast.analyze.</text>
<text text-anchor="start" x="228" y="-184.5" font-family="Helvetica,sans-Serif" font-size="10.00">ScanRangeImplTest.testRangeBetween</text>
<text text-anchor="middle" x="323.5" y="-173.5" font-family="Helvetica,sans-Serif" font-size="10.00">UpdatedEarliestWithinBounds</text>
</a>
</g>
</g>
<!-- Node1&#45;&gt;Node9 -->
<g id="edge9_Node000001_Node000009" class="edge">
<title>Node1&#45;&gt;Node9</title>
<g id="a_edge9_Node000001_Node000009"><a xlink:title=" ">
<path fill="none" stroke="#63b8ff" d="M517.26,-253.36C492.91,-241.52 460.6,-226.7 431,-216 422.8,-213.04 414.15,-210.21 405.47,-207.57"/>
<polygon fill="#63b8ff" stroke="#63b8ff" points="515.99,-256.64 526.51,-257.91 519.08,-250.36 515.99,-256.64"/>
</a>
</g>
</g>
<!-- Node10 -->
<g id="Node000010" class="node">
<title>Node10</title>
<g id="a_Node000010"><a xlink:href="classcom_1_1teragrep_1_1pth__06_1_1ast_1_1analyze_1_1ScanRangeImplTest.html#aabdd7bbc6ed3c369213c6f2900f0fb27" target="_top" xlink:title=" ">
<polygon fill="white" stroke="#666666" points="427,-148.5 220,-148.5 220,-107.5 427,-107.5 427,-148.5"/>
<text text-anchor="start" x="228" y="-136.5" font-family="Helvetica,sans-Serif" font-size="10.00">com.teragrep.pth_06.ast.analyze.</text>
<text text-anchor="start" x="228" y="-125.5" font-family="Helvetica,sans-Serif" font-size="10.00">ScanRangeImplTest.testRangeBetween</text>
<text text-anchor="middle" x="323.5" y="-114.5" font-family="Helvetica,sans-Serif" font-size="10.00">UpdatedLatestUpdated</text>
</a>
</g>
</g>
<!-- Node1&#45;&gt;Node10 -->
<g id="edge10_Node000001_Node000010" class="edge">
<title>Node1&#45;&gt;Node10</title>
<g id="a_edge10_Node000001_Node000010"><a xlink:title=" ">
<path fill="none" stroke="#63b8ff" d="M537.19,-249.79C514.65,-223.48 474.44,-181.13 431,-157 425.39,-153.88 419.42,-151.09 413.29,-148.58"/>
<polygon fill="#63b8ff" stroke="#63b8ff" points="534.75,-252.32 543.87,-257.72 540.11,-247.82 534.75,-252.32"/>
</a>
</g>
</g>
<!-- Node11 -->
<g id="Node000011" class="node">
<title>Node11</title>
<g id="a_Node000011"><a xlink:href="classcom_1_1teragrep_1_1pth__06_1_1ast_1_1analyze_1_1ScanRangeImplTest.html#a6e9457b2aacd651e669e17e3a035bd90" target="_top" xlink:title=" ">
<polygon fill="white" stroke="#666666" points="427,-89.5 220,-89.5 220,-48.5 427,-48.5 427,-89.5"/>
<text text-anchor="start" x="228" y="-77.5" font-family="Helvetica,sans-Serif" font-size="10.00">com.teragrep.pth_06.ast.analyze.</text>
<text text-anchor="start" x="228" y="-66.5" font-family="Helvetica,sans-Serif" font-size="10.00">ScanRangeImplTest.testRangeBetween</text>
<text text-anchor="middle" x="323.5" y="-55.5" font-family="Helvetica,sans-Serif" font-size="10.00">UpdatedLatestWithinBounds</text>
</a>
</g>
</g>
<!-- Node1&#45;&gt;Node11 -->
<g id="edge11_Node000001_Node000011" class="edge">
<title>Node1&#45;&gt;Node11</title>
<g id="a_edge11_Node000001_Node000011"><a xlink:title=" ">
<path fill="none" stroke="#63b8ff" d="M545.29,-248.61C527.31,-210.53 487.4,-137.27 431,-98 426.52,-94.88 421.71,-92.09 416.72,-89.61"/>
<polygon fill="#63b8ff" stroke="#63b8ff" points="542.22,-250.3 549.58,-257.92 548.58,-247.38 542.22,-250.3"/>
</a>
</g>
</g>
<!-- Node12 -->
<g id="Node000012" class="node">
<title>Node12</title>
<g id="a_Node000012"><a xlink:href="classcom_1_1teragrep_1_1pth__06_1_1ast_1_1analyze_1_1ScanRangeView.html#a61e947083a3d9e6e8ab1a8480ca94c95" target="_top" xlink:title="Returns a new ScanRangeView from an updated offset start point.">
<polygon fill="white" stroke="#666666" points="413.5,-30 233.5,-30 233.5,0 413.5,0 413.5,-30"/>
<text text-anchor="start" x="241.5" y="-18" font-family="Helvetica,sans-Serif" font-size="10.00">com.teragrep.pth_06.ast.analyze.</text>
<text text-anchor="middle" x="323.5" y="-7" font-family="Helvetica,sans-Serif" font-size="10.00">ScanRangeView.viewFromOffset</text>
</a>
</g>
</g>
<!-- Node1&#45;&gt;Node12 -->
<g id="edge12_Node000001_Node000012" class="edge">
<title>Node1&#45;&gt;Node12</title>
<g id="a_edge12_Node000001_Node000012"><a xlink:title=" ">
<path fill="none" stroke="#63b8ff" d="M550.03,-247.88C537.16,-199.43 502.02,-93.1 431,-39 425.65,-34.92 419.73,-31.52 413.51,-28.67"/>
<polygon fill="#63b8ff" stroke="#63b8ff" points="546.71,-249.01 552.58,-257.83 553.49,-247.28 546.71,-249.01"/>
</a>
</g>
</g>
<!-- Node2&#45;&gt;Node3 -->
<g id="edge2_Node000002_Node000003" class="edge">
<title>Node2&#45;&gt;Node3</title>
<g id="a_edge2_Node000002_Node000003"><a xlink:title=" ">
<path fill="none" stroke="#63b8ff" d="M231.64,-460.88C211.93,-464.54 191.22,-468.39 171.92,-471.97"/>
<polygon fill="#63b8ff" stroke="#63b8ff" points="232.34,-464.31 241.53,-459.04 231.06,-457.42 232.34,-464.31"/>
</a>
</g>
</g>
<!-- Node4 -->
<g id="Node000004" class="node">
<title>Node4</title>
<g id="a_Node000004"><a xlink:href="classcom_1_1teragrep_1_1pth__06_1_1ast_1_1analyze_1_1ScanRangeImpl.html#ada96a801e3c4b35772739b6f7cfcb055" target="_top" xlink:title="Returns stub when new range is outside the original range.">
<polygon fill="white" stroke="#666666" points="180,-454 0,-454 0,-424 180,-424 180,-454"/>
<text text-anchor="start" x="8" y="-442" font-family="Helvetica,sans-Serif" font-size="10.00">com.teragrep.pth_06.ast.analyze.</text>
<text text-anchor="middle" x="90" y="-431" font-family="Helvetica,sans-Serif" font-size="10.00">ScanRangeImpl.toRangeBetween</text>
</a>
</g>
</g>
<!-- Node2&#45;&gt;Node4 -->
<g id="edge3_Node000002_Node000004" class="edge">
<title>Node2&#45;&gt;Node4</title>
<g id="a_edge3_Node000002_Node000004"><a xlink:title=" ">
<path fill="none" stroke="#63b8ff" d="M223.02,-441.85C208.76,-441.54 194.17,-441.23 180.13,-440.92"/>
<polygon fill="#63b8ff" stroke="#63b8ff" points="223.25,-445.36 233.33,-442.07 223.41,-438.36 223.25,-445.36"/>
</a>
</g>
</g>
</g>
</svg>
