<?xml version="1.0" encoding="UTF-8" standalone="no"?>
<!DOCTYPE svg PUBLIC "-//W3C//DTD SVG 1.1//EN"
 "http://www.w3.org/Graphics/SVG/1.1/DTD/svg11.dtd">
<!-- Generated by graphviz version 2.43.0 (0)
 -->
<!-- Title: com.teragrep.pth_06.ast.transform.ExpressionTransformation.transformed Pages: 1 -->
<svg width="478pt" height="242pt"
 viewBox="0.00 0.00 478.00 242.00" xmlns="http://www.w3.org/2000/svg" xmlns:xlink="http://www.w3.org/1999/xlink">
<g id="graph0" class="graph" transform="scale(1 1) rotate(0) translate(4 238)">
<title>com.teragrep.pth_06.ast.transform.ExpressionTransformation.transformed</title>
<!-- Node1 -->
<g id="Node000001" class="node">
<title>Node1</title>
<g id="a_Node000001"><a xlink:title=" ">
<polygon fill="#999999" stroke="#666666" points="470,-138 264,-138 264,-108 470,-108 470,-138"/>
<text text-anchor="start" x="272" y="-126" font-family="Helvetica,sans-Serif" font-size="10.00">com.teragrep.pth_06.ast.transform.</text>
<text text-anchor="middle" x="367" y="-115" font-family="Helvetica,sans-Serif" font-size="10.00">ExpressionTransformation.transformed</text>
</a>
</g>
</g>
<!-- Node2 -->
<g id="Node000002" class="node">
<title>Node2</title>
<g id="a_Node000002"><a xlink:href="classcom_1_1teragrep_1_1pth__06_1_1ast_1_1transform_1_1EmptyPruned.html#a7c0676339d9a8fcf9391f9e7f2199fcd" target="_top" xlink:title=" ">
<polygon fill="white" stroke="#666666" points="209,-234 19,-234 19,-204 209,-204 209,-234"/>
<text text-anchor="start" x="27" y="-222" font-family="Helvetica,sans-Serif" font-size="10.00">com.teragrep.pth_06.ast.transform.</text>
<text text-anchor="middle" x="114" y="-211" font-family="Helvetica,sans-Serif" font-size="10.00">EmptyPruned.EmptyPruned</text>
</a>
</g>
</g>
<!-- Node1&#45;&gt;Node2 -->
<g id="edge1_Node000001_Node000002" class="edge">
<title>Node1&#45;&gt;Node2</title>
<g id="a_edge1_Node000001_Node000002"><a xlink:title=" ">
<path fill="none" stroke="#63b8ff" d="M333.27,-143.33C306.01,-159.45 265.7,-181.45 228,-195 218.56,-198.39 208.5,-201.37 198.42,-203.98"/>
<polygon fill="#63b8ff" stroke="#63b8ff" points="335.21,-146.25 341.99,-138.11 331.61,-140.24 335.21,-146.25"/>
</a>
</g>
</g>
<!-- Node3 -->
<g id="Node000003" class="node">
<title>Node3</title>
<g id="a_Node000003"><a xlink:href="classcom_1_1teragrep_1_1pth__06_1_1ast_1_1transform_1_1FlattenLogical.html#ac163f4f285f93705618427a9d1d8efd4" target="_top" xlink:title=" ">
<polygon fill="white" stroke="#666666" points="209,-186 19,-186 19,-156 209,-156 209,-186"/>
<text text-anchor="start" x="27" y="-174" font-family="Helvetica,sans-Serif" font-size="10.00">com.teragrep.pth_06.ast.transform.</text>
<text text-anchor="middle" x="114" y="-163" font-family="Helvetica,sans-Serif" font-size="10.00">FlattenLogical.FlattenLogical</text>
</a>
</g>
</g>
<!-- Node1&#45;&gt;Node3 -->
<g id="edge2_Node000001_Node000003" class="edge">
<title>Node1&#45;&gt;Node3</title>
<g id="a_edge2_Node000001_Node000003"><a xlink:title=" ">
<path fill="none" stroke="#63b8ff" d="M277.32,-139.96C249.97,-145.19 220.06,-150.91 193.45,-156"/>
<polygon fill="#63b8ff" stroke="#63b8ff" points="278.11,-143.37 287.27,-138.06 276.79,-136.5 278.11,-143.37"/>
</a>
</g>
</g>
<!-- Node4 -->
<g id="Node000004" class="node">
<title>Node4</title>
<g id="a_Node000004"><a xlink:href="classcom_1_1teragrep_1_1pth__06_1_1ast_1_1transform_1_1IdentitySimplification.html#ac77c0dd626a07384d307b42c4bed35d7" target="_top" xlink:title=" ">
<polygon fill="white" stroke="#666666" points="228,-138 0,-138 0,-108 228,-108 228,-138"/>
<text text-anchor="start" x="8" y="-126" font-family="Helvetica,sans-Serif" font-size="10.00">com.teragrep.pth_06.ast.transform.</text>
<text text-anchor="middle" x="114" y="-115" font-family="Helvetica,sans-Serif" font-size="10.00">IdentitySimplification.IdentitySimplification</text>
</a>
</g>
</g>
<!-- Node1&#45;&gt;Node4 -->
<g id="edge3_Node000001_Node000004" class="edge">
<title>Node1&#45;&gt;Node4</title>
<g id="a_edge3_Node000001_Node000004"><a xlink:title=" ">
<path fill="none" stroke="#63b8ff" d="M253.89,-123C245.31,-123 236.65,-123 228.06,-123"/>
<polygon fill="#63b8ff" stroke="#63b8ff" points="253.91,-126.5 263.91,-123 253.91,-119.5 253.91,-126.5"/>
</a>
</g>
</g>
<!-- Node5 -->
<g id="Node000005" class="node">
<title>Node5</title>
<g id="a_Node000005"><a xlink:href="classcom_1_1teragrep_1_1pth__06_1_1ast_1_1transform_1_1PrunedInvalidTimeQualifier.html#a34f2f8445287121215682cbe92bbebbd" target="_top" xlink:title=" ">
<polygon fill="white" stroke="#666666" points="223,-89.5 5,-89.5 5,-48.5 223,-48.5 223,-89.5"/>
<text text-anchor="start" x="13" y="-77.5" font-family="Helvetica,sans-Serif" font-size="10.00">com.teragrep.pth_06.ast.transform.</text>
<text text-anchor="start" x="13" y="-66.5" font-family="Helvetica,sans-Serif" font-size="10.00">PrunedInvalidTimeQualifier.PrunedInvalid</text>
<text text-anchor="middle" x="114" y="-55.5" font-family="Helvetica,sans-Serif" font-size="10.00">TimeQualifier</text>
</a>
</g>
</g>
<!-- Node1&#45;&gt;Node5 -->
<g id="edge4_Node000001_Node000005" class="edge">
<title>Node1&#45;&gt;Node5</title>
<g id="a_edge4_Node000001_Node000005"><a xlink:title=" ">
<path fill="none" stroke="#63b8ff" d="M286.27,-105.85C262.13,-100.65 235.38,-94.9 210.34,-89.51"/>
<polygon fill="#63b8ff" stroke="#63b8ff" points="285.57,-109.28 296.08,-107.96 287.04,-102.43 285.57,-109.28"/>
</a>
</g>
</g>
<!-- Node6 -->
<g id="Node000006" class="node">
<title>Node6</title>
<g id="a_Node000006"><a xlink:href="classcom_1_1teragrep_1_1pth__06_1_1ast_1_1transform_1_1UniqueChildren.html#a19f397cbd782ddfcce6831d3243b2225" target="_top" xlink:title=" ">
<polygon fill="white" stroke="#666666" points="209,-30 19,-30 19,0 209,0 209,-30"/>
<text text-anchor="start" x="27" y="-18" font-family="Helvetica,sans-Serif" font-size="10.00">com.teragrep.pth_06.ast.transform.</text>
<text text-anchor="middle" x="114" y="-7" font-family="Helvetica,sans-Serif" font-size="10.00">UniqueChildren.UniqueChildren</text>
</a>
</g>
</g>
<!-- Node1&#45;&gt;Node6 -->
<g id="edge5_Node000001_Node000006" class="edge">
<title>Node1&#45;&gt;Node6</title>
<g id="a_edge5_Node000001_Node000006"><a xlink:title=" ">
<path fill="none" stroke="#63b8ff" d="M337.41,-102.01C310.46,-83.17 268.3,-56.08 228,-40 218.39,-36.17 208.07,-32.86 197.72,-30.03"/>
<polygon fill="#63b8ff" stroke="#63b8ff" points="335.42,-104.89 345.6,-107.81 339.46,-99.18 335.42,-104.89"/>
</a>
</g>
</g>
</g>
</svg>
