<?xml version="1.0" encoding="UTF-8" standalone="no"?>
<!DOCTYPE svg PUBLIC "-//W3C//DTD SVG 1.1//EN"
 "http://www.w3.org/Graphics/SVG/1.1/DTD/svg11.dtd">
<!-- Generated by graphviz version 2.43.0 (0)
 -->
<!-- Title: com.teragrep.pth_06.ast.expressions.Expression Pages: 1 -->
<svg width="680pt" height="422pt"
 viewBox="0.00 0.00 680.00 422.00" xmlns="http://www.w3.org/2000/svg" xmlns:xlink="http://www.w3.org/1999/xlink">
<g id="graph0" class="graph" transform="scale(1 1) rotate(0) translate(4 418)">
<title>com.teragrep.pth_06.ast.expressions.Expression</title>
<!-- Node1 -->
<g id="Node000001" class="node">
<title>Node1</title>
<g id="a_Node000001"><a xlink:title=" ">
<polygon fill="#999999" stroke="#666666" points="200,-342 0,-342 0,-312 200,-312 200,-342"/>
<text text-anchor="start" x="8" y="-330" font-family="Helvetica,sans-Serif" font-size="10.00">com.teragrep.pth_06.ast.expressions.</text>
<text text-anchor="middle" x="100" y="-319" font-family="Helvetica,sans-Serif" font-size="10.00">Expression</text>
</a>
</g>
</g>
<!-- Node2 -->
<g id="Node000002" class="node">
<title>Node2</title>
<g id="a_Node000002"><a xlink:href="classcom_1_1teragrep_1_1pth__06_1_1ast_1_1expressions_1_1EmptyExpression.html" target="_top" xlink:title=" ">
<polygon fill="white" stroke="#666666" points="436,-414 236,-414 236,-384 436,-384 436,-414"/>
<text text-anchor="start" x="244" y="-402" font-family="Helvetica,sans-Serif" font-size="10.00">com.teragrep.pth_06.ast.expressions.</text>
<text text-anchor="middle" x="336" y="-391" font-family="Helvetica,sans-Serif" font-size="10.00">EmptyExpression</text>
</a>
</g>
</g>
<!-- Node1&#45;&gt;Node2 -->
<g id="edge1_Node000001_Node000002" class="edge">
<title>Node1&#45;&gt;Node2</title>
<g id="a_edge1_Node000001_Node000002"><a xlink:title=" ">
<path fill="none" stroke="#63b8ff" d="M149.39,-345.58C174.93,-355.04 206.94,-366.34 236,-375 246.51,-378.13 257.73,-381.16 268.71,-383.94"/>
<polygon fill="#63b8ff" stroke="#63b8ff" points="150.52,-342.27 139.93,-342.05 148.08,-348.83 150.52,-342.27"/>
</a>
</g>
</g>
<!-- Node3 -->
<g id="Node000003" class="node">
<title>Node3</title>
<g id="a_Node000003"><a xlink:href="interfacecom_1_1teragrep_1_1pth__06_1_1ast_1_1expressions_1_1LogicalExpression.html" target="_top" xlink:title=" ">
<polygon fill="white" stroke="#666666" points="436,-366 236,-366 236,-336 436,-336 436,-366"/>
<text text-anchor="start" x="244" y="-354" font-family="Helvetica,sans-Serif" font-size="10.00">com.teragrep.pth_06.ast.expressions.</text>
<text text-anchor="middle" x="336" y="-343" font-family="Helvetica,sans-Serif" font-size="10.00">LogicalExpression</text>
</a>
</g>
</g>
<!-- Node1&#45;&gt;Node3 -->
<g id="edge2_Node000001_Node000003" class="edge">
<title>Node1&#45;&gt;Node3</title>
<g id="a_edge2_Node000001_Node000003"><a xlink:title=" ">
<path fill="none" stroke="#63b8ff" d="M210.27,-338.21C218.85,-339.09 227.48,-339.97 235.98,-340.84"/>
<polygon fill="#63b8ff" stroke="#63b8ff" points="210.54,-334.72 200.24,-337.18 209.83,-341.68 210.54,-334.72"/>
</a>
</g>
</g>
<!-- Node6 -->
<g id="Node000006" class="node">
<title>Node6</title>
<g id="a_Node000006"><a xlink:href="interfacecom_1_1teragrep_1_1pth__06_1_1ast_1_1expressions_1_1ScanGroupExpression.html" target="_top" xlink:title=" ">
<polygon fill="white" stroke="#666666" points="436,-318 236,-318 236,-288 436,-288 436,-318"/>
<text text-anchor="start" x="244" y="-306" font-family="Helvetica,sans-Serif" font-size="10.00">com.teragrep.pth_06.ast.expressions.</text>
<text text-anchor="middle" x="336" y="-295" font-family="Helvetica,sans-Serif" font-size="10.00">ScanGroupExpression</text>
</a>
</g>
</g>
<!-- Node1&#45;&gt;Node6 -->
<g id="edge5_Node000001_Node000006" class="edge">
<title>Node1&#45;&gt;Node6</title>
<g id="a_edge5_Node000001_Node000006"><a xlink:title=" ">
<path fill="none" stroke="#63b8ff" d="M210.27,-315.79C218.85,-314.91 227.48,-314.03 235.98,-313.16"/>
<polygon fill="#63b8ff" stroke="#63b8ff" points="209.83,-312.32 200.24,-316.82 210.54,-319.28 209.83,-312.32"/>
</a>
</g>
</g>
<!-- Node8 -->
<g id="Node000008" class="node">
<title>Node8</title>
<g id="a_Node000008"><a xlink:href="interfacecom_1_1teragrep_1_1pth__06_1_1ast_1_1expressions_1_1ValueExpression.html" target="_top" xlink:title=" ">
<polygon fill="white" stroke="#666666" points="436,-174 236,-174 236,-144 436,-144 436,-174"/>
<text text-anchor="start" x="244" y="-162" font-family="Helvetica,sans-Serif" font-size="10.00">com.teragrep.pth_06.ast.expressions.</text>
<text text-anchor="middle" x="336" y="-151" font-family="Helvetica,sans-Serif" font-size="10.00">ValueExpression</text>
</a>
</g>
</g>
<!-- Node1&#45;&gt;Node8 -->
<g id="edge7_Node000001_Node000008" class="edge">
<title>Node1&#45;&gt;Node8</title>
<g id="a_edge7_Node000001_Node000008"><a xlink:title=" ">
<path fill="none" stroke="#63b8ff" d="M130.59,-305.76C178.59,-271.29 272.28,-204.03 314.04,-174.05"/>
<polygon fill="#63b8ff" stroke="#63b8ff" points="128.26,-303.12 122.18,-311.79 132.34,-308.81 128.26,-303.12"/>
</a>
</g>
</g>
<!-- Node4 -->
<g id="Node000004" class="node">
<title>Node4</title>
<g id="a_Node000004"><a xlink:href="classcom_1_1teragrep_1_1pth__06_1_1ast_1_1expressions_1_1AndExpression.html" target="_top" xlink:title=" ">
<polygon fill="white" stroke="#666666" points="672,-414 472,-414 472,-384 672,-384 672,-414"/>
<text text-anchor="start" x="480" y="-402" font-family="Helvetica,sans-Serif" font-size="10.00">com.teragrep.pth_06.ast.expressions.</text>
<text text-anchor="middle" x="572" y="-391" font-family="Helvetica,sans-Serif" font-size="10.00">AndExpression</text>
</a>
</g>
</g>
<!-- Node3&#45;&gt;Node4 -->
<g id="edge3_Node000003_Node000004" class="edge">
<title>Node3&#45;&gt;Node4</title>
<g id="a_edge3_Node000003_Node000004"><a xlink:title=" ">
<path fill="none" stroke="#63b8ff" d="M420.34,-368.1C445.66,-373.29 473.27,-378.95 497.86,-384"/>
<polygon fill="#63b8ff" stroke="#63b8ff" points="420.9,-364.64 410.4,-366.06 419.49,-371.49 420.9,-364.64"/>
</a>
</g>
</g>
<!-- Node5 -->
<g id="Node000005" class="node">
<title>Node5</title>
<g id="a_Node000005"><a xlink:href="classcom_1_1teragrep_1_1pth__06_1_1ast_1_1expressions_1_1OrExpression.html" target="_top" xlink:title=" ">
<polygon fill="white" stroke="#666666" points="672,-366 472,-366 472,-336 672,-336 672,-366"/>
<text text-anchor="start" x="480" y="-354" font-family="Helvetica,sans-Serif" font-size="10.00">com.teragrep.pth_06.ast.expressions.</text>
<text text-anchor="middle" x="572" y="-343" font-family="Helvetica,sans-Serif" font-size="10.00">OrExpression</text>
</a>
</g>
</g>
<!-- Node3&#45;&gt;Node5 -->
<g id="edge4_Node000003_Node000005" class="edge">
<title>Node3&#45;&gt;Node5</title>
<g id="a_edge4_Node000003_Node000005"><a xlink:title=" ">
<path fill="none" stroke="#63b8ff" d="M446.27,-351C454.85,-351 463.48,-351 471.98,-351"/>
<polygon fill="#63b8ff" stroke="#63b8ff" points="446.24,-347.5 436.24,-351 446.24,-354.5 446.24,-347.5"/>
</a>
</g>
</g>
<!-- Node7 -->
<g id="Node000007" class="node">
<title>Node7</title>
<g id="a_Node000007"><a xlink:href="classcom_1_1teragrep_1_1pth__06_1_1ast_1_1expressions_1_1ScanGroupExpressionImpl.html" target="_top" xlink:title=" ">
<polygon fill="white" stroke="#666666" points="672,-318 472,-318 472,-288 672,-288 672,-318"/>
<text text-anchor="start" x="480" y="-306" font-family="Helvetica,sans-Serif" font-size="10.00">com.teragrep.pth_06.ast.expressions.</text>
<text text-anchor="middle" x="572" y="-295" font-family="Helvetica,sans-Serif" font-size="10.00">ScanGroupExpressionImpl</text>
</a>
</g>
</g>
<!-- Node6&#45;&gt;Node7 -->
<g id="edge6_Node000006_Node000007" class="edge">
<title>Node6&#45;&gt;Node7</title>
<g id="a_edge6_Node000006_Node000007"><a xlink:title=" ">
<path fill="none" stroke="#63b8ff" d="M446.27,-303C454.85,-303 463.48,-303 471.98,-303"/>
<polygon fill="#63b8ff" stroke="#63b8ff" points="446.24,-299.5 436.24,-303 446.24,-306.5 446.24,-299.5"/>
</a>
</g>
</g>
<!-- Node9 -->
<g id="Node000009" class="node">
<title>Node9</title>
<g id="a_Node000009"><a xlink:href="classcom_1_1teragrep_1_1pth__06_1_1ast_1_1expressions_1_1EarliestExpression.html" target="_top" xlink:title=" ">
<polygon fill="white" stroke="#666666" points="672,-270 472,-270 472,-240 672,-240 672,-270"/>
<text text-anchor="start" x="480" y="-258" font-family="Helvetica,sans-Serif" font-size="10.00">com.teragrep.pth_06.ast.expressions.</text>
<text text-anchor="middle" x="572" y="-247" font-family="Helvetica,sans-Serif" font-size="10.00">EarliestExpression</text>
</a>
</g>
</g>
<!-- Node8&#45;&gt;Node9 -->
<g id="edge8_Node000008_Node000009" class="edge">
<title>Node8&#45;&gt;Node9</title>
<g id="a_edge8_Node000008_Node000009"><a xlink:title=" ">
<path fill="none" stroke="#63b8ff" d="M369.9,-179.58C396.57,-195.51 435.58,-217.13 472,-231 480.76,-234.34 490.14,-237.32 499.5,-239.95"/>
<polygon fill="#63b8ff" stroke="#63b8ff" points="371.37,-176.38 361,-174.21 367.75,-182.37 371.37,-176.38"/>
</a>
</g>
</g>
<!-- Node10 -->
<g id="Node000010" class="node">
<title>Node10</title>
<g id="a_Node000010"><a xlink:href="classcom_1_1teragrep_1_1pth__06_1_1ast_1_1expressions_1_1HostExpression.html" target="_top" xlink:title=" ">
<polygon fill="white" stroke="#666666" points="672,-222 472,-222 472,-192 672,-192 672,-222"/>
<text text-anchor="start" x="480" y="-210" font-family="Helvetica,sans-Serif" font-size="10.00">com.teragrep.pth_06.ast.expressions.</text>
<text text-anchor="middle" x="572" y="-199" font-family="Helvetica,sans-Serif" font-size="10.00">HostExpression</text>
</a>
</g>
</g>
<!-- Node8&#45;&gt;Node10 -->
<g id="edge9_Node000008_Node000010" class="edge">
<title>Node8&#45;&gt;Node10</title>
<g id="a_edge9_Node000008_Node000010"><a xlink:title=" ">
<path fill="none" stroke="#63b8ff" d="M420.34,-176.1C445.66,-181.29 473.27,-186.95 497.86,-192"/>
<polygon fill="#63b8ff" stroke="#63b8ff" points="420.9,-172.64 410.4,-174.06 419.49,-179.49 420.9,-172.64"/>
</a>
</g>
</g>
<!-- Node11 -->
<g id="Node000011" class="node">
<title>Node11</title>
<g id="a_Node000011"><a xlink:href="classcom_1_1teragrep_1_1pth__06_1_1ast_1_1expressions_1_1IndexExpression.html" target="_top" xlink:title=" ">
<polygon fill="white" stroke="#666666" points="672,-174 472,-174 472,-144 672,-144 672,-174"/>
<text text-anchor="start" x="480" y="-162" font-family="Helvetica,sans-Serif" font-size="10.00">com.teragrep.pth_06.ast.expressions.</text>
<text text-anchor="middle" x="572" y="-151" font-family="Helvetica,sans-Serif" font-size="10.00">IndexExpression</text>
</a>
</g>
</g>
<!-- Node8&#45;&gt;Node11 -->
<g id="edge10_Node000008_Node000011" class="edge">
<title>Node8&#45;&gt;Node11</title>
<g id="a_edge10_Node000008_Node000011"><a xlink:title=" ">
<path fill="none" stroke="#63b8ff" d="M446.27,-159C454.85,-159 463.48,-159 471.98,-159"/>
<polygon fill="#63b8ff" stroke="#63b8ff" points="446.24,-155.5 436.24,-159 446.24,-162.5 446.24,-155.5"/>
</a>
</g>
</g>
<!-- Node12 -->
<g id="Node000012" class="node">
<title>Node12</title>
<g id="a_Node000012"><a xlink:href="classcom_1_1teragrep_1_1pth__06_1_1ast_1_1expressions_1_1IndexStatementExpression.html" target="_top" xlink:title=" ">
<polygon fill="white" stroke="#666666" points="672,-126 472,-126 472,-96 672,-96 672,-126"/>
<text text-anchor="start" x="480" y="-114" font-family="Helvetica,sans-Serif" font-size="10.00">com.teragrep.pth_06.ast.expressions.</text>
<text text-anchor="middle" x="572" y="-103" font-family="Helvetica,sans-Serif" font-size="10.00">IndexStatementExpression</text>
</a>
</g>
</g>
<!-- Node8&#45;&gt;Node12 -->
<g id="edge11_Node000008_Node000012" class="edge">
<title>Node8&#45;&gt;Node12</title>
<g id="a_edge11_Node000008_Node000012"><a xlink:title=" ">
<path fill="none" stroke="#63b8ff" d="M420.34,-141.9C445.66,-136.71 473.27,-131.05 497.86,-126"/>
<polygon fill="#63b8ff" stroke="#63b8ff" points="419.49,-138.51 410.4,-143.94 420.9,-145.36 419.49,-138.51"/>
</a>
</g>
</g>
<!-- Node13 -->
<g id="Node000013" class="node">
<title>Node13</title>
<g id="a_Node000013"><a xlink:href="classcom_1_1teragrep_1_1pth__06_1_1ast_1_1expressions_1_1LatestExpression.html" target="_top" xlink:title=" ">
<polygon fill="white" stroke="#666666" points="672,-78 472,-78 472,-48 672,-48 672,-78"/>
<text text-anchor="start" x="480" y="-66" font-family="Helvetica,sans-Serif" font-size="10.00">com.teragrep.pth_06.ast.expressions.</text>
<text text-anchor="middle" x="572" y="-55" font-family="Helvetica,sans-Serif" font-size="10.00">LatestExpression</text>
</a>
</g>
</g>
<!-- Node8&#45;&gt;Node13 -->
<g id="edge12_Node000008_Node000013" class="edge">
<title>Node8&#45;&gt;Node13</title>
<g id="a_edge12_Node000008_Node000013"><a xlink:title=" ">
<path fill="none" stroke="#63b8ff" d="M369.9,-138.42C396.57,-122.49 435.58,-100.87 472,-87 480.76,-83.66 490.14,-80.68 499.5,-78.05"/>
<polygon fill="#63b8ff" stroke="#63b8ff" points="367.75,-135.63 361,-143.79 371.37,-141.62 367.75,-135.63"/>
</a>
</g>
</g>
<!-- Node14 -->
<g id="Node000014" class="node">
<title>Node14</title>
<g id="a_Node000014"><a xlink:href="classcom_1_1teragrep_1_1pth__06_1_1ast_1_1expressions_1_1SourceTypeExpression.html" target="_top" xlink:title=" ">
<polygon fill="white" stroke="#666666" points="672,-30 472,-30 472,0 672,0 672,-30"/>
<text text-anchor="start" x="480" y="-18" font-family="Helvetica,sans-Serif" font-size="10.00">com.teragrep.pth_06.ast.expressions.</text>
<text text-anchor="middle" x="572" y="-7" font-family="Helvetica,sans-Serif" font-size="10.00">SourceTypeExpression</text>
</a>
</g>
</g>
<!-- Node8&#45;&gt;Node14 -->
<g id="edge13_Node000008_Node000014" class="edge">
<title>Node8&#45;&gt;Node14</title>
<g id="a_edge13_Node000008_Node000014"><a xlink:title=" ">
<path fill="none" stroke="#63b8ff" d="M356.32,-136.02C380.54,-108.73 424.67,-63.78 472,-39 478.58,-35.56 485.67,-32.59 492.92,-30.05"/>
<polygon fill="#63b8ff" stroke="#63b8ff" points="353.4,-134.05 349.46,-143.88 358.67,-138.65 353.4,-134.05"/>
</a>
</g>
</g>
</g>
</svg>
