<?xml version="1.0" encoding="UTF-8" standalone="no"?>
<!DOCTYPE svg PUBLIC "-//W3C//DTD SVG 1.1//EN"
 "http://www.w3.org/Graphics/SVG/1.1/DTD/svg11.dtd">
<!-- Generated by graphviz version 2.43.0 (0)
 -->
<!-- Title: com.teragrep.pth_06.Stubable Pages: 1 -->
<svg width="629pt" height="854pt"
 viewBox="0.00 0.00 629.00 854.00" xmlns="http://www.w3.org/2000/svg" xmlns:xlink="http://www.w3.org/1999/xlink">
<g id="graph0" class="graph" transform="scale(1 1) rotate(0) translate(4 850)">
<title>com.teragrep.pth_06.Stubable</title>
<!-- Node1 -->
<g id="Node000001" class="node">
<title>Node1</title>
<g id="a_Node000001"><a xlink:title=" ">
<polygon fill="#999999" stroke="#666666" points="164,-384.5 0,-384.5 0,-365.5 164,-365.5 164,-384.5"/>
<text text-anchor="middle" x="82" y="-372.5" font-family="Helvetica,sans-Serif" font-size="10.00">com.teragrep.pth_06.Stubable</text>
</a>
</g>
</g>
<!-- Node2 -->
<g id="Node000002" class="node">
<title>Node2</title>
<g id="a_Node000002"><a xlink:href="interfacecom_1_1teragrep_1_1pth__06_1_1ast_1_1analyze_1_1ScanPlan.html" target="_top" xlink:title="Logical plan for a row key range scan of HBase.">
<polygon fill="white" stroke="#666666" points="384,-798 204,-798 204,-768 384,-768 384,-798"/>
<text text-anchor="start" x="212" y="-786" font-family="Helvetica,sans-Serif" font-size="10.00">com.teragrep.pth_06.ast.analyze.</text>
<text text-anchor="middle" x="294" y="-775" font-family="Helvetica,sans-Serif" font-size="10.00">ScanPlan</text>
</a>
</g>
</g>
<!-- Node1&#45;&gt;Node2 -->
<g id="edge1_Node000001_Node000002" class="edge">
<title>Node1&#45;&gt;Node2</title>
<g id="a_edge1_Node000001_Node000002"><a xlink:title=" ">
<path fill="none" stroke="#63b8ff" d="M85.86,-394.86C94.57,-449.79 124.91,-606.6 200,-711 217.41,-735.2 245.21,-755.22 265.89,-767.95"/>
<polygon fill="#63b8ff" stroke="#63b8ff" points="89.29,-394.1 84.32,-384.74 82.37,-395.15 89.29,-394.1"/>
</a>
</g>
</g>
<!-- Node5 -->
<g id="Node000005" class="node">
<title>Node5</title>
<g id="a_Node000005"><a xlink:href="interfacecom_1_1teragrep_1_1pth__06_1_1metrics_1_1MetricValue.html" target="_top" xlink:title=" ">
<polygon fill="white" stroke="#666666" points="374.5,-702 213.5,-702 213.5,-672 374.5,-672 374.5,-702"/>
<text text-anchor="start" x="221.5" y="-690" font-family="Helvetica,sans-Serif" font-size="10.00">com.teragrep.pth_06.metrics.</text>
<text text-anchor="middle" x="294" y="-679" font-family="Helvetica,sans-Serif" font-size="10.00">MetricValue&lt; T &gt;</text>
</a>
</g>
</g>
<!-- Node1&#45;&gt;Node5 -->
<g id="edge4_Node000001_Node000005" class="edge">
<title>Node1&#45;&gt;Node5</title>
<g id="a_edge4_Node000001_Node000005"><a xlink:title=" ">
<path fill="none" stroke="#63b8ff" d="M93.58,-393.9C113.33,-428.84 157.67,-505.56 200,-567 226.92,-606.07 261.96,-649.52 280.39,-671.88"/>
<polygon fill="#63b8ff" stroke="#63b8ff" points="96.43,-391.83 88.47,-384.83 90.33,-395.26 96.43,-391.83"/>
</a>
</g>
</g>
<!-- Node8 -->
<g id="Node000008" class="node">
<title>Node8</title>
<g id="a_Node000008"><a xlink:href="interfacecom_1_1teragrep_1_1pth__06_1_1planner_1_1ArchiveQuery.html" target="_top" xlink:title=" ">
<polygon fill="white" stroke="#666666" points="374,-558 214,-558 214,-528 374,-528 374,-558"/>
<text text-anchor="start" x="222" y="-546" font-family="Helvetica,sans-Serif" font-size="10.00">com.teragrep.pth_06.planner.</text>
<text text-anchor="middle" x="294" y="-535" font-family="Helvetica,sans-Serif" font-size="10.00">ArchiveQuery</text>
</a>
</g>
</g>
<!-- Node1&#45;&gt;Node8 -->
<g id="edge7_Node000001_Node000008" class="edge">
<title>Node1&#45;&gt;Node8</title>
<g id="a_edge7_Node000001_Node000008"><a xlink:title=" ">
<path fill="none" stroke="#63b8ff" d="M102.93,-390.94C143.33,-423.26 234.41,-496.12 274.01,-527.81"/>
<polygon fill="#63b8ff" stroke="#63b8ff" points="104.89,-388.03 94.89,-384.51 100.51,-393.49 104.89,-388.03"/>
</a>
</g>
</g>
<!-- Node13 -->
<g id="Node000013" class="node">
<title>Node13</title>
<g id="a_Node000013"><a xlink:href="interfacecom_1_1teragrep_1_1pth__06_1_1planner_1_1HBaseQuery.html" target="_top" xlink:title=" ">
<polygon fill="white" stroke="#666666" points="374,-414 214,-414 214,-384 374,-384 374,-414"/>
<text text-anchor="start" x="222" y="-402" font-family="Helvetica,sans-Serif" font-size="10.00">com.teragrep.pth_06.planner.</text>
<text text-anchor="middle" x="294" y="-391" font-family="Helvetica,sans-Serif" font-size="10.00">HBaseQuery</text>
</a>
</g>
</g>
<!-- Node1&#45;&gt;Node13 -->
<g id="edge12_Node000001_Node000013" class="edge">
<title>Node1&#45;&gt;Node13</title>
<g id="a_edge12_Node000001_Node000013"><a xlink:title=" ">
<path fill="none" stroke="#63b8ff" d="M174.19,-385.42C187.37,-386.93 200.84,-388.47 213.75,-389.94"/>
<polygon fill="#63b8ff" stroke="#63b8ff" points="174.52,-381.94 164.19,-384.28 173.73,-388.89 174.52,-381.94"/>
</a>
</g>
</g>
<!-- Node16 -->
<g id="Node000016" class="node">
<title>Node16</title>
<g id="a_Node000016"><a xlink:href="interfacecom_1_1teragrep_1_1pth__06_1_1planner_1_1HourlySlices.html" target="_top" xlink:title=" ">
<polygon fill="white" stroke="#666666" points="374,-366 214,-366 214,-336 374,-336 374,-366"/>
<text text-anchor="start" x="222" y="-354" font-family="Helvetica,sans-Serif" font-size="10.00">com.teragrep.pth_06.planner.</text>
<text text-anchor="middle" x="294" y="-343" font-family="Helvetica,sans-Serif" font-size="10.00">HourlySlices</text>
</a>
</g>
</g>
<!-- Node1&#45;&gt;Node16 -->
<g id="edge15_Node000001_Node000016" class="edge">
<title>Node1&#45;&gt;Node16</title>
<g id="a_edge15_Node000001_Node000016"><a xlink:title=" ">
<path fill="none" stroke="#63b8ff" d="M174.19,-364.58C187.37,-363.07 200.84,-361.53 213.75,-360.06"/>
<polygon fill="#63b8ff" stroke="#63b8ff" points="173.73,-361.11 164.19,-365.72 174.52,-368.06 173.73,-361.11"/>
</a>
</g>
</g>
<!-- Node19 -->
<g id="Node000019" class="node">
<title>Node19</title>
<g id="a_Node000019"><a xlink:href="interfacecom_1_1teragrep_1_1pth__06_1_1planner_1_1KafkaQuery.html" target="_top" xlink:title=" ">
<polygon fill="white" stroke="#666666" points="374,-270 214,-270 214,-240 374,-240 374,-270"/>
<text text-anchor="start" x="222" y="-258" font-family="Helvetica,sans-Serif" font-size="10.00">com.teragrep.pth_06.planner.</text>
<text text-anchor="middle" x="294" y="-247" font-family="Helvetica,sans-Serif" font-size="10.00">KafkaQuery</text>
</a>
</g>
</g>
<!-- Node1&#45;&gt;Node19 -->
<g id="edge18_Node000001_Node000019" class="edge">
<title>Node1&#45;&gt;Node19</title>
<g id="a_edge18_Node000001_Node000019"><a xlink:title=" ">
<path fill="none" stroke="#63b8ff" d="M108.75,-360.29C148.96,-337.31 226.23,-293.15 266.75,-270"/>
<polygon fill="#63b8ff" stroke="#63b8ff" points="106.78,-357.38 99.83,-365.38 110.25,-363.46 106.78,-357.38"/>
</a>
</g>
</g>
<!-- Node22 -->
<g id="Node000022" class="node">
<title>Node22</title>
<g id="a_Node000022"><a xlink:href="interfacecom_1_1teragrep_1_1pth__06_1_1planner_1_1LimitedResults.html" target="_top" xlink:title=" ">
<polygon fill="white" stroke="#666666" points="374,-174 214,-174 214,-144 374,-144 374,-174"/>
<text text-anchor="start" x="222" y="-162" font-family="Helvetica,sans-Serif" font-size="10.00">com.teragrep.pth_06.planner.</text>
<text text-anchor="middle" x="294" y="-151" font-family="Helvetica,sans-Serif" font-size="10.00">LimitedResults</text>
</a>
</g>
</g>
<!-- Node1&#45;&gt;Node22 -->
<g id="edge21_Node000001_Node000022" class="edge">
<title>Node1&#45;&gt;Node22</title>
<g id="a_edge21_Node000001_Node000022"><a xlink:title=" ">
<path fill="none" stroke="#63b8ff" d="M95.47,-357.1C115.67,-328.73 157.58,-272.43 200,-231 222.2,-209.31 250.83,-188 270.42,-174.26"/>
<polygon fill="#63b8ff" stroke="#63b8ff" points="92.61,-355.08 89.7,-365.27 98.33,-359.12 92.61,-355.08"/>
</a>
</g>
</g>
<!-- Node25 -->
<g id="Node000025" class="node">
<title>Node25</title>
<g id="a_Node000025"><a xlink:href="interfacecom_1_1teragrep_1_1pth__06_1_1planner_1_1state_1_1QueryState.html" target="_top" xlink:title=" ">
<polygon fill="white" stroke="#666666" points="388,-78 200,-78 200,-48 388,-48 388,-78"/>
<text text-anchor="start" x="208" y="-66" font-family="Helvetica,sans-Serif" font-size="10.00">com.teragrep.pth_06.planner.state.</text>
<text text-anchor="middle" x="294" y="-55" font-family="Helvetica,sans-Serif" font-size="10.00">QueryState</text>
</a>
</g>
</g>
<!-- Node1&#45;&gt;Node25 -->
<g id="edge24_Node000001_Node000025" class="edge">
<title>Node1&#45;&gt;Node25</title>
<g id="a_edge24_Node000001_Node000025"><a xlink:title=" ">
<path fill="none" stroke="#63b8ff" d="M89.03,-355.65C103.14,-312.55 141.61,-206.79 200,-135 219.07,-111.55 247.17,-91.15 267.49,-78.11"/>
<polygon fill="#63b8ff" stroke="#63b8ff" points="85.62,-354.83 85.9,-365.42 92.28,-356.96 85.62,-354.83"/>
</a>
</g>
</g>
<!-- Node3 -->
<g id="Node000003" class="node">
<title>Node3</title>
<g id="a_Node000003"><a xlink:href="classcom_1_1teragrep_1_1pth__06_1_1ast_1_1analyze_1_1ScanPlanImpl.html" target="_top" xlink:title=" ">
<polygon fill="white" stroke="#666666" points="612.5,-846 432.5,-846 432.5,-816 612.5,-816 612.5,-846"/>
<text text-anchor="start" x="440.5" y="-834" font-family="Helvetica,sans-Serif" font-size="10.00">com.teragrep.pth_06.ast.analyze.</text>
<text text-anchor="middle" x="522.5" y="-823" font-family="Helvetica,sans-Serif" font-size="10.00">ScanPlanImpl</text>
</a>
</g>
</g>
<!-- Node2&#45;&gt;Node3 -->
<g id="edge2_Node000002_Node000003" class="edge">
<title>Node2&#45;&gt;Node3</title>
<g id="a_edge2_Node000002_Node000003"><a xlink:title=" ">
<path fill="none" stroke="#63b8ff" d="M376,-800.17C400.41,-805.34 427.01,-810.98 450.71,-816"/>
<polygon fill="#63b8ff" stroke="#63b8ff" points="376.55,-796.71 366.04,-798.06 375.1,-803.55 376.55,-796.71"/>
</a>
</g>
</g>
<!-- Node4 -->
<g id="Node000004" class="node">
<title>Node4</title>
<g id="a_Node000004"><a xlink:href="classcom_1_1teragrep_1_1pth__06_1_1ast_1_1analyze_1_1StubScanPlan.html" target="_top" xlink:title=" ">
<polygon fill="white" stroke="#666666" points="612.5,-798 432.5,-798 432.5,-768 612.5,-768 612.5,-798"/>
<text text-anchor="start" x="440.5" y="-786" font-family="Helvetica,sans-Serif" font-size="10.00">com.teragrep.pth_06.ast.analyze.</text>
<text text-anchor="middle" x="522.5" y="-775" font-family="Helvetica,sans-Serif" font-size="10.00">StubScanPlan</text>
</a>
</g>
</g>
<!-- Node2&#45;&gt;Node4 -->
<g id="edge3_Node000002_Node000004" class="edge">
<title>Node2&#45;&gt;Node4</title>
<g id="a_edge3_Node000002_Node000004"><a xlink:title=" ">
<path fill="none" stroke="#63b8ff" d="M394.3,-783C406.97,-783 419.89,-783 432.39,-783"/>
<polygon fill="#63b8ff" stroke="#63b8ff" points="394.19,-779.5 384.19,-783 394.19,-786.5 394.19,-779.5"/>
</a>
</g>
</g>
<!-- Node6 -->
<g id="Node000006" class="node">
<title>Node6</title>
<g id="a_Node000006"><a xlink:href="classcom_1_1teragrep_1_1pth__06_1_1metrics_1_1MetricValueImpl.html" target="_top" xlink:title=" ">
<polygon fill="white" stroke="#666666" points="603,-750 442,-750 442,-720 603,-720 603,-750"/>
<text text-anchor="start" x="450" y="-738" font-family="Helvetica,sans-Serif" font-size="10.00">com.teragrep.pth_06.metrics.</text>
<text text-anchor="middle" x="522.5" y="-727" font-family="Helvetica,sans-Serif" font-size="10.00">MetricValueImpl&lt; T &gt;</text>
</a>
</g>
</g>
<!-- Node5&#45;&gt;Node6 -->
<g id="edge5_Node000005_Node000006" class="edge">
<title>Node5&#45;&gt;Node6</title>
<g id="a_edge5_Node000005_Node000006"><a xlink:title=" ">
<path fill="none" stroke="#63b8ff" d="M376,-704.17C400.41,-709.34 427.01,-714.98 450.71,-720"/>
<polygon fill="#63b8ff" stroke="#63b8ff" points="376.55,-700.71 366.04,-702.06 375.1,-707.55 376.55,-700.71"/>
</a>
</g>
</g>
<!-- Node7 -->
<g id="Node000007" class="node">
<title>Node7</title>
<g id="a_Node000007"><a xlink:href="classcom_1_1teragrep_1_1pth__06_1_1metrics_1_1MetricValueStub.html" target="_top" xlink:title=" ">
<polygon fill="white" stroke="#666666" points="603,-702 442,-702 442,-672 603,-672 603,-702"/>
<text text-anchor="start" x="450" y="-690" font-family="Helvetica,sans-Serif" font-size="10.00">com.teragrep.pth_06.metrics.</text>
<text text-anchor="middle" x="522.5" y="-679" font-family="Helvetica,sans-Serif" font-size="10.00">MetricValueStub&lt; T &gt;</text>
</a>
</g>
</g>
<!-- Node5&#45;&gt;Node7 -->
<g id="edge6_Node000005_Node000007" class="edge">
<title>Node5&#45;&gt;Node7</title>
<g id="a_edge6_Node000005_Node000007"><a xlink:title=" ">
<path fill="none" stroke="#63b8ff" d="M384.61,-687C403.49,-687 423.29,-687 441.77,-687"/>
<polygon fill="#63b8ff" stroke="#63b8ff" points="384.54,-683.5 374.54,-687 384.54,-690.5 384.54,-683.5"/>
</a>
</g>
</g>
<!-- Node9 -->
<g id="Node000009" class="node">
<title>Node9</title>
<g id="a_Node000009"><a xlink:href="classcom_1_1teragrep_1_1pth__06_1_1planner_1_1ArchiveQueryProcessor.html" target="_top" xlink:title=" ">
<polygon fill="white" stroke="#666666" points="602.5,-654 442.5,-654 442.5,-624 602.5,-624 602.5,-654"/>
<text text-anchor="start" x="450.5" y="-642" font-family="Helvetica,sans-Serif" font-size="10.00">com.teragrep.pth_06.planner.</text>
<text text-anchor="middle" x="522.5" y="-631" font-family="Helvetica,sans-Serif" font-size="10.00">ArchiveQueryProcessor</text>
</a>
</g>
</g>
<!-- Node8&#45;&gt;Node9 -->
<g id="edge8_Node000008_Node000009" class="edge">
<title>Node8&#45;&gt;Node9</title>
<g id="a_edge8_Node000008_Node000009"><a xlink:title=" ">
<path fill="none" stroke="#63b8ff" d="M326.32,-563.63C351.74,-579.58 388.99,-601.21 424,-615 432.52,-618.35 441.64,-621.34 450.76,-623.97"/>
<polygon fill="#63b8ff" stroke="#63b8ff" points="328.16,-560.65 317.84,-558.24 324.41,-566.56 328.16,-560.65"/>
</a>
</g>
</g>
<!-- Node10 -->
<g id="Node000010" class="node">
<title>Node10</title>
<g id="a_Node000010"><a xlink:href="classcom_1_1teragrep_1_1pth__06_1_1planner_1_1MockArchiveQueryProcessor.html" target="_top" xlink:title=" ">
<polygon fill="white" stroke="#666666" points="602.5,-606 442.5,-606 442.5,-576 602.5,-576 602.5,-606"/>
<text text-anchor="start" x="450.5" y="-594" font-family="Helvetica,sans-Serif" font-size="10.00">com.teragrep.pth_06.planner.</text>
<text text-anchor="middle" x="522.5" y="-583" font-family="Helvetica,sans-Serif" font-size="10.00">MockArchiveQueryProcessor</text>
</a>
</g>
</g>
<!-- Node8&#45;&gt;Node10 -->
<g id="edge9_Node000008_Node000010" class="edge">
<title>Node8&#45;&gt;Node10</title>
<g id="a_edge9_Node000008_Node000010"><a xlink:title=" ">
<path fill="none" stroke="#63b8ff" d="M376,-560.17C400.41,-565.34 427.01,-570.98 450.71,-576"/>
<polygon fill="#63b8ff" stroke="#63b8ff" points="376.55,-556.71 366.04,-558.06 375.1,-563.55 376.55,-556.71"/>
</a>
</g>
</g>
<!-- Node11 -->
<g id="Node000011" class="node">
<title>Node11</title>
<g id="a_Node000011"><a xlink:href="classcom_1_1teragrep_1_1pth__06_1_1planner_1_1MockMeteredArchiveQueryProcessor.html" target="_top" xlink:title=" ">
<polygon fill="white" stroke="#666666" points="621,-558 424,-558 424,-528 621,-528 621,-558"/>
<text text-anchor="start" x="432" y="-546" font-family="Helvetica,sans-Serif" font-size="10.00">com.teragrep.pth_06.planner.</text>
<text text-anchor="middle" x="522.5" y="-535" font-family="Helvetica,sans-Serif" font-size="10.00">MockMeteredArchiveQueryProcessor</text>
</a>
</g>
</g>
<!-- Node8&#45;&gt;Node11 -->
<g id="edge10_Node000008_Node000011" class="edge">
<title>Node8&#45;&gt;Node11</title>
<g id="a_edge10_Node000008_Node000011"><a xlink:title=" ">
<path fill="none" stroke="#63b8ff" d="M384.51,-543C397.48,-543 410.88,-543 424,-543"/>
<polygon fill="#63b8ff" stroke="#63b8ff" points="384.22,-539.5 374.22,-543 384.22,-546.5 384.22,-539.5"/>
</a>
</g>
</g>
<!-- Node12 -->
<g id="Node000012" class="node">
<title>Node12</title>
<g id="a_Node000012"><a xlink:href="classcom_1_1teragrep_1_1pth__06_1_1planner_1_1StubArchiveQuery.html" target="_top" xlink:title=" ">
<polygon fill="white" stroke="#666666" points="602.5,-510 442.5,-510 442.5,-480 602.5,-480 602.5,-510"/>
<text text-anchor="start" x="450.5" y="-498" font-family="Helvetica,sans-Serif" font-size="10.00">com.teragrep.pth_06.planner.</text>
<text text-anchor="middle" x="522.5" y="-487" font-family="Helvetica,sans-Serif" font-size="10.00">StubArchiveQuery</text>
</a>
</g>
</g>
<!-- Node8&#45;&gt;Node12 -->
<g id="edge11_Node000008_Node000012" class="edge">
<title>Node8&#45;&gt;Node12</title>
<g id="a_edge11_Node000008_Node000012"><a xlink:title=" ">
<path fill="none" stroke="#63b8ff" d="M376,-525.83C400.41,-520.66 427.01,-515.02 450.71,-510"/>
<polygon fill="#63b8ff" stroke="#63b8ff" points="375.1,-522.45 366.04,-527.94 376.55,-529.29 375.1,-522.45"/>
</a>
</g>
</g>
<!-- Node14 -->
<g id="Node000014" class="node">
<title>Node14</title>
<g id="a_Node000014"><a xlink:href="classcom_1_1teragrep_1_1pth__06_1_1planner_1_1HBaseQueryImpl.html" target="_top" xlink:title="Responsible for splitting results from scanPlanCollection into batches.">
<polygon fill="white" stroke="#666666" points="602.5,-462 442.5,-462 442.5,-432 602.5,-432 602.5,-462"/>
<text text-anchor="start" x="450.5" y="-450" font-family="Helvetica,sans-Serif" font-size="10.00">com.teragrep.pth_06.planner.</text>
<text text-anchor="middle" x="522.5" y="-439" font-family="Helvetica,sans-Serif" font-size="10.00">HBaseQueryImpl</text>
</a>
</g>
</g>
<!-- Node13&#45;&gt;Node14 -->
<g id="edge13_Node000013_Node000014" class="edge">
<title>Node13&#45;&gt;Node14</title>
<g id="a_edge13_Node000013_Node000014"><a xlink:title=" ">
<path fill="none" stroke="#63b8ff" d="M376,-416.17C400.41,-421.34 427.01,-426.98 450.71,-432"/>
<polygon fill="#63b8ff" stroke="#63b8ff" points="376.55,-412.71 366.04,-414.06 375.1,-419.55 376.55,-412.71"/>
</a>
</g>
</g>
<!-- Node15 -->
<g id="Node000015" class="node">
<title>Node15</title>
<g id="a_Node000015"><a xlink:href="classcom_1_1teragrep_1_1pth__06_1_1planner_1_1StubHBaseQuery.html" target="_top" xlink:title=" ">
<polygon fill="white" stroke="#666666" points="602.5,-414 442.5,-414 442.5,-384 602.5,-384 602.5,-414"/>
<text text-anchor="start" x="450.5" y="-402" font-family="Helvetica,sans-Serif" font-size="10.00">com.teragrep.pth_06.planner.</text>
<text text-anchor="middle" x="522.5" y="-391" font-family="Helvetica,sans-Serif" font-size="10.00">StubHBaseQuery</text>
</a>
</g>
</g>
<!-- Node13&#45;&gt;Node15 -->
<g id="edge14_Node000013_Node000015" class="edge">
<title>Node13&#45;&gt;Node15</title>
<g id="a_edge14_Node000013_Node000015"><a xlink:title=" ">
<path fill="none" stroke="#63b8ff" d="M384.42,-399C403.55,-399 423.62,-399 442.33,-399"/>
<polygon fill="#63b8ff" stroke="#63b8ff" points="384.22,-395.5 374.22,-399 384.22,-402.5 384.22,-395.5"/>
</a>
</g>
</g>
<!-- Node17 -->
<g id="Node000017" class="node">
<title>Node17</title>
<g id="a_Node000017"><a xlink:href="classcom_1_1teragrep_1_1pth__06_1_1planner_1_1HourlyViewsSlices.html" target="_top" xlink:title=" ">
<polygon fill="white" stroke="#666666" points="602.5,-366 442.5,-366 442.5,-336 602.5,-336 602.5,-366"/>
<text text-anchor="start" x="450.5" y="-354" font-family="Helvetica,sans-Serif" font-size="10.00">com.teragrep.pth_06.planner.</text>
<text text-anchor="middle" x="522.5" y="-343" font-family="Helvetica,sans-Serif" font-size="10.00">HourlyViewsSlices</text>
</a>
</g>
</g>
<!-- Node16&#45;&gt;Node17 -->
<g id="edge16_Node000016_Node000017" class="edge">
<title>Node16&#45;&gt;Node17</title>
<g id="a_edge16_Node000016_Node000017"><a xlink:title=" ">
<path fill="none" stroke="#63b8ff" d="M384.42,-351C403.55,-351 423.62,-351 442.33,-351"/>
<polygon fill="#63b8ff" stroke="#63b8ff" points="384.22,-347.5 374.22,-351 384.22,-354.5 384.22,-347.5"/>
</a>
</g>
</g>
<!-- Node18 -->
<g id="Node000018" class="node">
<title>Node18</title>
<g id="a_Node000018"><a xlink:href="classcom_1_1teragrep_1_1pth__06_1_1planner_1_1StubHourlySlices.html" target="_top" xlink:title=" ">
<polygon fill="white" stroke="#666666" points="602.5,-318 442.5,-318 442.5,-288 602.5,-288 602.5,-318"/>
<text text-anchor="start" x="450.5" y="-306" font-family="Helvetica,sans-Serif" font-size="10.00">com.teragrep.pth_06.planner.</text>
<text text-anchor="middle" x="522.5" y="-295" font-family="Helvetica,sans-Serif" font-size="10.00">StubHourlySlices</text>
</a>
</g>
</g>
<!-- Node16&#45;&gt;Node18 -->
<g id="edge17_Node000016_Node000018" class="edge">
<title>Node16&#45;&gt;Node18</title>
<g id="a_edge17_Node000016_Node000018"><a xlink:title=" ">
<path fill="none" stroke="#63b8ff" d="M376,-333.83C400.41,-328.66 427.01,-323.02 450.71,-318"/>
<polygon fill="#63b8ff" stroke="#63b8ff" points="375.1,-330.45 366.04,-335.94 376.55,-337.29 375.1,-330.45"/>
</a>
</g>
</g>
<!-- Node20 -->
<g id="Node000020" class="node">
<title>Node20</title>
<g id="a_Node000020"><a xlink:href="classcom_1_1teragrep_1_1pth__06_1_1planner_1_1KafkaQueryProcessor.html" target="_top" xlink:title=" ">
<polygon fill="white" stroke="#666666" points="602.5,-270 442.5,-270 442.5,-240 602.5,-240 602.5,-270"/>
<text text-anchor="start" x="450.5" y="-258" font-family="Helvetica,sans-Serif" font-size="10.00">com.teragrep.pth_06.planner.</text>
<text text-anchor="middle" x="522.5" y="-247" font-family="Helvetica,sans-Serif" font-size="10.00">KafkaQueryProcessor</text>
</a>
</g>
</g>
<!-- Node19&#45;&gt;Node20 -->
<g id="edge19_Node000019_Node000020" class="edge">
<title>Node19&#45;&gt;Node20</title>
<g id="a_edge19_Node000019_Node000020"><a xlink:title=" ">
<path fill="none" stroke="#63b8ff" d="M384.42,-255C403.55,-255 423.62,-255 442.33,-255"/>
<polygon fill="#63b8ff" stroke="#63b8ff" points="384.22,-251.5 374.22,-255 384.22,-258.5 384.22,-251.5"/>
</a>
</g>
</g>
<!-- Node21 -->
<g id="Node000021" class="node">
<title>Node21</title>
<g id="a_Node000021"><a xlink:href="classcom_1_1teragrep_1_1pth__06_1_1planner_1_1StubKafkaQuery.html" target="_top" xlink:title=" ">
<polygon fill="white" stroke="#666666" points="602.5,-222 442.5,-222 442.5,-192 602.5,-192 602.5,-222"/>
<text text-anchor="start" x="450.5" y="-210" font-family="Helvetica,sans-Serif" font-size="10.00">com.teragrep.pth_06.planner.</text>
<text text-anchor="middle" x="522.5" y="-199" font-family="Helvetica,sans-Serif" font-size="10.00">StubKafkaQuery</text>
</a>
</g>
</g>
<!-- Node19&#45;&gt;Node21 -->
<g id="edge20_Node000019_Node000021" class="edge">
<title>Node19&#45;&gt;Node21</title>
<g id="a_edge20_Node000019_Node000021"><a xlink:title=" ">
<path fill="none" stroke="#63b8ff" d="M376,-237.83C400.41,-232.66 427.01,-227.02 450.71,-222"/>
<polygon fill="#63b8ff" stroke="#63b8ff" points="375.1,-234.45 366.04,-239.94 376.55,-241.29 375.1,-234.45"/>
</a>
</g>
</g>
<!-- Node23 -->
<g id="Node000023" class="node">
<title>Node23</title>
<g id="a_Node000023"><a xlink:href="classcom_1_1teragrep_1_1pth__06_1_1planner_1_1BatchSizeLimitedResults.html" target="_top" xlink:title=" ">
<polygon fill="white" stroke="#666666" points="602.5,-174 442.5,-174 442.5,-144 602.5,-144 602.5,-174"/>
<text text-anchor="start" x="450.5" y="-162" font-family="Helvetica,sans-Serif" font-size="10.00">com.teragrep.pth_06.planner.</text>
<text text-anchor="middle" x="522.5" y="-151" font-family="Helvetica,sans-Serif" font-size="10.00">BatchSizeLimitedResults</text>
</a>
</g>
</g>
<!-- Node22&#45;&gt;Node23 -->
<g id="edge22_Node000022_Node000023" class="edge">
<title>Node22&#45;&gt;Node23</title>
<g id="a_edge22_Node000022_Node000023"><a xlink:title=" ">
<path fill="none" stroke="#63b8ff" d="M384.42,-159C403.55,-159 423.62,-159 442.33,-159"/>
<polygon fill="#63b8ff" stroke="#63b8ff" points="384.22,-155.5 374.22,-159 384.22,-162.5 384.22,-155.5"/>
</a>
</g>
</g>
<!-- Node24 -->
<g id="Node000024" class="node">
<title>Node24</title>
<g id="a_Node000024"><a xlink:href="classcom_1_1teragrep_1_1pth__06_1_1planner_1_1StubLimitedResults.html" target="_top" xlink:title=" ">
<polygon fill="white" stroke="#666666" points="602.5,-126 442.5,-126 442.5,-96 602.5,-96 602.5,-126"/>
<text text-anchor="start" x="450.5" y="-114" font-family="Helvetica,sans-Serif" font-size="10.00">com.teragrep.pth_06.planner.</text>
<text text-anchor="middle" x="522.5" y="-103" font-family="Helvetica,sans-Serif" font-size="10.00">StubLimitedResults</text>
</a>
</g>
</g>
<!-- Node22&#45;&gt;Node24 -->
<g id="edge23_Node000022_Node000024" class="edge">
<title>Node22&#45;&gt;Node24</title>
<g id="a_edge23_Node000022_Node000024"><a xlink:title=" ">
<path fill="none" stroke="#63b8ff" d="M376,-141.83C400.41,-136.66 427.01,-131.02 450.71,-126"/>
<polygon fill="#63b8ff" stroke="#63b8ff" points="375.1,-138.45 366.04,-143.94 376.55,-145.29 375.1,-138.45"/>
</a>
</g>
</g>
<!-- Node26 -->
<g id="Node000026" class="node">
<title>Node26</title>
<g id="a_Node000026"><a xlink:href="classcom_1_1teragrep_1_1pth__06_1_1planner_1_1state_1_1QueryStateImpl.html" target="_top" xlink:title=" ">
<polygon fill="white" stroke="#666666" points="616.5,-78 428.5,-78 428.5,-48 616.5,-48 616.5,-78"/>
<text text-anchor="start" x="436.5" y="-66" font-family="Helvetica,sans-Serif" font-size="10.00">com.teragrep.pth_06.planner.state.</text>
<text text-anchor="middle" x="522.5" y="-55" font-family="Helvetica,sans-Serif" font-size="10.00">QueryStateImpl</text>
</a>
</g>
</g>
<!-- Node25&#45;&gt;Node26 -->
<g id="edge25_Node000025_Node000026" class="edge">
<title>Node25&#45;&gt;Node26</title>
<g id="a_edge25_Node000025_Node000026"><a xlink:title=" ">
<path fill="none" stroke="#63b8ff" d="M398.14,-63C408.22,-63 418.41,-63 428.39,-63"/>
<polygon fill="#63b8ff" stroke="#63b8ff" points="398.11,-59.5 388.11,-63 398.11,-66.5 398.11,-59.5"/>
</a>
</g>
</g>
<!-- Node27 -->
<g id="Node000027" class="node">
<title>Node27</title>
<g id="a_Node000027"><a xlink:href="classcom_1_1teragrep_1_1pth__06_1_1planner_1_1state_1_1StubQueryState.html" target="_top" xlink:title=" ">
<polygon fill="white" stroke="#666666" points="616.5,-30 428.5,-30 428.5,0 616.5,0 616.5,-30"/>
<text text-anchor="start" x="436.5" y="-18" font-family="Helvetica,sans-Serif" font-size="10.00">com.teragrep.pth_06.planner.state.</text>
<text text-anchor="middle" x="522.5" y="-7" font-family="Helvetica,sans-Serif" font-size="10.00">StubQueryState</text>
</a>
</g>
</g>
<!-- Node25&#45;&gt;Node27 -->
<g id="edge26_Node000025_Node000027" class="edge">
<title>Node25&#45;&gt;Node27</title>
<g id="a_edge26_Node000025_Node000027"><a xlink:title=" ">
<path fill="none" stroke="#63b8ff" d="M376,-45.83C400.41,-40.66 427.01,-35.02 450.71,-30"/>
<polygon fill="#63b8ff" stroke="#63b8ff" points="375.1,-42.45 366.04,-47.94 376.55,-49.29 375.1,-42.45"/>
</a>
</g>
</g>
</g>
</svg>
