<?xml version="1.0" encoding="UTF-8" standalone="no"?>
<!DOCTYPE svg PUBLIC "-//W3C//DTD SVG 1.1//EN"
 "http://www.w3.org/Graphics/SVG/1.1/DTD/svg11.dtd">
<!-- Generated by graphviz version 2.43.0 (0)
 -->
<!-- Title: com.teragrep.pth_06.Stubbable.isStub Pages: 1 -->
<svg width="459pt" height="489pt"
 viewBox="0.00 0.00 459.00 489.00" xmlns="http://www.w3.org/2000/svg" xmlns:xlink="http://www.w3.org/1999/xlink">
<g id="graph0" class="graph" transform="scale(1 1) rotate(0) translate(4 485)">
<title>com.teragrep.pth_06.Stubbable.isStub</title>
<!-- Node1 -->
<g id="Node000001" class="node">
<title>Node1</title>
<g id="a_Node000001"><a xlink:title=" ">
<polygon fill="#999999" stroke="#666666" points="451,-255.5 248,-255.5 248,-236.5 451,-236.5 451,-255.5"/>
<text text-anchor="middle" x="349.5" y="-243.5" font-family="Helvetica,sans-Serif" font-size="10.00">com.teragrep.pth_06.Stubbable.isStub</text>
</a>
</g>
</g>
<!-- Node2 -->
<g id="Node000002" class="node">
<title>Node2</title>
<g id="a_Node000002"><a xlink:href="classcom_1_1teragrep_1_1pth__06_1_1ast_1_1analyze_1_1ScanRangeView.html#a6e7578eeb40aa692dec253f605cd369e" target="_top" xlink:title="Returns results for the next window spanning the given duration in seconds from the last processed ep...">
<polygon fill="white" stroke="#666666" points="196,-481 16,-481 16,-451 196,-451 196,-481"/>
<text text-anchor="start" x="24" y="-469" font-family="Helvetica,sans-Serif" font-size="10.00">com.teragrep.pth_06.ast.analyze.</text>
<text text-anchor="middle" x="106" y="-458" font-family="Helvetica,sans-Serif" font-size="10.00">ScanRangeView.nextWindow</text>
</a>
</g>
</g>
<!-- Node1&#45;&gt;Node2 -->
<g id="edge1_Node000001_Node000002" class="edge">
<title>Node1&#45;&gt;Node2</title>
<g id="a_edge1_Node000001_Node000002"><a xlink:title=" ">
<path fill="none" stroke="#63b8ff" d="M340.97,-264.93C324.21,-304.53 279.84,-396.22 212,-442 206.88,-445.45 201.34,-448.41 195.57,-450.95"/>
<polygon fill="#63b8ff" stroke="#63b8ff" points="344.23,-266.21 344.8,-255.63 337.76,-263.55 344.23,-266.21"/>
</a>
</g>
</g>
<!-- Node3 -->
<g id="Node000003" class="node">
<title>Node3</title>
<g id="a_Node000003"><a xlink:href="classcom_1_1teragrep_1_1pth__06_1_1ast_1_1analyze_1_1ScanRangeView.html#a1aa03cfbeb626aaf3c967e7624102f3e" target="_top" xlink:title=" ">
<polygon fill="white" stroke="#666666" points="196,-433 16,-433 16,-403 196,-403 196,-433"/>
<text text-anchor="start" x="24" y="-421" font-family="Helvetica,sans-Serif" font-size="10.00">com.teragrep.pth_06.ast.analyze.</text>
<text text-anchor="middle" x="106" y="-410" font-family="Helvetica,sans-Serif" font-size="10.00">ScanRangeView.open</text>
</a>
</g>
</g>
<!-- Node1&#45;&gt;Node3 -->
<g id="edge2_Node000001_Node000003" class="edge">
<title>Node1&#45;&gt;Node3</title>
<g id="a_edge2_Node000001_Node000003"><a xlink:title=" ">
<path fill="none" stroke="#63b8ff" d="M336.92,-264.55C316.07,-296.33 269.01,-360.96 212,-394 206.01,-397.47 199.56,-400.44 192.91,-402.98"/>
<polygon fill="#63b8ff" stroke="#63b8ff" points="340.08,-266.12 342.54,-255.81 334.19,-262.34 340.08,-266.12"/>
</a>
</g>
</g>
<!-- Node4 -->
<g id="Node000004" class="node">
<title>Node4</title>
<g id="a_Node000004"><a xlink:href="classcom_1_1teragrep_1_1pth__06_1_1ast_1_1analyze_1_1ScanRangeImplTest.html#ab63ce3091ae6aaa1946660f7d5b78824" target="_top" xlink:title=" ">
<polygon fill="white" stroke="#666666" points="209.5,-384.5 2.5,-384.5 2.5,-343.5 209.5,-343.5 209.5,-384.5"/>
<text text-anchor="start" x="10.5" y="-372.5" font-family="Helvetica,sans-Serif" font-size="10.00">com.teragrep.pth_06.ast.analyze.</text>
<text text-anchor="start" x="10.5" y="-361.5" font-family="Helvetica,sans-Serif" font-size="10.00">ScanRangeImplTest.testRangeBetween</text>
<text text-anchor="middle" x="106" y="-350.5" font-family="Helvetica,sans-Serif" font-size="10.00">UpdatedEarliestUpdated</text>
</a>
</g>
</g>
<!-- Node1&#45;&gt;Node4 -->
<g id="edge3_Node000001_Node000004" class="edge">
<title>Node1&#45;&gt;Node4</title>
<g id="a_edge3_Node000001_Node000004"><a xlink:title=" ">
<path fill="none" stroke="#63b8ff" d="M328.27,-262.08C302.59,-281.79 256.29,-315.03 212,-335 205.19,-338.07 197.98,-340.88 190.66,-343.45"/>
<polygon fill="#63b8ff" stroke="#63b8ff" points="330.71,-264.62 336.46,-255.72 326.41,-259.09 330.71,-264.62"/>
</a>
</g>
</g>
<!-- Node5 -->
<g id="Node000005" class="node">
<title>Node5</title>
<g id="a_Node000005"><a xlink:href="classcom_1_1teragrep_1_1pth__06_1_1ast_1_1analyze_1_1ScanRangeImplTest.html#a895f5be6e06d5aeedb3b6d9c500787cb" target="_top" xlink:title=" ">
<polygon fill="white" stroke="#666666" points="209.5,-325.5 2.5,-325.5 2.5,-284.5 209.5,-284.5 209.5,-325.5"/>
<text text-anchor="start" x="10.5" y="-313.5" font-family="Helvetica,sans-Serif" font-size="10.00">com.teragrep.pth_06.ast.analyze.</text>
<text text-anchor="start" x="10.5" y="-302.5" font-family="Helvetica,sans-Serif" font-size="10.00">ScanRangeImplTest.testRangeBetween</text>
<text text-anchor="middle" x="106" y="-291.5" font-family="Helvetica,sans-Serif" font-size="10.00">UpdatedEarliestWithinBounds</text>
</a>
</g>
</g>
<!-- Node1&#45;&gt;Node5 -->
<g id="edge4_Node000001_Node000005" class="edge">
<title>Node1&#45;&gt;Node5</title>
<g id="a_edge4_Node000001_Node000005"><a xlink:title=" ">
<path fill="none" stroke="#63b8ff" d="M299.69,-257.92C268.55,-265.53 227.37,-275.59 191.07,-284.46"/>
<polygon fill="#63b8ff" stroke="#63b8ff" points="300.55,-261.32 309.43,-255.54 298.89,-254.52 300.55,-261.32"/>
</a>
</g>
</g>
<!-- Node6 -->
<g id="Node000006" class="node">
<title>Node6</title>
<g id="a_Node000006"><a xlink:href="classcom_1_1teragrep_1_1pth__06_1_1ast_1_1analyze_1_1ScanRangeImplTest.html#ab4517f0cb67cc4f50d43912b21b1978b" target="_top" xlink:title=" ">
<polygon fill="white" stroke="#666666" points="209.5,-266.5 2.5,-266.5 2.5,-225.5 209.5,-225.5 209.5,-266.5"/>
<text text-anchor="start" x="10.5" y="-254.5" font-family="Helvetica,sans-Serif" font-size="10.00">com.teragrep.pth_06.ast.analyze.</text>
<text text-anchor="start" x="10.5" y="-243.5" font-family="Helvetica,sans-Serif" font-size="10.00">ScanRangeImplTest.testRangeBetween</text>
<text text-anchor="middle" x="106" y="-232.5" font-family="Helvetica,sans-Serif" font-size="10.00">UpdatedLatestToEarliest</text>
</a>
</g>
</g>
<!-- Node1&#45;&gt;Node6 -->
<g id="edge5_Node000001_Node000006" class="edge">
<title>Node1&#45;&gt;Node6</title>
<g id="a_edge5_Node000001_Node000006"><a xlink:title=" ">
<path fill="none" stroke="#63b8ff" d="M237.77,-246C228.47,-246 219.08,-246 209.84,-246"/>
<polygon fill="#63b8ff" stroke="#63b8ff" points="237.83,-249.5 247.83,-246 237.83,-242.5 237.83,-249.5"/>
</a>
</g>
</g>
<!-- Node7 -->
<g id="Node000007" class="node">
<title>Node7</title>
<g id="a_Node000007"><a xlink:href="classcom_1_1teragrep_1_1pth__06_1_1ast_1_1analyze_1_1ScanRangeImplTest.html#aabdd7bbc6ed3c369213c6f2900f0fb27" target="_top" xlink:title=" ">
<polygon fill="white" stroke="#666666" points="209.5,-207.5 2.5,-207.5 2.5,-166.5 209.5,-166.5 209.5,-207.5"/>
<text text-anchor="start" x="10.5" y="-195.5" font-family="Helvetica,sans-Serif" font-size="10.00">com.teragrep.pth_06.ast.analyze.</text>
<text text-anchor="start" x="10.5" y="-184.5" font-family="Helvetica,sans-Serif" font-size="10.00">ScanRangeImplTest.testRangeBetween</text>
<text text-anchor="middle" x="106" y="-173.5" font-family="Helvetica,sans-Serif" font-size="10.00">UpdatedLatestUpdated</text>
</a>
</g>
</g>
<!-- Node1&#45;&gt;Node7 -->
<g id="edge6_Node000001_Node000007" class="edge">
<title>Node1&#45;&gt;Node7</title>
<g id="a_edge6_Node000001_Node000007"><a xlink:title=" ">
<path fill="none" stroke="#63b8ff" d="M299.69,-234.08C268.55,-226.47 227.37,-216.41 191.07,-207.54"/>
<polygon fill="#63b8ff" stroke="#63b8ff" points="298.89,-237.48 309.43,-236.46 300.55,-230.68 298.89,-237.48"/>
</a>
</g>
</g>
<!-- Node8 -->
<g id="Node000008" class="node">
<title>Node8</title>
<g id="a_Node000008"><a xlink:href="classcom_1_1teragrep_1_1pth__06_1_1ast_1_1analyze_1_1ScanRangeImplTest.html#a6e9457b2aacd651e669e17e3a035bd90" target="_top" xlink:title=" ">
<polygon fill="white" stroke="#666666" points="209.5,-148.5 2.5,-148.5 2.5,-107.5 209.5,-107.5 209.5,-148.5"/>
<text text-anchor="start" x="10.5" y="-136.5" font-family="Helvetica,sans-Serif" font-size="10.00">com.teragrep.pth_06.ast.analyze.</text>
<text text-anchor="start" x="10.5" y="-125.5" font-family="Helvetica,sans-Serif" font-size="10.00">ScanRangeImplTest.testRangeBetween</text>
<text text-anchor="middle" x="106" y="-114.5" font-family="Helvetica,sans-Serif" font-size="10.00">UpdatedLatestWithinBounds</text>
</a>
</g>
</g>
<!-- Node1&#45;&gt;Node8 -->
<g id="edge7_Node000001_Node000008" class="edge">
<title>Node1&#45;&gt;Node8</title>
<g id="a_edge7_Node000001_Node000008"><a xlink:title=" ">
<path fill="none" stroke="#63b8ff" d="M328.21,-230.17C302.47,-210.77 256.11,-177.99 212,-158 204.4,-154.56 196.31,-151.41 188.13,-148.56"/>
<polygon fill="#63b8ff" stroke="#63b8ff" points="326.35,-233.15 336.42,-236.44 330.59,-227.59 326.35,-233.15"/>
</a>
</g>
</g>
<!-- Node9 -->
<g id="Node000009" class="node">
<title>Node9</title>
<g id="a_Node000009"><a xlink:href="classcom_1_1teragrep_1_1pth__06_1_1ast_1_1analyze_1_1ScanRangeImplTest.html#a469a5c09559444fdbfeb6bc3c2567a05" target="_top" xlink:title=" ">
<polygon fill="white" stroke="#666666" points="212,-89.5 0,-89.5 0,-48.5 212,-48.5 212,-89.5"/>
<text text-anchor="start" x="8" y="-77.5" font-family="Helvetica,sans-Serif" font-size="10.00">com.teragrep.pth_06.ast.analyze.</text>
<text text-anchor="start" x="8" y="-66.5" font-family="Helvetica,sans-Serif" font-size="10.00">ScanRangeImplTest.testToRangeOutside</text>
<text text-anchor="middle" x="106" y="-55.5" font-family="Helvetica,sans-Serif" font-size="10.00">BoundsStub</text>
</a>
</g>
</g>
<!-- Node1&#45;&gt;Node9 -->
<g id="edge8_Node000001_Node000009" class="edge">
<title>Node1&#45;&gt;Node9</title>
<g id="a_edge8_Node000001_Node000009"><a xlink:title=" ">
<path fill="none" stroke="#63b8ff" d="M336.71,-227.89C315.51,-196.81 267.95,-133.33 212,-99 206.26,-95.48 200.1,-92.36 193.74,-89.6"/>
<polygon fill="#63b8ff" stroke="#63b8ff" points="333.95,-230.06 342.42,-236.43 339.77,-226.17 333.95,-230.06"/>
</a>
</g>
</g>
<!-- Node10 -->
<g id="Node000010" class="node">
<title>Node10</title>
<g id="a_Node000010"><a xlink:href="classcom_1_1teragrep_1_1pth__06_1_1ast_1_1analyze_1_1ScanRangeView.html#a61e947083a3d9e6e8ab1a8480ca94c95" target="_top" xlink:title="Returns a new ScanRangeView from an updated offset start point.">
<polygon fill="white" stroke="#666666" points="196,-30 16,-30 16,0 196,0 196,-30"/>
<text text-anchor="start" x="24" y="-18" font-family="Helvetica,sans-Serif" font-size="10.00">com.teragrep.pth_06.ast.analyze.</text>
<text text-anchor="middle" x="106" y="-7" font-family="Helvetica,sans-Serif" font-size="10.00">ScanRangeView.viewFromOffset</text>
</a>
</g>
</g>
<!-- Node1&#45;&gt;Node10 -->
<g id="edge9_Node000001_Node000010" class="edge">
<title>Node1&#45;&gt;Node10</title>
<g id="a_edge9_Node000001_Node000010"><a xlink:title=" ">
<path fill="none" stroke="#63b8ff" d="M341.55,-227C325.52,-185.96 281.89,-88.81 212,-40 206.47,-36.14 200.42,-32.87 194.1,-30.1"/>
<polygon fill="#63b8ff" stroke="#63b8ff" points="338.29,-228.26 345.11,-236.37 344.83,-225.78 338.29,-228.26"/>
</a>
</g>
</g>
</g>
</svg>
