<?xml version="1.0" encoding="UTF-8" standalone="no"?>
<!DOCTYPE svg PUBLIC "-//W3C//DTD SVG 1.1//EN"
 "http://www.w3.org/Graphics/SVG/1.1/DTD/svg11.dtd">
<!-- Generated by graphviz version 2.43.0 (0)
 -->
<!-- Title: com.teragrep.pth_06.ast.analyze.ClassifiedXMLValueExpressionsTest.testEmptyList Pages: 1 -->
<svg width="744pt" height="242pt"
 viewBox="0.00 0.00 744.00 241.50" xmlns="http://www.w3.org/2000/svg" xmlns:xlink="http://www.w3.org/1999/xlink">
<g id="graph0" class="graph" transform="scale(1 1) rotate(0) translate(4 237.5)">
<title>com.teragrep.pth_06.ast.analyze.ClassifiedXMLValueExpressionsTest.testEmptyList</title>
<!-- Node1 -->
<g id="Node000001" class="node">
<title>Node1</title>
<g id="a_Node000001"><a xlink:title=" ">
<polygon fill="#999999" stroke="#666666" points="211,-143 0,-143 0,-102 211,-102 211,-143"/>
<text text-anchor="start" x="8" y="-131" font-family="Helvetica,sans-Serif" font-size="10.00">com.teragrep.pth_06.ast.analyze.</text>
<text text-anchor="start" x="8" y="-120" font-family="Helvetica,sans-Serif" font-size="10.00">ClassifiedXMLValueExpressionsTest.test</text>
<text text-anchor="middle" x="105.5" y="-109" font-family="Helvetica,sans-Serif" font-size="10.00">EmptyList</text>
</a>
</g>
</g>
<!-- Node2 -->
<g id="Node000002" class="node">
<title>Node2</title>
<g id="a_Node000002"><a xlink:href="classcom_1_1teragrep_1_1pth__06_1_1ast_1_1analyze_1_1ClassifiedXMLValueExpressions.html#a3b1e321f8a8c9ec24e341536f857432d" target="_top" xlink:title=" ">
<polygon fill="white" stroke="#666666" points="474,-233.5 247,-233.5 247,-203.5 474,-203.5 474,-233.5"/>
<text text-anchor="start" x="255" y="-221.5" font-family="Helvetica,sans-Serif" font-size="10.00">com.teragrep.pth_06.ast.analyze.</text>
<text text-anchor="middle" x="360.5" y="-210.5" font-family="Helvetica,sans-Serif" font-size="10.00">ClassifiedXMLValueExpressions.earliestList</text>
</a>
</g>
</g>
<!-- Node1&#45;&gt;Node2 -->
<g id="edge1_Node000001_Node000002" class="edge">
<title>Node1&#45;&gt;Node2</title>
<g id="a_edge1_Node000001_Node000002"><a xlink:title=" ">
<path fill="none" stroke="#63b8ff" d="M140.3,-143.03C168.07,-159.11 208.91,-180.95 247,-194.5 253.38,-196.77 260.05,-198.86 266.82,-200.78"/>
<polygon fill="#63b8ff" stroke="#63b8ff" points="266.21,-204.24 276.77,-203.47 268.03,-197.48 266.21,-204.24"/>
</a>
</g>
</g>
<!-- Node4 -->
<g id="Node000004" class="node">
<title>Node4</title>
<g id="a_Node000004"><a xlink:href="classcom_1_1teragrep_1_1pth__06_1_1ast_1_1analyze_1_1ClassifiedXMLValueExpressions.html#ab993cf439cb31a3e2c3fef27509c5e64" target="_top" xlink:title=" ">
<polygon fill="white" stroke="#666666" points="466,-185.5 255,-185.5 255,-155.5 466,-155.5 466,-185.5"/>
<text text-anchor="start" x="263" y="-173.5" font-family="Helvetica,sans-Serif" font-size="10.00">com.teragrep.pth_06.ast.analyze.</text>
<text text-anchor="middle" x="360.5" y="-162.5" font-family="Helvetica,sans-Serif" font-size="10.00">ClassifiedXMLValueExpressions.hostList</text>
</a>
</g>
</g>
<!-- Node1&#45;&gt;Node4 -->
<g id="edge3_Node000001_Node000004" class="edge">
<title>Node1&#45;&gt;Node4</title>
<g id="a_edge3_Node000001_Node000004"><a xlink:title=" ">
<path fill="none" stroke="#63b8ff" d="M211.23,-142.37C230.91,-146.1 251.32,-149.97 270.46,-153.61"/>
<polygon fill="#63b8ff" stroke="#63b8ff" points="269.87,-157.06 280.35,-155.48 271.18,-150.18 269.87,-157.06"/>
</a>
</g>
</g>
<!-- Node5 -->
<g id="Node000005" class="node">
<title>Node5</title>
<g id="a_Node000005"><a xlink:href="classcom_1_1teragrep_1_1pth__06_1_1ast_1_1analyze_1_1ClassifiedXMLValueExpressions.html#a366291cc5860533b064603f2d3d8e0e3" target="_top" xlink:title=" ">
<polygon fill="white" stroke="#666666" points="469,-137.5 252,-137.5 252,-107.5 469,-107.5 469,-137.5"/>
<text text-anchor="start" x="260" y="-125.5" font-family="Helvetica,sans-Serif" font-size="10.00">com.teragrep.pth_06.ast.analyze.</text>
<text text-anchor="middle" x="360.5" y="-114.5" font-family="Helvetica,sans-Serif" font-size="10.00">ClassifiedXMLValueExpressions.indexList</text>
</a>
</g>
</g>
<!-- Node1&#45;&gt;Node5 -->
<g id="edge5_Node000001_Node000005" class="edge">
<title>Node1&#45;&gt;Node5</title>
<g id="a_edge5_Node000001_Node000005"><a xlink:title=" ">
<path fill="none" stroke="#63b8ff" d="M211.23,-122.5C221.32,-122.5 231.61,-122.5 241.82,-122.5"/>
<polygon fill="#63b8ff" stroke="#63b8ff" points="241.99,-126 251.99,-122.5 241.99,-119 241.99,-126"/>
</a>
</g>
</g>
<!-- Node6 -->
<g id="Node000006" class="node">
<title>Node6</title>
<g id="a_Node000006"><a xlink:href="classcom_1_1teragrep_1_1pth__06_1_1ast_1_1analyze_1_1ClassifiedXMLValueExpressions.html#a9e3e57e37a56a34116b8aa94d5c9f4e1" target="_top" xlink:title=" ">
<polygon fill="white" stroke="#666666" points="469.5,-89.5 251.5,-89.5 251.5,-59.5 469.5,-59.5 469.5,-89.5"/>
<text text-anchor="start" x="259.5" y="-77.5" font-family="Helvetica,sans-Serif" font-size="10.00">com.teragrep.pth_06.ast.analyze.</text>
<text text-anchor="middle" x="360.5" y="-66.5" font-family="Helvetica,sans-Serif" font-size="10.00">ClassifiedXMLValueExpressions.latestList</text>
</a>
</g>
</g>
<!-- Node1&#45;&gt;Node6 -->
<g id="edge7_Node000001_Node000006" class="edge">
<title>Node1&#45;&gt;Node6</title>
<g id="a_edge7_Node000001_Node000006"><a xlink:title=" ">
<path fill="none" stroke="#63b8ff" d="M211.23,-102.63C230.91,-98.9 251.32,-95.03 270.46,-91.39"/>
<polygon fill="#63b8ff" stroke="#63b8ff" points="271.18,-94.82 280.35,-89.52 269.87,-87.94 271.18,-94.82"/>
</a>
</g>
</g>
<!-- Node7 -->
<g id="Node000007" class="node">
<title>Node7</title>
<g id="a_Node000007"><a xlink:href="classcom_1_1teragrep_1_1pth__06_1_1ast_1_1analyze_1_1ClassifiedXMLValueExpressions.html#ab8fbe6644542de1c19fa2c74340649e9" target="_top" xlink:title=" ">
<polygon fill="white" stroke="#666666" points="463,-41 258,-41 258,0 463,0 463,-41"/>
<text text-anchor="start" x="266" y="-29" font-family="Helvetica,sans-Serif" font-size="10.00">com.teragrep.pth_06.ast.analyze.</text>
<text text-anchor="start" x="266" y="-18" font-family="Helvetica,sans-Serif" font-size="10.00">ClassifiedXMLValueExpressions.source</text>
<text text-anchor="middle" x="360.5" y="-7" font-family="Helvetica,sans-Serif" font-size="10.00">TypeList</text>
</a>
</g>
</g>
<!-- Node1&#45;&gt;Node7 -->
<g id="edge9_Node000001_Node000007" class="edge">
<title>Node1&#45;&gt;Node7</title>
<g id="a_edge9_Node000001_Node000007"><a xlink:title=" ">
<path fill="none" stroke="#63b8ff" d="M141.34,-102C169.2,-86.26 209.65,-64.86 247,-50.5 252.82,-48.26 258.87,-46.13 265.01,-44.11"/>
<polygon fill="#63b8ff" stroke="#63b8ff" points="266.25,-47.39 274.71,-41.02 264.12,-40.71 266.25,-47.39"/>
</a>
</g>
</g>
<!-- Node3 -->
<g id="Node000003" class="node">
<title>Node3</title>
<g id="a_Node000003"><a xlink:href="classcom_1_1teragrep_1_1pth__06_1_1ast_1_1analyze_1_1ClassifiedXMLValueExpressions.html#a233e7554e04af8008778c500093a1e3b" target="_top" xlink:title=" ">
<polygon fill="white" stroke="#666666" points="736,-143 510,-143 510,-102 736,-102 736,-143"/>
<text text-anchor="start" x="518" y="-131" font-family="Helvetica,sans-Serif" font-size="10.00">com.teragrep.pth_06.ast.analyze.</text>
<text text-anchor="start" x="518" y="-120" font-family="Helvetica,sans-Serif" font-size="10.00">ClassifiedXMLValueExpressions.expression</text>
<text text-anchor="middle" x="623" y="-109" font-family="Helvetica,sans-Serif" font-size="10.00">ListFilteredByTag</text>
</a>
</g>
</g>
<!-- Node2&#45;&gt;Node3 -->
<g id="edge2_Node000002_Node000003" class="edge">
<title>Node2&#45;&gt;Node3</title>
<g id="a_edge2_Node000002_Node000003"><a xlink:title=" ">
<path fill="none" stroke="#63b8ff" d="M443.56,-203.43C453.91,-200.82 464.27,-197.85 474,-194.5 509.84,-182.17 548.27,-163.28 576.99,-147.95"/>
<polygon fill="#63b8ff" stroke="#63b8ff" points="578.82,-150.94 585.96,-143.11 575.49,-144.78 578.82,-150.94"/>
</a>
</g>
</g>
<!-- Node4&#45;&gt;Node3 -->
<g id="edge4_Node000004_Node000003" class="edge">
<title>Node4&#45;&gt;Node3</title>
<g id="a_edge4_Node000004_Node000003"><a xlink:title=" ">
<path fill="none" stroke="#63b8ff" d="M443.21,-155.44C461.46,-152.08 481.2,-148.44 500.67,-144.86"/>
<polygon fill="#63b8ff" stroke="#63b8ff" points="501.31,-148.3 510.51,-143.04 500.04,-141.41 501.31,-148.3"/>
</a>
</g>
</g>
<!-- Node5&#45;&gt;Node3 -->
<g id="edge6_Node000005_Node000003" class="edge">
<title>Node5&#45;&gt;Node3</title>
<g id="a_edge6_Node000005_Node000003"><a xlink:title=" ">
<path fill="none" stroke="#63b8ff" d="M469.34,-122.5C479.31,-122.5 489.46,-122.5 499.55,-122.5"/>
<polygon fill="#63b8ff" stroke="#63b8ff" points="499.61,-126 509.61,-122.5 499.61,-119 499.61,-126"/>
</a>
</g>
</g>
<!-- Node6&#45;&gt;Node3 -->
<g id="edge8_Node000006_Node000003" class="edge">
<title>Node6&#45;&gt;Node3</title>
<g id="a_edge8_Node000006_Node000003"><a xlink:title=" ">
<path fill="none" stroke="#63b8ff" d="M443.21,-89.56C461.46,-92.92 481.2,-96.56 500.67,-100.14"/>
<polygon fill="#63b8ff" stroke="#63b8ff" points="500.04,-103.59 510.51,-101.96 501.31,-96.7 500.04,-103.59"/>
</a>
</g>
</g>
<!-- Node7&#45;&gt;Node3 -->
<g id="edge10_Node000007_Node000003" class="edge">
<title>Node7&#45;&gt;Node3</title>
<g id="a_edge10_Node000007_Node000003"><a xlink:title=" ">
<path fill="none" stroke="#63b8ff" d="M445.61,-41.02C455.27,-43.94 464.91,-47.11 474,-50.5 509.15,-63.6 547.18,-82.2 575.88,-97.21"/>
<polygon fill="#63b8ff" stroke="#63b8ff" points="574.38,-100.38 584.86,-101.95 577.65,-94.19 574.38,-100.38"/>
</a>
</g>
</g>
</g>
</svg>
