<?xml version="1.0" encoding="UTF-8" standalone="no"?>
<!DOCTYPE svg PUBLIC "-//W3C//DTD SVG 1.1//EN"
 "http://www.w3.org/Graphics/SVG/1.1/DTD/svg11.dtd">
<!-- Generated by graphviz version 2.43.0 (0)
 -->
<!-- Title: com.teragrep.pth_06.ast.transform.OptimizedAST.walkAndApply Pages: 1 -->
<svg width="712pt" height="421pt"
 viewBox="0.00 0.00 712.00 421.00" xmlns="http://www.w3.org/2000/svg" xmlns:xlink="http://www.w3.org/1999/xlink">
<g id="graph0" class="graph" transform="scale(1 1) rotate(0) translate(4 417)">
<title>com.teragrep.pth_06.ast.transform.OptimizedAST.walkAndApply</title>
<!-- Node1 -->
<g id="Node000001" class="node">
<title>Node1</title>
<g id="a_Node000001"><a xlink:title=" ">
<polygon fill="#999999" stroke="#666666" points="704,-224 514,-224 514,-194 704,-194 704,-224"/>
<text text-anchor="start" x="522" y="-212" font-family="Helvetica,sans-Serif" font-size="10.00">com.teragrep.pth_06.ast.transform.</text>
<text text-anchor="middle" x="609" y="-201" font-family="Helvetica,sans-Serif" font-size="10.00">OptimizedAST.walkAndApply</text>
</a>
</g>
</g>
<!-- Node1&#45;&gt;Node1 -->
<g id="edge10_Node000001_Node000001" class="edge">
<title>Node1&#45;&gt;Node1</title>
<g id="a_edge10_Node000001_Node000001"><a xlink:title=" ">
<path fill="none" stroke="#63b8ff" d="M648.56,-234.6C643.15,-238.97 629.97,-242 609,-242 573.69,-242 560.45,-233.41 569.27,-224.28"/>
<polygon fill="#63b8ff" stroke="#63b8ff" points="652.06,-234.33 648.73,-224.28 645.06,-234.22 652.06,-234.33"/>
</a>
</g>
</g>
<!-- Node2 -->
<g id="Node000002" class="node">
<title>Node2</title>
<g id="a_Node000002"><a xlink:href="classcom_1_1teragrep_1_1pth__06_1_1ast_1_1transform_1_1OptimizedAST.html#a05726d2699d7ade747e74de2140c6a41" target="_top" xlink:title=" ">
<polygon fill="white" stroke="#666666" points="478,-224 288,-224 288,-194 478,-194 478,-224"/>
<text text-anchor="start" x="296" y="-212" font-family="Helvetica,sans-Serif" font-size="10.00">com.teragrep.pth_06.ast.transform.</text>
<text text-anchor="middle" x="383" y="-201" font-family="Helvetica,sans-Serif" font-size="10.00">OptimizedAST.transformed</text>
</a>
</g>
</g>
<!-- Node1&#45;&gt;Node2 -->
<g id="edge1_Node000001_Node000002" class="edge">
<title>Node1&#45;&gt;Node2</title>
<g id="a_edge1_Node000001_Node000002"><a xlink:title=" ">
<path fill="none" stroke="#63b8ff" d="M503.92,-209C495.32,-209 486.66,-209 478.14,-209"/>
<polygon fill="#63b8ff" stroke="#63b8ff" points="503.98,-212.5 513.98,-209 503.98,-205.5 503.98,-212.5"/>
</a>
</g>
</g>
<!-- Node3 -->
<g id="Node000003" class="node">
<title>Node3</title>
<g id="a_Node000003"><a xlink:href="classcom_1_1teragrep_1_1pth__06_1_1ast_1_1transform_1_1OptimizedASTTest.html#a2c48cc58b060c88099f27a2ecadce510" target="_top" xlink:title=" ">
<polygon fill="white" stroke="#666666" points="230.5,-413 21.5,-413 21.5,-383 230.5,-383 230.5,-413"/>
<text text-anchor="start" x="29.5" y="-401" font-family="Helvetica,sans-Serif" font-size="10.00">com.teragrep.pth_06.ast.transform.</text>
<text text-anchor="middle" x="126" y="-390" font-family="Helvetica,sans-Serif" font-size="10.00">OptimizedASTTest.testASTOptimization</text>
</a>
</g>
</g>
<!-- Node2&#45;&gt;Node3 -->
<g id="edge2_Node000002_Node000003" class="edge">
<title>Node2&#45;&gt;Node3</title>
<g id="a_edge2_Node000002_Node000003"><a xlink:title=" ">
<path fill="none" stroke="#63b8ff" d="M370.27,-233.06C351.01,-269.8 309.06,-339.29 252,-374 245.3,-378.08 238.05,-381.49 230.54,-384.33"/>
<polygon fill="#63b8ff" stroke="#63b8ff" points="373.44,-234.53 374.88,-224.04 367.21,-231.35 373.44,-234.53"/>
</a>
</g>
</g>
<!-- Node4 -->
<g id="Node000004" class="node">
<title>Node4</title>
<g id="a_Node000004"><a xlink:href="classcom_1_1teragrep_1_1pth__06_1_1ast_1_1transform_1_1OptimizedASTTest.html#aa2ac983e5e4b4b88d7dedeecfe1c9d42" target="_top" xlink:title=" ">
<polygon fill="white" stroke="#666666" points="241.5,-364.5 10.5,-364.5 10.5,-323.5 241.5,-323.5 241.5,-364.5"/>
<text text-anchor="start" x="18.5" y="-352.5" font-family="Helvetica,sans-Serif" font-size="10.00">com.teragrep.pth_06.ast.transform.</text>
<text text-anchor="start" x="18.5" y="-341.5" font-family="Helvetica,sans-Serif" font-size="10.00">OptimizedASTTest.testEqualBinaryMembers</text>
<text text-anchor="middle" x="126" y="-330.5" font-family="Helvetica,sans-Serif" font-size="10.00">ToValue</text>
</a>
</g>
</g>
<!-- Node2&#45;&gt;Node4 -->
<g id="edge3_Node000002_Node000004" class="edge">
<title>Node2&#45;&gt;Node4</title>
<g id="a_edge3_Node000002_Node000004"><a xlink:title=" ">
<path fill="none" stroke="#63b8ff" d="M360.74,-231.3C336.6,-255.29 294.98,-292.84 252,-314 244.79,-317.55 237.14,-320.69 229.31,-323.48"/>
<polygon fill="#63b8ff" stroke="#63b8ff" points="363.39,-233.59 367.94,-224.02 358.41,-228.67 363.39,-233.59"/>
</a>
</g>
</g>
<!-- Node5 -->
<g id="Node000005" class="node">
<title>Node5</title>
<g id="a_Node000005"><a xlink:href="classcom_1_1teragrep_1_1pth__06_1_1ast_1_1transform_1_1OptimizedASTTest.html#a1a35d66a6dd37c0174ca1fd9d919607b" target="_top" xlink:title=" ">
<polygon fill="white" stroke="#666666" points="230,-305 22,-305 22,-275 230,-275 230,-305"/>
<text text-anchor="start" x="30" y="-293" font-family="Helvetica,sans-Serif" font-size="10.00">com.teragrep.pth_06.ast.transform.</text>
<text text-anchor="middle" x="126" y="-282" font-family="Helvetica,sans-Serif" font-size="10.00">OptimizedASTTest.testFlattenedLogical</text>
</a>
</g>
</g>
<!-- Node2&#45;&gt;Node5 -->
<g id="edge4_Node000002_Node000005" class="edge">
<title>Node2&#45;&gt;Node5</title>
<g id="a_edge4_Node000002_Node000005"><a xlink:title=" ">
<path fill="none" stroke="#63b8ff" d="M343.49,-228.6C318.07,-240.86 283.72,-256.14 252,-266 241.13,-269.38 229.58,-272.37 218.06,-274.99"/>
<polygon fill="#63b8ff" stroke="#63b8ff" points="345.33,-231.6 352.78,-224.07 342.26,-225.31 345.33,-231.6"/>
</a>
</g>
</g>
<!-- Node6 -->
<g id="Node000006" class="node">
<title>Node6</title>
<g id="a_Node000006"><a xlink:href="classcom_1_1teragrep_1_1pth__06_1_1ast_1_1transform_1_1OptimizedASTTest.html#aeef0be1d80ebe4eef6a8aacd1773a7bf" target="_top" xlink:title=" ">
<polygon fill="white" stroke="#666666" points="241,-256.5 11,-256.5 11,-215.5 241,-215.5 241,-256.5"/>
<text text-anchor="start" x="19" y="-244.5" font-family="Helvetica,sans-Serif" font-size="10.00">com.teragrep.pth_06.ast.transform.</text>
<text text-anchor="start" x="19" y="-233.5" font-family="Helvetica,sans-Serif" font-size="10.00">OptimizedASTTest.testMultipleDepthNested</text>
<text text-anchor="middle" x="126" y="-222.5" font-family="Helvetica,sans-Serif" font-size="10.00">BinaryExpressionsToValue</text>
</a>
</g>
</g>
<!-- Node2&#45;&gt;Node6 -->
<g id="edge5_Node000002_Node000006" class="edge">
<title>Node2&#45;&gt;Node6</title>
<g id="a_edge5_Node000002_Node000006"><a xlink:title=" ">
<path fill="none" stroke="#63b8ff" d="M277.72,-220.04C265.67,-221.32 253.32,-222.62 241.15,-223.91"/>
<polygon fill="#63b8ff" stroke="#63b8ff" points="278.2,-223.51 287.77,-218.98 277.46,-216.55 278.2,-223.51"/>
</a>
</g>
</g>
<!-- Node7 -->
<g id="Node000007" class="node">
<title>Node7</title>
<g id="a_Node000007"><a xlink:href="classcom_1_1teragrep_1_1pth__06_1_1ast_1_1transform_1_1OptimizedASTTest.html#a3cfcc244c851d851391ab883025b3dea" target="_top" xlink:title=" ">
<polygon fill="white" stroke="#666666" points="252,-197 0,-197 0,-167 252,-167 252,-197"/>
<text text-anchor="start" x="8" y="-185" font-family="Helvetica,sans-Serif" font-size="10.00">com.teragrep.pth_06.ast.transform.</text>
<text text-anchor="middle" x="126" y="-174" font-family="Helvetica,sans-Serif" font-size="10.00">OptimizedASTTest.testSingleDepthNestedBinary</text>
</a>
</g>
</g>
<!-- Node2&#45;&gt;Node7 -->
<g id="edge6_Node000002_Node000007" class="edge">
<title>Node2&#45;&gt;Node7</title>
<g id="a_edge6_Node000002_Node000007"><a xlink:title=" ">
<path fill="none" stroke="#63b8ff" d="M277.59,-197.95C269.19,-197.05 260.64,-196.15 252.1,-195.25"/>
<polygon fill="#63b8ff" stroke="#63b8ff" points="277.46,-201.45 287.77,-199.02 278.2,-194.49 277.46,-201.45"/>
</a>
</g>
</g>
<!-- Node8 -->
<g id="Node000008" class="node">
<title>Node8</title>
<g id="a_Node000008"><a xlink:href="classcom_1_1teragrep_1_1pth__06_1_1ast_1_1transform_1_1OptimizedASTTest.html#a4b30c4c3ebe0dd2b402cad78aa0e3c05" target="_top" xlink:title=" ">
<polygon fill="white" stroke="#666666" points="235.5,-148.5 16.5,-148.5 16.5,-107.5 235.5,-107.5 235.5,-148.5"/>
<text text-anchor="start" x="24.5" y="-136.5" font-family="Helvetica,sans-Serif" font-size="10.00">com.teragrep.pth_06.ast.transform.</text>
<text text-anchor="start" x="24.5" y="-125.5" font-family="Helvetica,sans-Serif" font-size="10.00">OptimizedASTTest.testUnbalancedNested</text>
<text text-anchor="middle" x="126" y="-114.5" font-family="Helvetica,sans-Serif" font-size="10.00">BinaryExpressionsToValue</text>
</a>
</g>
</g>
<!-- Node2&#45;&gt;Node8 -->
<g id="edge7_Node000002_Node000008" class="edge">
<title>Node2&#45;&gt;Node8</title>
<g id="a_edge7_Node000002_Node000008"><a xlink:title=" ">
<path fill="none" stroke="#63b8ff" d="M337.9,-189.94C312.99,-179.62 281.09,-167.15 252,-158 241.36,-154.65 230.1,-151.47 218.88,-148.51"/>
<polygon fill="#63b8ff" stroke="#63b8ff" points="336.86,-193.3 347.43,-193.93 339.56,-186.84 336.86,-193.3"/>
</a>
</g>
</g>
<!-- Node9 -->
<g id="Node000009" class="node">
<title>Node9</title>
<g id="a_Node000009"><a xlink:href="classcom_1_1teragrep_1_1pth__06_1_1ast_1_1transform_1_1OptimizedASTTest.html#a7d6e3a2d368557b8cd71d597e2ba9857" target="_top" xlink:title=" ">
<polygon fill="white" stroke="#666666" points="235.5,-89.5 16.5,-89.5 16.5,-48.5 235.5,-48.5 235.5,-89.5"/>
<text text-anchor="start" x="24.5" y="-77.5" font-family="Helvetica,sans-Serif" font-size="10.00">com.teragrep.pth_06.ast.transform.</text>
<text text-anchor="start" x="24.5" y="-66.5" font-family="Helvetica,sans-Serif" font-size="10.00">OptimizedASTTest.testUnbalancedNested</text>
<text text-anchor="middle" x="126" y="-55.5" font-family="Helvetica,sans-Serif" font-size="10.00">EqualBinaryWithEmpty</text>
</a>
</g>
</g>
<!-- Node2&#45;&gt;Node9 -->
<g id="edge8_Node000002_Node000009" class="edge">
<title>Node2&#45;&gt;Node9</title>
<g id="a_edge8_Node000002_Node000009"><a xlink:title=" ">
<path fill="none" stroke="#63b8ff" d="M361.34,-186.01C337.46,-160.86 295.79,-121.18 252,-99 245.03,-95.47 237.63,-92.34 230.05,-89.58"/>
<polygon fill="#63b8ff" stroke="#63b8ff" points="359.07,-188.7 368.45,-193.62 364.18,-183.93 359.07,-188.7"/>
</a>
</g>
</g>
<!-- Node10 -->
<g id="Node000010" class="node">
<title>Node10</title>
<g id="a_Node000010"><a xlink:href="classcom_1_1teragrep_1_1pth__06_1_1ast_1_1transform_1_1WithDefaultValues.html#aaacf315021f6d15f6a84e4d492ed72bd" target="_top" xlink:title=" ">
<polygon fill="white" stroke="#666666" points="226.5,-30 25.5,-30 25.5,0 226.5,0 226.5,-30"/>
<text text-anchor="start" x="33.5" y="-18" font-family="Helvetica,sans-Serif" font-size="10.00">com.teragrep.pth_06.ast.transform.</text>
<text text-anchor="middle" x="126" y="-7" font-family="Helvetica,sans-Serif" font-size="10.00">WithDefaultValues.WithDefaultValues</text>
</a>
</g>
</g>
<!-- Node2&#45;&gt;Node10 -->
<g id="edge9_Node000002_Node000010" class="edge">
<title>Node2&#45;&gt;Node10</title>
<g id="a_edge9_Node000002_Node000010"><a xlink:title=" ">
<path fill="none" stroke="#63b8ff" d="M370.54,-184.7C351.51,-147.22 309.71,-75.88 252,-40 244.2,-35.15 235.64,-31.22 226.78,-28.03"/>
<polygon fill="#63b8ff" stroke="#63b8ff" points="367.51,-186.48 375.09,-193.89 373.78,-183.37 367.51,-186.48"/>
</a>
</g>
</g>
</g>
</svg>
