<?xml version="1.0" encoding="UTF-8" standalone="no"?>
<!DOCTYPE svg PUBLIC "-//W3C//DTD SVG 1.1//EN"
 "http://www.w3.org/Graphics/SVG/1.1/DTD/svg11.dtd">
<!-- Generated by graphviz version 2.43.0 (0)
 -->
<!-- Title: com.teragrep.pth_06.ast.MergeIntersectingPlans.mergedRanges Pages: 1 -->
<svg width="1059pt" height="248pt"
 viewBox="0.00 0.00 1059.00 248.00" xmlns="http://www.w3.org/2000/svg" xmlns:xlink="http://www.w3.org/1999/xlink">
<g id="graph0" class="graph" transform="scale(1 1) rotate(0) translate(4 244)">
<title>com.teragrep.pth_06.ast.MergeIntersectingPlans.mergedRanges</title>
<!-- Node1 -->
<g id="Node000001" class="node">
<title>Node1</title>
<g id="a_Node000001"><a xlink:title=" ">
<polygon fill="#999999" stroke="#666666" points="1051,-131.5 879,-131.5 879,-90.5 1051,-90.5 1051,-131.5"/>
<text text-anchor="start" x="887" y="-119.5" font-family="Helvetica,sans-Serif" font-size="10.00">com.teragrep.pth_06.ast.</text>
<text text-anchor="start" x="887" y="-108.5" font-family="Helvetica,sans-Serif" font-size="10.00">MergeIntersectingPlans.merged</text>
<text text-anchor="middle" x="965" y="-97.5" font-family="Helvetica,sans-Serif" font-size="10.00">Ranges</text>
</a>
</g>
</g>
<!-- Node2 -->
<g id="Node000002" class="node">
<title>Node2</title>
<g id="a_Node000002"><a xlink:href="classcom_1_1teragrep_1_1pth__06_1_1ast_1_1analyze_1_1ScanGroupExpression.html#a0e5168dad0a59965e14bbc6417498fed" target="_top" xlink:title=" ">
<polygon fill="white" stroke="#666666" points="843,-126 663,-126 663,-96 843,-96 843,-126"/>
<text text-anchor="start" x="671" y="-114" font-family="Helvetica,sans-Serif" font-size="10.00">com.teragrep.pth_06.ast.analyze.</text>
<text text-anchor="middle" x="753" y="-103" font-family="Helvetica,sans-Serif" font-size="10.00">ScanGroupExpression.value</text>
</a>
</g>
</g>
<!-- Node1&#45;&gt;Node2 -->
<g id="edge1_Node000001_Node000002" class="edge">
<title>Node1&#45;&gt;Node2</title>
<g id="a_edge1_Node000001_Node000002"><a xlink:title=" ">
<path fill="none" stroke="#63b8ff" d="M868.66,-111C860.23,-111 851.72,-111 843.34,-111"/>
<polygon fill="#63b8ff" stroke="#63b8ff" points="868.89,-114.5 878.89,-111 868.89,-107.5 868.89,-114.5"/>
</a>
</g>
</g>
<!-- Node3 -->
<g id="Node000003" class="node">
<title>Node3</title>
<g id="a_Node000003"><a xlink:href="classcom_1_1teragrep_1_1pth__06_1_1ast_1_1analyze_1_1ScanPlanCollection.html#a47c5484d9f27fd8136265a9e35617535" target="_top" xlink:title=" ">
<polygon fill="white" stroke="#666666" points="626.5,-222 432.5,-222 432.5,-192 626.5,-192 626.5,-222"/>
<text text-anchor="start" x="440.5" y="-210" font-family="Helvetica,sans-Serif" font-size="10.00">com.teragrep.pth_06.ast.analyze.</text>
<text text-anchor="middle" x="529.5" y="-199" font-family="Helvetica,sans-Serif" font-size="10.00">ScanPlanCollection.collectScanPlans</text>
</a>
</g>
</g>
<!-- Node2&#45;&gt;Node3 -->
<g id="edge2_Node000002_Node000003" class="edge">
<title>Node2&#45;&gt;Node3</title>
<g id="a_edge2_Node000002_Node000003"><a xlink:title=" ">
<path fill="none" stroke="#63b8ff" d="M721.41,-131.86C696.83,-147.82 660.93,-169.32 627,-183 618.67,-186.36 609.75,-189.34 600.81,-191.96"/>
<polygon fill="#63b8ff" stroke="#63b8ff" points="723.5,-134.68 729.93,-126.26 719.65,-128.83 723.5,-134.68"/>
</a>
</g>
</g>
<!-- Node6 -->
<g id="Node000006" class="node">
<title>Node6</title>
<g id="a_Node000006"><a xlink:href="classcom_1_1teragrep_1_1pth__06_1_1ast_1_1analyze_1_1ScanGroupExpressionTest.html#adf26305b6c1294c828bc17060a43a49d" target="_top" xlink:title=" ">
<polygon fill="white" stroke="#666666" points="627,-174 432,-174 432,-144 627,-144 627,-174"/>
<text text-anchor="start" x="440" y="-162" font-family="Helvetica,sans-Serif" font-size="10.00">com.teragrep.pth_06.ast.analyze.</text>
<text text-anchor="middle" x="529.5" y="-151" font-family="Helvetica,sans-Serif" font-size="10.00">ScanGroupExpressionTest.testEmpty</text>
</a>
</g>
</g>
<!-- Node2&#45;&gt;Node6 -->
<g id="edge6_Node000002_Node000006" class="edge">
<title>Node2&#45;&gt;Node6</title>
<g id="a_edge6_Node000002_Node000006"><a xlink:title=" ">
<path fill="none" stroke="#63b8ff" d="M672.47,-128.23C648.68,-133.39 622.8,-139 599.73,-144"/>
<polygon fill="#63b8ff" stroke="#63b8ff" points="673.49,-131.59 682.52,-126.06 672.01,-124.75 673.49,-131.59"/>
</a>
</g>
</g>
<!-- Node7 -->
<g id="Node000007" class="node">
<title>Node7</title>
<g id="a_Node000007"><a xlink:href="classcom_1_1teragrep_1_1pth__06_1_1ast_1_1analyze_1_1ScanPlanCollectionTest.html#a268359bc8ba40d91897fbe6213444601" target="_top" xlink:title=" ">
<polygon fill="white" stroke="#666666" points="620.5,-126 438.5,-126 438.5,-96 620.5,-96 620.5,-126"/>
<text text-anchor="start" x="446.5" y="-114" font-family="Helvetica,sans-Serif" font-size="10.00">com.teragrep.pth_06.ast.analyze.</text>
<text text-anchor="middle" x="529.5" y="-103" font-family="Helvetica,sans-Serif" font-size="10.00">ScanPlanCollectionTest.testEmpty</text>
</a>
</g>
</g>
<!-- Node2&#45;&gt;Node7 -->
<g id="edge7_Node000002_Node000007" class="edge">
<title>Node2&#45;&gt;Node7</title>
<g id="a_edge7_Node000002_Node000007"><a xlink:title=" ">
<path fill="none" stroke="#63b8ff" d="M652.66,-111C641.96,-111 631.12,-111 620.54,-111"/>
<polygon fill="#63b8ff" stroke="#63b8ff" points="652.86,-114.5 662.86,-111 652.86,-107.5 652.86,-114.5"/>
</a>
</g>
</g>
<!-- Node8 -->
<g id="Node000008" class="node">
<title>Node8</title>
<g id="a_Node000008"><a xlink:href="classcom_1_1teragrep_1_1pth__06_1_1ast_1_1analyze_1_1ScanGroupExpressionTest.html#a68727cd32a45086cd9515632edc2c2a8" target="_top" xlink:title=" ">
<polygon fill="white" stroke="#666666" points="622.5,-78 436.5,-78 436.5,-48 622.5,-48 622.5,-78"/>
<text text-anchor="start" x="444.5" y="-66" font-family="Helvetica,sans-Serif" font-size="10.00">com.teragrep.pth_06.ast.analyze.</text>
<text text-anchor="middle" x="529.5" y="-55" font-family="Helvetica,sans-Serif" font-size="10.00">ScanGroupExpressionTest.testHost</text>
</a>
</g>
</g>
<!-- Node2&#45;&gt;Node8 -->
<g id="edge8_Node000002_Node000008" class="edge">
<title>Node2&#45;&gt;Node8</title>
<g id="a_edge8_Node000002_Node000008"><a xlink:title=" ">
<path fill="none" stroke="#63b8ff" d="M672.47,-93.77C648.68,-88.61 622.8,-83 599.73,-78"/>
<polygon fill="#63b8ff" stroke="#63b8ff" points="672.01,-97.25 682.52,-95.94 673.49,-90.41 672.01,-97.25"/>
</a>
</g>
</g>
<!-- Node9 -->
<g id="Node000009" class="node">
<title>Node9</title>
<g id="a_Node000009"><a xlink:href="classcom_1_1teragrep_1_1pth__06_1_1ast_1_1analyze_1_1ScanPlanCollectionTest.html#a0d0ef932bb1fd4506e5111981517af9e" target="_top" xlink:title=" ">
<polygon fill="white" stroke="#666666" points="619.5,-30 439.5,-30 439.5,0 619.5,0 619.5,-30"/>
<text text-anchor="start" x="447.5" y="-18" font-family="Helvetica,sans-Serif" font-size="10.00">com.teragrep.pth_06.ast.analyze.</text>
<text text-anchor="middle" x="529.5" y="-7" font-family="Helvetica,sans-Serif" font-size="10.00">ScanPlanCollectionTest.testHost</text>
</a>
</g>
</g>
<!-- Node2&#45;&gt;Node9 -->
<g id="edge9_Node000002_Node000009" class="edge">
<title>Node2&#45;&gt;Node9</title>
<g id="a_edge9_Node000002_Node000009"><a xlink:title=" ">
<path fill="none" stroke="#63b8ff" d="M721.41,-90.14C696.83,-74.18 660.93,-52.68 627,-39 618.67,-35.64 609.75,-32.66 600.81,-30.04"/>
<polygon fill="#63b8ff" stroke="#63b8ff" points="719.65,-93.17 729.93,-95.74 723.5,-87.32 719.65,-93.17"/>
</a>
</g>
</g>
<!-- Node3&#45;&gt;Node3 -->
<g id="edge5_Node000003_Node000003" class="edge">
<title>Node3&#45;&gt;Node3</title>
<g id="a_edge5_Node000003_Node000003"><a xlink:title=" ">
<path fill="none" stroke="#63b8ff" d="M568.36,-232.6C563.05,-236.97 550.1,-240 529.5,-240 494.81,-240 481.8,-231.41 490.48,-222.28"/>
<polygon fill="#63b8ff" stroke="#63b8ff" points="571.86,-232.33 568.52,-222.28 564.86,-232.22 571.86,-232.33"/>
</a>
</g>
</g>
<!-- Node4 -->
<g id="Node000004" class="node">
<title>Node4</title>
<g id="a_Node000004"><a xlink:href="classcom_1_1teragrep_1_1pth__06_1_1ast_1_1analyze_1_1ScanPlanCollection.html#a230ff5415613f1607ab36336757e6dc6" target="_top" xlink:title=" ">
<polygon fill="white" stroke="#666666" points="396,-222 216,-222 216,-192 396,-192 396,-222"/>
<text text-anchor="start" x="224" y="-210" font-family="Helvetica,sans-Serif" font-size="10.00">com.teragrep.pth_06.ast.analyze.</text>
<text text-anchor="middle" x="306" y="-199" font-family="Helvetica,sans-Serif" font-size="10.00">ScanPlanCollection.asList</text>
</a>
</g>
</g>
<!-- Node3&#45;&gt;Node4 -->
<g id="edge3_Node000003_Node000004" class="edge">
<title>Node3&#45;&gt;Node4</title>
<g id="a_edge3_Node000003_Node000004"><a xlink:title=" ">
<path fill="none" stroke="#63b8ff" d="M422.12,-207C413.42,-207 404.68,-207 396.12,-207"/>
<polygon fill="#63b8ff" stroke="#63b8ff" points="422.31,-210.5 432.31,-207 422.31,-203.5 422.31,-210.5"/>
</a>
</g>
</g>
<!-- Node5 -->
<g id="Node000005" class="node">
<title>Node5</title>
<g id="a_Node000005"><a xlink:href="classcom_1_1teragrep_1_1pth__06_1_1ast_1_1analyze_1_1ScanPlanCollection.html#abd2e2939c8afa9c31fb37764c5bc7716" target="_top" xlink:title=" ">
<polygon fill="white" stroke="#666666" points="180,-222 0,-222 0,-192 180,-192 180,-222"/>
<text text-anchor="start" x="8" y="-210" font-family="Helvetica,sans-Serif" font-size="10.00">com.teragrep.pth_06.ast.analyze.</text>
<text text-anchor="middle" x="90" y="-199" font-family="Helvetica,sans-Serif" font-size="10.00">ScanPlanCollection.asViews</text>
</a>
</g>
</g>
<!-- Node4&#45;&gt;Node5 -->
<g id="edge4_Node000004_Node000005" class="edge">
<title>Node4&#45;&gt;Node5</title>
<g id="a_edge4_Node000004_Node000005"><a xlink:title=" ">
<path fill="none" stroke="#63b8ff" d="M205.77,-207C197.19,-207 188.55,-207 180.06,-207"/>
<polygon fill="#63b8ff" stroke="#63b8ff" points="205.79,-210.5 215.79,-207 205.79,-203.5 205.79,-210.5"/>
</a>
</g>
</g>
</g>
</svg>
