<?xml version="1.0" encoding="UTF-8" standalone="no"?>
<!DOCTYPE svg PUBLIC "-//W3C//DTD SVG 1.1//EN"
 "http://www.w3.org/Graphics/SVG/1.1/DTD/svg11.dtd">
<!-- Generated by graphviz version 2.43.0 (0)
 -->
<!-- Title: com.teragrep.pth_06.ast.transform.OptimizedAST Pages: 1 -->
<svg width="476pt" height="86pt"
 viewBox="0.00 0.00 476.00 86.00" xmlns="http://www.w3.org/2000/svg" xmlns:xlink="http://www.w3.org/1999/xlink">
<g id="graph0" class="graph" transform="scale(1 1) rotate(0) translate(4 82)">
<title>com.teragrep.pth_06.ast.transform.OptimizedAST</title>
<!-- Node1 -->
<g id="Node000001" class="node">
<title>Node1</title>
<g id="a_Node000001"><a xlink:title=" ">
<polygon fill="#999999" stroke="#666666" points="468,-54 278,-54 278,-24 468,-24 468,-54"/>
<text text-anchor="start" x="286" y="-42" font-family="Helvetica,sans-Serif" font-size="10.00">com.teragrep.pth_06.ast.transform.</text>
<text text-anchor="middle" x="373" y="-31" font-family="Helvetica,sans-Serif" font-size="10.00">OptimizedAST</text>
</a>
</g>
</g>
<!-- Node2 -->
<g id="Node000002" class="node">
<title>Node2</title>
<g id="a_Node000002"><a xlink:href="interfacecom_1_1teragrep_1_1pth__06_1_1ast_1_1transform_1_1ExpressionTransformation.html" target="_top" xlink:title=" ">
<polygon fill="white" stroke="#666666" points="219,-78 0,-78 0,-48 219,-48 219,-78"/>
<text text-anchor="start" x="8" y="-66" font-family="Helvetica,sans-Serif" font-size="10.00">com.teragrep.pth_06.ast.transform.</text>
<text text-anchor="middle" x="109.5" y="-55" font-family="Helvetica,sans-Serif" font-size="10.00">ExpressionTransformation&lt; Expression &gt;</text>
</a>
</g>
</g>
<!-- Node2&#45;&gt;Node1 -->
<g id="edge1_Node000001_Node000002" class="edge">
<title>Node2&#45;&gt;Node1</title>
<g id="a_edge1_Node000001_Node000002"><a xlink:title=" ">
<path fill="none" stroke="#63b8ff" d="M229.24,-52.1C245.54,-50.61 262.09,-49.09 277.87,-47.64"/>
<polygon fill="#63b8ff" stroke="#63b8ff" points="228.77,-48.63 219.13,-53.03 229.41,-55.6 228.77,-48.63"/>
</a>
</g>
</g>
<!-- Node3 -->
<g id="Node000003" class="node">
<title>Node3</title>
<g id="a_Node000003"><a xlink:href="interfacecom_1_1teragrep_1_1pth__06_1_1ast_1_1Expression.html" target="_top" xlink:title=" ">
<polygon fill="white" stroke="#666666" points="179,-30 40,-30 40,0 179,0 179,-30"/>
<text text-anchor="start" x="48" y="-18" font-family="Helvetica,sans-Serif" font-size="10.00">com.teragrep.pth_06.ast.</text>
<text text-anchor="middle" x="109.5" y="-7" font-family="Helvetica,sans-Serif" font-size="10.00">Expression</text>
</a>
</g>
</g>
<!-- Node3&#45;&gt;Node1 -->
<g id="edge2_Node000001_Node000003" class="edge">
<title>Node3&#45;&gt;Node1</title>
<g id="a_edge2_Node000001_Node000003"><a xlink:title=" ">
<path fill="none" stroke="#9a32cd" stroke-dasharray="5,2" d="M189.28,-22.23C217.12,-24.79 248.71,-27.68 277.7,-30.35"/>
<polygon fill="#9a32cd" stroke="#9a32cd" points="189.48,-18.73 179.21,-21.31 188.84,-25.71 189.48,-18.73"/>
</a>
</g>
<text text-anchor="middle" x="248.5" y="-31" font-family="Helvetica,sans-Serif" font-size="10.00" fill="grey"> root</text>
</g>
</g>
</svg>
