<?xml version="1.0" encoding="UTF-8" standalone="no"?>
<!DOCTYPE svg PUBLIC "-//W3C//DTD SVG 1.1//EN"
 "http://www.w3.org/Graphics/SVG/1.1/DTD/svg11.dtd">
<!-- Generated by graphviz version 2.43.0 (0)
 -->
<!-- Title: com.teragrep.pth_06.ast.transform.WithDefaultValues.orWithDefaults Pages: 1 -->
<svg width="938pt" height="324pt"
 viewBox="0.00 0.00 938.00 324.00" xmlns="http://www.w3.org/2000/svg" xmlns:xlink="http://www.w3.org/1999/xlink">
<g id="graph0" class="graph" transform="scale(1 1) rotate(0) translate(4 320)">
<title>com.teragrep.pth_06.ast.transform.WithDefaultValues.orWithDefaults</title>
<!-- Node1 -->
<g id="Node000001" class="node">
<title>Node1</title>
<g id="a_Node000001"><a xlink:title=" ">
<polygon fill="#999999" stroke="#666666" points="930,-238.5 740,-238.5 740,-208.5 930,-208.5 930,-238.5"/>
<text text-anchor="start" x="748" y="-226.5" font-family="Helvetica,sans-Serif" font-size="10.00">com.teragrep.pth_06.ast.transform.</text>
<text text-anchor="middle" x="835" y="-215.5" font-family="Helvetica,sans-Serif" font-size="10.00">WithDefaultValues.orWithDefaults</text>
</a>
</g>
</g>
<!-- Node2 -->
<g id="Node000002" class="node">
<title>Node2</title>
<g id="a_Node000002"><a xlink:href="classcom_1_1teragrep_1_1pth__06_1_1ast_1_1transform_1_1WithDefaultValues.html#a371bd3fba44c9f320d2b39f5e60cb82c" target="_top" xlink:title=" ">
<polygon fill="white" stroke="#666666" points="704,-244 485,-244 485,-203 704,-203 704,-244"/>
<text text-anchor="start" x="493" y="-232" font-family="Helvetica,sans-Serif" font-size="10.00">com.teragrep.pth_06.ast.transform.</text>
<text text-anchor="start" x="493" y="-221" font-family="Helvetica,sans-Serif" font-size="10.00">WithDefaultValues.recursiveWithDefaults</text>
<text text-anchor="middle" x="594.5" y="-210" font-family="Helvetica,sans-Serif" font-size="10.00">Expression</text>
</a>
</g>
</g>
<!-- Node1&#45;&gt;Node2 -->
<g id="edge1_Node000001_Node000002" class="edge">
<title>Node1&#45;&gt;Node2</title>
<g id="a_edge1_Node000001_Node000002"><a xlink:title=" ">
<path fill="none" stroke="#63b8ff" d="M729.5,-216.8C721.06,-216.74 712.52,-216.74 704.05,-216.77"/>
<polygon fill="#63b8ff" stroke="#63b8ff" points="729.71,-220.3 739.74,-216.88 729.77,-213.3 729.71,-220.3"/>
</a>
</g>
</g>
<!-- Node2&#45;&gt;Node1 -->
<g id="edge4_Node000002_Node000001" class="edge">
<title>Node2&#45;&gt;Node1</title>
<g id="a_edge4_Node000002_Node000001"><a xlink:title=" ">
<path fill="none" stroke="#63b8ff" d="M714.13,-230.25C722.72,-230.25 731.32,-230.21 739.74,-230.12"/>
<polygon fill="#63b8ff" stroke="#63b8ff" points="714.06,-226.75 704.05,-230.23 714.04,-233.75 714.06,-226.75"/>
</a>
</g>
</g>
<!-- Node3 -->
<g id="Node000003" class="node">
<title>Node3</title>
<g id="a_Node000003"><a xlink:href="classcom_1_1teragrep_1_1pth__06_1_1ast_1_1transform_1_1WithDefaultValues.html#ac53e9da4d27289a430152a8b67aa7e6b" target="_top" xlink:title=" ">
<polygon fill="white" stroke="#666666" points="449,-238.5 257,-238.5 257,-208.5 449,-208.5 449,-238.5"/>
<text text-anchor="start" x="265" y="-226.5" font-family="Helvetica,sans-Serif" font-size="10.00">com.teragrep.pth_06.ast.transform.</text>
<text text-anchor="middle" x="353" y="-215.5" font-family="Helvetica,sans-Serif" font-size="10.00">WithDefaultValues.andWithDefaults</text>
</a>
</g>
</g>
<!-- Node2&#45;&gt;Node3 -->
<g id="edge2_Node000002_Node000003" class="edge">
<title>Node2&#45;&gt;Node3</title>
<g id="a_edge2_Node000002_Node000003"><a xlink:title=" ">
<path fill="none" stroke="#63b8ff" d="M474.91,-216.75C466.34,-216.75 457.76,-216.79 449.34,-216.88"/>
<polygon fill="#63b8ff" stroke="#63b8ff" points="474.95,-220.25 484.96,-216.78 474.97,-213.25 474.95,-220.25"/>
</a>
</g>
</g>
<!-- Node4 -->
<g id="Node000004" class="node">
<title>Node4</title>
<g id="a_Node000004"><a xlink:href="classcom_1_1teragrep_1_1pth__06_1_1ast_1_1transform_1_1WithDefaultValues.html#a3cd2907c54910cabd6d8cb52ff49215f" target="_top" xlink:title=" ">
<polygon fill="white" stroke="#666666" points="448,-172.5 258,-172.5 258,-142.5 448,-142.5 448,-172.5"/>
<text text-anchor="start" x="266" y="-160.5" font-family="Helvetica,sans-Serif" font-size="10.00">com.teragrep.pth_06.ast.transform.</text>
<text text-anchor="middle" x="353" y="-149.5" font-family="Helvetica,sans-Serif" font-size="10.00">WithDefaultValues.transformed</text>
</a>
</g>
</g>
<!-- Node2&#45;&gt;Node4 -->
<g id="edge5_Node000002_Node000004" class="edge">
<title>Node2&#45;&gt;Node4</title>
<g id="a_edge5_Node000002_Node000004"><a xlink:title=" ">
<path fill="none" stroke="#63b8ff" d="M509.27,-200.29C475.86,-191.08 438.39,-180.76 408.64,-172.56"/>
<polygon fill="#63b8ff" stroke="#63b8ff" points="508.46,-203.7 519.03,-202.98 510.32,-196.95 508.46,-203.7"/>
</a>
</g>
</g>
<!-- Node3&#45;&gt;Node2 -->
<g id="edge3_Node000003_Node000002" class="edge">
<title>Node3&#45;&gt;Node2</title>
<g id="a_edge3_Node000003_Node000002"><a xlink:title=" ">
<path fill="none" stroke="#63b8ff" d="M459.57,-230.21C467.99,-230.26 476.51,-230.26 484.96,-230.22"/>
<polygon fill="#63b8ff" stroke="#63b8ff" points="459.37,-226.71 449.34,-230.12 459.32,-233.71 459.37,-226.71"/>
</a>
</g>
</g>
<!-- Node4&#45;&gt;Node4 -->
<g id="edge12_Node000004_Node000004" class="edge">
<title>Node4&#45;&gt;Node4</title>
<g id="a_edge12_Node000004_Node000004"><a xlink:title=" ">
<path fill="none" stroke="#63b8ff" d="M395.01,-183.1C389.27,-187.47 375.27,-190.5 353,-190.5 315.5,-190.5 301.44,-181.91 310.81,-172.78"/>
<polygon fill="#63b8ff" stroke="#63b8ff" points="398.51,-182.83 395.19,-172.78 391.51,-182.71 398.51,-182.83"/>
</a>
</g>
</g>
<!-- Node5 -->
<g id="Node000005" class="node">
<title>Node5</title>
<g id="a_Node000005"><a xlink:href="classcom_1_1teragrep_1_1pth__06_1_1ast_1_1transform_1_1WithDefaultValuesTest.html#a233224ccea116a4325d533bb23639f57" target="_top" xlink:title=" ">
<polygon fill="white" stroke="#666666" points="221,-316 0,-316 0,-275 221,-275 221,-316"/>
<text text-anchor="start" x="8" y="-304" font-family="Helvetica,sans-Serif" font-size="10.00">com.teragrep.pth_06.ast.transform.</text>
<text text-anchor="start" x="8" y="-293" font-family="Helvetica,sans-Serif" font-size="10.00">WithDefaultValuesTest.testAndExpression</text>
<text text-anchor="middle" x="110.5" y="-282" font-family="Helvetica,sans-Serif" font-size="10.00">Children</text>
</a>
</g>
</g>
<!-- Node4&#45;&gt;Node5 -->
<g id="edge6_Node000004_Node000005" class="edge">
<title>Node4&#45;&gt;Node5</title>
<g id="a_edge6_Node000004_Node000005"><a xlink:title=" ">
<path fill="none" stroke="#63b8ff" d="M292.33,-176.73C279.7,-182.66 267.14,-190.17 257,-199.5 232.41,-222.13 247.2,-244.77 221,-265.5 216.52,-269.05 211.65,-272.18 206.53,-274.93"/>
<polygon fill="#63b8ff" stroke="#63b8ff" points="293.76,-179.92 301.5,-172.68 290.93,-173.51 293.76,-179.92"/>
</a>
</g>
</g>
<!-- Node6 -->
<g id="Node000006" class="node">
<title>Node6</title>
<g id="a_Node000006"><a xlink:href="classcom_1_1teragrep_1_1pth__06_1_1ast_1_1transform_1_1WithDefaultValuesTest.html#ac16dde1dbe11d8ceb7d2f66f569fa095" target="_top" xlink:title=" ">
<polygon fill="white" stroke="#666666" points="221,-256.5 0,-256.5 0,-226.5 221,-226.5 221,-256.5"/>
<text text-anchor="start" x="8" y="-244.5" font-family="Helvetica,sans-Serif" font-size="10.00">com.teragrep.pth_06.ast.transform.</text>
<text text-anchor="middle" x="110.5" y="-233.5" font-family="Helvetica,sans-Serif" font-size="10.00">WithDefaultValuesTest.testDefaultEarliest</text>
</a>
</g>
</g>
<!-- Node4&#45;&gt;Node6 -->
<g id="edge7_Node000004_Node000006" class="edge">
<title>Node4&#45;&gt;Node6</title>
<g id="a_edge7_Node000004_Node000006"><a xlink:title=" ">
<path fill="none" stroke="#63b8ff" d="M307.04,-176.86C291.15,-183.83 273.21,-191.87 257,-199.5 240.81,-207.12 237.87,-211.54 221,-217.5 211.46,-220.87 201.27,-223.86 191.1,-226.49"/>
<polygon fill="#63b8ff" stroke="#63b8ff" points="308.87,-179.88 316.63,-172.66 306.07,-173.46 308.87,-179.88"/>
</a>
</g>
</g>
<!-- Node7 -->
<g id="Node000007" class="node">
<title>Node7</title>
<g id="a_Node000007"><a xlink:href="classcom_1_1teragrep_1_1pth__06_1_1ast_1_1transform_1_1WithDefaultValuesTest.html#ab174088e0621303a1257586f63107e8b" target="_top" xlink:title=" ">
<polygon fill="white" stroke="#666666" points="216.5,-208 4.5,-208 4.5,-167 216.5,-167 216.5,-208"/>
<text text-anchor="start" x="12.5" y="-196" font-family="Helvetica,sans-Serif" font-size="10.00">com.teragrep.pth_06.ast.transform.</text>
<text text-anchor="start" x="12.5" y="-185" font-family="Helvetica,sans-Serif" font-size="10.00">WithDefaultValuesTest.testDefaultIndex</text>
<text text-anchor="middle" x="110.5" y="-174" font-family="Helvetica,sans-Serif" font-size="10.00">Expression</text>
</a>
</g>
</g>
<!-- Node4&#45;&gt;Node7 -->
<g id="edge8_Node000004_Node000007" class="edge">
<title>Node4&#45;&gt;Node7</title>
<g id="a_edge8_Node000004_Node000007"><a xlink:title=" ">
<path fill="none" stroke="#63b8ff" d="M248.05,-170.47C237.63,-171.77 227.04,-173.09 216.61,-174.39"/>
<polygon fill="#63b8ff" stroke="#63b8ff" points="248.49,-173.94 257.98,-169.23 247.63,-166.99 248.49,-173.94"/>
</a>
</g>
</g>
<!-- Node8 -->
<g id="Node000008" class="node">
<title>Node8</title>
<g id="a_Node000008"><a xlink:href="classcom_1_1teragrep_1_1pth__06_1_1ast_1_1transform_1_1WithDefaultValuesTest.html#acb45ad457a3b9de406a5227c5f544a6f" target="_top" xlink:title=" ">
<polygon fill="white" stroke="#666666" points="212,-149 9,-149 9,-108 212,-108 212,-149"/>
<text text-anchor="start" x="17" y="-137" font-family="Helvetica,sans-Serif" font-size="10.00">com.teragrep.pth_06.ast.transform.</text>
<text text-anchor="start" x="17" y="-126" font-family="Helvetica,sans-Serif" font-size="10.00">WithDefaultValuesTest.testDefaultsDo</text>
<text text-anchor="middle" x="110.5" y="-115" font-family="Helvetica,sans-Serif" font-size="10.00">NotOverwriteExisting</text>
</a>
</g>
</g>
<!-- Node4&#45;&gt;Node8 -->
<g id="edge9_Node000004_Node000008" class="edge">
<title>Node4&#45;&gt;Node8</title>
<g id="a_edge9_Node000004_Node000008"><a xlink:title=" ">
<path fill="none" stroke="#63b8ff" d="M247.7,-144.92C235.92,-143.5 223.94,-142.06 212.2,-140.64"/>
<polygon fill="#63b8ff" stroke="#63b8ff" points="247.64,-148.44 257.98,-146.16 248.47,-141.49 247.64,-148.44"/>
</a>
</g>
</g>
<!-- Node9 -->
<g id="Node000009" class="node">
<title>Node9</title>
<g id="a_Node000009"><a xlink:href="classcom_1_1teragrep_1_1pth__06_1_1ast_1_1transform_1_1WithDefaultValuesTest.html#a820fe25e5b150406466c6ab722ee3916" target="_top" xlink:title=" ">
<polygon fill="white" stroke="#666666" points="205.5,-89.5 15.5,-89.5 15.5,-59.5 205.5,-59.5 205.5,-89.5"/>
<text text-anchor="start" x="23.5" y="-77.5" font-family="Helvetica,sans-Serif" font-size="10.00">com.teragrep.pth_06.ast.transform.</text>
<text text-anchor="middle" x="110.5" y="-66.5" font-family="Helvetica,sans-Serif" font-size="10.00">WithDefaultValuesTest.testLatest</text>
</a>
</g>
</g>
<!-- Node4&#45;&gt;Node9 -->
<g id="edge10_Node000004_Node000009" class="edge">
<title>Node4&#45;&gt;Node9</title>
<g id="a_edge10_Node000004_Node000009"><a xlink:title=" ">
<path fill="none" stroke="#63b8ff" d="M313.44,-138.07C287.75,-125.72 252.96,-110.11 221,-99.5 209.9,-95.81 197.98,-92.48 186.25,-89.54"/>
<polygon fill="#63b8ff" stroke="#63b8ff" points="311.95,-141.24 322.47,-142.46 315.01,-134.94 311.95,-141.24"/>
</a>
</g>
</g>
<!-- Node10 -->
<g id="Node000010" class="node">
<title>Node10</title>
<g id="a_Node000010"><a xlink:href="classcom_1_1teragrep_1_1pth__06_1_1ast_1_1transform_1_1WithDefaultValuesTest.html#a4dced6e16be7521206c7dabadc0b977a" target="_top" xlink:title=" ">
<polygon fill="white" stroke="#666666" points="217,-41 4,-41 4,0 217,0 217,-41"/>
<text text-anchor="start" x="12" y="-29" font-family="Helvetica,sans-Serif" font-size="10.00">com.teragrep.pth_06.ast.transform.</text>
<text text-anchor="start" x="12" y="-18" font-family="Helvetica,sans-Serif" font-size="10.00">WithDefaultValuesTest.testOrExpression</text>
<text text-anchor="middle" x="110.5" y="-7" font-family="Helvetica,sans-Serif" font-size="10.00">Children</text>
</a>
</g>
</g>
<!-- Node4&#45;&gt;Node10 -->
<g id="edge11_Node000004_Node000010" class="edge">
<title>Node4&#45;&gt;Node10</title>
<g id="a_edge11_Node000004_Node000010"><a xlink:title=" ">
<path fill="none" stroke="#63b8ff" d="M330.49,-135.03C306.1,-110.8 264.1,-72.73 221,-50.5 214.17,-46.98 206.88,-43.83 199.42,-41.03"/>
<polygon fill="#63b8ff" stroke="#63b8ff" points="328.24,-137.73 337.77,-142.37 333.21,-132.8 328.24,-137.73"/>
</a>
</g>
</g>
</g>
</svg>
