<?xml version="1.0" encoding="UTF-8" standalone="no"?>
<!DOCTYPE svg PUBLIC "-//W3C//DTD SVG 1.1//EN"
 "http://www.w3.org/Graphics/SVG/1.1/DTD/svg11.dtd">
<!-- Generated by graphviz version 2.43.0 (0)
 -->
<!-- Title: com.teragrep.pth_06.planner.HBaseQueryImpl.close Pages: 1 -->
<svg width="603pt" height="86pt"
 viewBox="0.00 0.00 603.00 86.00" xmlns="http://www.w3.org/2000/svg" xmlns:xlink="http://www.w3.org/1999/xlink">
<g id="graph0" class="graph" transform="scale(1 1) rotate(0) translate(4 82)">
<title>com.teragrep.pth_06.planner.HBaseQueryImpl.close</title>
<!-- Node1 -->
<g id="Node000001" class="node">
<title>Node1</title>
<g id="a_Node000001"><a xlink:title="Closes all open scans in the hourly slices.">
<polygon fill="#999999" stroke="#666666" points="160,-54 0,-54 0,-24 160,-24 160,-54"/>
<text text-anchor="start" x="8" y="-42" font-family="Helvetica,sans-Serif" font-size="10.00">com.teragrep.pth_06.planner.</text>
<text text-anchor="middle" x="80" y="-31" font-family="Helvetica,sans-Serif" font-size="10.00">HBaseQueryImpl.close</text>
</a>
</g>
</g>
<!-- Node2 -->
<g id="Node000002" class="node">
<title>Node2</title>
<g id="a_Node000002"><a xlink:href="interfacecom_1_1teragrep_1_1pth__06_1_1planner_1_1HourlySlices.html#aa272aa7ce7a5abb0196768dfa472e1d1" target="_top" xlink:title=" ">
<polygon fill="white" stroke="#666666" points="356,-78 196,-78 196,-48 356,-48 356,-78"/>
<text text-anchor="start" x="204" y="-66" font-family="Helvetica,sans-Serif" font-size="10.00">com.teragrep.pth_06.planner.</text>
<text text-anchor="middle" x="276" y="-55" font-family="Helvetica,sans-Serif" font-size="10.00">HourlySlices.close</text>
</a>
</g>
</g>
<!-- Node1&#45;&gt;Node2 -->
<g id="edge1_Node000001_Node000002" class="edge">
<title>Node1&#45;&gt;Node2</title>
<g id="a_edge1_Node000001_Node000002"><a xlink:title=" ">
<path fill="none" stroke="#63b8ff" d="M160.19,-48.8C168.62,-49.84 177.24,-50.91 185.78,-51.96"/>
<polygon fill="#63b8ff" stroke="#63b8ff" points="185.4,-55.44 195.75,-53.2 186.26,-48.49 185.4,-55.44"/>
</a>
</g>
</g>
<!-- Node3 -->
<g id="Node000003" class="node">
<title>Node3</title>
<g id="a_Node000003"><a xlink:href="classcom_1_1teragrep_1_1pth__06_1_1planner_1_1HBaseQueryImpl.html#a5a99d0c15e25eab70b9ae20662d988c9" target="_top" xlink:title=" ">
<polygon fill="white" stroke="#666666" points="356,-30 196,-30 196,0 356,0 356,-30"/>
<text text-anchor="start" x="204" y="-18" font-family="Helvetica,sans-Serif" font-size="10.00">com.teragrep.pth_06.planner.</text>
<text text-anchor="middle" x="276" y="-7" font-family="Helvetica,sans-Serif" font-size="10.00">HBaseQueryImpl.isOpen</text>
</a>
</g>
</g>
<!-- Node1&#45;&gt;Node3 -->
<g id="edge2_Node000001_Node000003" class="edge">
<title>Node1&#45;&gt;Node3</title>
<g id="a_edge2_Node000001_Node000003"><a xlink:title=" ">
<path fill="none" stroke="#63b8ff" d="M160.19,-29.2C168.62,-28.16 177.24,-27.09 185.78,-26.04"/>
<polygon fill="#63b8ff" stroke="#63b8ff" points="186.26,-29.51 195.75,-24.8 185.4,-22.56 186.26,-29.51"/>
</a>
</g>
</g>
<!-- Node4 -->
<g id="Node000004" class="node">
<title>Node4</title>
<g id="a_Node000004"><a xlink:href="interfacecom_1_1teragrep_1_1pth__06_1_1Stubbable.html#a0901c0a7cde13ff306d455e4009f01cb" target="_top" xlink:title=" ">
<polygon fill="white" stroke="#666666" points="595,-24.5 392,-24.5 392,-5.5 595,-5.5 595,-24.5"/>
<text text-anchor="middle" x="493.5" y="-12.5" font-family="Helvetica,sans-Serif" font-size="10.00">com.teragrep.pth_06.Stubbable.isStub</text>
</a>
</g>
</g>
<!-- Node3&#45;&gt;Node4 -->
<g id="edge3_Node000003_Node000004" class="edge">
<title>Node3&#45;&gt;Node4</title>
<g id="a_edge3_Node000003_Node000004"><a xlink:title=" ">
<path fill="none" stroke="#63b8ff" d="M356.02,-15C364.4,-15 373.02,-15 381.67,-15"/>
<polygon fill="#63b8ff" stroke="#63b8ff" points="381.83,-18.5 391.83,-15 381.83,-11.5 381.83,-18.5"/>
</a>
</g>
</g>
</g>
</svg>
