<?xml version="1.0" encoding="UTF-8" standalone="no"?>
<!DOCTYPE svg PUBLIC "-//W3C//DTD SVG 1.1//EN"
 "http://www.w3.org/Graphics/SVG/1.1/DTD/svg11.dtd">
<!-- Generated by graphviz version 2.43.0 (0)
 -->
<!-- Title: com.teragrep.pth_06.planner.HBaseQueryImpl.earliest Pages: 1 -->
<svg width="590pt" height="77pt"
 viewBox="0.00 0.00 590.00 77.00" xmlns="http://www.w3.org/2000/svg" xmlns:xlink="http://www.w3.org/1999/xlink">
<g id="graph0" class="graph" transform="scale(1 1) rotate(0) translate(4 73)">
<title>com.teragrep.pth_06.planner.HBaseQueryImpl.earliest</title>
<!-- Node1 -->
<g id="Node000001" class="node">
<title>Node1</title>
<g id="a_Node000001"><a xlink:title="Finds the earliest offset available in the scan plan collection, formed from the query.">
<polygon fill="#999999" stroke="#666666" points="582,-51 422,-51 422,-21 582,-21 582,-51"/>
<text text-anchor="start" x="430" y="-39" font-family="Helvetica,sans-Serif" font-size="10.00">com.teragrep.pth_06.planner.</text>
<text text-anchor="middle" x="502" y="-28" font-family="Helvetica,sans-Serif" font-size="10.00">HBaseQueryImpl.earliest</text>
</a>
</g>
</g>
<!-- Node1&#45;&gt;Node1 -->
<g id="edge1_Node000001_Node000001" class="edge">
<title>Node1&#45;&gt;Node1</title>
<g id="a_edge1_Node000001_Node000001"><a xlink:title=" ">
<path fill="none" stroke="#63b8ff" d="M538.76,-61.6C533.74,-65.97 521.48,-69 502,-69 469.19,-69 456.88,-60.41 465.09,-51.28"/>
<polygon fill="#63b8ff" stroke="#63b8ff" points="542.26,-61.33 538.91,-51.28 535.26,-61.22 542.26,-61.33"/>
</a>
</g>
</g>
<!-- Node2 -->
<g id="Node000002" class="node">
<title>Node2</title>
<g id="a_Node000002"><a xlink:href="classcom_1_1teragrep_1_1pth__06_1_1planner_1_1HBaseQueryImpl.html#a5cc16609895c644b18d504dc49cbcd64" target="_top" xlink:title="Queries results form hbase until the batch limit is reached and updates latest.">
<polygon fill="white" stroke="#666666" points="160,-51 0,-51 0,-21 160,-21 160,-51"/>
<text text-anchor="start" x="8" y="-39" font-family="Helvetica,sans-Serif" font-size="10.00">com.teragrep.pth_06.planner.</text>
<text text-anchor="middle" x="80" y="-28" font-family="Helvetica,sans-Serif" font-size="10.00">HBaseQueryImpl.latest</text>
</a>
</g>
</g>
<!-- Node1&#45;&gt;Node2 -->
<g id="edge2_Node000001_Node000002" class="edge">
<title>Node1&#45;&gt;Node2</title>
<g id="a_edge2_Node000001_Node000002"><a xlink:title=" ">
<path fill="none" stroke="#63b8ff" d="M411.66,-38.56C402.99,-38.74 394.33,-38.89 386,-39 301.56,-40.1 280.44,-40.1 196,-39 184.42,-38.85 172.18,-38.61 160.18,-38.34"/>
<polygon fill="#63b8ff" stroke="#63b8ff" points="411.9,-42.05 421.82,-38.34 411.75,-35.06 411.9,-42.05"/>
</a>
</g>
</g>
<!-- Node3 -->
<g id="Node000003" class="node">
<title>Node3</title>
<g id="a_Node000003"><a xlink:href="classcom_1_1teragrep_1_1pth__06_1_1planner_1_1HBaseQueryImpl.html#a3e76b78ec59462795de6428b6e549cab" target="_top" xlink:title=" ">
<polygon fill="white" stroke="#666666" points="386,-30 196,-30 196,0 386,0 386,-30"/>
<text text-anchor="start" x="204" y="-18" font-family="Helvetica,sans-Serif" font-size="10.00">com.teragrep.pth_06.planner.</text>
<text text-anchor="middle" x="291" y="-7" font-family="Helvetica,sans-Serif" font-size="10.00">HBaseQueryImpl.mostRecentOffset</text>
</a>
</g>
</g>
<!-- Node1&#45;&gt;Node3 -->
<g id="edge4_Node000001_Node000003" class="edge">
<title>Node1&#45;&gt;Node3</title>
<g id="a_edge4_Node000001_Node000003"><a xlink:title=" ">
<path fill="none" stroke="#63b8ff" d="M411.76,-27.03C403.31,-26.18 394.73,-25.32 386.24,-24.47"/>
<polygon fill="#63b8ff" stroke="#63b8ff" points="411.69,-30.54 421.99,-28.06 412.39,-23.58 411.69,-30.54"/>
</a>
</g>
</g>
<!-- Node2&#45;&gt;Node2 -->
<g id="edge3_Node000002_Node000002" class="edge">
<title>Node2&#45;&gt;Node2</title>
<g id="a_edge3_Node000002_Node000002"><a xlink:title=" ">
<path fill="none" stroke="#63b8ff" d="M116.76,-61.6C111.74,-65.97 99.48,-69 80,-69 47.19,-69 34.88,-60.41 43.09,-51.28"/>
<polygon fill="#63b8ff" stroke="#63b8ff" points="120.26,-61.33 116.91,-51.28 113.26,-61.22 120.26,-61.33"/>
</a>
</g>
</g>
<!-- Node3&#45;&gt;Node2 -->
<g id="edge5_Node000003_Node000002" class="edge">
<title>Node3&#45;&gt;Node2</title>
<g id="a_edge5_Node000003_Node000002"><a xlink:title=" ">
<path fill="none" stroke="#63b8ff" d="M185.81,-25.47C177.2,-26.33 168.6,-27.2 160.22,-28.04"/>
<polygon fill="#63b8ff" stroke="#63b8ff" points="186.29,-28.94 195.89,-24.46 185.59,-21.97 186.29,-28.94"/>
</a>
</g>
</g>
</g>
</svg>
