<?xml version="1.0" encoding="UTF-8" standalone="no"?>
<!DOCTYPE svg PUBLIC "-//W3C//DTD SVG 1.1//EN"
 "http://www.w3.org/Graphics/SVG/1.1/DTD/svg11.dtd">
<!-- Generated by graphviz version 2.43.0 (0)
 -->
<!-- Title: com.teragrep.pth_06.ast.analyze.ScanPlan.rangeFromEarliest Pages: 1 -->
<svg width="409pt" height="86pt"
 viewBox="0.00 0.00 409.00 86.00" xmlns="http://www.w3.org/2000/svg" xmlns:xlink="http://www.w3.org/1999/xlink">
<g id="graph0" class="graph" transform="scale(1 1) rotate(0) translate(4 82)">
<title>com.teragrep.pth_06.ast.analyze.ScanPlan.rangeFromEarliest</title>
<!-- Node1 -->
<g id="Node000001" class="node">
<title>Node1</title>
<g id="a_Node000001"><a xlink:title="new ScanRange with new earliest value if inside the scope, otherwise no changes">
<polygon fill="#999999" stroke="#666666" points="401,-54 221,-54 221,-24 401,-24 401,-54"/>
<text text-anchor="start" x="229" y="-42" font-family="Helvetica,sans-Serif" font-size="10.00">com.teragrep.pth_06.ast.analyze.</text>
<text text-anchor="middle" x="311" y="-31" font-family="Helvetica,sans-Serif" font-size="10.00">ScanPlan.rangeFromEarliest</text>
</a>
</g>
</g>
<!-- Node2 -->
<g id="Node000002" class="node">
<title>Node2</title>
<g id="a_Node000002"><a xlink:href="classcom_1_1teragrep_1_1pth__06_1_1ast_1_1analyze_1_1ScanPlanImplTest.html#aedf710235069721648199f1be502d03d" target="_top" xlink:title=" ">
<polygon fill="white" stroke="#666666" points="185,-78 0,-78 0,-48 185,-48 185,-78"/>
<text text-anchor="start" x="8" y="-66" font-family="Helvetica,sans-Serif" font-size="10.00">com.teragrep.pth_06.ast.analyze.</text>
<text text-anchor="middle" x="92.5" y="-55" font-family="Helvetica,sans-Serif" font-size="10.00">ScanPlanImplTest.testFromEarliest</text>
</a>
</g>
</g>
<!-- Node1&#45;&gt;Node2 -->
<g id="edge1_Node000001_Node000002" class="edge">
<title>Node1&#45;&gt;Node2</title>
<g id="a_edge1_Node000001_Node000002"><a xlink:title=" ">
<path fill="none" stroke="#63b8ff" d="M210.7,-50.01C202.16,-50.95 193.54,-51.91 185.05,-52.85"/>
<polygon fill="#63b8ff" stroke="#63b8ff" points="211.14,-53.48 220.69,-48.9 210.37,-46.52 211.14,-53.48"/>
</a>
</g>
</g>
<!-- Node3 -->
<g id="Node000003" class="node">
<title>Node3</title>
<g id="a_Node000003"><a xlink:href="classcom_1_1teragrep_1_1pth__06_1_1ast_1_1analyze_1_1ScanPlanView.html#ae82b27c34e77ba1efd83f072c8cad179" target="_top" xlink:title="Returns a new ScanRangeView from an updated offset start point.">
<polygon fill="white" stroke="#666666" points="182.5,-30 2.5,-30 2.5,0 182.5,0 182.5,-30"/>
<text text-anchor="start" x="10.5" y="-18" font-family="Helvetica,sans-Serif" font-size="10.00">com.teragrep.pth_06.ast.analyze.</text>
<text text-anchor="middle" x="92.5" y="-7" font-family="Helvetica,sans-Serif" font-size="10.00">ScanPlanView.viewFromOffset</text>
</a>
</g>
</g>
<!-- Node1&#45;&gt;Node3 -->
<g id="edge2_Node000001_Node000003" class="edge">
<title>Node1&#45;&gt;Node3</title>
<g id="a_edge2_Node000001_Node000003"><a xlink:title=" ">
<path fill="none" stroke="#63b8ff" d="M210.61,-27.98C201.27,-26.95 191.84,-25.9 182.6,-24.88"/>
<polygon fill="#63b8ff" stroke="#63b8ff" points="210.37,-31.48 220.69,-29.1 211.14,-24.52 210.37,-31.48"/>
</a>
</g>
</g>
</g>
</svg>
