<?xml version="1.0" encoding="UTF-8" standalone="no"?>
<!DOCTYPE svg PUBLIC "-//W3C//DTD SVG 1.1//EN"
 "http://www.w3.org/Graphics/SVG/1.1/DTD/svg11.dtd">
<!-- Generated by graphviz version 2.43.0 (0)
 -->
<!-- Title: com.teragrep.pth_06.planner.walker.conditions.QueryCondition Pages: 1 -->
<svg width="540pt" height="566pt"
 viewBox="0.00 0.00 540.00 566.00" xmlns="http://www.w3.org/2000/svg" xmlns:xlink="http://www.w3.org/1999/xlink">
<g id="graph0" class="graph" transform="scale(1 1) rotate(0) translate(4 562)">
<title>com.teragrep.pth_06.planner.walker.conditions.QueryCondition</title>
<!-- Node1 -->
<g id="Node000001" class="node">
<title>Node1</title>
<g id="a_Node000001"><a xlink:title=" ">
<polygon fill="#999999" stroke="#666666" points="248,-294 0,-294 0,-264 248,-264 248,-294"/>
<text text-anchor="start" x="8" y="-282" font-family="Helvetica,sans-Serif" font-size="10.00">com.teragrep.pth_06.planner.walker.conditions.</text>
<text text-anchor="middle" x="124" y="-271" font-family="Helvetica,sans-Serif" font-size="10.00">QueryCondition</text>
</a>
</g>
</g>
<!-- Node2 -->
<g id="Node000002" class="node">
<title>Node2</title>
<g id="a_Node000002"><a xlink:href="classcom_1_1teragrep_1_1pth__06_1_1planner_1_1walker_1_1conditions_1_1CategoryTableCondition.html" target="_top" xlink:title="Row condition that compares the compareTo tables bloom filter bytes against category table.">
<polygon fill="white" stroke="#666666" points="532,-558 284,-558 284,-528 532,-528 532,-558"/>
<text text-anchor="start" x="292" y="-546" font-family="Helvetica,sans-Serif" font-size="10.00">com.teragrep.pth_06.planner.walker.conditions.</text>
<text text-anchor="middle" x="408" y="-535" font-family="Helvetica,sans-Serif" font-size="10.00">CategoryTableCondition</text>
</a>
</g>
</g>
<!-- Node1&#45;&gt;Node2 -->
<g id="edge1_Node000001_Node000002" class="edge">
<title>Node1&#45;&gt;Node2</title>
<g id="a_edge1_Node000001_Node000002"><a xlink:title=" ">
<path fill="none" stroke="#63b8ff" d="M133.81,-303.71C152.83,-353.27 202.73,-464.68 284,-519 289.16,-522.45 294.69,-525.42 300.45,-527.99"/>
<polygon fill="#63b8ff" stroke="#63b8ff" points="137,-302.26 130.22,-294.12 130.44,-304.71 137,-302.26"/>
</a>
</g>
</g>
<!-- Node3 -->
<g id="Node000003" class="node">
<title>Node3</title>
<g id="a_Node000003"><a xlink:href="classcom_1_1teragrep_1_1pth__06_1_1planner_1_1walker_1_1conditions_1_1EarliestCondition.html" target="_top" xlink:title=" ">
<polygon fill="white" stroke="#666666" points="532,-510 284,-510 284,-480 532,-480 532,-510"/>
<text text-anchor="start" x="292" y="-498" font-family="Helvetica,sans-Serif" font-size="10.00">com.teragrep.pth_06.planner.walker.conditions.</text>
<text text-anchor="middle" x="408" y="-487" font-family="Helvetica,sans-Serif" font-size="10.00">EarliestCondition</text>
</a>
</g>
</g>
<!-- Node1&#45;&gt;Node3 -->
<g id="edge2_Node000001_Node000003" class="edge">
<title>Node1&#45;&gt;Node3</title>
<g id="a_edge2_Node000001_Node000003"><a xlink:title=" ">
<path fill="none" stroke="#63b8ff" d="M137.6,-303.12C160.64,-344.67 213.75,-429.28 284,-471 289.8,-474.44 296,-477.41 302.41,-479.95"/>
<polygon fill="#63b8ff" stroke="#63b8ff" points="140.62,-301.35 132.76,-294.24 134.47,-304.7 140.62,-301.35"/>
</a>
</g>
</g>
<!-- Node4 -->
<g id="Node000004" class="node">
<title>Node4</title>
<g id="a_Node000004"><a xlink:href="classcom_1_1teragrep_1_1pth__06_1_1planner_1_1walker_1_1conditions_1_1ElementCondition.html" target="_top" xlink:title="Creates a query condition from provided dom element.">
<polygon fill="white" stroke="#666666" points="532,-462 284,-462 284,-432 532,-432 532,-462"/>
<text text-anchor="start" x="292" y="-450" font-family="Helvetica,sans-Serif" font-size="10.00">com.teragrep.pth_06.planner.walker.conditions.</text>
<text text-anchor="middle" x="408" y="-439" font-family="Helvetica,sans-Serif" font-size="10.00">ElementCondition</text>
</a>
</g>
</g>
<!-- Node1&#45;&gt;Node4 -->
<g id="edge3_Node000001_Node000004" class="edge">
<title>Node1&#45;&gt;Node4</title>
<g id="a_edge3_Node000001_Node000004"><a xlink:title=" ">
<path fill="none" stroke="#63b8ff" d="M143.32,-302.14C170.4,-334.64 224.39,-393.15 284,-423 290.91,-426.46 298.26,-429.42 305.81,-431.95"/>
<polygon fill="#63b8ff" stroke="#63b8ff" points="145.77,-299.61 136.72,-294.09 140.36,-304.04 145.77,-299.61"/>
</a>
</g>
</g>
<!-- Node5 -->
<g id="Node000005" class="node">
<title>Node5</title>
<g id="a_Node000005"><a xlink:href="classcom_1_1teragrep_1_1pth__06_1_1planner_1_1walker_1_1conditions_1_1HostCondition.html" target="_top" xlink:title=" ">
<polygon fill="white" stroke="#666666" points="532,-414 284,-414 284,-384 532,-384 532,-414"/>
<text text-anchor="start" x="292" y="-402" font-family="Helvetica,sans-Serif" font-size="10.00">com.teragrep.pth_06.planner.walker.conditions.</text>
<text text-anchor="middle" x="408" y="-391" font-family="Helvetica,sans-Serif" font-size="10.00">HostCondition</text>
</a>
</g>
</g>
<!-- Node1&#45;&gt;Node5 -->
<g id="edge4_Node000001_Node000005" class="edge">
<title>Node1&#45;&gt;Node5</title>
<g id="a_edge4_Node000001_Node000005"><a xlink:title=" ">
<path fill="none" stroke="#63b8ff" d="M153.33,-300.35C183.96,-322.38 234.98,-356.1 284,-375 292.93,-378.44 302.43,-381.41 312.03,-383.97"/>
<polygon fill="#63b8ff" stroke="#63b8ff" points="155.03,-297.25 144.88,-294.2 150.91,-302.91 155.03,-297.25"/>
</a>
</g>
</g>
<!-- Node6 -->
<g id="Node000006" class="node">
<title>Node6</title>
<g id="a_Node000006"><a xlink:href="classcom_1_1teragrep_1_1pth__06_1_1planner_1_1walker_1_1conditions_1_1IndexCondition.html" target="_top" xlink:title=" ">
<polygon fill="white" stroke="#666666" points="532,-366 284,-366 284,-336 532,-336 532,-366"/>
<text text-anchor="start" x="292" y="-354" font-family="Helvetica,sans-Serif" font-size="10.00">com.teragrep.pth_06.planner.walker.conditions.</text>
<text text-anchor="middle" x="408" y="-343" font-family="Helvetica,sans-Serif" font-size="10.00">IndexCondition</text>
</a>
</g>
</g>
<!-- Node1&#45;&gt;Node6 -->
<g id="edge5_Node000001_Node000006" class="edge">
<title>Node1&#45;&gt;Node6</title>
<g id="a_edge5_Node000001_Node000006"><a xlink:title=" ">
<path fill="none" stroke="#63b8ff" d="M180.16,-297.14C210.58,-306.77 249.15,-318.36 284,-327 296.88,-330.19 310.61,-333.23 324.05,-336"/>
<polygon fill="#63b8ff" stroke="#63b8ff" points="181.18,-293.79 170.58,-294.09 179.05,-300.46 181.18,-293.79"/>
</a>
</g>
</g>
<!-- Node7 -->
<g id="Node000007" class="node">
<title>Node7</title>
<g id="a_Node000007"><a xlink:href="classcom_1_1teragrep_1_1pth__06_1_1planner_1_1walker_1_1conditions_1_1IndexStatementCondition.html" target="_top" xlink:title=" ">
<polygon fill="white" stroke="#666666" points="532,-318 284,-318 284,-288 532,-288 532,-318"/>
<text text-anchor="start" x="292" y="-306" font-family="Helvetica,sans-Serif" font-size="10.00">com.teragrep.pth_06.planner.walker.conditions.</text>
<text text-anchor="middle" x="408" y="-295" font-family="Helvetica,sans-Serif" font-size="10.00">IndexStatementCondition</text>
</a>
</g>
</g>
<!-- Node1&#45;&gt;Node7 -->
<g id="edge6_Node000001_Node000007" class="edge">
<title>Node1&#45;&gt;Node7</title>
<g id="a_edge6_Node000001_Node000007"><a xlink:title=" ">
<path fill="none" stroke="#63b8ff" d="M258.47,-290.36C266.84,-291.07 275.25,-291.79 283.57,-292.5"/>
<polygon fill="#63b8ff" stroke="#63b8ff" points="258.54,-286.85 248.28,-289.49 257.95,-293.83 258.54,-286.85"/>
</a>
</g>
</g>
<!-- Node8 -->
<g id="Node000008" class="node">
<title>Node8</title>
<g id="a_Node000008"><a xlink:href="classcom_1_1teragrep_1_1pth__06_1_1planner_1_1walker_1_1conditions_1_1LatestCondition.html" target="_top" xlink:title=" ">
<polygon fill="white" stroke="#666666" points="532,-270 284,-270 284,-240 532,-240 532,-270"/>
<text text-anchor="start" x="292" y="-258" font-family="Helvetica,sans-Serif" font-size="10.00">com.teragrep.pth_06.planner.walker.conditions.</text>
<text text-anchor="middle" x="408" y="-247" font-family="Helvetica,sans-Serif" font-size="10.00">LatestCondition</text>
</a>
</g>
</g>
<!-- Node1&#45;&gt;Node8 -->
<g id="edge7_Node000001_Node000008" class="edge">
<title>Node1&#45;&gt;Node8</title>
<g id="a_edge7_Node000001_Node000008"><a xlink:title=" ">
<path fill="none" stroke="#63b8ff" d="M258.47,-267.64C266.84,-266.93 275.25,-266.21 283.57,-265.5"/>
<polygon fill="#63b8ff" stroke="#63b8ff" points="257.95,-264.17 248.28,-268.51 258.54,-271.15 257.95,-264.17"/>
</a>
</g>
</g>
<!-- Node9 -->
<g id="Node000009" class="node">
<title>Node9</title>
<g id="a_Node000009"><a xlink:href="classcom_1_1teragrep_1_1pth__06_1_1planner_1_1walker_1_1conditions_1_1RegexLikeCondition.html" target="_top" xlink:title="true if input value regex like comparedTo value, compared against BLOOMDB.FILTERTYPE....">
<polygon fill="white" stroke="#666666" points="532,-222 284,-222 284,-192 532,-192 532,-222"/>
<text text-anchor="start" x="292" y="-210" font-family="Helvetica,sans-Serif" font-size="10.00">com.teragrep.pth_06.planner.walker.conditions.</text>
<text text-anchor="middle" x="408" y="-199" font-family="Helvetica,sans-Serif" font-size="10.00">RegexLikeCondition</text>
</a>
</g>
</g>
<!-- Node1&#45;&gt;Node9 -->
<g id="edge8_Node000001_Node000009" class="edge">
<title>Node1&#45;&gt;Node9</title>
<g id="a_edge8_Node000001_Node000009"><a xlink:title=" ">
<path fill="none" stroke="#63b8ff" d="M180.16,-260.86C210.58,-251.23 249.15,-239.64 284,-231 296.88,-227.81 310.61,-224.77 324.05,-222"/>
<polygon fill="#63b8ff" stroke="#63b8ff" points="179.05,-257.54 170.58,-263.91 181.18,-264.21 179.05,-257.54"/>
</a>
</g>
</g>
<!-- Node10 -->
<g id="Node000010" class="node">
<title>Node10</title>
<g id="a_Node000010"><a xlink:href="classcom_1_1teragrep_1_1pth__06_1_1planner_1_1walker_1_1conditions_1_1SourceTypeCondition.html" target="_top" xlink:title=" ">
<polygon fill="white" stroke="#666666" points="532,-174 284,-174 284,-144 532,-144 532,-174"/>
<text text-anchor="start" x="292" y="-162" font-family="Helvetica,sans-Serif" font-size="10.00">com.teragrep.pth_06.planner.walker.conditions.</text>
<text text-anchor="middle" x="408" y="-151" font-family="Helvetica,sans-Serif" font-size="10.00">SourceTypeCondition</text>
</a>
</g>
</g>
<!-- Node1&#45;&gt;Node10 -->
<g id="edge9_Node000001_Node000010" class="edge">
<title>Node1&#45;&gt;Node10</title>
<g id="a_edge9_Node000001_Node000010"><a xlink:title=" ">
<path fill="none" stroke="#63b8ff" d="M153.33,-257.65C183.96,-235.62 234.98,-201.9 284,-183 292.93,-179.56 302.43,-176.59 312.03,-174.03"/>
<polygon fill="#63b8ff" stroke="#63b8ff" points="150.91,-255.09 144.88,-263.8 155.03,-260.75 150.91,-255.09"/>
</a>
</g>
</g>
<!-- Node11 -->
<g id="Node000011" class="node">
<title>Node11</title>
<g id="a_Node000011"><a xlink:href="classcom_1_1teragrep_1_1pth__06_1_1planner_1_1walker_1_1conditions_1_1StringEqualsCondition.html" target="_top" xlink:title="Condition to check if two fields are equal.">
<polygon fill="white" stroke="#666666" points="532,-126 284,-126 284,-96 532,-96 532,-126"/>
<text text-anchor="start" x="292" y="-114" font-family="Helvetica,sans-Serif" font-size="10.00">com.teragrep.pth_06.planner.walker.conditions.</text>
<text text-anchor="middle" x="408" y="-103" font-family="Helvetica,sans-Serif" font-size="10.00">StringEqualsCondition</text>
</a>
</g>
</g>
<!-- Node1&#45;&gt;Node11 -->
<g id="edge10_Node000001_Node000011" class="edge">
<title>Node1&#45;&gt;Node11</title>
<g id="a_edge10_Node000001_Node000011"><a xlink:title=" ">
<path fill="none" stroke="#63b8ff" d="M143.32,-255.86C170.4,-223.36 224.39,-164.85 284,-135 290.91,-131.54 298.26,-128.58 305.81,-126.05"/>
<polygon fill="#63b8ff" stroke="#63b8ff" points="140.36,-253.96 136.72,-263.91 145.77,-258.39 140.36,-253.96"/>
</a>
</g>
</g>
<!-- Node12 -->
<g id="Node000012" class="node">
<title>Node12</title>
<g id="a_Node000012"><a xlink:href="classcom_1_1teragrep_1_1pth__06_1_1planner_1_1walker_1_1conditions_1_1WithoutFiltersCondition.html" target="_top" xlink:title=" ">
<polygon fill="white" stroke="#666666" points="532,-78 284,-78 284,-48 532,-48 532,-78"/>
<text text-anchor="start" x="292" y="-66" font-family="Helvetica,sans-Serif" font-size="10.00">com.teragrep.pth_06.planner.walker.conditions.</text>
<text text-anchor="middle" x="408" y="-55" font-family="Helvetica,sans-Serif" font-size="10.00">WithoutFiltersCondition</text>
</a>
</g>
</g>
<!-- Node1&#45;&gt;Node12 -->
<g id="edge11_Node000001_Node000012" class="edge">
<title>Node1&#45;&gt;Node12</title>
<g id="a_edge11_Node000001_Node000012"><a xlink:title=" ">
<path fill="none" stroke="#63b8ff" d="M137.6,-254.88C160.64,-213.33 213.75,-128.72 284,-87 289.8,-83.56 296,-80.59 302.41,-78.05"/>
<polygon fill="#63b8ff" stroke="#63b8ff" points="134.47,-253.3 132.76,-263.76 140.62,-256.65 134.47,-253.3"/>
</a>
</g>
</g>
<!-- Node13 -->
<g id="Node000013" class="node">
<title>Node13</title>
<g id="a_Node000013"><a xlink:href="classcom_1_1teragrep_1_1pth__06_1_1planner_1_1walker_1_1conditions_1_1WithoutPatternCondition.html" target="_top" xlink:title=" ">
<polygon fill="white" stroke="#666666" points="532,-30 284,-30 284,0 532,0 532,-30"/>
<text text-anchor="start" x="292" y="-18" font-family="Helvetica,sans-Serif" font-size="10.00">com.teragrep.pth_06.planner.walker.conditions.</text>
<text text-anchor="middle" x="408" y="-7" font-family="Helvetica,sans-Serif" font-size="10.00">WithoutPatternCondition</text>
</a>
</g>
</g>
<!-- Node1&#45;&gt;Node13 -->
<g id="edge12_Node000001_Node000013" class="edge">
<title>Node1&#45;&gt;Node13</title>
<g id="a_edge12_Node000001_Node000013"><a xlink:title=" ">
<path fill="none" stroke="#63b8ff" d="M133.81,-254.29C152.83,-204.73 202.73,-93.32 284,-39 289.16,-35.55 294.69,-32.58 300.45,-30.01"/>
<polygon fill="#63b8ff" stroke="#63b8ff" points="130.44,-253.29 130.22,-263.88 137,-255.74 130.44,-253.29"/>
</a>
</g>
</g>
</g>
</svg>
