<?xml version="1.0" encoding="UTF-8" standalone="no"?>
<!DOCTYPE svg PUBLIC "-//W3C//DTD SVG 1.1//EN"
 "http://www.w3.org/Graphics/SVG/1.1/DTD/svg11.dtd">
<!-- Generated by graphviz version 2.43.0 (0)
 -->
<!-- Title: com.teragrep.pth_06.planner.walker.conditions.ElementCondition.condition Pages: 1 -->
<svg width="572pt" height="290pt"
 viewBox="0.00 0.00 572.00 290.00" xmlns="http://www.w3.org/2000/svg" xmlns:xlink="http://www.w3.org/1999/xlink">
<g id="graph0" class="graph" transform="scale(1 1) rotate(0) translate(4 286)">
<title>com.teragrep.pth_06.planner.walker.conditions.ElementCondition.condition</title>
<!-- Node1 -->
<g id="Node000001" class="node">
<title>Node1</title>
<g id="a_Node000001"><a xlink:title=" ">
<polygon fill="#999999" stroke="#666666" points="564,-210 316,-210 316,-180 564,-180 564,-210"/>
<text text-anchor="start" x="324" y="-198" font-family="Helvetica,sans-Serif" font-size="10.00">com.teragrep.pth_06.planner.walker.conditions.</text>
<text text-anchor="middle" x="440" y="-187" font-family="Helvetica,sans-Serif" font-size="10.00">ElementCondition.condition</text>
</a>
</g>
</g>
<!-- Node2 -->
<g id="Node000002" class="node">
<title>Node2</title>
<g id="a_Node000002"><a xlink:href="classcom_1_1teragrep_1_1pth__06_1_1planner_1_1walker_1_1conditions_1_1ElementCondition.html#ad598b3368f8fca059dfc07a49d352f31" target="_top" xlink:title=" ">
<polygon fill="white" stroke="#666666" points="264,-282 16,-282 16,-252 264,-252 264,-282"/>
<text text-anchor="start" x="24" y="-270" font-family="Helvetica,sans-Serif" font-size="10.00">com.teragrep.pth_06.planner.walker.conditions.</text>
<text text-anchor="middle" x="140" y="-259" font-family="Helvetica,sans-Serif" font-size="10.00">ElementCondition.conditionForJournalDBQuery</text>
</a>
</g>
</g>
<!-- Node1&#45;&gt;Node2 -->
<g id="edge1_Node000001_Node000002" class="edge">
<title>Node1&#45;&gt;Node2</title>
<g id="a_edge1_Node000001_Node000002"><a xlink:title=" ">
<path fill="none" stroke="#63b8ff" d="M358.12,-212.91C333.23,-220.09 305.64,-227.94 280,-234 250.57,-240.96 217.18,-246.79 190.51,-251.97"/>
<polygon fill="#63b8ff" stroke="#63b8ff" points="359.24,-216.23 367.87,-210.09 357.29,-209.51 359.24,-216.23"/>
</a>
</g>
</g>
<!-- Node3 -->
<g id="Node000003" class="node">
<title>Node3</title>
<g id="a_Node000003"><a xlink:href="classcom_1_1teragrep_1_1pth__06_1_1planner_1_1walker_1_1conditions_1_1ElementCondition.html#ad1faef74318cb350165bbeafd562ecde" target="_top" xlink:title=" ">
<polygon fill="white" stroke="#666666" points="264,-234 16,-234 16,-204 264,-204 264,-234"/>
<text text-anchor="start" x="24" y="-222" font-family="Helvetica,sans-Serif" font-size="10.00">com.teragrep.pth_06.planner.walker.conditions.</text>
<text text-anchor="middle" x="140" y="-211" font-family="Helvetica,sans-Serif" font-size="10.00">ElementCondition.conditionForStreamDBQuery</text>
</a>
</g>
</g>
<!-- Node1&#45;&gt;Node3 -->
<g id="edge3_Node000001_Node000003" class="edge">
<title>Node1&#45;&gt;Node3</title>
<g id="a_edge3_Node000001_Node000003"><a xlink:title=" ">
<path fill="none" stroke="#63b8ff" d="M305.67,-199.02C285.91,-200.53 265.79,-202.22 246.7,-204"/>
<polygon fill="#63b8ff" stroke="#63b8ff" points="305.93,-202.51 315.64,-198.27 305.41,-195.53 305.93,-202.51"/>
</a>
</g>
</g>
<!-- Node4 -->
<g id="Node000004" class="node">
<title>Node4</title>
<g id="a_Node000004"><a xlink:href="classcom_1_1teragrep_1_1pth__06_1_1planner_1_1walker_1_1conditions_1_1ElementConditionTest.html#aa7b824b2c1a077cb408c7e0532131e67" target="_top" xlink:title=" ">
<polygon fill="white" stroke="#666666" points="264,-186 16,-186 16,-156 264,-156 264,-186"/>
<text text-anchor="start" x="24" y="-174" font-family="Helvetica,sans-Serif" font-size="10.00">com.teragrep.pth_06.planner.walker.conditions.</text>
<text text-anchor="middle" x="140" y="-163" font-family="Helvetica,sans-Serif" font-size="10.00">ElementConditionTest.equalsTest</text>
</a>
</g>
</g>
<!-- Node1&#45;&gt;Node4 -->
<g id="edge5_Node000001_Node000004" class="edge">
<title>Node1&#45;&gt;Node4</title>
<g id="a_edge5_Node000001_Node000004"><a xlink:title=" ">
<path fill="none" stroke="#63b8ff" d="M305.65,-184.26C291.88,-183.15 277.92,-182.03 264.27,-180.93"/>
<polygon fill="#63b8ff" stroke="#63b8ff" points="305.39,-187.75 315.64,-185.07 305.95,-180.77 305.39,-187.75"/>
</a>
</g>
</g>
<!-- Node5 -->
<g id="Node000005" class="node">
<title>Node5</title>
<g id="a_Node000005"><a xlink:href="classcom_1_1teragrep_1_1pth__06_1_1planner_1_1walker_1_1conditions_1_1ElementConditionTest.html#ad044c19c275fa741d2d8d85218845761" target="_top" xlink:title=" ">
<polygon fill="white" stroke="#666666" points="280,-137.5 0,-137.5 0,-96.5 280,-96.5 280,-137.5"/>
<text text-anchor="start" x="8" y="-125.5" font-family="Helvetica,sans-Serif" font-size="10.00">com.teragrep.pth_06.planner.walker.conditions.</text>
<text text-anchor="start" x="8" y="-114.5" font-family="Helvetica,sans-Serif" font-size="10.00">ElementConditionTest.testStreamDBQueryRecognized</text>
<text text-anchor="middle" x="140" y="-103.5" font-family="Helvetica,sans-Serif" font-size="10.00">ButUnsupportedTagsPassthrough</text>
</a>
</g>
</g>
<!-- Node1&#45;&gt;Node5 -->
<g id="edge6_Node000001_Node000005" class="edge">
<title>Node1&#45;&gt;Node5</title>
<g id="a_edge6_Node000001_Node000005"><a xlink:title=" ">
<path fill="none" stroke="#63b8ff" d="M383.11,-176.92C352.77,-167.42 314.51,-155.92 280,-147 267.45,-143.76 254.2,-140.58 241.07,-137.59"/>
<polygon fill="#63b8ff" stroke="#63b8ff" points="382.07,-180.27 392.66,-179.93 384.18,-173.59 382.07,-180.27"/>
</a>
</g>
</g>
<!-- Node6 -->
<g id="Node000006" class="node">
<title>Node6</title>
<g id="a_Node000006"><a xlink:href="classcom_1_1teragrep_1_1pth__06_1_1planner_1_1walker_1_1conditions_1_1ElementConditionTest.html#a8128d1d936c645c93ebfc6f5fe4cdbe6" target="_top" xlink:title=" ">
<polygon fill="white" stroke="#666666" points="264,-78 16,-78 16,-48 264,-48 264,-78"/>
<text text-anchor="start" x="24" y="-66" font-family="Helvetica,sans-Serif" font-size="10.00">com.teragrep.pth_06.planner.walker.conditions.</text>
<text text-anchor="middle" x="140" y="-55" font-family="Helvetica,sans-Serif" font-size="10.00">ElementConditionTest.testStreamTags</text>
</a>
</g>
</g>
<!-- Node1&#45;&gt;Node6 -->
<g id="edge7_Node000001_Node000006" class="edge">
<title>Node1&#45;&gt;Node6</title>
<g id="a_edge7_Node000001_Node000006"><a xlink:title=" ">
<path fill="none" stroke="#63b8ff" d="M414.02,-173.29C384.21,-148.61 331.86,-109.02 280,-88 270.46,-84.13 260.3,-80.86 250,-78.09"/>
<polygon fill="#63b8ff" stroke="#63b8ff" points="411.9,-176.08 421.81,-179.83 416.4,-170.72 411.9,-176.08"/>
</a>
</g>
</g>
<!-- Node7 -->
<g id="Node000007" class="node">
<title>Node7</title>
<g id="a_Node000007"><a xlink:href="classcom_1_1teragrep_1_1pth__06_1_1planner_1_1walker_1_1conditions_1_1ElementConditionTest.html#aed3578cbc9f7e4f77695db0f1f45b40a" target="_top" xlink:title=" ">
<polygon fill="white" stroke="#666666" points="264,-30 16,-30 16,0 264,0 264,-30"/>
<text text-anchor="start" x="24" y="-18" font-family="Helvetica,sans-Serif" font-size="10.00">com.teragrep.pth_06.planner.walker.conditions.</text>
<text text-anchor="middle" x="140" y="-7" font-family="Helvetica,sans-Serif" font-size="10.00">ElementConditionTest.testTimeQualifiers</text>
</a>
</g>
</g>
<!-- Node1&#45;&gt;Node7 -->
<g id="edge8_Node000001_Node000007" class="edge">
<title>Node1&#45;&gt;Node7</title>
<g id="a_edge8_Node000001_Node000007"><a xlink:title=" ">
<path fill="none" stroke="#63b8ff" d="M422.75,-171.78C396.89,-136.78 342.82,-71.18 280,-39 273.24,-35.54 266.08,-32.56 258.72,-30.01"/>
<polygon fill="#63b8ff" stroke="#63b8ff" points="420,-173.95 428.71,-179.98 425.66,-169.83 420,-173.95"/>
</a>
</g>
</g>
<!-- Node2&#45;&gt;Node1 -->
<g id="edge2_Node000002_Node000001" class="edge">
<title>Node2&#45;&gt;Node1</title>
<g id="a_edge2_Node000002_Node000001"><a xlink:title=" ">
<path fill="none" stroke="#63b8ff" d="M274.19,-253.35C276.14,-252.9 278.08,-252.45 280,-252 327.84,-240.69 382.49,-223.16 413.65,-210.04"/>
<polygon fill="#63b8ff" stroke="#63b8ff" points="273.34,-249.95 264.33,-255.52 274.84,-256.79 273.34,-249.95"/>
</a>
</g>
</g>
<!-- Node3&#45;&gt;Node1 -->
<g id="edge4_Node000003_Node000001" class="edge">
<title>Node3&#45;&gt;Node1</title>
<g id="a_edge4_Node000003_Node000001"><a xlink:title=" ">
<path fill="none" stroke="#63b8ff" d="M274.09,-215C293.85,-213.49 313.99,-211.79 333.1,-210.02"/>
<polygon fill="#63b8ff" stroke="#63b8ff" points="273.82,-211.51 264.11,-215.74 274.35,-218.49 273.82,-211.51"/>
</a>
</g>
</g>
</g>
</svg>
