<?xml version="1.0" encoding="UTF-8" standalone="no"?>
<!DOCTYPE svg PUBLIC "-//W3C//DTD SVG 1.1//EN"
 "http://www.w3.org/Graphics/SVG/1.1/DTD/svg11.dtd">
<!-- Generated by graphviz version 2.43.0 (0)
 -->
<!-- Title: com.teragrep.pth_06.planner.walker.conditions.ValidElement.operation Pages: 1 -->
<svg width="1140pt" height="242pt"
 viewBox="0.00 0.00 1140.00 242.00" xmlns="http://www.w3.org/2000/svg" xmlns:xlink="http://www.w3.org/1999/xlink">
<g id="graph0" class="graph" transform="scale(1 1) rotate(0) translate(4 238)">
<title>com.teragrep.pth_06.planner.walker.conditions.ValidElement.operation</title>
<!-- Node1 -->
<g id="Node000001" class="node">
<title>Node1</title>
<g id="a_Node000001"><a xlink:title=" ">
<polygon fill="#999999" stroke="#666666" points="1132,-162 884,-162 884,-132 1132,-132 1132,-162"/>
<text text-anchor="start" x="892" y="-150" font-family="Helvetica,sans-Serif" font-size="10.00">com.teragrep.pth_06.planner.walker.conditions.</text>
<text text-anchor="middle" x="1008" y="-139" font-family="Helvetica,sans-Serif" font-size="10.00">ValidElement.operation</text>
</a>
</g>
</g>
<!-- Node2 -->
<g id="Node000002" class="node">
<title>Node2</title>
<g id="a_Node000002"><a xlink:href="classcom_1_1teragrep_1_1pth__06_1_1planner_1_1walker_1_1conditions_1_1ElementCondition.html#ad598b3368f8fca059dfc07a49d352f31" target="_top" xlink:title=" ">
<polygon fill="white" stroke="#666666" points="848,-186 600,-186 600,-156 848,-156 848,-186"/>
<text text-anchor="start" x="608" y="-174" font-family="Helvetica,sans-Serif" font-size="10.00">com.teragrep.pth_06.planner.walker.conditions.</text>
<text text-anchor="middle" x="724" y="-163" font-family="Helvetica,sans-Serif" font-size="10.00">ElementCondition.conditionForJournalDBQuery</text>
</a>
</g>
</g>
<!-- Node1&#45;&gt;Node2 -->
<g id="edge1_Node000001_Node000002" class="edge">
<title>Node1&#45;&gt;Node2</title>
<g id="a_edge1_Node000001_Node000002"><a xlink:title=" ">
<path fill="none" stroke="#63b8ff" d="M873.53,-158.36C865.16,-159.07 856.75,-159.79 848.43,-160.5"/>
<polygon fill="#63b8ff" stroke="#63b8ff" points="874.05,-161.83 883.72,-157.49 873.46,-154.85 874.05,-161.83"/>
</a>
</g>
</g>
<!-- Node4 -->
<g id="Node000004" class="node">
<title>Node4</title>
<g id="a_Node000004"><a xlink:href="classcom_1_1teragrep_1_1pth__06_1_1planner_1_1walker_1_1conditions_1_1ElementCondition.html#ad1faef74318cb350165bbeafd562ecde" target="_top" xlink:title=" ">
<polygon fill="white" stroke="#666666" points="264,-234 16,-234 16,-204 264,-204 264,-234"/>
<text text-anchor="start" x="24" y="-222" font-family="Helvetica,sans-Serif" font-size="10.00">com.teragrep.pth_06.planner.walker.conditions.</text>
<text text-anchor="middle" x="140" y="-211" font-family="Helvetica,sans-Serif" font-size="10.00">ElementCondition.conditionForStreamDBQuery</text>
</a>
</g>
</g>
<!-- Node1&#45;&gt;Node4 -->
<g id="edge10_Node000001_Node000004" class="edge">
<title>Node1&#45;&gt;Node4</title>
<g id="a_edge10_Node000001_Node000004"><a xlink:title=" ">
<path fill="none" stroke="#63b8ff" d="M957.79,-165.47C926.77,-176.2 885.61,-188.79 848,-195 645.49,-228.42 406.07,-228.43 264.25,-224.42"/>
<polygon fill="#63b8ff" stroke="#63b8ff" points="959.22,-168.68 967.49,-162.06 956.9,-162.07 959.22,-168.68"/>
</a>
</g>
</g>
<!-- Node9 -->
<g id="Node000009" class="node">
<title>Node9</title>
<g id="a_Node000009"><a xlink:href="classcom_1_1teragrep_1_1pth__06_1_1planner_1_1walker_1_1conditions_1_1ElementCondition.html#af340b59529954bf83536432d3512af34" target="_top" xlink:title=" ">
<polygon fill="white" stroke="#666666" points="848,-135 600,-135 600,-105 848,-105 848,-135"/>
<text text-anchor="start" x="608" y="-123" font-family="Helvetica,sans-Serif" font-size="10.00">com.teragrep.pth_06.planner.walker.conditions.</text>
<text text-anchor="middle" x="724" y="-112" font-family="Helvetica,sans-Serif" font-size="10.00">ElementCondition.isBloomSearchCondition</text>
</a>
</g>
</g>
<!-- Node1&#45;&gt;Node9 -->
<g id="edge11_Node000001_Node000009" class="edge">
<title>Node1&#45;&gt;Node9</title>
<g id="a_edge11_Node000001_Node000009"><a xlink:title=" ">
<path fill="none" stroke="#63b8ff" d="M873.53,-134.22C865.16,-133.42 856.75,-132.61 848.43,-131.82"/>
<polygon fill="#63b8ff" stroke="#63b8ff" points="873.43,-137.73 883.72,-135.2 874.1,-130.76 873.43,-137.73"/>
</a>
</g>
</g>
<!-- Node12 -->
<g id="Node000012" class="node">
<title>Node12</title>
<g id="a_Node000012"><a xlink:href="classcom_1_1teragrep_1_1pth__06_1_1planner_1_1walker_1_1conditions_1_1ValidElementTest.html#aebd4924948cd0e533806857b2ba0ba83" target="_top" xlink:title=" ">
<polygon fill="white" stroke="#666666" points="848,-87 600,-87 600,-57 848,-57 848,-87"/>
<text text-anchor="start" x="608" y="-75" font-family="Helvetica,sans-Serif" font-size="10.00">com.teragrep.pth_06.planner.walker.conditions.</text>
<text text-anchor="middle" x="724" y="-64" font-family="Helvetica,sans-Serif" font-size="10.00">ValidElementTest.validTest</text>
</a>
</g>
</g>
<!-- Node1&#45;&gt;Node12 -->
<g id="edge14_Node000001_Node000012" class="edge">
<title>Node1&#45;&gt;Node12</title>
<g id="a_edge14_Node000001_Node000012"><a xlink:title=" ">
<path fill="none" stroke="#63b8ff" d="M955.2,-128.68C924.33,-118.19 884.23,-105.31 848,-96 835.46,-92.78 822.11,-89.76 808.99,-87.02"/>
<polygon fill="#63b8ff" stroke="#63b8ff" points="954.28,-132.07 964.88,-131.99 956.55,-125.44 954.28,-132.07"/>
</a>
</g>
</g>
<!-- Node3 -->
<g id="Node000003" class="node">
<title>Node3</title>
<g id="a_Node000003"><a xlink:href="classcom_1_1teragrep_1_1pth__06_1_1planner_1_1walker_1_1conditions_1_1ElementCondition.html#a77e4bd928b9d9dd1e2ef3380f65e3ab7" target="_top" xlink:title=" ">
<polygon fill="white" stroke="#666666" points="564,-186 316,-186 316,-156 564,-156 564,-186"/>
<text text-anchor="start" x="324" y="-174" font-family="Helvetica,sans-Serif" font-size="10.00">com.teragrep.pth_06.planner.walker.conditions.</text>
<text text-anchor="middle" x="440" y="-163" font-family="Helvetica,sans-Serif" font-size="10.00">ElementCondition.condition</text>
</a>
</g>
</g>
<!-- Node2&#45;&gt;Node3 -->
<g id="edge2_Node000002_Node000003" class="edge">
<title>Node2&#45;&gt;Node3</title>
<g id="a_edge2_Node000002_Node000003"><a xlink:title=" ">
<path fill="none" stroke="#63b8ff" d="M589.53,-164.26C581.16,-164.24 572.75,-164.25 564.43,-164.3"/>
<polygon fill="#63b8ff" stroke="#63b8ff" points="589.71,-167.76 599.72,-164.3 589.73,-160.76 589.71,-167.76"/>
</a>
</g>
</g>
<!-- Node3&#45;&gt;Node2 -->
<g id="edge3_Node000003_Node000002" class="edge">
<title>Node3&#45;&gt;Node2</title>
<g id="a_edge3_Node000003_Node000002"><a xlink:title=" ">
<path fill="none" stroke="#63b8ff" d="M574.62,-177.74C582.99,-177.76 591.4,-177.75 599.72,-177.7"/>
<polygon fill="#63b8ff" stroke="#63b8ff" points="574.44,-174.24 564.43,-177.7 574.42,-181.24 574.44,-174.24"/>
</a>
</g>
</g>
<!-- Node3&#45;&gt;Node4 -->
<g id="edge4_Node000003_Node000004" class="edge">
<title>Node3&#45;&gt;Node4</title>
<g id="a_edge4_Node000003_Node000004"><a xlink:title=" ">
<path fill="none" stroke="#63b8ff" d="M305.74,-185.75C268.69,-191.56 230.32,-198.14 199.94,-204"/>
<polygon fill="#63b8ff" stroke="#63b8ff" points="306.3,-189.2 315.64,-184.21 305.22,-182.29 306.3,-189.2"/>
</a>
</g>
</g>
<!-- Node5 -->
<g id="Node000005" class="node">
<title>Node5</title>
<g id="a_Node000005"><a xlink:href="classcom_1_1teragrep_1_1pth__06_1_1planner_1_1walker_1_1conditions_1_1ElementConditionTest.html#aa7b824b2c1a077cb408c7e0532131e67" target="_top" xlink:title=" ">
<polygon fill="white" stroke="#666666" points="264,-186 16,-186 16,-156 264,-156 264,-186"/>
<text text-anchor="start" x="24" y="-174" font-family="Helvetica,sans-Serif" font-size="10.00">com.teragrep.pth_06.planner.walker.conditions.</text>
<text text-anchor="middle" x="140" y="-163" font-family="Helvetica,sans-Serif" font-size="10.00">ElementConditionTest.equalsTest</text>
</a>
</g>
</g>
<!-- Node3&#45;&gt;Node5 -->
<g id="edge6_Node000003_Node000005" class="edge">
<title>Node3&#45;&gt;Node5</title>
<g id="a_edge6_Node000003_Node000005"><a xlink:title=" ">
<path fill="none" stroke="#63b8ff" d="M305.25,-171C291.61,-171 277.79,-171 264.27,-171"/>
<polygon fill="#63b8ff" stroke="#63b8ff" points="305.64,-174.5 315.64,-171 305.64,-167.5 305.64,-174.5"/>
</a>
</g>
</g>
<!-- Node6 -->
<g id="Node000006" class="node">
<title>Node6</title>
<g id="a_Node000006"><a xlink:href="classcom_1_1teragrep_1_1pth__06_1_1planner_1_1walker_1_1conditions_1_1ElementConditionTest.html#ad044c19c275fa741d2d8d85218845761" target="_top" xlink:title=" ">
<polygon fill="white" stroke="#666666" points="280,-137.5 0,-137.5 0,-96.5 280,-96.5 280,-137.5"/>
<text text-anchor="start" x="8" y="-125.5" font-family="Helvetica,sans-Serif" font-size="10.00">com.teragrep.pth_06.planner.walker.conditions.</text>
<text text-anchor="start" x="8" y="-114.5" font-family="Helvetica,sans-Serif" font-size="10.00">ElementConditionTest.testStreamDBQueryRecognized</text>
<text text-anchor="middle" x="140" y="-103.5" font-family="Helvetica,sans-Serif" font-size="10.00">ButUnsupportedTagsPassthrough</text>
</a>
</g>
</g>
<!-- Node3&#45;&gt;Node6 -->
<g id="edge7_Node000003_Node000006" class="edge">
<title>Node3&#45;&gt;Node6</title>
<g id="a_edge7_Node000003_Node000006"><a xlink:title=" ">
<path fill="none" stroke="#63b8ff" d="M345.86,-154.12C316.81,-148.86 284.45,-143 254.19,-137.51"/>
<polygon fill="#63b8ff" stroke="#63b8ff" points="345.53,-157.62 355.99,-155.96 346.77,-150.73 345.53,-157.62"/>
</a>
</g>
</g>
<!-- Node7 -->
<g id="Node000007" class="node">
<title>Node7</title>
<g id="a_Node000007"><a xlink:href="classcom_1_1teragrep_1_1pth__06_1_1planner_1_1walker_1_1conditions_1_1ElementConditionTest.html#a8128d1d936c645c93ebfc6f5fe4cdbe6" target="_top" xlink:title=" ">
<polygon fill="white" stroke="#666666" points="264,-78 16,-78 16,-48 264,-48 264,-78"/>
<text text-anchor="start" x="24" y="-66" font-family="Helvetica,sans-Serif" font-size="10.00">com.teragrep.pth_06.planner.walker.conditions.</text>
<text text-anchor="middle" x="140" y="-55" font-family="Helvetica,sans-Serif" font-size="10.00">ElementConditionTest.testStreamTags</text>
</a>
</g>
</g>
<!-- Node3&#45;&gt;Node7 -->
<g id="edge8_Node000003_Node000007" class="edge">
<title>Node3&#45;&gt;Node7</title>
<g id="a_edge8_Node000003_Node000007"><a xlink:title=" ">
<path fill="none" stroke="#63b8ff" d="M322.64,-151.23C320.37,-149.9 318.15,-148.49 316,-147 290.78,-129.46 305.35,-105.36 280,-88 274.44,-84.19 268.46,-80.91 262.24,-78.09"/>
<polygon fill="#63b8ff" stroke="#63b8ff" points="321.21,-154.42 331.69,-155.94 324.44,-148.22 321.21,-154.42"/>
</a>
</g>
</g>
<!-- Node8 -->
<g id="Node000008" class="node">
<title>Node8</title>
<g id="a_Node000008"><a xlink:href="classcom_1_1teragrep_1_1pth__06_1_1planner_1_1walker_1_1conditions_1_1ElementConditionTest.html#aed3578cbc9f7e4f77695db0f1f45b40a" target="_top" xlink:title=" ">
<polygon fill="white" stroke="#666666" points="264,-30 16,-30 16,0 264,0 264,-30"/>
<text text-anchor="start" x="24" y="-18" font-family="Helvetica,sans-Serif" font-size="10.00">com.teragrep.pth_06.planner.walker.conditions.</text>
<text text-anchor="middle" x="140" y="-7" font-family="Helvetica,sans-Serif" font-size="10.00">ElementConditionTest.testTimeQualifiers</text>
</a>
</g>
</g>
<!-- Node3&#45;&gt;Node8 -->
<g id="edge9_Node000003_Node000008" class="edge">
<title>Node3&#45;&gt;Node8</title>
<g id="a_edge9_Node000003_Node000008"><a xlink:title=" ">
<path fill="none" stroke="#63b8ff" d="M320.07,-150.33C318.68,-149.27 317.32,-148.16 316,-147 277.99,-113.6 318.37,-71.98 280,-39 275.17,-34.85 269.89,-31.29 264.3,-28.26"/>
<polygon fill="#63b8ff" stroke="#63b8ff" points="318.17,-153.27 328.42,-155.92 322.06,-147.45 318.17,-153.27"/>
</a>
</g>
</g>
<!-- Node4&#45;&gt;Node3 -->
<g id="edge5_Node000004_Node000003" class="edge">
<title>Node4&#45;&gt;Node3</title>
<g id="a_edge5_Node000004_Node000003"><a xlink:title=" ">
<path fill="none" stroke="#63b8ff" d="M274.54,-204.21C311.39,-198.43 349.51,-191.89 379.77,-186.06"/>
<polygon fill="#63b8ff" stroke="#63b8ff" points="273.53,-200.82 264.18,-205.82 274.6,-207.74 273.53,-200.82"/>
</a>
</g>
</g>
<!-- Node10 -->
<g id="Node000010" class="node">
<title>Node10</title>
<g id="a_Node000010"><a xlink:href="classcom_1_1teragrep_1_1pth__06_1_1planner_1_1walker_1_1conditions_1_1ElementConditionTest.html#ac00569686f11d16cb1b703c1823cb467" target="_top" xlink:title=" ">
<polygon fill="white" stroke="#666666" points="564,-137.5 316,-137.5 316,-96.5 564,-96.5 564,-137.5"/>
<text text-anchor="start" x="324" y="-125.5" font-family="Helvetica,sans-Serif" font-size="10.00">com.teragrep.pth_06.planner.walker.conditions.</text>
<text text-anchor="start" x="324" y="-114.5" font-family="Helvetica,sans-Serif" font-size="10.00">ElementConditionTest.testIndexStatementWith</text>
<text text-anchor="middle" x="440" y="-103.5" font-family="Helvetica,sans-Serif" font-size="10.00">BadConnection</text>
</a>
</g>
</g>
<!-- Node9&#45;&gt;Node10 -->
<g id="edge12_Node000009_Node000010" class="edge">
<title>Node9&#45;&gt;Node10</title>
<g id="a_edge12_Node000009_Node000010"><a xlink:title=" ">
<path fill="none" stroke="#63b8ff" d="M589.53,-118.58C581.16,-118.49 572.75,-118.4 564.43,-118.31"/>
<polygon fill="#63b8ff" stroke="#63b8ff" points="589.68,-122.08 599.72,-118.69 589.76,-115.08 589.68,-122.08"/>
</a>
</g>
</g>
<!-- Node11 -->
<g id="Node000011" class="node">
<title>Node11</title>
<g id="a_Node000011"><a xlink:href="classcom_1_1teragrep_1_1pth__06_1_1planner_1_1walker_1_1conditions_1_1ElementConditionTest.html#a6a7f290b7a91e0b6218d4e4f01887ac2" target="_top" xlink:title=" ">
<polygon fill="white" stroke="#666666" points="564,-78 316,-78 316,-48 564,-48 564,-78"/>
<text text-anchor="start" x="324" y="-66" font-family="Helvetica,sans-Serif" font-size="10.00">com.teragrep.pth_06.planner.walker.conditions.</text>
<text text-anchor="middle" x="440" y="-55" font-family="Helvetica,sans-Serif" font-size="10.00">ElementConditionTest.testIsIndexStatement</text>
</a>
</g>
</g>
<!-- Node9&#45;&gt;Node11 -->
<g id="edge13_Node000009_Node000011" class="edge">
<title>Node9&#45;&gt;Node11</title>
<g id="a_edge13_Node000009_Node000011"><a xlink:title=" ">
<path fill="none" stroke="#63b8ff" d="M634.14,-102.95C622.65,-100.66 611.04,-98.3 600,-96 583.96,-92.65 580.03,-91.41 564,-88 548.55,-84.71 531.98,-81.28 516.17,-78.05"/>
<polygon fill="#63b8ff" stroke="#63b8ff" points="633.71,-106.43 644.2,-104.94 635.07,-99.56 633.71,-106.43"/>
</a>
</g>
</g>
</g>
</svg>
