<?xml version="1.0" encoding="UTF-8" standalone="no"?>
<!DOCTYPE svg PUBLIC "-//W3C//DTD SVG 1.1//EN"
 "http://www.w3.org/Graphics/SVG/1.1/DTD/svg11.dtd">
<!-- Generated by graphviz version 2.43.0 (0)
 -->
<!-- Title: com.teragrep.pth_06.planner.walker.conditions.ValidElement.validate Pages: 1 -->
<svg width="1424pt" height="511pt"
 viewBox="0.00 0.00 1424.00 510.72" xmlns="http://www.w3.org/2000/svg" xmlns:xlink="http://www.w3.org/1999/xlink">
<g id="graph0" class="graph" transform="scale(1 1) rotate(0) translate(4 506.72)">
<title>com.teragrep.pth_06.planner.walker.conditions.ValidElement.validate</title>
<!-- Node1 -->
<g id="Node000001" class="node">
<title>Node1</title>
<g id="a_Node000001"><a xlink:title=" ">
<polygon fill="#999999" stroke="#666666" points="1416,-247 1168,-247 1168,-217 1416,-217 1416,-247"/>
<text text-anchor="start" x="1176" y="-235" font-family="Helvetica,sans-Serif" font-size="10.00">com.teragrep.pth_06.planner.walker.conditions.</text>
<text text-anchor="middle" x="1292" y="-224" font-family="Helvetica,sans-Serif" font-size="10.00">ValidElement.validate</text>
</a>
</g>
</g>
<!-- Node2 -->
<g id="Node000002" class="node">
<title>Node2</title>
<g id="a_Node000002"><a xlink:href="classcom_1_1teragrep_1_1pth__06_1_1planner_1_1walker_1_1conditions_1_1ValidElement.html#a7a4670f256d613e6433c461cf275ae5c" target="_top" xlink:title=" ">
<polygon fill="white" stroke="#666666" points="1132,-295 884,-295 884,-265 1132,-265 1132,-295"/>
<text text-anchor="start" x="892" y="-283" font-family="Helvetica,sans-Serif" font-size="10.00">com.teragrep.pth_06.planner.walker.conditions.</text>
<text text-anchor="middle" x="1008" y="-272" font-family="Helvetica,sans-Serif" font-size="10.00">ValidElement.operation</text>
</a>
</g>
</g>
<!-- Node1&#45;&gt;Node2 -->
<g id="edge1_Node000001_Node000002" class="edge">
<title>Node1&#45;&gt;Node2</title>
<g id="a_edge1_Node000001_Node000002"><a xlink:title=" ">
<path fill="none" stroke="#63b8ff" d="M1192.58,-248.75C1161.53,-254.04 1127.43,-259.84 1097.14,-265"/>
<polygon fill="#63b8ff" stroke="#63b8ff" points="1193.28,-252.18 1202.55,-247.06 1192.1,-245.28 1193.28,-252.18"/>
</a>
</g>
</g>
<!-- Node14 -->
<g id="Node000014" class="node">
<title>Node14</title>
<g id="a_Node000014"><a xlink:href="classcom_1_1teragrep_1_1pth__06_1_1planner_1_1walker_1_1conditions_1_1ValidElement.html#a5f5d7e1e5a7d4596f0df0c86657fa310" target="_top" xlink:title=" ">
<polygon fill="white" stroke="#666666" points="1132,-247 884,-247 884,-217 1132,-217 1132,-247"/>
<text text-anchor="start" x="892" y="-235" font-family="Helvetica,sans-Serif" font-size="10.00">com.teragrep.pth_06.planner.walker.conditions.</text>
<text text-anchor="middle" x="1008" y="-224" font-family="Helvetica,sans-Serif" font-size="10.00">ValidElement.tag</text>
</a>
</g>
</g>
<!-- Node1&#45;&gt;Node14 -->
<g id="edge16_Node000001_Node000014" class="edge">
<title>Node1&#45;&gt;Node14</title>
<g id="a_edge16_Node000001_Node000014"><a xlink:title=" ">
<path fill="none" stroke="#63b8ff" d="M1157.53,-232C1149.16,-232 1140.75,-232 1132.43,-232"/>
<polygon fill="#63b8ff" stroke="#63b8ff" points="1157.72,-235.5 1167.72,-232 1157.72,-228.5 1157.72,-235.5"/>
</a>
</g>
</g>
<!-- Node17 -->
<g id="Node000017" class="node">
<title>Node17</title>
<g id="a_Node000017"><a xlink:href="classcom_1_1teragrep_1_1pth__06_1_1planner_1_1walker_1_1conditions_1_1ValidElement.html#ac0ea2df270c90db9d9cc284d8f56222d" target="_top" xlink:title=" ">
<polygon fill="white" stroke="#666666" points="1132,-199 884,-199 884,-169 1132,-169 1132,-199"/>
<text text-anchor="start" x="892" y="-187" font-family="Helvetica,sans-Serif" font-size="10.00">com.teragrep.pth_06.planner.walker.conditions.</text>
<text text-anchor="middle" x="1008" y="-176" font-family="Helvetica,sans-Serif" font-size="10.00">ValidElement.value</text>
</a>
</g>
</g>
<!-- Node1&#45;&gt;Node17 -->
<g id="edge23_Node000001_Node000017" class="edge">
<title>Node1&#45;&gt;Node17</title>
<g id="a_edge23_Node000001_Node000017"><a xlink:title=" ">
<path fill="none" stroke="#63b8ff" d="M1192.58,-215.25C1161.53,-209.96 1127.43,-204.16 1097.14,-199"/>
<polygon fill="#63b8ff" stroke="#63b8ff" points="1192.1,-218.72 1202.55,-216.94 1193.28,-211.82 1192.1,-218.72"/>
</a>
</g>
</g>
<!-- Node3 -->
<g id="Node000003" class="node">
<title>Node3</title>
<g id="a_Node000003"><a xlink:href="classcom_1_1teragrep_1_1pth__06_1_1planner_1_1walker_1_1conditions_1_1ElementCondition.html#ad598b3368f8fca059dfc07a49d352f31" target="_top" xlink:title=" ">
<polygon fill="white" stroke="#666666" points="848,-199 600,-199 600,-169 848,-169 848,-199"/>
<text text-anchor="start" x="608" y="-187" font-family="Helvetica,sans-Serif" font-size="10.00">com.teragrep.pth_06.planner.walker.conditions.</text>
<text text-anchor="middle" x="724" y="-176" font-family="Helvetica,sans-Serif" font-size="10.00">ElementCondition.conditionForJournalDBQuery</text>
</a>
</g>
</g>
<!-- Node2&#45;&gt;Node3 -->
<g id="edge2_Node000002_Node000003" class="edge">
<title>Node2&#45;&gt;Node3</title>
<g id="a_edge2_Node000002_Node000003"><a xlink:title=" ">
<path fill="none" stroke="#63b8ff" d="M892.15,-260.63C889.36,-259.19 886.63,-257.65 884,-256 861.41,-241.84 870.59,-222.16 848,-208 842.56,-204.59 836.74,-201.65 830.71,-199.11"/>
<polygon fill="#63b8ff" stroke="#63b8ff" points="890.75,-263.84 901.29,-264.89 893.71,-257.5 890.75,-263.84"/>
</a>
</g>
</g>
<!-- Node5 -->
<g id="Node000005" class="node">
<title>Node5</title>
<g id="a_Node000005"><a xlink:href="classcom_1_1teragrep_1_1pth__06_1_1planner_1_1walker_1_1conditions_1_1ElementCondition.html#ad1faef74318cb350165bbeafd562ecde" target="_top" xlink:title=" ">
<polygon fill="white" stroke="#666666" points="264,-234 16,-234 16,-204 264,-204 264,-234"/>
<text text-anchor="start" x="24" y="-222" font-family="Helvetica,sans-Serif" font-size="10.00">com.teragrep.pth_06.planner.walker.conditions.</text>
<text text-anchor="middle" x="140" y="-211" font-family="Helvetica,sans-Serif" font-size="10.00">ElementCondition.conditionForStreamDBQuery</text>
</a>
</g>
</g>
<!-- Node2&#45;&gt;Node5 -->
<g id="edge11_Node000002_Node000005" class="edge">
<title>Node2&#45;&gt;Node5</title>
<g id="a_edge11_Node000002_Node000005"><a xlink:title=" ">
<path fill="none" stroke="#63b8ff" d="M982.5,-301.66C952.77,-326.76 900.13,-367.55 848,-390 629.47,-484.13 529.08,-555.9 316,-450 221.38,-402.98 164.24,-277.66 146.76,-234.14"/>
<polygon fill="#63b8ff" stroke="#63b8ff" points="984.93,-304.18 990.25,-295.02 980.38,-298.86 984.93,-304.18"/>
</a>
</g>
</g>
<!-- Node10 -->
<g id="Node000010" class="node">
<title>Node10</title>
<g id="a_Node000010"><a xlink:href="classcom_1_1teragrep_1_1pth__06_1_1planner_1_1walker_1_1conditions_1_1ElementCondition.html#af340b59529954bf83536432d3512af34" target="_top" xlink:title=" ">
<polygon fill="white" stroke="#666666" points="848,-381 600,-381 600,-351 848,-351 848,-381"/>
<text text-anchor="start" x="608" y="-369" font-family="Helvetica,sans-Serif" font-size="10.00">com.teragrep.pth_06.planner.walker.conditions.</text>
<text text-anchor="middle" x="724" y="-358" font-family="Helvetica,sans-Serif" font-size="10.00">ElementCondition.isBloomSearchCondition</text>
</a>
</g>
</g>
<!-- Node2&#45;&gt;Node10 -->
<g id="edge12_Node000002_Node000010" class="edge">
<title>Node2&#45;&gt;Node10</title>
<g id="a_edge12_Node000002_Node000010"><a xlink:title=" ">
<path fill="none" stroke="#63b8ff" d="M959.48,-298.62C928.12,-310.52 885.97,-325.76 848,-337 830.96,-342.05 812.39,-346.8 794.96,-350.95"/>
<polygon fill="#63b8ff" stroke="#63b8ff" points="960.75,-301.88 968.85,-295.05 958.26,-295.34 960.75,-301.88"/>
</a>
</g>
</g>
<!-- Node13 -->
<g id="Node000013" class="node">
<title>Node13</title>
<g id="a_Node000013"><a xlink:href="classcom_1_1teragrep_1_1pth__06_1_1planner_1_1walker_1_1conditions_1_1ValidElementTest.html#aebd4924948cd0e533806857b2ba0ba83" target="_top" xlink:title=" ">
<polygon fill="white" stroke="#666666" points="848,-247 600,-247 600,-217 848,-217 848,-247"/>
<text text-anchor="start" x="608" y="-235" font-family="Helvetica,sans-Serif" font-size="10.00">com.teragrep.pth_06.planner.walker.conditions.</text>
<text text-anchor="middle" x="724" y="-224" font-family="Helvetica,sans-Serif" font-size="10.00">ValidElementTest.validTest</text>
</a>
</g>
</g>
<!-- Node2&#45;&gt;Node13 -->
<g id="edge15_Node000002_Node000013" class="edge">
<title>Node2&#45;&gt;Node13</title>
<g id="a_edge15_Node000002_Node000013"><a xlink:title=" ">
<path fill="none" stroke="#63b8ff" d="M908.58,-263.25C877.53,-257.96 843.43,-252.16 813.14,-247"/>
<polygon fill="#63b8ff" stroke="#63b8ff" points="908.1,-266.72 918.55,-264.94 909.28,-259.82 908.1,-266.72"/>
</a>
</g>
</g>
<!-- Node4 -->
<g id="Node000004" class="node">
<title>Node4</title>
<g id="a_Node000004"><a xlink:href="classcom_1_1teragrep_1_1pth__06_1_1planner_1_1walker_1_1conditions_1_1ElementCondition.html#a77e4bd928b9d9dd1e2ef3380f65e3ab7" target="_top" xlink:title=" ">
<polygon fill="white" stroke="#666666" points="564,-132 316,-132 316,-102 564,-102 564,-132"/>
<text text-anchor="start" x="324" y="-120" font-family="Helvetica,sans-Serif" font-size="10.00">com.teragrep.pth_06.planner.walker.conditions.</text>
<text text-anchor="middle" x="440" y="-109" font-family="Helvetica,sans-Serif" font-size="10.00">ElementCondition.condition</text>
</a>
</g>
</g>
<!-- Node3&#45;&gt;Node4 -->
<g id="edge3_Node000003_Node000004" class="edge">
<title>Node3&#45;&gt;Node4</title>
<g id="a_edge3_Node000003_Node000004"><a xlink:title=" ">
<path fill="none" stroke="#63b8ff" d="M672.48,-166.74C650.18,-161.79 623.71,-156.51 600,-151 575.21,-145.24 548.44,-138.28 524.06,-132.04"/>
<polygon fill="#63b8ff" stroke="#63b8ff" points="671.88,-170.19 682.4,-168.98 673.43,-163.36 671.88,-170.19"/>
</a>
</g>
</g>
<!-- Node4&#45;&gt;Node3 -->
<g id="edge4_Node000004_Node000003" class="edge">
<title>Node4&#45;&gt;Node3</title>
<g id="a_edge4_Node000004_Node000003"><a xlink:title=" ">
<path fill="none" stroke="#63b8ff" d="M479.31,-135.41C511.4,-146.35 558.48,-159.35 600,-169 600.11,-169.02 600.21,-169.05 600.32,-169.07"/>
<polygon fill="#63b8ff" stroke="#63b8ff" points="480.45,-132.1 469.86,-132.08 478.13,-138.7 480.45,-132.1"/>
</a>
</g>
</g>
<!-- Node4&#45;&gt;Node5 -->
<g id="edge5_Node000004_Node000005" class="edge">
<title>Node4&#45;&gt;Node5</title>
<g id="a_edge5_Node000004_Node000005"><a xlink:title=" ">
<path fill="none" stroke="#63b8ff" d="M316.02,-138.09C295.06,-155.89 300.65,-173.23 280,-186 266.46,-194.38 250.84,-200.04 235.06,-203.99"/>
<polygon fill="#63b8ff" stroke="#63b8ff" points="318.25,-140.8 324.22,-132.05 314.1,-135.16 318.25,-140.8"/>
</a>
</g>
</g>
<!-- Node6 -->
<g id="Node000006" class="node">
<title>Node6</title>
<g id="a_Node000006"><a xlink:href="classcom_1_1teragrep_1_1pth__06_1_1planner_1_1walker_1_1conditions_1_1ElementConditionTest.html#aa7b824b2c1a077cb408c7e0532131e67" target="_top" xlink:title=" ">
<polygon fill="white" stroke="#666666" points="264,-186 16,-186 16,-156 264,-156 264,-186"/>
<text text-anchor="start" x="24" y="-174" font-family="Helvetica,sans-Serif" font-size="10.00">com.teragrep.pth_06.planner.walker.conditions.</text>
<text text-anchor="middle" x="140" y="-163" font-family="Helvetica,sans-Serif" font-size="10.00">ElementConditionTest.equalsTest</text>
</a>
</g>
</g>
<!-- Node4&#45;&gt;Node6 -->
<g id="edge7_Node000004_Node000006" class="edge">
<title>Node4&#45;&gt;Node6</title>
<g id="a_edge7_Node000004_Node000006"><a xlink:title=" ">
<path fill="none" stroke="#63b8ff" d="M346.93,-133.83C324.99,-137.83 301.67,-142.08 280,-146 262.15,-149.23 243,-152.69 224.8,-155.96"/>
<polygon fill="#63b8ff" stroke="#63b8ff" points="347.68,-137.25 356.89,-132.02 346.43,-130.37 347.68,-137.25"/>
</a>
</g>
</g>
<!-- Node7 -->
<g id="Node000007" class="node">
<title>Node7</title>
<g id="a_Node000007"><a xlink:href="classcom_1_1teragrep_1_1pth__06_1_1planner_1_1walker_1_1conditions_1_1ElementConditionTest.html#ad044c19c275fa741d2d8d85218845761" target="_top" xlink:title=" ">
<polygon fill="white" stroke="#666666" points="280,-137.5 0,-137.5 0,-96.5 280,-96.5 280,-137.5"/>
<text text-anchor="start" x="8" y="-125.5" font-family="Helvetica,sans-Serif" font-size="10.00">com.teragrep.pth_06.planner.walker.conditions.</text>
<text text-anchor="start" x="8" y="-114.5" font-family="Helvetica,sans-Serif" font-size="10.00">ElementConditionTest.testStreamDBQueryRecognized</text>
<text text-anchor="middle" x="140" y="-103.5" font-family="Helvetica,sans-Serif" font-size="10.00">ButUnsupportedTagsPassthrough</text>
</a>
</g>
</g>
<!-- Node4&#45;&gt;Node7 -->
<g id="edge8_Node000004_Node000007" class="edge">
<title>Node4&#45;&gt;Node7</title>
<g id="a_edge8_Node000004_Node000007"><a xlink:title=" ">
<path fill="none" stroke="#63b8ff" d="M305.46,-117C297.08,-117 288.63,-117 280.22,-117"/>
<polygon fill="#63b8ff" stroke="#63b8ff" points="305.64,-120.5 315.64,-117 305.64,-113.5 305.64,-120.5"/>
</a>
</g>
</g>
<!-- Node8 -->
<g id="Node000008" class="node">
<title>Node8</title>
<g id="a_Node000008"><a xlink:href="classcom_1_1teragrep_1_1pth__06_1_1planner_1_1walker_1_1conditions_1_1ElementConditionTest.html#a8128d1d936c645c93ebfc6f5fe4cdbe6" target="_top" xlink:title=" ">
<polygon fill="white" stroke="#666666" points="264,-78 16,-78 16,-48 264,-48 264,-78"/>
<text text-anchor="start" x="24" y="-66" font-family="Helvetica,sans-Serif" font-size="10.00">com.teragrep.pth_06.planner.walker.conditions.</text>
<text text-anchor="middle" x="140" y="-55" font-family="Helvetica,sans-Serif" font-size="10.00">ElementConditionTest.testStreamTags</text>
</a>
</g>
</g>
<!-- Node4&#45;&gt;Node8 -->
<g id="edge9_Node000004_Node000008" class="edge">
<title>Node4&#45;&gt;Node8</title>
<g id="a_edge9_Node000004_Node000008"><a xlink:title=" ">
<path fill="none" stroke="#63b8ff" d="M350.53,-100.06C327.58,-95.73 302.88,-91.13 280,-87 263.61,-84.04 246.12,-80.96 229.27,-78.03"/>
<polygon fill="#63b8ff" stroke="#63b8ff" points="350.12,-103.54 360.6,-101.96 351.42,-96.66 350.12,-103.54"/>
</a>
</g>
</g>
<!-- Node9 -->
<g id="Node000009" class="node">
<title>Node9</title>
<g id="a_Node000009"><a xlink:href="classcom_1_1teragrep_1_1pth__06_1_1planner_1_1walker_1_1conditions_1_1ElementConditionTest.html#aed3578cbc9f7e4f77695db0f1f45b40a" target="_top" xlink:title=" ">
<polygon fill="white" stroke="#666666" points="264,-30 16,-30 16,0 264,0 264,-30"/>
<text text-anchor="start" x="24" y="-18" font-family="Helvetica,sans-Serif" font-size="10.00">com.teragrep.pth_06.planner.walker.conditions.</text>
<text text-anchor="middle" x="140" y="-7" font-family="Helvetica,sans-Serif" font-size="10.00">ElementConditionTest.testTimeQualifiers</text>
</a>
</g>
</g>
<!-- Node4&#45;&gt;Node9 -->
<g id="edge10_Node000004_Node000009" class="edge">
<title>Node4&#45;&gt;Node9</title>
<g id="a_edge10_Node000004_Node000009"><a xlink:title=" ">
<path fill="none" stroke="#63b8ff" d="M405.28,-96.93C373.89,-79.1 325.25,-53.67 280,-39 269.4,-35.56 258.18,-32.59 246.89,-30.02"/>
<polygon fill="#63b8ff" stroke="#63b8ff" points="403.64,-100.02 414.06,-101.96 407.13,-93.95 403.64,-100.02"/>
</a>
</g>
</g>
<!-- Node5&#45;&gt;Node4 -->
<g id="edge6_Node000005_Node000004" class="edge">
<title>Node5&#45;&gt;Node4</title>
<g id="a_edge6_Node000005_Node000004"><a xlink:title=" ">
<path fill="none" stroke="#63b8ff" d="M273.28,-207.85C275.57,-206.64 277.81,-205.35 280,-204 302.98,-189.78 293.46,-169.91 316,-155 333.2,-143.62 354.35,-136.69 374.24,-132.03"/>
<polygon fill="#63b8ff" stroke="#63b8ff" points="271.74,-204.71 264.25,-212.21 274.78,-211.02 271.74,-204.71"/>
</a>
</g>
</g>
<!-- Node11 -->
<g id="Node000011" class="node">
<title>Node11</title>
<g id="a_Node000011"><a xlink:href="classcom_1_1teragrep_1_1pth__06_1_1planner_1_1walker_1_1conditions_1_1ElementConditionTest.html#ac00569686f11d16cb1b703c1823cb467" target="_top" xlink:title=" ">
<polygon fill="white" stroke="#666666" points="564,-440.5 316,-440.5 316,-399.5 564,-399.5 564,-440.5"/>
<text text-anchor="start" x="324" y="-428.5" font-family="Helvetica,sans-Serif" font-size="10.00">com.teragrep.pth_06.planner.walker.conditions.</text>
<text text-anchor="start" x="324" y="-417.5" font-family="Helvetica,sans-Serif" font-size="10.00">ElementConditionTest.testIndexStatementWith</text>
<text text-anchor="middle" x="440" y="-406.5" font-family="Helvetica,sans-Serif" font-size="10.00">BadConnection</text>
</a>
</g>
</g>
<!-- Node10&#45;&gt;Node11 -->
<g id="edge13_Node000010_Node000011" class="edge">
<title>Node10&#45;&gt;Node11</title>
<g id="a_edge13_Node000010_Node000011"><a xlink:title=" ">
<path fill="none" stroke="#63b8ff" d="M634.5,-382.95C607.11,-388.19 576.63,-394.03 548.11,-399.49"/>
<polygon fill="#63b8ff" stroke="#63b8ff" points="635.28,-386.36 644.45,-381.04 633.97,-379.49 635.28,-386.36"/>
</a>
</g>
</g>
<!-- Node12 -->
<g id="Node000012" class="node">
<title>Node12</title>
<g id="a_Node000012"><a xlink:href="classcom_1_1teragrep_1_1pth__06_1_1planner_1_1walker_1_1conditions_1_1ElementConditionTest.html#a6a7f290b7a91e0b6218d4e4f01887ac2" target="_top" xlink:title=" ">
<polygon fill="white" stroke="#666666" points="564,-381 316,-381 316,-351 564,-351 564,-381"/>
<text text-anchor="start" x="324" y="-369" font-family="Helvetica,sans-Serif" font-size="10.00">com.teragrep.pth_06.planner.walker.conditions.</text>
<text text-anchor="middle" x="440" y="-358" font-family="Helvetica,sans-Serif" font-size="10.00">ElementConditionTest.testIsIndexStatement</text>
</a>
</g>
</g>
<!-- Node10&#45;&gt;Node12 -->
<g id="edge14_Node000010_Node000012" class="edge">
<title>Node10&#45;&gt;Node12</title>
<g id="a_edge14_Node000010_Node000012"><a xlink:title=" ">
<path fill="none" stroke="#63b8ff" d="M589.53,-366C581.16,-366 572.75,-366 564.43,-366"/>
<polygon fill="#63b8ff" stroke="#63b8ff" points="589.72,-369.5 599.72,-366 589.72,-362.5 589.72,-369.5"/>
</a>
</g>
</g>
<!-- Node14&#45;&gt;Node3 -->
<g id="edge17_Node000014_Node000003" class="edge">
<title>Node14&#45;&gt;Node3</title>
<g id="a_edge17_Node000014_Node000003"><a xlink:title=" ">
<path fill="none" stroke="#63b8ff" d="M908.58,-215.25C877.53,-209.96 843.43,-204.16 813.14,-199"/>
<polygon fill="#63b8ff" stroke="#63b8ff" points="908.1,-218.72 918.55,-216.94 909.28,-211.82 908.1,-218.72"/>
</a>
</g>
</g>
<!-- Node14&#45;&gt;Node5 -->
<g id="edge18_Node000014_Node000005" class="edge">
<title>Node14&#45;&gt;Node5</title>
<g id="a_edge18_Node000014_Node000005"><a xlink:title=" ">
<path fill="none" stroke="#63b8ff" d="M892.15,-251.37C889.36,-252.81 886.63,-254.35 884,-256 861.41,-270.16 871.85,-292.07 848,-304 734.18,-360.91 346.18,-271.31 198.61,-234.05"/>
<polygon fill="#63b8ff" stroke="#63b8ff" points="893.71,-254.5 901.29,-247.11 890.75,-248.16 893.71,-254.5"/>
</a>
</g>
</g>
<!-- Node14&#45;&gt;Node10 -->
<g id="edge19_Node000014_Node000010" class="edge">
<title>Node14&#45;&gt;Node10</title>
<g id="a_edge19_Node000014_Node000010"><a xlink:title=" ">
<path fill="none" stroke="#63b8ff" d="M888.92,-252.37C887.24,-253.52 885.6,-254.73 884,-256 853.19,-280.55 878.33,-311.86 848,-337 841.24,-342.6 833.59,-347.16 825.5,-350.86"/>
<polygon fill="#63b8ff" stroke="#63b8ff" points="890.93,-255.24 897.68,-247.08 887.31,-249.25 890.93,-255.24"/>
</a>
</g>
</g>
<!-- Node14&#45;&gt;Node13 -->
<g id="edge22_Node000014_Node000013" class="edge">
<title>Node14&#45;&gt;Node13</title>
<g id="a_edge22_Node000014_Node000013"><a xlink:title=" ">
<path fill="none" stroke="#63b8ff" d="M873.53,-232C865.16,-232 856.75,-232 848.43,-232"/>
<polygon fill="#63b8ff" stroke="#63b8ff" points="873.72,-235.5 883.72,-232 873.72,-228.5 873.72,-235.5"/>
</a>
</g>
</g>
<!-- Node15 -->
<g id="Node000015" class="node">
<title>Node15</title>
<g id="a_Node000015"><a xlink:href="classcom_1_1teragrep_1_1pth__06_1_1planner_1_1walker_1_1conditions_1_1ValidElementTest.html#a67d8cf6b8fd53006859128966b2287d7" target="_top" xlink:title=" ">
<polygon fill="white" stroke="#666666" points="848,-295 600,-295 600,-265 848,-265 848,-295"/>
<text text-anchor="start" x="608" y="-283" font-family="Helvetica,sans-Serif" font-size="10.00">com.teragrep.pth_06.planner.walker.conditions.</text>
<text text-anchor="middle" x="724" y="-272" font-family="Helvetica,sans-Serif" font-size="10.00">ValidElementTest.missingOperationTest</text>
</a>
</g>
</g>
<!-- Node14&#45;&gt;Node15 -->
<g id="edge20_Node000014_Node000015" class="edge">
<title>Node14&#45;&gt;Node15</title>
<g id="a_edge20_Node000014_Node000015"><a xlink:title=" ">
<path fill="none" stroke="#63b8ff" d="M908.58,-248.75C877.53,-254.04 843.43,-259.84 813.14,-265"/>
<polygon fill="#63b8ff" stroke="#63b8ff" points="909.28,-252.18 918.55,-247.06 908.1,-245.28 909.28,-252.18"/>
</a>
</g>
</g>
<!-- Node16 -->
<g id="Node000016" class="node">
<title>Node16</title>
<g id="a_Node000016"><a xlink:href="classcom_1_1teragrep_1_1pth__06_1_1planner_1_1walker_1_1conditions_1_1ValidElementTest.html#ac832b513f4dce1d1de9214c9d54ddfdd" target="_top" xlink:title=" ">
<polygon fill="white" stroke="#666666" points="848,-151 600,-151 600,-121 848,-121 848,-151"/>
<text text-anchor="start" x="608" y="-139" font-family="Helvetica,sans-Serif" font-size="10.00">com.teragrep.pth_06.planner.walker.conditions.</text>
<text text-anchor="middle" x="724" y="-128" font-family="Helvetica,sans-Serif" font-size="10.00">ValidElementTest.missingValueTest</text>
</a>
</g>
</g>
<!-- Node14&#45;&gt;Node16 -->
<g id="edge21_Node000014_Node000016" class="edge">
<title>Node14&#45;&gt;Node16</title>
<g id="a_edge21_Node000014_Node000016"><a xlink:title=" ">
<path fill="none" stroke="#63b8ff" d="M892.15,-212.63C889.36,-211.19 886.63,-209.65 884,-208 861.41,-193.84 870.59,-174.16 848,-160 842.56,-156.59 836.74,-153.65 830.71,-151.11"/>
<polygon fill="#63b8ff" stroke="#63b8ff" points="890.75,-215.84 901.29,-216.89 893.71,-209.5 890.75,-215.84"/>
</a>
</g>
</g>
<!-- Node17&#45;&gt;Node3 -->
<g id="edge24_Node000017_Node000003" class="edge">
<title>Node17&#45;&gt;Node3</title>
<g id="a_edge24_Node000017_Node000003"><a xlink:title=" ">
<path fill="none" stroke="#63b8ff" d="M873.53,-184C865.16,-184 856.75,-184 848.43,-184"/>
<polygon fill="#63b8ff" stroke="#63b8ff" points="873.72,-187.5 883.72,-184 873.72,-180.5 873.72,-187.5"/>
</a>
</g>
</g>
<!-- Node17&#45;&gt;Node5 -->
<g id="edge25_Node000017_Node000005" class="edge">
<title>Node17&#45;&gt;Node5</title>
<g id="a_edge25_Node000017_Node000005"><a xlink:title=" ">
<path fill="none" stroke="#63b8ff" d="M973.83,-163.91C942.63,-146.27 893.97,-121.92 848,-112 740.26,-88.74 703.95,-75.34 600,-112 580.62,-118.83 582.65,-132.38 564,-141 447.37,-194.91 406.42,-172.07 280,-195 263.61,-197.97 246.13,-201.06 229.28,-203.99"/>
<polygon fill="#63b8ff" stroke="#63b8ff" points="972.13,-166.97 982.54,-168.92 975.61,-160.9 972.13,-166.97"/>
</a>
</g>
</g>
<!-- Node17&#45;&gt;Node13 -->
<g id="edge27_Node000017_Node000013" class="edge">
<title>Node17&#45;&gt;Node13</title>
<g id="a_edge27_Node000017_Node000013"><a xlink:title=" ">
<path fill="none" stroke="#63b8ff" d="M908.58,-200.75C877.53,-206.04 843.43,-211.84 813.14,-217"/>
<polygon fill="#63b8ff" stroke="#63b8ff" points="909.28,-204.18 918.55,-199.06 908.1,-197.28 909.28,-204.18"/>
</a>
</g>
</g>
<!-- Node18 -->
<g id="Node000018" class="node">
<title>Node18</title>
<g id="a_Node000018"><a xlink:href="classcom_1_1teragrep_1_1pth__06_1_1planner_1_1walker_1_1conditions_1_1ElementCondition.html#a39e39896a78174cc458ec2266e6f1ddc" target="_top" xlink:title="A set of tables needed to be joined to the query to use this condition.">
<polygon fill="white" stroke="#666666" points="848,-65 600,-65 600,-35 848,-35 848,-65"/>
<text text-anchor="start" x="608" y="-53" font-family="Helvetica,sans-Serif" font-size="10.00">com.teragrep.pth_06.planner.walker.conditions.</text>
<text text-anchor="middle" x="724" y="-42" font-family="Helvetica,sans-Serif" font-size="10.00">ElementCondition.requiredTables</text>
</a>
</g>
</g>
<!-- Node17&#45;&gt;Node18 -->
<g id="edge26_Node000017_Node000018" class="edge">
<title>Node17&#45;&gt;Node18</title>
<g id="a_edge26_Node000017_Node000018"><a xlink:title=" ">
<path fill="none" stroke="#63b8ff" d="M980.75,-162.42C950.53,-138.62 898.52,-100.81 848,-79 835.11,-73.43 820.98,-68.84 807.03,-65.08"/>
<polygon fill="#63b8ff" stroke="#63b8ff" points="978.68,-165.24 988.68,-168.73 983.04,-159.77 978.68,-165.24"/>
</a>
</g>
</g>
</g>
</svg>
