<?xml version="1.0" encoding="UTF-8" standalone="no"?>
<!DOCTYPE svg PUBLIC "-//W3C//DTD SVG 1.1//EN"
 "http://www.w3.org/Graphics/SVG/1.1/DTD/svg11.dtd">
<!-- Generated by graphviz version 2.43.0 (0)
 -->
<!-- Title: com.teragrep.pth_06.planner.walker.conditions.ValidElement.tag Pages: 1 -->
<svg width="1140pt" height="291pt"
 viewBox="0.00 0.00 1140.00 290.62" xmlns="http://www.w3.org/2000/svg" xmlns:xlink="http://www.w3.org/1999/xlink">
<g id="graph0" class="graph" transform="scale(1 1) rotate(0) translate(4 286.62)">
<title>com.teragrep.pth_06.planner.walker.conditions.ValidElement.tag</title>
<!-- Node1 -->
<g id="Node000001" class="node">
<title>Node1</title>
<g id="a_Node000001"><a xlink:title=" ">
<polygon fill="#999999" stroke="#666666" points="1132,-150 884,-150 884,-120 1132,-120 1132,-150"/>
<text text-anchor="start" x="892" y="-138" font-family="Helvetica,sans-Serif" font-size="10.00">com.teragrep.pth_06.planner.walker.conditions.</text>
<text text-anchor="middle" x="1008" y="-127" font-family="Helvetica,sans-Serif" font-size="10.00">ValidElement.tag</text>
</a>
</g>
</g>
<!-- Node2 -->
<g id="Node000002" class="node">
<title>Node2</title>
<g id="a_Node000002"><a xlink:href="classcom_1_1teragrep_1_1pth__06_1_1planner_1_1walker_1_1conditions_1_1ElementCondition.html#ad598b3368f8fca059dfc07a49d352f31" target="_top" xlink:title=" ">
<polygon fill="white" stroke="#666666" points="848,-225 600,-225 600,-195 848,-195 848,-225"/>
<text text-anchor="start" x="608" y="-213" font-family="Helvetica,sans-Serif" font-size="10.00">com.teragrep.pth_06.planner.walker.conditions.</text>
<text text-anchor="middle" x="724" y="-202" font-family="Helvetica,sans-Serif" font-size="10.00">ElementCondition.conditionForJournalDBQuery</text>
</a>
</g>
</g>
<!-- Node1&#45;&gt;Node2 -->
<g id="edge1_Node000001_Node000002" class="edge">
<title>Node1&#45;&gt;Node2</title>
<g id="a_edge1_Node000001_Node000002"><a xlink:title=" ">
<path fill="none" stroke="#63b8ff" d="M951.09,-153.03C920.75,-162.52 882.5,-174.02 848,-183 831.92,-187.19 814.55,-191.27 798.07,-194.93"/>
<polygon fill="#63b8ff" stroke="#63b8ff" points="952.16,-156.36 960.65,-150.02 950.06,-149.68 952.16,-156.36"/>
</a>
</g>
</g>
<!-- Node4 -->
<g id="Node000004" class="node">
<title>Node4</title>
<g id="a_Node000004"><a xlink:href="classcom_1_1teragrep_1_1pth__06_1_1planner_1_1walker_1_1conditions_1_1ElementCondition.html#ad1faef74318cb350165bbeafd562ecde" target="_top" xlink:title=" ">
<polygon fill="white" stroke="#666666" points="264,-273 16,-273 16,-243 264,-243 264,-273"/>
<text text-anchor="start" x="24" y="-261" font-family="Helvetica,sans-Serif" font-size="10.00">com.teragrep.pth_06.planner.walker.conditions.</text>
<text text-anchor="middle" x="140" y="-250" font-family="Helvetica,sans-Serif" font-size="10.00">ElementCondition.conditionForStreamDBQuery</text>
</a>
</g>
</g>
<!-- Node1&#45;&gt;Node4 -->
<g id="edge10_Node000001_Node000004" class="edge">
<title>Node1&#45;&gt;Node4</title>
<g id="a_edge10_Node000001_Node000004"><a xlink:title=" ">
<path fill="none" stroke="#63b8ff" d="M981.69,-156.73C951.96,-180.76 900.04,-218.16 848,-234 650.61,-294.07 407.82,-285.63 264.22,-272.74"/>
<polygon fill="#63b8ff" stroke="#63b8ff" points="983.97,-159.39 989.47,-150.33 979.53,-153.98 983.97,-159.39"/>
</a>
</g>
</g>
<!-- Node9 -->
<g id="Node000009" class="node">
<title>Node9</title>
<g id="a_Node000009"><a xlink:href="classcom_1_1teragrep_1_1pth__06_1_1planner_1_1walker_1_1conditions_1_1ElementCondition.html#af340b59529954bf83536432d3512af34" target="_top" xlink:title=" ">
<polygon fill="white" stroke="#666666" points="848,-174 600,-174 600,-144 848,-144 848,-174"/>
<text text-anchor="start" x="608" y="-162" font-family="Helvetica,sans-Serif" font-size="10.00">com.teragrep.pth_06.planner.walker.conditions.</text>
<text text-anchor="middle" x="724" y="-151" font-family="Helvetica,sans-Serif" font-size="10.00">ElementCondition.isBloomSearchCondition</text>
</a>
</g>
</g>
<!-- Node1&#45;&gt;Node9 -->
<g id="edge11_Node000001_Node000009" class="edge">
<title>Node1&#45;&gt;Node9</title>
<g id="a_edge11_Node000001_Node000009"><a xlink:title=" ">
<path fill="none" stroke="#63b8ff" d="M873.53,-146.36C865.16,-147.07 856.75,-147.79 848.43,-148.5"/>
<polygon fill="#63b8ff" stroke="#63b8ff" points="874.05,-149.83 883.72,-145.49 873.46,-142.85 874.05,-149.83"/>
</a>
</g>
</g>
<!-- Node12 -->
<g id="Node000012" class="node">
<title>Node12</title>
<g id="a_Node000012"><a xlink:href="classcom_1_1teragrep_1_1pth__06_1_1planner_1_1walker_1_1conditions_1_1ValidElementTest.html#a67d8cf6b8fd53006859128966b2287d7" target="_top" xlink:title=" ">
<polygon fill="white" stroke="#666666" points="848,-126 600,-126 600,-96 848,-96 848,-126"/>
<text text-anchor="start" x="608" y="-114" font-family="Helvetica,sans-Serif" font-size="10.00">com.teragrep.pth_06.planner.walker.conditions.</text>
<text text-anchor="middle" x="724" y="-103" font-family="Helvetica,sans-Serif" font-size="10.00">ValidElementTest.missingOperationTest</text>
</a>
</g>
</g>
<!-- Node1&#45;&gt;Node12 -->
<g id="edge14_Node000001_Node000012" class="edge">
<title>Node1&#45;&gt;Node12</title>
<g id="a_edge14_Node000001_Node000012"><a xlink:title=" ">
<path fill="none" stroke="#63b8ff" d="M873.53,-123.64C865.16,-122.93 856.75,-122.21 848.43,-121.5"/>
<polygon fill="#63b8ff" stroke="#63b8ff" points="873.46,-127.15 883.72,-124.51 874.05,-120.17 873.46,-127.15"/>
</a>
</g>
</g>
<!-- Node13 -->
<g id="Node000013" class="node">
<title>Node13</title>
<g id="a_Node000013"><a xlink:href="classcom_1_1teragrep_1_1pth__06_1_1planner_1_1walker_1_1conditions_1_1ValidElementTest.html#ac832b513f4dce1d1de9214c9d54ddfdd" target="_top" xlink:title=" ">
<polygon fill="white" stroke="#666666" points="848,-78 600,-78 600,-48 848,-48 848,-78"/>
<text text-anchor="start" x="608" y="-66" font-family="Helvetica,sans-Serif" font-size="10.00">com.teragrep.pth_06.planner.walker.conditions.</text>
<text text-anchor="middle" x="724" y="-55" font-family="Helvetica,sans-Serif" font-size="10.00">ValidElementTest.missingValueTest</text>
</a>
</g>
</g>
<!-- Node1&#45;&gt;Node13 -->
<g id="edge15_Node000001_Node000013" class="edge">
<title>Node1&#45;&gt;Node13</title>
<g id="a_edge15_Node000001_Node000013"><a xlink:title=" ">
<path fill="none" stroke="#63b8ff" d="M951.84,-116.86C921.42,-107.23 882.85,-95.64 848,-87 835.12,-83.81 821.39,-80.77 807.95,-78"/>
<polygon fill="#63b8ff" stroke="#63b8ff" points="950.82,-120.21 961.42,-119.91 952.95,-113.54 950.82,-120.21"/>
</a>
</g>
</g>
<!-- Node14 -->
<g id="Node000014" class="node">
<title>Node14</title>
<g id="a_Node000014"><a xlink:href="classcom_1_1teragrep_1_1pth__06_1_1planner_1_1walker_1_1conditions_1_1ValidElementTest.html#aebd4924948cd0e533806857b2ba0ba83" target="_top" xlink:title=" ">
<polygon fill="white" stroke="#666666" points="848,-30 600,-30 600,0 848,0 848,-30"/>
<text text-anchor="start" x="608" y="-18" font-family="Helvetica,sans-Serif" font-size="10.00">com.teragrep.pth_06.planner.walker.conditions.</text>
<text text-anchor="middle" x="724" y="-7" font-family="Helvetica,sans-Serif" font-size="10.00">ValidElementTest.validTest</text>
</a>
</g>
</g>
<!-- Node1&#45;&gt;Node14 -->
<g id="edge16_Node000001_Node000014" class="edge">
<title>Node1&#45;&gt;Node14</title>
<g id="a_edge16_Node000001_Node000014"><a xlink:title=" ">
<path fill="none" stroke="#63b8ff" d="M978.67,-113.65C948.04,-91.62 897.02,-57.9 848,-39 839.07,-35.56 829.57,-32.59 819.97,-30.03"/>
<polygon fill="#63b8ff" stroke="#63b8ff" points="976.97,-116.75 987.12,-119.8 981.09,-111.09 976.97,-116.75"/>
</a>
</g>
</g>
<!-- Node3 -->
<g id="Node000003" class="node">
<title>Node3</title>
<g id="a_Node000003"><a xlink:href="classcom_1_1teragrep_1_1pth__06_1_1planner_1_1walker_1_1conditions_1_1ElementCondition.html#a77e4bd928b9d9dd1e2ef3380f65e3ab7" target="_top" xlink:title=" ">
<polygon fill="white" stroke="#666666" points="564,-225 316,-225 316,-195 564,-195 564,-225"/>
<text text-anchor="start" x="324" y="-213" font-family="Helvetica,sans-Serif" font-size="10.00">com.teragrep.pth_06.planner.walker.conditions.</text>
<text text-anchor="middle" x="440" y="-202" font-family="Helvetica,sans-Serif" font-size="10.00">ElementCondition.condition</text>
</a>
</g>
</g>
<!-- Node2&#45;&gt;Node3 -->
<g id="edge2_Node000002_Node000003" class="edge">
<title>Node2&#45;&gt;Node3</title>
<g id="a_edge2_Node000002_Node000003"><a xlink:title=" ">
<path fill="none" stroke="#63b8ff" d="M589.53,-203.26C581.16,-203.24 572.75,-203.25 564.43,-203.3"/>
<polygon fill="#63b8ff" stroke="#63b8ff" points="589.71,-206.76 599.72,-203.3 589.73,-199.76 589.71,-206.76"/>
</a>
</g>
</g>
<!-- Node3&#45;&gt;Node2 -->
<g id="edge3_Node000003_Node000002" class="edge">
<title>Node3&#45;&gt;Node2</title>
<g id="a_edge3_Node000003_Node000002"><a xlink:title=" ">
<path fill="none" stroke="#63b8ff" d="M574.62,-216.74C582.99,-216.76 591.4,-216.75 599.72,-216.7"/>
<polygon fill="#63b8ff" stroke="#63b8ff" points="574.44,-213.24 564.43,-216.7 574.42,-220.24 574.44,-213.24"/>
</a>
</g>
</g>
<!-- Node3&#45;&gt;Node4 -->
<g id="edge4_Node000003_Node000004" class="edge">
<title>Node3&#45;&gt;Node4</title>
<g id="a_edge4_Node000003_Node000004"><a xlink:title=" ">
<path fill="none" stroke="#63b8ff" d="M305.74,-224.75C268.69,-230.56 230.32,-237.14 199.94,-243"/>
<polygon fill="#63b8ff" stroke="#63b8ff" points="306.3,-228.2 315.64,-223.21 305.22,-221.29 306.3,-228.2"/>
</a>
</g>
</g>
<!-- Node5 -->
<g id="Node000005" class="node">
<title>Node5</title>
<g id="a_Node000005"><a xlink:href="classcom_1_1teragrep_1_1pth__06_1_1planner_1_1walker_1_1conditions_1_1ElementConditionTest.html#aa7b824b2c1a077cb408c7e0532131e67" target="_top" xlink:title=" ">
<polygon fill="white" stroke="#666666" points="264,-225 16,-225 16,-195 264,-195 264,-225"/>
<text text-anchor="start" x="24" y="-213" font-family="Helvetica,sans-Serif" font-size="10.00">com.teragrep.pth_06.planner.walker.conditions.</text>
<text text-anchor="middle" x="140" y="-202" font-family="Helvetica,sans-Serif" font-size="10.00">ElementConditionTest.equalsTest</text>
</a>
</g>
</g>
<!-- Node3&#45;&gt;Node5 -->
<g id="edge6_Node000003_Node000005" class="edge">
<title>Node3&#45;&gt;Node5</title>
<g id="a_edge6_Node000003_Node000005"><a xlink:title=" ">
<path fill="none" stroke="#63b8ff" d="M305.25,-210C291.61,-210 277.79,-210 264.27,-210"/>
<polygon fill="#63b8ff" stroke="#63b8ff" points="305.64,-213.5 315.64,-210 305.64,-206.5 305.64,-213.5"/>
</a>
</g>
</g>
<!-- Node6 -->
<g id="Node000006" class="node">
<title>Node6</title>
<g id="a_Node000006"><a xlink:href="classcom_1_1teragrep_1_1pth__06_1_1planner_1_1walker_1_1conditions_1_1ElementConditionTest.html#ad044c19c275fa741d2d8d85218845761" target="_top" xlink:title=" ">
<polygon fill="white" stroke="#666666" points="280,-176.5 0,-176.5 0,-135.5 280,-135.5 280,-176.5"/>
<text text-anchor="start" x="8" y="-164.5" font-family="Helvetica,sans-Serif" font-size="10.00">com.teragrep.pth_06.planner.walker.conditions.</text>
<text text-anchor="start" x="8" y="-153.5" font-family="Helvetica,sans-Serif" font-size="10.00">ElementConditionTest.testStreamDBQueryRecognized</text>
<text text-anchor="middle" x="140" y="-142.5" font-family="Helvetica,sans-Serif" font-size="10.00">ButUnsupportedTagsPassthrough</text>
</a>
</g>
</g>
<!-- Node3&#45;&gt;Node6 -->
<g id="edge7_Node000003_Node000006" class="edge">
<title>Node3&#45;&gt;Node6</title>
<g id="a_edge7_Node000003_Node000006"><a xlink:title=" ">
<path fill="none" stroke="#63b8ff" d="M345.86,-193.12C316.81,-187.86 284.45,-182 254.19,-176.51"/>
<polygon fill="#63b8ff" stroke="#63b8ff" points="345.53,-196.62 355.99,-194.96 346.77,-189.73 345.53,-196.62"/>
</a>
</g>
</g>
<!-- Node7 -->
<g id="Node000007" class="node">
<title>Node7</title>
<g id="a_Node000007"><a xlink:href="classcom_1_1teragrep_1_1pth__06_1_1planner_1_1walker_1_1conditions_1_1ElementConditionTest.html#a8128d1d936c645c93ebfc6f5fe4cdbe6" target="_top" xlink:title=" ">
<polygon fill="white" stroke="#666666" points="264,-117 16,-117 16,-87 264,-87 264,-117"/>
<text text-anchor="start" x="24" y="-105" font-family="Helvetica,sans-Serif" font-size="10.00">com.teragrep.pth_06.planner.walker.conditions.</text>
<text text-anchor="middle" x="140" y="-94" font-family="Helvetica,sans-Serif" font-size="10.00">ElementConditionTest.testStreamTags</text>
</a>
</g>
</g>
<!-- Node3&#45;&gt;Node7 -->
<g id="edge8_Node000003_Node000007" class="edge">
<title>Node3&#45;&gt;Node7</title>
<g id="a_edge8_Node000003_Node000007"><a xlink:title=" ">
<path fill="none" stroke="#63b8ff" d="M322.63,-190.25C320.36,-188.92 318.14,-187.5 316,-186 290.54,-168.15 305.65,-143.58 280,-126 275.05,-122.61 269.78,-119.65 264.28,-117.06"/>
<polygon fill="#63b8ff" stroke="#63b8ff" points="321.18,-193.44 331.66,-194.98 324.43,-187.24 321.18,-193.44"/>
</a>
</g>
</g>
<!-- Node8 -->
<g id="Node000008" class="node">
<title>Node8</title>
<g id="a_Node000008"><a xlink:href="classcom_1_1teragrep_1_1pth__06_1_1planner_1_1walker_1_1conditions_1_1ElementConditionTest.html#aed3578cbc9f7e4f77695db0f1f45b40a" target="_top" xlink:title=" ">
<polygon fill="white" stroke="#666666" points="264,-69 16,-69 16,-39 264,-39 264,-69"/>
<text text-anchor="start" x="24" y="-57" font-family="Helvetica,sans-Serif" font-size="10.00">com.teragrep.pth_06.planner.walker.conditions.</text>
<text text-anchor="middle" x="140" y="-46" font-family="Helvetica,sans-Serif" font-size="10.00">ElementConditionTest.testTimeQualifiers</text>
</a>
</g>
</g>
<!-- Node3&#45;&gt;Node8 -->
<g id="edge9_Node000003_Node000008" class="edge">
<title>Node3&#45;&gt;Node8</title>
<g id="a_edge9_Node000003_Node000008"><a xlink:title=" ">
<path fill="none" stroke="#63b8ff" d="M320.07,-189.33C318.68,-188.27 317.32,-187.16 316,-186 277.99,-152.6 318.37,-110.98 280,-78 275.17,-73.85 269.89,-70.29 264.3,-67.26"/>
<polygon fill="#63b8ff" stroke="#63b8ff" points="318.17,-192.27 328.42,-194.92 322.06,-186.45 318.17,-192.27"/>
</a>
</g>
</g>
<!-- Node4&#45;&gt;Node3 -->
<g id="edge5_Node000004_Node000003" class="edge">
<title>Node4&#45;&gt;Node3</title>
<g id="a_edge5_Node000004_Node000003"><a xlink:title=" ">
<path fill="none" stroke="#63b8ff" d="M274.54,-243.21C311.39,-237.43 349.51,-230.89 379.77,-225.06"/>
<polygon fill="#63b8ff" stroke="#63b8ff" points="273.53,-239.82 264.18,-244.82 274.6,-246.74 273.53,-239.82"/>
</a>
</g>
</g>
<!-- Node10 -->
<g id="Node000010" class="node">
<title>Node10</title>
<g id="a_Node000010"><a xlink:href="classcom_1_1teragrep_1_1pth__06_1_1planner_1_1walker_1_1conditions_1_1ElementConditionTest.html#ac00569686f11d16cb1b703c1823cb467" target="_top" xlink:title=" ">
<polygon fill="white" stroke="#666666" points="564,-176.5 316,-176.5 316,-135.5 564,-135.5 564,-176.5"/>
<text text-anchor="start" x="324" y="-164.5" font-family="Helvetica,sans-Serif" font-size="10.00">com.teragrep.pth_06.planner.walker.conditions.</text>
<text text-anchor="start" x="324" y="-153.5" font-family="Helvetica,sans-Serif" font-size="10.00">ElementConditionTest.testIndexStatementWith</text>
<text text-anchor="middle" x="440" y="-142.5" font-family="Helvetica,sans-Serif" font-size="10.00">BadConnection</text>
</a>
</g>
</g>
<!-- Node9&#45;&gt;Node10 -->
<g id="edge12_Node000009_Node000010" class="edge">
<title>Node9&#45;&gt;Node10</title>
<g id="a_edge12_Node000009_Node000010"><a xlink:title=" ">
<path fill="none" stroke="#63b8ff" d="M589.53,-157.58C581.16,-157.49 572.75,-157.4 564.43,-157.31"/>
<polygon fill="#63b8ff" stroke="#63b8ff" points="589.68,-161.08 599.72,-157.69 589.76,-154.08 589.68,-161.08"/>
</a>
</g>
</g>
<!-- Node11 -->
<g id="Node000011" class="node">
<title>Node11</title>
<g id="a_Node000011"><a xlink:href="classcom_1_1teragrep_1_1pth__06_1_1planner_1_1walker_1_1conditions_1_1ElementConditionTest.html#a6a7f290b7a91e0b6218d4e4f01887ac2" target="_top" xlink:title=" ">
<polygon fill="white" stroke="#666666" points="564,-117 316,-117 316,-87 564,-87 564,-117"/>
<text text-anchor="start" x="324" y="-105" font-family="Helvetica,sans-Serif" font-size="10.00">com.teragrep.pth_06.planner.walker.conditions.</text>
<text text-anchor="middle" x="440" y="-94" font-family="Helvetica,sans-Serif" font-size="10.00">ElementConditionTest.testIsIndexStatement</text>
</a>
</g>
</g>
<!-- Node9&#45;&gt;Node11 -->
<g id="edge13_Node000009_Node000011" class="edge">
<title>Node9&#45;&gt;Node11</title>
<g id="a_edge13_Node000009_Node000011"><a xlink:title=" ">
<path fill="none" stroke="#63b8ff" d="M632.72,-141.94C621.68,-139.69 610.57,-137.35 600,-135 583.9,-131.42 580.1,-129.58 564,-126 550.2,-122.93 535.47,-119.87 521.18,-117.02"/>
<polygon fill="#63b8ff" stroke="#63b8ff" points="632.32,-145.44 642.82,-143.98 633.71,-138.57 632.32,-145.44"/>
</a>
</g>
</g>
</g>
</svg>
