<?xml version="1.0" encoding="UTF-8" standalone="no"?>
<!DOCTYPE svg PUBLIC "-//W3C//DTD SVG 1.1//EN"
 "http://www.w3.org/Graphics/SVG/1.1/DTD/svg11.dtd">
<!-- Generated by graphviz version 2.43.0 (0)
 -->
<!-- Title: com.teragrep.pth_06.planner.walker.conditions.QueryCondition.condition Pages: 1 -->
<svg width="1175pt" height="1396pt"
 viewBox="0.00 0.00 1175.00 1396.00" xmlns="http://www.w3.org/2000/svg" xmlns:xlink="http://www.w3.org/1999/xlink">
<g id="graph0" class="graph" transform="scale(1 1) rotate(0) translate(4 1392)">
<title>com.teragrep.pth_06.planner.walker.conditions.QueryCondition.condition</title>
<!-- Node1 -->
<g id="Node000001" class="node">
<title>Node1</title>
<g id="a_Node000001"><a xlink:title=" ">
<polygon fill="#999999" stroke="#666666" points="1167,-428 919,-428 919,-398 1167,-398 1167,-428"/>
<text text-anchor="start" x="927" y="-416" font-family="Helvetica,sans-Serif" font-size="10.00">com.teragrep.pth_06.planner.walker.conditions.</text>
<text text-anchor="middle" x="1043" y="-405" font-family="Helvetica,sans-Serif" font-size="10.00">QueryCondition.condition</text>
</a>
</g>
</g>
<!-- Node2 -->
<g id="Node000002" class="node">
<title>Node2</title>
<g id="a_Node000002"><a xlink:href="classcom_1_1teragrep_1_1pth__06_1_1planner_1_1walker_1_1conditions_1_1HostCondition.html#a5e1a6cbe0677ad979097ecc9ca2893b1" target="_top" xlink:title=" ">
<polygon fill="white" stroke="#666666" points="883,-1220 635,-1220 635,-1190 883,-1190 883,-1220"/>
<text text-anchor="start" x="643" y="-1208" font-family="Helvetica,sans-Serif" font-size="10.00">com.teragrep.pth_06.planner.walker.conditions.</text>
<text text-anchor="middle" x="759" y="-1197" font-family="Helvetica,sans-Serif" font-size="10.00">HostCondition.condition</text>
</a>
</g>
</g>
<!-- Node1&#45;&gt;Node2 -->
<g id="edge1_Node000001_Node000002" class="edge">
<title>Node1&#45;&gt;Node2</title>
<g id="a_edge1_Node000001_Node000002"><a xlink:title=" ">
<path fill="none" stroke="#63b8ff" d="M1034.29,-437.89C1012.1,-509.21 945.59,-720.29 883,-893 841.24,-1008.23 784.99,-1144.91 766.32,-1189.86"/>
<polygon fill="#63b8ff" stroke="#63b8ff" points="1037.73,-438.62 1037.36,-428.03 1031.05,-436.55 1037.73,-438.62"/>
</a>
</g>
</g>
<!-- Node10 -->
<g id="Node000010" class="node">
<title>Node10</title>
<g id="a_Node000010"><a xlink:href="classcom_1_1teragrep_1_1pth__06_1_1planner_1_1walker_1_1conditions_1_1IndexCondition.html#a657fd2ee2d33ed734ca426cc64990be8" target="_top" xlink:title=" ">
<polygon fill="white" stroke="#666666" points="883,-884 635,-884 635,-854 883,-854 883,-884"/>
<text text-anchor="start" x="643" y="-872" font-family="Helvetica,sans-Serif" font-size="10.00">com.teragrep.pth_06.planner.walker.conditions.</text>
<text text-anchor="middle" x="759" y="-861" font-family="Helvetica,sans-Serif" font-size="10.00">IndexCondition.condition</text>
</a>
</g>
</g>
<!-- Node1&#45;&gt;Node10 -->
<g id="edge9_Node000001_Node000010" class="edge">
<title>Node1&#45;&gt;Node10</title>
<g id="a_edge9_Node000001_Node000010"><a xlink:title=" ">
<path fill="none" stroke="#63b8ff" d="M1027.3,-436.77C976.73,-518.54 810.81,-786.84 769.42,-853.77"/>
<polygon fill="#63b8ff" stroke="#63b8ff" points="1030.33,-438.52 1032.62,-428.17 1024.38,-434.84 1030.33,-438.52"/>
</a>
</g>
</g>
<!-- Node18 -->
<g id="Node000018" class="node">
<title>Node18</title>
<g id="a_Node000018"><a xlink:href="classcom_1_1teragrep_1_1pth__06_1_1planner_1_1walker_1_1conditions_1_1IndexStatementCondition.html#ad8a40368c02dae91ddc55b86e2ab7e10" target="_top" xlink:title=" ">
<polygon fill="white" stroke="#666666" points="883,-644 635,-644 635,-614 883,-614 883,-644"/>
<text text-anchor="start" x="643" y="-632" font-family="Helvetica,sans-Serif" font-size="10.00">com.teragrep.pth_06.planner.walker.conditions.</text>
<text text-anchor="middle" x="759" y="-621" font-family="Helvetica,sans-Serif" font-size="10.00">IndexStatementCondition.condition</text>
</a>
</g>
</g>
<!-- Node1&#45;&gt;Node18 -->
<g id="edge17_Node000001_Node000018" class="edge">
<title>Node1&#45;&gt;Node18</title>
<g id="a_edge17_Node000001_Node000018"><a xlink:title=" ">
<path fill="none" stroke="#63b8ff" d="M1013.98,-434.46C957.04,-478.07 829.03,-576.12 779.81,-613.83"/>
<polygon fill="#63b8ff" stroke="#63b8ff" points="1016.36,-437.05 1022.17,-428.19 1012.1,-431.49 1016.36,-437.05"/>
</a>
</g>
</g>
<!-- Node22 -->
<g id="Node000022" class="node">
<title>Node22</title>
<g id="a_Node000022"><a xlink:href="classcom_1_1teragrep_1_1pth__06_1_1planner_1_1walker_1_1conditions_1_1SourceTypeCondition.html#ae7125daefbefb1c254059081c5eb53ae" target="_top" xlink:title=" ">
<polygon fill="white" stroke="#666666" points="883,-428 635,-428 635,-398 883,-398 883,-428"/>
<text text-anchor="start" x="643" y="-416" font-family="Helvetica,sans-Serif" font-size="10.00">com.teragrep.pth_06.planner.walker.conditions.</text>
<text text-anchor="middle" x="759" y="-405" font-family="Helvetica,sans-Serif" font-size="10.00">SourceTypeCondition.condition</text>
</a>
</g>
</g>
<!-- Node1&#45;&gt;Node22 -->
<g id="edge21_Node000001_Node000022" class="edge">
<title>Node1&#45;&gt;Node22</title>
<g id="a_edge21_Node000001_Node000022"><a xlink:title=" ">
<path fill="none" stroke="#63b8ff" d="M908.53,-413C900.16,-413 891.75,-413 883.43,-413"/>
<polygon fill="#63b8ff" stroke="#63b8ff" points="908.72,-416.5 918.72,-413 908.72,-409.5 908.72,-416.5"/>
</a>
</g>
</g>
<!-- Node30 -->
<g id="Node000030" class="node">
<title>Node30</title>
<g id="a_Node000030"><a xlink:href="classcom_1_1teragrep_1_1pth__06_1_1planner_1_1walker_1_1conditions_1_1ElementCondition.html#ad598b3368f8fca059dfc07a49d352f31" target="_top" xlink:title=" ">
<polygon fill="white" stroke="#666666" points="883,-186 635,-186 635,-156 883,-156 883,-186"/>
<text text-anchor="start" x="643" y="-174" font-family="Helvetica,sans-Serif" font-size="10.00">com.teragrep.pth_06.planner.walker.conditions.</text>
<text text-anchor="middle" x="759" y="-163" font-family="Helvetica,sans-Serif" font-size="10.00">ElementCondition.conditionForJournalDBQuery</text>
</a>
</g>
</g>
<!-- Node1&#45;&gt;Node30 -->
<g id="edge29_Node000001_Node000030" class="edge">
<title>Node1&#45;&gt;Node30</title>
<g id="a_edge29_Node000001_Node000030"><a xlink:title=" ">
<path fill="none" stroke="#63b8ff" d="M1030.88,-388.49C1009.22,-343.63 956.9,-248.47 883,-200 874.29,-194.28 864.57,-189.69 854.53,-186"/>
<polygon fill="#63b8ff" stroke="#63b8ff" points="1027.83,-390.22 1035.27,-397.76 1034.16,-387.23 1027.83,-390.22"/>
</a>
</g>
</g>
<!-- Node32 -->
<g id="Node000032" class="node">
<title>Node32</title>
<g id="a_Node000032"><a xlink:href="classcom_1_1teragrep_1_1pth__06_1_1planner_1_1walker_1_1conditions_1_1ElementCondition.html#ad1faef74318cb350165bbeafd562ecde" target="_top" xlink:title=" ">
<polygon fill="white" stroke="#666666" points="264,-234 16,-234 16,-204 264,-204 264,-234"/>
<text text-anchor="start" x="24" y="-222" font-family="Helvetica,sans-Serif" font-size="10.00">com.teragrep.pth_06.planner.walker.conditions.</text>
<text text-anchor="middle" x="140" y="-211" font-family="Helvetica,sans-Serif" font-size="10.00">ElementCondition.conditionForStreamDBQuery</text>
</a>
</g>
</g>
<!-- Node1&#45;&gt;Node32 -->
<g id="edge38_Node000001_Node000032" class="edge">
<title>Node1&#45;&gt;Node32</title>
<g id="a_edge38_Node000001_Node000032"><a xlink:title=" ">
<path fill="none" stroke="#63b8ff" d="M1005.95,-393.15C932.22,-353.74 757.7,-266.54 599,-233 487.51,-209.44 357.38,-207.86 264.39,-211.04"/>
<polygon fill="#63b8ff" stroke="#63b8ff" points="1004.39,-396.28 1014.85,-397.94 1007.7,-390.12 1004.39,-396.28"/>
</a>
</g>
</g>
<!-- Node37 -->
<g id="Node000037" class="node">
<title>Node37</title>
<g id="a_Node000037"><a xlink:href="classcom_1_1teragrep_1_1pth__06_1_1planner_1_1walker_1_1conditions_1_1NegatedCondition.html#a39e7e338fc6a0364e26cc14c124f176f" target="_top" xlink:title=" ">
<polygon fill="white" stroke="#666666" points="883,-138 635,-138 635,-108 883,-108 883,-138"/>
<text text-anchor="start" x="643" y="-126" font-family="Helvetica,sans-Serif" font-size="10.00">com.teragrep.pth_06.planner.walker.conditions.</text>
<text text-anchor="middle" x="759" y="-115" font-family="Helvetica,sans-Serif" font-size="10.00">NegatedCondition.NegatedCondition</text>
</a>
</g>
</g>
<!-- Node1&#45;&gt;Node37 -->
<g id="edge39_Node000001_Node000037" class="edge">
<title>Node1&#45;&gt;Node37</title>
<g id="a_edge39_Node000001_Node000037"><a xlink:title=" ">
<path fill="none" stroke="#63b8ff" d="M1034.83,-388.26C1017.97,-334.82 970.5,-208.46 883,-147 878.1,-143.56 872.84,-140.58 867.35,-138.01"/>
<polygon fill="#63b8ff" stroke="#63b8ff" points="1031.52,-389.4 1037.8,-397.94 1038.21,-387.35 1031.52,-389.4"/>
</a>
</g>
</g>
<!-- Node3 -->
<g id="Node000003" class="node">
<title>Node3</title>
<g id="a_Node000003"><a xlink:href="classcom_1_1teragrep_1_1pth__06_1_1planner_1_1walker_1_1conditions_1_1HostConditionTest.html#ac5fb835f367a0f5fc3295da6e4550324" target="_top" xlink:title=" ">
<polygon fill="white" stroke="#666666" points="581.5,-1388 333.5,-1388 333.5,-1358 581.5,-1358 581.5,-1388"/>
<text text-anchor="start" x="341.5" y="-1376" font-family="Helvetica,sans-Serif" font-size="10.00">com.teragrep.pth_06.planner.walker.conditions.</text>
<text text-anchor="middle" x="457.5" y="-1365" font-family="Helvetica,sans-Serif" font-size="10.00">HostConditionTest.conditionTest</text>
</a>
</g>
</g>
<!-- Node2&#45;&gt;Node3 -->
<g id="edge2_Node000002_Node000003" class="edge">
<title>Node2&#45;&gt;Node3</title>
<g id="a_edge2_Node000002_Node000003"><a xlink:title=" ">
<path fill="none" stroke="#63b8ff" d="M739.77,-1228.33C712.8,-1261.06 658.95,-1319.85 599,-1349 591.88,-1352.46 584.34,-1355.43 576.61,-1357.98"/>
<polygon fill="#63b8ff" stroke="#63b8ff" points="742.77,-1230.2 746.34,-1220.22 737.33,-1225.79 742.77,-1230.2"/>
</a>
</g>
</g>
<!-- Node4 -->
<g id="Node000004" class="node">
<title>Node4</title>
<g id="a_Node000004"><a xlink:href="classcom_1_1teragrep_1_1pth__06_1_1planner_1_1walker_1_1conditions_1_1HostConditionTest.html#ae2adcfd60fd6418231755cbbdd3c14cc" target="_top" xlink:title=" ">
<polygon fill="white" stroke="#666666" points="581.5,-1340 333.5,-1340 333.5,-1310 581.5,-1310 581.5,-1340"/>
<text text-anchor="start" x="341.5" y="-1328" font-family="Helvetica,sans-Serif" font-size="10.00">com.teragrep.pth_06.planner.walker.conditions.</text>
<text text-anchor="middle" x="457.5" y="-1317" font-family="Helvetica,sans-Serif" font-size="10.00">HostConditionTest.equalsTest</text>
</a>
</g>
</g>
<!-- Node2&#45;&gt;Node4 -->
<g id="edge3_Node000002_Node000004" class="edge">
<title>Node2&#45;&gt;Node4</title>
<g id="a_edge3_Node000002_Node000004"><a xlink:title=" ">
<path fill="none" stroke="#63b8ff" d="M730.26,-1226.21C699.77,-1248.42 648.51,-1282.58 599,-1301 589.72,-1304.45 579.91,-1307.41 569.97,-1309.95"/>
<polygon fill="#63b8ff" stroke="#63b8ff" points="732.7,-1228.76 738.66,-1220.01 728.54,-1223.13 732.7,-1228.76"/>
</a>
</g>
</g>
<!-- Node5 -->
<g id="Node000005" class="node">
<title>Node5</title>
<g id="a_Node000005"><a xlink:href="classcom_1_1teragrep_1_1pth__06_1_1planner_1_1walker_1_1conditions_1_1HostConditionTest.html#a5cfa1efd300b2f70a6e669698e37ba83" target="_top" xlink:title=" ">
<polygon fill="white" stroke="#666666" points="581.5,-1292 333.5,-1292 333.5,-1262 581.5,-1262 581.5,-1292"/>
<text text-anchor="start" x="341.5" y="-1280" font-family="Helvetica,sans-Serif" font-size="10.00">com.teragrep.pth_06.planner.walker.conditions.</text>
<text text-anchor="middle" x="457.5" y="-1269" font-family="Helvetica,sans-Serif" font-size="10.00">HostConditionTest.negationTest</text>
</a>
</g>
</g>
<!-- Node2&#45;&gt;Node5 -->
<g id="edge4_Node000002_Node000005" class="edge">
<title>Node2&#45;&gt;Node5</title>
<g id="a_edge4_Node000002_Node000005"><a xlink:title=" ">
<path fill="none" stroke="#63b8ff" d="M703.91,-1223.15C673.36,-1232.94 634.33,-1244.68 599,-1253 585.15,-1256.26 570.43,-1259.27 555.94,-1261.97"/>
<polygon fill="#63b8ff" stroke="#63b8ff" points="705.07,-1226.45 713.51,-1220.05 702.92,-1219.79 705.07,-1226.45"/>
</a>
</g>
</g>
<!-- Node6 -->
<g id="Node000006" class="node">
<title>Node6</title>
<g id="a_Node000006"><a xlink:href="classcom_1_1teragrep_1_1pth__06_1_1planner_1_1walker_1_1conditions_1_1HostConditionTest.html#a1bfa9d2d16ee9cff750080cd3e76e412" target="_top" xlink:title=" ">
<polygon fill="white" stroke="#666666" points="581.5,-1244 333.5,-1244 333.5,-1214 581.5,-1214 581.5,-1244"/>
<text text-anchor="start" x="341.5" y="-1232" font-family="Helvetica,sans-Serif" font-size="10.00">com.teragrep.pth_06.planner.walker.conditions.</text>
<text text-anchor="middle" x="457.5" y="-1221" font-family="Helvetica,sans-Serif" font-size="10.00">HostConditionTest.testPartialWildcard</text>
</a>
</g>
</g>
<!-- Node2&#45;&gt;Node6 -->
<g id="edge5_Node000002_Node000006" class="edge">
<title>Node2&#45;&gt;Node6</title>
<g id="a_edge5_Node000002_Node000006"><a xlink:title=" ">
<path fill="none" stroke="#63b8ff" d="M624.53,-1215.7C610.25,-1216.84 595.77,-1218 581.62,-1219.13"/>
<polygon fill="#63b8ff" stroke="#63b8ff" points="625.2,-1219.15 634.89,-1214.87 624.64,-1212.18 625.2,-1219.15"/>
</a>
</g>
</g>
<!-- Node7 -->
<g id="Node000007" class="node">
<title>Node7</title>
<g id="a_Node000007"><a xlink:href="classcom_1_1teragrep_1_1pth__06_1_1planner_1_1walker_1_1conditions_1_1HostConditionTest.html#a4b66535f188bdd912a3b75ddc8378a24" target="_top" xlink:title=" ">
<polygon fill="white" stroke="#666666" points="581.5,-1196 333.5,-1196 333.5,-1166 581.5,-1166 581.5,-1196"/>
<text text-anchor="start" x="341.5" y="-1184" font-family="Helvetica,sans-Serif" font-size="10.00">com.teragrep.pth_06.planner.walker.conditions.</text>
<text text-anchor="middle" x="457.5" y="-1173" font-family="Helvetica,sans-Serif" font-size="10.00">HostConditionTest.testPartialWildcardNegation</text>
</a>
</g>
</g>
<!-- Node2&#45;&gt;Node7 -->
<g id="edge6_Node000002_Node000007" class="edge">
<title>Node2&#45;&gt;Node7</title>
<g id="a_edge6_Node000002_Node000007"><a xlink:title=" ">
<path fill="none" stroke="#63b8ff" d="M624.53,-1194.3C610.25,-1193.16 595.77,-1192 581.62,-1190.87"/>
<polygon fill="#63b8ff" stroke="#63b8ff" points="624.64,-1197.82 634.89,-1195.13 625.2,-1190.85 624.64,-1197.82"/>
</a>
</g>
</g>
<!-- Node8 -->
<g id="Node000008" class="node">
<title>Node8</title>
<g id="a_Node000008"><a xlink:href="classcom_1_1teragrep_1_1pth__06_1_1planner_1_1walker_1_1conditions_1_1HostConditionTest.html#ac5b9e9dd993fb16cc758e1e190ee14be" target="_top" xlink:title=" ">
<polygon fill="white" stroke="#666666" points="581.5,-1148 333.5,-1148 333.5,-1118 581.5,-1118 581.5,-1148"/>
<text text-anchor="start" x="341.5" y="-1136" font-family="Helvetica,sans-Serif" font-size="10.00">com.teragrep.pth_06.planner.walker.conditions.</text>
<text text-anchor="middle" x="457.5" y="-1125" font-family="Helvetica,sans-Serif" font-size="10.00">HostConditionTest.wildcardAsTrueTest</text>
</a>
</g>
</g>
<!-- Node2&#45;&gt;Node8 -->
<g id="edge7_Node000002_Node000008" class="edge">
<title>Node2&#45;&gt;Node8</title>
<g id="a_edge7_Node000002_Node000008"><a xlink:title=" ">
<path fill="none" stroke="#63b8ff" d="M703.91,-1186.85C673.36,-1177.06 634.33,-1165.32 599,-1157 585.15,-1153.74 570.43,-1150.73 555.94,-1148.03"/>
<polygon fill="#63b8ff" stroke="#63b8ff" points="702.92,-1190.21 713.51,-1189.95 705.07,-1183.55 702.92,-1190.21"/>
</a>
</g>
</g>
<!-- Node9 -->
<g id="Node000009" class="node">
<title>Node9</title>
<g id="a_Node000009"><a xlink:href="classcom_1_1teragrep_1_1pth__06_1_1planner_1_1walker_1_1conditions_1_1HostConditionTest.html#a94fb6e3883e7e0187f3f744b05e4d72b" target="_top" xlink:title=" ">
<polygon fill="white" stroke="#666666" points="582.5,-1100 332.5,-1100 332.5,-1070 582.5,-1070 582.5,-1100"/>
<text text-anchor="start" x="340.5" y="-1088" font-family="Helvetica,sans-Serif" font-size="10.00">com.teragrep.pth_06.planner.walker.conditions.</text>
<text text-anchor="middle" x="457.5" y="-1077" font-family="Helvetica,sans-Serif" font-size="10.00">HostConditionTest.wildcardNegationAsFalseTest</text>
</a>
</g>
</g>
<!-- Node2&#45;&gt;Node9 -->
<g id="edge8_Node000002_Node000009" class="edge">
<title>Node2&#45;&gt;Node9</title>
<g id="a_edge8_Node000002_Node000009"><a xlink:title=" ">
<path fill="none" stroke="#63b8ff" d="M730.26,-1183.79C699.77,-1161.58 648.51,-1127.42 599,-1109 589.72,-1105.55 579.91,-1102.59 569.97,-1100.05"/>
<polygon fill="#63b8ff" stroke="#63b8ff" points="728.54,-1186.87 738.66,-1189.99 732.7,-1181.24 728.54,-1186.87"/>
</a>
</g>
</g>
<!-- Node11 -->
<g id="Node000011" class="node">
<title>Node11</title>
<g id="a_Node000011"><a xlink:href="classcom_1_1teragrep_1_1pth__06_1_1planner_1_1walker_1_1conditions_1_1IndexConditionTest.html#a0634fb1173f568590e68a4797948452f" target="_top" xlink:title=" ">
<polygon fill="white" stroke="#666666" points="581.5,-1052 333.5,-1052 333.5,-1022 581.5,-1022 581.5,-1052"/>
<text text-anchor="start" x="341.5" y="-1040" font-family="Helvetica,sans-Serif" font-size="10.00">com.teragrep.pth_06.planner.walker.conditions.</text>
<text text-anchor="middle" x="457.5" y="-1029" font-family="Helvetica,sans-Serif" font-size="10.00">IndexConditionTest.conditionTest</text>
</a>
</g>
</g>
<!-- Node10&#45;&gt;Node11 -->
<g id="edge10_Node000010_Node000011" class="edge">
<title>Node10&#45;&gt;Node11</title>
<g id="a_edge10_Node000010_Node000011"><a xlink:title=" ">
<path fill="none" stroke="#63b8ff" d="M739.77,-892.33C712.8,-925.06 658.95,-983.85 599,-1013 591.88,-1016.46 584.34,-1019.43 576.61,-1021.98"/>
<polygon fill="#63b8ff" stroke="#63b8ff" points="742.77,-894.2 746.34,-884.22 737.33,-889.79 742.77,-894.2"/>
</a>
</g>
</g>
<!-- Node12 -->
<g id="Node000012" class="node">
<title>Node12</title>
<g id="a_Node000012"><a xlink:href="classcom_1_1teragrep_1_1pth__06_1_1planner_1_1walker_1_1conditions_1_1IndexConditionTest.html#a88d86d8a4d7b500a187f10a1141e5fc8" target="_top" xlink:title=" ">
<polygon fill="white" stroke="#666666" points="581.5,-1004 333.5,-1004 333.5,-974 581.5,-974 581.5,-1004"/>
<text text-anchor="start" x="341.5" y="-992" font-family="Helvetica,sans-Serif" font-size="10.00">com.teragrep.pth_06.planner.walker.conditions.</text>
<text text-anchor="middle" x="457.5" y="-981" font-family="Helvetica,sans-Serif" font-size="10.00">IndexConditionTest.equalsTest</text>
</a>
</g>
</g>
<!-- Node10&#45;&gt;Node12 -->
<g id="edge11_Node000010_Node000012" class="edge">
<title>Node10&#45;&gt;Node12</title>
<g id="a_edge11_Node000010_Node000012"><a xlink:title=" ">
<path fill="none" stroke="#63b8ff" d="M730.26,-890.21C699.77,-912.42 648.51,-946.58 599,-965 589.72,-968.45 579.91,-971.41 569.97,-973.95"/>
<polygon fill="#63b8ff" stroke="#63b8ff" points="732.7,-892.76 738.66,-884.01 728.54,-887.13 732.7,-892.76"/>
</a>
</g>
</g>
<!-- Node13 -->
<g id="Node000013" class="node">
<title>Node13</title>
<g id="a_Node000013"><a xlink:href="classcom_1_1teragrep_1_1pth__06_1_1planner_1_1walker_1_1conditions_1_1IndexConditionTest.html#a074a653d417c279a1d728dd333084a71" target="_top" xlink:title=" ">
<polygon fill="white" stroke="#666666" points="581.5,-956 333.5,-956 333.5,-926 581.5,-926 581.5,-956"/>
<text text-anchor="start" x="341.5" y="-944" font-family="Helvetica,sans-Serif" font-size="10.00">com.teragrep.pth_06.planner.walker.conditions.</text>
<text text-anchor="middle" x="457.5" y="-933" font-family="Helvetica,sans-Serif" font-size="10.00">IndexConditionTest.negationTest</text>
</a>
</g>
</g>
<!-- Node10&#45;&gt;Node13 -->
<g id="edge12_Node000010_Node000013" class="edge">
<title>Node10&#45;&gt;Node13</title>
<g id="a_edge12_Node000010_Node000013"><a xlink:title=" ">
<path fill="none" stroke="#63b8ff" d="M703.91,-887.15C673.36,-896.94 634.33,-908.68 599,-917 585.15,-920.26 570.43,-923.27 555.94,-925.97"/>
<polygon fill="#63b8ff" stroke="#63b8ff" points="705.07,-890.45 713.51,-884.05 702.92,-883.79 705.07,-890.45"/>
</a>
</g>
</g>
<!-- Node14 -->
<g id="Node000014" class="node">
<title>Node14</title>
<g id="a_Node000014"><a xlink:href="classcom_1_1teragrep_1_1pth__06_1_1planner_1_1walker_1_1conditions_1_1IndexConditionTest.html#aecac864eb019369aef22927fba31960b" target="_top" xlink:title=" ">
<polygon fill="white" stroke="#666666" points="581.5,-908 333.5,-908 333.5,-878 581.5,-878 581.5,-908"/>
<text text-anchor="start" x="341.5" y="-896" font-family="Helvetica,sans-Serif" font-size="10.00">com.teragrep.pth_06.planner.walker.conditions.</text>
<text text-anchor="middle" x="457.5" y="-885" font-family="Helvetica,sans-Serif" font-size="10.00">IndexConditionTest.testPartialWildcard</text>
</a>
</g>
</g>
<!-- Node10&#45;&gt;Node14 -->
<g id="edge13_Node000010_Node000014" class="edge">
<title>Node10&#45;&gt;Node14</title>
<g id="a_edge13_Node000010_Node000014"><a xlink:title=" ">
<path fill="none" stroke="#63b8ff" d="M624.53,-879.7C610.25,-880.84 595.77,-882 581.62,-883.13"/>
<polygon fill="#63b8ff" stroke="#63b8ff" points="625.2,-883.15 634.89,-878.87 624.64,-876.18 625.2,-883.15"/>
</a>
</g>
</g>
<!-- Node15 -->
<g id="Node000015" class="node">
<title>Node15</title>
<g id="a_Node000015"><a xlink:href="classcom_1_1teragrep_1_1pth__06_1_1planner_1_1walker_1_1conditions_1_1IndexConditionTest.html#abde474b71464e4cf751663d4ade3a66d" target="_top" xlink:title=" ">
<polygon fill="white" stroke="#666666" points="582,-860 333,-860 333,-830 582,-830 582,-860"/>
<text text-anchor="start" x="341" y="-848" font-family="Helvetica,sans-Serif" font-size="10.00">com.teragrep.pth_06.planner.walker.conditions.</text>
<text text-anchor="middle" x="457.5" y="-837" font-family="Helvetica,sans-Serif" font-size="10.00">IndexConditionTest.testPartialWildcardNegation</text>
</a>
</g>
</g>
<!-- Node10&#45;&gt;Node15 -->
<g id="edge14_Node000010_Node000015" class="edge">
<title>Node10&#45;&gt;Node15</title>
<g id="a_edge14_Node000010_Node000015"><a xlink:title=" ">
<path fill="none" stroke="#63b8ff" d="M624.63,-858.31C610.48,-857.18 596.13,-856.03 582.1,-854.9"/>
<polygon fill="#63b8ff" stroke="#63b8ff" points="624.64,-861.82 634.89,-859.13 625.2,-854.85 624.64,-861.82"/>
</a>
</g>
</g>
<!-- Node16 -->
<g id="Node000016" class="node">
<title>Node16</title>
<g id="a_Node000016"><a xlink:href="classcom_1_1teragrep_1_1pth__06_1_1planner_1_1walker_1_1conditions_1_1IndexConditionTest.html#a573db62e7987faf80014d6c28b6e88a4" target="_top" xlink:title=" ">
<polygon fill="white" stroke="#666666" points="581.5,-812 333.5,-812 333.5,-782 581.5,-782 581.5,-812"/>
<text text-anchor="start" x="341.5" y="-800" font-family="Helvetica,sans-Serif" font-size="10.00">com.teragrep.pth_06.planner.walker.conditions.</text>
<text text-anchor="middle" x="457.5" y="-789" font-family="Helvetica,sans-Serif" font-size="10.00">IndexConditionTest.wildcardAsTrueTest</text>
</a>
</g>
</g>
<!-- Node10&#45;&gt;Node16 -->
<g id="edge15_Node000010_Node000016" class="edge">
<title>Node10&#45;&gt;Node16</title>
<g id="a_edge15_Node000010_Node000016"><a xlink:title=" ">
<path fill="none" stroke="#63b8ff" d="M703.91,-850.85C673.36,-841.06 634.33,-829.32 599,-821 585.15,-817.74 570.43,-814.73 555.94,-812.03"/>
<polygon fill="#63b8ff" stroke="#63b8ff" points="702.92,-854.21 713.51,-853.95 705.07,-847.55 702.92,-854.21"/>
</a>
</g>
</g>
<!-- Node17 -->
<g id="Node000017" class="node">
<title>Node17</title>
<g id="a_Node000017"><a xlink:href="classcom_1_1teragrep_1_1pth__06_1_1planner_1_1walker_1_1conditions_1_1IndexConditionTest.html#a4004c2bc04159576e79677a9b34f7cb8" target="_top" xlink:title=" ">
<polygon fill="white" stroke="#666666" points="584.5,-764 330.5,-764 330.5,-734 584.5,-734 584.5,-764"/>
<text text-anchor="start" x="338.5" y="-752" font-family="Helvetica,sans-Serif" font-size="10.00">com.teragrep.pth_06.planner.walker.conditions.</text>
<text text-anchor="middle" x="457.5" y="-741" font-family="Helvetica,sans-Serif" font-size="10.00">IndexConditionTest.wildcardNegationAsFalseTest</text>
</a>
</g>
</g>
<!-- Node10&#45;&gt;Node17 -->
<g id="edge16_Node000010_Node000017" class="edge">
<title>Node10&#45;&gt;Node17</title>
<g id="a_edge16_Node000010_Node000017"><a xlink:title=" ">
<path fill="none" stroke="#63b8ff" d="M730.26,-847.79C699.77,-825.58 648.51,-791.42 599,-773 589.72,-769.55 579.91,-766.59 569.97,-764.05"/>
<polygon fill="#63b8ff" stroke="#63b8ff" points="728.54,-850.87 738.66,-853.99 732.7,-845.24 728.54,-850.87"/>
</a>
</g>
</g>
<!-- Node19 -->
<g id="Node000019" class="node">
<title>Node19</title>
<g id="a_Node000019"><a xlink:href="classcom_1_1teragrep_1_1pth__06_1_1planner_1_1walker_1_1conditions_1_1IndexStatementConditionTest.html#aee8f642495a3c26dce06361c3e44056b" target="_top" xlink:title=" ">
<polygon fill="white" stroke="#666666" points="581.5,-716 333.5,-716 333.5,-686 581.5,-686 581.5,-716"/>
<text text-anchor="start" x="341.5" y="-704" font-family="Helvetica,sans-Serif" font-size="10.00">com.teragrep.pth_06.planner.walker.conditions.</text>
<text text-anchor="middle" x="457.5" y="-693" font-family="Helvetica,sans-Serif" font-size="10.00">IndexStatementConditionTest.noMatchesTest</text>
</a>
</g>
</g>
<!-- Node18&#45;&gt;Node19 -->
<g id="edge18_Node000018_Node000019" class="edge">
<title>Node18&#45;&gt;Node19</title>
<g id="a_edge18_Node000018_Node000019"><a xlink:title=" ">
<path fill="none" stroke="#63b8ff" d="M703.91,-647.15C673.36,-656.94 634.33,-668.68 599,-677 585.15,-680.26 570.43,-683.27 555.94,-685.97"/>
<polygon fill="#63b8ff" stroke="#63b8ff" points="705.07,-650.45 713.51,-644.05 702.92,-643.79 705.07,-650.45"/>
</a>
</g>
</g>
<!-- Node20 -->
<g id="Node000020" class="node">
<title>Node20</title>
<g id="a_Node000020"><a xlink:href="classcom_1_1teragrep_1_1pth__06_1_1planner_1_1walker_1_1conditions_1_1IndexStatementConditionTest.html#a69de61f785b7a9fafee36855f7394932" target="_top" xlink:title=" ">
<polygon fill="white" stroke="#666666" points="593.5,-668 321.5,-668 321.5,-638 593.5,-638 593.5,-668"/>
<text text-anchor="start" x="329.5" y="-656" font-family="Helvetica,sans-Serif" font-size="10.00">com.teragrep.pth_06.planner.walker.conditions.</text>
<text text-anchor="middle" x="457.5" y="-645" font-family="Helvetica,sans-Serif" font-size="10.00">IndexStatementConditionTest.oneMatchingTableTest</text>
</a>
</g>
</g>
<!-- Node18&#45;&gt;Node20 -->
<g id="edge19_Node000018_Node000020" class="edge">
<title>Node18&#45;&gt;Node20</title>
<g id="a_edge19_Node000018_Node000020"><a xlink:title=" ">
<path fill="none" stroke="#63b8ff" d="M624.67,-639.68C614.42,-640.51 604.06,-641.34 593.79,-642.16"/>
<polygon fill="#63b8ff" stroke="#63b8ff" points="625.2,-643.15 634.89,-638.87 624.64,-636.18 625.2,-643.15"/>
</a>
</g>
</g>
<!-- Node21 -->
<g id="Node000021" class="node">
<title>Node21</title>
<g id="a_Node000021"><a xlink:href="classcom_1_1teragrep_1_1pth__06_1_1planner_1_1walker_1_1conditions_1_1IndexStatementConditionTest.html#affd12bbea6998863dc96bc4bdd7ab74f" target="_top" xlink:title=" ">
<polygon fill="white" stroke="#666666" points="593.5,-620 321.5,-620 321.5,-590 593.5,-590 593.5,-620"/>
<text text-anchor="start" x="329.5" y="-608" font-family="Helvetica,sans-Serif" font-size="10.00">com.teragrep.pth_06.planner.walker.conditions.</text>
<text text-anchor="middle" x="457.5" y="-597" font-family="Helvetica,sans-Serif" font-size="10.00">IndexStatementConditionTest.twoMatchingTableTest</text>
</a>
</g>
</g>
<!-- Node18&#45;&gt;Node21 -->
<g id="edge20_Node000018_Node000021" class="edge">
<title>Node18&#45;&gt;Node21</title>
<g id="a_edge20_Node000018_Node000021"><a xlink:title=" ">
<path fill="none" stroke="#63b8ff" d="M624.67,-618.32C614.42,-617.49 604.06,-616.66 593.79,-615.84"/>
<polygon fill="#63b8ff" stroke="#63b8ff" points="624.64,-621.82 634.89,-619.13 625.2,-614.85 624.64,-621.82"/>
</a>
</g>
</g>
<!-- Node23 -->
<g id="Node000023" class="node">
<title>Node23</title>
<g id="a_Node000023"><a xlink:href="classcom_1_1teragrep_1_1pth__06_1_1planner_1_1walker_1_1conditions_1_1SourceTypeConditionTest.html#ad61c6c368d81f41a20c821b7df11ee5e" target="_top" xlink:title=" ">
<polygon fill="white" stroke="#666666" points="581.5,-572 333.5,-572 333.5,-542 581.5,-542 581.5,-572"/>
<text text-anchor="start" x="341.5" y="-560" font-family="Helvetica,sans-Serif" font-size="10.00">com.teragrep.pth_06.planner.walker.conditions.</text>
<text text-anchor="middle" x="457.5" y="-549" font-family="Helvetica,sans-Serif" font-size="10.00">SourceTypeConditionTest.conditionTest</text>
</a>
</g>
</g>
<!-- Node22&#45;&gt;Node23 -->
<g id="edge22_Node000022_Node000023" class="edge">
<title>Node22&#45;&gt;Node23</title>
<g id="a_edge22_Node000022_Node000023"><a xlink:title=" ">
<path fill="none" stroke="#63b8ff" d="M735.9,-435.3C707.08,-462.94 653.85,-509.3 599,-533 591.05,-536.44 582.65,-539.38 574.06,-541.9"/>
<polygon fill="#63b8ff" stroke="#63b8ff" points="738.64,-437.51 743.36,-428.03 733.75,-432.5 738.64,-437.51"/>
</a>
</g>
</g>
<!-- Node24 -->
<g id="Node000024" class="node">
<title>Node24</title>
<g id="a_Node000024"><a xlink:href="classcom_1_1teragrep_1_1pth__06_1_1planner_1_1walker_1_1conditions_1_1SourceTypeConditionTest.html#a76f49325228f45cf50bf3de5d96ef616" target="_top" xlink:title=" ">
<polygon fill="white" stroke="#666666" points="581.5,-524 333.5,-524 333.5,-494 581.5,-494 581.5,-524"/>
<text text-anchor="start" x="341.5" y="-512" font-family="Helvetica,sans-Serif" font-size="10.00">com.teragrep.pth_06.planner.walker.conditions.</text>
<text text-anchor="middle" x="457.5" y="-501" font-family="Helvetica,sans-Serif" font-size="10.00">SourceTypeConditionTest.equalsTest</text>
</a>
</g>
</g>
<!-- Node22&#45;&gt;Node24 -->
<g id="edge23_Node000022_Node000024" class="edge">
<title>Node22&#45;&gt;Node24</title>
<g id="a_edge23_Node000022_Node000024"><a xlink:title=" ">
<path fill="none" stroke="#63b8ff" d="M721.55,-432.76C689.98,-449.07 642.64,-471.63 599,-485 587.88,-488.41 576.11,-491.37 564.3,-493.94"/>
<polygon fill="#63b8ff" stroke="#63b8ff" points="723.17,-435.86 730.42,-428.13 719.93,-429.65 723.17,-435.86"/>
</a>
</g>
</g>
<!-- Node25 -->
<g id="Node000025" class="node">
<title>Node25</title>
<g id="a_Node000025"><a xlink:href="classcom_1_1teragrep_1_1pth__06_1_1planner_1_1walker_1_1conditions_1_1SourceTypeConditionTest.html#a3236482704d05e3a1466e1c56ad4f3b8" target="_top" xlink:title=" ">
<polygon fill="white" stroke="#666666" points="581.5,-476 333.5,-476 333.5,-446 581.5,-446 581.5,-476"/>
<text text-anchor="start" x="341.5" y="-464" font-family="Helvetica,sans-Serif" font-size="10.00">com.teragrep.pth_06.planner.walker.conditions.</text>
<text text-anchor="middle" x="457.5" y="-453" font-family="Helvetica,sans-Serif" font-size="10.00">SourceTypeConditionTest.negationTest</text>
</a>
</g>
</g>
<!-- Node22&#45;&gt;Node25 -->
<g id="edge24_Node000022_Node000025" class="edge">
<title>Node22&#45;&gt;Node25</title>
<g id="a_edge24_Node000022_Node000025"><a xlink:title=" ">
<path fill="none" stroke="#63b8ff" d="M653.9,-429.68C620.8,-434.99 584.42,-440.82 552.11,-446"/>
<polygon fill="#63b8ff" stroke="#63b8ff" points="654.74,-433.09 664.06,-428.06 653.63,-426.18 654.74,-433.09"/>
</a>
</g>
</g>
<!-- Node26 -->
<g id="Node000026" class="node">
<title>Node26</title>
<g id="a_Node000026"><a xlink:href="classcom_1_1teragrep_1_1pth__06_1_1planner_1_1walker_1_1conditions_1_1SourceTypeConditionTest.html#a9f2dc0472ec9279fdf91456dc29cd983" target="_top" xlink:title=" ">
<polygon fill="white" stroke="#666666" points="581.5,-428 333.5,-428 333.5,-398 581.5,-398 581.5,-428"/>
<text text-anchor="start" x="341.5" y="-416" font-family="Helvetica,sans-Serif" font-size="10.00">com.teragrep.pth_06.planner.walker.conditions.</text>
<text text-anchor="middle" x="457.5" y="-405" font-family="Helvetica,sans-Serif" font-size="10.00">SourceTypeConditionTest.testPartialWildcard</text>
</a>
</g>
</g>
<!-- Node22&#45;&gt;Node26 -->
<g id="edge25_Node000022_Node000026" class="edge">
<title>Node22&#45;&gt;Node26</title>
<g id="a_edge25_Node000022_Node000026"><a xlink:title=" ">
<path fill="none" stroke="#63b8ff" d="M624.53,-413C610.25,-413 595.77,-413 581.62,-413"/>
<polygon fill="#63b8ff" stroke="#63b8ff" points="624.89,-416.5 634.89,-413 624.89,-409.5 624.89,-416.5"/>
</a>
</g>
</g>
<!-- Node27 -->
<g id="Node000027" class="node">
<title>Node27</title>
<g id="a_Node000027"><a xlink:href="classcom_1_1teragrep_1_1pth__06_1_1planner_1_1walker_1_1conditions_1_1SourceTypeConditionTest.html#a087d6af1eb68621d0218ff09d7112615" target="_top" xlink:title=" ">
<polygon fill="white" stroke="#666666" points="581.5,-379.5 333.5,-379.5 333.5,-338.5 581.5,-338.5 581.5,-379.5"/>
<text text-anchor="start" x="341.5" y="-367.5" font-family="Helvetica,sans-Serif" font-size="10.00">com.teragrep.pth_06.planner.walker.conditions.</text>
<text text-anchor="start" x="341.5" y="-356.5" font-family="Helvetica,sans-Serif" font-size="10.00">SourceTypeConditionTest.testPartialWildcard</text>
<text text-anchor="middle" x="457.5" y="-345.5" font-family="Helvetica,sans-Serif" font-size="10.00">Negation</text>
</a>
</g>
</g>
<!-- Node22&#45;&gt;Node27 -->
<g id="edge26_Node000022_Node000027" class="edge">
<title>Node22&#45;&gt;Node27</title>
<g id="a_edge26_Node000022_Node000027"><a xlink:title=" ">
<path fill="none" stroke="#63b8ff" d="M664.39,-396.12C635.2,-390.86 602.68,-385 572.26,-379.51"/>
<polygon fill="#63b8ff" stroke="#63b8ff" points="664.11,-399.63 674.57,-397.96 665.35,-392.74 664.11,-399.63"/>
</a>
</g>
</g>
<!-- Node28 -->
<g id="Node000028" class="node">
<title>Node28</title>
<g id="a_Node000028"><a xlink:href="classcom_1_1teragrep_1_1pth__06_1_1planner_1_1walker_1_1conditions_1_1SourceTypeConditionTest.html#a130b0848f18b3c8c976cc421a14b030d" target="_top" xlink:title=" ">
<polygon fill="white" stroke="#666666" points="581.5,-320 333.5,-320 333.5,-290 581.5,-290 581.5,-320"/>
<text text-anchor="start" x="341.5" y="-308" font-family="Helvetica,sans-Serif" font-size="10.00">com.teragrep.pth_06.planner.walker.conditions.</text>
<text text-anchor="middle" x="457.5" y="-297" font-family="Helvetica,sans-Serif" font-size="10.00">SourceTypeConditionTest.wildcardAsTrueTest</text>
</a>
</g>
</g>
<!-- Node22&#45;&gt;Node28 -->
<g id="edge27_Node000022_Node000028" class="edge">
<title>Node22&#45;&gt;Node28</title>
<g id="a_edge27_Node000022_Node000028"><a xlink:title=" ">
<path fill="none" stroke="#63b8ff" d="M726.09,-392.61C694.88,-373.58 645.41,-345.82 599,-330 587.63,-326.12 575.52,-322.82 563.37,-320.01"/>
<polygon fill="#63b8ff" stroke="#63b8ff" points="724.43,-395.69 734.78,-397.97 728.1,-389.74 724.43,-395.69"/>
</a>
</g>
</g>
<!-- Node29 -->
<g id="Node000029" class="node">
<title>Node29</title>
<g id="a_Node000029"><a xlink:href="classcom_1_1teragrep_1_1pth__06_1_1planner_1_1walker_1_1conditions_1_1SourceTypeConditionTest.html#a74139121d37e0ac4f0d63ddc3d36e2de" target="_top" xlink:title=" ">
<polygon fill="white" stroke="#666666" points="599,-272 316,-272 316,-242 599,-242 599,-272"/>
<text text-anchor="start" x="324" y="-260" font-family="Helvetica,sans-Serif" font-size="10.00">com.teragrep.pth_06.planner.walker.conditions.</text>
<text text-anchor="middle" x="457.5" y="-249" font-family="Helvetica,sans-Serif" font-size="10.00">SourceTypeConditionTest.wildcardNegationAsFalseTest</text>
</a>
</g>
</g>
<!-- Node22&#45;&gt;Node29 -->
<g id="edge28_Node000022_Node000029" class="edge">
<title>Node22&#45;&gt;Node29</title>
<g id="a_edge28_Node000022_Node000029"><a xlink:title=" ">
<path fill="none" stroke="#63b8ff" d="M738.05,-390.24C710.16,-360.03 656.45,-307.42 599,-281 591.47,-277.54 583.5,-274.57 575.34,-272.03"/>
<polygon fill="#63b8ff" stroke="#63b8ff" points="735.57,-392.72 744.89,-397.77 740.76,-388.02 735.57,-392.72"/>
</a>
</g>
</g>
<!-- Node31 -->
<g id="Node000031" class="node">
<title>Node31</title>
<g id="a_Node000031"><a xlink:href="classcom_1_1teragrep_1_1pth__06_1_1planner_1_1walker_1_1conditions_1_1ElementCondition.html#a77e4bd928b9d9dd1e2ef3380f65e3ab7" target="_top" xlink:title=" ">
<polygon fill="white" stroke="#666666" points="581.5,-186 333.5,-186 333.5,-156 581.5,-156 581.5,-186"/>
<text text-anchor="start" x="341.5" y="-174" font-family="Helvetica,sans-Serif" font-size="10.00">com.teragrep.pth_06.planner.walker.conditions.</text>
<text text-anchor="middle" x="457.5" y="-163" font-family="Helvetica,sans-Serif" font-size="10.00">ElementCondition.condition</text>
</a>
</g>
</g>
<!-- Node30&#45;&gt;Node31 -->
<g id="edge30_Node000030_Node000031" class="edge">
<title>Node30&#45;&gt;Node31</title>
<g id="a_edge30_Node000030_Node000031"><a xlink:title=" ">
<path fill="none" stroke="#63b8ff" d="M624.53,-164.29C610.25,-164.22 595.77,-164.24 581.62,-164.35"/>
<polygon fill="#63b8ff" stroke="#63b8ff" points="624.87,-167.79 634.89,-164.35 624.91,-160.79 624.87,-167.79"/>
</a>
</g>
</g>
<!-- Node31&#45;&gt;Node30 -->
<g id="edge31_Node000031_Node000030" class="edge">
<title>Node31&#45;&gt;Node30</title>
<g id="a_edge31_Node000031_Node000030"><a xlink:title=" ">
<path fill="none" stroke="#63b8ff" d="M591.98,-177.71C606.25,-177.78 620.73,-177.76 634.89,-177.65"/>
<polygon fill="#63b8ff" stroke="#63b8ff" points="591.64,-174.21 581.62,-177.65 591.6,-181.21 591.64,-174.21"/>
</a>
</g>
</g>
<!-- Node31&#45;&gt;Node32 -->
<g id="edge32_Node000031_Node000032" class="edge">
<title>Node31&#45;&gt;Node32</title>
<g id="a_edge32_Node000031_Node000032"><a xlink:title=" ">
<path fill="none" stroke="#63b8ff" d="M323.22,-184.6C281.65,-190.68 237.75,-197.74 203.47,-203.99"/>
<polygon fill="#63b8ff" stroke="#63b8ff" points="323.77,-188.06 333.16,-183.16 322.77,-181.13 323.77,-188.06"/>
</a>
</g>
</g>
<!-- Node33 -->
<g id="Node000033" class="node">
<title>Node33</title>
<g id="a_Node000033"><a xlink:href="classcom_1_1teragrep_1_1pth__06_1_1planner_1_1walker_1_1conditions_1_1ElementConditionTest.html#aa7b824b2c1a077cb408c7e0532131e67" target="_top" xlink:title=" ">
<polygon fill="white" stroke="#666666" points="264,-186 16,-186 16,-156 264,-156 264,-186"/>
<text text-anchor="start" x="24" y="-174" font-family="Helvetica,sans-Serif" font-size="10.00">com.teragrep.pth_06.planner.walker.conditions.</text>
<text text-anchor="middle" x="140" y="-163" font-family="Helvetica,sans-Serif" font-size="10.00">ElementConditionTest.equalsTest</text>
</a>
</g>
</g>
<!-- Node31&#45;&gt;Node33 -->
<g id="edge34_Node000031_Node000033" class="edge">
<title>Node31&#45;&gt;Node33</title>
<g id="a_edge34_Node000031_Node000033"><a xlink:title=" ">
<path fill="none" stroke="#63b8ff" d="M323.02,-171C303.53,-171 283.53,-171 264.25,-171"/>
<polygon fill="#63b8ff" stroke="#63b8ff" points="323.16,-174.5 333.16,-171 323.16,-167.5 323.16,-174.5"/>
</a>
</g>
</g>
<!-- Node34 -->
<g id="Node000034" class="node">
<title>Node34</title>
<g id="a_Node000034"><a xlink:href="classcom_1_1teragrep_1_1pth__06_1_1planner_1_1walker_1_1conditions_1_1ElementConditionTest.html#ad044c19c275fa741d2d8d85218845761" target="_top" xlink:title=" ">
<polygon fill="white" stroke="#666666" points="280,-137.5 0,-137.5 0,-96.5 280,-96.5 280,-137.5"/>
<text text-anchor="start" x="8" y="-125.5" font-family="Helvetica,sans-Serif" font-size="10.00">com.teragrep.pth_06.planner.walker.conditions.</text>
<text text-anchor="start" x="8" y="-114.5" font-family="Helvetica,sans-Serif" font-size="10.00">ElementConditionTest.testStreamDBQueryRecognized</text>
<text text-anchor="middle" x="140" y="-103.5" font-family="Helvetica,sans-Serif" font-size="10.00">ButUnsupportedTagsPassthrough</text>
</a>
</g>
</g>
<!-- Node31&#45;&gt;Node34 -->
<g id="edge35_Node000031_Node000034" class="edge">
<title>Node31&#45;&gt;Node34</title>
<g id="a_edge35_Node000031_Node000034"><a xlink:title=" ">
<path fill="none" stroke="#63b8ff" d="M358.7,-154.26C327.74,-148.96 293.16,-143.04 260.84,-137.51"/>
<polygon fill="#63b8ff" stroke="#63b8ff" points="358.17,-157.72 368.62,-155.96 359.35,-150.82 358.17,-157.72"/>
</a>
</g>
</g>
<!-- Node35 -->
<g id="Node000035" class="node">
<title>Node35</title>
<g id="a_Node000035"><a xlink:href="classcom_1_1teragrep_1_1pth__06_1_1planner_1_1walker_1_1conditions_1_1ElementConditionTest.html#a8128d1d936c645c93ebfc6f5fe4cdbe6" target="_top" xlink:title=" ">
<polygon fill="white" stroke="#666666" points="264,-78 16,-78 16,-48 264,-48 264,-78"/>
<text text-anchor="start" x="24" y="-66" font-family="Helvetica,sans-Serif" font-size="10.00">com.teragrep.pth_06.planner.walker.conditions.</text>
<text text-anchor="middle" x="140" y="-55" font-family="Helvetica,sans-Serif" font-size="10.00">ElementConditionTest.testStreamTags</text>
</a>
</g>
</g>
<!-- Node31&#45;&gt;Node35 -->
<g id="edge36_Node000031_Node000035" class="edge">
<title>Node31&#45;&gt;Node35</title>
<g id="a_edge36_Node000031_Node000035"><a xlink:title=" ">
<path fill="none" stroke="#63b8ff" d="M421.71,-150.93C386.92,-131.71 331.36,-103.32 280,-87 269.26,-83.59 257.9,-80.63 246.48,-78.07"/>
<polygon fill="#63b8ff" stroke="#63b8ff" points="420.08,-154.03 430.52,-155.84 423.49,-147.91 420.08,-154.03"/>
</a>
</g>
</g>
<!-- Node36 -->
<g id="Node000036" class="node">
<title>Node36</title>
<g id="a_Node000036"><a xlink:href="classcom_1_1teragrep_1_1pth__06_1_1planner_1_1walker_1_1conditions_1_1ElementConditionTest.html#aed3578cbc9f7e4f77695db0f1f45b40a" target="_top" xlink:title=" ">
<polygon fill="white" stroke="#666666" points="264,-30 16,-30 16,0 264,0 264,-30"/>
<text text-anchor="start" x="24" y="-18" font-family="Helvetica,sans-Serif" font-size="10.00">com.teragrep.pth_06.planner.walker.conditions.</text>
<text text-anchor="middle" x="140" y="-7" font-family="Helvetica,sans-Serif" font-size="10.00">ElementConditionTest.testTimeQualifiers</text>
</a>
</g>
</g>
<!-- Node31&#45;&gt;Node36 -->
<g id="edge37_Node000031_Node000036" class="edge">
<title>Node31&#45;&gt;Node36</title>
<g id="a_edge37_Node000031_Node000036"><a xlink:title=" ">
<path fill="none" stroke="#63b8ff" d="M434.22,-148.7C402.77,-118.63 342.21,-65.78 280,-39 272.02,-35.56 263.57,-32.62 254.95,-30.09"/>
<polygon fill="#63b8ff" stroke="#63b8ff" points="431.96,-151.38 441.57,-155.82 436.83,-146.35 431.96,-151.38"/>
</a>
</g>
</g>
<!-- Node32&#45;&gt;Node31 -->
<g id="edge33_Node000032_Node000031" class="edge">
<title>Node32&#45;&gt;Node31</title>
<g id="a_edge33_Node000032_Node000031"><a xlink:title=" ">
<path fill="none" stroke="#63b8ff" d="M274.21,-205.41C315.7,-199.35 359.52,-192.29 393.79,-186.06"/>
<polygon fill="#63b8ff" stroke="#63b8ff" points="273.68,-201.95 264.28,-206.85 274.68,-208.88 273.68,-201.95"/>
</a>
</g>
</g>
</g>
</svg>
