<?xml version="1.0" encoding="UTF-8" standalone="no"?>
<!DOCTYPE svg PUBLIC "-//W3C//DTD SVG 1.1//EN"
 "http://www.w3.org/Graphics/SVG/1.1/DTD/svg11.dtd">
<!-- Generated by graphviz version 2.43.0 (0)
 -->
<!-- Title: com.teragrep.pth_06.ast.meta.StreamDBConditionTest.testIndexEquals Pages: 1 -->
<svg width="677pt" height="122pt"
 viewBox="0.00 0.00 677.00 122.00" xmlns="http://www.w3.org/2000/svg" xmlns:xlink="http://www.w3.org/1999/xlink">
<g id="graph0" class="graph" transform="scale(1 1) rotate(0) translate(4 118)">
<title>com.teragrep.pth_06.ast.meta.StreamDBConditionTest.testIndexEquals</title>
<!-- Node1 -->
<g id="Node000001" class="node">
<title>Node1</title>
<g id="a_Node000001"><a xlink:title=" ">
<polygon fill="#999999" stroke="#666666" points="213,-63 0,-63 0,-33 213,-33 213,-63"/>
<text text-anchor="start" x="8" y="-51" font-family="Helvetica,sans-Serif" font-size="10.00">com.teragrep.pth_06.ast.meta.</text>
<text text-anchor="middle" x="106.5" y="-40" font-family="Helvetica,sans-Serif" font-size="10.00">StreamDBConditionTest.testIndexEquals</text>
</a>
</g>
</g>
<!-- Node2 -->
<g id="Node000002" class="node">
<title>Node2</title>
<g id="a_Node000002"><a xlink:href="classcom_1_1teragrep_1_1pth__06_1_1ast_1_1meta_1_1StreamDBCondition.html#a529cd38cec60771ddde6da97da36dd10" target="_top" xlink:title=" ">
<polygon fill="white" stroke="#666666" points="416,-63 249,-63 249,-33 416,-33 416,-63"/>
<text text-anchor="start" x="257" y="-51" font-family="Helvetica,sans-Serif" font-size="10.00">com.teragrep.pth_06.ast.meta.</text>
<text text-anchor="middle" x="332.5" y="-40" font-family="Helvetica,sans-Serif" font-size="10.00">StreamDBCondition.condition</text>
</a>
</g>
</g>
<!-- Node1&#45;&gt;Node2 -->
<g id="edge1_Node000001_Node000002" class="edge">
<title>Node1&#45;&gt;Node2</title>
<g id="a_edge1_Node000001_Node000002"><a xlink:title=" ">
<path fill="none" stroke="#63b8ff" d="M213.27,-48C221.72,-48 230.23,-48 238.59,-48"/>
<polygon fill="#63b8ff" stroke="#63b8ff" points="238.69,-51.5 248.69,-48 238.69,-44.5 238.69,-51.5"/>
</a>
</g>
</g>
<!-- Node3 -->
<g id="Node000003" class="node">
<title>Node3</title>
<g id="a_Node000003"><a xlink:href="classcom_1_1teragrep_1_1pth__06_1_1ast_1_1meta_1_1StreamDBCondition.html#a3e43c38cb0c9103e08f4b37e95e45b87" target="_top" xlink:title=" ">
<polygon fill="white" stroke="#666666" points="652,-96 469,-96 469,-66 652,-66 652,-96"/>
<text text-anchor="start" x="477" y="-84" font-family="Helvetica,sans-Serif" font-size="10.00">com.teragrep.pth_06.ast.meta.</text>
<text text-anchor="middle" x="560.5" y="-73" font-family="Helvetica,sans-Serif" font-size="10.00">StreamDBCondition.hostCondition</text>
</a>
</g>
</g>
<!-- Node2&#45;&gt;Node3 -->
<g id="edge2_Node000002_Node000003" class="edge">
<title>Node2&#45;&gt;Node3</title>
<g id="a_edge2_Node000002_Node000003"><a xlink:title=" ">
<path fill="none" stroke="#63b8ff" d="M416.05,-53.53C439.67,-56.62 465.2,-60.42 488.09,-64.25"/>
<polygon fill="#63b8ff" stroke="#63b8ff" points="487.61,-67.72 498.06,-65.95 488.79,-60.82 487.61,-67.72"/>
</a>
</g>
</g>
<!-- Node4 -->
<g id="Node000004" class="node">
<title>Node4</title>
<g id="a_Node000004"><a xlink:href="classcom_1_1teragrep_1_1pth__06_1_1ast_1_1meta_1_1StreamDBCondition.html#a2bedf2bbbbc73178de7e2c8872f8d486" target="_top" xlink:title=" ">
<polygon fill="white" stroke="#666666" points="669,-30 452,-30 452,0 669,0 669,-30"/>
<text text-anchor="start" x="460" y="-18" font-family="Helvetica,sans-Serif" font-size="10.00">com.teragrep.pth_06.ast.meta.</text>
<text text-anchor="middle" x="560.5" y="-7" font-family="Helvetica,sans-Serif" font-size="10.00">StreamDBCondition.sourceTypeCondition</text>
</a>
</g>
</g>
<!-- Node2&#45;&gt;Node4 -->
<g id="edge5_Node000002_Node000004" class="edge">
<title>Node2&#45;&gt;Node4</title>
<g id="a_edge5_Node000002_Node000004"><a xlink:title=" ">
<path fill="none" stroke="#63b8ff" d="M394.66,-33C409.27,-30.45 425.37,-27.88 441.59,-25.47"/>
<polygon fill="#63b8ff" stroke="#63b8ff" points="442.31,-28.9 451.7,-24 441.3,-21.98 442.31,-28.9"/>
</a>
</g>
</g>
<!-- Node3&#45;&gt;Node2 -->
<g id="edge3_Node000003_Node000002" class="edge">
<title>Node3&#45;&gt;Node2</title>
<g id="a_edge3_Node000003_Node000002"><a xlink:title=" ">
<path fill="none" stroke="#63b8ff" d="M468.57,-74.36C447.32,-71.48 424.98,-68.11 404.73,-64.72"/>
<polygon fill="#63b8ff" stroke="#63b8ff" points="405.11,-61.24 394.66,-63 403.93,-68.14 405.11,-61.24"/>
</a>
</g>
</g>
<!-- Node3&#45;&gt;Node3 -->
<g id="edge4_Node000003_Node000003" class="edge">
<title>Node3&#45;&gt;Node3</title>
<g id="a_edge4_Node000003_Node000003"><a xlink:title=" ">
<path fill="none" stroke="#63b8ff" d="M520.42,-96.28C511.52,-105.41 524.88,-114 560.5,-114 581.65,-114 594.96,-110.97 600.41,-106.6"/>
<polygon fill="#63b8ff" stroke="#63b8ff" points="603.91,-106.33 600.58,-96.28 596.91,-106.22 603.91,-106.33"/>
</a>
</g>
</g>
<!-- Node4&#45;&gt;Node2 -->
<g id="edge6_Node000004_Node000002" class="edge">
<title>Node4&#45;&gt;Node2</title>
<g id="a_edge6_Node000004_Node000002"><a xlink:title=" ">
<path fill="none" stroke="#63b8ff" d="M498.06,-30.05C475.86,-33.91 450.27,-37.84 426,-41.14"/>
<polygon fill="#63b8ff" stroke="#63b8ff" points="425.5,-37.68 416.05,-42.47 426.43,-44.62 425.5,-37.68"/>
</a>
</g>
</g>
<!-- Node4&#45;&gt;Node4 -->
<g id="edge7_Node000004_Node000004" class="edge">
<title>Node4&#45;&gt;Node4</title>
<g id="a_edge7_Node000004_Node000004"><a xlink:title=" ">
<path fill="none" stroke="#63b8ff" d="M520.42,-30.28C511.52,-39.41 524.88,-48 560.5,-48 581.65,-48 594.96,-44.97 600.41,-40.6"/>
<polygon fill="#63b8ff" stroke="#63b8ff" points="603.91,-40.33 600.58,-30.28 596.91,-40.22 603.91,-40.33"/>
</a>
</g>
</g>
</g>
</svg>
