<?xml version="1.0" encoding="UTF-8" standalone="no"?>
<!DOCTYPE svg PUBLIC "-//W3C//DTD SVG 1.1//EN"
 "http://www.w3.org/Graphics/SVG/1.1/DTD/svg11.dtd">
<!-- Generated by graphviz version 2.43.0 (0)
 -->
<!-- Title: com.teragrep.pth_06.ast.transform.WithDefaultValues.WithDefaultValues Pages: 1 -->
<svg width="1584pt" height="427pt"
 viewBox="0.00 0.00 1584.00 427.42" xmlns="http://www.w3.org/2000/svg" xmlns:xlink="http://www.w3.org/1999/xlink">
<g id="graph0" class="graph" transform="scale(1 1) rotate(0) translate(4 423.42)">
<title>com.teragrep.pth_06.ast.transform.WithDefaultValues.WithDefaultValues</title>
<!-- Node1 -->
<g id="Node000001" class="node">
<title>Node1</title>
<g id="a_Node000001"><a xlink:title=" ">
<polygon fill="#999999" stroke="#666666" points="201,-223.84 0,-223.84 0,-193.84 201,-193.84 201,-223.84"/>
<text text-anchor="start" x="8" y="-211.84" font-family="Helvetica,sans-Serif" font-size="10.00">com.teragrep.pth_06.ast.transform.</text>
<text text-anchor="middle" x="100.5" y="-200.84" font-family="Helvetica,sans-Serif" font-size="10.00">WithDefaultValues.WithDefaultValues</text>
</a>
</g>
</g>
<!-- Node2 -->
<g id="Node000002" class="node">
<title>Node2</title>
<g id="a_Node000002"><a xlink:href="classcom_1_1teragrep_1_1pth__06_1_1ast_1_1transform_1_1OptimizedAST.html#a05726d2699d7ade747e74de2140c6a41" target="_top" xlink:title=" ">
<polygon fill="white" stroke="#666666" points="427,-223.84 237,-223.84 237,-193.84 427,-193.84 427,-223.84"/>
<text text-anchor="start" x="245" y="-211.84" font-family="Helvetica,sans-Serif" font-size="10.00">com.teragrep.pth_06.ast.transform.</text>
<text text-anchor="middle" x="332" y="-200.84" font-family="Helvetica,sans-Serif" font-size="10.00">OptimizedAST.transformed</text>
</a>
</g>
</g>
<!-- Node1&#45;&gt;Node2 -->
<g id="edge1_Node000001_Node000002" class="edge">
<title>Node1&#45;&gt;Node2</title>
<g id="a_edge1_Node000001_Node000002"><a xlink:title=" ">
<path fill="none" stroke="#63b8ff" d="M201.16,-208.84C209.59,-208.84 218.13,-208.84 226.59,-208.84"/>
<polygon fill="#63b8ff" stroke="#63b8ff" points="226.86,-212.34 236.86,-208.84 226.86,-205.34 226.86,-212.34"/>
</a>
</g>
</g>
<!-- Node3 -->
<g id="Node000003" class="node">
<title>Node3</title>
<g id="a_Node000003"><a xlink:href="classcom_1_1teragrep_1_1pth__06_1_1ast_1_1transform_1_1OptimizedAST.html#ac4ebcab5c55182e969cd03150e96e374" target="_top" xlink:title=" ">
<polygon fill="white" stroke="#666666" points="653,-223.84 463,-223.84 463,-193.84 653,-193.84 653,-223.84"/>
<text text-anchor="start" x="471" y="-211.84" font-family="Helvetica,sans-Serif" font-size="10.00">com.teragrep.pth_06.ast.transform.</text>
<text text-anchor="middle" x="558" y="-200.84" font-family="Helvetica,sans-Serif" font-size="10.00">OptimizedAST.walkAndApply</text>
</a>
</g>
</g>
<!-- Node2&#45;&gt;Node3 -->
<g id="edge2_Node000002_Node000003" class="edge">
<title>Node2&#45;&gt;Node3</title>
<g id="a_edge2_Node000002_Node000003"><a xlink:title=" ">
<path fill="none" stroke="#63b8ff" d="M427.02,-208.84C435.54,-208.84 444.2,-208.84 452.8,-208.84"/>
<polygon fill="#63b8ff" stroke="#63b8ff" points="452.86,-212.34 462.86,-208.84 452.86,-205.34 452.86,-212.34"/>
</a>
</g>
</g>
<!-- Node3&#45;&gt;Node3 -->
<g id="edge40_Node000003_Node000003" class="edge">
<title>Node3&#45;&gt;Node3</title>
<g id="a_edge40_Node000003_Node000003"><a xlink:title=" ">
<path fill="none" stroke="#63b8ff" d="M518.27,-224.11C509.45,-233.24 522.69,-241.84 558,-241.84 578.97,-241.84 592.15,-238.81 597.56,-234.43"/>
<polygon fill="#63b8ff" stroke="#63b8ff" points="601.06,-234.17 597.73,-224.11 594.06,-234.05 601.06,-234.17"/>
</a>
</g>
</g>
<!-- Node4 -->
<g id="Node000004" class="node">
<title>Node4</title>
<g id="a_Node000004"><a xlink:href="interfacecom_1_1teragrep_1_1pth__06_1_1ast_1_1Expression.html#a17e7d33905be57c6e22e1717da6ddef6" target="_top" xlink:title=" ">
<polygon fill="white" stroke="#666666" points="1572.5,-271.84 1433.5,-271.84 1433.5,-241.84 1572.5,-241.84 1572.5,-271.84"/>
<text text-anchor="start" x="1441.5" y="-259.84" font-family="Helvetica,sans-Serif" font-size="10.00">com.teragrep.pth_06.ast.</text>
<text text-anchor="middle" x="1503" y="-248.84" font-family="Helvetica,sans-Serif" font-size="10.00">Expression.asLogical</text>
</a>
</g>
</g>
<!-- Node3&#45;&gt;Node4 -->
<g id="edge3_Node000003_Node000004" class="edge">
<title>Node3&#45;&gt;Node4</title>
<g id="a_edge3_Node000003_Node000004"><a xlink:title=" ">
<path fill="none" stroke="#63b8ff" d="M594.4,-223.88C662.92,-252.38 818.98,-314.28 956,-346.84 1054.58,-370.26 1080.89,-370.16 1182,-376.84 1276.02,-383.05 1316.56,-430.51 1394,-376.84 1431.45,-350.88 1397.19,-312.46 1430,-280.84 1431.13,-279.75 1432.3,-278.71 1433.52,-277.72"/>
<polygon fill="#63b8ff" stroke="#63b8ff" points="1435.85,-280.38 1442.13,-271.85 1431.9,-274.6 1435.85,-280.38"/>
</a>
</g>
</g>
<!-- Node5 -->
<g id="Node000005" class="node">
<title>Node5</title>
<g id="a_Node000005"><a xlink:href="interfacecom_1_1teragrep_1_1pth__06_1_1ast_1_1LogicalExpression.html#aeaf8fe296c6899792f345659a9a6c0c4" target="_top" xlink:title=" ">
<polygon fill="white" stroke="#666666" points="1576,-223.84 1430,-223.84 1430,-193.84 1576,-193.84 1576,-223.84"/>
<text text-anchor="start" x="1438" y="-211.84" font-family="Helvetica,sans-Serif" font-size="10.00">com.teragrep.pth_06.ast.</text>
<text text-anchor="middle" x="1503" y="-200.84" font-family="Helvetica,sans-Serif" font-size="10.00">LogicalExpression.children</text>
</a>
</g>
</g>
<!-- Node3&#45;&gt;Node5 -->
<g id="edge4_Node000003_Node000005" class="edge">
<title>Node3&#45;&gt;Node5</title>
<g id="a_edge4_Node000003_Node000005"><a xlink:title=" ">
<path fill="none" stroke="#63b8ff" d="M583.35,-193.65C689.57,-129.52 1119.26,107.71 1394,-70.84 1427.03,-92.3 1405.86,-120.71 1430,-151.84 1440.66,-165.58 1455.31,-177.96 1468.62,-187.65"/>
<polygon fill="#63b8ff" stroke="#63b8ff" points="1466.91,-190.73 1477.11,-193.61 1470.93,-185 1466.91,-190.73"/>
</a>
</g>
</g>
<!-- Node6 -->
<g id="Node000006" class="node">
<title>Node6</title>
<g id="a_Node000006"><a xlink:href="interfacecom_1_1teragrep_1_1pth__06_1_1ast_1_1Expression.html#a65ee7f5fb98e4129018f467a53586842" target="_top" xlink:title=" ">
<polygon fill="white" stroke="#666666" points="1572.5,-142.84 1433.5,-142.84 1433.5,-112.84 1572.5,-112.84 1572.5,-142.84"/>
<text text-anchor="start" x="1441.5" y="-130.84" font-family="Helvetica,sans-Serif" font-size="10.00">com.teragrep.pth_06.ast.</text>
<text text-anchor="middle" x="1503" y="-119.84" font-family="Helvetica,sans-Serif" font-size="10.00">Expression.isLogical</text>
</a>
</g>
</g>
<!-- Node3&#45;&gt;Node6 -->
<g id="edge5_Node000003_Node000006" class="edge">
<title>Node3&#45;&gt;Node6</title>
<g id="a_edge5_Node000003_Node000006"><a xlink:title=" ">
<path fill="none" stroke="#63b8ff" d="M565.8,-193.58C581.79,-159.65 625.31,-78.04 689,-40.84 792.56,19.65 836.39,-10.53 956,-1.84 997.73,1.19 1389.04,-0.55 1394,-2.84 1439.14,-23.6 1472.65,-73.51 1489.59,-103.61"/>
<polygon fill="#63b8ff" stroke="#63b8ff" points="1486.65,-105.51 1494.5,-112.62 1492.79,-102.16 1486.65,-105.51"/>
</a>
</g>
</g>
<!-- Node7 -->
<g id="Node000007" class="node">
<title>Node7</title>
<g id="a_Node000007"><a xlink:href="interfacecom_1_1teragrep_1_1pth__06_1_1ast_1_1Expression.html#a8b9661253a3610b9eb148ee29ca8b7e1" target="_top" xlink:title=" ">
<polygon fill="white" stroke="#666666" points="1572.5,-319.84 1433.5,-319.84 1433.5,-289.84 1572.5,-289.84 1572.5,-319.84"/>
<text text-anchor="start" x="1441.5" y="-307.84" font-family="Helvetica,sans-Serif" font-size="10.00">com.teragrep.pth_06.ast.</text>
<text text-anchor="middle" x="1503" y="-296.84" font-family="Helvetica,sans-Serif" font-size="10.00">Expression.tag</text>
</a>
</g>
</g>
<!-- Node3&#45;&gt;Node7 -->
<g id="edge6_Node000003_Node000007" class="edge">
<title>Node3&#45;&gt;Node7</title>
<g id="a_edge6_Node000003_Node000007"><a xlink:title=" ">
<path fill="none" stroke="#63b8ff" d="M573.43,-224.15C595.91,-247.05 641.63,-289.97 689,-312.84 889.59,-409.65 959.72,-388.63 1182,-402.84 1276.03,-408.84 1306.1,-436.77 1394,-402.84 1432.66,-387.91 1466.04,-352 1485.08,-328.05"/>
<polygon fill="#63b8ff" stroke="#63b8ff" points="1487.86,-330.18 1491.21,-320.13 1482.32,-325.9 1487.86,-330.18"/>
</a>
</g>
</g>
<!-- Node8 -->
<g id="Node000008" class="node">
<title>Node8</title>
<g id="a_Node000008"><a xlink:href="classcom_1_1teragrep_1_1pth__06_1_1ast_1_1transform_1_1OptimizedAST.html#a77542c0b232d1e10e50a9846e1845b10" target="_top" xlink:title=" ">
<polygon fill="white" stroke="#666666" points="920,-223.84 689,-223.84 689,-193.84 920,-193.84 920,-223.84"/>
<text text-anchor="start" x="697" y="-211.84" font-family="Helvetica,sans-Serif" font-size="10.00">com.teragrep.pth_06.ast.transform.</text>
<text text-anchor="middle" x="804.5" y="-200.84" font-family="Helvetica,sans-Serif" font-size="10.00">OptimizedAST.transformedSingleExpression</text>
</a>
</g>
</g>
<!-- Node3&#45;&gt;Node8 -->
<g id="edge7_Node000003_Node000008" class="edge">
<title>Node3&#45;&gt;Node8</title>
<g id="a_edge7_Node000003_Node000008"><a xlink:title=" ">
<path fill="none" stroke="#63b8ff" d="M653.18,-208.84C661.59,-208.84 670.19,-208.84 678.81,-208.84"/>
<polygon fill="#63b8ff" stroke="#63b8ff" points="678.92,-212.34 688.92,-208.84 678.92,-205.34 678.92,-212.34"/>
</a>
</g>
</g>
<!-- Node9 -->
<g id="Node000009" class="node">
<title>Node9</title>
<g id="a_Node000009"><a xlink:href="classcom_1_1teragrep_1_1pth__06_1_1ast_1_1transform_1_1EmptyPruned.html#a8cfebc9854b0ad9a7cbe81918392e036" target="_top" xlink:title=" ">
<polygon fill="white" stroke="#666666" points="1383,-175.84 1193,-175.84 1193,-145.84 1383,-145.84 1383,-175.84"/>
<text text-anchor="start" x="1201" y="-163.84" font-family="Helvetica,sans-Serif" font-size="10.00">com.teragrep.pth_06.ast.transform.</text>
<text text-anchor="middle" x="1288" y="-152.84" font-family="Helvetica,sans-Serif" font-size="10.00">EmptyPruned.transformed</text>
</a>
</g>
</g>
<!-- Node8&#45;&gt;Node9 -->
<g id="edge8_Node000008_Node000009" class="edge">
<title>Node8&#45;&gt;Node9</title>
<g id="a_edge8_Node000008_Node000009"><a xlink:title=" ">
<path fill="none" stroke="#63b8ff" d="M920.22,-197.4C999.95,-189.45 1105.36,-178.94 1182.71,-171.23"/>
<polygon fill="#63b8ff" stroke="#63b8ff" points="1183.35,-174.69 1192.95,-170.21 1182.66,-167.72 1183.35,-174.69"/>
</a>
</g>
</g>
<!-- Node10 -->
<g id="Node000010" class="node">
<title>Node10</title>
<g id="a_Node000010"><a xlink:href="classcom_1_1teragrep_1_1pth__06_1_1ast_1_1transform_1_1FlattenLogical.html#a2e1717ad6884eea7a2415aa7763eaed5" target="_top" xlink:title=" ">
<polygon fill="white" stroke="#666666" points="1146,-319.84 956,-319.84 956,-289.84 1146,-289.84 1146,-319.84"/>
<text text-anchor="start" x="964" y="-307.84" font-family="Helvetica,sans-Serif" font-size="10.00">com.teragrep.pth_06.ast.transform.</text>
<text text-anchor="middle" x="1051" y="-296.84" font-family="Helvetica,sans-Serif" font-size="10.00">FlattenLogical.transformed</text>
</a>
</g>
</g>
<!-- Node8&#45;&gt;Node10 -->
<g id="edge13_Node000008_Node000010" class="edge">
<title>Node8&#45;&gt;Node10</title>
<g id="a_edge13_Node000008_Node000010"><a xlink:title=" ">
<path fill="none" stroke="#63b8ff" d="M843.7,-223.84C886.46,-240.62 955.8,-267.85 1002.14,-286.05"/>
<polygon fill="#63b8ff" stroke="#63b8ff" points="1001.08,-289.39 1011.66,-289.78 1003.63,-282.87 1001.08,-289.39"/>
</a>
</g>
</g>
<!-- Node13 -->
<g id="Node000013" class="node">
<title>Node13</title>
<g id="a_Node000013"><a xlink:href="classcom_1_1teragrep_1_1pth__06_1_1ast_1_1transform_1_1IdentitySimplification.html#a2e7ebae3195ee7794364c646e783c6d3" target="_top" xlink:title=" ">
<polygon fill="white" stroke="#666666" points="1383,-109.84 1193,-109.84 1193,-79.84 1383,-79.84 1383,-109.84"/>
<text text-anchor="start" x="1201" y="-97.84" font-family="Helvetica,sans-Serif" font-size="10.00">com.teragrep.pth_06.ast.transform.</text>
<text text-anchor="middle" x="1288" y="-86.84" font-family="Helvetica,sans-Serif" font-size="10.00">IdentitySimplification.transformed</text>
</a>
</g>
</g>
<!-- Node8&#45;&gt;Node13 -->
<g id="edge25_Node000008_Node000013" class="edge">
<title>Node8&#45;&gt;Node13</title>
<g id="a_edge25_Node000008_Node000013"><a xlink:title=" ">
<path fill="none" stroke="#63b8ff" d="M863.68,-193.84C891.57,-186.72 925.48,-178.19 956,-170.84 1042.69,-149.94 1142.47,-127.21 1209.62,-112.11"/>
<polygon fill="#63b8ff" stroke="#63b8ff" points="1210.71,-115.45 1219.7,-109.84 1209.18,-108.62 1210.71,-115.45"/>
</a>
</g>
</g>
<!-- Node14 -->
<g id="Node000014" class="node">
<title>Node14</title>
<g id="a_Node000014"><a xlink:href="classcom_1_1teragrep_1_1pth__06_1_1ast_1_1transform_1_1PrunedInvalidTimeQualifier.html#a390e2447fa0ee0e2964ba44d68710b37" target="_top" xlink:title=" ">
<polygon fill="white" stroke="#666666" points="1394,-271.84 1182,-271.84 1182,-241.84 1394,-241.84 1394,-271.84"/>
<text text-anchor="start" x="1190" y="-259.84" font-family="Helvetica,sans-Serif" font-size="10.00">com.teragrep.pth_06.ast.transform.</text>
<text text-anchor="middle" x="1288" y="-248.84" font-family="Helvetica,sans-Serif" font-size="10.00">PrunedInvalidTimeQualifier.transformed</text>
</a>
</g>
</g>
<!-- Node8&#45;&gt;Node14 -->
<g id="edge30_Node000008_Node000014" class="edge">
<title>Node8&#45;&gt;Node14</title>
<g id="a_edge30_Node000008_Node000014"><a xlink:title=" ">
<path fill="none" stroke="#63b8ff" d="M920.22,-220.27C996.22,-227.85 1095.56,-237.75 1171.68,-245.34"/>
<polygon fill="#63b8ff" stroke="#63b8ff" points="1171.5,-248.84 1181.79,-246.35 1172.19,-241.87 1171.5,-248.84"/>
</a>
</g>
</g>
<!-- Node15 -->
<g id="Node000015" class="node">
<title>Node15</title>
<g id="a_Node000015"><a xlink:href="classcom_1_1teragrep_1_1pth__06_1_1ast_1_1transform_1_1UniqueChildren.html#a39304f06c8b7ac1e1a23463fe502028e" target="_top" xlink:title=" ">
<polygon fill="white" stroke="#666666" points="1383,-223.84 1193,-223.84 1193,-193.84 1383,-193.84 1383,-223.84"/>
<text text-anchor="start" x="1201" y="-211.84" font-family="Helvetica,sans-Serif" font-size="10.00">com.teragrep.pth_06.ast.transform.</text>
<text text-anchor="middle" x="1288" y="-200.84" font-family="Helvetica,sans-Serif" font-size="10.00">UniqueChildren.transformed</text>
</a>
</g>
</g>
<!-- Node8&#45;&gt;Node15 -->
<g id="edge35_Node000008_Node000015" class="edge">
<title>Node8&#45;&gt;Node15</title>
<g id="a_edge35_Node000008_Node000015"><a xlink:title=" ">
<path fill="none" stroke="#63b8ff" d="M920.22,-208.84C999.95,-208.84 1105.36,-208.84 1182.71,-208.84"/>
<polygon fill="#63b8ff" stroke="#63b8ff" points="1182.95,-212.34 1192.95,-208.84 1182.95,-205.34 1182.95,-212.34"/>
</a>
</g>
</g>
<!-- Node9&#45;&gt;Node4 -->
<g id="edge9_Node000009_Node000004" class="edge">
<title>Node9&#45;&gt;Node4</title>
<g id="a_edge9_Node000009_Node000004"><a xlink:title=" ">
<path fill="none" stroke="#63b8ff" d="M1376.91,-175.87C1382.9,-178.41 1388.67,-181.37 1394,-184.84 1416.36,-199.36 1408.37,-217.24 1430,-232.84 1432.06,-234.32 1434.21,-235.72 1436.44,-237.03"/>
<polygon fill="#63b8ff" stroke="#63b8ff" points="1434.85,-240.14 1445.33,-241.69 1438.1,-233.95 1434.85,-240.14"/>
</a>
</g>
</g>
<!-- Node9&#45;&gt;Node5 -->
<g id="edge10_Node000009_Node000005" class="edge">
<title>Node9&#45;&gt;Node5</title>
<g id="a_edge10_Node000009_Node000005"><a xlink:title=" ">
<path fill="none" stroke="#63b8ff" d="M1355.81,-175.89C1377.92,-180.87 1402.68,-186.46 1425.46,-191.59"/>
<polygon fill="#63b8ff" stroke="#63b8ff" points="1424.9,-195.05 1435.43,-193.83 1426.44,-188.22 1424.9,-195.05"/>
</a>
</g>
</g>
<!-- Node9&#45;&gt;Node6 -->
<g id="edge11_Node000009_Node000006" class="edge">
<title>Node9&#45;&gt;Node6</title>
<g id="a_edge11_Node000009_Node000006"><a xlink:title=" ">
<path fill="none" stroke="#63b8ff" d="M1383.04,-146.27C1396.54,-144.17 1410.31,-142.04 1423.47,-140"/>
<polygon fill="#63b8ff" stroke="#63b8ff" points="1424.05,-143.46 1433.4,-138.47 1422.98,-136.54 1424.05,-143.46"/>
</a>
</g>
</g>
<!-- Node9&#45;&gt;Node7 -->
<g id="edge12_Node000009_Node000007" class="edge">
<title>Node9&#45;&gt;Node7</title>
<g id="a_edge12_Node000009_Node000007"><a xlink:title=" ">
<path fill="none" stroke="#63b8ff" d="M1381.13,-175.84C1385.72,-178.41 1390.06,-181.39 1394,-184.84 1428.31,-214.83 1397.19,-249.22 1430,-280.84 1431.13,-281.92 1432.3,-282.96 1433.52,-283.95"/>
<polygon fill="#63b8ff" stroke="#63b8ff" points="1431.9,-287.08 1442.13,-289.82 1435.85,-281.3 1431.9,-287.08"/>
</a>
</g>
</g>
<!-- Node10&#45;&gt;Node6 -->
<g id="edge22_Node000010_Node000006" class="edge">
<title>Node10&#45;&gt;Node6</title>
<g id="a_edge22_Node000010_Node000006"><a xlink:title=" ">
<path fill="none" stroke="#63b8ff" d="M1054.94,-289.68C1064.29,-246.08 1097.89,-120.33 1182,-70.84 1263.21,-23.05 1302.54,-48.18 1394,-70.84 1422.45,-77.88 1451.67,-93.94 1472.53,-107.23"/>
<polygon fill="#63b8ff" stroke="#63b8ff" points="1470.65,-110.17 1480.93,-112.71 1474.47,-104.31 1470.65,-110.17"/>
</a>
</g>
</g>
<!-- Node10&#45;&gt;Node7 -->
<g id="edge23_Node000010_Node000007" class="edge">
<title>Node10&#45;&gt;Node7</title>
<g id="a_edge23_Node000010_Node000007"><a xlink:title=" ">
<path fill="none" stroke="#63b8ff" d="M1071.78,-320.04C1096.14,-337.71 1139.54,-365.86 1182,-376.84 1273.23,-400.41 1303.82,-404.14 1394,-376.84 1426.37,-367.04 1457.9,-343.98 1478.46,-326.58"/>
<polygon fill="#63b8ff" stroke="#63b8ff" points="1480.78,-329.2 1486.04,-320 1476.19,-323.91 1480.78,-329.2"/>
</a>
</g>
</g>
<!-- Node10&#45;&gt;Node10 -->
<g id="edge24_Node000010_Node000010" class="edge">
<title>Node10&#45;&gt;Node10</title>
<g id="a_edge24_Node000010_Node000010"><a xlink:title=" ">
<path fill="none" stroke="#63b8ff" d="M1009.52,-320.11C1000.3,-329.24 1014.12,-337.84 1051,-337.84 1072.89,-337.84 1086.66,-334.81 1092.31,-330.43"/>
<polygon fill="#63b8ff" stroke="#63b8ff" points="1095.81,-330.17 1092.48,-320.11 1088.81,-330.05 1095.81,-330.17"/>
</a>
</g>
</g>
<!-- Node11 -->
<g id="Node000011" class="node">
<title>Node11</title>
<g id="a_Node000011"><a xlink:href="classcom_1_1teragrep_1_1pth__06_1_1ast_1_1transform_1_1FlattenLogical.html#a3b9085857dc57e88c58a6fa5a057f103" target="_top" xlink:title=" ">
<polygon fill="white" stroke="#666666" points="1383.5,-319.84 1192.5,-319.84 1192.5,-289.84 1383.5,-289.84 1383.5,-319.84"/>
<text text-anchor="start" x="1200.5" y="-307.84" font-family="Helvetica,sans-Serif" font-size="10.00">com.teragrep.pth_06.ast.transform.</text>
<text text-anchor="middle" x="1288" y="-296.84" font-family="Helvetica,sans-Serif" font-size="10.00">FlattenLogical.flattenedAndChildren</text>
</a>
</g>
</g>
<!-- Node10&#45;&gt;Node11 -->
<g id="edge14_Node000010_Node000011" class="edge">
<title>Node10&#45;&gt;Node11</title>
<g id="a_edge14_Node000010_Node000011"><a xlink:title=" ">
<path fill="none" stroke="#63b8ff" d="M1146.23,-304.84C1158.1,-304.84 1170.3,-304.84 1182.32,-304.84"/>
<polygon fill="#63b8ff" stroke="#63b8ff" points="1182.37,-308.34 1192.37,-304.84 1182.37,-301.34 1182.37,-308.34"/>
</a>
</g>
</g>
<!-- Node12 -->
<g id="Node000012" class="node">
<title>Node12</title>
<g id="a_Node000012"><a xlink:href="classcom_1_1teragrep_1_1pth__06_1_1ast_1_1transform_1_1FlattenLogical.html#ae0b8acc47ab74872494d07da365e303b" target="_top" xlink:title=" ">
<polygon fill="white" stroke="#666666" points="1383,-367.84 1193,-367.84 1193,-337.84 1383,-337.84 1383,-367.84"/>
<text text-anchor="start" x="1201" y="-355.84" font-family="Helvetica,sans-Serif" font-size="10.00">com.teragrep.pth_06.ast.transform.</text>
<text text-anchor="middle" x="1288" y="-344.84" font-family="Helvetica,sans-Serif" font-size="10.00">FlattenLogical.flattenedOrChildren</text>
</a>
</g>
</g>
<!-- Node10&#45;&gt;Node12 -->
<g id="edge18_Node000010_Node000012" class="edge">
<title>Node10&#45;&gt;Node12</title>
<g id="a_edge18_Node000010_Node000012"><a xlink:title=" ">
<path fill="none" stroke="#63b8ff" d="M1125.71,-319.89C1150.43,-324.94 1178.16,-330.61 1203.57,-335.8"/>
<polygon fill="#63b8ff" stroke="#63b8ff" points="1203.05,-339.26 1213.55,-337.83 1204.45,-332.4 1203.05,-339.26"/>
</a>
</g>
</g>
<!-- Node11&#45;&gt;Node4 -->
<g id="edge15_Node000011_Node000004" class="edge">
<title>Node11&#45;&gt;Node4</title>
<g id="a_edge15_Node000011_Node000004"><a xlink:title=" ">
<path fill="none" stroke="#63b8ff" d="M1355.81,-289.78C1377.92,-284.8 1402.68,-279.22 1425.46,-274.08"/>
<polygon fill="#63b8ff" stroke="#63b8ff" points="1426.44,-277.45 1435.43,-271.84 1424.9,-270.62 1426.44,-277.45"/>
</a>
</g>
</g>
<!-- Node11&#45;&gt;Node5 -->
<g id="edge16_Node000011_Node000005" class="edge">
<title>Node11&#45;&gt;Node5</title>
<g id="a_edge16_Node000011_Node000005"><a xlink:title=" ">
<path fill="none" stroke="#63b8ff" d="M1376.91,-289.81C1382.9,-287.27 1388.67,-284.3 1394,-280.84 1416.36,-266.31 1408.37,-248.43 1430,-232.84 1432.06,-231.35 1434.21,-229.96 1436.44,-228.64"/>
<polygon fill="#63b8ff" stroke="#63b8ff" points="1438.1,-231.73 1445.33,-223.98 1434.85,-225.53 1438.1,-231.73"/>
</a>
</g>
</g>
<!-- Node11&#45;&gt;Node7 -->
<g id="edge17_Node000011_Node000007" class="edge">
<title>Node11&#45;&gt;Node7</title>
<g id="a_edge17_Node000011_Node000007"><a xlink:title=" ">
<path fill="none" stroke="#63b8ff" d="M1383.67,-304.84C1396.9,-304.84 1410.39,-304.84 1423.29,-304.84"/>
<polygon fill="#63b8ff" stroke="#63b8ff" points="1423.49,-308.34 1433.49,-304.84 1423.49,-301.34 1423.49,-308.34"/>
</a>
</g>
</g>
<!-- Node12&#45;&gt;Node4 -->
<g id="edge19_Node000012_Node000004" class="edge">
<title>Node12&#45;&gt;Node4</title>
<g id="a_edge19_Node000012_Node000004"><a xlink:title=" ">
<path fill="none" stroke="#63b8ff" d="M1376.91,-337.81C1382.9,-335.27 1388.67,-332.3 1394,-328.84 1416.36,-314.31 1408.37,-296.43 1430,-280.84 1432.06,-279.35 1434.21,-277.96 1436.44,-276.64"/>
<polygon fill="#63b8ff" stroke="#63b8ff" points="1438.1,-279.73 1445.33,-271.98 1434.85,-273.53 1438.1,-279.73"/>
</a>
</g>
</g>
<!-- Node12&#45;&gt;Node5 -->
<g id="edge20_Node000012_Node000005" class="edge">
<title>Node12&#45;&gt;Node5</title>
<g id="a_edge20_Node000012_Node000005"><a xlink:title=" ">
<path fill="none" stroke="#63b8ff" d="M1381.13,-337.84C1385.72,-335.26 1390.06,-332.28 1394,-328.84 1428.31,-298.85 1397.19,-264.46 1430,-232.84 1431.13,-231.75 1432.3,-230.71 1433.52,-229.72"/>
<polygon fill="#63b8ff" stroke="#63b8ff" points="1435.85,-232.38 1442.13,-223.85 1431.9,-226.6 1435.85,-232.38"/>
</a>
</g>
</g>
<!-- Node12&#45;&gt;Node7 -->
<g id="edge21_Node000012_Node000007" class="edge">
<title>Node12&#45;&gt;Node7</title>
<g id="a_edge21_Node000012_Node000007"><a xlink:title=" ">
<path fill="none" stroke="#63b8ff" d="M1355.81,-337.78C1377.92,-332.8 1402.68,-327.22 1425.46,-322.08"/>
<polygon fill="#63b8ff" stroke="#63b8ff" points="1426.44,-325.45 1435.43,-319.84 1424.9,-318.62 1426.44,-325.45"/>
</a>
</g>
</g>
<!-- Node13&#45;&gt;Node4 -->
<g id="edge26_Node000013_Node000004" class="edge">
<title>Node13&#45;&gt;Node4</title>
<g id="a_edge26_Node000013_Node000004"><a xlink:title=" ">
<path fill="none" stroke="#63b8ff" d="M1351.06,-109.94C1366.65,-116.17 1382.26,-124.84 1394,-136.84 1425.87,-169.41 1397.19,-201.22 1430,-232.84 1431.13,-233.92 1432.3,-234.96 1433.52,-235.95"/>
<polygon fill="#63b8ff" stroke="#63b8ff" points="1431.9,-239.08 1442.13,-241.82 1435.85,-233.3 1431.9,-239.08"/>
</a>
</g>
</g>
<!-- Node13&#45;&gt;Node5 -->
<g id="edge27_Node000013_Node000005" class="edge">
<title>Node13&#45;&gt;Node5</title>
<g id="a_edge27_Node000013_Node000005"><a xlink:title=" ">
<path fill="none" stroke="#63b8ff" d="M1332.31,-109.84C1351.61,-117.11 1374.37,-126.51 1394,-136.84 1422.4,-151.77 1452.61,-172.37 1473.84,-187.71"/>
<polygon fill="#63b8ff" stroke="#63b8ff" points="1471.94,-190.65 1482.08,-193.72 1476.06,-184.99 1471.94,-190.65"/>
</a>
</g>
</g>
<!-- Node13&#45;&gt;Node6 -->
<g id="edge28_Node000013_Node000006" class="edge">
<title>Node13&#45;&gt;Node6</title>
<g id="a_edge28_Node000013_Node000006"><a xlink:title=" ">
<path fill="none" stroke="#63b8ff" d="M1383.04,-109.41C1396.54,-111.5 1410.31,-113.63 1423.47,-115.67"/>
<polygon fill="#63b8ff" stroke="#63b8ff" points="1422.98,-119.14 1433.4,-117.21 1424.05,-112.22 1422.98,-119.14"/>
</a>
</g>
</g>
<!-- Node13&#45;&gt;Node13 -->
<g id="edge29_Node000013_Node000013" class="edge">
<title>Node13&#45;&gt;Node13</title>
<g id="a_edge29_Node000013_Node000013"><a xlink:title=" ">
<path fill="none" stroke="#63b8ff" d="M1250.38,-110.11C1242.02,-119.24 1254.56,-127.84 1288,-127.84 1307.85,-127.84 1320.34,-124.81 1325.46,-120.43"/>
<polygon fill="#63b8ff" stroke="#63b8ff" points="1328.96,-120.16 1325.62,-110.11 1321.96,-120.06 1328.96,-120.16"/>
</a>
</g>
</g>
<!-- Node14&#45;&gt;Node4 -->
<g id="edge31_Node000014_Node000004" class="edge">
<title>Node14&#45;&gt;Node4</title>
<g id="a_edge31_Node000014_Node000004"><a xlink:title=" ">
<path fill="none" stroke="#63b8ff" d="M1394.25,-256.84C1404.03,-256.84 1413.82,-256.84 1423.29,-256.84"/>
<polygon fill="#63b8ff" stroke="#63b8ff" points="1423.43,-260.34 1433.43,-256.84 1423.43,-253.34 1423.43,-260.34"/>
</a>
</g>
</g>
<!-- Node14&#45;&gt;Node5 -->
<g id="edge32_Node000014_Node000005" class="edge">
<title>Node14&#45;&gt;Node5</title>
<g id="a_edge32_Node000014_Node000005"><a xlink:title=" ">
<path fill="none" stroke="#63b8ff" d="M1355.81,-241.78C1377.92,-236.8 1402.68,-231.22 1425.46,-226.08"/>
<polygon fill="#63b8ff" stroke="#63b8ff" points="1426.44,-229.45 1435.43,-223.84 1424.9,-222.62 1426.44,-229.45"/>
</a>
</g>
</g>
<!-- Node14&#45;&gt;Node6 -->
<g id="edge33_Node000014_Node000006" class="edge">
<title>Node14&#45;&gt;Node6</title>
<g id="a_edge33_Node000014_Node000006"><a xlink:title=" ">
<path fill="none" stroke="#63b8ff" d="M1376.91,-241.81C1382.9,-239.27 1388.67,-236.3 1394,-232.84 1416.36,-218.31 1411.39,-203.94 1430,-184.84 1442.71,-171.79 1458.42,-159.03 1471.92,-148.9"/>
<polygon fill="#63b8ff" stroke="#63b8ff" points="1474.02,-151.71 1480,-142.96 1469.87,-146.07 1474.02,-151.71"/>
</a>
</g>
</g>
<!-- Node14&#45;&gt;Node7 -->
<g id="edge34_Node000014_Node000007" class="edge">
<title>Node14&#45;&gt;Node7</title>
<g id="a_edge34_Node000014_Node000007"><a xlink:title=" ">
<path fill="none" stroke="#63b8ff" d="M1355.81,-271.89C1377.92,-276.87 1402.68,-282.46 1425.46,-287.59"/>
<polygon fill="#63b8ff" stroke="#63b8ff" points="1424.9,-291.05 1435.43,-289.83 1426.44,-284.22 1424.9,-291.05"/>
</a>
</g>
</g>
<!-- Node15&#45;&gt;Node4 -->
<g id="edge36_Node000015_Node000004" class="edge">
<title>Node15&#45;&gt;Node4</title>
<g id="a_edge36_Node000015_Node000004"><a xlink:title=" ">
<path fill="none" stroke="#63b8ff" d="M1355.81,-223.89C1377.92,-228.87 1402.68,-234.46 1425.46,-239.59"/>
<polygon fill="#63b8ff" stroke="#63b8ff" points="1424.9,-243.05 1435.43,-241.83 1426.44,-236.22 1424.9,-243.05"/>
</a>
</g>
</g>
<!-- Node15&#45;&gt;Node5 -->
<g id="edge37_Node000015_Node000005" class="edge">
<title>Node15&#45;&gt;Node5</title>
<g id="a_edge37_Node000015_Node000005"><a xlink:title=" ">
<path fill="none" stroke="#63b8ff" d="M1383.04,-208.84C1395.32,-208.84 1407.82,-208.84 1419.88,-208.84"/>
<polygon fill="#63b8ff" stroke="#63b8ff" points="1419.89,-212.34 1429.89,-208.84 1419.89,-205.34 1419.89,-212.34"/>
</a>
</g>
</g>
<!-- Node15&#45;&gt;Node6 -->
<g id="edge38_Node000015_Node000006" class="edge">
<title>Node15&#45;&gt;Node6</title>
<g id="a_edge38_Node000015_Node000006"><a xlink:title=" ">
<path fill="none" stroke="#63b8ff" d="M1365.68,-193.77C1375.33,-191.16 1384.97,-188.19 1394,-184.84 1420.32,-175.07 1448.3,-160.16 1469.19,-148.04"/>
<polygon fill="#63b8ff" stroke="#63b8ff" points="1471.13,-150.96 1477.97,-142.87 1467.58,-144.93 1471.13,-150.96"/>
</a>
</g>
</g>
<!-- Node15&#45;&gt;Node7 -->
<g id="edge39_Node000015_Node000007" class="edge">
<title>Node15&#45;&gt;Node7</title>
<g id="a_edge39_Node000015_Node000007"><a xlink:title=" ">
<path fill="none" stroke="#63b8ff" d="M1376.91,-223.87C1382.9,-226.41 1388.67,-229.37 1394,-232.84 1416.36,-247.36 1408.37,-265.24 1430,-280.84 1432.06,-282.32 1434.21,-283.72 1436.44,-285.03"/>
<polygon fill="#63b8ff" stroke="#63b8ff" points="1434.85,-288.14 1445.33,-289.69 1438.1,-281.95 1434.85,-288.14"/>
</a>
</g>
</g>
</g>
</svg>
