<?xml version="1.0" encoding="UTF-8" standalone="no"?>
<!DOCTYPE svg PUBLIC "-//W3C//DTD SVG 1.1//EN"
 "http://www.w3.org/Graphics/SVG/1.1/DTD/svg11.dtd">
<!-- Generated by graphviz version 2.43.0 (0)
 -->
<!-- Title: com.teragrep.pth_06.ast.meta.StreamDBConditionTest.testIndexWildcard Pages: 1 -->
<svg width="688pt" height="122pt"
 viewBox="0.00 0.00 688.00 122.00" xmlns="http://www.w3.org/2000/svg" xmlns:xlink="http://www.w3.org/1999/xlink">
<g id="graph0" class="graph" transform="scale(1 1) rotate(0) translate(4 118)">
<title>com.teragrep.pth_06.ast.meta.StreamDBConditionTest.testIndexWildcard</title>
<!-- Node1 -->
<g id="Node000001" class="node">
<title>Node1</title>
<g id="a_Node000001"><a xlink:title=" ">
<polygon fill="#999999" stroke="#666666" points="224,-63 0,-63 0,-33 224,-33 224,-63"/>
<text text-anchor="start" x="8" y="-51" font-family="Helvetica,sans-Serif" font-size="10.00">com.teragrep.pth_06.ast.meta.</text>
<text text-anchor="middle" x="112" y="-40" font-family="Helvetica,sans-Serif" font-size="10.00">StreamDBConditionTest.testIndexWildcard</text>
</a>
</g>
</g>
<!-- Node2 -->
<g id="Node000002" class="node">
<title>Node2</title>
<g id="a_Node000002"><a xlink:href="classcom_1_1teragrep_1_1pth__06_1_1ast_1_1meta_1_1StreamDBCondition.html#a529cd38cec60771ddde6da97da36dd10" target="_top" xlink:title=" ">
<polygon fill="white" stroke="#666666" points="427,-63 260,-63 260,-33 427,-33 427,-63"/>
<text text-anchor="start" x="268" y="-51" font-family="Helvetica,sans-Serif" font-size="10.00">com.teragrep.pth_06.ast.meta.</text>
<text text-anchor="middle" x="343.5" y="-40" font-family="Helvetica,sans-Serif" font-size="10.00">StreamDBCondition.condition</text>
</a>
</g>
</g>
<!-- Node1&#45;&gt;Node2 -->
<g id="edge1_Node000001_Node000002" class="edge">
<title>Node1&#45;&gt;Node2</title>
<g id="a_edge1_Node000001_Node000002"><a xlink:title=" ">
<path fill="none" stroke="#63b8ff" d="M224.05,-48C232.59,-48 241.16,-48 249.57,-48"/>
<polygon fill="#63b8ff" stroke="#63b8ff" points="249.73,-51.5 259.73,-48 249.73,-44.5 249.73,-51.5"/>
</a>
</g>
</g>
<!-- Node3 -->
<g id="Node000003" class="node">
<title>Node3</title>
<g id="a_Node000003"><a xlink:href="classcom_1_1teragrep_1_1pth__06_1_1ast_1_1meta_1_1StreamDBCondition.html#a3e43c38cb0c9103e08f4b37e95e45b87" target="_top" xlink:title=" ">
<polygon fill="white" stroke="#666666" points="663,-96 480,-96 480,-66 663,-66 663,-96"/>
<text text-anchor="start" x="488" y="-84" font-family="Helvetica,sans-Serif" font-size="10.00">com.teragrep.pth_06.ast.meta.</text>
<text text-anchor="middle" x="571.5" y="-73" font-family="Helvetica,sans-Serif" font-size="10.00">StreamDBCondition.hostCondition</text>
</a>
</g>
</g>
<!-- Node2&#45;&gt;Node3 -->
<g id="edge2_Node000002_Node000003" class="edge">
<title>Node2&#45;&gt;Node3</title>
<g id="a_edge2_Node000002_Node000003"><a xlink:title=" ">
<path fill="none" stroke="#63b8ff" d="M427.05,-53.53C450.67,-56.62 476.2,-60.42 499.09,-64.25"/>
<polygon fill="#63b8ff" stroke="#63b8ff" points="498.61,-67.72 509.06,-65.95 499.79,-60.82 498.61,-67.72"/>
</a>
</g>
</g>
<!-- Node4 -->
<g id="Node000004" class="node">
<title>Node4</title>
<g id="a_Node000004"><a xlink:href="classcom_1_1teragrep_1_1pth__06_1_1ast_1_1meta_1_1StreamDBCondition.html#a2bedf2bbbbc73178de7e2c8872f8d486" target="_top" xlink:title=" ">
<polygon fill="white" stroke="#666666" points="680,-30 463,-30 463,0 680,0 680,-30"/>
<text text-anchor="start" x="471" y="-18" font-family="Helvetica,sans-Serif" font-size="10.00">com.teragrep.pth_06.ast.meta.</text>
<text text-anchor="middle" x="571.5" y="-7" font-family="Helvetica,sans-Serif" font-size="10.00">StreamDBCondition.sourceTypeCondition</text>
</a>
</g>
</g>
<!-- Node2&#45;&gt;Node4 -->
<g id="edge5_Node000002_Node000004" class="edge">
<title>Node2&#45;&gt;Node4</title>
<g id="a_edge5_Node000002_Node000004"><a xlink:title=" ">
<path fill="none" stroke="#63b8ff" d="M405.66,-33C420.27,-30.45 436.37,-27.88 452.59,-25.47"/>
<polygon fill="#63b8ff" stroke="#63b8ff" points="453.31,-28.9 462.7,-24 452.3,-21.98 453.31,-28.9"/>
</a>
</g>
</g>
<!-- Node3&#45;&gt;Node2 -->
<g id="edge3_Node000003_Node000002" class="edge">
<title>Node3&#45;&gt;Node2</title>
<g id="a_edge3_Node000003_Node000002"><a xlink:title=" ">
<path fill="none" stroke="#63b8ff" d="M479.57,-74.36C458.32,-71.48 435.98,-68.11 415.73,-64.72"/>
<polygon fill="#63b8ff" stroke="#63b8ff" points="416.11,-61.24 405.66,-63 414.93,-68.14 416.11,-61.24"/>
</a>
</g>
</g>
<!-- Node3&#45;&gt;Node3 -->
<g id="edge4_Node000003_Node000003" class="edge">
<title>Node3&#45;&gt;Node3</title>
<g id="a_edge4_Node000003_Node000003"><a xlink:title=" ">
<path fill="none" stroke="#63b8ff" d="M531.42,-96.28C522.52,-105.41 535.88,-114 571.5,-114 592.65,-114 605.96,-110.97 611.41,-106.6"/>
<polygon fill="#63b8ff" stroke="#63b8ff" points="614.91,-106.33 611.58,-96.28 607.91,-106.22 614.91,-106.33"/>
</a>
</g>
</g>
<!-- Node4&#45;&gt;Node2 -->
<g id="edge6_Node000004_Node000002" class="edge">
<title>Node4&#45;&gt;Node2</title>
<g id="a_edge6_Node000004_Node000002"><a xlink:title=" ">
<path fill="none" stroke="#63b8ff" d="M509.06,-30.05C486.86,-33.91 461.27,-37.84 437,-41.14"/>
<polygon fill="#63b8ff" stroke="#63b8ff" points="436.5,-37.68 427.05,-42.47 437.43,-44.62 436.5,-37.68"/>
</a>
</g>
</g>
<!-- Node4&#45;&gt;Node4 -->
<g id="edge7_Node000004_Node000004" class="edge">
<title>Node4&#45;&gt;Node4</title>
<g id="a_edge7_Node000004_Node000004"><a xlink:title=" ">
<path fill="none" stroke="#63b8ff" d="M531.42,-30.28C522.52,-39.41 535.88,-48 571.5,-48 592.65,-48 605.96,-44.97 611.41,-40.6"/>
<polygon fill="#63b8ff" stroke="#63b8ff" points="614.91,-40.33 611.58,-30.28 607.91,-40.22 614.91,-40.33"/>
</a>
</g>
</g>
</g>
</svg>
