<?xml version="1.0" encoding="UTF-8" standalone="no"?>
<!DOCTYPE svg PUBLIC "-//W3C//DTD SVG 1.1//EN"
 "http://www.w3.org/Graphics/SVG/1.1/DTD/svg11.dtd">
<!-- Generated by graphviz version 2.43.0 (0)
 -->
<!-- Title: com.teragrep.pth_06.ast.analyze.ScanPlanCollection.collectScanPlans Pages: 1 -->
<svg width="862pt" height="242pt"
 viewBox="0.00 0.00 862.00 242.00" xmlns="http://www.w3.org/2000/svg" xmlns:xlink="http://www.w3.org/1999/xlink">
<g id="graph0" class="graph" transform="scale(1 1) rotate(0) translate(4 238)">
<title>com.teragrep.pth_06.ast.analyze.ScanPlanCollection.collectScanPlans</title>
<!-- Node1 -->
<g id="Node000001" class="node">
<title>Node1</title>
<g id="a_Node000001"><a xlink:title=" ">
<polygon fill="#999999" stroke="#666666" points="194,-162 0,-162 0,-132 194,-132 194,-162"/>
<text text-anchor="start" x="8" y="-150" font-family="Helvetica,sans-Serif" font-size="10.00">com.teragrep.pth_06.ast.analyze.</text>
<text text-anchor="middle" x="97" y="-139" font-family="Helvetica,sans-Serif" font-size="10.00">ScanPlanCollection.collectScanPlans</text>
</a>
</g>
</g>
<!-- Node1&#45;&gt;Node1 -->
<g id="edge3_Node000001_Node000001" class="edge">
<title>Node1&#45;&gt;Node1</title>
<g id="a_edge3_Node000001_Node000001"><a xlink:title=" ">
<path fill="none" stroke="#63b8ff" d="M57.98,-162.28C49.3,-171.41 62.31,-180 97,-180 117.6,-180 130.55,-176.97 135.86,-172.6"/>
<polygon fill="#63b8ff" stroke="#63b8ff" points="139.36,-172.33 136.02,-162.28 132.36,-172.22 139.36,-172.33"/>
</a>
</g>
</g>
<!-- Node2 -->
<g id="Node000002" class="node">
<title>Node2</title>
<g id="a_Node000002"><a xlink:href="interfacecom_1_1teragrep_1_1pth__06_1_1ast_1_1Expression.html#a17e7d33905be57c6e22e1717da6ddef6" target="_top" xlink:title=" ">
<polygon fill="white" stroke="#666666" points="389.5,-234 250.5,-234 250.5,-204 389.5,-204 389.5,-234"/>
<text text-anchor="start" x="258.5" y="-222" font-family="Helvetica,sans-Serif" font-size="10.00">com.teragrep.pth_06.ast.</text>
<text text-anchor="middle" x="320" y="-211" font-family="Helvetica,sans-Serif" font-size="10.00">Expression.asLogical</text>
</a>
</g>
</g>
<!-- Node1&#45;&gt;Node2 -->
<g id="edge1_Node000001_Node000002" class="edge">
<title>Node1&#45;&gt;Node2</title>
<g id="a_edge1_Node000001_Node000002"><a xlink:title=" ">
<path fill="none" stroke="#63b8ff" d="M136.69,-162.06C162.84,-171.99 198.26,-184.97 230,-195 236.56,-197.07 243.43,-199.13 250.32,-201.11"/>
<polygon fill="#63b8ff" stroke="#63b8ff" points="249.81,-204.6 260.39,-203.96 251.72,-197.87 249.81,-204.6"/>
</a>
</g>
</g>
<!-- Node3 -->
<g id="Node000003" class="node">
<title>Node3</title>
<g id="a_Node000003"><a xlink:href="interfacecom_1_1teragrep_1_1pth__06_1_1ast_1_1LogicalExpression.html#aeaf8fe296c6899792f345659a9a6c0c4" target="_top" xlink:title=" ">
<polygon fill="white" stroke="#666666" points="393,-186 247,-186 247,-156 393,-156 393,-186"/>
<text text-anchor="start" x="255" y="-174" font-family="Helvetica,sans-Serif" font-size="10.00">com.teragrep.pth_06.ast.</text>
<text text-anchor="middle" x="320" y="-163" font-family="Helvetica,sans-Serif" font-size="10.00">LogicalExpression.children</text>
</a>
</g>
</g>
<!-- Node1&#45;&gt;Node3 -->
<g id="edge2_Node000001_Node000003" class="edge">
<title>Node1&#45;&gt;Node3</title>
<g id="a_edge2_Node000001_Node000003"><a xlink:title=" ">
<path fill="none" stroke="#63b8ff" d="M194.29,-157.46C208.52,-159 223.06,-160.58 236.97,-162.09"/>
<polygon fill="#63b8ff" stroke="#63b8ff" points="236.64,-165.58 246.96,-163.18 237.4,-158.62 236.64,-165.58"/>
</a>
</g>
</g>
<!-- Node4 -->
<g id="Node000004" class="node">
<title>Node4</title>
<g id="a_Node000004"><a xlink:href="interfacecom_1_1teragrep_1_1pth__06_1_1ast_1_1Expression.html#a65ee7f5fb98e4129018f467a53586842" target="_top" xlink:title=" ">
<polygon fill="white" stroke="#666666" points="389.5,-138 250.5,-138 250.5,-108 389.5,-108 389.5,-138"/>
<text text-anchor="start" x="258.5" y="-126" font-family="Helvetica,sans-Serif" font-size="10.00">com.teragrep.pth_06.ast.</text>
<text text-anchor="middle" x="320" y="-115" font-family="Helvetica,sans-Serif" font-size="10.00">Expression.isLogical</text>
</a>
</g>
</g>
<!-- Node1&#45;&gt;Node4 -->
<g id="edge4_Node000001_Node000004" class="edge">
<title>Node1&#45;&gt;Node4</title>
<g id="a_edge4_Node000001_Node000004"><a xlink:title=" ">
<path fill="none" stroke="#63b8ff" d="M194.29,-136.54C209.6,-134.88 225.28,-133.18 240.13,-131.57"/>
<polygon fill="#63b8ff" stroke="#63b8ff" points="240.7,-135.02 250.26,-130.46 239.94,-128.06 240.7,-135.02"/>
</a>
</g>
</g>
<!-- Node5 -->
<g id="Node000005" class="node">
<title>Node5</title>
<g id="a_Node000005"><a xlink:href="classcom_1_1teragrep_1_1pth__06_1_1ast_1_1analyze_1_1ScanGroupExpression.html#a0e5168dad0a59965e14bbc6417498fed" target="_top" xlink:title=" ">
<polygon fill="white" stroke="#666666" points="410,-90 230,-90 230,-60 410,-60 410,-90"/>
<text text-anchor="start" x="238" y="-78" font-family="Helvetica,sans-Serif" font-size="10.00">com.teragrep.pth_06.ast.analyze.</text>
<text text-anchor="middle" x="320" y="-67" font-family="Helvetica,sans-Serif" font-size="10.00">ScanGroupExpression.value</text>
</a>
</g>
</g>
<!-- Node1&#45;&gt;Node5 -->
<g id="edge5_Node000001_Node000005" class="edge">
<title>Node1&#45;&gt;Node5</title>
<g id="a_edge5_Node000001_Node000005"><a xlink:title=" ">
<path fill="none" stroke="#63b8ff" d="M136.69,-131.94C162.84,-122.01 198.26,-109.03 230,-99 236.56,-96.93 243.43,-94.87 250.32,-92.89"/>
<polygon fill="#63b8ff" stroke="#63b8ff" points="251.72,-96.13 260.39,-90.04 249.81,-89.4 251.72,-96.13"/>
</a>
</g>
</g>
<!-- Node6 -->
<g id="Node000006" class="node">
<title>Node6</title>
<g id="a_Node000006"><a xlink:href="classcom_1_1teragrep_1_1pth__06_1_1ast_1_1MergeIntersectingPlans.html#ac9312d6b24005eae4d9924660ca33a47" target="_top" xlink:title=" ">
<polygon fill="white" stroke="#666666" points="622,-122.5 450,-122.5 450,-81.5 622,-81.5 622,-122.5"/>
<text text-anchor="start" x="458" y="-110.5" font-family="Helvetica,sans-Serif" font-size="10.00">com.teragrep.pth_06.ast.</text>
<text text-anchor="start" x="458" y="-99.5" font-family="Helvetica,sans-Serif" font-size="10.00">MergeIntersectingPlans.merged</text>
<text text-anchor="middle" x="536" y="-88.5" font-family="Helvetica,sans-Serif" font-size="10.00">Ranges</text>
</a>
</g>
</g>
<!-- Node5&#45;&gt;Node6 -->
<g id="edge6_Node000005_Node000006" class="edge">
<title>Node5&#45;&gt;Node6</title>
<g id="a_edge6_Node000005_Node000006"><a xlink:title=" ">
<path fill="none" stroke="#63b8ff" d="M410.21,-86.25C419.91,-87.48 429.81,-88.73 439.59,-89.96"/>
<polygon fill="#63b8ff" stroke="#63b8ff" points="439.35,-93.46 449.71,-91.24 440.23,-86.52 439.35,-93.46"/>
</a>
</g>
</g>
<!-- Node7 -->
<g id="Node000007" class="node">
<title>Node7</title>
<g id="a_Node000007"><a xlink:href="classcom_1_1teragrep_1_1pth__06_1_1ast_1_1analyze_1_1PlannedScans.html#ad6dfe7529bfdfc03de991c95e194e0fe" target="_top" xlink:title=" ">
<polygon fill="white" stroke="#666666" points="626,-63 446,-63 446,-33 626,-33 626,-63"/>
<text text-anchor="start" x="454" y="-51" font-family="Helvetica,sans-Serif" font-size="10.00">com.teragrep.pth_06.ast.analyze.</text>
<text text-anchor="middle" x="536" y="-40" font-family="Helvetica,sans-Serif" font-size="10.00">PlannedScans.planListForGroup</text>
</a>
</g>
</g>
<!-- Node5&#45;&gt;Node7 -->
<g id="edge7_Node000005_Node000007" class="edge">
<title>Node5&#45;&gt;Node7</title>
<g id="a_edge7_Node000005_Node000007"><a xlink:title=" ">
<path fill="none" stroke="#63b8ff" d="M410.21,-63.75C418.7,-62.67 427.34,-61.58 435.92,-60.5"/>
<polygon fill="#63b8ff" stroke="#63b8ff" points="436.46,-63.96 445.94,-59.24 435.58,-57.02 436.46,-63.96"/>
</a>
</g>
</g>
<!-- Node8 -->
<g id="Node000008" class="node">
<title>Node8</title>
<g id="a_Node000008"><a xlink:href="classcom_1_1teragrep_1_1pth__06_1_1ast_1_1analyze_1_1StreamIDGroup.html#a429db1dbf66f77a975f929fa85179f87" target="_top" xlink:title=" ">
<polygon fill="white" stroke="#666666" points="854,-96 662,-96 662,-66 854,-66 854,-96"/>
<text text-anchor="start" x="670" y="-84" font-family="Helvetica,sans-Serif" font-size="10.00">com.teragrep.pth_06.ast.analyze.</text>
<text text-anchor="middle" x="758" y="-73" font-family="Helvetica,sans-Serif" font-size="10.00">StreamIDGroup.combinedStreamIds</text>
</a>
</g>
</g>
<!-- Node7&#45;&gt;Node8 -->
<g id="edge8_Node000007_Node000008" class="edge">
<title>Node7&#45;&gt;Node8</title>
<g id="a_edge8_Node000007_Node000008"><a xlink:title=" ">
<path fill="none" stroke="#63b8ff" d="M626.17,-61.37C634.64,-62.65 643.29,-63.94 651.89,-65.23"/>
<polygon fill="#63b8ff" stroke="#63b8ff" points="651.56,-68.72 661.97,-66.74 652.6,-61.8 651.56,-68.72"/>
</a>
</g>
</g>
<!-- Node9 -->
<g id="Node000009" class="node">
<title>Node9</title>
<g id="a_Node000009"><a xlink:href="classcom_1_1teragrep_1_1pth__06_1_1ast_1_1analyze_1_1FilterGroup.html#abca0dfe17ffff99e035f7136c075c661" target="_top" xlink:title=" ">
<polygon fill="white" stroke="#666666" points="848,-30 668,-30 668,0 848,0 848,-30"/>
<text text-anchor="start" x="676" y="-18" font-family="Helvetica,sans-Serif" font-size="10.00">com.teragrep.pth_06.ast.analyze.</text>
<text text-anchor="middle" x="758" y="-7" font-family="Helvetica,sans-Serif" font-size="10.00">FilterGroup.filterList</text>
</a>
</g>
</g>
<!-- Node7&#45;&gt;Node9 -->
<g id="edge9_Node000007_Node000009" class="edge">
<title>Node7&#45;&gt;Node9</title>
<g id="a_edge9_Node000007_Node000009"><a xlink:title=" ">
<path fill="none" stroke="#63b8ff" d="M626.17,-34.63C636.55,-33.07 647.18,-31.47 657.69,-29.9"/>
<polygon fill="#63b8ff" stroke="#63b8ff" points="658.34,-33.34 667.71,-28.39 657.3,-26.42 658.34,-33.34"/>
</a>
</g>
</g>
<!-- Node9&#45;&gt;Node9 -->
<g id="edge10_Node000009_Node000009" class="edge">
<title>Node9&#45;&gt;Node9</title>
<g id="a_edge10_Node000009_Node000009"><a xlink:title=" ">
<path fill="none" stroke="#63b8ff" d="M718.98,-30.28C710.3,-39.41 723.31,-48 758,-48 778.6,-48 791.55,-44.97 796.86,-40.6"/>
<polygon fill="#63b8ff" stroke="#63b8ff" points="800.36,-40.33 797.02,-30.28 793.36,-40.22 800.36,-40.33"/>
</a>
</g>
</g>
</g>
</svg>
