<?xml version="1.0" encoding="UTF-8" standalone="no"?>
<!DOCTYPE svg PUBLIC "-//W3C//DTD SVG 1.1//EN"
 "http://www.w3.org/Graphics/SVG/1.1/DTD/svg11.dtd">
<!-- Generated by graphviz version 2.43.0 (0)
 -->
<!-- Title: com.teragrep.pth_06.ast.transform.WithDefaultValues.recursiveWithDefaultsExpression Pages: 1 -->
<svg width="863pt" height="223pt"
 viewBox="0.00 0.00 863.00 223.00" xmlns="http://www.w3.org/2000/svg" xmlns:xlink="http://www.w3.org/1999/xlink">
<g id="graph0" class="graph" transform="scale(1 1) rotate(0) translate(4 219)">
<title>com.teragrep.pth_06.ast.transform.WithDefaultValues.recursiveWithDefaultsExpression</title>
<!-- Node1 -->
<g id="Node000001" class="node">
<title>Node1</title>
<g id="a_Node000001"><a xlink:title=" ">
<polygon fill="#999999" stroke="#666666" points="219,-113.5 0,-113.5 0,-72.5 219,-72.5 219,-113.5"/>
<text text-anchor="start" x="8" y="-101.5" font-family="Helvetica,sans-Serif" font-size="10.00">com.teragrep.pth_06.ast.transform.</text>
<text text-anchor="start" x="8" y="-90.5" font-family="Helvetica,sans-Serif" font-size="10.00">WithDefaultValues.recursiveWithDefaults</text>
<text text-anchor="middle" x="109.5" y="-79.5" font-family="Helvetica,sans-Serif" font-size="10.00">Expression</text>
</a>
</g>
</g>
<!-- Node2 -->
<g id="Node000002" class="node">
<title>Node2</title>
<g id="a_Node000002"><a xlink:href="classcom_1_1teragrep_1_1pth__06_1_1ast_1_1transform_1_1WithDefaultValues.html#ac53e9da4d27289a430152a8b67aa7e6b" target="_top" xlink:title=" ">
<polygon fill="white" stroke="#666666" points="447,-156 255,-156 255,-126 447,-126 447,-156"/>
<text text-anchor="start" x="263" y="-144" font-family="Helvetica,sans-Serif" font-size="10.00">com.teragrep.pth_06.ast.transform.</text>
<text text-anchor="middle" x="351" y="-133" font-family="Helvetica,sans-Serif" font-size="10.00">WithDefaultValues.andWithDefaults</text>
</a>
</g>
</g>
<!-- Node1&#45;&gt;Node2 -->
<g id="edge1_Node000001_Node000002" class="edge">
<title>Node1&#45;&gt;Node2</title>
<g id="a_edge1_Node000001_Node000002"><a xlink:title=" ">
<path fill="none" stroke="#63b8ff" d="M219.04,-108.03C244.37,-112.99 270.37,-118.48 292.47,-123.6"/>
<polygon fill="#63b8ff" stroke="#63b8ff" points="291.79,-127.04 302.32,-125.93 293.39,-120.23 291.79,-127.04"/>
</a>
</g>
</g>
<!-- Node6 -->
<g id="Node000006" class="node">
<title>Node6</title>
<g id="a_Node000006"><a xlink:href="interfacecom_1_1teragrep_1_1pth__06_1_1ast_1_1Expression.html#a65ee7f5fb98e4129018f467a53586842" target="_top" xlink:title=" ">
<polygon fill="white" stroke="#666666" points="851.5,-78 712.5,-78 712.5,-48 851.5,-48 851.5,-78"/>
<text text-anchor="start" x="720.5" y="-66" font-family="Helvetica,sans-Serif" font-size="10.00">com.teragrep.pth_06.ast.</text>
<text text-anchor="middle" x="782" y="-55" font-family="Helvetica,sans-Serif" font-size="10.00">Expression.isLogical</text>
</a>
</g>
</g>
<!-- Node1&#45;&gt;Node6 -->
<g id="edge11_Node000001_Node000006" class="edge">
<title>Node1&#45;&gt;Node6</title>
<g id="a_edge11_Node000001_Node000006"><a xlink:title=" ">
<path fill="none" stroke="#63b8ff" d="M219.16,-73.19C231.22,-71.52 243.35,-70.06 255,-69 413.21,-54.55 599.28,-56.97 702.3,-60"/>
<polygon fill="#63b8ff" stroke="#63b8ff" points="702.21,-63.5 712.31,-60.31 702.42,-56.5 702.21,-63.5"/>
</a>
</g>
</g>
<!-- Node7 -->
<g id="Node000007" class="node">
<title>Node7</title>
<g id="a_Node000007"><a xlink:href="interfacecom_1_1teragrep_1_1pth__06_1_1ast_1_1Expression.html#a8b9661253a3610b9eb148ee29ca8b7e1" target="_top" xlink:title=" ">
<polygon fill="white" stroke="#666666" points="851.5,-30 712.5,-30 712.5,0 851.5,0 851.5,-30"/>
<text text-anchor="start" x="720.5" y="-18" font-family="Helvetica,sans-Serif" font-size="10.00">com.teragrep.pth_06.ast.</text>
<text text-anchor="middle" x="782" y="-7" font-family="Helvetica,sans-Serif" font-size="10.00">Expression.tag</text>
</a>
</g>
</g>
<!-- Node1&#45;&gt;Node7 -->
<g id="edge19_Node000001_Node000007" class="edge">
<title>Node1&#45;&gt;Node7</title>
<g id="a_edge19_Node000001_Node000007"><a xlink:title=" ">
<path fill="none" stroke="#63b8ff" d="M176.1,-72.47C200.63,-65.55 228.87,-58.45 255,-54 412.25,-27.2 599.05,-18.81 702.37,-16.19"/>
<polygon fill="#63b8ff" stroke="#63b8ff" points="702.5,-19.69 712.41,-15.95 702.33,-12.69 702.5,-19.69"/>
</a>
</g>
</g>
<!-- Node8 -->
<g id="Node000008" class="node">
<title>Node8</title>
<g id="a_Node000008"><a xlink:href="classcom_1_1teragrep_1_1pth__06_1_1ast_1_1transform_1_1WithDefaultValues.html#af8c587422cbf070fc6fea9aba68705d9" target="_top" xlink:title=" ">
<polygon fill="white" stroke="#666666" points="446,-108 256,-108 256,-78 446,-78 446,-108"/>
<text text-anchor="start" x="264" y="-96" font-family="Helvetica,sans-Serif" font-size="10.00">com.teragrep.pth_06.ast.transform.</text>
<text text-anchor="middle" x="351" y="-85" font-family="Helvetica,sans-Serif" font-size="10.00">WithDefaultValues.orWithDefaults</text>
</a>
</g>
</g>
<!-- Node1&#45;&gt;Node8 -->
<g id="edge12_Node000001_Node000008" class="edge">
<title>Node1&#45;&gt;Node8</title>
<g id="a_edge12_Node000001_Node000008"><a xlink:title=" ">
<path fill="none" stroke="#63b8ff" d="M219.04,-86.28C227.84,-86.23 236.73,-86.24 245.51,-86.3"/>
<polygon fill="#63b8ff" stroke="#63b8ff" points="245.72,-89.8 255.75,-86.39 245.78,-82.8 245.72,-89.8"/>
</a>
</g>
</g>
<!-- Node2&#45;&gt;Node1 -->
<g id="edge10_Node000002_Node000001" class="edge">
<title>Node2&#45;&gt;Node1</title>
<g id="a_edge10_Node000002_Node000001"><a xlink:title=" ">
<path fill="none" stroke="#63b8ff" d="M254.67,-128.52C233.76,-124.55 211.81,-120.08 191.52,-115.66"/>
<polygon fill="#63b8ff" stroke="#63b8ff" points="192.23,-112.24 181.71,-113.5 190.72,-119.07 192.23,-112.24"/>
</a>
</g>
</g>
<!-- Node3 -->
<g id="Node000003" class="node">
<title>Node3</title>
<g id="a_Node000003"><a xlink:href="interfacecom_1_1teragrep_1_1pth__06_1_1ast_1_1Expression.html#a17e7d33905be57c6e22e1717da6ddef6" target="_top" xlink:title=" ">
<polygon fill="white" stroke="#666666" points="851.5,-215 712.5,-215 712.5,-185 851.5,-185 851.5,-215"/>
<text text-anchor="start" x="720.5" y="-203" font-family="Helvetica,sans-Serif" font-size="10.00">com.teragrep.pth_06.ast.</text>
<text text-anchor="middle" x="782" y="-192" font-family="Helvetica,sans-Serif" font-size="10.00">Expression.asLogical</text>
</a>
</g>
</g>
<!-- Node2&#45;&gt;Node3 -->
<g id="edge2_Node000002_Node000003" class="edge">
<title>Node2&#45;&gt;Node3</title>
<g id="a_edge2_Node000002_Node000003"><a xlink:title=" ">
<path fill="none" stroke="#63b8ff" d="M376.99,-156.13C402.56,-170.67 443.98,-191.62 483,-200 556.04,-215.69 641.49,-213.68 702.12,-208.95"/>
<polygon fill="#63b8ff" stroke="#63b8ff" points="702.7,-212.41 712.38,-208.1 702.13,-205.43 702.7,-212.41"/>
</a>
</g>
</g>
<!-- Node4 -->
<g id="Node000004" class="node">
<title>Node4</title>
<g id="a_Node000004"><a xlink:href="interfacecom_1_1teragrep_1_1pth__06_1_1ast_1_1LogicalExpression.html#aeaf8fe296c6899792f345659a9a6c0c4" target="_top" xlink:title=" ">
<polygon fill="white" stroke="#666666" points="855,-154 709,-154 709,-124 855,-124 855,-154"/>
<text text-anchor="start" x="717" y="-142" font-family="Helvetica,sans-Serif" font-size="10.00">com.teragrep.pth_06.ast.</text>
<text text-anchor="middle" x="782" y="-131" font-family="Helvetica,sans-Serif" font-size="10.00">LogicalExpression.children</text>
</a>
</g>
</g>
<!-- Node2&#45;&gt;Node4 -->
<g id="edge3_Node000002_Node000004" class="edge">
<title>Node2&#45;&gt;Node4</title>
<g id="a_edge3_Node000002_Node000004"><a xlink:title=" ">
<path fill="none" stroke="#63b8ff" d="M390.57,-156.08C416.3,-165.32 451.13,-176.24 483,-181 566.52,-193.47 590,-196.57 673,-181 696.73,-176.55 721.94,-167.04 742.03,-158.2"/>
<polygon fill="#63b8ff" stroke="#63b8ff" points="743.5,-161.38 751.17,-154.07 740.61,-155 743.5,-161.38"/>
</a>
</g>
</g>
<!-- Node5 -->
<g id="Node000005" class="node">
<title>Node5</title>
<g id="a_Node000005"><a xlink:href="classcom_1_1teragrep_1_1pth__06_1_1ast_1_1transform_1_1WithDefaultValues.html#a42a39b9992cc004453cd026fbc106b36" target="_top" xlink:title=" ">
<polygon fill="white" stroke="#666666" points="673,-154 483,-154 483,-124 673,-124 673,-154"/>
<text text-anchor="start" x="491" y="-142" font-family="Helvetica,sans-Serif" font-size="10.00">com.teragrep.pth_06.ast.transform.</text>
<text text-anchor="middle" x="578" y="-131" font-family="Helvetica,sans-Serif" font-size="10.00">WithDefaultValues.expressionTags</text>
</a>
</g>
</g>
<!-- Node2&#45;&gt;Node5 -->
<g id="edge4_Node000002_Node000005" class="edge">
<title>Node2&#45;&gt;Node5</title>
<g id="a_edge4_Node000002_Node000005"><a xlink:title=" ">
<path fill="none" stroke="#63b8ff" d="M447.09,-140.15C455.63,-140.08 464.3,-140 472.9,-139.93"/>
<polygon fill="#63b8ff" stroke="#63b8ff" points="473,-143.42 482.96,-139.84 472.93,-136.42 473,-143.42"/>
</a>
</g>
</g>
<!-- Node5&#45;&gt;Node3 -->
<g id="edge5_Node000005_Node000003" class="edge">
<title>Node5&#45;&gt;Node3</title>
<g id="a_edge5_Node000005_Node000003"><a xlink:title=" ">
<path fill="none" stroke="#63b8ff" d="M628.67,-154C656.7,-162.46 691.9,-173.09 721.4,-182"/>
<polygon fill="#63b8ff" stroke="#63b8ff" points="720.58,-185.41 731.17,-184.95 722.61,-178.71 720.58,-185.41"/>
</a>
</g>
</g>
<!-- Node5&#45;&gt;Node4 -->
<g id="edge6_Node000005_Node000004" class="edge">
<title>Node5&#45;&gt;Node4</title>
<g id="a_edge6_Node000005_Node000004"><a xlink:title=" ">
<path fill="none" stroke="#63b8ff" d="M673.2,-139C681.68,-139 690.23,-139 698.6,-139"/>
<polygon fill="#63b8ff" stroke="#63b8ff" points="698.7,-142.5 708.7,-139 698.7,-135.5 698.7,-142.5"/>
</a>
</g>
</g>
<!-- Node5&#45;&gt;Node5 -->
<g id="edge7_Node000005_Node000005" class="edge">
<title>Node5&#45;&gt;Node5</title>
<g id="a_edge7_Node000005_Node000005"><a xlink:title=" ">
<path fill="none" stroke="#63b8ff" d="M542.14,-154.28C534.17,-163.41 546.12,-172 578,-172 596.93,-172 608.83,-168.97 613.71,-164.6"/>
<polygon fill="#63b8ff" stroke="#63b8ff" points="617.21,-164.33 613.86,-154.28 610.21,-164.22 617.21,-164.33"/>
</a>
</g>
</g>
<!-- Node5&#45;&gt;Node6 -->
<g id="edge8_Node000005_Node000006" class="edge">
<title>Node5&#45;&gt;Node6</title>
<g id="a_edge8_Node000005_Node000006"><a xlink:title=" ">
<path fill="none" stroke="#63b8ff" d="M618.91,-123.98C651.17,-111.85 696.76,-94.69 731.38,-81.67"/>
<polygon fill="#63b8ff" stroke="#63b8ff" points="732.7,-84.91 740.83,-78.11 730.24,-78.36 732.7,-84.91"/>
</a>
</g>
</g>
<!-- Node5&#45;&gt;Node7 -->
<g id="edge9_Node000005_Node000007" class="edge">
<title>Node5&#45;&gt;Node7</title>
<g id="a_edge9_Node000005_Node000007"><a xlink:title=" ">
<path fill="none" stroke="#63b8ff" d="M594.99,-123.8C618.37,-102.29 664,-62.93 709,-39 712.44,-37.17 716.04,-35.45 719.72,-33.83"/>
<polygon fill="#63b8ff" stroke="#63b8ff" points="721.08,-37.05 728.99,-30.01 718.41,-30.58 721.08,-37.05"/>
</a>
</g>
</g>
<!-- Node8&#45;&gt;Node1 -->
<g id="edge17_Node000008_Node000001" class="edge">
<title>Node8&#45;&gt;Node1</title>
<g id="a_edge17_Node000008_Node000001"><a xlink:title=" ">
<path fill="none" stroke="#63b8ff" d="M255.75,-99.61C247,-99.71 238.05,-99.75 229.11,-99.75"/>
<polygon fill="#63b8ff" stroke="#63b8ff" points="229.05,-96.25 219.04,-99.72 229.03,-103.25 229.05,-96.25"/>
</a>
</g>
</g>
<!-- Node8&#45;&gt;Node3 -->
<g id="edge13_Node000008_Node000003" class="edge">
<title>Node8&#45;&gt;Node3</title>
<g id="a_edge13_Node000008_Node000003"><a xlink:title=" ">
<path fill="none" stroke="#63b8ff" d="M432.52,-108.14C437.65,-110.66 442.54,-113.59 447,-117 472.92,-136.83 455.37,-163.64 483,-181 518.23,-203.14 626.47,-204.98 702.29,-203.28"/>
<polygon fill="#63b8ff" stroke="#63b8ff" points="702.39,-206.78 712.3,-203.03 702.22,-199.78 702.39,-206.78"/>
</a>
</g>
</g>
<!-- Node8&#45;&gt;Node4 -->
<g id="edge14_Node000008_Node000004" class="edge">
<title>Node8&#45;&gt;Node4</title>
<g id="a_edge14_Node000008_Node000004"><a xlink:title=" ">
<path fill="none" stroke="#63b8ff" d="M446.15,-95.73C510.34,-98.5 597.12,-104.03 673,-115 685.37,-116.79 698.44,-119.22 711.04,-121.85"/>
<polygon fill="#63b8ff" stroke="#63b8ff" points="710.52,-125.32 721.03,-123.99 711.99,-118.47 710.52,-125.32"/>
</a>
</g>
</g>
<!-- Node8&#45;&gt;Node5 -->
<g id="edge15_Node000008_Node000005" class="edge">
<title>Node8&#45;&gt;Node5</title>
<g id="a_edge15_Node000008_Node000005"><a xlink:title=" ">
<path fill="none" stroke="#63b8ff" d="M425.67,-108.06C447.35,-112.49 471.21,-117.37 493.45,-121.92"/>
<polygon fill="#63b8ff" stroke="#63b8ff" points="493.05,-125.41 503.55,-123.98 494.45,-118.55 493.05,-125.41"/>
</a>
</g>
</g>
<!-- Node8&#45;&gt;Node6 -->
<g id="edge16_Node000008_Node000006" class="edge">
<title>Node8&#45;&gt;Node6</title>
<g id="a_edge16_Node000008_Node000006"><a xlink:title=" ">
<path fill="none" stroke="#63b8ff" d="M446.08,-84.87C458.49,-83.87 471.05,-82.88 483,-82 557.29,-76.51 642.06,-71.2 702.15,-67.59"/>
<polygon fill="#63b8ff" stroke="#63b8ff" points="702.55,-71.08 712.32,-66.99 702.13,-64.09 702.55,-71.08"/>
</a>
</g>
</g>
<!-- Node8&#45;&gt;Node7 -->
<g id="edge18_Node000008_Node000007" class="edge">
<title>Node8&#45;&gt;Node7</title>
<g id="a_edge18_Node000008_Node000007"><a xlink:title=" ">
<path fill="none" stroke="#63b8ff" d="M419.54,-77.97C439.9,-73.6 462.33,-68.94 483,-65 557.17,-50.86 642.13,-36.81 702.31,-27.23"/>
<polygon fill="#63b8ff" stroke="#63b8ff" points="703.17,-30.64 712.49,-25.61 702.07,-23.72 703.17,-30.64"/>
</a>
</g>
</g>
</g>
</svg>
