<?xml version="1.0" encoding="UTF-8" standalone="no"?>
<!DOCTYPE svg PUBLIC "-//W3C//DTD SVG 1.1//EN"
 "http://www.w3.org/Graphics/SVG/1.1/DTD/svg11.dtd">
<!-- Generated by graphviz version 2.43.0 (0)
 -->
<!-- Title: com.teragrep.pth_06.ast.meta.StreamDBCondition.sourceTypeCondition Pages: 1 -->
<svg width="688pt" height="500pt"
 viewBox="0.00 0.00 688.00 500.00" xmlns="http://www.w3.org/2000/svg" xmlns:xlink="http://www.w3.org/1999/xlink">
<g id="graph0" class="graph" transform="scale(1 1) rotate(0) translate(4 496)">
<title>com.teragrep.pth_06.ast.meta.StreamDBCondition.sourceTypeCondition</title>
<!-- Node1 -->
<g id="Node000001" class="node">
<title>Node1</title>
<g id="a_Node000001"><a xlink:title=" ">
<polygon fill="#999999" stroke="#666666" points="680,-270 463,-270 463,-240 680,-240 680,-270"/>
<text text-anchor="start" x="471" y="-258" font-family="Helvetica,sans-Serif" font-size="10.00">com.teragrep.pth_06.ast.meta.</text>
<text text-anchor="middle" x="571.5" y="-247" font-family="Helvetica,sans-Serif" font-size="10.00">StreamDBCondition.sourceTypeCondition</text>
</a>
</g>
</g>
<!-- Node1&#45;&gt;Node1 -->
<g id="edge15_Node000001_Node000001" class="edge">
<title>Node1&#45;&gt;Node1</title>
<g id="a_edge15_Node000001_Node000001"><a xlink:title=" ">
<path fill="none" stroke="#63b8ff" d="M611.41,-280.6C605.96,-284.97 592.65,-288 571.5,-288 535.88,-288 522.52,-279.41 531.42,-270.28"/>
<polygon fill="#63b8ff" stroke="#63b8ff" points="614.91,-280.33 611.58,-270.28 607.91,-280.22 614.91,-280.33"/>
</a>
</g>
</g>
<!-- Node2 -->
<g id="Node000002" class="node">
<title>Node2</title>
<g id="a_Node000002"><a xlink:href="classcom_1_1teragrep_1_1pth__06_1_1ast_1_1meta_1_1StreamDBCondition.html#a529cd38cec60771ddde6da97da36dd10" target="_top" xlink:title=" ">
<polygon fill="white" stroke="#666666" points="427,-270 260,-270 260,-240 427,-240 427,-270"/>
<text text-anchor="start" x="268" y="-258" font-family="Helvetica,sans-Serif" font-size="10.00">com.teragrep.pth_06.ast.meta.</text>
<text text-anchor="middle" x="343.5" y="-247" font-family="Helvetica,sans-Serif" font-size="10.00">StreamDBCondition.condition</text>
</a>
</g>
</g>
<!-- Node1&#45;&gt;Node2 -->
<g id="edge1_Node000001_Node000002" class="edge">
<title>Node1&#45;&gt;Node2</title>
<g id="a_edge1_Node000001_Node000002"><a xlink:title=" ">
<path fill="none" stroke="#63b8ff" d="M452.72,-248.26C444.13,-248.27 435.59,-248.35 427.28,-248.47"/>
<polygon fill="#63b8ff" stroke="#63b8ff" points="452.79,-251.76 462.8,-248.26 452.8,-244.76 452.79,-251.76"/>
</a>
</g>
</g>
<!-- Node2&#45;&gt;Node1 -->
<g id="edge5_Node000002_Node000001" class="edge">
<title>Node2&#45;&gt;Node1</title>
<g id="a_edge5_Node000002_Node000001"><a xlink:title=" ">
<path fill="none" stroke="#63b8ff" d="M437.41,-261.65C445.78,-261.73 454.31,-261.76 462.8,-261.74"/>
<polygon fill="#63b8ff" stroke="#63b8ff" points="437.32,-258.15 427.28,-261.53 437.24,-265.15 437.32,-258.15"/>
</a>
</g>
</g>
<!-- Node3 -->
<g id="Node000003" class="node">
<title>Node3</title>
<g id="a_Node000003"><a xlink:href="classcom_1_1teragrep_1_1pth__06_1_1ast_1_1meta_1_1StreamDBCondition.html#a3e43c38cb0c9103e08f4b37e95e45b87" target="_top" xlink:title=" ">
<polygon fill="white" stroke="#666666" points="203.5,-474 20.5,-474 20.5,-444 203.5,-444 203.5,-474"/>
<text text-anchor="start" x="28.5" y="-462" font-family="Helvetica,sans-Serif" font-size="10.00">com.teragrep.pth_06.ast.meta.</text>
<text text-anchor="middle" x="112" y="-451" font-family="Helvetica,sans-Serif" font-size="10.00">StreamDBCondition.hostCondition</text>
</a>
</g>
</g>
<!-- Node2&#45;&gt;Node3 -->
<g id="edge2_Node000002_Node000003" class="edge">
<title>Node2&#45;&gt;Node3</title>
<g id="a_edge2_Node000002_Node000003"><a xlink:title=" ">
<path fill="none" stroke="#63b8ff" d="M331.13,-279.31C314.25,-317.08 278.54,-388.63 224,-426 211.56,-434.53 196.64,-440.1 181.84,-443.96"/>
<polygon fill="#63b8ff" stroke="#63b8ff" points="334.39,-280.61 335.21,-270.04 327.98,-277.79 334.39,-280.61"/>
</a>
</g>
</g>
<!-- Node4 -->
<g id="Node000004" class="node">
<title>Node4</title>
<g id="a_Node000004"><a xlink:href="classcom_1_1teragrep_1_1pth__06_1_1ast_1_1meta_1_1StreamDBConditionTest.html#a3c789f8664dba7a614dbbed433d5da9c" target="_top" xlink:title=" ">
<polygon fill="white" stroke="#666666" points="200,-426 24,-426 24,-396 200,-396 200,-426"/>
<text text-anchor="start" x="32" y="-414" font-family="Helvetica,sans-Serif" font-size="10.00">com.teragrep.pth_06.ast.meta.</text>
<text text-anchor="middle" x="112" y="-403" font-family="Helvetica,sans-Serif" font-size="10.00">StreamDBConditionTest.testHost</text>
</a>
</g>
</g>
<!-- Node2&#45;&gt;Node4 -->
<g id="edge6_Node000002_Node000004" class="edge">
<title>Node2&#45;&gt;Node4</title>
<g id="a_edge6_Node000002_Node000004"><a xlink:title=" ">
<path fill="none" stroke="#63b8ff" d="M328.08,-278.67C308.43,-308.78 270.34,-360.09 224,-387 216.58,-391.31 208.48,-394.84 200.14,-397.75"/>
<polygon fill="#63b8ff" stroke="#63b8ff" points="331.15,-280.37 333.57,-270.06 325.24,-276.61 331.15,-280.37"/>
</a>
</g>
</g>
<!-- Node5 -->
<g id="Node000005" class="node">
<title>Node5</title>
<g id="a_Node000005"><a xlink:href="classcom_1_1teragrep_1_1pth__06_1_1ast_1_1meta_1_1StreamDBConditionTest.html#a72a28c180a2daefcc1145228986029a9" target="_top" xlink:title=" ">
<polygon fill="white" stroke="#666666" points="218.5,-378 5.5,-378 5.5,-348 218.5,-348 218.5,-378"/>
<text text-anchor="start" x="13.5" y="-366" font-family="Helvetica,sans-Serif" font-size="10.00">com.teragrep.pth_06.ast.meta.</text>
<text text-anchor="middle" x="112" y="-355" font-family="Helvetica,sans-Serif" font-size="10.00">StreamDBConditionTest.testIndexEquals</text>
</a>
</g>
</g>
<!-- Node2&#45;&gt;Node5 -->
<g id="edge7_Node000002_Node000005" class="edge">
<title>Node2&#45;&gt;Node5</title>
<g id="a_edge7_Node000002_Node000005"><a xlink:title=" ">
<path fill="none" stroke="#63b8ff" d="M318.02,-276.9C295.24,-296.1 259.56,-323.34 224,-339 216.15,-342.46 207.76,-345.43 199.25,-347.99"/>
<polygon fill="#63b8ff" stroke="#63b8ff" points="320.49,-279.39 325.8,-270.22 315.93,-274.07 320.49,-279.39"/>
</a>
</g>
</g>
<!-- Node6 -->
<g id="Node000006" class="node">
<title>Node6</title>
<g id="a_Node000006"><a xlink:href="classcom_1_1teragrep_1_1pth__06_1_1ast_1_1meta_1_1StreamDBConditionTest.html#a4365d75b9f815ae2e2f4cc1393a69555" target="_top" xlink:title=" ">
<polygon fill="white" stroke="#666666" points="211,-329.5 13,-329.5 13,-288.5 211,-288.5 211,-329.5"/>
<text text-anchor="start" x="21" y="-317.5" font-family="Helvetica,sans-Serif" font-size="10.00">com.teragrep.pth_06.ast.meta.</text>
<text text-anchor="start" x="21" y="-306.5" font-family="Helvetica,sans-Serif" font-size="10.00">StreamDBConditionTest.testIndexNot</text>
<text text-anchor="middle" x="112" y="-295.5" font-family="Helvetica,sans-Serif" font-size="10.00">Equals</text>
</a>
</g>
</g>
<!-- Node2&#45;&gt;Node6 -->
<g id="edge8_Node000002_Node000006" class="edge">
<title>Node2&#45;&gt;Node6</title>
<g id="a_edge8_Node000002_Node000006"><a xlink:title=" ">
<path fill="none" stroke="#63b8ff" d="M268.71,-272.36C246.88,-277.5 222.77,-283.17 200.17,-288.49"/>
<polygon fill="#63b8ff" stroke="#63b8ff" points="269.64,-275.74 278.57,-270.04 268.04,-268.93 269.64,-275.74"/>
</a>
</g>
</g>
<!-- Node7 -->
<g id="Node000007" class="node">
<title>Node7</title>
<g id="a_Node000007"><a xlink:href="classcom_1_1teragrep_1_1pth__06_1_1ast_1_1meta_1_1StreamDBConditionTest.html#a7a14233dc0534410ee2f6824cf067cda" target="_top" xlink:title=" ">
<polygon fill="white" stroke="#666666" points="224,-270 0,-270 0,-240 224,-240 224,-270"/>
<text text-anchor="start" x="8" y="-258" font-family="Helvetica,sans-Serif" font-size="10.00">com.teragrep.pth_06.ast.meta.</text>
<text text-anchor="middle" x="112" y="-247" font-family="Helvetica,sans-Serif" font-size="10.00">StreamDBConditionTest.testIndexWildcard</text>
</a>
</g>
</g>
<!-- Node2&#45;&gt;Node7 -->
<g id="edge9_Node000002_Node000007" class="edge">
<title>Node2&#45;&gt;Node7</title>
<g id="a_edge9_Node000002_Node000007"><a xlink:title=" ">
<path fill="none" stroke="#63b8ff" d="M249.83,-255C241.45,-255 232.9,-255 224.37,-255"/>
<polygon fill="#63b8ff" stroke="#63b8ff" points="249.97,-258.5 259.97,-255 249.97,-251.5 249.97,-258.5"/>
</a>
</g>
</g>
<!-- Node8 -->
<g id="Node000008" class="node">
<title>Node8</title>
<g id="a_Node000008"><a xlink:href="classcom_1_1teragrep_1_1pth__06_1_1ast_1_1meta_1_1StreamIDsTest.html#a3e58a5f3605e8aaad84691533257d73c" target="_top" xlink:title=" ">
<polygon fill="white" stroke="#666666" points="200,-222 24,-222 24,-192 200,-192 200,-222"/>
<text text-anchor="start" x="32" y="-210" font-family="Helvetica,sans-Serif" font-size="10.00">com.teragrep.pth_06.ast.meta.</text>
<text text-anchor="middle" x="112" y="-199" font-family="Helvetica,sans-Serif" font-size="10.00">StreamIDsTest.testMultipleHosts</text>
</a>
</g>
</g>
<!-- Node2&#45;&gt;Node8 -->
<g id="edge10_Node000002_Node000008" class="edge">
<title>Node2&#45;&gt;Node8</title>
<g id="a_edge10_Node000002_Node000008"><a xlink:title=" ">
<path fill="none" stroke="#63b8ff" d="M260.43,-237.83C235.69,-232.66 208.74,-227.02 184.73,-222"/>
<polygon fill="#63b8ff" stroke="#63b8ff" points="260.01,-241.32 270.51,-239.94 261.44,-234.47 260.01,-241.32"/>
</a>
</g>
</g>
<!-- Node9 -->
<g id="Node000009" class="node">
<title>Node9</title>
<g id="a_Node000009"><a xlink:href="classcom_1_1teragrep_1_1pth__06_1_1ast_1_1meta_1_1StreamIDsTest.html#a0d4004b66d36725ecc6561478e1de00b" target="_top" xlink:title=" ">
<polygon fill="white" stroke="#666666" points="200,-174 24,-174 24,-144 200,-144 200,-174"/>
<text text-anchor="start" x="32" y="-162" font-family="Helvetica,sans-Serif" font-size="10.00">com.teragrep.pth_06.ast.meta.</text>
<text text-anchor="middle" x="112" y="-151" font-family="Helvetica,sans-Serif" font-size="10.00">StreamIDsTest.testMultipleIndex</text>
</a>
</g>
</g>
<!-- Node2&#45;&gt;Node9 -->
<g id="edge11_Node000002_Node000009" class="edge">
<title>Node2&#45;&gt;Node9</title>
<g id="a_edge11_Node000002_Node000009"><a xlink:title=" ">
<path fill="none" stroke="#63b8ff" d="M313.89,-233.86C290.74,-217.7 256.71,-196.05 224,-183 215.39,-179.57 206.2,-176.59 196.94,-174.01"/>
<polygon fill="#63b8ff" stroke="#63b8ff" points="312.03,-236.82 322.21,-239.75 316.08,-231.11 312.03,-236.82"/>
</a>
</g>
</g>
<!-- Node10 -->
<g id="Node000010" class="node">
<title>Node10</title>
<g id="a_Node000010"><a xlink:href="classcom_1_1teragrep_1_1pth__06_1_1ast_1_1meta_1_1StreamIDsTest.html#afe30676e16fb9b5f0faf1369e24620ad" target="_top" xlink:title=" ">
<polygon fill="white" stroke="#666666" points="195.5,-126 28.5,-126 28.5,-96 195.5,-96 195.5,-126"/>
<text text-anchor="start" x="36.5" y="-114" font-family="Helvetica,sans-Serif" font-size="10.00">com.teragrep.pth_06.ast.meta.</text>
<text text-anchor="middle" x="112" y="-103" font-family="Helvetica,sans-Serif" font-size="10.00">StreamIDsTest.testSingleHost</text>
</a>
</g>
</g>
<!-- Node2&#45;&gt;Node10 -->
<g id="edge12_Node000002_Node000010" class="edge">
<title>Node2&#45;&gt;Node10</title>
<g id="a_edge12_Node000002_Node000010"><a xlink:title=" ">
<path fill="none" stroke="#63b8ff" d="M326,-231.41C305.41,-203.83 267.53,-158.91 224,-135 215.19,-130.16 205.48,-126.29 195.58,-123.21"/>
<polygon fill="#63b8ff" stroke="#63b8ff" points="323.34,-233.7 332.07,-239.71 328.99,-229.57 323.34,-233.7"/>
</a>
</g>
</g>
<!-- Node11 -->
<g id="Node000011" class="node">
<title>Node11</title>
<g id="a_Node000011"><a xlink:href="classcom_1_1teragrep_1_1pth__06_1_1ast_1_1meta_1_1StreamIDsTest.html#ad652d049581506648821e447996b7816" target="_top" xlink:title=" ">
<polygon fill="white" stroke="#666666" points="195.5,-78 28.5,-78 28.5,-48 195.5,-48 195.5,-78"/>
<text text-anchor="start" x="36.5" y="-66" font-family="Helvetica,sans-Serif" font-size="10.00">com.teragrep.pth_06.ast.meta.</text>
<text text-anchor="middle" x="112" y="-55" font-family="Helvetica,sans-Serif" font-size="10.00">StreamIDsTest.testSingleIndex</text>
</a>
</g>
</g>
<!-- Node2&#45;&gt;Node11 -->
<g id="edge13_Node000002_Node000011" class="edge">
<title>Node2&#45;&gt;Node11</title>
<g id="a_edge13_Node000002_Node000011"><a xlink:title=" ">
<path fill="none" stroke="#63b8ff" d="M332.2,-230.21C315.35,-192.91 278.27,-122.93 224,-87 215.37,-81.29 205.61,-76.91 195.55,-73.56"/>
<polygon fill="#63b8ff" stroke="#63b8ff" points="329.18,-232.06 336.41,-239.81 335.59,-229.24 329.18,-232.06"/>
</a>
</g>
</g>
<!-- Node12 -->
<g id="Node000012" class="node">
<title>Node12</title>
<g id="a_Node000012"><a xlink:href="classcom_1_1teragrep_1_1pth__06_1_1ast_1_1meta_1_1StreamDBConditionTest.html#afebbd56bd5af6f1e7ac40903d2c8d2fa" target="_top" xlink:title=" ">
<polygon fill="white" stroke="#666666" points="216.5,-30 7.5,-30 7.5,0 216.5,0 216.5,-30"/>
<text text-anchor="start" x="15.5" y="-18" font-family="Helvetica,sans-Serif" font-size="10.00">com.teragrep.pth_06.ast.meta.</text>
<text text-anchor="middle" x="112" y="-7" font-family="Helvetica,sans-Serif" font-size="10.00">StreamDBConditionTest.testSourcetype</text>
</a>
</g>
</g>
<!-- Node2&#45;&gt;Node12 -->
<g id="edge14_Node000002_Node000012" class="edge">
<title>Node2&#45;&gt;Node12</title>
<g id="a_edge14_Node000002_Node000012"><a xlink:title=" ">
<path fill="none" stroke="#63b8ff" d="M336.24,-230.16C323.42,-184.63 289.68,-88 224,-39 219.42,-35.58 214.45,-32.63 209.24,-30.08"/>
<polygon fill="#63b8ff" stroke="#63b8ff" points="332.87,-231.08 338.86,-239.82 339.62,-229.25 332.87,-231.08"/>
</a>
</g>
</g>
<!-- Node3&#45;&gt;Node2 -->
<g id="edge3_Node000003_Node000002" class="edge">
<title>Node3&#45;&gt;Node2</title>
<g id="a_edge3_Node000003_Node000002"><a xlink:title=" ">
<path fill="none" stroke="#63b8ff" d="M212.9,-450.55C216.76,-448.59 220.48,-446.41 224,-444 288.81,-399.59 327.03,-306.91 338.67,-270.08"/>
<polygon fill="#63b8ff" stroke="#63b8ff" points="211.33,-447.41 203.66,-454.73 214.22,-453.79 211.33,-447.41"/>
</a>
</g>
</g>
<!-- Node3&#45;&gt;Node3 -->
<g id="edge4_Node000003_Node000003" class="edge">
<title>Node3&#45;&gt;Node3</title>
<g id="a_edge4_Node000003_Node000003"><a xlink:title=" ">
<path fill="none" stroke="#63b8ff" d="M152.26,-484.6C146.76,-488.97 133.34,-492 112,-492 76.06,-492 62.59,-483.41 71.57,-474.28"/>
<polygon fill="#63b8ff" stroke="#63b8ff" points="155.76,-484.33 152.43,-474.28 148.76,-484.22 155.76,-484.33"/>
</a>
</g>
</g>
</g>
</svg>
