<?xml version="1.0" encoding="UTF-8" standalone="no"?>
<!DOCTYPE svg PUBLIC "-//W3C//DTD SVG 1.1//EN"
 "http://www.w3.org/Graphics/SVG/1.1/DTD/svg11.dtd">
<!-- Generated by graphviz version 2.43.0 (0)
 -->
<!-- Title: com.teragrep.pth_06.planner.BatchSizeLimitedResultsTest.testStartingOffset Pages: 1 -->
<svg width="587pt" height="62pt"
 viewBox="0.00 0.00 587.00 61.50" xmlns="http://www.w3.org/2000/svg" xmlns:xlink="http://www.w3.org/1999/xlink">
<g id="graph0" class="graph" transform="scale(1 1) rotate(0) translate(4 57.5)">
<title>com.teragrep.pth_06.planner.BatchSizeLimitedResultsTest.testStartingOffset</title>
<!-- Node1 -->
<g id="Node000001" class="node">
<title>Node1</title>
<g id="a_Node000001"><a xlink:title=" ">
<polygon fill="#999999" stroke="#666666" points="179,-41 0,-41 0,0 179,0 179,-41"/>
<text text-anchor="start" x="8" y="-29" font-family="Helvetica,sans-Serif" font-size="10.00">com.teragrep.pth_06.planner.</text>
<text text-anchor="start" x="8" y="-18" font-family="Helvetica,sans-Serif" font-size="10.00">BatchSizeLimitedResultsTest.test</text>
<text text-anchor="middle" x="89.5" y="-7" font-family="Helvetica,sans-Serif" font-size="10.00">StartingOffset</text>
</a>
</g>
</g>
<!-- Node2 -->
<g id="Node000002" class="node">
<title>Node2</title>
<g id="a_Node000002"><a xlink:href="classcom_1_1teragrep_1_1pth__06_1_1planner_1_1BatchSizeLimitedResults.html#acf86a17d7a98d6998d39e72932fe67a2" target="_top" xlink:title=" ">
<polygon fill="white" stroke="#666666" points="383,-35.5 215,-35.5 215,-5.5 383,-5.5 383,-35.5"/>
<text text-anchor="start" x="223" y="-23.5" font-family="Helvetica,sans-Serif" font-size="10.00">com.teragrep.pth_06.planner.</text>
<text text-anchor="middle" x="299" y="-12.5" font-family="Helvetica,sans-Serif" font-size="10.00">BatchSizeLimitedResults.latest</text>
</a>
</g>
</g>
<!-- Node1&#45;&gt;Node2 -->
<g id="edge1_Node000001_Node000002" class="edge">
<title>Node1&#45;&gt;Node2</title>
<g id="a_edge1_Node000001_Node000002"><a xlink:title=" ">
<path fill="none" stroke="#63b8ff" d="M179.1,-20.5C187.65,-20.5 196.34,-20.5 204.93,-20.5"/>
<polygon fill="#63b8ff" stroke="#63b8ff" points="204.96,-24 214.96,-20.5 204.96,-17 204.96,-24"/>
</a>
</g>
</g>
<!-- Node2&#45;&gt;Node2 -->
<g id="edge3_Node000002_Node000002" class="edge">
<title>Node2&#45;&gt;Node2</title>
<g id="a_edge3_Node000002_Node000002"><a xlink:title=" ">
<path fill="none" stroke="#63b8ff" d="M263.84,-35.78C256.03,-44.91 267.75,-53.5 299,-53.5 317.55,-53.5 329.22,-50.47 334.01,-46.1"/>
<polygon fill="#63b8ff" stroke="#63b8ff" points="337.51,-45.82 334.16,-35.78 330.51,-45.72 337.51,-45.82"/>
</a>
</g>
</g>
<!-- Node3 -->
<g id="Node000003" class="node">
<title>Node3</title>
<g id="a_Node000003"><a xlink:href="classcom_1_1teragrep_1_1pth__06_1_1planner_1_1EpochFromRowKey.html#a04c0e8be532170b3f568a527d125fe75" target="_top" xlink:title=" ">
<polygon fill="white" stroke="#666666" points="579,-35.5 419,-35.5 419,-5.5 579,-5.5 579,-35.5"/>
<text text-anchor="start" x="427" y="-23.5" font-family="Helvetica,sans-Serif" font-size="10.00">com.teragrep.pth_06.planner.</text>
<text text-anchor="middle" x="499" y="-12.5" font-family="Helvetica,sans-Serif" font-size="10.00">EpochFromRowKey.epoch</text>
</a>
</g>
</g>
<!-- Node2&#45;&gt;Node3 -->
<g id="edge2_Node000002_Node000003" class="edge">
<title>Node2&#45;&gt;Node3</title>
<g id="a_edge2_Node000002_Node000003"><a xlink:title=" ">
<path fill="none" stroke="#63b8ff" d="M383.11,-20.5C391.63,-20.5 400.31,-20.5 408.89,-20.5"/>
<polygon fill="#63b8ff" stroke="#63b8ff" points="408.9,-24 418.9,-20.5 408.9,-17 408.9,-24"/>
</a>
</g>
</g>
</g>
</svg>
