<?xml version="1.0" encoding="UTF-8" standalone="no"?>
<!DOCTYPE svg PUBLIC "-//W3C//DTD SVG 1.1//EN"
 "http://www.w3.org/Graphics/SVG/1.1/DTD/svg11.dtd">
<!-- Generated by graphviz version 2.43.0 (0)
 -->
<!-- Title: com.teragrep.pth_06.ast.analyze.ClassifiedXMLValueExpressionsTest.testIndexList Pages: 1 -->
<svg width="734pt" height="49pt"
 viewBox="0.00 0.00 734.00 49.00" xmlns="http://www.w3.org/2000/svg" xmlns:xlink="http://www.w3.org/1999/xlink">
<g id="graph0" class="graph" transform="scale(1 1) rotate(0) translate(4 45)">
<title>com.teragrep.pth_06.ast.analyze.ClassifiedXMLValueExpressionsTest.testIndexList</title>
<!-- Node1 -->
<g id="Node000001" class="node">
<title>Node1</title>
<g id="a_Node000001"><a xlink:title=" ">
<polygon fill="#999999" stroke="#666666" points="211,-41 0,-41 0,0 211,0 211,-41"/>
<text text-anchor="start" x="8" y="-29" font-family="Helvetica,sans-Serif" font-size="10.00">com.teragrep.pth_06.ast.analyze.</text>
<text text-anchor="start" x="8" y="-18" font-family="Helvetica,sans-Serif" font-size="10.00">ClassifiedXMLValueExpressionsTest.test</text>
<text text-anchor="middle" x="105.5" y="-7" font-family="Helvetica,sans-Serif" font-size="10.00">IndexList</text>
</a>
</g>
</g>
<!-- Node2 -->
<g id="Node000002" class="node">
<title>Node2</title>
<g id="a_Node000002"><a xlink:href="classcom_1_1teragrep_1_1pth__06_1_1ast_1_1analyze_1_1ClassifiedXMLValueExpressions.html#a366291cc5860533b064603f2d3d8e0e3" target="_top" xlink:title=" ">
<polygon fill="white" stroke="#666666" points="464,-35.5 247,-35.5 247,-5.5 464,-5.5 464,-35.5"/>
<text text-anchor="start" x="255" y="-23.5" font-family="Helvetica,sans-Serif" font-size="10.00">com.teragrep.pth_06.ast.analyze.</text>
<text text-anchor="middle" x="355.5" y="-12.5" font-family="Helvetica,sans-Serif" font-size="10.00">ClassifiedXMLValueExpressions.indexList</text>
</a>
</g>
</g>
<!-- Node1&#45;&gt;Node2 -->
<g id="edge1_Node000001_Node000002" class="edge">
<title>Node1&#45;&gt;Node2</title>
<g id="a_edge1_Node000001_Node000002"><a xlink:title=" ">
<path fill="none" stroke="#63b8ff" d="M211.31,-20.5C219.68,-20.5 228.16,-20.5 236.61,-20.5"/>
<polygon fill="#63b8ff" stroke="#63b8ff" points="236.88,-24 246.88,-20.5 236.88,-17 236.88,-24"/>
</a>
</g>
</g>
<!-- Node3 -->
<g id="Node000003" class="node">
<title>Node3</title>
<g id="a_Node000003"><a xlink:href="classcom_1_1teragrep_1_1pth__06_1_1ast_1_1analyze_1_1ClassifiedXMLValueExpressions.html#a233e7554e04af8008778c500093a1e3b" target="_top" xlink:title=" ">
<polygon fill="white" stroke="#666666" points="726,-41 500,-41 500,0 726,0 726,-41"/>
<text text-anchor="start" x="508" y="-29" font-family="Helvetica,sans-Serif" font-size="10.00">com.teragrep.pth_06.ast.analyze.</text>
<text text-anchor="start" x="508" y="-18" font-family="Helvetica,sans-Serif" font-size="10.00">ClassifiedXMLValueExpressions.expression</text>
<text text-anchor="middle" x="613" y="-7" font-family="Helvetica,sans-Serif" font-size="10.00">ListFilteredByTag</text>
</a>
</g>
</g>
<!-- Node2&#45;&gt;Node3 -->
<g id="edge2_Node000002_Node000003" class="edge">
<title>Node2&#45;&gt;Node3</title>
<g id="a_edge2_Node000002_Node000003"><a xlink:title=" ">
<path fill="none" stroke="#63b8ff" d="M464.11,-20.5C472.64,-20.5 481.29,-20.5 489.91,-20.5"/>
<polygon fill="#63b8ff" stroke="#63b8ff" points="490,-24 500,-20.5 490,-17 490,-24"/>
</a>
</g>
</g>
</g>
</svg>
