<?xml version="1.0" encoding="UTF-8" standalone="no"?>
<!DOCTYPE svg PUBLIC "-//W3C//DTD SVG 1.1//EN"
 "http://www.w3.org/Graphics/SVG/1.1/DTD/svg11.dtd">
<!-- Generated by graphviz version 2.43.0 (0)
 -->
<!-- Title: com.teragrep.pth_06.ast.analyze.ClassifiedXMLValueExpressions.hostList Pages: 1 -->
<svg width="466pt" height="205pt"
 viewBox="0.00 0.00 466.00 204.50" xmlns="http://www.w3.org/2000/svg" xmlns:xlink="http://www.w3.org/1999/xlink">
<g id="graph0" class="graph" transform="scale(1 1) rotate(0) translate(4 200.5)">
<title>com.teragrep.pth_06.ast.analyze.ClassifiedXMLValueExpressions.hostList</title>
<!-- Node1 -->
<g id="Node000001" class="node">
<title>Node1</title>
<g id="a_Node000001"><a xlink:title=" ">
<polygon fill="#999999" stroke="#666666" points="458,-121.5 247,-121.5 247,-91.5 458,-91.5 458,-121.5"/>
<text text-anchor="start" x="255" y="-109.5" font-family="Helvetica,sans-Serif" font-size="10.00">com.teragrep.pth_06.ast.analyze.</text>
<text text-anchor="middle" x="352.5" y="-98.5" font-family="Helvetica,sans-Serif" font-size="10.00">ClassifiedXMLValueExpressions.hostList</text>
</a>
</g>
</g>
<!-- Node2 -->
<g id="Node000002" class="node">
<title>Node2</title>
<g id="a_Node000002"><a xlink:href="classcom_1_1teragrep_1_1pth__06_1_1ast_1_1analyze_1_1FilterGroup.html#ae999688c94e8245d4594e861ab2a7696" target="_top" xlink:title=" ">
<polygon fill="white" stroke="#666666" points="195.5,-196.5 15.5,-196.5 15.5,-166.5 195.5,-166.5 195.5,-196.5"/>
<text text-anchor="start" x="23.5" y="-184.5" font-family="Helvetica,sans-Serif" font-size="10.00">com.teragrep.pth_06.ast.analyze.</text>
<text text-anchor="middle" x="105.5" y="-173.5" font-family="Helvetica,sans-Serif" font-size="10.00">FilterGroup.FilterGroup</text>
</a>
</g>
</g>
<!-- Node1&#45;&gt;Node2 -->
<g id="edge1_Node000001_Node000002" class="edge">
<title>Node1&#45;&gt;Node2</title>
<g id="a_edge1_Node000001_Node000002"><a xlink:title=" ">
<path fill="none" stroke="#63b8ff" d="M304.45,-125.21C277.39,-135.56 242.59,-148.18 211,-157.5 200.2,-160.69 188.67,-163.71 177.35,-166.46"/>
<polygon fill="#63b8ff" stroke="#63b8ff" points="305.98,-128.38 314.05,-121.51 303.46,-121.84 305.98,-128.38"/>
</a>
</g>
</g>
<!-- Node3 -->
<g id="Node000003" class="node">
<title>Node3</title>
<g id="a_Node000003"><a xlink:href="classcom_1_1teragrep_1_1pth__06_1_1ast_1_1analyze_1_1StreamIDGroup.html#aba8cdfb8f3c8e67484434e04d98d89d6" target="_top" xlink:title=" ">
<polygon fill="white" stroke="#666666" points="195.5,-148.5 15.5,-148.5 15.5,-118.5 195.5,-118.5 195.5,-148.5"/>
<text text-anchor="start" x="23.5" y="-136.5" font-family="Helvetica,sans-Serif" font-size="10.00">com.teragrep.pth_06.ast.analyze.</text>
<text text-anchor="middle" x="105.5" y="-125.5" font-family="Helvetica,sans-Serif" font-size="10.00">StreamIDGroup.StreamIDGroup</text>
</a>
</g>
</g>
<!-- Node1&#45;&gt;Node3 -->
<g id="edge2_Node000001_Node000003" class="edge">
<title>Node1&#45;&gt;Node3</title>
<g id="a_edge2_Node000001_Node000003"><a xlink:title=" ">
<path fill="none" stroke="#63b8ff" d="M236.86,-119.13C223.04,-120.66 209.09,-122.19 195.72,-123.67"/>
<polygon fill="#63b8ff" stroke="#63b8ff" points="237.33,-122.6 246.89,-118.03 236.56,-115.65 237.33,-122.6"/>
</a>
</g>
</g>
<!-- Node4 -->
<g id="Node000004" class="node">
<title>Node4</title>
<g id="a_Node000004"><a xlink:href="classcom_1_1teragrep_1_1pth__06_1_1ast_1_1analyze_1_1ClassifiedXMLValueExpressionsTest.html#a80e05202d14981a3ca9ab9b0b734974f" target="_top" xlink:title=" ">
<polygon fill="white" stroke="#666666" points="211,-100 0,-100 0,-59 211,-59 211,-100"/>
<text text-anchor="start" x="8" y="-88" font-family="Helvetica,sans-Serif" font-size="10.00">com.teragrep.pth_06.ast.analyze.</text>
<text text-anchor="start" x="8" y="-77" font-family="Helvetica,sans-Serif" font-size="10.00">ClassifiedXMLValueExpressionsTest.test</text>
<text text-anchor="middle" x="105.5" y="-66" font-family="Helvetica,sans-Serif" font-size="10.00">EmptyList</text>
</a>
</g>
</g>
<!-- Node1&#45;&gt;Node4 -->
<g id="edge3_Node000001_Node000004" class="edge">
<title>Node1&#45;&gt;Node4</title>
<g id="a_edge3_Node000001_Node000004"><a xlink:title=" ">
<path fill="none" stroke="#63b8ff" d="M236.86,-93.87C228.28,-92.92 219.66,-91.97 211.15,-91.03"/>
<polygon fill="#63b8ff" stroke="#63b8ff" points="236.56,-97.35 246.89,-94.97 237.33,-90.4 236.56,-97.35"/>
</a>
</g>
</g>
<!-- Node5 -->
<g id="Node000005" class="node">
<title>Node5</title>
<g id="a_Node000005"><a xlink:href="classcom_1_1teragrep_1_1pth__06_1_1ast_1_1analyze_1_1ClassifiedXMLValueExpressionsTest.html#a869b1f661cc0397927ebc4c3d6ccdf22" target="_top" xlink:title=" ">
<polygon fill="white" stroke="#666666" points="211,-41 0,-41 0,0 211,0 211,-41"/>
<text text-anchor="start" x="8" y="-29" font-family="Helvetica,sans-Serif" font-size="10.00">com.teragrep.pth_06.ast.analyze.</text>
<text text-anchor="start" x="8" y="-18" font-family="Helvetica,sans-Serif" font-size="10.00">ClassifiedXMLValueExpressionsTest.test</text>
<text text-anchor="middle" x="105.5" y="-7" font-family="Helvetica,sans-Serif" font-size="10.00">HostList</text>
</a>
</g>
</g>
<!-- Node1&#45;&gt;Node5 -->
<g id="edge4_Node000001_Node000005" class="edge">
<title>Node1&#45;&gt;Node5</title>
<g id="a_edge4_Node000001_Node000005"><a xlink:title=" ">
<path fill="none" stroke="#63b8ff" d="M307.31,-87.57C279.85,-76.14 243.67,-61.67 211,-50.5 201.53,-47.26 191.51,-44.08 181.56,-41.07"/>
<polygon fill="#63b8ff" stroke="#63b8ff" points="306.07,-90.85 316.64,-91.48 308.77,-84.39 306.07,-90.85"/>
</a>
</g>
</g>
</g>
</svg>
