<?xml version="1.0" encoding="UTF-8" standalone="no"?>
<!DOCTYPE svg PUBLIC "-//W3C//DTD SVG 1.1//EN"
 "http://www.w3.org/Graphics/SVG/1.1/DTD/svg11.dtd">
<!-- Generated by graphviz version 2.43.0 (0)
 -->
<!-- Title: com.teragrep.pth_06.planner.source.HBaseSource Pages: 1 -->
<svg width="434pt" height="182pt"
 viewBox="0.00 0.00 434.00 182.00" xmlns="http://www.w3.org/2000/svg" xmlns:xlink="http://www.w3.org/1999/xlink">
<g id="graph0" class="graph" transform="scale(1 1) rotate(0) translate(4 178)">
<title>com.teragrep.pth_06.planner.source.HBaseSource</title>
<!-- Node1 -->
<g id="Node000001" class="node">
<title>Node1</title>
<g id="a_Node000001"><a xlink:title=" ">
<polygon fill="#999999" stroke="#666666" points="195,-102 0,-102 0,-72 195,-72 195,-102"/>
<text text-anchor="start" x="8" y="-90" font-family="Helvetica,sans-Serif" font-size="10.00">com.teragrep.pth_06.planner.source.</text>
<text text-anchor="middle" x="97.5" y="-79" font-family="Helvetica,sans-Serif" font-size="10.00">HBaseSource</text>
</a>
</g>
</g>
<!-- Node2 -->
<g id="Node000002" class="node">
<title>Node2</title>
<g id="a_Node000002"><a xlink:title=" ">
<polygon fill="white" stroke="#666666" points="426,-174 231,-174 231,-144 426,-144 426,-174"/>
<text text-anchor="start" x="239" y="-162" font-family="Helvetica,sans-Serif" font-size="10.00">com.teragrep.pth_06.planner.source.</text>
<text text-anchor="middle" x="328.5" y="-151" font-family="Helvetica,sans-Serif" font-size="10.00">CachedSource</text>
</a>
</g>
</g>
<!-- Node1&#45;&gt;Node2 -->
<g id="edge1_Node000001_Node000002" class="edge">
<title>Node1&#45;&gt;Node2</title>
<g id="a_edge1_Node000001_Node000002"><a xlink:title=" ">
<path fill="none" stroke="#63b8ff" d="M146.31,-105.68C171.33,-115.11 202.59,-126.35 231,-135 241.32,-138.14 252.36,-141.18 263.14,-143.98"/>
<polygon fill="#63b8ff" stroke="#63b8ff" points="147.29,-102.31 136.7,-102.03 144.81,-108.85 147.29,-102.31"/>
</a>
</g>
</g>
<!-- Node3 -->
<g id="Node000003" class="node">
<title>Node3</title>
<g id="a_Node000003"><a xlink:title=" ">
<polygon fill="white" stroke="#666666" points="426,-126 231,-126 231,-96 426,-96 426,-126"/>
<text text-anchor="start" x="239" y="-114" font-family="Helvetica,sans-Serif" font-size="10.00">com.teragrep.pth_06.planner.source.</text>
<text text-anchor="middle" x="328.5" y="-103" font-family="Helvetica,sans-Serif" font-size="10.00">DisconnectedSource</text>
</a>
</g>
</g>
<!-- Node1&#45;&gt;Node3 -->
<g id="edge2_Node000001_Node000003" class="edge">
<title>Node1&#45;&gt;Node3</title>
<g id="a_edge2_Node000001_Node000003"><a xlink:title=" ">
<path fill="none" stroke="#63b8ff" d="M205.5,-98.21C213.9,-99.09 222.36,-99.98 230.69,-100.85"/>
<polygon fill="#63b8ff" stroke="#63b8ff" points="205.6,-94.7 195.28,-97.14 204.87,-101.67 205.6,-94.7"/>
</a>
</g>
</g>
<!-- Node4 -->
<g id="Node000004" class="node">
<title>Node4</title>
<g id="a_Node000004"><a xlink:href="classcom_1_1teragrep_1_1pth__06_1_1planner_1_1source_1_1LazySource.html" target="_top" xlink:title=" ">
<polygon fill="white" stroke="#666666" points="426,-78 231,-78 231,-48 426,-48 426,-78"/>
<text text-anchor="start" x="239" y="-66" font-family="Helvetica,sans-Serif" font-size="10.00">com.teragrep.pth_06.planner.source.</text>
<text text-anchor="middle" x="328.5" y="-55" font-family="Helvetica,sans-Serif" font-size="10.00">LazySource</text>
</a>
</g>
</g>
<!-- Node1&#45;&gt;Node4 -->
<g id="edge3_Node000001_Node000004" class="edge">
<title>Node1&#45;&gt;Node4</title>
<g id="a_edge3_Node000001_Node000004"><a xlink:title=" ">
<path fill="none" stroke="#63b8ff" d="M205.5,-75.79C213.9,-74.91 222.36,-74.02 230.69,-73.15"/>
<polygon fill="#63b8ff" stroke="#63b8ff" points="204.87,-72.33 195.28,-76.86 205.6,-79.3 204.87,-72.33"/>
</a>
</g>
</g>
<!-- Node5 -->
<g id="Node000005" class="node">
<title>Node5</title>
<g id="a_Node000005"><a xlink:title=" ">
<polygon fill="white" stroke="#666666" points="426,-30 231,-30 231,0 426,0 426,-30"/>
<text text-anchor="start" x="239" y="-18" font-family="Helvetica,sans-Serif" font-size="10.00">com.teragrep.pth_06.planner.source.</text>
<text text-anchor="middle" x="328.5" y="-7" font-family="Helvetica,sans-Serif" font-size="10.00">SourceFromConfig</text>
</a>
</g>
</g>
<!-- Node1&#45;&gt;Node5 -->
<g id="edge4_Node000001_Node000005" class="edge">
<title>Node1&#45;&gt;Node5</title>
<g id="a_edge4_Node000001_Node000005"><a xlink:title=" ">
<path fill="none" stroke="#63b8ff" d="M146.31,-68.32C171.33,-58.89 202.59,-47.65 231,-39 241.32,-35.86 252.36,-32.82 263.14,-30.02"/>
<polygon fill="#63b8ff" stroke="#63b8ff" points="144.81,-65.15 136.7,-71.97 147.29,-71.69 144.81,-65.15"/>
</a>
</g>
</g>
</g>
</svg>
