<?xml version="1.0" encoding="UTF-8" standalone="no"?>
<!DOCTYPE svg PUBLIC "-//W3C//DTD SVG 1.1//EN"
 "http://www.w3.org/Graphics/SVG/1.1/DTD/svg11.dtd">
<!-- Generated by graphviz version 2.43.0 (0)
 -->
<!-- Title: com.teragrep.pth_06.Stubbable Pages: 1 -->
<svg width="610pt" height="614pt"
 viewBox="0.00 0.00 610.00 614.00" xmlns="http://www.w3.org/2000/svg" xmlns:xlink="http://www.w3.org/1999/xlink">
<g id="graph0" class="graph" transform="scale(1 1) rotate(0) translate(4 610)">
<title>com.teragrep.pth_06.Stubbable</title>
<!-- Node1 -->
<g id="Node000001" class="node">
<title>Node1</title>
<g id="a_Node000001"><a xlink:title=" ">
<polygon fill="#999999" stroke="#666666" points="170,-288.5 0,-288.5 0,-269.5 170,-269.5 170,-288.5"/>
<text text-anchor="middle" x="85" y="-276.5" font-family="Helvetica,sans-Serif" font-size="10.00">com.teragrep.pth_06.Stubbable</text>
</a>
</g>
</g>
<!-- Node2 -->
<g id="Node000002" class="node">
<title>Node2</title>
<g id="a_Node000002"><a xlink:href="interfacecom_1_1teragrep_1_1pth__06_1_1ast_1_1analyze_1_1ScanPlan.html" target="_top" xlink:title="Logical plan for a row key range scan of HBase.">
<polygon fill="white" stroke="#666666" points="386,-558 206,-558 206,-528 386,-528 386,-558"/>
<text text-anchor="start" x="214" y="-546" font-family="Helvetica,sans-Serif" font-size="10.00">com.teragrep.pth_06.ast.analyze.</text>
<text text-anchor="middle" x="296" y="-535" font-family="Helvetica,sans-Serif" font-size="10.00">ScanPlan</text>
</a>
</g>
</g>
<!-- Node1&#45;&gt;Node2 -->
<g id="edge1_Node000001_Node000002" class="edge">
<title>Node1&#45;&gt;Node2</title>
<g id="a_edge1_Node000001_Node000002"><a xlink:title=" ">
<path fill="none" stroke="#63b8ff" d="M98.03,-297.41C118.86,-328.93 163.52,-394.88 206,-447 230.41,-476.95 261.65,-509.45 279.88,-527.92"/>
<polygon fill="#63b8ff" stroke="#63b8ff" points="100.77,-295.22 92.35,-288.79 94.92,-299.07 100.77,-295.22"/>
</a>
</g>
</g>
<!-- Node5 -->
<g id="Node000005" class="node">
<title>Node5</title>
<g id="a_Node000005"><a xlink:href="interfacecom_1_1teragrep_1_1pth__06_1_1planner_1_1ArchiveQuery.html" target="_top" xlink:title=" ">
<polygon fill="white" stroke="#666666" points="376,-438 216,-438 216,-408 376,-408 376,-438"/>
<text text-anchor="start" x="224" y="-426" font-family="Helvetica,sans-Serif" font-size="10.00">com.teragrep.pth_06.planner.</text>
<text text-anchor="middle" x="296" y="-415" font-family="Helvetica,sans-Serif" font-size="10.00">ArchiveQuery</text>
</a>
</g>
</g>
<!-- Node1&#45;&gt;Node5 -->
<g id="edge4_Node000001_Node000005" class="edge">
<title>Node1&#45;&gt;Node5</title>
<g id="a_edge4_Node000001_Node000005"><a xlink:title=" ">
<path fill="none" stroke="#63b8ff" d="M108.4,-294.43C148.76,-322.24 233.19,-380.41 273.15,-407.94"/>
<polygon fill="#63b8ff" stroke="#63b8ff" points="110.26,-291.46 100.04,-288.67 106.29,-297.23 110.26,-291.46"/>
</a>
</g>
</g>
<!-- Node9 -->
<g id="Node000009" class="node">
<title>Node9</title>
<g id="a_Node000009"><a xlink:href="interfacecom_1_1teragrep_1_1pth__06_1_1planner_1_1HBaseQuery.html" target="_top" xlink:title=" ">
<polygon fill="white" stroke="#666666" points="376,-318 216,-318 216,-288 376,-288 376,-318"/>
<text text-anchor="start" x="224" y="-306" font-family="Helvetica,sans-Serif" font-size="10.00">com.teragrep.pth_06.planner.</text>
<text text-anchor="middle" x="296" y="-295" font-family="Helvetica,sans-Serif" font-size="10.00">HBaseQuery</text>
</a>
</g>
</g>
<!-- Node1&#45;&gt;Node9 -->
<g id="edge8_Node000001_Node000009" class="edge">
<title>Node1&#45;&gt;Node9</title>
<g id="a_edge8_Node000001_Node000009"><a xlink:title=" ">
<path fill="none" stroke="#63b8ff" d="M179.15,-289.7C191.44,-291.11 203.93,-292.54 215.94,-293.92"/>
<polygon fill="#63b8ff" stroke="#63b8ff" points="179.24,-286.18 168.9,-288.52 178.44,-293.14 179.24,-286.18"/>
</a>
</g>
</g>
<!-- Node12 -->
<g id="Node000012" class="node">
<title>Node12</title>
<g id="a_Node000012"><a xlink:href="interfacecom_1_1teragrep_1_1pth__06_1_1planner_1_1HourlySlices.html" target="_top" xlink:title=" ">
<polygon fill="white" stroke="#666666" points="376,-270 216,-270 216,-240 376,-240 376,-270"/>
<text text-anchor="start" x="224" y="-258" font-family="Helvetica,sans-Serif" font-size="10.00">com.teragrep.pth_06.planner.</text>
<text text-anchor="middle" x="296" y="-247" font-family="Helvetica,sans-Serif" font-size="10.00">HourlySlices</text>
</a>
</g>
</g>
<!-- Node1&#45;&gt;Node12 -->
<g id="edge11_Node000001_Node000012" class="edge">
<title>Node1&#45;&gt;Node12</title>
<g id="a_edge11_Node000001_Node000012"><a xlink:title=" ">
<path fill="none" stroke="#63b8ff" d="M179.15,-268.3C191.44,-266.89 203.93,-265.46 215.94,-264.08"/>
<polygon fill="#63b8ff" stroke="#63b8ff" points="178.44,-264.86 168.9,-269.48 179.24,-271.82 178.44,-264.86"/>
</a>
</g>
</g>
<!-- Node15 -->
<g id="Node000015" class="node">
<title>Node15</title>
<g id="a_Node000015"><a xlink:href="interfacecom_1_1teragrep_1_1pth__06_1_1planner_1_1KafkaQuery.html" target="_top" xlink:title=" ">
<polygon fill="white" stroke="#666666" points="376,-174 216,-174 216,-144 376,-144 376,-174"/>
<text text-anchor="start" x="224" y="-162" font-family="Helvetica,sans-Serif" font-size="10.00">com.teragrep.pth_06.planner.</text>
<text text-anchor="middle" x="296" y="-151" font-family="Helvetica,sans-Serif" font-size="10.00">KafkaQuery</text>
</a>
</g>
</g>
<!-- Node1&#45;&gt;Node15 -->
<g id="edge14_Node000001_Node000015" class="edge">
<title>Node1&#45;&gt;Node15</title>
<g id="a_edge14_Node000001_Node000015"><a xlink:title=" ">
<path fill="none" stroke="#63b8ff" d="M111.63,-264.29C151.64,-241.31 228.55,-197.15 268.87,-174"/>
<polygon fill="#63b8ff" stroke="#63b8ff" points="109.68,-261.37 102.75,-269.38 113.17,-267.44 109.68,-261.37"/>
</a>
</g>
</g>
<!-- Node18 -->
<g id="Node000018" class="node">
<title>Node18</title>
<g id="a_Node000018"><a xlink:href="interfacecom_1_1teragrep_1_1pth__06_1_1planner_1_1LimitedResults.html" target="_top" xlink:title=" ">
<polygon fill="white" stroke="#666666" points="376,-78 216,-78 216,-48 376,-48 376,-78"/>
<text text-anchor="start" x="224" y="-66" font-family="Helvetica,sans-Serif" font-size="10.00">com.teragrep.pth_06.planner.</text>
<text text-anchor="middle" x="296" y="-55" font-family="Helvetica,sans-Serif" font-size="10.00">LimitedResults</text>
</a>
</g>
</g>
<!-- Node1&#45;&gt;Node18 -->
<g id="edge17_Node000001_Node000018" class="edge">
<title>Node1&#45;&gt;Node18</title>
<g id="a_edge17_Node000001_Node000018"><a xlink:title=" ">
<path fill="none" stroke="#63b8ff" d="M98.99,-261.25C119.98,-233.08 163.33,-177.05 206,-135 227.66,-113.66 255.22,-92.11 273.89,-78.22"/>
<polygon fill="#63b8ff" stroke="#63b8ff" points="96.12,-259.24 92.99,-269.36 101.75,-263.4 96.12,-259.24"/>
</a>
</g>
</g>
<!-- Node3 -->
<g id="Node000003" class="node">
<title>Node3</title>
<g id="a_Node000003"><a xlink:href="classcom_1_1teragrep_1_1pth__06_1_1ast_1_1analyze_1_1ScanPlanImpl.html" target="_top" xlink:title=" ">
<polygon fill="white" stroke="#666666" points="602,-606 422,-606 422,-576 602,-576 602,-606"/>
<text text-anchor="start" x="430" y="-594" font-family="Helvetica,sans-Serif" font-size="10.00">com.teragrep.pth_06.ast.analyze.</text>
<text text-anchor="middle" x="512" y="-583" font-family="Helvetica,sans-Serif" font-size="10.00">ScanPlanImpl</text>
</a>
</g>
</g>
<!-- Node2&#45;&gt;Node3 -->
<g id="edge2_Node000002_Node000003" class="edge">
<title>Node2&#45;&gt;Node3</title>
<g id="a_edge2_Node000002_Node000003"><a xlink:title=" ">
<path fill="none" stroke="#63b8ff" d="M374.14,-560.3C397.04,-565.44 421.92,-571.02 444.11,-576"/>
<polygon fill="#63b8ff" stroke="#63b8ff" points="374.65,-556.83 364.12,-558.06 373.12,-563.66 374.65,-556.83"/>
</a>
</g>
</g>
<!-- Node4 -->
<g id="Node000004" class="node">
<title>Node4</title>
<g id="a_Node000004"><a xlink:href="classcom_1_1teragrep_1_1pth__06_1_1ast_1_1analyze_1_1StubScanPlan.html" target="_top" xlink:title=" ">
<polygon fill="white" stroke="#666666" points="602,-558 422,-558 422,-528 602,-528 602,-558"/>
<text text-anchor="start" x="430" y="-546" font-family="Helvetica,sans-Serif" font-size="10.00">com.teragrep.pth_06.ast.analyze.</text>
<text text-anchor="middle" x="512" y="-535" font-family="Helvetica,sans-Serif" font-size="10.00">StubScanPlan</text>
</a>
</g>
</g>
<!-- Node2&#45;&gt;Node4 -->
<g id="edge3_Node000002_Node000004" class="edge">
<title>Node2&#45;&gt;Node4</title>
<g id="a_edge3_Node000002_Node000004"><a xlink:title=" ">
<path fill="none" stroke="#63b8ff" d="M396.23,-543C404.81,-543 413.45,-543 421.94,-543"/>
<polygon fill="#63b8ff" stroke="#63b8ff" points="396.21,-539.5 386.21,-543 396.21,-546.5 396.21,-539.5"/>
</a>
</g>
</g>
<!-- Node6 -->
<g id="Node000006" class="node">
<title>Node6</title>
<g id="a_Node000006"><a xlink:href="classcom_1_1teragrep_1_1pth__06_1_1planner_1_1ArchiveQueryProcessor.html" target="_top" xlink:title=" ">
<polygon fill="white" stroke="#666666" points="592,-510 432,-510 432,-480 592,-480 592,-510"/>
<text text-anchor="start" x="440" y="-498" font-family="Helvetica,sans-Serif" font-size="10.00">com.teragrep.pth_06.planner.</text>
<text text-anchor="middle" x="512" y="-487" font-family="Helvetica,sans-Serif" font-size="10.00">ArchiveQueryProcessor</text>
</a>
</g>
</g>
<!-- Node5&#45;&gt;Node6 -->
<g id="edge5_Node000005_Node000006" class="edge">
<title>Node5&#45;&gt;Node6</title>
<g id="a_edge5_Node000005_Node000006"><a xlink:title=" ">
<path fill="none" stroke="#63b8ff" d="M342.65,-441.83C366.15,-451.19 395.39,-462.33 422,-471 431.59,-474.12 441.84,-477.16 451.86,-479.97"/>
<polygon fill="#63b8ff" stroke="#63b8ff" points="343.87,-438.55 333.29,-438.08 341.27,-445.05 343.87,-438.55"/>
</a>
</g>
</g>
<!-- Node7 -->
<g id="Node000007" class="node">
<title>Node7</title>
<g id="a_Node000007"><a xlink:href="classcom_1_1teragrep_1_1pth__06_1_1planner_1_1MockArchiveQueryProcessor.html" target="_top" xlink:title=" ">
<polygon fill="white" stroke="#666666" points="592,-462 432,-462 432,-432 592,-432 592,-462"/>
<text text-anchor="start" x="440" y="-450" font-family="Helvetica,sans-Serif" font-size="10.00">com.teragrep.pth_06.planner.</text>
<text text-anchor="middle" x="512" y="-439" font-family="Helvetica,sans-Serif" font-size="10.00">MockArchiveQueryProcessor</text>
</a>
</g>
</g>
<!-- Node5&#45;&gt;Node7 -->
<g id="edge6_Node000005_Node000007" class="edge">
<title>Node5&#45;&gt;Node7</title>
<g id="a_edge6_Node000005_Node000007"><a xlink:title=" ">
<path fill="none" stroke="#63b8ff" d="M386.43,-433.03C401.52,-434.72 417.09,-436.47 431.89,-438.13"/>
<polygon fill="#63b8ff" stroke="#63b8ff" points="386.41,-429.5 376.08,-431.87 385.63,-436.46 386.41,-429.5"/>
</a>
</g>
</g>
<!-- Node8 -->
<g id="Node000008" class="node">
<title>Node8</title>
<g id="a_Node000008"><a xlink:href="classcom_1_1teragrep_1_1pth__06_1_1planner_1_1StubArchiveQuery.html" target="_top" xlink:title=" ">
<polygon fill="white" stroke="#666666" points="592,-414 432,-414 432,-384 592,-384 592,-414"/>
<text text-anchor="start" x="440" y="-402" font-family="Helvetica,sans-Serif" font-size="10.00">com.teragrep.pth_06.planner.</text>
<text text-anchor="middle" x="512" y="-391" font-family="Helvetica,sans-Serif" font-size="10.00">StubArchiveQuery</text>
</a>
</g>
</g>
<!-- Node5&#45;&gt;Node8 -->
<g id="edge7_Node000005_Node000008" class="edge">
<title>Node5&#45;&gt;Node8</title>
<g id="a_edge7_Node000005_Node000008"><a xlink:title=" ">
<path fill="none" stroke="#63b8ff" d="M386.43,-412.97C401.52,-411.28 417.09,-409.53 431.89,-407.87"/>
<polygon fill="#63b8ff" stroke="#63b8ff" points="385.63,-409.54 376.08,-414.13 386.41,-416.5 385.63,-409.54"/>
</a>
</g>
</g>
<!-- Node10 -->
<g id="Node000010" class="node">
<title>Node10</title>
<g id="a_Node000010"><a xlink:href="classcom_1_1teragrep_1_1pth__06_1_1planner_1_1HBaseQueryImpl.html" target="_top" xlink:title="Responsible for splitting results from scanPlanCollection into batches.">
<polygon fill="white" stroke="#666666" points="592,-366 432,-366 432,-336 592,-336 592,-366"/>
<text text-anchor="start" x="440" y="-354" font-family="Helvetica,sans-Serif" font-size="10.00">com.teragrep.pth_06.planner.</text>
<text text-anchor="middle" x="512" y="-343" font-family="Helvetica,sans-Serif" font-size="10.00">HBaseQueryImpl</text>
</a>
</g>
</g>
<!-- Node9&#45;&gt;Node10 -->
<g id="edge9_Node000009_Node000010" class="edge">
<title>Node9&#45;&gt;Node10</title>
<g id="a_edge9_Node000009_Node000010"><a xlink:title=" ">
<path fill="none" stroke="#63b8ff" d="M374.14,-320.3C397.04,-325.44 421.92,-331.02 444.11,-336"/>
<polygon fill="#63b8ff" stroke="#63b8ff" points="374.65,-316.83 364.12,-318.06 373.12,-323.66 374.65,-316.83"/>
</a>
</g>
</g>
<!-- Node11 -->
<g id="Node000011" class="node">
<title>Node11</title>
<g id="a_Node000011"><a xlink:href="classcom_1_1teragrep_1_1pth__06_1_1planner_1_1StubHBaseQuery.html" target="_top" xlink:title=" ">
<polygon fill="white" stroke="#666666" points="592,-318 432,-318 432,-288 592,-288 592,-318"/>
<text text-anchor="start" x="440" y="-306" font-family="Helvetica,sans-Serif" font-size="10.00">com.teragrep.pth_06.planner.</text>
<text text-anchor="middle" x="512" y="-295" font-family="Helvetica,sans-Serif" font-size="10.00">StubHBaseQuery</text>
</a>
</g>
</g>
<!-- Node9&#45;&gt;Node11 -->
<g id="edge10_Node000009_Node000011" class="edge">
<title>Node9&#45;&gt;Node11</title>
<g id="a_edge10_Node000009_Node000011"><a xlink:title=" ">
<path fill="none" stroke="#63b8ff" d="M386.43,-303C401.52,-303 417.09,-303 431.89,-303"/>
<polygon fill="#63b8ff" stroke="#63b8ff" points="386.08,-299.5 376.08,-303 386.08,-306.5 386.08,-299.5"/>
</a>
</g>
</g>
<!-- Node13 -->
<g id="Node000013" class="node">
<title>Node13</title>
<g id="a_Node000013"><a xlink:href="classcom_1_1teragrep_1_1pth__06_1_1planner_1_1HourlyViewsSlices.html" target="_top" xlink:title=" ">
<polygon fill="white" stroke="#666666" points="592,-270 432,-270 432,-240 592,-240 592,-270"/>
<text text-anchor="start" x="440" y="-258" font-family="Helvetica,sans-Serif" font-size="10.00">com.teragrep.pth_06.planner.</text>
<text text-anchor="middle" x="512" y="-247" font-family="Helvetica,sans-Serif" font-size="10.00">HourlyViewsSlices</text>
</a>
</g>
</g>
<!-- Node12&#45;&gt;Node13 -->
<g id="edge12_Node000012_Node000013" class="edge">
<title>Node12&#45;&gt;Node13</title>
<g id="a_edge12_Node000012_Node000013"><a xlink:title=" ">
<path fill="none" stroke="#63b8ff" d="M386.43,-255C401.52,-255 417.09,-255 431.89,-255"/>
<polygon fill="#63b8ff" stroke="#63b8ff" points="386.08,-251.5 376.08,-255 386.08,-258.5 386.08,-251.5"/>
</a>
</g>
</g>
<!-- Node14 -->
<g id="Node000014" class="node">
<title>Node14</title>
<g id="a_Node000014"><a xlink:href="classcom_1_1teragrep_1_1pth__06_1_1planner_1_1StubHourlySlices.html" target="_top" xlink:title=" ">
<polygon fill="white" stroke="#666666" points="592,-222 432,-222 432,-192 592,-192 592,-222"/>
<text text-anchor="start" x="440" y="-210" font-family="Helvetica,sans-Serif" font-size="10.00">com.teragrep.pth_06.planner.</text>
<text text-anchor="middle" x="512" y="-199" font-family="Helvetica,sans-Serif" font-size="10.00">StubHourlySlices</text>
</a>
</g>
</g>
<!-- Node12&#45;&gt;Node14 -->
<g id="edge13_Node000012_Node000014" class="edge">
<title>Node12&#45;&gt;Node14</title>
<g id="a_edge13_Node000012_Node000014"><a xlink:title=" ">
<path fill="none" stroke="#63b8ff" d="M374.14,-237.7C397.04,-232.56 421.92,-226.98 444.11,-222"/>
<polygon fill="#63b8ff" stroke="#63b8ff" points="373.12,-234.34 364.12,-239.94 374.65,-241.17 373.12,-234.34"/>
</a>
</g>
</g>
<!-- Node16 -->
<g id="Node000016" class="node">
<title>Node16</title>
<g id="a_Node000016"><a xlink:href="classcom_1_1teragrep_1_1pth__06_1_1planner_1_1KafkaQueryProcessor.html" target="_top" xlink:title=" ">
<polygon fill="white" stroke="#666666" points="592,-174 432,-174 432,-144 592,-144 592,-174"/>
<text text-anchor="start" x="440" y="-162" font-family="Helvetica,sans-Serif" font-size="10.00">com.teragrep.pth_06.planner.</text>
<text text-anchor="middle" x="512" y="-151" font-family="Helvetica,sans-Serif" font-size="10.00">KafkaQueryProcessor</text>
</a>
</g>
</g>
<!-- Node15&#45;&gt;Node16 -->
<g id="edge15_Node000015_Node000016" class="edge">
<title>Node15&#45;&gt;Node16</title>
<g id="a_edge15_Node000015_Node000016"><a xlink:title=" ">
<path fill="none" stroke="#63b8ff" d="M386.43,-159C401.52,-159 417.09,-159 431.89,-159"/>
<polygon fill="#63b8ff" stroke="#63b8ff" points="386.08,-155.5 376.08,-159 386.08,-162.5 386.08,-155.5"/>
</a>
</g>
</g>
<!-- Node17 -->
<g id="Node000017" class="node">
<title>Node17</title>
<g id="a_Node000017"><a xlink:href="classcom_1_1teragrep_1_1pth__06_1_1planner_1_1StubKafkaQuery.html" target="_top" xlink:title=" ">
<polygon fill="white" stroke="#666666" points="592,-126 432,-126 432,-96 592,-96 592,-126"/>
<text text-anchor="start" x="440" y="-114" font-family="Helvetica,sans-Serif" font-size="10.00">com.teragrep.pth_06.planner.</text>
<text text-anchor="middle" x="512" y="-103" font-family="Helvetica,sans-Serif" font-size="10.00">StubKafkaQuery</text>
</a>
</g>
</g>
<!-- Node15&#45;&gt;Node17 -->
<g id="edge16_Node000015_Node000017" class="edge">
<title>Node15&#45;&gt;Node17</title>
<g id="a_edge16_Node000015_Node000017"><a xlink:title=" ">
<path fill="none" stroke="#63b8ff" d="M374.14,-141.7C397.04,-136.56 421.92,-130.98 444.11,-126"/>
<polygon fill="#63b8ff" stroke="#63b8ff" points="373.12,-138.34 364.12,-143.94 374.65,-145.17 373.12,-138.34"/>
</a>
</g>
</g>
<!-- Node19 -->
<g id="Node000019" class="node">
<title>Node19</title>
<g id="a_Node000019"><a xlink:href="classcom_1_1teragrep_1_1pth__06_1_1planner_1_1BatchSizeLimitedResults.html" target="_top" xlink:title=" ">
<polygon fill="white" stroke="#666666" points="592,-78 432,-78 432,-48 592,-48 592,-78"/>
<text text-anchor="start" x="440" y="-66" font-family="Helvetica,sans-Serif" font-size="10.00">com.teragrep.pth_06.planner.</text>
<text text-anchor="middle" x="512" y="-55" font-family="Helvetica,sans-Serif" font-size="10.00">BatchSizeLimitedResults</text>
</a>
</g>
</g>
<!-- Node18&#45;&gt;Node19 -->
<g id="edge18_Node000018_Node000019" class="edge">
<title>Node18&#45;&gt;Node19</title>
<g id="a_edge18_Node000018_Node000019"><a xlink:title=" ">
<path fill="none" stroke="#63b8ff" d="M386.43,-63C401.52,-63 417.09,-63 431.89,-63"/>
<polygon fill="#63b8ff" stroke="#63b8ff" points="386.08,-59.5 376.08,-63 386.08,-66.5 386.08,-59.5"/>
</a>
</g>
</g>
<!-- Node20 -->
<g id="Node000020" class="node">
<title>Node20</title>
<g id="a_Node000020"><a xlink:href="classcom_1_1teragrep_1_1pth__06_1_1planner_1_1StubLimitedResults.html" target="_top" xlink:title=" ">
<polygon fill="white" stroke="#666666" points="592,-30 432,-30 432,0 592,0 592,-30"/>
<text text-anchor="start" x="440" y="-18" font-family="Helvetica,sans-Serif" font-size="10.00">com.teragrep.pth_06.planner.</text>
<text text-anchor="middle" x="512" y="-7" font-family="Helvetica,sans-Serif" font-size="10.00">StubLimitedResults</text>
</a>
</g>
</g>
<!-- Node18&#45;&gt;Node20 -->
<g id="edge19_Node000018_Node000020" class="edge">
<title>Node18&#45;&gt;Node20</title>
<g id="a_edge19_Node000018_Node000020"><a xlink:title=" ">
<path fill="none" stroke="#63b8ff" d="M374.14,-45.7C397.04,-40.56 421.92,-34.98 444.11,-30"/>
<polygon fill="#63b8ff" stroke="#63b8ff" points="373.12,-42.34 364.12,-47.94 374.65,-49.17 373.12,-42.34"/>
</a>
</g>
</g>
</g>
</svg>
